<svg id="Black" xmlns="http://www.w3.org/2000/svg" viewBox="0 0 519.71 368.27"><defs><style>.cls-1{fill:#231f20;}</style></defs><g id="Descriptor_copy" data-name="Descriptor copy"><path class="cls-1" d="M36.84,333.06v-39.3H49.22a28.7,28.7,0,0,1,6,.6,13,13,0,0,1,4.84,2,9.9,9.9,0,0,1,3.19,3.76,12.9,12.9,0,0,1,1.14,5.74,13.1,13.1,0,0,1-1.14,5.65,11.19,11.19,0,0,1-3.16,4,13.3,13.3,0,0,1-4.75,2.35,22.27,22.27,0,0,1-5.92.75H43.82v14.42Zm7-20h5.1q8.65,0,8.66-7.15,0-3.73-2.26-5.14t-6.64-1.41H43.82Z"/><path class="cls-1" d="M74.46,333.78a8.62,8.62,0,0,1-6.31-2.37,8.46,8.46,0,0,1-2.4-6.28,8.64,8.64,0,0,1,1-4.18,8.49,8.49,0,0,1,3.13-3.15,20.37,20.37,0,0,1,5.4-2.23,49.66,49.66,0,0,1,7.85-1.38,11.12,11.12,0,0,0-.33-2.19,5,5,0,0,0-.9-1.87,4.29,4.29,0,0,0-1.66-1.26,6.24,6.24,0,0,0-2.52-.45,11.21,11.21,0,0,0-4.24.84,28.45,28.45,0,0,0-4,2l-2.53-4.62A29.63,29.63,0,0,1,72.42,304,18.81,18.81,0,0,1,79,302.83q5.53,0,8.26,3.28T90,315.57v17.49H84.32l-.48-3.25H83.6a21.32,21.32,0,0,1-4.24,2.83A10.68,10.68,0,0,1,74.46,333.78Zm2.23-5.41a6.47,6.47,0,0,0,3.27-.84,17.59,17.59,0,0,0,3.16-2.4v-6.61a31.42,31.42,0,0,0-5.05,1,14.87,14.87,0,0,0-3.31,1.35,4.81,4.81,0,0,0-1.8,1.71,4.11,4.11,0,0,0-.54,2,3.37,3.37,0,0,0,1.2,2.88A5,5,0,0,0,76.69,328.37Z"/><path class="cls-1" d="M96.7,344.72V303.55h5.71l.48,3.13h.24a20.91,20.91,0,0,1,4.15-2.71,10.47,10.47,0,0,1,4.74-1.14,10.93,10.93,0,0,1,4.9,1.05,10.2,10.2,0,0,1,3.64,3,14.12,14.12,0,0,1,2.28,4.74,22.84,22.84,0,0,1,.78,6.19,20.3,20.3,0,0,1-1.05,6.77,15.31,15.31,0,0,1-2.79,5,12.22,12.22,0,0,1-4,3.1,11,11,0,0,1-4.75,1.08,9.51,9.51,0,0,1-3.84-.84,14.57,14.57,0,0,1-3.73-2.4l.18,4.92v9.26Zm12.86-16.65a6,6,0,0,0,4.93-2.55q2-2.55,2-7.61A13.35,13.35,0,0,0,115,311a5.27,5.27,0,0,0-4.87-2.46c-2.08,0-4.25,1.1-6.49,3.31v13.76a10.31,10.31,0,0,0,3.12,1.92A8.44,8.44,0,0,0,109.56,328.07Z"/><path class="cls-1" d="M137.74,333.78q-4.74,0-6.91-3c-1.44-2-2.16-4.92-2.16-8.69V303.55h6.91v17.61c0,2.44.36,4.17,1.08,5.17a4,4,0,0,0,3.49,1.5,6.06,6.06,0,0,0,3.39-1,13.74,13.74,0,0,0,3.16-3.13V303.55h6.91v29.51H148l-.54-4.33h-.18a17.18,17.18,0,0,1-4.18,3.67A10,10,0,0,1,137.74,333.78Z"/><path class="cls-1" d="M167.91,333.78a8.6,8.6,0,0,1-6.31-2.37,8.46,8.46,0,0,1-2.4-6.28,8.64,8.64,0,0,1,1-4.18,8.49,8.49,0,0,1,3.13-3.15,20.37,20.37,0,0,1,5.4-2.23,49.66,49.66,0,0,1,7.85-1.38,11.12,11.12,0,0,0-.33-2.19,5,5,0,0,0-.91-1.87,4.19,4.19,0,0,0-1.65-1.26,6.24,6.24,0,0,0-2.52-.45,11.21,11.21,0,0,0-4.24.84,29.09,29.09,0,0,0-4.06,2l-2.52-4.62a29.63,29.63,0,0,1,5.53-2.71,18.81,18.81,0,0,1,6.61-1.14q5.53,0,8.26,3.28t2.74,9.46v17.49h-5.71l-.48-3.25h-.24a21.61,21.61,0,0,1-4.24,2.83A10.71,10.71,0,0,1,167.91,333.78Zm2.23-5.41a6.47,6.47,0,0,0,3.27-.84,18,18,0,0,0,3.16-2.4v-6.61a31.42,31.42,0,0,0-5,1,14.67,14.67,0,0,0-3.31,1.35,4.81,4.81,0,0,0-1.8,1.71,4.11,4.11,0,0,0-.54,2,3.37,3.37,0,0,0,1.2,2.88A5,5,0,0,0,170.14,328.37Z"/><path class="cls-1" d="M201.14,333.06v-39.3h7.16l12.26,22.11,4,8.36h.24c-.16-2.05-.35-4.24-.57-6.59s-.33-4.61-.33-6.82V293.76h6.67v39.3h-7.15l-12.26-22.12-4-8.35h-.24c.16,2.08.35,4.27.57,6.55s.34,4.53.34,6.73v17.19Z"/><path class="cls-1" d="M251,333.78a15.37,15.37,0,0,1-5.71-1,13.42,13.42,0,0,1-4.62-3,13.84,13.84,0,0,1-3.1-4.83,17.93,17.93,0,0,1-1.11-6.52,17.5,17.5,0,0,1,1.14-6.49,14.83,14.83,0,0,1,3-4.87,13.45,13.45,0,0,1,4.35-3.07,12.5,12.5,0,0,1,5.05-1.08,12.83,12.83,0,0,1,5.29,1,10.36,10.36,0,0,1,3.82,2.89,12.67,12.67,0,0,1,2.31,4.44,19.54,19.54,0,0,1,.78,5.65c0,.69,0,1.33-.09,1.93a12.79,12.79,0,0,1-.21,1.44H243.15a9.5,9.5,0,0,0,2.8,6.1,8.38,8.38,0,0,0,5.91,2.13,10.88,10.88,0,0,0,3.58-.57,16.19,16.19,0,0,0,3.28-1.59l2.34,4.33a21.26,21.26,0,0,1-4.69,2.28A16.29,16.29,0,0,1,251,333.78Zm-7.87-18.27h13.1a8.79,8.79,0,0,0-1.47-5.38,5.31,5.31,0,0,0-4.54-1.95,6.54,6.54,0,0,0-4.62,1.86A8.83,8.83,0,0,0,243.09,315.51Z"/><path class="cls-1" d="M272.06,333.06l-7.82-29.51h7l3.54,15.33q.48,2.1.81,4.2c.22,1.41.47,2.83.75,4.27h.24c.28-1.44.57-2.86.88-4.27s.63-2.8,1-4.2l3.84-15.33h6.31l3.91,15.33q.54,2.1,1,4.2c.32,1.41.64,2.83,1,4.27h.24c.28-1.44.54-2.86.78-4.27s.5-2.8.79-4.2l3.54-15.33h6.49l-7.51,29.51h-8.23l-3.43-13.76c-.32-1.4-.62-2.8-.9-4.18l-.9-4.42h-.24c-.28,1.57-.56,3.05-.84,4.45s-.58,2.81-.9,4.21L280,333.06Z"/><path class="cls-1" d="M338,333.78a20.14,20.14,0,0,1-7.36-1.32,16.13,16.13,0,0,1-5.89-3.91,17.79,17.79,0,0,1-3.88-6.37,25.16,25.16,0,0,1-1.38-8.65,24.33,24.33,0,0,1,1.44-8.63,19.45,19.45,0,0,1,3.94-6.46,16.62,16.62,0,0,1,5.89-4A19.2,19.2,0,0,1,338,293a15.17,15.17,0,0,1,7.12,1.53,18.56,18.56,0,0,1,4.78,3.45l-3.73,4.51a15.3,15.3,0,0,0-3.33-2.43,9.61,9.61,0,0,0-4.6-1,11.26,11.26,0,0,0-4.78,1,10.48,10.48,0,0,0-3.66,2.82,13.11,13.11,0,0,0-2.38,4.48,19.57,19.57,0,0,0-.84,6q0,6.73,3,10.54t9,3.82a11.13,11.13,0,0,0,3.19-.45,6.53,6.53,0,0,0,2.46-1.29v-8.48h-7.45v-5.7h13.7v17.3a15.7,15.7,0,0,1-5.26,3.34A19,19,0,0,1,338,333.78Z"/><path class="cls-1" d="M365.8,333.78q-4.74,0-6.91-3c-1.44-2-2.16-4.92-2.16-8.69V303.55h6.91v17.61c0,2.44.36,4.17,1.08,5.17a4,4,0,0,0,3.49,1.5,6.06,6.06,0,0,0,3.39-1,13.55,13.55,0,0,0,3.16-3.13V303.55h6.91v29.51H376l-.54-4.33h-.18a17,17,0,0,1-4.18,3.67A10,10,0,0,1,365.8,333.78Z"/><path class="cls-1" d="M392.31,298.38a4.41,4.41,0,0,1-3.07-1.08,3.62,3.62,0,0,1-1.2-2.82,3.73,3.73,0,0,1,1.2-2.86,4.79,4.79,0,0,1,6.13,0,3.73,3.73,0,0,1,1.2,2.86,3.62,3.62,0,0,1-1.2,2.82A4.4,4.4,0,0,1,392.31,298.38Zm-3.49,34.68V303.55h6.91v29.51Z"/><path class="cls-1" d="M402.94,333.06V303.55h5.71l.48,4h.24a24.28,24.28,0,0,1,4.3-3.31,10.31,10.31,0,0,1,5.38-1.38c3.16,0,5.47,1,6.91,3s2.16,4.91,2.16,8.68v18.51h-6.91V315.45q0-3.66-1.08-5.17a4.06,4.06,0,0,0-3.54-1.5,6.21,6.21,0,0,0-3.4.93,21.19,21.19,0,0,0-3.33,2.74v20.61Z"/><path class="cls-1" d="M447.59,333.78a15.28,15.28,0,0,1-5.7-1,13.36,13.36,0,0,1-4.63-3,13.84,13.84,0,0,1-3.1-4.83,17.93,17.93,0,0,1-1.11-6.52,17.5,17.5,0,0,1,1.14-6.49,14.83,14.83,0,0,1,3-4.87,13.39,13.39,0,0,1,4.36-3.07,12.42,12.42,0,0,1,5-1.08,12.83,12.83,0,0,1,5.29,1,10.36,10.36,0,0,1,3.82,2.89,12.67,12.67,0,0,1,2.31,4.44,19.54,19.54,0,0,1,.78,5.65c0,.69,0,1.33-.09,1.93a12.79,12.79,0,0,1-.21,1.44H439.78a9.5,9.5,0,0,0,2.8,6.1,8.38,8.38,0,0,0,5.92,2.13,10.86,10.86,0,0,0,3.57-.57,15.94,15.94,0,0,0,3.28-1.59l2.34,4.33a21.05,21.05,0,0,1-4.69,2.28A16.29,16.29,0,0,1,447.59,333.78Zm-7.87-18.27h13.1a8.79,8.79,0,0,0-1.47-5.38,5.31,5.31,0,0,0-4.54-1.95,6.54,6.54,0,0,0-4.62,1.86A8.83,8.83,0,0,0,439.72,315.51Z"/><path class="cls-1" d="M470.25,333.78a8.6,8.6,0,0,1-6.31-2.37,8.46,8.46,0,0,1-2.4-6.28,8.64,8.64,0,0,1,1-4.18,8.53,8.53,0,0,1,3.12-3.15,20.59,20.59,0,0,1,5.41-2.23,49.73,49.73,0,0,1,7.84-1.38,11.12,11.12,0,0,0-.33-2.19,5,5,0,0,0-.9-1.87,4.19,4.19,0,0,0-1.65-1.26,6.24,6.24,0,0,0-2.52-.45,11.17,11.17,0,0,0-4.24.84,29.09,29.09,0,0,0-4.06,2l-2.52-4.62a29.33,29.33,0,0,1,5.53-2.71,18.77,18.77,0,0,1,6.61-1.14c3.68,0,6.44,1.09,8.26,3.28s2.74,5.34,2.74,9.46v17.49h-5.71l-.48-3.25h-.24a21.61,21.61,0,0,1-4.24,2.83A10.71,10.71,0,0,1,470.25,333.78Zm2.22-5.41a6.48,6.48,0,0,0,3.28-.84,17.56,17.56,0,0,0,3.15-2.4v-6.61a31.49,31.49,0,0,0-5,1,14.47,14.47,0,0,0-3.31,1.35,4.81,4.81,0,0,0-1.8,1.71,4.11,4.11,0,0,0-.54,2,3.37,3.37,0,0,0,1.2,2.88A5,5,0,0,0,472.47,328.37Z"/></g><g id="Logo_copy" data-name="Logo copy"><path class="cls-1" d="M247.8,37V270.53h-207V37h207m4-4h-215V274.53h215V33Z"/><path class="cls-1" d="M205.9,122.62a46.26,46.26,0,0,0-.22-5.65c-.47-3.74-.91-7.31-1.72-11-1.54-7-4.51-13.32-10.09-18.14a26.79,26.79,0,0,0-7.46-4.54A38,38,0,0,0,176,81a34.8,34.8,0,0,0-13.44,1.3,51.33,51.33,0,0,0-16.68,8.41,108.48,108.48,0,0,0-9.52,7.83,84.15,84.15,0,0,0-6.21,7.32c-.26.31-.55.6-1,1.08-.1-1.18-.25-2.08-.24-3a23.49,23.49,0,0,0-.8-7.46C127,93,125,90.2,121.56,88.85a17.3,17.3,0,0,0-12.64.15,15,15,0,0,0-7.31,5.3,5.6,5.6,0,0,0-.46.71c-.26.52.61.75,1,.9,10.32,3.59,17.4,11,17.4,19.55,0,6.74-4.39,12.76-11.29,16.77-.85.49-2.64,1.17-2.64,3.76s0,14.37.2,22.75a40.48,40.48,0,0,0,.65,8c.71,3.22,3.2,5.41,6.26,6.67a20.7,20.7,0,0,0,7.94,1.29h28.09c.22,0,.44,0,.66,0a.7.7,0,0,0,.81-.8c0-1,0-2.08,0-3.11,0-.61-.28-.83-.86-.85-1.45,0-2.91,0-4.34-.2a64.35,64.35,0,0,1-7.72-1.11,9.18,9.18,0,0,1-7.22-7.73,49.46,49.46,0,0,1-.8-8.24c-.15-8-.18-16.07-.2-24.1,0-4.88.08-9.76.17-14.64a2.08,2.08,0,0,1,.58-1.31c1.46-1.42,3-2.82,4.5-4.15a49.61,49.61,0,0,1,12.24-8.08,51.57,51.57,0,0,1,7.7-2.76,31.19,31.19,0,0,1,10.94-.86A19.48,19.48,0,0,1,172,98.44c4.42,2.09,6.89,5.82,8.31,10.34a52.56,52.56,0,0,1,2,16q0,48.83-.11,97.66a71,71,0,0,1-.62,11.29,31.69,31.69,0,0,1-2.67,9,10,10,0,0,1-9.62,6.06,12,12,0,0,1-7.08-2.3c-2.91-2.13-5.64-4.5-8.48-6.73a20.11,20.11,0,0,0-8.1-4.28c-5-1.05-9.46-.49-13.06,3.49a9.16,9.16,0,0,0-2.58,7.69,10.08,10.08,0,0,0,3,5.48c2.92,3,6.64,4.59,10.61,5.63a46.68,46.68,0,0,0,15.45,1.17,57.35,57.35,0,0,0,15.11-3.08,42.79,42.79,0,0,0,20.36-15.13,54,54,0,0,0,8.16-16.6,70.65,70.65,0,0,0,3.17-20.54c.07-27,0-54,0-80.93"/><path class="cls-1" d="M115.6,115.44c0-7.29-6.35-13.59-15.55-16.55a3.58,3.58,0,0,0-2.23-.22L96.74,99q-5.55,1.92-11.12,3.8l-2.38.81c-.38.12-.29.18,0,.3s.45.19.68.27c3.18,1.11,6.35,2.23,9.54,3.32a15.72,15.72,0,0,1,10.75,11.3,39.21,39.21,0,0,1,1.26,7.49c.09,1.09.16,1.63.16,2.16,0,1.64,2.28-.27,3.28-1,4.17-3.22,6.69-7.42,6.69-12"/><path class="cls-1" d="M182.38,77.17c-1.4-.3-2.8-.65-4.21-.89a38.7,38.7,0,0,0-22.26,3,67.11,67.11,0,0,0-18,12c-1.93,1.72-3.83,3.47-5.75,5.2a8.41,8.41,0,0,1-.73.48c-.1-1.66-.23-3.15-.29-4.64a72.22,72.22,0,0,1,1.8-19.5A33.43,33.43,0,0,1,143,55a48.11,48.11,0,0,1,15.47-9.09,9.08,9.08,0,0,1,2.24-.58c-.21.29-.42.58-.64.86A47.1,47.1,0,0,0,152,61.86a17.76,17.76,0,0,0-.53,8.51c.26,1.26.27,1.24,1.46.81,7.82-2.86,15.57-3,23.05,1a52,52,0,0,1,5.84,4.14,4.52,4.52,0,0,1,.64.67l-.09.17"/><path class="cls-1" d="M471.51,266a5,5,0,0,0,5-5.28,5.1,5.1,0,0,0-5.07-5.31h0a5.3,5.3,0,0,0,.08,10.59Zm-2.46-8.5a13,13,0,0,1,2.34-.2,3.35,3.35,0,0,1,2.13.52,1.75,1.75,0,0,1,.69,1.41,1.72,1.72,0,0,1-1.33,1.61v.09a2,2,0,0,1,1.12,1.61,5.29,5.29,0,0,0,.49,1.69H473.2a4.79,4.79,0,0,1-.53-1.77c-.16-.73-.6-1.05-1.57-1.05h-.8v2.82h-1.25Z"/><path class="cls-1" d="M485.56,196.08V33H270.43V196.09l53.77,0c11.17,0,13.6-4.5,13.69-8.29.16-7.74-4.05-10.84-12.16-16.11-15.23-9.28-17.51-20.11-17.51-25.74,0-19.2,14.63-27.8,29.12-27.8a62.71,62.71,0,0,1,18.7,3.76l-3.28,17.4a22.64,22.64,0,0,0-11.15-2.9c-8.87,0-12,4.5-12,8.72,0,6.58,3.19,8.81,13.26,14.87,11.14,6.77,16.79,15.67,16.79,26.46,0,16.6-12.24,27.78-30.44,27.82l-58.76,0v60.37H485.56v-60H412.45V120.7h19.73V196Zm-14.09,58.17h0a6.45,6.45,0,1,1,0,12.89,6.45,6.45,0,1,1,0-12.89Zm-78.23-39.64H374.72V120.76h18.52Z"/><path class="cls-1" d="M472.88,259.32c0-.64-.41-1.08-1.62-1.08a4.69,4.69,0,0,0-1,.08v2.09h.84C472.07,260.41,472.88,260.13,472.88,259.32Z"/></g></svg>