<?xml version="1.0" encoding="UTF-8" standalone="no"?>
<!-- Created with Inkscape (http://www.inkscape.org/) -->

<svg
   xmlns:dc="http://purl.org/dc/elements/1.1/"
   xmlns:cc="http://creativecommons.org/ns#"
   xmlns:rdf="http://www.w3.org/1999/02/22-rdf-syntax-ns#"
   xmlns:svg="http://www.w3.org/2000/svg"
   xmlns="http://www.w3.org/2000/svg"
   xmlns:sodipodi="http://sodipodi.sourceforge.net/DTD/sodipodi-0.dtd"
   xmlns:inkscape="http://www.inkscape.org/namespaces/inkscape"
   version="1.1"
   width="1.8919227cm"
   height="2.4885101cm"
   id="svg2"
   xml:space="preserve"
   inkscape:version="0.91 r13725"
   sodipodi:docname="title-page.svg"
   inkscape:export-filename="X:\dev\bloom2\src\BloomExe\Resources\SIL_Logo_2014Small1.png"
   inkscape:export-xdpi="19.940001"
   inkscape:export-ydpi="19.940001"><sodipodi:namedview
     pagecolor="#ffffff"
     bordercolor="#666666"
     borderopacity="1"
     objecttolerance="10"
     gridtolerance="10"
     guidetolerance="10"
     inkscape:pageopacity="0"
     inkscape:pageshadow="2"
     inkscape:window-width="1858"
     inkscape:window-height="1177"
     id="namedview22"
     showgrid="false"
     inkscape:zoom="1.3112021"
     inkscape:cx="-298.35435"
     inkscape:cy="-117.25239"
     inkscape:window-x="1192"
     inkscape:window-y="468"
     inkscape:window-maximized="1"
     inkscape:current-layer="text4167"
     units="cm"
     fit-margin-top="0"
     fit-margin-left="0"
     fit-margin-right="0"
     fit-margin-bottom="0" /><metadata
     id="metadata8"><rdf:RDF><cc:Work
         rdf:about=""><dc:format>image/svg+xml</dc:format><dc:type
           rdf:resource="http://purl.org/dc/dcmitype/StillImage" /><dc:title></dc:title></cc:Work></rdf:RDF></metadata><defs
     id="defs6"><clipPath
       id="clipPath18"><path
         d="M 0,2879.78 0,0 l 2563.7,0 0,2879.78 -2563.7,0 z"
         inkscape:connector-curvature="0"
         id="path20" /></clipPath><clipPath
       id="clipPath28"><path
         d="M 0.00390625,2879.78 2563.7,2879.78 2563.7,0 0.00390625,0 l 0,2879.78 z"
         inkscape:connector-curvature="0"
         id="path30" /></clipPath></defs><g
     transform="matrix(1.25,0,0,-1.25,-106.77274,54.797007)"
     id="g10"><g
       id="g24"
       transform="scale(0.1,0.1)"><g
         id="g26"
         clip-path="url(#clipPath28)"
         transform="matrix(0.20918745,0,0,0.20918745,854.1811,-164.03778)"
         inkscape:export-xdpi="600.16638"
         inkscape:export-ydpi="600.16638"><path
           style="fill:#000000;fill-opacity:1;fill-rule:nonzero;stroke:none"
           id="path32"
           inkscape:connector-curvature="0"
           d="m 2563.7,2879.79 -2563.69609375,0 0,-1943.579 L 169.273,808.98 0.00390625,715.5 0.00390625,0 2563.7,0 l 0,715.5 -136.36,77.488 136.36,143.223" /><path
           style="fill:#ffffff;fill-opacity:1;fill-rule:nonzero;stroke:none"
           id="path34"
           inkscape:connector-curvature="0"
           d="m 1242.9,715.488 220.602,0 0,1118.4 -220.602,0 0,-1118.4 z" /><path
           style="fill:#ffffff;fill-opacity:1;fill-rule:nonzero;stroke:none"
           id="path36"
           inkscape:connector-curvature="0"
           d="m 862.914,1366.47 c -120.031,72.25 -158.012,98.85 -158.012,177.22 0,50.28 37.672,104 143.403,104 57.898,0 101.699,-17.5 132.808,-34.61 l 39.067,207.35 c -40.817,18.06 -154.457,44.76 -222.778,44.76 -172.718,0 -347,-102.41 -347,-331.2 0,-67.1 27.09,-196.19 208.602,-306.79 96.699,-62.77 146.879,-99.7 144.891,-192.03 -0.961,-45.061 -30.04,-98.779 -163.09,-98.779 l -640.80890625,-0.469 0,-216.492 L 700.293,719.691 c 216.93,0.489 362.697,133.7 362.697,331.499 0,128.6 -67.314,234.67 -200.076,315.28" /><path
           style="fill:#ffffff;fill-opacity:1;fill-rule:nonzero;stroke:none"
           id="path38"
           inkscape:connector-curvature="0"
           d="m 2563.7,936.25 -636.11,0.559 0,897.881 -235.19,-0.09 0,-1119.112 871.3,0" /><path
           style="fill:#1064a7;fill-opacity:1;fill-rule:nonzero;stroke:none"
           id="path42"
           inkscape:connector-curvature="0"
           d="m 0.03125,713.051 7.73047,0 0,6.37891 -7.73047,0 0,-6.37891 z" /><g
           transform="scale(1,-1)"
           style="font-style:normal;font-weight:normal;font-size:579.17352295px;line-height:125%;font-family:Sans;letter-spacing:0px;word-spacing:0px;fill:#ffffff;fill-opacity:1;stroke:none"
           id="text3014"><path
             d="m 2308.5671,-256.56193 -52.6573,0 0,129.96054 -19.598,0 0,-129.96054 -52.6573,0 0,-17.42046 124.9126,0 0,17.42046 z"
             style="font-size:202.71073914px"
             id="path4183"
             inkscape:connector-curvature="0" /><path
             d="m 2459.8083,-126.60139 -19.598,0 0,-126.99115 -40.9776,86.40941 -11.6797,0 -40.6807,-86.40941 0,126.99115 -18.3113,0 0,-147.381 26.7246,0 39.295,82.0543 38.0083,-82.0543 27.2194,0 0,147.381 z"
             style="font-size:202.71073914px"
             id="path4185"
             inkscape:connector-curvature="0" /></g><flowRoot
           xml:space="preserve"
           id="flowRoot4149"
           style="font-style:normal;font-weight:normal;font-size:11.25px;line-height:125%;font-family:Sans;letter-spacing:0px;word-spacing:0px;fill:#000000;fill-opacity:1;stroke:#000000;stroke-width:1px;stroke-linecap:butt;stroke-linejoin:miter;stroke-opacity:1"
           transform="matrix(8,0,0,-8,0,2879.8)"><flowRegion
             id="flowRegion4151"><rect
               id="rect4153"
               width="327.88303"
               height="47.456753"
               x="4.3142505"
               y="398.80325"
               style="fill:#000000;stroke:#000000" /></flowRegion><flowPara
             id="flowPara4155">Papua New Guinea</flowPara></flowRoot></g><g
         transform="scale(1,-1)"
         style="font-style:italic;font-variant:normal;font-weight:normal;font-stretch:normal;font-size:142.64187622px;line-height:125%;font-family:Arial;-inkscape-font-specification:'Arial, Italic';text-align:start;letter-spacing:0px;word-spacing:0px;writing-mode:lr-tb;text-anchor:start;fill:#000000;fill-opacity:1;stroke:none;stroke-width:1px;stroke-linecap:butt;stroke-linejoin:miter;stroke-opacity:1"
         id="text4167"><path
           d="m 888.18672,256.09508 8.24699,-39.38141 16.44027,0 q 4.27124,0 6.39343,0.99394 2.14905,0.96707 3.54594,3.35789 1.39689,2.36396 1.39689,5.31891 0,2.44455 -0.99394,4.96969 -0.99394,2.52514 -2.52514,4.16379 -1.50434,1.63866 -3.0624,2.47141 -1.55807,0.83276 -3.33103,1.23571 -3.78771,0.88648 -7.65601,0.88648 l -9.85878,0 -3.33103,15.98359 -5.26519,0 z m 9.53643,-20.44287 8.6768,0 q 5.05028,0 7.41424,-1.07453 2.36396,-1.10139 3.78771,-3.33103 1.42374,-2.22965 1.42374,-4.72792 0,-1.93415 -0.75216,-3.14299 -0.75217,-1.23571 -2.1222,-1.79984 -1.37002,-0.59098 -5.26518,-0.59098 l -10.10055,0 -3.0624,14.66729 z"
           id="path4188"
           inkscape:connector-curvature="0"
           inkscape:export-xdpi="600.16638"
           inkscape:export-ydpi="600.16638" /><path
           d="m 943.63231,252.54914 q -2.52514,2.17592 -4.86223,3.19672 -2.3371,0.99394 -4.99655,0.99394 -3.94889,0 -6.36658,-2.31024 -2.41768,-2.33709 -2.41768,-5.96362 0,-2.39082 1.07453,-4.21752 1.10139,-1.85356 2.90122,-2.95495 1.79983,-1.12825 4.40556,-1.61179 1.63865,-0.32236 6.20539,-0.5104 4.59361,-0.18804 6.58148,-0.96707 0.56413,-1.98788 0.56413,-3.30417 0,-1.69238 -1.23571,-2.65945 -1.69238,-1.34316 -4.94282,-1.34316 -3.06241,0 -5.02342,1.37001 -1.93415,1.34316 -2.82063,3.84144 l -4.91596,-0.42981 q 1.50434,-4.24438 4.75478,-6.50089 3.27731,-2.25651 8.24699,-2.25651 5.29205,0 8.38132,2.52514 2.36395,1.88043 2.36395,4.8891 0,2.28337 -0.67157,5.29205 l -1.58493,7.09187 q -0.75217,3.38477 -0.75217,5.50695 0,1.34316 0.59099,3.8683 l -4.91596,0 q -0.40295,-1.39689 -0.56413,-3.54594 z m 1.79983,-10.90645 q -1.0208,0.40295 -2.20278,0.61786 -1.15511,0.2149 -3.89515,0.45667 -4.24439,0.37608 -5.99049,0.96708 -1.74611,0.56412 -2.6326,1.82669 -0.88648,1.26257 -0.88648,2.79377 0,2.0416 1.39689,3.3579 1.42375,1.31629 4.02947,1.31629 2.41769,0 4.64733,-1.26257 2.22964,-1.28943 3.51908,-3.5728 1.28943,-2.28337 2.01473,-6.50089 z"
           id="path4190"
           inkscape:connector-curvature="0"
           inkscape:export-xdpi="600.16638"
           inkscape:export-ydpi="600.16638" /><path
           d="m 952.63147,267.02839 8.247,-39.462 4.48614,0 -0.83275,3.97575 q 2.49827,-2.60573 4.45928,-3.59966 1.98788,-1.02081 4.19066,-1.02081 4.0832,0 6.76952,2.98182 2.68631,2.95495 2.68631,8.48876 0,4.45929 -1.47747,8.13954 -1.47747,3.65339 -3.62653,5.88304 -2.14905,2.22964 -4.35183,3.2773 -2.20278,1.04767 -4.51302,1.04767 -5.13086,0 -7.9515,-5.21146 l -3.22357,15.50005 -4.86224,0 z m 9.61701,-22.59193 q 0,3.19672 0.45668,4.43243 0.67158,1.7461 2.20278,2.82063 1.5312,1.07453 3.54594,1.07453 4.19065,0 6.76952,-4.70106 2.57886,-4.72792 2.57886,-9.64388 0,-3.62653 -1.7461,-5.58754 -1.71925,-1.98787 -4.29811,-1.98787 -1.85356,0 -3.43849,0.99393 -1.58492,0.96708 -2.95495,2.92809 -1.34316,1.93415 -2.22964,4.75478 -0.88649,2.82064 -0.88649,4.91596 z"
           id="path4192"
           inkscape:connector-curvature="0"
           inkscape:export-xdpi="600.16638"
           inkscape:export-ydpi="600.16638" /><path
           d="m 1005.1221,250.93735 q -5.13085,5.80245 -10.50349,5.80245 -3.30417,0 -5.34577,-1.88043 -2.01474,-1.90728 -2.01474,-4.64733 0,-1.79983 0.91335,-6.17852 l 3.43848,-16.46713 4.86224,0 -3.81457,18.2401 q -0.48354,2.28336 -0.48354,3.54593 0,1.61179 0.96708,2.52514 0.99393,0.88649 2.90122,0.88649 2.0416,0 3.97574,-0.99394 1.961,-0.99394 3.3579,-2.68632 1.4238,-1.69238 2.3102,-4.00261 0.591,-1.47748 1.3701,-5.18459 l 2.5788,-12.3302 4.8623,0 -5.9637,28.52869 -4.4861,0 1.0745,-5.15773 z"
           id="path4194"
           inkscape:connector-curvature="0"
           inkscape:export-xdpi="600.16638"
           inkscape:export-ydpi="600.16638" /><path
           d="m 1035.5044,252.54914 q -2.5252,2.17592 -4.8623,3.19672 -2.3371,0.99394 -4.9965,0.99394 -3.9489,0 -6.3666,-2.31024 -2.4177,-2.33709 -2.4177,-5.96362 0,-2.39082 1.0745,-4.21752 1.1014,-1.85356 2.9013,-2.95495 1.7998,-1.12825 4.4055,-1.61179 1.6387,-0.32236 6.2054,-0.5104 4.5936,-0.18804 6.5815,-0.96707 0.5641,-1.98788 0.5641,-3.30417 0,-1.69238 -1.2357,-2.65945 -1.6924,-1.34316 -4.9428,-1.34316 -3.0624,0 -5.0234,1.37001 -1.9342,1.34316 -2.8206,3.84144 l -4.916,-0.42981 q 1.5043,-4.24438 4.7548,-6.50089 3.2773,-2.25651 8.247,-2.25651 5.292,0 8.3813,2.52514 2.3639,1.88043 2.3639,4.8891 0,2.28337 -0.6715,5.29205 l -1.585,7.09187 q -0.7521,3.38477 -0.7521,5.50695 0,1.34316 0.5909,3.8683 l -4.9159,0 q -0.403,-1.39689 -0.5641,-3.54594 z m 1.7998,-10.90645 q -1.0208,0.40295 -2.2028,0.61786 -1.1551,0.2149 -3.8951,0.45667 -4.2444,0.37608 -5.9905,0.96708 -1.7461,0.56412 -2.6326,1.82669 -0.8865,1.26257 -0.8865,2.79377 0,2.0416 1.3969,3.3579 1.4237,1.31629 4.0295,1.31629 2.4176,0 4.6473,-1.26257 2.2296,-1.28943 3.5191,-3.5728 1.2894,-2.28337 2.0147,-6.50089 z"
           id="path4196"
           inkscape:connector-curvature="0"
           inkscape:export-xdpi="600.16638"
           inkscape:export-ydpi="600.16638" /><path
           d="m 1063.0123,256.09508 8.2469,-39.38141 5.104,0 6.6352,14.77474 q 3.0356,6.76952 4.8086,11.38999 1.0208,2.68632 2.3639,7.25305 0.7253,-4.96968 1.8267,-10.26173 l 4.8354,-23.15605 5.1308,0 -8.2201,39.38141 -5.2114,0 -9.7782,-22.75311 q -2.6058,-6.01735 -4.0564,-10.61095 -0.4029,3.84143 -1.558,9.42898 l -4.9966,23.93508 -5.1308,0 z"
           id="path4198"
           inkscape:connector-curvature="0"
           inkscape:export-xdpi="600.16638"
           inkscape:export-ydpi="600.16638" /><path
           d="m 1122.8634,246.39747 4.7279,0.48354 q -1.0208,3.51908 -4.701,6.68893 -3.6534,3.16986 -8.7306,3.16986 -3.1698,0 -5.8293,-1.45061 -2.6326,-1.47748 -4.0295,-4.27125 -1.37,-2.79377 -1.37,-6.36657 0,-4.67419 2.1491,-9.05289 2.1759,-4.40556 5.6144,-6.52775 3.4385,-2.14906 7.4411,-2.14906 5.104,0 8.1395,3.16986 3.0624,3.16985 3.0624,8.64994 0,2.09533 -0.3761,4.29811 l -21.007,0 q -0.1074,0.83276 -0.1074,1.50434 0,4.00261 1.8267,6.1248 1.8535,2.09533 4.513,2.09533 2.4983,0 4.916,-1.63866 2.4176,-1.63865 3.7608,-4.72792 z m -14.13,-7.06501 16.0104,0 q 0.027,-0.75217 0.027,-1.07453 0,-3.65339 -1.8267,-5.58754 -1.8267,-1.96101 -4.701,-1.96101 -3.1162,0 -5.695,2.14906 -2.552,2.14905 -3.8146,6.47402 z"
           id="path4200"
           inkscape:connector-curvature="0"
           inkscape:export-xdpi="600.16638"
           inkscape:export-ydpi="600.16638" /><path
           d="m 1137.9605,256.09508 -2.9818,-28.52869 4.6742,0 1.2894,12.81373 0.5104,7.19934 q 0.054,0.80589 0.1612,3.25044 0.8059,-2.74005 1.37,-4.19066 0.5641,-1.47747 1.7999,-4.19065 l 6.7963,-14.8822 5.2921,0 0.9402,14.26434 q 0.2149,3.25045 0.2686,8.67681 1.3432,-3.59967 4.3787,-9.9931 l 6.1248,-12.94805 4.8623,0 -13.942,28.52869 -5.0503,0 -1.0745,-16.73576 q -0.1075,-1.55806 -0.1612,-6.07107 -1.1014,2.87436 -2.6057,6.20539 l -7.5486,16.60144 -5.104,0 z"
           id="path4202"
           inkscape:connector-curvature="0"
           inkscape:export-xdpi="600.16638"
           inkscape:export-ydpi="600.16638" /><path
           d="m 1208.154,240.56817 0.9402,-4.45929 17.2461,0 -3.3578,16.03732 q -3.2505,2.0416 -7.4143,3.33103 -4.1638,1.28943 -8.1933,1.28943 -8.5962,0 -12.8406,-5.18459 -3.5728,-4.3787 -3.5728,-11.25567 0,-7.09188 3.1162,-12.89432 3.143,-5.82931 7.8977,-8.59622 4.7817,-2.79377 10.611,-2.79377 4.1907,0 7.5217,1.5312 3.331,1.50434 5.104,4.05634 1.773,2.52514 2.552,6.60834 l -5.1577,0.56413 q -0.8328,-4.05634 -3.4654,-6.20539 -2.6057,-2.17592 -6.7158,-2.17592 -4.2712,0 -7.9783,2.33709 -3.7072,2.31024 -5.9368,7.01129 -2.2028,4.67419 -2.2028,10.63782 0,5.93676 2.9281,8.9723 2.9281,3.03554 8.0858,3.03554 5.1309,0 11.0408,-3.38476 l 1.773,-8.4619 -11.981,0 z"
           id="path4204"
           inkscape:connector-curvature="0"
           inkscape:export-xdpi="600.16638"
           inkscape:export-ydpi="600.16638" /><path
           d="m 1249.6845,250.93735 q -5.1309,5.80245 -10.5036,5.80245 -3.3041,0 -5.3457,-1.88043 -2.0148,-1.90728 -2.0148,-4.64733 0,-1.79983 0.9134,-6.17852 l 3.4385,-16.46713 4.8622,0 -3.8146,18.2401 q -0.4835,2.28336 -0.4835,3.54593 0,1.61179 0.9671,2.52514 0.9939,0.88649 2.9012,0.88649 2.0416,0 3.9757,-0.99394 1.9611,-0.99394 3.358,-2.68632 1.4237,-1.69238 2.3102,-4.00261 0.591,-1.47748 1.37,-5.18459 l 2.5789,-12.3302 4.8622,0 -5.9636,28.52869 -4.4862,0 1.0746,-5.15773 z"
           id="path4206"
           inkscape:connector-curvature="0"
           inkscape:export-xdpi="600.16638"
           inkscape:export-ydpi="600.16638" /><path
           d="m 1267.7365,222.22062 1.1551,-5.50695 4.8354,0 -1.1551,5.50695 -4.8354,0 z m -7.0919,33.87446 5.9636,-28.52869 4.8622,0 -5.9636,28.52869 -4.8622,0 z"
           id="path4208"
           inkscape:connector-curvature="0"
           inkscape:export-xdpi="600.16638"
           inkscape:export-ydpi="600.16638" /><path
           d="m 1273.0822,256.09508 5.9637,-28.52869 4.4056,0 -1.0477,4.96969 q 2.8743,-2.92809 5.3726,-4.27125 2.4983,-1.34316 5.104,-1.34316 3.4654,0 5.4264,1.88043 1.9878,1.88042 1.9878,5.02341 0,1.58493 -0.6984,4.99655 l -3.6265,17.27302 -4.8623,0 3.7878,-18.07891 q 0.5641,-2.6326 0.5641,-3.89516 0,-1.42375 -0.994,-2.31024 -0.967,-0.88648 -2.8206,-0.88648 -3.734,0 -6.6621,2.68631 -2.9012,2.68632 -4.2712,9.21407 l -2.7669,13.27041 -4.8623,0 z"
           id="path4210"
           inkscape:connector-curvature="0"
           inkscape:export-xdpi="600.16638"
           inkscape:export-ydpi="600.16638" /><path
           d="m 1324.6595,246.39747 4.7279,0.48354 q -1.0208,3.51908 -4.701,6.68893 -3.6534,3.16986 -8.7306,3.16986 -3.1698,0 -5.8293,-1.45061 -2.6325,-1.47748 -4.0294,-4.27125 -1.3701,-2.79377 -1.3701,-6.36657 0,-4.67419 2.1491,-9.05289 2.1759,-4.40556 5.6144,-6.52775 3.4385,-2.14906 7.4411,-2.14906 5.104,0 8.1396,3.16986 3.0623,3.16985 3.0623,8.64994 0,2.09533 -0.376,4.29811 l -21.007,0 q -0.1075,0.83276 -0.1075,1.50434 0,4.00261 1.8267,6.1248 1.8536,2.09533 4.513,2.09533 2.4983,0 4.916,-1.63866 2.4177,-1.63865 3.7608,-4.72792 z m -14.13,-7.06501 16.0105,0 q 0.027,-0.75217 0.027,-1.07453 0,-3.65339 -1.8267,-5.58754 -1.8267,-1.96101 -4.7011,-1.96101 -3.1161,0 -5.695,2.14906 -2.552,2.14905 -3.8145,6.47402 z"
           id="path4212"
           inkscape:connector-curvature="0"
           inkscape:export-xdpi="600.16638"
           inkscape:export-ydpi="600.16638" /><path
           d="m 1353.5643,252.54914 q -2.5251,2.17592 -4.8622,3.19672 -2.3371,0.99394 -4.9966,0.99394 -3.9489,0 -6.3666,-2.31024 -2.4176,-2.33709 -2.4176,-5.96362 0,-2.39082 1.0745,-4.21752 1.1014,-1.85356 2.9012,-2.95495 1.7998,-1.12825 4.4056,-1.61179 1.6386,-0.32236 6.2054,-0.5104 4.5936,-0.18804 6.5814,-0.96707 0.5642,-1.98788 0.5642,-3.30417 0,-1.69238 -1.2358,-2.65945 -1.6923,-1.34316 -4.9427,-1.34316 -3.0625,0 -5.0235,1.37001 -1.9341,1.34316 -2.8206,3.84144 l -4.916,-0.42981 q 1.5044,-4.24438 4.7548,-6.50089 3.2773,-2.25651 8.247,-2.25651 5.292,0 8.3813,2.52514 2.364,1.88043 2.364,4.8891 0,2.28337 -0.6716,5.29205 l -1.5849,7.09187 q -0.7522,3.38477 -0.7522,5.50695 0,1.34316 0.591,3.8683 l -4.916,0 q -0.4029,-1.39689 -0.5641,-3.54594 z m 1.7998,-10.90645 q -1.0208,0.40295 -2.2027,0.61786 -1.1552,0.2149 -3.8952,0.45667 -4.2444,0.37608 -5.9905,0.96708 -1.7461,0.56412 -2.6326,1.82669 -0.8865,1.26257 -0.8865,2.79377 0,2.0416 1.3969,3.3579 1.4238,1.31629 4.0295,1.31629 2.4177,0 4.6473,-1.26257 2.2297,-1.28943 3.5191,-3.5728 1.2894,-2.28337 2.0147,-6.50089 z"
           id="path4214"
           inkscape:connector-curvature="0"
           inkscape:export-xdpi="600.16638"
           inkscape:export-ydpi="600.16638" /></g></g></g></svg>