<svg width="71" height="102" viewBox="0 0 71 102" fill="none" xmlns="http://www.w3.org/2000/svg">
<g clip-path="url(#clip0_6374_418)">
<path d="M4.03027 80.0836V65.5997H8.69919C9.45975 65.5997 10.1522 65.6662 10.7777 65.799C11.418 65.9172 11.9687 66.1165 12.4298 66.3969C12.907 66.6628 13.2719 67.0245 13.5245 67.4821C13.7932 67.9398 13.9269 68.5009 13.9269 69.1653C13.9269 69.8593 13.7491 70.5015 13.3909 71.0921C13.034 71.6826 12.5341 72.0887 11.8938 72.3101V72.3986C12.6985 72.5759 13.3615 72.9524 13.8828 73.5281C14.4188 74.0892 14.6874 74.857 14.6874 75.8314C14.6874 76.5548 14.5457 77.1824 14.2624 77.7138C13.979 78.2454 13.5847 78.6883 13.0781 79.0426C12.5862 79.397 11.9981 79.6628 11.3137 79.8399C10.628 80.0023 9.88347 80.0836 9.08014 80.0836H4.03027ZM6.62204 71.5793H8.47598C9.50387 71.5793 10.2417 71.3947 10.6881 71.0256C11.1493 70.6564 11.3805 70.1619 11.3805 69.5418C11.3805 68.8331 11.1426 68.3311 10.6654 68.0358C10.1896 67.7405 9.47446 67.593 8.52142 67.593H6.62204V71.5793ZM6.62204 78.0904H8.81149C9.88349 78.0904 10.7109 77.8984 11.291 77.5146C11.8724 77.116 12.1625 76.5106 12.1625 75.6986C12.1625 74.9308 11.8791 74.3772 11.3137 74.0375C10.747 73.6832 9.91289 73.5061 8.81149 73.5061H6.62204V78.0904Z" fill="#4D4D4D"/>
<path d="M19.6386 80.3498C18.7163 80.3498 18.068 80.0765 17.6951 79.5302C17.3235 78.9841 17.1377 78.2384 17.1377 77.2935V64.4485H19.7067V77.4263C19.7067 77.7365 19.7656 77.9579 19.8845 78.0908C20.0035 78.2088 20.1305 78.2679 20.2641 78.2679C20.3243 78.2679 20.3764 78.2679 20.4205 78.2679C20.4807 78.2679 20.5622 78.2532 20.6664 78.2237L21.002 80.1283C20.6598 80.276 20.2053 80.3498 19.6386 80.3498Z" fill="#4D4D4D"/>
<path d="M27.6923 80.3496C27.0079 80.3496 26.3529 80.2241 25.7274 79.9731C25.1018 79.7221 24.5431 79.353 24.0512 78.8658C23.5754 78.3786 23.1944 77.7806 22.9124 77.0719C22.629 76.3632 22.4873 75.5585 22.4873 74.6579C22.4873 73.7574 22.629 72.9527 22.9124 72.244C23.1944 71.5353 23.5754 70.9373 24.0512 70.4501C24.5431 69.9629 25.1018 69.5938 25.7274 69.3428C26.3529 69.0771 27.0079 68.9441 27.6923 68.9441C28.378 68.9441 29.0329 69.0771 29.6585 69.3428C30.2988 69.5938 30.8575 69.9629 31.3347 70.4501C31.8105 70.9373 32.1901 71.5353 32.4735 72.244C32.7715 72.9527 32.9199 73.7574 32.9199 74.6579C32.9199 75.5585 32.7715 76.3632 32.4735 77.0719C32.1901 77.7806 31.8105 78.3786 31.3347 78.8658C30.8575 79.353 30.2988 79.7221 29.6585 79.9731C29.0329 80.2241 28.378 80.3496 27.6923 80.3496ZM27.6923 78.2678C28.4969 78.2678 29.1305 77.943 29.5916 77.2934C30.0528 76.6291 30.284 75.7505 30.284 74.6579C30.284 73.5506 30.0528 72.6722 29.5916 72.0225C29.1305 71.3581 28.4969 71.0259 27.6923 71.0259C26.8889 71.0259 26.2553 71.3581 25.7942 72.0225C25.3464 72.6722 25.1232 73.5506 25.1232 74.6579C25.1232 75.7505 25.3464 76.6291 25.7942 77.2934C26.2553 77.943 26.8889 78.2678 27.6923 78.2678Z" fill="#4D4D4D"/>
<path d="M39.953 80.3496C39.2673 80.3496 38.6123 80.2241 37.9868 79.9731C37.3612 79.7221 36.8025 79.353 36.312 78.8658C35.8348 78.3786 35.4552 77.7806 35.1718 77.0719C34.8898 76.3632 34.748 75.5585 34.748 74.6579C34.748 73.7574 34.8898 72.9527 35.1718 72.244C35.4552 71.5353 35.8348 70.9373 36.312 70.4501C36.8025 69.9629 37.3612 69.5938 37.9868 69.3428C38.6123 69.0771 39.2673 68.9441 39.953 68.9441C40.6374 68.9441 41.2937 69.0771 41.9192 69.3428C42.5595 69.5938 43.1182 69.9629 43.5941 70.4501C44.0712 70.9373 44.4508 71.5353 44.7342 72.244C45.031 72.9527 45.1806 73.7574 45.1806 74.6579C45.1806 75.5585 45.031 76.3632 44.7342 77.0719C44.4508 77.7806 44.0712 78.3786 43.5941 78.8658C43.1182 79.353 42.5595 79.7221 41.9192 79.9731C41.2937 80.2241 40.6374 80.3496 39.953 80.3496ZM39.953 78.2678C40.7577 78.2678 41.3899 77.943 41.8524 77.2934C42.3135 76.6291 42.5448 75.7505 42.5448 74.6579C42.5448 73.5506 42.3135 72.6722 41.8524 72.0225C41.3899 71.3581 40.7577 71.0259 39.953 71.0259C39.1483 71.0259 38.5161 71.3581 38.0536 72.0225C37.6072 72.6722 37.384 73.5506 37.384 74.6579C37.384 75.7505 37.6072 76.6291 38.0536 77.2934C38.5161 77.943 39.1483 78.2678 39.953 78.2678Z" fill="#4D4D4D"/>
<path d="M47.7231 80.0839V69.21H49.8458L50.0249 70.6938H50.1144C50.5756 70.2066 51.0742 69.7931 51.6102 69.4535C52.1622 69.114 52.7797 68.9441 53.4641 68.9441C54.2688 68.9441 54.909 69.114 55.3862 69.4535C55.8781 69.7931 56.2497 70.273 56.5023 70.8931C57.0236 70.3319 57.5676 69.8669 58.1344 69.4979C58.6998 69.1287 59.332 68.9441 60.0324 68.9441C61.194 68.9441 62.0508 69.3206 62.6015 70.0736C63.1522 70.8118 63.4289 71.8748 63.4289 73.2627V80.0839H60.8371V73.595C60.8371 72.6943 60.6954 72.0594 60.412 71.6904C60.1447 71.3212 59.7277 71.1366 59.1609 71.1366C58.4766 71.1366 57.7093 71.5869 56.8605 72.4876V80.0839H54.2915V73.595C54.2915 72.6943 54.1498 72.0594 53.8664 71.6904C53.5991 71.3212 53.174 71.1366 52.5939 71.1366C51.9082 71.1366 51.141 71.5869 50.2922 72.4876V80.0839H47.7231Z" fill="#4D4D4D"/>
<path d="M68.04 76.5997C66.5978 76.5997 65.4229 77.764 65.4229 79.1934C65.4229 80.6229 66.5978 81.7873 68.04 81.7873C69.481 81.7873 70.6559 80.6229 70.6559 79.1934C70.6559 77.764 69.481 76.5997 68.04 76.5997ZM68.04 77.1185C69.1989 77.1185 70.1332 78.0444 70.1332 79.1934C70.1332 80.3425 69.1989 81.2684 68.04 81.2684C66.8812 81.2684 65.9468 80.3425 65.9468 79.1934C65.9468 78.0444 66.8812 77.1185 68.04 77.1185ZM67.1244 77.8966V80.4903H67.6711V79.5582H68.0881L68.5867 80.4903H69.1682V80.4661L68.5867 79.4044C68.6402 79.3782 68.7231 79.351 68.7752 79.299C68.854 79.2466 68.8781 79.1967 68.9302 79.1449C68.9837 79.0673 69.0105 79.012 69.0372 78.9343C69.0639 78.8567 69.0612 78.7785 69.0612 78.6748C69.0612 78.5451 69.0318 78.438 68.9797 78.3343C68.953 78.2568 68.8781 78.1853 68.8006 78.1075C68.695 78.03 68.6121 77.9713 68.4811 77.9453C68.3769 77.9191 68.2459 77.897 68.0881 77.897L67.1244 77.8966ZM67.6965 78.3667H68.1215C68.2525 78.3667 68.3541 78.3859 68.4317 78.4644C68.5105 78.5419 68.5386 78.6264 68.5386 78.7562C68.5386 78.8086 68.5399 78.8583 68.5132 78.9101C68.4878 78.9625 68.4584 79.0139 68.4317 79.0399C68.4063 79.0661 68.3541 79.0873 68.3007 79.1124C68.2485 79.1386 68.2004 79.1446 68.1215 79.1446H67.6965V78.3667Z" fill="#4D4D4D"/>
<path d="M19.4361 95.927L18.6824 99.7872H9.04705V98.9113L10.2591 98.8094C10.5511 98.7891 10.7174 98.6567 10.7582 98.4122L12.9277 87.1879C12.9752 86.9299 12.8428 86.7907 12.5304 86.7703L11.3693 86.6685V85.7925H16.7879V86.6685L15.5555 86.7703C15.4061 86.7771 15.2873 86.8247 15.199 86.9129C15.1107 86.9944 15.0564 87.0861 15.036 87.1879L12.8258 98.7483H16.9305C17.1818 98.7483 17.3583 98.6091 17.4602 98.3307L18.2037 95.927H19.4361ZM30.09 93.5334C30.09 94.3754 29.9508 95.1868 29.6724 95.9677C29.4008 96.7418 29.0138 97.4378 28.5113 98.0557C28.0156 98.6668 27.4282 99.1523 26.7492 99.5122C26.077 99.8653 25.3402 100.042 24.539 100.042C23.3914 100.042 22.4849 99.6888 21.8195 98.9826C21.1541 98.2696 20.8213 97.3088 20.8213 96.1001C20.8213 95.2513 20.9537 94.4331 21.2186 93.6455C21.4902 92.8578 21.8704 92.1516 22.3593 91.5269C22.8482 90.8954 23.4322 90.3963 24.1112 90.0297C24.7902 89.663 25.5372 89.4796 26.352 89.4796C27.0242 89.4796 27.6421 89.6222 28.2057 89.9074C28.7761 90.1926 29.231 90.634 29.5706 91.2315C29.9169 91.8223 30.09 92.5896 30.09 93.5334ZM27.9816 93.4417C27.9816 92.4504 27.8051 91.6933 27.452 91.1704C27.0989 90.6408 26.6575 90.376 26.1279 90.376C25.673 90.376 25.252 90.5389 24.8649 90.8649C24.4779 91.1908 24.1384 91.6254 23.8464 92.1686C23.5612 92.7118 23.3371 93.3161 23.1741 93.9816C23.0112 94.6402 22.9297 95.3091 22.9297 95.9881C22.9297 97.0202 23.1096 97.7977 23.4695 98.3205C23.8294 98.8366 24.2708 99.0946 24.7936 99.0946C25.2893 99.0946 25.7341 98.9215 26.1279 98.5752C26.5217 98.2221 26.8545 97.7637 27.1261 97.2001C27.4045 96.6298 27.615 96.0153 27.7576 95.3566C27.9069 94.6979 27.9816 94.0597 27.9816 93.4417ZM39.1346 90.9463C39.1346 91.2179 39.0328 91.4896 38.8291 91.7612C38.6321 92.0328 38.201 92.2127 37.5355 92.301L36.3438 90.6917C35.7802 90.7189 35.3083 90.9226 34.9281 91.3028C34.5478 91.6831 34.2422 92.155 34.0114 92.7186C33.7873 93.2754 33.6243 93.8424 33.5225 94.4195C33.4274 94.9899 33.3799 95.4856 33.3799 95.9066C33.3799 96.3548 33.4376 96.7927 33.553 97.2205C33.6753 97.6415 33.8722 97.9912 34.1438 98.2696C34.4154 98.5412 34.7787 98.677 35.2336 98.677C35.7904 98.677 36.3574 98.4903 36.9346 98.1168C37.5185 97.7434 38.1059 97.2647 38.6966 96.6807V97.9946C38.4115 98.273 38.0685 98.5718 37.6679 98.8909C37.2673 99.2101 36.8124 99.4817 36.3031 99.7057C35.7938 99.9298 35.2302 100.042 34.6123 100.042C33.6209 100.042 32.8367 99.7057 32.2595 99.0335C31.6891 98.3545 31.4039 97.3971 31.4039 96.1612C31.4039 95.2242 31.5601 94.3516 31.8725 93.5436C32.1848 92.7356 32.6058 92.0294 33.1354 91.425C33.6719 90.8139 34.2728 90.3386 34.9382 89.9991C35.6105 89.6528 36.2997 89.4796 37.0059 89.4796C37.7596 89.4796 38.3028 89.646 38.6355 89.9787C38.9683 90.3047 39.1346 90.6272 39.1346 90.9463ZM50.6237 99.227C50.5151 99.2746 50.2944 99.3662 49.9617 99.502C49.6289 99.6311 49.2725 99.7533 48.8922 99.8687C48.5119 99.9841 48.186 100.042 47.9144 100.042C47.4119 100.042 47.0554 99.9196 46.8449 99.6752C46.6412 99.424 46.5156 99.0709 46.4681 98.6159C46.1557 98.9079 45.7381 99.2202 45.2153 99.553C44.6992 99.8789 44.1288 100.042 43.5041 100.042C42.893 100.042 42.3905 99.9196 41.9967 99.6752C41.6029 99.4307 41.2939 99.1184 41.0698 98.7381C40.8525 98.3511 40.6998 97.9437 40.6115 97.5159C40.53 97.0813 40.4893 96.6773 40.4893 96.3038C40.4893 95.4958 40.6183 94.6912 40.8763 93.8899C41.1343 93.0819 41.518 92.3451 42.0273 91.6797C42.5365 91.0142 43.1612 90.4812 43.9014 90.0806C44.6483 89.68 45.5107 89.4796 46.4885 89.4796C46.8755 89.4796 47.2388 89.5577 47.5783 89.7139C47.9178 89.8701 48.1826 90.0432 48.3727 90.2334L48.6783 89.7343H50.1043C50.0364 89.8905 49.9583 90.1009 49.87 90.3658C49.7817 90.6306 49.7274 90.8173 49.707 90.926C49.6459 91.1433 49.561 91.4896 49.4524 91.9649C49.3437 92.4402 49.2249 92.9766 49.0959 93.5742C48.9737 94.1649 48.8549 94.7523 48.7394 95.3362C48.6308 95.9202 48.5391 96.4396 48.4644 96.8946C48.3897 97.3495 48.3524 97.6687 48.3524 97.852C48.3524 98.2119 48.4305 98.4631 48.5866 98.6057C48.7428 98.7415 48.9635 98.8094 49.2487 98.8094C49.3437 98.8094 49.4863 98.7857 49.6765 98.7381C49.8666 98.6838 50.0533 98.6295 50.2367 98.5752C50.4268 98.5209 50.5558 98.4869 50.6237 98.4733V99.227ZM47.5579 91.6084C47.5647 91.5609 47.5206 91.4454 47.4255 91.2621C47.3304 91.0787 47.2218 90.9056 47.0996 90.7426C46.9773 90.5729 46.8721 90.488 46.7838 90.488C45.9894 90.488 45.3205 90.6747 44.7773 91.0482C44.2341 91.4149 43.7995 91.8902 43.4736 92.4741C43.1477 93.0581 42.91 93.6794 42.7606 94.3381C42.618 94.9899 42.5467 95.6044 42.5467 96.1816C42.5467 96.5687 42.5909 96.9523 42.6791 97.3326C42.7674 97.7128 42.927 98.0286 43.1578 98.2798C43.3955 98.531 43.7282 98.6567 44.156 98.6567C44.4819 98.6567 44.8045 98.5718 45.1236 98.402C45.4428 98.2255 45.7212 98.032 45.9588 97.8215C46.2033 97.611 46.373 97.4582 46.4681 97.3631L47.5579 91.6084ZM56.1849 99.2474C56.0763 99.2949 55.8522 99.3832 55.5127 99.5122C55.1732 99.6412 54.7963 99.7601 54.3821 99.8687C53.9747 99.9841 53.608 100.042 53.2821 100.042C52.6438 100.042 52.1889 99.8993 51.9173 99.6141C51.6456 99.3289 51.5098 98.9622 51.5098 98.5141C51.5098 98.4122 51.5132 98.3002 51.52 98.1779C51.5268 98.0489 51.5438 97.9165 51.5709 97.7807L53.8627 85.8537L52.0089 85.6703V85.0388L55.2682 84.4175H56.0729L53.5367 97.7196C53.5231 97.7943 53.5164 97.886 53.5164 97.9946C53.5164 98.1983 53.6114 98.3952 53.8015 98.5854C53.9985 98.7755 54.2293 98.8705 54.4941 98.8705C54.63 98.8705 54.8167 98.8434 55.0543 98.7891C55.292 98.728 55.5195 98.6634 55.7368 98.5955C55.9608 98.5276 56.1102 98.4801 56.1849 98.4529V99.2474Z" fill="#4D4D4D"/>
<path d="M33.7297 17.7433V57.4011M33.7297 17.7433C32.5002 13.5209 30.3833 9.9111 27.6549 7.38462C24.9266 4.85813 21.7135 3.53224 18.4347 3.57985C16.1811 3.57985 14.0197 4.32596 12.4262 5.65405C10.8327 6.98213 9.93743 8.7834 9.93743 10.6616C9.93743 12.5398 10.8327 14.3411 12.4262 15.6691C14.0197 16.9972 16.1811 17.7433 18.4347 17.7433M33.7297 17.7433C34.9591 13.5209 37.0761 9.9111 39.8044 7.38462C42.5327 4.85813 45.7458 3.53224 49.0247 3.57985C51.2783 3.57985 53.4396 4.32596 55.0331 5.65405C56.6267 6.98213 57.5219 8.7834 57.5219 10.6616C57.5219 12.5398 56.6267 14.3411 55.0331 15.6691C53.4396 16.9972 51.2783 17.7433 49.0247 17.7433M60.9208 29.0741V51.7357C60.9208 53.2382 60.2046 54.6793 58.9298 55.7417C57.6549 56.8042 55.9259 57.4011 54.123 57.4011H13.3363C11.5334 57.4011 9.80439 56.8042 8.52956 55.7417C7.25473 54.6793 6.53854 53.2382 6.53854 51.7357V29.0741M60.9208 29.0741C62.7979 29.0741 64.3197 27.8059 64.3197 26.2414V20.576C64.3197 19.0116 62.7979 17.7433 60.9208 17.7433H6.53854C4.66138 17.7433 3.13965 19.0116 3.13965 20.576V26.2414C3.13965 27.8059 4.66138 29.0741 6.53854 29.0741M60.9208 29.0741H6.53854" stroke="#D65649" stroke-width="5.30541" stroke-linecap="round" stroke-linejoin="round"/>
</g>
<defs>
<clipPath id="clip0_6374_418">
<rect width="71" height="101.787" fill="white"/>
</clipPath>
</defs>
</svg>
