<svg width="108" height="138" viewBox="0 0 108 138" fill="none" xmlns="http://www.w3.org/2000/svg">
<path fill-rule="evenodd" clip-rule="evenodd" d="M8.49428 1.35104C10.2192 0.180836 12.3491 -0.253985 14.4012 0.144001C24.3888 2.07973 38.3364 7.3822 45.8943 12.7641C45.9372 12.7948 45.98 12.8256 46.019 12.8571C46.2799 13.0495 46.5524 13.2504 46.8406 13.4611C50.4034 16.0777 56.0299 20.2063 60.465 27.9499C65.2349 36.2776 68.2798 48.0303 67.9644 65.6143L52.3502 65.3378C52.6345 49.5878 49.8699 40.8049 46.8833 35.5911C44.1148 30.7566 40.8479 28.3428 37.3824 25.781C37.1644 25.6179 36.9425 25.4544 36.7206 25.2897C32.9825 22.6461 26.0709 19.5759 19.3736 17.4288C17.6097 33.2287 18.883 49.4309 23.7191 61.8755C26.5421 69.1304 30.4204 74.7277 35.2214 78.4031C39.9018 81.9854 45.906 84.0994 53.8377 83.738C64.0044 83.2743 70.7563 81.0486 75.3549 77.9405C79.8561 74.9002 82.975 70.5598 85.0816 64.5345C87.2426 58.359 88.2706 50.5904 88.5276 41.111C88.7223 33.9164 88.4731 26.026 88.0448 17.4421C81.1956 18.5604 76.5347 20.0727 73.552 21.3308C71.535 22.1816 70.2734 22.9214 69.6076 23.3579C69.2766 23.574 69.0898 23.7177 69.0275 23.7672C68.7977 23.9763 68.5563 24.1714 68.2993 24.3516L66.8976 25.3438L57.821 12.7516L58.8996 11.9872C58.997 11.9039 59.106 11.8147 59.2268 11.7194C59.6668 11.3677 60.2469 10.9371 60.9867 10.4523C62.4664 9.48111 64.573 8.29888 67.4349 7.09098C73.1666 4.67441 81.8848 2.17715 94.6916 1.02369C96.7981 0.833671 98.8968 1.50099 100.501 2.87255C102.105 4.2441 103.075 6.20225 103.196 8.2979C103.861 20.0899 104.414 31.3473 104.142 41.5261C103.865 51.6753 102.759 61.2567 99.8391 69.6027C96.8681 78.099 91.9619 85.4517 84.1548 90.7274C76.4451 95.9354 66.6055 98.6486 54.5541 99.1976C43.1453 99.7178 33.4497 96.6043 25.6738 90.6499C18.0147 84.7882 12.684 76.5399 9.14844 67.4393C2.12401 49.3744 1.56728 26.4773 5.21577 6.36899C5.58569 4.32887 6.76932 2.52121 8.49428 1.35104Z" fill="#D65649"/>
<path d="M99.4195 82.9849C95.2181 82.9849 91.7993 86.3764 91.7993 90.5404C91.7993 94.7044 95.2181 98.0963 99.4195 98.0963C103.621 98.0963 107.044 94.7044 107.044 90.5404C107.044 86.3764 103.621 82.9849 99.4195 82.9849ZM99.4195 84.4957C102.795 84.4957 105.517 87.1933 105.517 90.5404C105.517 93.8875 102.795 96.5851 99.4195 96.5851C96.0436 96.5851 93.3218 93.8875 93.3218 90.5404C93.3218 87.1933 96.0436 84.4957 99.4195 84.4957ZM96.7522 86.7622V94.3186H98.3487V91.603H99.5635L101.016 94.3186H102.706V94.2477L101.016 91.1548C101.168 91.0785 101.409 90.9995 101.565 90.8476C101.791 90.695 101.865 90.5501 102.017 90.3991C102.168 90.1732 102.25 90.012 102.324 89.7854C102.402 89.5596 102.398 89.3318 102.398 89.0296C102.398 88.6519 102.313 88.34 102.161 88.0379C102.083 87.812 101.865 87.6033 101.635 87.3771C101.331 87.1512 101.086 86.9803 100.704 86.9048C100.401 86.8284 100.019 86.7638 99.5635 86.7638L96.7522 86.7622ZM98.4188 88.1321H99.657C100.039 88.1321 100.335 88.1878 100.564 88.4167C100.79 88.6426 100.872 88.8886 100.872 89.2663C100.872 89.419 100.88 89.5642 100.802 89.7153C100.724 89.8679 100.638 90.0175 100.564 90.093C100.486 90.1693 100.334 90.2312 100.183 90.3044C100.031 90.3808 99.8868 90.3983 99.657 90.3983H98.4188V88.1321Z" fill="#D65649"/>
<path d="M22.2811 137.057H0.574707L0.877085 136.258C2.029 136.23 2.79934 136.136 3.18812 135.978C3.79287 135.718 4.23924 135.38 4.52722 134.962C4.97359 134.3 5.44875 133.105 5.95272 131.377L11.1147 113.558C11.5467 112.061 11.7627 110.981 11.7627 110.319C11.7627 109.167 10.8196 108.591 8.9333 108.591C8.64532 108.591 8.45093 108.584 8.35014 108.569L8.60932 107.77H20.5533L20.3805 108.569C19.2861 108.569 18.487 108.648 17.983 108.807C17.2199 109.037 16.6007 109.512 16.1256 110.232C15.852 110.635 15.4272 111.845 14.8513 113.861L9.77564 131.377C9.38686 132.716 9.19248 133.638 9.19248 134.142C9.19248 134.473 9.38686 134.804 9.77564 135.135C10.0204 135.351 10.5748 135.459 11.4387 135.459H14.2681C17.5799 135.459 20.0349 134.617 21.6332 132.932C22.1083 132.428 22.8211 131.355 23.7714 129.714L24.333 128.742H25.1321L22.2811 137.057Z" fill="black"/>
<path d="M47.0761 124.271C47.0905 126.402 46.5146 128.54 45.3482 130.686C44.1963 132.817 42.6052 134.494 40.575 135.718C38.5447 136.942 36.5577 137.561 34.6138 137.576C32.6124 137.59 30.9997 136.971 29.7758 135.718C28.5519 134.451 27.9327 132.81 27.9183 130.794C27.9039 128.562 28.5375 126.381 29.819 124.25C31.0573 122.191 32.6556 120.563 34.6138 119.368C36.6297 118.144 38.6023 117.525 40.5318 117.511C42.4757 117.496 44.0595 118.137 45.2835 119.433C46.4642 120.7 47.0617 122.313 47.0761 124.271ZM43.4908 122.781C43.4908 121.6 43.21 120.635 42.6484 119.887C42.0149 119.066 41.1222 118.648 39.9702 118.634C37.5944 118.62 35.521 120.347 33.7499 123.818C32.2236 126.784 31.4605 129.584 31.4605 132.219C31.4605 133.443 31.7556 134.444 32.346 135.222C32.9939 136.071 33.9155 136.496 35.1106 136.496C37.4576 136.496 39.5095 134.732 41.2661 131.204C42.7348 128.224 43.4764 125.416 43.4908 122.781Z" fill="black"/>
<path d="M65.91 132.349C63.0302 135.819 59.9056 137.561 56.5362 137.576C54.5204 137.59 52.9365 137.036 51.7846 135.913C50.6327 134.775 50.0495 133.206 50.0351 131.204C50.0207 128.9 50.6615 126.676 51.9574 124.53C53.1957 122.486 54.8228 120.815 56.8386 119.52C58.9265 118.18 60.9711 117.511 62.9726 117.511C64.2253 117.511 65.2764 117.756 66.1259 118.245C67.1483 118.85 67.6594 119.736 67.6594 120.902C67.6594 121.78 67.3858 122.543 66.8387 123.191C66.4355 123.666 65.9387 123.911 65.3484 123.926C64.3405 123.94 63.8221 123.436 63.7933 122.414C63.7789 121.91 64.0525 121.384 64.614 120.837C64.8876 120.578 65.0532 120.405 65.1108 120.319C65.2404 120.146 65.3196 119.93 65.3484 119.671C65.3484 118.893 64.6212 118.497 63.1669 118.483C61.7846 118.468 60.3951 118.958 58.9985 119.951C57.6018 120.945 56.4138 122.363 55.4347 124.206C54.2684 126.395 53.678 128.612 53.6636 130.859C53.6492 132.327 54.0524 133.487 54.8731 134.336C55.7083 135.186 56.8602 135.618 58.3289 135.632C60.5319 135.646 62.8502 134.365 65.2836 131.787L65.91 132.349Z" fill="black"/>
<path d="M89.1499 117.511L84.463 134.12C84.4198 134.293 84.3982 134.451 84.3982 134.595C84.3982 135.128 84.6142 135.394 85.0462 135.394C85.6221 135.394 86.6156 134.415 88.0267 132.457L88.7611 132.975C86.7164 136.042 84.7222 137.576 82.7783 137.576C82.1736 137.576 81.7128 137.425 81.396 137.122C81.0792 136.82 80.9209 136.366 80.9209 135.762C80.9209 135.042 81.0792 134.113 81.396 132.975L81.8496 131.355C78.7106 135.474 75.8596 137.547 73.2966 137.576C72.0583 137.59 71.0792 137.065 70.3592 135.999C69.7545 135.092 69.4449 133.983 69.4305 132.673C69.4161 130.268 70.136 127.785 71.5903 125.222C72.9726 122.788 74.6861 120.823 76.7308 119.325C78.3866 118.116 79.9489 117.511 81.4176 117.511C83.1743 117.511 84.3478 118.504 84.9382 120.491L85.7157 118.029L89.1499 117.511ZM81.4608 118.634C80.5681 118.62 79.589 119.052 78.5234 119.93C77.0115 121.168 75.694 122.982 74.5709 125.373C73.4622 127.749 72.9006 129.923 72.8862 131.895C72.8862 132.702 73.0806 133.407 73.4694 134.012C73.9158 134.718 74.5277 135.07 75.3053 135.07C76.8603 135.07 78.5666 133.911 80.4241 131.593C82.8863 128.512 84.1174 125.351 84.1174 122.111C84.1174 119.822 83.2319 118.663 81.4608 118.634Z" fill="black"/>
<path d="M103.664 106.344L96.2773 132.047C95.9318 133.242 95.7518 134.026 95.7374 134.401C95.723 134.862 95.9606 135.114 96.4501 135.157C97.2133 135.157 98.2932 134.12 99.6899 132.047L100.338 132.716C98.0628 135.927 95.9966 137.547 94.1391 137.576C93.6063 137.59 93.1528 137.417 92.7784 137.057C92.4184 136.697 92.2312 136.251 92.2168 135.718C92.2024 135.214 92.4328 134.149 92.908 132.522L98.7612 112.262C99.2363 110.621 99.4739 109.671 99.4739 109.411C99.4739 108.979 99.2723 108.656 98.8691 108.44C98.61 108.31 98.25 108.238 97.7892 108.224C97.4724 108.209 96.9685 108.26 96.2773 108.375V107.576L103.664 106.344Z" fill="black"/>
</svg>
