<svg width="194" height="119" viewBox="0 0 194 119" fill="none" xmlns="http://www.w3.org/2000/svg">
<g clip-path="url(#clip0)">
<rect x="6.79022" y="110.605" width="105.47" height="162.495" transform="rotate(-90 6.79022 110.605)" fill="white"/>
<path d="M0.625275 112.235C0.625275 115.445 3.22806 118.048 6.43847 118.048H187.422C190.632 118.048 193.235 115.445 193.235 112.235V6.484C193.235 3.273 190.632 0.670998 187.422 0.669998H6.43847C3.22806 0.669998 0.6256 3.273 0.625275 6.484V112.235ZM16.6697 106.422V12.297H169.517V106.422H16.6697Z" fill="#848484"/>
<path d="M186.642 59.3594C186.642 55.8736 183.816 53.0479 180.33 53.0479C176.845 53.0479 174.019 55.8736 174.019 59.3594C174.019 62.8451 176.845 65.6708 180.33 65.6708C183.816 65.6708 186.642 62.8451 186.642 59.3594Z" fill="white"/>
<path d="M122.701 52.6053H118.762V34.8283C118.762 33.6496 118.297 32.5192 117.47 31.6857C116.642 30.8523 115.52 30.384 114.35 30.384H96.704V26.4153C96.7518 24.2518 96.0424 22.1403 94.7003 20.4506C93.3581 18.7608 91.4687 17.6006 89.3629 17.1731C88.0968 16.9568 86.7992 17.0214 85.5604 17.3623C84.3216 17.7031 83.1716 18.3121 82.1905 19.1468C81.2094 19.9814 80.4208 21.0217 79.8797 22.1949C79.3387 23.3681 79.0582 24.6461 79.0578 25.9398V30.384H61.4116C60.2415 30.384 59.1194 30.8523 58.2921 31.6857C57.4648 32.5192 57 33.6496 57 34.8283V50.3832C57 51.5619 57.4648 52.6923 58.2921 53.5258C59.1194 54.3592 60.2415 54.8275 61.4116 54.8275H63.6173C65.3724 54.8275 67.0555 55.5298 68.2965 56.78C69.5375 58.0302 70.2347 59.7258 70.2347 61.4938C70.2347 63.2619 69.5375 64.9575 68.2965 66.2077C67.0555 67.4579 65.3724 68.1602 63.6173 68.1602H61.4116C60.2415 68.1602 59.1194 68.6285 58.2921 69.4619C57.4648 70.2954 57 71.4258 57 72.6045V92.6037C57 93.7823 57.4648 94.9128 58.2921 95.7462C59.1194 96.5797 60.2415 97.0479 61.4116 97.0479H76.852C78.022 97.0479 79.1441 96.5797 79.9715 95.7462C80.7988 94.9128 81.2636 93.7823 81.2636 92.6037V90.3815C81.2636 88.6135 81.9608 86.9179 83.2018 85.6677C84.4428 84.4175 86.1259 83.7151 87.8809 83.7151C89.636 83.7151 91.3191 84.4175 92.5601 85.6677C93.8011 86.9179 94.4983 88.6135 94.4983 90.3815V92.6037C94.4983 93.7823 94.9631 94.9128 95.7904 95.7462C96.6177 96.5797 97.7398 97.0479 98.9098 97.0479H114.35C115.52 97.0479 116.642 96.5797 117.47 95.7462C118.297 94.9128 118.762 93.7823 118.762 92.6037V70.3824H123.173C124.458 70.382 125.726 70.0994 126.891 69.5544C128.055 69.0093 129.088 68.2149 129.917 67.2265C130.745 66.2381 131.35 65.0796 131.688 63.8316C132.026 62.5836 132.09 61.2764 131.876 60.0009C131.451 57.8794 130.3 55.976 128.622 54.6239C126.945 53.2718 124.849 52.5572 122.701 52.6053V52.6053Z" fill="#848484"/>
</g>
<defs>
<clipPath id="clip0">
<rect width="118" height="193" fill="white" transform="translate(0.5 118.5) rotate(-90)"/>
</clipPath>
</defs>
</svg>
