<svg width="234" height="150" viewBox="0 0 234 150" fill="none" xmlns="http://www.w3.org/2000/svg">
<g clip-path="url(#clip0_5744_6362)">
<rect y="150" width="150" height="233.898" rx="8.58596" transform="rotate(-90 0 150)" fill="white"/>
<path d="M-5.07709 142.508C-5.07709 146.589 -1.76846 149.897 2.31257 149.897H232.376C236.457 149.897 239.766 146.589 239.766 142.508V8.07787C239.766 3.99686 236.457 0.688638 232.376 0.688223H2.31257C-1.76846 0.688223 -5.07667 3.99686 -5.07709 8.07787V142.508ZM15.3184 135.118V15.4675H209.616V135.118H15.3184Z" fill="#848484"/>
<path d="M231.384 75.2928C231.384 70.8618 227.792 67.2697 223.361 67.2697C218.93 67.2697 215.338 70.8618 215.338 75.2928C215.338 79.7238 218.93 83.3159 223.361 83.3159C227.792 83.3159 231.384 79.7238 231.384 75.2928Z" fill="white"/>
<rect width="177.221" height="102.602" transform="translate(21.6023 23.992)" fill="#0C8597"/>
<rect width="21" height="15" transform="translate(36.6023 34.992)" fill="white"/>
<path d="M40.9949 53.786H44.3223V54.3189C44.207 54.294 44.0928 54.2786 43.9794 54.2729C43.8681 54.2652 43.7471 54.2613 43.6165 54.2613H42.925V56.7389C42.925 57.0231 42.9279 57.2747 42.9337 57.4937C42.9414 57.7107 42.9577 57.8768 42.9827 57.992H42.3201C42.345 57.8768 42.3604 57.7107 42.3662 57.4937C42.3738 57.2747 42.3777 57.0231 42.3777 56.7389V54.2613H41.7007C41.572 54.2613 41.451 54.2652 41.3377 54.2729C41.2244 54.2786 41.1101 54.294 40.9949 54.3189V53.786ZM45.0166 55.0536H45.5927C45.5927 55.3148 45.5927 55.576 45.5927 55.8372C45.5927 56.0984 45.5927 56.3605 45.5927 56.6236C45.5927 56.7466 45.5946 56.8964 45.5985 57.073C45.6042 57.2478 45.611 57.4188 45.6187 57.5858C45.6283 57.7529 45.6388 57.8883 45.6503 57.992H45.0598C45.0598 57.8538 45.0598 57.6915 45.0598 57.5052C45.0598 57.3189 45.0598 57.1335 45.0598 56.9492C45.0598 56.7629 45.0598 56.6015 45.0598 56.4652C45.0598 56.1848 45.0569 55.9178 45.0511 55.6643C45.0473 55.4089 45.0358 55.2053 45.0166 55.0536ZM44.9589 54.1173C44.9589 54.0097 44.9925 53.9185 45.0598 53.8436C45.127 53.7668 45.2134 53.7284 45.319 53.7284C45.4266 53.7284 45.5159 53.7668 45.587 53.8436C45.658 53.9185 45.6936 54.0097 45.6936 54.1173C45.6936 54.2229 45.658 54.3141 45.587 54.391C45.5159 54.4678 45.4266 54.5062 45.319 54.5062C45.2134 54.5062 45.127 54.4678 45.0598 54.391C44.9925 54.3141 44.9589 54.2229 44.9589 54.1173ZM48.3324 57.3727V57.8336C48.1999 57.9181 48.0731 57.9776 47.9521 58.0122C47.8312 58.0468 47.7198 58.0641 47.618 58.0641C47.4682 58.0641 47.3318 58.0401 47.2089 57.992C47.086 57.9421 46.988 57.8557 46.915 57.7328C46.8421 57.6079 46.8056 57.4351 46.8056 57.2142C46.8056 57.1451 46.8056 57.0318 46.8056 56.8743C46.8056 56.7168 46.8056 56.5314 46.8056 56.3183C46.8056 56.1032 46.8056 55.8737 46.8056 55.6297C46.8056 55.3839 46.8056 55.1371 46.8056 54.8894C46.8056 54.6416 46.8056 54.4083 46.8056 54.1893H47.3385C47.3385 54.4351 47.3385 54.6983 47.3385 54.9787C47.3385 55.2571 47.3385 55.527 47.3385 55.7882C47.3385 56.0494 47.3385 56.277 47.3385 56.4709C47.3385 56.663 47.3385 56.7955 47.3385 56.8685C47.3385 57.0663 47.351 57.2171 47.376 57.3208C47.4029 57.4245 47.4432 57.4956 47.497 57.534C47.5507 57.5705 47.6208 57.5887 47.7073 57.5887C47.8648 57.5887 48.0731 57.5167 48.3324 57.3727ZM48.2748 55.5433H46.2294V55.1256H48.2748V55.5433ZM49.6317 53.3827V56.6236C49.6317 56.7466 49.6336 56.8954 49.6375 57.0702C49.6432 57.2449 49.6499 57.4159 49.6576 57.583C49.6672 57.7501 49.6778 57.8864 49.6893 57.992H49.0987V54.7367C49.0987 54.1739 49.0795 53.7226 49.0411 53.3827H49.6317ZM53.0311 56.5948H50.8877V56.1915H52.5154C52.5154 55.9438 52.4472 55.7546 52.3109 55.624C52.1764 55.4934 52.0046 55.4281 51.7952 55.4281C51.5436 55.4281 51.3458 55.5174 51.2018 55.696C51.0596 55.8746 50.9886 56.155 50.9886 56.5372C50.9886 56.8925 51.075 57.1566 51.2479 57.3294C51.4226 57.5023 51.6435 57.5887 51.9104 57.5887C52.0967 57.5887 52.2792 57.5676 52.4578 57.5253C52.6383 57.4812 52.816 57.4063 52.9908 57.3006L53.0484 57.776C52.8448 57.8816 52.6479 57.9556 52.4578 57.9978C52.2677 58.042 52.0612 58.0641 51.8384 58.0641C51.5945 58.0641 51.3669 58.0074 51.1557 57.8941C50.9463 57.7808 50.7773 57.6127 50.6486 57.3899C50.52 57.1672 50.4556 56.8925 50.4556 56.566C50.4556 56.2472 50.5113 55.9706 50.6227 55.7363C50.736 55.502 50.8954 55.3205 51.1009 55.1918C51.3084 55.0612 51.5542 54.9959 51.8384 54.9959C52.0766 54.9959 52.2725 55.0363 52.4261 55.1169C52.5817 55.1976 52.7036 55.3052 52.792 55.4396C52.8803 55.574 52.9428 55.7229 52.9792 55.8861C53.0157 56.0475 53.034 56.2088 53.034 56.3701C53.034 56.3951 53.034 56.4325 53.034 56.4825C53.034 56.5305 53.033 56.5679 53.0311 56.5948Z" fill="white"/>
<rect width="21" height="15" transform="translate(77.6023 34.992)" fill="white"/>
<path d="M81.9949 53.786H85.3223V54.3189C85.207 54.294 85.0928 54.2786 84.9794 54.2729C84.8681 54.2652 84.7471 54.2613 84.6165 54.2613H83.925V56.7389C83.925 57.0231 83.9279 57.2747 83.9337 57.4937C83.9414 57.7107 83.9577 57.8768 83.9827 57.992H83.3201C83.345 57.8768 83.3604 57.7107 83.3662 57.4937C83.3738 57.2747 83.3777 57.0231 83.3777 56.7389V54.2613H82.7007C82.572 54.2613 82.451 54.2652 82.3377 54.2729C82.2244 54.2786 82.1101 54.294 81.9949 54.3189V53.786ZM86.0166 55.0536H86.5927C86.5927 55.3148 86.5927 55.576 86.5927 55.8372C86.5927 56.0984 86.5927 56.3605 86.5927 56.6236C86.5927 56.7466 86.5946 56.8964 86.5985 57.073C86.6042 57.2478 86.611 57.4188 86.6187 57.5858C86.6283 57.7529 86.6388 57.8883 86.6503 57.992H86.0598C86.0598 57.8538 86.0598 57.6915 86.0598 57.5052C86.0598 57.3189 86.0598 57.1335 86.0598 56.9492C86.0598 56.7629 86.0598 56.6015 86.0598 56.4652C86.0598 56.1848 86.0569 55.9178 86.0511 55.6643C86.0473 55.4089 86.0358 55.2053 86.0166 55.0536ZM85.9589 54.1173C85.9589 54.0097 85.9925 53.9185 86.0598 53.8436C86.127 53.7668 86.2134 53.7284 86.319 53.7284C86.4266 53.7284 86.5159 53.7668 86.587 53.8436C86.658 53.9185 86.6936 54.0097 86.6936 54.1173C86.6936 54.2229 86.658 54.3141 86.587 54.391C86.5159 54.4678 86.4266 54.5062 86.319 54.5062C86.2134 54.5062 86.127 54.4678 86.0598 54.391C85.9925 54.3141 85.9589 54.2229 85.9589 54.1173ZM89.3324 57.3727V57.8336C89.1999 57.9181 89.0731 57.9776 88.9521 58.0122C88.8312 58.0468 88.7198 58.0641 88.618 58.0641C88.4682 58.0641 88.3318 58.0401 88.2089 57.992C88.086 57.9421 87.988 57.8557 87.915 57.7328C87.8421 57.6079 87.8056 57.4351 87.8056 57.2142C87.8056 57.1451 87.8056 57.0318 87.8056 56.8743C87.8056 56.7168 87.8056 56.5314 87.8056 56.3183C87.8056 56.1032 87.8056 55.8737 87.8056 55.6297C87.8056 55.3839 87.8056 55.1371 87.8056 54.8894C87.8056 54.6416 87.8056 54.4083 87.8056 54.1893H88.3385C88.3385 54.4351 88.3385 54.6983 88.3385 54.9787C88.3385 55.2571 88.3385 55.527 88.3385 55.7882C88.3385 56.0494 88.3385 56.277 88.3385 56.4709C88.3385 56.663 88.3385 56.7955 88.3385 56.8685C88.3385 57.0663 88.351 57.2171 88.376 57.3208C88.4029 57.4245 88.4432 57.4956 88.497 57.534C88.5507 57.5705 88.6208 57.5887 88.7073 57.5887C88.8648 57.5887 89.0731 57.5167 89.3324 57.3727ZM89.2748 55.5433H87.2294V55.1256H89.2748V55.5433ZM90.6317 53.3827V56.6236C90.6317 56.7466 90.6336 56.8954 90.6375 57.0702C90.6432 57.2449 90.6499 57.4159 90.6576 57.583C90.6672 57.7501 90.6778 57.8864 90.6893 57.992H90.0987V54.7367C90.0987 54.1739 90.0795 53.7226 90.0411 53.3827H90.6317ZM94.0311 56.5948H91.8877V56.1915H93.5154C93.5154 55.9438 93.4472 55.7546 93.3109 55.624C93.1764 55.4934 93.0046 55.4281 92.7952 55.4281C92.5436 55.4281 92.3458 55.5174 92.2018 55.696C92.0596 55.8746 91.9886 56.155 91.9886 56.5372C91.9886 56.8925 92.075 57.1566 92.2479 57.3294C92.4226 57.5023 92.6435 57.5887 92.9104 57.5887C93.0967 57.5887 93.2792 57.5676 93.4578 57.5253C93.6383 57.4812 93.816 57.4063 93.9908 57.3006L94.0484 57.776C93.8448 57.8816 93.6479 57.9556 93.4578 57.9978C93.2677 58.042 93.0612 58.0641 92.8384 58.0641C92.5945 58.0641 92.3669 58.0074 92.1557 57.8941C91.9463 57.7808 91.7773 57.6127 91.6486 57.3899C91.52 57.1672 91.4556 56.8925 91.4556 56.566C91.4556 56.2472 91.5113 55.9706 91.6227 55.7363C91.736 55.502 91.8954 55.3205 92.1009 55.1918C92.3084 55.0612 92.5542 54.9959 92.8384 54.9959C93.0766 54.9959 93.2725 55.0363 93.4261 55.1169C93.5817 55.1976 93.7036 55.3052 93.792 55.4396C93.8803 55.574 93.9428 55.7229 93.9792 55.8861C94.0157 56.0475 94.034 56.2088 94.034 56.3701C94.034 56.3951 94.034 56.4325 94.034 56.4825C94.034 56.5305 94.033 56.5679 94.0311 56.5948Z" fill="white"/>
<rect width="21" height="15" transform="translate(118.602 34.992)" fill="white"/>
<path d="M122.995 53.786H126.322V54.3189C126.207 54.294 126.093 54.2786 125.979 54.2729C125.868 54.2652 125.747 54.2613 125.616 54.2613H124.925V56.7389C124.925 57.0231 124.928 57.2747 124.934 57.4937C124.941 57.7107 124.958 57.8768 124.983 57.992H124.32C124.345 57.8768 124.36 57.7107 124.366 57.4937C124.374 57.2747 124.378 57.0231 124.378 56.7389V54.2613H123.701C123.572 54.2613 123.451 54.2652 123.338 54.2729C123.224 54.2786 123.11 54.294 122.995 54.3189V53.786ZM127.017 55.0536H127.593C127.593 55.3148 127.593 55.576 127.593 55.8372C127.593 56.0984 127.593 56.3605 127.593 56.6236C127.593 56.7466 127.595 56.8964 127.598 57.073C127.604 57.2478 127.611 57.4188 127.619 57.5858C127.628 57.7529 127.639 57.8883 127.65 57.992H127.06C127.06 57.8538 127.06 57.6915 127.06 57.5052C127.06 57.3189 127.06 57.1335 127.06 56.9492C127.06 56.7629 127.06 56.6015 127.06 56.4652C127.06 56.1848 127.057 55.9178 127.051 55.6643C127.047 55.4089 127.036 55.2053 127.017 55.0536ZM126.959 54.1173C126.959 54.0097 126.993 53.9185 127.06 53.8436C127.127 53.7668 127.213 53.7284 127.319 53.7284C127.427 53.7284 127.516 53.7668 127.587 53.8436C127.658 53.9185 127.694 54.0097 127.694 54.1173C127.694 54.2229 127.658 54.3141 127.587 54.391C127.516 54.4678 127.427 54.5062 127.319 54.5062C127.213 54.5062 127.127 54.4678 127.06 54.391C126.993 54.3141 126.959 54.2229 126.959 54.1173ZM130.332 57.3727V57.8336C130.2 57.9181 130.073 57.9776 129.952 58.0122C129.831 58.0468 129.72 58.0641 129.618 58.0641C129.468 58.0641 129.332 58.0401 129.209 57.992C129.086 57.9421 128.988 57.8557 128.915 57.7328C128.842 57.6079 128.806 57.4351 128.806 57.2142C128.806 57.1451 128.806 57.0318 128.806 56.8743C128.806 56.7168 128.806 56.5314 128.806 56.3183C128.806 56.1032 128.806 55.8737 128.806 55.6297C128.806 55.3839 128.806 55.1371 128.806 54.8894C128.806 54.6416 128.806 54.4083 128.806 54.1893H129.339C129.339 54.4351 129.339 54.6983 129.339 54.9787C129.339 55.2571 129.339 55.527 129.339 55.7882C129.339 56.0494 129.339 56.277 129.339 56.4709C129.339 56.663 129.339 56.7955 129.339 56.8685C129.339 57.0663 129.351 57.2171 129.376 57.3208C129.403 57.4245 129.443 57.4956 129.497 57.534C129.551 57.5705 129.621 57.5887 129.707 57.5887C129.865 57.5887 130.073 57.5167 130.332 57.3727ZM130.275 55.5433H128.229V55.1256H130.275V55.5433ZM131.632 53.3827V56.6236C131.632 56.7466 131.634 56.8954 131.637 57.0702C131.643 57.2449 131.65 57.4159 131.658 57.583C131.667 57.7501 131.678 57.8864 131.689 57.992H131.099V54.7367C131.099 54.1739 131.08 53.7226 131.041 53.3827H131.632ZM135.031 56.5948H132.888V56.1915H134.515C134.515 55.9438 134.447 55.7546 134.311 55.624C134.176 55.4934 134.005 55.4281 133.795 55.4281C133.544 55.4281 133.346 55.5174 133.202 55.696C133.06 55.8746 132.989 56.155 132.989 56.5372C132.989 56.8925 133.075 57.1566 133.248 57.3294C133.423 57.5023 133.643 57.5887 133.91 57.5887C134.097 57.5887 134.279 57.5676 134.458 57.5253C134.638 57.4812 134.816 57.4063 134.991 57.3006L135.048 57.776C134.845 57.8816 134.648 57.9556 134.458 57.9978C134.268 58.042 134.061 58.0641 133.838 58.0641C133.595 58.0641 133.367 58.0074 133.156 57.8941C132.946 57.7808 132.777 57.6127 132.649 57.3899C132.52 57.1672 132.456 56.8925 132.456 56.566C132.456 56.2472 132.511 55.9706 132.623 55.7363C132.736 55.502 132.895 55.3205 133.101 55.1918C133.308 55.0612 133.554 54.9959 133.838 54.9959C134.077 54.9959 134.272 55.0363 134.426 55.1169C134.582 55.1976 134.704 55.3052 134.792 55.4396C134.88 55.574 134.943 55.7229 134.979 55.8861C135.016 56.0475 135.034 56.2088 135.034 56.3701C135.034 56.3951 135.034 56.4325 135.034 56.4825C135.034 56.5305 135.033 56.5679 135.031 56.5948Z" fill="white"/>
<rect width="21" height="15" transform="translate(159.602 34.992)" fill="white"/>
<path d="M163.995 53.786H167.322V54.3189C167.207 54.294 167.093 54.2786 166.979 54.2729C166.868 54.2652 166.747 54.2613 166.616 54.2613H165.925V56.7389C165.925 57.0231 165.928 57.2747 165.934 57.4937C165.941 57.7107 165.958 57.8768 165.983 57.992H165.32C165.345 57.8768 165.36 57.7107 165.366 57.4937C165.374 57.2747 165.378 57.0231 165.378 56.7389V54.2613H164.701C164.572 54.2613 164.451 54.2652 164.338 54.2729C164.224 54.2786 164.11 54.294 163.995 54.3189V53.786ZM168.017 55.0536H168.593C168.593 55.3148 168.593 55.576 168.593 55.8372C168.593 56.0984 168.593 56.3605 168.593 56.6236C168.593 56.7466 168.595 56.8964 168.598 57.073C168.604 57.2478 168.611 57.4188 168.619 57.5858C168.628 57.7529 168.639 57.8883 168.65 57.992H168.06C168.06 57.8538 168.06 57.6915 168.06 57.5052C168.06 57.3189 168.06 57.1335 168.06 56.9492C168.06 56.7629 168.06 56.6015 168.06 56.4652C168.06 56.1848 168.057 55.9178 168.051 55.6643C168.047 55.4089 168.036 55.2053 168.017 55.0536ZM167.959 54.1173C167.959 54.0097 167.993 53.9185 168.06 53.8436C168.127 53.7668 168.213 53.7284 168.319 53.7284C168.427 53.7284 168.516 53.7668 168.587 53.8436C168.658 53.9185 168.694 54.0097 168.694 54.1173C168.694 54.2229 168.658 54.3141 168.587 54.391C168.516 54.4678 168.427 54.5062 168.319 54.5062C168.213 54.5062 168.127 54.4678 168.06 54.391C167.993 54.3141 167.959 54.2229 167.959 54.1173ZM171.332 57.3727V57.8336C171.2 57.9181 171.073 57.9776 170.952 58.0122C170.831 58.0468 170.72 58.0641 170.618 58.0641C170.468 58.0641 170.332 58.0401 170.209 57.992C170.086 57.9421 169.988 57.8557 169.915 57.7328C169.842 57.6079 169.806 57.4351 169.806 57.2142C169.806 57.1451 169.806 57.0318 169.806 56.8743C169.806 56.7168 169.806 56.5314 169.806 56.3183C169.806 56.1032 169.806 55.8737 169.806 55.6297C169.806 55.3839 169.806 55.1371 169.806 54.8894C169.806 54.6416 169.806 54.4083 169.806 54.1893H170.339C170.339 54.4351 170.339 54.6983 170.339 54.9787C170.339 55.2571 170.339 55.527 170.339 55.7882C170.339 56.0494 170.339 56.277 170.339 56.4709C170.339 56.663 170.339 56.7955 170.339 56.8685C170.339 57.0663 170.351 57.2171 170.376 57.3208C170.403 57.4245 170.443 57.4956 170.497 57.534C170.551 57.5705 170.621 57.5887 170.707 57.5887C170.865 57.5887 171.073 57.5167 171.332 57.3727ZM171.275 55.5433H169.229V55.1256H171.275V55.5433ZM172.632 53.3827V56.6236C172.632 56.7466 172.634 56.8954 172.637 57.0702C172.643 57.2449 172.65 57.4159 172.658 57.583C172.667 57.7501 172.678 57.8864 172.689 57.992H172.099V54.7367C172.099 54.1739 172.08 53.7226 172.041 53.3827H172.632ZM176.031 56.5948H173.888V56.1915H175.515C175.515 55.9438 175.447 55.7546 175.311 55.624C175.176 55.4934 175.005 55.4281 174.795 55.4281C174.544 55.4281 174.346 55.5174 174.202 55.696C174.06 55.8746 173.989 56.155 173.989 56.5372C173.989 56.8925 174.075 57.1566 174.248 57.3294C174.423 57.5023 174.643 57.5887 174.91 57.5887C175.097 57.5887 175.279 57.5676 175.458 57.5253C175.638 57.4812 175.816 57.4063 175.991 57.3006L176.048 57.776C175.845 57.8816 175.648 57.9556 175.458 57.9978C175.268 58.042 175.061 58.0641 174.838 58.0641C174.595 58.0641 174.367 58.0074 174.156 57.8941C173.946 57.7808 173.777 57.6127 173.649 57.3899C173.52 57.1672 173.456 56.8925 173.456 56.566C173.456 56.2472 173.511 55.9706 173.623 55.7363C173.736 55.502 173.895 55.3205 174.101 55.1918C174.308 55.0612 174.554 54.9959 174.838 54.9959C175.077 54.9959 175.272 55.0363 175.426 55.1169C175.582 55.1976 175.704 55.3052 175.792 55.4396C175.88 55.574 175.943 55.7229 175.979 55.8861C176.016 56.0475 176.034 56.2088 176.034 56.3701C176.034 56.3951 176.034 56.4325 176.034 56.4825C176.034 56.5305 176.033 56.5679 176.031 56.5948Z" fill="white"/>
<rect width="21" height="15" transform="translate(36.6023 65.992)" fill="white"/>
<path d="M40.9949 84.786H44.3223V85.3189C44.207 85.294 44.0928 85.2786 43.9794 85.2728C43.8681 85.2652 43.7471 85.2613 43.6165 85.2613H42.925V87.7389C42.925 88.0231 42.9279 88.2747 42.9337 88.4936C42.9414 88.7107 42.9577 88.8768 42.9827 88.992H42.3201C42.345 88.8768 42.3604 88.7107 42.3662 88.4936C42.3738 88.2747 42.3777 88.0231 42.3777 87.7389V85.2613H41.7007C41.572 85.2613 41.451 85.2652 41.3377 85.2728C41.2244 85.2786 41.1101 85.294 40.9949 85.3189V84.786ZM45.0166 86.0536H45.5927C45.5927 86.3148 45.5927 86.576 45.5927 86.8372C45.5927 87.0984 45.5927 87.3605 45.5927 87.6236C45.5927 87.7465 45.5946 87.8963 45.5985 88.073C45.6042 88.2478 45.611 88.4187 45.6187 88.5858C45.6283 88.7529 45.6388 88.8883 45.6503 88.992H45.0598C45.0598 88.8538 45.0598 88.6915 45.0598 88.5052C45.0598 88.3189 45.0598 88.1335 45.0598 87.9492C45.0598 87.7629 45.0598 87.6015 45.0598 87.4652C45.0598 87.1848 45.0569 86.9178 45.0511 86.6643C45.0473 86.4089 45.0358 86.2053 45.0166 86.0536ZM44.9589 85.1173C44.9589 85.0097 44.9925 84.9185 45.0598 84.8436C45.127 84.7668 45.2134 84.7284 45.319 84.7284C45.4266 84.7284 45.5159 84.7668 45.587 84.8436C45.658 84.9185 45.6936 85.0097 45.6936 85.1173C45.6936 85.2229 45.658 85.3141 45.587 85.391C45.5159 85.4678 45.4266 85.5062 45.319 85.5062C45.2134 85.5062 45.127 85.4678 45.0598 85.391C44.9925 85.3141 44.9589 85.2229 44.9589 85.1173ZM48.3324 88.3727V88.8336C48.1999 88.9181 48.0731 88.9776 47.9521 89.0122C47.8312 89.0468 47.7198 89.0641 47.618 89.0641C47.4682 89.0641 47.3318 89.04 47.2089 88.992C47.086 88.9421 46.988 88.8557 46.915 88.7328C46.8421 88.6079 46.8056 88.4351 46.8056 88.2142C46.8056 88.1451 46.8056 88.0317 46.8056 87.8743C46.8056 87.7168 46.8056 87.5314 46.8056 87.3183C46.8056 87.1032 46.8056 86.8736 46.8056 86.6297C46.8056 86.3839 46.8056 86.1371 46.8056 85.8893C46.8056 85.6416 46.8056 85.4082 46.8056 85.1893H47.3385C47.3385 85.4351 47.3385 85.6983 47.3385 85.9787C47.3385 86.2571 47.3385 86.527 47.3385 86.7882C47.3385 87.0494 47.3385 87.277 47.3385 87.4709C47.3385 87.663 47.3385 87.7955 47.3385 87.8685C47.3385 88.0663 47.351 88.2171 47.376 88.3208C47.4029 88.4245 47.4432 88.4956 47.497 88.534C47.5507 88.5705 47.6208 88.5887 47.7073 88.5887C47.8648 88.5887 48.0731 88.5167 48.3324 88.3727ZM48.2748 86.5433H46.2294V86.1256H48.2748V86.5433ZM49.6317 84.3827V87.6236C49.6317 87.7465 49.6336 87.8954 49.6375 88.0702C49.6432 88.2449 49.6499 88.4159 49.6576 88.583C49.6672 88.75 49.6778 88.8864 49.6893 88.992H49.0987V85.7367C49.0987 85.1739 49.0795 84.7226 49.0411 84.3827H49.6317ZM53.0311 87.5948H50.8877V87.1915H52.5154C52.5154 86.9437 52.4472 86.7546 52.3109 86.624C52.1764 86.4934 52.0046 86.4281 51.7952 86.4281C51.5436 86.4281 51.3458 86.5174 51.2018 86.696C51.0596 86.8746 50.9886 87.155 50.9886 87.5372C50.9886 87.8925 51.075 88.1566 51.2479 88.3294C51.4226 88.5023 51.6435 88.5887 51.9104 88.5887C52.0967 88.5887 52.2792 88.5676 52.4578 88.5253C52.6383 88.4812 52.816 88.4063 52.9908 88.3006L53.0484 88.776C52.8448 88.8816 52.6479 88.9555 52.4578 88.9978C52.2677 89.042 52.0612 89.0641 51.8384 89.0641C51.5945 89.0641 51.3669 89.0074 51.1557 88.8941C50.9463 88.7808 50.7773 88.6127 50.6486 88.3899C50.52 88.1671 50.4556 87.8925 50.4556 87.566C50.4556 87.2472 50.5113 86.9706 50.6227 86.7363C50.736 86.502 50.8954 86.3205 51.1009 86.1918C51.3084 86.0612 51.5542 85.9959 51.8384 85.9959C52.0766 85.9959 52.2725 86.0363 52.4261 86.1169C52.5817 86.1976 52.7036 86.3052 52.792 86.4396C52.8803 86.574 52.9428 86.7229 52.9792 86.8861C53.0157 87.0475 53.034 87.2088 53.034 87.3701C53.034 87.3951 53.034 87.4325 53.034 87.4825C53.034 87.5305 53.033 87.5679 53.0311 87.5948Z" fill="white"/>
</g>
<defs>
<clipPath id="clip0_5744_6362">
<rect y="150" width="150" height="233.898" rx="8.58596" transform="rotate(-90 0 150)" fill="white"/>
</clipPath>
</defs>
</svg>
