<svg width="154" height="14" viewBox="0 0 154 14" fill="none" xmlns="http://www.w3.org/2000/svg">
<path d="M9.21781 11.8409C8.99919 12.0492 8.7433 12.2321 8.45014 12.3896C8.15699 12.542 7.84893 12.6716 7.52596 12.7782C7.20796 12.8849 6.88499 12.9637 6.55706 13.0145C6.22912 13.0704 5.92354 13.0983 5.64032 13.0983C4.88508 13.0983 4.20685 12.9688 3.60563 12.7097C3.00441 12.4455 2.49263 12.072 2.07029 11.5894C1.64795 11.1017 1.3225 10.5123 1.09393 9.82136C0.870341 9.13041 0.758545 8.35562 0.758545 7.49701C0.758545 6.51646 0.897669 5.65785 1.17592 4.92117C1.45417 4.17941 1.82434 3.56212 2.28643 3.0693C2.75349 2.57649 3.29011 2.20815 3.8963 1.96428C4.50248 1.71534 5.13351 1.59086 5.78939 1.59086C6.0577 1.59086 6.33098 1.60864 6.60923 1.64421C6.88748 1.67977 7.16573 1.7382 7.44397 1.81949C7.72719 1.90078 8.00793 2.01001 8.28617 2.14718C8.56442 2.28436 8.8377 2.45456 9.10602 2.65778L8.65883 4.02953C8.4253 3.81615 8.1868 3.63579 7.94333 3.48845C7.69986 3.34111 7.4564 3.22426 7.21293 3.13789C6.96946 3.04644 6.72599 2.98293 6.48252 2.94737C6.24403 2.90673 6.01298 2.8864 5.78939 2.8864C5.26767 2.8864 4.78819 2.98039 4.35094 3.16837C3.91369 3.35127 3.53607 3.62816 3.21807 3.99905C2.90504 4.36993 2.65909 4.83226 2.48021 5.38604C2.30134 5.93474 2.2119 6.57489 2.2119 7.30649C2.2119 7.99236 2.29885 8.60965 2.47276 9.15835C2.65163 9.70705 2.8951 10.1745 3.20316 10.5606C3.51619 10.9467 3.88636 11.2439 4.31367 11.4522C4.74098 11.6605 5.20804 11.7647 5.71486 11.7647C5.99807 11.7647 6.28377 11.7317 6.57196 11.6656C6.86512 11.5996 7.15082 11.5056 7.42907 11.3836C7.70732 11.2566 7.97314 11.1067 8.22655 10.934C8.47995 10.7613 8.711 10.5682 8.91969 10.3548L9.21781 11.8409Z" fill="#2D2D2D"/>
<path d="M11.3121 12.9078V8.22099C11.3121 7.46907 11.2699 6.834 11.1854 6.31578C11.1059 5.79248 11.0239 5.39874 10.9395 5.13455H12.281C12.3108 5.21584 12.3407 5.32253 12.3705 5.45462C12.4003 5.58164 12.4276 5.71627 12.4525 5.85853C12.4773 6.00078 12.4997 6.1405 12.5195 6.27767L12.5792 6.62061C12.758 6.35642 12.9518 6.12272 13.1605 5.9195C13.3742 5.71627 13.5878 5.54607 13.8015 5.4089C14.0201 5.26664 14.2313 5.15995 14.435 5.08882C14.6437 5.0177 14.8325 4.98213 15.0014 4.98213C15.3144 4.98213 15.5778 5.05326 15.7914 5.19552C16.0101 5.33269 16.1865 5.52067 16.3206 5.75946C16.4597 5.99316 16.5591 6.26497 16.6187 6.57489C16.6833 6.87972 16.7156 7.1998 16.7156 7.53511L15.5231 7.80184C15.5231 7.61386 15.5057 7.4335 15.471 7.26076C15.4362 7.08294 15.384 6.92799 15.3144 6.79589C15.2449 6.65872 15.1554 6.55202 15.0461 6.47582C14.9418 6.39453 14.8151 6.35388 14.666 6.35388C14.507 6.35388 14.3306 6.41739 14.1369 6.5444C13.9431 6.66634 13.7518 6.82892 13.563 7.03214C13.3791 7.23536 13.2077 7.46398 13.0487 7.71801C12.8897 7.97204 12.7705 8.22861 12.691 8.48772V12.9078H11.3121Z" fill="#2D2D2D"/>
<path d="M18.877 9.2117C18.8919 9.65878 18.959 10.0474 19.0783 10.3777C19.2025 10.7079 19.3689 10.9823 19.5776 11.2007C19.7913 11.4141 20.0397 11.5742 20.3229 11.6808C20.6111 11.7875 20.9241 11.8409 21.262 11.8409C21.744 11.8409 22.216 11.785 22.6781 11.6732C23.1402 11.5615 23.5998 11.3633 24.0569 11.0788L24.206 12.3362C23.9426 12.4734 23.6843 12.5903 23.4309 12.6868C23.1775 12.7833 22.9241 12.8621 22.6707 12.923C22.4172 12.984 22.1589 13.0272 21.8955 13.0526C21.6372 13.0831 21.3639 13.0983 21.0757 13.0983C20.5987 13.0983 20.1441 13.0145 19.7118 12.8468C19.2795 12.6741 18.8994 12.4226 18.5714 12.0924C18.2435 11.7571 17.9827 11.343 17.7889 10.8502C17.5951 10.3574 17.4982 9.7858 17.4982 9.13549C17.4982 8.5055 17.5802 7.93648 17.7442 7.42842C17.9131 6.91528 18.1516 6.47836 18.4597 6.11764C18.7677 5.75184 19.1429 5.47241 19.5851 5.27935C20.0273 5.0812 20.5242 4.98213 21.0757 4.98213C21.4831 4.98213 21.8434 5.03294 22.1564 5.13455C22.4694 5.23108 22.7402 5.36826 22.9688 5.54607C23.1973 5.71881 23.3886 5.92204 23.5427 6.15574C23.6967 6.38945 23.8184 6.64093 23.9079 6.9102C24.0023 7.17947 24.0694 7.46144 24.1091 7.75612C24.1489 8.04571 24.1687 8.33276 24.1687 8.61727V8.91448C24.1687 9.0415 24.1662 9.14057 24.1613 9.2117H18.877ZM20.9639 6.12526C20.4173 6.12526 19.9701 6.29038 19.6223 6.62061C19.2745 6.94577 19.046 7.45382 18.9367 8.14478H22.8272C22.8272 7.81962 22.78 7.53257 22.6856 7.28362C22.5961 7.0296 22.4669 6.81621 22.298 6.64347C22.134 6.47074 21.9378 6.34118 21.7092 6.25481C21.4806 6.16844 21.2322 6.12526 20.9639 6.12526Z" fill="#2D2D2D"/>
<path d="M30.9585 6.33864C30.8989 6.3234 30.8318 6.30816 30.7573 6.29292C30.6827 6.27767 30.5933 6.26243 30.489 6.24719C30.3896 6.23195 30.2703 6.22179 30.1312 6.21671C29.997 6.20655 29.8381 6.20147 29.6542 6.20147C29.1673 6.20147 28.7598 6.30308 28.4319 6.5063C28.1089 6.70444 27.8506 6.97117 27.6568 7.30649C27.463 7.63672 27.3239 8.01777 27.2394 8.44961C27.1599 8.88146 27.1202 9.32601 27.1202 9.78326C27.1202 10.0779 27.1475 10.3497 27.2021 10.5987C27.2618 10.8426 27.3413 11.0559 27.4406 11.2388C27.54 11.4167 27.6543 11.5564 27.7835 11.658C27.9127 11.7545 28.0518 11.8028 28.2009 11.8028C28.4195 11.8028 28.6381 11.7164 28.8567 11.5437C29.0803 11.3709 29.294 11.1499 29.4977 10.8807C29.7014 10.6063 29.8927 10.3015 30.0716 9.96616C30.2505 9.62576 30.4045 9.29044 30.5337 8.96021C30.6678 8.62489 30.7722 8.3099 30.8467 8.01522C30.9212 7.72055 30.9585 7.48431 30.9585 7.30649V6.33864ZM31.5175 12.9078C31.4628 12.7859 31.4131 12.6182 31.3684 12.4048C31.3287 12.1914 31.2939 11.9654 31.2641 11.7266C31.2392 11.4827 31.2194 11.2414 31.2045 11.0026C31.1895 10.7638 31.1821 10.5606 31.1821 10.3929V9.78326C31.033 10.1795 30.8542 10.5758 30.6455 10.9721C30.4417 11.3633 30.2057 11.7164 29.9374 12.0314C29.6741 12.3464 29.3784 12.603 29.0505 12.8011C28.7226 12.9993 28.3648 13.0983 27.9773 13.0983C27.6642 13.0983 27.3711 13.0272 27.0978 12.8849C26.8245 12.7427 26.586 12.5318 26.3823 12.2524C26.1835 11.973 26.027 11.6275 25.9128 11.216C25.7985 10.7994 25.7413 10.3218 25.7413 9.78326C25.7413 9.17867 25.8208 8.58933 25.9798 8.01522C26.1388 7.43604 26.3823 6.9229 26.7102 6.47582C27.0382 6.02365 27.4555 5.66293 27.9624 5.39366C28.4692 5.11931 29.0704 4.98213 29.766 4.98213C30.248 4.98213 30.7026 5.01516 31.1299 5.0812C31.5572 5.14217 31.9597 5.22346 32.3373 5.32507V8.86876C32.3373 9.82898 32.382 10.6368 32.4715 11.2922C32.5609 11.9425 32.6777 12.481 32.8218 12.9078H31.5175Z" fill="#2D2D2D"/>
<path d="M33.7534 5.32507H35.244V2.8483H36.6229V5.32507H39.0451V6.43009H36.6229V9.93567C36.6229 10.3269 36.6402 10.647 36.675 10.8959C36.7148 11.1448 36.7719 11.3404 36.8464 11.4827C36.9259 11.6199 37.0253 11.7139 37.1446 11.7647C37.2638 11.8155 37.4079 11.8409 37.5769 11.8409C37.7905 11.8409 38.0315 11.7926 38.2998 11.6961C38.5681 11.5996 38.8662 11.4573 39.1942 11.2693V12.4887C38.8513 12.7173 38.5234 12.8748 38.2104 12.9611C37.8973 13.0526 37.6091 13.0983 37.3458 13.0983C37.0526 13.0983 36.7794 13.0628 36.526 12.9916C36.2726 12.9256 36.049 12.8062 35.8552 12.6334C35.6664 12.4607 35.5173 12.2321 35.408 11.9476C35.2987 11.658 35.244 11.2922 35.244 10.8502V6.43009H33.7534V5.32507Z" fill="#2D2D2D"/>
<path d="M41.8475 9.2117C41.8624 9.65878 41.9295 10.0474 42.0487 10.3777C42.1729 10.7079 42.3394 10.9823 42.5481 11.2007C42.7617 11.4141 43.0102 11.5742 43.2934 11.6808C43.5816 11.7875 43.8946 11.8409 44.2325 11.8409C44.7144 11.8409 45.1865 11.785 45.6486 11.6732C46.1106 11.5615 46.5703 11.3633 47.0274 11.0788L47.1764 12.3362C46.9131 12.4734 46.6547 12.5903 46.4013 12.6868C46.1479 12.7833 45.8945 12.8621 45.6411 12.923C45.3877 12.984 45.1293 13.0272 44.866 13.0526C44.6076 13.0831 44.3343 13.0983 44.0461 13.0983C43.5691 13.0983 43.1145 13.0145 42.6822 12.8468C42.2499 12.6741 41.8698 12.4226 41.5419 12.0924C41.214 11.7571 40.9531 11.343 40.7593 10.8502C40.5655 10.3574 40.4687 9.7858 40.4687 9.13549C40.4687 8.5055 40.5506 7.93648 40.7146 7.42842C40.8835 6.91528 41.122 6.47836 41.4301 6.11764C41.7382 5.75184 42.1133 5.47241 42.5555 5.27935C42.9977 5.0812 43.4946 4.98213 44.0461 4.98213C44.4536 4.98213 44.8138 5.03294 45.1268 5.13455C45.4399 5.23108 45.7107 5.36826 45.9392 5.54607C46.1678 5.71881 46.3591 5.92204 46.5131 6.15574C46.6671 6.38945 46.7889 6.64093 46.8783 6.9102C46.9727 7.17947 47.0398 7.46144 47.0796 7.75612C47.1193 8.04571 47.1392 8.33276 47.1392 8.61727V8.91448C47.1392 9.0415 47.1367 9.14057 47.1317 9.2117H41.8475ZM43.9343 6.12526C43.3878 6.12526 42.9406 6.29038 42.5928 6.62061C42.245 6.94577 42.0164 7.45382 41.9071 8.14478H45.7976C45.7976 7.81962 45.7504 7.53257 45.656 7.28362C45.5666 7.0296 45.4374 6.81621 45.2684 6.64347C45.1045 6.47074 44.9082 6.34118 44.6797 6.25481C44.4511 6.16844 44.2027 6.12526 43.9343 6.12526Z" fill="#2D2D2D"/>
<path d="M54.2271 6.84924C54.0432 6.74763 53.8718 6.66126 53.7128 6.59013C53.5538 6.519 53.3973 6.46057 53.2433 6.41485C53.0892 6.36912 52.9327 6.3361 52.7737 6.31578C52.6147 6.29038 52.4408 6.27767 52.252 6.27767C51.9688 6.27767 51.698 6.34372 51.4396 6.47582C51.1812 6.60791 50.9502 6.79843 50.7465 7.04738C50.5477 7.29633 50.3887 7.60116 50.2695 7.96188C50.1502 8.31752 50.0906 8.72142 50.0906 9.17359C50.0906 10.0627 50.2372 10.7359 50.5303 11.1931C50.8285 11.6504 51.303 11.879 51.9539 11.879C52.1824 11.879 52.4085 11.8206 52.6321 11.7037C52.8607 11.5869 53.0743 11.4344 53.2731 11.2465C53.4768 11.0585 53.6606 10.8451 53.8246 10.6063C53.9886 10.3624 54.1227 10.1135 54.2271 9.85947V6.84924ZM55.6059 8.86876C55.6059 9.82898 55.6581 10.6368 55.7624 11.2922C55.8717 11.9425 56.0059 12.481 56.1649 12.9078H54.8233C54.7687 12.7757 54.7016 12.5801 54.6221 12.321C54.5476 12.0568 54.478 11.7825 54.4134 11.4979C54.0556 12.0162 53.6507 12.4124 53.1985 12.6868C52.7464 12.9611 52.2445 13.0983 51.693 13.0983C51.2359 13.0983 50.8235 13.012 50.4558 12.8392C50.0931 12.6614 49.7801 12.4124 49.5167 12.0924C49.2583 11.7672 49.0596 11.3786 48.9205 10.9264C48.7813 10.4691 48.7118 9.96108 48.7118 9.40222C48.7118 8.7265 48.8012 8.11684 48.9801 7.57322C49.1639 7.0296 49.4149 6.56727 49.7329 6.18622C50.0508 5.8001 50.4235 5.50289 50.8508 5.29459C51.2831 5.08628 51.7502 4.98213 52.252 4.98213C52.411 4.98213 52.575 4.99991 52.7439 5.03548C52.9178 5.07104 53.0892 5.11931 53.2582 5.18027C53.4321 5.24124 53.601 5.31237 53.765 5.39366C53.9289 5.46987 54.083 5.54861 54.2271 5.6299V3.49607C54.2271 2.88132 54.2122 2.34532 54.1824 1.88807C54.1575 1.42574 54.1103 1.03454 54.0407 0.714466H55.6059V8.86876Z" fill="#2D2D2D"/>
<path d="M67.2327 5.13455L69.1705 11.2693L70.7357 5.13455H72.1145C72.0251 5.42414 71.9456 5.68579 71.876 5.9195C71.8114 6.14812 71.7493 6.36912 71.6897 6.58251C71.6301 6.79081 71.5704 6.99657 71.5108 7.1998C71.4561 7.39794 71.3965 7.61132 71.3319 7.83995L69.9531 12.9078H68.537L66.6737 6.92545L64.8105 12.9078H63.3944L62.0156 7.83995C61.9609 7.63672 61.9038 7.43604 61.8441 7.2379C61.7895 7.03976 61.7299 6.834 61.6653 6.62061C61.6056 6.40723 61.541 6.1786 61.4715 5.93474C61.4019 5.69087 61.3224 5.42414 61.233 5.13455H62.6118L64.177 11.2693L66.1148 5.13455H67.2327Z" fill="#2D2D2D"/>
<path d="M73.6051 2.65778C73.6051 2.51552 73.6275 2.38343 73.6722 2.2615C73.7169 2.13448 73.779 2.02525 73.8585 1.9338C73.943 1.83727 74.0424 1.7636 74.1567 1.7128C74.2709 1.65691 74.3976 1.62897 74.5368 1.62897C74.6759 1.62897 74.8051 1.65691 74.9243 1.7128C75.0436 1.7636 75.1454 1.83727 75.2299 1.9338C75.3144 2.02525 75.3814 2.13448 75.4311 2.2615C75.4808 2.38343 75.5057 2.51552 75.5057 2.65778C75.5057 2.80003 75.4808 2.93467 75.4311 3.06168C75.3814 3.18362 75.3144 3.29285 75.2299 3.38938C75.1454 3.48083 75.0436 3.5545 74.9243 3.61038C74.8051 3.66119 74.6759 3.68659 74.5368 3.68659C74.3976 3.68659 74.2709 3.66119 74.1567 3.61038C74.0424 3.5545 73.943 3.48083 73.8585 3.38938C73.779 3.29285 73.7169 3.18362 73.6722 3.06168C73.6275 2.93467 73.6051 2.80003 73.6051 2.65778ZM75.2448 9.2879C75.2448 9.53177 75.2473 9.82136 75.2523 10.1567C75.2622 10.4869 75.2721 10.8222 75.2821 11.1626C75.297 11.503 75.3119 11.8282 75.3268 12.1381C75.3467 12.448 75.369 12.7046 75.3939 12.9078H73.866V8.86876C73.866 8.49788 73.8635 8.13208 73.8585 7.77136C73.8585 7.41064 73.8536 7.07024 73.8436 6.75017C73.8387 6.42501 73.8287 6.12526 73.8138 5.85091C73.7989 5.57148 73.779 5.33269 73.7542 5.13455H75.2448V9.2879Z" fill="#2D2D2D"/>
<path d="M76.8919 5.32507H78.3826V2.8483H79.7614V5.32507H82.1836V6.43009H79.7614V9.93567C79.7614 10.3269 79.7788 10.647 79.8136 10.8959C79.8533 11.1448 79.9104 11.3404 79.985 11.4827C80.0645 11.6199 80.1639 11.7139 80.2831 11.7647C80.4024 11.8155 80.5464 11.8409 80.7154 11.8409C80.929 11.8409 81.17 11.7926 81.4383 11.6961C81.7066 11.5996 82.0048 11.4573 82.3327 11.2693V12.4887C81.9899 12.7173 81.6619 12.8748 81.3489 12.9611C81.0359 13.0526 80.7477 13.0983 80.4843 13.0983C80.1912 13.0983 79.9179 13.0628 79.6645 12.9916C79.4111 12.9256 79.1875 12.8062 78.9937 12.6334C78.8049 12.4607 78.6558 12.2321 78.5465 11.9476C78.4372 11.658 78.3826 11.2922 78.3826 10.8502V6.43009H76.8919V5.32507Z" fill="#2D2D2D"/>
<path d="M89.2715 12.9078V8.71634C89.2715 8.23877 89.2392 7.84503 89.1747 7.53511C89.115 7.2252 89.0231 6.98133 88.8989 6.80351C88.7747 6.62061 88.6181 6.4936 88.4293 6.42247C88.2455 6.35134 88.0294 6.31578 87.7809 6.31578C87.5126 6.31578 87.2493 6.38183 86.9909 6.51392C86.7375 6.64093 86.504 6.80859 86.2903 7.0169C86.0766 7.22012 85.8878 7.45128 85.7239 7.71039C85.5599 7.9695 85.4382 8.22861 85.3587 8.48772V12.9078H83.9798V4.29626C83.9798 3.47321 83.9749 2.75431 83.9649 2.13956C83.955 1.51973 83.9227 1.0447 83.868 0.714466H85.3587V6.58251C85.7263 6.04905 86.1586 5.65023 86.6555 5.38604C87.1524 5.11677 87.6642 4.98213 88.1908 4.98213C88.9858 4.98213 89.5945 5.24886 90.0168 5.78232C90.4392 6.3107 90.6504 7.09818 90.6504 8.14478V12.9078H89.2715Z" fill="#2D2D2D"/>
<path d="M111.768 10.5377V4.19719C111.768 3.84155 111.763 3.51131 111.753 3.20648C111.748 2.89656 111.738 2.61967 111.724 2.37581C111.709 2.13194 111.686 1.9338 111.657 1.78138C111.82 1.77122 112.024 1.76106 112.268 1.7509C112.511 1.74074 112.777 1.73312 113.065 1.72804C113.358 1.71788 113.664 1.7128 113.982 1.7128C114.305 1.70771 114.623 1.70517 114.936 1.70517C115.487 1.70517 115.979 1.7509 116.412 1.84235C116.844 1.9338 117.207 2.08368 117.5 2.29198C117.793 2.50028 118.016 2.77463 118.171 3.11503C118.325 3.45543 118.402 3.87457 118.402 4.37247C118.402 4.69254 118.354 4.98213 118.26 5.24124C118.166 5.49527 118.034 5.72389 117.865 5.92712C117.701 6.12526 117.507 6.298 117.284 6.44533C117.065 6.59267 116.829 6.7146 116.576 6.81113C116.864 6.88734 117.149 6.99403 117.433 7.13121C117.716 7.2633 117.969 7.44112 118.193 7.66467C118.421 7.88821 118.605 8.16764 118.744 8.50296C118.888 8.83319 118.961 9.23456 118.961 9.70705C118.961 10.1694 118.886 10.6012 118.737 11.0026C118.593 11.3989 118.359 11.7444 118.036 12.039C117.718 12.3337 117.306 12.5649 116.799 12.7325C116.297 12.9002 115.689 12.984 114.973 12.984C114.596 12.984 114.228 12.9815 113.87 12.9764C113.517 12.9713 113.192 12.9637 112.894 12.9535C112.601 12.9484 112.345 12.9408 112.126 12.9307C111.912 12.9256 111.756 12.918 111.657 12.9078C111.686 12.7554 111.709 12.5598 111.724 12.321C111.738 12.0822 111.748 11.8129 111.753 11.5132C111.763 11.2134 111.768 10.8883 111.768 10.5377ZM113.184 11.7266C113.254 11.7317 113.348 11.7367 113.468 11.7418C113.587 11.7469 113.726 11.752 113.885 11.7571C114.044 11.7571 114.218 11.7596 114.407 11.7647C114.6 11.7647 114.802 11.7647 115.01 11.7647C115.328 11.7647 115.636 11.7317 115.935 11.6656C116.238 11.5996 116.504 11.4878 116.732 11.3303C116.966 11.1728 117.152 10.9619 117.291 10.6978C117.435 10.4336 117.507 10.1033 117.507 9.70705C117.507 9.00085 117.296 8.46993 116.874 8.1143C116.456 7.75358 115.81 7.57322 114.936 7.57322H113.184V11.7266ZM113.184 6.39199H114.638C115.035 6.39199 115.378 6.3488 115.666 6.26243C115.959 6.17606 116.2 6.05413 116.389 5.89663C116.578 5.73914 116.717 5.55116 116.807 5.33269C116.901 5.10915 116.948 4.86528 116.948 4.60109C116.948 4.31658 116.908 4.06763 116.829 3.85425C116.754 3.64087 116.633 3.46305 116.464 3.32079C116.3 3.17346 116.084 3.06422 115.815 2.9931C115.552 2.92197 115.234 2.8864 114.861 2.8864C114.717 2.8864 114.563 2.88894 114.399 2.89402C114.235 2.89402 114.076 2.89656 113.922 2.90165C113.768 2.90673 113.627 2.91181 113.497 2.91689C113.368 2.91689 113.264 2.91943 113.184 2.92451V6.39199Z" fill="#2D2D2D"/>
<path d="M122.844 9.2879C122.844 9.53177 122.846 9.81882 122.851 10.1491C122.861 10.4793 122.871 10.8146 122.881 11.155C122.896 11.4954 122.911 11.8206 122.926 12.1305C122.945 12.4404 122.968 12.6995 122.993 12.9078H121.465V4.29626C121.465 3.5545 121.452 2.88386 121.428 2.28436C121.403 1.67977 121.365 1.15647 121.316 0.714466H122.844V9.2879Z" fill="#2D2D2D"/>
<path d="M126.354 9.05928C126.354 9.50129 126.406 9.89757 126.511 10.2481C126.615 10.5987 126.761 10.8959 126.95 11.1398C127.144 11.3786 127.373 11.5615 127.636 11.6885C127.899 11.8155 128.192 11.879 128.515 11.879C128.814 11.879 129.094 11.8155 129.358 11.6885C129.621 11.5615 129.85 11.3786 130.043 11.1398C130.242 10.8959 130.396 10.5987 130.505 10.2481C130.62 9.89757 130.677 9.50129 130.677 9.05928C130.677 8.61219 130.625 8.21337 130.52 7.86281C130.416 7.50717 130.267 7.20742 130.073 6.96355C129.884 6.7146 129.656 6.52662 129.387 6.39961C129.124 6.26751 128.833 6.20147 128.515 6.20147C128.212 6.20147 127.929 6.26751 127.666 6.39961C127.402 6.52662 127.174 6.7146 126.98 6.96355C126.786 7.20742 126.632 7.50717 126.518 7.86281C126.409 8.21337 126.354 8.61219 126.354 9.05928ZM124.975 9.05928C124.975 8.40389 125.072 7.8247 125.266 7.32173C125.46 6.81367 125.721 6.38691 126.048 6.04143C126.376 5.69087 126.759 5.42668 127.196 5.24886C127.633 5.07104 128.098 4.98213 128.59 4.98213C129.102 4.98213 129.569 5.07104 129.991 5.24886C130.418 5.42668 130.784 5.69087 131.087 6.04143C131.395 6.38691 131.633 6.81367 131.802 7.32173C131.971 7.8247 132.056 8.40389 132.056 9.05928C132.056 9.71467 131.959 10.2939 131.765 10.7968C131.571 11.2998 131.31 11.7215 130.982 12.0619C130.654 12.4023 130.272 12.6614 129.835 12.8392C129.397 13.012 128.933 13.0983 128.441 13.0983C127.929 13.0983 127.46 13.012 127.032 12.8392C126.61 12.6614 126.245 12.4023 125.937 12.0619C125.634 11.7215 125.398 11.2998 125.229 10.7968C125.06 10.2939 124.975 9.71467 124.975 9.05928Z" fill="#2D2D2D"/>
<path d="M134.851 9.05928C134.851 9.50129 134.903 9.89757 135.007 10.2481C135.111 10.5987 135.258 10.8959 135.447 11.1398C135.641 11.3786 135.869 11.5615 136.132 11.6885C136.396 11.8155 136.689 11.879 137.012 11.879C137.31 11.879 137.591 11.8155 137.854 11.6885C138.117 11.5615 138.346 11.3786 138.54 11.1398C138.739 10.8959 138.893 10.5987 139.002 10.2481C139.116 9.89757 139.173 9.50129 139.173 9.05928C139.173 8.61219 139.121 8.21337 139.017 7.86281C138.912 7.50717 138.763 7.20742 138.57 6.96355C138.381 6.7146 138.152 6.52662 137.884 6.39961C137.621 6.26751 137.33 6.20147 137.012 6.20147C136.709 6.20147 136.426 6.26751 136.162 6.39961C135.899 6.52662 135.67 6.7146 135.477 6.96355C135.283 7.20742 135.129 7.50717 135.015 7.86281C134.905 8.21337 134.851 8.61219 134.851 9.05928ZM133.472 9.05928C133.472 8.40389 133.569 7.8247 133.762 7.32173C133.956 6.81367 134.217 6.38691 134.545 6.04143C134.873 5.69087 135.255 5.42668 135.693 5.24886C136.13 5.07104 136.595 4.98213 137.086 4.98213C137.598 4.98213 138.065 5.07104 138.488 5.24886C138.915 5.42668 139.28 5.69087 139.583 6.04143C139.891 6.38691 140.13 6.81367 140.299 7.32173C140.468 7.8247 140.552 8.40389 140.552 9.05928C140.552 9.71467 140.455 10.2939 140.261 10.7968C140.068 11.2998 139.807 11.7215 139.479 12.0619C139.151 12.4023 138.768 12.6614 138.331 12.8392C137.894 13.012 137.429 13.0983 136.937 13.0983C136.426 13.0983 135.956 13.012 135.529 12.8392C135.106 12.6614 134.741 12.4023 134.433 12.0619C134.13 11.7215 133.894 11.2998 133.725 10.7968C133.556 10.2939 133.472 9.71467 133.472 9.05928Z" fill="#2D2D2D"/>
<path d="M148.303 12.9078H146.925V8.56392C146.925 8.09143 146.907 7.71039 146.872 7.4208C146.838 7.12613 146.778 6.8975 146.694 6.73492C146.614 6.56727 146.505 6.45549 146.366 6.39961C146.226 6.34372 146.053 6.31578 145.844 6.31578C145.66 6.31578 145.476 6.35388 145.292 6.43009C145.109 6.5063 144.932 6.61553 144.763 6.75779C144.599 6.89496 144.445 7.06008 144.301 7.25314C144.162 7.44112 144.043 7.64943 143.943 7.87805V12.9078H142.564V8.22099C142.564 7.46907 142.522 6.834 142.438 6.31578C142.353 5.79248 142.271 5.39874 142.192 5.13455H143.533C143.588 5.29713 143.635 5.49019 143.675 5.71373C143.715 5.9322 143.747 6.13288 143.772 6.31578C144 6.04651 144.219 5.82551 144.428 5.65277C144.636 5.48003 144.843 5.34539 145.046 5.24886C145.255 5.14725 145.461 5.07866 145.665 5.0431C145.869 5.00245 146.077 4.98213 146.291 4.98213C146.535 4.98213 146.756 5.0177 146.954 5.08882C147.153 5.15995 147.327 5.25394 147.476 5.3708C147.63 5.48765 147.762 5.62482 147.871 5.78232C147.98 5.93474 148.065 6.09477 148.125 6.26243C148.358 6.00332 148.584 5.79248 148.803 5.6299C149.021 5.46225 149.235 5.33269 149.444 5.24124C149.652 5.14471 149.856 5.07866 150.055 5.0431C150.259 5.00245 150.457 4.98213 150.651 4.98213C151.029 4.98213 151.347 5.04564 151.605 5.17265C151.863 5.29459 152.07 5.47749 152.224 5.72135C152.383 5.96522 152.495 6.26751 152.559 6.62823C152.629 6.98895 152.663 7.40556 152.663 7.87805V12.9078H151.285V8.71634C151.285 8.22353 151.267 7.82216 151.232 7.51225C151.198 7.20234 151.138 6.95847 151.054 6.78065C150.974 6.60283 150.865 6.4809 150.726 6.41485C150.587 6.3488 150.413 6.31578 150.204 6.31578C150.02 6.31578 149.839 6.35388 149.66 6.43009C149.481 6.50122 149.307 6.60537 149.138 6.74255C148.974 6.87464 148.82 7.03722 148.676 7.23028C148.537 7.42334 148.413 7.63926 148.303 7.87805V12.9078Z" fill="#2D2D2D"/>
<path fill-rule="evenodd" clip-rule="evenodd" d="M96.7553 1.49665C96.9593 1.35405 97.2108 1.30106 97.4533 1.34956C98.6332 1.58546 100.281 2.23165 101.174 2.88752C101.179 2.89125 101.184 2.89503 101.189 2.89886C101.22 2.92228 101.252 2.94676 101.286 2.97244C101.707 3.29135 102.372 3.79447 102.896 4.73817C103.46 5.75303 103.819 7.1853 103.782 9.32816L101.937 9.29449C101.97 7.37511 101.644 6.30477 101.291 5.66937C100.964 5.08018 100.578 4.78605 100.169 4.47385C100.143 4.45398 100.116 4.43404 100.09 4.41394C99.6485 4.09182 98.8321 3.71767 98.0406 3.45598C97.8325 5.38146 97.9826 7.35599 98.5543 8.87256C98.8876 9.75666 99.346 10.4388 99.9132 10.8867C100.466 11.3233 101.176 11.5809 102.113 11.5368C103.314 11.4803 104.112 11.2091 104.655 10.8303C105.187 10.4598 105.556 9.93086 105.805 9.19658C106.06 8.44398 106.181 7.4973 106.212 6.34203C106.235 5.46528 106.205 4.50372 106.154 3.45759C105.345 3.59388 104.795 3.7782 104.442 3.93152C104.204 4.03519 104.055 4.12537 103.976 4.17855C103.937 4.20488 103.915 4.22242 103.908 4.22842C103.88 4.25389 103.852 4.27767 103.822 4.29963L103.656 4.42056L102.583 2.88598L102.711 2.79284C102.723 2.78271 102.735 2.77181 102.749 2.7602C102.802 2.71734 102.87 2.6649 102.958 2.60579C103.133 2.48744 103.381 2.34336 103.719 2.19616C104.396 1.90166 105.426 1.59733 106.94 1.45676C107.189 1.43361 107.437 1.51493 107.626 1.68208C107.816 1.84922 107.93 2.08785 107.944 2.34324C108.023 3.78028 108.089 5.15217 108.056 6.39264C108.024 7.6295 107.893 8.79716 107.548 9.81424C107.197 10.8496 106.617 11.7457 105.695 12.3886C104.784 13.0233 103.621 13.3539 102.197 13.4209C100.849 13.4843 99.7039 13.1048 98.7849 12.3792C97.8804 11.6648 97.2504 10.6596 96.8324 9.55059C96.0025 7.34908 95.937 4.55871 96.3681 2.10817C96.4118 1.85955 96.5513 1.63926 96.7553 1.49665Z" fill="#D65649"/>
<path d="M109.024 9.41849C108.084 9.41849 107.318 10.2016 107.318 11.1631C107.318 12.1246 108.084 12.9078 109.024 12.9078C109.964 12.9078 110.73 12.1246 110.73 11.1631C110.73 10.2016 109.964 9.41849 109.024 9.41849ZM109.024 9.76738C109.78 9.76738 110.389 10.3902 110.389 11.1631C110.389 11.936 109.78 12.5588 109.024 12.5588C108.268 12.5588 107.659 11.936 107.659 11.1631C107.659 10.3902 108.268 9.76738 109.024 9.76738ZM108.427 10.2908V12.0355H108.784V11.4085H109.056L109.381 12.0355H109.76V12.0192L109.381 11.305C109.415 11.2874 109.47 11.2691 109.504 11.2341C109.555 11.1988 109.571 11.1653 109.605 11.1304C109.639 11.0783 109.658 11.0411 109.675 10.9888C109.692 10.9366 109.691 10.884 109.691 10.8142C109.691 10.727 109.671 10.655 109.637 10.5852C109.62 10.5331 109.571 10.485 109.52 10.4327C109.452 10.3805 109.397 10.3411 109.312 10.3236C109.244 10.306 109.158 10.2911 109.056 10.2911L108.427 10.2908ZM108.8 10.607H109.077C109.163 10.607 109.229 10.6199 109.28 10.6727C109.331 10.7249 109.349 10.7817 109.349 10.869C109.349 10.9042 109.351 10.9377 109.333 10.9726C109.316 11.0078 109.297 11.0423 109.28 11.0598C109.263 11.0774 109.229 11.0917 109.195 11.1086C109.161 11.1262 109.129 11.1303 109.077 11.1303H108.8V10.607Z" fill="#D65649"/>
</svg>
