<?xml version="1.0" encoding="utf-8"?>
<!-- Generator: Adobe Illustrator 25.3.1, SVG Export Plug-In . SVG Version: 6.00 Build 0)  -->
<svg version="1.1" id="Layer_1" xmlns="http://www.w3.org/2000/svg" xmlns:xlink="http://www.w3.org/1999/xlink" x="0px" y="0px" viewBox="0 0 154 231" style="enable-background:new 0 0 154 231;" xml:space="preserve">
	<style type="text/css">
	.st0{fill:none;}
	.st1{fill:#FFFFFF;}
	.st2{font-family:'Arial';}
	.st3{font-size:9.1859px;}
	.st4{fill:none;stroke:#FFFFFF;stroke-miterlimit:10;}
	.st5{font-size:10px;}
</style>
	<g>
		<rect class="st0" width="154" height="231" />
	</g>
	<g>
		<text transform="matrix(1 0 0 1 6.087 44.331)">
			<tspan x="0" y="0" class="st1 st2 st3">Синф</tspan>
			<tspan x="24.4" y="0" class="st1 st2 st3">и</tspan>
			<tspan x="29.99" y="0" class="st1 st2 st3">-1</tspan>
		</text>
	</g>
	<g>
		<text transform="matrix(1 0 0 1 6.084 104.2592)">
			<tspan x="0" y="0" class="st1 st2 st3">Синф</tspan>
			<tspan x="24.4" y="0" class="st1 st2 st3">и</tspan>
			<tspan x="29.99" y="0" class="st1 st2 st3">-</tspan>
			<tspan x="33.27" y="0" class="st1 st2 st3">2</tspan>
		</text>
	</g>
	<g>
		<text transform="matrix(1 0 0 1 6.084 152.5961)">
			<tspan x="0" y="0" class="st1 st2 st3">Синф</tspan>
			<tspan x="24.4" y="0" class="st1 st2 st3">и</tspan>
			<tspan x="29.99" y="0" class="st1 st2 st3">-</tspan>
			<tspan x="33.27" y="0" class="st1 st2 st3">3</tspan>
		</text>
	</g>
	<g>
		<text transform="matrix(1 0 0 1 6.084 204.4897)">
			<tspan x="0" y="0" class="st1 st2 st3">Синф</tspan>
			<tspan x="24.4" y="0" class="st1 st2 st3">и-</tspan>
			<tspan x="33.5" y="0" class="st1 st2 st3">4</tspan>
		</text>
	</g>
	<g>
		<path class="st4" d="M59.33,124.57c-2.82,0-5.11-0.38-5.11-0.85v-19.89c0-0.47-2.29-0.85-5.11-0.85c2.82,0,5.11-0.39,5.11-0.85
		V82.23c0-0.47,2.29-0.85,5.11-0.85" />
	</g>
	<g>
		<path class="st4" d="M59.33,76.37c-2.82,0-5.11-0.38-5.11-0.85V42.15c0-0.47-2.29-0.85-5.11-0.85c2.82,0,5.11-0.38,5.11-0.85V7.07
		c0-0.47,2.29-0.85,5.11-0.85" />
	</g>
	<g>
		<path class="st4" d="M59.33,172.77c-2.82,0-5.11-0.38-5.11-0.85v-19.89c0-0.47-2.29-0.85-5.11-0.85c2.82,0,5.11-0.38,5.11-0.85
		v-19.89c0-0.47,2.29-0.85,5.11-0.85" />
	</g>
	<g>
		<path class="st4" d="M59.33,224.78c-2.82,0-5.11-0.38-5.11-0.85v-19.89c0-0.47-2.29-0.85-5.11-0.85c2.82,0,5.11-0.38,5.11-0.85
		v-19.89c0-0.47,2.29-0.85,5.11-0.85" />
	</g>
	<g>
		<path class="st1" d="M145.54,85.92V98.5H65.78V85.92H145.54 M147.54,83.92H63.78v16.58h83.76V83.92L147.54,83.92z" />
	</g>
	<g>
		<path class="st1" d="M145.54,134.12v12.57H65.78v-12.57H145.54 M147.54,132.12H63.78v16.57h83.76V132.12L147.54,132.12z" />
	</g>
	<g>
		<path class="st1" d="M145.54,186.13v12.57H65.78v-12.57H145.54 M147.54,184.13H63.78v16.57h83.76V184.13L147.54,184.13z" />
	</g>
	<g>
		<path class="st1" d="M145.54,35.01v12.58H65.78V35.01H145.54 M147.54,33.01H63.78v16.58h83.76V33.01L147.54,33.01z" />
	</g>
	<g>
		<path class="st1" d="M145.54,155.65v12.57H65.78v-12.57H145.54 M147.54,153.65H63.78v16.57h83.76V153.65L147.54,153.65z" />
	</g>
	<g>
		<path class="st1" d="M145.54,207.66v12.57H65.78v-12.57H145.54 M147.54,205.66H63.78v16.57h83.76V205.66L147.54,205.66z" />
	</g>
	<g>
		<path class="st1" d="M145.54,56.54v12.58H65.78V56.54H145.54 M147.54,54.54H63.78v16.58h83.76V54.54L147.54,54.54z" />
	</g>
	<text transform="matrix(1 0 0 1 77.4156 43.9608)" class="st1 st2 st5">Дараҷаи 1.2</text>
	<text transform="matrix(1 0 0 1 77.4156 65.4905)" class="st1 st2 st5">Дараҷаи 1.3</text>
	<text transform="matrix(1 0 0 1 77.4156 143.079)" class="st1 st2 st5">Дараҷаи 3.1</text>
	<text transform="matrix(1 0 0 1 77.4156 164.6082)" class="st1 st2 st5">Дараҷаи 3.2</text>
	<text transform="matrix(1 0 0 1 77.4156 94.8771)" class="st1 st2 st5">Дараҷаи 2.1</text>
	<g>
		<g>
			<path class="st1" d="M92.63,111.79c-0.37,0-0.71,0.17-0.99,0.52c-0.29,0.35-0.43,0.86-0.43,1.53s0.13,1.16,0.41,1.48
			s0.6,0.48,0.98,0.48c0.39,0,0.72-0.17,1-0.5c0.28-0.33,0.42-0.84,0.42-1.54c0-0.66-0.14-1.16-0.41-1.48
			C93.33,111.96,93.01,111.79,92.63,111.79z" />
		</g>
		<g>
			<path class="st1" d="M107.85,114.31c-0.15,0.06-0.27,0.16-0.35,0.29s-0.12,0.26-0.12,0.42c0,0.23,0.09,0.43,0.27,0.59
			c0.18,0.16,0.44,0.23,0.78,0.23c0.34,0,0.64-0.07,0.9-0.22s0.46-0.35,0.58-0.61c0.09-0.2,0.14-0.49,0.14-0.88v-0.32
			c-0.32,0.13-0.8,0.24-1.44,0.33C108.26,114.19,108,114.25,107.85,114.31z" />
		</g>
		<g>
			<path class="st1" d="M85.96,114.31c-0.15,0.06-0.27,0.16-0.35,0.29s-0.12,0.26-0.12,0.42c0,0.23,0.09,0.43,0.27,0.59
			c0.18,0.16,0.44,0.23,0.78,0.23c0.34,0,0.64-0.07,0.9-0.22s0.46-0.35,0.58-0.61c0.09-0.2,0.14-0.49,0.14-0.88v-0.32
			c-0.32,0.13-0.8,0.24-1.44,0.33C86.36,114.19,86.1,114.25,85.96,114.31z" />
		</g>
		<g>
			<path class="st1" d="M79.75,110.46c0,0.61-0.05,1.44-0.16,2.5c-0.11,1.06-0.32,1.92-0.64,2.6h3.3v-5.47h-2.5V110.46z" />
		</g>
		<g>
			<path class="st1" d="M63.78,105.45v16.58h83.76v-16.58H63.78z M83.84,118.08h-0.84v-1.67h-4.73v1.67h-0.84v-2.51h0.56
			c0.58-0.87,0.86-2.63,0.86-5.27v-1.04h4.36v6.31h0.64V118.08z M88.41,116.41c-0.09-0.18-0.15-0.4-0.18-0.64
			c-0.33,0.28-0.64,0.47-0.94,0.59c-0.3,0.11-0.62,0.17-0.97,0.17c-0.57,0-1.01-0.14-1.31-0.42c-0.31-0.28-0.46-0.63-0.46-1.07
			c0-0.25,0.06-0.49,0.17-0.7c0.12-0.21,0.27-0.38,0.45-0.51c0.19-0.13,0.4-0.22,0.63-0.29c0.17-0.05,0.43-0.09,0.78-0.13
			c0.71-0.08,1.23-0.19,1.57-0.3c0-0.12,0-0.2,0-0.23c0-0.36-0.08-0.61-0.25-0.76c-0.22-0.2-0.56-0.3-1-0.3
			c-0.41,0-0.72,0.07-0.92,0.22c-0.2,0.15-0.34,0.4-0.44,0.77l-0.86-0.12c0.08-0.37,0.21-0.67,0.39-0.89s0.44-0.4,0.78-0.52
			s0.73-0.18,1.18-0.18c0.44,0,0.8,0.05,1.08,0.16s0.48,0.24,0.61,0.39s0.22,0.36,0.27,0.6c0.03,0.15,0.04,0.42,0.04,0.81v1.17
			c0,0.82,0.02,1.33,0.06,1.55c0.04,0.22,0.11,0.42,0.22,0.62H88.41z M94.62,115.21c-0.19,0.42-0.47,0.75-0.83,0.98
			c-0.36,0.23-0.74,0.34-1.14,0.34c-0.29,0-0.56-0.06-0.79-0.19c-0.23-0.12-0.42-0.28-0.57-0.47v2.52h-0.88v-7.17h0.8v0.67
			c0.19-0.26,0.4-0.46,0.64-0.59s0.53-0.2,0.86-0.2c0.44,0,0.83,0.11,1.17,0.34s0.59,0.55,0.77,0.96s0.26,0.87,0.26,1.36
			C94.91,114.31,94.82,114.78,94.62,115.21z M99.53,116.41c-0.09-0.18-0.15-0.4-0.18-0.64c-0.33,0.28-0.64,0.47-0.94,0.59
			c-0.3,0.11-0.62,0.17-0.97,0.17c-0.57,0-1.01-0.14-1.31-0.42c-0.31-0.28-0.46-0.63-0.46-1.07c0-0.25,0.06-0.49,0.17-0.7
			c0.12-0.21,0.27-0.38,0.45-0.51c0.19-0.13,0.4-0.22,0.63-0.29c0.17-0.05,0.43-0.09,0.78-0.13c0.71-0.08,1.23-0.19,1.57-0.3
			c0-0.12,0-0.2,0-0.23c0-0.36-0.08-0.61-0.25-0.76c-0.22-0.2-0.56-0.3-1-0.3c-0.41,0-0.72,0.07-0.92,0.22
			c-0.2,0.15-0.34,0.4-0.44,0.77l-0.86-0.12c0.08-0.37,0.21-0.67,0.39-0.89s0.44-0.4,0.78-0.52s0.73-0.18,1.18-0.18
			c0.44,0,0.8,0.05,1.08,0.16s0.48,0.24,0.61,0.39s0.22,0.36,0.27,0.6c0.03,0.15,0.04,0.42,0.04,0.81v1.17
			c0,0.82,0.02,1.33,0.06,1.55c0.04,0.22,0.11,0.42,0.22,0.62H99.53z M105.98,117.88h-0.72v-1.47h-0.72v-2.09
			c-0.54,0.17-1.04,0.25-1.51,0.25c-0.35,0-0.69-0.09-0.99-0.27c-0.33-0.19-0.55-0.45-0.66-0.77c-0.11-0.29-0.16-0.61-0.16-0.96
			v-1.36h0.88v0.98c0,0.38,0.01,0.64,0.04,0.78c0.06,0.27,0.19,0.49,0.4,0.64c0.2,0.14,0.44,0.21,0.72,0.21
			c0.33,0,0.76-0.09,1.29-0.26v-2.35h0.88v4.46h0.57V117.88z M110.3,116.41c-0.09-0.18-0.15-0.4-0.18-0.64
			c-0.33,0.28-0.64,0.47-0.94,0.59c-0.3,0.11-0.62,0.17-0.97,0.17c-0.57,0-1.01-0.14-1.31-0.42c-0.31-0.28-0.46-0.63-0.46-1.07
			c0-0.25,0.06-0.49,0.17-0.7c0.12-0.21,0.27-0.38,0.45-0.51c0.19-0.13,0.4-0.22,0.63-0.29c0.17-0.05,0.43-0.09,0.78-0.13
			c0.71-0.08,1.23-0.19,1.57-0.3c0-0.12,0-0.2,0-0.23c0-0.36-0.08-0.61-0.25-0.76c-0.22-0.2-0.56-0.3-1-0.3
			c-0.41,0-0.72,0.07-0.92,0.22c-0.2,0.15-0.34,0.4-0.44,0.77l-0.86-0.12c0.08-0.37,0.21-0.67,0.39-0.89s0.44-0.4,0.78-0.52
			s0.73-0.18,1.18-0.18c0.44,0,0.8,0.05,1.08,0.16s0.48,0.24,0.61,0.39s0.22,0.36,0.27,0.6c0.03,0.15,0.04,0.42,0.04,0.81v1.17
			c0,0.82,0.02,1.33,0.06,1.55c0.04,0.22,0.11,0.42,0.22,0.62H110.3z M116.57,116.41h-0.88v-3.93l-2.44,3.93h-0.95v-5.19h0.88v3.96
			l2.44-3.96h0.95V116.41z M125.04,116.41h-4.73c-0.01-0.21,0.03-0.42,0.1-0.61c0.12-0.32,0.31-0.64,0.58-0.95
			c0.26-0.31,0.65-0.67,1.15-1.08c0.78-0.64,1.3-1.14,1.58-1.52s0.41-0.73,0.41-1.06c0-0.35-0.12-0.64-0.37-0.88
			c-0.25-0.24-0.57-0.36-0.97-0.36c-0.42,0-0.76,0.13-1.02,0.38s-0.38,0.61-0.39,1.05l-0.9-0.09c0.06-0.67,0.29-1.19,0.7-1.54
			s0.95-0.53,1.63-0.53c0.69,0,1.23,0.19,1.63,0.57s0.6,0.85,0.6,1.42c0,0.29-0.06,0.57-0.18,0.84s-0.31,0.57-0.58,0.87
			c-0.27,0.31-0.72,0.73-1.36,1.26c-0.53,0.44-0.87,0.74-1.02,0.9s-0.27,0.32-0.37,0.48h3.51V116.41z M127.48,116.41h-1v-1h1V116.41
			z M133.38,116.41h-4.73c-0.01-0.21,0.03-0.42,0.1-0.61c0.12-0.32,0.31-0.64,0.58-0.95c0.26-0.31,0.65-0.67,1.15-1.08
			c0.78-0.64,1.3-1.14,1.58-1.52s0.41-0.73,0.41-1.06c0-0.35-0.12-0.64-0.37-0.88c-0.25-0.24-0.57-0.36-0.97-0.36
			c-0.42,0-0.76,0.13-1.02,0.38s-0.38,0.61-0.39,1.05l-0.9-0.09c0.06-0.67,0.29-1.19,0.7-1.54s0.95-0.53,1.63-0.53
			c0.69,0,1.23,0.19,1.63,0.57s0.6,0.85,0.6,1.42c0,0.29-0.06,0.57-0.18,0.84s-0.31,0.57-0.58,0.87c-0.27,0.31-0.72,0.73-1.36,1.26
			c-0.53,0.44-0.87,0.74-1.02,0.9s-0.27,0.32-0.37,0.48h3.51V116.41z" />
		</g>
		<g>
			<path class="st1" d="M97.08,114.31c-0.15,0.06-0.27,0.16-0.35,0.29s-0.12,0.26-0.12,0.42c0,0.23,0.09,0.43,0.27,0.59
			c0.18,0.16,0.44,0.23,0.78,0.23c0.34,0,0.64-0.07,0.9-0.22s0.46-0.35,0.58-0.61c0.09-0.2,0.14-0.49,0.14-0.88v-0.32
			c-0.32,0.13-0.8,0.24-1.44,0.33C97.48,114.19,97.23,114.25,97.08,114.31z" />
		</g>
	</g>
	<text transform="matrix(1 0 0 1 77.4156 195.0863)" class="st1 st2 st5">Дараҷаи 4.1</text>
	<text transform="matrix(1 0 0 1 77.4156 216.616)" class="st1 st2 st5">Дараҷаи 4.2</text>
	<g>
		<path class="st1" d="M145.54,13.48v12.58H65.78V13.48H145.54 M147.54,11.48H63.78v16.58h83.76V11.48L147.54,11.48z" />
	</g>
	<text transform="matrix(1 0 0 1 77.4156 22.4318)" class="st1 st2 st5">Дараҷаи 1.1</text>
</svg>
