<?xml version="1.0" encoding="utf-8"?>
<!-- Generator: Adobe Illustrator 25.3.1, SVG Export Plug-In . SVG Version: 6.00 Build 0)  -->
<svg version="1.1" id="Layer_1" xmlns="http://www.w3.org/2000/svg" xmlns:xlink="http://www.w3.org/1999/xlink" x="0px" y="0px" viewBox="0 0 154 231" style="enable-background:new 0 0 154 231;" xml:space="preserve">
	<style type="text/css">
	.st0{fill:none;}
	.st1{fill:#FFFFFF;}
	.st2{font-family:'Arial';}
	.st3{font-size:9.1859px;}
	.st4{fill:none;stroke:#FFFFFF;stroke-miterlimit:10;}
	.st5{font-size:10px;}
</style>
	<g>
		<rect x="0" y="0" class="st0" width="154" height="231" />
	</g>
	<g>
		<text transform="matrix(1 0 0 1 6.087 44.331)" class="st1 st2 st3">1 класс</text>
	</g>
	<g>
		<text transform="matrix(1 0 0 1 6.084 104.2592)" class="st1 st2 st3">2 класс</text>
	</g>
	<g>
		<text transform="matrix(1 0 0 1 6.084 152.5961)" class="st1 st2 st3">3 класс</text>
	</g>
	<g>
		<text transform="matrix(1 0 0 1 6.084 204.4897)" class="st1 st2 st3">4 класс</text>
	</g>
	<g>
		<path class="st4" d="M59.33,124.57c-2.82,0-5.11-0.38-5.11-0.85v-19.89c0-0.47-2.29-0.85-5.11-0.85c2.82,0,5.11-0.39,5.11-0.85
		V82.23c0-0.47,2.29-0.85,5.11-0.85" />
	</g>
	<g>
		<path class="st4" d="M59.33,76.37c-2.82,0-5.11-0.38-5.11-0.85V42.15c0-0.47-2.29-0.85-5.11-0.85c2.82,0,5.11-0.38,5.11-0.85V7.07
		c0-0.47,2.29-0.85,5.11-0.85" />
	</g>
	<g>
		<path class="st4" d="M59.33,172.77c-2.82,0-5.11-0.38-5.11-0.85v-19.89c0-0.47-2.29-0.85-5.11-0.85c2.82,0,5.11-0.38,5.11-0.85
		v-19.89c0-0.47,2.29-0.85,5.11-0.85" />
	</g>
	<g>
		<path class="st4" d="M59.33,224.78c-2.82,0-5.11-0.38-5.11-0.85v-19.89c0-0.47-2.29-0.85-5.11-0.85c2.82,0,5.11-0.38,5.11-0.85
		v-19.89c0-0.47,2.29-0.85,5.11-0.85" />
	</g>
	<g>
		<path class="st1" d="M145.54,134.12v12.58H65.78v-12.58H145.54 M147.54,132.12H63.78v16.58h83.76V132.12L147.54,132.12z" />
	</g>
	<g>
		<path class="st1" d="M145.54,186.13v12.57H65.78v-12.57H145.54 M147.54,184.13H63.78v16.57h83.76V184.13L147.54,184.13z" />
	</g>
	<g>
		<path class="st1" d="M145.54,35.01v12.58H65.78V35.01H145.54 M147.54,33.01H63.78v16.58h83.76V33.01L147.54,33.01z" />
	</g>
	<g>
		<path class="st1" d="M145.54,107.45v12.58H65.78v-12.58H145.54 M147.54,105.45H63.78v16.58h83.76V105.45L147.54,105.45z" />
	</g>
	<g>
		<path class="st1" d="M145.54,155.65v12.58H65.78v-12.58H145.54 M147.54,153.65H63.78v16.58h83.76V153.65L147.54,153.65z" />
	</g>
	<g>
		<path class="st1" d="M145.54,207.66v12.57H65.78v-12.57H145.54 M147.54,205.66H63.78v16.57h83.76V205.66L147.54,205.66z" />
	</g>
	<g>
		<path class="st1" d="M145.54,56.54v12.58H65.78V56.54H145.54 M147.54,54.54H63.78v16.58h83.76V54.54L147.54,54.54z" />
	</g>
	<g>
		<path class="st1" d="M145.54,13.48v12.58H65.78V13.48H145.54 M147.54,11.48H63.78v16.58h83.76V11.48L147.54,11.48z" />
	</g>
	<text transform="matrix(1 0 0 1 76.295 44.3605)" class="st1 st2 st5">Уровень 1.2</text>
	<text transform="matrix(1 0 0 1 76.295 65.8907)" class="st1 st2 st5">Уровень 1.3</text>
	<text transform="matrix(1 0 0 1 76.295 143.4792)" class="st1 st2 st5">Уровень 3.1</text>
	<text transform="matrix(1 0 0 1 76.295 165.0079)" class="st1 st2 st5">Уровень 3.2</text>
	<g>
		<g>
			<path class="st1" d="M112.73,92.85h-1.04v1.71h0.92c0.56,0,0.95-0.07,1.19-0.21s0.36-0.35,0.36-0.64c0-0.22-0.09-0.42-0.26-0.6
			S113.33,92.85,112.73,92.85z" />
		</g>
		<g>
			<path class="st1" d="M97.02,92.22c0.14-0.04,0.27-0.12,0.38-0.24s0.17-0.26,0.17-0.43c0-0.27-0.1-0.46-0.29-0.57
			c-0.19-0.11-0.53-0.16-0.99-0.16h-0.97v1.46h0.94C96.63,92.27,96.88,92.26,97.02,92.22z" />
		</g>
		<g>
			<path class="st1" d="M97.21,93.05C97.04,93.02,96.76,93,96.38,93h-1.06v1.56h1.16c0.5,0,0.84-0.06,1.03-0.17s0.28-0.31,0.29-0.6
			c0-0.17-0.05-0.32-0.16-0.46S97.38,93.09,97.21,93.05z" />
		</g>
		<g>
			<path class="st1" d="M101.88,90.7c-0.4,0-0.74,0.14-1.02,0.41c-0.27,0.27-0.43,0.63-0.46,1.08h2.9c-0.04-0.44-0.15-0.76-0.33-0.98
			C102.69,90.87,102.33,90.7,101.88,90.7z" />
		</g>
		<g>
			<path class="st1" d="M63.78,83.92v16.58h83.76V83.92H63.78z M79.93,93.69c-0.33,0.7-0.61,1.15-0.83,1.37s-0.52,0.32-0.92,0.32
			c-0.24,0-0.54-0.06-0.9-0.17v-0.81c0.25,0.15,0.52,0.22,0.81,0.22c0.23,0,0.43-0.07,0.6-0.22c0.17-0.15,0.35-0.49,0.55-1.01
			l-2.9-5.26h0.96l2.33,4.38l2.04-4.38h0.94L79.93,93.69z M87.52,94.08c-0.19,0.42-0.47,0.75-0.83,0.98
			c-0.36,0.23-0.74,0.34-1.14,0.34c-0.29,0-0.56-0.06-0.79-0.19c-0.23-0.12-0.42-0.28-0.57-0.47v2.52h-0.88v-7.17h0.8v0.67
			c0.19-0.26,0.4-0.46,0.64-0.59s0.53-0.2,0.86-0.2c0.44,0,0.83,0.11,1.17,0.34s0.59,0.55,0.77,0.96s0.26,0.87,0.26,1.36
			C87.81,93.18,87.71,93.65,87.52,94.08z M93.1,94.19c-0.2,0.38-0.49,0.68-0.88,0.89c-0.38,0.21-0.8,0.32-1.25,0.32
			c-0.73,0-1.31-0.23-1.76-0.7c-0.45-0.47-0.67-1.14-0.67-2.01c0-0.96,0.27-1.67,0.8-2.13c0.45-0.38,0.99-0.58,1.63-0.58
			c0.71,0,1.3,0.23,1.75,0.7s0.68,1.11,0.68,1.94C93.4,93.28,93.3,93.8,93.1,94.19z M98.17,94.92c-0.32,0.24-0.78,0.36-1.39,0.36
			h-2.34v-5.19h2.03c0.5,0,0.87,0.04,1.11,0.12c0.24,0.08,0.45,0.24,0.62,0.46c0.17,0.22,0.26,0.49,0.26,0.8
			c0,0.25-0.05,0.46-0.15,0.65c-0.1,0.18-0.26,0.34-0.46,0.46c0.24,0.08,0.45,0.23,0.61,0.46c0.16,0.22,0.24,0.49,0.24,0.79
			C98.66,94.32,98.48,94.68,98.17,94.92z M104.22,92.91h-3.87c0.03,0.57,0.19,1.01,0.48,1.31s0.65,0.45,1.08,0.45
			c0.32,0,0.6-0.08,0.83-0.25s0.41-0.44,0.54-0.81l0.91,0.11c-0.14,0.53-0.41,0.94-0.8,1.24s-0.88,0.44-1.48,0.44
			c-0.76,0-1.36-0.23-1.8-0.7c-0.45-0.47-0.67-1.12-0.67-1.97c0-0.87,0.22-1.55,0.67-2.03s1.03-0.72,1.75-0.72
			c0.69,0,1.26,0.24,1.7,0.71s0.66,1.14,0.66,1.99C104.23,92.73,104.23,92.81,104.22,92.91z M109.5,95.28h-0.88v-2.3h-2.44v2.3
			h-0.88v-5.19h0.88v2.16h2.44v-2.16h0.88V95.28z M114.58,94.82c-0.33,0.31-0.85,0.46-1.57,0.46h-2.2v-5.19h0.88v2.03h1.11
			c0.73,0,1.29,0.14,1.68,0.42c0.39,0.28,0.59,0.67,0.59,1.16C115.07,94.14,114.91,94.51,114.58,94.82z M123.19,95.28h-4.73
			c-0.01-0.21,0.03-0.42,0.1-0.61c0.12-0.32,0.31-0.64,0.58-0.95c0.26-0.31,0.65-0.67,1.15-1.08c0.78-0.64,1.3-1.14,1.58-1.52
			s0.41-0.73,0.41-1.06c0-0.35-0.12-0.64-0.37-0.88c-0.25-0.24-0.57-0.36-0.97-0.36c-0.42,0-0.76,0.13-1.02,0.38
			s-0.38,0.61-0.39,1.05l-0.9-0.09c0.06-0.67,0.29-1.19,0.7-1.54s0.95-0.53,1.63-0.53c0.69,0,1.23,0.19,1.63,0.57s0.6,0.85,0.6,1.42
			c0,0.29-0.06,0.57-0.18,0.84s-0.31,0.57-0.58,0.87c-0.27,0.31-0.72,0.73-1.36,1.26c-0.53,0.44-0.87,0.74-1.02,0.9
			s-0.27,0.32-0.37,0.48h3.51V95.28z M125.63,95.28h-1v-1h1V95.28z M130.22,95.28h-0.88v-5.6c-0.21,0.2-0.49,0.4-0.83,0.61
			c-0.34,0.2-0.65,0.35-0.92,0.45v-0.85c0.49-0.23,0.92-0.51,1.29-0.84s0.63-0.65,0.78-0.96h0.57V95.28z" />
		</g>
		<g>
			<path class="st1" d="M85.53,90.66c-0.37,0-0.71,0.17-0.99,0.52c-0.29,0.35-0.43,0.86-0.43,1.53s0.13,1.16,0.41,1.48
			s0.6,0.48,0.98,0.48c0.39,0,0.72-0.17,1-0.5c0.28-0.33,0.42-0.84,0.42-1.54c0-0.66-0.14-1.16-0.41-1.48
			C86.23,90.83,85.91,90.66,85.53,90.66z" />
		</g>
		<g>
			<path class="st1" d="M90.97,90.7c-0.44,0-0.8,0.16-1.09,0.49s-0.43,0.83-0.43,1.49s0.14,1.16,0.43,1.49s0.65,0.5,1.09,0.5
			c0.44,0,0.8-0.17,1.09-0.5s0.43-0.84,0.43-1.52c0-0.64-0.15-1.13-0.44-1.46C91.77,90.87,91.41,90.7,90.97,90.7z" />
		</g>
	</g>
	<text transform="matrix(1 0 0 1 76.295 116.8063)" class="st1 st2 st5">Уровень 2.2</text>
	<text transform="matrix(1 0 0 1 76.295 195.486)" class="st1 st2 st5">Уровень 4.1</text>
	<text transform="matrix(1 0 0 1 76.295 217.0162)" class="st1 st2 st5">Уровень 4.2</text>
	<text transform="matrix(1 0 0 1 76.295 22.8314)" class="st1 st2 st5">Уровень 1.1</text>
</svg>
