<?xml version="1.0" encoding="utf-8"?>
<!-- Generator: Adobe Illustrator 25.3.1, SVG Export Plug-In . SVG Version: 6.00 Build 0)  -->
<svg version="1.1" id="Layer_1" xmlns="http://www.w3.org/2000/svg" xmlns:xlink="http://www.w3.org/1999/xlink" x="0px" y="0px" viewBox="0 0 154 231" style="enable-background:new 0 0 154 231;" xml:space="preserve">
	<style type="text/css">
	.st0{fill:none;}
	.st1{fill:none;stroke:#FFFFFF;stroke-miterlimit:10;}
	.st2{fill:#FFFFFF;}
	.st3{font-family:'Arial';}
	.st4{font-size:10px;}
	.st5{font-size:9.1859px;}
</style>
	<g>
		<rect class="st0" width="154" height="231" />
	</g>
	<g>
		<path class="st1" d="M59.33,124.57c-2.82,0-5.11-0.38-5.11-0.85v-19.89c0-0.47-2.29-0.85-5.11-0.85c2.82,0,5.11-0.39,5.11-0.85
		V82.23c0-0.47,2.29-0.85,5.11-0.85" />
	</g>
	<g>
		<path class="st1" d="M59.33,76.37c-2.82,0-5.11-0.38-5.11-0.85V42.15c0-0.47-2.29-0.85-5.11-0.85c2.82,0,5.11-0.38,5.11-0.85V7.07
		c0-0.47,2.29-0.85,5.11-0.85" />
	</g>
	<g>
		<path class="st1" d="M59.33,172.77c-2.82,0-5.11-0.38-5.11-0.85v-19.89c0-0.47-2.29-0.85-5.11-0.85c2.82,0,5.11-0.38,5.11-0.85
		v-19.89c0-0.47,2.29-0.85,5.11-0.85" />
	</g>
	<g>
		<path class="st1" d="M59.33,224.78c-2.82,0-5.11-0.38-5.11-0.85v-19.89c0-0.47-2.29-0.85-5.11-0.85c2.82,0,5.11-0.38,5.11-0.85
		v-19.89c0-0.47,2.29-0.85,5.11-0.85" />
	</g>
	<g>
		<path class="st2" d="M145.54,85.92V98.5H65.78V85.92H145.54 M147.54,83.92H63.78v16.58h83.76V83.92L147.54,83.92z" />
	</g>
	<g>
		<path class="st2" d="M145.54,134.12v12.57H65.78v-12.57H145.54 M147.54,132.12H63.78v16.57h83.76V132.12L147.54,132.12z" />
	</g>
	<g>
		<path class="st2" d="M145.54,186.13v12.57H65.78v-12.57H145.54 M147.54,184.13H63.78v16.57h83.76V184.13L147.54,184.13z" />
	</g>
	<g>
		<path class="st2" d="M145.54,107.45v12.57H65.78v-12.57H145.54 M147.54,105.45H63.78v16.57h83.76V105.45L147.54,105.45z" />
	</g>
	<g>
		<path class="st2" d="M145.54,155.65v12.57H65.78v-12.57H145.54 M147.54,153.65H63.78v16.57h83.76V153.65L147.54,153.65z" />
	</g>
	<g>
		<path class="st2" d="M145.54,207.66v12.57H65.78v-12.57H145.54 M147.54,205.66H63.78v16.57h83.76V205.66L147.54,205.66z" />
	</g>
	<g>
		<path class="st2" d="M145.54,56.54v12.58H65.78V56.54H145.54 M147.54,54.54H63.78v16.58h83.76V54.54L147.54,54.54z" />
	</g>
	<g>
		<g>
			<path class="st2" d="M94.94,43.76h2.79v-3.74h-2.01C95.66,41.7,95.4,42.95,94.94,43.76z" />
		</g>
		<g>
			<path class="st2" d="M102.27,39.9c-0.4,0-0.74,0.14-1.02,0.41c-0.27,0.27-0.43,0.63-0.46,1.08h2.9c-0.04-0.44-0.15-0.76-0.33-0.98
			C103.08,40.07,102.72,39.9,102.27,39.9z" />
		</g>
		<g>
			<path class="st2" d="M63.78,33.01v16.58h83.76V33.01H63.78z M80.69,44.48h-0.88v-5.6c-0.21,0.2-0.49,0.4-0.83,0.61
			c-0.34,0.2-0.65,0.35-0.92,0.45v-0.85c0.49-0.23,0.92-0.51,1.29-0.84s0.63-0.65,0.78-0.96h0.57V44.48z M84.43,44.48h-1v-1h1V44.48
			z M90.33,44.48H85.6c-0.01-0.21,0.03-0.42,0.1-0.61c0.12-0.32,0.31-0.64,0.58-0.95c0.26-0.31,0.65-0.67,1.15-1.08
			c0.78-0.64,1.3-1.14,1.58-1.52s0.41-0.73,0.41-1.06c0-0.35-0.12-0.64-0.37-0.88c-0.25-0.24-0.57-0.36-0.97-0.36
			c-0.42,0-0.76,0.13-1.02,0.38s-0.38,0.61-0.39,1.05l-0.9-0.09c0.06-0.67,0.29-1.19,0.7-1.54s0.95-0.53,1.63-0.53
			c0.69,0,1.23,0.19,1.63,0.57s0.6,0.85,0.6,1.42c0,0.29-0.06,0.57-0.18,0.84s-0.31,0.57-0.58,0.87c-0.27,0.31-0.72,0.73-1.36,1.26
			c-0.53,0.44-0.87,0.74-1.02,0.9s-0.27,0.32-0.37,0.48h3.51V44.48z M99.17,45.95h-0.72v-1.47h-4.08v1.47h-0.72v-2.19h0.46
			c0.62-0.84,0.92-2.33,0.89-4.46h3.61v4.46h0.56V45.95z M104.62,42.11h-3.87c0.03,0.57,0.19,1.01,0.48,1.31s0.65,0.45,1.08,0.45
			c0.32,0,0.6-0.08,0.83-0.25s0.41-0.44,0.54-0.81l0.91,0.11c-0.14,0.53-0.41,0.94-0.8,1.24s-0.88,0.44-1.48,0.44
			c-0.76,0-1.36-0.23-1.8-0.7c-0.45-0.47-0.67-1.12-0.67-1.97c0-0.87,0.22-1.55,0.67-2.03s1.03-0.72,1.75-0.72
			c0.69,0,1.26,0.24,1.7,0.71s0.66,1.14,0.66,1.99C104.62,41.93,104.62,42.01,104.62,42.11z M110.46,45.95h-0.72v-1.47h-0.72v-2.3
			h-2.44v2.3h-0.88v-5.19h0.88v2.16h2.44v-2.16h0.88v4.46h0.57V45.95z M114.21,40.02h-2.1v4.46h-0.88v-5.19h2.98V40.02z
			 M118.36,43.9c-0.4,0.51-0.97,0.74-1.71,0.7c-0.62,0-1.12-0.17-1.5-0.52c-0.38-0.35-0.62-0.81-0.71-1.38l0.86-0.11
			c0.13,0.86,0.57,1.29,1.31,1.29c0.42,0,0.75-0.14,0.98-0.42c0.24-0.28,0.38-0.7,0.44-1.27h-1.83v-0.72h1.83
			c-0.06-0.46-0.21-0.84-0.46-1.13c-0.25-0.29-0.57-0.43-0.96-0.43c-0.68,0-1.09,0.35-1.24,1.06l-0.85-0.14
			c0.08-0.48,0.3-0.88,0.65-1.19s0.83-0.46,1.41-0.46c0.73,0,1.3,0.24,1.72,0.72s0.63,1.14,0.63,1.99
			C118.96,42.72,118.76,43.39,118.36,43.9z M123.46,43.9c-0.4,0.51-0.97,0.74-1.71,0.7c-0.62,0-1.12-0.17-1.5-0.52
			c-0.38-0.35-0.62-0.81-0.71-1.38l0.86-0.11c0.13,0.86,0.57,1.29,1.31,1.29c0.42,0,0.75-0.14,0.98-0.42
			c0.24-0.28,0.38-0.7,0.44-1.27h-1.83v-0.72h1.83c-0.06-0.46-0.21-0.84-0.46-1.13c-0.25-0.29-0.57-0.43-0.96-0.43
			c-0.68,0-1.09,0.35-1.24,1.06l-0.85-0.14c0.08-0.48,0.3-0.88,0.65-1.19s0.83-0.46,1.41-0.46c0.73,0,1.3,0.24,1.72,0.72
			s0.63,1.14,0.63,1.99C124.06,42.72,123.87,43.39,123.46,43.9z M129.58,44.48h-0.87v-4.46h-2.33v2.58c0,0.6-0.02,1-0.06,1.19
			s-0.15,0.36-0.32,0.5s-0.43,0.21-0.76,0.21c-0.21,0-0.44-0.01-0.71-0.04v-0.73h0.39c0.18,0,0.31-0.02,0.39-0.06
			s0.13-0.1,0.16-0.18s0.04-0.35,0.04-0.8v-3.42h4.08V44.48z M135.17,44.48h-0.88v-3.93l-2.44,3.93h-0.95v-5.19h0.88v3.96l2.44-3.96
			h0.95V44.48z" />
		</g>
	</g>
	<text transform="matrix(1 0 0 1 76.96 66.0093)" class="st2 st3 st4">1.3 деңгээли</text>
	<text transform="matrix(1 0 0 1 76.96 143.5976)" class="st2 st3 st4">3.1 деңгээли</text>
	<text transform="matrix(1 0 0 1 76.96 165.1276)" class="st2 st3 st4">3.2 деңгээли</text>
	<text transform="matrix(1 0 0 1 76.96 95.3959)" class="st2 st3 st4">2.1 деңгээли</text>
	<text transform="matrix(1 0 0 1 76.96 116.9259)" class="st2 st3 st4">2.2 деңгээли</text>
	<text transform="matrix(1 0 0 1 76.96 195.6048)" class="st2 st3 st4">4.1 деңгээли</text>
	<text transform="matrix(1 0 0 1 76.96 217.1348)" class="st2 st3 st4">4.2 деңгээли</text>
	<g>
		<text transform="matrix(1 0 0 1 8.1728 44.331)" class="st2 st3 st5">1-класс</text>
	</g>
	<g>
		<text transform="matrix(1 0 0 1 8.1699 104.2592)" class="st2 st3 st5">2-класс</text>
	</g>
	<g>
		<text transform="matrix(1 0 0 1 8.1699 152.5961)" class="st2 st3 st5">3-класс</text>
	</g>
	<g>
		<text transform="matrix(1 0 0 1 8.1699 204.4897)" class="st2 st3 st5">4-класс</text>
	</g>
	<g>
		<path class="st2" d="M145.54,13.48v12.58H65.78V13.48H145.54 M147.54,11.48H63.78v16.58h83.76V11.48L147.54,11.48z" />
	</g>
	<text transform="matrix(1 0 0 1 76.9599 22.9503)" class="st2 st3 st4">1.1 деңгээли</text>
</svg>
