<?xml version="1.0" encoding="utf-8"?>
<!-- Generator: Adobe Illustrator 25.3.1, SVG Export Plug-In . SVG Version: 6.00 Build 0)  -->
<svg version="1.1" id="Layer_1" xmlns="http://www.w3.org/2000/svg" xmlns:xlink="http://www.w3.org/1999/xlink" x="0px" y="0px" viewBox="0 0 154 231" style="enable-background:new 0 0 154 231;" xml:space="preserve">
	<style type="text/css">
	.st0{fill:#FFFFFF;}
	.st1{font-family:'Arial';}
	.st2{font-size:9.1859px;}
	.st3{fill:none;}
	.st4{fill:none;stroke:#FFFFFF;stroke-miterlimit:10;}
	.st5{font-size:10px;}
</style>
	<g>
		<text transform="matrix(1 0 0 1 6.087 44.331)">
			<tspan x="0" y="0" class="st0 st1 st2">1</tspan>
			<tspan x="5.11" y="0" class="st0 st1 st2">-</tspan>
			<tspan x="9.09" y="0" class="st0 st1 st2">синф</tspan>
		</text>
	</g>
	<g>
		<text transform="matrix(1 0 0 1 6.084 104.2592)">
			<tspan x="0" y="0" class="st0 st1 st2">2</tspan>
			<tspan x="5.8" y="0" class="st0 st1 st2">-</tspan>
			<tspan x="9.77" y="0" class="st0 st1 st2">синф</tspan>
		</text>
	</g>
	<g>
		<text transform="matrix(1 0 0 1 6.084 152.5961)">
			<tspan x="0" y="0" class="st0 st1 st2">3-</tspan>
			<tspan x="10" y="0" class="st0 st1 st2">синф</tspan>
		</text>
	</g>
	<g>
		<text transform="matrix(1 0 0 1 6.084 204.4897)">
			<tspan x="0" y="0" class="st0 st1 st2">4-</tspan>
			<tspan x="10" y="0" class="st0 st1 st2">синф</tspan>
		</text>
	</g>
	<g>
		<rect class="st3" width="154" height="231" />
	</g>
	<g>
		<path class="st4" d="M59.33,124.57c-2.82,0-5.11-0.38-5.11-0.85v-19.89c0-0.47-2.29-0.85-5.11-0.85c2.82,0,5.11-0.39,5.11-0.85
		V82.23c0-0.47,2.29-0.85,5.11-0.85" />
	</g>
	<g>
		<path class="st4" d="M59.33,76.37c-2.82,0-5.11-0.38-5.11-0.85V42.15c0-0.47-2.29-0.85-5.11-0.85c2.82,0,5.11-0.38,5.11-0.85V7.07
		c0-0.47,2.29-0.85,5.11-0.85" />
	</g>
	<g>
		<path class="st4" d="M59.33,172.77c-2.82,0-5.11-0.38-5.11-0.85v-19.89c0-0.47-2.29-0.85-5.11-0.85c2.82,0,5.11-0.38,5.11-0.85
		v-19.89c0-0.47,2.29-0.85,5.11-0.85" />
	</g>
	<g>
		<path class="st4" d="M59.33,224.78c-2.82,0-5.11-0.38-5.11-0.85v-19.89c0-0.47-2.29-0.85-5.11-0.85c2.82,0,5.11-0.38,5.11-0.85
		v-19.89c0-0.47,2.29-0.85,5.11-0.85" />
	</g>
	<g>
		<path class="st0" d="M145.54,85.92V98.5H65.78V85.92H145.54 M147.54,83.92H63.78v16.58h83.76V83.92L147.54,83.92z" />
	</g>
	<g>
		<path class="st0" d="M145.54,134.12v12.57H65.78v-12.57H145.54 M147.54,132.12H63.78v16.57h83.76V132.12L147.54,132.12z" />
	</g>
	<g>
		<path class="st0" d="M145.54,186.13v12.57H65.78v-12.57H145.54 M147.54,184.13H63.78v16.57h83.76V184.13L147.54,184.13z" />
	</g>
	<g>
		<path class="st0" d="M145.54,35.01v12.58H65.78V35.01H145.54 M147.54,33.01H63.78v16.58h83.76V33.01L147.54,33.01z" />
	</g>
	<g>
		<path class="st0" d="M145.54,107.45v12.57H65.78v-12.57H145.54 M147.54,105.45H63.78v16.57h83.76V105.45L147.54,105.45z" />
	</g>
	<g>
		<path class="st0" d="M145.54,155.65v12.57H65.78v-12.57H145.54 M147.54,153.65H63.78v16.57h83.76V153.65L147.54,153.65z" />
	</g>
	<g>
		<path class="st0" d="M145.54,207.66v12.57H65.78v-12.57H145.54 M147.54,205.66H63.78v16.57h83.76V205.66L147.54,205.66z" />
	</g>
	<g>
		<path class="st0" d="M145.54,35.01v12.58H65.78V35.01H145.54 M147.54,33.01H63.78v16.58h83.76V33.01L147.54,33.01z" />
	</g>
	<g>
		<path class="st0" d="M145.54,13.48v12.58H65.78V13.48H145.54 M147.54,11.48H63.78v16.58h83.76V11.48L147.54,11.48z" />
	</g>
	<text transform="matrix(1 0 0 1 74.1753 43.9606)" class="st0 st1 st5">Даражаси 1.2</text>
	<g>
		<g>
			<path class="st0" d="M93.84,63.4c-0.15,0.06-0.27,0.16-0.35,0.29s-0.12,0.26-0.12,0.42c0,0.23,0.09,0.43,0.27,0.59
			c0.18,0.16,0.44,0.23,0.78,0.23c0.34,0,0.64-0.07,0.9-0.22s0.46-0.35,0.58-0.61c0.09-0.2,0.14-0.49,0.14-0.88v-0.32
			c-0.32,0.13-0.8,0.24-1.44,0.33C94.24,63.27,93.99,63.33,93.84,63.4z" />
		</g>
		<g>
			<path class="st0" d="M106.09,63.4c-0.15,0.06-0.27,0.16-0.35,0.29s-0.12,0.26-0.12,0.42c0,0.23,0.09,0.43,0.27,0.59
			c0.18,0.16,0.44,0.23,0.78,0.23c0.34,0,0.64-0.07,0.9-0.22s0.46-0.35,0.58-0.61c0.09-0.2,0.14-0.49,0.14-0.88v-0.32
			c-0.32,0.13-0.8,0.24-1.44,0.33C106.49,63.27,106.24,63.33,106.09,63.4z" />
		</g>
		<g>
			<path class="st0" d="M63.78,54.54v16.58h83.76V54.54H63.78z M80.6,67.16h-0.84v-1.67h-4.73v1.67h-0.84v-2.51h0.56
			c0.58-0.87,0.86-2.63,0.86-5.27v-1.04h4.35v6.31h0.64V67.16z M85.17,65.49c-0.09-0.18-0.15-0.4-0.18-0.64
			c-0.33,0.28-0.64,0.47-0.94,0.59c-0.3,0.11-0.62,0.17-0.97,0.17c-0.57,0-1.01-0.14-1.31-0.42s-0.46-0.63-0.46-1.07
			c0-0.25,0.06-0.49,0.17-0.7c0.12-0.21,0.27-0.38,0.45-0.51c0.19-0.13,0.4-0.22,0.63-0.29c0.17-0.05,0.43-0.09,0.78-0.13
			c0.71-0.08,1.23-0.19,1.57-0.3c0-0.12,0-0.2,0-0.23c0-0.36-0.08-0.61-0.25-0.76c-0.22-0.2-0.56-0.3-1-0.3
			c-0.41,0-0.72,0.07-0.92,0.22c-0.2,0.15-0.34,0.4-0.44,0.77l-0.86-0.12c0.08-0.37,0.21-0.67,0.39-0.89s0.44-0.4,0.78-0.52
			s0.73-0.18,1.18-0.18c0.44,0,0.8,0.05,1.08,0.16s0.48,0.24,0.61,0.39s0.22,0.36,0.27,0.6c0.03,0.15,0.04,0.42,0.04,0.81v1.17
			c0,0.82,0.02,1.33,0.06,1.55c0.04,0.22,0.11,0.42,0.22,0.62H85.17z M91.38,64.29c-0.19,0.42-0.47,0.75-0.83,0.98
			c-0.36,0.23-0.74,0.34-1.14,0.34c-0.29,0-0.56-0.06-0.79-0.19c-0.23-0.12-0.42-0.28-0.57-0.47v2.52h-0.88v-7.17h0.8v0.67
			c0.19-0.26,0.4-0.46,0.64-0.59s0.53-0.2,0.86-0.2c0.44,0,0.83,0.11,1.17,0.34s0.59,0.55,0.77,0.96s0.26,0.87,0.26,1.36
			C91.67,63.39,91.58,63.87,91.38,64.29z M96.29,65.49c-0.09-0.18-0.15-0.4-0.18-0.64c-0.33,0.28-0.64,0.47-0.94,0.59
			c-0.3,0.11-0.62,0.17-0.97,0.17c-0.57,0-1.01-0.14-1.31-0.42s-0.46-0.63-0.46-1.07c0-0.25,0.06-0.49,0.17-0.7
			c0.12-0.21,0.27-0.38,0.45-0.51c0.19-0.13,0.4-0.22,0.63-0.29c0.17-0.05,0.43-0.09,0.78-0.13c0.71-0.08,1.23-0.19,1.57-0.3
			c0-0.12,0-0.2,0-0.23c0-0.36-0.08-0.61-0.25-0.76c-0.22-0.2-0.56-0.3-1-0.3c-0.41,0-0.72,0.07-0.92,0.22
			c-0.2,0.15-0.34,0.4-0.44,0.77l-0.86-0.12c0.08-0.37,0.21-0.67,0.39-0.89s0.44-0.4,0.78-0.52s0.73-0.18,1.18-0.18
			c0.44,0,0.8,0.05,1.08,0.16s0.48,0.24,0.61,0.39s0.22,0.36,0.27,0.6c0.03,0.15,0.04,0.42,0.04,0.81v1.17
			c0,0.82,0.02,1.33,0.06,1.55c0.04,0.22,0.11,0.42,0.22,0.62H96.29z M103.38,65.49l-0.94-1.61c-0.19-0.33-0.36-0.54-0.5-0.64
			s-0.31-0.15-0.51-0.15v2.4h-0.9v-2.4c-0.2,0-0.36,0.05-0.51,0.15s-0.31,0.31-0.5,0.64l-0.94,1.61h-0.97l0.96-1.61
			c0.36-0.6,0.74-0.95,1.12-1.05c-0.26-0.12-0.44-0.25-0.55-0.39s-0.26-0.48-0.47-1.01c-0.07-0.18-0.15-0.29-0.23-0.33
			c-0.08-0.04-0.21-0.06-0.38-0.06c-0.04,0-0.13,0-0.26,0v-0.73h0.12c0.34,0,0.58,0.02,0.72,0.06c0.14,0.04,0.26,0.13,0.37,0.26
			c0.11,0.13,0.25,0.41,0.43,0.82c0.21,0.51,0.38,0.82,0.49,0.93c0.11,0.11,0.31,0.17,0.59,0.17v-2.24h0.9v2.24
			c0.28,0,0.48-0.05,0.59-0.16s0.28-0.42,0.5-0.94c0.21-0.49,0.39-0.81,0.55-0.94c0.16-0.13,0.41-0.2,0.76-0.2h0.32v0.73l-0.24,0
			c-0.23,0-0.38,0.03-0.45,0.1c-0.07,0.07-0.17,0.28-0.31,0.64c-0.13,0.34-0.25,0.57-0.36,0.7s-0.28,0.25-0.52,0.36
			c0.38,0.1,0.75,0.45,1.11,1.05l0.97,1.61H103.38z M108.54,65.49c-0.09-0.18-0.15-0.4-0.18-0.64c-0.33,0.28-0.64,0.47-0.94,0.59
			c-0.3,0.11-0.62,0.17-0.97,0.17c-0.57,0-1.01-0.14-1.31-0.42s-0.46-0.63-0.46-1.07c0-0.25,0.06-0.49,0.17-0.7
			c0.12-0.21,0.27-0.38,0.45-0.51c0.19-0.13,0.4-0.22,0.63-0.29c0.17-0.05,0.43-0.09,0.78-0.13c0.71-0.08,1.23-0.19,1.57-0.3
			c0-0.12,0-0.2,0-0.23c0-0.36-0.08-0.61-0.25-0.76c-0.22-0.2-0.56-0.3-1-0.3c-0.41,0-0.72,0.07-0.92,0.22
			c-0.2,0.15-0.34,0.4-0.44,0.77l-0.86-0.12c0.08-0.37,0.21-0.67,0.39-0.89s0.44-0.4,0.78-0.52s0.73-0.18,1.18-0.18
			c0.44,0,0.8,0.05,1.08,0.16s0.48,0.24,0.61,0.39s0.22,0.36,0.27,0.6c0.03,0.15,0.04,0.42,0.04,0.81v1.17
			c0,0.82,0.02,1.33,0.06,1.55c0.04,0.22,0.11,0.42,0.22,0.62H108.54z M114.06,65.1c-0.39,0.34-0.87,0.51-1.43,0.51
			c-0.71,0-1.28-0.23-1.71-0.7c-0.43-0.46-0.65-1.13-0.65-1.99c0-0.56,0.09-1.05,0.28-1.47s0.47-0.73,0.85-0.94
			c0.38-0.21,0.79-0.31,1.24-0.31c0.56,0,1.02,0.14,1.38,0.43s0.59,0.69,0.69,1.21l-0.85,0.13c-0.08-0.35-0.23-0.61-0.43-0.79
			c-0.21-0.18-0.46-0.26-0.75-0.26c-0.44,0-0.8,0.16-1.08,0.48s-0.42,0.82-0.42,1.51c0,0.7,0.13,1.2,0.4,1.52s0.62,0.47,1.04,0.47
			c0.34,0,0.63-0.11,0.86-0.32s0.38-0.54,0.44-0.98l0.86,0.11C114.7,64.3,114.45,64.77,114.06,65.1z M119.8,65.49h-0.88v-3.93
			l-2.44,3.93h-0.95v-5.19h0.88v3.96l2.44-3.96h0.95V65.49z M126.97,65.49h-0.88v-5.6c-0.21,0.2-0.49,0.4-0.83,0.61
			c-0.34,0.2-0.65,0.35-0.92,0.45V60.1c0.49-0.23,0.92-0.51,1.29-0.84s0.63-0.65,0.78-0.96h0.57V65.49z M130.72,65.49h-1v-1h1V65.49
			z M136.01,64.97c-0.46,0.43-1.03,0.65-1.73,0.65c-0.63,0-1.15-0.19-1.56-0.56c-0.42-0.37-0.65-0.86-0.71-1.46l0.88-0.12
			c0.1,0.5,0.27,0.86,0.52,1.08c0.24,0.22,0.54,0.33,0.89,0.33c0.41,0,0.76-0.14,1.05-0.43c0.28-0.29,0.43-0.64,0.43-1.06
			c0-0.4-0.13-0.74-0.4-1s-0.6-0.39-1.01-0.39c-0.17,0-0.37,0.03-0.62,0.1l0.1-0.77c0.06,0.01,0.11,0.01,0.14,0.01
			c0.37,0,0.71-0.1,1.01-0.29s0.45-0.5,0.45-0.9c0-0.32-0.11-0.59-0.33-0.8s-0.5-0.32-0.84-0.32c-0.34,0-0.63,0.11-0.85,0.32
			s-0.37,0.54-0.44,0.97l-0.88-0.16c0.11-0.59,0.35-1.05,0.73-1.37s0.85-0.49,1.42-0.49c0.39,0,0.75,0.08,1.08,0.25
			s0.58,0.4,0.75,0.69c0.17,0.29,0.26,0.6,0.26,0.92c0,0.31-0.08,0.59-0.25,0.84s-0.41,0.46-0.74,0.61c0.42,0.1,0.75,0.3,0.99,0.61
			s0.35,0.69,0.35,1.15C136.69,64,136.47,64.53,136.01,64.97z" />
		</g>
		<g>
			<path class="st0" d="M89.39,60.88c-0.37,0-0.71,0.17-0.99,0.52c-0.29,0.35-0.43,0.86-0.43,1.53s0.13,1.16,0.41,1.48
			s0.6,0.48,0.98,0.48c0.39,0,0.72-0.17,1-0.5c0.28-0.33,0.42-0.84,0.42-1.54c0-0.66-0.14-1.16-0.41-1.48
			C90.09,61.04,89.77,60.88,89.39,60.88z" />
		</g>
		<g>
			<path class="st0" d="M76.51,59.54c0,0.61-0.05,1.44-0.16,2.5c-0.11,1.06-0.32,1.92-0.64,2.6H79v-5.47h-2.49V59.54z" />
		</g>
		<g>
			<path class="st0" d="M82.72,63.4c-0.15,0.06-0.27,0.16-0.35,0.29s-0.12,0.26-0.12,0.42c0,0.23,0.09,0.43,0.27,0.59
			c0.18,0.16,0.44,0.23,0.78,0.23c0.34,0,0.64-0.07,0.9-0.22s0.46-0.35,0.58-0.61c0.09-0.2,0.14-0.49,0.14-0.88v-0.32
			c-0.32,0.13-0.8,0.24-1.44,0.33C83.12,63.27,82.86,63.33,82.72,63.4z" />
		</g>
	</g>
	<text transform="matrix(1 0 0 1 74.1753 143.0788)" class="st0 st1 st5">Даражаси 3.1</text>
	<text transform="matrix(1 0 0 1 74.1753 164.6081)" class="st0 st1 st5">Даражаси 3.2</text>
	<text transform="matrix(1 0 0 1 74.1753 94.8774)" class="st0 st1 st5">Даражаси 2.1</text>
	<text transform="matrix(1 0 0 1 74.1753 116.4064)" class="st0 st1 st5">Даражаси 2.2</text>
	<text transform="matrix(1 0 0 1 74.1753 195.0861)" class="st0 st1 st5">Даражаси 4.1</text>
	<text transform="matrix(1 0 0 1 74.1753 216.6163)" class="st0 st1 st5">Даражаси 4.2</text>
	<text transform="matrix(1 0 0 1 74.1754 22.4316)" class="st0 st1 st5">Даражаси 1.1</text>
</svg>
