<svg width="506" height="91" viewBox="0 0 506 91" fill="none" xmlns="http://www.w3.org/2000/svg">
<path d="M88.3834 51.4429H84.5544V49.2705H88.6149V47.3308H82.2076V57.7894H88.8311V55.8498H84.5544V53.367H88.3834V51.4429Z" fill="#3A3A3C"/>
<path d="M95.2676 46.7577V50.8698H95.2367C94.8971 50.3577 94.1869 50.0163 93.2451 50.0163C91.4387 50.0163 89.8484 51.506 89.8639 54.0663C89.8639 56.4249 91.2997 57.9611 93.0907 57.9611C94.0634 57.9611 94.9897 57.5266 95.4529 56.6887H95.4992L95.5918 57.7904H97.6761C97.6453 57.2784 97.6144 56.3784 97.6144 55.5249V46.7577H95.2676ZM95.2676 54.4077C95.2676 54.5939 95.2522 54.7801 95.2213 54.9508C95.0824 55.618 94.5265 56.0835 93.8472 56.0835C92.8745 56.0835 92.2415 55.2766 92.2415 53.9887C92.2415 52.7939 92.7819 51.8318 93.8626 51.8318C94.5883 51.8318 95.0978 52.3594 95.2367 52.9801C95.2676 53.1198 95.2676 53.2904 95.2676 53.4146V54.4077Z" fill="#3A3A3C"/>
<path d="M106.617 50.2021H104.27V54.7177C104.27 54.9194 104.239 55.0901 104.177 55.2297C104.038 55.6021 103.652 56.0521 103.004 56.0521C102.17 56.0521 101.815 55.3849 101.815 54.2832V50.2021H99.4683V54.6556C99.4683 56.9987 100.58 57.9608 102.124 57.9608C103.483 57.9608 104.193 57.1849 104.486 56.7194H104.532L104.64 57.7901H106.678C106.648 57.1539 106.617 56.347 106.617 55.3539V50.2021Z" fill="#3A3A3C"/>
<path d="M113.891 55.8511C113.536 56.0063 113.104 56.0994 112.548 56.0994C111.405 56.0994 110.479 55.3545 110.479 53.9735C110.464 52.7321 111.266 51.8476 112.502 51.8476C113.119 51.8476 113.536 51.9562 113.814 52.0804L114.184 50.3269C113.69 50.1407 113.011 50.0321 112.393 50.0321C109.584 50.0321 108.07 51.8476 108.07 54.0666C108.07 56.4407 109.63 57.9459 112.069 57.9459C112.965 57.9459 113.752 57.7907 114.169 57.589L113.891 55.8511Z" fill="#3A3A3C"/>
<path d="M121.809 53.3028C121.809 51.5028 121.022 50.0132 118.505 50.0132C117.131 50.0132 116.096 50.4011 115.572 50.6959L116.004 52.2166C116.498 51.9063 117.316 51.6425 118.088 51.6425C119.246 51.6425 119.462 52.2166 119.462 52.6356V52.7287C116.791 52.7287 115.031 53.6597 115.031 55.6304C115.031 56.8408 115.942 57.958 117.471 57.958C118.366 57.958 119.138 57.6322 119.632 57.027H119.678L119.817 57.7873H121.932C121.84 57.3684 121.809 56.6701 121.809 55.9563V53.3028ZM119.539 55.0253C119.539 55.1649 119.524 55.3046 119.493 55.4287C119.339 55.9097 118.845 56.2977 118.273 56.2977C117.748 56.2977 117.347 56.0029 117.347 55.3977C117.347 54.4977 118.304 54.2028 119.539 54.2028V55.0253Z" fill="#3A3A3C"/>
<path d="M123.879 48.7856V50.1977H122.875V51.9356H123.879V55.0391C123.879 56.1098 124.095 56.8391 124.527 57.2891C124.913 57.677 125.546 57.9408 126.303 57.9408C126.951 57.9408 127.522 57.8477 127.816 57.7391L127.8 55.9546C127.584 56.0012 127.43 56.0167 127.106 56.0167C126.411 56.0167 126.179 55.5977 126.179 54.6822V51.9356H127.862V50.1977H126.179V48.1494L123.879 48.7856Z" fill="#3A3A3C"/>
<path d="M131.568 57.7865V50.1986H129.221V57.7865H131.568ZM130.41 46.9089C129.653 46.9089 129.159 47.421 129.159 48.0882C129.159 48.74 129.638 49.2676 130.379 49.2676C131.166 49.2676 131.645 48.74 131.645 48.0882C131.63 47.421 131.166 46.9089 130.41 46.9089Z" fill="#3A3A3C"/>
<path d="M137.064 50.0132C134.624 50.0132 133.019 51.5804 133.019 54.0477C133.019 56.4994 134.717 57.958 136.925 57.958C138.947 57.958 140.908 56.6856 140.908 53.908C140.908 51.6115 139.364 50.0132 137.064 50.0132ZM136.987 51.7046C138.052 51.7046 138.484 52.8528 138.484 53.9701C138.484 55.3511 137.913 56.2666 136.987 56.2666C135.983 56.2666 135.443 55.2891 135.443 53.9856C135.443 52.8684 135.875 51.7046 136.987 51.7046Z" fill="#3A3A3C"/>
<path d="M142.359 57.7907H144.706V53.4149C144.706 53.1976 144.721 52.9804 144.783 52.8252C144.953 52.3907 145.339 51.9407 145.987 51.9407C146.837 51.9407 147.176 52.608 147.176 53.5855V57.7907H149.523V53.3062C149.523 51.0718 148.365 50.0321 146.821 50.0321C145.555 50.0321 144.799 50.7614 144.49 51.258H144.443L144.335 50.2028H142.297C142.328 50.8856 142.359 51.6769 142.359 52.6235V57.7907Z" fill="#3A3A3C"/>
<path d="M156.347 57.7882V51.3176H158.154V50.2779H156.347V49.8745C156.347 48.7107 156.641 47.7021 157.798 47.7021C158.2 47.7021 158.462 47.7796 158.663 47.8728L158.848 46.8176C158.586 46.709 158.184 46.6003 157.69 46.6003C157.057 46.6003 156.378 46.8021 155.869 47.2986C155.251 47.9038 155.004 48.8659 155.004 49.921V50.2779H153.97V51.3176H155.004V57.7882H156.347Z" fill="#3A3A3C"/>
<path d="M162.336 50.1202C160.283 50.1202 158.631 51.5944 158.631 54.0926C158.631 56.4668 160.206 57.9564 162.213 57.9564C164.004 57.9564 165.934 56.7461 165.934 53.9685C165.934 51.6875 164.482 50.1202 162.336 50.1202ZM162.305 51.1444C163.911 51.1444 164.544 52.7426 164.544 54.0151C164.544 55.7064 163.571 56.9323 162.275 56.9323C160.947 56.9323 160.02 55.6909 160.02 54.0461C160.02 52.634 160.715 51.1444 162.305 51.1444Z" fill="#3A3A3C"/>
<path d="M167.646 57.7858H169.004V53.7823C169.004 53.5651 169.02 53.3323 169.051 53.1461C169.236 52.122 169.915 51.4082 170.872 51.4082C171.058 51.4082 171.197 51.4082 171.336 51.4392V50.1513C171.212 50.1358 171.104 50.1202 170.965 50.1202C170.054 50.1202 169.22 50.7564 168.881 51.7651H168.834L168.773 50.2754H167.584C167.63 50.9737 167.646 51.734 167.646 52.6185V57.7858Z" fill="#3A3A3C"/>
<path d="M176.004 57.7894H181.809V56.6567H177.363V47.3308H176.004V57.7894Z" fill="#3A3A3C"/>
<path d="M184.619 57.7894V50.2791H183.26V57.7894H184.619ZM183.939 47.3308C183.43 47.3308 183.09 47.7187 183.09 48.1843C183.09 48.6498 183.414 49.0222 183.909 49.0222C184.449 49.0222 184.773 48.6498 184.773 48.1843C184.773 47.7032 184.433 47.3308 183.939 47.3308Z" fill="#3A3A3C"/>
<path d="M188.35 57.7882V51.3176H190.156V50.2779H188.35V49.8745C188.35 48.7107 188.643 47.7021 189.801 47.7021C190.203 47.7021 190.465 47.7796 190.666 47.8728L190.851 46.8176C190.589 46.709 190.187 46.6003 189.693 46.6003C189.06 46.6003 188.381 46.8021 187.871 47.2986C187.254 47.9038 187.007 48.8659 187.007 49.921V50.2779H185.972V51.3176H187.007V57.7882H188.35Z" fill="#3A3A3C"/>
<path d="M197.186 54.2789C197.217 54.1237 197.232 53.922 197.232 53.6426C197.232 52.2616 196.599 50.1202 194.145 50.1202C191.968 50.1202 190.64 51.8892 190.64 54.1547C190.64 56.4202 192.014 57.9564 194.314 57.9564C195.503 57.9564 196.337 57.6926 196.816 57.4754L196.569 56.4978C196.075 56.7151 195.472 56.8857 194.5 56.8857C193.126 56.8857 191.968 56.1254 191.937 54.2789H197.186ZM191.952 53.3013C192.06 52.3547 192.647 51.0978 194.037 51.0978C195.565 51.0978 195.936 52.4478 195.92 53.3013H191.952Z" fill="#3A3A3C"/>
<path d="M45.377 49.1873C47.2054 49.1873 48.6877 47.6976 48.6877 45.86C48.6877 44.0223 47.2054 42.5326 45.377 42.5326C43.5486 42.5326 42.0663 44.0223 42.0663 45.86C42.0663 47.6976 43.5486 49.1873 45.377 49.1873Z" fill="white"/>
<path fill-rule="evenodd" clip-rule="evenodd" d="M49.7466 57.4148C49.7466 66.2181 42.6459 73.3547 33.8865 73.3547C25.1276 73.3547 18.0267 66.2181 18.0267 57.4148C18.0267 48.6113 25.1276 41.4747 33.8865 41.4747C42.6459 41.4747 49.7466 48.6113 49.7466 57.4148Z" fill="#DD1A5C"/>
<path fill-rule="evenodd" clip-rule="evenodd" d="M15.142 61.4283C15.142 62.8465 13.9982 63.9962 12.5872 63.9962C11.1761 63.9962 10.0322 62.8465 10.0322 61.4283C10.0322 60.0102 11.1761 58.8604 12.5872 58.8604C13.9982 58.8604 15.142 60.0102 15.142 61.4283Z" fill="#DD1A5C"/>
<path fill-rule="evenodd" clip-rule="evenodd" d="M8.3865 67.9981C8.3865 68.9619 7.60901 69.7433 6.64995 69.7433C5.69106 69.7433 4.91357 68.9619 4.91357 67.9981C4.91357 67.0341 5.69106 66.2528 6.64995 66.2528C7.60901 66.2528 8.3865 67.0341 8.3865 67.9981Z" fill="#DD1A5C"/>
<path fill-rule="evenodd" clip-rule="evenodd" d="M20.2701 71.6243C20.2701 73.7561 18.5505 75.4844 16.4292 75.4844C14.3081 75.4844 12.5885 73.7561 12.5885 71.6243C12.5885 69.4923 14.3081 67.764 16.4292 67.764C18.5505 67.764 20.2701 69.4923 20.2701 71.6243Z" fill="#DD1A5C"/>
<path fill-rule="evenodd" clip-rule="evenodd" d="M25.515 76.401C25.515 76.9075 25.1066 77.3179 24.6027 77.3179C24.0988 77.3179 23.6904 76.9075 23.6904 76.401C23.6904 75.8944 24.0988 75.484 24.6027 75.484C25.1066 75.484 25.515 75.8944 25.515 76.401Z" fill="#DD1A5C"/>
<path fill-rule="evenodd" clip-rule="evenodd" d="M8.56244 76.241C8.56244 76.739 8.16075 77.1427 7.66525 77.1427C7.16975 77.1427 6.76807 76.739 6.76807 76.241C6.76807 75.743 7.16975 75.3392 7.66525 75.3392C8.16075 75.3392 8.56244 75.743 8.56244 76.241Z" fill="#DD1A5C"/>
<path fill-rule="evenodd" clip-rule="evenodd" d="M72.7522 57.1754C72.7522 65.9787 65.6516 73.1154 56.8925 73.1154C48.1334 73.1154 41.0325 65.9787 41.0325 57.1754C41.0325 48.372 48.1334 41.2355 56.8925 41.2355C65.6516 41.2355 72.7522 48.372 72.7522 57.1754Z" fill="#24A8DF"/>
<path fill-rule="evenodd" clip-rule="evenodd" d="M49.9596 29.2552C49.9596 38.0587 42.8587 45.1951 34.0996 45.1951C25.3404 45.1951 18.2397 38.0587 18.2397 29.2552C18.2397 20.4519 25.3404 13.3153 34.0996 13.3153C42.8587 13.3153 49.9596 20.4519 49.9596 29.2552Z" fill="#FAAF2F"/>
<path fill-rule="evenodd" clip-rule="evenodd" d="M72.846 29.1136C72.846 37.9985 65.6795 45.2014 56.839 45.2014C47.9987 45.2014 40.832 37.9985 40.832 29.1136C40.832 20.2285 47.9987 13.0256 56.839 13.0256C65.6795 13.0256 72.846 20.2285 72.846 29.1136Z" fill="#88C53E"/>
<path fill-rule="evenodd" clip-rule="evenodd" d="M71.4102 9.63063C71.4102 11.0174 70.2915 12.1419 68.9115 12.1419C67.5315 12.1419 66.4129 11.0174 66.4129 9.63063C66.4129 8.24361 67.5315 7.11926 68.9115 7.11926C70.2915 7.11926 71.4102 8.24361 71.4102 9.63063Z" fill="#88C53E"/>
<path fill-rule="evenodd" clip-rule="evenodd" d="M79.8785 8.71627C79.8785 9.2228 79.4701 9.63326 78.9662 9.63326C78.4623 9.63326 78.0537 9.2228 78.0537 8.71627C78.0537 8.20984 78.4623 7.79932 78.9662 7.79932C79.4701 7.79932 79.8785 8.20984 79.8785 8.71627Z" fill="#88C53E"/>
<path fill-rule="evenodd" clip-rule="evenodd" d="M87.1751 14.6782C87.1751 15.7889 86.2791 16.6896 85.1737 16.6896C84.0685 16.6896 83.1724 15.7889 83.1724 14.6782C83.1724 13.5672 84.0685 12.6667 85.1737 12.6667C86.2791 12.6667 87.1751 13.5672 87.1751 14.6782Z" fill="#88C53E"/>
<path fill-rule="evenodd" clip-rule="evenodd" d="M81.1725 20.8049C81.1725 22.7815 79.5782 24.384 77.6114 24.384C75.6446 24.384 74.0503 22.7815 74.0503 20.8049C74.0503 18.8282 75.6446 17.2257 77.6114 17.2257C79.5782 17.2257 81.1725 18.8282 81.1725 20.8049Z" fill="#88C53E"/>
<path fill-rule="evenodd" clip-rule="evenodd" d="M81.0528 31.6002C81.0528 32.7437 80.1304 33.6707 78.9925 33.6707C77.8548 33.6707 76.9323 32.7437 76.9323 31.6002C76.9323 30.4566 77.8548 29.5297 78.9925 29.5297C80.1304 29.5297 81.0528 30.4566 81.0528 31.6002Z" fill="#88C53E"/>
<path fill-rule="evenodd" clip-rule="evenodd" d="M54.5592 32.0889C54.5592 37.38 50.3338 41.6693 45.121 41.6693C39.9081 41.6693 35.682 37.38 35.682 32.0889C35.682 26.7978 39.9081 22.5087 45.121 22.5087C50.3338 22.5087 54.5592 26.7978 54.5592 32.0889Z" fill="white"/>
<path fill-rule="evenodd" clip-rule="evenodd" d="M55.2292 55.6232V53.018C55.2292 51.1901 56.7037 49.7082 58.5224 49.7082V48.2287C58.5224 48.2287 58.5224 46.0903 56.4796 46.0903H33.8073C31.6534 46.0903 31.6285 48.3366 31.6285 48.3366V49.7082C33.4472 49.7082 34.9217 51.1901 34.9217 53.018V55.6232C34.9217 57.4511 33.4472 58.933 31.6285 58.933V60.4127C31.6534 62.551 33.7028 62.551 33.7028 62.551H56.4479C56.4479 62.551 58.5224 62.515 58.5224 60.4127V58.933C56.7037 58.933 55.2292 57.4511 55.2292 55.6232Z" fill="white"/>
<path fill-rule="evenodd" clip-rule="evenodd" d="M57.5602 48.7697C57.5602 49.2862 57.1437 49.7049 56.6298 49.7049C56.1159 49.7049 55.6995 49.2862 55.6995 48.7697C55.6995 48.2533 56.1159 47.8346 56.6298 47.8346C57.1437 47.8346 57.5602 48.2533 57.5602 48.7697Z" fill="#24A8DF"/>
<path fill-rule="evenodd" clip-rule="evenodd" d="M34.1259 55.4269C34.1259 56.9559 33.0071 58.1955 31.6273 58.1955C30.2472 58.1955 29.1287 56.9559 29.1287 55.4269V53.2477C29.1287 51.7187 30.2472 50.4792 31.6273 50.4792C33.0071 50.4792 34.1259 51.7187 34.1259 53.2477V55.4269Z" fill="white"/>
<path fill-rule="evenodd" clip-rule="evenodd" d="M61.0225 55.3765C61.0225 56.9055 59.9038 58.1451 58.524 58.1451C57.1438 58.1451 56.0253 56.9055 56.0253 55.3765V53.1973C56.0253 51.6683 57.1438 50.4288 58.524 50.4288C59.9038 50.4288 61.0225 51.6683 61.0225 53.1973V55.3765Z" fill="white"/>
<path fill-rule="evenodd" clip-rule="evenodd" d="M56.5448 45.1881C53.9959 42.184 49.8917 40.2343 45.2618 40.2343C40.6317 40.2343 36.5273 42.184 33.978 45.1881H56.5448Z" fill="white"/>
</svg>
