<?xml version="1.0" encoding="utf-8"?>
<!-- Generator: Adobe Illustrator 25.1.0, SVG Export Plug-In . SVG Version: 6.00 Build 0)  -->
<svg version="1.1" xmlns="http://www.w3.org/2000/svg" xmlns:xlink="http://www.w3.org/1999/xlink" x="0px" y="0px"
	 viewBox="0 0 426.7 426.7" style="enable-background:new 0 0 426.7 426.7;" xml:space="preserve">
<style type="text/css">
	.st0{fill:#005CB9;}
	.st1{display:none;}
	.st2{display:inline;}
</style>
<g id="Cross_and_Bible" inkscape:version="0.92.5 (2060ec1f9f, 2020-04-08)" sodipodi:docname="SITAG 2020-0.svg" xmlns:cc="http://creativecommons.org/ns#" xmlns:dc="http://purl.org/dc/elements/1.1/" xmlns:inkscape="http://www.inkscape.org/namespaces/inkscape" xmlns:rdf="http://www.w3.org/1999/02/22-rdf-syntax-ns#" xmlns:sodipodi="http://sodipodi.sourceforge.net/DTD/sodipodi-0.dtd" xmlns:svg="http://www.w3.org/2000/svg">
	
		<sodipodi:namedview  bordercolor="#666666" borderopacity="1" gridtolerance="10" guidetolerance="10" id="namedview4" inkscape:current-layer="svg2" inkscape:cx="133.24583" inkscape:cy="202.60185" inkscape:guide-bbox="true" inkscape:pageopacity="0" inkscape:pageshadow="2" inkscape:window-height="1020" inkscape:window-maximized="1" inkscape:window-width="1920" inkscape:window-x="0" inkscape:window-y="0" inkscape:zoom="1.5644738" objecttolerance="10" pagecolor="#ffffff" showgrid="false" showguides="true">
		</sodipodi:namedview>
	
		<path id="path12" inkscape:connector-curvature="0" sodipodi:nodetypes="cscssscccscsscccscscsccsscccsccccsccsccccscsssccscsccccsssccccccscssccsscsccssscccsscccccccsscccsccscssccc" class="st0" d="
		M222.2,318.3c-3.2-2.9-1.6-9.9,2.2-10c1.3,0,3.7-1,5.5-2.2c7-4.7,40.3-12.2,61.1-13.7c12.1-0.9,15.5-0.6,25,1.8
		c6.1,1.5,11.3,2.5,11.6,2.2c0.3-0.3-0.1-4.5-0.9-9.4c-0.8-4.8-1.2-9.5-0.9-10.3c0.3-0.8-0.6-9.4-2.1-19.2c-2.1-13.8-2.7-24-2.6-46
		l0.1-27.8c0-0.3-0.2-0.6-0.5-0.7l-6-2.4c-3.6-1.5-9.1-3.7-12.3-5c-9.4-3.8-22.4-5.1-41.3-4.1c-9.5,0.5-18.7,1.3-20.4,1.9
		c-4.6,1.4-5.6-2.5-1.8-6.4c1.7-1.7,3.8-3.2,4.7-3.2c0.9,0,3.7-1.1,6.2-2.3c3.9-1.9,8.4-2.4,28.6-2.6c22-0.3,24.5-0.1,30.4,2.4
		c3.6,1.5,7,2.8,7.7,2.8s2.1,0.8,3,1.9c1,1,4,1.9,6.7,1.8c8.8-0.1,11.1,1,11.2,5.1c0,2.8,1.8,5.4,6.9,10c6.2,5.7,11.9,13.8,12,16.9
		c-0.4,3.9-10.5,0.9-13.1-1.2c-1.9-1.6-2.4-1.6-3.9,0.1c-1.2,1.4-1.3,9.9-0.4,34.7c1.4,35.6,3,63.4,3.8,64.1
		c0.3,0.2-0.1,1.9-0.8,3.6c-0.9,2.4-0.6,4.1,1.2,6.9c4.8,7.3-2.2,11-12.3,6.6c-3.1-1.4-10.8-3.9-17.1-5.6c-10-2.7-13.6-3-30.1-2.6
		c-16.5,0.4-20.2,0.9-30.3,4.2c-6.4,2-14.1,4.9-17.3,6.4C229.6,320,224.7,320.5,222.2,318.3L222.2,318.3z M199.3,313.2
		c-5.3-2.2-10.5-5-11.5-6.1c-1-1.1-2.6-2.1-3.5-2c-0.9,0-4.7-1.3-8.4-2.9c-17.8-7.6-17.9-7.6-39.2-7.3c-14.3,0.2-20.6,0.8-21.8,1.9
		c-0.9,0.9-3.2,1.6-5,1.7c-3.2,0-11.3,4.1-14.9,7.5c-2.2,2.1-6,2.2-8.2,0.2c-1.8-1.7-2.3-6.1-0.7-6.1c1,0,9.1-22.7,12.1-34
		c0.8-2.8,2.5-12,3.9-20.5s3.3-18.5,4.3-22.4c1.8-7,4.4-22.7,5.4-32.9c0.5-5.2,0.4-5.3-3.7-5.7c-0.1,0-0.1,0-0.2,0l-0.1,0
		c-1.3-0.5-2-2-1.5-3.3v0c0-0.1,0.1-0.1,0.1-0.2c1.5-1.7,2.7-3.5,2.7-4.2c0-0.6,3.7-4.7,8.2-9c6.6-6.3,9.2-7.9,13.2-8.4
		c2.8-0.3,9.6-1,15.3-1.7c7.8-0.9,12.5-0.7,19.8,0.8c12.3,2.5,23,6.2,29.7,10.2c8.9,5.3,8.6,6.2,8.1-22.8c-0.2-8.3-0.5-14.6-1.4-15
		c-1.6-0.7-9.9-0.2-22.1,0.7c-12.2,0.9-23.2,1.3-24.3,0.9c-1.1-0.4-2-2.1-2-3.8c-0.1-5.6,9.2-10.3,27.8-14.1
		c6.7-1.4,20.7-6.3,22.9-8c1.2-0.9,1.3-4.3,1.5-8.4c0.6-11.2,2.6-26.9,4.9-38.2c2.7-13.1,5.7-15.6,14.4-11.5c0,0,0,0,0.1,0l2.3,1.3
		c1.2,0.6,1.9,1.9,1.8,3.2l-0.5,15.6c-0.3,9.9-0.9,20.7-1.2,23.8c-0.9,7.9,0.5,8.5,6.2,7.6c0,0,0,0,0,0c3-0.6,12.3-1.9,29.1-2.2
		c34-0.7,39.1,1,32.8,10.9c-2.4,3.8-3,4-17.4,5.7c-8.2,1-17.3,2.4-20.3,3.2c-3,0.8-9.9,2.2-15.4,3.3c-5.5,1-10.8,2.6-11.9,3.4
		c-4.6,3.7-5.1,10-3.4,47.2c1.8,39.6,2.6,64.2,2.4,76.4c-0.1,7.7-2.4,7.6-5.3,7c-8.5-1.8-10.9-4.6-12.4-6.4c-1-1.2-1.9-2.7-2.5-4.1
		c-0.7-1.7-2.1-4.6-2.2-13.1c-0.3-13.4-3-51.5-4.3-52.6c-0.5-0.4-3.2-1-6-1.2c-2.8-0.2-6.7-0.9-8.6-1.6c-1.9-0.6-11.1-2.4-20.6-4
		c-14.1-2.4-18.9-2.7-27.1-1.7c-5.5,0.6-10.8,1.9-11.9,2.7c-2,1.6-3.9,7.6-7.6,23.8c-1.1,4.9-2.9,12.7-4,17.3
		c-1.1,4.6-3.1,14.8-4.5,22.7c-1.4,7.9-3.1,15.4-3.7,16.6c-0.7,1.2-1.6,4.7-2,7.7c-0.4,3-2.2,9.8-4,15.1c-3.6,11-2.7,12.5,5.6,9.5
		c6.5-2.3,35.4-3.8,43.6-2.3c3.8,0.7,9.3,1.7,12.3,2.3c9.6,1.8,41.4,16.6,47.9,22.2c4.8,4.2,4.7,8.4-0.2,8.9
		C210.5,317.1,204.6,315.4,199.3,313.2L199.3,313.2z"/>
</g>
<g id="Bottom_Text_1" class="st1">
	<g id="text822" class="st2">
		<path id="path859" class="st0" d="M40.6,182.6l-0.3,4l-25,4.5l24.2,7.7l-0.3,4.4l-25,4.5l24.2,7.7l-0.3,4l-28.6-9.2l0.3-5
			l25.7-4.5l-24.9-7.8l0.3-5L40.6,182.6z"/>
		<path id="path861" class="st0" d="M30,227.2c-0.2-1.9-1-3.4-2.6-4.4c-1.6-1-3.7-1.4-6.3-1.2c-2.6,0.2-4.6,0.9-6,2.2
			c-1.4,1.2-2,2.8-1.9,4.8c0.2,1.9,1,3.4,2.6,4.4c1.6,1,3.7,1.4,6.3,1.2c2.6-0.2,4.6-0.9,6-2.2C29.5,230.7,30.1,229.1,30,227.2z
			 M33,226.9c0.3,3.1-0.6,5.6-2.4,7.6c-1.9,1.9-4.6,3.1-8.2,3.4c-3.6,0.3-6.4-0.4-8.6-2c-2.2-1.6-3.4-4-3.6-7.1
			c-0.3-3.1,0.6-5.7,2.4-7.6c1.9-1.9,4.6-3,8.2-3.3c3.6-0.3,6.5,0.4,8.6,2C31.5,221.4,32.7,223.8,33,226.9L33,226.9z"/>
		<path id="path863" class="st0" d="M33.5,255.1l11.6-2.4l0.7,3.5L16,262.3l-0.7-3.5l3.2-0.7c-1.4-0.5-2.6-1.2-3.4-2.2
			c-0.8-1-1.4-2.3-1.7-3.9c-0.5-2.6,0.1-4.9,1.8-7c1.7-2,4.3-3.4,7.7-4.1s6.3-0.4,8.6,0.8c2.4,1.2,3.9,3.1,4.4,5.7
			c0.3,1.6,0.3,3-0.1,4.2C35.3,252.9,34.6,254.1,33.5,255.1L33.5,255.1z M23.5,244.6c-2.6,0.5-4.5,1.5-5.8,2.8
			c-1.2,1.4-1.7,3-1.3,4.9c0.4,1.9,1.4,3.2,3.1,4c1.7,0.8,3.8,0.9,6.4,0.4c2.6-0.5,4.5-1.5,5.8-2.8c1.3-1.4,1.7-3,1.3-4.9
			s-1.4-3.2-3.1-3.9C28.3,244.2,26.1,244.1,23.5,244.6L23.5,244.6z"/>
		<path id="path865" class="st0" d="M50.5,271.1l1.2,3.4l-28.6,10.4l-1.2-3.4L50.5,271.1z"/>
		<path id="path867" class="st0" d="M47,291.5c-0.8-1.7-2.1-2.8-4-3.2c-1.8-0.4-3.9,0-6.3,1.1c-2.4,1.1-4,2.5-4.9,4.1
			c-0.9,1.6-0.9,3.3-0.1,5.1c0.8,1.7,2.1,2.8,4,3.2s3.9,0,6.3-1.1c2.3-1.1,4-2.5,4.9-4.1C47.7,294.9,47.8,293.2,47,291.5z
			 M49.7,290.2c1.3,2.8,1.4,5.5,0.3,8s-3.3,4.5-6.5,6c-3.2,1.5-6.2,1.9-8.8,1.1c-2.6-0.8-4.5-2.6-5.9-5.4c-1.3-2.8-1.4-5.5-0.3-8
			c1.1-2.5,3.3-4.5,6.5-6c3.3-1.5,6.2-1.9,8.8-1.1C46.4,285.6,48.4,287.4,49.7,290.2L49.7,290.2z"/>
		<path id="path869" class="st0" d="M57.3,322.5l-11.2,7l-1.9-3.1l11.1-6.9c1.8-1.1,2.9-2.3,3.3-3.5c0.4-1.2,0.2-2.5-0.6-3.9
			c-1-1.6-2.4-2.6-4-2.9s-3.4,0.1-5.2,1.2l-10.5,6.5l-1.9-3.1l18.6-11.5l1.9,3.1l-2.9,1.8c1.6,0,2.9,0.4,4.1,1
			c1.2,0.7,2.2,1.6,3,2.9c1.3,2.1,1.7,4.2,1,6.1C61.5,319.1,59.9,320.9,57.3,322.5z"/>
		<path id="path871" class="st0" d="M68,339.5c2-1.6,3.3-3.3,3.7-5.1c0.4-1.7,0.1-3.4-1.2-4.9c-1.2-1.5-2.7-2.2-4.5-2.2
			c-1.8,0.1-3.7,0.9-5.7,2.5c-2,1.6-3.3,3.3-3.7,5c-0.4,1.7-0.1,3.4,1.2,4.9c1.2,1.5,2.7,2.2,4.5,2.2C64.1,341.9,66,341.1,68,339.5
			L68,339.5z M63.7,347.6c-2.9,2.3-5.6,3.4-8,3.3c-2.5-0.1-4.8-1.5-6.9-4.2c-0.8-1-1.5-2-2-3c-0.6-1-1-2-1.4-3.1l2.7-2.2
			c0.2,1.2,0.5,2.3,1,3.2c0.4,1,1,1.9,1.7,2.7c1.5,1.8,3.1,2.8,4.8,3c1.7,0.1,3.5-0.6,5.4-2.1l1.4-1.1c-1.5,0.2-2.8,0.1-4-0.4
			c-1.2-0.5-2.3-1.4-3.4-2.6c-1.7-2.1-2.2-4.4-1.7-7c0.6-2.6,2.2-4.9,4.8-7c2.6-2.1,5.3-3.2,7.9-3.2c2.6,0,4.8,1,6.5,3.1
			c1,1.3,1.6,2.5,1.9,3.8c0.2,1.3,0.1,2.6-0.5,4l2.6-2.1l2.3,2.8L63.7,347.6z"/>
		<path id="path873" class="st0" d="M93.6,373.4l5-6l-5-4.1l2.1-2.5l8,6.6l-8,9.6c-1.9-0.1-3.7-0.6-5.5-1.3
			c-1.8-0.7-3.4-1.8-5.1-3.1c-3.5-2.9-5.4-6.2-5.7-9.9c-0.3-3.7,1.1-7.4,4.1-11c3-3.7,6.4-5.7,10.1-6.1c3.7-0.4,7.3,0.8,10.8,3.7
			c1.5,1.2,2.7,2.5,3.7,4c1,1.5,1.8,3,2.3,4.6l-2.7,3.2c-0.3-1.9-0.9-3.6-1.8-5.1c-0.9-1.5-2-2.9-3.4-4c-2.7-2.3-5.4-3.2-8.1-2.8
			c-2.6,0.4-5.2,2.1-7.7,5.2c-2.5,3-3.7,5.9-3.6,8.6c0.1,2.7,1.5,5.2,4.3,7.4c1.1,0.9,2.1,1.6,3.1,2.1
			C91.6,372.9,92.6,373.3,93.6,373.4L93.6,373.4z"/>
		<path id="path875" class="st0" d="M117.2,371c-1.6-1-3.3-1.2-5.1-0.5c-1.7,0.7-3.3,2.1-4.7,4.4c-1.4,2.2-2,4.3-1.8,6.1
			c0.2,1.9,1.1,3.3,2.7,4.3c1.6,1,3.3,1.2,5.1,0.5c1.7-0.7,3.3-2.2,4.7-4.4c1.4-2.2,2-4.2,1.8-6.1C119.7,373.5,118.9,372,117.2,371z
			 M118.8,368.4c2.7,1.6,4.2,3.8,4.7,6.5s-0.3,5.5-2.1,8.6c-1.9,3-4.1,5-6.7,5.8c-2.6,0.8-5.2,0.4-7.9-1.3c-2.7-1.6-4.2-3.8-4.7-6.5
			c-0.4-2.7,0.3-5.5,2.2-8.6c1.9-3.1,4.1-5,6.7-5.8C113.5,366.3,116.1,366.8,118.8,368.4L118.8,368.4z"/>
		<path id="path877" class="st0" d="M141.7,384.5l4.9-10.8l3.3,1.5l-12.5,27.7l-3.3-1.5l1.4-3c-1.2,0.9-2.5,1.4-3.8,1.5
			c-1.3,0.1-2.7-0.2-4.2-0.9c-2.4-1.1-3.9-2.9-4.6-5.6c-0.6-2.6-0.2-5.5,1.2-8.6c1.4-3.1,3.3-5.3,5.7-6.6c2.4-1.2,4.8-1.3,7.2-0.2
			c1.5,0.7,2.6,1.5,3.4,2.6C141.1,381.8,141.5,383,141.7,384.5L141.7,384.5z M127.4,386.4c-1.1,2.4-1.5,4.5-1.1,6.3
			c0.4,1.8,1.4,3.1,3.2,3.9c1.7,0.8,3.4,0.7,5-0.2c1.6-0.9,3-2.6,4.1-5c1.1-2.4,1.4-4.5,1.1-6.3c-0.4-1.8-1.4-3.1-3.2-3.9
			c-1.7-0.8-3.4-0.7-5,0.2C129.8,382.4,128.5,384,127.4,386.4L127.4,386.4z"/>
		<path id="path879" class="st0" d="M164.5,379.9l3.5,0.9l-8,29.3l-3.5-0.9L164.5,379.9z"/>
		<path id="path881" class="st0" d="M178.9,394.6c-1.9-0.3-3.5,0.1-4.9,1.4c-1.4,1.3-2.3,3.2-2.7,5.8s-0.3,4.7,0.5,6.4
			c0.8,1.7,2.2,2.7,4.1,3c1.9,0.3,3.5-0.1,4.9-1.4c1.4-1.3,2.3-3.2,2.7-5.8c0.5-2.6,0.3-4.7-0.6-6.4
			C182.2,395.9,180.8,394.9,178.9,394.6z M179.5,391.6c3.1,0.6,5.3,2,6.7,4.3s1.8,5.2,1.1,8.8c-0.6,3.5-2,6.1-4.1,7.8
			c-2.1,1.7-4.7,2.3-7.8,1.7c-3.1-0.6-5.3-2-6.7-4.3c-1.4-2.3-1.8-5.2-1.1-8.8c0.6-3.5,2-6.1,4.1-7.8
			C173.8,391.6,176.4,391,179.5,391.6L179.5,391.6z"/>
		<path id="path883" class="st0" d="M210.2,403.7l-0.7,13.2l-3.6-0.2l0.7-13.1c0.1-2.1-0.2-3.6-1-4.7s-1.9-1.6-3.5-1.7
			c-1.9-0.1-3.5,0.4-4.7,1.6s-1.8,2.8-1.9,5l-0.6,12.3l-3.6-0.2l1.1-21.8l3.6,0.2l-0.2,3.4c0.9-1.3,2-2.2,3.2-2.8
			c1.2-0.6,2.6-0.8,4.1-0.8c2.5,0.1,4.4,1,5.6,2.6C209.8,398.4,210.3,400.7,210.2,403.7z"/>
		<path id="path885" class="st0" d="M230.1,404.5c-0.2-2.6-0.9-4.6-2.1-5.9c-1.2-1.3-2.7-1.9-4.7-1.8c-1.9,0.2-3.4,1-4.3,2.5
			c-1,1.5-1.3,3.6-1.1,6.2c0.2,2.6,0.9,4.5,2.1,5.9c1.2,1.3,2.7,1.9,4.7,1.8c1.9-0.2,3.4-1,4.3-2.5
			C230,409.1,230.4,407.1,230.1,404.5L230.1,404.5z M234.4,412.7c0.3,3.7-0.3,6.5-1.8,8.5c-1.5,1.9-4,3.1-7.4,3.3
			c-1.3,0.1-2.5,0.1-3.6,0c-1.1-0.1-2.2-0.3-3.3-0.6l-0.3-3.5c1.1,0.5,2.2,0.8,3.2,1s2.1,0.2,3.2,0.2c2.3-0.2,4.1-0.9,5.1-2.3
			c1.1-1.3,1.5-3.2,1.3-5.7l-0.1-1.8c-0.6,1.3-1.5,2.4-2.6,3.1c-1.1,0.7-2.5,1.2-4.1,1.3c-2.7,0.2-4.9-0.6-6.7-2.5
			c-1.8-1.9-2.8-4.5-3.1-7.9c-0.3-3.4,0.3-6.1,1.8-8.3c1.5-2.2,3.5-3.4,6.2-3.6c1.6-0.1,3,0.1,4.2,0.6c1.2,0.5,2.2,1.4,3.1,2.7
			l-0.3-3.3l3.6-0.3L234.4,412.7z"/>
		<path id="path887" class="st0" d="M257.4,390.8c-1.9,0.5-3.1,1.7-3.8,3.4c-0.7,1.7-0.7,3.9,0.1,6.4c0.7,2.5,1.8,4.4,3.3,5.5
			c1.5,1.1,3.2,1.4,5,0.9c1.8-0.5,3.1-1.7,3.8-3.4c0.7-1.8,0.7-3.9-0.1-6.4c-0.7-2.5-1.8-4.3-3.3-5.5
			C260.9,390.6,259.2,390.3,257.4,390.8z M256.5,387.9c3-0.8,5.6-0.5,7.9,0.9s3.9,3.9,4.9,7.4c1,3.4,0.9,6.4-0.3,8.8
			c-1.2,2.4-3.3,4.1-6.3,4.9c-3,0.8-5.7,0.5-7.9-0.9c-2.3-1.5-3.9-4-4.8-7.4c-1-3.5-0.9-6.4,0.3-8.8
			C251.4,390.4,253.5,388.7,256.5,387.9L256.5,387.9z"/>
		<path id="path889" class="st0" d="M267,376.1l3.4-1.3l10.8,28.4l-3.4,1.3L267,376.1z"/>
		<path id="path891" class="st0" d="M274.9,373.1l3.3-1.6l7.8,16.2l5.6-13.1l4.1-2l-6,14.2l15.9,5.3l-4.2,2l-14.6-4.8l4.6,9.6
			l-3.3,1.6L274.9,373.1z"/>
		<path id="path893" class="st0" d="M317.1,370.7l0.9,1.5l-14,8.8c1.5,2,3.1,3.2,4.9,3.6c1.8,0.4,3.7-0.1,5.8-1.4
			c1.2-0.7,2.2-1.6,3.1-2.6c0.9-1,1.7-2.1,2.5-3.4l1.8,2.9c-0.8,1.2-1.7,2.2-2.7,3.2c-1,1-2.1,1.8-3.3,2.6c-2.9,1.9-5.8,2.5-8.6,1.9
			c-2.8-0.6-5.1-2.4-7-5.3c-1.9-3-2.6-5.9-2.1-8.7c0.5-2.8,2.2-5.1,4.9-6.9c2.5-1.6,5-2,7.4-1.3C313.2,366.3,315.3,368,317.1,370.7
			L317.1,370.7z M313.5,371.7c-1.1-1.6-2.4-2.7-3.9-3.1c-1.5-0.4-3-0.2-4.5,0.8c-1.7,1.1-2.8,2.4-3.2,4c-0.4,1.6-0.1,3.3,0.8,5.2
			L313.5,371.7z"/>
		<path id="path895" class="st0" d="M313.5,352.8l3.8,4.9l5.8-4.6l1.7,2.2l-5.8,4.6l7.3,9.3c1.1,1.4,2,2.2,2.7,2.3
			c0.7,0.1,1.6-0.3,2.8-1.2l2.9-2.3l1.9,2.4l-2.9,2.3c-2.2,1.7-4,2.5-5.5,2.3c-1.5-0.2-3.1-1.3-4.7-3.5l-7.3-9.3l-2.1,1.6l-1.7-2.2
			l2.1-1.6l-3.8-4.9L313.5,352.8z"/>
		<path id="path897" class="st0" d="M339.9,352.4c-2.1,2-3.3,3.6-3.7,4.9s0,2.5,1.1,3.6c0.9,0.9,1.9,1.4,3,1.3
			c1.1,0,2.2-0.6,3.3-1.6c1.4-1.4,2.1-3,2-4.8c-0.1-1.9-1-3.6-2.6-5.3l-0.6-0.6L339.9,352.4z M344,346.4l8.6,9l-2.6,2.5l-2.3-2.4
			c0.3,1.5,0.3,2.9-0.2,4.3c-0.5,1.3-1.3,2.6-2.6,3.8c-1.6,1.5-3.3,2.3-5.2,2.3c-1.8,0-3.5-0.8-4.9-2.3c-1.7-1.8-2.4-3.7-2.1-5.7
			c0.3-2,1.7-4.2,4-6.5l3.6-3.5l-0.2-0.3c-1.1-1.2-2.4-1.7-3.8-1.6c-1.4,0.1-2.8,0.8-4.2,2.2c-0.9,0.9-1.7,1.8-2.3,2.9
			s-1.2,2.1-1.5,3.3L326,352c0.6-1.3,1.3-2.4,2-3.5c0.7-1,1.5-2,2.3-2.8c2.3-2.2,4.6-3.2,6.8-3.1C339.5,342.7,341.7,344,344,346.4z"
			/>
		<path id="path899" class="st0" d="M342.4,322.9l2.3-3.2l20.9,15.2l8.4-11.5l2.7,2l-10.7,14.7L342.4,322.9z"/>
		<path id="path901" class="st0" d="M374,307.9c-1.4,2.5-2.1,4.4-2.1,5.7c0,1.3,0.7,2.3,2.1,3.1c1.1,0.6,2.2,0.8,3.3,0.4
			c1.1-0.4,2-1.2,2.7-2.4c1-1.7,1.2-3.5,0.5-5.2c-0.6-1.8-2-3.2-4-4.4l-0.7-0.4L374,307.9z M376.3,300.9l10.9,6.2l-1.8,3.1l-2.9-1.6
			c0.8,1.4,1.1,2.7,1.1,4.1c-0.1,1.4-0.5,2.8-1.4,4.4c-1.1,1.9-2.5,3.2-4.3,3.7c-1.7,0.5-3.5,0.3-5.4-0.8c-2.1-1.2-3.3-2.8-3.6-4.9
			c-0.3-2.1,0.4-4.5,2-7.3l2.5-4.4l-0.3-0.2c-1.4-0.8-2.8-1-4.1-0.5c-1.3,0.5-2.5,1.6-3.4,3.3c-0.6,1.1-1.1,2.2-1.4,3.4
			s-0.5,2.4-0.5,3.6l-2.9-1.6c0.2-1.4,0.5-2.7,0.9-3.9c0.4-1.2,0.9-2.3,1.4-3.3c1.6-2.8,3.4-4.4,5.6-5
			C370.8,298.7,373.4,299.3,376.3,300.9L376.3,300.9z"/>
		<path id="path903" class="st0" d="M385.2,278.6l12.2,5.1L396,287l-12.1-5c-1.9-0.8-3.5-1-4.8-0.7c-1.3,0.3-2.2,1.3-2.8,2.8
			c-0.7,1.8-0.8,3.4-0.1,5s2.1,2.7,4,3.5l11.4,4.8l-1.4,3.3l-20.2-8.4l1.4-3.3l3.1,1.3c-0.9-1.3-1.4-2.6-1.6-3.9
			c-0.1-1.3,0.1-2.7,0.7-4.1c1-2.3,2.4-3.8,4.4-4.4C380.1,277.1,382.4,277.4,385.2,278.6L385.2,278.6z"/>
		<path id="path905" class="st0" d="M392.8,260c-2.5-0.7-4.6-0.7-6.3-0.1c-1.7,0.6-2.8,1.9-3.3,3.8c-0.5,1.9-0.2,3.5,0.9,4.9
			c1.1,1.4,2.9,2.5,5.4,3.2c2.5,0.7,4.6,0.7,6.2,0.1c1.7-0.7,2.8-1.9,3.3-3.8c0.5-1.9,0.2-3.5-0.9-4.9
			C397.1,261.7,395.3,260.7,392.8,260L392.8,260z M402,258.8c3.6,1,6,2.5,7.3,4.6c1.3,2.1,1.5,4.8,0.6,8.1c-0.3,1.2-0.8,2.3-1.2,3.4
			c-0.5,1-1,2-1.7,2.9l-3.4-0.9c0.8-0.9,1.5-1.7,2.1-2.7s1-1.9,1.2-2.9c0.6-2.3,0.5-4.1-0.4-5.6c-0.9-1.5-2.5-2.5-4.9-3.2l-1.7-0.5
			c1,1.1,1.7,2.2,2,3.5c0.3,1.3,0.2,2.7-0.2,4.3c-0.7,2.6-2.3,4.4-4.7,5.4c-2.4,1-5.2,1.1-8.5,0.2c-3.3-0.9-5.7-2.4-7.2-4.6
			c-1.5-2.1-1.9-4.5-1.2-7.1c0.4-1.6,1.1-2.8,2-3.7s2.1-1.6,3.6-2l-3.2-0.9l1-3.5L402,258.8z"/>
		<path id="path907" class="st0" d="M397.3,236.3c-2.6-0.4-4.7-0.2-6.2,0.7c-1.6,0.8-2.5,2.2-2.8,4.1c-0.3,1.9,0.2,3.5,1.4,4.8
			c1.3,1.3,3.2,2.1,5.7,2.5c2.6,0.4,4.6,0.2,6.2-0.7c1.6-0.8,2.5-2.2,2.8-4.1c0.3-1.9-0.2-3.5-1.4-4.8
			C401.8,237.6,399.9,236.7,397.3,236.3L397.3,236.3z M406.2,234.1c3.7,0.6,6.3,1.8,7.8,3.7c1.5,1.9,2.1,4.6,1.5,7.9
			c-0.2,1.2-0.5,2.4-0.8,3.5c-0.4,1.1-0.8,2.1-1.3,3.1l-3.5-0.5c0.7-1,1.3-1.9,1.7-2.9s0.7-2,0.9-3c0.4-2.3,0-4.2-1-5.5
			c-1-1.3-2.8-2.2-5.2-2.6l-1.8-0.3c1.2,0.9,2,2,2.4,3.3c0.5,1.2,0.6,2.7,0.3,4.3c-0.4,2.7-1.8,4.6-4,5.9s-5.1,1.7-8.4,1.2
			c-3.3-0.5-5.9-1.7-7.7-3.7c-1.8-1.9-2.4-4.2-2-6.9c0.2-1.6,0.8-2.9,1.6-4c0.8-1,1.9-1.8,3.3-2.4l-3.3-0.5l0.6-3.6L406.2,234.1z"/>
		<path id="path909" class="st0" d="M401,227.2l-13.2-0.5l0.1-3.6l13.1,0.5c2.1,0.1,3.6-0.3,4.7-1c1.1-0.8,1.6-2,1.7-3.6
			c0.1-1.9-0.5-3.5-1.7-4.7c-1.2-1.2-2.9-1.8-5-1.9l-12.4-0.4l0.1-3.6l21.9,0.8l-0.1,3.6l-3.4-0.1c1.3,0.9,2.3,2,2.9,3.1
			c0.6,1.2,0.9,2.5,0.8,4c-0.1,2.5-0.9,4.4-2.5,5.6C406.3,226.7,404,227.3,401,227.2L401,227.2z"/>
		<path id="path911" class="st0" d="M388,202.9l-0.2-3.6l21.8-1.1l0.2,3.6L388,202.9z M379.5,203.4l-0.2-3.6l4.5-0.2l0.2,3.6
			L379.5,203.4z"/>
		<path id="path913" class="st0" d="M386.3,179.6l3.4-0.4c-0.4,1.1-0.6,2.2-0.8,3.3c-0.1,1.1-0.1,2.3,0,3.4c0.2,1.8,0.7,3.1,1.3,3.9
			c0.7,0.8,1.5,1.1,2.6,1c0.8-0.1,1.4-0.5,1.8-1.2c0.4-0.7,0.7-2,0.8-4l0.1-1.3c0.2-2.6,0.8-4.5,1.6-5.7c0.8-1.2,2.1-1.9,3.9-2.1
			c2-0.3,3.7,0.3,5.1,1.8c1.4,1.4,2.3,3.5,2.6,6.3c0.2,1.2,0.2,2.4,0.1,3.7c-0.1,1.3-0.2,2.6-0.5,4.1l-3.7,0.5
			c0.5-1.4,0.9-2.8,1-4.1c0.2-1.3,0.2-2.6,0-3.9c-0.2-1.7-0.7-2.9-1.4-3.8c-0.7-0.8-1.6-1.2-2.6-1c-1,0.1-1.7,0.6-2.1,1.3
			c-0.4,0.7-0.7,2.2-0.9,4.5l-0.1,1.3c-0.2,2.3-0.7,4-1.5,5.1c-0.8,1.1-2.1,1.8-3.8,2c-2,0.3-3.7-0.3-5-1.6s-2.1-3.3-2.5-5.9
			c-0.2-1.3-0.2-2.6-0.2-3.8C385.9,181.7,386.1,180.6,386.3,179.6L386.3,179.6z"/>
	</g>
</g>
<g id="Bottom_Text_2" class="st1">
	<g class="st2">
		<g>
			<path class="st0" d="M42.9,188.5l-1.4,8c-1,5.5-3.5,9-8.2,8.3c-2.6-0.4-4.8-2.2-5.1-4.9l-0.2,0c-1.2,3.1-3.7,5.1-7.4,4.5
				c-5.3-0.8-7.1-5.4-6-11.5l1.5-8.6L42.9,188.5z M17.3,192.8c-0.8,4.6,0.4,7.6,4,8.2c3.3,0.5,5.3-1.9,6.1-6.6l0.8-4.7l-10.1-1.6
				L17.3,192.8z M30.1,194.1c-0.8,4.6,0.5,6.8,3.2,7.2c3.1,0.5,4.7-1.5,5.4-5.7l0.7-4.2l-8.7-1.4L30.1,194.1z"/>
			<path class="st0" d="M17.6,207.9c4.4,0.2,6.4,4.1,6.9,12.8c2.6,0.1,5.1-0.7,5.3-4c0.1-2.3-0.9-4.5-1.9-6.1l2.4-1.3
				c1.1,1.9,2.4,4.8,2.2,8.1c-0.2,5-3.6,6.9-8.6,6.7l-12.3-0.5l0.1-2.8l2.4-0.2l0-0.1c-1.5-2-2.7-4.3-2.6-6.8
				C11.8,210.3,14,207.8,17.6,207.9z M16.7,220.4l5.6,0.2c-0.5-6.8-2-9.2-4.6-9.3c-2.3-0.1-3.3,1.4-3.4,3.4
				C14.2,216.7,15.1,218.4,16.7,220.4z"/>
			<path class="st0" d="M21.6,228.2c6.5-0.5,10.8,3.7,11.1,8.4c0.3,5.2-3.1,8.4-8.9,8.8c-0.7,0-1.4,0-1.9,0L21,231.6
				c-4.2,0.5-6.8,3.4-6.6,7.2c0.1,1.9,0.8,3.5,1.9,4.9l-2.1,1.4c-1.3-1.7-2.3-3.8-2.5-6.6C11.4,233.2,15,228.6,21.6,228.2z
				 M24.2,242.3c4-0.3,6.1-2.3,5.9-5.4c-0.2-2.9-2.6-5.2-6.6-5.4L24.2,242.3z"/>
			<path class="st0" d="M16.2,255.4l0-0.1l-2.1,0.1l-0.5-2.7l28.9-5.5l0.7,3.4l-7.9,1.5l-3.6,0.6c1.9,1.5,3.5,3.5,4,5.7
				c1,5.2-2.4,8.7-8.5,9.8c-6.7,1.3-11.5-2.1-12.4-6.6C14.4,259.8,15,257.5,16.2,255.4z M26.5,264.7c4.4-0.8,7-2.9,6.2-6.6
				c-0.3-1.7-1.6-3.3-3.8-4.8l-10.3,2c-1.2,2-1.4,3.9-1.1,5.2C18.2,263.8,21.6,265.7,26.5,264.7z"/>
			<path class="st0" d="M27.8,272.3c6.4-2.1,11.4,1,13,5.7c1.6,4.7-0.7,10.1-7.1,12.2c-6.3,2-11.4-1-13-5.7
				C19.2,279.8,21.5,274.4,27.8,272.3z M32.6,286.9c4.4-1.4,6.6-4.6,5.5-7.9c-1.1-3.3-4.8-4.6-9.2-3.2c-4.4,1.4-6.6,4.6-5.5,7.9
				S28.2,288.3,32.6,286.9z"/>
			<path class="st0" d="M30.2,296.9l23.4-9.8l1.4,3.2l-23.7,9.9c-1,0.4-1.2,1-1,1.4c0.1,0.2,0.1,0.3,0.4,0.7l-2.2,1.4
				c-0.4-0.4-0.7-0.9-1.1-1.7C26.4,299.6,27.5,298,30.2,296.9z"/>
			<path class="st0" d="M42.7,321.3l21.8-13l1.8,2.9l-22,13.1c-0.9,0.5-1,1.1-0.7,1.6c0.1,0.2,0.2,0.3,0.5,0.6l-2,1.7
				c-0.4-0.3-0.8-0.8-1.3-1.5C39.4,324.6,40.2,322.8,42.7,321.3z"/>
			<path class="st0" d="M52.3,325.8c5.4-3.9,11.3-2.6,14.3,1.3c3,4,2.5,9.8-2.9,13.7c-5.4,3.9-11.2,2.6-14.2-1.4
				C46.5,335.5,46.9,329.7,52.3,325.8z M61.6,338c3.7-2.7,4.9-6.4,2.7-9.2c-2.1-2.8-6.1-2.8-9.8-0.2c-3.7,2.7-4.8,6.4-2.7,9.2
				C53.9,340.6,57.8,340.7,61.6,338z"/>
			<path class="st0" d="M73.7,336.9l2,2.1l-1.9,2.2l0.1,0.1c2.7,0.1,5.3,0.6,7.2,2.6c3,3.1,2.3,6.3-1.5,9.8l-9.4,8.6l-2.4-2.5
				l9.1-8.3c2.8-2.5,3.2-4.4,1.3-6.4c-1.4-1.5-3.2-1.8-6.1-1.9l-10.8,9.8l-2.4-2.5L73.7,336.9z"/>
			<path class="st0" d="M70.8,368.2c1.1-1.3,3.1-1.8,5.3-1.5l0.1-0.1c-0.4-1.1-0.3-2.4,0.8-3.6c1.1-1.2,2.9-1.5,4.2-1.4l0.1-0.1
				c-0.3-1.6,0-3.9,1.6-5.7c2.9-3.3,7.4-3.1,10.6-0.5c0.9,0.7,1.5,1.5,1.9,2.2l5.4,4.5l-1.7,2l-3.2-2.7c0.1,1.3-0.3,2.9-1.5,4.2
				c-2.9,3.2-7.1,3.1-10.3,0.4c-0.8-0.6-1.5-1.5-1.9-2.5c-1,0-1.8,0.1-2.6,0.9c-0.8,1-0.8,2.2,1.3,3.9l3,2.5c3.6,3,4.5,5.7,2.3,8.1
				c-2.5,2.8-7.7,2.6-12.5-1.4C69.9,374.5,68.6,370.8,70.8,368.2z M83.3,377.3c1.2-1.4,0.6-2.8-1.5-4.5l-2.7-2.2
				c-0.6-0.5-1.3-1.2-1.8-1.9c-1.8-0.2-3.1,0.3-3.8,1.2c-1.4,1.6-0.6,4,2.2,6.4C78.6,378.7,81.9,378.8,83.3,377.3z M92.1,363.4
				c1.9-2.2,1.6-4.7-0.2-6.3s-4.5-1.5-6.4,0.7c-1.9,2.2-1.6,4.8,0.2,6.3S90.1,365.6,92.1,363.4z"/>
			<path class="st0" d="M111.7,381.2c3.2-5.7,9.1-7.1,13.3-4.9c4.6,2.4,5.4,7,2.5,12c-0.4,0.6-0.8,1.2-1.1,1.6l-12.1-6.4
				c-1.9,3.8-0.9,7.5,2.5,9.3c1.7,0.9,3.4,1.1,5.3,1l0,2.5c-2.1,0.2-4.5,0-7-1.3C110.3,392.4,108.4,387,111.7,381.2z M125,386.4
				c2-3.5,1.4-6.3-1.4-7.8c-2.5-1.3-5.9-0.6-8.2,2.7L125,386.4z"/>
			<path class="st0" d="M133,381l3.3,1.3l-0.9,11.9c-0.2,2-0.4,4.2-0.6,6.1l0.2,0.1c1.3-1.5,2.7-3.2,4.1-4.8l8.1-9.1l3.1,1.2
				l-14.6,15.8l-3.7-1.5L133,381z"/>
			<path class="st0" d="M152.7,388.5l2.7,0.8l-0.9,3.6l0.1,0c2.1-2,4.6-2.9,6.8-2.3c0.9,0.3,1.4,0.5,2,1l-1.5,2.7
				c-0.6-0.4-1-0.6-1.8-0.9c-1.6-0.5-4,0.1-6.4,2.9l-4,12.3l-3.3-1L152.7,388.5z"/>
			<path class="st0" d="M166.7,392.4l3.4,0.8l-4.9,19.5l-3.4-0.8L166.7,392.4z M167.6,386.1c0.3-1.3,1.5-1.9,2.8-1.6
				c1.3,0.3,2.1,1.4,1.8,2.7c-0.3,1.2-1.5,1.9-2.8,1.6C168.1,388.5,167.3,387.4,167.6,386.1z"/>
			<path class="st0" d="M186.5,412.1l3-25.2l3.4,0.3l-3,25.5c-0.1,1,0.3,1.5,0.8,1.5c0.2,0,0.4,0,0.8,0l0.2,2.6
				c-0.5,0.1-1.1,0.2-2,0.1C187,416.7,186.1,415,186.5,412.1z"/>
			<path class="st0" d="M196.7,412c0.1-4.4,4-6.5,12.7-7.3c0.1-2.6-0.7-5.1-4-5.1c-2.4,0-4.5,1-6.1,2.1l-1.3-2.4
				c1.9-1.2,4.8-2.5,8.1-2.5c5,0.1,7,3.4,6.8,8.4l-0.4,12.3l-2.8,0l-0.2-2.4l-0.1,0c-2,1.6-4.3,2.8-6.8,2.8
				C199.1,417.7,196.6,415.6,196.7,412z M209.2,412.5l0.2-5.6c-6.8,0.7-9.2,2.3-9.3,4.9c-0.1,2.3,1.5,3.2,3.5,3.3
				C205.5,415.1,207.2,414.2,209.2,412.5z"/>
			<path class="st0" d="M216.7,397.2l2.8-0.2l0.5,2.9l0.1,0c1.8-2,3.7-3.7,6.5-4c4.3-0.4,6.4,2.2,6.8,7.3l1,12.7l-3.4,0.3l-1-12.2
				c-0.3-3.7-1.6-5.2-4.3-5c-2.1,0.2-3.4,1.4-5.3,3.6l1.2,14.5l-3.4,0.3L216.7,397.2z"/>
			<path class="st0" d="M239.7,419.1c-0.3-1.7,0.5-3.5,2.1-5l0-0.2c-1.1-0.4-2.1-1.3-2.4-2.9c-0.3-1.6,0.6-3.2,1.5-4.1l0-0.2
				c-1.5-0.8-3.2-2.4-3.6-4.8c-0.8-4.3,2.1-7.7,6.1-8.5c1.1-0.2,2.1-0.2,2.9-0.1l7-1.4l0.5,2.6l-4.1,0.8c1.1,0.7,2.1,2.1,2.4,3.7
				c0.8,4.2-1.9,7.5-6,8.3c-1,0.2-2.1,0.2-3.1-0.1c-0.6,0.7-1,1.5-0.8,2.6c0.2,1.3,1.2,2,3.9,1.5l3.9-0.8c4.6-0.9,7.2,0.1,7.9,3.3
				c0.7,3.7-2.6,7.6-8.8,8.8C244.1,423.7,240.4,422.4,239.7,419.1z M248.9,399.6c-0.6-2.9-2.8-4.2-5.1-3.8c-2.4,0.5-3.9,2.5-3.3,5.4
				c0.6,2.9,2.9,4.3,5.1,3.9S249.5,402.5,248.9,399.6z M254.5,415.1c-0.4-1.8-1.9-2.2-4.5-1.7l-3.4,0.7c-0.8,0.1-1.7,0.3-2.6,0.2
				c-1.2,1.3-1.6,2.6-1.4,3.7c0.4,2.1,2.8,3,6.5,2.3C252.8,419.6,254.9,417.1,254.5,415.1z"/>
			<path class="st0" d="M261.9,414.4c-0.5-1.6,0.1-3.5,1.5-5.2l0-0.2c-1.2-0.3-2.3-1.1-2.7-2.6c-0.5-1.6,0.2-3.2,1-4.2l0-0.2
				c-1.6-0.6-3.4-2.1-4.1-4.4c-1.3-4.2,1.2-7.8,5.1-9.1c1.1-0.3,2.1-0.4,2.9-0.4l6.8-2.1l0.8,2.5l-4,1.2c1.2,0.6,2.3,1.8,2.8,3.5
				c1.3,4.1-1,7.6-5,8.8c-0.9,0.3-2.1,0.4-3.1,0.2c-0.5,0.8-0.9,1.6-0.5,2.6c0.4,1.2,1.5,1.8,4.1,1l3.8-1.2c4.5-1.4,7.2-0.7,8.2,2.5
				c1.1,3.6-1.7,7.8-7.7,9.6C266.8,418.6,262.9,417.7,261.9,414.4z M268.8,394.2c-0.9-2.8-3.3-3.9-5.5-3.2c-2.3,0.7-3.6,2.9-2.7,5.7
				c0.9,2.8,3.3,4,5.6,3.3C268.4,399.4,269.7,397,268.8,394.2z M276.2,408.9c-0.6-1.8-2.1-2-4.7-1.2l-3.4,1
				c-0.7,0.2-1.7,0.4-2.6,0.5c-1.1,1.4-1.3,2.7-1,3.8c0.7,2.1,3.2,2.7,6.7,1.6C275,413.6,276.9,410.9,276.2,408.9z"/>
			<path class="st0" d="M281.2,396.3l-5.3-11.6l3.1-1.4l5.1,11.2c1.6,3.4,3.3,4.4,5.7,3.3c1.9-0.8,2.8-2.4,3.6-5.3l-6-12.9l3.1-1.4
				l8.4,18.2l-2.6,1.2l-1.6-2.7l-0.1,0c-0.8,2.8-2.1,4.9-4.6,6C286.2,402.7,283.3,401,281.2,396.3z"/>
			<path class="st0" d="M291.7,370.4c-0.7-1.2-0.2-2.4,1-3c1.2-0.6,2.5-0.4,3.2,0.8c0.6,1.1,0.2,2.4-1,3
				C293.7,371.8,292.3,371.5,291.7,370.4z M295.4,375.6l3-1.7l10,17.5l-3,1.7L295.4,375.6z"/>
			<path class="st0" d="M310.1,387.9l0.2-2.8c2.3,0.2,4.3,0.1,6.4-1.2c2.3-1.4,2.6-3.3,1.7-4.7c-1.1-1.7-3.7-1.2-6-0.7
				c-3,0.7-6.5,1.2-8.3-1.6c-1.8-2.7-0.9-6.1,2.8-8.5c2.1-1.4,4.6-1.7,6.6-1.5l-0.2,2.7c-1.7-0.1-3.4,0-4.9,1
				c-2.2,1.4-2.4,3.1-1.6,4.4c1.1,1.6,3.3,1,5.7,0.5c3.1-0.7,6.5-1.4,8.6,1.8c1.8,2.7,1.1,6.4-3,8.9
				C315.6,387.7,312.6,388.2,310.1,387.9z"/>
			<path class="st0" d="M343.8,363.4L343.8,363.4l1.2,1.8l-2,1.9l-20.8-20.8l2.5-2.4l5.7,5.7l2.5,2.6c0.2-2.4,1-4.8,2.6-6.4
				c3.8-3.6,8.7-2.7,13.1,1.7c4.9,4.8,4.7,10.5,1.3,13.7C348.5,362.5,346.3,363.3,343.8,363.4z M346,349.9c-3.1-3.1-6.4-4.2-9.1-1.5
				c-1.2,1.2-1.9,3.1-2,5.7l7.5,7.4c2.4-0.2,4.1-1,5.1-1.9C349.8,357.3,349.5,353.4,346,349.9z"/>
			<path class="st0" d="M356.4,347.9l-19.5-16.3l2.3-2.6l19.7,16.5c0.8,0.7,1.4,0.6,1.8,0.2c0.1-0.1,0.2-0.3,0.4-0.6l2.3,1.3
				c-0.2,0.5-0.5,1-1.1,1.7C360.5,350.1,358.6,349.8,356.4,347.9z"/>
			<path class="st0" d="M357,338.4c-5.5-3.9-6-9.6-3-13.6c3-4,8.8-5.3,14.3-1.4c5.4,3.8,5.9,9.6,2.9,13.6
				C368.2,340.9,362.4,342.3,357,338.4z M366.2,326.2c-3.8-2.7-7.7-2.6-9.8,0.2c-2.1,2.8-1,6.5,2.8,9.2c3.8,2.7,7.7,2.5,9.8-0.3
				C371,332.5,369.9,328.8,366.2,326.2z"/>
			<path class="st0" d="M362,314.5l1.4-2.5l2.7,1.1l0.1-0.1c-0.7-2.6-1-5.1,0.4-7.5c2.1-3.7,5.5-4.1,10-1.6l11.2,6.1l-1.7,3
				l-10.8-5.8c-3.3-1.8-5.3-1.6-6.6,0.8c-1,1.8-0.8,3.5-0.1,6.3l12.8,6.9l-1.7,3L362,314.5z"/>
			<path class="st0" d="M393.9,306.5c-1.6-0.6-2.7-2.3-3-4.4l-0.2-0.1c-1,0.7-2.3,1-3.8,0.4c-1.5-0.6-2.3-2.2-2.6-3.4l-0.2-0.1
				c-1.5,0.8-3.8,1.3-6.1,0.4c-4.1-1.6-5.2-5.9-3.6-9.7c0.4-1,1.1-1.9,1.6-2.4l2.8-6.5l2.4,1l-1.7,3.8c1.2-0.5,2.9-0.6,4.5,0
				c4,1.6,5.2,5.6,3.5,9.4c-0.4,0.9-1.1,1.8-1.8,2.5c0.3,0.9,0.7,1.7,1.7,2.1c1.2,0.5,2.4,0,3.4-2.5l1.6-3.6c1.9-4.3,4.2-6,7.3-4.7
				c3.5,1.4,4.9,6.3,2.4,12C400.2,305.3,397.1,307.8,393.9,306.5z M382.9,288.3c-2.7-1.1-5.1,0-6.1,2.2c-1,2.2-0.1,4.6,2.6,5.7
				c2.7,1.1,5.2,0,6.2-2.2C386.5,291.9,385.6,289.4,382.9,288.3z M399,292c-1.7-0.7-2.9,0.4-3.9,2.8l-1.4,3.2
				c-0.3,0.7-0.8,1.6-1.3,2.3c0.4,1.7,1.2,2.7,2.3,3.2c2,0.8,4.1-0.7,5.6-4.1C401.8,295.9,401,292.8,399,292z"/>
			<path class="st0" d="M412.3,268l-2.5-1.1c0.2-0.4,0.5-1,0.6-1.5c0.4-2.3-1.1-4-3.4-5.3l-1.4-0.7l-21.4,4.5l0.7-3.5l11.8-2.1
				c1.8-0.3,4-0.6,6-1l0-0.2c-1.7-0.9-3.6-1.8-5.2-2.7l-10.2-5.5l0.7-3.3l19.9,11.3c3.6,2.1,6.2,4.7,5.4,8.7
				C413,266.6,412.6,267.4,412.3,268z"/>
			<path class="st0" d="M400.8,243.7l-12.7-0.8l0.3-3.4l12.3,0.8c3.7,0.2,5.4-0.8,5.6-3.5c0.2-2.1-0.7-3.6-3-5.6l-14.2-0.9l0.3-3.4
				l20,1.3l-0.2,2.8L406,231l0,0.1c2,2,3.3,4.1,3.1,6.9C408.8,242.3,406,244.1,400.8,243.7z"/>
			<path class="st0" d="M389.8,222l-0.2-2.8l2.9-0.5l0-0.1c-2-1.6-3.7-3.6-3.9-6c-0.3-3.1,1.1-4.9,3.4-5.9c-2.4-1.9-4.2-3.9-4.4-6.4
				c-0.3-4.2,2.2-6.4,7.3-6.8l12.7-1.1l0.3,3.4l-12.2,1.1c-3.7,0.3-5.2,1.7-5,4.2c0.1,1.6,1.3,3.1,3.5,4.8l14.5-1.2l0.3,3.4
				l-12.2,1.1c-3.7,0.3-5.2,1.7-5,4.2c0.1,1.5,1.3,3.1,3.5,4.8l14.5-1.2l0.3,3.4L389.8,222z"/>
			<path class="st0" d="M380.2,192c-1.3,0.3-2.4-0.6-2.6-1.9c-0.3-1.3,0.4-2.5,1.7-2.8c1.3-0.3,2.4,0.6,2.6,1.9
				C382.1,190.6,381.5,191.8,380.2,192z M386.3,190.2l-0.7-3.4l19.7-3.9l0.7,3.4L386.3,190.2z"/>
		</g>
	</g>
</g>
<g id="Bottom_Text_2_Outlines">
	<g>
		<path class="st0" d="M42.8,188.4l-1.4,8c-1,5.5-3.5,9-8.2,8.3c-2.6-0.4-4.8-2.2-5.1-4.9l-0.2,0c-1.2,3.1-3.7,5.1-7.4,4.5
			c-5.3-0.8-7.1-5.4-6-11.5l1.5-8.6L42.8,188.4z M17.3,192.8c-0.8,4.6,0.4,7.6,4,8.2c3.3,0.5,5.3-1.9,6.1-6.6l0.8-4.7l-10.1-1.6
			L17.3,192.8z M30.1,194.1c-0.8,4.6,0.5,6.8,3.2,7.2c3.1,0.5,4.7-1.5,5.4-5.7l0.7-4.2l-8.7-1.4L30.1,194.1z"/>
		<path class="st0" d="M17.6,207.9c4.4,0.2,6.4,4.1,6.9,12.8c2.6,0.1,5.1-0.7,5.3-4c0.1-2.3-0.9-4.5-1.9-6.1l2.4-1.3
			c1.1,1.9,2.4,4.8,2.2,8.1c-0.2,5-3.6,6.9-8.6,6.7l-12.3-0.5l0.1-2.8l2.4-0.2l0-0.1c-1.5-2-2.7-4.3-2.6-6.8
			C11.8,210.2,14,207.7,17.6,207.9z M16.7,220.3l5.6,0.2c-0.5-6.8-2-9.2-4.6-9.3c-2.3-0.1-3.3,1.4-3.4,3.4
			C14.2,216.7,15.1,218.3,16.7,220.3z"/>
		<path class="st0" d="M21.6,228.1c6.5-0.5,10.8,3.7,11.1,8.4c0.3,5.2-3.1,8.4-8.9,8.8c-0.7,0.1-1.4,0-1.9,0L21,231.6
			c-4.2,0.5-6.8,3.4-6.6,7.2c0.1,1.9,0.8,3.5,1.9,4.9l-2.1,1.4c-1.3-1.7-2.3-3.8-2.5-6.6C11.4,233.2,15,228.6,21.6,228.1z
			 M24.2,242.2c4-0.3,6.1-2.3,5.9-5.4c-0.2-2.9-2.6-5.2-6.6-5.4L24.2,242.2z"/>
		<path class="st0" d="M16.2,255.4l0-0.1l-2.1,0.1l-0.5-2.7l28.9-5.5l0.7,3.4l-7.9,1.5l-3.6,0.6c1.9,1.5,3.5,3.5,4,5.7
			c1,5.2-2.4,8.7-8.5,9.8c-6.7,1.3-11.5-2.1-12.4-6.6C14.4,259.7,15,257.5,16.2,255.4z M26.5,264.7c4.4-0.8,7-2.9,6.2-6.6
			c-0.3-1.7-1.6-3.3-3.7-4.8l-10.3,2c-1.2,2-1.4,3.9-1.1,5.2C18.2,263.7,21.6,265.6,26.5,264.7z"/>
		<path class="st0" d="M27.8,272.3c6.4-2.1,11.4,1,13,5.7c1.6,4.7-0.7,10.1-7.1,12.2c-6.3,2-11.4-1-13-5.7
			C19.2,279.7,21.5,274.3,27.8,272.3z M32.6,286.8c4.4-1.4,6.6-4.6,5.5-7.9c-1.1-3.3-4.8-4.6-9.2-3.2c-4.4,1.4-6.6,4.6-5.5,7.9
			C24.6,286.9,28.2,288.2,32.6,286.8z"/>
		<path class="st0" d="M30.2,296.8l23.4-9.8l1.4,3.2l-23.7,9.9c-1,0.4-1.2,1-1,1.4c0.1,0.2,0.1,0.3,0.4,0.7l-2.2,1.4
			c-0.4-0.4-0.7-0.9-1.1-1.7C26.4,299.5,27.5,297.9,30.2,296.8z"/>
		<path class="st0" d="M42.7,321.3l21.8-13l1.8,2.9l-22,13.1c-0.9,0.5-1,1.1-0.7,1.6c0.1,0.2,0.2,0.3,0.5,0.6l-2,1.7
			c-0.4-0.3-0.8-0.8-1.3-1.5C39.4,324.5,40.2,322.8,42.7,321.3z"/>
		<path class="st0" d="M52.3,325.7c5.4-3.9,11.3-2.6,14.3,1.3c3,4,2.5,9.8-2.9,13.7c-5.4,3.9-11.2,2.6-14.2-1.4
			C46.5,335.4,46.9,329.6,52.3,325.7z M61.6,337.9c3.7-2.7,4.9-6.4,2.7-9.2c-2.1-2.8-6.1-2.8-9.8-0.2c-3.7,2.7-4.8,6.4-2.7,9.2
			C53.9,340.5,57.8,340.6,61.6,337.9z"/>
		<path class="st0" d="M73.7,336.9l2,2.1l-1.9,2.2l0.1,0.1c2.7,0.1,5.3,0.6,7.2,2.6c3,3.1,2.3,6.3-1.5,9.8l-9.4,8.6l-2.4-2.5
			l9.1-8.3c2.8-2.5,3.2-4.4,1.3-6.4c-1.4-1.5-3.2-1.8-6.1-1.9l-10.8,9.8l-2.4-2.5L73.7,336.9z"/>
		<path class="st0" d="M70.8,368.2c1.1-1.3,3.1-1.8,5.3-1.5l0.1-0.1c-0.4-1.1-0.3-2.4,0.8-3.6c1.1-1.2,2.9-1.5,4.2-1.4l0.1-0.1
			c-0.3-1.6,0-3.9,1.6-5.7c2.9-3.3,7.4-3.1,10.6-0.5c0.9,0.7,1.5,1.5,1.9,2.2l5.4,4.5l-1.7,2l-3.2-2.7c0.1,1.3-0.3,2.9-1.5,4.2
			c-2.9,3.2-7.1,3.1-10.3,0.4c-0.8-0.6-1.5-1.5-1.9-2.5c-1,0-1.8,0.1-2.6,0.9c-0.8,1-0.8,2.2,1.3,3.9l3,2.5c3.6,3,4.5,5.7,2.3,8.1
			c-2.5,2.8-7.7,2.6-12.5-1.4C69.9,374.4,68.5,370.8,70.8,368.2z M83.3,377.2c1.2-1.4,0.6-2.8-1.5-4.5l-2.7-2.2
			c-0.6-0.5-1.3-1.2-1.8-1.9c-1.8-0.2-3.1,0.3-3.8,1.2c-1.4,1.6-0.6,4,2.2,6.4C78.6,378.6,81.9,378.8,83.3,377.2z M92.1,363.4
			c1.9-2.2,1.6-4.7-0.2-6.3s-4.5-1.5-6.4,0.7c-1.9,2.2-1.6,4.8,0.2,6.3S90.1,365.6,92.1,363.4z"/>
		<path class="st0" d="M111.7,381.2c3.2-5.7,9.1-7.1,13.3-4.9c4.6,2.4,5.4,7,2.5,12c-0.4,0.6-0.8,1.2-1.1,1.6l-12.1-6.4
			c-1.9,3.8-0.9,7.5,2.5,9.3c1.7,0.9,3.4,1.1,5.3,1l0,2.5c-2.1,0.2-4.5,0-7-1.3C110.3,392.4,108.4,386.9,111.7,381.2z M125,386.4
			c2-3.5,1.4-6.3-1.4-7.8c-2.5-1.3-5.9-0.6-8.2,2.7L125,386.4z"/>
		<path class="st0" d="M133,381l3.3,1.3l-0.9,11.9c-0.2,2-0.4,4.2-0.6,6.1l0.2,0.1c1.3-1.5,2.7-3.2,4.1-4.8l8.1-9.1l3.1,1.2
			l-14.6,15.8l-3.7-1.5L133,381z"/>
		<path class="st0" d="M152.7,388.5l2.7,0.8l-0.9,3.6l0.1,0c2.1-2,4.6-2.9,6.8-2.3c0.9,0.3,1.4,0.5,1.9,1l-1.5,2.7
			c-0.6-0.4-1-0.6-1.8-0.9c-1.6-0.5-4,0.1-6.4,2.9l-4,12.3l-3.3-1L152.7,388.5z"/>
		<path class="st0" d="M166.7,392.4l3.4,0.8l-4.9,19.5l-3.4-0.8L166.7,392.4z M167.6,386.1c0.3-1.3,1.5-1.9,2.8-1.6
			c1.3,0.3,2.1,1.4,1.8,2.7c-0.3,1.2-1.5,1.9-2.8,1.6C168.1,388.4,167.3,387.3,167.6,386.1z"/>
		<path class="st0" d="M186.5,412l3-25.2l3.4,0.3l-3,25.5c-0.1,1,0.3,1.5,0.8,1.5c0.2,0,0.4,0,0.8,0l0.2,2.6c-0.5,0.1-1.1,0.2-2,0.1
			C187,416.7,186.1,414.9,186.5,412z"/>
		<path class="st0" d="M196.7,411.9c0.1-4.4,4-6.5,12.7-7.3c0.1-2.6-0.7-5.1-4-5.1c-2.4,0-4.5,1-6.1,2.1l-1.3-2.4
			c1.9-1.2,4.8-2.5,8.1-2.5c5,0.1,7,3.4,6.8,8.4l-0.4,12.3l-2.8,0l-0.2-2.4l-0.1,0c-2,1.6-4.3,2.8-6.8,2.8
			C199.1,417.7,196.6,415.5,196.7,411.9z M209.2,412.4l0.2-5.6c-6.8,0.7-9.2,2.3-9.3,4.9c-0.1,2.3,1.5,3.2,3.5,3.3
			C205.5,415,207.2,414.1,209.2,412.4z"/>
		<path class="st0" d="M216.7,397.2l2.8-0.3l0.5,2.9l0.1,0c1.8-2,3.7-3.7,6.5-4c4.3-0.4,6.4,2.2,6.8,7.3l1,12.7l-3.4,0.3l-1-12.2
			c-0.3-3.7-1.6-5.2-4.3-5c-2.1,0.2-3.4,1.4-5.3,3.6l1.2,14.5l-3.4,0.3L216.7,397.2z"/>
		<path class="st0" d="M239.7,419c-0.3-1.7,0.5-3.5,2.1-5l0-0.2c-1.1-0.4-2.1-1.3-2.4-2.9c-0.3-1.6,0.6-3.2,1.5-4.1l0-0.2
			c-1.5-0.8-3.2-2.4-3.6-4.8c-0.8-4.3,2.1-7.7,6.1-8.5c1.1-0.2,2.1-0.2,2.9-0.1l7-1.4l0.5,2.6l-4.1,0.8c1.1,0.7,2.1,2.1,2.4,3.7
			c0.8,4.2-1.9,7.5-6,8.3c-1,0.2-2.1,0.2-3.1-0.1c-0.6,0.7-1,1.5-0.8,2.6c0.2,1.3,1.2,2,3.9,1.5l3.9-0.8c4.6-0.9,7.2,0.1,7.9,3.3
			c0.7,3.7-2.6,7.6-8.8,8.8C244.1,423.6,240.4,422.4,239.7,419z M248.9,399.6c-0.6-2.9-2.8-4.2-5.1-3.8c-2.4,0.5-3.9,2.5-3.3,5.4
			c0.6,2.9,2.9,4.3,5.1,3.9C247.9,404.6,249.4,402.5,248.9,399.6z M254.5,415c-0.4-1.8-1.9-2.2-4.5-1.7l-3.4,0.7
			c-0.8,0.1-1.7,0.3-2.6,0.2c-1.2,1.3-1.6,2.6-1.4,3.7c0.4,2.1,2.8,3,6.5,2.3C252.8,419.5,254.9,417.1,254.5,415z"/>
		<path class="st0" d="M261.9,414.4c-0.5-1.6,0.1-3.5,1.5-5.2l0-0.2c-1.2-0.3-2.3-1.1-2.7-2.6c-0.5-1.6,0.2-3.2,1-4.2l0-0.2
			c-1.6-0.6-3.4-2.1-4.1-4.4c-1.3-4.2,1.2-7.9,5.1-9.1c1.1-0.3,2.1-0.4,2.9-0.4l6.8-2.1l0.8,2.5l-4,1.2c1.2,0.6,2.3,1.8,2.8,3.5
			c1.3,4.1-1,7.6-5,8.8c-0.9,0.3-2.1,0.4-3.1,0.2c-0.5,0.8-0.9,1.6-0.5,2.6c0.4,1.2,1.5,1.8,4.1,1l3.8-1.2c4.5-1.4,7.2-0.7,8.2,2.5
			c1.1,3.6-1.7,7.8-7.7,9.6C266.8,418.5,262.9,417.7,261.9,414.4z M268.8,394.2c-0.9-2.8-3.3-3.9-5.5-3.2c-2.3,0.7-3.6,2.9-2.7,5.7
			c0.9,2.8,3.3,4,5.6,3.3C268.4,399.3,269.7,397,268.8,394.2z M276.2,408.9c-0.6-1.8-2.1-2-4.7-1.2l-3.4,1c-0.7,0.2-1.7,0.4-2.6,0.5
			c-1.1,1.4-1.3,2.7-1,3.8c0.7,2.1,3.2,2.7,6.7,1.6C275,413.5,276.9,410.9,276.2,408.9z"/>
		<path class="st0" d="M281.2,396.3l-5.3-11.6l3.1-1.4l5.1,11.2c1.6,3.4,3.3,4.4,5.7,3.3c1.9-0.8,2.8-2.4,3.6-5.3l-6-12.9l3.1-1.4
			l8.4,18.2l-2.6,1.2l-1.6-2.7l-0.1,0c-0.8,2.8-2.1,4.9-4.6,6C286.2,402.6,283.3,400.9,281.2,396.3z"/>
		<path class="st0" d="M291.7,370.3c-0.7-1.2-0.2-2.4,1-3c1.2-0.6,2.5-0.4,3.2,0.8c0.6,1.1,0.2,2.4-1,3
			C293.7,371.7,292.3,371.5,291.7,370.3z M295.4,375.5l3-1.7l10,17.5l-3,1.7L295.4,375.5z"/>
		<path class="st0" d="M310.1,387.8l0.2-2.8c2.3,0.2,4.3,0.1,6.4-1.2c2.3-1.4,2.6-3.3,1.7-4.7c-1.1-1.7-3.7-1.2-6-0.7
			c-3,0.7-6.5,1.2-8.3-1.6c-1.8-2.7-0.9-6.2,2.8-8.5c2.1-1.4,4.6-1.7,6.6-1.5l-0.2,2.7c-1.7-0.1-3.4,0-4.9,1
			c-2.2,1.4-2.4,3.1-1.6,4.4c1.1,1.6,3.3,1,5.7,0.5c3.1-0.7,6.5-1.4,8.6,1.8c1.8,2.7,1.1,6.4-3,8.9
			C315.6,387.7,312.6,388.1,310.1,387.8z"/>
		<path class="st0" d="M343.8,363.3L343.8,363.3l1.2,1.8l-2,1.9l-20.8-20.8l2.5-2.4l5.7,5.7l2.5,2.6c0.2-2.4,1-4.8,2.6-6.4
			c3.8-3.6,8.7-2.7,13.1,1.7c4.9,4.8,4.7,10.5,1.3,13.7C348.5,362.5,346.3,363.2,343.8,363.3z M346,349.9c-3.1-3.1-6.4-4.2-9.1-1.5
			c-1.2,1.2-1.9,3.1-2,5.7l7.5,7.4c2.4-0.2,4.1-1,5.1-1.9C349.8,357.2,349.5,353.4,346,349.9z"/>
		<path class="st0" d="M356.3,347.9l-19.5-16.3l2.3-2.6l19.7,16.5c0.8,0.7,1.4,0.6,1.8,0.2c0.1-0.1,0.2-0.3,0.4-0.6l2.3,1.3
			c-0.2,0.5-0.5,1-1.1,1.7C360.5,350,358.6,349.8,356.3,347.9z"/>
		<path class="st0" d="M357,338.4c-5.5-3.9-6-9.6-3-13.6c3-4,8.8-5.3,14.3-1.4c5.4,3.8,5.9,9.6,2.9,13.6S362.4,342.2,357,338.4z
			 M366.1,326.1c-3.8-2.7-7.7-2.6-9.8,0.2c-2.1,2.8-1,6.5,2.8,9.2c3.8,2.7,7.7,2.5,9.8-0.3C371,332.5,369.9,328.8,366.1,326.1z"/>
		<path class="st0" d="M362,314.5l1.4-2.5l2.7,1.1l0.1-0.1c-0.7-2.6-1-5.1,0.4-7.5c2.1-3.7,5.5-4.1,10-1.6l11.2,6.1l-1.7,3
			l-10.8-5.8c-3.3-1.8-5.3-1.6-6.6,0.8c-1,1.8-0.8,3.5-0.1,6.3l12.8,6.9l-1.7,3L362,314.5z"/>
		<path class="st0" d="M393.9,306.4c-1.6-0.6-2.7-2.3-3-4.4l-0.2-0.1c-1,0.7-2.3,1-3.8,0.4c-1.5-0.6-2.3-2.2-2.6-3.4l-0.2-0.1
			c-1.5,0.8-3.8,1.3-6.1,0.4c-4.1-1.6-5.2-5.9-3.6-9.7c0.4-1,1.1-1.9,1.6-2.4l2.8-6.5l2.4,1l-1.7,3.8c1.2-0.5,2.9-0.6,4.5,0
			c4,1.6,5.2,5.6,3.5,9.4c-0.4,0.9-1.1,1.8-1.8,2.5c0.3,0.9,0.7,1.7,1.7,2.1c1.2,0.5,2.4,0,3.4-2.5l1.6-3.6c1.9-4.3,4.2-6,7.3-4.7
			c3.5,1.4,4.9,6.3,2.4,12C400.2,305.3,397.1,307.7,393.9,306.4z M382.9,288.3c-2.7-1.1-5.1,0-6.1,2.2c-1,2.2-0.1,4.6,2.6,5.7
			c2.7,1.1,5.2,0,6.2-2.2C386.5,291.9,385.6,289.4,382.9,288.3z M399,292c-1.7-0.7-2.9,0.4-3.9,2.8l-1.4,3.2
			c-0.3,0.7-0.8,1.6-1.3,2.3c0.4,1.7,1.2,2.7,2.3,3.2c2,0.8,4.1-0.7,5.6-4.1C401.8,295.8,400.9,292.7,399,292z"/>
		<path class="st0" d="M412.3,267.9l-2.5-1.1c0.2-0.4,0.5-1,0.6-1.5c0.4-2.3-1.1-4-3.4-5.3l-1.4-0.7l-21.4,4.5l0.7-3.5l11.8-2.1
			c1.8-0.3,4-0.6,6-1l0-0.2c-1.7-0.9-3.6-1.8-5.2-2.7l-10.2-5.5l0.7-3.3l19.9,11.3c3.6,2.1,6.2,4.7,5.4,8.7
			C412.9,266.6,412.6,267.3,412.3,267.9z"/>
		<path class="st0" d="M400.8,243.7l-12.7-0.8l0.3-3.4l12.3,0.8c3.7,0.2,5.4-0.8,5.6-3.5c0.2-2.1-0.7-3.6-3-5.6l-14.2-0.9l0.3-3.4
			l20,1.3l-0.2,2.8L406,231l0,0.1c2,2,3.3,4.1,3.1,6.9C408.8,242.3,405.9,244,400.8,243.7z"/>
		<path class="st0" d="M389.8,221.9l-0.2-2.8l2.9-0.5l0-0.1c-2-1.6-3.7-3.6-3.9-6c-0.3-3.1,1.1-4.9,3.4-5.9
			c-2.4-1.9-4.2-3.9-4.4-6.4c-0.3-4.2,2.2-6.4,7.3-6.8l12.7-1.1l0.3,3.4l-12.2,1.1c-3.7,0.3-5.2,1.7-5,4.2c0.1,1.6,1.3,3.1,3.5,4.8
			l14.5-1.2l0.3,3.4l-12.2,1.1c-3.7,0.3-5.2,1.7-5,4.2c0.1,1.5,1.3,3.1,3.5,4.8l14.5-1.2l0.3,3.4L389.8,221.9z"/>
		<path class="st0" d="M380.2,192c-1.3,0.3-2.4-0.6-2.6-1.9c-0.3-1.3,0.4-2.5,1.7-2.8c1.3-0.2,2.4,0.6,2.6,1.9
			C382.1,190.5,381.4,191.7,380.2,192z M386.3,190.1l-0.7-3.4l19.7-3.9l0.7,3.4L386.3,190.1z"/>
	</g>
</g>
<g id="SITAG" class="st1">
	<g id="text818" class="st2">
		<path id="path843" class="st0" d="M139.3,19.8l1.5,3.5c-1.7-0.1-3.2,0-4.5,0.2c-1.4,0.2-2.6,0.5-3.8,1c-2,0.8-3.3,1.9-4.1,3.1
			c-0.7,1.2-0.8,2.5-0.2,4c0.5,1.2,1.2,1.9,2.2,2.3c1,0.3,2.5,0.2,4.7-0.3l2.4-0.5c2.9-0.6,5.3-0.6,7.1,0.2c1.8,0.8,3.2,2.2,4.1,4.4
			c1.1,2.6,1,4.9-0.1,7c-1.2,2.1-3.4,3.8-6.8,5.2c-1.3,0.5-2.7,1-4.3,1.3c-1.5,0.3-3.2,0.5-5,0.6l-1.6-3.7c1.8,0.2,3.5,0.2,5.1,0
			c1.6-0.2,3.1-0.6,4.4-1.1c2.1-0.9,3.5-2,4.3-3.2c0.8-1.3,0.9-2.7,0.2-4.2c-0.6-1.3-1.4-2.2-2.5-2.6c-1.1-0.4-2.7-0.4-4.7,0
			l-2.4,0.5c-2.9,0.6-5.3,0.6-7-0.1c-1.7-0.6-3-2-3.8-4c-1-2.4-1-4.6,0.1-6.7c1.1-2.1,3.1-3.7,6.1-5c1.3-0.5,2.6-1,4-1.3
			C136.3,20.2,137.7,20,139.3,19.8L139.3,19.8z"/>
		<path id="path845" class="st0" d="M167.5,10.8l3.9-0.8l5.8,28.6l-3.9,0.8L167.5,10.8z"/>
		<path id="path847" class="st0" d="M196.4,6.5l24.7-0.3l0,3.3l-10.4,0.1l0.4,25.8l-4,0.1l-0.4-25.8l-10.4,0.1L196.4,6.5z"/>
		<path id="path849" class="st0" d="M253,14.9l-8.3,13l10.5,2.3L253,14.9z M251.7,10.7l4.4,1l4.7,30.9l-4-0.9l-1-7.9l-12.8-2.8
			l-4.2,6.7l-4.1-0.9L251.7,10.7z"/>
		<path id="path851" class="st0" d="M298.8,54.6l3.5-7l-5.7-2.9l1.5-2.9l9.2,4.7l-5.7,11.2c-1.8,0.3-3.7,0.2-5.6-0.1
			c-1.9-0.3-3.8-1-5.6-1.9c-4.1-2.1-6.6-4.9-7.7-8.4c-1.1-3.5-0.5-7.4,1.6-11.7c2.2-4.3,5-7,8.5-8.2c3.5-1.2,7.3-0.8,11.4,1.3
			c1.7,0.9,3.2,1.9,4.5,3.1c1.3,1.2,2.4,2.5,3.3,4l-1.9,3.7c-0.7-1.8-1.7-3.3-2.9-4.6c-1.2-1.3-2.6-2.4-4.2-3.2
			c-3.2-1.6-6-1.9-8.5-1c-2.5,1-4.6,3.2-6.4,6.7c-1.8,3.5-2.3,6.6-1.6,9.1c0.7,2.6,2.6,4.7,5.8,6.3c1.2,0.6,2.4,1.1,3.5,1.4
			C296.7,54.5,297.8,54.6,298.8,54.6z"/>
	</g>
</g>
<g id="SITAG_Bold" class="st1">
	<g class="st2">
		<g>
			<path class="st0" d="M130,50.8l1.7-5.8c2.6,0.9,5.6,1,7.9,0.1c2.6-1.1,3.4-2.6,2.7-4.3c-0.7-1.7-2.5-1.6-5.3-1.6l-4.2,0
				c-3.3,0-6.9-1.2-8.6-5.2c-1.9-4.6,0.5-9.9,6.2-12.3c3.1-1.3,6.9-1.4,10.2,0l-1.4,5.2c-2.4-0.6-4.4-0.7-6.5,0.2
				c-2.1,0.9-3.1,2.4-2.4,3.9c0.7,1.7,2.7,1.6,5.5,1.5l4.1,0c3.9,0,6.9,1.3,8.5,5.3c1.9,4.6-0.1,10.1-6.6,12.9
				C138.1,52.1,133.8,52.3,130,50.8z"/>
			<path class="st0" d="M166.6,10.8l6.5-1.3l5.9,29.4l-6.5,1.3L166.6,10.8z"/>
			<path class="st0" d="M208.1,11.8l-8.1,0l0-5.7l22.8,0.1l0,5.7l-8.1,0l-0.1,24.3l-6.6,0L208.1,11.8z"/>
			<path class="st0" d="M255.8,11l7.7,1.9l1.9,31.3l-6.8-1.7l-0.2-15.7c-0.1-3.1,0-6.7,0-10l-0.2,0c-1.4,2.9-3,6.1-4.5,8.9
				l-7.3,13.8l-6.6-1.6L255.8,11z M248.6,27.3l13.7,3.3l-1.2,5.1l-13.7-3.3L248.6,27.3z"/>
			<path class="st0" d="M289.2,37.6c4.6-8.8,13.1-10.9,20-7.2c3.8,2,5.6,5,6.4,7.8l-5.1,2.2c-0.7-1.9-1.6-3.5-3.8-4.7
				c-4-2.1-8.5-0.4-11.3,4.9c-2.9,5.5-2.1,9.9,2.8,12.5c1,0.5,2.3,0.8,3.2,0.7l2.4-4.6l-4.3-2.3l2.6-4.9l9.5,5L305,59.2
				c-2.7,0.8-6.6,0.6-10.3-1.3C287.6,54.1,284.5,46.5,289.2,37.6z"/>
		</g>
	</g>
</g>
<g id="SITAG_Bold_Outline">
	<g>
		<path class="st0" d="M130,50.8l1.7-5.8c2.6,0.9,5.6,1,7.9,0.1c2.6-1.1,3.4-2.6,2.7-4.3c-0.7-1.7-2.5-1.6-5.3-1.6l-4.2,0
			c-3.3,0-6.9-1.2-8.6-5.2c-1.9-4.6,0.5-9.9,6.2-12.3c3.1-1.3,6.9-1.4,10.2,0l-1.4,5.2c-2.4-0.6-4.4-0.7-6.5,0.2
			c-2.1,0.9-3.1,2.4-2.4,3.9c0.7,1.7,2.7,1.6,5.5,1.5l4.1,0c3.9,0,6.9,1.3,8.5,5.3c1.9,4.6-0.1,10.1-6.6,12.9
			C138.1,52.1,133.8,52.3,130,50.8z"/>
		<path class="st0" d="M166.6,10.8l6.5-1.3l5.9,29.4l-6.5,1.3L166.6,10.8z"/>
		<path class="st0" d="M208.1,11.8l-8.1,0l0-5.7l22.8,0.1l0,5.7l-8.1,0l-0.1,24.3l-6.6,0L208.1,11.8z"/>
		<path class="st0" d="M255.8,11l7.7,1.9l1.9,31.3l-6.8-1.7l-0.2-15.7c-0.1-3.1,0-6.7,0-10l-0.2,0c-1.4,2.9-3,6.1-4.5,8.9l-7.3,13.8
			l-6.6-1.6L255.8,11z M248.6,27.3l13.7,3.3l-1.2,5.1l-13.7-3.3L248.6,27.3z"/>
		<path class="st0" d="M288.8,37.4c4.6-8.8,13-10.9,20-7.3c3.8,2,5.6,5,6.4,7.8l-5.1,2.2c-0.7-1.9-1.6-3.5-3.8-4.7
			c-4-2.1-8.5-0.4-11.3,4.9c-2.9,5.5-2.1,9.9,2.8,12.5c1,0.5,2.3,0.8,3.2,0.7l2.4-4.6l-4.3-2.3l2.6-4.9l9.5,5L304.7,59
			c-2.7,0.8-6.6,0.6-10.3-1.3C287.3,54,284.1,46.4,288.8,37.4z"/>
	</g>
</g>
</svg>
