<svg width="239" height="60" viewBox="0 0 239 60" fill="none" xmlns="http://www.w3.org/2000/svg">
<g clip-path="url(#clip0_1913_5618)">
<path d="M30 59.3144C46.1899 59.3144 59.3144 46.1899 59.3144 30C59.3144 13.8101 46.1899 0.685547 30 0.685547C13.8101 0.685547 0.685547 13.8101 0.685547 30C0.685547 46.1899 13.8101 59.3144 30 59.3144Z" fill="url(#paint0_radial_1913_5618)"/>
<path d="M58.3055 37.7535C58.0931 37.7371 58.0129 37.6257 58.008 37.4107C57.9998 37.0689 57.8371 36.8746 57.4796 37.0378C57.1357 37.195 57.0631 37.0116 56.9681 36.736C56.5532 35.5301 56.0379 34.356 55.7945 33.0977C55.741 32.8215 55.6138 32.7735 55.396 32.8008C55.0843 32.8401 54.8654 32.7402 54.7606 32.4307C54.7289 32.3374 54.6509 32.2719 54.5996 32.1949C54.1367 31.4967 53.5384 31.1703 52.6666 31.2811C52.1371 31.3482 51.5782 31.3635 51.0481 31.1621C50.9461 31.1233 50.7801 31.1184 50.7277 31.2631C50.6759 31.4072 50.8025 31.4874 50.9089 31.5486C50.9701 31.5841 51.0552 31.577 51.1207 31.6075C51.8151 31.9329 51.9423 32.4367 51.5116 33.0836C51.0443 33.7855 50.3827 34.2626 49.6289 34.5743C49.0808 34.8009 48.5999 35.1448 48.0459 35.3566C47.6015 35.5258 47.1714 35.6688 46.6861 35.6562C46.3269 35.647 46.3226 35.7108 46.5289 36.0411C46.7041 36.3211 46.9028 36.5165 47.2396 36.3151C47.7162 36.0302 48.2959 36.0984 48.78 35.8369C48.9771 35.7305 49.0055 35.8533 48.9995 36.0493C48.9596 37.3976 48.1288 38.2639 47.1719 39.039C46.5218 39.5657 45.8826 40.1051 45.1953 40.5909C44.6407 40.9834 44.6587 41.6575 44.7472 42.2809C44.7668 42.4201 44.8351 42.5582 44.8684 42.7045C45.1031 43.7427 44.8285 44.4043 43.9235 44.9289C43.8378 44.9786 43.7471 45.0195 43.6587 45.0648C43.144 45.329 42.7771 45.6604 42.9 46.3301C42.9709 46.7155 42.7646 46.9639 42.3601 47.0753C42.1101 47.1446 41.8235 47.2587 41.8541 47.6239C41.1455 48.3766 40.639 49.3821 39.39 49.429C38.8802 49.4481 38.378 49.6179 37.8687 49.6987C37.5663 49.7467 37.3446 49.6998 37.355 49.2827C37.3638 48.9416 37.188 48.6375 37.0128 48.3286C36.6776 47.7358 36.2431 47.1631 36.3244 46.4104C36.3495 46.1757 36.2027 45.9802 36.0771 45.8017C35.6011 45.1249 35.5531 44.4627 36.0138 43.7433C36.4702 43.0309 36.2982 42.0358 35.6497 41.3153C35.4832 41.1302 35.3053 40.9539 35.118 40.7901C34.7862 40.5003 34.7551 40.1657 34.9325 39.7868C34.9532 39.7421 34.9712 39.6957 34.9892 39.6498C35.2824 38.9162 35.1639 38.6001 34.3975 38.516C33.9231 38.4642 33.6164 38.2759 33.3347 37.9489C33.1486 37.7333 32.9455 37.6792 32.6764 37.8304C32.5088 37.9243 32.2823 37.9647 32.1398 38.063C31.6589 38.3932 31.1949 38.3987 30.6665 38.2093C30.3837 38.1083 30.0797 38.2016 29.8128 38.3648C29.524 38.5412 29.2811 38.4915 28.9983 38.284C28.2805 37.7562 27.5452 37.2627 27.0588 36.4816C26.8951 36.2179 26.6418 36.0105 26.4289 35.7769C25.9797 35.284 25.9174 34.9406 26.2815 34.4018C26.4813 34.1065 26.4595 33.8816 26.3208 33.5814C26.0441 32.9826 26.0888 32.4045 26.4644 31.8313C26.8634 31.2221 27.3525 30.6976 27.9295 30.2805C28.3438 29.9808 28.5977 29.6189 28.6888 29.1517C28.7925 28.62 29.0442 28.2805 29.5655 28.0812C29.9847 27.9213 29.9498 27.8787 29.7571 27.4819C29.5928 27.1434 29.4252 26.8732 29.0021 26.7826C28.6555 26.7084 28.5513 26.2973 28.7893 25.925C29.0262 25.5549 29.1648 25.217 29.0021 24.7743C28.9219 24.556 29.0753 24.4676 29.3177 24.3972C29.8084 24.2536 30.2997 24.3071 30.7899 24.2672C30.9907 24.2509 31.3128 24.3977 31.3614 24.0958C31.4127 23.7738 31.5306 23.3988 31.2107 23.1127C31.0983 23.0117 30.9929 22.926 30.8286 22.9053C30.5546 22.8709 30.4673 22.6793 30.4891 22.4206C30.5147 22.1149 30.7473 22.1798 30.9362 22.1678C31.0355 22.1618 31.1376 22.1771 31.2337 22.158C31.3445 22.1356 31.3854 22.0417 31.381 21.9342C31.3767 21.8267 31.3308 21.7491 31.2135 21.7273C31.0328 21.694 30.8843 21.771 30.7178 21.8288C30.4203 21.9326 30.2636 21.783 30.3903 21.497C30.5437 21.1514 30.4558 20.8108 30.4853 20.4696C30.4913 20.403 30.4973 20.3059 30.4094 20.307C30.3521 20.308 30.2718 20.3719 30.2434 20.4287C30.0164 20.8823 29.7205 21.2027 29.1479 21.1356C28.9317 21.1105 28.8498 21.0368 28.8302 20.8228C28.7876 20.3681 28.882 19.9827 29.2882 19.7212C29.6419 19.4936 29.8291 19.1579 29.8794 18.7523C29.9454 18.2179 30.3614 18.0312 30.7664 17.8522C30.9831 17.7561 31.1605 17.8904 31.22 18.1137C31.2893 18.374 31.3592 18.6415 31.3739 18.9084C31.4089 19.5433 31.6425 20.0204 32.2506 20.3037C32.4537 20.3981 32.6895 20.5815 32.4793 20.897C32.4138 20.9953 32.4782 21.087 32.5918 21.117C32.6922 21.1432 32.8407 21.1323 32.8505 21.0384C32.9089 20.4942 33.303 20.4041 33.7337 20.3124C33.9171 20.2731 34.1071 20.1781 34.2316 20.0045C34.2889 19.9243 34.3697 19.855 34.2845 19.7524C33.8058 19.1754 34.1792 18.8053 34.6011 18.4494C34.695 18.3702 34.802 18.308 34.8997 18.2327C34.9718 18.1775 34.9723 18.1049 34.9084 18.0465C34.8768 18.0181 34.8102 17.9908 34.7791 18.0056C34.6006 18.0907 34.4319 18.1955 34.2534 18.2801C33.7812 18.504 33.3876 18.3473 33.2703 17.8396C33.0645 16.9504 33.0754 16.2064 33.939 15.7888C34.6824 15.4296 34.9625 14.6856 35.3697 14.0486C35.486 13.8668 35.4439 13.6621 35.4314 13.4656C35.4177 13.2565 35.4265 13.0469 35.6306 12.9421C36.2414 12.6282 36.7578 12.1539 37.4413 11.9584C38.0979 11.7707 38.6984 11.793 39.2737 12.1806C39.6668 12.4448 40.1204 12.5906 40.5636 12.7216C41.2312 12.9192 41.8726 13.137 42.3792 13.6403C42.448 13.7085 42.5233 13.7926 42.6319 13.7647C42.7913 13.7238 42.764 13.5808 42.7706 13.4618C42.7733 13.4121 42.7651 13.3624 42.7662 13.3122C42.7689 13.149 42.6849 12.9437 42.9474 12.8979C43.1587 12.8608 43.3394 12.905 43.4627 13.1053C43.5348 13.2221 43.4404 13.4585 43.6456 13.4579C43.8388 13.4579 44.0272 13.3471 44.1582 13.1948C44.299 13.0316 44.364 12.8286 44.6014 12.7221C44.9202 12.5791 45.2095 12.4093 45.5818 12.447C45.8422 12.4732 45.9666 12.3662 45.792 12.0949C45.7226 11.9879 45.697 11.8542 45.8143 11.7592C45.9481 11.6506 46.0392 11.7728 46.1315 11.8471C46.4858 12.1309 46.9001 11.9699 47.286 11.9939C47.5387 12.0092 47.6632 11.7914 47.4967 11.6064C47.0688 11.1309 47.3597 10.5048 47.1081 9.99441C47.0398 9.85631 47.1812 9.7051 47.3755 9.81209C47.6927 9.98622 48.0813 10.0921 48.1496 10.5326C48.1692 10.6598 48.1861 10.8023 48.3521 10.7652C48.4318 10.7472 48.5197 10.6462 48.5513 10.5627C48.5939 10.4508 48.5857 10.3197 48.5994 10.1969L48.5945 10.2024C48.8204 10.2089 49.0557 10.2488 49.0377 9.88742C49.0197 9.53533 48.9989 9.16524 49.5153 9.1303C49.6251 9.12266 49.6332 8.99602 49.6425 8.89339C49.6573 8.73018 49.5612 8.54076 49.7457 8.41357C50.5044 8.94525 51.112 9.64069 51.7261 10.3181C52.8937 11.6064 53.9478 12.9885 54.8638 14.4678C56.7465 17.5099 58.0756 20.7759 58.77 24.2913C59.2143 26.5402 59.4332 28.8116 59.3399 31.1037C59.2984 32.119 59.2433 33.1381 59.0418 34.1398C58.4572 34.3287 58.2127 34.7512 58.1673 35.3445C58.1286 35.8533 58.2252 36.3124 58.52 36.7289C58.4932 37.0793 58.5036 37.4374 58.3038 37.7513L58.3055 37.7535ZM34.8293 24.7121L34.8353 24.7181C34.8309 24.5625 34.8167 24.3977 34.6055 24.419C34.1158 24.4692 33.6267 24.5276 33.1404 24.6008C33.0192 24.6188 32.9062 24.7241 32.8958 24.8551C32.8653 25.2291 32.5836 25.4136 32.3259 25.5915C32.1431 25.7176 32.0213 25.8857 32.0061 26.0642C31.9471 26.7351 31.512 27.0097 30.9356 27.097C30.6589 27.139 30.5224 27.3607 30.292 27.4447C30.2615 27.4562 30.2369 27.525 30.2358 27.5681C30.2325 27.6604 30.316 27.7057 30.3816 27.7013C30.7888 27.674 31.1676 27.7133 31.5896 27.4944C32.5672 26.9878 33.6655 26.9169 34.7616 26.9529C35.2452 26.9687 35.3752 27.0708 35.4226 27.5332C35.4379 27.6811 35.4248 27.8318 35.4276 27.9813C35.433 28.2755 35.5602 28.4475 35.8779 28.4486C36.3419 28.4502 36.7256 28.6298 37.0739 28.9431C37.271 29.12 37.5379 29.2237 37.7813 29.3438C38.2322 29.566 38.3774 29.5179 38.4064 29.0283C38.4298 28.6375 38.598 28.5883 38.9168 28.5889C39.2001 28.5889 39.4528 28.656 39.7006 28.7788C40.7236 29.2849 41.8017 29.1702 42.8776 29.0452C42.9655 29.0349 43.0664 28.9688 43.1243 28.8984C43.4355 28.5196 43.597 28.0916 43.4939 27.5938C43.4797 27.525 43.4562 27.4415 43.3568 27.4535C43.2777 27.4633 43.2318 27.5135 43.2264 27.5992C43.2073 27.8929 42.9518 27.9611 42.7558 27.9742C42.5173 27.9901 42.4485 27.7673 42.4562 27.549C42.4671 27.2455 42.2536 27.2373 42.0528 27.263C41.6641 27.3126 41.2787 27.3891 40.8917 27.4529C40.8289 27.4633 40.7127 27.5621 40.711 27.4611C40.7039 27.0239 40.1117 26.9158 40.1859 26.395C40.2438 25.99 40.0522 25.8912 39.6351 25.9054C39.5341 25.9087 39.4069 25.9114 39.3742 26.0064C39.3163 26.1772 39.4675 26.1821 39.5843 26.2253C39.8775 26.3328 39.8873 26.651 40.0298 26.871C40.0713 26.9349 40.0609 27.0173 39.9834 27.0615C39.9091 27.1041 39.8354 27.0746 39.794 27.0119C39.5887 26.7007 39.491 26.8241 39.4714 27.1014C39.4512 27.383 39.3867 27.4682 39.1187 27.2864C38.807 27.0752 38.5379 26.8547 38.3938 26.4818C38.313 26.2733 38.2628 25.9054 37.9577 25.9627C37.6667 26.0173 37.3337 26.1314 37.1869 26.4682C37.1378 26.5812 37.0695 26.686 37.0128 26.7957C36.6732 27.4524 36.676 27.4496 36.1585 26.9633C36.0722 26.8819 35.9085 26.8279 35.9603 26.7034C35.9838 26.6472 36.1863 26.6527 36.3075 26.6527C36.5302 26.6532 36.7065 26.5774 36.7682 26.3568C36.8354 26.1166 36.7595 25.9076 36.5319 25.7853C35.939 25.4671 35.4636 24.9638 34.8298 24.7116L34.8293 24.7121ZM40.8442 24.5505C40.7241 24.8617 40.8922 25.0942 41.1428 25.2285C41.4119 25.3721 41.699 25.3753 41.9665 25.1412C42.3366 24.8175 42.7498 24.7918 43.2122 24.9834C43.3907 25.0577 43.5828 25.1199 43.7564 25.2072C44.1363 25.3983 44.4753 25.3027 44.8105 25.1057C44.9901 25.0003 44.9732 24.8912 44.8258 24.7629C44.5834 24.5522 44.2892 24.4135 44.0654 24.1723C43.7313 23.8109 43.2755 23.6924 42.8426 23.8742C42.4311 24.0467 42.2438 23.872 42.0402 23.5909C41.7624 23.2066 41.4747 23.1684 41.2089 23.539C41.0025 23.8267 40.681 24.1018 40.8442 24.5511V24.5505ZM37.1132 19.7671C37.69 19.7671 37.9751 19.4776 37.9686 18.8986C37.9675 18.7993 37.9691 18.6999 37.9648 18.6006C37.9484 18.2414 37.9708 17.9292 38.3845 17.7528C38.6236 17.6508 38.6111 17.4461 38.3256 17.35C37.8982 17.2059 37.7546 16.8713 37.6427 16.4646C37.5848 16.2539 37.5575 16.035 37.4844 15.8314C37.4353 15.6955 37.3239 15.5612 37.1432 15.6441C36.8075 15.7981 36.5684 16.7981 36.8354 17.0536C37.1017 17.308 37.1258 17.5198 36.9429 17.8282C36.7769 18.1082 36.5379 18.3888 36.7622 18.7698C36.8435 18.9079 36.7049 19.0449 36.5946 19.1514C36.456 19.2856 36.2436 19.4035 36.3572 19.6394C36.4702 19.8735 36.7082 19.7343 36.8894 19.7649C36.962 19.7769 37.0379 19.7671 37.1127 19.7671H37.1132ZM46.1954 34.6813C46.1943 34.2239 46.2101 34.207 45.8798 33.9007C45.4202 33.4744 45.1151 32.9629 44.8558 32.3969C44.6156 31.8734 44.4802 31.2625 43.8951 30.9541C43.7804 30.8935 43.8132 30.7309 43.7979 30.6108C43.7837 30.4972 43.7182 30.4083 43.6134 30.4388C43.531 30.4628 43.4442 30.5518 43.4054 30.6342C43.275 30.9088 43.4862 31.1075 43.6107 31.3024C43.9 31.7549 44.2231 32.1943 44.3694 32.7135C44.5256 33.2664 44.8236 33.7457 45.0714 34.2512C45.2597 34.6344 45.6457 34.8429 45.9514 35.1186C46.0687 35.2245 46.179 35.1344 46.1937 34.9794C46.203 34.8811 46.1954 34.7812 46.1954 34.6819V34.6813ZM49.4624 31.5966C49.7353 31.6255 50.0186 31.5617 50.2228 31.3166C50.2954 31.2292 50.3571 31.095 50.3494 30.9869C50.338 30.8264 50.1709 30.869 50.0574 30.8449C49.464 30.7183 48.8679 30.5971 48.6217 29.9224C48.5808 29.8105 48.4929 29.7156 48.4263 29.6129C48.3652 29.519 48.2768 29.4983 48.172 29.5179C48.0076 29.5491 47.9945 29.6779 48.0093 29.7996C48.0682 30.2805 48.2544 30.6981 48.6818 30.9607C48.8303 31.0518 49.023 31.1097 49.0333 31.3008C49.0486 31.583 49.2069 31.619 49.4629 31.5961L49.4624 31.5966Z" fill="#9FCC3B"/>
<path d="M18.3076 7.53456C18.0854 8.00837 17.7606 8.34954 17.2639 8.57826C16.9369 8.72837 16.7486 9.14378 16.3212 9.16943C16.1225 8.82881 15.8927 9.2928 15.6656 9.13886C15.4472 8.99093 15.2032 8.88613 14.9134 8.99639C14.7829 9.04607 14.6235 9.01659 14.4794 9.03679C14.451 9.04061 14.4134 9.10884 14.4128 9.1476C14.4128 9.1869 14.4521 9.26114 14.475 9.26169C15.111 9.26878 15.6569 9.76989 16.3239 9.59685C16.6187 9.80264 16.4451 10.098 16.4533 10.3501C16.4631 10.6586 16.5166 10.9047 16.7377 11.1591C17.2737 11.7754 17.2535 11.7956 16.7218 12.4676C16.652 12.5555 16.6241 12.633 16.6847 12.7312C16.7622 12.8573 16.8217 13.0003 16.9205 13.1057C17.152 13.3519 17.3933 13.6068 17.128 13.9431C16.8752 14.2635 16.7328 14.799 16.1268 14.5899C15.9009 14.5118 15.8446 14.6772 15.8752 14.8224C15.986 15.3487 15.5777 15.6352 15.3528 16.001C15.2202 16.2166 15.0187 16.2854 14.7927 16.0725C14.5804 15.8722 14.409 15.6265 14.0793 15.5648C13.8511 15.5223 13.9466 15.2832 13.9194 15.1221C13.8549 14.7466 13.7054 14.6472 13.2927 14.6925C13.029 14.7215 12.731 15.0572 12.7539 15.2995C12.767 15.4349 12.8795 15.4584 12.9685 15.4376C13.2878 15.3623 13.3555 15.6074 13.4303 15.8061C13.499 15.9895 13.4974 16.1784 13.772 16.2111C13.9619 16.2341 13.9423 16.4278 13.8833 16.5714C13.8178 16.7314 13.7086 16.8755 13.6562 17.0387C13.6038 17.2008 13.5596 17.4175 13.7458 17.507C13.9254 17.5933 14.1541 17.5829 14.2829 17.3842C14.4581 17.114 14.623 16.8416 14.962 16.6839C14.9554 17.3766 15.2191 18.0201 15.1197 18.6965C15.0755 18.9983 15.2747 19.1774 15.4936 19.2849C15.9156 19.4929 16.022 19.8341 16.0188 20.2593C16.0128 21.0011 15.9778 21.7364 16.2879 22.4542C16.4626 22.8587 16.1978 23.0853 15.7327 23.0722C15.5144 23.0662 15.3424 22.9608 15.1907 22.8565C14.9783 22.7108 14.7851 22.594 14.5154 22.6082C14.1743 22.6262 14.1939 22.4728 14.3686 22.2544C14.4761 22.1196 14.5608 21.9668 14.6601 21.8254C14.7442 21.7064 14.8981 21.6376 14.9183 21.4482C14.5362 21.3914 14.2114 21.4335 13.9057 21.7315C13.6126 22.017 13.4472 21.9438 13.3331 21.5312C13.2976 21.4013 13.2643 21.2451 13.1284 21.3166C12.9586 21.4056 12.7004 21.3297 12.6164 21.5492C12.5661 21.6807 12.6868 21.7916 12.8014 21.8352C13.0045 21.9127 13.046 22.0361 13.0127 22.2397C12.9417 22.6753 13.1399 22.8975 13.5684 22.8675C13.6568 22.8615 13.7512 22.7414 13.8397 22.8009C13.9603 22.8822 14.0891 22.9859 14.1497 23.1115C14.2108 23.2386 14.0515 23.3178 13.9679 23.3937C13.7016 23.6339 13.3402 23.6693 13.0247 23.8042C12.8762 23.868 12.6972 23.7938 12.564 23.9794C12.4106 24.1939 12.1698 24.1945 12.0034 23.9805C11.8363 23.7665 11.6873 23.7933 11.5017 23.9303C11.2839 24.0913 11.0634 24.2496 10.8374 24.3981C10.7533 24.4532 10.6381 24.4931 10.6545 24.6033C10.7408 25.1776 10.3002 25.1934 9.9367 25.3162C9.33188 25.5204 8.92575 25.9079 8.83241 26.575C8.73088 27.3032 8.36951 27.854 7.70464 28.2039C7.5114 28.3054 7.34928 28.4708 7.1817 28.6176C6.86673 28.8933 6.66804 29.211 6.90385 29.6346C7.09818 29.9834 7.02776 30.3595 7.03486 30.7274C7.03814 30.8901 7.096 31.0959 6.83562 31.1335C6.58616 31.1701 6.36672 31.1073 6.31977 30.8366C6.28156 30.6161 6.12927 30.4337 6.15219 30.1941C6.18931 29.8109 5.98406 29.5827 5.62379 29.5058C5.46276 29.4714 5.37105 29.3595 5.24933 29.2776C5.00805 29.1149 4.83283 29.2186 4.68872 29.4337C4.41087 29.848 4.2684 29.9157 3.91686 29.7056C3.71707 29.5866 3.54512 29.4157 3.31968 29.5827C2.98888 29.8278 2.48396 29.9774 2.43646 30.425C2.37151 31.0364 2.1608 31.6363 2.25524 32.2651C2.29945 32.5588 2.82021 33.2663 3.08114 33.3503C3.23234 33.3989 3.68814 33.1969 3.7591 33.0397C3.83007 32.8836 3.86555 32.7084 3.95234 32.5626C4.16414 32.2078 4.47583 32.1494 4.83228 32.3634C4.96438 32.4425 4.97093 32.5583 4.96165 32.6805C4.93709 32.9982 4.96547 33.3099 4.85139 33.6331C4.69418 34.0791 4.8623 34.2515 5.35522 34.2838C5.50425 34.2936 5.656 34.2772 5.80284 34.2969C5.99553 34.3225 6.12053 34.4448 6.13691 34.6397C6.15383 34.8378 6.16365 35.0409 6.14073 35.2374C6.06867 35.8564 6.36945 36.2565 6.88038 36.5344C6.94807 36.5709 7.01849 36.5944 7.01903 36.6736C7.02012 36.8106 6.90713 36.8139 6.80942 36.8248C6.28375 36.8854 5.84323 36.6168 5.58886 36.2494C5.13251 35.59 4.58064 35.1309 3.8186 34.9044C3.70506 34.8706 3.57842 34.8001 3.51073 34.7079C3.24599 34.3443 2.8939 34.2739 2.46813 34.2843C2.06855 34.2941 1.70664 34.0943 1.36001 33.9044C1.21809 33.8263 1.07125 33.8449 0.925501 33.8274C0.668397 32.008 0.554856 30.1897 0.725713 28.3485C0.821786 27.313 0.889474 26.2759 1.05869 25.2491C1.47519 22.7223 2.2203 20.2953 3.26946 17.9601C3.99164 16.3525 4.85412 14.8224 5.86343 13.3808C6.88748 11.9179 8.00815 10.5292 9.28111 9.27042C9.38483 9.1678 9.47762 9.04225 9.63593 9.01168C9.68505 9.01495 9.7511 8.99912 9.78113 9.02478C10.101 9.30099 10.41 9.43691 10.708 8.99694C10.7342 8.95818 10.7839 8.91178 10.8254 8.9096C11.0585 8.89595 11.3106 8.60173 11.4935 8.81025C11.6436 8.9822 11.2812 9.09683 11.2413 9.28898C11.2315 9.33756 11.2277 9.38723 11.2211 9.43636C10.6523 9.57174 10.0617 10.1323 10.0945 10.6296C10.1103 10.8715 10.0552 11.2164 10.1791 11.3502C10.3854 11.5729 10.6824 11.2912 10.9285 11.2235C11.3216 11.1155 11.4755 10.8032 11.3238 10.4157C11.1966 10.0909 11.2719 9.78135 11.2495 9.46584C11.6666 9.38123 12.0039 9.11921 12.3838 8.95163C12.6256 8.84519 12.8631 8.76331 13.0651 8.9762C13.3271 9.2524 13.4717 8.99858 13.6885 8.9096C13.9668 8.79551 13.7813 8.65905 13.7802 8.52203C13.778 8.26438 13.6584 8.34353 13.5034 8.39266C13.2943 8.45817 13.2059 8.35773 13.177 8.13065C13.1317 7.77692 13.267 7.57823 13.5809 7.43466C13.85 7.3113 14.1126 7.37735 14.3795 7.38499C14.3659 7.66666 14.5558 7.65792 14.7551 7.66065C14.9598 7.66338 15.1383 7.65356 15.1323 7.38171C15.1421 7.33368 15.1541 7.28564 15.1683 7.2387C15.2043 7.23488 15.2404 7.2316 15.2764 7.22996C15.3763 7.32549 15.4762 7.42102 15.5761 7.51654C15.6792 7.70869 15.7797 7.70323 15.8763 7.51108L15.879 7.50945C16.1121 7.41174 16.2431 7.44394 16.4784 7.641C16.51 7.6672 16.5745 7.65356 16.6241 7.65847C16.6241 7.73216 16.6159 7.80695 16.6241 7.88009C16.658 8.1694 16.0832 8.34899 16.4183 8.62356C16.5739 8.75075 16.7939 8.35936 17.0303 8.2551C17.6536 7.97944 17.652 7.96033 17.67 7.32221C17.6771 7.06784 17.8332 7.06293 18.0161 7.05856C18.2896 7.05201 18.1722 7.19994 18.14 7.33368C18.1094 7.45813 18.2192 7.49525 18.3092 7.53456H18.3076ZM10.6403 14.5446C10.5475 14.5517 10.4979 14.6014 10.4908 14.6942C10.3166 14.6833 10.1589 14.698 9.98965 14.7837C9.3095 15.1292 8.66919 15.5212 8.08511 16.0217C7.76469 16.2963 7.58237 16.5993 7.45791 16.9917C7.33345 17.3815 7.45955 17.638 7.73958 17.8673C7.89133 17.9918 8.15826 18.0813 8.18992 18.2265C8.29309 18.6987 8.62279 18.8488 9.01527 18.965C9.28548 19.0453 9.35808 19.2063 9.22652 19.4722C9.07586 19.7762 9.1501 20.1054 9.18067 20.4231C9.18777 20.4984 9.30294 20.5639 9.36845 20.6338C9.43505 20.5623 9.50765 20.4951 9.56496 20.4165C9.59116 20.3805 9.59226 20.3221 9.5928 20.2735C9.59881 19.5922 9.8701 19.1261 10.5366 18.8417C11.0377 18.6277 11.2217 18.245 11.0503 17.8187C10.9236 17.5038 11.0481 17.3951 11.2009 17.185C11.4553 16.8351 11.809 16.5245 11.8205 16.0392C11.9248 15.8694 11.5798 15.5959 11.8538 15.5321C12.368 15.4125 12.5006 14.9889 12.7436 14.6369C12.9564 14.3284 13.1895 14.0539 13.6399 14.0866C13.9177 14.1068 14.147 13.9278 14.3533 13.7411C14.5165 13.5937 14.6383 13.4016 14.8664 13.3224C15.0045 13.2744 15.1557 13.1455 15.0777 12.9867C15.0045 12.8382 14.8097 12.8846 14.6694 12.9146C14.552 12.9397 14.4461 13.0151 14.3342 13.0669C14.23 13.115 14.1268 13.2569 14.01 13.1313C13.8724 12.984 14.034 12.9365 14.1268 12.865C14.2392 12.7787 14.2638 12.645 14.1934 12.5347C14.0842 12.3633 14.1426 12.2689 14.2944 12.1837C14.3943 12.1275 14.5416 12.193 14.6104 12.0598C14.4958 12.02 14.3713 11.9976 14.2693 11.937C13.9472 11.7459 13.7933 11.8966 13.6262 12.1755C13.3216 12.6832 12.9717 13.1636 12.457 13.4894C12.0143 13.7695 11.6289 14.0631 11.9782 14.6756C12.0569 14.8137 11.9297 15.0588 11.7987 14.9742C11.3778 14.7024 11.1294 15.1522 10.7872 15.1489C10.5781 15.0665 10.4591 14.9251 10.4853 14.6882C10.5732 14.6767 10.6185 14.6216 10.6354 14.5391C10.6605 14.5058 10.8079 14.5512 10.7031 14.4343C10.6829 14.4715 10.6627 14.5086 10.6425 14.5462L10.6403 14.5446ZM12.1311 11.6417C12.1311 11.8393 12.1213 12.0369 12.1344 12.2334C12.1436 12.3726 12.2157 12.4698 12.3745 12.3901C12.761 12.1957 13.1404 11.6537 13.0127 11.3305C12.7676 10.7093 13.0307 10.3185 13.4788 9.96203C13.5291 9.92219 13.6038 9.85777 13.5438 9.79773C13.5029 9.75679 13.4024 9.74587 13.3386 9.7617C12.6131 9.94511 12.1245 10.7148 12.1311 11.6417V11.6417ZM14.939 7.80804C14.879 7.80804 14.8293 7.80476 14.7807 7.80858C14.6197 7.82059 14.4145 7.75618 14.3861 8.01492C14.367 8.18905 14.4106 8.30259 14.5728 8.43797C14.8675 8.68525 15.1765 8.73165 15.5253 8.69889C15.7327 8.67924 15.7622 8.41286 15.7022 8.39539C15.4156 8.31078 15.6012 8.01219 15.4254 7.88773C15.2644 7.77365 15.0952 7.82441 14.939 7.80804V7.80804Z" fill="#9FCC3B"/>
<path d="M11.987 6.94775C12.0268 7.08913 11.9051 7.28674 12.1327 7.36207C12.2583 7.36098 12.3915 7.37626 12.4313 7.20868C12.6246 6.99743 12.796 6.90245 12.8719 7.29383C12.8811 7.34133 12.8915 7.40028 12.8719 7.44013C12.7627 7.6623 13.1442 7.8528 12.9385 8.04168C12.7709 8.19506 12.5127 8.08644 12.2965 8.11701C11.6939 8.20161 11.0945 8.34409 10.4799 8.22072C10.9127 7.71415 11.3844 7.25399 11.987 6.94885V6.94775Z" fill="#9FCC3B"/>
<path d="M8.8187 35.773C9.04906 35.5721 9.28378 35.5339 9.61185 35.5426C10.0687 35.5541 10.4328 35.5967 10.7789 35.928C10.9951 36.1349 11.3128 36.1808 11.6048 35.9777C11.6851 35.922 11.7795 35.8838 11.8723 35.8505C12.3363 35.684 12.5421 35.7675 12.72 36.2446C12.851 36.5967 13.0001 36.939 13.3036 37.1617C13.6633 37.4259 14.0536 37.6442 14.5367 37.5847C15.094 37.516 15.4799 37.8102 15.8075 38.213C15.838 38.2507 15.8571 38.2987 15.8757 38.344C16.409 39.6509 17.546 40.0275 18.789 40.3015C19.4773 40.4533 20.1804 40.6389 20.7623 41.0788C21.14 41.3643 21.5031 41.6635 21.4266 42.2377C21.3955 42.4714 21.354 42.658 21.1826 42.8311C20.842 43.175 20.7121 43.6351 20.5614 44.0784C20.4888 44.2924 20.4806 44.5249 20.5762 44.7334C20.6979 44.9976 20.6575 45.2728 20.658 45.5424C20.6586 45.96 20.3917 46.305 19.9872 46.394C19.8169 46.4316 19.658 46.4857 19.4937 46.537C18.9271 46.7138 18.6602 46.9524 18.7344 47.4961C18.8441 48.2925 18.3605 48.8476 18.075 49.4869C18.027 49.5944 17.9533 49.6561 17.7873 49.631C17.5641 49.5977 17.528 49.7587 17.5662 49.9694C17.665 50.5142 17.6503 50.5655 17.1901 50.5928C16.8735 50.6119 16.7382 50.6867 16.7655 51.0158C16.7786 51.1752 16.6263 51.1867 16.5018 51.2085C16.4516 51.2173 16.3266 51.2593 16.4505 51.3264C16.7212 51.4727 16.6186 51.7178 16.6186 51.922C16.6186 52.2479 16.552 52.5601 17.0351 52.6229C17.1841 52.6425 17.349 52.8238 17.3386 53.0765C17.3146 53.6753 17.5592 54.0443 18.1023 54.1759C18.3883 54.2452 18.6394 54.4488 19.1154 54.2965C18.5248 54.7452 18.0373 54.6944 17.5542 54.582C16.0973 54.243 15.064 53.3216 14.32 52.0808C13.8036 51.22 13.404 50.2937 13.1332 49.3155C12.8145 48.1631 12.4291 47.0321 11.9957 45.9163C11.7331 45.2395 11.4416 44.6739 10.6703 44.3699C9.94483 44.0838 9.40224 43.4697 8.97755 42.7852C8.72973 42.3862 8.44697 42.0112 8.08942 41.6935C7.28427 40.9784 7.08612 39.4909 7.68057 38.6475C7.92948 38.2944 7.96551 37.8664 7.93385 37.4384C8.11562 37.4068 8.10962 37.2277 8.17458 37.1126C8.32196 36.8505 8.12108 36.8462 7.94368 36.8364C7.92293 36.4717 8.18822 36.5339 8.40111 36.5394C8.69916 36.5465 8.85091 36.3407 8.96882 36.1284C9.0376 36.0039 9.01467 35.8309 8.8187 35.7746V35.773ZM8.70407 36.7103C8.59162 36.7026 8.52448 36.7725 8.47371 36.8565C8.40166 36.9755 8.51684 36.9674 8.57306 36.9777C8.67241 36.9952 8.77121 36.9777 8.80942 36.8669C8.83945 36.7807 8.77558 36.7386 8.70407 36.7103Z" fill="#9FCC3B"/>
<path d="M18.3076 7.53463C18.2181 7.49478 18.1083 7.45821 18.1384 7.33375C18.1706 7.20056 18.2879 7.05208 18.0144 7.05863C17.8316 7.063 17.6755 7.06791 17.6684 7.32228C17.6503 7.96095 17.652 7.98006 17.0286 8.25517C16.7922 8.35943 16.5717 8.75082 16.4167 8.62364C16.0815 8.34906 16.6558 8.16947 16.6225 7.88016C16.6137 7.80756 16.6219 7.73278 16.6225 7.65854C17.2786 7.56301 17.3201 7.49642 17.0144 6.92926C16.9254 6.76386 16.9293 6.68198 17.0996 6.59191C17.295 6.48874 17.2006 6.29551 17.2066 6.13502C17.2191 6.04277 17.2317 5.95052 17.2437 5.85826C17.4882 5.85936 17.7328 5.86864 17.9768 5.85663C18.0423 5.85335 18.188 5.94233 18.1711 5.77093C18.1662 5.72344 18.051 5.69614 18.0177 5.64046C17.9828 5.58315 17.9861 5.5029 17.973 5.43249C18.402 5.0935 18.9544 5.08149 19.4386 5.00889C20.4545 4.85714 21.472 4.60877 22.5108 4.67755C23.0937 4.71631 23.7018 4.74851 24.0228 5.38936C24.1096 5.5624 24.2979 5.59297 24.4813 5.52256C24.7816 5.40683 25.0785 5.41393 25.3771 5.52256C25.4988 5.56677 25.6178 5.56459 25.7325 5.49199C26.3804 5.08259 27.137 5.10005 27.8526 4.98924C28.4858 4.89099 29.065 5.12243 29.5738 5.52692C29.7299 5.65084 29.8854 5.69232 29.6256 5.88174C29.4722 5.99364 29.6502 5.99801 29.7244 6.01438C30.035 6.08316 30.35 6.13611 30.6546 6.22509C30.7588 6.25566 30.9133 6.29278 30.9417 6.42924C30.9777 6.60338 30.7943 6.59792 30.7037 6.66397C30.3937 6.89214 30.0225 6.9904 29.7239 7.28353C29.321 7.67928 29.3636 8.17984 29.2015 8.62855C29.1545 8.75956 29.2151 8.9719 29.0164 8.97627C28.6125 8.985 28.5961 9.11437 28.7249 9.47191C28.845 9.80435 28.7096 10.1286 28.4018 10.3835C28.0666 10.6614 27.6851 10.9163 27.5459 11.3726C27.5098 11.49 27.3936 11.6161 27.4176 11.7133C27.553 12.2657 27.1763 12.5233 26.822 12.7826C26.4394 13.0626 26.0747 13.3923 25.5387 13.3465C24.8995 13.2914 24.3651 13.5479 23.9611 14.0174C23.7139 14.305 23.3858 14.5048 23.0774 14.4966C22.3061 14.4759 21.9556 15.0349 21.6292 15.5174C21.3437 15.9399 21.0069 16.3373 20.7804 16.8128C20.5347 17.3286 20.2902 17.3128 19.765 17.0273C19.1853 16.7123 18.9752 16.2538 19.0085 15.6244C19.0308 15.2019 19.0396 14.775 19.0063 14.3536C18.9572 13.7351 19.1275 13.2444 19.6651 12.8956C19.7771 12.823 20.0172 12.7106 19.6924 12.5413C19.5429 12.4638 19.58 12.2651 19.7263 12.1696C20.014 11.9824 20.0096 11.6909 20.0806 11.401C20.2443 10.7356 20.4719 10.0855 20.6717 9.42879C20.8115 8.96972 20.8 8.92441 20.3557 8.84962C20.1139 8.80868 19.8911 8.70824 19.6329 8.70279C19.1171 8.69187 19.104 8.50409 19.253 7.99534C19.3202 7.76553 19.7143 7.66454 19.5227 7.42382C19.3502 7.20656 19.1242 7.51388 18.9048 7.50351C18.7066 7.49423 18.5068 7.52207 18.3076 7.53299V7.53463Z" fill="#9FCC3B"/>
<path d="M46.5711 44.7142C46.546 44.3305 46.7163 43.9997 46.8473 43.6558C46.9603 43.3588 47.1857 43.1055 47.1825 42.7633C47.1803 42.4964 47.4303 42.4592 47.5919 42.3976C48.0842 42.2092 48.5253 41.9942 48.7715 41.4789C48.873 41.266 49.1514 41.3091 49.2202 41.5384C49.3135 41.8484 49.3572 42.1978 49.2011 42.48C48.7436 43.3053 48.2551 44.1143 47.7507 44.9124C47.641 45.086 47.4319 45.2219 47.2392 45.3114C46.9073 45.4648 46.5689 45.1482 46.5711 44.7153V44.7142Z" fill="#9FCC3B"/>
<path d="M43.8352 10.3108C43.8352 10.063 43.9165 9.77476 43.8188 9.57497C43.6027 9.13282 43.8385 8.99472 44.1409 8.75344C44.4739 8.48815 44.8707 8.33749 45.19 8.06346C45.2435 8.01761 45.3172 7.98158 45.3866 7.96903C45.5962 7.93082 45.7894 7.9663 45.898 8.17537C46.0143 8.39808 45.9177 8.57767 45.719 8.66938C45.0487 8.97889 44.8751 9.58535 44.7512 10.2267C44.6474 10.7628 44.8647 11.1553 45.3363 11.3845C45.4968 11.4626 45.7168 11.468 45.6196 11.6979C45.5454 11.8725 45.3369 11.973 45.1365 11.9593C44.3876 11.908 43.8532 11.307 43.8494 10.5352C43.8494 10.4604 43.8494 10.3861 43.8494 10.3114C43.8445 10.3114 43.8396 10.3114 43.8346 10.3114L43.8352 10.3108Z" fill="#9FCC3B"/>
<path d="M34.4238 7.66134C34.396 7.36603 34.4724 7.1777 34.825 7.21591C34.9931 7.23393 35.1585 7.21482 35.331 7.15095C35.9954 6.90586 36.4168 6.85728 37.0462 6.90422C37.1881 6.91459 37.3568 6.87966 37.4113 7.07289C37.4599 7.24375 37.3693 7.37967 37.2356 7.44245C36.9037 7.59857 36.907 7.82838 37.0494 8.10459C37.1171 8.23614 37.4053 8.3808 37.1526 8.49925C36.9637 8.58768 36.6662 8.88354 36.4462 8.52491C36.2454 8.19738 36.1291 8.12151 36.0499 8.57731C36.0379 8.64609 35.9806 8.70668 35.9473 8.77273C35.7251 9.21379 35.7257 9.20506 35.3682 8.87426C35.0838 8.61115 34.9096 8.23887 34.5302 8.06474C34.3758 7.99377 34.4374 7.80108 34.4243 7.66025L34.4238 7.66134Z" fill="#9FCC3B"/>
<path d="M28.7496 14.7772C28.7403 15.3018 28.5612 15.4863 27.8205 15.7227C27.7517 15.7445 27.6693 15.7227 27.5978 15.7401C26.6152 15.9749 26.4929 15.8782 26.1551 14.9388C26.0513 14.6506 26.1245 14.5305 26.3019 14.3782C26.5011 14.2073 26.6638 14.144 26.833 14.4448C26.9417 14.6375 27.1343 14.5338 27.2888 14.4371C27.5738 14.2586 27.8876 14.2308 28.2168 14.2428C28.7567 14.2619 28.7583 14.2537 28.749 14.7772H28.7496Z" fill="#9FCC3B"/>
<path d="M17.2066 6.13491C17.2006 6.29485 17.2945 6.48863 17.0996 6.5918C16.9293 6.68187 16.9255 6.7643 17.0144 6.92915C17.3201 7.49685 17.2786 7.5629 16.6225 7.65843C16.5734 7.65351 16.5084 7.66716 16.4768 7.64096C16.242 7.4439 16.1105 7.4117 15.8774 7.50941C15.8992 7.19608 15.486 7.11966 15.4876 6.80251C15.4876 6.75993 15.3195 6.79541 15.2693 6.8953C15.1738 6.8953 15.0777 6.8953 14.9822 6.8953C14.8179 6.41821 15.1448 6.15074 15.4221 5.86143C15.7835 5.8456 16.1481 5.76699 16.2595 6.29976C16.3015 6.50064 16.5745 6.52848 16.7655 6.38874C16.9047 6.28721 17.0122 6.13928 17.206 6.13545L17.2066 6.13491Z" fill="#9FCC3B"/>
<path d="M40.8956 8.53129C40.7657 8.52311 40.6423 8.5171 40.5468 8.4183C40.4098 8.27583 40.3306 8.23107 40.1685 8.43959C40.044 8.60007 39.8623 8.3719 39.734 8.28838C39.6166 8.21251 39.7645 8.06185 39.8104 8.08805C40.1685 8.29602 40.5359 7.6257 40.8841 8.10988C40.9595 8.21469 40.9998 8.09187 41.0059 8.03837C41.019 7.91501 41.0042 7.78891 41.0146 7.665C41.0555 7.189 41.1401 7.15734 41.5408 7.42209C41.7171 7.53891 41.8918 7.68684 42.1423 7.50615C42.2734 7.41172 42.5004 7.39097 42.6134 7.56019C42.7259 7.72887 42.5567 7.88062 42.5015 8.03947C42.448 8.1934 42.3525 8.34406 42.2089 8.34624C41.7624 8.35225 41.323 8.38391 40.8956 8.53129Z" fill="#9FCC3B"/>
<path d="M45.7986 6.53505C45.7543 6.50284 45.7118 6.47336 45.6998 6.41659C45.6828 6.33526 45.6648 6.30142 45.5606 6.33908C45.4803 6.36801 45.4672 6.24628 45.4399 6.18788C45.4154 6.13438 45.5016 6.11418 45.512 6.13383C45.5928 6.28832 45.8739 6.1322 45.8886 6.38275C45.8919 6.43679 45.9339 6.4024 45.9481 6.38439C45.9803 6.34345 46.0033 6.29541 46.0349 6.25393C46.1561 6.09399 46.1938 6.10163 46.2767 6.28613C46.3133 6.36692 46.3422 6.45917 46.4716 6.45098C46.5393 6.44662 46.625 6.49029 46.6266 6.57599C46.6288 6.66114 46.5344 6.67697 46.4793 6.72119C46.4258 6.76377 46.3581 6.79597 46.3062 6.76431C46.1463 6.66606 45.9831 6.57872 45.798 6.53505H45.7986Z" fill="#9FCC3B"/>
<path d="M6.45457 31.8994C7.10797 31.6778 7.58725 32.3028 8.21227 32.4338C8.34928 32.4622 8.4186 32.6423 8.37985 32.8066C8.34983 32.9355 8.25703 33.043 8.13748 33.0627C7.84763 33.1107 7.55122 33.1647 7.35634 32.8301C7.1238 32.43 6.82576 32.2127 6.3312 32.4655C6.13305 32.567 5.89287 32.5031 5.7302 32.3028C5.65433 32.2089 5.53314 32.1254 5.60192 31.9889C5.64941 31.8945 5.7635 31.8967 5.86394 31.8983C6.03698 31.901 6.21057 31.8989 6.45402 31.8989L6.45457 31.8994Z" fill="#9FCC3B"/>
<path d="M9.42684 33.8396C9.12935 33.8068 8.8646 33.8685 8.60477 33.7216C8.36513 33.5863 8.34984 33.4323 8.49068 33.2522C8.88643 32.7467 9.97326 32.8706 10.2795 33.4454C10.3788 33.6321 10.2549 33.7495 10.1196 33.7795C9.88428 33.8308 9.63591 33.8243 9.42684 33.8396Z" fill="#9FCC3B"/>
<path d="M8.81872 35.7729C9.01469 35.8292 9.03816 36.0022 8.96884 36.1267C8.85148 36.339 8.69918 36.5448 8.40113 36.5377C8.1877 36.5328 7.92241 36.47 7.9437 36.8347C7.84271 36.8352 7.74172 36.8358 7.64128 36.8363C7.52174 36.7692 7.42676 36.6529 7.56268 36.5601C7.97044 36.2817 8.3984 36.0328 8.81872 35.7729V35.7729Z" fill="#9FCC3B"/>
<path d="M17.9724 5.43307C17.986 5.50349 17.9828 5.58373 18.0172 5.64105C18.0505 5.69673 18.1662 5.72402 18.1705 5.77151C18.1875 5.94237 18.0417 5.85394 17.9762 5.85721C17.7328 5.86922 17.4877 5.85994 17.2431 5.85885C17.1301 5.84848 16.9604 5.89378 16.9554 5.73112C16.9505 5.55316 17.0946 5.5619 17.2055 5.64269C17.361 5.75568 17.4729 5.69345 17.5843 5.58046C17.6907 5.47183 17.8097 5.39541 17.9719 5.43307H17.9724Z" fill="#9FCC3B"/>
<path d="M7.94375 36.8352C8.12062 36.845 8.32204 36.8499 8.17466 37.1114C8.1097 37.2266 8.1157 37.4056 7.93393 37.4373C7.92902 37.3025 7.9241 37.1676 7.91919 37.0328C7.92738 36.9673 7.93557 36.9013 7.94375 36.8357V36.8352Z" fill="#9FCC3B"/>
<path d="M48.7954 10.1985C48.7021 10.2061 48.6054 10.2214 48.5399 10.1308C48.5367 10.1259 48.565 10.0838 48.5836 10.0789C48.6939 10.0484 48.7605 10.0986 48.7905 10.2045L48.7954 10.199V10.1985Z" fill="#9FCC3B"/>
<path d="M7.9437 36.8352C7.93552 36.9007 7.92733 36.9668 7.91914 37.0323C7.81051 36.9891 7.66695 36.9957 7.64075 36.8363L7.94316 36.8352H7.9437Z" fill="#9FCC3B"/>
<path d="M14.939 7.80746C15.0946 7.82384 15.2643 7.77307 15.4254 7.88716C15.6011 8.01161 15.4155 8.3102 15.7021 8.39481C15.7622 8.41228 15.7327 8.67867 15.5252 8.69832C15.1764 8.73107 14.8675 8.68467 14.5727 8.43739C14.4106 8.30147 14.3669 8.18848 14.386 8.01434C14.4144 7.75615 14.6197 7.82001 14.7807 7.808C14.8298 7.80418 14.8789 7.80746 14.939 7.80746V7.80746Z" fill="#9FCC3B"/>
<path d="M14.3784 7.38511C14.6295 7.38402 14.8801 7.38293 15.1312 7.38184C15.1372 7.65368 14.9593 7.6635 14.754 7.66077C14.5553 7.65805 14.3653 7.66678 14.3784 7.38511V7.38511Z" fill="#9FCC3B"/>
<path d="M15.575 7.51669C15.6748 7.51505 15.7747 7.51341 15.8752 7.51123C15.7786 7.70283 15.6787 7.70829 15.575 7.51669Z" fill="#9FCC3B"/>
<path d="M10.6333 14.5376C10.6163 14.6206 10.571 14.6752 10.4832 14.6866L10.4903 14.6937C10.4968 14.6009 10.547 14.5507 10.6398 14.5441L10.6327 14.5376H10.6333Z" fill="#9FCC3B"/>
<path d="M10.6403 14.544C10.6605 14.5069 10.6807 14.4698 10.7009 14.4321C10.8057 14.5495 10.6583 14.5036 10.6332 14.5369L10.6403 14.5435V14.544Z" fill="#9FCC3B"/>
<path d="M14.3069 6.94556L14.3282 7.0002L14.2758 6.99528L14.3069 6.94556Z" fill="#9FCC3B"/>
<path d="M8.70411 36.7101C8.77562 36.7379 8.83949 36.78 8.80946 36.8662C8.77125 36.9765 8.67245 36.9945 8.5731 36.977C8.51633 36.9672 8.4017 36.9749 8.47375 36.8559C8.52452 36.7718 8.59166 36.7019 8.70411 36.7096V36.7101Z" fill="#9FCC3B"/>
<path d="M35.0237 24.7119C35.0673 25.0253 34.9527 25.3539 35.1208 25.6557C35.1432 25.6956 35.1634 25.7764 35.1449 25.7928C34.9696 25.9478 35.1607 26.3648 34.7982 26.3501C34.45 26.3359 34.6034 26.0187 34.5848 25.8282C34.5608 25.5837 34.5968 25.3337 34.5733 25.0891C34.5373 24.7158 34.7491 24.683 35.0297 24.7185L35.0237 24.7125V24.7119Z" fill="#9FCC3B"/>
<g filter="url(#filter0_d_1913_5618)">
<path d="M29.9017 10.0828C31.1567 10.0828 32.174 9.06547 32.174 7.81055C32.174 6.55564 31.1567 5.53833 29.9017 5.53833C28.6468 5.53833 27.6295 6.55564 27.6295 7.81055C27.6295 9.06547 28.6468 10.0828 29.9017 10.0828Z" fill="#422714"/>
<path d="M24.8106 7.22175C24.8106 7.22175 27.1667 11.1773 30.0284 11.1351C32.8895 11.0929 34.8673 7.22175 34.8673 7.22175L36.7606 8.48397C36.7606 8.48397 34.1517 12.8601 31.3745 12.9862V17.1517H28.555V13.1123C28.555 13.1123 25.5673 12.3967 22.9584 8.39952L24.81 7.22119L24.8106 7.22175Z" fill="#422714"/>
</g>
<g filter="url(#filter1_d_1913_5618)">
<path d="M45.7977 16.4216C47.0526 16.4216 48.07 15.4043 48.07 14.1494C48.07 12.8945 47.0526 11.8772 45.7977 11.8772C44.5428 11.8772 43.5255 12.8945 43.5255 14.1494C43.5255 15.4043 44.5428 16.4216 45.7977 16.4216Z" fill="#C0987F"/>
</g>
<g filter="url(#filter2_d_1913_5618)">
<path d="M42.6139 10.1328C42.6139 10.1328 41.4833 14.5961 43.5361 16.5894C45.5889 18.5828 49.725 17.2439 49.725 17.2439L50.1711 19.4756C50.1711 19.4756 45.2322 20.725 43.1789 18.8506L40.2333 21.7961L38.24 19.8028L41.0961 16.9467C41.0961 16.9467 39.4894 14.3283 40.4711 9.65723L42.6133 10.1333L42.6139 10.1328Z" fill="#C0987F"/>
</g>
<g filter="url(#filter3_d_1913_5618)">
<path d="M52.3016 32.1738C53.5566 32.1738 54.5739 31.1565 54.5739 29.9016C54.5739 28.6467 53.5566 27.6294 52.3016 27.6294C51.0467 27.6294 50.0294 28.6467 50.0294 29.9016C50.0294 31.1565 51.0467 32.1738 52.3016 32.1738Z" fill="#B97C60"/>
</g>
<g filter="url(#filter4_d_1913_5618)">
<path d="M52.8906 24.8105C52.8906 24.8105 48.935 27.1666 48.9772 30.0283C49.0195 32.8894 52.8906 34.8671 52.8906 34.8671L51.6283 36.7605C51.6283 36.7605 47.2522 34.1516 47.1261 31.3744H42.9606V28.5549H47C47 28.5549 47.7156 25.5671 51.7128 22.9583L52.8911 24.8099L52.8906 24.8105Z" fill="#B97C60"/>
</g>
<g filter="url(#filter5_d_1913_5618)">
<path d="M44.8867 47.7896C46.1416 47.7896 47.1589 46.7723 47.1589 45.5173C47.1589 44.2624 46.1416 43.2451 44.8867 43.2451C43.6318 43.2451 42.6145 44.2624 42.6145 45.5173C42.6145 46.7723 43.6318 47.7896 44.8867 47.7896Z" fill="#A27153"/>
</g>
<g filter="url(#filter6_d_1913_5618)">
<path d="M49.8112 42.3334C49.8112 42.3334 45.3478 41.2028 43.3545 43.2556C41.3612 45.3084 42.7 49.4445 42.7 49.4445L40.4684 49.8906C40.4684 49.8906 39.2189 44.9517 41.0934 42.8984L38.1478 39.9528L40.1412 37.9595L42.9973 40.8156C42.9973 40.8156 45.6156 39.2089 50.2867 40.1906L49.8106 42.3328L49.8112 42.3334Z" fill="#A27153"/>
</g>
<g filter="url(#filter7_d_1913_5618)">
<path d="M30.0984 54.4617C31.3533 54.4617 32.3706 53.4444 32.3706 52.1895C32.3706 50.9345 31.3533 49.9172 30.0984 49.9172C28.8435 49.9172 27.8262 50.9345 27.8262 52.1895C27.8262 53.4444 28.8435 54.4617 30.0984 54.4617Z" fill="#986538"/>
</g>
<g filter="url(#filter8_d_1913_5618)">
<path d="M35.1895 52.7784C35.1895 52.7784 32.8334 48.8228 29.9717 48.8651C27.1106 48.9073 25.1328 52.7784 25.1328 52.7784L23.2395 51.5162C23.2395 51.5162 25.8484 47.1401 28.6256 47.0139V42.8484H31.4451V46.8878C31.4451 46.8878 34.4328 47.6034 37.0417 51.6006L35.1901 52.7789L35.1895 52.7784Z" fill="#986538"/>
</g>
<g filter="url(#filter9_d_1913_5618)">
<path d="M14.2583 48.0667C15.5132 48.0667 16.5305 47.0493 16.5305 45.7944C16.5305 44.5395 15.5132 43.5222 14.2583 43.5222C13.0034 43.5222 11.9861 44.5395 11.9861 45.7944C11.9861 47.0493 13.0034 48.0667 14.2583 48.0667Z" fill="#7B512B"/>
</g>
<g filter="url(#filter10_d_1913_5618)">
<path d="M17.4422 49.811C17.4422 49.811 18.5728 45.3477 16.52 43.3544C14.4672 41.361 10.3311 42.6999 10.3311 42.6999L9.88501 40.4683C9.88501 40.4683 14.8239 39.2188 16.8772 41.0933L19.8228 38.1477L21.8161 40.141L18.96 42.9972C18.96 42.9972 20.5667 45.6155 19.585 50.2866L17.4428 49.8105L17.4422 49.811Z" fill="#7B512B"/>
</g>
<g filter="url(#filter11_d_1913_5618)">
<path d="M7.69837 32.3706C8.95328 32.3706 9.97059 31.3533 9.97059 30.0984C9.97059 28.8435 8.95328 27.8262 7.69837 27.8262C6.44346 27.8262 5.42615 28.8435 5.42615 30.0984C5.42615 31.3533 6.44346 32.3706 7.69837 32.3706Z" fill="#60402B"/>
</g>
<g filter="url(#filter12_d_1913_5618)">
<path d="M7.10944 35.1895C7.10944 35.1895 11.065 32.8334 11.0228 29.9717C10.9806 27.1106 7.10944 25.1328 7.10944 25.1328L8.37166 23.2395C8.37166 23.2395 12.7478 25.8484 12.8739 28.6256H17.0394V31.4451H13C13 31.4451 12.2844 34.4328 8.28722 37.0417L7.10889 35.1901L7.10944 35.1895Z" fill="#60402B"/>
</g>
<g filter="url(#filter13_d_1913_5618)">
<path d="M14.0372 16.5867C15.2921 16.5867 16.3095 15.5694 16.3095 14.3145C16.3095 13.0595 15.2921 12.0422 14.0372 12.0422C12.7823 12.0422 11.765 13.0595 11.765 14.3145C11.765 15.5694 12.7823 16.5867 14.0372 16.5867Z" fill="#492B13"/>
</g>
<g filter="url(#filter14_d_1913_5618)">
<path d="M10.0206 17.4984C10.0206 17.4984 14.4839 18.6289 16.4773 16.5762C18.4706 14.5234 17.1317 10.3873 17.1317 10.3873L19.3634 9.94116C19.3634 9.94116 20.6128 14.88 18.7384 16.9334L21.6839 19.8789L19.6906 21.8723L16.8345 19.0162C16.8345 19.0162 14.2162 20.6228 9.54504 19.6412L10.0212 17.4989L10.0206 17.4984Z" fill="#492B13"/>
</g>
<path d="M36.6344 23.8005L39.2433 23.9689V37.0133C39.2433 37.0133 38.4861 35.5405 30.9116 36.4661L34.0677 26.5778L36.6344 23.8005V23.8005Z" fill="#1D1E1E"/>
<path d="M20.6866 23.8843L25.315 24.3471L29.2283 36.1288L29.3966 36.7177C29.3966 36.7177 23.6322 35.371 20.855 37.1805L20.6866 23.8838V23.8843Z" fill="#1D1E1E"/>
<path d="M35.7927 22.8751L38.1911 22.5801L38.5277 35.7084L32.09 36.0451L32.8472 24.3056L35.7927 22.8751Z" fill="#AD122F"/>
<path d="M21.6967 22.5383L25.4839 22.875L27.1673 33.3106L29.2711 36.2983L29.2289 36.5928C29.2289 36.5928 25.6945 35.1622 21.655 35.6672L21.6973 22.5389L21.6967 22.5383Z" fill="#AD122F"/>
<path d="M30.0277 24.3056C30.0277 24.3056 34.025 21.4022 37.4755 22.1594L37.6439 35.2039C37.6439 35.2039 36.4722 35.0307 35.1666 35.2039C33.8611 35.377 31.1639 36.8028 30.1961 36.7189C29.2283 36.635 27.1455 35.8928 26 35.4444C24.8544 34.9961 22.5377 35.2883 22.5377 35.2883L22.4539 22.1178C22.4539 22.1178 26.9144 21.7389 29.5227 24.2217L30.0277 24.3056Z" fill="#E4202C"/>
<path d="M28.9761 23.8216L30.9116 23.8005V27.2511H33.3522V29.1866H30.9539V36.7083H29.1022V29.1866H26.7461V27.3772H28.9761V23.8216Z" fill="white"/>
</g>
<path d="M73.4238 10.4907H79.1465C80.2793 10.4907 81.1224 10.5396 81.6758 10.6372C82.2357 10.7284 82.7337 10.9237 83.1699 11.2231C83.6126 11.5226 83.9805 11.923 84.2734 12.4243C84.5664 12.9191 84.7129 13.4757 84.7129 14.0942C84.7129 14.7648 84.5306 15.38 84.166 15.9399C83.8079 16.4998 83.3197 16.9198 82.7012 17.1997C83.5736 17.4536 84.2441 17.8866 84.7129 18.4985C85.1816 19.1105 85.416 19.8299 85.416 20.6567C85.416 21.3078 85.263 21.9425 84.957 22.561C84.6576 23.173 84.2441 23.6646 83.7168 24.0356C83.196 24.4002 82.5514 24.6248 81.7832 24.7095C81.3014 24.7616 80.1393 24.7941 78.2969 24.8071H73.4238V10.4907ZM76.3145 12.8735V16.1841H78.209C79.3353 16.1841 80.0352 16.1678 80.3086 16.1353C80.8034 16.0767 81.1908 15.9074 81.4707 15.6274C81.7572 15.341 81.9004 14.9666 81.9004 14.5044C81.9004 14.0617 81.7767 13.7036 81.5293 13.4302C81.2884 13.1502 80.9271 12.981 80.4453 12.9224C80.1589 12.8898 79.3353 12.8735 77.9746 12.8735H76.3145ZM76.3145 18.5669V22.395H78.9902C80.0319 22.395 80.6927 22.3657 80.9727 22.3071C81.4023 22.229 81.7507 22.0402 82.0176 21.7407C82.291 21.4347 82.4277 21.0278 82.4277 20.52C82.4277 20.0903 82.3236 19.7257 82.1152 19.4263C81.9069 19.1268 81.6042 18.9087 81.207 18.772C80.8164 18.6353 79.9635 18.5669 78.6484 18.5669H76.3145Z" fill="black"/>
<path d="M87.8477 13.0298V10.4907H90.5918V13.0298H87.8477ZM87.8477 24.8071V14.436H90.5918V24.8071H87.8477Z" fill="black"/>
<path d="M93.2969 24.8071V10.4907H96.041V15.647C96.8874 14.6834 97.89 14.2017 99.0488 14.2017C100.312 14.2017 101.357 14.6606 102.184 15.5786C103.01 16.4901 103.424 17.8019 103.424 19.5142C103.424 21.285 103.001 22.6489 102.154 23.606C101.314 24.563 100.292 25.0415 99.0879 25.0415C98.4954 25.0415 97.9095 24.895 97.3301 24.6021C96.7572 24.3026 96.2624 23.8631 95.8457 23.2837V24.8071H93.2969ZM96.0215 19.397C96.0215 20.4712 96.1908 21.2655 96.5293 21.7798C97.0046 22.509 97.6361 22.8735 98.4238 22.8735C99.0293 22.8735 99.5436 22.6164 99.9668 22.1021C100.396 21.5812 100.611 20.7642 100.611 19.6509C100.611 18.466 100.396 17.6131 99.9668 17.0923C99.5371 16.5649 98.987 16.3013 98.3164 16.3013C97.6589 16.3013 97.112 16.5584 96.6758 17.0728C96.2396 17.5806 96.0215 18.3553 96.0215 19.397Z" fill="black"/>
<path d="M105.641 24.8071V10.4907H108.385V24.8071H105.641Z" fill="black"/>
<path d="M117.213 21.5063L119.947 21.9653C119.596 22.9679 119.039 23.7329 118.277 24.2603C117.522 24.7811 116.575 25.0415 115.436 25.0415C113.632 25.0415 112.298 24.4523 111.432 23.2739C110.748 22.3299 110.406 21.1385 110.406 19.6997C110.406 17.981 110.855 16.6366 111.754 15.6665C112.652 14.6899 113.788 14.2017 115.162 14.2017C116.705 14.2017 117.923 14.7127 118.814 15.7349C119.706 16.7505 120.133 18.3097 120.094 20.4126H113.219C113.238 21.2264 113.46 21.8612 113.883 22.3169C114.306 22.7661 114.833 22.9907 115.465 22.9907C115.895 22.9907 116.256 22.8735 116.549 22.6392C116.842 22.4048 117.063 22.0272 117.213 21.5063ZM117.369 18.7329C117.35 17.9386 117.145 17.3364 116.754 16.9263C116.363 16.5096 115.888 16.3013 115.328 16.3013C114.729 16.3013 114.234 16.5194 113.844 16.9556C113.453 17.3918 113.261 17.9842 113.268 18.7329H117.369Z" fill="black"/>
<path d="M126.705 14.436H128.229V13.6548C128.229 12.7824 128.32 12.1313 128.502 11.7017C128.691 11.272 129.033 10.9237 129.527 10.6567C130.029 10.3833 130.66 10.2466 131.422 10.2466C132.203 10.2466 132.968 10.3638 133.717 10.5981L133.346 12.5122C132.91 12.408 132.49 12.356 132.086 12.356C131.689 12.356 131.402 12.4504 131.227 12.6392C131.057 12.8215 130.973 13.1763 130.973 13.7036V14.436H133.023V16.5942H130.973V24.8071H128.229V16.5942H126.705V14.436Z" fill="black"/>
<path d="M133.932 19.4751C133.932 18.5636 134.156 17.6815 134.605 16.8286C135.055 15.9757 135.689 15.3247 136.51 14.8755C137.337 14.4263 138.258 14.2017 139.273 14.2017C140.842 14.2017 142.128 14.7127 143.131 15.7349C144.133 16.7505 144.635 18.0363 144.635 19.5923C144.635 21.1613 144.127 22.4634 143.111 23.4985C142.102 24.5272 140.829 25.0415 139.293 25.0415C138.342 25.0415 137.434 24.8267 136.568 24.397C135.709 23.9673 135.055 23.339 134.605 22.5122C134.156 21.6789 133.932 20.6665 133.932 19.4751ZM136.744 19.6216C136.744 20.6502 136.988 21.438 137.477 21.9849C137.965 22.5317 138.567 22.8052 139.283 22.8052C139.999 22.8052 140.598 22.5317 141.08 21.9849C141.568 21.438 141.812 20.6437 141.812 19.6021C141.812 18.5864 141.568 17.8052 141.08 17.2583C140.598 16.7114 139.999 16.438 139.283 16.438C138.567 16.438 137.965 16.7114 137.477 17.2583C136.988 17.8052 136.744 18.5929 136.744 19.6216Z" fill="black"/>
<path d="M149.42 24.8071H146.676V14.436H149.225V15.9106C149.661 15.214 150.051 14.755 150.396 14.5337C150.748 14.3123 151.145 14.2017 151.588 14.2017C152.213 14.2017 152.815 14.3742 153.395 14.7192L152.545 17.1118C152.083 16.8123 151.653 16.6626 151.256 16.6626C150.872 16.6626 150.546 16.77 150.279 16.9849C150.012 17.1932 149.801 17.5741 149.645 18.1274C149.495 18.6808 149.42 19.8397 149.42 21.604V24.8071Z" fill="black"/>
<path d="M169.332 19.5435L172.135 20.4321C171.705 21.9946 170.989 23.1567 169.986 23.9185C168.99 24.6737 167.724 25.0513 166.188 25.0513C164.286 25.0513 162.724 24.4035 161.5 23.1079C160.276 21.8058 159.664 20.0285 159.664 17.7759C159.664 15.3931 160.279 13.5441 161.51 12.229C162.74 10.9074 164.358 10.2466 166.363 10.2466C168.115 10.2466 169.537 10.7642 170.631 11.7993C171.282 12.4113 171.77 13.2902 172.096 14.436L169.234 15.1196C169.065 14.3774 168.71 13.7915 168.17 13.3618C167.636 12.9321 166.985 12.7173 166.217 12.7173C165.156 12.7173 164.293 13.0981 163.629 13.8599C162.971 14.6216 162.643 15.8553 162.643 17.561C162.643 19.3709 162.968 20.66 163.619 21.4282C164.27 22.1965 165.117 22.5806 166.158 22.5806C166.926 22.5806 167.587 22.3364 168.141 21.8481C168.694 21.3599 169.091 20.5916 169.332 19.5435Z" fill="black"/>
<path d="M177.34 10.4907V15.7544C178.225 14.7192 179.283 14.2017 180.514 14.2017C181.145 14.2017 181.715 14.3188 182.223 14.5532C182.73 14.7876 183.111 15.0871 183.365 15.4517C183.626 15.8162 183.801 16.2199 183.893 16.6626C183.99 17.1053 184.039 17.7922 184.039 18.7231V24.8071H181.295V19.3286C181.295 18.2414 181.243 17.5513 181.139 17.2583C181.035 16.9653 180.849 16.7342 180.582 16.5649C180.322 16.3892 179.993 16.3013 179.596 16.3013C179.14 16.3013 178.733 16.4119 178.375 16.6333C178.017 16.8547 177.753 17.1899 177.584 17.6392C177.421 18.0819 177.34 18.7394 177.34 19.6118V24.8071H174.596V10.4907H177.34Z" fill="black"/>
<path d="M186.832 13.0298V10.4907H189.576V13.0298H186.832ZM186.832 24.8071V14.436H189.576V24.8071H186.832Z" fill="black"/>
<path d="M192.398 24.8071V10.4907H195.143V24.8071H192.398Z" fill="black"/>
<path d="M207.477 24.8071H204.928V23.2837C204.505 23.8761 204.003 24.3188 203.424 24.6118C202.851 24.8983 202.271 25.0415 201.686 25.0415C200.494 25.0415 199.472 24.563 198.619 23.606C197.773 22.6424 197.35 21.3013 197.35 19.5825C197.35 17.8247 197.763 16.4901 198.59 15.5786C199.417 14.6606 200.462 14.2017 201.725 14.2017C202.883 14.2017 203.886 14.6834 204.732 15.647V10.4907H207.477V24.8071ZM200.152 19.397C200.152 20.5037 200.305 21.3045 200.611 21.7993C201.054 22.5155 201.673 22.8735 202.467 22.8735C203.098 22.8735 203.635 22.6066 204.078 22.0728C204.521 21.5324 204.742 20.7284 204.742 19.6606C204.742 18.4692 204.527 17.6131 204.098 17.0923C203.668 16.5649 203.118 16.3013 202.447 16.3013C201.796 16.3013 201.249 16.5617 200.807 17.0825C200.37 17.5968 200.152 18.3683 200.152 19.397Z" fill="black"/>
<path d="M212.818 24.8071H210.074V14.436H212.623V15.9106C213.059 15.214 213.45 14.755 213.795 14.5337C214.146 14.3123 214.544 14.2017 214.986 14.2017C215.611 14.2017 216.214 14.3742 216.793 14.7192L215.943 17.1118C215.481 16.8123 215.051 16.6626 214.654 16.6626C214.27 16.6626 213.945 16.77 213.678 16.9849C213.411 17.1932 213.199 17.5741 213.043 18.1274C212.893 18.6808 212.818 19.8397 212.818 21.604V24.8071Z" fill="black"/>
<path d="M223.99 21.5063L226.725 21.9653C226.373 22.9679 225.816 23.7329 225.055 24.2603C224.299 24.7811 223.352 25.0415 222.213 25.0415C220.41 25.0415 219.075 24.4523 218.209 23.2739C217.525 22.3299 217.184 21.1385 217.184 19.6997C217.184 17.981 217.633 16.6366 218.531 15.6665C219.43 14.6899 220.566 14.2017 221.939 14.2017C223.482 14.2017 224.7 14.7127 225.592 15.7349C226.484 16.7505 226.91 18.3097 226.871 20.4126H219.996C220.016 21.2264 220.237 21.8612 220.66 22.3169C221.083 22.7661 221.611 22.9907 222.242 22.9907C222.672 22.9907 223.033 22.8735 223.326 22.6392C223.619 22.4048 223.84 22.0272 223.99 21.5063ZM224.146 18.7329C224.127 17.9386 223.922 17.3364 223.531 16.9263C223.141 16.5096 222.665 16.3013 222.105 16.3013C221.507 16.3013 221.012 16.5194 220.621 16.9556C220.23 17.3918 220.038 17.9842 220.045 18.7329H224.146Z" fill="black"/>
<path d="M238.551 24.8071H235.807V19.5142C235.807 18.3944 235.748 17.6717 235.631 17.3462C235.514 17.0142 235.322 16.757 235.055 16.5747C234.794 16.3924 234.479 16.3013 234.107 16.3013C233.632 16.3013 233.206 16.4315 232.828 16.6919C232.451 16.9523 232.19 17.2974 232.047 17.7271C231.91 18.1567 231.842 18.951 231.842 20.1099V24.8071H229.098V14.436H231.646V15.9595C232.551 14.7876 233.691 14.2017 235.064 14.2017C235.67 14.2017 236.223 14.3123 236.725 14.5337C237.226 14.7485 237.604 15.0252 237.857 15.3638C238.118 15.7023 238.297 16.0864 238.395 16.5161C238.499 16.9458 238.551 17.561 238.551 18.3618V24.8071Z" fill="black"/>
<path d="M74.2217 46.8071L72 39.5474H73.2715L74.4268 43.7378L74.8574 45.2964C74.8757 45.2189 75.001 44.7199 75.2334 43.7993L76.3887 39.5474H77.6533L78.7402 43.7583L79.1025 45.146L79.5195 43.7446L80.7637 39.5474H81.96L79.6904 46.8071H78.4121L77.2568 42.4595L76.9766 41.2222L75.5068 46.8071H74.2217Z" fill="black"/>
<path d="M84.3389 46.8071L82.1172 39.5474H83.3887L84.5439 43.7378L84.9746 45.2964C84.9928 45.2189 85.1182 44.7199 85.3506 43.7993L86.5059 39.5474H87.7705L88.8574 43.7583L89.2197 45.146L89.6367 43.7446L90.8809 39.5474H92.0771L89.8076 46.8071H88.5293L87.374 42.4595L87.0938 41.2222L85.624 46.8071H84.3389Z" fill="black"/>
<path d="M94.4561 46.8071L92.2344 39.5474H93.5059L94.6611 43.7378L95.0918 45.2964C95.11 45.2189 95.2354 44.7199 95.4678 43.7993L96.623 39.5474H97.8877L98.9746 43.7583L99.3369 45.146L99.7539 43.7446L100.998 39.5474H102.194L99.9248 46.8071H98.6465L97.4912 42.4595L97.2109 41.2222L95.7412 46.8071H94.4561Z" fill="black"/>
<path d="M102.803 46.8071V45.4058H104.204V46.8071H102.803Z" fill="black"/>
<path d="M107.485 46.8071H106.344V36.7856H107.574V40.3608C108.094 39.7091 108.757 39.3833 109.563 39.3833C110.01 39.3833 110.432 39.4744 110.828 39.6567C111.229 39.8345 111.557 40.0874 111.812 40.4155C112.072 40.7391 112.275 41.131 112.421 41.5913C112.567 42.0516 112.64 42.5438 112.64 43.0679C112.64 44.312 112.332 45.2736 111.717 45.9526C111.102 46.6317 110.363 46.9712 109.502 46.9712C108.645 46.9712 107.973 46.6134 107.485 45.8979V46.8071ZM107.472 43.1226C107.472 43.993 107.59 44.6219 107.827 45.0093C108.215 45.6427 108.739 45.9595 109.399 45.9595C109.937 45.9595 110.402 45.7271 110.794 45.2622C111.186 44.7928 111.382 44.0955 111.382 43.1704C111.382 42.2225 111.193 41.5229 110.814 41.0718C110.441 40.6206 109.987 40.395 109.454 40.395C108.916 40.395 108.451 40.6297 108.06 41.0991C107.668 41.564 107.472 42.2384 107.472 43.1226Z" fill="black"/>
<path d="M114.15 38.2007V36.7856H115.381V38.2007H114.15ZM114.15 46.8071V39.5474H115.381V46.8071H114.15Z" fill="black"/>
<path d="M118.396 46.8071H117.254V36.7856H118.484V40.3608C119.004 39.7091 119.667 39.3833 120.474 39.3833C120.92 39.3833 121.342 39.4744 121.738 39.6567C122.139 39.8345 122.467 40.0874 122.723 40.4155C122.982 40.7391 123.185 41.131 123.331 41.5913C123.477 42.0516 123.55 42.5438 123.55 43.0679C123.55 44.312 123.242 45.2736 122.627 45.9526C122.012 46.6317 121.273 46.9712 120.412 46.9712C119.555 46.9712 118.883 46.6134 118.396 45.8979V46.8071ZM118.382 43.1226C118.382 43.993 118.5 44.6219 118.737 45.0093C119.125 45.6427 119.649 45.9595 120.31 45.9595C120.847 45.9595 121.312 45.7271 121.704 45.2622C122.096 44.7928 122.292 44.0955 122.292 43.1704C122.292 42.2225 122.103 41.5229 121.725 41.0718C121.351 40.6206 120.897 40.395 120.364 40.395C119.826 40.395 119.362 40.6297 118.97 41.0991C118.578 41.564 118.382 42.2384 118.382 43.1226Z" fill="black"/>
<path d="M125.026 46.8071V36.7856H126.257V46.8071H125.026Z" fill="black"/>
<path d="M133.141 44.4692L134.412 44.6265C134.212 45.3693 133.84 45.9458 133.298 46.356C132.756 46.7661 132.063 46.9712 131.22 46.9712C130.158 46.9712 129.315 46.6453 128.69 45.9937C128.071 45.3374 127.761 44.4191 127.761 43.2388C127.761 42.0174 128.075 41.0695 128.704 40.395C129.333 39.7205 130.149 39.3833 131.151 39.3833C132.122 39.3833 132.915 39.7137 133.53 40.3745C134.146 41.0353 134.453 41.965 134.453 43.1636C134.453 43.2365 134.451 43.3459 134.446 43.4917H129.032C129.078 44.2892 129.303 44.8999 129.709 45.3237C130.115 45.7476 130.62 45.9595 131.227 45.9595C131.678 45.9595 132.063 45.841 132.382 45.604C132.701 45.367 132.954 44.9888 133.141 44.4692ZM129.101 42.48H133.154C133.1 41.8693 132.945 41.4113 132.689 41.106C132.298 40.632 131.789 40.395 131.165 40.395C130.6 40.395 130.124 40.5841 129.736 40.9624C129.354 41.3407 129.142 41.8465 129.101 42.48Z" fill="black"/>
<path d="M136.258 46.8071V40.5044H135.171V39.5474H136.258V38.7749C136.258 38.2873 136.301 37.925 136.388 37.688C136.506 37.369 136.714 37.1115 137.01 36.9155C137.311 36.715 137.73 36.6147 138.268 36.6147C138.614 36.6147 138.997 36.6558 139.416 36.7378L139.231 37.811C138.976 37.7655 138.735 37.7427 138.507 37.7427C138.133 37.7427 137.869 37.8224 137.714 37.9819C137.559 38.1414 137.481 38.4399 137.481 38.8774V39.5474H138.896V40.5044H137.481V46.8071H136.258Z" fill="black"/>
<path d="M139.402 43.1772C139.402 41.8328 139.776 40.8371 140.523 40.1899C141.148 39.6522 141.909 39.3833 142.807 39.3833C143.805 39.3833 144.62 39.7114 145.254 40.3677C145.887 41.0194 146.204 41.9217 146.204 43.0747C146.204 44.009 146.063 44.745 145.78 45.2827C145.502 45.8159 145.094 46.2306 144.557 46.5269C144.023 46.8231 143.44 46.9712 142.807 46.9712C141.79 46.9712 140.968 46.6453 140.339 45.9937C139.715 45.342 139.402 44.4032 139.402 43.1772ZM140.667 43.1772C140.667 44.1069 140.87 44.8042 141.275 45.269C141.681 45.7293 142.191 45.9595 142.807 45.9595C143.417 45.9595 143.925 45.7271 144.331 45.2622C144.737 44.7974 144.939 44.0887 144.939 43.1362C144.939 42.2384 144.734 41.5594 144.324 41.0991C143.919 40.6343 143.413 40.4019 142.807 40.4019C142.191 40.4019 141.681 40.632 141.275 41.0923C140.87 41.5526 140.667 42.2476 140.667 43.1772Z" fill="black"/>
<path d="M147.64 46.8071V39.5474H148.747V40.6479C149.03 40.133 149.289 39.7935 149.526 39.6294C149.768 39.4653 150.032 39.3833 150.319 39.3833C150.734 39.3833 151.156 39.5155 151.584 39.7798L151.16 40.9214C150.859 40.7437 150.559 40.6548 150.258 40.6548C149.989 40.6548 149.747 40.7368 149.533 40.9009C149.319 41.0604 149.166 41.2837 149.075 41.5708C148.938 42.0083 148.87 42.4868 148.87 43.0063V46.8071H147.64Z" fill="black"/>
<path d="M157.053 44.1479L158.263 44.3052C158.131 45.1392 157.791 45.7931 157.244 46.2671C156.702 46.7365 156.034 46.9712 155.241 46.9712C154.248 46.9712 153.448 46.6476 152.842 46.0005C152.24 45.3488 151.939 44.4168 151.939 43.2046C151.939 42.4207 152.069 41.7349 152.329 41.147C152.589 40.5591 152.983 40.1193 153.512 39.8276C154.045 39.5314 154.624 39.3833 155.248 39.3833C156.036 39.3833 156.681 39.5838 157.183 39.9849C157.684 40.3813 158.005 40.9465 158.146 41.6802L156.95 41.8647C156.836 41.3771 156.633 41.0103 156.342 40.7642C156.055 40.5181 155.706 40.395 155.296 40.395C154.676 40.395 154.173 40.6183 153.785 41.0649C153.398 41.507 153.204 42.2088 153.204 43.1704C153.204 44.1457 153.391 44.8543 153.765 45.2964C154.138 45.7384 154.626 45.9595 155.228 45.9595C155.711 45.9595 156.114 45.8114 156.438 45.5151C156.761 45.2189 156.966 44.7632 157.053 44.1479Z" fill="black"/>
<path d="M159.315 46.8071V36.7856H160.546V40.3813C161.12 39.716 161.845 39.3833 162.72 39.3833C163.257 39.3833 163.725 39.4904 164.121 39.7046C164.518 39.9142 164.8 40.2059 164.969 40.5796C165.142 40.9533 165.229 41.4956 165.229 42.2065V46.8071H163.998V42.2065C163.998 41.5913 163.864 41.1447 163.595 40.8667C163.33 40.5841 162.954 40.4429 162.467 40.4429C162.102 40.4429 161.758 40.5386 161.435 40.73C161.116 40.9168 160.888 41.172 160.751 41.4956C160.614 41.8192 160.546 42.2658 160.546 42.8354V46.8071H159.315Z" fill="black"/>
<path d="M167.115 38.2007V36.7856H168.346V38.2007H167.115ZM167.115 46.8071V39.5474H168.346V46.8071H167.115Z" fill="black"/>
<path d="M170.198 46.8071V36.7856H171.429V46.8071H170.198Z" fill="black"/>
<path d="M178.053 46.8071V45.8911C177.592 46.6112 176.916 46.9712 176.022 46.9712C175.444 46.9712 174.91 46.8117 174.423 46.4927C173.94 46.1737 173.564 45.7293 173.295 45.1597C173.031 44.5854 172.898 43.9269 172.898 43.1841C172.898 42.4595 173.019 41.8032 173.261 41.2153C173.502 40.6229 173.865 40.1694 174.348 39.855C174.831 39.5405 175.371 39.3833 175.968 39.3833C176.405 39.3833 176.795 39.4767 177.137 39.6636C177.479 39.8459 177.757 40.0851 177.971 40.3813V36.7856H179.194V46.8071H178.053ZM174.163 43.1841C174.163 44.1138 174.359 44.8088 174.751 45.269C175.143 45.7293 175.605 45.9595 176.139 45.9595C176.676 45.9595 177.132 45.7407 177.506 45.3032C177.884 44.8612 178.073 44.189 178.073 43.2866C178.073 42.2931 177.882 41.564 177.499 41.0991C177.116 40.6343 176.645 40.4019 176.084 40.4019C175.537 40.4019 175.079 40.6252 174.71 41.0718C174.345 41.5184 174.163 42.2225 174.163 43.1841Z" fill="black"/>
<path d="M181.122 46.8071V39.5474H182.229V40.6479C182.512 40.133 182.772 39.7935 183.009 39.6294C183.25 39.4653 183.515 39.3833 183.802 39.3833C184.216 39.3833 184.638 39.5155 185.066 39.7798L184.643 40.9214C184.342 40.7437 184.041 40.6548 183.74 40.6548C183.471 40.6548 183.23 40.7368 183.016 40.9009C182.801 41.0604 182.649 41.2837 182.558 41.5708C182.421 42.0083 182.353 42.4868 182.353 43.0063V46.8071H181.122Z" fill="black"/>
<path d="M190.768 44.4692L192.039 44.6265C191.839 45.3693 191.467 45.9458 190.925 46.356C190.382 46.7661 189.69 46.9712 188.847 46.9712C187.785 46.9712 186.942 46.6453 186.317 45.9937C185.698 45.3374 185.388 44.4191 185.388 43.2388C185.388 42.0174 185.702 41.0695 186.331 40.395C186.96 39.7205 187.776 39.3833 188.778 39.3833C189.749 39.3833 190.542 39.7137 191.157 40.3745C191.772 41.0353 192.08 41.965 192.08 43.1636C192.08 43.2365 192.078 43.3459 192.073 43.4917H186.659C186.705 44.2892 186.93 44.8999 187.336 45.3237C187.742 45.7476 188.247 45.9595 188.854 45.9595C189.305 45.9595 189.69 45.841 190.009 45.604C190.328 45.367 190.581 44.9888 190.768 44.4692ZM186.728 42.48H190.781C190.727 41.8693 190.572 41.4113 190.316 41.106C189.924 40.632 189.416 40.395 188.792 40.395C188.227 40.395 187.751 40.5841 187.363 40.9624C186.98 41.3407 186.769 41.8465 186.728 42.48Z" fill="black"/>
<path d="M193.591 46.8071V39.5474H194.698V40.5796C195.231 39.7821 196.002 39.3833 197.009 39.3833C197.446 39.3833 197.847 39.4631 198.212 39.6226C198.581 39.7775 198.857 39.9826 199.039 40.2378C199.221 40.493 199.349 40.7961 199.422 41.147C199.467 41.3748 199.49 41.7736 199.49 42.3433V46.8071H198.26V42.3911C198.26 41.8898 198.212 41.5161 198.116 41.27C198.021 41.0194 197.85 40.8211 197.604 40.6753C197.362 40.5249 197.077 40.4497 196.749 40.4497C196.225 40.4497 195.771 40.616 195.389 40.9487C195.01 41.2814 194.821 41.9126 194.821 42.8423V46.8071H193.591Z" fill="black"/>
<path d="M201.732 46.8071V45.4058H203.134V46.8071H201.732Z" fill="black"/>
<path d="M204.822 43.1772C204.822 41.8328 205.196 40.8371 205.943 40.1899C206.568 39.6522 207.329 39.3833 208.227 39.3833C209.225 39.3833 210.04 39.7114 210.674 40.3677C211.307 41.0194 211.624 41.9217 211.624 43.0747C211.624 44.009 211.483 44.745 211.2 45.2827C210.922 45.8159 210.514 46.2306 209.977 46.5269C209.443 46.8231 208.86 46.9712 208.227 46.9712C207.21 46.9712 206.388 46.6453 205.759 45.9937C205.134 45.342 204.822 44.4032 204.822 43.1772ZM206.087 43.1772C206.087 44.1069 206.29 44.8042 206.695 45.269C207.101 45.7293 207.611 45.9595 208.227 45.9595C208.837 45.9595 209.345 45.7271 209.751 45.2622C210.157 44.7974 210.359 44.0887 210.359 43.1362C210.359 42.2384 210.154 41.5594 209.744 41.0991C209.339 40.6343 208.833 40.4019 208.227 40.4019C207.611 40.4019 207.101 40.632 206.695 41.0923C206.29 41.5526 206.087 42.2476 206.087 43.1772Z" fill="black"/>
<path d="M213.06 46.8071V39.5474H214.167V40.6479C214.45 40.133 214.709 39.7935 214.946 39.6294C215.188 39.4653 215.452 39.3833 215.739 39.3833C216.154 39.3833 216.576 39.5155 217.004 39.7798L216.58 40.9214C216.279 40.7437 215.979 40.6548 215.678 40.6548C215.409 40.6548 215.167 40.7368 214.953 40.9009C214.739 41.0604 214.586 41.2837 214.495 41.5708C214.358 42.0083 214.29 42.4868 214.29 43.0063V46.8071H213.06Z" fill="black"/>
<path d="M217.51 47.4087L218.706 47.5864C218.756 47.9556 218.895 48.2244 219.123 48.3931C219.428 48.6209 219.845 48.7349 220.374 48.7349C220.944 48.7349 221.383 48.6209 221.693 48.3931C222.003 48.1652 222.213 47.8462 222.322 47.436C222.386 47.1854 222.416 46.659 222.411 45.8569C221.873 46.4904 221.203 46.8071 220.401 46.8071C219.403 46.8071 218.631 46.4471 218.084 45.7271C217.537 45.007 217.264 44.1434 217.264 43.1362C217.264 42.4435 217.389 41.8055 217.64 41.2222C217.89 40.6343 218.253 40.1808 218.727 39.8618C219.205 39.5428 219.766 39.3833 220.408 39.3833C221.265 39.3833 221.971 39.7297 222.527 40.4224V39.5474H223.662V45.8228C223.662 46.953 223.546 47.7528 223.313 48.2222C223.086 48.6961 222.721 49.0698 222.22 49.3433C221.723 49.6167 221.11 49.7534 220.381 49.7534C219.515 49.7534 218.815 49.5575 218.282 49.1655C217.749 48.7782 217.492 48.1925 217.51 47.4087ZM218.528 43.0474C218.528 43.9998 218.717 44.6948 219.096 45.1323C219.474 45.5698 219.948 45.7886 220.518 45.7886C221.083 45.7886 221.557 45.5721 221.939 45.1392C222.322 44.7017 222.514 44.0181 222.514 43.0884C222.514 42.1997 222.315 41.5298 221.919 41.0786C221.527 40.6274 221.053 40.4019 220.497 40.4019C219.95 40.4019 219.485 40.6252 219.103 41.0718C218.72 41.5138 218.528 42.1724 218.528 43.0474Z" fill="black"/>
<defs>
<filter id="filter0_d_1913_5618" x="2.95837" y="-14.4617" width="53.8022" height="51.6135" filterUnits="userSpaceOnUse" color-interpolation-filters="sRGB">
<feFlood flood-opacity="0" result="BackgroundImageFix"/>
<feColorMatrix in="SourceAlpha" type="matrix" values="0 0 0 0 0 0 0 0 0 0 0 0 0 0 0 0 0 0 127 0" result="hardAlpha"/>
<feOffset/>
<feGaussianBlur stdDeviation="10"/>
<feColorMatrix type="matrix" values="0 0 0 0 1 0 0 0 0 1 0 0 0 0 1 0 0 0 0.85 0"/>
<feBlend mode="normal" in2="BackgroundImageFix" result="effect1_dropShadow_1913_5618"/>
<feBlend mode="normal" in="SourceGraphic" in2="effect1_dropShadow_1913_5618" result="shape"/>
</filter>
<filter id="filter1_d_1913_5618" x="33.5255" y="1.8772" width="24.5444" height="24.5444" filterUnits="userSpaceOnUse" color-interpolation-filters="sRGB">
<feFlood flood-opacity="0" result="BackgroundImageFix"/>
<feColorMatrix in="SourceAlpha" type="matrix" values="0 0 0 0 0 0 0 0 0 0 0 0 0 0 0 0 0 0 127 0" result="hardAlpha"/>
<feOffset/>
<feGaussianBlur stdDeviation="5"/>
<feColorMatrix type="matrix" values="0 0 0 0 1 0 0 0 0 1 0 0 0 0 1 0 0 0 0.75 0"/>
<feBlend mode="normal" in2="BackgroundImageFix" result="effect1_dropShadow_1913_5618"/>
<feBlend mode="normal" in="SourceGraphic" in2="effect1_dropShadow_1913_5618" result="shape"/>
</filter>
<filter id="filter2_d_1913_5618" x="18.24" y="-10.3428" width="51.9312" height="52.1389" filterUnits="userSpaceOnUse" color-interpolation-filters="sRGB">
<feFlood flood-opacity="0" result="BackgroundImageFix"/>
<feColorMatrix in="SourceAlpha" type="matrix" values="0 0 0 0 0 0 0 0 0 0 0 0 0 0 0 0 0 0 127 0" result="hardAlpha"/>
<feOffset/>
<feGaussianBlur stdDeviation="10"/>
<feColorMatrix type="matrix" values="0 0 0 0 1 0 0 0 0 1 0 0 0 0 1 0 0 0 0.85 0"/>
<feBlend mode="normal" in2="BackgroundImageFix" result="effect1_dropShadow_1913_5618"/>
<feBlend mode="normal" in="SourceGraphic" in2="effect1_dropShadow_1913_5618" result="shape"/>
</filter>
<filter id="filter3_d_1913_5618" x="40.0294" y="17.6294" width="24.5444" height="24.5444" filterUnits="userSpaceOnUse" color-interpolation-filters="sRGB">
<feFlood flood-opacity="0" result="BackgroundImageFix"/>
<feColorMatrix in="SourceAlpha" type="matrix" values="0 0 0 0 0 0 0 0 0 0 0 0 0 0 0 0 0 0 127 0" result="hardAlpha"/>
<feOffset/>
<feGaussianBlur stdDeviation="5"/>
<feColorMatrix type="matrix" values="0 0 0 0 1 0 0 0 0 1 0 0 0 0 1 0 0 0 0.75 0"/>
<feBlend mode="normal" in2="BackgroundImageFix" result="effect1_dropShadow_1913_5618"/>
<feBlend mode="normal" in="SourceGraphic" in2="effect1_dropShadow_1913_5618" result="shape"/>
</filter>
<filter id="filter4_d_1913_5618" x="22.9606" y="2.95825" width="49.9305" height="53.8022" filterUnits="userSpaceOnUse" color-interpolation-filters="sRGB">
<feFlood flood-opacity="0" result="BackgroundImageFix"/>
<feColorMatrix in="SourceAlpha" type="matrix" values="0 0 0 0 0 0 0 0 0 0 0 0 0 0 0 0 0 0 127 0" result="hardAlpha"/>
<feOffset/>
<feGaussianBlur stdDeviation="10"/>
<feColorMatrix type="matrix" values="0 0 0 0 1 0 0 0 0 1 0 0 0 0 1 0 0 0 0.85 0"/>
<feBlend mode="normal" in2="BackgroundImageFix" result="effect1_dropShadow_1913_5618"/>
<feBlend mode="normal" in="SourceGraphic" in2="effect1_dropShadow_1913_5618" result="shape"/>
</filter>
<filter id="filter5_d_1913_5618" x="32.6145" y="33.2451" width="24.5444" height="24.5444" filterUnits="userSpaceOnUse" color-interpolation-filters="sRGB">
<feFlood flood-opacity="0" result="BackgroundImageFix"/>
<feColorMatrix in="SourceAlpha" type="matrix" values="0 0 0 0 0 0 0 0 0 0 0 0 0 0 0 0 0 0 127 0" result="hardAlpha"/>
<feOffset/>
<feGaussianBlur stdDeviation="5"/>
<feColorMatrix type="matrix" values="0 0 0 0 1 0 0 0 0 1 0 0 0 0 1 0 0 0 0.75 0"/>
<feBlend mode="normal" in2="BackgroundImageFix" result="effect1_dropShadow_1913_5618"/>
<feBlend mode="normal" in="SourceGraphic" in2="effect1_dropShadow_1913_5618" result="shape"/>
</filter>
<filter id="filter6_d_1913_5618" x="18.1478" y="17.9595" width="52.1389" height="51.9312" filterUnits="userSpaceOnUse" color-interpolation-filters="sRGB">
<feFlood flood-opacity="0" result="BackgroundImageFix"/>
<feColorMatrix in="SourceAlpha" type="matrix" values="0 0 0 0 0 0 0 0 0 0 0 0 0 0 0 0 0 0 127 0" result="hardAlpha"/>
<feOffset/>
<feGaussianBlur stdDeviation="10"/>
<feColorMatrix type="matrix" values="0 0 0 0 1 0 0 0 0 1 0 0 0 0 1 0 0 0 0.85 0"/>
<feBlend mode="normal" in2="BackgroundImageFix" result="effect1_dropShadow_1913_5618"/>
<feBlend mode="normal" in="SourceGraphic" in2="effect1_dropShadow_1913_5618" result="shape"/>
</filter>
<filter id="filter7_d_1913_5618" x="17.8262" y="39.9172" width="24.5444" height="24.5444" filterUnits="userSpaceOnUse" color-interpolation-filters="sRGB">
<feFlood flood-opacity="0" result="BackgroundImageFix"/>
<feColorMatrix in="SourceAlpha" type="matrix" values="0 0 0 0 0 0 0 0 0 0 0 0 0 0 0 0 0 0 127 0" result="hardAlpha"/>
<feOffset/>
<feGaussianBlur stdDeviation="5"/>
<feColorMatrix type="matrix" values="0 0 0 0 1 0 0 0 0 1 0 0 0 0 1 0 0 0 0.75 0"/>
<feBlend mode="normal" in2="BackgroundImageFix" result="effect1_dropShadow_1913_5618"/>
<feBlend mode="normal" in="SourceGraphic" in2="effect1_dropShadow_1913_5618" result="shape"/>
</filter>
<filter id="filter8_d_1913_5618" x="3.2395" y="22.8484" width="53.8022" height="49.9307" filterUnits="userSpaceOnUse" color-interpolation-filters="sRGB">
<feFlood flood-opacity="0" result="BackgroundImageFix"/>
<feColorMatrix in="SourceAlpha" type="matrix" values="0 0 0 0 0 0 0 0 0 0 0 0 0 0 0 0 0 0 127 0" result="hardAlpha"/>
<feOffset/>
<feGaussianBlur stdDeviation="10"/>
<feColorMatrix type="matrix" values="0 0 0 0 1 0 0 0 0 1 0 0 0 0 1 0 0 0 0.85 0"/>
<feBlend mode="normal" in2="BackgroundImageFix" result="effect1_dropShadow_1913_5618"/>
<feBlend mode="normal" in="SourceGraphic" in2="effect1_dropShadow_1913_5618" result="shape"/>
</filter>
<filter id="filter9_d_1913_5618" x="1.98608" y="33.5222" width="24.5444" height="24.5444" filterUnits="userSpaceOnUse" color-interpolation-filters="sRGB">
<feFlood flood-opacity="0" result="BackgroundImageFix"/>
<feColorMatrix in="SourceAlpha" type="matrix" values="0 0 0 0 0 0 0 0 0 0 0 0 0 0 0 0 0 0 127 0" result="hardAlpha"/>
<feOffset/>
<feGaussianBlur stdDeviation="5"/>
<feColorMatrix type="matrix" values="0 0 0 0 1 0 0 0 0 1 0 0 0 0 1 0 0 0 0.75 0"/>
<feBlend mode="normal" in2="BackgroundImageFix" result="effect1_dropShadow_1913_5618"/>
<feBlend mode="normal" in="SourceGraphic" in2="effect1_dropShadow_1913_5618" result="shape"/>
</filter>
<filter id="filter10_d_1913_5618" x="-10.115" y="18.1477" width="51.9312" height="52.1389" filterUnits="userSpaceOnUse" color-interpolation-filters="sRGB">
<feFlood flood-opacity="0" result="BackgroundImageFix"/>
<feColorMatrix in="SourceAlpha" type="matrix" values="0 0 0 0 0 0 0 0 0 0 0 0 0 0 0 0 0 0 127 0" result="hardAlpha"/>
<feOffset/>
<feGaussianBlur stdDeviation="10"/>
<feColorMatrix type="matrix" values="0 0 0 0 1 0 0 0 0 1 0 0 0 0 1 0 0 0 0.85 0"/>
<feBlend mode="normal" in2="BackgroundImageFix" result="effect1_dropShadow_1913_5618"/>
<feBlend mode="normal" in="SourceGraphic" in2="effect1_dropShadow_1913_5618" result="shape"/>
</filter>
<filter id="filter11_d_1913_5618" x="-4.57385" y="17.8262" width="24.5444" height="24.5444" filterUnits="userSpaceOnUse" color-interpolation-filters="sRGB">
<feFlood flood-opacity="0" result="BackgroundImageFix"/>
<feColorMatrix in="SourceAlpha" type="matrix" values="0 0 0 0 0 0 0 0 0 0 0 0 0 0 0 0 0 0 127 0" result="hardAlpha"/>
<feOffset/>
<feGaussianBlur stdDeviation="5"/>
<feColorMatrix type="matrix" values="0 0 0 0 1 0 0 0 0 1 0 0 0 0 1 0 0 0 0.75 0"/>
<feBlend mode="normal" in2="BackgroundImageFix" result="effect1_dropShadow_1913_5618"/>
<feBlend mode="normal" in="SourceGraphic" in2="effect1_dropShadow_1913_5618" result="shape"/>
</filter>
<filter id="filter12_d_1913_5618" x="-12.8911" y="3.2395" width="49.9305" height="53.8022" filterUnits="userSpaceOnUse" color-interpolation-filters="sRGB">
<feFlood flood-opacity="0" result="BackgroundImageFix"/>
<feColorMatrix in="SourceAlpha" type="matrix" values="0 0 0 0 0 0 0 0 0 0 0 0 0 0 0 0 0 0 127 0" result="hardAlpha"/>
<feOffset/>
<feGaussianBlur stdDeviation="10"/>
<feColorMatrix type="matrix" values="0 0 0 0 1 0 0 0 0 1 0 0 0 0 1 0 0 0 0.85 0"/>
<feBlend mode="normal" in2="BackgroundImageFix" result="effect1_dropShadow_1913_5618"/>
<feBlend mode="normal" in="SourceGraphic" in2="effect1_dropShadow_1913_5618" result="shape"/>
</filter>
<filter id="filter13_d_1913_5618" x="1.76501" y="2.04224" width="24.5444" height="24.5444" filterUnits="userSpaceOnUse" color-interpolation-filters="sRGB">
<feFlood flood-opacity="0" result="BackgroundImageFix"/>
<feColorMatrix in="SourceAlpha" type="matrix" values="0 0 0 0 0 0 0 0 0 0 0 0 0 0 0 0 0 0 127 0" result="hardAlpha"/>
<feOffset/>
<feGaussianBlur stdDeviation="5"/>
<feColorMatrix type="matrix" values="0 0 0 0 1 0 0 0 0 1 0 0 0 0 1 0 0 0 0.75 0"/>
<feBlend mode="normal" in2="BackgroundImageFix" result="effect1_dropShadow_1913_5618"/>
<feBlend mode="normal" in="SourceGraphic" in2="effect1_dropShadow_1913_5618" result="shape"/>
</filter>
<filter id="filter14_d_1913_5618" x="-10.455" y="-10.0588" width="52.1389" height="51.9312" filterUnits="userSpaceOnUse" color-interpolation-filters="sRGB">
<feFlood flood-opacity="0" result="BackgroundImageFix"/>
<feColorMatrix in="SourceAlpha" type="matrix" values="0 0 0 0 0 0 0 0 0 0 0 0 0 0 0 0 0 0 127 0" result="hardAlpha"/>
<feOffset/>
<feGaussianBlur stdDeviation="10"/>
<feColorMatrix type="matrix" values="0 0 0 0 1 0 0 0 0 1 0 0 0 0 1 0 0 0 0.85 0"/>
<feBlend mode="normal" in2="BackgroundImageFix" result="effect1_dropShadow_1913_5618"/>
<feBlend mode="normal" in="SourceGraphic" in2="effect1_dropShadow_1913_5618" result="shape"/>
</filter>
<radialGradient id="paint0_radial_1913_5618" cx="0" cy="0" r="1" gradientUnits="userSpaceOnUse" gradientTransform="translate(30 30) scale(29.3144)">
<stop offset="0.12" stop-color="#29ACCF"/>
<stop offset="0.35" stop-color="#25A7CD"/>
<stop offset="0.62" stop-color="#1B99C9"/>
<stop offset="0.89" stop-color="#0A83C2"/>
<stop offset="1" stop-color="#0379BF"/>
</radialGradient>
<clipPath id="clip0_1913_5618">
<rect width="60" height="60" fill="white"/>
</clipPath>
</defs>
</svg>
