<svg width="20" height="16" viewBox="0 0 20 16" fill="none" xmlns="http://www.w3.org/2000/svg">
<path fill-rule="evenodd" clip-rule="evenodd" d="M0.439272 7.73722C0.897363 7.27912 1.64008 7.27912 2.09817 7.73722L7.47737 13.1164C7.93547 13.5745 7.93547 14.3172 7.47737 14.7753C7.01928 15.2334 6.27657 15.2334 5.81848 14.7753L0.439272 9.39612C-0.0188198 8.93802 -0.0188198 8.19531 0.439272 7.73722Z" fill="white"/>
<path fill-rule="evenodd" clip-rule="evenodd" d="M5.81848 14.7753C5.36039 14.3172 5.36039 13.5745 5.81848 13.1164L17.5957 1.01001C18.0538 0.551919 18.7965 0.551918 19.2546 1.01001C19.7127 1.4681 19.7127 2.21082 19.2546 2.66891L7.47737 14.7753C7.01928 15.2334 6.27657 15.2334 5.81848 14.7753Z" fill="white"/>
</svg>
