<svg width="17" height="17" viewBox="0 0 17 17" fill="none" xmlns="http://www.w3.org/2000/svg">
<g clip-path="url(#clip0_4689_3525)">
<path fill-rule="evenodd" clip-rule="evenodd" d="M7.55241 0.743752C6.15214 0.914383 4.66516 1.56631 3.50686 2.51733L3.28818 2.69688L2.5228 1.94242C1.68424 1.11587 1.63668 1.08443 1.26496 1.11128C1.01691 1.12918 0.841052 1.23189 0.690783 1.44669L0.591139 1.58908L0.580168 3.92065C0.57266 5.51108 0.581663 6.29508 0.608451 6.38701C0.659913 6.5635 0.801034 6.72726 0.987531 6.82683C1.13707 6.90669 1.14906 6.90716 3.36107 6.91859C4.96329 6.92685 5.6393 6.91815 5.78126 6.88745C6.16009 6.80544 6.449 6.38963 6.38241 6.02228C6.33918 5.78377 6.25857 5.68022 5.59364 5.00927L4.93873 4.34843L5.20687 4.15128C6.29261 3.35295 7.40437 2.98997 8.59114 3.04636C11.0274 3.16205 13.0858 4.71185 13.8637 7.01613C14.0805 7.65845 14.1467 8.08925 14.1462 8.85352C14.1457 9.61641 14.0949 9.96102 13.8863 10.618C13.2339 12.6729 11.4968 14.1895 9.33829 14.5887C8.7913 14.6898 7.7997 14.6823 7.25253 14.5727C6.56308 14.4347 5.89421 14.1785 5.3208 13.8328C4.24996 13.1871 3.41501 12.207 2.9251 11.0205C2.75212 10.6017 2.62062 10.4255 2.39353 10.3086C2.16227 10.1896 2.04225 10.1891 1.51349 10.3048C0.969344 10.4238 0.858547 10.468 0.714036 10.6239C0.478993 10.8774 0.467184 11.1056 0.661663 11.6367C1.37747 13.5918 2.8549 15.2379 4.70959 16.1467C5.51535 16.5416 6.15582 16.7473 7.06039 16.902C7.66944 17.0061 8.91395 17.0142 9.52646 16.918C11.8629 16.5511 13.8511 15.2817 15.1592 13.3215C15.6054 12.6528 16.0242 11.7192 16.2272 10.9405C16.4234 10.1878 16.4772 9.73858 16.4772 8.85352C16.4772 8.18173 16.4632 7.95336 16.399 7.58016C16.2434 6.67588 16.0375 6.03742 15.6422 5.23353C14.4808 2.87187 12.1917 1.20184 9.55697 0.794032C9.10919 0.724724 7.94753 0.695583 7.55241 0.743752Z" fill="white"/>
</g>
<defs>
<clipPath id="clip0_4689_3525">
<rect width="16" height="16.2991" fill="white" transform="translate(0.5 0.703857)"/>
</clipPath>
</defs>
</svg>
