<svg width="19" height="14" viewBox="0 0 19 14" fill="none" xmlns="http://www.w3.org/2000/svg">
<path d="M3 11C2.86739 11 2.74021 11.0527 2.64645 11.1464C2.55268 11.2402 2.5 11.3674 2.5 11.5C2.5 11.6326 2.55268 11.7598 2.64645 11.8536C2.74021 11.9473 2.86739 12 3 12H5C5.13261 12 5.25979 11.9473 5.35355 11.8536C5.44732 11.7598 5.5 11.6326 5.5 11.5C5.5 11.3674 5.44732 11.2402 5.35355 11.1464C5.25979 11.0527 5.13261 11 5 11H3ZM1.75 0C1.28587 0 0.840752 0.184374 0.512563 0.512563C0.184375 0.840752 0 1.28587 0 1.75V12.25C0 13.216 0.784 14 1.75 14H6.25C6.71413 14 7.15925 13.8156 7.48744 13.4874C7.81563 13.1592 8 12.7141 8 12.25V1.75C8 1.28587 7.81563 0.840752 7.48744 0.512563C7.15925 0.184374 6.71413 0 6.25 0H1.75ZM1 1.75C1 1.55109 1.07902 1.36032 1.21967 1.21967C1.36032 1.07902 1.55109 1 1.75 1H6.25C6.44891 1 6.63968 1.07902 6.78033 1.21967C6.92098 1.36032 7 1.55109 7 1.75V12.25C7 12.4489 6.92098 12.6397 6.78033 12.7803C6.63968 12.921 6.44891 13 6.25 13H1.75C1.55109 13 1.36032 12.921 1.21967 12.7803C1.07902 12.6397 1 12.4489 1 12.25V1.75Z" fill="white"/>
<path d="M15.0798 12.0217C14.5175 12.581 8.06202 12.3558 7.26155 12.3558C7.27487 12.0914 7.26668 11.876 7.26155 11.5323C7.84132 11.5323 14.3096 11.7771 14.706 11.3807C15.1024 10.9843 15.1957 10.6559 15.1957 10.0761C15.1957 9.09281 13.6426 9.01726 13.1369 9.01726L11.9016 9.01726C11.1011 9.01726 10.4206 8.73699 9.86003 8.17644C9.29948 7.61589 9.01921 6.93537 9.01921 6.1349C9.01921 5.33443 9.29948 4.65392 9.86003 4.09337C10.4206 3.53282 11.1011 3.25255 11.9016 3.25255L13.3943 3.25255L13.3943 2.01725C13.3943 1.90086 13.4338 1.80313 13.5129 1.72407C13.5919 1.64501 13.6897 1.60549 13.806 1.60549L16.6884 1.60549L16.6884 2.42902L17.6075 2.42902C17.7239 2.42957 17.8216 2.46909 17.9006 2.5476C17.9797 2.62611 18.0192 2.72384 18.0192 2.84078L18.0192 4.48784C18.0187 4.60423 17.9791 4.70196 17.9006 4.78101C17.8221 4.86007 17.7244 4.8996 17.6075 4.8996L16.6884 4.8996L16.6884 5.72313L13.806 5.72313C13.6897 5.72259 13.5919 5.68306 13.5129 5.60455C13.4338 5.52604 13.3943 5.42831 13.3943 5.31137L13.3943 4.07608L11.9016 4.07608C11.3218 4.07608 10.8337 4.27427 10.4373 4.67066C10.0409 5.06705 9.84274 5.55514 9.84274 6.1349C9.84274 6.71467 10.0409 7.20275 10.4373 7.59914C10.8337 7.99553 11.3218 8.19373 11.9016 8.19373L13.1369 8.19373C14.0363 8.19373 16.0192 8.56863 16.0192 10.0761C16.0192 10.8766 15.6621 11.5755 15.0798 12.0217Z" fill="white"/>
</svg>
