<svg width="33" height="54" viewBox="0 0 33 54" fill="none" xmlns="http://www.w3.org/2000/svg">
<path d="M3.26811 54C1.73932 54 0.500002 52.7841 0.500002 51.2842L0.5 3.53362C0.5 2.03374 1.73932 0.817843 3.2681 0.817843L29.2473 0.817842C30.7761 0.817842 32.0154 2.03374 32.0154 3.53362L32.0154 51.2842C32.0154 52.7841 30.7761 54 29.2473 54L3.26811 54Z" fill="#0C8597"/>
<rect x="3.25557" y="48.984" width="42.8943" height="25.9864" transform="rotate(-90 3.25557 48.984)" fill="white"/>
<rect x="2.3702" y="52.4373" width="3.47209" height="27.775" transform="rotate(-90 2.3702 52.4373)" fill="#0C8597"/>
<rect x="2.3702" y="6.08969" width="3.47209" height="27.775" transform="rotate(-90 2.3702 6.08969)" fill="#0C8597"/>
<rect x="10.6545" y="52.4373" width="1.73604" height="11.2065" transform="rotate(-90 10.6545 52.4373)" fill="white"/>
<ellipse cx="16.2578" cy="4.42306" rx="1.17535" ry="1.20335" transform="rotate(-90 16.2578 4.42306)" fill="white"/>
<path fill-rule="evenodd" clip-rule="evenodd" d="M10.6853 14.9203C10.7395 14.866 10.8039 14.8229 10.8748 14.7935C10.9456 14.7641 11.0216 14.749 11.0983 14.749C11.1751 14.749 11.251 14.7641 11.3219 14.7935C11.3928 14.8229 11.4571 14.866 11.5113 14.9203L12.8005 16.2107C13.7997 15.633 14.934 15.3303 16.0882 15.3333H16.9118C18.0669 15.3302 19.2021 15.6333 20.2018 16.2118L21.4933 14.9203C21.6029 14.811 21.7514 14.7496 21.9062 14.7497C22.061 14.7498 22.2094 14.8114 22.3188 14.9209C22.4281 15.0305 22.4895 15.179 22.4894 15.3337C22.4893 15.4885 22.4277 15.637 22.3182 15.7463L21.1702 16.8943C21.9009 17.5126 22.4879 18.2828 22.8903 19.1513C23.2927 20.0197 23.5007 20.9655 23.5 21.9227C23.4997 22.0317 23.4562 22.1361 23.379 22.2131C23.3018 22.2901 23.1972 22.3333 23.0882 22.3333H9.91184C9.80261 22.3333 9.69786 22.2899 9.62063 22.2127C9.54339 22.1355 9.5 22.0307 9.5 21.9215C9.5 19.9055 10.4053 18.1007 11.8333 16.8932L10.6853 15.7463C10.631 15.6921 10.5879 15.6278 10.5585 15.5569C10.5291 15.486 10.514 15.4101 10.514 15.3333C10.514 15.2566 10.5291 15.1806 10.5585 15.1098C10.5879 15.0389 10.631 14.9745 10.6853 14.9203ZM14.75 19.125C14.75 19.3571 14.6578 19.5796 14.4937 19.7437C14.3296 19.9078 14.1071 20 13.875 20C13.6429 20 13.4204 19.9078 13.2563 19.7437C13.0922 19.5796 13 19.3571 13 19.125C13 18.8929 13.0922 18.6704 13.2563 18.5063C13.4204 18.3422 13.6429 18.25 13.875 18.25C14.1071 18.25 14.3296 18.3422 14.4937 18.5063C14.6578 18.6704 14.75 18.8929 14.75 19.125ZM19.0947 20C19.3267 20 19.5493 19.9078 19.7134 19.7437C19.8775 19.5796 19.9697 19.3571 19.9697 19.125C19.9697 18.8929 19.8775 18.6704 19.7134 18.5063C19.5493 18.3422 19.3267 18.25 19.0947 18.25C18.8626 18.25 18.64 18.3422 18.476 18.5063C18.3119 18.6704 18.2197 18.8929 18.2197 19.125C18.2197 19.3571 18.3119 19.5796 18.476 19.7437C18.64 19.9078 18.8626 20 19.0947 20Z" fill="#0C8597"/>
<path d="M7.16667 23.4382C6.85725 23.4382 6.5605 23.5611 6.34171 23.7799C6.12292 23.9987 6 24.2954 6 24.6048V31.6048C6 31.9143 6.12292 32.211 6.34171 32.4298C6.5605 32.6486 6.85725 32.7715 7.16667 32.7715C7.47609 32.7715 7.77283 32.6486 7.99163 32.4298C8.21042 32.211 8.33334 31.9143 8.33334 31.6048V24.6048C8.33334 24.2954 8.21042 23.9987 7.99163 23.7799C7.77283 23.5611 7.47609 23.4382 7.16667 23.4382ZM10.6667 23.4382C10.3572 23.4382 10.0605 23.5611 9.84171 23.7799C9.62292 23.9987 9.5 24.2954 9.5 24.6048V35.1048C9.5 35.4143 9.62292 35.711 9.84171 35.9298C10.0605 36.1486 10.3572 36.2715 10.6667 36.2715H22.3333C22.6428 36.2715 22.9395 36.1486 23.1583 35.9298C23.3771 35.711 23.5 35.4143 23.5 35.1048V24.6048C23.5 24.2954 23.3771 23.9987 23.1583 23.7799C22.9395 23.5611 22.6428 23.4382 22.3333 23.4382H10.6667ZM24.9117 24.6048C24.9117 24.2954 25.0346 23.9987 25.2534 23.7799C25.4722 23.5611 25.7689 23.4382 26.0783 23.4382C26.3878 23.4382 26.6845 23.5611 26.9033 23.7799C27.1221 23.9987 27.245 24.2954 27.245 24.6048V31.6048C27.245 31.9143 27.1221 32.211 26.9033 32.4298C26.6845 32.6486 26.3878 32.7715 26.0783 32.7715C25.7689 32.7715 25.4722 32.6486 25.2534 32.4298C25.0346 32.211 24.9117 31.9143 24.9117 31.6048V24.6048ZM11.5918 37.5C11.5468 37.5 11.5023 37.5089 11.4608 37.5261C11.4192 37.5434 11.3815 37.5687 11.3497 37.6005C11.318 37.6324 11.2928 37.6702 11.2757 37.7118C11.2586 37.7534 11.2498 37.798 11.25 37.843V38.0833C11.25 38.6248 11.4651 39.1441 11.848 39.527C12.2309 39.9099 12.7502 40.125 13.2917 40.125C13.8332 40.125 14.3525 39.9099 14.7353 39.527C15.1182 39.1441 15.3333 38.6248 15.3333 38.0833V37.843C15.3335 37.798 15.3248 37.7534 15.3077 37.7118C15.2905 37.6702 15.2654 37.6324 15.2336 37.6005C15.2019 37.5687 15.1641 37.5434 15.1226 37.5261C15.081 37.5089 15.0365 37.5 14.9915 37.5H11.5918ZM17.6667 37.843C17.6667 37.6528 17.8195 37.5 18.0085 37.5H21.407C21.5972 37.5 21.75 37.6528 21.75 37.843V38.0833C21.75 38.6248 21.5349 39.1441 21.152 39.527C20.7691 39.9099 20.2498 40.125 19.7083 40.125C19.1669 40.125 18.6475 39.9099 18.2647 39.527C17.8818 39.1441 17.6667 38.6248 17.6667 38.0833V37.843Z" fill="#0C8597"/>
</svg>
