<svg width="63" height="69" viewBox="0 0 63 69" fill="none" xmlns="http://www.w3.org/2000/svg">
<path d="M5.69202 21.6521C5.69202 12.6251 5.69202 8.10838 8.89681 5.30579C12.1016 2.50319 17.2599 2.5 27.5797 2.5H34.8767C45.1933 2.5 50.3548 2.5 53.5596 5.30579C56.7643 8.10838 56.7643 12.6251 56.7643 21.6521V50.3803H5.69202V21.6521Z" stroke="#DD8B83" stroke-width="5" stroke-linejoin="round"/>
<path d="M2.5 50.3803H59.9564" stroke="#DD8B83" stroke-width="5" stroke-linecap="round"/>
<path d="M27.0753 13.8828C31.0015 13.321 37.5069 13.5444 32.1219 18.9485C25.3931 25.6996 15.2936 40.8968 27.0753 35.8343C38.8539 30.7654 43.9037 34.1425 38.8539 39.2083" stroke="#DD8B83" stroke-width="5" stroke-linecap="round" stroke-linejoin="round"/>
<path d="M31.2282 50.3803V63.1484M8.88403 66.3404L18.4601 50.3803M53.5723 66.3404L43.9963 50.3803" stroke="#DD8B83" stroke-width="5" stroke-linecap="round"/>
</svg>
