<?xml version="1.0" encoding="UTF-8" standalone="no"?>
<!-- Created with Inkscape (http://www.inkscape.org/) -->

<svg
   xmlns:dc="http://purl.org/dc/elements/1.1/"
   xmlns:cc="http://creativecommons.org/ns#"
   xmlns:rdf="http://www.w3.org/1999/02/22-rdf-syntax-ns#"
   xmlns:svg="http://www.w3.org/2000/svg"
   xmlns="http://www.w3.org/2000/svg"
   xmlns:sodipodi="http://sodipodi.sourceforge.net/DTD/sodipodi-0.dtd"
   xmlns:inkscape="http://www.inkscape.org/namespaces/inkscape"
   width="69.816788"
   height="64.22052"
   id="svg3003"
   version="1.1"
   inkscape:version="0.48.4 r9939"
   sodipodi:docname="changeButton.svg">
  <defs
     id="defs3005" />
  <sodipodi:namedview
     id="base"
     pagecolor="#ffffff"
     bordercolor="#666666"
     borderopacity="1.0"
     inkscape:pageopacity="0.0"
     inkscape:pageshadow="2"
     inkscape:zoom="2.8"
     inkscape:cx="28.638658"
     inkscape:cy="26.527458"
     inkscape:document-units="px"
     inkscape:current-layer="layer1"
     showgrid="false"
     inkscape:window-width="962"
     inkscape:window-height="662"
     inkscape:window-x="78"
     inkscape:window-y="78"
     inkscape:window-maximized="0"
     fit-margin-top="5"
     fit-margin-left="5"
     fit-margin-right="5"
     fit-margin-bottom="5" />
  <metadata
     id="metadata3008">
    <rdf:RDF>
      <cc:Work
         rdf:about="">
        <dc:format>image/svg+xml</dc:format>
        <dc:type
           rdf:resource="http://purl.org/dc/dcmitype/StillImage" />
        <dc:title></dc:title>
      </cc:Work>
    </rdf:RDF>
  </metadata>
  <g
     inkscape:label="Layer 1"
     inkscape:groupmode="layer"
     id="layer1"
     transform="translate(-346.36135,-494.66913)">
    <g
       id="g3916"
       transform="matrix(2.6329259,0,0,2.6339014,138.75258,-2220.9864)"
       inkscape:export-filename="C:\dev\Bloom\DistFiles\root\changeImageButtonSmall.png"
       inkscape:export-xdpi="38.779999"
       inkscape:export-ydpi="38.779999">
      <path
         sodipodi:nodetypes="ssssssssscssc"
         inkscape:connector-curvature="0"
         id="path2996"
         d="m 82.316208,1047.0909 c 0.70427,-0.8486 1.99687,-2.0926 2.87245,-1.9156 0.87558,0.1769 2.43364,0.6578 3.46236,-2.0179 0.63947,-1.6633 2.64846,-2.3791 3.39016,-1.7565 3.41493,2.8668 2.7547,-0.01 3.37824,-1.3129 1.63135,-3.4111 2.36734,-2.6838 4.779642,1.2194 2.0519,3.32 2.10531,6.6643 1.6729,6.6354 0,0 -4.618192,0 -10.213782,0 -9.46003,0 -10.48233,0.5256 -9.34197,-0.8485 z m 1.3286,-9.6449 c -0.34636,-0.9026 -0.15025,-2.1206 0.43581,-2.7067 1.52361,-1.5236 4.41041,-0.1311 4.01242,1.9355 -0.4433,2.3019 -3.64766,2.8575 -4.44823,0.7712 z"
         style="fill:#000000" />
      <rect
         y="1033.1693"
         x="81.00161"
         height="15.846768"
         width="22.223356"
         id="rect2998"
         style="fill:none;stroke:#000000;stroke-width:0.48944291" />
      <g
         transform="matrix(0.75510524,0.6556036,-0.6556036,0.75510524,79.002708,89.71625)"
         id="g3776">
        <path
           style="font-size:medium;font-style:normal;font-variant:normal;font-weight:normal;font-stretch:normal;text-indent:0;text-align:start;text-decoration:none;line-height:normal;letter-spacing:normal;word-spacing:normal;text-transform:none;direction:ltr;block-progression:tb;writing-mode:lr-tb;text-anchor:start;baseline-shift:baseline;color:#000000;fill:#000000;fill-opacity:1;stroke:#96668f;stroke-width:0.60000002;stroke-miterlimit:4;stroke-opacity:1;stroke-dasharray:none;marker:none;visibility:visible;display:inline;overflow:visible;enable-background:accumulate;font-family:Sans;-inkscape-font-specification:Sans"
           d="m 65.941406,-143.54297 c -3.470126,-0.0729 -6.951255,1.34216 -9.394531,4.15625 l -0.002,0 c -3.563765,4.10464 -3.871131,9.98101 -1.115234,14.31055 l -12.478516,14.45312 4.96875,4.3125 12.484375,-14.40429 c 4.628788,2.3739 10.65787,1.32542 14.318359,-2.89063 4.343603,-5.00283 3.801664,-12.67983 -1.201172,-17.02344 -2.18874,-1.90032 -4.881091,-2.85733 -7.580078,-2.91406 z m -0.3125,4.53125 a 7.7271799,7.7271799 0 0 1 7.726563,7.72852 7.7271799,7.7271799 0 0 1 -7.726563,7.72656 7.7271799,7.7271799 0 0 1 -7.728515,-7.72656 7.7271799,7.7271799 0 0 1 7.728515,-7.72852 z"
           transform="matrix(0.36958091,-0.32088053,0.32088053,0.36958091,654.62944,776.64569)"
           id="path3000"
           inkscape:connector-curvature="0" />
      </g>
    </g>
  </g>
</svg>
