<?xml version="1.0" encoding="UTF-8" standalone="no"?>
<svg
   width="68"
   height="54.900002"
   viewBox="0 0 68 54.900002"
   fill="none"
   version="1.1"
   id="svg6"
   xmlns="http://www.w3.org/2000/svg"
   xmlns:svg="http://www.w3.org/2000/svg">
  <g
     filter="url(#filter0_d_5071_2477)"
     id="g4"
     transform="translate(-3.8868895,-0.05398458)">
    <rect
       x="4"
       width="68"
       height="55"
       rx="4"
       fill="#1d94a4"
       id="rect1"
       y="0" />
    <g
       clip-path="url(#clip0_5071_2477)"
       id="g3">
      <path
         d="m 15.1436,37.7576 c 1.6284,-1.8897 4.6173,-4.6601 6.6418,-4.2659 2.0246,0.3939 5.6272,1.4648 8.0059,-4.4937 1.4786,-3.704 6.1239,-5.298 7.8389,-3.9115 7.8962,6.384 6.3696,-0.0222 7.8113,-2.9236 3.7721,-7.5962 5.4739,-5.9766 11.0518,2.7154 4.7445,7.3932 4.868,14.8406 3.8682,14.7762 0,0 -10.6785,0 -23.6169,0 -21.874,0 -24.2378,1.1707 -21.601,-1.8892 z m 3.072,-21.4781 c -0.8008,-2.01 -0.3474,-4.7225 1.0077,-6.0277 3.523,-3.39292 10.198,-0.29187 9.2778,4.3102 -1.025,5.1261 -8.4343,6.3635 -10.2855,1.7175 z"
         fill="#ffffff"
         id="path1" />
      <path
         d="M 63.4906,6.75586 H 12.1045 V 42.045 h 51.3861 z"
         stroke="#ffffff"
         stroke-width="1.28891"
         id="path2" />
      <path
         d="m 47.7543,11.0258 c -3.9272,-0.0794 -7.8668,1.4629 -10.6319,4.5301 h -0.0023 c -4.0332,4.4738 -4.381,10.8786 -1.2621,15.5976 L 21.7358,46.9064 27.3591,51.6068 41.4878,35.907 c 5.2385,2.5874 12.0617,1.4447 16.2044,-3.1506 4.9157,-5.4527 4.3024,-13.8202 -1.3594,-18.5544 -2.477,-2.0713 -5.524,-3.1144 -8.5785,-3.1762 z m -0.3536,4.9388 c 1.1484,10e-5 2.2857,0.218 3.3467,0.6414 1.061,0.4234 2.025,1.0439 2.837,1.8261 0.812,0.7822 1.456,1.7108 1.8954,2.7328 0.4393,1.0219 0.6654,2.1172 0.6652,3.2233 -2e-4,2.2334 -0.9216,4.3754 -2.5614,5.9547 -1.6398,1.5792 -3.8639,2.4666 -6.1829,2.4667 -1.1485,2e-4 -2.2858,-0.2174 -3.3469,-0.6406 -1.0611,-0.4231 -2.0253,-1.0434 -2.8375,-1.8254 -0.8122,-0.782 -1.4565,-1.7104 -1.8961,-2.7323 -0.4396,-1.0218 -0.6659,-2.117 -0.666,-3.2231 -2e-4,-1.1063 0.2259,-2.2017 0.6654,-3.2238 0.4394,-1.0221 1.0837,-1.9508 1.8959,-2.733 0.8122,-0.7823 1.7765,-1.4027 2.8378,-1.826 1.0613,-0.4233 2.1987,-0.641 3.3474,-0.6408 z"
         fill="#ffffff"
         stroke="#1d94a4"
         stroke-width="2"
         id="path3" />
    </g>
  </g>
  <defs
     id="defs6">
    <filter
       id="filter0_d_5071_2477"
       x="0"
       y="0"
       width="76"
       height="63"
       filterUnits="userSpaceOnUse"
       color-interpolation-filters="sRGB">
      <feFlood
         flood-opacity="0"
         result="BackgroundImageFix"
         id="feFlood4" />
      <feColorMatrix
         in="SourceAlpha"
         type="matrix"
         values="0 0 0 0 0 0 0 0 0 0 0 0 0 0 0 0 0 0 127 0"
         result="hardAlpha"
         id="feColorMatrix4" />
      <feOffset
         dy="4"
         id="feOffset4" />
      <feGaussianBlur
         stdDeviation="2"
         id="feGaussianBlur4" />
      <feComposite
         in2="hardAlpha"
         operator="out"
         id="feComposite4" />
      <feColorMatrix
         type="matrix"
         values="0 0 0 0 0 0 0 0 0 0 0 0 0 0 0 0 0 0 0.25 0"
         id="feColorMatrix5" />
      <feBlend
         mode="normal"
         in2="BackgroundImageFix"
         result="effect1_dropShadow_5071_2477"
         id="feBlend5" />
      <feBlend
         mode="normal"
         in="SourceGraphic"
         in2="effect1_dropShadow_5071_2477"
         result="shape"
         id="feBlend6" />
    </filter>
    <clipPath
       id="clip0_5071_2477">
      <rect
         width="54"
         height="47"
         fill="#ffffff"
         transform="translate(11,6)"
         id="rect6"
         x="0"
         y="0" />
    </clipPath>
  </defs>
</svg>
