<?xml version="1.0" encoding="UTF-8" standalone="no"?>
<!-- Created with Inkscape (http://www.inkscape.org/) -->

<svg
   xmlns:dc="http://purl.org/dc/elements/1.1/"
   xmlns:cc="http://creativecommons.org/ns#"
   xmlns:rdf="http://www.w3.org/1999/02/22-rdf-syntax-ns#"
   xmlns:svg="http://www.w3.org/2000/svg"
   xmlns="http://www.w3.org/2000/svg"
   xmlns:sodipodi="http://sodipodi.sourceforge.net/DTD/sodipodi-0.dtd"
   xmlns:inkscape="http://www.inkscape.org/namespaces/inkscape"
   width="18.1301"
   height="18.130104"
   id="svg2"
   sodipodi:version="0.32"
   inkscape:version="0.48.2 r9819"
   sodipodi:docname="cog.svg"
   version="1.0"
   inkscape:output_extension="org.inkscape.output.svg.inkscape">
  <defs
     id="defs4" />
  <sodipodi:namedview
     id="base"
     pagecolor="#ffffff"
     bordercolor="#666666"
     borderopacity="1.0"
     inkscape:pageopacity="0.0"
     inkscape:pageshadow="2"
     inkscape:zoom="0.90509668"
     inkscape:cx="751.97398"
     inkscape:cy="-28.382396"
     inkscape:document-units="px"
     inkscape:current-layer="layer1"
     inkscape:window-width="1920"
     inkscape:window-height="1178"
     inkscape:window-x="1592"
     inkscape:window-y="-8"
     showgrid="false"
     inkscape:window-maximized="1"
     fit-margin-top="0"
     fit-margin-left="0"
     fit-margin-right="0"
     fit-margin-bottom="0" />
  <metadata
     id="metadata7">
    <rdf:RDF>
      <cc:Work
         rdf:about="">
        <dc:format>image/svg+xml</dc:format>
        <dc:type
           rdf:resource="http://purl.org/dc/dcmitype/StillImage" />
        <dc:title />
        <dc:creator>
          <cc:Agent>
            <dc:title />
          </cc:Agent>
        </dc:creator>
        <dc:subject>
          <rdf:Bag />
        </dc:subject>
        <cc:license
           rdf:resource="http://creativecommons.org/licenses/publicdomain/" />
        <dc:description />
        <dc:contributor>
          <cc:Agent>
            <dc:title />
          </cc:Agent>
        </dc:contributor>
      </cc:Work>
      <cc:License
         rdf:about="http://creativecommons.org/licenses/publicdomain/">
        <cc:permits
           rdf:resource="http://creativecommons.org/ns#Reproduction" />
        <cc:permits
           rdf:resource="http://creativecommons.org/ns#Distribution" />
        <cc:permits
           rdf:resource="http://creativecommons.org/ns#DerivativeWorks" />
      </cc:License>
    </rdf:RDF>
  </metadata>
  <g
     inkscape:label="Layer 1"
     inkscape:groupmode="layer"
     id="layer1"
     transform="translate(-374.21785,-62.236374)">
    <path
       style="fill:currentColor"
       d="m 382.29454,62.236374 c -0.1267,0 -0.23426,0.04156 -0.32295,0.123904 -0.0887,0.08235 -0.13934,0.186499 -0.15201,0.313201 l -0.22831,2.299677 c -0.5448,0.152035 -1.07069,0.374015 -1.57748,0.665409 l -1.78628,-1.463327 c -0.10135,-0.07602 -0.20267,-0.114152 -0.30402,-0.114152 -0.13936,0 -0.25319,0.04439 -0.34188,0.133082 l -1.40654,1.405964 c -0.0887,0.08869 -0.13593,0.19342 -0.14226,0.313774 -0.006,0.120355 0.0346,0.231354 0.12333,0.332705 l 1.46333,1.786279 c -0.2914,0.50679 -0.51338,1.03268 -0.66541,1.577479 l -2.2991,0.22773 c -0.1267,0.01268 -0.23143,0.06332 -0.31378,0.152012 -0.0824,0.08869 -0.12333,0.196824 -0.12333,0.323526 l 0,1.976151 c 0,0.126683 0.041,0.23424 0.12333,0.322953 0.0824,0.08866 0.18708,0.139316 0.31378,0.152011 l 2.2991,0.228304 c 0.15203,0.544799 0.37401,1.070689 0.66541,1.577479 l -1.46333,1.786279 c -0.0887,0.101356 -0.12966,0.212344 -0.12333,0.332705 0.006,0.12036 0.0536,0.224514 0.14226,0.313201 l 1.40654,1.406537 c 0.0887,0.08869 0.20252,0.133082 0.34188,0.133082 0.10133,0 0.20265,-0.03813 0.30402,-0.114152 l 1.78628,-1.463327 c 0.50677,0.2914 1.03268,0.513374 1.57748,0.66541 l 0.22831,2.299102 c 0.0125,0.126703 0.0632,0.23143 0.15201,0.313776 0.0886,0.08234 0.19619,0.12333 0.32295,0.12333 l 1.97615,0 c 0.1267,0 0.23483,-0.04099 0.32353,-0.12333 0.0887,-0.08235 0.13933,-0.187073 0.15201,-0.313776 l 0.22773,-2.299102 c 0.5448,-0.152036 1.07069,-0.37401 1.57748,-0.66541 l 1.78628,1.463327 c 0.0887,0.07602 0.18999,0.114152 0.30402,0.114152 0.13936,0 0.25376,-0.04439 0.34246,-0.133082 l 1.40596,-1.406537 c 0.0887,-0.08869 0.13651,-0.192841 0.14283,-0.313201 0.007,-0.120361 -0.0347,-0.231349 -0.1239,-0.332705 l -1.46333,-1.786279 c 0.2914,-0.50679 0.51338,-1.03268 0.66541,-1.577479 l 2.29968,-0.228304 c 0.1267,-0.01268 0.23085,-0.06332 0.3132,-0.152011 0.0824,-0.08869 0.1239,-0.196251 0.1239,-0.322953 l 0,-1.976151 c 0,-0.126645 -0.0416,-0.234795 -0.1239,-0.323526 -0.0823,-0.08858 -0.1865,-0.139241 -0.3132,-0.152012 l -2.29968,-0.22773 c -0.15203,-0.54478 -0.37401,-1.070689 -0.66541,-1.577479 l 1.46333,-1.786279 c 0.0887,-0.101198 0.13023,-0.212179 0.1239,-0.332705 -0.006,-0.120354 -0.0541,-0.225081 -0.14283,-0.313774 l -1.40596,-1.405964 c -0.0887,-0.08869 -0.2031,-0.133082 -0.34246,-0.133082 -0.11403,0 -0.21533,0.03813 -0.30402,0.114152 l -1.78628,1.463327 c -0.50674,-0.291394 -1.03264,-0.513374 -1.57748,-0.665409 l -0.22773,-2.299677 c -0.0123,-0.126702 -0.063,-0.230855 -0.15201,-0.313201 -0.0885,-0.08235 -0.19668,-0.123904 -0.32353,-0.123904 l -1.97615,0 z m 0.98836,6.383338 c 1.48131,0 2.68172,1.200408 2.68172,2.681714 0,1.481305 -1.20041,2.682287 -2.68172,2.682287 -1.4813,0 -2.68229,-1.200982 -2.68229,-2.682287 0,-1.481306 1.20099,-2.681714 2.68229,-2.681714 z"
       id="path2987"
       inkscape:connector-curvature="0" />
  </g>
</svg>
