<svg width="21" height="21" viewBox="0 0 21 21" fill="none" xmlns="http://www.w3.org/2000/svg">
<path d="M9.61219 0.478058C9.47242 0.478058 9.35378 0.523906 9.25594 0.614742C9.15809 0.705586 9.10223 0.820473 9.08826 0.960243L8.83641 3.49711C8.23542 3.66482 7.65528 3.9097 7.09622 4.23114L5.12571 2.61689C5.0139 2.53303 4.90214 2.49097 4.79033 2.49097C4.6366 2.49097 4.51102 2.53993 4.41318 2.63777L2.86159 4.18875C2.76374 4.28659 2.71163 4.40211 2.70465 4.53488C2.69803 4.66765 2.7428 4.7901 2.84069 4.9019L4.45496 6.87241C4.13351 7.43147 3.88864 8.0116 3.72093 8.61259L1.1847 8.8638C1.04493 8.87779 0.929399 8.93366 0.838555 9.0315C0.747657 9.12934 0.702515 9.24862 0.702515 9.38839V11.5684C0.702515 11.7081 0.747734 11.8268 0.838555 11.9246C0.929454 12.0224 1.04493 12.0783 1.1847 12.0923L3.72093 12.3442C3.88864 12.9451 4.13351 13.5253 4.45496 14.0843L2.84069 16.0548C2.74284 16.1667 2.69766 16.2891 2.70465 16.4219C2.71126 16.5546 2.76379 16.6695 2.86159 16.7674L4.41318 18.319C4.51103 18.4168 4.6366 18.4658 4.79033 18.4658C4.90211 18.4658 5.01388 18.4237 5.12571 18.3399L7.09622 16.7256C7.65526 17.0471 8.23542 17.2919 8.83641 17.4596L9.08826 19.9959C9.10205 20.1356 9.15797 20.2512 9.25594 20.342C9.35368 20.4328 9.47235 20.4781 9.61219 20.4781H11.7922C11.9319 20.4781 12.0512 20.4328 12.1491 20.342C12.2469 20.2512 12.3028 20.1356 12.3167 19.9959L12.568 17.4596C13.169 17.2919 13.7491 17.0471 14.3082 16.7256L16.2787 18.3399C16.3765 18.4237 16.4883 18.4658 16.6141 18.4658C16.7678 18.4658 16.894 18.4168 16.9918 18.319L18.5428 16.7674C18.6406 16.6695 18.6934 16.5546 18.7003 16.4219C18.7081 16.2891 18.6621 16.1667 18.5637 16.0548L16.9494 14.0843C17.2709 13.5253 17.5158 12.9451 17.6835 12.3442L20.2203 12.0923C20.3601 12.0783 20.475 12.0225 20.5658 11.9246C20.6567 11.8268 20.7025 11.7081 20.7025 11.5684V9.38839C20.7025 9.24868 20.6566 9.12938 20.5658 9.0315C20.475 8.93378 20.3601 8.87789 20.2203 8.8638L17.6835 8.61259C17.5158 8.01162 17.2709 7.43147 16.9494 6.87241L18.5637 4.9019C18.6615 4.79027 18.7073 4.66783 18.7003 4.53488C18.6937 4.40211 18.6407 4.28659 18.5428 4.18875L16.9918 2.63777C16.894 2.53994 16.7678 2.49097 16.6141 2.49097C16.4883 2.49097 16.3765 2.53303 16.2787 2.61689L14.3082 4.23114C13.7492 3.9097 13.169 3.66482 12.568 3.49711L12.3167 0.960243C12.3032 0.820473 12.2472 0.705581 12.1491 0.614742C12.0514 0.523899 11.9321 0.478058 11.7922 0.478058H9.61219ZM10.7025 7.51976C12.3366 7.51976 13.6608 8.84398 13.6608 10.4781C13.6608 12.1121 12.3366 13.437 10.7025 13.437C9.06842 13.437 7.74357 12.1121 7.74357 10.4781C7.74357 8.84398 9.06842 7.51976 10.7025 7.51976Z" fill="white"/>
</svg>
