<?xml version="1.0" encoding="UTF-8" standalone="no"?>
<!-- Created with Inkscape (http://www.inkscape.org/) -->

<svg
   xmlns:dc="http://purl.org/dc/elements/1.1/"
   xmlns:cc="http://creativecommons.org/ns#"
   xmlns:rdf="http://www.w3.org/1999/02/22-rdf-syntax-ns#"
   xmlns:svg="http://www.w3.org/2000/svg"
   xmlns="http://www.w3.org/2000/svg"
   xmlns:sodipodi="http://sodipodi.sourceforge.net/DTD/sodipodi-0.dtd"
   xmlns:inkscape="http://www.inkscape.org/namespaces/inkscape"
   width="4.4999328mm"
   height="3.6724405mm"
   viewBox="0 0 15.944644 13.012585"
   id="svg3433"
   version="1.1"
   inkscape:version="0.91 r13725"
   sodipodi:docname="copyGrey.svg">
  <defs
     id="defs3435" />
  <sodipodi:namedview
     id="base"
     pagecolor="#ffffff"
     bordercolor="#666666"
     borderopacity="1.0"
     inkscape:pageopacity="0.0"
     inkscape:pageshadow="2"
     inkscape:zoom="5.6"
     inkscape:cx="7.1772302"
     inkscape:cy="4.2008091"
     inkscape:document-units="px"
     inkscape:current-layer="g4522"
     showgrid="false"
     fit-margin-top="0"
     fit-margin-left="0"
     fit-margin-right="0"
     fit-margin-bottom="0"
     inkscape:window-width="1742"
     inkscape:window-height="1177"
     inkscape:window-x="1192"
     inkscape:window-y="468"
     inkscape:window-maximized="1" />
  <metadata
     id="metadata3438">
    <rdf:RDF>
      <cc:Work
         rdf:about="">
        <dc:format>image/svg+xml</dc:format>
        <dc:type
           rdf:resource="http://purl.org/dc/dcmitype/StillImage" />
        <dc:title></dc:title>
      </cc:Work>
    </rdf:RDF>
  </metadata>
  <g
     inkscape:label="Layer 1"
     inkscape:groupmode="layer"
     id="layer1"
     transform="translate(633.10272,679.33991)">
    <g
       transform="matrix(0.79309703,0,0,0.79309703,-875.34197,-956.06255)"
       id="g4522">
      <g
         transform="matrix(0.44868185,0,0,0.44868185,61.456693,140.50856)"
         id="g4524"
         style="opacity:0.25">
        <g
           transform="matrix(1.5414358,0,0,1.5414358,-434.87524,-584.88022)"
           id="g4526"
           style="">
          <g
             transform="translate(4.4502267,13.35068)"
             id="g4528"
             style="">
            <path
               style="fill:none;fill-opacity:1;stroke:#000000;stroke-width:0.35584819"
               d="m 13.535156,4.5410156 0,-3.3261718 -12.1894529,0 0,8.6914062 2.609375,0"
               transform="matrix(1.823097,0,0,1.8230969,628.3101,665.52937)"
               id="rect4532"
               inkscape:connector-curvature="0"
               sodipodi:nodetypes="ccccc" />
            <path
               style="fill:#000000"
               d="M 3.7441406,1.7285156 C 3.4815783,1.7567196 3.2245566,1.8652872 3.015625,2.0742188 2.694161,2.3956827 2.5873593,3.0654443 2.7773438,3.5605469 3.2164701,4.7048799 4.9736392,4.3993395 5.2167969,3.1367188 5.3805251,2.2865528 4.5318275,1.6439037 3.7441406,1.7285156 Z M 10.109375,3.8339844 C 9.9047178,3.9025399 9.6991214,4.1556144 9.46875,4.5664062 l 1.652344,0 C 10.71927,4.0159815 10.403982,3.7352976 10.109375,3.8339844 Z M 3.4355469,7.796875 C 2.972812,7.8688232 2.3868443,8.4423264 2.0488281,8.8496094 c -0.4129273,0.4975471 0.2891643,0.5279382 1.9003907,0.5 l 0,-1.4941406 C 3.8334475,7.8379626 3.7176709,7.8175564 3.625,7.7988281 3.5649662,7.7866956 3.5016519,7.7865967 3.4355469,7.796875 Z"
               transform="matrix(1.823097,0,0,1.8230969,628.3101,665.52937)"
               id="path4534"
               inkscape:connector-curvature="0" />
          </g>
        </g>
      </g>
      <g
         inkscape:groupmode="layer"
         id="layer2"
         inkscape:label="Layer 2"
         style="display:inline" />
      <g
         style="display:inline;opacity:0.25"
         transform="translate(-4.7820016e-6,8.8414043e-6)"
         id="g3400">
        <rect
           style="fill:none;fill-opacity:1;stroke:#000000;stroke-width:0.44868183"
           id="rect4544"
           width="15.36999"
           height="10.959851"
           x="309.94452"
           y="354.13708" />
        <path
           style="fill:#000000"
           d="m 310.83106,363.76548 c 0.48708,-0.58689 1.38106,-1.44726 1.98663,-1.32488 0.60556,0.12238 1.68314,0.45498 2.39461,-1.39561 0.44227,-1.15035 1.83172,-1.64541 2.34469,-1.21478 2.36181,1.98267 1.90519,-0.006 2.33644,-0.90805 1.12826,-2.35917 1.63728,-1.85616 3.30566,0.84333 1.41913,2.29619 1.45606,4.60915 1.157,4.58913 0,0 -3.194,-0.002 -7.06399,-0.002 -6.54269,0 -7.24973,0.36354 -6.46104,-0.58678 z m 0.91888,-6.67055 c -0.23955,-0.62426 -0.10392,-1.46666 0.30141,-1.87198 1.05375,-1.05375 3.0503,-0.0907 2.77505,1.33861 -0.3066,1.59201 -2.52278,1.97624 -3.07646,0.53337 z"
           id="path4546"
           inkscape:connector-curvature="0"
           sodipodi:nodetypes="ssssssssscssc" />
      </g>
    </g>
  </g>
</svg>
