<?xml version="1.0" encoding="UTF-8" standalone="no"?>
<!-- Created with Inkscape (http://www.inkscape.org/) -->

<svg
   xmlns:dc="http://purl.org/dc/elements/1.1/"
   xmlns:cc="http://creativecommons.org/ns#"
   xmlns:rdf="http://www.w3.org/1999/02/22-rdf-syntax-ns#"
   xmlns:svg="http://www.w3.org/2000/svg"
   xmlns="http://www.w3.org/2000/svg"
   xmlns:sodipodi="http://sodipodi.sourceforge.net/DTD/sodipodi-0.dtd"
   xmlns:inkscape="http://www.inkscape.org/namespaces/inkscape"
   width="92"
   height="52.91"
   id="svg3150"
   version="1.1"
   inkscape:version="0.48.4 r9939"
   sodipodi:docname="CutCopyPaste.svg">
  <defs
     id="defs3152" />
  <sodipodi:namedview
     id="base"
     pagecolor="#ffffff"
     bordercolor="#666666"
     borderopacity="1.0"
     inkscape:pageopacity="0.0"
     inkscape:pageshadow="2"
     inkscape:zoom="5.6"
     inkscape:cx="33.970075"
     inkscape:cy="20.372616"
     inkscape:document-units="px"
     inkscape:current-layer="layer1"
     showgrid="true"
     inkscape:window-width="1195"
     inkscape:window-height="725"
     inkscape:window-x="78"
     inkscape:window-y="78"
     inkscape:window-maximized="0"
     fit-margin-top="0"
     fit-margin-left="0"
     fit-margin-right="0"
     fit-margin-bottom="0"
     showguides="false">
    <inkscape:grid
       type="xygrid"
       id="grid3003"
       empspacing="5"
       visible="true"
       enabled="true"
       snapvisiblegridlinesonly="true" />
  </sodipodi:namedview>
  <metadata
     id="metadata3155">
    <rdf:RDF>
      <cc:Work
         rdf:about="">
        <dc:format>image/svg+xml</dc:format>
        <dc:type
           rdf:resource="http://purl.org/dc/dcmitype/StillImage" />
        <dc:title></dc:title>
      </cc:Work>
    </rdf:RDF>
  </metadata>
  <g
     inkscape:label="Layer 1"
     inkscape:groupmode="layer"
     id="layer1"
     transform="translate(-331.72329,-504.83597)">
    <rect
       style="fill:#0c8597;fill-opacity:1;fill-rule:nonzero;stroke:#b3b3b3;stroke-width:1.3545208;stroke-linecap:butt;stroke-linejoin:round;stroke-miterlimit:4;stroke-opacity:1;stroke-dasharray:none;stroke-dashoffset:0"
       id="rect4496"
       width="90.734596"
       height="51.377346"
       x="332.22202"
       y="505.69141" />
    <g
       inkscape:export-ydpi="76.300003"
       inkscape:export-xdpi="76.300003"
       inkscape:export-filename="C:\dev\Bloom\DistFiles\root\pasteImageButtonLarge.png"
       transform="matrix(1.5414358,0,0,1.5414358,266.54442,-1028.3882)"
       id="g4508">
      <g
         transform="matrix(0.27771427,0,0,0.27771427,174.42411,817.89542)"
         id="g4510">
        <path
           sodipodi:nodetypes="sscsscssssccsssscsssscssccsscsccssssssss"
           inkscape:connector-curvature="0"
           d="m -358.9375,-369.96875 c -1.02253,0 -1.84375,0.9 -1.84375,2 l 0,2.96875 -11.34375,0 c -0.51126,0 -0.90625,0.45 -0.90625,1 l 0,5.625 -12.4375,0 c -0.51127,0 -0.9375,0.45 -0.9375,1 l 0,76.40625 c 0,0.55 0.42623,1 0.9375,1 l 19.47171,0 0,-6.625 -12.50296,0 c -0.51127,0 -0.9375,-0.45 -0.9375,-1 l 0,-63.1875 c 0,-0.55 0.42623,-1 0.9375,-1 l 5.46875,0 0,1.65625 c 0,0.55 0.39499,1 0.90625,1 l 37.4375,0 c 0.51126,0 0.9375,-0.45 0.9375,-1 l 0,-1.65625 5.4375,0 c 0.51127,0 0.9375,0.45 0.9375,1 l 0,11.79488 6.96875,0 0,-18.41988 c 0,-0.549 -0.42623,-1 -0.9375,-1 l -12.40625,0 0,-5.59375 c 0,-0.55 -0.43403,-1.08892 -0.9375,-1 l -11.34375,0 0,-2.96875 c 0,-1.1 -0.82122,-2 -1.84375,-2 z m 5.53125,2.3125 c 1.01696,0 1.84375,0.87575 1.84375,1.96875 0,1.094 -0.82772,2 -1.84375,2 -1.01696,0 -1.84375,-0.906 -1.84375,-2 0,-1.093 0.82679,-1.96875 1.84375,-1.96875 z"
           transform="translate(0,1020.3622)"
           id="path4512" />
      </g>
      <g
         id="g4514"
         transform="translate(-555.58916,341.25299)">
        <path
           sodipodi:nodetypes="ssssssssscssc"
           inkscape:connector-curvature="0"
           id="path4516"
           d="m 632.07792,681.66399 c 0.70427,-0.84859 1.99687,-2.09259 2.87245,-1.91564 0.87558,0.17695 2.43364,0.65785 3.46236,-2.0179 0.63947,-1.66328 2.64846,-2.37908 3.39016,-1.75644 3.41493,2.86673 2.7547,-0.009 3.37824,-1.31294 1.63135,-3.41111 2.36734,-2.68382 4.77964,1.21936 2.0519,3.32004 2.10531,6.66434 1.6729,6.63539 0,0 -4.61819,-0.003 -10.21378,-0.003 -9.46003,0 -10.48233,0.52564 -9.34197,-0.84841 z m 1.3286,-9.6449 c -0.34636,-0.90262 -0.15025,-2.12063 0.43581,-2.70669 1.52361,-1.52361 4.41041,-0.13109 4.01242,1.93549 -0.4433,2.30188 -3.64766,2.85743 -4.44823,0.7712 z"
           style="fill:#000000" />
        <rect
           y="667.74237"
           x="630.76331"
           height="15.846768"
           width="22.223356"
           id="rect4518"
           style="fill:none;stroke:#000000;stroke-width:0.64874578" />
      </g>
    </g>
    <path
       inkscape:export-ydpi="45"
       inkscape:export-xdpi="45"
       inkscape:export-filename="C:\dev\Bloom\artwork\cut16x16.png"
       style="fill:#000000;fill-opacity:1;stroke:#0c8597;stroke-width:0.00040086;stroke-miterlimit:4;stroke-opacity:1;stroke-dasharray:none"
       id="path4520"
       d="m 348.93132,525.18648 c -0.94192,0.3447 -2.06447,-0.2154 -2.39974,-1.1638 -0.48544,-1.0841 -0.73456,-2.516 -2.30423,-3.7453 l -0.65938,-0.5164 -0.58875,0.4632 c -1.56675,1.2324 -1.81245,2.665 -2.2957,3.7503 -0.33308,0.9491 -1.45462,1.5119 -2.39722,1.1693 -0.95252,-0.2808 -1.38052,-1.4249 -1.12009,-2.3367 0.195,-0.9303 1.14191,-1.7029 2.07078,-1.4905 0.9674,0.2212 0.79231,0.5382 1.15855,0.6425 0.46824,0.1335 0.76373,-1.2747 2.14156,-3.204 l 0.0408,-0.056 -3.72391,-5.3145 c -0.46616,-0.7692 -0.74587,-1.7925 -0.14146,-2.7669 l 4.868,6.6963 4.89277,-6.7623 c 0.6066,0.9731 0.32894,1.9971 -0.1356,2.7674 l -3.75088,5.3793 0.0799,0.11 c 1.38208,1.9257 1.68084,3.3339 2.14873,3.1992 0.36578,-0.1054 0.19,-0.4218 1.15705,-0.6452 0.92848,-0.2146 1.87687,0.556 2.07389,1.4858 0.2625,0.9109 -0.16298,2.0562 -1.11489,2.3388 z m -8.63632,-2.07 c 1.8e-4,-1.081 -1.42127,-1.5717 -2.22257,-0.7602 -0.54835,0.5557 -0.55116,1.701 0.19781,2.0972 0.89025,0.5656 2.08387,-0.3426 2.02476,-1.337 z m 8.84395,-0.7176 c -0.80263,-0.8097 -2.22333,-0.3158 -2.22052,0.765 -0.0568,0.9942 1.13864,1.9003 2.02747,1.3325 0.74812,-0.3978 0.74278,-1.5431 0.19305,-2.0975 z"
       inkscape:connector-curvature="0" />
    <g
       transform="matrix(0.79309703,0,0,0.79309703,94.958419,262.33356)"
       id="g4522">
      <g
         transform="matrix(0.44868185,0,0,0.44868185,61.456693,140.50856)"
         id="g4524">
        <g
           transform="matrix(1.5414358,0,0,1.5414358,-434.87524,-584.88022)"
           id="g4526">
          <g
             transform="translate(4.4502267,13.35068)"
             id="g4528">
            <rect
               transform="matrix(0.6487458,0,0,0.6487458,282.12349,379.43859)"
               y="440.99057"
               x="533.62445"
               height="23.55312"
               width="31.129265"
               id="rect4530"
               style="fill:#0c8597;fill-opacity:1;fill-rule:nonzero;stroke:none"
               ry="0" />
            <rect
               y="667.74237"
               x="630.76331"
               height="15.846768"
               width="22.223356"
               id="rect4532"
               style="fill:#0c8597;fill-opacity:1;stroke:#000000;stroke-width:0.64874578" />
            <path
               sodipodi:nodetypes="ssssssssscssc"
               inkscape:connector-curvature="0"
               id="path4534"
               d="m 632.04514,681.66399 c 0.70427,-0.84859 1.99687,-2.09259 2.87245,-1.91564 0.87558,0.17695 2.43364,0.65785 3.46236,-2.0179 0.63947,-1.66328 2.64846,-2.37908 3.39016,-1.75644 3.41493,2.86673 2.7547,-0.009 3.37824,-1.31294 1.63135,-3.41111 2.36734,-2.68382 4.77964,1.21936 2.0519,3.32004 2.10531,6.66434 1.6729,6.63539 0,0 -4.61819,-0.003 -10.21378,-0.003 -9.46003,0 -10.48233,0.52564 -9.34197,-0.84841 z m 1.3286,-9.6449 c -0.34636,-0.90262 -0.15025,-2.12063 0.43581,-2.70669 1.52361,-1.52361 4.41041,-0.13109 4.01242,1.93549 -0.4433,2.30188 -3.64766,2.85743 -4.44823,0.7712 z"
               style="fill:#000000" />
          </g>
        </g>
      </g>
      <g
         id="g4536"
         transform="matrix(0.44868185,0,0,0.44868185,65.742409,145.50856)">
        <g
           id="g4538"
           transform="matrix(1.5414358,0,0,1.5414358,-434.87524,-584.88022)">
          <g
             id="g4540"
             transform="translate(4.4502267,13.35068)">
            <rect
               ry="0"
               style="fill:#0c8597;fill-opacity:1;fill-rule:nonzero;stroke:none"
               id="rect4542"
               width="19.190836"
               height="14.184558"
               x="629.31427"
               y="666.62482" />
            <rect
               style="fill:#0c8597;fill-opacity:1;stroke:#000000;stroke-width:0.64874578"
               id="rect4544"
               width="22.223356"
               height="15.846768"
               x="630.76331"
               y="667.74237" />
            <path
               style="fill:#000000"
               d="m 632.04514,681.66399 c 0.70427,-0.84859 1.99687,-2.09259 2.87245,-1.91564 0.87558,0.17695 2.43364,0.65785 3.46236,-2.0179 0.63947,-1.66328 2.64846,-2.37908 3.39016,-1.75644 3.41493,2.86673 2.7547,-0.009 3.37824,-1.31294 1.63135,-3.41111 2.36734,-2.68382 4.77964,1.21936 2.0519,3.32004 2.10531,6.66434 1.6729,6.63539 0,0 -4.61819,-0.003 -10.21378,-0.003 -9.46003,0 -10.48233,0.52564 -9.34197,-0.84841 z m 1.3286,-9.6449 c -0.34636,-0.90262 -0.15025,-2.12063 0.43581,-2.70669 1.52361,-1.52361 4.41041,-0.13109 4.01242,1.93549 -0.4433,2.30188 -3.64766,2.85743 -4.44823,0.7712 z"
               id="path4546"
               inkscape:connector-curvature="0"
               sodipodi:nodetypes="ssssssssscssc" />
          </g>
        </g>
      </g>
    </g>
  </g>
</svg>
