<svg width="11" height="12" viewBox="0 0 11 12" fill="none" xmlns="http://www.w3.org/2000/svg">
<path d="M7.56123 8.85737C7.54614 8.97249 7.44808 9.06289 7.33197 9.06301L5.30293 9.06676L3.27389 9.07052C3.15279 9.07052 3.0518 8.97286 3.04269 8.85205L2.98453 8.07585L2.98408 8.07366L0.659271 5.00687C0.44691 4.79451 0.44691 4.4467 0.659271 4.23438C0.765452 4.1282 0.905433 4.07494 1.04537 4.07494C1.18535 4.07494 1.32533 4.12799 1.43151 4.23418L2.08583 4.85197C2.13682 4.90011 2.18245 4.92167 2.24254 4.92167C2.37309 4.92167 2.48207 4.81986 2.48207 4.66755L1.9635 2.11767C1.9635 1.81434 2.22738 1.56608 2.53076 1.56612C2.55223 1.56612 2.57103 1.56735 2.593 1.56991C3.18304 1.63861 3.40958 2.95197 3.59499 3.40695C3.59499 3.55377 3.7144 3.67277 3.86127 3.67277C4.0099 3.67277 4.13084 3.55224 4.13084 3.40361L3.86127 1.0516C3.86127 0.748222 4.11988 0.5 4.42321 0.5C4.44464 0.5 4.46616 0.501237 4.48809 0.503833C4.76883 0.536479 4.97419 0.785691 4.97419 1.06829L5.24376 3.40332C5.24376 3.55212 5.36486 3.67281 5.51366 3.67281C5.66032 3.67281 5.77961 3.55389 5.77961 3.40728V1.5991C5.77961 1.29577 6.0329 1.0475 6.33628 1.04754C6.35771 1.04754 6.38182 1.04878 6.40375 1.05134C6.6845 1.08402 6.89249 1.33319 6.89249 1.61583V3.39709C6.89249 3.54936 7.01635 3.67079 7.16858 3.67079H7.17315C7.31383 3.67079 7.4283 3.55871 7.4283 3.41803V2.7079C7.4283 2.4253 7.63378 2.17613 7.91448 2.14344C7.93641 2.14089 7.94255 2.13965 7.96403 2.13965C8.26736 2.13965 8.5 2.38783 8.5 2.6912V3.67281C8.5 5.38769 7.76005 7.14063 7.56123 8.85737Z" stroke="black"/>
</svg>
