<svg width="21" height="23" viewBox="0 0 21 23" fill="none" xmlns="http://www.w3.org/2000/svg">
<path d="M18.0344 20.6474H6.67835V6.19422H18.0344V20.6474ZM18.0344 4.12948H6.67835C6.13075 4.12948 5.60558 4.34702 5.21836 4.73423C4.83115 5.12145 4.61361 5.64662 4.61361 6.19422V20.6474C4.61361 21.195 4.83115 21.7202 5.21836 22.1074C5.60558 22.4946 6.13075 22.7122 6.67835 22.7122H18.0344C18.582 22.7122 19.1072 22.4946 19.4944 22.1074C19.8816 21.7202 20.0992 21.195 20.0992 20.6474V6.19422C20.0992 5.64662 19.8816 5.12145 19.4944 4.73423C19.1072 4.34702 18.582 4.12948 18.0344 4.12948ZM14.9373 0H2.54887C2.00127 0 1.47609 0.217535 1.08888 0.604749C0.701665 0.991963 0.484131 1.51714 0.484131 2.06474V16.5179H2.54887V2.06474H14.9373V0Z" fill="#0C8597"/>
<line x1="12.1414" y1="9.7854" x2="12.1414" y2="15.7854" stroke="#0C8597" stroke-width="2"/>
<line x1="9.14136" y1="12.7854" x2="15.1414" y2="12.7854" stroke="#0C8597" stroke-width="2"/>
</svg>
