<?xml version="1.0" encoding="UTF-8" standalone="no"?>
<!-- Created with Inkscape (http://www.inkscape.org/) -->

<svg
   xmlns:dc="http://purl.org/dc/elements/1.1/"
   xmlns:cc="http://creativecommons.org/ns#"
   xmlns:rdf="http://www.w3.org/1999/02/22-rdf-syntax-ns#"
   xmlns:svg="http://www.w3.org/2000/svg"
   xmlns="http://www.w3.org/2000/svg"
   xmlns:sodipodi="http://sodipodi.sourceforge.net/DTD/sodipodi-0.dtd"
   xmlns:inkscape="http://www.inkscape.org/namespaces/inkscape"
   width="22.252665"
   height="24.432049"
   id="svg2"
   version="1.1"
   inkscape:version="0.48.2 r9819"
   sodipodi:docname="AnikaA2.svg">
  <defs
     id="defs4" />
  <sodipodi:namedview
     id="base"
     pagecolor="#ffffff"
     bordercolor="#666666"
     borderopacity="1.0"
     inkscape:pageopacity="0.0"
     inkscape:pageshadow="2"
     inkscape:zoom="0.98994949"
     inkscape:cx="-111.78958"
     inkscape:cy="-149.93398"
     inkscape:document-units="px"
     inkscape:current-layer="layer1"
     showgrid="false"
     inkscape:window-width="1920"
     inkscape:window-height="1178"
     inkscape:window-x="1592"
     inkscape:window-y="-8"
     inkscape:window-maximized="1"
     fit-margin-top="0"
     fit-margin-left="0"
     fit-margin-right="0"
     fit-margin-bottom="0" />
  <metadata
     id="metadata7">
    <rdf:RDF>
      <cc:Work
         rdf:about="">
        <dc:format>image/svg+xml</dc:format>
        <dc:type
           rdf:resource="http://purl.org/dc/dcmitype/StillImage" />
        <dc:title></dc:title>
      </cc:Work>
    </rdf:RDF>
  </metadata>
  <g
     inkscape:label="Layer 1"
     inkscape:groupmode="layer"
     id="layer1"
     transform="translate(-305.14494,-74.72054)">
    <g
       style="font-size:736.15985107px;font-style:normal;font-variant:normal;font-weight:normal;font-stretch:normal;line-height:125%;letter-spacing:0px;word-spacing:0px;fill:#000000;fill-opacity:1;stroke:none;font-family:Andika;-inkscape-font-specification:Andika"
       id="text2985"
       transform="matrix(0.06382166,0,0,0.06382166,243.24908,66.148044)">
      <path
         d="m 1228.6315,199.02109 c -5.9912,-1.19786 -14.6779,-2.69558 -26.0603,-4.49316 -11.383,-1.79695 -26.0606,-2.69558 -44.033,-2.6959 -23.4845,3.2e-4 -43.0747,4.73311 -58.7706,14.1984 -15.6963,9.46589 -28.2172,22.04673 -37.5628,37.74257 -9.3459,15.69636 -15.9958,33.72891 -19.9497,54.09768 -3.9541,20.3692 -5.9311,41.33727 -5.931,62.90429 -10e-5,13.89898 1.3778,26.65955 4.1338,38.28175 2.7556,11.62241 6.5299,21.68709 11.3227,30.19405 4.7926,8.50713 10.3042,15.0971 16.5349,19.76992 6.2303,4.67295 12.9401,7.00939 20.1293,7.00934 7.9078,5e-5 15.9955,-2.63594 24.2631,-7.90797 8.2672,-5.27191 16.4148,-12.40106 24.4428,-21.38746 8.0276,-8.98623 15.8756,-19.35045 23.5442,-31.09269 7.6681,-11.742 14.8571,-24.14312 21.5672,-37.20339 6.7095,-13.05996 12.94,-26.2998 18.6915,-39.71956 5.751,-13.41938 10.6635,-26.17995 14.7376,-38.28175 4.0735,-12.10135 7.2487,-23.18447 9.5255,-33.24941 2.2763,-10.06441 3.4145,-18.33182 3.4148,-24.80226 z m 26.959,309.12963 c -2.6363,-5.75124 -4.9727,-14.37811 -7.0093,-25.88062 -2.0372,-11.50246 -3.7147,-23.90358 -5.0324,-37.20339 -1.3183,-13.29969 -2.3367,-26.29989 -3.0553,-39.00066 -0.7192,-12.70056 -1.0787,-23.00487 -1.0784,-30.91296 l 0,-35.9453 c -7.6686,20.36915 -16.8347,41.09759 -27.4981,62.18537 -10.6641,21.088 -22.8256,40.1989 -36.4845,57.33276 -13.6595,17.13397 -28.6966,31.15262 -45.1114,42.05601 -16.4152,10.90341 -33.9685,16.35511 -52.6599,16.35512 -15.0971,-1e-5 -29.2356,-3.3549 -42.4154,-10.06469 -13.1801,-6.70978 -24.6226,-16.65464 -34.3278,-29.8346 -9.70527,-13.1799 -17.31369,-29.535 -22.82525,-49.06534 -5.51165,-19.53019 -8.26746,-41.99598 -8.26742,-67.39745 -4e-5,-28.51643 3.83413,-56.37402 11.5025,-83.57284 7.66827,-27.19835 19.41037,-51.4015 35.22637,-72.60951 15.8159,-21.20741 35.9452,-38.2215 60.3881,-51.04234 24.4427,-12.82012 53.4385,-19.23036 86.9877,-19.23074 23.2444,3.8e-4 46.3691,1.4981 69.3744,4.49317 23.0047,2.99581 43.6133,6.88988 61.8259,11.68222 l 0,167.14567 c -3e-4,45.29123 2.1564,83.33331 6.4702,114.12635 4.3131,30.79319 9.9445,56.25442 16.8943,76.38377 z"
         id="path3178"
         inkscape:connector-curvature="0" />
    </g>
  </g>
</svg>
