<svg width="70" height="57" viewBox="0 0 70 57" fill="none" xmlns="http://www.w3.org/2000/svg">
<rect width="70" height="56.4474" rx="3.47368" fill="#1D94A4"/>
<path d="M31.5949 26.1189C31.7033 25.404 31.9419 24.7757 32.2456 24.2341C32.5492 23.6924 32.983 23.2375 33.5253 22.8909C34.0458 22.5659 34.6965 22.4142 35.499 22.3926C35.9979 22.4142 36.4533 22.5009 36.8654 22.6742C37.2992 22.8692 37.6896 23.1292 37.9933 23.4541C38.2969 23.7791 38.5355 24.1691 38.7307 24.6024C38.9259 25.0357 39.0127 25.5123 39.0344 25.9889H42.9168C42.8734 24.9707 42.6782 24.0391 42.3095 23.1942C41.9408 22.3492 41.4419 21.6126 40.7912 21.006C40.1405 20.3994 39.3597 19.9228 38.4488 19.5761C37.5378 19.2295 36.5401 19.0779 35.4339 19.0779C34.0241 19.0779 32.7878 19.3162 31.7467 19.8145C30.7056 20.3127 29.838 20.9627 29.144 21.8076C28.4499 22.6525 27.9294 23.6275 27.604 24.754C27.2787 25.8806 27.0835 27.0505 27.0835 28.307V28.892C27.0835 30.1485 27.257 31.3184 27.5823 32.445C27.9077 33.5716 28.4282 34.5465 29.1223 35.3698C29.8163 36.193 30.6839 36.8646 31.725 37.3412C32.7661 37.8179 34.0024 38.0779 35.4122 38.0779C36.4316 38.0779 37.386 37.9045 38.2753 37.5796C39.1645 37.2546 39.9453 36.7996 40.6177 36.2147C41.2901 35.6297 41.8323 34.9581 42.2227 34.1782C42.6131 33.3983 42.8517 32.575 42.8734 31.6867H38.991C38.9693 32.1417 38.8609 32.5533 38.6657 32.9433C38.4705 33.3333 38.2102 33.6582 37.8848 33.9399C37.5595 34.2215 37.1908 34.4382 36.757 34.5898C36.3449 34.7415 35.9111 34.7848 35.4556 34.8065C34.6748 34.7848 34.0241 34.6332 33.5253 34.3082C32.983 33.9615 32.5492 33.5066 32.2456 32.965C31.9419 32.4233 31.7033 31.7734 31.5949 31.0585C31.4864 30.3435 31.4214 29.6069 31.4214 28.892V28.307C31.4214 27.5488 31.4864 26.8338 31.5949 26.1189Z" fill="white"/>
<path fill-rule="evenodd" clip-rule="evenodd" d="M35 44.057C43.7445 44.057 50.8333 36.9682 50.8333 28.2237C50.8333 19.4792 43.7445 12.3903 35 12.3903C26.2555 12.3903 19.1667 19.4792 19.1667 28.2237C19.1667 36.9682 26.2555 44.057 35 44.057ZM35 47.2237C45.4934 47.2237 54 38.7171 54 28.2237C54 17.7303 45.4934 9.22368 35 9.22368C24.5066 9.22368 16 17.7303 16 28.2237C16 38.7171 24.5066 47.2237 35 47.2237Z" fill="white"/>
</svg>
