<svg width="26" height="27" viewBox="0 0 26 27" fill="none" xmlns="http://www.w3.org/2000/svg">
<rect x="0.570801" y="0.57074" width="25.1414" height="25.5707" rx="2" fill="#FC3030"/>
<rect x="12.2213" y="12.6505" width="12.8404" height="12.8404" rx="6.42022" stroke="white" stroke-width="1.30101"/>
<path d="M17.5313 18.2682C17.5666 18.0349 17.6444 17.8298 17.7434 17.653C17.8424 17.4763 17.9838 17.3278 18.1606 17.2147C18.3302 17.1086 18.5424 17.0591 18.804 17.052C18.9666 17.0591 19.1151 17.0874 19.2494 17.144C19.3909 17.2076 19.5181 17.2924 19.6171 17.3985C19.7161 17.5046 19.7939 17.6318 19.8575 17.7732C19.9212 17.9147 19.9494 18.0702 19.9565 18.2258H21.2222C21.208 17.8935 21.1444 17.5894 21.0242 17.3137C20.904 17.0379 20.7414 16.7975 20.5292 16.5995C20.3171 16.4015 20.0626 16.246 19.7656 16.1328C19.4686 16.0197 19.1434 15.9702 18.7828 15.9702C18.3232 15.9702 17.9201 16.048 17.5808 16.2106C17.2414 16.3732 16.9585 16.5854 16.7323 16.8611C16.506 17.1369 16.3363 17.4551 16.2302 17.8227C16.1242 18.1904 16.0605 18.5722 16.0605 18.9823V19.1733C16.0605 19.5834 16.1171 19.9652 16.2232 20.3329C16.3292 20.7005 16.4989 21.0187 16.7252 21.2874C16.9515 21.5561 17.2343 21.7753 17.5737 21.9308C17.9131 22.0864 18.3161 22.1712 18.7757 22.1712C19.108 22.1712 19.4191 22.1147 19.709 22.0086C19.9989 21.9026 20.2535 21.7541 20.4727 21.5632C20.6919 21.3722 20.8686 21.1531 20.9959 20.8985C21.1232 20.644 21.201 20.3753 21.208 20.0854H19.9424C19.9353 20.2339 19.9 20.3682 19.8363 20.4955C19.7727 20.6228 19.6878 20.7288 19.5818 20.8207C19.4757 20.9127 19.3555 20.9834 19.2141 21.0329C19.0797 21.0823 18.9383 21.0965 18.7898 21.1036C18.5353 21.0965 18.3232 21.047 18.1606 20.9409C17.9838 20.8278 17.8424 20.6793 17.7434 20.5025C17.6444 20.3258 17.5666 20.1137 17.5313 19.8803C17.4959 19.647 17.4747 19.4066 17.4747 19.1733V18.9823C17.4747 18.7349 17.4959 18.5015 17.5313 18.2682Z" fill="white"/>
<path d="M8.63977 18.4807H5.43287C5.44436 17.4054 5.54207 16.5262 5.72597 15.8429C5.92138 15.1485 6.23747 14.5156 6.67425 13.9444C7.11103 13.3732 7.69149 12.7235 8.41563 11.9955C8.94436 11.469 9.42712 10.9762 9.8639 10.517C10.3122 10.0465 10.6742 9.54251 10.9501 9.00488C11.226 8.45604 11.3639 7.8008 11.3639 7.03915C11.3639 6.2663 11.2202 5.59986 10.9329 5.03983C10.657 4.47979 10.2432 4.04856 9.69149 3.74614C9.15126 3.44372 8.47885 3.29251 7.67425 3.29251C7.00758 3.29251 6.3754 3.41012 5.7777 3.64534C5.18 3.88055 4.69724 4.24458 4.32942 4.73741C3.96161 5.21904 3.77195 5.85188 3.76046 6.63593H0.570801C0.593789 5.37025 0.915628 4.28378 1.53632 3.37652C2.1685 2.46926 3.01908 1.77482 4.08804 1.29319C5.15701 0.811555 6.35241 0.57074 7.67425 0.57074C9.13402 0.57074 10.3754 0.828356 11.3984 1.34359C12.4329 1.85882 13.2202 2.59807 13.7605 3.56133C14.3007 4.51339 14.5708 5.64466 14.5708 6.95515C14.5708 7.96321 14.3582 8.89287 13.9329 9.74413C13.5191 10.5842 12.9846 11.3738 12.3294 12.1131C11.6742 12.8523 10.9788 13.558 10.2432 14.23C9.61103 14.8013 9.18574 15.4453 8.96735 16.1621C8.74896 16.879 8.63977 17.6518 8.63977 18.4807ZM5.29494 23.8066C5.29494 23.3026 5.45586 22.877 5.7777 22.5297C6.09954 22.1825 6.56505 22.0089 7.17425 22.0089C7.79494 22.0089 8.2662 22.1825 8.58804 22.5297C8.90988 22.877 9.0708 23.3026 9.0708 23.8066C9.0708 24.2883 8.90988 24.7027 8.58804 25.0499C8.2662 25.3971 7.79494 25.5707 7.17425 25.5707C6.56505 25.5707 6.09954 25.3971 5.7777 25.0499C5.45586 24.7027 5.29494 24.2883 5.29494 23.8066Z" fill="white"/>
</svg>
