<svg width="70" height="57" viewBox="0 0 70 57" fill="none" xmlns="http://www.w3.org/2000/svg">
<rect x="33.4622" y="27.1023" width="21.4508" height="21.4508" rx="10.7254" stroke="#FC3030" stroke-width="2.17343"/>
<path d="M42.3329 36.487C42.392 36.0972 42.5219 35.7547 42.6873 35.4594C42.8526 35.164 43.0889 34.916 43.3842 34.727C43.6677 34.5498 44.022 34.4671 44.4591 34.4553C44.7307 34.4671 44.9788 34.5144 45.2032 34.6089C45.4395 34.7152 45.6521 34.8569 45.8175 35.0341C45.9828 35.2113 46.1128 35.4239 46.2191 35.6602C46.3254 35.8964 46.3726 36.1563 46.3844 36.4161H48.4988C48.4752 35.861 48.3689 35.353 48.1681 34.8924C47.9673 34.4317 47.6956 34.0301 47.3412 33.6993C46.9869 33.3686 46.5616 33.1087 46.0655 32.9197C45.5694 32.7308 45.0261 32.6481 44.4236 32.6481C43.6558 32.6481 42.9826 32.778 42.4156 33.0497C41.8486 33.3214 41.3761 33.6757 40.9981 34.1364C40.6201 34.5971 40.3366 35.1286 40.1595 35.7428C39.9823 36.3571 39.876 36.9949 39.876 37.68V37.999C39.876 38.6841 39.9705 39.3219 40.1477 39.9361C40.3248 40.5504 40.6083 41.0819 40.9863 41.5308C41.3643 41.9796 41.8368 42.3458 42.4038 42.6057C42.9707 42.8655 43.644 43.0073 44.4118 43.0073C44.967 43.0073 45.4867 42.9128 45.971 42.7356C46.4553 42.5584 46.8805 42.3104 47.2467 41.9914C47.6129 41.6725 47.9082 41.3063 48.1208 40.8811C48.3334 40.4559 48.4634 40.007 48.4752 39.5227H46.3608C46.349 39.7708 46.2899 39.9952 46.1836 40.2078C46.0773 40.4204 45.9356 40.5976 45.7584 40.7512C45.5812 40.9047 45.3804 41.0228 45.1442 41.1055C44.9197 41.1882 44.6835 41.2118 44.4354 41.2237C44.0102 41.2118 43.6558 41.1292 43.3842 40.952C43.0889 40.763 42.8526 40.5149 42.6873 40.2196C42.5219 39.9243 42.392 39.57 42.3329 39.1802C42.2738 38.7904 42.2384 38.3887 42.2384 37.999V37.68C42.2384 37.2666 42.2738 36.8768 42.3329 36.487Z" fill="#FC3030"/>
<path d="M27.4797 36.8419H22.1224C22.1416 35.0456 22.3048 33.5767 22.612 32.4353C22.9385 31.2752 23.4665 30.218 24.1962 29.2637C24.9259 28.3094 25.8956 27.2242 27.1053 26.0079C27.9886 25.1285 28.7951 24.3052 29.5247 23.538C30.2736 22.7521 30.8785 21.9101 31.3393 21.0119C31.8001 20.0951 32.0306 19.0005 32.0306 17.7281C32.0306 16.437 31.7905 15.3236 31.3105 14.3881C30.8497 13.4525 30.1584 12.7321 29.2367 12.2269C28.3342 11.7217 27.2109 11.4691 25.8668 11.4691C24.7531 11.4691 23.697 11.6655 22.6985 12.0585C21.7 12.4514 20.8935 13.0596 20.279 13.8829C19.6646 14.6875 19.3477 15.7447 19.3285 17.0545H14C14.0384 14.9401 14.5761 13.125 15.613 11.6094C16.6691 10.0938 18.09 8.93367 19.8758 8.12907C21.6616 7.32448 23.6585 6.92218 25.8668 6.92218C28.3054 6.92218 30.3792 7.35254 32.0882 8.21327C33.8163 9.074 35.1317 10.309 36.0342 11.9182C36.9366 13.5086 37.3879 15.3985 37.3879 17.5877C37.3879 19.2718 37.0327 20.8248 36.3222 22.2469C35.6309 23.6503 34.738 24.9694 33.6435 26.2044C32.549 27.4394 31.3873 28.6182 30.1584 29.7409C29.1023 30.6952 28.3918 31.7711 28.027 32.9686C27.6621 34.1661 27.4797 35.4572 27.4797 36.8419ZM21.892 45.7392C21.892 44.8972 22.1608 44.1862 22.6985 43.6061C23.2361 43.026 24.0138 42.736 25.0315 42.736C26.0684 42.736 26.8557 43.026 27.3933 43.6061C27.931 44.1862 28.1998 44.8972 28.1998 45.7392C28.1998 46.5438 27.931 47.2361 27.3933 47.8162C26.8557 48.3962 26.0684 48.6863 25.0315 48.6863C24.0138 48.6863 23.2361 48.3962 22.6985 47.8162C22.1608 47.2361 21.892 46.5438 21.892 45.7392Z" fill="#FC3030"/>
</svg>
