<?xml version="1.0" encoding="UTF-8" standalone="no"?>
<!-- Created with Inkscape (http://www.inkscape.org/) -->

<svg
   xmlns:dc="http://purl.org/dc/elements/1.1/"
   xmlns:cc="http://creativecommons.org/ns#"
   xmlns:rdf="http://www.w3.org/1999/02/22-rdf-syntax-ns#"
   xmlns:svg="http://www.w3.org/2000/svg"
   xmlns="http://www.w3.org/2000/svg"
   xmlns:sodipodi="http://sodipodi.sourceforge.net/DTD/sodipodi-0.dtd"
   xmlns:inkscape="http://www.inkscape.org/namespaces/inkscape"
   width="66.619576"
   height="59.277134"
   id="svg3006"
   version="1.1"
   inkscape:version="0.48.4 r9939"
   sodipodi:docname="pasteButton.svg">
  <defs
     id="defs3008" />
  <sodipodi:namedview
     id="base"
     pagecolor="#ffffff"
     bordercolor="#666666"
     borderopacity="1.0"
     inkscape:pageopacity="0.0"
     inkscape:pageshadow="2"
     inkscape:zoom="2.8"
     inkscape:cx="47.665577"
     inkscape:cy="37.090283"
     inkscape:document-units="px"
     inkscape:current-layer="layer1"
     showgrid="false"
     inkscape:window-width="463"
     inkscape:window-height="423"
     inkscape:window-x="78"
     inkscape:window-y="78"
     inkscape:window-maximized="0"
     fit-margin-top="5"
     fit-margin-left="5"
     fit-margin-right="5"
     fit-margin-bottom="5" />
  <metadata
     id="metadata3011">
    <rdf:RDF>
      <cc:Work
         rdf:about="">
        <dc:format>image/svg+xml</dc:format>
        <dc:type
           rdf:resource="http://purl.org/dc/dcmitype/StillImage" />
        <dc:title></dc:title>
      </cc:Work>
    </rdf:RDF>
  </metadata>
  <g
     inkscape:label="Layer 1"
     inkscape:groupmode="layer"
     id="layer1"
     transform="translate(-75.262993,-214.14549)">
    <g
       inkscape:export-ydpi="76.300003"
       inkscape:export-xdpi="76.300003"
       inkscape:export-filename="C:\dev\Bloom\DistFiles\root\pasteImageButtonLarge.png"
       transform="matrix(1.849723,0,0,1.849723,-43.87854,-1627.838)"
       id="g4508">
      <g
         transform="matrix(0.27771427,0,0,0.27771427,174.42411,817.89542)"
         id="g4510">
        <path
           sodipodi:nodetypes="sscsscssssccsssscsssscssccsscsccssssssss"
           inkscape:connector-curvature="0"
           d="m -358.9375,-369.96875 c -1.02253,0 -1.84375,0.9 -1.84375,2 l 0,2.96875 -11.34375,0 c -0.51126,0 -0.90625,0.45 -0.90625,1 l 0,5.625 -12.4375,0 c -0.51127,0 -0.9375,0.45 -0.9375,1 l 0,76.40625 c 0,0.55 0.42623,1 0.9375,1 l 19.47171,0 0,-6.625 -12.50296,0 c -0.51127,0 -0.9375,-0.45 -0.9375,-1 l 0,-63.1875 c 0,-0.55 0.42623,-1 0.9375,-1 l 5.46875,0 0,1.65625 c 0,0.55 0.39499,1 0.90625,1 l 37.4375,0 c 0.51126,0 0.9375,-0.45 0.9375,-1 l 0,-1.65625 5.4375,0 c 0.51127,0 0.9375,0.45 0.9375,1 l 0,11.79488 6.96875,0 0,-18.41988 c 0,-0.549 -0.42623,-1 -0.9375,-1 l -12.40625,0 0,-5.59375 c 0,-0.55 -0.43403,-1.08892 -0.9375,-1 l -11.34375,0 0,-2.96875 c 0,-1.1 -0.82122,-2 -1.84375,-2 z m 5.53125,2.3125 c 1.01696,0 1.84375,0.87575 1.84375,1.96875 0,1.094 -0.82772,2 -1.84375,2 -1.01696,0 -1.84375,-0.906 -1.84375,-2 0,-1.093 0.82679,-1.96875 1.84375,-1.96875 z"
           transform="translate(0,1020.3622)"
           id="path4512" />
      </g>
      <g
         id="g4514"
         transform="translate(-555.58916,341.25299)">
        <path
           sodipodi:nodetypes="ssssssssscssc"
           inkscape:connector-curvature="0"
           id="path4516"
           d="m 632.07792,681.66399 c 0.70427,-0.84859 1.99687,-2.09259 2.87245,-1.91564 0.87558,0.17695 2.43364,0.65785 3.46236,-2.0179 0.63947,-1.66328 2.64846,-2.37908 3.39016,-1.75644 3.41493,2.86673 2.7547,-0.009 3.37824,-1.31294 1.63135,-3.41111 2.36734,-2.68382 4.77964,1.21936 2.0519,3.32004 2.10531,6.66434 1.6729,6.63539 0,0 -4.61819,-0.003 -10.21378,-0.003 -9.46003,0 -10.48233,0.52564 -9.34197,-0.84841 z m 1.3286,-9.6449 c -0.34636,-0.90262 -0.15025,-2.12063 0.43581,-2.70669 1.52361,-1.52361 4.41041,-0.13109 4.01242,1.93549 -0.4433,2.30188 -3.64766,2.85743 -4.44823,0.7712 z"
           style="fill:#000000" />
        <rect
           y="667.74237"
           x="630.76331"
           height="15.846768"
           width="22.223356"
           id="rect4518"
           style="fill:none;stroke:#000000;stroke-width:0.64874578" />
      </g>
    </g>
  </g>
</svg>
