<svg width="69" height="67" viewBox="0 0 69 67" fill="none" xmlns="http://www.w3.org/2000/svg">
<path d="M24.6621 39.1201C25.6696 41.0674 27.2448 42.6249 29.3535 43.6895C30.2023 44.1179 31.0684 44.4215 31.9443 44.6094L31.1533 46.3525C30.9348 46.8337 30.6562 47.4238 30.4141 47.9834C28.9768 51.3047 27.8274 54.7007 26.8135 58.0947C26.2724 59.9057 25.6217 61.3971 24.6074 62.6016C23.779 63.5852 22.8893 64.1244 21.832 64.291C20.8822 64.4407 19.9203 64.2591 18.8643 63.7363C17.2157 62.9202 15.8739 61.6396 14.6787 59.9668C13.1907 57.8841 12.2311 55.6281 11.8633 53.1621C11.4295 50.2534 11.8974 47.7401 13.5234 45.5273C14.6559 43.9863 16.1788 42.8707 18.0527 42.1006C19.6777 41.4328 21.2723 40.8994 23.0693 40.2344C23.3366 40.1355 23.8511 39.9254 24.3447 39.4355L24.6621 39.1201ZM44.3535 42.0225C44.8423 42.4613 45.3876 42.9594 45.9219 43.4277C48.6975 45.8607 51.6565 48.0026 54.5781 50.041C55.9793 51.0186 57.0875 52.0779 57.8574 53.3574C58.992 55.243 58.7662 57.2762 57.2314 58.8857C55.7006 60.4911 53.7311 61.4628 51.332 62.0986C49.8256 62.4979 48.294 62.6695 46.7422 62.6113C44.4683 62.5261 42.452 62.0144 40.6797 60.9033C38.4037 59.4765 37.054 57.4332 36.4961 54.7373C36.2895 53.7389 36.2228 52.6813 36.1387 51.4053C36.0957 50.7529 36.0726 50.0983 36.0439 49.3857C36.0158 48.6877 35.9826 47.9431 35.9209 47.1836L35.7197 44.709C36.35 44.6125 36.9824 44.4648 37.6133 44.2598L37.6416 44.251L37.6699 44.2412C39.7539 43.5083 41.4596 42.2688 42.7354 40.5703L44.3535 42.0225ZM59.2197 18.8018C60.4419 18.5335 61.4317 18.6606 62.2148 19.0186C62.9991 19.377 63.7508 20.0467 64.3594 21.1553C65.0275 22.3724 65.3865 23.7351 65.5234 25.2695C65.7602 27.9223 65.3752 30.4602 64.3516 32.9014C63.3511 35.2872 61.9184 37.1165 59.8486 38.3379C58.369 39.211 56.7321 39.5955 54.8848 39.5732C53.3339 39.5545 51.7891 39.1667 49.9961 38.6211C48.883 38.2824 47.7414 37.9741 46.5488 37.7178L44.4424 37.2646C44.9073 35.7707 45.0159 34.2211 44.8057 32.6592C44.6118 31.219 44.168 29.8907 43.4805 28.6982L44.4453 27.9834C45.2341 27.5348 46.1808 27.0177 47.0469 26.4873C49.9368 24.7172 52.6354 22.7062 55.2295 20.7705C56.5452 19.7888 57.8381 19.105 59.2197 18.8018ZM12.3301 18.2109C15.7703 17.1584 18.7447 17.7525 21.5312 20.042C22.5909 20.9127 23.4817 22.0167 24.4902 23.3555C25.1017 24.1671 25.7619 24.9802 26.3389 25.7119C26.4658 25.8729 26.6281 26.0464 26.833 26.2109C25.8985 27.0901 25.1155 28.1581 24.501 29.4004C23.5854 31.2515 23.2428 33.2383 23.4824 35.252L22.8896 35.1797C22.5346 35.1359 22.0505 35.0694 21.6094 35.0234C17.7436 34.6205 13.8983 34.6166 10.1572 34.6807C8.41701 34.7105 6.91495 34.5549 5.55957 34.0283C3.86055 33.3682 2.94601 32.3702 2.6123 30.8105C2.3679 29.6682 2.52996 28.4668 3.03906 27.0869C3.84606 24.8997 5.20037 23.0282 7.01074 21.3682C8.61905 19.8934 10.3653 18.8121 12.3301 18.2109ZM30.2334 2.74316C31.8508 2.34281 33.5323 2.45644 35.3662 2.93945C38.1873 3.68256 40.6155 5.05536 42.6484 7.10254C44.2383 8.70362 45.26 10.4963 45.6396 12.5859C45.973 14.4209 45.7053 16.2281 44.9287 18.1064C44.3682 19.4619 43.517 20.6314 42.4482 22.21C41.9458 22.9521 41.4492 23.7093 40.9541 24.457L40.7568 24.7559L40.6504 25.0986C40.6222 25.1898 40.5885 25.315 40.5635 25.4668C38.0867 23.6293 35.1926 22.9512 32.1201 23.5566C31.7398 23.6316 31.3697 23.7236 31.0098 23.8311C30.8901 23.26 30.7592 22.5993 30.6191 21.9727C29.789 18.2586 28.6066 14.6807 27.417 11.2217C26.9374 9.82696 26.7018 8.44405 26.7529 7.04297C26.8342 4.81999 28.0822 3.27575 30.2334 2.74316Z" stroke="#DD8B83" stroke-width="5"/>
</svg>
