<svg width="44" height="63" viewBox="0 0 44 63" fill="none" xmlns="http://www.w3.org/2000/svg">
<path d="M25.6448 6.17419L27.9403 9.78136L30.2357 6.17419V11.0931H33.515V1.25531H30.2357L27.9403 4.86249L25.9727 1.25531H22.3655V11.0931H25.6448V6.17419ZM43.0248 11.0931V7.81381H38.4339V1.25531H35.1546V11.0931H43.0248ZM14.8233 11.0931H18.1025V4.53456H21.0538V1.25531H11.8719V4.53456H14.8233V11.0931ZM4.32966 7.81381H7.28099V11.0931H10.5602V1.25531H7.28099V4.53456H4.32966V1.25531H1.05042V11.0931H4.32966V7.81381Z" fill="#DD8B83"/>
<path d="M2.5 15.9961L6.56167 55.3584L20.7752 59.7576L34.9888 55.3584L39.0504 15.9961H2.5Z" stroke="#DD8B83" stroke-width="5" stroke-linecap="round" stroke-linejoin="round"/>
<path d="M32.1973 25.209H10.4954L11.6376 35.5735H29.9128L28.7706 48.2413L20.7752 50.5446L12.7798 48.2413L12.2087 42.4832" stroke="#DD8B83" stroke-width="5" stroke-linecap="round" stroke-linejoin="round"/>
</svg>
