<?xml version="1.0" encoding="UTF-8" standalone="no"?>
<!-- Created with Inkscape (http://www.inkscape.org/) -->

<svg
   xmlns:dc="http://purl.org/dc/elements/1.1/"
   xmlns:cc="http://creativecommons.org/ns#"
   xmlns:rdf="http://www.w3.org/1999/02/22-rdf-syntax-ns#"
   xmlns:svg="http://www.w3.org/2000/svg"
   xmlns="http://www.w3.org/2000/svg"
   xmlns:sodipodi="http://sodipodi.sourceforge.net/DTD/sodipodi-0.dtd"
   xmlns:inkscape="http://www.inkscape.org/namespaces/inkscape"
   width="44"
   height="18"
   viewBox="0 0 43.999999 17.999999"
   id="svg4475"
   version="1.1"
   inkscape:version="0.91 r13725"
   sodipodi:docname="WordSpacing.svg">
  <defs
     id="defs4477">
    <marker
       inkscape:stockid="Arrow2Mend"
       orient="auto"
       refY="0"
       refX="0"
       id="Arrow2Mend"
       style="overflow:visible"
       inkscape:isstock="true">
      <path
         id="path4234"
         style="fill:#000000;fill-opacity:1;fill-rule:evenodd;stroke:#000000;stroke-width:0.625;stroke-linejoin:round;stroke-opacity:1"
         d="M 8.7185878,4.0337352 -2.2072895,0.01601326 8.7185884,-4.0017078 c -1.7454984,2.3720609 -1.7354408,5.6174519 -6e-7,8.035443 z"
         transform="scale(-0.6,-0.6)"
         inkscape:connector-curvature="0" />
    </marker>
    <marker
       inkscape:stockid="Arrow1Send"
       orient="auto"
       refY="0"
       refX="0"
       id="Arrow1Send"
       style="overflow:visible"
       inkscape:isstock="true">
      <path
         id="path4222"
         d="M 0,0 5,-5 -12.5,0 5,5 0,0 Z"
         style="fill:#000000;fill-opacity:1;fill-rule:evenodd;stroke:#000000;stroke-width:1pt;stroke-opacity:1"
         transform="matrix(-0.2,0,0,-0.2,-1.2,0)"
         inkscape:connector-curvature="0" />
    </marker>
    <marker
       inkscape:stockid="Arrow2Mstart"
       orient="auto"
       refY="0"
       refX="0"
       id="Arrow2Mstart"
       style="overflow:visible"
       inkscape:isstock="true">
      <path
         id="path4231"
         style="fill:#000000;fill-opacity:1;fill-rule:evenodd;stroke:#000000;stroke-width:0.625;stroke-linejoin:round;stroke-opacity:1"
         d="M 8.7185878,4.0337352 -2.2072895,0.01601326 8.7185884,-4.0017078 c -1.7454984,2.3720609 -1.7354408,5.6174519 -6e-7,8.035443 z"
         transform="scale(0.6,0.6)"
         inkscape:connector-curvature="0" />
    </marker>
    <marker
       inkscape:stockid="Arrow1Mstart"
       orient="auto"
       refY="0"
       refX="0"
       id="Arrow1Mstart"
       style="overflow:visible"
       inkscape:isstock="true">
      <path
         id="path4213"
         d="M 0,0 5,-5 -12.5,0 5,5 0,0 Z"
         style="fill:#000000;fill-opacity:1;fill-rule:evenodd;stroke:#000000;stroke-width:1pt;stroke-opacity:1"
         transform="matrix(0.4,0,0,0.4,4,0)"
         inkscape:connector-curvature="0" />
    </marker>
    <inkscape:path-effect
       effect="spiro"
       id="path-effect4201"
       is_visible="true" />
    <inkscape:path-effect
       effect="spiro"
       id="path-effect4197"
       is_visible="true" />
    <inkscape:path-effect
       is_visible="true"
       id="path-effect4154"
       effect="spiro" />
    <inkscape:path-effect
       effect="spiro"
       id="path-effect4150"
       is_visible="true" />
    <inkscape:path-effect
       effect="spiro"
       id="path-effect4146"
       is_visible="true" />
  </defs>
  <sodipodi:namedview
     id="base"
     pagecolor="#ffffff"
     bordercolor="#666666"
     borderopacity="1.0"
     inkscape:pageopacity="0.0"
     inkscape:pageshadow="2"
     inkscape:zoom="5.6568543"
     inkscape:cx="39.118938"
     inkscape:cy="-7.9349839"
     inkscape:document-units="px"
     inkscape:current-layer="text5840"
     showgrid="false"
     inkscape:window-width="1689"
     inkscape:window-height="1177"
     inkscape:window-x="1192"
     inkscape:window-y="468"
     inkscape:window-maximized="1"
     fit-margin-top="0"
     fit-margin-left="0"
     fit-margin-right="0"
     fit-margin-bottom="0"
     showguides="true"
     inkscape:guide-bbox="true"
     units="px"
     showborder="false">
    <sodipodi:guide
       position="14.539436,24.672588"
       orientation="1,0"
       id="guide5906" />
    <sodipodi:guide
       position="27.351936,21.797588"
       orientation="1,0"
       id="guide5908" />
  </sodipodi:namedview>
  <metadata
     id="metadata4480">
    <rdf:RDF>
      <cc:Work
         rdf:about="">
        <dc:format>image/svg+xml</dc:format>
        <dc:type
           rdf:resource="http://purl.org/dc/dcmitype/StillImage" />
        <dc:title></dc:title>
      </cc:Work>
    </rdf:RDF>
  </metadata>
  <g
     inkscape:label="Layer 1"
     inkscape:groupmode="layer"
     id="layer1"
     transform="translate(-92.146323,-856.77797)">
    <flowRoot
       xml:space="preserve"
       id="flowRoot4161"
       style="font-style:normal;font-weight:normal;font-size:11.25px;line-height:125%;font-family:Sans;letter-spacing:0px;word-spacing:0px;fill:#000000;fill-opacity:0;stroke:none;stroke-width:1px;stroke-linecap:butt;stroke-linejoin:miter;stroke-opacity:1"
       transform="translate(113.14732,911.0899)"><flowRegion
         id="flowRegion4163"><rect
           id="rect4165"
           width="23.378717"
           height="12.330174"
           x="14.097941"
           y="5.1476169"
           style="fill:#000000;fill-opacity:0" /></flowRegion><flowPara
         id="flowPara4167">aaaaaaadddddsd</flowPara></flowRoot>    <flowRoot
       xml:space="preserve"
       id="flowRoot5095"
       style="font-style:normal;font-weight:normal;font-size:11.25px;line-height:125%;font-family:Sans;letter-spacing:0px;word-spacing:0px;fill:#000000;fill-opacity:1;stroke:none;stroke-width:1px;stroke-linecap:butt;stroke-linejoin:miter;stroke-opacity:1"><flowRegion
         id="flowRegion5097"><rect
           id="rect5099"
           width="75.625"
           height="41.375"
           x="-5.375"
           y="-15.271425" /></flowRegion><flowPara
         id="flowPara5101" /></flowRoot>    <flowRoot
       style="font-style:normal;font-weight:normal;font-size:11.25px;line-height:125%;font-family:Sans;letter-spacing:0px;word-spacing:0px;fill:#000000;fill-opacity:1;stroke:none;stroke-width:1px;stroke-linecap:butt;stroke-linejoin:miter;stroke-opacity:1"
       id="flowRoot5103"
       xml:space="preserve"><flowRegion
         id="flowRegion5105"><rect
           y="-15.271425"
           x="-5.375"
           height="41.375"
           width="75.625"
           id="rect5107" /></flowRegion><flowPara
         id="flowPara5109" /></flowRoot>    <flowRoot
       transform="translate(116.52232,877.5899)"
       style="font-style:normal;font-weight:normal;font-size:11.25px;line-height:125%;font-family:Sans;letter-spacing:0px;word-spacing:0px;fill:#000000;fill-opacity:0;stroke:none;stroke-width:1px;stroke-linecap:butt;stroke-linejoin:miter;stroke-opacity:1"
       id="flowRoot5111"
       xml:space="preserve"><flowRegion
         id="flowRegion5113"><rect
           style="fill:#000000;fill-opacity:0"
           y="5.1476169"
           x="14.097941"
           height="12.330174"
           width="23.378717"
           id="rect5115" /></flowRegion><flowPara
         id="flowPara5117">aaaaaaadddddsd</flowPara></flowRoot>    <flowRoot
       style="font-style:normal;font-weight:normal;font-size:11.25px;line-height:125%;font-family:Sans;letter-spacing:0px;word-spacing:0px;fill:#000000;fill-opacity:1;stroke:none;stroke-width:1px;stroke-linecap:butt;stroke-linejoin:miter;stroke-opacity:1"
       id="flowRoot5133"
       xml:space="preserve"
       transform="translate(3.375,-33.5)"><flowRegion
         id="flowRegion5135"><rect
           y="-15.271425"
           x="-5.375"
           height="41.375"
           width="75.625"
           id="rect5137" /></flowRegion><flowPara
         id="flowPara5139" /></flowRoot>    <flowRoot
       xml:space="preserve"
       id="flowRoot5141"
       style="font-style:normal;font-weight:normal;font-size:11.25px;line-height:125%;font-family:Sans;letter-spacing:0px;word-spacing:0px;fill:#000000;fill-opacity:1;stroke:none;stroke-width:1px;stroke-linecap:butt;stroke-linejoin:miter;stroke-opacity:1"
       transform="translate(3.375,-33.5)"><flowRegion
         id="flowRegion5143"><rect
           id="rect5145"
           width="75.625"
           height="41.375"
           x="-5.375"
           y="-15.271425" /></flowRegion><flowPara
         id="flowPara5147" /></flowRoot>    <flowRoot
       transform="translate(88.045029,854.34458)"
       style="font-style:normal;font-weight:normal;font-size:11.25px;line-height:125%;font-family:Sans;letter-spacing:0px;word-spacing:0px;fill:#000000;fill-opacity:0;stroke:none;stroke-width:1px;stroke-linecap:butt;stroke-linejoin:miter;stroke-opacity:1"
       id="flowRoot5826"
       xml:space="preserve"><flowRegion
         id="flowRegion5828"><rect
           style="fill:#000000;fill-opacity:0"
           y="5.1476169"
           x="14.097941"
           height="12.330174"
           width="23.378717"
           id="rect5830" /></flowRegion><flowPara
         id="flowPara5832">aaaaaaadddddsd</flowPara></flowRoot>    <g
       transform="translate(60.18566,-188.31502)"
       id="g5834">
      <path
         style="fill:#000000;fill-rule:evenodd;stroke:#000000;stroke-width:0.1;stroke-linecap:butt;stroke-linejoin:miter;stroke-miterlimit:4;stroke-dasharray:none;stroke-opacity:1"
         d="m 49.56593,1056.9019 c -0.98739,0.988 -2.10583,2.1072 -3.0332,3.0352 0.89699,0.9083 2.05777,2.0591 3.0332,3.0351 l 0,-2.2402 4.66122,0 0,-1.5898 -4.66122,0 z"
         id="path5836"
         inkscape:connector-curvature="0"
         sodipodi:nodetypes="cccccccc" />
      <path
         sodipodi:nodetypes="cccccccc"
         inkscape:connector-curvature="0"
         id="path5838"
         d="m 56.29847,1056.8998 c 0.98739,0.9879 2.10583,2.1072 3.0332,3.0351 -0.89699,0.9083 -2.05777,2.0591 -3.0332,3.0352 l 0,-2.2403 -4.66122,0 0,-1.5898 4.66122,0 z"
         style="fill:#000000;fill-rule:evenodd;stroke:#000000;stroke-width:0.1;stroke-linecap:butt;stroke-linejoin:miter;stroke-miterlimit:4;stroke-dasharray:none;stroke-opacity:1" />
    </g>
    <g
       style="font-style:normal;font-weight:normal;font-size:16.16084862px;line-height:125%;font-family:Sans;letter-spacing:0px;word-spacing:0px;fill:#000000;fill-opacity:1;stroke:none;stroke-width:1px;stroke-linecap:butt;stroke-linejoin:miter;stroke-opacity:1"
       id="text5840">
      <path
         d="m 92.146323,860.07108 1.578208,0 0,-2.56458 1.459842,0 0,2.56458 2.564588,0 0,1.1442 -2.564588,0 0,3.62988 q 0,0.60761 0.05524,0.99427 0.06313,0.38666 0.181494,0.60761 0.126257,0.21306 0.315642,0.29197 0.189385,0.0789 0.45768,0.0789 0.339315,0 0.765431,-0.14993 0.426116,-0.14993 0.946925,-0.4419 l 0,1.26257 q -0.544482,0.3551 -1.041618,0.48925 -0.497135,0.14203 -0.91536,0.14203 -0.465571,0 -0.868015,-0.11047 -0.402443,-0.10258 -0.710193,-0.37088 -0.29986,-0.26829 -0.473462,-0.71019 -0.173603,-0.44979 -0.173603,-1.13631 l 0,-4.57681 -1.578208,0 0,-1.1442 z"
         style="font-style:normal;font-variant:normal;font-weight:normal;font-stretch:normal;font-family:'Andika New Basic';-inkscape-font-specification:'Andika New Basic'"
         id="path4217"
         inkscape:connector-curvature="0" />
      <path
         d="m 100.71599,863.93769 q 0,0.68652 0.16571,1.23101 0.16572,0.54448 0.46557,0.92325 0.30776,0.37088 0.72598,0.56815 0.41823,0.19728 0.93114,0.19728 0.47347,0 0.89169,-0.19728 0.41823,-0.19727 0.72598,-0.56815 0.31564,-0.37877 0.48924,-0.92325 0.18149,-0.54449 0.18149,-1.23101 0,-0.69441 -0.16571,-1.23889 -0.16571,-0.55237 -0.47346,-0.93114 -0.29986,-0.38666 -0.72598,-0.58394 -0.41822,-0.20517 -0.92325,-0.20517 -0.48135,0 -0.89958,0.20517 -0.41822,0.19728 -0.72597,0.58394 -0.30775,0.37877 -0.48925,0.93114 -0.1736,0.54448 -0.1736,1.23889 z m -1.459841,0 q 0,-1.01794 0.307751,-1.79915 0.307751,-0.78911 0.82856,-1.3257 0.52081,-0.54448 1.21522,-0.82067 0.69441,-0.27618 1.47562,-0.27618 0.81278,0 1.48352,0.27618 0.67863,0.27619 1.15998,0.82067 0.48925,0.53659 0.75754,1.3257 0.2683,0.78121 0.2683,1.79915 0,1.01795 -0.30775,1.79916 -0.30775,0.78121 -0.82856,1.30991 -0.52081,0.5287 -1.21522,0.80489 -0.69441,0.26829 -1.47563,0.26829 -0.81277,0 -1.4914,-0.26829 -0.67074,-0.27619 -1.15999,-0.80489 -0.48135,-0.5287 -0.749645,-1.30991 -0.268296,-0.78121 -0.268296,-1.79916 z"
         style="font-style:normal;font-variant:normal;font-weight:normal;font-stretch:normal;font-family:'Andika New Basic';-inkscape-font-specification:'Andika New Basic'"
         id="path4219"
         inkscape:connector-curvature="0" />
    </g>
    <g
       style="font-style:normal;font-weight:normal;font-size:16.16084862px;line-height:125%;font-family:Sans;letter-spacing:0px;word-spacing:0px;fill:#000000;fill-opacity:1;stroke:none;stroke-width:1px;stroke-linecap:butt;stroke-linejoin:miter;stroke-opacity:1"
       id="text5844">
      <path
         d="m 125.32753,862.52429 q -0.29197,-0.15782 -0.54448,-0.26829 -0.25252,-0.11048 -0.49714,-0.1815 -0.24462,-0.071 -0.49714,-0.10258 -0.25251,-0.0395 -0.55237,-0.0395 -0.44979,0 -0.86012,0.20517 -0.41034,0.20517 -0.73387,0.59183 -0.31564,0.38666 -0.50502,0.94692 -0.18939,0.55238 -0.18939,1.25468 0,1.38093 0.46557,2.09112 0.47346,0.7102 1.50719,0.7102 0.36299,0 0.71809,-0.1815 0.36298,-0.18149 0.67862,-0.47346 0.32354,-0.29197 0.58394,-0.66285 0.26041,-0.37877 0.42612,-0.77332 l 0,-3.11696 z m 1.45984,2.09113 q 0,1.4914 0.16571,2.50935 0.1736,1.01005 0.42612,1.6729 l -1.42039,0 q -0.0868,-0.20517 -0.21306,-0.60761 -0.11836,-0.41034 -0.22095,-0.85223 -0.56815,0.80488 -1.28624,1.231 -0.71808,0.42611 -1.59399,0.42611 -0.72597,0 -1.30991,-0.26829 -0.57604,-0.27619 -0.99427,-0.77332 -0.41033,-0.50503 -0.63128,-1.20733 -0.22095,-0.7102 -0.22095,-1.57821 0,-1.04951 0.28408,-1.89385 0.29196,-0.84434 0.79699,-1.43617 0.50503,-0.59972 1.18366,-0.92325 0.68652,-0.32353 1.48351,-0.32353 0.25252,0 0.52081,0.0552 0.27619,0.0552 0.54448,0.14993 0.27619,0.0947 0.53659,0.22095 0.26041,0.11837 0.48925,0.24463 l 0,-2.2095 q 0,-0.95481 -0.0473,-1.665 -0.0395,-0.71809 -0.14993,-1.21522 l 1.65712,0 0,8.44341 z"
         style="font-style:normal;font-variant:normal;font-weight:normal;font-stretch:normal;font-family:'Andika New Basic';-inkscape-font-specification:'Andika New Basic'"
         id="path4212"
         inkscape:connector-curvature="0" />
      <path
         d="m 130.24364,864.81269 q 0,0.68652 0.16572,1.23101 0.16571,0.54448 0.46557,0.92325 0.30775,0.37088 0.72597,0.56815 0.41823,0.19728 0.93115,0.19728 0.47346,0 0.89168,-0.19728 0.41823,-0.19727 0.72598,-0.56815 0.31564,-0.37877 0.48924,-0.92325 0.1815,-0.54449 0.1815,-1.23101 0,-0.69441 -0.16571,-1.23889 -0.16572,-0.55237 -0.47347,-0.93114 -0.29986,-0.38666 -0.72597,-0.58394 -0.41823,-0.20517 -0.92325,-0.20517 -0.48136,0 -0.89958,0.20517 -0.41823,0.19728 -0.72598,0.58394 -0.30775,0.37877 -0.48924,0.93114 -0.17361,0.54448 -0.17361,1.23889 z m -1.45984,0 q 0,-1.01794 0.30775,-1.79915 0.30775,-0.78911 0.82856,-1.3257 0.52081,-0.54448 1.21522,-0.82067 0.69441,-0.27618 1.47563,-0.27618 0.81277,0 1.48351,0.27618 0.67863,0.27619 1.15998,0.82067 0.48925,0.53659 0.75754,1.3257 0.2683,0.78121 0.2683,1.79915 0,1.01795 -0.30775,1.79916 -0.30775,0.78121 -0.82856,1.30991 -0.52081,0.5287 -1.21522,0.80489 -0.69441,0.26829 -1.47562,0.26829 -0.81278,0 -1.49141,-0.26829 -0.67074,-0.27619 -1.15998,-0.80489 -0.48136,-0.5287 -0.74965,-1.30991 -0.2683,-0.78121 -0.2683,-1.79916 z"
         style="font-style:normal;font-variant:normal;font-weight:normal;font-stretch:normal;font-family:'Andika New Basic';-inkscape-font-specification:'Andika New Basic'"
         id="path4214"
         inkscape:connector-curvature="0" />
    </g>
    <flowRoot
       style="font-style:normal;font-weight:normal;font-size:11.25px;line-height:125%;font-family:Sans;letter-spacing:0px;word-spacing:0px;fill:#000000;fill-opacity:1;stroke:none;stroke-width:1px;stroke-linecap:butt;stroke-linejoin:miter;stroke-opacity:1"
       id="flowRoot5848"
       xml:space="preserve"
       transform="translate(-25.102291,-56.745319)"><flowRegion
         id="flowRegion5850"><rect
           y="-15.271425"
           x="-5.375"
           height="41.375"
           width="75.625"
           id="rect5852" /></flowRegion><flowPara
         id="flowPara5854" /></flowRoot>    <flowRoot
       xml:space="preserve"
       id="flowRoot5856"
       style="font-style:normal;font-weight:normal;font-size:11.25px;line-height:125%;font-family:Sans;letter-spacing:0px;word-spacing:0px;fill:#000000;fill-opacity:1;stroke:none;stroke-width:1px;stroke-linecap:butt;stroke-linejoin:miter;stroke-opacity:1"
       transform="translate(-25.102291,-56.745319)"><flowRegion
         id="flowRegion5858"><rect
           id="rect5860"
           width="75.625"
           height="41.375"
           x="-5.375"
           y="-15.271425" /></flowRegion><flowPara
         id="flowPara5862" /></flowRoot>    <flowRoot
       xml:space="preserve"
       id="flowRoot5864"
       style="font-style:normal;font-weight:normal;font-size:11.25px;line-height:125%;font-family:Sans;letter-spacing:0px;word-spacing:0px;fill:#000000;fill-opacity:0;stroke:none;stroke-width:1px;stroke-linecap:butt;stroke-linejoin:miter;stroke-opacity:1"
       transform="translate(91.420029,820.84458)"><flowRegion
         id="flowRegion5866"><rect
           id="rect5868"
           width="23.378717"
           height="12.330174"
           x="14.097941"
           y="5.1476169"
           style="fill:#000000;fill-opacity:0" /></flowRegion><flowPara
         id="flowPara5870">aaaaaaadddddsd</flowPara></flowRoot>    <flowRoot
       transform="translate(-21.727291,-90.245319)"
       xml:space="preserve"
       id="flowRoot5872"
       style="font-style:normal;font-weight:normal;font-size:11.25px;line-height:125%;font-family:Sans;letter-spacing:0px;word-spacing:0px;fill:#000000;fill-opacity:1;stroke:none;stroke-width:1px;stroke-linecap:butt;stroke-linejoin:miter;stroke-opacity:1"><flowRegion
         id="flowRegion5874"><rect
           id="rect5876"
           width="75.625"
           height="41.375"
           x="-5.375"
           y="-15.271425" /></flowRegion><flowPara
         id="flowPara5878" /></flowRoot>    <flowRoot
       transform="translate(-21.727291,-90.245319)"
       style="font-style:normal;font-weight:normal;font-size:11.25px;line-height:125%;font-family:Sans;letter-spacing:0px;word-spacing:0px;fill:#000000;fill-opacity:1;stroke:none;stroke-width:1px;stroke-linecap:butt;stroke-linejoin:miter;stroke-opacity:1"
       id="flowRoot5880"
       xml:space="preserve"><flowRegion
         id="flowRegion5882"><rect
           y="-15.271425"
           x="-5.375"
           height="41.375"
           width="75.625"
           id="rect5884" /></flowRegion><flowPara
         id="flowPara5886" /></flowRoot>  </g>
</svg>
