<svg width="72" height="30" viewBox="0 0 72 30" fill="none" xmlns="http://www.w3.org/2000/svg">
<rect x="14.6901" y="0.0617676" width="12.2291" height="15.4974" rx="1" fill="#0C8597"/>
<rect x="29.467" y="0.0617676" width="12.2291" height="15.4974" rx="1" fill="#0C8597"/>
<rect x="44.2441" width="12.2291" height="15.4974" rx="1" fill="#0C8597"/>
<path d="M10.3044 25.7037H8.13055L8.11884 24.6314H10.0173C10.3376 24.6314 10.6091 24.5845 10.8317 24.4908C11.0583 24.3931 11.2302 24.2545 11.3474 24.0748C11.4645 23.8912 11.5231 23.6705 11.5231 23.4127C11.5231 23.1275 11.4684 22.8951 11.3591 22.7154C11.2497 22.5357 11.0817 22.4048 10.8552 22.3228C10.6325 22.2408 10.3474 22.1998 9.99969 22.1998H8.57587V29.5591H7.10516V21.0279H9.99969C10.4684 21.0279 10.8864 21.0728 11.2536 21.1627C11.6247 21.2525 11.9391 21.3931 12.197 21.5845C12.4587 21.772 12.6559 22.0103 12.7888 22.2994C12.9255 22.5884 12.9938 22.9322 12.9938 23.3306C12.9938 23.6822 12.9099 24.0045 12.7419 24.2974C12.5739 24.5865 12.3259 24.8228 11.9977 25.0064C11.6696 25.19 11.2614 25.2994 10.7731 25.3345L10.3044 25.7037ZM10.2399 29.5591H7.66766L8.32977 28.3931H10.2399C10.572 28.3931 10.8493 28.3384 11.072 28.2291C11.2946 28.1158 11.4606 27.9615 11.57 27.7662C11.6833 27.567 11.7399 27.3345 11.7399 27.0689C11.7399 26.7916 11.6911 26.5513 11.5934 26.3482C11.4958 26.1412 11.3415 25.983 11.1306 25.8736C10.9196 25.7603 10.6442 25.7037 10.3044 25.7037H8.65204L8.66376 24.6314H10.8141L11.1481 25.0357C11.6169 25.0513 12.0016 25.1548 12.3024 25.3463C12.6071 25.5377 12.8337 25.7857 12.9821 26.0904C13.1306 26.3951 13.2048 26.7232 13.2048 27.0748C13.2048 27.6177 13.0856 28.0728 12.8474 28.44C12.613 28.8072 12.2751 29.0865 11.8337 29.2779C11.3923 29.4654 10.861 29.5591 10.2399 29.5591ZM15.027 26.4595V26.3248C15.027 25.8677 15.0934 25.4439 15.2263 25.0533C15.3591 24.6588 15.5505 24.317 15.8005 24.0279C16.0544 23.7349 16.363 23.5084 16.7263 23.3482C17.0934 23.1841 17.5075 23.1021 17.9684 23.1021C18.4333 23.1021 18.8474 23.1841 19.2106 23.3482C19.5778 23.5084 19.8884 23.7349 20.1423 24.0279C20.3962 24.317 20.5895 24.6588 20.7224 25.0533C20.8552 25.4439 20.9216 25.8677 20.9216 26.3248V26.4595C20.9216 26.9166 20.8552 27.3404 20.7224 27.731C20.5895 28.1216 20.3962 28.4634 20.1423 28.7564C19.8884 29.0455 19.5798 29.272 19.2165 29.4361C18.8532 29.5963 18.4411 29.6763 17.9802 29.6763C17.5153 29.6763 17.0993 29.5963 16.7321 29.4361C16.3688 29.272 16.0602 29.0455 15.8063 28.7564C15.5524 28.4634 15.3591 28.1216 15.2263 27.731C15.0934 27.3404 15.027 26.9166 15.027 26.4595ZM16.4391 26.3248V26.4595C16.4391 26.7447 16.4684 27.0142 16.527 27.2681C16.5856 27.522 16.6774 27.7447 16.8024 27.9361C16.9274 28.1275 17.0876 28.2779 17.2829 28.3873C17.4782 28.4966 17.7106 28.5513 17.9802 28.5513C18.2419 28.5513 18.4684 28.4966 18.6599 28.3873C18.8552 28.2779 19.0153 28.1275 19.1403 27.9361C19.2653 27.7447 19.3571 27.522 19.4157 27.2681C19.4782 27.0142 19.5095 26.7447 19.5095 26.4595V26.3248C19.5095 26.0435 19.4782 25.7779 19.4157 25.5279C19.3571 25.274 19.2634 25.0494 19.1345 24.8541C19.0095 24.6588 18.8493 24.5064 18.654 24.397C18.4626 24.2838 18.2341 24.2271 17.9684 24.2271C17.7028 24.2271 17.4724 24.2838 17.277 24.397C17.0856 24.5064 16.9274 24.6588 16.8024 24.8541C16.6774 25.0494 16.5856 25.274 16.527 25.5279C16.4684 25.7779 16.4391 26.0435 16.4391 26.3248ZM22.5856 26.4595V26.3248C22.5856 25.8677 22.652 25.4439 22.7849 25.0533C22.9177 24.6588 23.1091 24.317 23.3591 24.0279C23.613 23.7349 23.9216 23.5084 24.2849 23.3482C24.652 23.1841 25.0661 23.1021 25.527 23.1021C25.9919 23.1021 26.4059 23.1841 26.7692 23.3482C27.1364 23.5084 27.447 23.7349 27.7009 24.0279C27.9548 24.317 28.1481 24.6588 28.2809 25.0533C28.4138 25.4439 28.4802 25.8677 28.4802 26.3248V26.4595C28.4802 26.9166 28.4138 27.3404 28.2809 27.731C28.1481 28.1216 27.9548 28.4634 27.7009 28.7564C27.447 29.0455 27.1384 29.272 26.7751 29.4361C26.4118 29.5963 25.9997 29.6763 25.5388 29.6763C25.0739 29.6763 24.6579 29.5963 24.2907 29.4361C23.9274 29.272 23.6188 29.0455 23.3649 28.7564C23.111 28.4634 22.9177 28.1216 22.7849 27.731C22.652 27.3404 22.5856 26.9166 22.5856 26.4595ZM23.9977 26.3248V26.4595C23.9977 26.7447 24.027 27.0142 24.0856 27.2681C24.1442 27.522 24.236 27.7447 24.361 27.9361C24.486 28.1275 24.6462 28.2779 24.8415 28.3873C25.0368 28.4966 25.2692 28.5513 25.5388 28.5513C25.8005 28.5513 26.027 28.4966 26.2184 28.3873C26.4138 28.2779 26.5739 28.1275 26.6989 27.9361C26.8239 27.7447 26.9157 27.522 26.9743 27.2681C27.0368 27.0142 27.0681 26.7447 27.0681 26.4595V26.3248C27.0681 26.0435 27.0368 25.7779 26.9743 25.5279C26.9157 25.274 26.822 25.0494 26.6931 24.8541C26.5681 24.6588 26.4079 24.5064 26.2126 24.397C26.0212 24.2838 25.7927 24.2271 25.527 24.2271C25.2614 24.2271 25.0309 24.2838 24.8356 24.397C24.6442 24.5064 24.486 24.6588 24.361 24.8541C24.236 25.0494 24.1442 25.274 24.0856 25.5279C24.027 25.7779 23.9977 26.0435 23.9977 26.3248ZM31.8376 20.5591V29.5591H30.4196V20.5591H31.8376ZM35.7751 23.2193L33.0153 26.2779L31.5036 27.8248L31.1345 26.6295L32.277 25.2173L34.07 23.2193H35.7751ZM34.3747 29.5591L32.3181 26.5826L33.2087 25.5923L36.0095 29.5591H34.3747ZM47.8513 25.1998V28.4576C47.7302 28.6177 47.5407 28.7935 47.2829 28.9849C47.029 29.1724 46.6911 29.3345 46.2692 29.4713C45.8474 29.608 45.322 29.6763 44.6931 29.6763C44.1579 29.6763 43.6677 29.5865 43.2224 29.4068C42.777 29.2232 42.3923 28.9556 42.0681 28.6041C41.7477 28.2525 41.4997 27.8248 41.3239 27.3209C41.1481 26.813 41.0602 26.2349 41.0602 25.5865V24.9947C41.0602 24.3502 41.1403 23.7759 41.3005 23.272C41.4645 22.7642 41.6989 22.3345 42.0036 21.983C42.3083 21.6314 42.6755 21.3658 43.1052 21.1861C43.5388 21.0025 44.029 20.9107 44.5759 20.9107C45.2751 20.9107 45.8532 21.0279 46.3102 21.2623C46.7712 21.4927 47.1266 21.813 47.3766 22.2232C47.6266 22.6334 47.7849 23.1021 47.8513 23.6295H46.4099C46.363 23.3326 46.2712 23.067 46.1345 22.8326C46.0016 22.5982 45.8102 22.4146 45.5602 22.2818C45.3141 22.1451 44.9938 22.0767 44.5993 22.0767C44.2595 22.0767 43.9606 22.1412 43.7028 22.2701C43.445 22.399 43.2302 22.5884 43.0583 22.8384C42.8903 23.0884 42.7634 23.3931 42.6774 23.7525C42.5915 24.1119 42.5485 24.522 42.5485 24.983V25.5865C42.5485 26.0552 42.5974 26.4713 42.695 26.8345C42.7966 27.1978 42.9411 27.5045 43.1286 27.7545C43.32 28.0045 43.5524 28.1939 43.8259 28.3228C44.0993 28.4478 44.4079 28.5103 44.7516 28.5103C45.0876 28.5103 45.363 28.483 45.5778 28.4283C45.7927 28.3697 45.9626 28.3013 46.0876 28.2232C46.2165 28.1412 46.3161 28.063 46.3864 27.9888V26.2955H44.611V25.1998H47.8513ZM51.5075 24.4263V29.5591H50.0954V23.2193H51.4431L51.5075 24.4263ZM53.447 23.1783L53.4352 24.4908C53.3493 24.4752 53.2556 24.4634 53.154 24.4556C53.0563 24.4478 52.9587 24.4439 52.861 24.4439C52.6188 24.4439 52.4059 24.4791 52.2224 24.5494C52.0388 24.6158 51.8845 24.7134 51.7595 24.8423C51.6384 24.9673 51.5446 25.1197 51.4782 25.2994C51.4118 25.4791 51.3727 25.6802 51.361 25.9029L51.0388 25.9263C51.0388 25.5279 51.0778 25.1588 51.1559 24.8189C51.2341 24.4791 51.3513 24.1802 51.5075 23.9224C51.6677 23.6646 51.8669 23.4634 52.1052 23.3189C52.3474 23.1744 52.6266 23.1021 52.9431 23.1021C53.029 23.1021 53.1208 23.1099 53.2184 23.1255C53.32 23.1412 53.3962 23.1588 53.447 23.1783ZM56.5934 23.2193V29.5591H55.1755V23.2193H56.5934ZM55.0817 21.5552C55.0817 21.3404 55.152 21.1627 55.2927 21.022C55.4372 20.8775 55.6364 20.8052 55.8903 20.8052C56.1403 20.8052 56.3376 20.8775 56.4821 21.022C56.6266 21.1627 56.6989 21.3404 56.6989 21.5552C56.6989 21.7662 56.6266 21.942 56.4821 22.0826C56.3376 22.2232 56.1403 22.2935 55.8903 22.2935C55.6364 22.2935 55.4372 22.2232 55.2927 22.0826C55.152 21.942 55.0817 21.7662 55.0817 21.5552ZM62.7575 28.2466V20.5591H64.1755V29.5591H62.8923L62.7575 28.2466ZM58.6325 26.4595V26.3365C58.6325 25.856 58.6891 25.4185 58.8024 25.024C58.9157 24.6255 59.0798 24.2838 59.2946 23.9986C59.5095 23.7095 59.7712 23.4888 60.0798 23.3365C60.3884 23.1802 60.736 23.1021 61.1227 23.1021C61.5056 23.1021 61.8415 23.1763 62.1306 23.3248C62.4196 23.4732 62.6657 23.6861 62.8688 23.9634C63.072 24.2369 63.2341 24.565 63.3552 24.9478C63.4763 25.3267 63.5622 25.7486 63.613 26.2134V26.606C63.5622 27.0591 63.4763 27.4732 63.3552 27.8482C63.2341 28.2232 63.072 28.5474 62.8688 28.8209C62.6657 29.0943 62.4177 29.3052 62.1247 29.4537C61.8356 29.6021 61.4977 29.6763 61.111 29.6763C60.7282 29.6763 60.3825 29.5963 60.0739 29.4361C59.7692 29.2759 59.5095 29.0513 59.2946 28.7623C59.0798 28.4732 58.9157 28.1334 58.8024 27.7427C58.6891 27.3482 58.6325 26.9205 58.6325 26.4595ZM60.0446 26.3365V26.4595C60.0446 26.7486 60.07 27.0181 60.1208 27.2681C60.1755 27.5181 60.2595 27.7388 60.3727 27.9302C60.486 28.1177 60.6325 28.2662 60.8122 28.3755C60.9958 28.481 61.2145 28.5338 61.4684 28.5338C61.7888 28.5338 62.0524 28.4634 62.2595 28.3228C62.4665 28.1822 62.6286 27.9927 62.7458 27.7545C62.8669 27.5123 62.9489 27.2427 62.9919 26.9459V25.8853C62.9684 25.6548 62.9196 25.44 62.8454 25.2408C62.7751 25.0416 62.6794 24.8677 62.5583 24.7193C62.4372 24.567 62.2868 24.4498 62.1071 24.3677C61.9313 24.2818 61.7224 24.2388 61.4802 24.2388C61.2224 24.2388 61.0036 24.2935 60.8239 24.4029C60.6442 24.5123 60.4958 24.6627 60.3786 24.8541C60.2653 25.0455 60.1813 25.2681 60.1266 25.522C60.072 25.7759 60.0446 26.0474 60.0446 26.3365Z" fill="#0C8597"/>
</svg>
