<svg width="22" height="15" viewBox="0 0 22 15" fill="none" xmlns="http://www.w3.org/2000/svg">
<path d="M8.84705 11.1846C8.27771 11.4854 7.56873 11.6357 6.72009 11.6357C5.62439 11.6357 4.74711 11.283 4.08826 10.5776C3.4294 9.87223 3.09998 8.94661 3.09998 7.80078C3.09998 6.56901 3.47058 5.57357 4.21179 4.81445C4.953 4.05534 5.89294 3.67578 7.03162 3.67578C7.76208 3.67578 8.36723 3.78141 8.84705 3.99268V4.9541C8.29561 4.64616 7.68689 4.49219 7.02087 4.49219C6.13643 4.49219 5.4185 4.7876 4.86707 5.37842C4.31921 5.96924 4.04529 6.75879 4.04529 7.74707C4.04529 8.68522 4.30131 9.43359 4.81335 9.99219C5.32898 10.5472 6.00395 10.8247 6.83826 10.8247C7.61169 10.8247 8.28129 10.6528 8.84705 10.3091V11.1846Z" fill="white"/>
<path d="M12.8485 11.4531C12.6408 11.5677 12.3669 11.625 12.0267 11.625C11.0635 11.625 10.5819 11.0879 10.5819 10.0137V6.75879H9.6366V6.00684H10.5819V4.66406L11.4628 4.37939V6.00684H12.8485V6.75879H11.4628V9.85791C11.4628 10.2267 11.5254 10.4899 11.6508 10.6475C11.7761 10.805 11.9838 10.8838 12.2738 10.8838C12.4958 10.8838 12.6874 10.8229 12.8485 10.7012V11.4531Z" fill="white"/>
<path d="M16.8929 6.89844C16.739 6.78027 16.517 6.72119 16.2269 6.72119C15.851 6.72119 15.5358 6.89844 15.2816 7.25293C15.031 7.60742 14.9056 8.09082 14.9056 8.70312V11.5068H14.0248V6.00684H14.9056V7.14014H14.9271C15.0524 6.75342 15.244 6.45264 15.5018 6.23779C15.7596 6.01937 16.0479 5.91016 16.3666 5.91016C16.5957 5.91016 16.7712 5.93522 16.8929 5.98535V6.89844Z" fill="white"/>
<path d="M18.7299 11.5068H17.849V3.36426H18.7299V11.5068Z" fill="white"/>
<rect x="0.599976" y="0.864258" width="20.6299" height="13.2715" rx="2.5" stroke="white"/>
</svg>
