<?xml version="1.0" encoding="UTF-8" standalone="no"?>
<svg width="23" height="19" viewBox="0 0 23 19" fill="none" xmlns="http://www.w3.org/2000/svg">
<path d="M4.25254 11.4238L4.00926 11.2993L3.74856 11.3814L1.08011 12.2215L1.79049 9.71344L1.8712 9.4285L1.71388 9.1776C1.22643 8.40022 0.975196 7.54112 0.975196 6.68189C0.975196 5.20517 1.69026 3.78885 3.06288 2.70108C4.41185 1.63213 6.22226 1.02778 8.16915 1.02778C10.1161 1.02778 11.9265 1.63214 13.2754 2.70107L13.2754 2.70108C14.6481 3.78885 15.3632 5.20517 15.3632 6.68189C15.3632 8.15873 14.6481 9.57504 13.2754 10.6627L13.2754 10.6628C11.9265 11.7317 10.1161 12.3361 8.16915 12.3361C6.763 12.3361 5.41321 12.018 4.25254 11.4238Z" fill="#1D94A4" stroke="#1D94A4"/>
<path d="M10.6726 16.5566L10.4293 16.4321L10.1686 16.5141L7.50018 17.3542L8.21057 14.8462L8.29128 14.5613L8.13395 14.3104C7.6465 13.533 7.39527 12.6739 7.39527 11.8146C7.39527 10.3379 8.11033 8.9216 9.48296 7.83383C10.8319 6.76488 12.6423 6.16053 14.5892 6.16053C16.5362 6.16053 18.3466 6.76489 19.6955 7.83382L19.6955 7.83383C21.0682 8.9216 21.7833 10.3379 21.7833 11.8146C21.7833 13.2915 21.0682 14.7078 19.6955 15.7955L19.6955 15.7955C18.3466 16.8645 16.5362 17.4688 14.5892 17.4688C13.1831 17.4688 11.8333 17.1507 10.6726 16.5566Z" stroke="#1D94A4"/>
</svg>
