<svg width="148" height="193" viewBox="0 0 148 193" fill="none" xmlns="http://www.w3.org/2000/svg">
<path d="M122.924 46.0059C122.924 71.415 102.967 92.0132 78.3516 92.0132C53.7353 92.0132 33.7798 71.415 33.7798 46.0059C33.7798 20.598 53.7353 -0.000205994 78.3516 -0.000205994C102.967 -0.000205994 122.924 20.598 122.924 46.0059Z" fill="url(#paint0_radial)"/>
<path d="M17.3383 118.723L17.681 117.179C19.5771 116.63 21.2789 116.07 22.7866 115.497C23.5627 112.525 24.2371 110.249 24.8082 108.67C25.3788 107.092 26.0812 105.72 26.9155 104.553C27.7494 103.387 28.9081 102.164 30.3936 100.882C33.5916 98.161 36.8355 96.7997 40.1249 96.7997C41.3585 96.7997 42.4322 96.9544 43.3459 97.2627C44.259 97.572 45.1277 97.9555 45.9501 98.4129C45.3556 99.8769 44.9564 100.906 44.7508 101.5C44.5452 102.096 44.2711 103.124 43.9284 104.587L42.1124 104.45C41.9976 103.17 41.6612 102.055 41.1015 101.106C40.5413 100.156 39.3825 99.6814 37.6236 99.6814C36.5493 99.6814 35.5791 100.003 34.711 100.643C33.8424 101.284 33.0714 102.209 32.3981 103.422C31.7241 104.634 31.1182 105.989 30.5821 107.487C30.0452 108.985 29.3427 111.232 28.4747 114.228C28.4747 114.481 28.3376 115.018 28.0635 115.841C29.891 115.887 32.3689 115.841 35.4991 115.704L35.8417 116.184C35.2021 117.122 34.6647 118.037 34.2313 118.928C32.3347 118.791 30.0281 118.701 27.3096 118.654C25.5963 125.013 24.3057 129.862 23.4376 133.201C22.2948 137.57 21.2497 141.309 20.3023 144.419C19.3544 147.529 18.4863 149.943 17.6981 151.657C16.91 153.373 16.0534 154.768 15.1282 155.843C14.2031 156.918 13.0432 157.959 11.6503 158.966C9.25163 160.702 7.02439 161.573 4.96842 161.573C3.94055 161.573 3.08384 161.435 2.39852 161.161C1.7133 160.887 0.913764 160.441 0 159.823C0.663031 158.908 1.17068 158.142 1.52481 157.525C1.8795 156.907 2.26156 156.129 2.67276 155.191H3.35797C3.92907 156.037 4.50084 156.695 5.07128 157.164C5.64238 157.633 6.49909 157.867 7.64118 157.867C9.42302 157.867 10.8279 156.998 11.8559 155.261C12.8838 153.521 14.0027 150.445 15.2138 146.031C15.6707 144.522 16.2299 142.407 16.8929 139.684C17.5554 136.963 19.0516 130.719 21.3816 120.952C21.4273 120.839 21.5131 120.506 21.6386 119.958C21.7637 119.409 21.8728 118.975 21.9642 118.654C20.5936 118.701 19.0516 118.723 17.3383 118.723Z" fill="#040606"/>
<path d="M54.9619 119.992C52.9517 118.757 51.0094 118.139 49.1367 118.139C46.8753 118.139 45.0021 118.917 43.5172 120.472C41.415 122.645 39.7937 125.271 38.6515 128.346C37.5088 131.422 36.9382 134.39 36.9382 137.249C36.9382 139.147 37.2066 140.645 37.7435 141.743C38.2797 142.841 38.9714 143.389 39.8166 143.389C40.776 143.389 41.8605 142.881 43.0718 141.863C44.2825 140.846 45.3899 139.834 46.3956 138.827C48.3367 136.722 49.8163 134.551 50.833 132.308C51.8489 130.067 52.9625 126.842 54.1738 122.633C54.2423 122.268 54.5044 121.387 54.9619 119.992ZM60.2388 138.449L61.4723 139.924C55.8528 145.186 52.0151 147.816 49.9591 147.816C49.6388 147.816 49.279 147.713 48.8797 147.506C48.48 147.301 48.2802 146.809 48.2802 146.031C48.2802 145.78 48.3709 145.271 48.5543 144.505C48.737 143.738 48.9363 142.961 49.154 142.172C49.3709 141.383 49.5702 140.634 49.7535 139.924L50.4047 137.626L50.2675 137.489C48.3258 139.913 46.1214 142.24 43.6543 144.47C41.1871 146.701 38.9942 147.816 37.0753 147.816C35.4991 147.816 34.1456 146.975 33.0149 145.294C31.8841 143.612 31.3187 141.309 31.3187 138.381C31.3187 135.271 31.9235 132.297 33.1347 129.46C34.3455 126.625 35.9559 124.12 37.9662 121.947C39.9759 119.775 42.198 118.06 44.6308 116.801C47.0637 115.544 49.4794 114.914 51.878 114.914C52.9746 114.914 54.4017 115.155 56.1613 115.634L58.32 108.396C58.5256 107.619 58.7654 106.865 59.0395 106.132C59.4045 104.943 59.5878 104.073 59.5878 103.524C59.5878 102.885 59.2108 102.564 58.457 102.564C57.5661 102.564 56.264 102.701 54.5508 102.975L55.0304 101.019C56.3325 100.585 57.3656 100.248 58.1315 100.007C58.8967 99.7675 59.8047 99.4758 60.8556 99.1333C61.9058 98.7897 62.5568 98.5731 62.8088 98.4814C63.2884 98.2748 63.876 98.0129 64.5734 97.6925C65.2701 97.372 65.9268 97.0748 66.5436 96.7997L67.6745 97.6229C67.1034 98.8814 66.5893 100.128 66.1325 101.363C65.2415 103.811 64.4757 105.995 63.8366 107.915C63.1971 109.837 62.5003 111.976 61.7465 114.332C60.9926 116.687 60.3639 118.688 59.8619 120.335C58.0572 126.145 56.8808 129.964 56.3325 131.794C55.7843 133.624 55.2988 135.35 54.8762 136.974C54.453 138.598 54.2424 139.799 54.2424 140.576C54.2424 141.309 54.5278 141.674 55.0989 141.674C55.6695 141.674 56.9835 140.908 59.0395 139.376L60.2388 138.449Z" fill="#040606"/>
<path d="M71.4436 142.6C71.9919 143.036 72.5001 143.407 72.9686 143.715C73.4362 144.025 74.0016 144.282 74.6646 144.488C75.3271 144.693 76.1038 144.796 76.9946 144.796C78.7302 144.796 80.3812 144.19 81.9461 142.978C83.5103 141.766 84.8529 140.187 85.9722 138.244C87.0913 136.3 87.9708 134.184 88.6109 131.897C89.2499 129.61 89.5699 127.414 89.5699 125.309C89.5699 124.005 89.4044 122.708 89.0733 121.415C88.7422 120.124 88.0392 119.477 86.9655 119.477C86.0969 119.477 84.9151 120.083 83.4194 121.296C81.9232 122.508 80.604 123.778 79.4617 125.104C78.4561 126.293 77.5029 127.655 76.6006 129.186C75.6977 130.719 74.8303 132.565 73.9964 134.727C73.162 136.889 72.3117 139.513 71.4436 142.6ZM66.7493 124.83L65.5499 123.285C67.1947 121.593 68.8275 120.112 70.45 118.843C72.0719 117.574 73.5047 116.601 74.7503 115.926C75.9952 115.252 76.8799 114.914 77.4059 114.914C78.3876 114.914 78.8792 115.407 78.8792 116.39C78.8792 117.922 77.7366 121.341 75.4527 126.647L75.5898 126.784C77.3716 124.293 79.1648 122.141 80.9695 120.335C82.7735 118.528 84.4075 117.174 85.8696 116.27C87.3307 115.366 88.4851 114.914 89.3304 114.914C90.4726 114.914 91.489 115.304 92.3796 116.081C93.2713 116.859 93.9566 117.905 94.4356 119.22C94.9156 120.536 95.1551 122.051 95.1551 123.766C95.1551 126.716 94.6243 129.627 93.5615 132.497C92.4999 135.367 91.0266 137.964 89.1417 140.284C87.2568 142.606 85.1207 144.442 82.7341 145.791C80.347 147.141 77.8736 147.816 75.3156 147.816C73.7617 147.816 72.117 147.346 70.3814 146.409C70.1981 147.278 70.0159 147.906 69.8332 148.295C69.6961 148.822 69.4162 149.822 68.9937 151.297C68.5705 152.772 68.2341 154.013 67.9828 155.02C67.731 156.026 67.6059 156.758 67.6059 157.215C67.6059 157.764 67.9022 158.159 68.4968 158.4C69.0908 158.64 70.2444 158.919 71.9576 159.24C72.1856 159.308 72.3739 159.36 72.5229 159.394C72.6715 159.428 72.7801 159.457 72.8486 159.48L72.3003 161.504C69.1016 161.276 66.2466 161.161 63.7339 161.161C61.4038 161.161 58.754 161.276 55.7843 161.504L56.3669 159.48C56.4131 159.457 56.5439 159.423 56.7608 159.377C56.9785 159.331 57.1436 159.286 57.2577 159.24C58.3085 158.988 59.1028 158.799 59.6392 158.674C60.176 158.548 60.5472 158.451 60.7528 158.382C60.9584 158.314 61.1982 158.164 61.4723 157.936C62.249 157.089 63.2542 154.528 64.4878 150.251L69.4905 133.612C71.6372 126.522 72.7114 122.656 72.7114 122.017C72.7114 121.445 72.5281 121.158 72.1633 121.158C71.4317 121.158 70.0267 122.051 67.9486 123.834C67.6516 124.156 67.2512 124.486 66.7493 124.83Z" fill="#040606"/>
<path d="M99.5418 124.623L98.3423 123.216C100.877 120.381 103.253 118.288 105.469 116.938C107.684 115.589 109.193 114.914 109.993 114.914C110.425 114.914 110.792 115.04 111.089 115.292C111.385 115.544 111.534 115.932 111.534 116.459C111.534 117.35 111.288 118.568 110.797 120.112C110.306 121.656 109.318 124.475 107.834 128.569C107.606 129.027 107.32 129.77 106.977 130.799L107.114 130.936C109.101 128.077 111.038 125.631 112.922 123.594C114.807 121.559 116.577 119.906 118.233 118.637C119.89 117.367 121.368 116.43 122.671 115.823C123.973 115.218 125.012 114.914 125.788 114.914C127.707 114.914 128.668 115.738 128.668 117.385C128.668 118.482 128.415 119.918 127.914 121.691C127.411 123.463 126.846 125.219 126.218 126.957C125.589 128.695 125.092 129.975 124.727 130.799L124.863 130.936C127.468 127.254 129.997 124.206 132.454 121.793C134.908 119.38 137.131 117.63 139.118 116.544C141.106 115.458 142.785 114.914 144.155 114.914C146.165 114.914 147.17 115.897 147.17 117.865C147.17 119.283 146.028 123.389 143.743 130.181C143.012 132.377 142.292 134.59 141.585 136.819C140.878 139.05 140.523 140.439 140.523 140.988C140.523 141.606 140.774 141.914 141.277 141.914C141.939 141.914 142.772 141.554 143.778 140.834C144.783 140.113 145.709 139.364 146.553 138.586L147.959 140.062C144.897 142.99 142.362 145.015 140.351 146.134C138.341 147.254 136.856 147.816 135.897 147.816C134.572 147.816 133.91 147.22 133.91 146.031C133.91 145.231 134.178 143.938 134.715 142.155C135.251 140.371 136.223 137.403 137.627 133.251C139.032 129.1 139.991 126.242 140.506 124.675C141.02 123.108 141.277 121.993 141.277 121.33C141.277 120.347 140.887 119.854 140.112 119.854C139.289 119.854 138.158 120.369 136.719 121.399C135.28 122.428 133.79 123.726 132.248 125.293C130.706 126.859 129.443 128.295 128.461 129.599C127.205 131.268 126.2 132.801 125.446 134.195C124.692 135.591 124.041 137.048 123.493 138.57C122.944 140.091 122.02 142.841 120.717 146.82C118.181 146.866 116.343 147.027 115.201 147.301C117.347 141.125 119.587 134.127 121.917 126.305C122.487 124.475 122.773 122.931 122.773 121.673C122.773 120.552 122.397 119.992 121.643 119.992C121.026 119.992 119.986 120.513 118.525 121.552C117.062 122.594 115.406 124.086 113.556 126.03C111.569 128.111 109.946 130.193 108.691 132.274C107.434 134.355 106.44 136.408 105.71 138.433C104.978 140.457 104.086 143.252 103.037 146.82C100.775 146.82 98.9592 146.98 97.5885 147.301C99.5761 141.057 100.762 137.386 101.152 136.288L103.825 127.643C104.669 124.967 105.093 123.16 105.093 122.222C105.093 121.467 104.852 121.089 104.373 121.089C103.847 121.089 103.007 121.57 101.854 122.53C100.701 123.492 99.9303 124.19 99.5418 124.623Z" fill="#040606"/>
<path d="M98.2904 154.788H102.51V155.637H99.3024V158.244H102.267V159.083H99.3024V162.633H98.2904V154.788Z" fill="#040606"/>
<path d="M108.219 161.097C108.219 161.678 108.23 162.191 108.266 162.633H107.358L107.301 161.713H107.278C107.01 162.168 106.417 162.761 105.417 162.761C104.533 162.761 103.476 162.273 103.476 160.294V156.999H104.499V160.119C104.499 161.19 104.825 161.911 105.754 161.911C106.44 161.911 106.917 161.434 107.104 160.98C107.161 160.828 107.196 160.643 107.196 160.456V156.999H108.219V161.097Z" fill="#040606"/>
<path d="M109.915 158.524C109.915 157.942 109.904 157.465 109.869 156.999H110.776L110.835 157.93H110.858C111.137 157.395 111.788 156.871 112.717 156.871C113.497 156.871 114.706 157.337 114.706 159.269V162.633H113.683V159.385C113.683 158.477 113.345 157.72 112.381 157.72C111.707 157.72 111.183 158.198 111.009 158.769C110.963 158.896 110.939 159.07 110.939 159.245V162.633H109.915V158.524Z" fill="#040606"/>
<path d="M120.204 159.293C120.204 159.164 120.193 158.99 120.158 158.862C120.007 158.21 119.448 157.674 118.681 157.674C117.623 157.674 116.995 158.605 116.995 159.851C116.995 160.992 117.553 161.934 118.658 161.934C119.344 161.934 119.971 161.48 120.158 160.712C120.193 160.573 120.204 160.433 120.204 160.27V159.293ZM121.227 154.368V161.178C121.227 161.678 121.239 162.249 121.274 162.633H120.355L120.309 161.655H120.286C119.971 162.284 119.286 162.761 118.368 162.761C117.007 162.761 115.961 161.609 115.961 159.897C115.949 158.023 117.112 156.871 118.484 156.871C119.344 156.871 119.925 157.278 120.181 157.732H120.204V154.368H121.227Z" fill="#040606"/>
<path d="M125.889 159.758C124.773 159.735 123.505 159.932 123.505 161.026C123.505 161.69 123.948 162.004 124.471 162.004C125.203 162.004 125.668 161.539 125.83 161.062C125.866 160.957 125.889 160.841 125.889 160.736V159.758ZM126.04 162.633L125.958 161.923H125.924C125.609 162.365 125.005 162.761 124.202 162.761C123.064 162.761 122.482 161.958 122.482 161.143C122.482 159.781 123.691 159.036 125.866 159.047V158.931C125.866 158.466 125.738 157.627 124.586 157.627C124.063 157.627 123.517 157.791 123.122 158.046L122.889 157.371C123.354 157.069 124.028 156.871 124.738 156.871C126.458 156.871 126.876 158.046 126.876 159.175V161.283C126.876 161.772 126.901 162.249 126.97 162.633H126.04Z" fill="#040606"/>
<path d="M132.538 162.424C132.271 162.563 131.678 162.749 130.922 162.749C129.225 162.749 128.12 161.597 128.12 159.874C128.12 158.14 129.306 156.883 131.143 156.883C131.748 156.883 132.283 157.034 132.561 157.173L132.329 157.966C132.085 157.825 131.701 157.697 131.143 157.697C129.853 157.697 129.155 158.652 129.155 159.827C129.155 161.131 129.992 161.934 131.109 161.934C131.689 161.934 132.073 161.783 132.363 161.655L132.538 162.424Z" fill="#040606"/>
<path d="M133.735 162.633V156.999H134.758V162.633H133.735ZM134.875 155.416C134.886 155.766 134.63 156.044 134.223 156.044C133.863 156.044 133.607 155.766 133.607 155.416C133.607 155.055 133.874 154.776 134.247 154.776C134.63 154.776 134.875 155.055 134.875 155.416Z" fill="#040606"/>
<path d="M140.327 154.566L138.909 156.231H138.176L139.199 154.566H140.327ZM137.083 159.827C137.083 161.062 137.792 161.993 138.792 161.993C139.768 161.993 140.501 161.074 140.501 159.804C140.501 158.849 140.024 157.64 138.816 157.64C137.606 157.64 137.083 158.757 137.083 159.827ZM141.547 159.77C141.547 161.853 140.106 162.761 138.745 162.761C137.222 162.761 136.048 161.644 136.048 159.863C136.048 157.977 137.281 156.871 138.839 156.871C140.455 156.871 141.547 158.046 141.547 159.77Z" fill="#040606"/>
<path d="M142.837 158.524C142.837 157.942 142.825 157.465 142.791 156.999H143.698L143.756 157.93H143.779C144.058 157.395 144.709 156.871 145.639 156.871C146.419 156.871 147.627 157.337 147.627 159.269V162.633H146.604V159.385C146.604 158.477 146.267 157.72 145.302 157.72C144.627 157.72 144.104 158.198 143.93 158.769C143.884 158.896 143.86 159.07 143.86 159.245V162.633H142.837V158.524Z" fill="#040606"/>
<path d="M65.6373 174.308C65.6373 174.459 65.6605 174.598 65.6838 174.726C65.8698 175.436 66.486 175.925 67.2185 175.925C68.2997 175.925 68.9275 175.04 68.9275 173.748C68.9275 172.619 68.3346 171.653 67.2534 171.653C66.5559 171.653 65.9046 172.154 65.7071 172.922C65.6722 173.05 65.6373 173.201 65.6373 173.341V174.308ZM64.6259 172.806C64.6259 172.083 64.6025 171.502 64.5793 170.966H65.4979L65.5444 171.933H65.5676C65.9862 171.246 66.6487 170.838 67.5672 170.838C68.9274 170.838 69.9506 171.99 69.9506 173.702C69.9506 175.727 68.7182 176.728 67.3928 176.728C66.6487 176.728 65.9977 176.402 65.6605 175.843H65.6373V178.905H64.6259V172.806Z" fill="#040606"/>
<path d="M74.205 173.725C73.0887 173.702 71.8216 173.9 71.8216 174.994C71.8216 175.658 72.2634 175.972 72.7866 175.972C73.5191 175.972 73.9841 175.506 74.1467 175.029C74.1817 174.924 74.205 174.808 74.205 174.703V173.725ZM74.3561 176.6L74.2746 175.89H74.2397C73.9259 176.333 73.3214 176.728 72.5191 176.728C71.3797 176.728 70.7985 175.925 70.7985 175.11C70.7985 173.748 72.0077 173.004 74.1817 173.015V172.899C74.1817 172.432 74.0538 171.595 72.9029 171.595C72.3798 171.595 71.8332 171.757 71.4379 172.014L71.2054 171.339C71.6705 171.036 72.3447 170.838 73.054 170.838C74.7747 170.838 75.1931 172.014 75.1931 173.143V175.25C75.1931 175.738 75.2165 176.216 75.2862 176.6H74.3561Z" fill="#040606"/>
<path d="M76.8435 172.724C76.8435 172.06 76.8317 171.49 76.797 170.966H77.6921L77.727 172.072H77.7735C78.0293 171.315 78.6454 170.838 79.3315 170.838C79.4477 170.838 79.529 170.85 79.6221 170.873V171.839C79.5175 171.816 79.4128 171.805 79.2732 171.805C78.5525 171.805 78.0408 172.352 77.9013 173.12C77.8781 173.259 77.855 173.422 77.855 173.597V176.6H76.8435V172.724Z" fill="#040606"/>
<path d="M83.5514 173.725C82.4353 173.702 81.168 173.9 81.168 174.994C81.168 175.658 81.6098 175.972 82.1331 175.972C82.8655 175.972 83.3305 175.506 83.4933 175.029C83.5281 174.924 83.5514 174.808 83.5514 174.703V173.725ZM83.7025 176.6L83.6212 175.89H83.5862C83.2723 176.333 82.6678 176.728 81.8656 176.728C80.7262 176.728 80.145 175.925 80.145 175.11C80.145 173.748 81.3541 173.004 83.5281 173.015V172.899C83.5281 172.432 83.4002 171.595 82.2493 171.595C81.7262 171.595 81.1797 171.757 80.7844 172.014L80.5518 171.339C81.017 171.036 81.6912 170.838 82.4004 170.838C84.1211 170.838 84.5396 172.014 84.5396 173.143V175.25C84.5396 175.738 84.563 176.216 84.6326 176.6H83.7025Z" fill="#040606"/>
<path d="M92.224 173.236C92.2351 172.584 91.9558 171.572 90.8048 171.572C89.7708 171.572 89.3172 172.526 89.2355 173.236H92.224ZM89.2245 173.969C89.2477 175.355 90.1316 175.925 91.1546 175.925C91.8863 175.925 92.3289 175.797 92.7118 175.635L92.8862 176.367C92.5264 176.531 91.9095 176.716 91.0145 176.716C89.2819 176.716 88.2478 175.576 88.2478 173.877C88.2478 172.177 89.2477 170.838 90.8865 170.838C92.7239 170.838 93.2117 172.457 93.2117 173.492C93.2117 173.702 93.1885 173.864 93.1775 173.969H89.2245Z" fill="#040606"/>
<path d="M94.4786 168.335H95.5016V176.6H94.4786V168.335Z" fill="#040606"/>
<path d="M100.733 175.797C100.989 175.843 101.361 175.856 101.756 175.856C103.919 175.856 105.093 174.645 105.093 172.526C105.104 170.676 104.058 169.5 101.919 169.5C101.396 169.5 101 169.546 100.733 169.605V175.797ZM99.7217 168.859C100.338 168.766 101.07 168.697 101.873 168.697C103.325 168.697 104.36 169.034 105.045 169.675C105.744 170.314 106.15 171.223 106.15 172.491C106.15 173.772 105.755 174.819 105.022 175.541C104.291 176.274 103.081 176.67 101.558 176.67C100.837 176.67 100.233 176.636 99.7217 176.577V168.859Z" fill="#040606"/>
<path d="M111.044 173.236C111.055 172.584 110.776 171.572 109.625 171.572C108.591 171.572 108.138 172.526 108.056 173.236H111.044ZM108.045 173.969C108.068 175.355 108.952 175.925 109.974 175.925C110.707 175.925 111.149 175.797 111.532 175.635L111.707 176.367C111.347 176.531 110.73 176.716 109.835 176.716C108.102 176.716 107.068 175.576 107.068 173.877C107.068 172.177 108.068 170.838 109.707 170.838C111.544 170.838 112.032 172.457 112.032 173.492C112.032 173.702 112.009 173.864 111.998 173.969H108.045Z" fill="#040606"/>
<path d="M113.16 175.553C113.461 175.751 113.997 175.96 114.509 175.96C115.252 175.96 115.601 175.587 115.601 175.122C115.601 174.633 115.311 174.365 114.555 174.085C113.543 173.725 113.066 173.166 113.066 172.491C113.066 171.583 113.799 170.838 115.008 170.838C115.578 170.838 116.078 171.002 116.391 171.187L116.135 171.933C115.915 171.793 115.508 171.606 114.985 171.606C114.381 171.606 114.043 171.956 114.043 172.375C114.043 172.84 114.381 173.05 115.112 173.33C116.089 173.702 116.589 174.19 116.589 175.029C116.589 176.018 115.822 176.716 114.485 176.716C113.868 176.716 113.299 176.565 112.904 176.333L113.16 175.553Z" fill="#040606"/>
<path d="M120.867 173.725C119.751 173.702 118.484 173.9 118.484 174.994C118.484 175.658 118.925 175.972 119.448 175.972C120.181 175.972 120.647 175.506 120.809 175.029C120.844 174.924 120.867 174.808 120.867 174.703V173.725ZM121.019 176.6L120.937 175.89H120.902C120.588 176.333 119.983 176.728 119.181 176.728C118.042 176.728 117.461 175.925 117.461 175.11C117.461 173.748 118.67 173.004 120.844 173.015V172.899C120.844 172.432 120.716 171.595 119.565 171.595C119.042 171.595 118.496 171.757 118.1 172.014L117.868 171.339C118.332 171.036 119.007 170.838 119.716 170.838C121.437 170.838 121.855 172.014 121.855 173.143V175.25C121.855 175.738 121.878 176.216 121.948 176.6H121.019Z" fill="#040606"/>
<path d="M123.506 172.724C123.506 172.06 123.494 171.49 123.46 170.966H124.355L124.389 172.072H124.435C124.691 171.315 125.308 170.838 125.994 170.838C126.111 170.838 126.191 170.85 126.285 170.873V171.839C126.18 171.816 126.075 171.805 125.935 171.805C125.214 171.805 124.703 172.352 124.563 173.12C124.54 173.259 124.517 173.422 124.517 173.597V176.6H123.506V172.724Z" fill="#040606"/>
<path d="M127.354 172.724C127.354 172.06 127.342 171.49 127.307 170.966H128.202L128.237 172.072H128.283C128.54 171.315 129.155 170.838 129.842 170.838C129.958 170.838 130.039 170.85 130.132 170.873V171.839C130.028 171.816 129.923 171.805 129.783 171.805C129.063 171.805 128.551 172.352 128.411 173.12C128.388 173.259 128.365 173.422 128.365 173.597V176.6H127.354V172.724Z" fill="#040606"/>
<path d="M131.667 173.795C131.667 175.029 132.376 175.961 133.375 175.961C134.352 175.961 135.085 175.04 135.085 173.772C135.085 172.817 134.608 171.606 133.399 171.606C132.19 171.606 131.667 172.724 131.667 173.795ZM136.131 173.736C136.131 175.82 134.69 176.728 133.329 176.728C131.806 176.728 130.632 175.611 130.632 173.83C130.632 171.944 131.865 170.838 133.422 170.838C135.038 170.838 136.131 172.014 136.131 173.736Z" fill="#040606"/>
<path d="M137.421 168.335H138.444V176.6H137.421V168.335Z" fill="#040606"/>
<path d="M140.165 168.335H141.188V176.6H140.165V168.335Z" fill="#040606"/>
<path d="M143.535 173.795C143.535 175.029 144.245 175.961 145.244 175.961C146.221 175.961 146.954 175.04 146.954 173.772C146.954 172.817 146.477 171.606 145.268 171.606C144.058 171.606 143.535 172.724 143.535 173.795ZM148 173.736C148 175.82 146.558 176.728 145.198 176.728C143.675 176.728 142.501 175.611 142.501 173.83C142.501 171.944 143.734 170.838 145.291 170.838C146.906 170.838 148 172.014 148 173.736Z" fill="#040606"/>
<path d="M23.5671 187.226C23.5671 187.098 23.5556 186.924 23.5207 186.795C23.3695 186.144 22.8114 185.609 22.0442 185.609C20.9862 185.609 20.3584 186.54 20.3584 187.786C20.3584 188.926 20.9166 189.868 22.0208 189.868C22.7069 189.868 23.3346 189.415 23.5207 188.646C23.5556 188.507 23.5671 188.367 23.5671 188.204V187.226ZM24.5904 182.303V189.113C24.5904 189.613 24.6019 190.183 24.6368 190.568H23.7184L23.6719 189.59H23.6485C23.3346 190.219 22.6487 190.695 21.7304 190.695C20.37 190.695 19.3237 189.542 19.3237 187.832C19.3121 185.958 20.4747 184.805 21.8464 184.805C22.7069 184.805 23.2881 185.213 23.5439 185.666H23.5671V182.303H24.5904Z" fill="#040606"/>
<path d="M29.8562 187.203C29.8678 186.551 29.5888 185.539 28.4377 185.539C27.4031 185.539 26.9496 186.493 26.8683 187.203H29.8562ZM26.8567 187.937C26.88 189.321 27.7635 189.892 28.7868 189.892C29.5191 189.892 29.9608 189.764 30.3446 189.601L30.5189 190.335C30.1585 190.497 29.5423 190.684 28.6472 190.684C26.9148 190.684 25.8801 189.542 25.8801 187.843C25.8801 186.144 26.88 184.805 28.5192 184.805C30.3561 184.805 30.8444 186.423 30.8444 187.46C30.8444 187.668 30.8212 187.832 30.8095 187.937H26.8567Z" fill="#040606"/>
<path d="M34.5756 182.303H35.5986V190.568H34.5756V182.303Z" fill="#040606"/>
<path d="M37.9466 187.762C37.9466 188.995 38.6558 189.927 39.6557 189.927C40.6322 189.927 41.3647 189.008 41.3647 187.739C41.3647 186.784 40.888 185.573 39.679 185.573C38.4698 185.573 37.9466 186.691 37.9466 187.762ZM42.4111 187.704C42.4111 189.788 40.9694 190.695 39.6091 190.695C38.0862 190.695 36.912 189.578 36.912 187.797C36.912 185.912 38.1443 184.805 39.7021 184.805C41.3182 184.805 42.4111 185.981 42.4111 187.704Z" fill="#040606"/>
<path d="M43.5614 189.519C43.8637 189.717 44.3985 189.927 44.91 189.927C45.6541 189.927 46.0028 189.555 46.0028 189.089C46.0028 188.6 45.7122 188.332 44.9565 188.053C43.945 187.692 43.4684 187.134 43.4684 186.458C43.4684 185.55 44.2008 184.805 45.41 184.805C45.9796 184.805 46.4794 184.968 46.7934 185.155L46.5377 185.899C46.3168 185.76 45.9098 185.573 45.3867 185.573C44.7821 185.573 44.445 185.923 44.445 186.341C44.445 186.808 44.7821 187.016 45.5146 187.296C46.4911 187.668 46.9911 188.158 46.9911 188.995C46.9911 189.985 46.2237 190.684 44.8869 190.684C44.2706 190.684 43.701 190.532 43.3057 190.299L43.5614 189.519Z" fill="#040606"/>
<path d="M51.8151 186.598C52.0361 186.656 52.3151 186.679 52.6523 186.679C53.873 186.679 54.6171 186.086 54.6171 185.003C54.6171 183.967 53.8845 183.466 52.7685 183.466C52.3268 183.466 51.9896 183.502 51.8151 183.548V186.598ZM50.8037 182.814C51.292 182.734 51.9315 182.663 52.7451 182.663C53.7452 182.663 54.4775 182.896 54.9425 183.315C55.3726 183.687 55.6286 184.259 55.6286 184.957C55.6286 185.666 55.4192 186.225 55.0239 186.633C54.4892 187.203 53.6173 187.494 52.6289 187.494C52.3268 187.494 52.0476 187.483 51.8151 187.424V190.568H50.8037V182.814Z" fill="#040606"/>
<path d="M61.4875 189.031C61.4875 189.613 61.499 190.125 61.5339 190.568H60.6271L60.5689 189.647H60.5458C60.2784 190.101 59.6853 190.695 58.6856 190.695C57.8019 190.695 56.7439 190.206 56.7439 188.227V184.934H57.7671V188.053C57.7671 189.124 58.0927 189.845 59.0226 189.845C59.7087 189.845 60.1853 189.368 60.3714 188.915C60.4293 188.763 60.4642 188.577 60.4642 188.391V184.934H61.4875V189.031Z" fill="#040606"/>
<path d="M66.7534 187.203C66.7651 186.551 66.486 185.539 65.335 185.539C64.3004 185.539 63.8469 186.493 63.7655 187.203H66.7534ZM63.754 187.937C63.7772 189.321 64.6608 189.892 65.6838 189.892C66.4163 189.892 66.8581 189.764 67.2417 189.601L67.4161 190.335C67.0557 190.497 66.4394 190.684 65.5444 190.684C63.812 190.684 62.7773 189.542 62.7773 187.843C62.7773 186.144 63.7772 184.805 65.4165 184.805C67.2534 184.805 67.7416 186.423 67.7416 187.46C67.7416 187.668 67.7184 187.832 67.7067 187.937H63.754Z" fill="#040606"/>
<path d="M70.0199 188.309C70.0199 188.437 70.0431 188.566 70.0662 188.682C70.2639 189.392 70.8567 189.88 71.6008 189.88C72.6705 189.88 73.3098 189.008 73.3098 187.716C73.3098 186.587 72.7287 185.62 71.6357 185.62C70.9383 185.62 70.2871 186.097 70.0778 186.877C70.0546 186.993 70.0199 187.134 70.0199 187.296V188.309ZM68.9618 190.568C68.9849 190.183 69.0083 189.613 69.0083 189.113V182.303H70.0199V185.841H70.0431C70.4034 185.213 71.0545 184.805 71.9613 184.805C73.3563 184.805 74.3446 185.969 74.333 187.681C74.333 189.694 73.0658 190.695 71.8101 190.695C70.9962 190.695 70.3452 190.381 69.9268 189.636H69.8919L69.8453 190.568H68.9618Z" fill="#040606"/>
<path d="M75.6228 182.303H76.6458V190.568H75.6228V182.303Z" fill="#040606"/>
<path d="M78.9939 187.762C78.9939 188.995 79.7031 189.927 80.703 189.927C81.6795 189.927 82.412 189.008 82.412 187.739C82.412 186.784 81.9353 185.573 80.7262 185.573C79.517 185.573 78.9939 186.691 78.9939 187.762ZM83.4582 187.704C83.4582 189.788 82.0167 190.695 80.6564 190.695C79.1335 190.695 77.9591 189.578 77.9591 187.797C77.9591 185.912 79.1915 184.805 80.7493 184.805C82.3654 184.805 83.4582 185.981 83.4582 187.704Z" fill="#040606"/>
<path d="M84.6087 189.519C84.9108 189.717 85.4457 189.927 85.9568 189.927C86.7017 189.927 87.0504 189.555 87.0504 189.089C87.0504 188.6 86.7591 188.332 86.0042 188.053C84.9923 187.692 84.5156 187.134 84.5156 186.458C84.5156 185.55 85.248 184.805 86.4578 184.805C87.0273 184.805 87.5272 184.968 87.8406 185.155L87.5846 185.899C87.3639 185.76 86.9566 185.573 86.4335 185.573C85.8299 185.573 85.4922 185.923 85.4922 186.341C85.4922 186.808 85.8299 187.016 86.5615 187.296C87.5382 187.668 88.0381 188.158 88.0381 188.995C88.0381 189.985 87.2712 190.684 85.9336 190.684C85.3179 190.684 84.7483 190.532 84.353 190.299L84.6087 189.519Z" fill="#040606"/>
<path d="M98.4548 187.121C98.3963 186.028 98.3268 184.713 98.3379 183.735H98.3036C98.0355 184.654 97.7099 185.632 97.3148 186.715L95.932 190.52H95.164L93.897 186.784C93.5251 185.678 93.2117 184.665 92.9899 183.735H92.9667C92.9436 184.713 92.8862 186.028 92.8155 187.203L92.6069 190.568H91.6413L92.1876 182.722H93.4788L94.8152 186.516C95.1408 187.483 95.409 188.344 95.6065 189.159H95.6407C95.8382 188.367 96.1174 187.506 96.4662 186.516L97.8611 182.722H99.1523L99.6401 190.568H98.6524L98.4548 187.121Z" fill="#040606"/>
<path d="M104.197 187.692C103.08 187.668 101.813 187.867 101.813 188.961C101.813 189.624 102.256 189.939 102.779 189.939C103.51 189.939 103.976 189.473 104.138 188.995C104.174 188.892 104.197 188.774 104.197 188.669V187.692ZM104.348 190.568L104.266 189.857H104.232C103.918 190.299 103.313 190.695 102.51 190.695C101.372 190.695 100.79 189.892 100.79 189.077C100.79 187.716 102 186.97 104.174 186.982V186.865C104.174 186.4 104.046 185.562 102.895 185.562C102.371 185.562 101.825 185.725 101.43 185.981L101.197 185.306C101.662 185.003 102.336 184.805 103.046 184.805C104.766 184.805 105.184 185.981 105.184 187.11V189.217C105.184 189.706 105.209 190.183 105.278 190.568H104.348Z" fill="#040606"/>
<path d="M106.835 186.691C106.835 186.028 106.823 185.457 106.789 184.934H107.684L107.719 186.039H107.766C108.022 185.283 108.638 184.805 109.323 184.805C109.44 184.805 109.52 184.817 109.614 184.841V185.807C109.509 185.783 109.405 185.771 109.265 185.771C108.545 185.771 108.033 186.318 107.894 187.087C107.871 187.226 107.847 187.39 107.847 187.565V190.568H106.835V186.691Z" fill="#040606"/>
<path d="M114.334 187.157C114.334 186.982 114.322 186.831 114.276 186.691C114.09 186.097 113.589 185.609 112.846 185.609C111.869 185.609 111.171 186.435 111.171 187.739C111.171 188.844 111.73 189.764 112.834 189.764C113.462 189.764 114.032 189.368 114.253 188.717C114.311 188.542 114.334 188.344 114.334 188.169V187.157ZM115.391 184.934C115.368 185.34 115.345 185.794 115.345 186.482V189.752C115.345 191.044 115.09 191.836 114.543 192.325C113.997 192.837 113.206 193 112.497 193C111.822 193 111.079 192.837 110.625 192.535L110.881 191.754C111.253 191.988 111.835 192.196 112.532 192.196C113.578 192.196 114.345 191.649 114.345 190.23V189.601H114.322C114.009 190.125 113.404 190.545 112.532 190.545C111.137 190.545 110.137 189.357 110.137 187.797C110.137 185.888 111.381 184.805 112.671 184.805C113.648 184.805 114.183 185.317 114.427 185.783H114.45L114.496 184.934H115.391Z" fill="#040606"/>
<path d="M116.973 190.568V184.934H117.996V190.568H116.973ZM118.112 183.35C118.123 183.699 117.868 183.979 117.461 183.979C117.1 183.979 116.845 183.699 116.845 183.35C116.845 182.989 117.112 182.709 117.484 182.709C117.868 182.709 118.112 182.989 118.112 183.35Z" fill="#040606"/>
<path d="M119.693 186.458C119.693 185.876 119.681 185.399 119.646 184.934H120.553L120.611 185.864H120.635C120.914 185.329 121.565 184.805 122.494 184.805C123.273 184.805 124.483 185.271 124.483 187.203V190.568H123.46V187.319C123.46 186.412 123.122 185.655 122.157 185.655C121.483 185.655 120.96 186.133 120.786 186.703C120.739 186.831 120.715 187.005 120.715 187.18V190.568H119.693V186.458Z" fill="#040606"/>
<path d="M129.109 187.692C127.993 187.668 126.725 187.867 126.725 188.961C126.725 189.624 127.168 189.939 127.691 189.939C128.423 189.939 128.888 189.473 129.05 188.995C129.086 188.892 129.109 188.774 129.109 188.669V187.692ZM129.26 190.568L129.178 189.857H129.144C128.83 190.299 128.225 190.695 127.423 190.695C126.284 190.695 125.702 189.892 125.702 189.077C125.702 187.716 126.912 186.97 129.086 186.982V186.865C129.086 186.4 128.958 185.562 127.807 185.562C127.284 185.562 126.737 185.725 126.342 185.981L126.109 185.306C126.574 185.003 127.248 184.805 127.958 184.805C129.678 184.805 130.097 185.981 130.097 187.11V189.217C130.097 189.706 130.121 190.183 130.19 190.568H129.26Z" fill="#040606"/>
<path d="M135.584 187.226C135.584 187.098 135.573 186.924 135.537 186.795C135.386 186.144 134.829 185.609 134.061 185.609C133.003 185.609 132.376 186.54 132.376 187.786C132.376 188.926 132.933 189.868 134.038 189.868C134.724 189.868 135.352 189.415 135.537 188.646C135.573 188.507 135.584 188.367 135.584 188.204V187.226ZM136.607 182.303V189.113C136.607 189.613 136.619 190.183 136.654 190.568H135.735L135.688 189.59H135.665C135.352 190.219 134.665 190.695 133.747 190.695C132.387 190.695 131.34 189.542 131.34 187.832C131.329 185.958 132.491 184.805 133.863 184.805C134.724 184.805 135.304 185.213 135.56 185.666H135.584V182.303H136.607Z" fill="#040606"/>
<path d="M138.932 187.762C138.932 188.995 139.64 189.927 140.64 189.927C141.617 189.927 142.35 189.008 142.35 187.739C142.35 186.784 141.873 185.573 140.663 185.573C139.455 185.573 138.932 186.691 138.932 187.762ZM143.396 187.704C143.396 189.788 141.955 190.695 140.594 190.695C139.071 190.695 137.897 189.578 137.897 187.797C137.897 185.912 139.129 184.805 140.688 184.805C142.303 184.805 143.396 185.981 143.396 187.704Z" fill="#040606"/>
<path d="M144.547 189.519C144.848 189.717 145.383 189.927 145.894 189.927C146.639 189.927 146.988 189.555 146.988 189.089C146.988 188.6 146.697 188.332 145.942 188.053C144.93 187.692 144.453 187.134 144.453 186.458C144.453 185.55 145.186 184.805 146.395 184.805C146.965 184.805 147.465 184.968 147.778 185.155L147.522 185.899C147.301 185.76 146.895 185.573 146.371 185.573C145.767 185.573 145.43 185.923 145.43 186.341C145.43 186.808 145.767 187.016 146.499 187.296C147.476 187.668 147.976 188.158 147.976 188.995C147.976 189.985 147.209 190.684 145.871 190.684C145.255 190.684 144.686 190.532 144.291 190.299L144.547 189.519Z" fill="#040606"/>
<path d="M78.1736 2.02614C77.7101 2.02614 77.3383 2.1985 77.0582 2.54213C76.7094 2.97085 76.535 3.59846 76.535 4.42385C76.535 5.27023 76.7157 5.92214 77.0773 6.37848C77.3549 6.72543 77.7216 6.8989 78.1773 6.8989C78.6637 6.8989 79.0654 6.70886 79.3824 6.32876C79.6995 5.94866 79.8579 5.34977 79.8579 4.53102C79.8579 3.64375 79.6835 2.9819 79.3347 2.54656C79.0546 2.19961 78.6675 2.02614 78.1736 2.02614ZM78.2461 1.74658C78.9184 1.74658 79.5009 2.00293 79.9936 2.51341C80.4866 3.025 80.7329 3.66255 80.7329 4.42827C80.7329 5.21609 80.4847 5.86911 79.9878 6.38953C79.4912 6.90995 78.8904 7.16961 78.1849 7.16961C77.4719 7.16961 76.8729 6.91657 76.3879 6.4083C75.9027 5.90114 75.6603 5.24482 75.6603 4.43932C75.6603 3.61614 75.9404 2.94434 76.5005 2.42392C76.9869 1.9731 77.5687 1.74658 78.2461 1.74658Z" fill="#040606"/>
<path d="M113.43 26.9192L113.872 28.3733H113.729L112.487 26.9192H113.43ZM112.744 29.4816C112.449 29.8749 112.301 30.4141 112.301 31.0992C112.301 31.6472 112.391 32.034 112.567 32.2583C112.744 32.4837 112.968 32.5964 113.241 32.5964C113.606 32.5964 113.899 32.392 114.122 31.9853C114.345 31.5776 114.457 31.0926 114.457 30.5312C114.457 30.1821 114.41 29.897 114.318 29.6749C114.226 29.4528 114.105 29.2981 113.955 29.2098C113.805 29.1214 113.654 29.0772 113.505 29.0772C113.198 29.0772 112.944 29.212 112.744 29.4816ZM114.285 29.054C114.57 29.2208 114.802 29.4794 114.977 29.8285C115.152 30.1788 115.24 30.5312 115.24 30.8848C115.24 31.371 115.096 31.8097 114.807 32.1997C114.464 32.6638 114.002 32.8947 113.422 32.8947C113.065 32.8947 112.742 32.8052 112.452 32.6251C112.161 32.4461 111.933 32.1787 111.767 31.8251C111.602 31.4704 111.519 31.1213 111.519 30.7754C111.519 30.2838 111.669 29.8484 111.969 29.4683C112.322 29.0252 112.791 28.8031 113.375 28.8031C113.695 28.8031 113.999 28.886 114.285 29.054Z" fill="#040606"/>
<path d="M83.3487 3.23496H85.0411V3.3819H84.9579C84.839 3.3819 84.7498 3.40842 84.6903 3.45924C84.6308 3.51118 84.6013 3.57526 84.6013 3.65261C84.6013 3.75537 84.6447 3.89792 84.7319 4.08023L85.6158 5.91442L86.428 3.90564C86.4733 3.79736 86.4953 3.69018 86.4953 3.58521C86.4953 3.53659 86.4865 3.50124 86.4677 3.47804C86.4468 3.44821 86.4137 3.425 86.3684 3.40842C86.3243 3.39074 86.2448 3.3819 86.1311 3.3819V3.23496H87.312V3.3819C87.2149 3.39295 87.1387 3.41395 87.0869 3.44599C87.0339 3.47804 86.9754 3.53659 86.9125 3.62388C86.8882 3.66145 86.843 3.76312 86.7767 3.92996L85.2987 7.55745C85.156 7.90882 84.9692 8.17512 84.7379 8.35523C84.5067 8.53422 84.2841 8.62481 84.07 8.62481C83.9142 8.62481 83.786 8.57952 83.6856 8.49002C83.5852 8.39941 83.535 8.29666 83.535 8.18064C83.535 8.06904 83.5714 7.97953 83.644 7.91213C83.7166 7.84473 83.8164 7.81158 83.9433 7.81158C84.0305 7.81158 84.1493 7.84032 84.3 7.89888C84.4056 7.93755 84.4717 7.95745 84.4981 7.95745C84.5774 7.95745 84.6639 7.91655 84.7577 7.83478C84.8515 7.75302 84.946 7.59391 85.0411 7.35856L85.2987 6.72765L83.9948 3.98521C83.9551 3.90344 83.8917 3.80177 83.8045 3.68023C83.7384 3.58742 83.6843 3.52556 83.6419 3.49351C83.5813 3.45153 83.4834 3.41394 83.3487 3.3819V3.23496Z" fill="#040606"/>
<path d="M92.5198 6.26468V5.33985H90.8765V5.92657C90.8765 6.52766 91.0973 6.82929 91.5365 6.82929C91.8223 6.82929 92.1501 6.64035 92.5198 6.26468ZM93.9025 6.87239L92.7151 7.36299H92.5198V6.52103C92.2593 6.8039 92.0618 6.99504 91.9261 7.09338C91.6833 7.27348 91.4316 7.36299 91.1723 7.36299C90.9582 7.36299 90.7673 7.29889 90.5995 7.17182C90.4318 7.04476 90.317 6.87902 90.253 6.6746C90.189 6.47129 90.1581 6.18403 90.1581 5.81388V5.33985H89.6593V5.01942H90.1581V4.03823C90.1581 3.74322 90.0787 3.55649 89.9197 3.47804C89.8414 3.44047 89.6968 3.42389 89.486 3.4261V3.26588H90.8765V5.01942H92.5198V4.01283C92.5198 3.77527 92.4723 3.61726 92.3763 3.53881C92.2957 3.47031 92.1313 3.43273 91.883 3.4261V3.26588H93.2349V5.01942H93.7293V5.33985H93.2349V5.67464C93.2349 6.30224 93.2812 6.65583 93.3739 6.73317C93.4225 6.77406 93.4777 6.79394 93.5384 6.79394C93.6278 6.79394 93.7293 6.76964 93.8419 6.71992L93.9025 6.87239Z" fill="#040606"/>
<path d="M109.027 18.9902V18.0654H107.384V18.651C107.384 19.2532 107.604 19.5537 108.043 19.5537C108.329 19.5537 108.657 19.3659 109.027 18.9902ZM110.41 19.5979L109.222 20.0874H109.027V19.2454C108.767 19.5294 108.569 19.7206 108.433 19.8189C108.191 19.9979 107.939 20.0874 107.679 20.0874C107.466 20.0874 107.275 20.0244 107.107 19.8973C106.939 19.7692 106.823 19.6034 106.76 19.4001C106.696 19.1957 106.664 18.9084 106.664 18.5383V18.0654H106.166V17.7438H106.664V16.7638C106.664 16.4687 106.585 16.282 106.426 16.2035C106.348 16.166 106.204 16.1483 105.992 16.1516V15.9914H107.384V17.7438H109.027V16.7372C109.027 16.4997 108.98 16.3428 108.884 16.2643C108.803 16.1947 108.639 16.1571 108.389 16.1516V15.9914H109.742V17.7438H110.237V18.0654H109.742V18.3991C109.742 19.0278 109.789 19.3802 109.881 19.4587C109.93 19.4996 109.985 19.5194 110.046 19.5194C110.135 19.5194 110.237 19.4951 110.349 19.4454L110.41 19.5979Z" fill="#040606"/>
<path d="M108.128 32.3489V31.424H106.484V32.0097C106.484 32.6118 106.704 32.9124 107.143 32.9124C107.429 32.9124 107.758 32.7246 108.128 32.3489ZM109.51 32.9566L108.322 33.4461H108.128V32.6041C107.867 32.8881 107.67 33.0792 107.534 33.1776C107.291 33.3566 107.04 33.4461 106.779 33.4461C106.565 33.4461 106.375 33.3831 106.207 33.256C106.04 33.1279 105.924 32.9621 105.861 32.7588C105.797 32.5544 105.765 32.2671 105.765 31.897V31.424H105.266V31.1025H105.765V30.1224C105.765 29.8274 105.685 29.6407 105.527 29.5622C105.448 29.5247 105.304 29.507 105.093 29.5103V29.3501H106.484V31.1025H108.128V30.0959C108.128 29.8584 108.079 29.7014 107.984 29.623C107.904 29.5534 107.738 29.5158 107.49 29.5103V29.3501H108.843V31.1025H109.337V31.424H108.843V31.7577C108.843 32.3864 108.889 32.7389 108.981 32.8174C109.03 32.8571 109.086 32.8781 109.146 32.8781C109.236 32.8781 109.337 32.8538 109.45 32.8041L109.51 32.9566Z" fill="#040606"/>
<path d="M102.206 32.3489V31.424H100.563V32.0097C100.563 32.6118 100.782 32.9124 101.221 32.9124C101.508 32.9124 101.836 32.7246 102.206 32.3489ZM103.589 32.9566L102.401 33.4461H102.206V32.6041C101.945 32.8881 101.748 33.0792 101.612 33.1776C101.369 33.3566 101.118 33.4461 100.857 33.4461C100.644 33.4461 100.453 33.3831 100.286 33.256C100.118 33.1279 100.002 32.9621 99.9391 32.7588C99.8751 32.5544 99.8431 32.2671 99.8431 31.897V31.424H99.3454V31.1025H99.8431V30.1224C99.8431 29.8274 99.7637 29.6407 99.6048 29.5622C99.5275 29.5247 99.3829 29.507 99.1721 29.5103V29.3501H100.563V31.1025H102.206V30.0959C102.206 29.8584 102.158 29.7014 102.062 29.623C101.982 29.5534 101.817 29.5158 101.569 29.5103V29.3501H102.921V31.1025H103.415V31.424H102.921V31.7577C102.921 32.3864 102.967 32.7389 103.06 32.8174C103.109 32.8571 103.164 32.8781 103.225 32.8781C103.314 32.8781 103.415 32.8538 103.528 32.8041L103.589 32.9566Z" fill="#040606"/>
<path d="M88.4211 54.9658C88.5403 54.9658 88.6429 55.0089 88.7268 55.0939C88.8117 55.1801 88.8537 55.2829 88.8537 55.4033C88.8537 55.5238 88.8117 55.6254 88.7268 55.7105C88.6429 55.7945 88.5403 55.8365 88.4211 55.8365C88.3008 55.8365 88.1981 55.7945 88.1121 55.7105C88.0271 55.6254 87.9841 55.5238 87.9841 55.4033C87.9841 55.2829 88.0271 55.1801 88.1121 55.0939C88.1981 55.0089 88.3008 54.9658 88.4211 54.9658ZM87.0063 54.9658C87.1299 54.9658 87.2325 55.0089 87.3175 55.0939C87.4014 55.1801 87.4433 55.2829 87.4433 55.4033C87.4433 55.5238 87.4003 55.6254 87.3153 55.7105C87.2292 55.7945 87.1277 55.8365 87.0107 55.8365C86.8904 55.8365 86.7878 55.7945 86.7017 55.7105C86.6167 55.6254 86.5737 55.5238 86.5737 55.4033C86.5737 55.2829 86.6156 55.1801 86.7006 55.0939C86.7845 55.0089 86.886 54.9658 87.0063 54.9658ZM89.1417 56.6508V58.8761C89.1417 59.3015 89.1516 59.5612 89.1715 59.6562C89.1914 59.7512 89.2234 59.8175 89.2675 59.8551C89.3117 59.8927 89.3635 59.9114 89.422 59.9114C89.5048 59.9114 89.5986 59.8882 89.7023 59.8429L89.7586 59.9833L88.6605 60.4363H88.4807V59.6584C88.1651 60.001 87.9256 60.2164 87.76 60.3037C87.5945 60.3921 87.419 60.4363 87.2347 60.4363C87.0295 60.4363 86.8507 60.3766 86.7006 60.2584C86.5494 60.1391 86.4446 59.9855 86.3861 59.7987C86.3276 59.612 86.2978 59.3468 86.2978 59.0043V57.3646C86.2978 57.1911 86.279 57.0707 86.2415 57.0033C86.204 56.937 86.1488 56.885 86.0749 56.8486C86.002 56.8132 85.8696 56.7966 85.6765 56.7989V56.6508H86.9621V59.1093C86.9621 59.4518 87.0217 59.6761 87.1409 59.7833C87.2601 59.8894 87.4036 59.9435 87.5713 59.9435C87.6861 59.9435 87.8163 59.907 87.962 59.8352C88.1077 59.7623 88.2809 59.6253 88.4807 59.422V57.3403C88.4807 57.1314 88.4431 56.9911 88.367 56.9171C88.2909 56.8442 88.1319 56.8044 87.8925 56.7989V56.6508H89.1417Z" fill="#040606"/>
<path d="M84.8498 30.6152V31.9168C84.8498 32.1986 84.8612 32.3842 84.884 32.4726C84.9195 32.6207 85.0063 32.75 85.1444 32.8616C85.2826 32.9732 85.4569 33.0284 85.6666 33.0284C85.9204 33.0284 86.1256 32.9301 86.2835 32.7323C86.4887 32.4726 86.5913 32.1091 86.5913 31.6395C86.5913 31.1069 86.4744 30.697 86.2415 30.4097C86.0793 30.2119 85.8862 30.1136 85.6632 30.1136C85.5418 30.1136 85.4212 30.1434 85.3021 30.2042C85.2109 30.2506 85.0601 30.3876 84.8498 30.6152ZM83.6332 30.0108L84.7053 29.5766H84.8498V30.3909C85.0298 30.0837 85.2103 29.8694 85.3915 29.7456C85.5727 29.623 85.7637 29.5611 85.9634 29.5611C86.3132 29.5611 86.6046 29.6981 86.8386 29.9722C87.1244 30.3069 87.2678 30.7434 87.2678 31.2815C87.2678 31.8826 87.0957 32.3809 86.7503 32.7732C86.4666 33.0958 86.1091 33.2571 85.6787 33.2571C85.4911 33.2571 85.3289 33.2306 85.1919 33.1776C85.0905 33.1389 84.9765 33.0627 84.8498 32.9488V34.0107C84.8498 34.2494 84.8645 34.4007 84.8935 34.4659C84.9226 34.53 84.9734 34.5819 85.0456 34.6195C85.1177 34.6582 85.249 34.677 85.4391 34.677V34.8173H83.6142V34.677H83.7094C83.8486 34.6792 83.9678 34.6527 84.0667 34.5974C84.1148 34.5687 84.1521 34.5245 84.1788 34.4615C84.2054 34.3996 84.2188 34.2416 84.2188 33.9875V30.6915C84.2188 30.4661 84.2086 30.3224 84.1883 30.2616C84.168 30.2009 84.1357 30.1545 84.0914 30.1246C84.0469 30.0937 83.9868 30.0793 83.9108 30.0793C83.8499 30.0793 83.7727 30.097 83.6789 30.1324L83.6332 30.0108Z" fill="#040606"/>
<path d="M82.7576 43.7971V45.0987C82.7576 45.3805 82.769 45.565 82.7917 45.6545C82.8273 45.8014 82.9141 45.9307 83.0522 46.0423C83.1903 46.1539 83.3646 46.2103 83.5749 46.2103C83.8283 46.2103 84.0336 46.1108 84.1907 45.9131C84.396 45.6545 84.4987 45.2899 84.4987 44.8203C84.4987 44.2877 84.3821 43.8778 84.1489 43.5916C83.9867 43.3938 83.7941 43.2944 83.5712 43.2944C83.4495 43.2944 83.3291 43.3253 83.2099 43.3861C83.1187 43.4314 82.968 43.5684 82.7576 43.7971ZM81.541 43.1916L82.6131 42.7574H82.7576V43.5728C82.9375 43.2656 83.1181 43.0502 83.2993 42.9275C83.4805 42.8038 83.6712 42.743 83.8714 42.743C84.2212 42.743 84.5126 42.88 84.7457 43.154C85.0322 43.4888 85.1755 43.9253 85.1755 44.4634C85.1755 45.0645 85.003 45.5617 84.6583 45.955C84.3745 46.2777 84.0171 46.4379 83.5863 46.4379C83.3987 46.4379 83.2366 46.4114 83.0996 46.3583C82.9983 46.3208 82.8843 46.2445 82.7576 46.1296V47.1915C82.7576 47.4301 82.7722 47.5826 82.8012 47.6467C82.8305 47.7119 82.8811 47.7627 82.9533 47.8014C83.0256 47.839 83.1568 47.8577 83.3468 47.8577V47.9992H81.5219V47.8577H81.6171C81.7565 47.8611 81.8755 47.8345 81.9744 47.7782C82.0226 47.7506 82.0599 47.7052 82.0866 47.6434C82.1132 47.5804 82.1265 47.4224 82.1265 47.1694V43.8733C82.1265 43.6468 82.1163 43.5043 82.0961 43.4424C82.0758 43.3816 82.0435 43.3363 81.9991 43.3054C81.9548 43.2756 81.8945 43.2601 81.8186 43.2601C81.7577 43.2601 81.6804 43.2778 81.5866 43.3131L81.541 43.1916Z" fill="#040606"/>
<path d="M93.311 57.9646V59.2662C93.311 59.5479 93.3232 59.7325 93.3453 59.822C93.3817 59.9689 93.4677 60.0982 93.6057 60.2098C93.7447 60.3214 93.918 60.3777 94.1288 60.3777C94.3826 60.3777 94.5879 60.2783 94.7446 60.0805C94.9499 59.822 95.0525 59.4573 95.0525 58.9877C95.0525 58.4552 94.9366 58.0452 94.7026 57.759C94.5404 57.5602 94.3484 57.4618 94.1255 57.4618C94.003 57.4618 93.8827 57.4917 93.7635 57.5535C93.673 57.5988 93.5218 57.7358 93.311 57.9646ZM92.0949 57.3591L93.1665 56.9248H93.311V57.7392C93.4909 57.432 93.6719 57.2176 93.8529 57.0939C94.0339 56.9712 94.2248 56.9093 94.4257 56.9093C94.7755 56.9093 95.0668 57.0464 95.2997 57.3204C95.5866 57.6563 95.729 58.0927 95.729 58.6297C95.729 59.2319 95.5568 59.7291 95.2125 60.1225C94.9289 60.444 94.5713 60.6054 94.1398 60.6054C93.9522 60.6054 93.79 60.5788 93.6531 60.5258C93.5527 60.4882 93.438 60.412 93.311 60.2971V61.3589C93.311 61.5976 93.3265 61.749 93.3552 61.8142C93.3839 61.8793 93.4346 61.9302 93.5075 61.9688C93.5792 62.0064 93.7105 62.0252 93.9003 62.0252V62.1666H92.0761V62.0252H92.171C92.3101 62.0285 92.4293 62.0009 92.5286 61.9456C92.576 61.918 92.6136 61.8727 92.6401 61.8108C92.6665 61.7479 92.6809 61.5899 92.6809 61.3368V58.0397C92.6809 57.8143 92.6699 57.6707 92.65 57.6099C92.6301 57.5491 92.597 57.5038 92.5529 57.4729C92.5087 57.443 92.448 57.4276 92.3719 57.4276C92.3112 57.4276 92.2339 57.4452 92.1401 57.4806L92.0949 57.3591Z" fill="#040606"/>
<path d="M91.9349 17.0046V18.3062C91.9349 18.588 91.9459 18.7725 91.9691 18.862C92.0044 19.009 92.0916 19.1383 92.2295 19.2499C92.3675 19.3615 92.5418 19.4178 92.7526 19.4178C93.0053 19.4178 93.2106 19.3184 93.3684 19.1206C93.5737 18.862 93.6763 18.4974 93.6763 18.0278C93.6763 17.4952 93.5593 17.0853 93.3265 16.7991C93.1643 16.6002 92.9711 16.5019 92.7482 16.5019C92.6268 16.5019 92.5065 16.5317 92.3873 16.5936C92.2957 16.6389 92.1457 16.7759 91.9349 17.0046ZM90.7187 16.3991L91.7903 15.9649H91.9349V16.7792C92.1148 16.472 92.2957 16.2577 92.4767 16.134C92.6577 16.0113 92.8486 15.9494 93.0484 15.9494C93.3982 15.9494 93.6896 16.0864 93.9235 16.3605C94.2094 16.6964 94.3528 17.1328 94.3528 17.6698C94.3528 18.272 94.1807 18.7692 93.8352 19.1626C93.5516 19.4841 93.1941 19.6454 92.7637 19.6454C92.576 19.6454 92.4138 19.6189 92.277 19.5659C92.1755 19.5283 92.0618 19.4521 91.9349 19.3371V20.399C91.9349 20.6377 91.9492 20.789 91.979 20.8542C92.0077 20.9194 92.0585 20.9702 92.1302 21.0089C92.203 21.0465 92.3344 21.0653 92.5242 21.0653V21.2067H90.6989V21.0653H90.7938C90.9339 21.0686 91.0531 21.041 91.1513 20.9857C91.1999 20.9581 91.2374 20.9128 91.2639 20.8509C91.2904 20.7879 91.3036 20.6299 91.3036 20.3769V17.0798C91.3036 16.8544 91.2937 16.7107 91.2738 16.6499C91.2529 16.5892 91.2209 16.5439 91.1767 16.5129C91.1326 16.4831 91.0719 16.4676 90.9957 16.4676C90.935 16.4676 90.8578 16.4853 90.764 16.5207L90.7187 16.3991Z" fill="#040606"/>
<path d="M110.95 40.858L111.392 42.3121H111.249L110.007 40.858H110.95ZM110.263 43.4203C109.968 43.8137 109.822 44.3529 109.822 45.039C109.822 45.5871 109.91 45.9727 110.087 46.1981C110.263 46.4224 110.488 46.5351 110.761 46.5351C111.125 46.5351 111.42 46.3307 111.643 45.9241C111.866 45.5164 111.977 45.0313 111.977 44.47C111.977 44.1208 111.931 43.8358 111.838 43.6137C111.745 43.3927 111.624 43.2369 111.474 43.1485C111.324 43.0601 111.175 43.0159 111.026 43.0159C110.717 43.0159 110.463 43.1507 110.263 43.4203ZM111.804 42.9927C112.091 43.1596 112.321 43.4181 112.497 43.7684C112.672 44.1175 112.759 44.47 112.759 44.8236C112.759 45.3098 112.615 45.7484 112.327 46.1385C111.984 46.6025 111.522 46.8346 110.942 46.8346C110.585 46.8346 110.262 46.744 109.971 46.565C109.68 46.3849 109.453 46.1175 109.288 45.7639C109.122 45.4092 109.038 45.06 109.038 44.7142C109.038 44.2225 109.189 43.7872 109.49 43.4071C109.843 42.964 110.312 42.7419 110.895 42.7419C111.214 42.7419 111.518 42.8248 111.804 42.9927Z" fill="#040606"/>
<path d="M96.4165 15.9494H98.0399V16.1063C97.8909 16.1174 97.7927 16.145 97.7463 16.187C97.7 16.229 97.6768 16.2897 97.6768 16.3693C97.6768 16.4566 97.7011 16.5627 97.7485 16.6864L98.5773 18.9173L99.4105 17.1019L99.1909 16.5295C99.1225 16.3604 99.0342 16.2433 98.9238 16.1781C98.862 16.1395 98.7462 16.1152 98.5773 16.1063V15.9494H100.421V16.1063C100.218 16.1152 100.074 16.1516 99.9899 16.2168C99.9336 16.2621 99.9049 16.3339 99.9049 16.4323C99.9049 16.4886 99.916 16.5472 99.9391 16.6057L100.819 18.8333L101.634 16.6864C101.691 16.5339 101.719 16.4124 101.719 16.3229C101.719 16.2687 101.692 16.2212 101.636 16.1781C101.581 16.1362 101.474 16.1118 101.313 16.1063V15.9494H102.536V16.1063C102.29 16.1428 102.11 16.3096 101.994 16.6057L100.701 19.946H100.526L99.5584 17.4698L98.4295 19.946H98.2727L97.0301 16.6864C96.9484 16.4809 96.8679 16.3417 96.7884 16.2698C96.7101 16.198 96.5854 16.1428 96.4165 16.1063V15.9494Z" fill="#040606"/>
<path d="M89.4662 29.3998H91.0907V29.5567C90.9406 29.5677 90.8434 29.5943 90.796 29.6374C90.7496 29.6793 90.7265 29.7401 90.7265 29.8186C90.7265 29.9059 90.7507 30.0119 90.7982 30.1368L91.627 32.3677L92.4602 30.5511L92.2406 29.9799C92.1733 29.8108 92.0839 29.6937 91.9746 29.6285C91.9117 29.5887 91.7969 29.5644 91.627 29.5567V29.3998H93.4711V29.5567C93.268 29.5644 93.1245 29.602 93.0396 29.6661C92.9833 29.7114 92.9546 29.7832 92.9546 29.8826C92.9546 29.939 92.9667 29.9965 92.9888 30.0561L93.8684 32.2826L94.685 30.1368C94.7413 29.9843 94.7689 29.8628 94.7689 29.7722C94.7689 29.7191 94.7413 29.6705 94.6872 29.6285C94.632 29.5865 94.5239 29.5622 94.3628 29.5567V29.3998H95.5855V29.5567C95.3405 29.5932 95.1595 29.76 95.0437 30.0561L93.7503 33.3963H93.577L92.6081 30.9191L91.4791 33.3963H91.3224L90.0798 30.1368C89.9981 29.9302 89.9175 29.7909 89.8392 29.7191C89.7597 29.6473 89.6361 29.5932 89.4662 29.5567V29.3998Z" fill="#040606"/>
<path d="M87.2678 42.743H88.8912V42.8988C88.7422 42.9098 88.644 42.9375 88.5977 42.9794C88.5513 43.0214 88.5281 43.0822 88.5281 43.1618C88.5281 43.2491 88.5513 43.3551 88.5999 43.4789L89.4286 45.7097L90.2619 43.8943L90.0411 43.322C89.9738 43.1529 89.8855 43.0358 89.7752 42.9706C89.7134 42.9319 89.5975 42.9076 89.4286 42.8988V42.743H91.2716V42.8988C91.0686 42.9076 90.9251 42.9441 90.8412 43.0093C90.7838 43.0546 90.7563 43.1264 90.7563 43.2247C90.7563 43.2811 90.7673 43.3396 90.7905 43.3982L91.67 45.6258L92.4856 43.4789C92.5418 43.3264 92.5705 43.2048 92.5705 43.1153C92.5705 43.0612 92.543 43.0137 92.4878 42.9706C92.4326 42.9286 92.3244 42.9043 92.1644 42.8988V42.743H93.3861V42.8988C93.1411 42.9352 92.9601 43.1021 92.8453 43.3982L91.5508 46.7395H91.3776L90.4097 44.2623L89.2808 46.7395H89.1241L87.8803 43.4789C87.7987 43.2733 87.7181 43.1341 87.6398 43.0623C87.5614 42.9905 87.4367 42.9352 87.2678 42.8988V42.743Z" fill="#040606"/>
<path d="M101.075 55.8773H100.962C100.972 55.5558 101.038 55.3238 101.163 55.1812C101.287 55.0376 101.44 54.9658 101.623 54.9658C101.719 54.9658 101.806 54.9812 101.887 55.0122C101.992 55.052 102.142 55.1359 102.335 55.263C102.528 55.3912 102.672 55.4553 102.765 55.4553C102.84 55.4553 102.907 55.4232 102.964 55.3602C103.021 55.2972 103.067 55.1658 103.099 54.9658H103.208C103.21 55.1845 103.181 55.3569 103.122 55.4851C103.062 55.6133 102.978 55.7127 102.869 55.7845C102.76 55.8563 102.651 55.8917 102.54 55.8917C102.355 55.8917 102.125 55.7978 101.852 55.6099C101.704 55.5094 101.604 55.4486 101.553 55.4276C101.501 55.4055 101.451 55.3956 101.401 55.3956C101.305 55.3956 101.229 55.4376 101.173 55.5226C101.148 55.5624 101.114 55.6807 101.075 55.8773Z" fill="#040606"/>
<path d="M98.3213 56.9094H99.9446V57.0662C99.7946 57.0773 99.6974 57.1049 99.6511 57.1469C99.6036 57.1889 99.5805 57.2497 99.5805 57.3292C99.5805 57.4165 99.6048 57.5226 99.6522 57.6463L100.482 59.8772L101.314 58.0618L101.095 57.4894C101.027 57.3204 100.938 57.2033 100.829 57.1381C100.767 57.0994 100.651 57.0751 100.482 57.0662V56.9094H102.325V57.0662C102.122 57.0751 101.979 57.1116 101.894 57.1767C101.837 57.222 101.81 57.2939 101.81 57.3922C101.81 57.4486 101.821 57.5071 101.843 57.5657L102.722 59.7932L103.539 57.6463C103.595 57.4939 103.623 57.3723 103.623 57.2828C103.623 57.2287 103.595 57.1812 103.541 57.1381C103.486 57.0961 103.378 57.0718 103.218 57.0662V56.9094H104.44V57.0662C104.195 57.1027 104.014 57.2696 103.899 57.5657L102.604 60.9059H102.431L101.462 58.4297L100.333 60.9059H100.177L98.9338 57.6463C98.8521 57.4408 98.7715 57.3016 98.6932 57.2298C98.6137 57.158 98.4901 57.1027 98.3213 57.0662V56.9094Z" fill="#040606"/>
<path d="M81.3606 81.8809H81.2481C81.2575 81.5593 81.3243 81.3273 81.4484 81.1848C81.5727 81.0411 81.7262 80.9704 81.909 80.9704C82.005 80.9704 82.0928 80.9848 82.1726 81.0157C82.278 81.0555 82.4273 81.1395 82.6207 81.2676C82.814 81.3947 82.9575 81.4588 83.0513 81.4588C83.1263 81.4588 83.1924 81.4278 83.2499 81.3638C83.3072 81.3008 83.3523 81.1693 83.3851 80.9704H83.4941C83.4965 81.1881 83.4678 81.3615 83.408 81.4886C83.3483 81.6168 83.2639 81.7162 83.1549 81.7881C83.046 81.8599 82.9365 81.8952 82.8264 81.8952C82.6412 81.8952 82.4115 81.8013 82.1375 81.6135C81.9899 81.5129 81.8902 81.4522 81.8387 81.4312C81.7871 81.4102 81.7368 81.3991 81.6875 81.3991C81.5915 81.3991 81.5153 81.4411 81.459 81.5262C81.4333 81.566 81.4005 81.6842 81.3606 81.8809Z" fill="#040606"/>
<path d="M78.6066 82.9129H80.2304V83.0698C80.0811 83.0819 79.9831 83.1084 79.9366 83.1504C79.89 83.1924 79.8668 83.2532 79.8668 83.3327C79.8668 83.42 79.8907 83.5261 79.9388 83.6499L80.7674 85.8818L81.6004 84.0653L81.3806 83.493C81.3129 83.3239 81.2241 83.2068 81.1142 83.1416C81.0523 83.1029 80.9366 83.0786 80.7674 83.0698V82.9129H82.6112V83.0698C82.4081 83.0786 82.2643 83.1151 82.1798 83.1803C82.1235 83.2256 82.0953 83.2974 82.0953 83.3957C82.0953 83.4521 82.1065 83.5107 82.129 83.5692L83.0086 85.7968L83.8248 83.6499C83.8811 83.4974 83.9092 83.3758 83.9092 83.2863C83.9092 83.2322 83.8817 83.1847 83.8268 83.1416C83.7718 83.0996 83.6641 83.0753 83.5033 83.0698V82.9129H84.7254V83.0698C84.4801 83.1062 84.2997 83.2731 84.1841 83.5692L82.8902 86.9105H82.7169L81.7485 84.4333L80.6196 86.9105H80.4631L79.2198 83.6499C79.1381 83.4444 79.0577 83.3051 78.9788 83.2333C78.9 83.1615 78.7759 83.1062 78.6066 83.0698V82.9129Z" fill="#040606"/>
<path d="M109.361 59.8584V58.9336H107.718V59.5203C107.718 60.1214 107.938 60.423 108.377 60.423C108.664 60.423 108.992 60.2341 109.361 59.8584ZM110.744 60.4661L109.557 60.9567H109.361V60.1148C109.101 60.3976 108.904 60.5888 108.768 60.6871C108.525 60.8672 108.273 60.9567 108.013 60.9567C107.8 60.9567 107.609 60.8926 107.441 60.7656C107.274 60.6385 107.158 60.4728 107.095 60.2683C107.031 60.065 106.999 59.7778 106.999 59.4076V58.9336H106.501V58.6132H106.999V57.632C106.999 57.337 106.919 57.1502 106.76 57.0718C106.683 57.0353 106.539 57.0176 106.327 57.0198V56.8596H107.718V58.6132H109.361V57.6066C109.361 57.369 109.314 57.211 109.218 57.1325C109.137 57.064 108.973 57.0265 108.725 57.0198V56.8596H110.077V58.6132H110.571V58.9336H110.077V59.2684C110.077 59.896 110.123 60.2496 110.216 60.3269C110.264 60.3678 110.319 60.3877 110.38 60.3877C110.469 60.3877 110.571 60.3634 110.684 60.3137L110.744 60.4661Z" fill="#040606"/>
<path d="M115.794 59.8584V58.9336H114.151V59.5203C114.151 60.1214 114.371 60.423 114.81 60.423C115.096 60.423 115.425 60.2341 115.794 59.8584ZM117.177 60.4661L115.988 60.9567H115.794V60.1148C115.534 60.3976 115.336 60.5888 115.201 60.6871C114.958 60.8672 114.706 60.9567 114.446 60.9567C114.232 60.9567 114.042 60.8926 113.874 60.7656C113.706 60.6385 113.59 60.4728 113.527 60.2683C113.463 60.065 113.431 59.7778 113.431 59.4076V58.9336H112.934V58.6132H113.431V57.632C113.431 57.337 113.352 57.1502 113.193 57.0718C113.115 57.0353 112.971 57.0176 112.759 57.0198V56.8596H114.151V58.6132H115.794V57.6066C115.794 57.369 115.747 57.211 115.651 57.1325C115.57 57.064 115.406 57.0265 115.156 57.0198V56.8596H116.509V58.6132H117.004V58.9336H116.509V59.2684C116.509 59.896 116.556 60.2496 116.648 60.3269C116.697 60.3678 116.752 60.3877 116.813 60.3877C116.902 60.3877 117.004 60.3634 117.116 60.3137L117.177 60.4661Z" fill="#040606"/>
<path d="M105.919 45.6909V44.7672H104.276V45.3528C104.276 45.9539 104.496 46.2556 104.935 46.2556C105.221 46.2556 105.549 46.0677 105.919 45.6909ZM107.301 46.2987L106.114 46.7893H105.919V45.9473C105.659 46.2313 105.461 46.4213 105.325 46.5196C105.083 46.6998 104.831 46.7893 104.571 46.7893C104.357 46.7893 104.166 46.7252 103.999 46.5981C103.831 46.471 103.716 46.3053 103.652 46.1009C103.589 45.8976 103.557 45.6103 103.557 45.2401V44.7672H103.058V44.4457H103.557V43.4645C103.557 43.1695 103.477 42.9828 103.318 42.9054C103.24 42.8678 103.095 42.8502 102.885 42.8535V42.6922H104.276V44.4457H105.919V43.4391C105.919 43.2015 105.871 43.0435 105.776 42.9662C105.695 42.8966 105.53 42.859 105.282 42.8535V42.6922H106.635V44.4457H107.128V44.7672H106.635V45.1009C106.635 45.7285 106.681 46.0821 106.772 46.1594C106.822 46.2003 106.877 46.2202 106.938 46.2202C107.027 46.2202 107.128 46.1959 107.242 46.1473L107.301 46.2987Z" fill="#040606"/>
<path d="M80.2182 55.7039H80.1056C80.115 55.3823 80.1819 55.1503 80.306 55.0078C80.4302 54.8641 80.5836 54.7923 80.7664 54.7923C80.8625 54.7923 80.9504 54.8078 81.03 54.8387C81.1355 54.8785 81.2849 54.9625 81.4781 55.0906C81.6715 55.2177 81.815 55.2818 81.9086 55.2818C81.9837 55.2818 82.0499 55.2497 82.1073 55.1868C82.1648 55.1238 82.2098 54.9923 82.2427 54.7923H82.3516C82.3538 55.0111 82.3252 55.1845 82.2655 55.3116C82.2057 55.4398 82.1214 55.5392 82.0125 55.611C81.9035 55.6829 81.7939 55.7182 81.6837 55.7182C81.4986 55.7182 81.269 55.6243 80.9949 55.4365C80.8472 55.3359 80.7477 55.2751 80.6961 55.2542C80.6446 55.2332 80.5942 55.2221 80.5451 55.2221C80.4489 55.2221 80.3728 55.2641 80.3166 55.3492C80.2908 55.389 80.2579 55.5072 80.2182 55.7039Z" fill="#040606"/>
<path d="M80.5929 57.1955C80.2984 57.5889 80.1511 58.1292 80.1511 58.8142C80.1511 59.3623 80.2394 59.749 80.4163 59.9733C80.5929 60.1976 80.8176 60.3103 81.0897 60.3103C81.4546 60.3103 81.7485 60.107 81.9716 59.6993C82.1948 59.2916 82.3064 58.8076 82.3064 58.2452C82.3064 57.8971 82.26 57.6121 82.1674 57.39C82.0747 57.1679 81.9534 57.0121 81.8032 56.9237C81.6532 56.8353 81.5036 56.7911 81.355 56.7911C81.0463 56.7911 80.7923 56.9259 80.5929 57.1955ZM82.1337 56.7679C82.4199 56.9359 82.6508 57.1933 82.8263 57.5436C83.0016 57.8938 83.0894 58.2452 83.0894 58.5999C83.0894 59.0861 82.9448 59.5236 82.6558 59.9148C82.3133 60.3777 81.8517 60.6098 81.2708 60.6098C80.9144 60.6098 80.591 60.5203 80.3005 60.3402C80.01 60.16 79.782 59.8938 79.6165 59.5391C79.4509 59.1855 79.3681 58.8352 79.3681 58.4894C79.3681 57.9977 79.5182 57.5624 79.8185 57.1834C80.1721 56.7392 80.6407 56.5171 81.2244 56.5171C81.5444 56.5171 81.8475 56.6011 82.1337 56.7679Z" fill="#040606"/>
<path d="M108.128 73.1585V72.2348H106.484V72.8204C106.484 73.4226 106.704 73.7231 107.143 73.7231C107.429 73.7231 107.758 73.5353 108.128 73.1585ZM109.51 73.7662L108.322 74.2568H108.128V73.4149C107.867 73.6988 107.67 73.89 107.534 73.9883C107.291 74.1673 107.04 74.2568 106.779 74.2568C106.565 74.2568 106.375 74.1927 106.207 74.0657C106.04 73.9386 105.924 73.7729 105.861 73.5695C105.797 73.3651 105.765 73.0779 105.765 72.7077V72.2348H105.266V71.9133H105.765V70.9321C105.765 70.6371 105.685 70.4503 105.527 70.373C105.448 70.3354 105.304 70.3177 105.093 70.321V70.1597H106.484V71.9133H108.128V70.9067C108.128 70.6691 108.079 70.5111 107.984 70.4337C107.904 70.3641 107.738 70.3266 107.49 70.321V70.1597H108.843V71.9133H109.337V72.2348H108.843V72.5685C108.843 73.1961 108.889 73.5497 108.981 73.6281C109.03 73.6679 109.086 73.6889 109.146 73.6889C109.236 73.6889 109.337 73.6635 109.45 73.6149L109.51 73.7662Z" fill="#040606"/>
<path d="M88.7113 73.1585V72.2348H87.0681V72.8204C87.0681 73.4226 87.2877 73.7231 87.7269 73.7231C88.0128 73.7231 88.3416 73.5353 88.7113 73.1585ZM90.0941 73.7662L88.9055 74.2568H88.7113V73.4149C88.4509 73.6988 88.2533 73.89 88.1176 73.9883C87.8748 74.1673 87.6232 74.2568 87.3627 74.2568C87.1487 74.2568 86.9588 74.1927 86.7911 74.0657C86.6233 73.9386 86.5075 73.7729 86.4435 73.5695C86.3806 73.3651 86.3485 73.0779 86.3485 72.7077V72.2348H85.8497V71.9133H86.3485V70.9321C86.3485 70.6371 86.2691 70.4503 86.1102 70.373C86.0318 70.3354 85.8873 70.3177 85.6765 70.321V70.1597H87.0681V71.9133H88.7113V70.9067C88.7113 70.6691 88.6628 70.5111 88.5678 70.4337C88.4873 70.3641 88.3218 70.3266 88.0734 70.321V70.1597H89.4264V71.9133H89.9197V72.2348H89.4264V72.5685C89.4264 73.1961 89.4728 73.5497 89.5644 73.6281C89.614 73.6679 89.6692 73.6889 89.7299 73.6889C89.8193 73.6889 89.9197 73.6635 90.0334 73.6149L90.0941 73.7662Z" fill="#040606"/>
<path d="M95.9607 85.9128V84.9879H94.3186V85.5736C94.3186 86.1758 94.5382 86.4763 94.9774 86.4763C95.2633 86.4763 95.591 86.2885 95.9607 85.9128ZM97.3435 86.5194L96.1561 87.01H95.9607V86.168C95.7014 86.452 95.5027 86.6431 95.367 86.7415C95.1242 86.9205 94.8726 87.01 94.6133 87.01C94.3992 87.01 94.2082 86.947 94.0405 86.8188C93.8728 86.6917 93.758 86.526 93.694 86.3227C93.63 86.1183 93.5991 85.831 93.5991 85.4609V84.9879H93.1003V84.6664H93.5991V83.6863C93.5991 83.3913 93.5196 83.2046 93.3607 83.1261C93.2823 83.0886 93.1378 83.0709 92.927 83.0742V82.9129H94.3186V84.6664H95.9607V83.6598C95.9607 83.4222 95.9133 83.2654 95.8184 83.1869C95.7367 83.1173 95.5723 83.0797 95.324 83.0742V82.9129H96.6758V84.6664H97.1702V84.9879H96.6758V85.3216C96.6758 85.9503 96.7222 86.3028 96.8149 86.3813C96.8635 86.4211 96.9186 86.442 96.9793 86.442C97.0687 86.442 97.1702 86.4166 97.2828 86.368L97.3435 86.5194Z" fill="#040606"/>
<path d="M80.9388 14.2114C81.0371 14.2114 81.1207 14.2456 81.1895 14.3152C81.2583 14.3859 81.2926 14.4699 81.2926 14.5683C81.2926 14.6666 81.2583 14.7506 81.1895 14.8191C81.1207 14.8887 81.0371 14.9229 80.9388 14.9229C80.8406 14.9229 80.7565 14.8887 80.6866 14.8191C80.6167 14.7506 80.5818 14.6666 80.5818 14.5683C80.5818 14.4699 80.6167 14.3859 80.6866 14.3152C80.7565 14.2456 80.8406 14.2114 80.9388 14.2114ZM79.7825 14.2114C79.8829 14.2114 79.9675 14.2456 80.0363 14.3152C80.1052 14.3859 80.1395 14.4699 80.1395 14.5683C80.1395 14.6666 80.1046 14.7506 80.0348 14.8191C79.9648 14.8887 79.8818 14.9229 79.7857 14.9229C79.6875 14.9229 79.6034 14.8887 79.5335 14.8191C79.4635 14.7506 79.4287 14.6666 79.4287 14.5683C79.4287 14.4699 79.463 14.3859 79.5319 14.3152C79.6006 14.2456 79.6842 14.2114 79.7825 14.2114Z" fill="#040606"/>
<path d="M78.1966 16.0279H79.8891V16.1748H79.8059C79.6868 16.1748 79.5977 16.2013 79.5382 16.2522C79.4788 16.3041 79.4491 16.3682 79.4491 16.4444C79.4491 16.5483 79.4927 16.6908 79.5799 16.8731L80.4638 18.7073L81.2763 16.6986C81.3212 16.5903 81.3436 16.4831 81.3436 16.377C81.3436 16.3295 81.3343 16.2942 81.3159 16.2698C81.2948 16.2411 81.2617 16.2179 81.2168 16.2013C81.172 16.1837 81.0927 16.1748 80.979 16.1748V16.0279H82.1601V16.1748C82.0624 16.1859 81.987 16.2069 81.9342 16.2389C81.8814 16.2699 81.8232 16.3295 81.7599 16.4168C81.736 16.4544 81.6911 16.556 81.625 16.7229L80.1467 20.3504C80.004 20.7017 79.817 20.968 79.5857 21.147C79.3546 21.3271 79.1319 21.4177 78.9179 21.4177C78.7621 21.4177 78.6339 21.3724 78.5334 21.2829C78.433 21.1923 78.3829 21.0896 78.3829 20.9724C78.3829 20.8619 78.4192 20.7725 78.4918 20.7051C78.5646 20.6377 78.6643 20.6034 78.7911 20.6034C78.8783 20.6034 78.9972 20.6332 79.1479 20.6907C79.2535 20.7305 79.3195 20.7504 79.346 20.7504C79.4252 20.7504 79.5119 20.7095 79.6056 20.6277C79.6995 20.5459 79.7938 20.3868 79.8891 20.1515L80.1467 19.5206L78.8427 16.7781C78.8031 16.6964 78.7396 16.5947 78.6523 16.4732C78.5863 16.3803 78.5322 16.3185 78.4899 16.2864C78.4292 16.2444 78.3313 16.2069 78.1966 16.1748V16.0279Z" fill="#040606"/>
<path d="M94.6629 68.6051C94.7611 68.6051 94.845 68.6404 94.9134 68.71C94.983 68.7797 95.0172 68.8647 95.0172 68.9631C95.0172 69.0614 94.983 69.1443 94.9134 69.2139C94.845 69.2824 94.7611 69.3167 94.6629 69.3167C94.5647 69.3167 94.4808 69.2824 94.4113 69.2139C94.3407 69.1443 94.3065 69.0614 94.3065 68.9631C94.3065 68.8647 94.3407 68.7797 94.4113 68.71C94.4808 68.6404 94.5647 68.6051 94.6629 68.6051ZM93.5064 68.6051C93.6068 68.6051 93.6918 68.6404 93.7602 68.71C93.8297 68.7797 93.8639 68.8647 93.8639 68.9631C93.8639 69.0614 93.8286 69.1443 93.7591 69.2139C93.6896 69.2824 93.6057 69.3167 93.5097 69.3167C93.4115 69.3167 93.3276 69.2824 93.2581 69.2139C93.1874 69.1443 93.1532 69.0614 93.1532 68.9631C93.1532 68.8647 93.1874 68.7797 93.2559 68.71C93.3254 68.6404 93.4082 68.6051 93.5064 68.6051Z" fill="#040606"/>
<path d="M91.9205 70.4227H93.6134V70.5697H93.5295C93.4115 70.5697 93.3221 70.5951 93.2625 70.647C93.2029 70.6989 93.1731 70.763 93.1731 70.8393C93.1731 70.9431 93.2172 71.0857 93.3044 71.268L94.1884 73.1011L95.0006 71.0934C95.0459 70.9851 95.0679 70.8779 95.0679 70.7719C95.0679 70.7244 95.0591 70.689 95.0403 70.6647C95.0194 70.636 94.9863 70.6128 94.941 70.5951C94.8958 70.5785 94.8174 70.5697 94.7038 70.5697V70.4227H95.8846V70.5697C95.7864 70.5796 95.7113 70.6017 95.6583 70.6326C95.6054 70.6647 95.548 70.7243 95.484 70.8116C95.4608 70.8481 95.4156 70.9509 95.3493 71.1177L93.8706 74.7441C93.7282 75.0966 93.5417 75.3618 93.3099 75.5419C93.0793 75.722 92.8564 75.8115 92.6423 75.8115C92.4867 75.8115 92.3587 75.7673 92.2582 75.6767C92.1578 75.5872 92.107 75.4833 92.107 75.3673C92.107 75.2568 92.1435 75.1673 92.2163 75.0999C92.2891 75.0325 92.3885 74.9982 92.5154 74.9982C92.6025 74.9982 92.7217 75.027 92.8718 75.0855C92.9778 75.1253 93.044 75.1452 93.0705 75.1452C93.1499 75.1452 93.236 75.1043 93.3298 75.0226C93.4236 74.9397 93.5185 74.7817 93.6134 74.5463L93.8706 73.9154L92.5672 71.173C92.5275 71.0912 92.4635 70.9884 92.3763 70.8669C92.3101 70.7741 92.256 70.7122 92.2141 70.6802C92.1534 70.6382 92.0552 70.6017 91.9205 70.5697V70.4227Z" fill="#040606"/>
<path d="M87.2943 83.0797H88.9872V83.2267H88.9033C88.7841 83.2267 88.6959 83.2521 88.6363 83.304C88.5767 83.3548 88.5469 83.4189 88.5469 83.4963C88.5469 83.599 88.5899 83.7416 88.6782 83.925L89.5611 85.7581L90.3744 83.7504C90.4185 83.641 90.4417 83.535 90.4417 83.4289C90.4417 83.3814 90.4318 83.3449 90.4141 83.3217C90.3921 83.2919 90.359 83.2687 90.3148 83.2521C90.2696 83.2344 90.1901 83.2267 90.0764 83.2267V83.0797H91.2584V83.2267C91.1602 83.2366 91.0851 83.2576 91.0322 83.2896C90.9792 83.3217 90.9207 83.3814 90.8578 83.4686C90.8335 83.5051 90.7894 83.6068 90.7231 83.7736L89.2444 87.4011C89.102 87.7525 88.9144 88.0188 88.6837 88.1989C88.452 88.379 88.2302 88.4685 88.0161 88.4685C87.8594 88.4685 87.7313 88.4232 87.6309 88.3337C87.5305 88.2431 87.4808 88.1403 87.4808 88.0243C87.4808 87.9127 87.5173 87.8232 87.5901 87.7558C87.6618 87.6884 87.7622 87.6553 87.8892 87.6553C87.9763 87.6553 88.0944 87.684 88.2456 87.7425C88.3516 87.7823 88.4178 87.8022 88.4443 87.8022C88.5226 87.8022 88.6098 87.7613 88.7036 87.6784C88.7974 87.5967 88.8912 87.4376 88.9872 87.2022L89.2444 86.5713L87.9399 83.83C87.9013 83.7471 87.8373 83.6454 87.7501 83.5239C87.6839 83.4311 87.6298 83.3692 87.5879 83.3372C87.5272 83.2952 87.429 83.2576 87.2943 83.2267V83.0797Z" fill="#040606"/>
<path d="M99.011 69.5443H98.8985C98.9073 69.2227 98.9746 68.9907 99.0982 68.8471C99.2229 68.7045 99.3763 68.6327 99.5584 68.6327C99.6544 68.6327 99.7427 68.6482 99.8222 68.678C99.9281 68.7189 100.077 68.8029 100.27 68.9299C100.463 69.0581 100.607 69.1222 100.701 69.1222C100.776 69.1222 100.842 69.0901 100.899 69.0272C100.957 68.9631 101.002 68.8327 101.035 68.6327H101.144C101.146 68.8515 101.118 69.0238 101.058 69.152C100.997 69.2802 100.914 69.3796 100.804 69.4515C100.696 69.5222 100.586 69.5586 100.477 69.5586C100.291 69.5586 100.062 69.4647 99.7868 69.2769C99.6401 69.1763 99.5396 69.1144 99.4889 69.0935C99.437 69.0725 99.3862 69.0625 99.3377 69.0625C99.2417 69.0625 99.1655 69.1045 99.1092 69.1885C99.0828 69.2283 99.0508 69.3476 99.011 69.5443Z" fill="#040606"/>
<path d="M101.912 70.5663V72.7928C101.912 73.2171 101.922 73.4778 101.943 73.5718C101.963 73.6668 101.995 73.7331 102.039 73.7707C102.083 73.8082 102.134 73.827 102.193 73.827C102.275 73.827 102.369 73.8038 102.474 73.7585L102.529 73.8988L101.432 74.3519H101.252V73.574C100.937 73.9165 100.696 74.132 100.531 74.2204C100.365 74.3088 100.191 74.3519 100.006 74.3519C99.8001 74.3519 99.6224 74.2933 99.4712 74.174C99.32 74.0546 99.2152 73.9021 99.1567 73.7143C99.0982 73.5276 99.0684 73.2624 99.0684 72.921V71.2801C99.0684 71.1067 99.0497 70.9862 99.0132 70.9199C98.9757 70.8525 98.9194 70.8006 98.8466 70.7652C98.7727 70.7288 98.6402 70.7122 98.4482 70.7144V70.5663H99.7339V73.0248C99.7339 73.3673 99.7935 73.5917 99.9116 73.6988C100.031 73.806 100.174 73.859 100.343 73.859C100.458 73.859 100.588 73.8226 100.733 73.7508C100.878 73.6789 101.052 73.5408 101.252 73.3375V71.2558C101.252 71.0481 101.214 70.9067 101.138 70.8326C101.061 70.7597 100.904 70.7199 100.663 70.7144V70.5663H101.912Z" fill="#040606"/>
<path d="M82.4918 73.0447V72.1199H80.849V72.7066C80.849 73.3077 81.0686 73.6093 81.5078 73.6093C81.7939 73.6093 82.1218 73.4204 82.4918 73.0447ZM83.8744 73.6524L82.6868 74.143H82.4918V73.301C82.2317 73.5839 82.0337 73.7751 81.8979 73.8734C81.6552 74.0535 81.4038 74.143 81.1438 74.143C80.9299 74.143 80.7392 74.0789 80.5715 73.9519C80.404 73.8248 80.2884 73.659 80.2248 73.4546C80.1612 73.2513 80.1294 72.964 80.1294 72.5928V72.1199H79.631V71.7994H80.1294V70.8183C80.1294 70.5232 80.05 70.3365 79.8911 70.2581C79.8131 70.2205 79.6685 70.2039 79.4576 70.2061V70.0459H80.849V71.7994H82.4918V70.7917C82.4918 70.5553 82.4441 70.3973 82.3487 70.3188C82.2677 70.2503 82.1031 70.2116 81.8546 70.2061V70.0459H83.207V71.7994H83.7011V72.1199H83.207V72.4547C83.207 73.0823 83.2532 73.4347 83.3457 73.5132C83.3947 73.5541 83.4497 73.574 83.5104 73.574C83.5999 73.574 83.7011 73.5496 83.8137 73.4999L83.8744 73.6524Z" fill="#040606"/>
<path d="M80.6555 69.2493H80.543C80.5523 68.9277 80.6192 68.6957 80.7434 68.5531C80.8675 68.4095 81.0209 68.3377 81.2038 68.3377C81.2999 68.3377 81.3878 68.3531 81.4673 68.3841C81.5728 68.4239 81.7222 68.5079 81.9155 68.636C82.1088 68.7631 82.2524 68.8272 82.3461 68.8272C82.421 68.8272 82.4871 68.7951 82.5446 68.7321C82.6021 68.6692 82.6472 68.5377 82.68 68.3377H82.789C82.7913 68.5565 82.7626 68.7288 82.7029 68.857C82.6431 68.9852 82.5588 69.0846 82.4498 69.1564C82.3408 69.2283 82.2312 69.2636 82.1211 69.2636C81.936 69.2636 81.7064 69.1697 81.4322 68.9819C81.2846 68.8813 81.185 68.8205 81.1335 68.7995C81.082 68.7785 81.0315 68.7675 80.9824 68.7675C80.8863 68.7675 80.8101 68.8095 80.7539 68.8946C80.7281 68.9343 80.6953 69.0526 80.6555 69.2493Z" fill="#040606"/>
<path d="M105.919 45.6909V44.7672H104.276V45.3528C104.276 45.9539 104.496 46.2556 104.935 46.2556C105.221 46.2556 105.549 46.0677 105.919 45.6909ZM107.301 46.2987L106.114 46.7893H105.919V45.9473C105.659 46.2313 105.461 46.4213 105.325 46.5196C105.083 46.6998 104.831 46.7893 104.571 46.7893C104.357 46.7893 104.166 46.7252 103.999 46.5981C103.831 46.471 103.716 46.3053 103.652 46.1009C103.589 45.8976 103.557 45.6103 103.557 45.2401V44.7672H103.058V44.4457H103.557V43.4645C103.557 43.1695 103.477 42.9828 103.318 42.9054C103.24 42.8678 103.095 42.8502 102.885 42.8535V42.6922H104.276V44.4457H105.919V43.4391C105.919 43.2015 105.871 43.0435 105.776 42.9662C105.695 42.8966 105.53 42.859 105.282 42.8535V42.6922H106.635V44.4457H107.128V44.7672H106.635V45.1009C106.635 45.7285 106.681 46.0821 106.772 46.1594C106.822 46.2003 106.877 46.2202 106.938 46.2202C107.027 46.2202 107.128 46.1959 107.242 46.1473L107.301 46.2987Z" fill="#040606"/>
<path d="M99.9976 45.6909V44.7672H98.3544V45.3528C98.3544 45.9539 98.574 46.2556 99.0132 46.2556C99.2991 46.2556 99.6279 46.0677 99.9976 45.6909ZM101.38 46.2987L100.192 46.7893H99.9976V45.9473C99.7372 46.2313 99.5396 46.4213 99.4039 46.5196C99.1611 46.6998 98.9095 46.7893 98.649 46.7893C98.4361 46.7893 98.2451 46.7252 98.0774 46.5981C97.9097 46.471 97.7938 46.3053 97.7309 46.1009C97.6669 45.8976 97.6349 45.6103 97.6349 45.2401V44.7672H97.1372V44.4457H97.6349V43.4645C97.6349 43.1695 97.5554 42.9828 97.3965 42.9054C97.3181 42.8678 97.1747 42.8502 96.9628 42.8535V42.6922H98.3544V44.4457H99.9976V43.4391C99.9976 43.2015 99.9502 43.0435 99.8542 42.9662C99.7736 42.8966 99.6092 42.859 99.3598 42.8535V42.6922H100.713V44.4457H101.207V44.7672H100.713V45.1009C100.713 45.7285 100.759 46.0821 100.852 46.1594C100.9 46.2003 100.956 46.2202 101.016 46.2202C101.106 46.2202 101.207 46.1959 101.32 46.1473L101.38 46.2987Z" fill="#040606"/>
<path d="M60.3721 5.16196C62.0976 4.82054 63.8726 4.75423 65.6399 4.78959C67.4086 4.84262 69.1785 5.0382 70.9258 5.3741C74.4214 6.04259 77.828 7.25911 80.9917 8.94524C82.5704 9.79383 84.0979 10.7441 85.5418 11.8092C86.2647 12.3418 86.9776 12.8876 87.6607 13.4699C87.834 13.6125 88.0006 13.7617 88.1706 13.9086C88.3405 14.0545 88.5094 14.2025 88.6749 14.3539C88.8415 14.5064 89.006 14.65 89.1748 14.8091C89.3459 14.9694 89.5114 15.1329 89.6758 15.2975C90.0014 15.6301 90.3137 15.9715 90.6139 16.3229C90.9119 16.6754 91.1966 17.0367 91.4714 17.4024C92.0199 18.1383 92.522 18.8985 92.991 19.6753C93.929 21.2277 94.7115 22.852 95.4145 24.4972C96.1174 26.1447 96.7156 27.8253 97.2574 29.518C97.8004 31.2097 98.265 32.9223 98.6899 34.6394C99.1137 36.3576 99.4767 38.0879 99.8111 39.8204C100.136 41.5563 100.427 43.2943 100.676 45.0379C101.181 48.5251 101.538 52.0277 101.781 55.5337C101.842 56.4099 101.895 57.2872 101.938 58.1646C101.984 59.0419 102.018 59.9192 102.043 60.7976C102.098 62.5522 102.125 64.3091 102.086 66.0637C101.993 65.1908 101.9 64.319 101.796 63.4495C101.695 62.5788 101.596 61.7092 101.484 60.8407L101.144 58.2375L100.784 55.6398C100.288 52.1791 99.7206 48.7328 99.0651 45.3097C98.7329 43.5993 98.3842 41.8933 97.9957 40.1994C97.6172 38.5022 97.1945 36.8172 96.7432 35.1432C95.8327 31.8008 94.77 28.5026 93.417 25.3535C92.7405 23.7812 91.979 22.252 91.1193 20.799C90.2563 19.3493 89.2697 17.9858 88.1375 16.798C87.9951 16.65 87.8505 16.5052 87.7038 16.3638C87.557 16.2201 87.3948 16.0732 87.2402 15.9273C87.0857 15.7804 86.9268 15.6378 86.7679 15.4953C86.609 15.3539 86.4523 15.208 86.2901 15.0699C85.6489 14.5075 84.9913 13.9639 84.3172 13.4401C82.9685 12.396 81.5591 11.4269 80.0865 10.5618C77.1492 8.81708 73.9744 7.4569 70.6559 6.52876C68.9961 6.06911 67.3021 5.7078 65.5837 5.47245C64.725 5.34869 63.8598 5.25809 62.9908 5.20616C62.1215 5.14981 61.2481 5.12329 60.3721 5.16196Z" fill="#040606"/>
<path d="M60.265 40.1386L55.1717 15.5329L56.397 15.2787L61.4902 39.8845L60.265 40.1386Z" fill="#040606"/>
<path d="M91.1392 10.3938C91.1403 10.3938 91.1403 10.3938 91.1403 10.3927C91.3213 10.1308 91.649 9.83141 90.9538 9.28999C90.5024 8.93752 90.1758 9.111 89.9882 9.17287C89.8778 9.20934 89.7774 9.269 89.6891 9.34524L85.2988 13.1274C85.2988 13.1274 84.6845 13.6048 85.2576 15.8942C85.8531 18.2742 84.3315 21.7094 82.8324 23.2862C81.3332 24.8618 79.9841 25.9502 79.5344 27.8452C79.0846 29.7401 78.485 32.4417 77.3606 34.1676C76.2362 35.8935 74.3624 39.0459 73.5379 40.2845C72.7133 41.5231 68.8924 45.3506 68.8924 45.3506L66.492 43.4733C66.492 43.4733 66.8667 42.3485 65.7424 41.8977C64.6181 41.448 63.9435 41.448 63.9435 41.448V39.7961L56.9727 40.2845C56.9726 40.2845 56.9726 40.2845 56.9725 40.2845C56.9655 40.2856 53.9734 41.0745 53.2246 43.0988C52.4751 45.1252 51.3508 50.5283 52.3252 52.2543C53.2997 53.9802 52.9205 54.3558 54.4592 55.3315C55.9949 56.3049 57.4166 56.0829 57.4222 56.0817C57.4221 56.0817 57.4223 56.0817 57.4222 56.0817C57.4281 56.0851 58.9427 56.8342 58.5951 57.7336C58.2468 58.6341 54.4989 59.759 53.7494 60.6595C52.9998 61.56 51.3508 62.7611 50.976 65.1632C50.6012 67.5642 51.4258 67.7896 50.3763 68.6901C49.327 69.5907 46.4036 71.6171 46.1788 73.869C45.9539 76.1197 46.1702 77.4468 48.1734 79.2997C50.1767 81.1527 55.9231 75.8192 56.8225 75.2192C57.722 74.6192 58.8971 74.469 58.647 75.7452C58.3967 77.0203 57.7589 86.4708 57.7589 86.4708C57.7589 86.4708 62.6318 88.9436 65.3702 89.7624C69.3868 90.9623 73.8851 91.6175 73.8867 91.6175C73.8868 91.6175 73.8868 91.6175 73.8868 91.6175L79.1595 78.4467C79.1595 78.4467 79.4206 77.6213 78.653 75.0689C77.8853 72.5176 79.2706 65.688 78.653 63.3622C78.0353 61.0352 76.9109 58.7082 76.1613 56.9823C75.4118 55.2564 74.3624 51.8797 75.1119 50.6786C75.8615 49.4776 79.2346 44.5241 79.9092 43.1739C80.5837 41.8226 81.6331 37.4404 82.5327 35.5421C83.4321 33.6427 86.4302 30.3401 86.8805 28.7645C87.3297 27.1888 87.8549 23.2111 88.6793 21.0343C89.5037 18.8587 90.9273 16.0069 90.9273 16.0058L91.6777 14.8058L91.7837 14.5981C91.8896 14.3937 91.8036 14.1429 91.595 14.0456C91.595 14.0456 91.212 13.9307 91.1337 13.8302C91.073 13.7517 91.0741 13.5141 91.1337 13.4357C91.2198 13.3241 91.6987 13.2832 91.3919 12.7573C91.2308 12.481 90.9052 12.8644 90.6989 12.6191C90.5477 12.439 91.5851 11.9938 91.2727 11.459C90.9207 10.8579 90.2906 11.5783 90.2906 11.5783L91.1392 10.3938Z" fill="#040606"/>
<defs>
<radialGradient id="paint0_radial" cx="0" cy="0" r="1" gradientUnits="userSpaceOnUse" gradientTransform="translate(78.3516 46.0059) scale(45.2663 45.3219)">
<stop stop-color="#F8DC19"/>
<stop offset="0.26" stop-color="#F8DC19"/>
<stop offset="0.855" stop-color="#F9A71B"/>
<stop offset="1" stop-color="#F9A71B"/>
</radialGradient>
</defs>
</svg>
