<svg width="28" height="28" viewBox="0 0 28 28" fill="none" xmlns="http://www.w3.org/2000/svg">
<path d="M0.5 0H18.4373V1.89875H3.46288V22.2409H0.5V0Z" fill="#1D94A4"/>
<path d="M5.03135 2.91172V25.1526H7.99423V4.81047H22.9687V2.91172H5.03135Z" fill="#1D94A4"/>
<path fill-rule="evenodd" clip-rule="evenodd" d="M27.5 6.03619H10.0092V28H27.5V6.03619ZM13.2056 10.9529C12.9146 10.8997 12.613 10.9579 12.3683 11.1145C12.1236 11.2711 11.9563 11.513 11.9039 11.786C11.3869 14.4769 11.4654 17.5411 12.4608 19.9586C12.9622 21.1764 13.7178 22.2802 14.8028 23.0646C15.905 23.8615 17.279 24.2782 18.8959 24.2085C20.6037 24.135 21.9985 23.772 23.0909 23.075C24.1975 22.369 24.8926 21.3851 25.3138 20.2481C25.7275 19.1312 25.8843 17.849 25.9233 16.4908C25.9624 15.1286 25.8835 13.6221 25.7892 12.0441C25.7724 11.7637 25.6346 11.5016 25.4074 11.3181C25.1801 11.1345 24.883 11.0452 24.584 11.0707C22.769 11.225 21.5334 11.5592 20.7215 11.8826C20.3156 12.0443 20.0175 12.2025 19.8076 12.3324C19.7028 12.3973 19.6205 12.4549 19.5581 12.502C19.5412 12.5147 19.5257 12.5267 19.5117 12.5378L19.3587 12.6401L20.6455 14.3252L20.8441 14.1924C20.8802 14.1683 20.9146 14.1422 20.9473 14.1143C20.9561 14.1077 20.9825 14.0884 21.0292 14.0595C21.1235 14.0011 21.3025 13.9021 21.5883 13.7882C22.011 13.6199 22.6717 13.4175 23.6422 13.2678C23.7026 14.4166 23.7383 15.4725 23.7107 16.4352C23.6743 17.7038 23.5286 18.7434 23.2225 19.5698C22.9238 20.3762 22.4818 20.957 21.844 21.3639C21.1921 21.7798 20.2353 22.0776 18.7942 22.1397C17.6704 22.1881 16.8191 21.9052 16.156 21.4258C15.4757 20.9339 14.9259 20.1849 14.5262 19.214C13.8405 17.5487 13.6604 15.3804 13.91 13.266C14.8593 13.5534 15.8386 13.9642 16.3684 14.318L16.4625 14.3838C16.9536 14.7266 17.4163 15.0496 17.8089 15.6966C18.2323 16.3943 18.6237 17.5697 18.5835 19.6773L20.7965 19.7143C20.8414 17.3612 20.4099 15.7884 19.7337 14.674C19.1048 13.6377 18.3079 13.0852 17.8027 12.735C17.778 12.718 17.7541 12.7014 17.7309 12.6852C17.7158 12.6747 17.701 12.6644 17.6866 12.6542L17.6685 12.6418C16.5975 11.9216 14.6207 11.212 13.2056 10.9529Z" fill="#1D94A4"/>
</svg>
