<svg width="24" height="26" viewBox="0 0 24 26" fill="none" xmlns="http://www.w3.org/2000/svg">
<path d="M4.47714 24.6096L8.36856 23.1499L5.66213 20.1505C4.17369 18.5009 2.89985 17.2321 2.83149 17.331C2.64133 17.6058 0.408397 25.9172 0.502917 25.9983C0.548287 26.0371 2.33692 25.4124 4.47714 24.6096ZM12.971 18.0057L16.669 13.8656L13.86 10.7499L11.0511 7.63432L7.35307 11.7743L3.65507 15.9143L6.46409 19.0301L9.27311 22.1457L12.971 18.0057ZM18.8375 11.46L20.0772 10.033L17.2894 6.92262L14.5016 3.81223L13.234 5.2265L11.9665 6.64078L14.7821 9.76392L17.5978 12.887L18.8375 11.46ZM22.4112 7.41692C24.0125 5.38208 23.8855 4.28221 21.7775 1.93033C19.6165 -0.480776 18.6476 -0.590337 16.7518 1.36209L15.4019 2.7522L18.1032 5.79723C19.5888 7.47193 20.9136 8.84214 21.047 8.84214C21.1805 8.84214 21.7943 8.20082 22.4112 7.41692Z" fill="#96668F"/>
</svg>
