<svg width="19" height="20" viewBox="0 0 19 20" fill="none" xmlns="http://www.w3.org/2000/svg">
<path fill-rule="evenodd" clip-rule="evenodd" d="M1.0313 0.758624C1.35542 0.53462 1.75493 0.451382 2.14031 0.527563C4.01486 0.89812 6.63338 1.91316 8.05195 2.94341C8.06001 2.94926 8.06801 2.9552 8.07594 2.96121C8.12449 2.99801 8.17587 3.03646 8.22975 3.0768C8.89891 3.57774 9.95461 4.36805 10.7875 5.85042C11.6833 7.44456 12.2548 9.69439 12.1954 13.0604L9.26397 13.0075C9.31724 9.99254 8.79876 8.31124 8.23795 7.31315C7.71792 6.38764 7.10503 5.92563 6.45447 5.43522C6.41307 5.40401 6.37152 5.37269 6.32983 5.34112C5.62803 4.83512 4.33088 4.24741 3.07341 3.83634C2.74277 6.8609 2.98133 9.9625 3.8896 12.3447C4.41909 13.7335 5.14742 14.805 6.04857 15.5086C6.92693 16.1943 8.05448 16.599 9.5431 16.5298C11.4521 16.4411 12.7194 16.015 13.583 15.42C14.4278 14.838 15.0132 14.0071 15.4089 12.8537C15.8144 11.6715 16.0074 10.1845 16.0556 8.36977C16.0922 6.99257 16.0449 5.48213 15.9649 3.83888C14.6793 4.05297 13.8042 4.3425 13.2443 4.58333C12.8656 4.74617 12.6286 4.88783 12.5037 4.97137C12.4418 5.01272 12.4068 5.04027 12.3952 5.0497C12.3519 5.08971 12.3062 5.12707 12.2584 5.16156L11.9953 5.35151L10.2909 2.94099L10.4936 2.79468C10.5121 2.77877 10.5325 2.76165 10.5549 2.74341C10.6376 2.67608 10.7467 2.5937 10.8855 2.50086C11.1635 2.31495 11.5584 2.08864 12.096 1.85742C13.1715 1.39482 14.8082 0.916768 17.2124 0.69596C17.6084 0.659592 18.0021 0.787332 18.3031 1.04989C18.604 1.31244 18.7866 1.68728 18.8088 2.08845C18.9337 4.34575 19.0382 6.50074 18.9864 8.44926C18.9348 10.3921 18.7271 12.2263 18.1791 13.8239C17.6212 15.4503 16.7005 16.8579 15.2346 17.8678C13.7876 18.8647 11.94 19.3841 9.67784 19.4893C7.53604 19.5888 5.71605 18.9928 4.25603 17.8529C2.81881 16.7309 1.81796 15.1519 1.15375 13.4098C-0.164735 9.95164 -0.268761 5.56852 0.416062 1.7192C0.485541 1.32867 0.707174 0.982628 1.0313 0.758624Z" fill="#E8591B"/>
</svg>
