<?xml version="1.0" encoding="UTF-8" standalone="no"?>
<!-- Created with Inkscape (http://www.inkscape.org/) -->

<svg
   xmlns:dc="http://purl.org/dc/elements/1.1/"
   xmlns:cc="http://creativecommons.org/ns#"
   xmlns:rdf="http://www.w3.org/1999/02/22-rdf-syntax-ns#"
   xmlns:svg="http://www.w3.org/2000/svg"
   xmlns="http://www.w3.org/2000/svg"
   xmlns:sodipodi="http://sodipodi.sourceforge.net/DTD/sodipodi-0.dtd"
   xmlns:inkscape="http://www.inkscape.org/namespaces/inkscape"
   width="3.2612295in"
   height="0.46313727in"
   viewBox="0 0 293.51065 41.682358"
   id="svg2"
   version="1.1"
   inkscape:version="0.92.2 (5c3e80d, 2017-08-06)"
   sodipodi:docname="back-cover-outside.svg">
  <defs
     id="defs4" />
  <sodipodi:namedview
     id="base"
     pagecolor="#ffffff"
     bordercolor="#666666"
     borderopacity="1.0"
     inkscape:pageopacity="0.0"
     inkscape:pageshadow="2"
     inkscape:zoom="2.8"
     inkscape:cx="84.486839"
     inkscape:cy="13.83569"
     inkscape:document-units="px"
     inkscape:current-layer="g4936"
     showgrid="false"
     units="in"
     inkscape:window-width="1920"
     inkscape:window-height="1137"
     inkscape:window-x="-8"
     inkscape:window-y="-8"
     inkscape:window-maximized="1"
     showguides="true"
     inkscape:guide-bbox="true"
     fit-margin-top="0"
     fit-margin-left="0"
     fit-margin-right="0"
     fit-margin-bottom="0" />
  <metadata
     id="metadata7">
    <rdf:RDF>
      <cc:Work
         rdf:about="">
        <dc:format>image/svg+xml</dc:format>
        <dc:type
           rdf:resource="http://purl.org/dc/dcmitype/StillImage" />
        <dc:title />
      </cc:Work>
    </rdf:RDF>
  </metadata>
  <g
     inkscape:label="Layer 1"
     inkscape:groupmode="layer"
     id="layer1"
     transform="translate(-176.03884,-1002.4735)">
    <g
       id="g4535"
       transform="translate(0,-0.76334488)">
      <path
         id="path4143"
         inkscape:connector-curvature="0"
         inkscape:export-filename="X:\dev\b36\src\BloomExe\Resources\LogoForSplashScreen.png"
         inkscape:export-xdpi="108.54"
         inkscape:export-ydpi="108.54"
         sodipodi:nodetypes="cccsccc"
         class="st1"
         d="m 194.3279,1034.021 c 0.19203,-10.7554 -3.71319,-13.2522 -6.01786,-14.9807 -2.04864,-1.4724 -6.14596,-3.073 -9.09086,-3.6491 -2.22635,12.3843 0.83587,27.5853 13.20249,27.0163 14.20846,-0.6536 14.02689,-11.4413 13.17371,-26.6962 -7.74637,0.7041 -10.11517,3.0089 -10.11517,3.0089 l -0.44811,0.3201"
         style="opacity:1;fill:none;stroke:#4d4d4d;stroke-width:4.99400043;stroke-linejoin:round;stroke-miterlimit:4;stroke-dasharray:none;stroke-opacity:1" />
      <path
         id="path7129"
         inkscape:connector-curvature="0"
         sodipodi:nodetypes="ccscsccsscscccccssscccscscscccsscsccccscccsccsccccssscccsccscssscscssssccscsssccccssscccsccscssscscssssccscsssccscccscccsccscsccccccscsccccccccc"
         class="st2"
         d="m 217.40027,1014.1623 c 0.96973,-0.1293 2.26269,-0.1939 3.68494,-0.3232 1.48693,-0.065 3.1678,-0.1293 5.10725,-0.1293 3.68494,0 6.52944,0.7111 8.46889,2.0688 1.93945,1.3575 2.90918,3.2324 2.90918,5.6243 0,1.6162 -0.38786,2.9092 -1.2283,4.0082 -0.84044,1.099 -2.06873,2.0041 -3.68494,2.7152 1.93945,0.7112 3.42631,1.6162 4.39609,2.8446 0.96973,1.2283 1.48687,2.7152 1.48687,4.5254 0,2.7152 -1.03434,4.9132 -3.16774,6.5294 -2.13341,1.6162 -5.23654,2.392 -9.374,2.392 -1.7455,0 -3.3617,-0.065 -4.97791,-0.1293 -1.55159,-0.065 -2.77989,-0.1939 -3.685,-0.3232 l 0.0647,-29.8029 m 8.92148,26.8291 c 2.58593,0 4.58999,-0.4525 5.94763,-1.3577 1.42225,-0.905 2.1334,-2.2626 2.1334,-4.0081 0,-1.7455 -0.71115,-3.0385 -2.06873,-4.0082 -1.42231,-0.9697 -3.42637,-1.4869 -6.0123,-1.4869 h -4.9133 v 10.6023 c 1.5516,0.1939 3.1678,0.2586 4.9133,0.2586 m -0.12929,-13.9641 c 2.26269,0 4.0728,-0.4525 5.36576,-1.4222 1.35764,-0.9051 2.00412,-2.1334 2.00412,-3.685 0,-1.6162 -0.64648,-2.8445 -1.93944,-3.685 -1.29297,-0.8403 -3.10313,-1.2283 -5.36582,-1.2283 -0.96973,0 -1.81017,0 -2.58594,0.065 -0.77576,0.065 -1.48692,0.065 -2.1334,0.1293 v 9.7619 l 4.65472,0.065 z m 19.91168,9.6973 c 0,1.5516 0.25857,2.7152 0.90506,3.4263 0.64648,0.7112 1.55153,1.099 2.6506,1.099 0.51714,0 1.09901,-0.065 1.61621,-0.1939 0.51714,-0.1293 0.96972,-0.2586 1.35758,-0.4525 l 0.96972,3.1031 c -0.5172,0.2586 -1.16368,0.4525 -1.87478,0.5818 -0.77576,0.194 -1.6162,0.2586 -2.52131,0.2586 -0.96973,0 -1.93945,-0.1293 -2.77983,-0.4525 -0.84044,-0.2586 -1.5516,-0.7111 -2.19808,-1.3576 -0.64648,-0.5818 -1.09901,-1.3577 -1.48692,-2.3274 -0.38786,-0.9697 -0.51714,-2.0687 -0.51714,-3.4263 v -24.631 h 3.87889 z m 26.11789,-3.8143 c 0,-1.099 -0.19396,-2.198 -0.5172,-3.1678 -0.38786,-0.9697 -0.84038,-1.8747 -1.48686,-2.5859 -0.64649,-0.7111 -1.42231,-1.3576 -2.26269,-1.8101 -0.84044,-0.4526 -1.81017,-0.6465 -2.84456,-0.6465 -2.26269,0 -4.00819,0.7111 -5.23648,2.198 -1.22835,1.487 -1.87483,3.4264 -1.87483,5.8831 0,1.099 0.19395,2.198 0.51719,3.1677 0.38792,1.0344 0.84044,1.8748 1.48693,2.6506 0.64648,0.7758 1.42225,1.3576 2.26269,1.8101 0.84043,0.4526 1.81016,0.6465 2.8445,0.6465 1.09901,0 2.1334,-0.1939 2.97384,-0.5818 0.90505,-0.3879 1.61621,-0.9697 2.26269,-1.6809 0.58181,-0.7111 1.09901,-1.6162 1.42225,-2.5859 0.25857,-0.9698 0.45253,-2.0688 0.45253,-3.2971 m -18.23081,0 c 0,-1.8101 0.25857,-3.4263 0.84044,-4.8486 0.58181,-1.4223 1.35758,-2.6506 2.32731,-3.685 0.96972,-0.9697 2.1334,-1.7455 3.49104,-2.3273 1.35758,-0.5172 2.8445,-0.8404 4.39609,-0.8404 1.55154,0 2.97379,0.2586 4.33143,0.8404 1.35758,0.5172 2.52126,1.293 3.55565,2.3273 0.96973,0.9698 1.81017,2.1981 2.32731,3.6204 0.58186,1.4222 0.84044,3.0384 0.84044,4.784 0,1.7455 -0.25858,3.3617 -0.84044,4.8486 -0.58182,1.4222 -1.35758,2.6505 -2.32731,3.6849 -0.96972,1.0344 -2.19807,1.8102 -3.55565,2.392 -1.35764,0.5818 -2.84456,0.8404 -4.3961,0.8404 -1.61621,0 -3.10313,-0.2586 -4.46071,-0.8404 -1.35763,-0.5818 -2.52131,-1.3576 -3.49104,-2.392 -0.96972,-1.0344 -1.74549,-2.2627 -2.32736,-3.6849 -0.45253,-1.4223 -0.7111,-2.9739 -0.7111,-4.7194 z m 43.18507,0 c 0,-1.099 -0.19396,-2.198 -0.5172,-3.1678 -0.38785,-0.9697 -0.84044,-1.8747 -1.48692,-2.5859 -0.64648,-0.7111 -1.42225,-1.3576 -2.26269,-1.8101 -0.84038,-0.4526 -1.81011,-0.6465 -2.8445,-0.6465 -2.26269,0 -4.00818,0.7111 -5.23654,2.198 -1.22829,1.487 -1.87477,3.4264 -1.87477,5.8831 0,1.099 0.19395,2.198 0.51719,3.1677 0.38786,1.0344 0.84044,1.8748 1.48693,2.6506 0.64648,0.7758 1.42225,1.3576 2.26269,1.8101 0.84038,0.4526 1.8101,0.6465 2.8445,0.6465 1.09901,0 2.1334,-0.1939 2.97384,-0.5818 0.90505,-0.3879 1.61621,-0.9697 2.26269,-1.6809 0.58181,-0.7111 1.09901,-1.6162 1.42225,-2.5859 0.32324,-0.9698 0.45253,-2.0688 0.45253,-3.2971 m -18.23081,0 c 0,-1.8101 0.25857,-3.4263 0.84044,-4.8486 0.58181,-1.4223 1.35758,-2.6506 2.32731,-3.685 0.96972,-0.9697 2.1334,-1.7455 3.49104,-2.3273 1.35758,-0.5172 2.8445,-0.8404 4.39604,-0.8404 1.55159,0 2.97384,0.2586 4.33148,0.8404 1.35758,0.5172 2.52126,1.293 3.55565,2.3273 0.96973,0.9698 1.81011,2.1981 2.32731,3.6204 0.58187,1.4222 0.84044,3.0384 0.84044,4.784 0,1.7455 -0.25857,3.3617 -0.84044,4.8486 -0.58182,1.4222 -1.35758,2.6505 -2.32731,3.6849 -0.96972,1.0344 -2.19807,1.8102 -3.55565,2.392 -1.35764,0.5818 -2.84456,0.8404 -4.3961,0.8404 -1.6162,0 -3.10313,-0.2586 -4.46076,-0.8404 -1.35758,-0.5818 -2.52126,-1.3576 -3.49099,-2.392 -0.96972,-1.0344 -1.74549,-2.2627 -2.32736,-3.6849 -0.45253,-1.4223 -0.7111,-2.9739 -0.7111,-4.7194 z m 29.22102,-7.3699 c 0.77576,-1.2283 1.81016,-2.198 3.03845,-3.0385 1.22836,-0.8404 2.65061,-1.2282 4.20214,-1.2282 1.74555,0 3.23242,0.4525 4.33148,1.2929 1.09901,0.8404 1.93945,2.0041 2.39198,3.4263 0.90505,-1.2929 1.93945,-2.4566 3.16774,-3.3617 1.22835,-0.905 2.71527,-1.3575 4.52538,-1.3575 1.22835,0 2.26269,0.1939 3.1678,0.5818 0.90505,0.3879 1.68082,0.9697 2.26269,1.6808 0.58181,0.7111 1.03434,1.6163 1.35758,2.586 0.32324,1.0343 0.45258,2.1333 0.45258,3.3617 v 14.5458 h -3.87889 v -14.2226 c 0,-1.5516 -0.38791,-2.7799 -1.09907,-3.7496 -0.7111,-0.9697 -1.68082,-1.4222 -2.97379,-1.4222 -0.64648,0 -1.29296,0.1292 -1.87483,0.3878 -0.58181,0.2586 -1.16362,0.5819 -1.74549,1.0344 -0.5172,0.4525 -1.03434,0.9697 -1.55154,1.5515 -0.5172,0.5819 -0.90511,1.1637 -1.35763,1.8102 v 14.6105 h -3.8789 v -14.2226 c 0,-1.5516 -0.38791,-2.7799 -1.09901,-3.7496 -0.71116,-0.9697 -1.68088,-1.4222 -2.97385,-1.4222 -0.64648,0 -1.22829,0.1292 -1.87477,0.3878 -0.58187,0.2586 -1.16368,0.5819 -1.74549,1.0344 -0.58187,0.4525 -1.09907,0.9051 -1.5516,1.4869 -0.5172,0.5818 -0.90505,1.1637 -1.35758,1.8102 v 14.6751 h -3.87889 v -22.239 h 3.74955 z"
         style="fill:#4d4d4d;fill-opacity:1" />
      <g
         transform="matrix(0.64648317,0,0,0.64648317,160.2512,985.19994)"
         id="g7131"
         style="fill:#4d4d4d;fill-opacity:1">
        <path
           id="path7133"
           inkscape:connector-curvature="0"
           class="st3"
           d="m 146.7,44.7 c 0.2,-0.1 0.4,-0.1 0.5,-0.2 2.1,-0.6 3.7,-0.9 4.6,-0.9 0.7,0 1,0.2 1,0.7 0,0.2 -0.1,0.4 -0.2,0.5 -0.1,0.1 -0.3,0.2 -0.5,0.2 -0.1,0 -0.2,0 -0.4,0 -0.1,0 -0.3,0 -0.3,0 -0.5,0 -1.3,0.1 -2.1,0.4 -0.3,0.1 -0.9,0.3 -1.9,0.7 -0.6,0.3 -1.1,0.4 -1.6,0.4 -0.3,0 -0.5,-0.1 -0.7,-0.4 -0.2,-0.2 -0.3,-0.5 -0.3,-0.8 0,-0.3 0.2,-0.9 0.5,-1.7 1.1,-2.5 2.4,-4.7 3.7,-6.7 1.9,-2.8 3.3,-4.9 4.4,-6.3 0.3,-0.3 0.5,-0.7 0.8,-1 0.4,-0.6 0.8,-0.9 1.1,-0.9 0.2,0 0.3,0.1 0.4,0.2 0.1,0.1 0.2,0.3 0.2,0.4 0,0.2 -0.1,0.5 -0.4,0.9 -0.1,0.1 -0.4,0.6 -1.1,1.5 -1.3,1.7 -2.3,3 -2.9,4 -0.6,0.9 -1.4,2 -2.1,3.1 -1.3,2.3 -2.2,4.3 -2.7,5.9 z"
           style="fill:#4d4d4d;fill-opacity:1" />
        <path
           id="path7135"
           inkscape:connector-curvature="0"
           class="st3"
           d="m 155.6,43.2 v 0.2 c 0,0.2 0,0.4 0.1,0.5 0.2,0.3 0.6,0.5 1.1,0.5 1.1,0 2.5,-0.8 4,-2.6 0.3,-0.3 0.5,-0.4 0.6,-0.4 0.1,0 0.2,0 0.3,0.1 0.1,0.1 0.1,0.1 0.1,0.2 0,0.3 -0.4,0.9 -1.4,1.8 -0.7,0.6 -1.5,1.3 -2.2,1.7 -0.7,0.4 -1.5,0.6 -2.2,0.6 -0.7,0 -1.3,-0.2 -1.7,-0.7 -0.3,-0.3 -0.4,-0.7 -0.4,-1.4 0,-1.6 0.7,-3 2.2,-4.6 1.1,-1.3 2.2,-1.8 3.1,-1.8 0.2,0 0.4,0.1 0.6,0.2 0.2,0.2 0.3,0.5 0.3,0.8 0,0.5 -0.1,1.2 -0.4,1.8 -0.9,1.8 -2.3,2.5 -4.1,3.1 z m 0.3,-1.1 c 0.6,-0.2 1,-0.3 1.6,-0.7 0.8,-0.6 1.1,-0.9 1.6,-1.7 0.1,-0.2 0.2,-0.4 0.2,-0.6 0,-0.2 -0.1,-0.3 -0.3,-0.3 -0.2,0 -0.6,0.2 -1,0.5 -1,0.7 -1.6,1.6 -2.1,2.8 z"
           style="fill:#4d4d4d;fill-opacity:1" />
        <path
           id="path7137"
           inkscape:connector-curvature="0"
           class="st3"
           d="m 166.6,36.9 c -0.6,0.9 -1.1,2 -1.7,3.1 -0.7,1.7 -1,2.8 -1,3.7 0,0.2 0,0.4 0.1,0.5 0.1,0.1 0.2,0.2 0.4,0.2 0.4,0 1,-0.4 1.7,-1.3 0.4,-0.5 0.7,-1 1.1,-1.6 0.2,-0.3 0.3,-0.4 0.5,-0.4 0.1,0 0.2,0 0.3,0.1 0.1,0.1 0.1,0.2 0.1,0.2 0,0.3 -0.4,1.1 -1.4,2.3 -1,1.5 -2.1,2.1 -2.9,2.1 -0.4,0 -0.8,-0.2 -1.1,-0.6 -0.2,-0.3 -0.3,-0.6 -0.3,-1.1 0,-1.1 0.3,-2.4 0.9,-3.9 0.1,-0.4 0.6,-1.3 1.3,-2.6 -0.2,0.1 -0.4,0.1 -0.5,0.1 -0.2,0 -0.3,0 -0.5,-0.1 -0.2,-0.1 -0.3,-0.3 -0.3,-0.5 0,-0.2 0.1,-0.4 0.4,-0.5 0.1,0 0.4,-0.1 1,-0.2 0.2,0 0.5,-0.1 0.9,-0.3 0.3,-0.6 0.8,-1.4 1.6,-2.4 0.4,-0.5 0.7,-0.9 0.8,-1 0.2,-0.2 0.4,-0.3 0.6,-0.3 0.1,0 0.2,0.1 0.3,0.2 0.1,0.1 0.2,0.2 0.2,0.3 0,0.2 -0.2,0.7 -0.7,1.5 -0.3,0.4 -0.6,0.8 -0.7,1.1 1,-0.3 1.8,-0.4 2.2,-0.4 0.5,0 0.7,0.2 0.7,0.6 0,0.2 -0.1,0.4 -0.3,0.4 -0.1,0.1 -0.3,0.1 -0.7,0.1 -0.1,0 -0.8,0.2 -2.1,0.5 -0.2,0 -0.6,0.1 -0.9,0.2 z"
           style="fill:#4d4d4d;fill-opacity:1" />
        <path
           id="path7139"
           inkscape:connector-curvature="0"
           class="st3"
           d="m 176,27.9 c 0.1,0 0.2,0 0.3,0.1 0.1,0.1 0.2,0.3 0.2,0.5 0,0.4 -0.5,1.7 -1.7,3.8 -0.4,0.7 -0.7,1.1 -0.8,1.4 -0.1,0.1 -0.3,0.2 -0.4,0.2 -0.3,0 -0.5,-0.2 -0.5,-0.6 0,-0.3 0.2,-0.7 0.5,-1.4 0.8,-1.7 1.3,-2.5 1.3,-2.7 0.3,-0.9 0.7,-1.3 1.1,-1.3 z"
           style="fill:#4d4d4d;fill-opacity:1" />
        <path
           id="path7141"
           inkscape:connector-curvature="0"
           class="st3"
           d="m 177.3,36.6 c 0.5,0 1,0.1 1.3,0.3 0.3,0.2 0.4,0.5 0.4,0.9 0,0.5 -0.2,1 -0.6,1.6 -0.4,0.6 -0.9,0.8 -1.8,1.1 -0.4,0.1 -0.7,0.2 -1,0.2 -0.4,0 -0.6,-0.2 -0.6,-0.5 0,-0.2 0.1,-0.4 0.3,-0.5 0.1,0 0.4,-0.1 0.9,-0.2 0.3,-0.1 0.6,-0.2 0.9,-0.5 0.2,-0.2 0.4,-0.4 0.4,-0.7 0,-0.2 -0.1,-0.3 -0.2,-0.4 -0.1,-0.1 -0.3,-0.1 -0.5,-0.1 -0.5,0 -1.1,0.2 -1.8,0.6 -0.7,0.5 -1.1,1 -1.1,1.8 0,0.5 0.2,1 0.7,1.8 0.5,0.8 0.8,1.5 0.8,2 0,0.8 -0.3,1.5 -1,1.9 -0.4,0.3 -0.9,0.4 -1.5,0.4 -0.8,0 -1.6,-0.3 -2,-0.9 -0.3,-0.4 -0.5,-0.9 -0.5,-1.6 0,-0.7 0.2,-1.4 0.5,-1.8 0.2,-0.3 0.5,-0.5 0.7,-0.5 0.2,0 0.3,0.1 0.3,0.3 0,0.1 0,0.2 -0.1,0.3 -0.2,0.4 -0.3,0.8 -0.3,1.4 0,0.4 0.2,0.8 0.5,1.1 0.3,0.3 0.6,0.4 0.9,0.4 0.3,0 0.6,-0.1 0.8,-0.3 0.2,-0.2 0.2,-0.4 0.2,-0.7 0,-0.4 -0.2,-0.8 -0.6,-1.5 -0.6,-0.8 -0.9,-1.6 -0.9,-2.3 0,-0.9 0.5,-1.8 1.5,-2.4 1.3,-0.8 2.3,-1.2 3.4,-1.2 z"
           style="fill:#4d4d4d;fill-opacity:1" />
        <path
           id="path7143"
           inkscape:connector-curvature="0"
           class="st3"
           d="m 189.3,44.7 c 0.9,-0.7 1.7,-1.4 2.2,-2 0.7,-0.8 1.3,-1.6 1.5,-2.1 0.1,-0.2 0.3,-0.3 0.4,-0.3 0.2,0 0.3,0.1 0.3,0.3 0,0.2 -0.2,0.6 -0.5,1.3 -1,1.8 -2.7,3.3 -4.9,4.6 -1,2.1 -1.8,3.5 -2.2,4.3 -1.3,2 -2.5,2.9 -3.5,2.9 -0.6,0 -1,-0.2 -1.3,-0.7 -0.1,-0.3 -0.2,-0.5 -0.2,-0.9 0,-1.5 0.9,-2.8 2.8,-4.2 0.3,-0.2 1.5,-0.9 3.5,-2.1 0.4,-0.8 0.7,-1.6 0.9,-2 -0.9,1 -1.8,1.6 -2.4,1.6 -0.4,0 -0.7,-0.2 -0.9,-0.6 -0.1,-0.3 -0.2,-0.5 -0.2,-0.8 0,-0.6 0.3,-1.5 0.8,-2.5 0.7,-1.5 1.7,-2.7 2.8,-3.5 0.9,-0.7 1.7,-1 2.4,-1 0.3,0 0.6,0.1 0.9,0.4 0.2,0.2 0.3,0.4 0.3,0.7 0,0.4 -0.1,0.9 -0.4,1.6 0.2,0.2 0.3,0.3 0.3,0.4 0,0.1 0,0.1 -0.1,0.3 -0.2,0.3 -0.6,0.9 -1.1,1.9 -0.6,0.7 -1,1.4 -1.4,2.4 z m -0.1,-3.3 c -0.1,-0.1 -0.2,-0.2 -0.2,-0.3 0,-0.1 0.1,-0.2 0.2,-0.3 0.4,-0.4 0.8,-0.9 1.1,-1.4 0.2,-0.4 0.3,-0.6 0.3,-0.8 0,-0.2 -0.1,-0.4 -0.3,-0.4 -0.4,0 -0.9,0.4 -1.7,1.1 -0.8,0.9 -1.6,1.9 -2.1,3 -0.2,0.5 -0.3,0.9 -0.3,1.3 0,0.2 0,0.3 0.1,0.4 0.1,0.1 0.2,0.1 0.3,0.1 0.3,0 0.7,-0.3 1.4,-0.9 0.4,-0.4 0.7,-0.8 0.9,-1.3 0.3,-0.3 0.3,-0.5 0.3,-0.5 z m -2.6,6.1 c -1.3,0.5 -2.3,1.3 -3.2,2.3 -0.4,0.5 -0.7,1 -0.9,1.6 -0.1,0.2 -0.1,0.3 -0.1,0.4 0,0.1 0,0.2 0.1,0.3 0.1,0.2 0.2,0.2 0.4,0.2 0.5,0 1.3,-0.6 2,-1.9 0.6,-0.9 1.2,-2 1.7,-2.9 z"
           style="fill:#4d4d4d;fill-opacity:1" />
        <path
           id="path7145"
           inkscape:connector-curvature="0"
           class="st3"
           d="m 196.4,41.3 c 0.9,-0.9 2,-1.9 3.1,-2.8 0.4,-0.3 0.8,-0.6 1.4,-0.9 0.2,-0.1 0.4,-0.2 0.4,-0.2 0.1,0 0.3,0.1 0.4,0.3 0.1,0.1 0.1,0.2 0.1,0.3 0,0.2 -0.2,0.4 -0.5,0.6 -0.9,0.7 -1.4,1.3 -1.4,1.7 0,0.2 0.1,0.3 0.3,0.3 0.4,0 1,-0.3 2.1,-0.9 0.2,-0.1 0.3,-0.2 0.4,-0.2 0.1,0 0.1,0 0.2,0.1 0.1,0.1 0.1,0.2 0.1,0.3 0,0.3 -0.4,0.7 -1.1,1.3 -0.8,0.6 -1.6,0.9 -2.3,0.9 -0.3,0 -0.5,-0.1 -0.8,-0.2 -0.2,-0.1 -0.3,-0.3 -0.3,-0.7 0,-0.2 0.1,-0.5 0.3,-0.8 -0.7,0.5 -1.6,1.4 -2.6,2.6 -0.5,0.7 -1.1,1.7 -1.7,2.8 -0.2,0.4 -0.5,0.6 -0.8,0.6 -0.3,0 -0.5,-0.2 -0.5,-0.5 0,-0.3 0.3,-1.1 0.8,-2.5 0.8,-2 1.6,-3.5 2.5,-4.7 0.5,-0.7 0.9,-1 1.4,-1 0.1,0 0.2,0 0.3,0.1 0.1,0.1 0.2,0.2 0.2,0.3 0,0.1 -0.1,0.3 -0.3,0.6 0,0 -0.3,0.3 -0.7,0.9 -0.5,0.6 -0.8,1.1 -1,1.7 z"
           style="fill:#4d4d4d;fill-opacity:1" />
        <path
           id="path7147"
           inkscape:connector-curvature="0"
           class="st3"
           d="m 207.7,36.9 c 0.7,0 1.1,0.4 1.1,1.4 0,1.3 -0.5,2.7 -1.7,4.6 -1.3,2 -2.4,3 -3.5,3 -0.5,0 -0.9,-0.2 -1.1,-0.7 -0.1,-0.2 -0.2,-0.5 -0.2,-0.9 0,-1.1 0.4,-2.4 1.3,-3.9 0.7,-1.3 1.7,-2.3 2.6,-2.9 0.5,-0.4 1.1,-0.6 1.5,-0.6 z m -1.3,5.3 c -0.2,-0.2 -0.3,-0.3 -0.3,-0.4 0,-0.1 0.1,-0.3 0.4,-0.6 0.8,-0.9 1.3,-1.7 1.3,-2.2 0,-0.1 0,-0.1 -0.1,-0.2 -0.1,-0.1 -0.2,-0.2 -0.3,-0.2 -0.3,0 -0.7,0.3 -1.3,0.8 -0.7,0.7 -1.3,1.5 -1.7,2.3 -0.4,0.9 -0.6,1.7 -0.6,2.2 0,0.1 0,0.3 0.1,0.4 0.1,0.2 0.3,0.2 0.4,0.2 0.4,0 0.9,-0.3 1.5,-0.9 0.2,-0.3 0.4,-0.5 0.5,-0.8 0,-0.5 0.1,-0.6 0.1,-0.6 z"
           style="fill:#4d4d4d;fill-opacity:1" />
        <path
           id="path7149"
           inkscape:connector-curvature="0"
           class="st3"
           d="m 213.7,41.9 c -0.8,1 -1.4,1.8 -1.8,2.2 -0.4,0.5 -0.8,0.9 -1.3,1.1 -0.4,0.3 -0.7,0.4 -1,0.4 -0.3,0 -0.5,-0.2 -0.7,-0.5 -0.1,-0.2 -0.2,-0.5 -0.2,-0.8 0,-1 0.6,-2.4 1.8,-4.2 1,-1.6 1.9,-2.4 2.4,-2.4 0.1,0 0.2,0.1 0.4,0.2 0.1,0.1 0.2,0.2 0.2,0.4 0,0.2 -0.2,0.5 -0.5,0.8 -0.7,0.7 -1.5,1.6 -2,2.5 -0.5,0.8 -0.7,1.4 -0.7,1.6 0,0.2 0.1,0.3 0.2,0.3 0.5,0 1.8,-1.1 3.5,-3.5 0.6,-0.7 0.9,-1.3 1,-1.4 0.2,-0.2 0.5,-0.3 0.7,-0.3 0.2,0 0.3,0 0.4,0.1 0.1,0.1 0.1,0.2 0.1,0.3 0,0.1 -0.2,0.5 -0.6,1.4 -1,1.8 -1.5,2.9 -1.5,3.5 0,0.2 0.1,0.3 0.3,0.3 0.3,0 0.8,-0.4 1.4,-1.1 0.5,-0.7 1,-1.7 1.6,-2.7 0.2,-0.5 0.4,-1.1 0.5,-1.9 0.2,-0.9 0.5,-1.4 1.1,-1.4 0.3,0 0.4,0.2 0.4,0.5 0,1.3 -0.6,2.8 -2,4.9 -1.4,2.2 -2.6,3.3 -3.5,3.3 -0.7,0 -1,-0.4 -1,-1.4 0.1,-0.2 0.4,-1.1 0.8,-2.2 z"
           style="fill:#4d4d4d;fill-opacity:1" />
        <path
           id="path7151"
           inkscape:connector-curvature="0"
           class="st3"
           d="m 228.6,43.5 c -0.3,0.5 -0.6,0.9 -0.9,1.4 -0.6,0.7 -1.1,1 -1.7,1 -0.6,0 -0.8,-0.2 -1.1,-0.7 -0.2,-0.3 -0.3,-0.6 -0.3,-1 0,-1 0.3,-2.2 0.9,-3.3 0.7,-1.4 1.6,-2.4 2.6,-3.1 0.6,-0.5 1.3,-0.7 1.9,-0.7 0.4,0 0.7,0.1 0.9,0.3 0.2,0.2 0.3,0.4 0.3,0.7 0,0.2 -0.1,0.5 -0.2,0.8 0.1,0.2 0.2,0.3 0.2,0.5 0,0.2 -0.1,0.5 -0.4,0.9 -0.3,0.4 -0.5,1 -0.8,1.8 -0.3,0.8 -0.4,1.5 -0.4,1.9 0,0.4 0.1,0.7 0.3,0.9 0.1,0.1 0.2,0.2 0.5,0.3 0.2,0.1 0.3,0.3 0.3,0.6 0,0.2 -0.1,0.3 -0.2,0.4 -0.1,0.1 -0.3,0.2 -0.5,0.2 -0.5,0 -0.9,-0.2 -1.3,-0.6 -0.3,-0.3 -0.4,-0.8 -0.4,-1.4 0.3,-0.2 0.3,-0.5 0.3,-0.9 z m 1.8,-4.5 c -0.1,-0.2 -0.2,-0.3 -0.3,-0.4 -0.1,-0.1 -0.3,-0.1 -0.4,-0.1 -0.7,0 -1.5,0.6 -2.3,1.9 -0.9,1.4 -1.4,2.5 -1.4,3.4 0,0.2 0,0.4 0.1,0.5 0.1,0.1 0.2,0.2 0.4,0.2 0.4,0 0.9,-0.4 1.6,-1.4 0.3,-0.5 0.7,-1.3 1.3,-2.3 0.3,-0.6 0.5,-1 0.7,-1.3 0,-0.2 0.1,-0.4 0.3,-0.5 z"
           style="fill:#4d4d4d;fill-opacity:1" />
        <path
           id="path7153"
           inkscape:connector-curvature="0"
           class="st3"
           d="m 240.2,41.2 c -0.3,0.7 -0.5,1.3 -0.6,1.8 -0.1,0.4 -0.2,0.7 -0.2,0.9 0,0.2 0.1,0.3 0.3,0.3 0.3,0 0.7,-0.3 1.3,-0.9 0.2,-0.3 0.6,-0.8 1.1,-1.7 0.2,-0.3 0.4,-0.4 0.6,-0.4 0.2,0 0.3,0.1 0.3,0.3 0,0.4 -0.4,1.1 -1.4,2.4 -0.9,1.3 -1.8,1.9 -2.6,1.9 -0.3,0 -0.6,-0.1 -0.8,-0.4 -0.1,-0.2 -0.2,-0.4 -0.2,-0.7 0,-0.5 0.1,-1.3 0.4,-2.1 0.3,-0.9 0.7,-2 1.4,-3.3 1.6,-3.3 3.2,-6.1 4.8,-8.1 1.4,-1.8 2.4,-2.6 3.2,-2.6 0.3,0 0.5,0.1 0.6,0.3 0.2,0.2 0.3,0.4 0.3,0.7 0,1.3 -1.1,3.4 -3.4,6.4 -1,1.4 -2.3,2.6 -3.7,4 -0.2,0.2 -0.8,0.7 -1.4,1.2 z m 0.9,-2.2 c 1.9,-1.7 3.7,-3.7 5.1,-6.2 0.7,-1.3 1.1,-2.2 1.1,-2.6 0,-0.2 -0.1,-0.3 -0.3,-0.3 -0.5,0 -1.5,1 -2.7,3 -1,1.7 -2.1,3.7 -3.2,6.1 z"
           style="fill:#4d4d4d;fill-opacity:1" />
        <path
           id="path7155"
           inkscape:connector-curvature="0"
           class="st3"
           d="m 247.6,37.6 c 0.1,0 0.3,0.1 0.4,0.2 0.1,0.1 0.1,0.2 0.1,0.3 0,0.2 -0.1,0.4 -0.4,0.8 -0.9,1.5 -1.7,2.7 -2.1,3.7 -0.4,0.9 -0.8,2 -1.1,3 -0.1,0.4 -0.4,0.7 -0.7,0.7 -0.2,0 -0.3,-0.1 -0.4,-0.2 -0.1,-0.1 -0.1,-0.2 -0.1,-0.4 0,-0.3 0.3,-1.1 0.8,-2.7 0.4,-1.3 1.3,-2.6 2.2,-4.1 0.3,-0.5 0.6,-0.8 0.7,-0.9 0.3,-0.3 0.4,-0.4 0.6,-0.4 z m 2.6,-5.2 c 0.4,0 0.6,0.2 0.6,0.6 0,0.4 -0.2,0.8 -0.6,1.3 -0.4,0.5 -0.7,0.6 -1.1,0.6 -0.2,0 -0.3,-0.1 -0.4,-0.2 -0.1,-0.1 -0.2,-0.3 -0.2,-0.4 0,-0.4 0.2,-0.9 0.7,-1.4 0.4,-0.2 0.7,-0.5 1,-0.5 z"
           style="fill:#4d4d4d;fill-opacity:1" />
        <path
           id="path7157"
           inkscape:connector-curvature="0"
           class="st3"
           d="m 251.7,38.6 c 0.7,-0.6 1.5,-0.9 2.1,-0.9 0.4,0 0.7,0.2 0.9,0.5 0.2,0.3 0.3,0.6 0.3,0.9 0,0.7 -0.2,1.6 -0.7,2.6 -0.5,1.1 -1.3,2.2 -2.3,3.1 -0.8,0.8 -1.6,1.3 -2.3,1.3 -0.3,0 -0.5,0 -0.7,-0.1 -0.2,-0.1 -0.4,-0.2 -0.6,-0.4 -0.1,0.1 -0.1,0.2 -0.1,0.2 -0.1,0.3 -0.3,0.5 -0.3,0.6 -0.1,0.1 -0.2,0.1 -0.3,0.1 -0.2,0 -0.3,-0.1 -0.4,-0.3 -0.1,-0.1 -0.1,-0.3 -0.1,-0.4 0,-0.2 0.5,-1.6 1.6,-3.9 1.5,-3.2 3.2,-6.5 5.1,-9.7 0.8,-1.4 1.3,-2.1 1.5,-2.3 0.2,-0.3 0.4,-0.4 0.5,-0.4 0.2,0 0.4,0.1 0.5,0.3 0.1,0.1 0.1,0.3 0.1,0.4 0,0.2 -0.1,0.4 -0.3,0.7 0,0.1 -0.3,0.5 -0.8,1.5 -1.7,2.3 -2.9,4.5 -3.7,6.2 z m -2.7,5.5 c 0.1,0.2 0.3,0.3 0.4,0.4 0.1,0.1 0.3,0.1 0.4,0.1 0.8,0 1.7,-0.7 2.5,-2.1 0.4,-0.6 0.7,-1.3 0.9,-1.9 0.2,-0.5 0.3,-0.9 0.3,-1.3 0,-0.2 0,-0.3 -0.1,-0.4 -0.1,-0.1 -0.2,-0.1 -0.4,-0.1 -0.4,0 -0.9,0.3 -1.6,0.8 -0.6,0.5 -1.1,1.4 -1.8,2.5 -0.3,0.5 -0.5,1 -0.7,1.5 0.2,0.4 0.1,0.5 0.1,0.5 z"
           style="fill:#4d4d4d;fill-opacity:1" />
        <path
           id="path7159"
           inkscape:connector-curvature="0"
           class="st3"
           d="m 257.8,41.3 c 0.9,-0.9 2,-1.9 3.1,-2.8 0.4,-0.3 0.8,-0.6 1.4,-0.9 0.2,-0.1 0.4,-0.2 0.4,-0.2 0.1,0 0.3,0.1 0.4,0.3 0.1,0.1 0.1,0.2 0.1,0.3 0,0.2 -0.2,0.4 -0.5,0.6 -0.9,0.7 -1.4,1.3 -1.4,1.7 0,0.2 0.1,0.3 0.3,0.3 0.4,0 1,-0.3 2.1,-0.9 0.2,-0.1 0.3,-0.2 0.4,-0.2 0.1,0 0.1,0 0.2,0.1 0.1,0.1 0.1,0.2 0.1,0.3 0,0.3 -0.4,0.7 -1.1,1.3 -0.8,0.6 -1.6,0.9 -2.3,0.9 -0.3,0 -0.5,-0.1 -0.8,-0.2 -0.2,-0.1 -0.3,-0.3 -0.3,-0.7 0,-0.2 0.1,-0.5 0.3,-0.8 -0.7,0.5 -1.6,1.4 -2.6,2.6 -0.5,0.7 -1.1,1.7 -1.7,2.8 -0.2,0.4 -0.5,0.6 -0.8,0.6 -0.3,0 -0.5,-0.2 -0.5,-0.5 0,-0.3 0.3,-1.1 0.8,-2.5 0.8,-2 1.6,-3.5 2.5,-4.7 0.5,-0.7 0.9,-1 1.4,-1 0.1,0 0.2,0 0.3,0.1 0.1,0.1 0.2,0.2 0.2,0.3 0,0.1 -0.1,0.3 -0.3,0.6 0,0 -0.3,0.3 -0.7,0.9 -0.4,0.6 -0.7,1.1 -1,1.7 z"
           style="fill:#4d4d4d;fill-opacity:1" />
        <path
           id="path7161"
           inkscape:connector-curvature="0"
           class="st3"
           d="m 268.3,43.5 c -0.3,0.5 -0.6,0.9 -0.9,1.4 -0.6,0.7 -1.1,1 -1.7,1 -0.5,0 -0.8,-0.2 -1.1,-0.7 -0.2,-0.3 -0.3,-0.6 -0.3,-1 0,-1 0.3,-2.2 0.9,-3.3 0.7,-1.4 1.6,-2.4 2.6,-3.1 0.6,-0.5 1.3,-0.7 1.9,-0.7 0.4,0 0.7,0.1 0.9,0.3 0.2,0.2 0.3,0.4 0.3,0.7 0,0.2 -0.1,0.5 -0.2,0.8 0.1,0.2 0.2,0.3 0.2,0.5 0,0.2 -0.1,0.5 -0.4,0.9 -0.3,0.4 -0.5,1 -0.8,1.8 -0.3,0.8 -0.4,1.5 -0.4,1.9 0,0.4 0.1,0.7 0.3,0.9 0.1,0.1 0.2,0.2 0.5,0.3 0.2,0.1 0.3,0.3 0.3,0.6 0,0.2 -0.1,0.3 -0.2,0.4 -0.1,0.1 -0.3,0.2 -0.5,0.2 -0.5,0 -0.9,-0.2 -1.3,-0.6 -0.3,-0.3 -0.4,-0.8 -0.4,-1.4 0.2,-0.2 0.2,-0.5 0.3,-0.9 z M 270,39 c -0.1,-0.2 -0.2,-0.3 -0.3,-0.4 -0.1,-0.1 -0.3,-0.1 -0.4,-0.1 -0.7,0 -1.5,0.6 -2.3,1.9 -0.9,1.4 -1.4,2.5 -1.4,3.4 0,0.2 0,0.4 0.1,0.5 0.1,0.1 0.2,0.2 0.4,0.2 0.4,0 0.9,-0.4 1.6,-1.4 0.3,-0.5 0.7,-1.3 1.3,-2.3 0.3,-0.6 0.5,-1 0.7,-1.3 -0.1,-0.2 0,-0.4 0.3,-0.5 z"
           style="fill:#4d4d4d;fill-opacity:1" />
        <path
           id="path7163"
           inkscape:connector-curvature="0"
           class="st3"
           d="m 274.7,41.3 c 0.9,-0.9 2,-1.9 3.1,-2.8 0.4,-0.3 0.8,-0.6 1.4,-0.9 0.2,-0.1 0.4,-0.2 0.4,-0.2 0.1,0 0.3,0.1 0.4,0.3 0.1,0.1 0.1,0.2 0.1,0.3 0,0.2 -0.2,0.4 -0.5,0.6 -0.9,0.7 -1.4,1.3 -1.4,1.7 0,0.2 0.1,0.3 0.3,0.3 0.4,0 1,-0.3 2.1,-0.9 0.2,-0.1 0.3,-0.2 0.4,-0.2 0.1,0 0.1,0 0.2,0.1 0.1,0.1 0.1,0.2 0.1,0.3 0,0.3 -0.4,0.7 -1.1,1.3 -0.8,0.6 -1.6,0.9 -2.3,0.9 -0.3,0 -0.5,-0.1 -0.8,-0.2 -0.2,-0.1 -0.3,-0.3 -0.3,-0.7 0,-0.2 0.1,-0.5 0.3,-0.8 -0.7,0.5 -1.6,1.4 -2.6,2.6 -0.5,0.7 -1.1,1.7 -1.7,2.8 -0.2,0.4 -0.5,0.6 -0.8,0.6 -0.3,0 -0.5,-0.2 -0.5,-0.5 0,-0.3 0.3,-1.1 0.8,-2.5 0.8,-2 1.6,-3.5 2.5,-4.7 0.5,-0.7 0.9,-1 1.4,-1 0.1,0 0.2,0 0.3,0.1 0.1,0.1 0.2,0.2 0.2,0.3 0,0.1 -0.1,0.3 -0.3,0.6 0,0 -0.3,0.3 -0.7,0.9 -0.5,0.6 -0.8,1.1 -1,1.7 z"
           style="fill:#4d4d4d;fill-opacity:1" />
        <path
           id="path7165"
           inkscape:connector-curvature="0"
           class="st3"
           d="m 285.7,41.9 c -0.8,0.9 -1.5,1.7 -2,2.2 -0.9,0.9 -1.8,1.4 -2.4,1.4 -0.3,0 -0.5,-0.1 -0.7,-0.3 -0.1,-0.2 -0.2,-0.4 -0.2,-0.7 0,-0.9 0.6,-2.3 1.8,-4 1.1,-1.7 2.1,-2.5 2.6,-2.5 0.1,0 0.3,0.1 0.4,0.2 0.1,0.1 0.1,0.2 0.1,0.3 0,0.2 -0.1,0.4 -0.2,0.5 -0.1,0.1 -0.4,0.5 -0.9,1 -0.5,0.5 -1,1.1 -1.5,1.8 -0.5,0.7 -0.7,1.3 -0.7,1.6 0,0.2 0.1,0.3 0.3,0.3 0.4,0 1,-0.5 2.1,-1.5 0.6,-0.6 1.1,-1.1 1.5,-1.6 0.1,-0.1 0.4,-0.5 0.9,-1.4 0.5,-0.7 0.8,-1.1 0.9,-1.3 0.3,-0.3 0.5,-0.5 0.7,-0.5 0.1,0 0.3,0.1 0.4,0.2 0.1,0.1 0.2,0.2 0.2,0.4 0,0.3 -0.2,0.7 -0.5,1.4 -0.4,0.7 -0.8,1.5 -1.3,2.1 -0.6,1 -1,2 -1.4,2.7 0.6,-0.3 1.1,-0.7 1.6,-1.3 0.8,-0.8 1.4,-1.5 1.6,-1.9 0.2,-0.4 0.3,-0.5 0.5,-0.5 0.2,0 0.4,0.1 0.4,0.4 0,0.5 -0.4,1.3 -1.3,2.2 -0.9,1.1 -2.2,2.1 -3.7,2.9 -0.7,1.9 -1.5,3.3 -2.2,4.6 -1.3,2.3 -2.6,3.3 -4,3.3 -0.5,0 -1,-0.2 -1.4,-0.6 -0.3,-0.3 -0.4,-0.7 -0.4,-1.3 0,-1.5 1,-2.9 3,-4.4 0.6,-0.4 1.5,-0.9 2.6,-1.7 0.4,-0.3 0.8,-0.5 1.1,-0.6 0.2,-0.4 0.4,-0.9 0.7,-1.7 0.8,-0.4 1.1,-1 1.4,-1.7 z m -2.5,5.5 c -0.9,0.5 -2,1.3 -3,2.1 -1,0.9 -1.6,1.8 -1.6,2.6 0,0.2 0,0.3 0.1,0.4 0.1,0.2 0.3,0.2 0.5,0.2 0.7,0 1.5,-0.7 2.3,-2.2 0.1,-0.2 0.5,-1 1.1,-2.4 0.3,-0.1 0.4,-0.4 0.6,-0.7 z"
           style="fill:#4d4d4d;fill-opacity:1" />
      </g>
    </g>
    <g
       id="g4936"
       transform="matrix(0.1636521,0,0,-0.1636521,388.24713,1118.5356)">
      <path
         inkscape:connector-curvature="0"
         id="path4850"
         style="fill:#000000;fill-opacity:1;fill-rule:evenodd;stroke:none"
         d="m 133.4,624.3 -0.8,0.7 c 0.5,0.6 0.8,1.2 1,1.7 v 0 c 0.3,0.4 0.4,0.8 0.5,1.1 v 0 c 0.1,0.3 0.2,0.6 0.2,0.8 v 0 c 0,0.2 -0.1,0.3 -0.2,0.3 v 0 l -18.5,17.1 -5,-5 v 0 c -0.2,-0.2 -0.3,-0.4 -0.4,-0.6 v 0 c 0,-0.2 -0.1,-0.5 0,-0.8 v 0 c 0.1,-0.3 0.2,-0.8 0.4,-1.3 v 0 c 0.3,-0.6 0.6,-1.3 1.1,-2.2 v 0 l -1.1,-0.4 c -0.6,0.7 -1.3,1.4 -2,2.3 v 0 c -0.7,0.8 -1.3,1.6 -1.7,2.3 v 0 l 16.9,17.1 1,0.1 v 0 c 0.5,-0.6 1.1,-1.3 1.7,-2 v 0 c 0.7,-0.8 1.3,-1.5 1.9,-2.3 v 0 l -0.8,-0.8 c -0.7,0.4 -1.2,0.7 -1.7,1 v 0 c -0.4,0.3 -0.8,0.4 -1.2,0.6 v 0 c -0.4,0 -0.7,0.1 -0.9,0 v 0 c -0.2,0 -0.5,-0.2 -0.7,-0.4 v 0 l -4.8,-4.8 18.5,-17.1 v 0 c 0.2,-0.2 0.5,-0.1 1.2,0 v 0 c 0.6,0.2 1.5,0.8 2.8,1.5 v 0 l 0.8,-0.6 z" />
      <path
         inkscape:connector-curvature="0"
         id="path4852"
         style="fill:#000000;fill-opacity:1;fill-rule:evenodd;stroke:none"
         d="m 156.8,655.5 c -0.7,1 -1.4,1.9 -2.4,2.6 v 0 c -1,0.8 -2,1.3 -3,1.7 v 0 c -1.1,0.4 -2.1,0.6 -3.1,0.6 v 0 c -1,0 -1.8,-0.2 -2.5,-0.6 v 0 c -1,-0.6 -1.8,-1.4 -2.3,-2.2 v 0 c -0.5,-0.8 -0.7,-1.7 -0.7,-2.6 v 0 c 0,-0.9 0.2,-1.9 0.6,-3 v 0 c 0.4,-1 0.9,-2 1.6,-3.1 v 0 c 0.7,-1 1.5,-1.9 2.5,-2.7 v 0 c 1,-0.7 2,-1.2 3,-1.6 v 0 c 1.2,-0.4 2.1,-0.6 3.1,-0.6 v 0 c 1,0 1.8,0.2 2.4,0.6 v 0 c 1,0.6 1.7,1.2 2.2,2 v 0 c 0.5,0.8 0.7,1.6 0.8,2.6 v 0 c 0,0.9 -0.1,1.8 -0.5,2.9 v 0 c -0.4,1.1 -0.9,2.2 -1.7,3.4 z m 2.8,2.5 c 0.6,-0.9 1,-1.9 1.4,-2.9 v 0 c 0.2,-1 0.5,-2 0.5,-3 v 0 c 0.1,-1 0,-2 -0.1,-3 v 0 c -0.2,-1 -0.4,-1.9 -0.9,-2.8 v 0 c -0.4,-0.9 -0.9,-1.7 -1.5,-2.4 v 0 c -0.6,-0.7 -1.4,-1.3 -2.2,-1.9 v 0 c -1.3,-0.7 -2.6,-1.2 -4,-1.3 v 0 c -1.3,-0.2 -2.7,0 -4,0.3 v 0 c -1.3,0.4 -2.5,1.1 -3.6,2 v 0 c -1.1,0.9 -2.2,2 -3,3.4 v 0 c -0.6,0.9 -1,1.8 -1.3,2.8 v 0 c -0.4,1 -0.6,1.9 -0.6,3 v 0 c -0.1,1 -0.1,2 0.1,3 v 0 c 0.1,1 0.4,1.9 0.9,2.8 v 0 c 0.3,0.9 0.8,1.7 1.4,2.4 v 0 c 0.7,0.8 1.5,1.4 2.3,1.9 v 0 c 1.3,0.8 2.6,1.2 4,1.4 v 0 c 1.3,0.1 2.7,0 4,-0.4 v 0 c 1.3,-0.4 2.5,-1 3.6,-2 v 0 c 1.2,-0.9 2.2,-2 3,-3.3 z" />
      <path
         inkscape:connector-curvature="0"
         id="path4854"
         style="fill:#000000;fill-opacity:1;fill-rule:evenodd;stroke:none"
         d="m 192.1,689.2 c -0.4,-0.2 -0.9,-0.4 -1.4,-0.8 v 0 c -0.5,-0.3 -0.9,-0.7 -1.4,-1.1 v 0 l 9.6,-23.6 c 0,-0.1 0.4,-0.2 1.1,-0.4 v 0 c 0.6,0 1.5,0.1 2.6,0.3 v 0 l 0.4,-0.9 -10.2,-3.9 -0.5,1 v 0 c 1,0.6 1.8,1.2 2.3,1.6 v 0 c 0.5,0.5 0.8,0.9 0.7,1.1 v 0 l -8.2,20.4 -1,-26.5 -1.1,-0.4 -19,18.9 7.8,-20.4 v 0 c 0,-0.2 0.4,-0.3 1,-0.3 v 0 c 0.7,-0.1 1.6,0 2.8,0.2 v 0 l 0.4,-1 -9.2,-3.3 -0.4,0.9 v 0 c 1,0.6 1.7,1.1 2.2,1.5 v 0 c 0.5,0.5 0.6,0.9 0.6,1 v 0 l -9.1,23.6 c -0.6,0.2 -1.3,0.2 -2,0.1 v 0 c -0.6,-0.1 -1.2,-0.2 -1.6,-0.3 v 0 l -0.3,0.8 6.4,2.5 v 0 c 0.1,0 0.3,0 0.5,0 v 0 c 0.1,0 0.2,0 0.3,-0.1 v 0 c 0.2,-0.1 0.4,-0.2 0.6,-0.5 v 0 c 0.2,-0.2 0.5,-0.4 0.8,-0.8 v 0 l 16.8,-16.4 0.9,23 v 0 c 0,0.5 0,0.9 0.1,1.2 v 0 c 0,0.3 0,0.5 0.1,0.7 v 0 c 0.1,0.1 0.1,0.2 0.2,0.2 v 0 c 0.1,0.1 0.2,0.2 0.3,0.2 v 0 l 6.5,2.4 z" />
      <path
         inkscape:connector-curvature="0"
         id="path4856"
         style="fill:#000000;fill-opacity:1;fill-rule:evenodd;stroke:none"
         d="m 212.8,666.9 c 1,0.2 1.9,0.7 2.9,1.4 v 0 c 0.9,0.7 1.9,1.7 2.8,3 v 0 l -1.5,5.9 c -1.2,-0.5 -2.3,-1 -3.1,-1.4 v 0 c -0.8,-0.3 -1.4,-0.8 -1.9,-1 v 0 c -0.6,-0.4 -0.9,-0.7 -1.2,-1 v 0 c -0.3,-0.3 -0.5,-0.6 -0.7,-1 v 0 c -0.3,-0.5 -0.5,-1 -0.6,-1.6 v 0 c -0.2,-0.6 -0.1,-1.2 0.1,-1.9 v 0 c 0.1,-0.6 0.3,-1.1 0.6,-1.5 v 0 c 0.3,-0.3 0.6,-0.6 0.9,-0.7 v 0 c 0.3,-0.2 0.6,-0.2 0.9,-0.2 v 0 c 0.4,0 0.6,0 0.8,0 z m 13.7,2.8 c -1.1,-1.2 -2.1,-2.2 -2.9,-2.8 v 0 c -0.7,-0.6 -1.3,-0.9 -1.8,-1 v 0 c -0.4,-0.1 -1,0.1 -1.5,0.7 v 0 c -0.5,0.6 -1,1.6 -1.3,2.8 v 0 c -0.5,-0.8 -1.1,-1.6 -1.7,-2.3 v 0 c -0.6,-0.7 -1.2,-1.3 -1.8,-1.8 v 0 c -0.5,-0.3 -1.1,-0.8 -1.7,-1.1 v 0 c -0.6,-0.3 -1.1,-0.5 -1.6,-0.6 v 0 c -0.6,-0.1 -1.2,-0.2 -1.8,-0.1 v 0 c -0.7,0 -1.3,0.2 -1.9,0.5 v 0 c -0.6,0.3 -1,0.6 -1.5,1.2 v 0 c -0.5,0.6 -0.9,1.3 -1.1,2.1 v 0 c -0.2,1.3 -0.3,2.2 0,3.1 v 0 c 0.1,0.9 0.5,1.7 0.9,2.4 v 0 c 0.3,0.5 0.7,0.9 1,1.3 v 0 c 0.4,0.5 1,0.9 1.7,1.4 v 0 c 0.7,0.5 1.7,1 2.8,1.6 v 0 c 1.1,0.5 2.5,1.1 4.3,1.9 v 0 l -0.8,3.2 c -0.1,0.5 -0.3,1 -0.6,1.3 v 0 c -0.2,0.4 -0.5,0.8 -0.9,1.1 v 0 c -0.3,0.3 -0.8,0.4 -1.4,0.4 v 0 c -0.6,0.1 -1.2,0 -1.9,-0.1 v 0 c -0.6,-0.2 -1.1,-0.4 -1.5,-0.6 v 0 c -0.5,-0.4 -0.8,-0.6 -1.1,-1 v 0 c -0.3,-0.4 -0.5,-0.7 -0.6,-1.1 v 0 c -0.2,-0.5 -0.1,-0.9 0.1,-1.4 v 0 c 0,-0.1 -0.1,-0.3 -0.4,-0.6 v 0 c -0.3,-0.2 -0.7,-0.5 -1.1,-0.7 v 0 c -0.4,-0.3 -0.9,-0.5 -1.3,-0.7 v 0 c -0.4,-0.2 -0.8,-0.2 -0.9,-0.2 v 0 l -0.6,0.8 c 0.2,0.8 0.6,1.7 1.1,2.6 v 0 c 0.6,0.9 1.3,1.7 2.1,2.4 v 0 c 0.8,0.8 1.7,1.4 2.7,2 v 0 c 1,0.5 2,1 3,1.2 v 0 c 1.7,0.4 3.2,0.2 4.3,-0.4 v 0 c 1.1,-0.6 1.9,-1.8 2.3,-3.3 v 0 l 3.2,-12.9 c 0.2,-0.6 0.4,-1.1 0.6,-1.3 v 0 c 0.2,-0.3 0.6,-0.3 0.9,-0.3 v 0 c 0.1,0.1 0.4,0.3 0.7,0.4 v 0 c 0.4,0.1 0.8,0.5 1.4,0.8 v 0 z" />
      <path
         inkscape:connector-curvature="0"
         id="path4858"
         style="fill:#000000;fill-opacity:1;fill-rule:evenodd;stroke:none"
         d="m 242.9,677.1 c 0.2,-1 0.2,-2 0,-2.8 v 0 c -0.1,-0.9 -0.5,-1.6 -0.9,-2.3 v 0 c -0.4,-0.6 -0.9,-1.1 -1.4,-1.5 v 0 c -0.5,-0.4 -1.2,-0.8 -1.8,-1 v 0 c -0.5,-0.3 -1.1,-0.5 -1.6,-0.6 v 0 c -0.5,-0.2 -1,-0.3 -1.2,-0.3 v 0 c -0.8,-0.2 -1.7,-0.2 -2.9,-0.1 v 0 c -1.1,0.1 -2.3,0.4 -3.4,0.7 v 0 c -0.2,0.1 -0.3,0.3 -0.4,0.7 v 0 c -0.1,0.5 -0.2,1 -0.3,1.6 v 0 c -0.1,0.6 -0.2,1.2 -0.2,1.8 v 0 c 0,0.7 0,1.1 0,1.5 v 0 l 1.1,-0.1 c 0.1,-0.6 0.4,-1.2 0.9,-1.7 v 0 c 0.4,-0.5 1,-1 1.6,-1.3 v 0 c 0.6,-0.3 1.2,-0.6 2,-0.7 v 0 c 0.7,-0.1 1.6,-0.1 2.3,0 v 0 c 0.6,0.1 1.1,0.3 1.6,0.6 v 0 c 0.4,0.2 0.8,0.6 1.1,0.9 v 0 c 0.3,0.4 0.5,0.8 0.7,1.3 v 0 c 0,0.5 0,1 0,1.6 v 0 c -0.2,0.5 -0.4,1.1 -0.9,1.5 v 0 c -0.4,0.4 -0.9,0.8 -1.6,1 v 0 c -0.6,0.4 -1.3,0.6 -2.1,0.9 v 0 c -0.8,0.2 -1.5,0.4 -2.3,0.7 v 0 c -0.7,0.2 -1.4,0.4 -2.1,0.7 v 0 c -0.8,0.3 -1.4,0.6 -1.9,1 v 0 c -0.6,0.4 -1.1,0.8 -1.5,1.3 v 0 c -0.4,0.6 -0.7,1.2 -0.8,1.9 v 0 c -0.1,1 -0.1,1.8 0.1,2.7 v 0 c 0.3,0.8 0.8,1.5 1.3,2.1 v 0 c 0.6,0.6 1.2,1.2 2,1.5 v 0 c 0.9,0.4 1.7,0.8 2.7,0.9 v 0 c 0.5,0.1 1,0.1 1.6,0.1 v 0 c 0.6,0 1.2,0 1.8,0 v 0 c 0.7,-0.1 1.2,-0.2 1.8,-0.3 v 0 c 0.6,-0.1 1,-0.3 1.4,-0.5 v 0 c 0.1,-0.1 0.2,-0.3 0.2,-0.6 v 0 c 0,-0.3 -0.1,-0.8 -0.2,-1.2 v 0 c -0.1,-0.3 -0.2,-0.8 -0.3,-1.1 v 0 c -0.1,-0.4 -0.2,-0.6 -0.3,-0.8 v 0 l -0.9,0.1 c -1,0.9 -2,1.6 -2.9,1.9 v 0 c -0.9,0.3 -1.7,0.3 -2.5,0.2 v 0 c -0.5,0 -0.9,-0.2 -1.4,-0.5 v 0 c -0.3,-0.2 -0.7,-0.5 -1,-0.8 v 0 c -0.2,-0.3 -0.3,-0.7 -0.4,-1 v 0 c -0.2,-0.3 -0.2,-0.7 -0.1,-1 v 0 c 0.1,-0.5 0.3,-0.9 0.7,-1.2 v 0 c 0.4,-0.4 0.9,-0.7 1.4,-1 v 0 c 0.6,-0.2 1.2,-0.5 1.9,-0.7 v 0 c 0.7,-0.2 1.4,-0.4 2.1,-0.6 v 0 c 0.8,-0.3 1.5,-0.5 2.3,-0.8 v 0 c 0.8,-0.2 1.5,-0.6 2.1,-1 v 0 c 0.6,-0.4 1.3,-0.9 1.7,-1.5 v 0 c 0.4,-0.6 0.8,-1.3 0.9,-2.2 z" />
      <path
         inkscape:connector-curvature="0"
         id="path4860"
         style="fill:#000000;fill-opacity:1;fill-rule:evenodd;stroke:none"
         d="m 255.9,692.2 c -0.8,-0.1 -1.5,-0.3 -2.3,-0.7 v 0 c -0.6,-0.4 -1.2,-0.9 -1.7,-1.5 v 0 c -0.5,-0.6 -0.8,-1.4 -1.1,-2.2 v 0 c -0.2,-0.8 -0.4,-1.7 -0.4,-2.7 v 0 l 10.3,1.1 c 0.4,0.1 0.6,0.1 0.7,0.2 v 0 c 0.2,0.2 0.2,0.5 0.2,0.8 v 0 c -0.1,0.4 -0.2,0.9 -0.5,1.5 v 0 c -0.1,0.7 -0.5,1.3 -0.9,1.8 v 0 c -0.4,0.6 -1,1 -1.7,1.4 v 0 c -0.7,0.3 -1.5,0.5 -2.6,0.3 z m 9.8,-6 c -0.3,-0.4 -0.6,-0.7 -1.1,-1 v 0 c -0.4,-0.3 -0.9,-0.5 -1.4,-0.9 v 0 L 250.5,683 c 0.1,-1.2 0.4,-2.3 0.9,-3.4 v 0 c 0.4,-1.1 1,-2 1.8,-2.8 v 0 c 0.7,-0.7 1.4,-1.3 2.4,-1.7 v 0 c 1,-0.4 2,-0.6 3.1,-0.5 v 0 c 0.4,0.1 0.9,0.2 1.4,0.3 v 0 c 0.5,0.1 1,0.3 1.5,0.6 v 0 c 0.5,0.3 1.1,0.6 1.7,1.1 v 0 c 0.6,0.5 1.3,1.2 2.2,2 v 0 c 0.2,-0.1 0.4,-0.2 0.6,-0.4 v 0 c 0.2,-0.2 0.3,-0.3 0.4,-0.5 v 0 c -1,-1.2 -1.8,-2.2 -2.5,-3.1 v 0 c -0.8,-0.7 -1.5,-1.3 -2.2,-1.7 v 0 c -0.7,-0.5 -1.3,-0.8 -2.1,-1 v 0 c -0.6,-0.2 -1.3,-0.4 -2.2,-0.4 v 0 c -1.2,-0.1 -2.4,0 -3.6,0.4 v 0 c -1.2,0.4 -2.3,1 -3.2,1.8 v 0 c -1,0.9 -1.8,1.9 -2.4,3.2 v 0 c -0.7,1.3 -1.1,2.8 -1.3,4.4 v 0 c -0.1,1.1 -0.1,2.1 0,3.2 v 0 c 0.1,1 0.4,1.9 0.7,2.9 v 0 c 0.4,1 0.9,1.9 1.4,2.7 v 0 c 0.6,0.9 1.3,1.6 2,2.3 v 0 c 0.3,0.2 0.7,0.5 1.2,0.7 v 0 c 0.4,0.3 0.9,0.6 1.3,0.8 v 0 c 0.4,0.2 0.9,0.4 1.3,0.6 v 0 c 0.5,0.1 1,0.2 1.4,0.2 v 0 c 1.1,0.2 2,0.1 2.8,-0.1 v 0 c 0.9,-0.1 1.7,-0.5 2.3,-0.9 v 0 c 0.7,-0.4 1.3,-0.9 1.8,-1.5 v 0 c 0.5,-0.6 0.9,-1.2 1.2,-1.8 v 0 c 0.4,-0.7 0.7,-1.4 0.8,-2.1 v 0 c 0.3,-0.8 0.4,-1.4 0.5,-2.1 z" />
      <path
         inkscape:connector-curvature="0"
         id="path4862"
         style="fill:#000000;fill-opacity:1;fill-rule:evenodd;stroke:none"
         d="m 302.9,695.6 c -0.5,-0.1 -0.9,-0.3 -1.1,-0.4 v 0 c -0.3,-0.1 -0.6,-0.2 -0.8,-0.3 v 0 c -0.1,-0.1 -0.2,-0.2 -0.3,-0.4 v 0 c -0.1,-0.1 -0.1,-0.2 -0.1,-0.5 v 0 l -4.8,-18.1 c 0,-0.3 -0.3,-0.6 -0.5,-0.9 v 0 c -0.3,-0.3 -0.6,-0.4 -0.9,-0.6 v 0 c -0.4,-0.2 -0.7,-0.3 -1,-0.4 v 0 c -0.3,-0.2 -0.6,-0.2 -0.8,-0.3 v 0 l -6.4,15.7 -4.4,-14 v 0 c -0.2,-0.3 -0.3,-0.7 -0.6,-0.9 v 0 c -0.3,-0.3 -0.6,-0.4 -0.9,-0.6 v 0 c -0.3,-0.2 -0.6,-0.4 -0.9,-0.4 v 0 c -0.4,-0.2 -0.6,-0.2 -0.8,-0.3 v 0 l -7.1,19.9 c -0.1,0.6 -1,1 -2.6,1.3 v 0 l -0.1,1.1 9.4,0.3 v -1.1 0 c -0.8,0 -1.4,-0.1 -1.9,-0.3 v 0 c -0.4,-0.1 -0.7,-0.2 -0.9,-0.4 v 0 c -0.2,-0.1 -0.2,-0.2 -0.3,-0.4 v 0 c 0,-0.1 0.1,-0.2 0.1,-0.4 v 0 l 5.1,-14.8 5.3,17.6 h 1.8 l 6.9,-17.1 3.6,15 v 0 c 0.1,0.4 -0.1,0.7 -0.5,0.9 v 0 c -0.4,0.2 -1.2,0.4 -2.4,0.5 v 0 1 l 7.9,0.3 z" />
      <path
         inkscape:connector-curvature="0"
         id="path4864"
         style="fill:#000000;fill-opacity:1;fill-rule:evenodd;stroke:none"
         d="m 312.1,676.6 c 0.9,-0.1 2,0.2 3.1,0.6 v 0 c 1.1,0.4 2.3,1.1 3.5,2.1 v 0 l 0.3,6.1 c -1.4,-0.2 -2.5,-0.3 -3.4,-0.5 v 0 c -0.9,-0.2 -1.6,-0.4 -2.2,-0.6 v 0 c -0.5,-0.2 -1,-0.4 -1.4,-0.6 v 0 c -0.4,-0.2 -0.6,-0.4 -0.9,-0.7 v 0 c -0.4,-0.4 -0.8,-0.9 -1.1,-1.4 v 0 c -0.3,-0.5 -0.4,-1.2 -0.5,-1.9 v 0 c 0,-0.7 0.1,-1.1 0.3,-1.5 v 0 c 0.1,-0.4 0.4,-0.8 0.6,-1 v 0 c 0.4,-0.3 0.6,-0.4 0.9,-0.5 v 0 c 0.3,0 0.5,-0.1 0.8,-0.1 z m 13.9,-1 c -1.4,-0.8 -2.6,-1.5 -3.5,-1.8 v 0 c -0.9,-0.4 -1.6,-0.6 -2.1,-0.6 v 0 c -0.5,0 -0.9,0.4 -1.2,1.2 v 0 c -0.4,0.7 -0.5,1.7 -0.5,3 v 0 c -0.8,-0.7 -1.5,-1.3 -2.3,-1.8 v 0 c -0.7,-0.5 -1.4,-0.9 -2.2,-1.2 v 0 c -0.7,-0.3 -1.3,-0.5 -2,-0.6 v 0 c -0.6,-0.1 -1.2,-0.2 -1.7,-0.2 v 0 c -0.6,0 -1.2,0.1 -1.8,0.4 v 0 c -0.6,0.1 -1.2,0.5 -1.6,0.9 v 0 c -0.5,0.4 -0.9,1 -1.2,1.6 v 0 c -0.3,0.6 -0.4,1.4 -0.4,2.4 v 0 c 0.1,1.1 0.3,2.1 0.8,2.9 v 0 c 0.5,0.8 1,1.5 1.6,2 v 0 c 0.4,0.3 0.8,0.7 1.3,1 v 0 c 0.6,0.3 1.2,0.6 2.1,0.9 v 0 c 0.8,0.3 1.8,0.6 3.1,0.8 v 0 c 1.2,0.2 2.8,0.4 4.6,0.7 v 0 l 0.2,3.3 c 0,0.5 0,1 -0.2,1.5 v 0 c -0.1,0.4 -0.3,0.8 -0.6,1.2 v 0 c -0.3,0.4 -0.7,0.6 -1.2,0.7 v 0 c -0.5,0.3 -1.2,0.4 -2,0.4 v 0 c -0.4,0 -1,0 -1.5,-0.2 v 0 c -0.5,-0.2 -0.9,-0.3 -1.3,-0.5 v 0 c -0.4,-0.4 -0.7,-0.7 -0.9,-1.1 v 0 c -0.3,-0.3 -0.3,-0.8 -0.3,-1.2 v 0 c 0,-0.2 -0.2,-0.3 -0.6,-0.5 v 0 c -0.3,-0.1 -0.7,-0.3 -1.2,-0.5 v 0 c -0.5,-0.1 -1,-0.1 -1.4,-0.2 v 0 c -0.5,0 -0.8,0 -1,0 v 0 l -0.3,0.9 c 0.4,0.8 1,1.5 1.7,2.2 v 0 c 0.9,0.7 1.7,1.3 2.8,1.8 v 0 c 1,0.5 2,0.9 3.1,1.2 v 0 c 1.1,0.3 2.2,0.4 3.2,0.4 v 0 c 1.8,-0.1 3.2,-0.6 4.1,-1.5 v 0 c 1,-1 1.4,-2.2 1.3,-3.8 v 0 L 322.4,678 c 0,-0.6 0,-1.1 0.2,-1.4 v 0 c 0.1,-0.3 0.4,-0.4 0.7,-0.4 v 0 c 0.2,0 0.5,0 0.9,0 v 0 c 0.3,0.1 0.8,0.3 1.5,0.5 v 0 z" />
      <path
         inkscape:connector-curvature="0"
         id="path4866"
         style="fill:#000000;fill-opacity:1;fill-rule:evenodd;stroke:none"
         d="m 327.7,673.5 v 1 c 0.8,0.1 1.3,0.1 1.8,0.2 v 0 c 0.5,0.1 0.9,0.2 1.2,0.2 v 0 c 0.3,0.1 0.4,0.3 0.6,0.4 v 0 c 0.1,0.1 0.2,0.2 0.2,0.3 v 0 l 2.5,27.9 c 0.1,0.7 0.1,1.3 0,1.6 v 0 c -0.1,0.4 -0.2,0.8 -0.4,0.9 v 0 c -0.3,0.3 -0.6,0.5 -1.1,0.5 v 0 c -0.4,0.1 -0.9,0.3 -1.6,0.4 v 0 l 0.1,0.9 c 1.1,0.2 2.3,0.3 3.2,0.5 v 0 c 1.1,0.2 2,0.5 3.1,0.9 v 0 l 0.8,-0.9 -3,-32.9 v 0 c 0,-0.3 0.3,-0.6 0.8,-0.8 v 0 c 0.6,-0.3 1.5,-0.7 2.8,-1 v 0 l -0.1,-1 z" />
      <path
         inkscape:connector-curvature="0"
         id="path4868"
         style="fill:#000000;fill-opacity:1;fill-rule:evenodd;stroke:none"
         d="m 347,671.7 0.2,1 c 0.7,0 1.4,0 1.9,0.2 v 0 c 0.5,0 0.9,0.2 1.3,0.2 v 0 c 0.3,0.1 0.5,0.2 0.7,0.4 v 0 c 0.1,0.1 0.3,0.2 0.3,0.3 v 0 l 3.6,24.5 -7.2,1 v 0 c -0.2,0 -0.5,0 -0.7,0 v 0 c -0.2,-0.1 -0.4,-0.2 -0.7,-0.4 v 0 c -0.2,-0.4 -0.4,-0.7 -0.8,-1.2 v 0 c -0.4,-0.5 -0.8,-1.2 -1.3,-2 v 0 l -0.9,0.6 c 0.2,0.9 0.4,1.8 0.8,2.8 v 0 c 0.3,1 0.5,2 0.9,2.7 v 0 l 24.2,-3.3 0.6,-0.7 v 0 c -0.1,-0.8 -0.3,-1.7 -0.6,-2.5 v 0 c -0.3,-1 -0.6,-1.9 -0.9,-2.9 v 0 l -1.1,0.2 c 0,0.7 -0.1,1.3 -0.1,1.9 v 0 c -0.1,0.5 -0.2,0.9 -0.3,1.2 v 0 c -0.1,0.4 -0.2,0.7 -0.5,0.8 v 0 c -0.1,0.2 -0.4,0.3 -0.7,0.4 v 0 l -6.8,0.9 -3.7,-24.5 v 0 c 0,-0.2 0.2,-0.6 0.8,-0.9 v 0 c 0.5,-0.4 1.5,-0.8 3,-1.3 v 0 l -0.2,-1 z" />
      <path
         inkscape:connector-curvature="0"
         id="path4870"
         style="fill:#000000;fill-opacity:1;fill-rule:evenodd;stroke:none"
         d="m 368.2,668.5 0.1,1 c 0.7,0 1.3,-0.1 1.8,0 v 0 c 0.5,0 0.9,0 1.2,0.1 v 0 c 0.3,0 0.5,0.1 0.6,0.2 v 0 c 0.2,0.1 0.3,0.3 0.3,0.4 v 0 l 5.9,27.4 c 0.2,0.7 0.2,1.2 0.2,1.6 v 0 c 0,0.4 -0.2,0.7 -0.3,1 v 0 c -0.3,0.2 -0.6,0.4 -1,0.6 v 0 c -0.4,0.1 -1,0.3 -1.6,0.5 v 0 l 0.2,0.9 c 1.2,0 2.3,0 3.3,0.1 v 0 c 1,0.1 2,0.3 3.1,0.6 v 0 l 0.7,-1 -6.9,-32.4 v 0 c -0.1,-0.3 0.2,-0.6 0.7,-0.9 v 0 c 0.5,-0.4 1.3,-0.8 2.5,-1.2 v 0 l -0.1,-1.1 z" />
      <path
         inkscape:connector-curvature="0"
         id="path4872"
         style="fill:#000000;fill-opacity:1;fill-rule:evenodd;stroke:none"
         d="m 388.9,666.4 c 0.9,-0.3 1.9,-0.3 3.1,-0.1 v 0 c 1.2,0.2 2.5,0.6 4,1.3 v 0 l 1.6,5.9 c -1.3,0.1 -2.4,0.2 -3.4,0.2 v 0 c -0.9,0.1 -1.6,0 -2.2,-0.1 v 0 c -0.6,0 -1.2,-0.1 -1.5,-0.3 v 0 c -0.4,-0.1 -0.8,-0.3 -1.1,-0.5 v 0 c -0.5,-0.3 -1,-0.6 -1.4,-1.1 v 0 c -0.3,-0.4 -0.6,-1 -0.9,-1.8 v 0 c -0.1,-0.6 -0.1,-1 -0.1,-1.5 v 0 c 0.1,-0.4 0.2,-0.8 0.4,-1.1 v 0 c 0.3,-0.2 0.4,-0.5 0.7,-0.6 v 0 c 0.3,-0.2 0.5,-0.3 0.8,-0.3 z m 13.3,-3.9 c -1.6,-0.6 -2.9,-1 -3.8,-1.1 v 0 c -1,-0.2 -1.7,-0.2 -2.2,-0.1 v 0 c -0.5,0.1 -0.8,0.6 -0.9,1.4 v 0 c -0.2,0.8 -0.1,1.7 0.2,3 v 0 c -0.9,-0.5 -1.7,-0.9 -2.6,-1.2 v 0 c -0.9,-0.3 -1.7,-0.5 -2.4,-0.7 v 0 c -0.8,-0.2 -1.5,-0.2 -2.2,-0.2 v 0 c -0.6,0 -1.2,0 -1.7,0.2 v 0 c -0.5,0.2 -1.1,0.4 -1.6,0.8 v 0 c -0.6,0.2 -1,0.7 -1.4,1.2 v 0 c -0.4,0.5 -0.6,1.1 -0.7,1.8 v 0 c -0.1,0.7 -0.1,1.5 0.1,2.4 v 0 c 0.4,1.2 0.8,2 1.4,2.7 v 0 c 0.7,0.7 1.3,1.2 2.1,1.7 v 0 c 0.5,0.2 1,0.4 1.6,0.6 v 0 c 0.5,0.2 1.2,0.4 2.1,0.5 v 0 c 0.9,0.1 2,0.1 3.2,0.1 v 0 c 1.3,-0.1 2.9,-0.2 4.7,-0.4 v 0 l 0.9,3.2 c 0.2,0.4 0.3,0.9 0.3,1.4 v 0 c 0,0.5 -0.2,1 -0.3,1.3 v 0 c -0.3,0.5 -0.6,0.8 -1,1.1 v 0 c -0.5,0.3 -1.1,0.6 -1.9,0.7 v 0 c -0.5,0.2 -1,0.2 -1.5,0.2 v 0 c -0.6,0 -1,-0.1 -1.4,-0.3 v 0 c -0.5,-0.2 -0.9,-0.4 -1.2,-0.8 v 0 c -0.3,-0.3 -0.5,-0.6 -0.6,-1.1 v 0 c 0,-0.1 -0.2,-0.2 -0.6,-0.4 v 0 c -0.4,0 -0.8,-0.1 -1.3,-0.1 v 0 c -0.5,0 -1,0 -1.5,0.1 v 0 c -0.4,0 -0.8,0 -0.9,0.2 v 0 l -0.1,0.9 c 0.6,0.7 1.3,1.3 2.2,1.7 v 0 c 1,0.5 2,1 3.1,1.3 v 0 c 1.1,0.2 2.2,0.4 3.4,0.4 v 0 c 1.1,0 2.2,-0.1 3.2,-0.3 v 0 c 1.6,-0.5 2.8,-1.3 3.6,-2.4 v 0 c 0.6,-1.1 0.7,-2.4 0.3,-4 v 0 l -3.6,-12.7 c -0.2,-0.7 -0.2,-1.2 -0.1,-1.5 v 0 c 0.1,-0.3 0.3,-0.5 0.6,-0.6 v 0 c 0.2,0 0.5,0 0.8,-0.1 v 0 c 0.4,0 0.9,0.1 1.7,0.1 v 0 z" />
      <path
         inkscape:connector-curvature="0"
         id="path4874"
         style="fill:#000000;fill-opacity:1;fill-rule:evenodd;stroke:none"
         d="m 417.2,655 0.4,0.9 c 1.2,-0.1 2.1,-0.2 2.7,-0.2 v 0 c 0.6,0 0.9,0.2 1,0.4 v 0 l 4.7,11.6 c 0.3,0.9 0.5,1.6 0.6,2.2 v 0 c 0.2,0.6 0.2,1.1 0,1.5 v 0 c -0.1,0.4 -0.3,0.8 -0.6,1 v 0 c -0.3,0.2 -0.7,0.5 -1.2,0.7 v 0 c -0.6,0.1 -1.2,0.2 -1.9,0.2 v 0 c -0.7,-0.1 -1.5,-0.2 -2.4,-0.5 v 0 c -0.8,-0.2 -1.7,-0.6 -2.8,-1.1 v 0 c -0.9,-0.5 -1.9,-1.2 -3,-1.9 v 0 l -3.9,-9.8 c -0.1,-0.2 0.1,-0.5 0.6,-1 v 0 c 0.4,-0.4 1.1,-1 2,-1.5 v 0 l -0.4,-1 -9.7,3.7 0.4,0.9 v 0 c 1.1,-0.1 2,-0.2 2.6,-0.2 v 0 c 0.6,0 1,0.1 1.1,0.4 v 0 l 10.5,26.1 c 0.2,0.6 0.4,1.1 0.5,1.5 v 0 c 0,0.3 0,0.7 -0.2,0.9 v 0 c -0.1,0.3 -0.3,0.6 -0.7,0.8 v 0 c -0.4,0.3 -1,0.5 -1.7,0.9 v 0 l 0.4,0.8 c 0.7,-0.1 1.3,-0.1 1.9,-0.2 v 0 c 0.5,-0.1 1.1,-0.2 1.6,-0.2 v 0 c 0.5,0 1,0 1.4,0 v 0 c 0.5,0 1,0 1.5,0.1 v 0 l 0.6,-1.1 -7.3,-18.2 v 0 c 1,0.7 2,1.3 3.1,1.7 v 0 c 1.2,0.5 2.2,0.8 3.2,1 v 0 c 1,0.2 2,0.4 2.8,0.4 v 0 c 0.9,0 1.6,-0.2 2.2,-0.4 v 0 c 0.6,-0.2 1.2,-0.5 1.8,-1 v 0 c 0.5,-0.4 0.9,-0.9 1.2,-1.5 v 0 c 0.3,-0.5 0.5,-1.2 0.5,-1.9 v 0 c 0.1,-0.7 -0.1,-1.4 -0.4,-2.3 v 0 l -5.6,-13.9 c 0,-0.2 0.1,-0.5 0.4,-0.8 v 0 c 0.5,-0.4 1.2,-1 2.3,-1.7 v 0 l -0.4,-1 z" />
      <path
         inkscape:connector-curvature="0"
         id="path4876"
         style="fill:#000000;fill-opacity:1;fill-rule:evenodd;stroke:none"
         d="m 443.4,645.9 c -0.9,-0.1 -1.9,-0.3 -2.8,-0.3 v 0 c -0.9,0 -1.7,0 -2.5,0.1 v 0 c -0.8,0.1 -1.4,0.2 -2,0.3 v 0 c -0.6,0.1 -1.1,0.3 -1.5,0.5 v 0 c -0.5,0.2 -0.9,0.6 -1.3,1 v 0 c -0.4,0.4 -0.5,0.9 -0.7,1.5 v 0 c 0,0.6 0,1.3 0.1,2 v 0 c 0.2,0.8 0.5,1.7 1,2.6 v 0 l 7.1,12.7 -2.8,1.5 -0.1,0.7 2.4,0.6 1.6,-0.8 2.8,5.1 3.7,0.8 0.4,-0.9 -3.7,-6.7 7,-3.6 0.3,-0.9 v 0 c -0.2,-0.1 -0.6,-0.2 -0.9,-0.4 v 0 c -0.3,-0.1 -0.6,-0.2 -0.8,-0.3 v 0 c -0.4,-0.1 -0.6,-0.1 -1,-0.2 v 0 c -0.3,0 -0.4,-0.1 -0.6,0 v 0 c -0.3,0.3 -0.7,0.7 -1.3,1.2 v 0 c -0.7,0.6 -1.6,1.1 -2.7,1.7 v 0 l -1.1,0.6 -6,-10.9 v 0 c -0.6,-0.9 -0.8,-1.6 -1.1,-2.2 v 0 c -0.2,-0.6 -0.4,-1.1 -0.4,-1.5 v 0 c 0.1,-0.4 0.2,-0.8 0.4,-1.1 v 0 c 0.3,-0.3 0.5,-0.5 1,-0.7 v 0 c 0.5,-0.3 1.2,-0.6 2,-0.7 v 0 c 0.9,-0.2 2.1,-0.3 3.5,-0.3 v 0 z" />
      <path
         inkscape:connector-curvature="0"
         id="path4878"
         style="fill:#000000;fill-opacity:1;fill-rule:evenodd;stroke:none"
         d="m 465,640.5 c 0.8,1 1.4,2.1 1.8,3.2 v 0 c 0.3,1.2 0.5,2.3 0.5,3.3 v 0 c 0.1,1.1 -0.1,2.1 -0.5,3 v 0 c -0.3,0.9 -0.8,1.5 -1.5,2 v 0 c -0.9,0.7 -1.9,1.2 -2.9,1.3 v 0 c -0.9,0.2 -1.8,0.1 -2.7,-0.3 v 0 c -0.9,-0.3 -1.8,-0.8 -2.7,-1.5 v 0 c -0.9,-0.8 -1.6,-1.6 -2.5,-2.5 v 0 c -0.8,-1 -1.3,-2.1 -1.7,-3.3 v 0 c -0.3,-1.2 -0.5,-2.2 -0.5,-3.3 v 0 c 0.1,-1.1 0.2,-2.1 0.5,-3 v 0 c 0.4,-0.8 0.9,-1.4 1.4,-1.9 v 0 c 0.9,-0.7 1.9,-1.1 2.8,-1.3 v 0 c 0.9,-0.1 1.8,0 2.7,0.2 v 0 c 1,0.3 1.8,0.8 2.7,1.5 v 0 c 0.9,0.7 1.8,1.5 2.6,2.6 z m 3.5,-1.7 c -0.7,-0.7 -1.5,-1.5 -2.3,-2.1 v 0 c -0.9,-0.6 -1.8,-1.1 -2.7,-1.6 v 0 c -1,-0.4 -1.9,-0.7 -3,-0.9 v 0 c -1,-0.2 -2,-0.3 -3,-0.2 v 0 c -1,0.1 -2,0.2 -2.9,0.5 v 0 c -0.9,0.3 -1.8,0.7 -2.6,1.3 v 0 c -1.1,0.9 -2.1,2 -2.7,3.2 v 0 c -0.6,1.2 -1,2.4 -1,3.7 v 0 c -0.1,1.3 0.1,2.7 0.6,4.1 v 0 c 0.4,1.3 1.2,2.6 2.2,3.8 v 0 c 0.7,0.9 1.4,1.6 2.3,2.2 v 0 c 0.8,0.7 1.7,1.2 2.7,1.6 v 0 c 0.9,0.4 1.9,0.7 2.9,0.9 v 0 c 1.1,0.3 2,0.3 3,0.3 v 0 c 1,-0.1 2,-0.3 2.9,-0.6 v 0 c 1,-0.3 1.9,-0.8 2.6,-1.4 v 0 c 1.3,-0.9 2.1,-1.9 2.8,-3.1 v 0 c 0.6,-1.1 0.9,-2.4 1,-3.7 v 0 c 0.1,-1.3 -0.2,-2.7 -0.6,-4 v 0 c -0.5,-1.4 -1.2,-2.7 -2.2,-4 z" />
      <path
         inkscape:connector-curvature="0"
         id="path4880"
         style="fill:#000000;fill-opacity:1;fill-rule:evenodd;stroke:none"
         d="m 463.4,627.3 0.9,0.6 c 0.5,-0.5 0.9,-0.8 1.3,-1.1 v 0 c 0.4,-0.3 0.7,-0.5 1,-0.6 v 0 c 0.2,-0.1 0.5,-0.3 0.7,-0.3 v 0 c 0.1,0 0.3,0.1 0.4,0.2 v 0 l 22.6,17.4 c 0.5,0.5 0.9,0.9 1.2,1.2 v 0 c 0.2,0.4 0.4,0.7 0.4,1 v 0 c 0,0.3 -0.2,0.6 -0.3,1 v 0 c -0.3,0.4 -0.6,0.9 -1,1.4 v 0 l 0.8,0.6 c 0.9,-0.8 1.8,-1.4 2.6,-1.9 v 0 c 0.8,-0.6 1.8,-1.1 2.8,-1.5 v 0 l -0.1,-1.2 -26.7,-20.8 v 0 c -0.2,-0.1 -0.3,-0.5 -0.1,-1.1 v 0 c 0.1,-0.5 0.5,-1.4 1.2,-2.5 v 0 l -0.8,-0.7 z" />
      <path
         inkscape:connector-curvature="0"
         id="path4882"
         style="fill:#000000;fill-opacity:1;fill-rule:evenodd;stroke:none"
         d="m 117.4,524.6 c -0.8,0.3 -1.7,0.6 -2.6,1 v 0 c -0.8,0.3 -1.5,0.7 -2.2,1.1 v 0 c -0.6,0.4 -1.2,0.8 -1.7,1.2 v 0 c -0.4,0.4 -0.8,0.7 -1,1 v 0 c -0.3,0.5 -0.6,1 -0.7,1.6 v 0 c -0.2,0.5 -0.1,1.1 0,1.7 v 0 c 0.2,0.6 0.5,1.2 1,1.8 v 0 c 0.4,0.7 1.2,1.4 2.1,2 v 0 l 11.8,9 -1.8,2.5 0.2,0.8 2.4,-0.6 1,-1.3 4.8,3.5 3.7,-0.8 -0.1,-1 -6.2,-4.7 4.6,-6.5 -0.1,-1 v 0 c -0.3,0 -0.5,0 -0.9,0 v 0 c -0.4,0.1 -0.7,0.1 -1,0.2 v 0 c -0.2,0 -0.6,0.1 -0.8,0.2 v 0 c -0.4,0 -0.5,0.1 -0.7,0.2 v 0 c -0.1,0.4 -0.3,1 -0.6,1.8 v 0 c -0.3,0.7 -0.9,1.6 -1.6,2.7 v 0 l -0.8,1 -10.1,-7.7 v 0 c -0.8,-0.6 -1.4,-1 -1.9,-1.5 v 0 c -0.5,-0.5 -0.8,-0.9 -1,-1.3 v 0 c -0.2,-0.4 -0.2,-0.8 -0.2,-1.1 v 0 c 0.1,-0.4 0.3,-0.8 0.6,-1.2 v 0 c 0.4,-0.5 0.8,-1 1.5,-1.5 v 0 c 0.7,-0.6 1.7,-1.2 3,-1.8 v 0 z" />
      <path
         inkscape:connector-curvature="0"
         id="path4884"
         style="fill:#000000;fill-opacity:1;fill-rule:evenodd;stroke:none"
         d="m 116.8,521.4 0.7,0.8 c 0.6,-0.5 1.1,-0.8 1.5,-1.1 v 0 c 0.4,-0.2 0.7,-0.4 1,-0.4 v 0 c 0.3,-0.1 0.5,-0.2 0.7,-0.2 v 0 c 0.1,0 0.3,0.1 0.4,0.2 v 0 l 20.2,20.6 c 0.5,0.6 0.9,1 1,1.4 v 0 c 0.3,0.3 0.3,0.6 0.3,1 v 0 c 0,0.3 -0.2,0.6 -0.4,1 v 0 c -0.3,0.3 -0.6,0.8 -1.1,1.4 v 0 l 0.7,0.6 c 1,-0.6 1.9,-1.2 2.8,-1.7 v 0 c 0.8,-0.5 1.8,-0.9 2.9,-1.2 v 0 -1.3 l -23.9,-24.4 v 0 c -0.1,-0.2 -0.1,-0.6 0.1,-1.1 v 0 c 0.2,-0.7 0.7,-1.5 1.5,-2.6 v 0 l -0.8,-0.7 z" />
      <path
         inkscape:connector-curvature="0"
         id="path4886"
         style="fill:#000000;fill-opacity:1;fill-rule:evenodd;stroke:none"
         d="m 146.9,522.2 c -0.7,0.5 -1.4,0.8 -2.2,1 v 0 c -0.7,0.1 -1.5,0.1 -2.2,0 v 0 c -0.8,-0.2 -1.6,-0.5 -2.4,-0.9 v 0 c -0.7,-0.4 -1.5,-1 -2.1,-1.7 v 0 l 8.1,-6.3 c 0.3,-0.2 0.6,-0.3 0.8,-0.3 v 0 c 0.2,0.1 0.3,0.2 0.5,0.5 v 0 c 0.3,0.3 0.5,0.8 0.9,1.4 v 0 c 0.3,0.6 0.4,1.2 0.5,2 v 0 c 0,0.7 0,1.4 -0.2,2.2 v 0 c -0.3,0.8 -0.9,1.4 -1.7,2.1 z m 2.8,-11.3 c -0.4,-0.1 -0.9,-0.1 -1.4,0 v 0 c -0.6,0 -1.1,0.2 -1.7,0.3 v 0 l -10.1,7.7 c -0.7,-1 -1.3,-2.1 -1.7,-3.2 v 0 c -0.4,-1.2 -0.6,-2.2 -0.7,-3.3 v 0 c 0,-1.1 0.2,-2.1 0.6,-3 v 0 c 0.3,-1 1.1,-1.8 1.9,-2.5 v 0 c 0.4,-0.3 0.8,-0.5 1.2,-0.8 v 0 c 0.5,-0.2 1,-0.4 1.5,-0.6 v 0 c 0.6,-0.1 1.2,-0.2 2,-0.3 v 0 c 0.8,0 1.8,0 3,0 v 0 c 0.1,-0.2 0.1,-0.4 0.1,-0.7 v 0 c 0,-0.2 0,-0.5 0,-0.6 v 0 c -1.6,-0.3 -2.9,-0.5 -4,-0.6 v 0 c -1,-0.1 -2,-0.1 -2.8,0 v 0 c -0.8,0.2 -1.5,0.4 -2.1,0.8 v 0 c -0.7,0.3 -1.3,0.7 -1.9,1.2 v 0 c -1,0.7 -1.8,1.6 -2.4,2.8 v 0 c -0.6,1.1 -0.9,2.3 -1,3.6 v 0 c 0,1.3 0.1,2.7 0.5,4.1 v 0 c 0.4,1.4 1.1,2.8 2.1,4.2 v 0 c 0.6,0.9 1.4,1.7 2.2,2.4 v 0 c 0.9,0.7 1.7,1.3 2.6,1.8 v 0 c 1,0.5 1.9,0.8 2.9,1.1 v 0 c 1,0.2 2,0.2 3,0.2 v 0 c 0.4,0 0.9,0 1.4,-0.1 v 0 c 0.4,-0.1 1,-0.2 1.5,-0.3 v 0 c 0.5,-0.2 0.9,-0.4 1.4,-0.5 v 0 c 0.4,-0.3 0.8,-0.5 1.1,-0.8 v 0 c 0.9,-0.6 1.5,-1.3 2,-2 v 0 c 0.5,-0.7 0.8,-1.5 1,-2.3 v 0 c 0.2,-0.8 0.3,-1.5 0.2,-2.3 v 0 c 0,-0.8 -0.2,-1.6 -0.4,-2.3 v 0 c -0.2,-0.8 -0.5,-1.5 -0.9,-2.1 v 0 c -0.3,-0.7 -0.7,-1.3 -1.1,-1.9 z" />
      <path
         inkscape:connector-curvature="0"
         id="path4888"
         style="fill:#000000;fill-opacity:1;fill-rule:evenodd;stroke:none"
         d="m 157.4,491 0.5,1 c 1.2,-0.4 2,-0.5 2.6,-0.6 v 0 c 0.6,-0.1 0.9,0 1,0.2 v 0 l 6.1,11.4 c 0.4,0.9 0.8,1.6 1,2.2 v 0 c 0.2,0.6 0.2,1.2 0.2,1.6 v 0 c 0,0.4 -0.2,0.8 -0.5,1.1 v 0 c -0.3,0.3 -0.7,0.6 -1.1,0.9 v 0 c -0.5,0.2 -1,0.3 -1.7,0.4 v 0 c -0.7,0.1 -1.4,0 -2.3,-0.1 v 0 c -0.8,-0.1 -1.9,-0.4 -2.9,-0.8 v 0 c -1,-0.4 -2.2,-1 -3.5,-1.7 v 0 l -5,-9.5 c -0.2,-0.3 0,-0.7 0.4,-1.2 v 0 c 0.4,-0.5 1,-1.1 1.8,-1.8 v 0 l -0.5,-1 -9.1,5.1 0.5,0.9 v 0 c 1.1,-0.3 1.9,-0.5 2.5,-0.6 v 0 c 0.7,-0.1 1,0 1.2,0.3 v 0 l 6.9,13 c 0.3,0.6 0.5,1 0.6,1.4 v 0 c 0.1,0.4 0.1,0.7 0.1,1 v 0 c -0.1,0.3 -0.3,0.6 -0.7,0.9 v 0 c -0.3,0.3 -0.8,0.6 -1.5,1.1 v 0 l 0.5,0.9 c 1,-0.4 2,-0.7 3,-0.8 v 0 c 0.9,-0.1 1.9,-0.3 3,-0.3 v 0 l 0.3,-1.1 -2.6,-5.5 v 0 c 1.1,0.6 2.2,1.1 3.3,1.4 v 0 c 1.2,0.4 2.3,0.6 3.3,0.7 v 0 c 1.1,0.1 2,0.1 2.9,0 v 0 c 0.9,-0.1 1.6,-0.3 2.1,-0.6 v 0 c 0.6,-0.3 1.1,-0.7 1.6,-1.3 v 0 c 0.5,-0.5 0.8,-1 1,-1.6 v 0 c 0.3,-0.7 0.3,-1.3 0.3,-2.1 v 0 c 0,-0.7 -0.3,-1.5 -0.7,-2.3 v 0 l -7.3,-13.7 c -0.1,-0.2 0,-0.5 0.3,-1 v 0 c 0.4,-0.4 1,-1 2,-1.9 v 0 l -0.5,-0.9 z" />
      <path
         inkscape:connector-curvature="0"
         id="path4890"
         style="fill:#000000;fill-opacity:1;fill-rule:evenodd;stroke:none"
         d="m 178.9,481 0.3,1 c 1.1,-0.2 1.9,-0.3 2.6,-0.2 v 0 c 0.6,0.1 0.9,0.2 1,0.4 v 0 l 4.7,13 c 0.4,0.7 0.6,1.4 0.7,1.9 v 0 c 0.2,0.5 0.2,0.9 0.1,1.3 v 0 c -0.1,0.3 -0.4,0.6 -0.8,0.9 v 0 c -0.3,0.2 -0.9,0.6 -1.7,1 v 0 l 0.4,0.9 c 0.5,-0.1 1,-0.1 1.5,-0.3 v 0 c 0.7,0 1.2,0 1.8,-0.1 v 0 c 0.5,-0.1 1.1,-0.1 1.6,-0.1 v 0 c 0.6,0.1 1,0.1 1.5,0.2 v 0 l 0.8,-0.3 -7.2,-19.7 v 0 c -0.1,-0.2 0.1,-0.5 0.5,-0.9 v 0 c 0.4,-0.5 1.2,-1 2.1,-1.7 v 0 l -0.3,-0.9 z m 17.7,26.2 c -0.2,-0.4 -0.4,-0.8 -0.7,-1.1 v 0 c -0.3,-0.3 -0.6,-0.7 -0.9,-0.8 v 0 c -0.3,-0.2 -0.7,-0.3 -1.1,-0.4 v 0 c -0.3,0 -0.7,0 -1.1,0.1 v 0 c -0.7,0.3 -1.1,0.7 -1.3,1.2 v 0 c -0.1,0.5 0,1.1 0.2,1.8 v 0 c 0.2,0.4 0.4,0.8 0.7,1.1 v 0 c 0.3,0.3 0.6,0.6 0.9,0.8 v 0 c 0.3,0.2 0.7,0.3 1.1,0.4 v 0 c 0.3,0 0.7,0 1,-0.2 v 0 c 1.3,-0.5 1.7,-1.5 1.2,-2.9 z" />
      <path
         inkscape:connector-curvature="0"
         id="path4892"
         style="fill:#000000;fill-opacity:1;fill-rule:evenodd;stroke:none"
         d="m 190.4,476.6 0.3,0.9 c 1.1,0 1.9,0 2.6,0 v 0 c 0.6,0.1 0.9,0.2 1,0.5 v 0 l 8.2,27.9 c 0.1,0.8 0.3,1.4 0.3,1.7 v 0 c 0,0.5 0,0.8 -0.2,1 v 0 c -0.2,0.3 -0.5,0.6 -0.9,0.8 v 0 c -0.4,0.1 -0.9,0.4 -1.6,0.7 v 0 l 0.3,0.9 c 1.2,-0.1 2.2,-0.2 3.3,-0.2 v 0 c 1.2,0 2.2,0.1 3.1,0.3 v 0 l 0.6,-1 -6.7,-23.1 8.9,4.1 v 0 c 0.6,0.3 1,0.6 1.2,0.9 v 0 c 0.2,0.2 0.3,0.4 0.1,0.5 v 0 c -0.1,0.2 -0.3,0.4 -0.6,0.6 v 0 c -0.3,0.1 -0.7,0.3 -1.1,0.4 v 0 l 0.3,1 8.7,-2.7 -0.3,-0.9 v 0 c -0.6,0.1 -1.3,0.2 -2,0.1 v 0 c -0.6,0 -1.3,-0.1 -2.1,-0.5 v 0 l -9.7,-4 5.6,-13 v 0 c 0.2,-0.3 0.3,-0.5 0.5,-0.8 v 0 c 0.2,-0.2 0.4,-0.4 0.7,-0.6 v 0 c 0.2,-0.2 0.5,-0.3 0.9,-0.4 v 0 c 0.3,-0.2 0.7,-0.3 1.2,-0.4 v 0 l -0.2,-1 c -0.5,0 -0.9,0 -1.4,0.1 v 0 c -0.5,0.1 -0.9,0.1 -1.3,0.2 v 0 c -0.4,0 -0.7,0 -1,0.1 v 0 c -0.3,0 -0.6,0.1 -0.8,0.2 v 0 c -0.5,0.2 -1,0.4 -1.4,0.8 v 0 c -0.3,0.2 -0.6,0.7 -0.8,1.2 v 0 l -5.5,13.9 -2.8,-9.8 v 0 c -0.1,-0.1 -0.1,-0.2 0,-0.4 v 0 c 0,-0.1 0.1,-0.2 0.2,-0.4 v 0 c 0.2,-0.1 0.4,-0.3 0.7,-0.5 v 0 c 0.3,-0.3 0.7,-0.6 1.2,-0.9 v 0 l -0.3,-1 z" />
      <path
         inkscape:connector-curvature="0"
         id="path4894"
         style="fill:#000000;fill-opacity:1;fill-rule:evenodd;stroke:none"
         d="m 239.7,467.1 c -0.9,-0.4 -1.7,-0.8 -2.6,-1.1 v 0 c -0.8,-0.3 -1.6,-0.5 -2.4,-0.6 v 0 c -0.7,-0.2 -1.4,-0.3 -1.9,-0.3 v 0 c -0.7,-0.1 -1.2,-0.1 -1.6,0 v 0 c -0.6,0.1 -1,0.3 -1.5,0.6 v 0 c -0.4,0.3 -0.8,0.8 -1.1,1.3 v 0 c -0.3,0.5 -0.5,1.2 -0.6,2 v 0 c -0.1,0.8 0,1.8 0.2,2.9 v 0 l 2.8,14.8 -3.1,0.5 -0.3,0.8 2.1,1.3 1.7,-0.3 1.1,5.9 3.3,1.9 0.6,-0.7 -1.4,-7.8 7.7,-1.5 0.5,-0.9 v 0 c -0.2,-0.2 -0.4,-0.3 -0.6,-0.6 v 0 c -0.3,-0.2 -0.6,-0.4 -0.8,-0.6 v 0 c -0.3,-0.1 -0.6,-0.3 -0.8,-0.5 v 0 c -0.3,-0.1 -0.4,-0.2 -0.6,-0.2 v 0 c -0.4,0.2 -0.9,0.6 -1.6,0.9 v 0 c -0.7,0.3 -1.8,0.6 -3,0.8 v 0 l -1.3,0.3 -2.4,-12.7 v 0 c -0.1,-1 -0.3,-1.8 -0.3,-2.4 v 0 c 0,-0.7 0,-1.2 0.2,-1.6 v 0 c 0.1,-0.4 0.3,-0.7 0.6,-1 v 0 c 0.3,-0.2 0.7,-0.4 1.2,-0.5 v 0 c 0.5,-0.1 1.2,-0.1 2.2,0 v 0 c 0.8,0 1.9,0.3 3.2,0.7 v 0 z" />
      <path
         inkscape:connector-curvature="0"
         id="path4896"
         style="fill:#000000;fill-opacity:1;fill-rule:evenodd;stroke:none"
         d="m 241.5,464 0.1,1 c 1.2,0.1 2,0.2 2.6,0.4 v 0 c 0.6,0.2 0.9,0.4 1,0.6 v 0 l 1.9,13.7 c 0.1,0.8 0.2,1.5 0.2,2 v 0 c 0.1,0.5 0,0.9 -0.2,1.2 v 0 c -0.1,0.4 -0.4,0.6 -0.9,0.8 v 0 c -0.4,0.2 -1,0.4 -1.8,0.6 v 0 l 0.1,1 c 0.5,0 1,0 1.6,0.1 v 0 c 0.6,0 1.2,0.1 1.7,0.2 v 0 c 0.6,0.1 1.1,0.2 1.6,0.3 v 0 c 0.6,0.1 1.1,0.3 1.5,0.4 v 0 l 0.8,-0.1 -3,-20.7 v 0 c 0,-0.2 0.3,-0.5 0.7,-0.8 v 0 c 0.5,-0.4 1.3,-0.8 2.5,-1.2 v 0 l -0.2,-1 z m 11.9,29.4 c -0.1,-0.5 -0.2,-0.9 -0.4,-1.3 v 0 c -0.1,-0.3 -0.4,-0.7 -0.7,-0.9 v 0 c -0.3,-0.3 -0.6,-0.5 -0.9,-0.6 v 0 c -0.4,-0.1 -0.8,-0.1 -1.2,-0.1 v 0 c -0.7,0.1 -1.2,0.4 -1.4,0.8 v 0 c -0.3,0.5 -0.4,1.1 -0.3,1.8 v 0 c 0.1,0.5 0.2,0.9 0.5,1.3 v 0 c 0.1,0.3 0.4,0.7 0.7,0.9 v 0 c 0.3,0.3 0.6,0.4 0.9,0.5 v 0 c 0.4,0.2 0.8,0.2 1.1,0.2 v 0 c 1.4,-0.2 1.9,-1.1 1.7,-2.6 z" />
      <path
         inkscape:connector-curvature="0"
         id="path4898"
         style="fill:#000000;fill-opacity:1;fill-rule:evenodd;stroke:none"
         d="m 281.3,459.8 0.1,1 c 1.2,0.2 2,0.4 2.6,0.7 v 0 c 0.5,0.2 0.8,0.3 0.9,0.5 v 0 l 0.9,13 c 0,0.9 0,1.8 0,2.4 v 0 c -0.1,0.7 -0.2,1.3 -0.4,1.6 v 0 c -0.1,0.4 -0.5,0.7 -0.8,0.8 v 0 c -0.3,0.2 -0.7,0.4 -1.2,0.4 v 0 c -0.5,0.1 -1.1,0 -1.7,-0.4 v 0 c -0.6,-0.2 -1.2,-0.5 -1.9,-1.1 v 0 c -0.6,-0.5 -1.4,-1.1 -2,-1.9 v 0 c -0.7,-0.7 -1.4,-1.6 -2.1,-2.6 v 0 l -0.8,-11.4 c 0,-0.3 0.2,-0.5 0.7,-0.8 v 0 c 0.5,-0.2 1.3,-0.5 2.6,-1 v 0 l -0.1,-1 -10.3,0.7 0.1,1.1 v 0 c 1.2,0.2 2,0.4 2.6,0.6 v 0 c 0.5,0.2 0.8,0.4 0.9,0.7 v 0 l 0.8,12.8 c 0.1,1.1 0.1,1.9 0,2.5 v 0 c 0,0.7 -0.1,1.2 -0.3,1.6 v 0 c -0.2,0.4 -0.4,0.7 -0.8,0.9 v 0 c -0.3,0.1 -0.7,0.3 -1.2,0.3 v 0 c -1.1,0.1 -2.3,-0.4 -3.5,-1.5 v 0 c -1.3,-1 -2.7,-2.5 -4.2,-4.5 v 0 l -0.8,-11.4 c 0,-0.3 0.3,-0.5 0.8,-0.8 v 0 c 0.6,-0.3 1.4,-0.6 2.4,-1 v 0 -1 l -10.3,0.8 0.1,1 v 0 c 1,0.2 1.9,0.4 2.5,0.6 v 0 c 0.6,0.1 0.9,0.4 0.9,0.6 v 0 l 1,14.8 c 0.1,0.7 0.1,1.2 0,1.6 v 0 c 0,0.4 -0.1,0.6 -0.3,0.9 v 0 c -0.2,0.2 -0.5,0.4 -1,0.5 v 0 c -0.4,0.1 -1,0.3 -1.8,0.5 v 0 l 0.1,0.9 c 0.7,0.1 1.2,0.1 1.7,0.2 v 0 c 0.5,0.2 1,0.3 1.5,0.4 v 0 c 0.5,0.1 0.9,0.2 1.3,0.4 v 0 c 0.5,0.2 0.9,0.4 1.4,0.6 v 0 l 0.7,-1 -0.1,-5.6 v 0 c 0.8,1.1 1.6,2 2.4,2.7 v 0 c 0.8,0.7 1.6,1.4 2.3,1.8 v 0 c 0.8,0.5 1.5,0.9 2.2,1.1 v 0 c 0.7,0.2 1.3,0.3 1.9,0.2 v 0 c 0.7,0 1.5,-0.1 2,-0.4 v 0 c 0.7,-0.2 1.2,-0.6 1.7,-1.1 v 0 c 0.4,-0.4 0.8,-1 1,-1.8 v 0 c 0.2,-0.7 0.3,-1.7 0.2,-2.8 v 0 -0.5 c 0.7,1 1.5,1.9 2.2,2.6 v 0 c 0.8,0.7 1.6,1.3 2.3,1.8 v 0 c 0.8,0.5 1.5,0.7 2.2,1 v 0 c 0.7,0.2 1.3,0.3 1.9,0.2 v 0 c 0.8,0 1.5,-0.1 2.1,-0.4 v 0 c 0.6,-0.3 1.2,-0.7 1.6,-1.1 v 0 c 0.4,-0.5 0.8,-1.1 1,-1.8 v 0 c 0.2,-0.7 0.3,-1.5 0.3,-2.4 v 0 l -1.2,-15.5 c 0,-0.2 0.3,-0.5 0.7,-0.8 v 0 c 0.5,-0.2 1.4,-0.5 2.6,-0.9 v 0 l -0.1,-1.1 z" />
      <path
         inkscape:connector-curvature="0"
         id="path4900"
         style="fill:#000000;fill-opacity:1;fill-rule:evenodd;stroke:none"
         d="m 311.3,470.6 c 0,1.3 -0.2,2.5 -0.7,3.7 v 0 c -0.4,1.2 -0.9,2.2 -1.6,3 v 0 c -0.6,0.9 -1.4,1.6 -2.3,2.1 v 0 c -0.8,0.6 -1.6,0.8 -2.4,0.8 v 0 c -1.2,0 -2.3,-0.3 -3.1,-0.8 v 0 c -0.8,-0.5 -1.5,-1.1 -2,-2 v 0 c -0.5,-0.8 -0.8,-1.7 -1.1,-2.9 v 0 c -0.2,-1.1 -0.3,-2.3 -0.3,-3.6 v 0 c 0.1,-1.3 0.3,-2.6 0.8,-3.7 v 0 c 0.4,-1.1 1,-2.1 1.7,-3.1 v 0 c 0.7,-0.8 1.4,-1.5 2.3,-2 v 0 c 0.8,-0.5 1.5,-0.8 2.3,-0.7 v 0 c 1.1,0 2.1,0.2 2.9,0.6 v 0 c 0.9,0.5 1.5,1.1 2,1.9 v 0 c 0.5,0.8 0.9,1.7 1.2,2.9 v 0 c 0.2,1.1 0.3,2.4 0.3,3.8 z m 3.7,0.8 c 0,-1.1 -0.1,-2.2 -0.4,-3.2 v 0 c -0.2,-1.1 -0.6,-2.1 -1.1,-3 v 0 c -0.4,-0.9 -1,-1.8 -1.7,-2.6 v 0 c -0.6,-0.8 -1.3,-1.5 -2.2,-2.1 v 0 c -0.8,-0.6 -1.6,-1 -2.5,-1.3 v 0 c -0.9,-0.3 -1.9,-0.5 -2.8,-0.5 v 0 c -1.6,-0.1 -2.9,0.2 -4.2,0.8 v 0 c -1.2,0.6 -2.3,1.4 -3.2,2.4 v 0 c -0.8,1 -1.5,2.2 -2,3.6 v 0 c -0.5,1.4 -0.7,3 -0.7,4.7 v 0 c 0,1.1 0,2.1 0.3,3.2 v 0 c 0.3,1 0.6,1.9 1.1,2.9 v 0 c 0.5,1 1,1.8 1.6,2.6 v 0 c 0.7,0.8 1.4,1.5 2.2,2.1 v 0 c 0.8,0.6 1.7,1 2.6,1.3 v 0 c 0.9,0.4 1.9,0.5 3,0.6 v 0 c 1.5,0 2.8,-0.3 4,-0.8 v 0 c 1.3,-0.6 2.3,-1.4 3.2,-2.4 v 0 c 0.9,-1.1 1.6,-2.3 2,-3.7 v 0 c 0.5,-1.5 0.8,-3 0.8,-4.6 z" />
      <path
         inkscape:connector-curvature="0"
         id="path4902"
         style="fill:#000000;fill-opacity:1;fill-rule:evenodd;stroke:none"
         d="m 333.1,463.5 c -0.8,-0.6 -1.5,-1.2 -2.2,-1.7 v 0 c -0.7,-0.5 -1.5,-0.9 -2.2,-1.2 v 0 c -0.7,-0.4 -1.3,-0.6 -1.9,-0.8 v 0 c -0.5,-0.2 -1,-0.4 -1.5,-0.4 v 0 c -0.5,0 -1,0 -1.6,0.2 v 0 c -0.5,0.2 -0.9,0.5 -1.4,1 v 0 c -0.4,0.5 -0.7,1.1 -1,1.8 v 0 c -0.2,0.8 -0.4,1.7 -0.5,2.9 v 0 l -0.9,15 -3.2,-0.3 -0.5,0.7 1.7,1.7 1.8,0.2 -0.4,6 2.7,2.7 0.8,-0.6 0.5,-7.9 7.8,0.6 0.8,-0.7 v 0 c -0.2,-0.3 -0.3,-0.6 -0.5,-0.8 v 0 c -0.2,-0.3 -0.4,-0.5 -0.6,-0.8 v 0 c -0.2,-0.2 -0.5,-0.5 -0.6,-0.7 v 0 c -0.3,-0.1 -0.4,-0.3 -0.6,-0.4 v 0 c -0.4,0.2 -1,0.3 -1.8,0.4 v 0 c -0.8,0.2 -1.8,0.2 -3.1,0.2 v 0 l -1.3,-0.2 0.9,-12.8 v 0 c 0,-1 0.1,-1.8 0.3,-2.4 v 0 c 0.1,-0.7 0.3,-1.2 0.5,-1.6 v 0 c 0.2,-0.3 0.5,-0.6 0.8,-0.7 v 0 c 0.4,-0.2 0.8,-0.2 1.2,-0.2 v 0 c 0.6,0.1 1.3,0.2 2.2,0.5 v 0 c 0.8,0.3 1.8,0.8 3,1.5 v 0 z" />
      <path
         inkscape:connector-curvature="0"
         id="path4904"
         style="fill:#000000;fill-opacity:1;fill-rule:evenodd;stroke:none"
         d="m 335.3,460.9 -0.1,1.1 c 0.7,0.1 1.2,0.3 1.7,0.5 v 0 c 0.5,0.2 0.8,0.4 1.1,0.5 v 0 c 0.3,0.2 0.4,0.3 0.5,0.4 v 0 c 0.1,0.2 0.2,0.3 0.2,0.4 v 0 l -3,29.1 c -0.1,0.7 -0.2,1.2 -0.4,1.6 v 0 c -0.1,0.4 -0.3,0.7 -0.6,0.9 v 0 c -0.2,0.2 -0.6,0.2 -1.1,0.3 v 0 c -0.4,0 -1,0.1 -1.6,0.1 v 0 l -0.1,0.9 c 1.1,0.4 2.1,0.7 3,1.1 v 0 c 0.9,0.3 1.9,0.9 2.8,1.5 v 0 l 1,-0.7 3.6,-34.4 v 0 c 0,-0.2 0.3,-0.4 0.8,-0.6 v 0 c 0.6,-0.2 1.6,-0.4 2.9,-0.5 v 0 l 0.1,-1 z" />
      <path
         inkscape:connector-curvature="0"
         id="path4906"
         style="fill:#000000;fill-opacity:1;fill-rule:evenodd;stroke:none"
         d="m 355.1,465.8 c 0.9,0.2 1.9,0.6 2.9,1.2 v 0 c 1,0.7 2,1.7 3.1,3 v 0 l -1,6.2 c -1.3,-0.4 -2.4,-0.8 -3.2,-1.2 v 0 c -0.8,-0.4 -1.5,-0.7 -2,-1 v 0 c -0.5,-0.2 -0.9,-0.6 -1.2,-0.8 v 0 c -0.3,-0.4 -0.6,-0.7 -0.8,-0.9 v 0 c -0.4,-0.6 -0.6,-1.1 -0.8,-1.7 v 0 c -0.1,-0.6 -0.2,-1.3 0,-2.1 v 0 c 0.1,-0.6 0.3,-1.1 0.5,-1.5 v 0 c 0.3,-0.3 0.5,-0.6 0.9,-0.8 v 0 c 0.2,-0.2 0.5,-0.3 0.9,-0.4 v 0 c 0.2,0 0.5,0 0.7,0 z m 13.7,1.8 c -1.2,-1.2 -2.3,-2 -3,-2.6 v 0 c -0.9,-0.5 -1.5,-0.9 -1.9,-1 v 0 c -0.5,0 -1,0.3 -1.5,0.9 v 0 c -0.5,0.7 -0.8,1.7 -1,3 v 0 c -0.6,-0.8 -1.2,-1.6 -1.9,-2.2 v 0 c -0.6,-0.6 -1.2,-1.2 -1.9,-1.7 v 0 c -0.6,-0.4 -1.2,-0.8 -1.8,-1 v 0 c -0.6,-0.2 -1.1,-0.4 -1.6,-0.5 v 0 c -0.6,-0.1 -1.2,-0.1 -1.8,0 v 0 c -0.6,0.1 -1.2,0.3 -1.8,0.6 v 0 c -0.5,0.4 -1,0.9 -1.4,1.5 v 0 c -0.4,0.6 -0.7,1.4 -0.9,2.3 v 0 c -0.1,1.2 -0.1,2.3 0.2,3.1 v 0 c 0.3,0.9 0.7,1.7 1.2,2.4 v 0 c 0.3,0.4 0.7,0.9 1.1,1.3 v 0 c 0.4,0.5 1,0.9 1.7,1.3 v 0 c 0.8,0.5 1.8,1 2.9,1.5 v 0 c 1.2,0.5 2.6,0.9 4.4,1.5 v 0 l -0.5,3.4 c -0.1,0.6 -0.2,1.1 -0.4,1.5 v 0 c -0.2,0.5 -0.5,0.8 -0.9,1.1 v 0 c -0.4,0.3 -0.8,0.6 -1.3,0.6 v 0 c -0.6,0.2 -1.2,0.2 -2,0 v 0 c -0.5,-0.1 -1,-0.3 -1.4,-0.5 v 0 c -0.5,-0.3 -0.9,-0.5 -1.2,-0.9 v 0 c -0.3,-0.3 -0.6,-0.7 -0.7,-1.1 v 0 c -0.1,-0.5 -0.2,-0.9 0,-1.4 v 0 c 0,-0.1 -0.1,-0.3 -0.5,-0.6 v 0 c -0.3,-0.2 -0.6,-0.4 -1.1,-0.7 v 0 c -0.4,-0.2 -0.9,-0.3 -1.3,-0.5 v 0 c -0.5,-0.2 -0.7,-0.3 -0.9,-0.2 v 0 l -0.5,0.9 c 0.2,0.8 0.7,1.7 1.3,2.6 v 0 c 0.6,0.8 1.3,1.6 2.2,2.3 v 0 c 0.9,0.7 1.8,1.3 2.9,1.8 v 0 c 1,0.6 2,0.9 3,1 v 0 c 1.7,0.3 3.1,0.1 4.2,-0.7 v 0 c 1.1,-0.8 1.8,-2 2,-3.6 v 0 l 2.1,-13.7 c 0.1,-0.6 0.2,-1.1 0.5,-1.4 v 0 c 0.2,-0.3 0.5,-0.3 0.7,-0.3 v 0 c 0.3,0 0.5,0.1 0.9,0.3 v 0 c 0.3,0.1 0.8,0.3 1.3,0.7 v 0 z" />
      <path
         inkscape:connector-curvature="0"
         id="path4908"
         style="fill:#000000;fill-opacity:1;fill-rule:evenodd;stroke:none"
         d="m 387.4,480.5 c -0.2,1.4 -0.7,2.7 -1.3,3.8 v 0 c -0.6,1.1 -1.3,2 -2,2.8 v 0 c -0.7,0.7 -1.5,1.3 -2.3,1.6 v 0 c -0.8,0.3 -1.6,0.4 -2.3,0.2 v 0 c -0.3,-0.1 -0.7,-0.3 -1,-0.5 v 0 c -0.5,-0.3 -1,-0.7 -1.5,-1.3 v 0 c -0.4,-0.5 -0.9,-1.2 -1.4,-2.1 v 0 c -0.5,-0.8 -1,-1.8 -1.5,-3.1 v 0 l 2.2,-9.4 c 0.8,-0.3 1.6,-0.6 2.3,-0.8 v 0 c 0.7,-0.2 1.3,-0.4 1.8,-0.5 v 0 c 0.6,-0.1 1.2,-0.1 1.7,-0.1 v 0 c 0.4,0.1 0.9,0.2 1.3,0.3 v 0 c 0.9,0.2 1.6,0.5 2.2,1 v 0 c 0.6,0.6 1.1,1.2 1.5,1.9 v 0 c 0.3,0.8 0.6,1.7 0.7,2.7 v 0 c 0,1.1 0,2.3 -0.4,3.5 z m 2.8,2.4 c 0.2,-1 0.4,-2 0.3,-3 v 0 c 0,-1 -0.1,-2 -0.3,-3 v 0 c -0.2,-1 -0.5,-2 -0.8,-3 v 0 c -0.4,-0.9 -0.9,-1.8 -1.4,-2.6 v 0 c -0.5,-0.7 -1.1,-1.4 -1.8,-1.9 v 0 c -0.6,-0.6 -1.3,-0.9 -2,-1.1 v 0 c -1,-0.2 -2,-0.2 -3.4,0 v 0 c -1.2,0.3 -2.5,0.8 -3.9,1.5 v 0 l 2.6,-11.3 c 0.1,-0.2 0.5,-0.4 1.1,-0.5 v 0 c 0.6,-0.1 1.7,-0.1 3.2,0 v 0 l 0.2,-1 -10.7,-2.5 -0.2,1 v 0 c 0.9,0.5 1.7,0.9 2.2,1.3 v 0 c 0.5,0.3 0.8,0.7 0.7,0.9 v 0 l -5.9,25.9 c -0.2,0.6 -0.3,1 -0.4,1.4 v 0 c -0.2,0.4 -0.4,0.7 -0.6,0.8 v 0 c -0.3,0.2 -0.7,0.3 -1.1,0.3 v 0 c -0.5,0 -1.1,-0.1 -1.8,-0.2 v 0 l -0.2,1 c 0.4,0.2 0.9,0.4 1.4,0.7 v 0 c 0.4,0.2 0.9,0.4 1.3,0.7 v 0 c 0.4,0.3 0.8,0.5 1.2,0.8 v 0 c 0.4,0.3 0.8,0.6 1.2,1 v 0 l 1,-0.7 1.3,-4.6 v 0 c 0.6,1.1 1.1,2.1 1.8,3 v 0 c 0.6,0.8 1.2,1.6 1.8,2.2 v 0 c 0.6,0.7 1.3,1.2 1.8,1.5 v 0 c 0.6,0.4 1.1,0.6 1.6,0.7 v 0 c 1,0.3 2.1,0.3 3,0 v 0 c 1,-0.3 2,-0.8 2.9,-1.7 v 0 c 0.9,-0.8 1.6,-1.8 2.3,-3.1 v 0 c 0.7,-1.3 1.2,-2.8 1.6,-4.5 z" />
      <path
         inkscape:connector-curvature="0"
         id="path4910"
         style="fill:#000000;fill-opacity:1;fill-rule:evenodd;stroke:none"
         d="m 409.5,488.2 c -0.3,1.2 -0.9,2.3 -1.7,3.2 v 0 c -0.7,1 -1.5,1.8 -2.4,2.5 v 0 c -0.9,0.6 -1.8,1 -2.8,1.3 v 0 c -0.9,0.2 -1.8,0.2 -2.5,-0.1 v 0 c -1.2,-0.3 -2.1,-0.9 -2.8,-1.6 v 0 c -0.6,-0.7 -1.1,-1.5 -1.3,-2.5 v 0 c -0.3,-0.9 -0.3,-1.9 -0.2,-3.1 v 0 c 0.1,-1.1 0.4,-2.4 0.8,-3.5 v 0 c 0.4,-1.3 1,-2.4 1.8,-3.4 v 0 c 0.7,-0.9 1.6,-1.7 2.5,-2.3 v 0 c 0.9,-0.6 1.8,-1.1 2.8,-1.4 v 0 c 0.9,-0.1 1.7,-0.1 2.4,0 v 0 c 1.1,0.4 1.9,0.9 2.6,1.6 v 0 c 0.7,0.7 1.1,1.4 1.4,2.4 v 0 c 0.2,0.9 0.3,1.9 0.2,3.1 v 0 c -0.1,1.1 -0.3,2.4 -0.8,3.8 z m 3.3,1.8 c 0.4,-1.1 0.6,-2.1 0.7,-3.1 v 0 c 0,-1.2 0,-2.3 -0.2,-3.3 v 0 c -0.2,-1 -0.5,-2 -0.9,-3 v 0 c -0.4,-0.9 -0.9,-1.8 -1.5,-2.6 v 0 c -0.6,-0.8 -1.3,-1.4 -2.1,-2 v 0 c -0.8,-0.7 -1.6,-1.1 -2.5,-1.4 v 0 c -1.5,-0.5 -2.8,-0.6 -4.2,-0.4 v 0 c -1.3,0.1 -2.6,0.5 -3.7,1.3 v 0 c -1.2,0.7 -2.2,1.6 -3.1,2.8 v 0 c -0.9,1.2 -1.5,2.6 -2,4.2 v 0 c -0.4,1 -0.6,2 -0.6,3.1 v 0 c 0,1.1 0,2.2 0.2,3.2 v 0 c 0.1,1 0.4,2 0.7,3 v 0 c 0.5,1 1,1.9 1.5,2.6 v 0 c 0.6,0.8 1.4,1.5 2.1,2.2 v 0 c 0.9,0.6 1.7,1 2.7,1.3 v 0 c 1.4,0.5 2.8,0.6 4.1,0.5 v 0 c 1.4,-0.2 2.6,-0.6 3.7,-1.4 v 0 c 1.2,-0.7 2.2,-1.6 3.1,-2.8 v 0 c 0.8,-1.2 1.6,-2.6 2,-4.2 z" />
      <path
         inkscape:connector-curvature="0"
         id="path4912"
         style="fill:#000000;fill-opacity:1;fill-rule:evenodd;stroke:none"
         d="m 439.9,513 c -0.4,-0.4 -0.8,-0.6 -1,-0.9 v 0 c -0.2,-0.2 -0.4,-0.4 -0.5,-0.6 v 0 c -0.1,-0.1 -0.1,-0.3 -0.1,-0.5 v 0 c 0,-0.1 0,-0.3 0,-0.5 v 0 l 2.8,-19.2 c 0.1,-0.4 0.1,-0.8 -0.1,-1.1 v 0 c -0.1,-0.4 -0.4,-0.7 -0.6,-1 v 0 c -0.2,-0.3 -0.5,-0.6 -0.7,-0.8 v 0 c -0.2,-0.2 -0.5,-0.4 -0.7,-0.5 v 0 l -11.9,12.6 1.4,-15.2 v 0 c 0.1,-0.4 0,-0.7 -0.2,-1.1 v 0 c -0.1,-0.4 -0.2,-0.6 -0.5,-0.9 v 0 c -0.2,-0.3 -0.4,-0.6 -0.6,-0.8 v 0 c -0.3,-0.2 -0.5,-0.4 -0.6,-0.5 v 0 l -14.4,16.3 c -0.3,0.5 -1.3,0.7 -3,0.3 v 0 l -0.4,0.9 8.4,3.9 0.5,-0.8 v 0 c -0.7,-0.5 -1.3,-0.8 -1.5,-1.2 v 0 c -0.4,-0.2 -0.6,-0.4 -0.8,-0.7 v 0 c -0.1,-0.1 -0.2,-0.3 -0.1,-0.5 v 0 c 0.1,-0.1 0.1,-0.2 0.3,-0.4 v 0 l 10.4,-12.2 -2.1,19 1.6,0.8 13,-13.9 -2.5,15.9 v 0 c -0.1,0.4 -0.4,0.6 -0.9,0.6 v 0 c -0.4,0.1 -1.2,-0.1 -2.3,-0.4 v 0 l -0.4,0.9 7.1,3.3 z" />
      <path
         inkscape:connector-curvature="0"
         id="path4914"
         style="fill:#000000;fill-opacity:1;fill-rule:evenodd;stroke:none"
         d="m 450.5,494.8 -0.6,1 c 0.8,0.7 1.4,1.3 1.7,1.9 v 0 c 0.4,0.5 0.5,0.9 0.4,1.1 v 0 l -7.1,11.8 c -0.4,0.7 -0.7,1.3 -1.1,1.7 v 0 c -0.2,0.4 -0.5,0.7 -0.9,0.8 v 0 c -0.3,0.1 -0.7,0.1 -1.2,0 v 0 c -0.5,-0.1 -1.1,-0.3 -1.8,-0.8 v 0 l -0.5,0.9 c 0.3,0.4 0.8,0.7 1.1,1.1 v 0 c 0.5,0.4 0.9,0.9 1.2,1.3 v 0 c 0.4,0.4 0.7,0.9 1.1,1.3 v 0 c 0.3,0.4 0.6,0.8 0.9,1.2 v 0 l 0.6,0.5 10.8,-17.9 v 0 c 0.1,-0.2 0.4,-0.2 1,-0.2 v 0 c 0.6,0 1.5,0.3 2.6,0.7 v 0 l 0.5,-0.9 z m -9.3,30.4 c 0.2,-0.4 0.4,-0.8 0.5,-1.2 v 0 c 0,-0.4 0,-0.9 0,-1.3 v 0 c -0.1,-0.3 -0.2,-0.7 -0.4,-1 v 0 c -0.2,-0.4 -0.5,-0.6 -0.8,-0.8 v 0 c -0.6,-0.4 -1.2,-0.5 -1.7,-0.3 v 0 c -0.4,0.2 -0.8,0.5 -1.2,1.2 v 0 c -0.2,0.4 -0.4,0.8 -0.5,1.2 v 0 c 0,0.4 0,0.9 0,1.2 v 0 c 0.1,0.4 0.2,0.8 0.4,1.1 v 0 c 0.1,0.3 0.4,0.6 0.7,0.8 v 0 c 1.2,0.7 2.1,0.4 3,-0.9 z" />
      <path
         inkscape:connector-curvature="0"
         id="path4916"
         style="fill:#000000;fill-opacity:1;fill-rule:evenodd;stroke:none"
         d="m 465.7,508 c 0.7,0.6 1.4,1.4 2,2.5 v 0 c 0.5,1.1 0.9,2.4 1.2,4 v 0 l -3.8,5.1 c -0.9,-1.1 -1.7,-2 -2.3,-2.7 v 0 c -0.5,-0.7 -0.9,-1.3 -1.2,-1.9 v 0 c -0.3,-0.5 -0.5,-0.9 -0.7,-1.4 v 0 c -0.1,-0.3 -0.2,-0.7 -0.2,-1.1 v 0 c 0,-0.6 0,-1.2 0.2,-1.9 v 0 c 0.1,-0.6 0.4,-1.2 0.9,-1.8 v 0 c 0.3,-0.4 0.8,-0.8 1.2,-1 v 0 c 0.3,-0.2 0.7,-0.3 1.1,-0.3 v 0 c 0.3,0 0.7,0 0.9,0.2 v 0 c 0.3,0.1 0.6,0.2 0.7,0.3 z m 11.1,8.4 c -0.5,-1.7 -0.9,-2.9 -1.4,-3.8 v 0 c -0.4,-0.9 -0.8,-1.5 -1.2,-1.8 v 0 c -0.4,-0.3 -1,-0.3 -1.7,0.1 v 0 c -0.7,0.4 -1.5,1 -2.3,2 v 0 c -0.2,-1 -0.3,-2 -0.6,-2.8 v 0 c -0.2,-0.9 -0.5,-1.7 -0.8,-2.4 v 0 c -0.4,-0.7 -0.7,-1.3 -1.1,-1.8 v 0 c -0.4,-0.5 -0.8,-1 -1.2,-1.2 v 0 c -0.4,-0.4 -0.9,-0.7 -1.6,-1 v 0 c -0.6,-0.2 -1.2,-0.3 -1.8,-0.3 v 0 c -0.7,0 -1.3,0.2 -1.9,0.6 v 0 c -0.7,0.3 -1.4,0.8 -1.9,1.5 v 0 c -0.8,1.1 -1.2,2 -1.4,2.9 v 0 c -0.2,0.9 -0.2,1.8 -0.1,2.7 v 0 c 0.1,0.5 0.2,1 0.4,1.6 v 0 c 0.2,0.7 0.4,1.3 0.9,2.1 v 0 c 0.4,0.7 1,1.6 1.8,2.7 v 0 c 0.8,0.9 1.8,2.1 3.1,3.5 v 0 l -2.1,2.7 c -0.4,0.4 -0.7,0.8 -1.1,1.1 v 0 c -0.4,0.3 -0.8,0.5 -1.2,0.6 v 0 c -0.5,0 -1,0 -1.6,-0.2 v 0 c -0.5,-0.2 -1.1,-0.5 -1.7,-1 v 0 c -0.3,-0.3 -0.7,-0.8 -1,-1.2 v 0 c -0.3,-0.4 -0.5,-0.9 -0.6,-1.3 v 0 c -0.1,-0.5 -0.1,-0.9 0,-1.4 v 0 c 0.1,-0.5 0.3,-0.8 0.6,-1.2 v 0 c 0.1,-0.1 0.1,-0.3 -0.1,-0.7 v 0 c -0.1,-0.3 -0.4,-0.7 -0.7,-1.1 v 0 c -0.2,-0.5 -0.5,-0.9 -0.9,-1.2 v 0 c -0.3,-0.4 -0.5,-0.6 -0.7,-0.6 v 0 l -0.8,0.5 c -0.2,0.8 -0.2,1.8 -0.1,2.9 v 0 c 0.2,1.1 0.4,2.1 0.8,3.2 v 0 c 0.4,1.1 1,2 1.6,3 v 0 c 0.6,0.9 1.4,1.7 2.2,2.4 v 0 c 1.4,1 2.7,1.5 4,1.4 v 0 c 1.4,-0.1 2.5,-0.9 3.5,-2.1 v 0 l 8.4,-10.9 c 0.4,-0.6 0.7,-0.9 1.1,-1 v 0 c 0.3,-0.1 0.6,-0.1 0.8,0.1 v 0 c 0.2,0.1 0.3,0.3 0.6,0.6 v 0 c 0.2,0.3 0.5,0.8 0.9,1.4 v 0 z" />
      <path
         inkscape:connector-curvature="0"
         id="path4918"
         style="fill:#000000;fill-opacity:1;fill-rule:evenodd;stroke:none"
         d="m 488.9,527.3 -0.8,0.7 c 0.5,1.1 0.8,1.9 1,2.5 v 0 c 0.1,0.6 0.1,1 0,1.1 v 0 l -9.8,8.2 c -0.8,0.6 -1.4,1.1 -2,1.4 v 0 c -0.5,0.2 -1,0.4 -1.5,0.5 v 0 c -0.4,0 -0.7,-0.1 -1.1,-0.3 v 0 c -0.4,-0.2 -0.7,-0.5 -1,-1 v 0 c -0.4,-0.4 -0.6,-1 -0.9,-1.7 v 0 c -0.2,-0.7 -0.2,-1.5 -0.3,-2.4 v 0 c 0,-0.9 0.1,-1.9 0.3,-3 v 0 c 0.2,-1.2 0.5,-2.3 1,-3.6 v 0 l 8.2,-6.9 c 0.2,-0.1 0.5,-0.1 1.1,0.2 v 0 c 0.7,0.3 1.3,0.8 2.2,1.5 v 0 l 0.8,-0.7 -6.6,-8.1 -0.8,0.7 v 0 c 0.5,1 0.8,1.8 1,2.4 v 0 c 0.3,0.6 0.2,1 0,1.2 v 0 l -22.1,18.4 c -0.5,0.5 -0.9,0.8 -1.3,1 v 0 c -0.3,0.2 -0.7,0.3 -1,0.3 v 0 c -0.3,-0.1 -0.6,-0.3 -0.9,-0.6 v 0 c -0.4,-0.3 -0.8,-0.7 -1.4,-1.3 v 0 l -0.7,0.7 c 0.3,0.6 0.6,1.2 0.8,1.7 v 0 c 0.3,0.5 0.5,1 0.7,1.4 v 0 c 0.2,0.5 0.3,1 0.5,1.5 v 0 c 0.1,0.4 0.2,0.9 0.3,1.4 v 0 l 1.2,0.2 15.5,-12.9 v 0 c -0.4,1.2 -0.6,2.4 -0.7,3.6 v 0 c -0.1,1.2 -0.1,2.3 0,3.4 v 0 c 0.1,1 0.3,1.9 0.5,2.7 v 0 c 0.3,0.9 0.6,1.5 1,2 v 0 c 0.5,0.5 1,1 1.5,1.4 v 0 c 0.6,0.3 1.2,0.6 1.8,0.7 v 0 c 0.7,0.1 1.3,0 2,-0.2 v 0 c 0.8,-0.2 1.4,-0.5 2.1,-1.1 v 0 l 11.9,-9.9 c 0.1,-0.1 0.5,-0.1 0.9,0.2 v 0 c 0.5,0.2 1.3,0.7 2.3,1.5 v 0 l 0.8,-0.6 z" />
      <g
         id="g4922">
        <path
           inkscape:connector-curvature="0"
           id="path4920"
           style="fill:none;stroke:#205867;stroke-width:4.98079014;stroke-linecap:butt;stroke-linejoin:round;stroke-miterlimit:10;stroke-dasharray:none;stroke-opacity:1"
           d="m 129.9,579.1 c 8.8,-1.1 17.3,-3.3 25.5,-6.7 v 0 c 3.5,4.8 8.8,7.7 14.4,7.7 v 0 c 5,4.5 12.5,3.9 16.7,-1.4 v 0 c 0.2,-0.2 0.3,-0.3 0.3,-0.5 v 0 l 23.9,-12 29.6,-9.6 v 0 c 6.7,-2 14,0 18.9,5.2 v 0 c 8.7,4.4 19.1,2.7 26.1,-4.3 v 0 c 11.5,-8.3 23.4,-16.2 35.4,-23.5 v 0 c 12.5,-3.6 25.4,-5.3 38.2,-5.3 v 0 c 18.6,3.7 36.3,10.9 52.5,21.1 v 0 c 6.4,0.2 12.7,-0.2 19,-1.4 v 0" />
      </g>
      <g
         id="g4926">
        <path
           inkscape:connector-curvature="0"
           id="path4924"
           style="fill:none;stroke:#205867;stroke-width:4.98079014;stroke-linecap:butt;stroke-linejoin:round;stroke-miterlimit:10;stroke-dasharray:none;stroke-opacity:1"
           d="m 171.1,590.1 c 20.1,0.3 40,4.1 58.9,11.1 v 0 c 3.3,1.3 6.9,0.1 9,-2.9 v 0 l 18.8,1.9 c 13.5,2.9 26.3,8.1 38.2,15.4 v 0 l 30.6,18.3 c 2.8,-2.1 6.4,-2.6 9.4,-0.9 v 0 c 10.8,-8.9 22.6,-16.3 35,-22.2 v 0 l 49,-17.3" />
      </g>
      <g
         id="g4930">
        <path
           inkscape:connector-curvature="0"
           id="path4928"
           style="fill:none;stroke:#205867;stroke-width:4.98079014;stroke-linecap:butt;stroke-linejoin:round;stroke-miterlimit:10;stroke-dasharray:none;stroke-opacity:1"
           d="m 363.5,610.8 c -6.8,1.1 -13.6,3.4 -19.7,6.7 v 0 c 2.1,-3.6 5.4,-6.2 9.4,-7.2 v 0 c -5.2,0.3 -10,2.4 -13.9,5.8 v 0 c 0,-2.3 0.5,-4.6 1.3,-6.8 v 0 c -6,0 -11.4,4.1 -13.5,10.2 v 0 c -0.3,-3.7 -1.1,-7.2 -2.2,-10.6 v 0 c -1.4,1.7 -2.4,3.7 -3.2,5.7 v 0 c -0.7,-1.4 -1.6,-2.7 -2.7,-3.8 v 0 c -2.2,2.5 -3.7,5.5 -4.5,8.8 v 0 c -1.2,0.1 -2.4,-0.7 -2.8,-2.1 v 0 c -7,-3.9 -14.5,-6.4 -22.3,-7.2 v 0" />
      </g>
      <g
         id="g4934">
        <path
           inkscape:connector-curvature="0"
           id="path4932"
           style="fill:none;stroke:#205867;stroke-width:4.98079014;stroke-linecap:butt;stroke-linejoin:round;stroke-miterlimit:10;stroke-dasharray:none;stroke-opacity:1"
           d="m 339.1,544.7 c 11.4,11 26,17.4 41.3,18.3 v 0 c 11.7,0.3 22.9,4.7 31.9,12.5 v 0 c 8.8,-4.7 19.5,-1.9 25.2,6.7 v 0 c 1.8,7.5 7.6,13.2 14.8,14.4 v 0" />
      </g>
      <path
         inkscape:connector-curvature="0"
         style="line-height:normal;font-family:'Bitstream Vera Sans';-inkscape-font-specification:'Bitstream Vera Sans';text-indent:0;text-align:start;text-transform:none;overflow:visible;fill:#4d4d4d;fill-opacity:1;stroke-width:1.62877917;enable-background:accumulate"
         d="m -283.55716,492.57631 c -8.97612,0 -16.28773,-7.31168 -16.28773,-16.28793 0,-8.97625 7.31161,-16.28793 16.28773,-16.28793 8.97623,0 16.28784,7.31168 16.28784,16.28793 0,8.97625 -7.31161,16.28793 -16.28784,16.28793 z m 0,-3.25771 c 7.21567,0 13.03025,-5.81468 13.03025,-13.03022 0,-7.21554 -5.81458,-13.03022 -13.03025,-13.03022 -7.21567,0 -13.03014,5.81468 -13.03014,13.03022 0,7.21554 5.81447,13.03022 13.03014,13.03022 z m -5.70064,-4.88625 v -16.28793 h 3.41016 v 5.85326 h 2.59596 l 3.1048,-5.85326 h 3.61385 v 0.15179 l -3.61385,6.66784 c 0.32568,0.16443 0.845,0.33519 1.17068,0.66216 0.48886,0.32887 0.64132,0.6413 0.96711,0.96701 0.32569,0.48698 0.49901,0.83483 0.66163,1.32307 0.16318,0.48698 0.15247,0.97775 0.15247,1.62917 0,0.81395 -0.18338,1.48624 -0.50917,2.13766 -0.16317,0.48697 -0.63116,0.93665 -1.11979,1.42489 -0.65148,0.48698 -1.17058,0.85507 -1.98501,1.01823 -0.65147,0.16444 -1.4659,0.30358 -2.44316,0.30358 z m 3.56284,-2.95225 h 2.64686 c 0.81431,0 1.44547,-0.12016 1.93411,-0.61346 0.48896,-0.48699 0.66174,-1.01761 0.66174,-1.8322 0,-0.32886 0.0121,-0.64129 -0.15246,-0.967 -0.16318,-0.32887 -0.34589,-0.65142 -0.50906,-0.81459 -0.16317,-0.16443 -0.48897,-0.29724 -0.81443,-0.45536 -0.32568,-0.16443 -0.63116,-0.20237 -1.11979,-0.20237 h -2.64674 z"
         overflow="visible"
         id="path4624" />
    </g>
  </g>
</svg>
