<svg width="196" height="229" viewBox="0 0 196 229" fill="none" xmlns="http://www.w3.org/2000/svg">
<path d="M15.121 164.342L15.4177 163.001C17.0638 162.522 18.5376 162.043 19.8488 161.545C20.5187 158.969 21.1121 156.996 21.6001 155.626C22.0978 154.256 22.7007 153.069 23.4281 152.054C24.1554 151.038 25.1603 149.985 26.4427 148.874C29.2181 146.518 32.0318 145.33 34.8837 145.33C35.9556 145.33 36.8839 145.464 37.6783 145.732C38.4726 146.001 39.2287 146.336 39.9369 146.728C39.4201 148.002 39.0755 148.893 38.8937 149.41C38.7119 149.927 38.4822 150.818 38.1759 152.092L36.5968 151.977C36.5011 150.866 36.2044 149.899 35.7164 149.075C35.2283 148.251 34.2234 147.839 32.7017 147.839C31.7734 147.839 30.9312 148.117 30.1751 148.673C29.4191 149.228 28.7492 150.033 28.1654 151.086C27.5816 152.14 27.0552 153.308 26.5863 154.611C26.1173 155.913 25.5144 157.858 24.7583 160.453C24.7583 160.673 24.6435 161.133 24.4042 161.851C25.9929 161.89 28.1367 161.851 30.8546 161.736L31.1513 162.148C30.5962 162.962 30.1273 163.757 29.7541 164.533C28.108 164.418 26.1078 164.332 23.7439 164.294C22.2605 169.81 21.1408 174.015 20.3847 176.907C19.3894 180.7 18.4898 183.937 17.6667 186.638C16.8437 189.339 16.0876 191.427 15.4082 192.921C14.7287 194.406 13.9822 195.622 13.1783 196.551C12.3744 197.48 11.3695 198.38 10.1636 199.261C8.08687 200.765 6.15366 201.522 4.36401 201.522C3.47397 201.522 2.72749 201.407 2.13413 201.167C1.54077 200.928 0.842139 200.545 0.057373 200.008C0.631592 199.214 1.07183 198.553 1.37808 198.016C1.68433 197.48 2.01929 196.81 2.37339 195.995H2.96675C3.46441 196.733 3.96206 197.298 4.45015 197.71C4.9478 198.112 5.68472 198.323 6.68003 198.323C8.23042 198.323 9.44585 197.566 10.3359 196.062C11.2259 194.559 12.2021 191.887 13.2453 188.056C13.6376 186.744 14.1257 184.914 14.6999 182.549C15.2742 180.192 16.5757 174.772 18.5951 166.305C18.6333 166.209 18.7099 165.922 18.8152 165.443C18.9205 164.964 19.0162 164.591 19.1023 164.313C17.9443 164.322 16.6044 164.342 15.121 164.342Z" fill="black"/>
<path d="M52.3399 181.447L53.4118 182.73C48.5405 187.289 45.2101 189.578 43.4204 189.578C43.1429 189.578 42.8271 189.492 42.4825 189.31C42.138 189.128 41.9657 188.707 41.9657 188.027C41.9657 187.806 42.0423 187.366 42.205 186.705C42.3677 186.044 42.5399 185.364 42.7218 184.684C42.9132 184.004 43.0855 183.353 43.2386 182.74L43.8032 180.748L43.6884 180.633C42.004 182.74 40.0899 184.751 37.9462 186.686C35.8024 188.62 33.898 189.588 32.2423 189.588C30.8737 189.588 29.6966 188.86 28.7204 187.404C27.7347 185.948 27.2466 183.947 27.2466 181.409C27.2466 178.708 27.7729 176.131 28.8257 173.67C29.8784 171.208 31.2757 169.034 33.0175 167.157C34.7593 165.27 36.6925 163.786 38.798 162.694C40.913 161.602 43.0089 161.056 45.0856 161.056C46.0331 161.056 47.2772 161.267 48.7989 161.679L50.6747 155.396C50.8565 154.725 51.0575 154.065 51.2968 153.432C51.6126 152.398 51.7753 151.651 51.7753 151.172C51.7753 150.617 51.4499 150.339 50.7895 150.339C50.0143 150.339 48.8851 150.454 47.4017 150.693L47.8132 148.998C48.9425 148.624 49.8421 148.328 50.5024 148.117C51.1628 147.906 51.9571 147.657 52.8663 147.36C53.7755 147.063 54.3401 146.872 54.5603 146.795C54.9718 146.613 55.4886 146.393 56.0915 146.115C56.6944 145.837 57.2687 145.579 57.8046 145.339L58.7903 146.058C58.2927 147.15 57.8524 148.232 57.4505 149.304C56.6753 151.431 56.0149 153.317 55.4599 154.984C54.9048 156.65 54.3019 158.509 53.6415 160.549C52.9907 162.589 52.4452 164.332 52.005 165.759C50.4355 170.797 49.421 174.11 48.9425 175.7C48.464 177.29 48.0429 178.784 47.6792 180.192C47.3155 181.6 47.1337 182.644 47.1337 183.314C47.1337 183.947 47.3825 184.263 47.8802 184.263C48.3778 184.263 49.5167 183.602 51.2968 182.271L52.3399 181.447ZM47.7653 165.443C46.0235 164.37 44.3392 163.834 42.7122 163.834C40.7503 163.834 39.1233 164.504 37.8409 165.855C36.013 167.741 34.6062 170.011 33.6204 172.683C32.6251 175.356 32.137 177.922 32.137 180.403C32.137 182.05 32.3667 183.353 32.8356 184.301C33.3046 185.249 33.898 185.728 34.6349 185.728C35.4675 185.728 36.4054 185.287 37.4581 184.406C38.5108 183.525 39.4679 182.644 40.3388 181.772C42.0231 179.943 43.3056 178.066 44.186 176.122C45.0665 174.177 46.0331 171.381 47.0858 167.732C47.1337 167.416 47.3634 166.649 47.7653 165.443Z" fill="black"/>
<path d="M57.9864 169.638L56.9432 168.297C58.3692 166.832 59.7856 165.548 61.1924 164.447C62.5993 163.345 63.8434 162.502 64.9249 161.918C66.0063 161.334 66.7719 161.037 67.2313 161.037C68.0831 161.037 68.5137 161.468 68.5137 162.321C68.5137 163.652 67.5184 166.611 65.5374 171.218L65.6522 171.333C67.2026 169.168 68.753 167.31 70.3225 165.74C71.892 164.169 73.3084 163.001 74.5717 162.215C75.835 161.43 76.8399 161.037 77.5768 161.037C78.5721 161.037 79.4526 161.372 80.2182 162.052C80.9838 162.732 81.5868 163.633 81.9983 164.772C82.4098 165.912 82.6204 167.224 82.6204 168.718C82.6204 171.276 82.161 173.804 81.2422 176.294C80.3235 178.784 79.0411 181.035 77.4045 183.046C75.768 185.058 73.9114 186.648 71.8442 187.826C69.777 188.994 67.6237 189.578 65.4034 189.578C64.054 189.578 62.628 189.176 61.1254 188.362C60.9627 189.119 60.8096 189.665 60.6469 190C60.5321 190.459 60.2832 191.321 59.9196 192.605C59.5559 193.888 59.2592 194.961 59.0391 195.832C58.819 196.704 58.7137 197.336 58.7137 197.738C58.7137 198.217 58.9721 198.553 59.4889 198.763C60.0057 198.974 61.001 199.213 62.494 199.491C62.695 199.549 62.8577 199.596 62.9821 199.625C63.1065 199.654 63.2022 199.683 63.2692 199.702L62.7907 201.454C60.0153 201.253 57.5366 201.158 55.3545 201.158C53.3352 201.158 51.0288 201.253 48.4543 201.454L48.9616 199.702C48.9998 199.683 49.1147 199.654 49.3061 199.616C49.4975 199.577 49.6411 199.539 49.7368 199.501C50.6459 199.28 51.335 199.118 51.804 199.012C52.2729 198.907 52.5887 198.821 52.7706 198.763C52.9524 198.706 53.1534 198.572 53.3926 198.38C54.0625 197.643 54.943 195.421 56.0053 191.714L60.3502 177.281C62.2165 171.132 63.1448 167.78 63.1448 167.224C63.1448 166.726 62.9821 166.477 62.6663 166.477C62.0346 166.477 60.8096 167.253 59.0104 168.795C58.7711 169.054 58.4266 169.341 57.9864 169.638ZM62.0633 185.048C62.5418 185.422 62.9821 185.747 63.384 186.015C63.786 186.284 64.2836 186.504 64.8579 186.686C65.4321 186.868 66.102 186.954 66.8772 186.954C68.3797 186.954 69.8153 186.427 71.1743 185.374C72.5332 184.32 73.7008 182.951 74.6674 181.265C75.634 179.579 76.3997 177.74 76.9547 175.758C77.5098 173.775 77.7874 171.869 77.7874 170.05C77.7874 168.919 77.6438 167.789 77.3567 166.669C77.0696 165.548 76.4571 164.983 75.5288 164.983C74.7727 164.983 73.7487 165.51 72.4471 166.563C71.1456 167.617 70.0067 168.718 69.0114 169.868C68.1405 170.902 67.3079 172.08 66.5327 173.411C65.7479 174.743 64.9918 176.342 64.2741 178.219C63.5563 180.097 62.8194 182.366 62.0633 185.048Z" fill="black"/>
<path d="M86.4389 169.456L85.3958 168.239C87.5969 165.778 89.6545 163.968 91.5782 162.79C93.5018 161.621 94.8129 161.037 95.502 161.037C95.8752 161.037 96.1911 161.142 96.4495 161.363C96.7079 161.583 96.8323 161.918 96.8323 162.378C96.8323 163.154 96.6217 164.207 96.1911 165.548C95.7604 166.889 94.9086 169.331 93.6166 172.885C93.4157 173.277 93.1668 173.929 92.8702 174.819L92.985 174.934C94.7077 172.454 96.392 170.337 98.0286 168.565C99.6651 166.803 101.196 165.366 102.641 164.265C104.077 163.163 105.359 162.349 106.489 161.822C107.618 161.296 108.518 161.037 109.197 161.037C110.862 161.037 111.695 161.755 111.695 163.182C111.695 164.131 111.475 165.376 111.044 166.918C110.604 168.46 110.116 169.973 109.57 171.486C109.025 172.99 108.594 174.101 108.278 174.819L108.393 174.934C110.652 171.745 112.843 169.101 114.978 167.004C117.112 164.906 119.035 163.393 120.758 162.455C122.481 161.516 123.935 161.037 125.132 161.037C126.873 161.037 127.744 161.89 127.744 163.594C127.744 164.82 126.749 168.383 124.768 174.273C124.136 176.179 123.505 178.095 122.892 180.029C122.28 181.964 121.973 183.171 121.973 183.64C121.973 184.177 122.194 184.445 122.624 184.445C123.198 184.445 123.926 184.129 124.797 183.506C125.668 182.884 126.472 182.232 127.208 181.562L128.424 182.845C125.763 185.383 123.572 187.136 121.82 188.113C120.079 189.08 118.787 189.569 117.954 189.569C116.806 189.569 116.231 189.052 116.231 188.017C116.231 187.328 116.461 186.197 116.93 184.655C117.399 183.104 118.241 180.537 119.456 176.936C120.672 173.335 121.505 170.854 121.954 169.494C122.404 168.134 122.624 167.167 122.624 166.592C122.624 165.74 122.289 165.309 121.61 165.309C120.892 165.309 119.916 165.759 118.662 166.65C117.418 167.54 116.116 168.67 114.786 170.03C113.446 171.39 112.355 172.636 111.504 173.766C110.413 175.212 109.542 176.543 108.891 177.75C108.24 178.957 107.675 180.221 107.197 181.543C106.718 182.864 105.914 185.249 104.785 188.697C102.584 188.735 100.986 188.879 100 189.109C101.866 183.755 103.809 177.683 105.828 170.902C106.326 169.312 106.575 167.981 106.575 166.889C106.575 165.922 106.249 165.433 105.589 165.433C105.053 165.433 104.154 165.883 102.881 166.784C101.608 167.684 100.172 168.977 98.5741 170.663C96.8514 172.463 95.4446 174.273 94.3536 176.074C93.2625 177.874 92.4012 179.656 91.7696 181.418C91.1379 183.171 90.3627 185.594 89.4536 188.697C87.4916 188.697 85.9125 188.831 84.7258 189.109C86.4485 183.698 87.4821 180.508 87.817 179.56L90.1331 172.061C90.87 169.743 91.2336 168.172 91.2336 167.358C91.2336 166.707 91.0231 166.372 90.6116 166.372C90.1522 166.372 89.4248 166.784 88.4295 167.617C87.4534 168.479 86.7834 169.082 86.4389 169.456Z" fill="black"/>
<path d="M131.735 177.731L131.439 177.319C132.233 175.854 132.893 174.456 133.429 173.124C134.539 173.239 136.53 173.306 139.401 173.306C140.885 173.306 141.956 173.287 142.617 173.249C143.268 173.211 144.196 173.153 145.383 173.067L145.737 173.603C144.981 174.896 144.397 176.228 143.985 177.616L138.368 177.501C136.722 177.492 134.511 177.568 131.735 177.731Z" fill="black"/>
<path d="M166.724 180.911L168.236 182.367C167.184 183.42 166.073 184.445 164.896 185.451C163.719 186.456 162.322 187.385 160.724 188.266C159.116 189.138 157.565 189.578 156.053 189.578C153.996 189.578 152.455 188.784 151.431 187.184C150.407 185.585 149.9 183.822 149.9 181.907C149.9 179.369 150.397 176.821 151.402 174.274C152.407 171.726 153.747 169.456 155.431 167.473C157.116 165.491 158.991 163.92 161.068 162.771C163.135 161.622 165.222 161.047 167.327 161.047C168.552 161.047 169.557 161.181 170.342 161.459C171.127 161.736 171.988 162.12 172.945 162.618C172.39 164.006 172.036 164.945 171.873 165.433C171.71 165.922 171.462 166.88 171.098 168.307H169.347C168.83 165.251 167.509 163.729 165.394 163.729C163.949 163.729 162.389 164.485 160.714 166.008C159.039 167.521 157.632 169.552 156.494 172.08C155.355 174.609 154.781 177.31 154.781 180.192C154.781 181.399 155.001 182.663 155.431 183.976C155.872 185.288 156.79 185.939 158.197 185.939C160.226 185.91 163.078 184.244 166.724 180.911Z" fill="black"/>
<path d="M172.074 179.991C172.074 177.396 172.591 174.925 173.625 172.578C174.658 170.241 176.017 168.192 177.702 166.448C179.386 164.705 181.195 163.364 183.128 162.435C185.061 161.506 186.86 161.037 188.526 161.037C190.526 161.037 192.076 161.631 193.177 162.809C194.277 163.987 195.014 165.337 195.388 166.841C195.761 168.345 195.952 169.743 195.952 171.036C195.952 173.574 195.454 175.959 194.45 178.191C193.445 180.422 192.105 182.405 190.421 184.138C188.736 185.872 186.908 187.213 184.946 188.151C182.984 189.09 181.128 189.569 179.386 189.569C176.85 189.569 174.993 188.573 173.826 186.59C172.658 184.608 172.074 182.414 172.074 179.991ZM176.831 179.512C176.831 181.255 177.185 182.912 177.903 184.483C178.62 186.054 179.941 186.83 181.884 186.83C183.606 186.83 185.186 186.063 186.612 184.541C188.037 183.018 189.167 181.016 189.999 178.564C190.832 176.103 191.244 173.593 191.244 171.036C191.244 169.389 190.956 167.741 190.382 166.084C189.808 164.428 188.506 163.604 186.487 163.604C184.745 163.604 183.128 164.485 181.654 166.238C180.18 167.99 179.003 170.136 178.132 172.683C177.261 175.212 176.831 177.491 176.831 179.512Z" fill="black"/>
<path d="M152.838 195.813H156.494V196.551H153.709V198.811H156.283V199.539H153.709V202.614H152.828V195.813H152.838Z" fill="black"/>
<path d="M161.451 201.282C161.451 201.79 161.461 202.231 161.489 202.614H160.705L160.657 201.819H160.638C160.408 202.211 159.891 202.729 159.02 202.729C158.255 202.729 157.336 202.307 157.336 200.593V197.739H158.226V200.44C158.226 201.369 158.513 201.991 159.317 201.991C159.91 201.991 160.322 201.579 160.485 201.187C160.532 201.053 160.561 200.89 160.561 200.737V197.739H161.451V201.282V201.282Z" fill="black"/>
<path d="M162.925 199.051C162.925 198.543 162.915 198.131 162.887 197.729H163.671L163.719 198.534H163.738C163.978 198.074 164.542 197.614 165.356 197.614C166.035 197.614 167.079 198.017 167.079 199.693V202.604H166.188V199.788C166.188 199.003 165.892 198.342 165.059 198.342C164.475 198.342 164.016 198.754 163.872 199.252C163.834 199.367 163.815 199.511 163.815 199.664V202.604H162.925V199.051V199.051Z" fill="black"/>
<path d="M172.735 195.45V201.35C172.735 201.78 172.744 202.279 172.773 202.614H171.978L171.94 201.771H171.921C171.653 202.317 171.05 202.729 170.256 202.729C169.079 202.729 168.17 201.733 168.17 200.248C168.16 198.62 169.165 197.624 170.361 197.624C171.108 197.624 171.615 197.978 171.835 198.371H171.854V195.459H172.735V195.45ZM171.845 199.721C171.845 199.606 171.835 199.463 171.806 199.348C171.672 198.783 171.194 198.323 170.524 198.323C169.605 198.323 169.06 199.127 169.06 200.21C169.06 201.196 169.548 202.02 170.505 202.02C171.098 202.02 171.644 201.627 171.806 200.957C171.835 200.832 171.845 200.717 171.845 200.574V199.721V199.721Z" fill="black"/>
<path d="M176.907 202.614L176.84 202.001H176.812C176.544 202.384 176.017 202.729 175.319 202.729C174.333 202.729 173.826 202.03 173.826 201.331C173.826 200.153 174.878 199.501 176.764 199.511V199.405C176.764 199.003 176.649 198.275 175.654 198.275C175.204 198.275 174.725 198.419 174.381 198.639L174.18 198.055C174.582 197.796 175.166 197.624 175.788 197.624C177.281 197.624 177.644 198.639 177.644 199.626V201.455C177.644 201.876 177.663 202.288 177.721 202.624H176.907V202.614ZM176.773 200.124C175.807 200.105 174.706 200.277 174.706 201.225C174.706 201.8 175.089 202.068 175.539 202.068C176.17 202.068 176.582 201.666 176.716 201.254C176.745 201.168 176.764 201.062 176.764 200.967V200.124H176.773Z" fill="black"/>
<path d="M182.535 202.432C182.305 202.556 181.788 202.71 181.137 202.71C179.664 202.71 178.707 201.714 178.707 200.22C178.707 198.716 179.731 197.624 181.329 197.624C181.855 197.624 182.315 197.758 182.563 197.873L182.362 198.563C182.152 198.438 181.817 198.333 181.338 198.333C180.219 198.333 179.616 199.156 179.616 200.181C179.616 201.311 180.343 202.011 181.31 202.011C181.817 202.011 182.142 201.876 182.401 201.771L182.535 202.432Z" fill="black"/>
<path d="M184.563 196.36C184.573 196.666 184.353 196.906 183.999 196.906C183.683 196.906 183.463 196.666 183.463 196.36C183.463 196.044 183.693 195.804 184.018 195.804C184.353 195.804 184.563 196.044 184.563 196.36ZM183.578 202.614V197.729H184.468V202.614H183.578Z" fill="black"/>
<path d="M190.354 200.133C190.354 201.943 189.1 202.729 187.923 202.729C186.602 202.729 185.588 201.761 185.588 200.219C185.588 198.582 186.66 197.624 188.009 197.624C189.406 197.624 190.354 198.639 190.354 200.133ZM186.478 200.181C186.478 201.254 187.09 202.058 187.961 202.058C188.803 202.058 189.444 201.263 189.444 200.162C189.444 199.338 189.033 198.285 187.98 198.285C186.937 198.285 186.478 199.252 186.478 200.181ZM189.291 195.622L188.057 197.068H187.425L188.315 195.622H189.291Z" fill="black"/>
<path d="M191.473 199.051C191.473 198.543 191.464 198.131 191.435 197.729H192.22L192.268 198.534H192.287C192.526 198.074 193.091 197.614 193.904 197.614C194.584 197.614 195.627 198.017 195.627 199.693V202.604H194.737V199.788C194.737 199.003 194.44 198.342 193.608 198.342C193.024 198.342 192.574 198.754 192.421 199.252C192.383 199.367 192.363 199.511 192.363 199.664V202.604H191.473V199.051V199.051Z" fill="black"/>
<path d="M123.648 211.435C123.648 210.812 123.629 210.305 123.61 209.845H124.404L124.443 210.678H124.462C124.826 210.084 125.4 209.73 126.194 209.73C127.371 209.73 128.261 210.726 128.261 212.211C128.261 213.963 127.189 214.835 126.041 214.835C125.4 214.835 124.835 214.557 124.538 214.069H124.519V216.722H123.639V211.435H123.648ZM124.519 212.737C124.519 212.871 124.538 212.986 124.558 213.101C124.72 213.714 125.256 214.145 125.888 214.145C126.826 214.145 127.371 213.379 127.371 212.258C127.371 211.282 126.854 210.439 125.917 210.439C125.314 210.439 124.749 210.87 124.577 211.54C124.548 211.655 124.519 211.78 124.519 211.904V212.737V212.737Z" fill="black"/>
<path d="M132.08 214.72L132.013 214.107H131.984C131.716 214.49 131.19 214.835 130.491 214.835C129.506 214.835 128.998 214.136 128.998 213.437C128.998 212.258 130.051 211.607 131.936 211.617V211.511C131.936 211.109 131.822 210.381 130.826 210.381C130.376 210.381 129.898 210.525 129.553 210.745L129.352 210.161C129.754 209.902 130.338 209.73 130.96 209.73C132.453 209.73 132.817 210.745 132.817 211.732V213.561C132.817 213.982 132.836 214.394 132.893 214.729H132.08V214.72ZM131.956 212.23C130.989 212.211 129.888 212.383 129.888 213.331C129.888 213.906 130.271 214.174 130.721 214.174C131.353 214.174 131.764 213.772 131.898 213.36C131.927 213.274 131.946 213.168 131.946 213.073V212.23H131.956Z" fill="black"/>
<path d="M134.243 211.358C134.243 210.783 134.233 210.285 134.205 209.835H134.98L135.008 210.793H135.047C135.267 210.142 135.803 209.72 136.396 209.72C136.501 209.72 136.568 209.73 136.645 209.749V210.582C136.559 210.563 136.463 210.553 136.339 210.553C135.717 210.553 135.267 211.032 135.152 211.693C135.133 211.818 135.114 211.952 135.114 212.105V214.71H134.233V211.358H134.243Z" fill="black"/>
<path d="M140.186 214.72L140.119 214.107H140.09C139.822 214.49 139.296 214.835 138.597 214.835C137.611 214.835 137.104 214.136 137.104 213.437C137.104 212.258 138.157 211.607 140.042 211.617V211.511C140.042 211.109 139.927 210.381 138.932 210.381C138.482 210.381 138.004 210.525 137.659 210.745L137.458 210.161C137.86 209.902 138.444 209.73 139.066 209.73C140.559 209.73 140.923 210.745 140.923 211.732V213.561C140.923 213.982 140.942 214.394 140.999 214.729H140.186V214.72ZM140.061 212.23C139.095 212.211 137.994 212.383 137.994 213.331C137.994 213.906 138.377 214.174 138.827 214.174C139.459 214.174 139.87 213.772 140.004 213.36C140.033 213.274 140.052 213.168 140.052 213.073V212.23H140.061Z" fill="black"/>
<path d="M144.981 212.44C145 213.638 145.765 214.136 146.655 214.136C147.287 214.136 147.67 214.021 148.005 213.887L148.158 214.519C147.842 214.662 147.316 214.825 146.531 214.825C145.029 214.825 144.129 213.839 144.129 212.364C144.129 210.889 145 209.73 146.416 209.73C148.005 209.73 148.436 211.128 148.436 212.029C148.436 212.211 148.416 212.354 148.407 212.44H144.981ZM147.574 211.808C147.584 211.243 147.345 210.362 146.34 210.362C145.44 210.362 145.048 211.186 144.981 211.808H147.574Z" fill="black"/>
<path d="M149.536 207.556H150.426V214.72H149.536V207.556Z" fill="black"/>
<path d="M154.082 208.015C154.618 207.939 155.25 207.872 155.948 207.872C157.212 207.872 158.102 208.168 158.704 208.714C159.307 209.27 159.662 210.055 159.662 211.157C159.662 212.268 159.317 213.178 158.685 213.8C158.054 214.432 157.001 214.777 155.68 214.777C155.058 214.777 154.532 214.748 154.092 214.7V208.015H154.082ZM154.953 214.02C155.173 214.059 155.498 214.068 155.843 214.068C157.719 214.068 158.733 213.015 158.733 211.185C158.743 209.576 157.834 208.561 155.977 208.561C155.527 208.561 155.183 208.599 154.953 208.647V214.02Z" fill="black"/>
<path d="M161.298 212.44C161.317 213.638 162.083 214.136 162.973 214.136C163.604 214.136 163.987 214.021 164.322 213.887L164.475 214.519C164.16 214.662 163.633 214.825 162.848 214.825C161.346 214.825 160.446 213.839 160.446 212.364C160.446 210.889 161.317 209.73 162.734 209.73C164.322 209.73 164.753 211.128 164.753 212.029C164.753 212.211 164.734 212.354 164.724 212.44H161.298ZM163.901 211.808C163.911 211.243 163.671 210.362 162.667 210.362C161.767 210.362 161.375 211.186 161.308 211.808H163.901Z" fill="black"/>
<path d="M165.729 213.81C165.988 213.982 166.456 214.164 166.897 214.164C167.538 214.164 167.844 213.839 167.844 213.436C167.844 213.015 167.595 212.785 166.935 212.536C166.055 212.22 165.643 211.741 165.643 211.157C165.643 210.371 166.275 209.72 167.327 209.72C167.825 209.72 168.256 209.864 168.524 210.027L168.304 210.668C168.112 210.544 167.758 210.381 167.308 210.381C166.782 210.381 166.495 210.688 166.495 211.052C166.495 211.454 166.791 211.636 167.423 211.875C168.265 212.201 168.706 212.622 168.706 213.35C168.706 214.212 168.036 214.815 166.878 214.815C166.342 214.815 165.854 214.681 165.509 214.48L165.729 213.81Z" fill="black"/>
<path d="M172.553 214.72L172.486 214.107H172.457C172.189 214.49 171.663 214.835 170.964 214.835C169.978 214.835 169.471 214.136 169.471 213.437C169.471 212.258 170.524 211.607 172.409 211.617V211.511C172.409 211.109 172.294 210.381 171.299 210.381C170.849 210.381 170.371 210.525 170.026 210.745L169.825 210.161C170.227 209.902 170.811 209.73 171.433 209.73C172.926 209.73 173.29 210.745 173.29 211.732V213.561C173.29 213.982 173.309 214.394 173.366 214.729H172.553V214.72ZM172.419 212.23C171.452 212.211 170.352 212.383 170.352 213.331C170.352 213.906 170.734 214.174 171.184 214.174C171.816 214.174 172.227 213.772 172.361 213.36C172.39 213.274 172.409 213.168 172.409 213.073V212.23H172.419Z" fill="black"/>
<path d="M174.706 211.358C174.706 210.783 174.697 210.285 174.668 209.835H175.443L175.472 210.793H175.51C175.73 210.142 176.266 209.72 176.86 209.72C176.965 209.72 177.032 209.73 177.108 209.749V210.582C177.022 210.563 176.927 210.553 176.802 210.553C176.18 210.553 175.73 211.032 175.615 211.693C175.596 211.818 175.577 211.952 175.577 212.105V214.71H174.697V211.358H174.706Z" fill="black"/>
<path d="M178.046 211.358C178.046 210.783 178.037 210.285 178.008 209.835H178.783L178.812 210.793H178.85C179.07 210.142 179.606 209.72 180.199 209.72C180.305 209.72 180.372 209.73 180.448 209.749V210.582C180.362 210.563 180.266 210.553 180.142 210.553C179.52 210.553 179.07 211.032 178.955 211.693C178.936 211.818 178.917 211.952 178.917 212.105V214.71H178.037V211.358H178.046Z" fill="black"/>
<path d="M185.655 212.239C185.655 214.049 184.401 214.835 183.224 214.835C181.903 214.835 180.889 213.867 180.889 212.325C180.889 210.688 181.961 209.73 183.31 209.73C184.707 209.73 185.655 210.745 185.655 212.239ZM181.779 212.287C181.779 213.36 182.391 214.164 183.262 214.164C184.104 214.164 184.745 213.369 184.745 212.268C184.745 211.444 184.334 210.391 183.281 210.391C182.238 210.391 181.779 211.358 181.779 212.287Z" fill="black"/>
<path d="M186.774 207.556H187.664V214.72H186.774V207.556Z" fill="black"/>
<path d="M189.148 207.556H190.038V214.72H189.148V207.556Z" fill="black"/>
<path d="M195.943 212.239C195.943 214.049 194.689 214.835 193.512 214.835C192.191 214.835 191.177 213.867 191.177 212.325C191.177 210.688 192.249 209.73 193.598 209.73C194.995 209.73 195.943 210.745 195.943 212.239ZM192.076 212.287C192.076 213.36 192.689 214.164 193.56 214.164C194.402 214.164 195.043 213.369 195.043 212.268C195.043 211.444 194.632 210.391 193.579 210.391C192.526 210.391 192.076 211.358 192.076 212.287Z" fill="black"/>
<path d="M88.9274 219.662V225.561C88.9274 225.992 88.937 226.49 88.9657 226.826H88.1713L88.1331 225.983H88.1139C87.846 226.529 87.243 226.941 86.4487 226.941C85.2716 226.941 84.3624 225.945 84.3624 224.46C84.3528 222.832 85.3577 221.836 86.554 221.836C87.3005 221.836 87.8077 222.19 88.0278 222.583H88.0469V219.671H88.9274V219.662ZM88.0374 223.933C88.0374 223.818 88.0278 223.675 87.9991 223.56C87.8651 222.995 87.3866 222.535 86.7167 222.535C85.7979 222.535 85.2524 223.339 85.2524 224.422C85.2524 225.408 85.7405 226.232 86.6975 226.232C87.2909 226.232 87.8364 225.839 87.9991 225.169C88.0278 225.044 88.0374 224.929 88.0374 224.786V223.933V223.933Z" fill="black"/>
<path d="M90.8893 224.546C90.9085 225.744 91.6741 226.242 92.5642 226.242C93.1958 226.242 93.5786 226.127 93.9136 225.993L94.0667 226.625C93.7509 226.768 93.2245 226.931 92.4397 226.931C90.9372 226.931 90.0376 225.945 90.0376 224.47C90.0376 222.995 90.9085 221.836 92.3249 221.836C93.9136 221.836 94.3442 223.234 94.3442 224.135C94.3442 224.317 94.3251 224.46 94.3155 224.546H90.8893ZM93.4925 223.914C93.502 223.349 93.2628 222.468 92.2579 222.468C91.3583 222.468 90.9659 223.292 90.8989 223.914H93.4925Z" fill="black"/>
<path d="M97.5886 219.662H98.4787V226.826H97.5886V219.662Z" fill="black"/>
<path d="M104.383 224.345C104.383 226.155 103.13 226.941 101.953 226.941C100.632 226.941 99.6174 225.973 99.6174 224.431C99.6174 222.794 100.689 221.836 102.039 221.836C103.436 221.836 104.383 222.851 104.383 224.345ZM100.507 224.393C100.507 225.466 101.12 226.27 101.991 226.27C102.833 226.27 103.474 225.475 103.474 224.374C103.474 223.55 103.063 222.497 102.01 222.497C100.967 222.497 100.507 223.464 100.507 224.393Z" fill="black"/>
<path d="M105.379 225.916C105.637 226.088 106.106 226.27 106.546 226.27C107.188 226.27 107.494 225.945 107.494 225.542C107.494 225.121 107.245 224.891 106.585 224.642C105.704 224.326 105.293 223.847 105.293 223.263C105.293 222.477 105.924 221.826 106.977 221.826C107.475 221.826 107.905 221.97 108.173 222.133L107.953 222.774C107.762 222.65 107.408 222.487 106.958 222.487C106.432 222.487 106.144 222.793 106.144 223.157C106.144 223.56 106.441 223.742 107.073 223.981C107.915 224.307 108.355 224.728 108.355 225.456C108.355 226.318 107.685 226.921 106.527 226.921C105.991 226.921 105.503 226.787 105.159 226.586L105.379 225.916Z" fill="black"/>
<path d="M111.657 220.112C112.078 220.045 112.633 219.978 113.341 219.978C114.212 219.978 114.844 220.179 115.246 220.543C115.619 220.869 115.839 221.357 115.839 221.97C115.839 222.583 115.657 223.072 115.313 223.426C114.853 223.924 114.097 224.173 113.236 224.173C112.977 224.173 112.729 224.163 112.528 224.116V226.836H111.647V220.112H111.657ZM112.537 223.388C112.729 223.436 112.968 223.455 113.265 223.455C114.327 223.455 114.968 222.937 114.968 221.999C114.968 221.099 114.336 220.668 113.36 220.668C112.977 220.668 112.681 220.696 112.537 220.735V223.388Z" fill="black"/>
<path d="M120.921 225.494C120.921 226.002 120.93 226.443 120.959 226.826H120.174L120.127 226.031H120.107C119.878 226.423 119.361 226.941 118.49 226.941C117.724 226.941 116.806 226.519 116.806 224.805V221.951H117.696V224.652C117.696 225.581 117.983 226.203 118.787 226.203C119.38 226.203 119.792 225.791 119.954 225.399C120.002 225.265 120.031 225.102 120.031 224.948V221.951H120.921V225.494Z" fill="black"/>
<path d="M122.893 224.546C122.912 225.744 123.677 226.242 124.567 226.242C125.199 226.242 125.582 226.127 125.917 225.993L126.07 226.625C125.754 226.768 125.228 226.931 124.443 226.931C122.94 226.931 122.041 225.945 122.041 224.47C122.041 222.995 122.912 221.836 124.328 221.836C125.917 221.836 126.347 223.234 126.347 224.135C126.347 224.317 126.328 224.46 126.319 224.546H122.893ZM125.486 223.914C125.496 223.349 125.256 222.468 124.252 222.468C123.352 222.468 122.96 223.292 122.893 223.914H125.486Z" fill="black"/>
<path d="M127.41 226.826C127.429 226.49 127.448 226.002 127.448 225.561V219.662H128.328V222.726H128.348C128.663 222.181 129.228 221.826 130.013 221.826C131.219 221.826 132.08 222.832 132.07 224.316C132.07 226.059 130.97 226.931 129.879 226.931C129.171 226.931 128.606 226.663 128.242 226.012H128.214L128.175 226.816H127.41V226.826ZM128.319 224.872C128.319 224.987 128.338 225.092 128.357 225.197C128.529 225.81 129.046 226.241 129.687 226.241C130.616 226.241 131.171 225.485 131.171 224.364C131.171 223.387 130.664 222.544 129.716 222.544C129.113 222.544 128.549 222.956 128.367 223.636C128.348 223.742 128.319 223.857 128.319 224V224.872V224.872Z" fill="black"/>
<path d="M133.18 219.662H134.07V226.826H133.18V219.662Z" fill="black"/>
<path d="M139.975 224.345C139.975 226.155 138.722 226.941 137.545 226.941C136.224 226.941 135.209 225.973 135.209 224.431C135.209 222.794 136.281 221.836 137.631 221.836C139.028 221.836 139.975 222.851 139.975 224.345ZM136.109 224.393C136.109 225.466 136.722 226.27 137.592 226.27C138.435 226.27 139.076 225.475 139.076 224.374C139.076 223.55 138.664 222.497 137.612 222.497C136.559 222.497 136.109 223.464 136.109 224.393Z" fill="black"/>
<path d="M140.971 225.916C141.229 226.088 141.698 226.27 142.138 226.27C142.78 226.27 143.086 225.945 143.086 225.542C143.086 225.121 142.837 224.891 142.177 224.642C141.296 224.326 140.885 223.847 140.885 223.263C140.885 222.477 141.516 221.826 142.569 221.826C143.067 221.826 143.497 221.97 143.765 222.133L143.545 222.774C143.354 222.65 143 222.487 142.55 222.487C142.024 222.487 141.736 222.793 141.736 223.157C141.736 223.56 142.033 223.742 142.665 223.981C143.507 224.307 143.947 224.728 143.947 225.456C143.947 226.318 143.277 226.921 142.119 226.921C141.583 226.921 141.095 226.787 140.751 226.586L140.971 225.916Z" fill="black"/>
<path d="M152.982 223.838C152.934 222.889 152.867 221.75 152.876 220.897H152.848C152.618 221.692 152.331 222.545 151.986 223.483L150.79 226.778H150.12L149.019 223.541C148.694 222.583 148.426 221.702 148.235 220.897H148.216C148.196 221.74 148.149 222.889 148.082 223.905L147.9 226.816H147.067L147.546 220.016H148.665L149.823 223.301C150.111 224.134 150.34 224.882 150.512 225.59H150.541C150.713 224.901 150.953 224.154 151.259 223.301L152.465 220.016H153.585L154.006 226.816H153.144L152.982 223.838Z" fill="black"/>
<path d="M158.092 226.826L158.025 226.213H157.996C157.728 226.596 157.202 226.941 156.503 226.941C155.518 226.941 155.01 226.242 155.01 225.542C155.01 224.364 156.063 223.713 157.949 223.723V223.617C157.949 223.215 157.834 222.487 156.838 222.487C156.389 222.487 155.91 222.631 155.566 222.851L155.365 222.267C155.767 222.008 156.35 221.836 156.972 221.836C158.465 221.836 158.829 222.851 158.829 223.838V225.667C158.829 226.088 158.848 226.5 158.906 226.835H158.092V226.826ZM157.958 224.336C156.992 224.317 155.891 224.489 155.891 225.437C155.891 226.012 156.274 226.28 156.724 226.28C157.355 226.28 157.767 225.878 157.901 225.466C157.929 225.38 157.949 225.274 157.949 225.179V224.336H157.958Z" fill="black"/>
<path d="M160.245 223.464C160.245 222.889 160.236 222.391 160.207 221.941H160.982L161.011 222.899H161.049C161.269 222.248 161.805 221.826 162.399 221.826C162.504 221.826 162.571 221.836 162.647 221.855V222.688C162.561 222.669 162.466 222.659 162.341 222.659C161.719 222.659 161.269 223.138 161.154 223.799C161.135 223.924 161.116 224.058 161.116 224.211V226.816H160.236V223.464H160.245Z" fill="black"/>
<path d="M167.672 221.941C167.653 222.296 167.634 222.688 167.634 223.282V226.117C167.634 227.238 167.414 227.927 166.935 228.349C166.457 228.789 165.777 228.933 165.165 228.933C164.581 228.933 163.93 228.789 163.538 228.531L163.758 227.851C164.083 228.052 164.581 228.234 165.193 228.234C166.102 228.234 166.763 227.755 166.763 226.529V225.983H166.744C166.476 226.433 165.949 226.797 165.193 226.797C163.987 226.797 163.116 225.772 163.116 224.412C163.116 222.756 164.198 221.817 165.318 221.817C166.16 221.817 166.629 222.257 166.839 222.66H166.858L166.897 221.922H167.672V221.941ZM166.753 223.876C166.753 223.723 166.744 223.589 166.705 223.474C166.543 222.957 166.112 222.535 165.461 222.535C164.619 222.535 164.006 223.254 164.006 224.384C164.006 225.341 164.495 226.136 165.452 226.136C165.997 226.136 166.495 225.792 166.686 225.227C166.734 225.073 166.753 224.901 166.753 224.748V223.876Z" fill="black"/>
<path d="M170.026 220.572C170.036 220.878 169.816 221.118 169.462 221.118C169.146 221.118 168.926 220.878 168.926 220.572C168.926 220.256 169.155 220.016 169.481 220.016C169.816 220.016 170.026 220.256 170.026 220.572ZM169.041 226.826V221.941H169.931V226.826H169.041Z" fill="black"/>
<path d="M171.395 223.263C171.395 222.755 171.385 222.343 171.356 221.941H172.141L172.189 222.746H172.208C172.447 222.286 173.012 221.826 173.826 221.826C174.505 221.826 175.548 222.228 175.548 223.904V226.816H174.658V224C174.658 223.215 174.362 222.554 173.529 222.554C172.945 222.554 172.495 222.966 172.342 223.464C172.304 223.579 172.285 223.723 172.285 223.876V226.816H171.395V223.263V223.263Z" fill="black"/>
<path d="M179.692 226.826L179.625 226.213H179.597C179.329 226.596 178.802 226.941 178.104 226.941C177.118 226.941 176.611 226.242 176.611 225.542C176.611 224.364 177.663 223.713 179.549 223.723V223.617C179.549 223.215 179.434 222.487 178.439 222.487C177.989 222.487 177.51 222.631 177.166 222.851L176.965 222.267C177.367 222.008 177.95 221.836 178.573 221.836C180.065 221.836 180.429 222.851 180.429 223.838V225.667C180.429 226.088 180.448 226.5 180.506 226.835H179.692V226.826ZM179.568 224.336C178.601 224.317 177.501 224.489 177.501 225.437C177.501 226.012 177.883 226.28 178.333 226.28C178.965 226.28 179.376 225.878 179.51 225.466C179.539 225.38 179.558 225.274 179.558 225.179V224.336H179.568Z" fill="black"/>
<path d="M186.066 219.662V225.561C186.066 225.992 186.076 226.49 186.104 226.826H185.31L185.272 225.983H185.253C184.985 226.529 184.382 226.941 183.587 226.941C182.41 226.941 181.501 225.945 181.501 224.46C181.491 222.832 182.496 221.836 183.693 221.836C184.439 221.836 184.946 222.19 185.166 222.583H185.186V219.671H186.066V219.662ZM185.176 223.933C185.176 223.818 185.166 223.675 185.138 223.56C185.004 222.995 184.525 222.535 183.855 222.535C182.937 222.535 182.391 223.339 182.391 224.422C182.391 225.408 182.879 226.232 183.836 226.232C184.43 226.232 184.975 225.839 185.138 225.169C185.166 225.044 185.176 224.929 185.176 224.786V223.933V223.933Z" fill="black"/>
<path d="M191.952 224.345C191.952 226.155 190.698 226.941 189.521 226.941C188.2 226.941 187.186 225.973 187.186 224.431C187.186 222.794 188.258 221.836 189.607 221.836C191.004 221.836 191.952 222.851 191.952 224.345ZM188.085 224.393C188.085 225.466 188.698 226.27 189.569 226.27C190.411 226.27 191.052 225.475 191.052 224.374C191.052 223.55 190.641 222.497 189.588 222.497C188.535 222.497 188.085 223.464 188.085 224.393Z" fill="black"/>
<path d="M192.957 225.916C193.215 226.088 193.684 226.27 194.124 226.27C194.765 226.27 195.072 225.945 195.072 225.542C195.072 225.121 194.823 224.891 194.163 224.642C193.282 224.326 192.871 223.847 192.871 223.263C192.871 222.477 193.502 221.826 194.555 221.826C195.053 221.826 195.483 221.97 195.751 222.133L195.531 222.774C195.34 222.65 194.986 222.487 194.536 222.487C194.009 222.487 193.722 222.793 193.722 223.157C193.722 223.56 194.019 223.742 194.651 223.981C195.493 224.307 195.933 224.728 195.933 225.456C195.933 226.318 195.263 226.921 194.105 226.921C193.569 226.921 193.081 226.787 192.737 226.586L192.957 225.916Z" fill="black"/>
<path d="M131.812 132.391C167.236 132.391 195.952 102.765 195.952 66.2194C195.952 29.6739 167.236 0.0478516 131.812 0.0478516C96.3882 0.0478516 67.6716 29.6739 67.6716 66.2194C67.6716 102.765 96.3882 132.391 131.812 132.391Z" fill="url(#paint0_radial_1603_5062)"/>
<path d="M131.659 2.55713C132.625 2.55713 133.468 2.92108 134.176 3.65855C134.884 4.39603 135.238 5.31547 135.238 6.40732C135.238 7.53747 134.884 8.48565 134.166 9.2327C133.448 9.97975 132.587 10.3533 131.573 10.3533C130.549 10.3533 129.687 9.98933 128.989 9.26144C128.29 8.53354 127.946 7.58536 127.946 6.42647C127.946 5.23885 128.348 4.27152 129.151 3.52446C129.84 2.88277 130.683 2.55713 131.659 2.55713ZM131.554 2.95939C130.884 2.95939 130.348 3.20841 129.946 3.70644C129.448 4.31941 129.19 5.22927 129.19 6.41689C129.19 7.63325 129.448 8.57185 129.974 9.22312C130.376 9.72116 130.903 9.97018 131.554 9.97018C132.252 9.97018 132.836 9.69243 133.286 9.14651C133.745 8.60058 133.975 7.7386 133.975 6.56056C133.975 5.28674 133.726 4.32898 133.219 3.70644C132.817 3.20841 132.262 2.95939 131.554 2.95939Z" fill="black"/>
<path d="M183.52 41.8347C183.932 42.0741 184.267 42.4476 184.516 42.9457C184.764 43.4533 184.898 43.9513 184.898 44.4685C184.898 45.1677 184.688 45.7998 184.276 46.3553C183.788 47.0257 183.118 47.3513 182.286 47.3513C181.769 47.3513 181.31 47.2173 180.888 46.9587C180.467 46.7001 180.142 46.317 179.903 45.8094C179.663 45.3017 179.549 44.7941 179.549 44.2961C179.549 43.5874 179.769 42.9648 180.199 42.4189C180.707 41.7772 181.386 41.4611 182.219 41.4611C182.668 41.4707 183.109 41.5952 183.52 41.8347ZM181.3 42.4476C180.879 43.0127 180.668 43.7885 180.668 44.775C180.668 45.5603 180.793 46.1158 181.051 46.4415C181.31 46.7671 181.625 46.9299 182.018 46.9299C182.544 46.9299 182.965 46.633 183.291 46.0488C183.616 45.4646 183.769 44.7654 183.769 43.9609C183.769 43.4628 183.702 43.051 183.568 42.735C183.434 42.4189 183.262 42.189 183.042 42.0645C182.822 41.94 182.611 41.873 182.401 41.873C181.951 41.8634 181.587 42.0645 181.3 42.4476ZM182.286 38.7603L182.917 40.8482H182.707L180.917 38.7603H182.286Z" fill="white"/>
<path d="M138.999 4.70264H141.43V4.91334H141.306C141.133 4.91334 141.009 4.95165 140.923 5.02827C140.837 5.10489 140.798 5.19109 140.798 5.30602C140.798 5.44969 140.865 5.66039 140.99 5.91899L142.263 8.55282L143.43 5.6604C143.497 5.50715 143.526 5.35391 143.526 5.20067C143.526 5.13363 143.516 5.07616 143.488 5.04743C143.459 5.00912 143.411 4.97081 143.344 4.95165C143.277 4.92292 143.162 4.91334 143 4.91334V4.70264H144.703V4.91334C144.56 4.9325 144.454 4.96123 144.378 5.00912C144.301 5.05701 144.215 5.1432 144.129 5.26771C144.091 5.32518 144.033 5.46884 143.938 5.70828L141.813 10.9281C141.612 11.4357 141.334 11.8188 141.009 12.0774C140.674 12.336 140.358 12.4701 140.052 12.4701C139.832 12.4701 139.64 12.403 139.497 12.2785C139.353 12.154 139.277 12.0008 139.277 11.8379C139.277 11.6751 139.325 11.5506 139.43 11.4548C139.535 11.3591 139.679 11.3112 139.861 11.3112C139.985 11.3112 140.157 11.3495 140.377 11.4357C140.531 11.4931 140.626 11.5219 140.665 11.5219C140.779 11.5219 140.904 11.4644 141.038 11.3495C141.172 11.2345 141.306 11.0047 141.449 10.6599L141.823 9.75002L139.947 5.80406C139.889 5.68913 139.803 5.53589 139.669 5.36349C139.573 5.2294 139.497 5.14321 139.44 5.09532C139.353 5.03785 139.21 4.98039 139.018 4.9325V4.70264H138.999Z" fill="black"/>
<path d="M154.187 9.93196L152.474 10.6407H152.197V9.43393C151.823 9.84576 151.536 10.1139 151.345 10.2576C151 10.5162 150.637 10.6407 150.263 10.6407C149.957 10.6407 149.68 10.5449 149.44 10.363C149.201 10.181 149.029 9.94154 148.943 9.64464C148.856 9.34773 148.809 8.93589 148.809 8.40912V7.72912H148.091V7.26939H148.809V5.86149C148.809 5.44008 148.694 5.1719 148.464 5.05697C148.349 4.9995 148.148 4.98035 147.842 4.98035V4.75049H149.842V7.26939H152.206V5.82318C152.206 5.47838 152.139 5.2581 151.996 5.14317C151.881 5.04739 151.641 4.98993 151.287 4.98035V4.75049H153.23V7.26939H153.938V7.72912H153.23V8.208C153.23 9.10829 153.297 9.6159 153.431 9.73083C153.498 9.7883 153.584 9.81703 153.67 9.81703C153.795 9.81703 153.948 9.77872 154.111 9.71168L154.187 9.93196ZM152.197 9.0604V7.72912H149.833V8.57194C149.833 9.43393 150.148 9.8745 150.78 9.8745C151.192 9.86492 151.661 9.59675 152.197 9.0604Z" fill="black"/>
<path d="M177.941 28.2347L176.228 28.9434H175.95V27.7367C175.577 28.1485 175.29 28.4167 175.098 28.5603C174.754 28.8189 174.39 28.9434 174.017 28.9434C173.711 28.9434 173.433 28.8477 173.194 28.6657C172.955 28.4837 172.782 28.2443 172.696 27.9474C172.61 27.6505 172.562 27.2386 172.562 26.7119V26.0318H171.845V25.5721H172.562V24.1642C172.562 23.7428 172.447 23.4746 172.218 23.3597C172.103 23.3022 171.902 23.2831 171.596 23.2831V23.0532H173.596V25.5721H175.96V24.1259C175.96 23.7811 175.893 23.5608 175.749 23.4459C175.634 23.3501 175.395 23.2927 175.041 23.2831V23.0532H176.984V25.5721H177.692V26.0318H176.984V26.5107C176.984 27.411 177.051 27.9186 177.185 28.0336C177.252 28.091 177.338 28.1198 177.424 28.1198C177.548 28.1198 177.702 28.0814 177.864 28.0144L177.941 28.2347ZM175.95 27.3631V26.0318H173.586V26.8747C173.586 27.7367 173.902 28.1772 174.534 28.1772C174.945 28.1676 175.414 27.8995 175.95 27.3631Z" fill="black"/>
<path d="M176.649 47.4471L174.936 48.1558H174.658V46.949C174.285 47.3609 173.998 47.6291 173.806 47.7727C173.462 48.0313 173.098 48.1558 172.725 48.1558C172.419 48.1558 172.141 48.06 171.902 47.8781C171.663 47.6961 171.49 47.4567 171.404 47.1598C171.309 46.8629 171.27 46.451 171.27 45.9242V45.2442H170.553V44.7845H171.27V43.3766C171.27 42.9552 171.155 42.687 170.926 42.5721C170.811 42.5146 170.61 42.4955 170.304 42.4955V42.2656H172.304V44.7845H174.668V43.3383C174.668 42.9935 174.601 42.7732 174.457 42.6583C174.342 42.5625 174.103 42.5051 173.749 42.4955V42.2656H175.692V44.7845H176.4V45.2442H175.692V45.7231C175.692 46.6234 175.759 47.131 175.893 47.2459C175.96 47.3034 176.046 47.3321 176.132 47.3321C176.256 47.3321 176.41 47.2938 176.572 47.2268L176.649 47.4471ZM174.658 46.5755V45.2442H172.294V46.0871C172.294 46.949 172.61 47.3896 173.242 47.3896C173.653 47.38 174.122 47.1119 174.658 46.5755Z" fill="black"/>
<path d="M168.122 47.4471L166.409 48.1558H166.131V46.949C165.758 47.3609 165.471 47.6291 165.279 47.7727C164.935 48.0313 164.571 48.1558 164.198 48.1558C163.892 48.1558 163.614 48.06 163.375 47.8781C163.136 47.6961 162.963 47.4567 162.877 47.1598C162.781 46.8629 162.743 46.451 162.743 45.9242V45.2442H162.025V44.7845H162.743V43.3766C162.743 42.9552 162.628 42.687 162.399 42.5721C162.284 42.5146 162.083 42.4955 161.777 42.4955V42.2656H163.777V44.7845H166.141V43.3383C166.141 42.9935 166.074 42.7732 165.93 42.6583C165.815 42.5625 165.576 42.5051 165.222 42.4955V42.2656H167.165V44.7845H167.873V45.2442H167.165V45.7231C167.165 46.6234 167.232 47.131 167.366 47.2459C167.433 47.3034 167.519 47.3321 167.605 47.3321C167.729 47.3321 167.882 47.2938 168.045 47.2268L168.122 47.4471ZM166.131 46.5755V45.2442H163.767V46.0871C163.767 46.949 164.083 47.3896 164.715 47.3896C165.126 47.38 165.605 47.1119 166.131 46.5755Z" fill="white"/>
<path d="M147.335 81.5242V84.7231C147.335 85.3361 147.354 85.7096 147.383 85.8437C147.412 85.9778 147.459 86.0736 147.517 86.131C147.584 86.1885 147.651 86.2076 147.737 86.2076C147.852 86.2076 147.995 86.1789 148.139 86.1119L148.215 86.313L146.636 86.9643H146.378V85.8437C145.928 86.3322 145.574 86.6482 145.344 86.7727C145.105 86.8972 144.856 86.9643 144.588 86.9643C144.292 86.9643 144.033 86.8781 143.823 86.7057C143.603 86.5333 143.459 86.313 143.373 86.0448C143.287 85.7767 143.248 85.3935 143.248 84.9051V82.5586C143.248 82.3096 143.22 82.1372 143.172 82.0414C143.114 81.9456 143.038 81.869 142.933 81.8211C142.827 81.7732 142.636 81.7445 142.358 81.7445V81.5338H144.205V85.0679C144.205 85.5564 144.292 85.882 144.464 86.0353C144.636 86.1885 144.837 86.2651 145.086 86.2651C145.249 86.2651 145.44 86.2172 145.651 86.1119C145.861 86.0065 146.11 85.8054 146.397 85.5181V82.5203C146.397 82.2234 146.34 82.0222 146.234 81.9073C146.129 81.8019 145.899 81.7445 145.555 81.7349V81.5242H147.335ZM144.263 79.1011C144.435 79.1011 144.588 79.1585 144.713 79.2831C144.837 79.4076 144.895 79.5512 144.895 79.7236C144.895 79.896 144.837 80.0397 144.713 80.1642C144.588 80.2887 144.445 80.3462 144.272 80.3462C144.1 80.3462 143.947 80.2887 143.832 80.1642C143.717 80.0397 143.65 79.896 143.65 79.7236C143.65 79.5512 143.708 79.398 143.832 79.2831C143.947 79.1681 144.091 79.1011 144.263 79.1011ZM146.301 79.1011C146.474 79.1011 146.617 79.1585 146.742 79.2831C146.866 79.4076 146.923 79.5512 146.923 79.7236C146.923 79.896 146.866 80.0397 146.742 80.1642C146.617 80.2887 146.474 80.3462 146.301 80.3462C146.129 80.3462 145.976 80.2887 145.861 80.1642C145.746 80.0397 145.679 79.896 145.679 79.7236C145.679 79.5512 145.737 79.398 145.861 79.2831C145.986 79.1681 146.129 79.1011 146.301 79.1011Z" fill="black"/>
<path d="M139.411 43.2143L140.952 42.5917H141.162V43.7602C141.421 43.3196 141.679 43.0131 141.937 42.8312C142.196 42.6588 142.473 42.563 142.76 42.563C143.268 42.563 143.679 42.7641 144.014 43.1568C144.426 43.6357 144.636 44.2678 144.636 45.0436C144.636 45.9056 144.387 46.6239 143.89 47.189C143.478 47.6487 142.971 47.8881 142.349 47.8881C142.081 47.8881 141.842 47.8498 141.65 47.7732C141.507 47.7157 141.344 47.6104 141.162 47.4475V48.9704C141.162 49.3152 141.181 49.5355 141.229 49.6216C141.277 49.7078 141.344 49.7845 141.449 49.8419C141.554 49.8994 141.746 49.9281 142.014 49.9281V50.1293H139.392V49.9281H139.526C139.727 49.9281 139.899 49.8898 140.042 49.8132C140.109 49.7749 140.167 49.7078 140.205 49.6216C140.243 49.5355 140.263 49.3056 140.263 48.9416V44.2007C140.263 43.8751 140.243 43.674 140.215 43.5782C140.186 43.492 140.138 43.425 140.071 43.3771C140.004 43.3292 139.918 43.31 139.813 43.31C139.727 43.31 139.612 43.3388 139.478 43.3867L139.411 43.2143ZM141.162 44.0762V45.9439C141.162 46.3461 141.181 46.6143 141.21 46.7388C141.258 46.9495 141.382 47.1411 141.583 47.2943C141.784 47.4475 142.033 47.5337 142.339 47.5337C142.703 47.5337 143 47.3901 143.229 47.1028C143.526 46.7292 143.67 46.2025 143.67 45.532C143.67 44.7658 143.497 44.172 143.162 43.7602C142.933 43.4729 142.655 43.3292 142.33 43.3292C142.157 43.3292 141.985 43.3771 141.813 43.4633C141.679 43.5591 141.459 43.7506 141.162 44.0762Z" fill="black"/>
<path d="M136.396 62.1679L137.937 61.5453H138.147V62.7138C138.406 62.2732 138.664 61.9667 138.923 61.7848C139.181 61.6124 139.459 61.5166 139.746 61.5166C140.253 61.5166 140.664 61.7177 140.999 62.1104C141.411 62.5893 141.621 63.2214 141.621 63.9972C141.621 64.8592 141.373 65.5775 140.875 66.1426C140.463 66.6023 139.956 66.8417 139.334 66.8417C139.066 66.8417 138.827 66.8034 138.636 66.7268C138.492 66.6693 138.329 66.564 138.147 66.4012V67.924C138.147 68.2688 138.167 68.4891 138.214 68.5753C138.253 68.671 138.329 68.7381 138.435 68.7955C138.54 68.853 138.731 68.8817 138.999 68.8817V69.0829H136.377V68.8817H136.511C136.712 68.8817 136.884 68.8434 137.028 68.7668C137.095 68.7285 137.152 68.6615 137.19 68.5753C137.229 68.4891 137.248 68.2592 137.248 67.8953V63.1544C137.248 62.8287 137.229 62.6276 137.2 62.5318C137.171 62.4456 137.123 62.3786 137.056 62.3307C136.989 62.2828 136.903 62.2636 136.798 62.2636C136.712 62.2636 136.597 62.2924 136.463 62.3403L136.396 62.1679ZM138.147 63.0394V64.9071C138.147 65.3093 138.167 65.5775 138.195 65.702C138.243 65.9127 138.368 66.1043 138.569 66.2575C138.77 66.4107 139.018 66.4969 139.325 66.4969C139.688 66.4969 139.985 66.3533 140.215 66.0659C140.511 65.6924 140.655 65.1657 140.655 64.4952C140.655 63.729 140.483 63.1352 140.148 62.7234C139.918 62.4361 139.64 62.2924 139.315 62.2924C139.143 62.2924 138.971 62.3403 138.798 62.4265C138.664 62.5127 138.454 62.7138 138.147 63.0394Z" fill="black"/>
<path d="M151.584 82.5492L153.125 81.9267H153.335V83.0951C153.594 82.6546 153.852 82.3481 154.111 82.1661C154.369 81.9937 154.647 81.8979 154.934 81.8979C155.441 81.8979 155.852 82.0991 156.187 82.4918C156.599 82.9706 156.809 83.6028 156.809 84.3785C156.809 85.2405 156.561 85.9588 156.063 86.5239C155.651 86.9836 155.144 87.2231 154.522 87.2231C154.254 87.2231 154.015 87.1848 153.824 87.1082C153.68 87.0507 153.517 86.9453 153.335 86.7825V88.3053C153.335 88.6501 153.355 88.8704 153.402 88.9566C153.441 89.0524 153.517 89.1194 153.623 89.1769C153.728 89.2344 153.919 89.2631 154.187 89.2631V89.4642H151.565V89.2631H151.699C151.9 89.2631 152.072 89.2248 152.216 89.1482C152.283 89.1099 152.34 89.0428 152.378 88.9566C152.417 88.8704 152.436 88.6406 152.436 88.2766V83.5357C152.436 83.2101 152.417 83.0089 152.388 82.9132C152.359 82.827 152.311 82.7599 152.244 82.712C152.177 82.6642 152.091 82.645 151.986 82.645C151.9 82.645 151.785 82.6737 151.651 82.7216L151.584 82.5492ZM153.335 83.4208V85.2884C153.335 85.6907 153.355 85.9588 153.383 86.0834C153.431 86.2941 153.556 86.4856 153.757 86.6388C153.958 86.7921 154.206 86.8783 154.513 86.8783C154.876 86.8783 155.173 86.7346 155.403 86.4473C155.699 86.0738 155.843 85.547 155.843 84.8766C155.843 84.1104 155.671 83.5166 155.336 83.1047C155.106 82.8174 154.828 82.6737 154.503 82.6737C154.331 82.6737 154.159 82.7216 153.986 82.8078C153.852 82.894 153.642 83.0856 153.335 83.4208Z" fill="white"/>
<path d="M149.603 23.6278L151.144 23.0053H151.354V24.1738C151.613 23.7332 151.871 23.4267 152.13 23.2447C152.388 23.0723 152.666 22.9766 152.953 22.9766C153.46 22.9766 153.871 23.1777 154.206 23.5704C154.618 24.0493 154.829 24.6814 154.829 25.4572C154.829 26.3191 154.58 27.0375 154.082 27.6025C153.671 28.0623 153.163 28.3017 152.541 28.3017C152.273 28.3017 152.034 28.2634 151.843 28.1868C151.699 28.1293 151.536 28.024 151.354 27.8611V29.384C151.354 29.7288 151.374 29.949 151.421 30.0352C151.46 30.131 151.536 30.1981 151.642 30.2555C151.747 30.313 151.938 30.3417 152.206 30.3417V30.5429H149.584V30.3417H149.718C149.919 30.3417 150.091 30.3034 150.235 30.2268C150.302 30.1885 150.359 30.1214 150.397 30.0352C150.436 29.949 150.455 29.7192 150.455 29.3552V24.6143C150.455 24.2887 150.436 24.0876 150.407 23.9918C150.378 23.9056 150.33 23.8385 150.263 23.7907C150.196 23.7428 150.11 23.7236 150.005 23.7236C149.919 23.7236 149.804 23.7523 149.67 23.8002L149.603 23.6278ZM151.354 24.4994V26.367C151.354 26.7693 151.374 27.0375 151.402 27.162C151.45 27.3727 151.575 27.5642 151.776 27.7175C151.977 27.8803 152.225 27.9569 152.532 27.9569C152.895 27.9569 153.192 27.8132 153.422 27.5259C153.718 27.1524 153.862 26.6256 153.862 25.9552C153.862 25.189 153.69 24.5952 153.355 24.1833C153.125 23.896 152.847 23.7523 152.522 23.7523C152.35 23.7523 152.178 23.8002 152.005 23.8864C151.871 23.9726 151.661 24.1738 151.354 24.4994Z" fill="black"/>
<path d="M179.95 61.8807C180.362 62.1202 180.697 62.4937 180.946 62.9917C181.195 63.4898 181.329 63.9974 181.329 64.5146C181.329 65.2137 181.118 65.8459 180.706 66.4014C180.218 67.0718 179.548 67.3974 178.716 67.3974C178.199 67.3974 177.74 67.2633 177.319 67.0047C176.898 66.7461 176.572 66.363 176.333 65.8554C176.094 65.3478 175.979 64.8402 175.979 64.3422C175.979 63.6334 176.199 63.0109 176.63 62.465C177.137 61.8233 177.816 61.5072 178.649 61.5072C179.099 61.5264 179.539 61.6413 179.95 61.8807ZM177.73 62.4937C177.309 63.0588 177.098 63.8346 177.098 64.8211C177.098 65.6064 177.223 66.1619 177.481 66.4876C177.74 66.8132 178.056 66.976 178.448 66.976C178.974 66.976 179.395 66.6791 179.721 66.0949C180.046 65.5106 180.199 64.8115 180.199 64.007C180.199 63.5089 180.132 63.0971 179.998 62.781C179.864 62.465 179.692 62.2351 179.472 62.1106C179.252 61.9861 179.041 61.9191 178.831 61.9191C178.381 61.9191 178.017 62.1106 177.73 62.4937ZM178.716 58.8159L179.348 60.9038H179.137L177.347 58.8159H178.716Z" fill="white"/>
<path d="M157.805 22.9863H160.14V23.2162C159.93 23.2353 159.786 23.2737 159.719 23.3311C159.652 23.3886 159.623 23.4748 159.623 23.5897C159.623 23.7142 159.662 23.8675 159.729 24.0494L160.925 27.2579L162.121 24.6432L161.805 23.8196C161.71 23.5801 161.576 23.4077 161.423 23.312C161.336 23.2545 161.164 23.2162 160.925 23.2066V22.9863H163.576V23.2162C163.279 23.2258 163.078 23.2832 162.954 23.379C162.877 23.4461 162.829 23.5514 162.829 23.6855C162.829 23.7621 162.848 23.8483 162.877 23.9345L164.14 27.1334L165.318 24.0494C165.394 23.8292 165.442 23.6568 165.442 23.5227C165.442 23.4461 165.404 23.379 165.327 23.312C165.251 23.2545 165.098 23.2162 164.858 23.2066V22.9863H166.619V23.2162C166.265 23.2737 166.007 23.5131 165.844 23.9345L163.978 28.7425H163.729L162.332 25.1796L160.705 28.7425H160.475L158.685 24.0494C158.571 23.7525 158.456 23.5514 158.341 23.4461C158.226 23.3407 158.044 23.2641 157.805 23.2162V22.9863V22.9863Z" fill="black"/>
<path d="M147.804 42.333H150.139V42.5629C149.929 42.582 149.785 42.6203 149.718 42.6778C149.651 42.7353 149.622 42.8215 149.622 42.9364C149.622 43.0609 149.661 43.2141 149.728 43.3961L150.924 46.6046L152.12 43.9899L151.804 43.1663C151.709 42.9268 151.575 42.7544 151.422 42.6586C151.335 42.6012 151.163 42.5629 150.924 42.5533V42.333H153.575V42.5629C153.278 42.5724 153.077 42.6299 152.953 42.7257C152.876 42.7927 152.828 42.8981 152.828 43.0322C152.828 43.1088 152.848 43.195 152.876 43.2812L154.14 46.4801L155.317 43.3961C155.393 43.1758 155.441 43.0034 155.441 42.8693C155.441 42.7927 155.403 42.7257 155.326 42.6586C155.25 42.6012 155.097 42.5629 154.857 42.5533V42.333H156.618V42.5629C156.264 42.6203 156.006 42.8598 155.843 43.2812L153.977 48.0891H153.728L152.331 44.5263L150.704 48.0891H150.474L148.684 43.3961C148.57 43.0992 148.455 42.8981 148.34 42.7927C148.225 42.6874 148.043 42.6108 147.804 42.5629V42.333V42.333Z" fill="black"/>
<path d="M144.636 61.5265H146.971V61.7563C146.761 61.7755 146.617 61.8138 146.55 61.8713C146.483 61.9287 146.454 62.0149 146.454 62.1299C146.454 62.2544 146.493 62.4076 146.56 62.5896L147.756 65.7981L148.952 63.1834L148.636 62.3597C148.541 62.1203 148.407 61.9479 148.254 61.8521C148.167 61.7946 147.995 61.7563 147.756 61.7468V61.5169H150.407V61.7468C150.11 61.7563 149.909 61.8138 149.785 61.9096C149.708 61.9766 149.66 62.082 149.66 62.2161C149.66 62.2927 149.68 62.3789 149.708 62.4651L150.972 65.664L152.149 62.58C152.225 62.3597 152.273 62.1873 152.273 62.0532C152.273 61.9766 152.235 61.9096 152.158 61.8425C152.082 61.7851 151.929 61.7468 151.689 61.7372V61.5073H153.45V61.7372C153.096 61.7946 152.838 62.0341 152.675 62.4555L150.809 67.2634H150.56L149.163 63.7006L147.536 67.2634H147.306L145.516 62.5704C145.402 62.2735 145.287 62.0724 145.172 61.967C145.057 61.8617 144.875 61.7851 144.636 61.7372V61.5265V61.5265Z" fill="black"/>
<path d="M164.504 80.4132H164.341C164.351 79.9535 164.447 79.6183 164.628 79.4076C164.81 79.2064 165.03 79.1011 165.289 79.1011C165.423 79.1011 165.557 79.1202 165.672 79.1681C165.825 79.2256 166.035 79.3501 166.313 79.5321C166.59 79.714 166.801 79.8098 166.935 79.8098C167.04 79.8098 167.136 79.7619 167.222 79.6757C167.308 79.58 167.366 79.398 167.413 79.1106H167.566C167.566 79.4267 167.528 79.6757 167.442 79.8577C167.356 80.0397 167.232 80.1833 167.078 80.2887C166.925 80.394 166.763 80.4419 166.609 80.4419C166.341 80.4419 166.016 80.3078 165.614 80.0397C165.404 79.896 165.26 79.8098 165.184 79.7811C165.107 79.7523 165.04 79.7332 164.963 79.7332C164.829 79.7332 164.715 79.7907 164.638 79.9152C164.609 79.9631 164.561 80.1354 164.504 80.4132Z" fill="white"/>
<path d="M160.542 81.8976H162.877V82.1274C162.667 82.1466 162.523 82.1849 162.456 82.2424C162.389 82.2998 162.36 82.386 162.36 82.501C162.36 82.6255 162.399 82.7787 162.466 82.9607L163.662 86.1692L164.858 83.5545L164.542 82.7308C164.447 82.4914 164.313 82.319 164.16 82.2232C164.073 82.1657 163.901 82.1274 163.662 82.1179V81.888H166.313V82.1179C166.016 82.1274 165.815 82.1849 165.691 82.2807C165.614 82.3477 165.566 82.4531 165.566 82.5872C165.566 82.6638 165.586 82.75 165.614 82.8362L166.878 86.0351L168.055 82.9511C168.131 82.7308 168.179 82.5584 168.179 82.4243C168.179 82.3477 168.141 82.2807 168.064 82.2136C167.988 82.1562 167.835 82.1179 167.595 82.1083V81.8784H169.356V82.1083C169.002 82.1657 168.744 82.4052 168.581 82.8266L166.715 87.6345H166.466L165.069 84.0717L163.442 87.6345H163.212L161.422 82.9415C161.308 82.6446 161.193 82.4435 161.078 82.3381C160.963 82.2328 160.781 82.1562 160.542 82.1083V81.8976V81.8976Z" fill="white"/>
<path d="M136.138 117.814H135.975C135.984 117.354 136.08 117.019 136.262 116.808C136.444 116.597 136.664 116.501 136.922 116.501C137.056 116.501 137.19 116.521 137.305 116.569C137.458 116.626 137.669 116.75 137.946 116.932C138.224 117.114 138.434 117.21 138.568 117.21C138.674 117.21 138.769 117.162 138.856 117.076C138.942 116.98 138.999 116.798 139.047 116.511H139.2C139.2 116.827 139.162 117.076 139.076 117.258C138.989 117.44 138.865 117.584 138.712 117.689C138.559 117.794 138.396 117.842 138.243 117.842C137.975 117.842 137.65 117.708 137.248 117.44C137.037 117.296 136.894 117.21 136.817 117.181C136.74 117.153 136.673 117.134 136.597 117.134C136.463 117.134 136.348 117.191 136.272 117.316C136.243 117.363 136.195 117.536 136.138 117.814Z" fill="white"/>
<path d="M132.176 119.298H134.511V119.528C134.3 119.547 134.157 119.585 134.09 119.643C134.023 119.7 133.994 119.786 133.994 119.901C133.994 120.026 134.032 120.179 134.099 120.361L135.295 123.57L136.492 120.955L136.176 120.131C136.08 119.892 135.946 119.719 135.793 119.624C135.707 119.566 135.535 119.528 135.295 119.518V119.288H137.946V119.518C137.65 119.528 137.449 119.585 137.324 119.681C137.248 119.748 137.2 119.853 137.2 119.988C137.2 120.064 137.219 120.15 137.248 120.237L138.511 123.435L139.688 120.351C139.765 120.131 139.813 119.959 139.813 119.825C139.813 119.748 139.774 119.681 139.698 119.614C139.621 119.557 139.468 119.518 139.229 119.509V119.279H140.99V119.509C140.636 119.566 140.377 119.806 140.215 120.227L138.348 125.035H138.1L136.702 121.472L135.075 125.035H134.846L133.056 120.342C132.941 120.045 132.826 119.844 132.711 119.739C132.597 119.633 132.415 119.557 132.176 119.509V119.298V119.298Z" fill="white"/>
<path d="M178.419 87.0125L176.706 87.7213H176.429V86.5145C176.055 86.9263 175.768 87.1945 175.577 87.3382C175.232 87.5968 174.869 87.7213 174.496 87.7213C174.189 87.7213 173.912 87.6255 173.672 87.4435C173.433 87.2615 173.261 87.0221 173.175 86.7252C173.079 86.4283 173.041 86.0165 173.041 85.4897V84.8097H172.323V84.35H173.041V82.9421C173.041 82.5206 172.926 82.2525 172.696 82.1375C172.581 82.0801 172.38 82.0609 172.074 82.0609V81.8311H174.074V84.35H176.438V82.9037C176.438 82.5589 176.371 82.3387 176.228 82.2237C176.113 82.128 175.874 82.0705 175.52 82.0609V81.8311H177.462V84.35H178.171V84.8097H177.462V85.2886C177.462 86.1889 177.529 86.6965 177.663 86.8114C177.73 86.8689 177.816 86.8976 177.903 86.8976C178.027 86.8976 178.18 86.8593 178.343 86.7922L178.419 87.0125ZM176.429 86.141V84.8097H174.065V85.6525C174.065 86.5145 174.381 86.9551 175.012 86.9551C175.424 86.9551 175.902 86.6869 176.429 86.141Z" fill="white"/>
<path d="M187.674 87.0125L185.961 87.7213H185.683V86.5145C185.31 86.9263 185.023 87.1945 184.831 87.3382C184.487 87.5968 184.123 87.7213 183.75 87.7213C183.444 87.7213 183.166 87.6255 182.927 87.4435C182.688 87.2615 182.515 87.0221 182.429 86.7252C182.333 86.4283 182.295 86.0165 182.295 85.4897V84.8097H181.577V84.35H182.295V82.9421C182.295 82.5206 182.18 82.2525 181.951 82.1375C181.836 82.0801 181.635 82.0609 181.329 82.0609V81.8311H183.329V84.35H185.693V82.9037C185.693 82.5589 185.626 82.3387 185.482 82.2237C185.367 82.128 185.128 82.0705 184.774 82.0609V81.8311H186.717V84.35H187.425V84.8097H186.717V85.2886C186.717 86.1889 186.784 86.6965 186.918 86.8114C186.985 86.8689 187.071 86.8976 187.157 86.8976C187.281 86.8976 187.434 86.8593 187.597 86.7922L187.674 87.0125ZM185.693 86.141V84.8097H183.329V85.6525C183.329 86.5145 183.645 86.9551 184.276 86.9551C184.688 86.9551 185.157 86.6869 185.693 86.141Z" fill="white"/>
<path d="M173.471 66.641L171.758 67.3497H171.481V66.1429C171.107 66.5548 170.82 66.8229 170.629 66.9666C170.284 67.2252 169.921 67.3497 169.548 67.3497C169.241 67.3497 168.964 67.2539 168.724 67.0719C168.485 66.89 168.313 66.6505 168.227 66.3536C168.131 66.0567 168.093 65.6449 168.093 65.1181V64.4381H167.375V63.9784H168.093V62.5705C168.093 62.1491 167.978 61.8809 167.748 61.766C167.633 61.7085 167.432 61.6893 167.126 61.6893V61.4595H169.126V63.9784H171.49V62.5322C171.49 62.1874 171.423 61.9671 171.28 61.8522C171.165 61.7564 170.926 61.6989 170.572 61.6893V61.4595H172.514V63.9784H173.223V64.4381H172.514V64.917C172.514 65.8173 172.581 66.3249 172.715 66.4398C172.782 66.4973 172.868 66.526 172.955 66.526C173.079 66.526 173.232 66.4877 173.395 66.4207L173.471 66.641ZM171.481 65.7694V64.4381H169.117V65.2809C169.117 66.1429 169.433 66.5835 170.064 66.5835C170.476 66.5739 170.945 66.3057 171.481 65.7694Z" fill="black"/>
<path d="M134.492 80.1642H134.329C134.338 79.7044 134.434 79.3692 134.616 79.1585C134.798 78.9478 135.018 78.8521 135.276 78.8521C135.41 78.8521 135.544 78.8712 135.659 78.9191C135.812 78.9766 136.023 79.1011 136.3 79.283C136.578 79.465 136.788 79.5608 136.922 79.5608C137.028 79.5608 137.123 79.5129 137.21 79.4267C137.296 79.3405 137.353 79.149 137.401 78.8616H137.554C137.554 79.1777 137.516 79.4267 137.43 79.6087C137.344 79.7906 137.219 79.9343 137.066 80.0397C136.913 80.145 136.75 80.1929 136.597 80.1929C136.329 80.1929 136.004 80.0588 135.602 79.7906C135.391 79.647 135.248 79.5608 135.171 79.5321C135.094 79.5033 135.027 79.4842 134.951 79.4842C134.817 79.4842 134.702 79.5416 134.626 79.6661C134.597 79.714 134.549 79.8864 134.492 80.1642Z" fill="black"/>
<path d="M137.248 81.6968C137.659 81.9362 137.994 82.3097 138.243 82.8078C138.492 83.3154 138.626 83.8134 138.626 84.3306C138.626 85.0298 138.415 85.6619 138.004 86.2174C137.516 86.8878 136.846 87.2135 136.013 87.2135C135.496 87.2135 135.037 87.0794 134.616 86.8208C134.195 86.5622 133.869 86.1791 133.63 85.6715C133.391 85.1639 133.276 84.6562 133.276 84.1582C133.276 83.4495 133.496 82.8269 133.927 82.281C134.434 81.6393 135.114 81.3232 135.946 81.3232C136.406 81.3328 136.836 81.4573 137.248 81.6968ZM135.037 82.3097C134.616 82.8748 134.405 83.6506 134.405 84.6371C134.405 85.4224 134.53 85.9779 134.788 86.3036C135.047 86.6292 135.362 86.792 135.755 86.792C136.281 86.792 136.702 86.4951 137.028 85.9109C137.353 85.3267 137.506 84.6275 137.506 83.823C137.506 83.325 137.439 82.9131 137.305 82.5971C137.171 82.281 136.999 82.0511 136.779 81.9266C136.559 81.8021 136.348 81.7351 136.138 81.7351C135.688 81.7351 135.324 81.9266 135.037 82.3097Z" fill="black"/>
<path d="M176.649 106.148L174.936 106.857H174.658V105.64C174.285 106.052 173.998 106.32 173.806 106.464C173.462 106.723 173.098 106.847 172.725 106.847C172.419 106.847 172.141 106.751 171.902 106.569C171.663 106.388 171.49 106.148 171.404 105.851C171.309 105.554 171.27 105.142 171.27 104.616V103.936H170.553V103.476H171.27V102.068C171.27 101.647 171.155 101.378 170.926 101.264C170.811 101.206 170.61 101.187 170.304 101.187V100.957H172.304V103.476H174.668V102.03C174.668 101.685 174.601 101.465 174.457 101.35C174.342 101.254 174.103 101.196 173.749 101.187V100.957H175.692V103.476H176.4V103.936H175.692V104.415C175.692 105.315 175.759 105.822 175.893 105.937C175.96 105.995 176.046 106.024 176.132 106.024C176.256 106.024 176.41 105.985 176.572 105.918L176.649 106.148ZM174.658 105.277V103.945H172.294V104.788C172.294 105.65 172.61 106.091 173.242 106.091C173.653 106.081 174.122 105.813 174.658 105.277Z" fill="black"/>
<path d="M148.704 106.148L146.99 106.857H146.713V105.64C146.34 106.052 146.053 106.32 145.861 106.464C145.517 106.723 145.153 106.847 144.78 106.847C144.473 106.847 144.196 106.751 143.957 106.569C143.717 106.388 143.545 106.148 143.459 105.851C143.363 105.554 143.325 105.142 143.325 104.616V103.936H142.607V103.476H143.325V102.068C143.325 101.647 143.21 101.378 142.98 101.264C142.866 101.206 142.665 101.187 142.358 101.187V100.957H144.359V103.476H146.722V102.03C146.722 101.685 146.655 101.465 146.512 101.35C146.397 101.254 146.158 101.196 145.804 101.187V100.957H147.746V103.476H148.455V103.936H147.746V104.415C147.746 105.315 147.813 105.822 147.947 105.937C148.014 105.995 148.101 106.024 148.187 106.024C148.311 106.024 148.464 105.985 148.627 105.918L148.704 106.148ZM146.713 105.277V103.945H144.349V104.788C144.349 105.65 144.665 106.091 145.296 106.091C145.708 106.081 146.187 105.813 146.713 105.277Z" fill="black"/>
<path d="M159.135 124.49L157.422 125.198H157.145V123.992C156.771 124.403 156.484 124.672 156.293 124.815C155.948 125.074 155.585 125.198 155.211 125.198C154.905 125.198 154.628 125.103 154.388 124.921C154.149 124.739 153.977 124.499 153.891 124.202C153.795 123.905 153.757 123.493 153.757 122.967V122.287H153.039V121.827H153.757V120.419C153.757 119.998 153.642 119.73 153.412 119.615C153.297 119.557 153.096 119.538 152.79 119.538V119.308H154.79V121.827H157.154V120.381C157.154 120.036 157.087 119.816 156.944 119.701C156.829 119.605 156.589 119.548 156.235 119.538V119.308H158.178V121.827H158.886V122.287H158.178V122.766C158.178 123.666 158.245 124.173 158.379 124.288C158.446 124.346 158.532 124.375 158.618 124.375C158.743 124.375 158.896 124.336 159.059 124.269L159.135 124.49ZM157.145 123.618V122.287H154.781V123.13C154.781 123.992 155.096 124.432 155.728 124.432C156.14 124.432 156.618 124.154 157.145 123.618Z" fill="white"/>
<path d="M133.87 20.4863C134.013 20.4863 134.137 20.5342 134.233 20.6396C134.329 20.7449 134.386 20.8599 134.386 21.0035C134.386 21.1472 134.338 21.2621 134.233 21.3675C134.128 21.4728 134.013 21.5207 133.879 21.5207C133.736 21.5207 133.621 21.4728 133.515 21.3675C133.41 21.2717 133.362 21.1472 133.362 21.0035C133.362 20.8599 133.41 20.7449 133.515 20.6396C133.602 20.5342 133.726 20.4863 133.87 20.4863ZM135.535 20.4863C135.678 20.4863 135.793 20.5342 135.898 20.6396C135.994 20.7449 136.052 20.8599 136.052 21.0035C136.052 21.1472 136.004 21.2621 135.898 21.3675C135.793 21.4728 135.678 21.5207 135.535 21.5207C135.391 21.5207 135.276 21.4728 135.171 21.3675C135.066 21.2717 135.018 21.1472 135.018 21.0035C135.018 20.8599 135.066 20.7449 135.171 20.6396C135.267 20.5342 135.391 20.4863 135.535 20.4863Z" fill="black"/>
<path d="M131.582 23.1011H134.013V23.3118H133.889C133.716 23.3118 133.592 23.3501 133.506 23.4267C133.42 23.5033 133.381 23.5895 133.381 23.7045C133.381 23.8481 133.448 24.0588 133.573 24.3174L134.846 26.9513L136.013 24.0588C136.08 23.9056 136.109 23.7523 136.109 23.5991C136.109 23.5321 136.099 23.4746 136.071 23.4459C136.042 23.4076 135.994 23.3692 135.927 23.3501C135.86 23.3214 135.745 23.3118 135.583 23.3118V23.1011H137.286V23.3118C137.143 23.3309 137.037 23.3597 136.961 23.4076C136.884 23.4554 136.798 23.5416 136.712 23.6662C136.674 23.7236 136.616 23.8673 136.521 24.1067L134.396 29.3265C134.195 29.8341 133.917 30.2172 133.592 30.4758C133.267 30.7344 132.941 30.8685 132.635 30.8685C132.415 30.8685 132.223 30.8015 132.08 30.6769C131.936 30.5429 131.86 30.3992 131.86 30.2364C131.86 30.0736 131.908 29.949 132.013 29.8533C132.118 29.7575 132.262 29.7096 132.444 29.7096C132.568 29.7096 132.74 29.7479 132.96 29.8341C133.114 29.8916 133.209 29.9203 133.248 29.9203C133.362 29.9203 133.487 29.8628 133.621 29.7479C133.755 29.633 133.889 29.4031 134.032 29.0583L134.406 28.1485L132.53 24.2025C132.472 24.0876 132.386 23.9343 132.252 23.7619C132.156 23.6278 132.08 23.5416 132.023 23.4938C131.936 23.4363 131.793 23.3788 131.601 23.3309V23.1011H131.582Z" fill="black"/>
<path d="M153.613 98.7256C153.756 98.7256 153.881 98.7735 153.977 98.8788C154.072 98.9842 154.13 99.0991 154.13 99.2428C154.13 99.3864 154.082 99.5014 153.977 99.6067C153.871 99.7121 153.756 99.76 153.622 99.76C153.479 99.76 153.364 99.7121 153.259 99.6067C153.154 99.5014 153.106 99.3864 153.106 99.2428C153.106 99.0991 153.154 98.9842 153.259 98.8788C153.364 98.7735 153.479 98.7256 153.613 98.7256ZM155.278 98.7256C155.422 98.7256 155.537 98.7735 155.642 98.8788C155.747 98.9842 155.795 99.0991 155.795 99.2428C155.795 99.3864 155.747 99.5014 155.642 99.6067C155.537 99.7121 155.422 99.76 155.278 99.76C155.135 99.76 155.02 99.7121 154.914 99.6067C154.809 99.5109 154.761 99.3864 154.761 99.2428C154.761 99.0991 154.809 98.9842 154.914 98.8788C155.02 98.7735 155.135 98.7256 155.278 98.7256Z" fill="black"/>
<path d="M151.335 101.34H153.766V101.551H153.642C153.469 101.551 153.345 101.589 153.259 101.666C153.173 101.743 153.134 101.829 153.134 101.944C153.134 102.087 153.201 102.298 153.326 102.557L154.599 105.191L155.766 102.298C155.833 102.145 155.862 101.992 155.862 101.838C155.862 101.771 155.852 101.714 155.824 101.685C155.795 101.647 155.747 101.609 155.68 101.589C155.613 101.561 155.498 101.551 155.336 101.551V101.34H157.039V101.551C156.896 101.57 156.79 101.599 156.714 101.647C156.637 101.695 156.551 101.781 156.465 101.905C156.427 101.963 156.369 102.107 156.273 102.346L154.149 107.566C153.948 108.073 153.67 108.456 153.345 108.715C153.01 108.974 152.694 109.108 152.388 109.108C152.168 109.108 151.976 109.041 151.833 108.916C151.689 108.792 151.613 108.638 151.613 108.476C151.613 108.313 151.661 108.188 151.766 108.093C151.871 107.997 152.015 107.949 152.197 107.949C152.321 107.949 152.493 107.987 152.713 108.073C152.866 108.131 152.962 108.16 153 108.16C153.115 108.16 153.24 108.102 153.374 107.987C153.508 107.872 153.642 107.642 153.785 107.298L154.158 106.388L152.283 102.442C152.225 102.327 152.139 102.174 152.005 102.001C151.909 101.867 151.833 101.781 151.775 101.733C151.689 101.676 151.546 101.618 151.354 101.57V101.34H151.335Z" fill="black"/>
<path d="M144.674 119.538H147.105V119.748H146.981C146.809 119.748 146.684 119.787 146.598 119.863C146.512 119.94 146.474 120.026 146.474 120.141C146.474 120.285 146.541 120.495 146.665 120.754L147.938 123.388L149.105 120.495C149.172 120.342 149.201 120.189 149.201 120.036C149.201 119.969 149.192 119.911 149.163 119.882C149.134 119.844 149.086 119.806 149.019 119.787C148.952 119.758 148.837 119.748 148.675 119.748V119.538H150.378V119.748C150.235 119.767 150.129 119.796 150.053 119.844C149.976 119.892 149.89 119.978 149.804 120.103C149.766 120.16 149.708 120.304 149.613 120.543L147.478 125.753C147.277 126.261 147 126.644 146.675 126.903C146.34 127.161 146.024 127.295 145.717 127.295C145.497 127.295 145.306 127.228 145.162 127.104C145.019 126.979 144.942 126.826 144.942 126.663C144.942 126.501 144.99 126.376 145.095 126.28C145.201 126.184 145.344 126.137 145.526 126.137C145.651 126.137 145.823 126.175 146.043 126.261C146.196 126.319 146.292 126.347 146.33 126.347C146.445 126.347 146.569 126.29 146.703 126.175C146.837 126.06 146.971 125.83 147.115 125.485L147.488 124.575L145.612 120.629C145.555 120.515 145.469 120.361 145.335 120.189C145.239 120.055 145.162 119.969 145.105 119.921C145.019 119.863 144.875 119.806 144.684 119.758V119.538H144.674Z" fill="white"/>
<path d="M161.537 100.076H161.375C161.384 99.6166 161.48 99.2814 161.662 99.0707C161.843 98.8695 162.064 98.7642 162.322 98.7642C162.456 98.7642 162.59 98.7833 162.705 98.8312C162.858 98.8887 163.068 99.0132 163.346 99.1952C163.624 99.3771 163.834 99.4729 163.968 99.4729C164.073 99.4729 164.169 99.425 164.255 99.3388C164.341 99.243 164.399 99.0611 164.447 98.7737H164.6C164.6 99.0898 164.561 99.3388 164.475 99.5208C164.389 99.7028 164.265 99.8464 164.112 99.9518C163.959 100.057 163.796 100.105 163.643 100.105C163.375 100.105 163.049 99.9709 162.647 99.7028C162.437 99.5591 162.293 99.4729 162.217 99.4442C162.14 99.4154 162.073 99.3963 161.997 99.3963C161.863 99.3963 161.748 99.4537 161.671 99.5783C161.642 99.6166 161.595 99.789 161.537 100.076Z" fill="black"/>
<path d="M165.71 101.542V104.741C165.71 105.354 165.729 105.727 165.758 105.861C165.787 105.995 165.834 106.091 165.892 106.149C165.959 106.206 166.026 106.225 166.112 106.225C166.227 106.225 166.37 106.197 166.514 106.129L166.59 106.331L165.011 106.982H164.753V105.861C164.303 106.35 163.949 106.666 163.719 106.79C163.49 106.915 163.231 106.982 162.963 106.982C162.667 106.982 162.408 106.896 162.198 106.723C161.987 106.551 161.834 106.331 161.748 106.062C161.662 105.794 161.623 105.411 161.623 104.923V102.567C161.623 102.318 161.595 102.145 161.547 102.049C161.499 101.954 161.413 101.877 161.308 101.829C161.202 101.781 161.011 101.753 160.733 101.753V101.542H162.58V105.076C162.58 105.564 162.667 105.89 162.839 106.043C163.011 106.197 163.212 106.273 163.461 106.273C163.624 106.273 163.815 106.225 164.026 106.12C164.236 106.015 164.485 105.813 164.772 105.526V102.528C164.772 102.231 164.715 102.03 164.609 101.915C164.504 101.81 164.274 101.753 163.93 101.743V101.532H165.71V101.542Z" fill="black"/>
<path d="M139.755 105.985L138.042 106.694H137.765V105.487C137.391 105.899 137.104 106.167 136.913 106.311C136.568 106.57 136.205 106.694 135.831 106.694C135.525 106.694 135.248 106.598 135.008 106.416C134.769 106.234 134.597 105.995 134.511 105.698C134.415 105.401 134.377 104.989 134.377 104.463V103.783H133.659V103.323H134.377V101.905C134.377 101.484 134.262 101.216 134.032 101.101C133.917 101.043 133.716 101.024 133.41 101.024V100.794H135.41V103.313H137.774V101.867C137.774 101.522 137.707 101.302 137.564 101.187C137.449 101.091 137.21 101.034 136.855 101.024V100.794H138.798V103.313H139.506V103.773H138.798V104.252C138.798 105.152 138.865 105.66 138.999 105.775C139.066 105.832 139.152 105.861 139.238 105.861C139.363 105.861 139.516 105.823 139.679 105.756L139.755 105.985ZM137.765 105.104V103.773H135.401V104.616C135.401 105.478 135.717 105.918 136.348 105.918C136.76 105.918 137.238 105.65 137.765 105.104Z" fill="black"/>
<path d="M135.123 99.6451H134.96C134.97 99.1854 135.066 98.8502 135.248 98.6395C135.429 98.4288 135.65 98.333 135.908 98.333C136.042 98.333 136.176 98.3522 136.291 98.4001C136.444 98.4575 136.654 98.582 136.932 98.764C137.209 98.946 137.42 99.0417 137.554 99.0417C137.659 99.0417 137.755 98.9939 137.841 98.9077C137.927 98.8119 137.985 98.6299 138.033 98.3426H138.186C138.186 98.6587 138.147 98.9077 138.061 99.0896C137.975 99.2716 137.851 99.4153 137.698 99.5206C137.544 99.626 137.382 99.6739 137.229 99.6739C136.961 99.6739 136.635 99.5398 136.233 99.2716C136.023 99.128 135.879 99.0418 135.803 99.013C135.726 98.9843 135.659 98.9651 135.583 98.9651C135.449 98.9651 135.334 99.0226 135.257 99.1471C135.228 99.195 135.181 99.3674 135.123 99.6451Z" fill="black"/>
<path d="M173.471 66.641L171.758 67.3497H171.481V66.1429C171.107 66.5548 170.82 66.8229 170.629 66.9666C170.284 67.2252 169.921 67.3497 169.548 67.3497C169.241 67.3497 168.964 67.2539 168.724 67.0719C168.485 66.89 168.313 66.6505 168.227 66.3536C168.131 66.0567 168.093 65.6449 168.093 65.1181V64.4381H167.375V63.9784H168.093V62.5705C168.093 62.1491 167.978 61.8809 167.748 61.766C167.633 61.7085 167.432 61.6893 167.126 61.6893V61.4595H169.126V63.9784H171.49V62.5322C171.49 62.1874 171.423 61.9671 171.28 61.8522C171.165 61.7564 170.926 61.6989 170.572 61.6893V61.4595H172.514V63.9784H173.223V64.4381H172.514V64.917C172.514 65.8173 172.581 66.3249 172.715 66.4398C172.782 66.4973 172.868 66.526 172.955 66.526C173.079 66.526 173.232 66.4877 173.395 66.4207L173.471 66.641ZM171.481 65.7694V64.4381H169.117V65.2809C169.117 66.1429 169.433 66.5835 170.064 66.5835C170.476 66.5739 170.945 66.3057 171.481 65.7694Z" fill="black"/>
<path d="M164.944 66.641L163.231 67.3497H162.954V66.1429C162.58 66.5548 162.293 66.8229 162.102 66.9666C161.757 67.2252 161.394 67.3497 161.02 67.3497C160.714 67.3497 160.437 67.2539 160.197 67.0719C159.958 66.89 159.786 66.6505 159.7 66.3536C159.604 66.0567 159.566 65.6449 159.566 65.1181V64.4381H158.848V63.9784H159.566V62.5705C159.566 62.1491 159.451 61.8809 159.221 61.766C159.106 61.7085 158.905 61.6893 158.599 61.6893V61.4595H160.599V63.9784H162.963V62.5322C162.963 62.1874 162.896 61.9671 162.753 61.8522C162.638 61.7564 162.399 61.6989 162.044 61.6893V61.4595H163.987V63.9784H164.695V64.4381H163.987V64.917C163.987 65.8173 164.054 66.3249 164.188 66.4398C164.255 66.4973 164.341 66.526 164.427 66.526C164.552 66.526 164.705 66.4877 164.868 66.4207L164.944 66.641ZM162.954 65.7694V64.4381H160.59V65.2809C160.59 66.1429 160.906 66.5835 161.537 66.5835C161.949 66.5739 162.427 66.3057 162.954 65.7694Z" fill="white"/>
<path d="M105.934 7.4707C108.412 6.98224 110.968 6.88647 113.513 6.93435C116.059 7.01098 118.605 7.28873 121.122 7.77718C126.156 8.73494 131.056 10.4876 135.611 12.9108C137.879 14.1271 140.08 15.4967 142.157 17.0291C143.2 17.7953 144.224 18.5807 145.201 19.4139C145.449 19.6151 145.689 19.8354 145.938 20.0461C146.186 20.2568 146.426 20.4675 146.665 20.6878C146.904 20.908 147.143 21.1092 147.383 21.339C147.631 21.5689 147.871 21.7988 148.1 22.0382C148.569 22.5171 149.019 23.0055 149.45 23.5131C149.88 24.0208 150.292 24.5379 150.684 25.0647C151.469 26.1183 152.197 27.2197 152.866 28.3307C154.216 30.5622 155.345 32.8992 156.35 35.2648C157.364 37.6305 158.226 40.0536 159.001 42.4863C159.786 44.919 160.446 47.3805 161.059 49.8515C161.671 52.3225 162.188 54.8127 162.676 57.3029C163.145 59.8026 163.566 62.3024 163.92 64.8117C164.647 69.8303 165.164 74.8681 165.509 79.9059C165.595 81.1702 165.672 82.4249 165.739 83.6891C165.806 84.9533 165.853 86.2176 165.892 87.4722C165.968 90.0007 166.006 92.5196 165.949 95.0481C165.815 93.7934 165.681 92.5388 165.538 91.2841C165.394 90.0294 165.25 88.7844 165.088 87.5297L164.6 83.7849L164.083 80.0496C163.365 75.0693 162.552 70.1177 161.604 65.1948C161.126 62.7333 160.628 60.2815 160.063 57.8392C159.518 55.3969 158.905 52.9738 158.264 50.5698C156.953 45.7619 155.422 41.021 153.479 36.4908C152.503 34.2305 151.412 32.0276 150.168 29.9397C148.923 27.8518 147.507 25.8884 145.88 24.1836C145.679 23.9729 145.469 23.7622 145.258 23.561C145.047 23.3599 144.808 23.1396 144.588 22.9385C144.368 22.7278 144.138 22.5171 143.909 22.3159C143.679 22.1148 143.459 21.9041 143.22 21.703C142.301 20.8889 141.353 20.1131 140.377 19.3565C138.434 17.8528 136.405 16.464 134.29 15.219C130.06 12.7096 125.495 10.7558 120.72 9.41495C118.327 8.75409 115.896 8.23691 113.418 7.89211C112.183 7.71014 110.939 7.58563 109.685 7.50901C108.451 7.45154 107.197 7.41323 105.934 7.4707Z" fill="black"/>
<path d="M100.211 22.0287L98.4497 22.394L105.778 57.788L107.54 57.4227L100.211 22.0287Z" fill="black"/>
<path d="M150.206 14.9988C150.216 14.9988 150.216 14.9988 150.206 14.9988C150.464 14.6252 150.943 14.1943 149.938 13.4089C149.287 12.9013 148.818 13.1503 148.55 13.2365C148.388 13.294 148.244 13.3802 148.12 13.4855L141.803 18.9256C141.803 18.9256 140.923 19.6152 141.746 22.9003C142.607 26.3195 140.416 31.2615 138.253 33.5314C136.099 35.8013 134.157 37.3624 133.506 40.092C132.855 42.8216 131.994 46.7006 130.376 49.1907C128.759 51.6713 126.06 56.2111 124.873 57.9925C123.687 59.774 118.193 65.2811 118.193 65.2811L114.738 62.5802C114.738 62.5802 115.274 60.9616 113.657 60.3103C112.04 59.659 111.073 59.659 111.073 59.659V57.2838L101.043 57.983C101.034 57.983 96.7271 59.1227 95.6456 62.0343C94.5642 64.9459 92.9468 72.7229 94.3536 75.2035C95.7605 77.6841 95.2054 78.23 97.4257 79.6283C99.6364 81.0266 101.684 80.7106 101.694 80.7106C101.704 80.7106 103.886 81.7928 103.378 83.0858C102.881 84.3788 97.4831 85.9974 96.4017 87.2999C95.3202 88.5929 92.9468 90.3265 92.4109 93.7744C91.8749 97.2319 93.0616 97.548 91.5495 98.8505C90.0374 100.143 85.8361 103.065 85.5107 106.302C85.1853 109.539 85.5011 111.445 88.3818 114.117C91.2624 116.789 99.5312 109.108 100.833 108.246C102.125 107.384 103.819 107.164 103.455 109.003C103.091 110.842 102.173 124.432 102.173 124.432C102.173 124.432 109.188 127.986 113.121 129.164C118.901 130.888 125.371 131.836 125.381 131.836L132.97 112.891C132.97 112.891 133.343 111.704 132.242 108.035C131.142 104.367 133.133 94.5406 132.242 91.198C131.352 87.8554 129.735 84.5033 128.654 82.0227C127.572 79.5421 126.07 74.6863 127.142 72.9527C128.223 71.2288 133.075 64.103 134.042 62.1588C135.008 60.2145 136.52 53.9125 137.812 51.1829C139.104 48.4533 143.421 43.7028 144.071 41.4329C144.722 39.163 145.478 33.4452 146.655 30.3133C147.842 27.1815 149.89 23.0823 149.89 23.0823L150.972 21.3583L151.125 21.0614C151.278 20.7645 151.153 20.4101 150.857 20.2664C150.857 20.2664 150.302 20.1036 150.196 19.96C150.11 19.845 150.11 19.5098 150.196 19.3949C150.321 19.2321 151.01 19.1746 150.57 18.418C150.34 18.0253 149.871 18.5712 149.574 18.2168C149.354 17.9582 150.847 17.3165 150.397 16.5503C149.89 15.6884 148.981 16.7227 148.981 16.7227L150.206 14.9988Z" fill="black"/>
<defs>
<radialGradient id="paint0_radial_1603_5062" cx="0" cy="0" r="1" gradientUnits="userSpaceOnUse" gradientTransform="translate(131.808 66.2177) scale(65.1386 65.1881)">
<stop offset="0.26" stop-color="#FFDD00"/>
<stop offset="0.855" stop-color="#FEB200"/>
</radialGradient>
</defs>
</svg>
