<svg width="80" height="50" viewBox="0 0 80 50" fill="none" xmlns="http://www.w3.org/2000/svg">
<rect x="0.285156" y="0.817497" width="70" height="40" rx="5" fill="#3794A0"/>
<rect width="56.7945" height="32" transform="translate(4.28516 4.8175)" fill="#B0DEE4"/>
<path d="M65.6824 23.4203C67.1198 23.4203 68.2851 22.255 68.2851 20.8175C68.2851 19.38 67.1198 18.2147 65.6824 18.2147C64.2449 18.2147 63.0796 19.38 63.0796 20.8175C63.0796 22.255 64.2449 23.4203 65.6824 23.4203Z" fill="#B0DEE4"/>
<path fill-rule="evenodd" clip-rule="evenodd" d="M25.4403 28.4004C25.4322 22.6573 25.4282 19.7861 25.4282 19.7861C25.5228 18.4903 26.0768 17.932 27.0896 18.1112C27.7129 18.4212 28.0226 19.1155 28.018 20.1928C28.2457 23.3515 28.3598 24.931 28.3598 24.931C28.5691 25.6117 29.1064 25.6195 29.9723 24.9545C35.3475 19.1801 38.0348 16.2926 38.0348 16.2926C39.3032 15.5293 40.1107 16.2802 39.7208 17.3934C36.3981 21.4452 34.7367 23.4711 34.7367 23.4711C34.6204 23.9918 34.8733 24.1351 35.4938 23.902C39.6961 20.2804 41.7973 18.4701 41.7973 18.4701C43.0704 17.9124 43.7637 18.8206 42.97 19.9777C39.2236 23.5987 37.3507 25.4095 37.3507 25.4095C37.0977 26.0116 37.334 26.2907 38.0594 26.2469C41.8054 23.6627 43.6783 22.3704 43.6783 22.3704C44.1812 22.3164 44.5236 22.4045 44.7048 22.6337C45.0219 23.0499 45.0299 23.4329 44.7289 23.7824C41.0318 26.6378 39.1828 28.0656 39.1828 28.0656C38.8383 28.6463 39.0011 28.9373 39.6715 28.9389C42.5709 27.423 44.0206 26.6653 44.0206 26.6653C44.5396 26.5328 44.8574 26.6362 44.9732 26.9765C45.073 27.3702 44.894 27.7292 44.4358 28.0532C38.5142 32.1494 34.8131 34.4191 33.3318 34.8611C30.4249 35.3509 28.1201 34.545 26.4174 32.4443C25.8703 31.2614 25.5446 29.9134 25.4403 28.4004Z" fill="black"/>
<path fill-rule="evenodd" clip-rule="evenodd" d="M19.3337 20.5042C21.1877 22.3127 22.9058 23.8602 24.4886 25.1463C24.4886 25.1463 24.4886 23.7186 24.4886 20.8631C21.6218 19.2994 20.1887 18.5181 20.1887 18.5181C18.9764 18.4558 18.6914 19.118 19.3337 20.5042Z" fill="black"/>
<path fill-rule="evenodd" clip-rule="evenodd" d="M26.9134 17.1654C25.6753 17.1177 25.3983 17.5962 25.3983 17.5962C25.3983 17.5962 25.4006 14.8008 25.4166 9.52062C25.8731 8.03109 27.6245 8.39281 27.7868 9.66385C28.3241 14.4498 28.5925 16.8425 28.5925 16.8425C29.1568 17.1868 29.5077 17.1143 29.6454 16.6257C29.5789 10.8197 29.5456 7.91709 29.5456 7.91709C30.0073 6.4725 31.7689 6.84207 32.1107 8.27599C32.1434 14.1785 32.16 17.1295 32.16 17.1295C32.4881 17.284 32.8057 17.2205 33.1126 16.938C33.764 12.3279 34.0897 10.0228 34.0897 10.0228C34.7728 8.80456 35.828 9.45609 36.0688 10.4059C35.6617 15.1435 35.4581 17.5126 35.4581 17.5126C32.054 21.0702 30.352 22.8484 30.352 22.8484C29.8255 23.4584 29.4097 23.054 29.3501 22.777C29.1872 20.081 28.9045 18.5775 28.9045 18.5775C28.6086 17.7064 27.855 17.1081 26.9134 17.1654Z" fill="black"/>
</svg>
