<svg width="506" height="91" viewBox="0 0 506 91" fill="none" xmlns="http://www.w3.org/2000/svg">
<path d="M88.3834 51.4429H84.5544V49.2705H88.6149V47.3308H82.2076V57.7894H88.8311V55.8498H84.5544V53.367H88.3834V51.4429Z" fill="#3A3A3C"/>
<path d="M95.2676 46.7577V50.8698H95.2367C94.8971 50.3577 94.1869 50.0163 93.2451 50.0163C91.4387 50.0163 89.8484 51.506 89.8639 54.0663C89.8639 56.4249 91.2997 57.9611 93.0907 57.9611C94.0634 57.9611 94.9897 57.5266 95.4529 56.6887H95.4992L95.5918 57.7904H97.6761C97.6453 57.2784 97.6144 56.3784 97.6144 55.5249V46.7577H95.2676ZM95.2676 54.4077C95.2676 54.5939 95.2522 54.7801 95.2213 54.9508C95.0824 55.618 94.5265 56.0835 93.8472 56.0835C92.8745 56.0835 92.2415 55.2766 92.2415 53.9887C92.2415 52.7939 92.7819 51.8318 93.8626 51.8318C94.5883 51.8318 95.0978 52.3594 95.2367 52.9801C95.2676 53.1198 95.2676 53.2904 95.2676 53.4146V54.4077Z" fill="#3A3A3C"/>
<path d="M106.617 50.2021H104.27V54.7177C104.27 54.9194 104.239 55.0901 104.177 55.2297C104.038 55.6021 103.652 56.0521 103.004 56.0521C102.17 56.0521 101.815 55.3849 101.815 54.2832V50.2021H99.4683V54.6556C99.4683 56.9987 100.58 57.9608 102.124 57.9608C103.483 57.9608 104.193 57.1849 104.486 56.7194H104.532L104.64 57.7901H106.678C106.648 57.1539 106.617 56.347 106.617 55.3539V50.2021Z" fill="#3A3A3C"/>
<path d="M113.891 55.8511C113.536 56.0063 113.104 56.0994 112.548 56.0994C111.405 56.0994 110.479 55.3545 110.479 53.9735C110.464 52.7321 111.266 51.8476 112.502 51.8476C113.119 51.8476 113.536 51.9562 113.814 52.0804L114.184 50.3269C113.69 50.1407 113.011 50.0321 112.393 50.0321C109.584 50.0321 108.07 51.8476 108.07 54.0666C108.07 56.4407 109.63 57.9459 112.069 57.9459C112.965 57.9459 113.752 57.7907 114.169 57.589L113.891 55.8511Z" fill="#3A3A3C"/>
<path d="M121.809 53.3028C121.809 51.5028 121.022 50.0132 118.505 50.0132C117.131 50.0132 116.096 50.4011 115.572 50.6959L116.004 52.2166C116.498 51.9063 117.316 51.6425 118.088 51.6425C119.246 51.6425 119.462 52.2166 119.462 52.6356V52.7287C116.791 52.7287 115.031 53.6597 115.031 55.6304C115.031 56.8408 115.942 57.958 117.471 57.958C118.366 57.958 119.138 57.6322 119.632 57.027H119.678L119.817 57.7873H121.932C121.84 57.3684 121.809 56.6701 121.809 55.9563V53.3028ZM119.539 55.0253C119.539 55.1649 119.524 55.3046 119.493 55.4287C119.339 55.9097 118.845 56.2977 118.273 56.2977C117.748 56.2977 117.347 56.0029 117.347 55.3977C117.347 54.4977 118.304 54.2028 119.539 54.2028V55.0253Z" fill="#3A3A3C"/>
<path d="M123.879 48.7856V50.1977H122.875V51.9356H123.879V55.0391C123.879 56.1098 124.095 56.8391 124.527 57.2891C124.913 57.677 125.546 57.9408 126.303 57.9408C126.951 57.9408 127.522 57.8477 127.816 57.7391L127.8 55.9546C127.584 56.0012 127.43 56.0167 127.106 56.0167C126.411 56.0167 126.179 55.5977 126.179 54.6822V51.9356H127.862V50.1977H126.179V48.1494L123.879 48.7856Z" fill="#3A3A3C"/>
<path d="M131.568 57.7865V50.1986H129.221V57.7865H131.568ZM130.41 46.9089C129.653 46.9089 129.159 47.421 129.159 48.0882C129.159 48.74 129.638 49.2676 130.379 49.2676C131.166 49.2676 131.645 48.74 131.645 48.0882C131.63 47.421 131.166 46.9089 130.41 46.9089Z" fill="#3A3A3C"/>
<path d="M137.064 50.0132C134.624 50.0132 133.019 51.5804 133.019 54.0477C133.019 56.4994 134.717 57.958 136.925 57.958C138.947 57.958 140.908 56.6856 140.908 53.908C140.908 51.6115 139.364 50.0132 137.064 50.0132ZM136.987 51.7046C138.052 51.7046 138.484 52.8528 138.484 53.9701C138.484 55.3511 137.913 56.2666 136.987 56.2666C135.983 56.2666 135.443 55.2891 135.443 53.9856C135.443 52.8684 135.875 51.7046 136.987 51.7046Z" fill="#3A3A3C"/>
<path d="M142.359 57.7907H144.706V53.4149C144.706 53.1976 144.721 52.9804 144.783 52.8252C144.953 52.3907 145.339 51.9407 145.987 51.9407C146.837 51.9407 147.176 52.608 147.176 53.5855V57.7907H149.523V53.3062C149.523 51.0718 148.365 50.0321 146.821 50.0321C145.555 50.0321 144.799 50.7614 144.49 51.258H144.443L144.335 50.2028H142.297C142.328 50.8856 142.359 51.6769 142.359 52.6235V57.7907Z" fill="#3A3A3C"/>
<path d="M156.347 57.7882V51.3176H158.154V50.2779H156.347V49.8745C156.347 48.7107 156.641 47.7021 157.798 47.7021C158.2 47.7021 158.462 47.7796 158.663 47.8728L158.848 46.8176C158.586 46.709 158.184 46.6003 157.69 46.6003C157.057 46.6003 156.378 46.8021 155.869 47.2986C155.251 47.9038 155.004 48.8659 155.004 49.921V50.2779H153.97V51.3176H155.004V57.7882H156.347Z" fill="#3A3A3C"/>
<path d="M162.336 50.1202C160.283 50.1202 158.631 51.5944 158.631 54.0926C158.631 56.4668 160.206 57.9564 162.213 57.9564C164.004 57.9564 165.934 56.7461 165.934 53.9685C165.934 51.6875 164.482 50.1202 162.336 50.1202ZM162.305 51.1444C163.911 51.1444 164.544 52.7426 164.544 54.0151C164.544 55.7064 163.571 56.9323 162.275 56.9323C160.947 56.9323 160.02 55.6909 160.02 54.0461C160.02 52.634 160.715 51.1444 162.305 51.1444Z" fill="#3A3A3C"/>
<path d="M167.646 57.7858H169.004V53.7823C169.004 53.5651 169.02 53.3323 169.051 53.1461C169.236 52.122 169.915 51.4082 170.872 51.4082C171.058 51.4082 171.197 51.4082 171.336 51.4392V50.1513C171.212 50.1358 171.104 50.1202 170.965 50.1202C170.054 50.1202 169.22 50.7564 168.881 51.7651H168.834L168.773 50.2754H167.584C167.63 50.9737 167.646 51.734 167.646 52.6185V57.7858Z" fill="#3A3A3C"/>
<path d="M176.004 57.7894H181.809V56.6567H177.363V47.3308H176.004V57.7894Z" fill="#3A3A3C"/>
<path d="M184.619 57.7894V50.2791H183.26V57.7894H184.619ZM183.939 47.3308C183.43 47.3308 183.09 47.7187 183.09 48.1843C183.09 48.6498 183.414 49.0222 183.909 49.0222C184.449 49.0222 184.773 48.6498 184.773 48.1843C184.773 47.7032 184.433 47.3308 183.939 47.3308Z" fill="#3A3A3C"/>
<path d="M188.35 57.7882V51.3176H190.156V50.2779H188.35V49.8745C188.35 48.7107 188.643 47.7021 189.801 47.7021C190.203 47.7021 190.465 47.7796 190.666 47.8728L190.851 46.8176C190.589 46.709 190.187 46.6003 189.693 46.6003C189.06 46.6003 188.381 46.8021 187.871 47.2986C187.254 47.9038 187.007 48.8659 187.007 49.921V50.2779H185.972V51.3176H187.007V57.7882H188.35Z" fill="#3A3A3C"/>
<path d="M197.186 54.2789C197.217 54.1237 197.232 53.922 197.232 53.6426C197.232 52.2616 196.599 50.1202 194.145 50.1202C191.968 50.1202 190.64 51.8892 190.64 54.1547C190.64 56.4202 192.014 57.9564 194.314 57.9564C195.503 57.9564 196.337 57.6926 196.816 57.4754L196.569 56.4978C196.075 56.7151 195.472 56.8857 194.5 56.8857C193.126 56.8857 191.968 56.1254 191.937 54.2789H197.186ZM191.952 53.3013C192.06 52.3547 192.647 51.0978 194.037 51.0978C195.565 51.0978 195.936 52.4478 195.92 53.3013H191.952Z" fill="#3A3A3C"/>
<path d="M97.297 72.7781C97.3238 72.8411 97.3328 72.895 97.3328 72.94C97.3328 72.976 97.3238 73.003 97.3059 73.03C97.2791 73.048 97.2433 73.057 97.1896 73.066C97.1359 73.075 97.0643 73.075 96.9748 73.075C96.8763 73.075 96.8047 73.075 96.751 73.066C96.6973 73.066 96.6615 73.057 96.6346 73.048C96.6078 73.039 96.5809 73.021 96.572 73.003C96.5541 72.985 96.5451 72.967 96.5362 72.94L96.0439 71.5547H93.6989L93.2335 72.922C93.2246 72.949 93.2156 72.967 93.1977 72.985C93.1798 73.012 93.1619 73.021 93.1351 73.039C93.1082 73.048 93.0724 73.057 93.0187 73.066C92.965 73.075 92.9024 73.075 92.8218 73.075C92.7323 73.075 92.6607 73.075 92.607 73.066C92.5533 73.057 92.5175 73.039 92.4996 73.021C92.4728 73.003 92.4638 72.967 92.4638 72.931C92.4638 72.895 92.4817 72.8411 92.4996 72.7781L94.3971 67.4977C94.415 67.4618 94.4239 67.4348 94.4508 67.4168C94.4687 67.3988 94.4955 67.3808 94.5313 67.3718C94.5671 67.3538 94.6119 67.3448 94.6656 67.3448C94.7282 67.3358 94.7998 67.3358 94.8893 67.3358C94.9788 67.3358 95.0594 67.3358 95.1131 67.3448C95.1757 67.3448 95.2294 67.3538 95.2652 67.3718C95.301 67.3808 95.3368 67.3988 95.3547 67.4168C95.3727 67.4438 95.3906 67.4707 95.3995 67.4977L97.297 72.7781ZM94.8625 68.1184L93.8869 70.952H95.856L94.8625 68.1184Z" fill="#9FA1A4"/>
<path d="M102.519 72.7277C102.519 72.7907 102.501 72.8357 102.483 72.8806C102.465 72.9166 102.438 72.9526 102.411 72.9796C102.375 73.0066 102.34 73.0246 102.304 73.0426C102.259 73.0516 102.223 73.0516 102.187 73.0516H101.937C101.856 73.0516 101.785 73.0516 101.731 73.0336C101.668 73.0156 101.615 72.9886 101.561 72.9436C101.507 72.8986 101.454 72.8447 101.409 72.7727C101.355 72.7007 101.292 72.6018 101.239 72.4848L99.5113 69.2554C99.4218 69.0935 99.3323 68.9136 99.2428 68.7337C99.1443 68.5448 99.0638 68.3739 98.9832 68.194H98.9743C98.9832 68.4099 98.9832 68.6258 98.9832 68.8416C98.9922 69.0665 98.9922 69.2824 98.9922 69.4983V72.9256C98.9922 72.9526 98.9832 72.9706 98.9743 72.9886C98.9653 73.0066 98.9385 73.0246 98.9116 73.0336C98.8848 73.0426 98.84 73.0516 98.7953 73.0606C98.7505 73.0695 98.6879 73.0695 98.6163 73.0695C98.5357 73.0695 98.482 73.0695 98.4283 73.0606C98.3836 73.0516 98.3478 73.0426 98.3209 73.0336C98.2941 73.0246 98.2672 73.0066 98.2583 72.9886C98.2493 72.9706 98.2404 72.9526 98.2404 72.9256V67.6812C98.2404 67.5643 98.2762 67.4833 98.3388 67.4293C98.4015 67.3844 98.482 67.3574 98.5536 67.3574H98.9295C99.0101 67.3574 99.0817 67.3664 99.1443 67.3844C99.207 67.3934 99.2517 67.4204 99.3054 67.4563C99.3502 67.4833 99.3949 67.5373 99.4397 67.5913C99.4845 67.6542 99.5292 67.7262 99.574 67.8162L100.899 70.3169C100.979 70.4698 101.06 70.6138 101.14 70.7577C101.212 70.9016 101.283 71.0456 101.355 71.1895C101.427 71.3334 101.498 71.4683 101.57 71.6033C101.633 71.7382 101.704 71.8731 101.776 72.0171C101.767 71.7832 101.767 71.5403 101.767 71.2884C101.767 71.0456 101.767 70.8027 101.767 70.5688V67.4833C101.767 67.4653 101.767 67.4473 101.785 67.4293C101.794 67.4114 101.812 67.3934 101.847 67.3844C101.874 67.3664 101.91 67.3574 101.955 67.3574C102.008 67.3484 102.071 67.3484 102.143 67.3484C102.214 67.3484 102.268 67.3484 102.322 67.3574C102.366 67.3574 102.411 67.3664 102.438 67.3844C102.465 67.3934 102.483 67.4114 102.492 67.4293C102.51 67.4473 102.519 67.4653 102.519 67.4833V72.7277Z" fill="#9FA1A4"/>
<path d="M106.799 72.931C106.799 72.958 106.79 72.976 106.781 72.994C106.772 73.012 106.745 73.03 106.718 73.039C106.691 73.048 106.655 73.057 106.602 73.066C106.557 73.075 106.494 73.075 106.423 73.075C106.351 73.075 106.288 73.075 106.244 73.066C106.19 73.057 106.154 73.048 106.127 73.039C106.101 73.03 106.074 73.012 106.065 72.994C106.056 72.976 106.047 72.958 106.047 72.931V67.4797C106.047 67.4528 106.056 67.4348 106.065 67.4168C106.083 67.3988 106.101 67.3898 106.136 67.3718C106.163 67.3628 106.199 67.3538 106.253 67.3448C106.297 67.3448 106.351 67.3358 106.423 67.3358C106.494 67.3358 106.557 67.3448 106.602 67.3448C106.655 67.3538 106.691 67.3628 106.718 67.3718C106.745 67.3898 106.772 67.3988 106.781 67.4168C106.79 67.4348 106.799 67.4528 106.799 67.4797V72.931Z" fill="#9FA1A4"/>
<path d="M112.581 72.7277C112.581 72.7907 112.563 72.8357 112.545 72.8806C112.527 72.9166 112.5 72.9526 112.473 72.9796C112.437 73.0066 112.402 73.0246 112.366 73.0426C112.321 73.0516 112.285 73.0516 112.249 73.0516H111.999C111.918 73.0516 111.847 73.0516 111.793 73.0336C111.73 73.0156 111.677 72.9886 111.623 72.9436C111.569 72.8986 111.515 72.8447 111.471 72.7727C111.417 72.7007 111.354 72.6018 111.301 72.4848L109.573 69.2554C109.484 69.0935 109.394 68.9136 109.305 68.7337C109.206 68.5448 109.126 68.3739 109.045 68.194H109.036C109.045 68.4099 109.045 68.6258 109.045 68.8416C109.054 69.0665 109.054 69.2824 109.054 69.4983V72.9256C109.054 72.9526 109.045 72.9706 109.036 72.9886C109.027 73.0066 109 73.0246 108.974 73.0336C108.947 73.0426 108.902 73.0516 108.857 73.0606C108.812 73.0695 108.75 73.0695 108.678 73.0695C108.598 73.0695 108.544 73.0695 108.49 73.0606C108.446 73.0516 108.41 73.0426 108.383 73.0336C108.356 73.0246 108.329 73.0066 108.32 72.9886C108.311 72.9706 108.302 72.9526 108.302 72.9256V67.6812C108.302 67.5643 108.338 67.4833 108.401 67.4293C108.463 67.3844 108.544 67.3574 108.616 67.3574H108.991C109.072 67.3574 109.144 67.3664 109.206 67.3844C109.269 67.3934 109.314 67.4204 109.367 67.4563C109.412 67.4833 109.457 67.5373 109.502 67.5913C109.546 67.6542 109.591 67.7262 109.636 67.8162L110.961 70.3169C111.041 70.4698 111.122 70.6138 111.202 70.7577C111.274 70.9016 111.345 71.0456 111.417 71.1895C111.489 71.3334 111.56 71.4683 111.632 71.6033C111.694 71.7382 111.766 71.8731 111.838 72.0171C111.829 71.7832 111.829 71.5403 111.829 71.2884C111.829 71.0456 111.829 70.8027 111.829 70.5688V67.4833C111.829 67.4653 111.829 67.4473 111.847 67.4293C111.856 67.4114 111.873 67.3934 111.909 67.3844C111.936 67.3664 111.972 67.3574 112.017 67.3574C112.07 67.3484 112.133 67.3484 112.205 67.3484C112.276 67.3484 112.33 67.3484 112.384 67.3574C112.428 67.3574 112.473 67.3664 112.5 67.3844C112.527 67.3934 112.545 67.4114 112.554 67.4293C112.572 67.4473 112.581 67.4653 112.581 67.4833V72.7277Z" fill="#9FA1A4"/>
<path d="M114.831 72.931C114.831 72.958 114.822 72.976 114.813 72.994C114.804 73.012 114.777 73.03 114.75 73.039C114.723 73.048 114.687 73.057 114.634 73.066C114.589 73.075 114.526 73.075 114.455 73.075C114.383 73.075 114.321 73.075 114.276 73.066C114.222 73.057 114.186 73.048 114.159 73.039C114.133 73.03 114.106 73.012 114.097 72.994C114.088 72.976 114.079 72.958 114.079 72.931V67.4797C114.079 67.4528 114.088 67.4348 114.097 67.4168C114.115 67.3988 114.133 67.3898 114.168 67.3718C114.195 67.3628 114.231 67.3538 114.285 67.3448C114.329 67.3448 114.383 67.3358 114.455 67.3358C114.526 67.3358 114.589 67.3448 114.634 67.3448C114.687 67.3538 114.723 67.3628 114.75 67.3718C114.777 67.3898 114.804 67.3988 114.813 67.4168C114.822 67.4348 114.831 67.4528 114.831 67.4797V72.931Z" fill="#9FA1A4"/>
<path d="M119.872 67.6849C119.872 67.7389 119.872 67.7929 119.863 67.8288C119.854 67.8738 119.845 67.9098 119.837 67.9278C119.819 67.9548 119.81 67.9728 119.783 67.9818C119.765 67.9998 119.747 67.9998 119.72 67.9998H118.136V72.9293C118.136 72.9563 118.127 72.9743 118.118 72.9922C118.1 73.0102 118.082 73.0282 118.055 73.0372C118.029 73.0462 117.984 73.0552 117.939 73.0642C117.894 73.0732 117.832 73.0732 117.76 73.0732C117.688 73.0732 117.626 73.0732 117.581 73.0642C117.527 73.0552 117.492 73.0462 117.456 73.0372C117.429 73.0282 117.411 73.0102 117.402 72.9922C117.384 72.9743 117.384 72.9563 117.384 72.9293V67.9998H115.791C115.764 67.9998 115.746 67.9998 115.728 67.9818C115.71 67.9728 115.693 67.9548 115.684 67.9278C115.666 67.9098 115.657 67.8738 115.657 67.8288C115.648 67.7929 115.639 67.7389 115.639 67.6849C115.639 67.6309 115.648 67.586 115.657 67.541C115.657 67.496 115.666 67.46 115.684 67.433C115.693 67.4151 115.71 67.3881 115.728 67.3791C115.746 67.3701 115.764 67.3611 115.791 67.3611H119.72C119.747 67.3611 119.765 67.3701 119.783 67.3791C119.81 67.3881 119.819 67.4151 119.837 67.433C119.845 67.46 119.854 67.496 119.863 67.541C119.872 67.586 119.872 67.6309 119.872 67.6849Z" fill="#9FA1A4"/>
<path d="M121.44 72.931C121.44 72.958 121.431 72.976 121.423 72.994C121.414 73.012 121.387 73.03 121.36 73.039C121.333 73.048 121.297 73.057 121.244 73.066C121.199 73.075 121.136 73.075 121.065 73.075C120.993 73.075 120.93 73.075 120.886 73.066C120.832 73.057 120.796 73.048 120.769 73.039C120.742 73.03 120.716 73.012 120.707 72.994C120.698 72.976 120.689 72.958 120.689 72.931V67.4797C120.689 67.4528 120.698 67.4348 120.707 67.4168C120.724 67.3988 120.742 67.3898 120.778 67.3718C120.805 67.3628 120.841 67.3538 120.895 67.3448C120.939 67.3448 120.993 67.3358 121.065 67.3358C121.136 67.3358 121.199 67.3448 121.244 67.3448C121.297 67.3538 121.333 67.3628 121.36 67.3718C121.387 67.3898 121.414 67.3988 121.423 67.4168C121.431 67.4348 121.44 67.4528 121.44 67.4797V72.931Z" fill="#9FA1A4"/>
<path d="M127.176 72.7781C127.203 72.8411 127.212 72.895 127.212 72.94C127.212 72.976 127.203 73.003 127.185 73.03C127.158 73.048 127.122 73.057 127.068 73.066C127.015 73.075 126.943 73.075 126.854 73.075C126.755 73.075 126.684 73.075 126.63 73.066C126.576 73.066 126.54 73.057 126.513 73.048C126.487 73.039 126.46 73.021 126.451 73.003C126.433 72.985 126.424 72.967 126.415 72.94L125.923 71.5547H123.578L123.112 72.922C123.103 72.949 123.094 72.967 123.077 72.985C123.059 73.012 123.041 73.021 123.014 73.039C122.987 73.048 122.951 73.057 122.898 73.066C122.844 73.075 122.781 73.075 122.701 73.075C122.611 73.075 122.54 73.075 122.486 73.066C122.432 73.057 122.396 73.039 122.378 73.021C122.352 73.003 122.343 72.967 122.343 72.931C122.343 72.895 122.361 72.8411 122.378 72.7781L124.276 67.4977C124.294 67.4618 124.303 67.4348 124.33 67.4168C124.348 67.3988 124.374 67.3808 124.41 67.3718C124.446 67.3538 124.491 67.3448 124.544 67.3448C124.607 67.3358 124.679 67.3358 124.768 67.3358C124.858 67.3358 124.938 67.3358 124.992 67.3448C125.055 67.3448 125.108 67.3538 125.144 67.3718C125.18 67.3808 125.216 67.3988 125.234 67.4168C125.251 67.4438 125.269 67.4707 125.278 67.4977L127.176 72.7781ZM124.741 68.1184L123.766 70.952H125.735L124.741 68.1184Z" fill="#9FA1A4"/>
<path d="M130.968 67.6849C130.968 67.7389 130.968 67.7929 130.959 67.8288C130.95 67.8738 130.941 67.9098 130.932 67.9278C130.914 67.9548 130.905 67.9728 130.879 67.9818C130.861 67.9998 130.843 67.9998 130.816 67.9998H129.232V72.9293C129.232 72.9563 129.223 72.9743 129.214 72.9922C129.196 73.0102 129.178 73.0282 129.151 73.0372C129.124 73.0462 129.08 73.0552 129.035 73.0642C128.99 73.0732 128.927 73.0732 128.856 73.0732C128.784 73.0732 128.722 73.0732 128.677 73.0642C128.623 73.0552 128.587 73.0462 128.552 73.0372C128.525 73.0282 128.507 73.0102 128.498 72.9922C128.48 72.9743 128.48 72.9563 128.48 72.9293V67.9998H126.887C126.86 67.9998 126.842 67.9998 126.824 67.9818C126.806 67.9728 126.788 67.9548 126.779 67.9278C126.761 67.9098 126.752 67.8738 126.752 67.8288C126.744 67.7929 126.735 67.7389 126.735 67.6849C126.735 67.6309 126.744 67.586 126.752 67.541C126.752 67.496 126.761 67.46 126.779 67.433C126.788 67.4151 126.806 67.3881 126.824 67.3791C126.842 67.3701 126.86 67.3611 126.887 67.3611H130.816C130.843 67.3611 130.861 67.3701 130.879 67.3791C130.905 67.3881 130.914 67.4151 130.932 67.433C130.941 67.46 130.95 67.496 130.959 67.541C130.968 67.586 130.968 67.6309 130.968 67.6849Z" fill="#9FA1A4"/>
<path d="M132.536 72.931C132.536 72.958 132.527 72.976 132.518 72.994C132.509 73.012 132.482 73.03 132.456 73.039C132.429 73.048 132.393 73.057 132.339 73.066C132.295 73.075 132.232 73.075 132.16 73.075C132.089 73.075 132.026 73.075 131.981 73.066C131.928 73.057 131.892 73.048 131.865 73.039C131.838 73.03 131.811 73.012 131.802 72.994C131.793 72.976 131.784 72.958 131.784 72.931V67.4797C131.784 67.4528 131.793 67.4348 131.802 67.4168C131.82 67.3988 131.838 67.3898 131.874 67.3718C131.901 67.3628 131.937 67.3538 131.99 67.3448C132.035 67.3448 132.089 67.3358 132.16 67.3358C132.232 67.3358 132.295 67.3448 132.339 67.3448C132.393 67.3538 132.429 67.3628 132.456 67.3718C132.482 67.3898 132.509 67.3988 132.518 67.4168C132.527 67.4348 132.536 67.4528 132.536 67.4797V72.931Z" fill="#9FA1A4"/>
<path d="M136.32 72.913C136.311 72.949 136.294 72.976 136.276 72.994C136.258 73.012 136.231 73.03 136.186 73.048C136.15 73.057 136.106 73.066 136.052 73.066C135.989 73.075 135.927 73.075 135.837 73.075C135.774 73.075 135.721 73.075 135.667 73.075C135.622 73.075 135.577 73.066 135.542 73.057C135.515 73.057 135.479 73.048 135.452 73.039C135.434 73.03 135.407 73.021 135.39 73.012C135.372 73.003 135.363 72.985 135.354 72.967C135.345 72.958 135.336 72.931 135.327 72.913L133.474 67.6327C133.447 67.5697 133.438 67.5157 133.438 67.4797C133.438 67.4348 133.447 67.4078 133.474 67.3898C133.501 67.3628 133.546 67.3538 133.599 67.3448C133.662 67.3448 133.734 67.3358 133.841 67.3358C133.922 67.3358 133.984 67.3358 134.029 67.3448C134.083 67.3448 134.119 67.3538 134.145 67.3718C134.172 67.3808 134.19 67.3988 134.199 67.4168C134.217 67.4348 134.226 67.4618 134.235 67.4887L135.864 72.2744L137.439 67.4977C137.448 67.4618 137.457 67.4348 137.475 67.4168C137.484 67.3988 137.502 67.3808 137.538 67.3718C137.564 67.3538 137.6 67.3448 137.654 67.3448C137.708 67.3358 137.779 67.3358 137.869 67.3358C137.958 67.3358 138.03 67.3448 138.084 67.3448C138.137 67.3538 138.164 67.3718 138.191 67.3898C138.209 67.4078 138.218 67.4438 138.209 67.4797C138.209 67.5157 138.191 67.5697 138.164 67.6327L136.32 72.913Z" fill="#9FA1A4"/>
<path d="M142.265 72.7314C142.265 72.7854 142.256 72.8303 142.256 72.8753C142.247 72.9113 142.238 72.9473 142.22 72.9743C142.211 73.0012 142.194 73.0192 142.176 73.0282C142.149 73.0372 142.131 73.0462 142.104 73.0462H139.392C139.329 73.0462 139.267 73.0192 139.204 72.9743C139.141 72.9293 139.115 72.8573 139.115 72.7404V67.6669C139.115 67.559 139.141 67.478 139.204 67.433C139.267 67.3881 139.329 67.3611 139.392 67.3611H142.077C142.104 67.3611 142.122 67.3701 142.14 67.3791C142.158 67.3881 142.176 67.4151 142.185 67.433C142.202 67.46 142.211 67.496 142.211 67.532C142.22 67.577 142.229 67.622 142.229 67.6849C142.229 67.7389 142.22 67.7839 142.211 67.8199C142.211 67.8648 142.202 67.8918 142.185 67.9188C142.176 67.9458 142.158 67.9638 142.14 67.9728C142.122 67.9818 142.104 67.9908 142.077 67.9908H139.866V69.7719H141.764C141.782 69.7719 141.809 69.7809 141.827 69.7899C141.844 69.8079 141.862 69.8258 141.871 69.8528C141.889 69.8708 141.898 69.9068 141.907 69.9428C141.907 69.9878 141.907 70.0327 141.907 70.0867C141.907 70.1407 141.907 70.1857 141.907 70.2306C141.898 70.2666 141.889 70.2936 141.871 70.3206C141.862 70.3386 141.844 70.3566 141.827 70.3656C141.809 70.3836 141.782 70.3836 141.764 70.3836H139.866V72.4165H142.104C142.131 72.4165 142.149 72.4255 142.176 72.4345C142.194 72.4435 142.211 72.4615 142.22 72.4885C142.238 72.5155 142.247 72.5515 142.256 72.5875C142.256 72.6234 142.265 72.6774 142.265 72.7314Z" fill="#9FA1A4"/>
<path d="M150.249 70.1397C150.249 70.5985 150.195 71.0123 150.088 71.3811C149.98 71.7499 149.819 72.0648 149.604 72.3256C149.39 72.5775 149.121 72.7844 148.799 72.9193C148.477 73.0633 148.101 73.1262 147.671 73.1262C147.242 73.1262 146.875 73.0633 146.561 72.9373C146.257 72.8114 145.997 72.6225 145.792 72.3796C145.595 72.1367 145.443 71.8399 145.344 71.4801C145.246 71.1202 145.192 70.7064 145.192 70.2297C145.192 69.7889 145.246 69.3751 145.353 69.0153C145.46 68.6465 145.63 68.3316 145.845 68.0798C146.06 67.8279 146.329 67.63 146.651 67.4861C146.973 67.3511 147.349 67.2792 147.779 67.2792C148.199 67.2792 148.557 67.3421 148.87 67.4681C149.175 67.594 149.434 67.7739 149.64 68.0168C149.846 68.2597 149.998 68.5565 150.097 68.9163C150.204 69.2672 150.249 69.681 150.249 70.1397ZM149.452 70.1937C149.452 69.8699 149.425 69.573 149.372 69.2942C149.318 69.0153 149.22 68.7724 149.085 68.5745C148.951 68.3676 148.781 68.2057 148.557 68.0978C148.333 67.9808 148.065 67.9268 147.734 67.9268C147.412 67.9268 147.134 67.9808 146.919 68.1068C146.696 68.2327 146.517 68.3946 146.373 68.6015C146.239 68.8084 146.141 69.0423 146.078 69.3211C146.024 69.591 145.988 69.8789 145.988 70.1847C145.988 70.5175 146.015 70.8234 146.069 71.1022C146.132 71.3811 146.221 71.624 146.355 71.8309C146.481 72.0378 146.66 72.1907 146.875 72.3076C147.098 72.4156 147.376 72.4786 147.707 72.4786C148.038 72.4786 148.307 72.4156 148.539 72.2896C148.763 72.1637 148.942 72.0018 149.076 71.7949C149.211 71.579 149.309 71.3361 149.372 71.0663C149.425 70.7874 149.452 70.4996 149.452 70.1937Z" fill="#9FA1A4"/>
<path d="M154.41 67.6849C154.41 67.7389 154.41 67.7929 154.401 67.8288C154.392 67.8738 154.383 67.9098 154.374 67.9278C154.356 67.9548 154.338 67.9728 154.32 67.9818C154.302 67.9998 154.285 67.9998 154.258 67.9998H152.19V69.9338H154.15C154.168 69.9338 154.186 69.9428 154.204 69.9518C154.222 69.9608 154.24 69.9788 154.258 70.0058C154.276 70.0237 154.285 70.0597 154.285 70.0957C154.293 70.1407 154.293 70.1857 154.293 70.2486C154.293 70.3026 154.293 70.3476 154.285 70.3926C154.285 70.4285 154.276 70.4645 154.258 70.4915C154.24 70.5095 154.222 70.5275 154.204 70.5455C154.186 70.5545 154.168 70.5635 154.15 70.5635H152.19V72.9293C152.19 72.9563 152.181 72.9743 152.172 72.9922C152.163 73.0102 152.136 73.0282 152.11 73.0372C152.083 73.0462 152.047 73.0552 151.993 73.0642C151.949 73.0732 151.886 73.0732 151.814 73.0732C151.743 73.0732 151.68 73.0732 151.635 73.0642C151.582 73.0552 151.546 73.0462 151.519 73.0372C151.492 73.0282 151.465 73.0102 151.456 72.9922C151.447 72.9743 151.438 72.9563 151.438 72.9293V67.6669C151.438 67.559 151.465 67.478 151.528 67.433C151.591 67.3881 151.653 67.3611 151.716 67.3611H154.258C154.285 67.3611 154.302 67.3701 154.32 67.3791C154.338 67.3881 154.356 67.4151 154.374 67.433C154.383 67.46 154.392 67.496 154.401 67.541C154.41 67.586 154.41 67.6309 154.41 67.6849Z" fill="#9FA1A4"/>
<path d="M160.612 71.4531C160.612 71.7139 160.568 71.9568 160.469 72.1637C160.371 72.3706 160.237 72.5505 160.066 72.6944C159.887 72.8384 159.682 72.9463 159.449 73.0183C159.216 73.0902 158.966 73.1262 158.688 73.1262C158.5 73.1262 158.33 73.1082 158.169 73.0813C158.008 73.0453 157.856 73.0093 157.73 72.9643C157.605 72.9193 157.498 72.8654 157.417 72.8204C157.328 72.7664 157.265 72.7214 157.238 72.6855C157.202 72.6585 157.176 72.6135 157.158 72.5595C157.149 72.5055 157.14 72.4246 157.14 72.3346C157.14 72.2717 157.14 72.2177 157.149 72.1817C157.149 72.1367 157.158 72.1007 157.176 72.0738C157.184 72.0468 157.202 72.0288 157.211 72.0198C157.229 72.0108 157.256 72.0018 157.274 72.0018C157.319 72.0018 157.372 72.0288 157.453 72.0828C157.525 72.1277 157.623 72.1817 157.739 72.2447C157.856 72.2986 157.99 72.3526 158.16 72.4066C158.321 72.4606 158.509 72.4786 158.724 72.4786C158.894 72.4786 159.037 72.4606 159.171 72.4156C159.315 72.3706 159.431 72.3076 159.529 72.2267C159.619 72.1457 159.699 72.0468 159.753 71.9298C159.807 71.8129 159.825 71.687 159.825 71.534C159.825 71.3721 159.789 71.2372 159.717 71.1202C159.646 71.0033 159.547 70.9043 159.431 70.8234C159.315 70.7334 159.171 70.6525 159.019 70.5805C158.867 70.5085 158.715 70.4366 158.554 70.3646C158.393 70.2927 158.241 70.2027 158.088 70.1127C157.936 70.0228 157.802 69.9148 157.677 69.7979C157.56 69.672 157.462 69.528 157.39 69.3661C157.31 69.1952 157.274 68.9973 157.274 68.7634C157.274 68.5295 157.319 68.3226 157.408 68.1337C157.489 67.9448 157.614 67.7919 157.766 67.666C157.918 67.54 158.097 67.4411 158.312 67.3781C158.518 67.3152 158.751 67.2792 158.992 67.2792C159.118 67.2792 159.243 67.2882 159.368 67.3152C159.503 67.3331 159.619 67.3601 159.726 67.3961C159.843 67.4321 159.941 67.4771 160.031 67.5221C160.12 67.567 160.174 67.603 160.201 67.63C160.228 67.657 160.245 67.684 160.254 67.702C160.263 67.711 160.272 67.7379 160.281 67.7559C160.281 67.7829 160.29 67.8099 160.29 67.8459C160.299 67.8819 160.299 67.9268 160.299 67.9808C160.299 68.0348 160.29 68.0888 160.29 68.1247C160.281 68.1697 160.281 68.2057 160.272 68.2327C160.263 68.2597 160.245 68.2777 160.237 68.2867C160.219 68.3047 160.201 68.3137 160.183 68.3137C160.147 68.3137 160.093 68.2867 160.031 68.2507C159.959 68.2057 159.879 68.1607 159.78 68.1068C159.682 68.0618 159.556 68.0168 159.422 67.9718C159.288 67.9268 159.136 67.9089 158.966 67.9089C158.813 67.9089 158.67 67.9268 158.554 67.9718C158.438 68.0168 158.348 68.0708 158.267 68.1427C158.196 68.2057 158.133 68.2957 158.097 68.3856C158.062 68.4846 158.044 68.5925 158.044 68.7005C158.044 68.8534 158.079 68.9883 158.151 69.1053C158.223 69.2222 158.321 69.3211 158.438 69.4111C158.563 69.4921 158.697 69.573 158.858 69.654C159.01 69.7259 159.162 69.7979 159.324 69.8699C159.485 69.9508 159.646 70.0318 159.798 70.1217C159.95 70.2027 160.093 70.3106 160.21 70.4366C160.335 70.5535 160.433 70.6975 160.505 70.8684C160.577 71.0303 160.612 71.2282 160.612 71.4531Z" fill="#9FA1A4"/>
<path d="M162.44 72.931C162.44 72.958 162.431 72.976 162.422 72.994C162.413 73.012 162.386 73.03 162.36 73.039C162.333 73.048 162.297 73.057 162.243 73.066C162.198 73.075 162.136 73.075 162.064 73.075C161.993 73.075 161.93 73.075 161.885 73.066C161.831 73.057 161.796 73.048 161.769 73.039C161.742 73.03 161.715 73.012 161.706 72.994C161.697 72.976 161.688 72.958 161.688 72.931V67.4797C161.688 67.4528 161.697 67.4348 161.706 67.4168C161.724 67.3988 161.742 67.3898 161.778 67.3718C161.805 67.3628 161.84 67.3538 161.894 67.3448C161.939 67.3448 161.993 67.3358 162.064 67.3358C162.136 67.3358 162.198 67.3448 162.243 67.3448C162.297 67.3538 162.333 67.3628 162.36 67.3718C162.386 67.3898 162.413 67.3988 162.422 67.4168C162.431 67.4348 162.44 67.4528 162.44 67.4797V72.931Z" fill="#9FA1A4"/>
<path d="M166.879 72.7151C166.879 72.7781 166.87 72.8231 166.87 72.868C166.861 72.904 166.853 72.94 166.835 72.967C166.826 72.994 166.808 73.012 166.79 73.03C166.772 73.0389 166.745 73.0479 166.727 73.0479H164.221C164.159 73.0479 164.096 73.021 164.033 72.976C163.971 72.931 163.944 72.859 163.944 72.7421V67.4797C163.944 67.4528 163.953 67.4348 163.962 67.4168C163.971 67.3988 163.997 67.3898 164.024 67.3718C164.051 67.3628 164.087 67.3538 164.141 67.3448C164.185 67.3448 164.248 67.3358 164.32 67.3358C164.391 67.3358 164.454 67.3448 164.499 67.3448C164.552 67.3538 164.588 67.3628 164.615 67.3718C164.642 67.3898 164.669 67.3988 164.678 67.4168C164.687 67.4348 164.696 67.4528 164.696 67.4797V72.3913H166.727C166.745 72.3913 166.772 72.4003 166.79 72.4093C166.808 72.4273 166.826 72.4452 166.835 72.4722C166.853 72.4992 166.861 72.5262 166.87 72.5712C166.87 72.6072 166.879 72.6611 166.879 72.7151Z" fill="#9FA1A4"/>
<path d="M169.388 70.8252C169.388 70.9421 169.379 71.0231 169.352 71.0681C169.326 71.113 169.29 71.131 169.236 71.131H167.41C167.357 71.131 167.321 71.113 167.294 71.0681C167.267 71.0141 167.258 70.9421 167.258 70.8252C167.258 70.7172 167.267 70.6363 167.294 70.6003C167.321 70.5553 167.357 70.5283 167.41 70.5283H169.236C169.263 70.5283 169.281 70.5373 169.299 70.5463C169.326 70.5553 169.335 70.5733 169.352 70.5913C169.361 70.6183 169.37 70.6543 169.379 70.6902C169.388 70.7262 169.388 70.7712 169.388 70.8252Z" fill="#9FA1A4"/>
<path d="M173.914 69.0252C173.914 69.3131 173.869 69.565 173.779 69.7989C173.681 70.0237 173.547 70.2216 173.377 70.3836C173.198 70.5455 172.992 70.6624 172.741 70.7524C172.481 70.8423 172.186 70.8873 171.837 70.8873H171.193V72.9293C171.193 72.9563 171.184 72.9743 171.175 72.9922C171.157 73.0102 171.139 73.0282 171.112 73.0372C171.085 73.0462 171.049 73.0552 170.996 73.0642C170.951 73.0732 170.888 73.0732 170.817 73.0732C170.745 73.0732 170.682 73.0732 170.638 73.0642C170.584 73.0552 170.548 73.0462 170.521 73.0372C170.494 73.0282 170.468 73.0102 170.459 72.9922C170.45 72.9743 170.441 72.9563 170.441 72.9293V67.6849C170.441 67.568 170.468 67.487 170.53 67.433C170.593 67.3881 170.665 67.3611 170.736 67.3611H171.944C172.07 67.3611 172.186 67.3701 172.302 67.3791C172.41 67.3881 172.544 67.4061 172.696 67.442C172.848 67.478 173.01 67.541 173.162 67.6309C173.323 67.7209 173.457 67.8378 173.573 67.9728C173.681 68.1077 173.761 68.2606 173.824 68.4405C173.887 68.6204 173.914 68.8094 173.914 69.0252ZM173.126 69.0882C173.126 68.8543 173.081 68.6654 172.992 68.5125C172.911 68.3506 172.804 68.2336 172.678 68.1617C172.553 68.0897 172.419 68.0357 172.285 68.0178C172.15 67.9998 172.016 67.9818 171.891 67.9818H171.193V70.2666H171.873C172.097 70.2666 172.285 70.2396 172.437 70.1767C172.589 70.1227 172.714 70.0417 172.813 69.9338C172.92 69.8258 172.992 69.7089 173.045 69.565C173.099 69.4121 173.126 69.2591 173.126 69.0882Z" fill="#9FA1A4"/>
<path d="M179.343 72.7277C179.343 72.7907 179.325 72.8357 179.307 72.8806C179.289 72.9166 179.262 72.9526 179.235 72.9796C179.2 73.0066 179.164 73.0246 179.128 73.0426C179.083 73.0516 179.047 73.0516 179.012 73.0516H178.761C178.68 73.0516 178.609 73.0516 178.555 73.0336C178.492 73.0156 178.439 72.9886 178.385 72.9436C178.331 72.8986 178.278 72.8447 178.233 72.7727C178.179 72.7007 178.117 72.6018 178.063 72.4848L176.335 69.2554C176.246 69.0935 176.156 68.9136 176.067 68.7337C175.968 68.5448 175.888 68.3739 175.807 68.194H175.798C175.807 68.4099 175.807 68.6258 175.807 68.8416C175.816 69.0665 175.816 69.2824 175.816 69.4983V72.9256C175.816 72.9526 175.807 72.9706 175.798 72.9886C175.789 73.0066 175.763 73.0246 175.736 73.0336C175.709 73.0426 175.664 73.0516 175.619 73.0606C175.575 73.0695 175.512 73.0695 175.44 73.0695C175.36 73.0695 175.306 73.0695 175.252 73.0606C175.208 73.0516 175.172 73.0426 175.145 73.0336C175.118 73.0246 175.091 73.0066 175.082 72.9886C175.073 72.9706 175.065 72.9526 175.065 72.9256V67.6812C175.065 67.5643 175.1 67.4833 175.163 67.4293C175.226 67.3844 175.306 67.3574 175.378 67.3574H175.754C175.834 67.3574 175.906 67.3664 175.968 67.3844C176.031 67.3934 176.076 67.4204 176.13 67.4563C176.174 67.4833 176.219 67.5373 176.264 67.5913C176.309 67.6542 176.353 67.7262 176.398 67.8162L177.723 70.3169C177.803 70.4698 177.884 70.6138 177.964 70.7577C178.036 70.9016 178.108 71.0456 178.179 71.1895C178.251 71.3334 178.322 71.4683 178.394 71.6033C178.457 71.7382 178.528 71.8731 178.6 72.0171C178.591 71.7832 178.591 71.5403 178.591 71.2884C178.591 71.0456 178.591 70.8027 178.591 70.5688V67.4833C178.591 67.4653 178.591 67.4473 178.609 67.4293C178.618 67.4114 178.636 67.3934 178.671 67.3844C178.698 67.3664 178.734 67.3574 178.779 67.3574C178.833 67.3484 178.895 67.3484 178.967 67.3484C179.038 67.3484 179.092 67.3484 179.146 67.3574C179.191 67.3574 179.235 67.3664 179.262 67.3844C179.289 67.3934 179.307 67.4114 179.316 67.4293C179.334 67.4473 179.343 67.4653 179.343 67.4833V72.7277Z" fill="#9FA1A4"/>
<path d="M185.093 68.1337C185.093 68.1877 185.084 68.2417 185.084 68.2777C185.075 68.3226 185.066 68.3586 185.058 68.3856C185.04 68.4126 185.031 68.4306 185.013 68.4486C184.995 68.4576 184.977 68.4666 184.95 68.4666C184.923 68.4666 184.861 68.4396 184.78 68.3766C184.7 68.3226 184.592 68.2597 184.449 68.1967C184.315 68.1247 184.154 68.0708 183.957 68.0078C183.769 67.9538 183.545 67.9268 183.276 67.9268C182.972 67.9268 182.686 67.9808 182.444 68.0978C182.193 68.2147 181.988 68.3676 181.809 68.5745C181.639 68.7724 181.504 69.0153 181.415 69.2942C181.325 69.573 181.281 69.8699 181.281 70.2027C181.281 70.5625 181.325 70.8864 181.433 71.1652C181.531 71.4441 181.665 71.687 181.844 71.8759C182.023 72.0738 182.238 72.2177 182.48 72.3166C182.73 72.4156 182.999 72.4696 183.294 72.4696C183.464 72.4696 183.643 72.4426 183.822 72.3976C184.001 72.3616 184.171 72.2986 184.324 72.2087V70.5535H183.017C182.963 70.5535 182.927 70.5265 182.901 70.4816C182.874 70.4276 182.865 70.3556 182.865 70.2477C182.865 70.1937 182.865 70.1397 182.874 70.1038C182.883 70.0678 182.892 70.0318 182.901 70.0048C182.918 69.9868 182.927 69.9688 182.945 69.9508C182.963 69.9418 182.99 69.9328 183.017 69.9328H184.807C184.843 69.9328 184.879 69.9418 184.905 69.9508C184.941 69.9688 184.968 69.9868 184.995 70.0048C185.022 70.0318 185.04 70.0588 185.058 70.1038C185.066 70.1397 185.075 70.1937 185.075 70.2387V72.4066C185.075 72.4876 185.066 72.5505 185.04 72.6045C185.013 72.6585 184.959 72.7124 184.87 72.7574C184.789 72.7934 184.682 72.8384 184.547 72.8923C184.413 72.9373 184.27 72.9823 184.127 73.0183C183.983 73.0543 183.84 73.0813 183.697 73.0992C183.554 73.1172 183.402 73.1262 183.259 73.1262C182.829 73.1262 182.435 73.0543 182.095 72.9193C181.746 72.7844 181.46 72.5865 181.218 72.3346C180.985 72.0828 180.797 71.7859 180.672 71.4351C180.547 71.0843 180.484 70.6885 180.484 70.2567C180.484 69.8069 180.556 69.3931 180.69 69.0333C180.824 68.6645 181.021 68.3496 181.263 68.0978C181.513 67.8369 181.809 67.639 182.149 67.4951C182.498 67.3511 182.883 67.2792 183.294 67.2792C183.509 67.2792 183.715 67.2972 183.903 67.3421C184.091 67.3781 184.261 67.4231 184.413 67.4771C184.556 67.5221 184.682 67.576 184.78 67.639C184.879 67.702 184.95 67.7469 184.986 67.7919C185.031 67.8279 185.058 67.8729 185.066 67.9179C185.084 67.9718 185.093 68.0438 185.093 68.1337Z" fill="#9FA1A4"/>
<path d="M45.377 49.1873C47.2054 49.1873 48.6877 47.6976 48.6877 45.86C48.6877 44.0223 47.2054 42.5326 45.377 42.5326C43.5486 42.5326 42.0663 44.0223 42.0663 45.86C42.0663 47.6976 43.5486 49.1873 45.377 49.1873Z" fill="white"/>
<path fill-rule="evenodd" clip-rule="evenodd" d="M49.7466 57.4148C49.7466 66.2181 42.6459 73.3547 33.8865 73.3547C25.1276 73.3547 18.0267 66.2181 18.0267 57.4148C18.0267 48.6113 25.1276 41.4747 33.8865 41.4747C42.6459 41.4747 49.7466 48.6113 49.7466 57.4148Z" fill="#DD1A5C"/>
<path fill-rule="evenodd" clip-rule="evenodd" d="M15.142 61.4283C15.142 62.8465 13.9982 63.9962 12.5872 63.9962C11.1761 63.9962 10.0322 62.8465 10.0322 61.4283C10.0322 60.0102 11.1761 58.8604 12.5872 58.8604C13.9982 58.8604 15.142 60.0102 15.142 61.4283Z" fill="#DD1A5C"/>
<path fill-rule="evenodd" clip-rule="evenodd" d="M8.3865 67.9981C8.3865 68.9619 7.60901 69.7433 6.64995 69.7433C5.69106 69.7433 4.91357 68.9619 4.91357 67.9981C4.91357 67.0341 5.69106 66.2528 6.64995 66.2528C7.60901 66.2528 8.3865 67.0341 8.3865 67.9981Z" fill="#DD1A5C"/>
<path fill-rule="evenodd" clip-rule="evenodd" d="M20.2701 71.6243C20.2701 73.7561 18.5505 75.4844 16.4292 75.4844C14.3081 75.4844 12.5885 73.7561 12.5885 71.6243C12.5885 69.4923 14.3081 67.764 16.4292 67.764C18.5505 67.764 20.2701 69.4923 20.2701 71.6243Z" fill="#DD1A5C"/>
<path fill-rule="evenodd" clip-rule="evenodd" d="M25.515 76.401C25.515 76.9075 25.1066 77.3179 24.6027 77.3179C24.0988 77.3179 23.6904 76.9075 23.6904 76.401C23.6904 75.8944 24.0988 75.484 24.6027 75.484C25.1066 75.484 25.515 75.8944 25.515 76.401Z" fill="#DD1A5C"/>
<path fill-rule="evenodd" clip-rule="evenodd" d="M8.56244 76.241C8.56244 76.739 8.16075 77.1427 7.66525 77.1427C7.16975 77.1427 6.76807 76.739 6.76807 76.241C6.76807 75.743 7.16975 75.3392 7.66525 75.3392C8.16075 75.3392 8.56244 75.743 8.56244 76.241Z" fill="#DD1A5C"/>
<path fill-rule="evenodd" clip-rule="evenodd" d="M72.7522 57.1754C72.7522 65.9787 65.6516 73.1154 56.8925 73.1154C48.1334 73.1154 41.0325 65.9787 41.0325 57.1754C41.0325 48.372 48.1334 41.2355 56.8925 41.2355C65.6516 41.2355 72.7522 48.372 72.7522 57.1754Z" fill="#24A8DF"/>
<path fill-rule="evenodd" clip-rule="evenodd" d="M49.9596 29.2552C49.9596 38.0587 42.8587 45.1951 34.0996 45.1951C25.3404 45.1951 18.2397 38.0587 18.2397 29.2552C18.2397 20.4519 25.3404 13.3153 34.0996 13.3153C42.8587 13.3153 49.9596 20.4519 49.9596 29.2552Z" fill="#FAAF2F"/>
<path fill-rule="evenodd" clip-rule="evenodd" d="M72.846 29.1136C72.846 37.9985 65.6795 45.2014 56.839 45.2014C47.9987 45.2014 40.832 37.9985 40.832 29.1136C40.832 20.2285 47.9987 13.0256 56.839 13.0256C65.6795 13.0256 72.846 20.2285 72.846 29.1136Z" fill="#88C53E"/>
<path fill-rule="evenodd" clip-rule="evenodd" d="M71.4102 9.63063C71.4102 11.0174 70.2915 12.1419 68.9115 12.1419C67.5315 12.1419 66.4129 11.0174 66.4129 9.63063C66.4129 8.24361 67.5315 7.11926 68.9115 7.11926C70.2915 7.11926 71.4102 8.24361 71.4102 9.63063Z" fill="#88C53E"/>
<path fill-rule="evenodd" clip-rule="evenodd" d="M79.8785 8.71627C79.8785 9.2228 79.4701 9.63326 78.9662 9.63326C78.4623 9.63326 78.0537 9.2228 78.0537 8.71627C78.0537 8.20984 78.4623 7.79932 78.9662 7.79932C79.4701 7.79932 79.8785 8.20984 79.8785 8.71627Z" fill="#88C53E"/>
<path fill-rule="evenodd" clip-rule="evenodd" d="M87.1751 14.6782C87.1751 15.7889 86.2791 16.6896 85.1737 16.6896C84.0685 16.6896 83.1724 15.7889 83.1724 14.6782C83.1724 13.5672 84.0685 12.6667 85.1737 12.6667C86.2791 12.6667 87.1751 13.5672 87.1751 14.6782Z" fill="#88C53E"/>
<path fill-rule="evenodd" clip-rule="evenodd" d="M81.1725 20.8049C81.1725 22.7815 79.5782 24.384 77.6114 24.384C75.6446 24.384 74.0503 22.7815 74.0503 20.8049C74.0503 18.8282 75.6446 17.2257 77.6114 17.2257C79.5782 17.2257 81.1725 18.8282 81.1725 20.8049Z" fill="#88C53E"/>
<path fill-rule="evenodd" clip-rule="evenodd" d="M81.0528 31.6002C81.0528 32.7437 80.1304 33.6707 78.9925 33.6707C77.8548 33.6707 76.9323 32.7437 76.9323 31.6002C76.9323 30.4566 77.8548 29.5297 78.9925 29.5297C80.1304 29.5297 81.0528 30.4566 81.0528 31.6002Z" fill="#88C53E"/>
<path fill-rule="evenodd" clip-rule="evenodd" d="M54.5592 32.0889C54.5592 37.38 50.3338 41.6693 45.121 41.6693C39.9081 41.6693 35.682 37.38 35.682 32.0889C35.682 26.7978 39.9081 22.5087 45.121 22.5087C50.3338 22.5087 54.5592 26.7978 54.5592 32.0889Z" fill="white"/>
<path fill-rule="evenodd" clip-rule="evenodd" d="M55.2292 55.6232V53.018C55.2292 51.1901 56.7037 49.7082 58.5224 49.7082V48.2287C58.5224 48.2287 58.5224 46.0903 56.4796 46.0903H33.8073C31.6534 46.0903 31.6285 48.3366 31.6285 48.3366V49.7082C33.4472 49.7082 34.9217 51.1901 34.9217 53.018V55.6232C34.9217 57.4511 33.4472 58.933 31.6285 58.933V60.4127C31.6534 62.551 33.7028 62.551 33.7028 62.551H56.4479C56.4479 62.551 58.5224 62.515 58.5224 60.4127V58.933C56.7037 58.933 55.2292 57.4511 55.2292 55.6232Z" fill="white"/>
<path fill-rule="evenodd" clip-rule="evenodd" d="M57.5602 48.7697C57.5602 49.2862 57.1437 49.7049 56.6298 49.7049C56.1159 49.7049 55.6995 49.2862 55.6995 48.7697C55.6995 48.2533 56.1159 47.8346 56.6298 47.8346C57.1437 47.8346 57.5602 48.2533 57.5602 48.7697Z" fill="#24A8DF"/>
<path fill-rule="evenodd" clip-rule="evenodd" d="M34.1259 55.4269C34.1259 56.9559 33.0071 58.1955 31.6273 58.1955C30.2472 58.1955 29.1287 56.9559 29.1287 55.4269V53.2477C29.1287 51.7187 30.2472 50.4792 31.6273 50.4792C33.0071 50.4792 34.1259 51.7187 34.1259 53.2477V55.4269Z" fill="white"/>
<path fill-rule="evenodd" clip-rule="evenodd" d="M61.0225 55.3765C61.0225 56.9055 59.9038 58.1451 58.524 58.1451C57.1438 58.1451 56.0253 56.9055 56.0253 55.3765V53.1973C56.0253 51.6683 57.1438 50.4288 58.524 50.4288C59.9038 50.4288 61.0225 51.6683 61.0225 53.1973V55.3765Z" fill="white"/>
<path fill-rule="evenodd" clip-rule="evenodd" d="M56.5448 45.1881C53.9959 42.184 49.8917 40.2343 45.2618 40.2343C40.6317 40.2343 36.5273 42.184 33.978 45.1881H56.5448Z" fill="white"/>
<g clip-path="url(#clip0)">
<path d="M377.241 86.84V75.5034H380.79C381.409 75.5034 381.988 75.5611 382.521 75.6765C383.054 75.7919 383.516 75.988 383.909 76.265C384.299 76.5419 384.602 76.9025 384.82 77.3496C385.038 77.7938 385.147 78.3476 385.147 79.0053C385.147 79.6284 385.038 80.1736 384.82 80.6351C384.602 81.0967 384.301 81.4803 383.917 81.789C383.533 82.0948 383.077 82.3198 382.556 82.464C382.034 82.6082 381.466 82.6803 380.859 82.6803H379.239V86.84H377.241ZM379.242 81.0678H380.707C382.361 81.0678 383.186 80.3813 383.186 79.0053C383.186 78.29 382.971 77.7938 382.541 77.5226C382.111 77.2515 381.475 77.1159 380.638 77.1159H379.242V81.0678Z" fill="#215EAC"/>
<path d="M388.025 87.0477C387.277 87.0477 386.675 86.8198 386.216 86.3641C385.758 85.9083 385.528 85.3025 385.528 84.5525C385.528 84.1025 385.623 83.7016 385.812 83.3468C386.001 82.9948 386.299 82.6919 386.709 82.4381C387.116 82.1843 387.632 81.9708 388.26 81.7977C388.885 81.6246 389.636 81.492 390.508 81.3996C390.496 81.1804 390.465 80.9698 390.413 80.7679C390.362 80.566 390.276 80.3871 390.155 80.2314C390.035 80.0756 389.877 79.9545 389.682 79.8679C389.487 79.7814 389.246 79.7381 388.96 79.7381C388.547 79.7381 388.143 79.8189 387.744 79.9804C387.349 80.142 386.962 80.3381 386.58 80.5689L385.858 79.2333C386.328 78.9333 386.858 78.6737 387.443 78.4545C388.028 78.2352 388.662 78.1256 389.338 78.1256C390.396 78.1256 391.184 78.44 391.706 79.0718C392.228 79.7006 392.489 80.6121 392.489 81.8035V86.8487H390.852L390.714 85.9112H390.645C390.267 86.2343 389.863 86.5054 389.43 86.7246C389 86.9381 388.533 87.0477 388.025 87.0477ZM388.664 85.4871C389.008 85.4871 389.321 85.4064 389.605 85.2448C389.886 85.0833 390.187 84.8525 390.508 84.5525V82.6458C389.934 82.715 389.45 82.8073 389.06 82.9227C388.67 83.0381 388.355 83.1679 388.111 83.3121C387.87 83.4564 387.698 83.6208 387.595 83.8054C387.492 83.99 387.44 84.1862 387.44 84.3939C387.44 84.7746 387.555 85.0516 387.784 85.2246C388.014 85.4006 388.306 85.4871 388.664 85.4871Z" fill="#215EAC"/>
<path d="M394.401 90.2035V78.3275H396.038L396.175 79.2304H396.244C396.599 78.9304 396.995 78.6708 397.434 78.4515C397.869 78.2323 398.322 78.1227 398.795 78.1227C399.323 78.1227 399.79 78.2236 400.2 78.4256C400.607 78.6275 400.954 78.9188 401.243 79.3025C401.53 79.6833 401.748 80.1419 401.897 80.6727C402.046 81.2035 402.121 81.8006 402.121 82.4583C402.121 83.1852 402.02 83.8371 401.82 84.4083C401.619 84.9794 401.352 85.4611 401.02 85.8477C400.687 86.2342 400.303 86.5313 399.865 86.739C399.429 86.9467 398.976 87.0506 398.503 87.0506C398.136 87.0506 397.769 86.9698 397.399 86.8083C397.032 86.6467 396.677 86.416 396.33 86.116L396.382 87.5381V90.2063H394.401V90.2035ZM398.087 85.4006C398.649 85.4006 399.122 85.1554 399.5 84.665C399.879 84.1746 400.068 83.4419 400.068 82.4727C400.068 81.6188 399.925 80.9525 399.638 80.4794C399.351 80.0063 398.887 79.7698 398.242 79.7698C397.646 79.7698 397.024 80.0871 396.382 80.7246V84.6938C396.691 84.9592 396.989 85.1438 397.276 85.2477C397.565 85.3486 397.835 85.4006 398.087 85.4006Z" fill="#215EAC"/>
<path d="M406.165 87.0476C405.257 87.0476 404.597 86.7563 404.185 86.1736C403.772 85.5909 403.565 84.7544 403.565 83.6697V78.3303H405.546V83.4101C405.546 84.114 405.649 84.613 405.856 84.9015C406.062 85.1899 406.395 85.3342 406.856 85.3342C407.223 85.3342 407.547 85.2419 407.831 85.0572C408.112 84.8726 408.413 84.5726 408.734 84.1572V78.3332H410.715V86.8457H409.095L408.94 85.5967H408.889C408.522 86.0351 408.123 86.3871 407.691 86.6553C407.258 86.9236 406.753 87.0476 406.165 87.0476Z" fill="#215EAC"/>
<path d="M414.814 87.0477C414.066 87.0477 413.464 86.8198 413.005 86.3641C412.547 85.9083 412.317 85.3025 412.317 84.5525C412.317 84.1025 412.412 83.7016 412.601 83.3468C412.79 82.9948 413.088 82.6919 413.498 82.4381C413.905 82.1843 414.421 81.9708 415.049 81.7977C415.674 81.6246 416.425 81.492 417.297 81.3996C417.285 81.1804 417.254 80.9698 417.202 80.7679C417.151 80.566 417.065 80.3871 416.944 80.2314C416.824 80.0756 416.666 79.9545 416.471 79.8679C416.276 79.7814 416.035 79.7381 415.749 79.7381C415.336 79.7381 414.932 79.8189 414.533 79.9804C414.138 80.142 413.751 80.3381 413.369 80.5689L412.647 79.2333C413.117 78.9333 413.647 78.6737 414.232 78.4545C414.817 78.2352 415.451 78.1256 416.127 78.1256C417.185 78.1256 417.973 78.44 418.495 79.0718C419.017 79.7006 419.278 80.6121 419.278 81.8035V86.8487H417.641L417.503 85.9112H417.434C417.056 86.2343 416.652 86.5054 416.219 86.7246C415.786 86.9439 415.319 87.0477 414.814 87.0477ZM415.453 85.4871C415.797 85.4871 416.11 85.4064 416.394 85.2448C416.675 85.0833 416.976 84.8525 417.297 84.5525V82.6458C416.723 82.715 416.239 82.8073 415.849 82.9227C415.459 83.0381 415.144 83.1679 414.9 83.3121C414.659 83.4564 414.487 83.6208 414.384 83.8054C414.281 83.99 414.229 84.1862 414.229 84.3939C414.229 84.7746 414.344 85.0516 414.573 85.2246C414.803 85.4006 415.095 85.4871 415.453 85.4871Z" fill="#215EAC"/>
<path d="M424.34 86.84V75.5034H426.39L429.904 81.8842L431.06 84.2928H431.128C431.083 83.7044 431.028 83.0698 430.965 82.3948C430.902 81.7198 430.87 81.0621 430.87 80.4275V75.5034H432.782V86.84H430.733L427.218 80.4592L426.063 78.0505H425.994C426.04 78.6505 426.095 79.2823 426.158 79.94C426.221 80.5977 426.252 81.2467 426.252 81.8813V86.84H424.34V86.84Z" fill="#215EAC"/>
<path d="M438.622 87.0476C438.037 87.0476 437.49 86.9467 436.985 86.7447C436.48 86.5428 436.036 86.2515 435.658 85.8678C435.279 85.4871 434.984 85.0226 434.772 84.4717C434.56 83.9236 434.454 83.2947 434.454 82.5909C434.454 81.8986 434.563 81.2726 434.781 80.7188C434.998 80.1649 435.288 79.6948 435.649 79.314C436.01 78.9332 436.426 78.639 436.899 78.4313C437.369 78.2236 437.854 78.1198 438.347 78.1198C438.92 78.1198 439.427 78.2178 439.863 78.414C440.299 78.6101 440.663 78.8871 440.958 79.2448C441.251 79.6024 441.471 80.0294 441.62 80.5284C441.769 81.0246 441.844 81.5697 441.844 82.1582C441.844 82.3544 441.835 82.539 441.818 82.7121C441.801 82.8851 441.781 83.0236 441.758 83.1274H436.383C436.475 83.889 436.741 84.4774 437.183 84.8871C437.624 85.2967 438.192 85.5015 438.88 85.5015C439.247 85.5015 439.588 85.4467 439.906 85.3371C440.221 85.2274 440.534 85.0746 440.844 84.8784L441.514 86.1274C441.113 86.3928 440.663 86.6121 440.17 86.7851C439.68 86.9611 439.164 87.0476 438.622 87.0476ZM436.366 81.7774H440.121C440.121 81.1198 439.981 80.6005 439.7 80.2255C439.419 79.8505 438.986 79.663 438.398 79.663C437.894 79.663 437.449 79.8419 437.071 80.1996C436.693 80.5601 436.458 81.0851 436.366 81.7774Z" fill="#215EAC"/>
<path d="M444.671 86.84L442.432 78.3275H444.43L445.447 82.7467C445.539 83.1506 445.617 83.5544 445.68 83.9612C445.743 84.365 445.814 84.7746 445.895 85.1929H445.963C446.044 84.7775 446.127 84.3679 446.213 83.9612C446.299 83.5573 446.393 83.1535 446.497 82.7467L447.6 78.3275H449.409L450.53 82.7467C450.633 83.1506 450.731 83.5544 450.822 83.9612C450.914 84.365 451.006 84.7746 451.098 85.1929H451.166C451.247 84.7775 451.321 84.3679 451.39 83.9612C451.459 83.5573 451.533 83.1535 451.614 82.7467L452.631 78.3275H454.492L452.339 86.84H449.98L448.996 82.8708C448.905 82.4669 448.819 82.066 448.738 81.665C448.658 81.2669 448.572 80.8429 448.48 80.39H448.412C448.331 80.84 448.251 81.2669 448.171 81.6737C448.09 82.0775 448.004 82.4814 447.913 82.8881L446.947 86.84H444.671V86.84Z" fill="#215EAC"/>
<path d="M463.568 87.0477C462.811 87.0477 462.106 86.9208 461.458 86.6669C460.81 86.4131 460.245 86.0381 459.769 85.539C459.293 85.0429 458.921 84.4285 458.657 83.7015C458.393 82.9746 458.261 82.141 458.261 81.2064C458.261 80.2833 458.399 79.4525 458.674 78.7198C458.949 77.9871 459.325 77.364 459.804 76.8564C460.28 76.3487 460.844 75.9621 461.492 75.6939C462.14 75.4285 462.839 75.2958 463.585 75.2958C464.387 75.2958 465.07 75.4429 465.626 75.7371C466.182 76.0314 466.641 76.3631 466.996 76.7352L465.927 78.0362C465.64 77.7592 465.322 77.5256 464.969 77.3352C464.62 77.1448 464.181 77.0496 463.651 77.0496C463.146 77.0496 462.688 77.1448 462.28 77.3352C461.873 77.5256 461.524 77.7967 461.228 78.1487C460.936 78.5006 460.71 78.9304 460.549 79.441C460.388 79.9487 460.308 80.5227 460.308 81.1573C460.308 82.4525 460.598 83.465 461.18 84.2006C461.759 84.9333 462.619 85.3025 463.754 85.3025C464.075 85.3025 464.379 85.2592 464.668 85.1727C464.955 85.0862 465.19 84.9621 465.374 84.8006V82.3573H463.238V80.7102H467.165V85.7035C466.787 86.0842 466.282 86.4044 465.657 86.6669C465.035 86.9179 464.336 87.0477 463.568 87.0477Z" fill="#215EAC"/>
<path d="M471.543 87.0476C470.634 87.0476 469.975 86.7563 469.562 86.1736C469.149 85.5909 468.943 84.7544 468.943 83.6697V78.3303H470.923V83.4101C470.923 84.114 471.027 84.613 471.233 84.9015C471.439 85.1899 471.772 85.3342 472.234 85.3342C472.6 85.3342 472.924 85.2419 473.208 85.0572C473.489 84.8726 473.79 84.5726 474.111 84.1572V78.3332H476.092V86.8457H474.472L474.318 85.5967H474.266C473.899 86.0351 473.501 86.3871 473.068 86.6553C472.638 86.9149 472.13 87.0476 471.543 87.0476Z" fill="#215EAC"/>
<path d="M479.142 76.8362C478.787 76.8362 478.494 76.7323 478.262 76.5246C478.033 76.3169 477.918 76.0458 477.918 75.7112C477.918 75.3765 478.033 75.1025 478.262 74.889C478.491 74.6756 478.784 74.5688 479.142 74.5688C479.498 74.5688 479.79 74.6756 480.019 74.889C480.249 75.1025 480.363 75.3765 480.363 75.7112C480.363 76.0458 480.249 76.3169 480.019 76.5246C479.79 76.7323 479.498 76.8362 479.142 76.8362ZM478.142 86.84V78.3275H480.123V86.84H478.142Z" fill="#215EAC"/>
<path d="M482.189 86.84V78.3274H483.826L483.964 79.4726H484.033C484.411 79.1034 484.821 78.7861 485.265 78.5178C485.707 78.2524 486.223 78.1198 486.808 78.1198C487.714 78.1198 488.376 78.4111 488.789 78.9967C489.201 79.5794 489.408 80.4159 489.408 81.5005V86.84H487.427V81.7601C487.427 81.0563 487.324 80.5573 487.117 80.2688C486.911 79.9803 486.573 79.8361 486.1 79.8361C485.733 79.8361 485.409 79.9255 485.125 80.1044C484.844 80.2832 484.526 80.5457 484.167 80.8919V86.8371H482.189V86.84Z" fill="#215EAC"/>
<path d="M494.989 87.0476C494.404 87.0476 493.857 86.9467 493.352 86.7447C492.848 86.5428 492.403 86.2515 492.025 85.8678C491.647 85.4842 491.351 85.0226 491.139 84.4717C490.927 83.9236 490.821 83.2947 490.821 82.5909C490.821 81.8986 490.93 81.2726 491.148 80.7188C491.366 80.1649 491.655 79.6948 492.016 79.314C492.378 78.9332 492.793 78.639 493.266 78.4313C493.736 78.2236 494.221 78.1198 494.714 78.1198C495.287 78.1198 495.795 78.2178 496.23 78.414C496.666 78.6101 497.03 78.8871 497.325 79.2448C497.618 79.6024 497.839 80.0294 497.988 80.5284C498.137 81.0246 498.211 81.5697 498.211 82.1582C498.211 82.3544 498.203 82.539 498.185 82.7121C498.168 82.8851 498.148 83.0236 498.125 83.1274H492.75C492.842 83.889 493.109 84.4774 493.55 84.8871C493.992 85.2967 494.559 85.5015 495.247 85.5015C495.614 85.5015 495.955 85.4467 496.273 85.3371C496.589 85.2274 496.901 85.0746 497.211 84.8784L497.882 86.1274C497.48 86.3928 497.03 86.6121 496.537 86.7851C496.047 86.9611 495.531 87.0476 494.989 87.0476ZM492.733 81.7774H496.488C496.488 81.1198 496.348 80.6005 496.067 80.2255C495.786 79.8505 495.353 79.663 494.766 79.663C494.261 79.663 493.817 79.8419 493.438 80.1996C493.06 80.5601 492.825 81.0851 492.733 81.7774Z" fill="#215EAC"/>
<path d="M501.485 87.0477C500.737 87.0477 500.135 86.8198 499.676 86.3641C499.217 85.9083 498.988 85.3025 498.988 84.5525C498.988 84.1025 499.083 83.7016 499.272 83.3468C499.461 82.9948 499.759 82.6919 500.169 82.4381C500.576 82.1843 501.092 81.9708 501.72 81.7977C502.345 81.6246 503.096 81.492 503.967 81.3996C503.956 81.1804 503.924 80.9698 503.873 80.7679C503.821 80.566 503.735 80.3871 503.615 80.2314C503.494 80.0756 503.337 79.9545 503.142 79.8679C502.947 79.7814 502.706 79.7381 502.419 79.7381C502.007 79.7381 501.602 79.8189 501.204 79.9804C500.808 80.142 500.421 80.3381 500.04 80.5689L499.318 79.2333C499.788 78.9333 500.318 78.6737 500.903 78.4545C501.488 78.2352 502.121 78.1256 502.798 78.1256C503.856 78.1256 504.644 78.44 505.166 79.0718C505.687 79.7006 505.948 80.6121 505.948 81.8035V86.8487H504.311L504.174 85.9112H504.105C503.727 86.2343 503.322 86.5054 502.89 86.7246C502.46 86.9381 501.989 87.0477 501.485 87.0477ZM502.121 85.4871C502.465 85.4871 502.778 85.4064 503.062 85.2448C503.343 85.0833 503.644 84.8525 503.965 84.5525V82.6458C503.391 82.715 502.907 82.8073 502.517 82.9227C502.127 83.0381 501.812 83.1679 501.568 83.3121C501.327 83.4564 501.155 83.6208 501.052 83.8054C500.949 83.99 500.897 84.1862 500.897 84.3939C500.897 84.7746 501.012 85.0516 501.241 85.2246C501.473 85.4006 501.766 85.4871 502.121 85.4871Z" fill="#215EAC"/>
<path d="M451.244 47.3267H447.99V52.5738H451.244V47.3267Z" fill="#215EAC"/>
<path d="M438.788 0.287231H430.948H377.241V24.3276V41.7969V69.9565H438.863V0.287231H438.788Z" fill="#0EA5DF"/>
<path d="M425.705 26.1361C425.705 25.6111 425.708 25.0256 425.642 24.5063C425.507 23.4275 425.381 22.4006 425.149 21.3419C424.704 19.3169 423.856 17.4996 422.256 16.1092C421.614 15.5525 420.9 15.1169 420.118 14.7996C419.166 14.4102 418.165 14.2486 417.145 14.139C415.829 14.0006 414.545 14.1506 413.292 14.5169C411.555 15.0217 409.955 15.8467 408.51 16.94C407.57 17.6525 406.633 18.3852 405.781 19.1986C405.119 19.8304 404.592 20.6035 404.001 21.3102C403.927 21.3996 403.844 21.4833 403.715 21.6217C403.686 21.2813 403.643 21.0217 403.643 20.7621C403.646 20.0352 403.643 19.314 403.416 18.6102C403.09 17.6034 402.516 16.7842 401.527 16.3948C400.335 15.9275 399.102 15.9852 397.904 16.4381C397.041 16.7669 396.31 17.2429 395.808 17.9669C395.734 18.0736 395.711 18.1054 395.676 18.1717C395.602 18.3217 395.851 18.3881 395.974 18.4313C398.933 19.4669 400.962 21.6044 400.962 24.0708C400.962 26.0121 399.704 27.7515 397.726 28.9083C397.485 29.0496 396.969 29.2458 396.969 29.9929C396.969 30.74 396.984 34.1381 397.029 36.5554C397.044 37.3285 397.049 38.1102 397.216 38.866C397.419 39.7919 398.133 40.4236 399.007 40.7871C399.738 41.09 400.507 41.1592 401.286 41.1592C403.97 41.1621 406.653 41.1592 409.336 41.1592C409.399 41.1592 409.462 41.1563 409.525 41.1592C409.683 41.1621 409.757 41.0929 409.757 40.9313C409.755 40.6313 409.755 40.3313 409.757 40.0313C409.76 39.8554 409.677 39.7919 409.511 39.7861C409.095 39.7746 408.68 39.7775 408.27 39.7285C407.53 39.6419 406.779 39.5785 406.057 39.4083C404.901 39.1342 404.205 38.3323 403.987 37.1785C403.841 36.3996 403.772 35.5948 403.757 34.8015C403.714 32.4852 403.706 30.1688 403.7 27.8496C403.697 26.4419 403.723 25.0342 403.749 23.6265C403.752 23.4996 403.821 23.341 403.912 23.2515C404.331 22.8419 404.761 22.4381 405.202 22.0515C406.272 21.1256 407.415 20.2977 408.711 19.7208C409.425 19.4034 410.165 19.1236 410.918 18.9246C411.942 18.6535 412.994 18.5785 414.057 18.6765C414.731 18.74 415.382 18.8698 415.987 19.1583C417.254 19.764 417.962 20.8371 418.372 22.1438C418.839 23.641 418.954 25.1958 418.954 26.7419C418.959 36.1313 418.934 45.5208 418.922 54.9131C418.922 56.0035 418.919 57.0938 418.744 58.1727C418.598 59.0698 418.383 59.9438 417.979 60.7717C417.411 61.9313 416.497 62.5256 415.221 62.5198C414.485 62.5169 413.782 62.2919 413.192 61.8563C412.358 61.2419 411.575 60.5583 410.761 59.9179C410.061 59.3669 409.33 58.8736 408.442 58.6833C407.023 58.3804 405.73 58.539 404.695 59.69C404.127 60.3217 403.835 61.0573 403.958 61.9054C404.047 62.5227 404.385 63.0448 404.81 63.4862C405.647 64.3544 406.713 64.8102 407.851 65.1102C409.304 65.491 410.784 65.5631 412.28 65.4477C413.762 65.3352 415.207 65.064 416.609 64.5563C418.997 63.6967 420.94 62.2371 422.448 60.1919C423.517 58.741 424.263 57.1256 424.787 55.4035C425.372 53.4736 425.69 51.4948 425.696 49.4785C425.719 41.7015 425.708 33.9188 425.705 26.1361Z" fill="#68B7E6"/>
<path d="M399.819 24.0652C399.819 21.9623 397.998 20.145 395.364 19.2911C395.218 19.245 394.954 19.144 394.725 19.2248C394.676 19.2421 394.584 19.2738 394.415 19.3315C393.354 19.7008 392.291 20.0642 391.227 20.4277C391.001 20.5056 390.774 20.5834 390.545 20.6613C390.436 20.6959 390.462 20.7133 390.545 20.7479C390.631 20.7825 390.671 20.7998 390.737 20.8229C391.649 21.1431 392.557 21.469 393.472 21.7806C395.069 22.3258 396.101 23.3902 396.554 25.0402C396.748 25.7527 396.86 26.4767 396.918 27.2036C396.941 27.5152 396.961 27.6709 396.961 27.8267C396.961 28.2998 397.614 27.7488 397.904 27.5267C399.096 26.6008 399.819 25.3892 399.819 24.0652Z" fill="#68B7E6"/>
<path d="M418.962 13.0257C418.561 12.9391 418.16 12.8382 417.753 12.7689C415.537 12.3824 413.415 12.7487 411.374 13.6314C409.445 14.4651 407.762 15.6824 406.2 17.0814C405.647 17.5776 405.102 18.0824 404.552 18.5814C404.509 18.6218 404.451 18.6478 404.345 18.7228C404.314 18.2439 404.276 17.8141 404.259 17.3843C404.182 15.4862 404.345 13.6084 404.775 11.7593C405.24 9.76605 406.134 8.00932 407.668 6.62182C408.969 5.4449 410.474 4.61701 412.105 3.99971C412.306 3.92471 412.509 3.85836 412.747 3.8324C412.687 3.91605 412.627 3.99971 412.564 4.08047C411.515 5.44778 410.732 6.95932 410.256 8.61509C410.027 9.41124 409.935 10.2362 410.104 11.0699C410.179 11.4334 410.179 11.4276 410.52 11.3035C412.762 10.4785 414.983 10.4526 417.128 11.5978C417.727 11.918 418.248 12.3853 418.802 12.792C418.871 12.8439 418.925 12.9189 418.985 12.9824C418.979 12.9939 418.971 13.0084 418.962 13.0257Z" fill="#68B7E6"/>
<path d="M505.874 0.284424H444.203V69.9912H505.874V0.284424Z" fill="white"/>
<path d="M484.916 52.6719V25.5825L490.574 25.5796V47.3123L505.877 47.3267V0.284424H444.203V47.3296L459.617 47.3238C462.819 47.3238 463.516 46.0229 463.542 44.9325C463.591 42.6969 462.384 41.8056 460.056 40.2854C455.69 37.6085 455.039 34.4844 455.039 32.8604C455.039 27.3219 459.233 24.844 463.387 24.844C465.03 24.844 467.764 25.4902 468.748 25.9287L467.807 30.9479C467.059 30.5354 466.007 30.1113 464.614 30.1113C462.071 30.1113 461.165 31.4123 461.165 32.6296C461.165 34.5277 462.08 35.171 464.967 36.919C468.16 38.869 469.78 41.4392 469.78 44.5517C469.78 49.3402 466.271 52.5652 461.054 52.5767L444.209 52.5825V69.9969H505.88V52.6777H484.916V52.6719ZM479.409 52.6719H474.103V25.5998H479.409V52.6719Z" fill="#215EAC"/>
<path d="M501.846 64.1066C502.884 64.1066 503.704 64.92 503.704 65.9527C503.704 67.0085 502.884 67.822 501.835 67.822C500.785 67.822 499.951 67.0085 499.951 65.9527C499.951 64.92 500.783 64.1066 501.835 64.1066H501.846V64.1066ZM501.823 64.4325C500.992 64.4325 500.355 65.1191 500.355 65.9556C500.355 66.8152 500.992 67.4902 501.846 67.4902C502.677 67.5018 503.288 66.8152 503.288 65.9671C503.288 65.1191 502.675 64.4325 501.835 64.4325H501.823ZM501.499 66.9768H501.141V65.0354C501.336 65.0008 501.545 64.9777 501.812 64.9777C502.136 64.9777 502.296 65.0354 502.422 65.1277C502.537 65.2085 502.617 65.3614 502.617 65.5345C502.617 65.7796 502.445 65.9296 502.236 65.9989V66.022C502.408 66.0912 502.503 66.2441 502.56 66.4864C502.617 66.7893 502.652 66.9046 502.698 66.9739H502.328C502.27 66.9046 502.225 66.7287 502.179 66.4633C502.133 66.2527 502.007 66.1604 501.729 66.1604H501.496V66.9768H501.499ZM501.499 65.8835H501.743C502.01 65.8835 502.239 65.8027 502.239 65.5691C502.239 65.3845 502.124 65.2546 501.777 65.2546C501.64 65.2546 501.557 65.2662 501.499 65.2777V65.8835Z" fill="white"/>
</g>
<defs>
<clipPath id="clip0">
<rect width="129" height="90" fill="white" transform="translate(377 0.230469)"/>
</clipPath>
</defs>
</svg>
