<svg width="52" height="71" viewBox="0 0 52 71" fill="none" xmlns="http://www.w3.org/2000/svg">
<rect x="1.26746" y="0.519997" width="49.4651" height="69" fill="#98D0B9"/>
<rect x="1.26746" y="0.519997" width="49.4651" height="69" stroke="black" stroke-dasharray="8 2"/>
<path d="M23.525 37.018H23.4622C19.8514 36.9756 16.7588 34.3644 16.1088 30.8095C15.855 29.4226 16.0097 28.0461 16.4803 26.801C16.3116 26.862 16.1422 26.9223 15.9807 26.9995C15.943 27.0174 15.9071 27.0386 15.8701 27.0572C15.6756 27.1556 15.4875 27.2658 15.3055 27.386C15.2657 27.4126 15.224 27.4366 15.1846 27.4643C14.9857 27.6032 14.7955 27.7564 14.6149 27.9215C14.5765 27.9578 14.5399 27.9951 14.5022 28.0314C14.3407 28.1882 14.1874 28.3541 14.0446 28.5307C14.0234 28.5565 14.0004 28.5802 13.98 28.6064C13.8267 28.8034 13.6889 29.0156 13.5615 29.2356C13.5317 29.2869 13.504 29.339 13.4764 29.3907C13.3529 29.6211 13.2391 29.858 13.1469 30.1092C12.0881 33.0011 13.573 36.2039 16.4649 37.2645C16.8945 37.4218 17.331 37.5165 17.7667 37.5646L19.3952 41.0753L21.4971 41.8459L20.7268 43.9471L20.7415 43.9791L22.8431 44.749L22.0732 46.8509L22.0879 46.8821L24.1898 47.6524L23.492 49.559L27.1305 50.8928L28.5354 47.0562L26.6198 42.9181L23.8761 37.0068C23.7587 37.0122 23.6417 37.018 23.525 37.018Z" fill="black"/>
<path d="M42.1626 38.3123L37.8989 35.3651L29.8767 29.8242C29.9069 29.3275 29.8843 28.821 29.7913 28.3092C29.754 28.105 29.7059 27.905 29.6499 27.7098C29.6316 27.6459 29.6093 27.5841 29.5882 27.5217C29.5476 27.391 29.5049 27.2622 29.4561 27.1366C29.4277 27.0641 29.3951 26.9951 29.3653 26.9251C29.3157 26.8124 29.2666 26.7001 29.2106 26.5917C29.174 26.5199 29.1359 26.4503 29.0975 26.3806C29.0408 26.2776 28.9816 26.1757 28.9187 26.0763C28.8753 26.0081 28.8322 25.9417 28.7859 25.8749C28.7206 25.7784 28.6521 25.6843 28.581 25.5924C28.5329 25.5296 28.4844 25.4668 28.4356 25.4065C28.3585 25.315 28.2784 25.2263 28.1966 25.1387C28.146 25.0842 28.0972 25.0289 28.0444 24.9765C27.9518 24.8835 27.8556 24.796 27.7565 24.7095C27.7102 24.6685 27.6672 24.6248 27.6187 24.5856C27.4715 24.4618 27.3194 24.3448 27.1614 24.2357C27.1532 24.2303 27.1446 24.2256 27.1363 24.2202C26.9855 24.1172 26.8305 24.0214 26.6718 23.9313C26.6166 23.9001 26.5588 23.8721 26.5017 23.8423C26.3876 23.7823 26.2738 23.7235 26.1553 23.6704C26.0879 23.6402 26.0175 23.6133 25.9482 23.5849C25.8384 23.5401 25.7286 23.4966 25.6159 23.4575C25.5412 23.4317 25.4658 23.4087 25.3897 23.3857C25.2781 23.3516 25.1661 23.3211 25.0531 23.2935C25.0455 23.2917 25.0376 23.2906 25.0301 23.2881C24.9443 25.5734 24.0287 27.7338 22.3819 29.381C22.0319 29.7316 21.5664 29.924 21.0718 29.924C20.5768 29.924 20.1116 29.7316 19.7613 29.381C19.0392 28.6588 19.0392 27.4829 19.7613 26.7604C20.6465 25.8756 21.1748 24.7439 21.308 23.5329C18.504 24.5957 16.766 27.5317 17.3249 30.5863C17.8791 33.6178 20.5072 35.747 23.4777 35.7821C23.6145 35.7839 23.7526 35.7771 23.8912 35.7707C23.9562 35.7667 24.0204 35.7667 24.0854 35.7624C24.2889 35.7448 24.4931 35.719 24.6981 35.6813C25.2096 35.5876 25.6923 35.4297 26.1467 35.2251L29.7648 37.725L32.2679 37.2678L32.7256 39.7702L32.7568 39.7928L35.26 39.3352L35.7158 41.8377L35.7485 41.8599L38.251 41.4027L38.667 43.6718L43 42.8789L42.1626 38.3123Z" fill="black"/>
<path d="M20.6339 27.634C20.3927 27.8752 20.3927 28.2661 20.6339 28.5073C20.7545 28.6283 20.9124 28.6882 21.0707 28.6882C21.2286 28.6882 21.3865 28.6283 21.5075 28.5073C23.3273 26.6872 24.0649 24.1965 23.7386 21.8247C23.5114 20.1736 22.7738 18.5807 21.5079 17.3148C19.9648 15.7713 17.9379 15 15.9114 15C15.4534 15 14.9968 15.0449 14.5446 15.1238C14.4965 15.1321 14.447 15.1353 14.3989 15.1443C14.2847 15.1665 14.1724 15.2003 14.0593 15.2276C13.9247 15.2595 13.7894 15.2864 13.6566 15.3256C13.6361 15.3317 13.6157 15.3406 13.5959 15.3467C12.7295 15.6105 11.9028 16.0316 11.152 16.5983C10.8612 16.8173 10.5787 17.0506 10.3146 17.3151C7.22848 20.4008 7.22848 25.4219 10.3146 28.508C10.8103 29.0037 11.3659 29.4233 11.9624 29.7664C11.9718 29.7399 11.9775 29.713 11.9872 29.686C12.0902 29.4046 12.218 29.125 12.3975 28.7909C12.4251 28.7388 12.4531 28.6879 12.4811 28.6387C12.0141 28.3602 11.5787 28.026 11.1875 27.6344C8.5838 25.0307 8.5838 20.7924 11.1875 18.1884C11.5812 17.7946 12.0159 17.468 12.4728 17.1927C12.7076 17.052 12.9506 16.9321 13.1975 16.8227C13.2578 16.7957 13.3174 16.7699 13.3777 16.7455C13.6239 16.6443 13.8734 16.5542 14.1275 16.4838C14.1498 16.4777 14.1724 16.4738 14.1943 16.4687C14.4326 16.4052 14.6738 16.3582 14.9164 16.3216C14.9792 16.3123 15.0417 16.3029 15.1045 16.295C15.364 16.2634 15.6246 16.2437 15.8855 16.2426C15.8949 16.2426 15.9039 16.2408 15.9132 16.2408C16.0309 16.2408 16.1476 16.2487 16.2649 16.2555C16.3249 16.2584 16.3845 16.2581 16.4444 16.2627C16.6332 16.2778 16.8224 16.3001 17.0101 16.3309C18.0499 16.5032 19.0542 16.9221 19.9325 17.5865C20.1759 17.7706 20.4128 17.9662 20.6346 18.1877C21.6798 19.2329 22.2979 20.5423 22.5039 21.9033C22.8111 23.9317 22.1927 26.0745 20.6339 27.634Z" fill="black"/>
</svg>
