<svg width="659" height="360" viewBox="0 0 659 360" fill="none" xmlns="http://www.w3.org/2000/svg">
<path d="M319.735 167.16C322.957 167.154 326.147 166.337 329.122 164.754C332.096 163.171 334.797 160.855 337.071 157.936C339.345 155.017 341.146 151.553 342.373 147.743C343.6 143.932 344.227 139.849 344.22 135.727C344.213 131.605 343.571 127.524 342.331 123.718C341.091 119.912 339.277 116.454 336.994 113.544C334.71 110.633 332 108.325 329.02 106.753C326.04 105.181 322.848 104.374 319.625 104.38C316.403 104.386 313.213 105.203 310.238 106.786C307.264 108.368 304.562 110.685 302.289 113.604C300.015 116.523 298.214 119.986 296.987 123.797C295.76 127.608 295.133 131.691 295.14 135.813C295.147 139.935 295.789 144.016 297.029 147.822C298.269 151.628 300.082 155.085 302.366 157.996C304.65 160.907 307.359 163.215 310.34 164.787C313.32 166.359 316.512 167.166 319.735 167.16Z" stroke="#70671D" stroke-width="2"/>
<path d="M204.56 109.69C189.76 98.0798 170.24 106.91 165.61 124.09C162.15 136.93 164.36 154.22 175.84 162.67C186.41 170.46 203.4 167.82 210.47 156.44C218.99 142.73 218.21 120.39 204.56 109.69Z" stroke="#26532A" stroke-width="2"/>
<path d="M442.831 167.473C449.789 167.328 456.392 163.863 461.188 157.843C465.984 151.823 468.58 143.739 468.404 135.371C468.229 127.002 465.297 119.035 460.253 113.22C455.209 107.406 448.467 104.221 441.509 104.367C434.551 104.513 427.948 107.977 423.152 113.997C418.356 120.018 415.761 128.101 415.936 136.47C416.111 144.838 419.043 152.806 424.087 158.62C429.131 164.434 435.873 167.619 442.831 167.473Z" stroke="#5E1519" stroke-width="2"/>
<path d="M194.25 141.42C194.287 141.339 194.347 141.272 194.423 141.225C194.499 141.178 194.586 141.155 194.675 141.159C194.764 141.162 194.85 141.191 194.922 141.243C194.994 141.295 195.049 141.367 195.08 141.45C197.02 146.437 200.66 149.23 206 149.83C206.42 149.877 206.643 149.69 206.67 149.27L207.01 144.52C207.014 144.457 207.006 144.395 206.985 144.336C206.964 144.276 206.932 144.222 206.89 144.175C206.848 144.129 206.798 144.091 206.741 144.064C206.684 144.038 206.623 144.023 206.56 144.02C193.53 143.6 194.51 127.68 206.16 125.93C206.56 125.87 206.76 125.637 206.76 125.23L206.74 120.65C206.74 120.297 206.56 120.13 206.2 120.15C200.373 120.51 196.51 123.383 194.61 128.77C194.579 128.861 194.521 128.94 194.444 128.997C194.366 129.054 194.273 129.086 194.176 129.09C194.08 129.093 193.983 129.067 193.9 129.015C193.817 128.964 193.751 128.889 193.71 128.8C191.51 123.84 186.69 121.06 181.34 122.35C168.25 125.48 171.26 149.69 185.98 147.94C189.72 147.493 192.477 145.32 194.25 141.42Z" stroke="#26532A" stroke-width="2"/>
<path d="M319.58 112.05C319.615 111.931 319.686 111.825 319.784 111.749C319.882 111.673 320.001 111.629 320.125 111.625C320.25 111.62 320.372 111.655 320.475 111.724C320.578 111.794 320.657 111.893 320.7 112.01C322.82 117.65 329.28 114.37 327.22 110.49C325.22 106.71 319.95 108.34 317.65 110.72C309.81 118.79 321.51 146.56 320.84 158.89C320.829 159.058 320.767 159.22 320.662 159.352C320.557 159.484 320.414 159.581 320.253 159.629C320.093 159.677 319.921 159.675 319.763 159.621C319.605 159.567 319.468 159.466 319.37 159.33L317.73 157.05C317.617 156.896 317.472 156.767 317.305 156.673C317.138 156.578 316.952 156.519 316.76 156.5C314.707 156.293 313.233 157.07 312.34 158.83C312.193 159.11 312.163 159.403 312.25 159.71C313.217 163.097 315.333 164.247 318.6 163.16C326.85 160.44 325.6 148.54 324.18 142.32C322.53 135.08 321.16 127.74 319.42 120.55C318.72 117.637 318.773 114.803 319.58 112.05Z" stroke="#70671D" stroke-width="2"/>
<path d="M433.8 119.541C440.23 113.481 449.89 112.231 453.61 121.731C455.08 125.491 454.57 130.061 453.9 134.031C453.89 134.087 453.86 134.139 453.816 134.176C453.772 134.214 453.717 134.235 453.659 134.236C453.601 134.237 453.545 134.218 453.5 134.183C453.454 134.147 453.422 134.097 453.41 134.041C451.33 123.711 438.7 126.761 433.58 132.051C428.39 137.421 427.02 147.481 429.02 154.521C432.48 166.711 447.7 162.481 452.82 154.581C459.307 144.574 461.157 133.657 458.37 121.831C455.72 110.551 444.22 106.561 435.45 114.191C433.91 115.531 433.76 117.381 433.33 119.281C433.197 119.874 433.353 119.961 433.8 119.541Z" stroke="#5E1519" stroke-width="2"/>
<path d="M436.44 136.94C433.62 141.15 430.59 155.5 438.76 156.87C446.6 158.19 454.61 145.32 452.33 138.57C449.97 131.58 440.22 131.27 436.44 136.94Z" stroke="#5E1519" stroke-width="2"/>
<path d="M192.07 134.92C192.07 132.92 191.276 131.002 189.862 129.588C188.448 128.174 186.53 127.38 184.53 127.38C182.53 127.38 180.612 128.174 179.198 129.588C177.784 131.002 176.99 132.92 176.99 134.92C176.99 135.91 177.185 136.891 177.564 137.805C177.943 138.72 178.498 139.551 179.198 140.251C179.899 140.952 180.73 141.507 181.645 141.886C182.559 142.265 183.54 142.46 184.53 142.46C185.52 142.46 186.501 142.265 187.415 141.886C188.33 141.507 189.161 140.952 189.862 140.251C190.562 139.551 191.117 138.72 191.496 137.805C191.875 136.891 192.07 135.91 192.07 134.92Z" stroke="#26532A" stroke-width="2"/>
<path d="M300.22 86.34C314.65 71.36 340.27 74.57 355.44 86.45C382.82 107.9 383.45 159.75 358.07 182.82C350.277 189.9 340.567 194.003 328.94 195.13C317.38 196.25 302.5 192.14 296.44 181.18C296.403 181.108 296.342 181.05 296.268 181.017C296.194 180.983 296.111 180.976 296.033 180.996C295.954 181.015 295.884 181.061 295.835 181.125C295.785 181.19 295.759 181.269 295.76 181.35L295.75 190.75C295.75 191.015 295.645 191.27 295.457 191.457C295.27 191.645 295.015 191.75 294.75 191.75H264.13C263.897 191.75 263.673 191.657 263.508 191.492C263.343 191.327 263.25 191.103 263.25 190.87V4.91C263.25 4.80126 263.292 4.69698 263.367 4.62009C263.442 4.5432 263.544 4.5 263.65 4.5H295.12C295.54 4.5 295.75 4.71 295.75 5.13V90.27C295.742 90.4111 295.786 90.5504 295.874 90.6607C295.963 90.771 296.089 90.8445 296.229 90.8669C296.368 90.8894 296.511 90.8591 296.63 90.7821C296.748 90.705 296.834 90.5867 296.87 90.45C297.51 88.54 299.15 87.46 300.22 86.34ZM319.735 167.16C322.957 167.154 326.147 166.337 329.122 164.754C332.096 163.172 334.797 160.855 337.071 157.936C339.345 155.017 341.146 151.553 342.373 147.743C343.6 143.932 344.227 139.849 344.22 135.727C344.213 131.605 343.571 127.524 342.331 123.718C341.091 119.912 339.278 116.454 336.994 113.544C334.71 110.633 332.001 108.325 329.02 106.753C326.04 105.181 322.848 104.374 319.625 104.38C316.403 104.386 313.213 105.203 310.238 106.786C307.264 108.368 304.563 110.685 302.289 113.604C300.015 116.523 298.214 119.987 296.987 123.797C295.76 127.608 295.133 131.691 295.14 135.813C295.147 139.935 295.789 144.016 297.029 147.822C298.269 151.628 300.082 155.086 302.366 157.996C304.65 160.907 307.359 163.215 310.34 164.787C313.32 166.359 316.512 167.166 319.735 167.16Z" fill="black"/>
<path d="M52.64 116.8L52.79 190.85C52.79 191.089 52.6952 191.318 52.5264 191.487C52.3576 191.655 52.1287 191.75 51.89 191.75H19.5C19.2348 191.75 18.9804 191.645 18.7929 191.457C18.6054 191.27 18.5 191.015 18.5 190.75V21.7202C18.5 21.4099 18.6222 21.1123 18.8398 20.8929C19.0573 20.6735 19.3523 20.5502 19.66 20.5502C36.8533 20.4702 54.13 20.4702 71.49 20.5502C78.13 20.5836 85.7033 22.0002 94.21 24.8002C111.27 30.4202 121.19 43.1202 123.64 60.7402C127.12 85.8302 115.94 108.87 89.51 114.1C88.77 114.247 88.5867 114.647 88.96 115.3L132.49 190.96C132.535 191.041 132.559 191.132 132.558 191.224C132.557 191.316 132.533 191.407 132.486 191.487C132.44 191.567 132.373 191.633 132.293 191.679C132.213 191.725 132.122 191.75 132.03 191.75H93.31C92.9942 191.751 92.6843 191.664 92.4145 191.5C92.1446 191.336 91.9251 191.101 91.78 190.82L53.35 116.63C53.3093 116.559 53.2465 116.502 53.1709 116.469C53.0954 116.437 53.0112 116.429 52.9311 116.448C52.851 116.468 52.7793 116.512 52.7268 116.576C52.6743 116.639 52.6438 116.718 52.64 116.8ZM52.77 48.9002L52.69 93.6402C52.69 93.7118 52.7184 93.7805 52.7691 93.8312C52.8197 93.8818 52.8884 93.9102 52.96 93.9102L65.65 93.9302C68.6761 93.9361 71.6736 93.4226 74.4713 92.4191C77.269 91.4156 79.8121 89.9418 81.9553 88.0818C84.0986 86.2218 85.8 84.012 86.9624 81.5787C88.1248 79.1454 88.7254 76.5363 88.73 73.9002V68.7602C88.7392 63.4381 86.3214 58.3297 82.0082 54.5585C77.695 50.7873 71.8397 48.662 65.73 48.6502L53.04 48.6302C52.9684 48.6302 52.8997 48.6587 52.8491 48.7093C52.7984 48.7599 52.77 48.8286 52.77 48.9002Z" fill="black"/>
<path d="M551.52 80.0001H565.45C565.662 80.0001 565.866 80.0844 566.016 80.2344C566.166 80.3844 566.25 80.5879 566.25 80.8001V105.88C566.25 106.089 566.169 106.289 566.023 106.439C565.877 106.588 565.679 106.675 565.47 106.68L551.31 107.05C551.101 107.055 550.903 107.142 550.757 107.291C550.611 107.441 550.53 107.641 550.53 107.85L550.83 190.95C550.83 191.162 550.746 191.366 550.596 191.516C550.446 191.666 550.242 191.75 550.03 191.75H519.05C518.838 191.75 518.634 191.666 518.484 191.516C518.334 191.366 518.25 191.162 518.25 190.95V107.55C518.25 107.338 518.166 107.134 518.016 106.984C517.866 106.834 517.662 106.75 517.45 106.75H506.55C506.338 106.75 506.134 106.666 505.984 106.516C505.834 106.366 505.75 106.162 505.75 105.95V80.8101C505.75 80.5979 505.834 80.3944 505.984 80.2444C506.134 80.0944 506.338 80.0101 506.55 80.0101L517.45 79.9801C517.662 79.9801 517.866 79.8958 518.016 79.7458C518.166 79.5957 518.25 79.3923 518.25 79.1801V44.7801C518.25 44.675 518.271 44.571 518.311 44.4739C518.351 44.3769 518.41 44.2887 518.484 44.2144C518.559 44.1401 518.647 44.0812 518.744 44.041C518.841 44.0008 518.945 43.9801 519.05 43.9801L549.96 43.8301C550.065 43.8301 550.169 43.8508 550.266 43.891C550.363 43.9312 550.451 43.9901 550.526 44.0644C550.6 44.1387 550.659 44.2269 550.699 44.3239C550.739 44.421 550.76 44.525 550.76 44.6301L550.72 79.2001C550.72 79.4122 550.804 79.6157 550.954 79.7658C551.104 79.9158 551.308 80.0001 551.52 80.0001Z" fill="black"/>
<path d="M194.51 76.4803C239.12 78.9703 261.65 129.51 240.33 166.39C213.55 212.73 142.52 201.05 132.83 147.76C125.58 107.91 153.38 74.1903 194.51 76.4803ZM204.56 109.69C189.76 98.0803 170.24 106.91 165.61 124.09C162.15 136.93 164.36 154.22 175.84 162.67C186.41 170.46 203.4 167.82 210.47 156.44C218.99 142.73 218.21 120.39 204.56 109.69Z" fill="black"/>
<path d="M385.13 121.97C389.34 100.85 405.32 83.9204 425.89 78.4604C461.87 68.9004 496.54 91.8604 500.06 129.17C503.21 162.59 480.75 193.52 445.88 195.28C404.99 197.36 377.23 161.58 385.13 121.97ZM442.831 167.473C449.789 167.328 456.392 163.864 461.188 157.843C465.984 151.823 468.58 143.739 468.404 135.371C468.229 127.002 465.297 119.035 460.253 113.22C455.209 107.406 448.467 104.222 441.509 104.367C434.551 104.513 427.948 107.977 423.152 113.998C418.356 120.018 415.761 128.101 415.936 136.47C416.111 144.838 419.043 152.806 424.087 158.62C429.131 164.435 435.873 167.619 442.831 167.473Z" fill="black"/>
<path d="M652.35 156.18C654.42 172.88 645.09 186.42 629.56 191.8C609.82 198.63 583.78 196.27 569.53 179.37C569.318 179.119 569.212 178.796 569.236 178.468C569.261 178.141 569.413 177.836 569.66 177.62L587.3 162.31C587.56 162.083 587.803 162.096 588.03 162.35C593.557 168.436 600.383 171.566 608.51 171.74C621.81 172.03 627.23 158.82 614.68 151.91C597.94 142.7 576.52 140.34 573.15 117.07C571.01 102.283 575.767 91.1264 587.42 83.5998C605.02 72.2298 633.83 73.7798 648.97 89.0498C649.128 89.2108 649.221 89.4247 649.23 89.6501C649.239 89.8756 649.164 90.0964 649.02 90.2698L634.74 107.53C634.639 107.649 634.495 107.723 634.34 107.736C634.184 107.749 634.03 107.7 633.91 107.6C631.59 105.64 629.28 103.44 626.71 102.21C620.59 99.2898 605.31 97.9798 603.08 106.79C600.3 117.78 615.72 123.25 622.76 125.46C637.44 130.07 650.34 139.88 652.35 156.18Z" fill="black"/>
<path d="M204.56 109.69C218.21 120.39 218.99 142.73 210.47 156.44C203.4 167.82 186.41 170.46 175.84 162.67C164.36 154.22 162.15 136.93 165.61 124.09C170.24 106.91 189.76 98.0798 204.56 109.69ZM194.25 141.42C194.287 141.339 194.347 141.271 194.423 141.225C194.499 141.178 194.586 141.155 194.675 141.158C194.764 141.162 194.85 141.191 194.922 141.243C194.994 141.295 195.049 141.367 195.08 141.45C197.02 146.437 200.66 149.23 206 149.83C206.42 149.877 206.643 149.69 206.67 149.27L207.01 144.52C207.014 144.457 207.006 144.395 206.985 144.335C206.964 144.276 206.932 144.222 206.89 144.175C206.848 144.128 206.798 144.091 206.741 144.064C206.684 144.037 206.623 144.022 206.56 144.02C193.53 143.6 194.51 127.68 206.16 125.93C206.56 125.87 206.76 125.637 206.76 125.23L206.74 120.65C206.74 120.297 206.56 120.13 206.2 120.15C200.373 120.51 196.51 123.383 194.61 128.77C194.579 128.861 194.521 128.94 194.444 128.997C194.366 129.054 194.273 129.086 194.176 129.089C194.08 129.093 193.983 129.067 193.9 129.015C193.817 128.964 193.751 128.889 193.71 128.8C191.51 123.84 186.69 121.06 181.34 122.35C168.25 125.48 171.26 149.69 185.98 147.94C189.72 147.493 192.477 145.32 194.25 141.42Z" fill="#4CA553"/>
<path d="M319.735 167.16C316.512 167.166 313.32 166.359 310.34 164.787C307.359 163.215 304.65 160.907 302.366 157.996C300.082 155.085 298.269 151.628 297.029 147.822C295.789 144.016 295.147 139.935 295.14 135.813C295.133 131.691 295.76 127.608 296.987 123.797C298.214 119.986 300.015 116.523 302.289 113.604C304.562 110.685 307.264 108.368 310.238 106.786C313.213 105.203 316.403 104.386 319.625 104.38C322.848 104.374 326.04 105.181 329.02 106.753C332 108.325 334.71 110.633 336.994 113.544C339.277 116.454 341.091 119.912 342.331 123.718C343.571 127.524 344.213 131.605 344.22 135.727C344.227 139.849 343.6 143.932 342.373 147.743C341.146 151.553 339.345 155.017 337.071 157.936C334.797 160.855 332.096 163.171 329.122 164.754C326.147 166.337 322.957 167.154 319.735 167.16ZM319.58 112.05C319.615 111.931 319.686 111.825 319.784 111.749C319.882 111.673 320.001 111.629 320.125 111.625C320.25 111.62 320.372 111.655 320.475 111.724C320.578 111.794 320.657 111.893 320.7 112.01C322.82 117.65 329.28 114.37 327.22 110.49C325.22 106.71 319.95 108.34 317.65 110.72C309.81 118.79 321.51 146.56 320.84 158.89C320.829 159.058 320.767 159.22 320.662 159.352C320.557 159.484 320.414 159.581 320.253 159.629C320.093 159.677 319.921 159.675 319.763 159.621C319.605 159.567 319.468 159.466 319.37 159.33L317.73 157.05C317.617 156.896 317.472 156.767 317.305 156.673C317.138 156.578 316.952 156.519 316.76 156.5C314.707 156.293 313.233 157.07 312.34 158.83C312.193 159.11 312.163 159.403 312.25 159.71C313.217 163.097 315.333 164.247 318.6 163.16C326.85 160.44 325.6 148.54 324.18 142.32C322.53 135.08 321.16 127.74 319.42 120.55C318.72 117.637 318.773 114.803 319.58 112.05Z" fill="#DFCE39"/>
<path d="M442.831 167.473C435.873 167.619 429.131 164.434 424.087 158.62C419.043 152.806 416.111 144.838 415.936 136.47C415.761 128.101 418.356 120.018 423.152 113.997C427.948 107.977 434.551 104.513 441.509 104.367C448.467 104.221 455.209 107.406 460.253 113.22C465.297 119.035 468.229 127.002 468.404 135.371C468.58 143.739 465.984 151.823 461.188 157.843C456.392 163.863 449.789 167.328 442.831 167.473ZM433.8 119.54C440.23 113.48 449.89 112.23 453.61 121.73C455.08 125.49 454.57 130.06 453.9 134.03C453.89 134.087 453.86 134.138 453.816 134.176C453.772 134.213 453.717 134.234 453.659 134.236C453.601 134.237 453.545 134.218 453.5 134.182C453.454 134.147 453.423 134.097 453.41 134.04C451.33 123.71 438.7 126.76 433.58 132.05C428.39 137.42 427.02 147.48 429.02 154.52C432.48 166.71 447.7 162.48 452.82 154.58C459.307 144.574 461.157 133.657 458.37 121.83C455.72 110.55 444.22 106.56 435.45 114.19C433.91 115.53 433.76 117.38 433.33 119.28C433.197 119.874 433.353 119.96 433.8 119.54Z" fill="#BC2A32"/>
<path d="M319.58 112.05C318.773 114.803 318.72 117.637 319.42 120.55C321.16 127.74 322.53 135.08 324.18 142.32C325.6 148.54 326.85 160.44 318.6 163.16C315.333 164.247 313.217 163.097 312.25 159.71C312.163 159.403 312.193 159.11 312.34 158.83C313.233 157.07 314.707 156.293 316.76 156.5C316.952 156.519 317.138 156.578 317.305 156.673C317.472 156.767 317.617 156.896 317.73 157.05L319.37 159.33C319.468 159.466 319.605 159.567 319.763 159.621C319.921 159.675 320.093 159.677 320.253 159.629C320.414 159.581 320.557 159.484 320.662 159.352C320.767 159.22 320.829 159.058 320.84 158.89C321.51 146.56 309.81 118.79 317.65 110.72C319.95 108.34 325.22 106.71 327.22 110.49C329.28 114.37 322.82 117.65 320.7 112.01C320.657 111.893 320.578 111.794 320.475 111.724C320.372 111.655 320.25 111.62 320.125 111.625C320.001 111.629 319.882 111.673 319.784 111.749C319.686 111.825 319.615 111.931 319.58 112.05Z" fill="black"/>
<path d="M453.61 121.73C449.89 112.23 440.23 113.48 433.8 119.54C433.353 119.96 433.197 119.873 433.33 119.28C433.76 117.38 433.91 115.53 435.45 114.19C444.22 106.56 455.72 110.55 458.37 121.83C461.157 133.656 459.307 144.573 452.82 154.58C447.7 162.48 432.48 166.71 429.02 154.52C427.02 147.48 428.39 137.42 433.58 132.05C438.7 126.76 451.33 123.71 453.41 134.04C453.422 134.096 453.454 134.146 453.5 134.182C453.545 134.217 453.601 134.236 453.659 134.235C453.717 134.234 453.772 134.213 453.816 134.175C453.86 134.138 453.89 134.086 453.9 134.03C454.57 130.06 455.08 125.49 453.61 121.73ZM436.44 136.94C433.62 141.15 430.59 155.5 438.76 156.87C446.6 158.19 454.61 145.32 452.33 138.57C449.97 131.58 440.22 131.27 436.44 136.94Z" fill="black"/>
<path d="M194.25 141.42C192.477 145.32 189.72 147.493 185.98 147.94C171.26 149.69 168.25 125.48 181.34 122.35C186.69 121.06 191.51 123.84 193.71 128.8C193.751 128.889 193.817 128.964 193.9 129.015C193.983 129.067 194.08 129.093 194.176 129.09C194.273 129.086 194.366 129.054 194.444 128.997C194.521 128.94 194.579 128.861 194.61 128.77C196.51 123.383 200.373 120.51 206.2 120.15C206.56 120.13 206.74 120.297 206.74 120.65L206.76 125.23C206.76 125.637 206.56 125.87 206.16 125.93C194.51 127.68 193.53 143.6 206.56 144.02C206.623 144.023 206.684 144.038 206.741 144.064C206.798 144.091 206.848 144.129 206.89 144.175C206.932 144.222 206.964 144.276 206.985 144.336C207.006 144.395 207.014 144.458 207.01 144.52L206.67 149.27C206.643 149.69 206.42 149.877 206 149.83C200.66 149.23 197.02 146.437 195.08 141.45C195.049 141.367 194.994 141.295 194.922 141.243C194.85 141.191 194.764 141.162 194.675 141.159C194.586 141.155 194.499 141.178 194.423 141.225C194.347 141.272 194.287 141.339 194.25 141.42ZM192.07 134.92C192.07 132.92 191.276 131.002 189.862 129.588C188.448 128.174 186.53 127.38 184.53 127.38C182.53 127.38 180.612 128.174 179.198 129.588C177.784 131.002 176.99 132.92 176.99 134.92C176.99 135.91 177.185 136.891 177.564 137.805C177.943 138.72 178.498 139.551 179.198 140.252C179.899 140.952 180.73 141.507 181.645 141.886C182.559 142.265 183.54 142.46 184.53 142.46C185.52 142.46 186.501 142.265 187.415 141.886C188.33 141.507 189.161 140.952 189.862 140.252C190.562 139.551 191.117 138.72 191.496 137.805C191.875 136.891 192.07 135.91 192.07 134.92Z" fill="black"/>
<path d="M192.07 134.92C192.07 135.91 191.875 136.891 191.496 137.805C191.117 138.72 190.562 139.551 189.862 140.251C189.161 140.952 188.33 141.507 187.415 141.886C186.501 142.265 185.52 142.46 184.53 142.46C183.54 142.46 182.559 142.265 181.645 141.886C180.73 141.507 179.899 140.952 179.198 140.251C178.498 139.551 177.943 138.72 177.564 137.805C177.185 136.891 176.99 135.91 176.99 134.92C176.99 132.92 177.784 131.002 179.198 129.588C180.612 128.174 182.53 127.38 184.53 127.38C186.53 127.38 188.448 128.174 189.862 129.588C191.276 131.002 192.07 132.92 192.07 134.92Z" fill="#4CA553"/>
<path d="M436.44 136.94C440.22 131.27 449.97 131.58 452.33 138.57C454.61 145.32 446.6 158.19 438.76 156.87C430.59 155.5 433.62 141.15 436.44 136.94Z" fill="#BC2A32"/>
<path d="M594 353.6V214.13C594 213.897 594.093 213.673 594.258 213.508C594.423 213.343 594.647 213.25 594.88 213.25H621.12C621.353 213.25 621.577 213.343 621.742 213.508C621.907 213.673 622 213.897 622 214.13V353.66C622 353.893 621.907 354.117 621.742 354.282C621.577 354.447 621.353 354.54 621.12 354.54L594.88 354.48C594.647 354.48 594.423 354.387 594.258 354.222C594.093 354.057 594 353.833 594 353.6Z" fill="black"/>
<path d="M113.49 253.63L85.88 353.85C85.823 354.057 85.6982 354.239 85.5247 354.37C85.3513 354.5 85.1389 354.57 84.92 354.57L70.13 354.47C69.53 354.463 69.15 354.17 68.99 353.59L41.69 254.51C41.658 254.385 41.583 254.275 41.4782 254.2C41.3733 254.124 41.2453 254.088 41.1165 254.098C40.9877 254.107 40.8664 254.162 40.7738 254.252C40.6811 254.342 40.6232 254.462 40.61 254.59L28.21 354.07C28.1766 354.357 28.0166 354.5 27.73 354.5H1.07998C0.793317 354.5 0.669984 354.36 0.709984 354.08L20.03 213.7C20.0468 213.576 20.1087 213.462 20.2042 213.38C20.2997 213.297 20.4225 213.251 20.55 213.25H53.26C53.4833 213.249 53.7011 213.323 53.88 213.46C54.0588 213.598 54.1888 213.791 54.25 214.01L77.08 296.73C77.1073 296.822 77.1634 296.903 77.2401 296.961C77.3168 297.019 77.4101 297.051 77.5063 297.052C77.6025 297.054 77.6965 297.024 77.7745 296.968C77.8526 296.911 77.9106 296.832 77.94 296.74L102.68 213.68C102.718 213.556 102.795 213.447 102.9 213.37C103.004 213.293 103.13 213.251 103.26 213.25H134.04C134.264 213.25 134.48 213.331 134.649 213.478C134.818 213.625 134.929 213.828 134.96 214.05L154.21 353.86C154.263 354.287 154.077 354.5 153.65 354.5H127.27C126.95 354.5 126.77 354.34 126.73 354.02C122.997 324.1 119.26 294.177 115.52 264.25C115.073 260.663 114.523 257.13 113.87 253.65C113.86 253.606 113.836 253.566 113.802 253.536C113.767 253.507 113.724 253.489 113.68 253.487C113.636 253.485 113.593 253.498 113.558 253.524C113.524 253.55 113.5 253.587 113.49 253.63Z" fill="black"/>
<path d="M255.09 323.65L246.08 354.12C246.045 354.236 245.974 354.338 245.877 354.41C245.779 354.482 245.661 354.521 245.54 354.52L215.72 354.49C215.631 354.49 215.543 354.469 215.464 354.428C215.385 354.387 215.317 354.328 215.265 354.256C215.213 354.184 215.179 354.1 215.166 354.012C215.153 353.924 215.161 353.834 215.19 353.75L262.7 213.63C262.737 213.519 262.809 213.423 262.904 213.355C262.999 213.287 263.113 213.25 263.23 213.25H295.32C295.437 213.25 295.551 213.287 295.646 213.355C295.741 213.423 295.812 213.519 295.85 213.63L343.26 353.76C343.288 353.844 343.297 353.934 343.284 354.022C343.27 354.11 343.237 354.194 343.185 354.266C343.133 354.338 343.065 354.397 342.986 354.438C342.907 354.479 342.819 354.5 342.73 354.5H312.87C312.749 354.501 312.631 354.462 312.533 354.39C312.436 354.318 312.364 354.216 312.33 354.1L303.41 323.65C303.375 323.534 303.304 323.432 303.207 323.36C303.109 323.288 302.991 323.249 302.87 323.25H255.63C255.509 323.249 255.391 323.288 255.293 323.36C255.196 323.432 255.124 323.534 255.09 323.65ZM261.91 299.84C261.888 299.917 261.885 299.998 261.9 300.077C261.915 300.156 261.948 300.23 261.996 300.294C262.045 300.358 262.107 300.41 262.179 300.445C262.251 300.481 262.33 300.5 262.41 300.5H295.99C296.07 300.5 296.149 300.481 296.221 300.445C296.293 300.41 296.355 300.358 296.404 300.294C296.452 300.23 296.485 300.156 296.5 300.077C296.515 299.998 296.511 299.917 296.49 299.84L279.7 242.96C279.669 242.851 279.603 242.756 279.513 242.688C279.423 242.62 279.313 242.583 279.2 242.583C279.087 242.583 278.977 242.62 278.887 242.688C278.796 242.756 278.731 242.851 278.7 242.96L261.91 299.84Z" fill="black"/>
<path d="M425.77 353.7L425.89 214.07C425.89 213.853 425.976 213.644 426.13 213.49C426.284 213.336 426.493 213.25 426.71 213.25H452.93C453.148 213.25 453.356 213.336 453.51 213.49C453.664 213.644 453.75 213.853 453.75 214.07V329.28C453.75 329.497 453.836 329.706 453.99 329.86C454.144 330.014 454.353 330.1 454.57 330.1L487.68 329.95C487.897 329.95 488.106 330.036 488.26 330.19C488.414 330.344 488.5 330.553 488.5 330.77V353.67C488.5 353.887 488.414 354.096 488.26 354.25C488.106 354.404 487.897 354.49 487.68 354.49L426.59 354.52C426.373 354.52 426.164 354.434 426.01 354.28C425.856 354.126 425.77 353.917 425.77 353.7Z" fill="black"/>
</svg>
