<svg width="653" height="351" viewBox="0 0 653 351" fill="none" xmlns="http://www.w3.org/2000/svg">
<g clip-path="url(#clip0_2691_30)">
<path d="M319.735 163.16C322.957 163.154 326.147 162.337 329.122 160.754C332.096 159.171 334.797 156.855 337.071 153.936C339.345 151.017 341.146 147.553 342.373 143.743C343.6 139.932 344.227 135.849 344.22 131.727C344.213 127.605 343.571 123.524 342.331 119.718C341.091 115.912 339.277 112.454 336.994 109.544C334.71 106.633 332 104.325 329.02 102.753C326.04 101.181 322.848 100.374 319.625 100.38C316.403 100.386 313.213 101.203 310.238 102.786C307.264 104.368 304.562 106.685 302.289 109.604C300.015 112.523 298.214 115.986 296.987 119.797C295.76 123.608 295.133 127.691 295.14 131.813C295.147 135.935 295.789 140.016 297.029 143.822C298.269 147.628 300.082 151.085 302.366 153.996C304.65 156.907 307.359 159.215 310.34 160.787C313.32 162.359 316.512 163.166 319.735 163.16Z" stroke="#70671D" stroke-width="2"/>
<path d="M204.56 105.69C189.76 94.0798 170.24 102.91 165.61 120.09C162.15 132.93 164.36 150.22 175.84 158.67C186.41 166.46 203.4 163.82 210.47 152.44C218.99 138.73 218.21 116.39 204.56 105.69Z" stroke="#26532A" stroke-width="2"/>
<path d="M442.831 163.473C449.789 163.328 456.392 159.863 461.188 153.843C465.984 147.823 468.58 139.739 468.404 131.371C468.229 123.002 465.297 115.035 460.253 109.22C455.209 103.406 448.467 100.221 441.509 100.367C434.551 100.513 427.948 103.977 423.152 109.997C418.356 116.018 415.761 124.101 415.936 132.47C416.111 140.838 419.043 148.806 424.087 154.62C429.131 160.434 435.873 163.619 442.831 163.473Z" stroke="#5E1519" stroke-width="2"/>
<path d="M194.25 137.42C194.287 137.339 194.347 137.272 194.423 137.225C194.499 137.178 194.586 137.155 194.675 137.159C194.764 137.162 194.85 137.191 194.922 137.243C194.994 137.295 195.049 137.367 195.08 137.45C197.02 142.437 200.66 145.23 206 145.83C206.42 145.877 206.643 145.69 206.67 145.27L207.01 140.52C207.014 140.457 207.006 140.395 206.985 140.336C206.964 140.276 206.932 140.222 206.89 140.175C206.848 140.129 206.798 140.091 206.741 140.064C206.684 140.038 206.623 140.023 206.56 140.02C193.53 139.6 194.51 123.68 206.16 121.93C206.56 121.87 206.76 121.637 206.76 121.23L206.74 116.65C206.74 116.297 206.56 116.13 206.2 116.15C200.373 116.51 196.51 119.383 194.61 124.77C194.579 124.861 194.521 124.94 194.444 124.997C194.366 125.054 194.273 125.086 194.176 125.09C194.08 125.093 193.983 125.067 193.9 125.015C193.817 124.964 193.751 124.889 193.71 124.8C191.51 119.84 186.69 117.06 181.34 118.35C168.25 121.48 171.26 145.69 185.98 143.94C189.72 143.493 192.477 141.32 194.25 137.42Z" stroke="#26532A" stroke-width="2"/>
<path d="M319.58 108.05C319.615 107.931 319.686 107.825 319.784 107.749C319.882 107.673 320.001 107.629 320.125 107.625C320.25 107.62 320.372 107.655 320.475 107.724C320.578 107.794 320.657 107.893 320.7 108.01C322.82 113.65 329.28 110.37 327.22 106.49C325.22 102.71 319.95 104.34 317.65 106.72C309.81 114.79 321.51 142.56 320.84 154.89C320.829 155.058 320.767 155.22 320.662 155.352C320.557 155.484 320.414 155.581 320.253 155.629C320.093 155.677 319.921 155.675 319.763 155.621C319.605 155.567 319.468 155.466 319.37 155.33L317.73 153.05C317.617 152.896 317.472 152.767 317.305 152.673C317.138 152.578 316.952 152.519 316.76 152.5C314.707 152.293 313.233 153.07 312.34 154.83C312.193 155.11 312.163 155.403 312.25 155.71C313.217 159.097 315.333 160.247 318.6 159.16C326.85 156.44 325.6 144.54 324.18 138.32C322.53 131.08 321.16 123.74 319.42 116.55C318.72 113.637 318.773 110.803 319.58 108.05Z" stroke="#70671D" stroke-width="2"/>
<path d="M433.8 115.541C440.23 109.481 449.89 108.231 453.61 117.731C455.08 121.491 454.57 126.061 453.9 130.031C453.89 130.087 453.86 130.139 453.816 130.176C453.772 130.214 453.717 130.235 453.659 130.236C453.601 130.237 453.545 130.218 453.5 130.183C453.454 130.147 453.422 130.097 453.41 130.041C451.33 119.711 438.7 122.761 433.58 128.051C428.39 133.421 427.02 143.481 429.02 150.521C432.48 162.711 447.7 158.481 452.82 150.581C459.307 140.574 461.157 129.657 458.37 117.831C455.72 106.551 444.22 102.561 435.45 110.191C433.91 111.531 433.76 113.381 433.33 115.281C433.197 115.874 433.353 115.961 433.8 115.541Z" stroke="#5E1519" stroke-width="2"/>
<path d="M436.44 132.94C433.62 137.15 430.59 151.5 438.76 152.87C446.6 154.19 454.61 141.32 452.33 134.57C449.97 127.58 440.22 127.27 436.44 132.94Z" stroke="#5E1519" stroke-width="2"/>
<path d="M192.07 130.92C192.07 128.92 191.276 127.002 189.862 125.588C188.448 124.174 186.53 123.38 184.53 123.38C182.53 123.38 180.612 124.174 179.198 125.588C177.784 127.002 176.99 128.92 176.99 130.92C176.99 131.91 177.185 132.891 177.564 133.805C177.943 134.72 178.498 135.551 179.198 136.251C179.899 136.952 180.73 137.507 181.645 137.886C182.559 138.265 183.54 138.46 184.53 138.46C185.52 138.46 186.501 138.265 187.415 137.886C188.33 137.507 189.161 136.952 189.862 136.251C190.562 135.551 191.117 134.72 191.496 133.805C191.875 132.891 192.07 131.91 192.07 130.92Z" stroke="#26532A" stroke-width="2"/>
<path d="M300.22 82.34C314.65 67.36 340.27 70.57 355.44 82.45C382.82 103.9 383.45 155.75 358.07 178.82C350.277 185.9 340.567 190.003 328.94 191.13C317.38 192.25 302.5 188.14 296.44 177.18C296.403 177.108 296.342 177.05 296.268 177.017C296.194 176.983 296.111 176.976 296.033 176.996C295.954 177.015 295.884 177.061 295.835 177.125C295.785 177.19 295.759 177.269 295.76 177.35L295.75 186.75C295.75 187.015 295.645 187.27 295.457 187.457C295.27 187.645 295.015 187.75 294.75 187.75H264.13C263.897 187.75 263.673 187.657 263.508 187.492C263.343 187.327 263.25 187.103 263.25 186.87V0.91C263.25 0.80126 263.292 0.69698 263.367 0.62009C263.442 0.5432 263.544 0.5 263.65 0.5H295.12C295.54 0.5 295.75 0.71 295.75 1.13V86.27C295.742 86.4111 295.786 86.5504 295.874 86.6607C295.963 86.771 296.089 86.8445 296.229 86.8669C296.368 86.8894 296.511 86.8591 296.63 86.7821C296.748 86.705 296.834 86.5867 296.87 86.45C297.51 84.54 299.15 83.46 300.22 82.34ZM319.735 163.16C322.957 163.154 326.147 162.337 329.122 160.754C332.096 159.172 334.797 156.855 337.071 153.936C339.345 151.017 341.146 147.553 342.373 143.743C343.6 139.932 344.227 135.849 344.22 131.727C344.213 127.605 343.571 123.524 342.331 119.718C341.091 115.912 339.278 112.454 336.994 109.544C334.71 106.633 332.001 104.325 329.02 102.753C326.04 101.181 322.848 100.374 319.625 100.38C316.403 100.386 313.213 101.203 310.238 102.786C307.264 104.368 304.563 106.685 302.289 109.604C300.015 112.523 298.214 115.987 296.987 119.797C295.76 123.608 295.133 127.691 295.14 131.813C295.147 135.935 295.789 140.016 297.029 143.822C298.269 147.628 300.082 151.086 302.366 153.996C304.65 156.907 307.359 159.215 310.34 160.787C313.32 162.359 316.512 163.166 319.735 163.16Z" fill="black"/>
<path d="M52.64 112.8L52.79 186.85C52.79 187.089 52.6952 187.318 52.5264 187.487C52.3576 187.655 52.1287 187.75 51.89 187.75H19.5C19.2348 187.75 18.9804 187.645 18.7929 187.457C18.6054 187.27 18.5 187.015 18.5 186.75V17.7202C18.5 17.4099 18.6222 17.1123 18.8398 16.8929C19.0573 16.6735 19.3523 16.5502 19.66 16.5502C36.8533 16.4702 54.13 16.4702 71.49 16.5502C78.13 16.5836 85.7033 18.0002 94.21 20.8002C111.27 26.4202 121.19 39.1202 123.64 56.7402C127.12 81.8302 115.94 104.87 89.51 110.1C88.77 110.247 88.5867 110.647 88.96 111.3L132.49 186.96C132.535 187.041 132.559 187.132 132.558 187.224C132.557 187.316 132.533 187.407 132.486 187.487C132.44 187.567 132.373 187.633 132.293 187.679C132.213 187.725 132.122 187.75 132.03 187.75H93.31C92.9942 187.751 92.6843 187.664 92.4145 187.5C92.1446 187.336 91.9251 187.101 91.78 186.82L53.35 112.63C53.3093 112.559 53.2465 112.502 53.1709 112.469C53.0954 112.437 53.0112 112.429 52.9311 112.448C52.851 112.468 52.7793 112.512 52.7268 112.576C52.6743 112.639 52.6438 112.718 52.64 112.8ZM52.77 44.9002L52.69 89.6402C52.69 89.7118 52.7184 89.7805 52.7691 89.8312C52.8197 89.8818 52.8884 89.9102 52.96 89.9102L65.65 89.9302C68.6761 89.9361 71.6736 89.4226 74.4713 88.4191C77.269 87.4156 79.8121 85.9418 81.9553 84.0818C84.0986 82.2218 85.8 80.012 86.9624 77.5787C88.1248 75.1454 88.7254 72.5363 88.73 69.9002V64.7602C88.7392 59.4381 86.3214 54.3297 82.0082 50.5585C77.695 46.7873 71.8397 44.662 65.73 44.6502L53.04 44.6302C52.9684 44.6302 52.8997 44.6587 52.8491 44.7093C52.7984 44.7599 52.77 44.8286 52.77 44.9002Z" fill="black"/>
<path d="M551.52 76.0001H565.45C565.662 76.0001 565.866 76.0844 566.016 76.2344C566.166 76.3844 566.25 76.5879 566.25 76.8001V101.88C566.25 102.089 566.169 102.289 566.023 102.439C565.877 102.588 565.679 102.675 565.47 102.68L551.31 103.05C551.101 103.055 550.903 103.142 550.757 103.291C550.611 103.441 550.53 103.641 550.53 103.85L550.83 186.95C550.83 187.162 550.746 187.366 550.596 187.516C550.446 187.666 550.242 187.75 550.03 187.75H519.05C518.838 187.75 518.634 187.666 518.484 187.516C518.334 187.366 518.25 187.162 518.25 186.95V103.55C518.25 103.338 518.166 103.134 518.016 102.984C517.866 102.834 517.662 102.75 517.45 102.75H506.55C506.338 102.75 506.134 102.666 505.984 102.516C505.834 102.366 505.75 102.162 505.75 101.95V76.8101C505.75 76.5979 505.834 76.3944 505.984 76.2444C506.134 76.0944 506.338 76.0101 506.55 76.0101L517.45 75.9801C517.662 75.9801 517.866 75.8958 518.016 75.7458C518.166 75.5957 518.25 75.3923 518.25 75.1801V40.7801C518.25 40.675 518.271 40.571 518.311 40.4739C518.351 40.3769 518.41 40.2887 518.484 40.2144C518.559 40.1401 518.647 40.0812 518.744 40.041C518.841 40.0008 518.945 39.9801 519.05 39.9801L549.96 39.8301C550.065 39.8301 550.169 39.8508 550.266 39.891C550.363 39.9312 550.451 39.9901 550.526 40.0644C550.6 40.1387 550.659 40.2269 550.699 40.3239C550.739 40.421 550.76 40.525 550.76 40.6301L550.72 75.2001C550.72 75.4122 550.804 75.6157 550.954 75.7658C551.104 75.9158 551.308 76.0001 551.52 76.0001Z" fill="black"/>
<path d="M194.51 72.4803C239.12 74.9703 261.65 125.51 240.33 162.39C213.55 208.73 142.52 197.05 132.83 143.76C125.58 103.91 153.38 70.1903 194.51 72.4803ZM204.56 105.69C189.76 94.0803 170.24 102.91 165.61 120.09C162.15 132.93 164.36 150.22 175.84 158.67C186.41 166.46 203.4 163.82 210.47 152.44C218.99 138.73 218.21 116.39 204.56 105.69Z" fill="black"/>
<path d="M385.13 117.97C389.34 96.85 405.32 79.9204 425.89 74.4604C461.87 64.9004 496.54 87.8604 500.06 125.17C503.21 158.59 480.75 189.52 445.88 191.28C404.99 193.36 377.23 157.58 385.13 117.97ZM442.831 163.473C449.789 163.328 456.392 159.864 461.188 153.843C465.984 147.823 468.58 139.739 468.404 131.371C468.229 123.002 465.297 115.035 460.253 109.22C455.209 103.406 448.467 100.222 441.509 100.367C434.551 100.513 427.948 103.977 423.152 109.998C418.356 116.018 415.761 124.101 415.936 132.47C416.111 140.838 419.043 148.806 424.087 154.62C429.131 160.435 435.873 163.619 442.831 163.473Z" fill="black"/>
<path d="M652.35 152.18C654.42 168.88 645.09 182.42 629.56 187.8C609.82 194.63 583.78 192.27 569.53 175.37C569.318 175.119 569.212 174.796 569.236 174.468C569.261 174.141 569.413 173.836 569.66 173.62L587.3 158.31C587.56 158.083 587.803 158.096 588.03 158.35C593.557 164.436 600.383 167.566 608.51 167.74C621.81 168.03 627.23 154.82 614.68 147.91C597.94 138.7 576.52 136.34 573.15 113.07C571.01 98.283 575.767 87.1264 587.42 79.5998C605.02 68.2298 633.83 69.7798 648.97 85.0498C649.128 85.2108 649.221 85.4247 649.23 85.6501C649.239 85.8756 649.164 86.0964 649.02 86.2698L634.74 103.53C634.639 103.649 634.495 103.723 634.34 103.736C634.184 103.749 634.03 103.7 633.91 103.6C631.59 101.64 629.28 99.44 626.71 98.21C620.59 95.2898 605.31 93.9798 603.08 102.79C600.3 113.78 615.72 119.25 622.76 121.46C637.44 126.07 650.34 135.88 652.35 152.18Z" fill="black"/>
<path d="M204.56 105.69C218.21 116.39 218.99 138.73 210.47 152.44C203.4 163.82 186.41 166.46 175.84 158.67C164.36 150.22 162.15 132.93 165.61 120.09C170.24 102.91 189.76 94.0798 204.56 105.69ZM194.25 137.42C194.287 137.339 194.347 137.271 194.423 137.225C194.499 137.178 194.586 137.155 194.675 137.158C194.764 137.162 194.85 137.191 194.922 137.243C194.994 137.295 195.049 137.367 195.08 137.45C197.02 142.437 200.66 145.23 206 145.83C206.42 145.877 206.643 145.69 206.67 145.27L207.01 140.52C207.014 140.457 207.006 140.395 206.985 140.335C206.964 140.276 206.932 140.222 206.89 140.175C206.848 140.128 206.798 140.091 206.741 140.064C206.684 140.037 206.623 140.022 206.56 140.02C193.53 139.6 194.51 123.68 206.16 121.93C206.56 121.87 206.76 121.637 206.76 121.23L206.74 116.65C206.74 116.297 206.56 116.13 206.2 116.15C200.373 116.51 196.51 119.383 194.61 124.77C194.579 124.861 194.521 124.94 194.444 124.997C194.366 125.054 194.273 125.086 194.176 125.089C194.08 125.093 193.983 125.067 193.9 125.015C193.817 124.964 193.751 124.889 193.71 124.8C191.51 119.84 186.69 117.06 181.34 118.35C168.25 121.48 171.26 145.69 185.98 143.94C189.72 143.493 192.477 141.32 194.25 137.42Z" fill="#4CA553"/>
<path d="M319.735 163.16C316.512 163.166 313.32 162.359 310.34 160.787C307.359 159.215 304.65 156.907 302.366 153.996C300.082 151.085 298.269 147.628 297.029 143.822C295.789 140.016 295.147 135.935 295.14 131.813C295.133 127.691 295.76 123.608 296.987 119.797C298.214 115.986 300.015 112.523 302.289 109.604C304.562 106.685 307.264 104.368 310.238 102.786C313.213 101.203 316.403 100.386 319.625 100.38C322.848 100.374 326.04 101.181 329.02 102.753C332 104.325 334.71 106.633 336.994 109.544C339.277 112.454 341.091 115.912 342.331 119.718C343.571 123.524 344.213 127.605 344.22 131.727C344.227 135.849 343.6 139.932 342.373 143.743C341.146 147.553 339.345 151.017 337.071 153.936C334.797 156.855 332.096 159.171 329.122 160.754C326.147 162.337 322.957 163.154 319.735 163.16ZM319.58 108.05C319.615 107.931 319.686 107.825 319.784 107.749C319.882 107.673 320.001 107.629 320.125 107.625C320.25 107.62 320.372 107.655 320.475 107.724C320.578 107.794 320.657 107.893 320.7 108.01C322.82 113.65 329.28 110.37 327.22 106.49C325.22 102.71 319.95 104.34 317.65 106.72C309.81 114.79 321.51 142.56 320.84 154.89C320.829 155.058 320.767 155.22 320.662 155.352C320.557 155.484 320.414 155.581 320.253 155.629C320.093 155.677 319.921 155.675 319.763 155.621C319.605 155.567 319.468 155.466 319.37 155.33L317.73 153.05C317.617 152.896 317.472 152.767 317.305 152.673C317.138 152.578 316.952 152.519 316.76 152.5C314.707 152.293 313.233 153.07 312.34 154.83C312.193 155.11 312.163 155.403 312.25 155.71C313.217 159.097 315.333 160.247 318.6 159.16C326.85 156.44 325.6 144.54 324.18 138.32C322.53 131.08 321.16 123.74 319.42 116.55C318.72 113.637 318.773 110.803 319.58 108.05Z" fill="#DFCE39"/>
<path d="M442.831 163.473C435.873 163.619 429.131 160.434 424.087 154.62C419.043 148.806 416.111 140.838 415.936 132.47C415.761 124.101 418.356 116.018 423.152 109.997C427.948 103.977 434.551 100.513 441.509 100.367C448.467 100.221 455.209 103.406 460.253 109.22C465.297 115.035 468.229 123.002 468.404 131.371C468.58 139.739 465.984 147.823 461.188 153.843C456.392 159.863 449.789 163.328 442.831 163.473ZM433.8 115.54C440.23 109.48 449.89 108.23 453.61 117.73C455.08 121.49 454.57 126.06 453.9 130.03C453.89 130.087 453.86 130.138 453.816 130.176C453.772 130.213 453.717 130.234 453.659 130.236C453.601 130.237 453.545 130.218 453.5 130.182C453.454 130.147 453.423 130.097 453.41 130.04C451.33 119.71 438.7 122.76 433.58 128.05C428.39 133.42 427.02 143.48 429.02 150.52C432.48 162.71 447.7 158.48 452.82 150.58C459.307 140.574 461.157 129.657 458.37 117.83C455.72 106.55 444.22 102.56 435.45 110.19C433.91 111.53 433.76 113.38 433.33 115.28C433.197 115.874 433.353 115.96 433.8 115.54Z" fill="#BC2A32"/>
<path d="M319.58 108.05C318.773 110.803 318.72 113.637 319.42 116.55C321.16 123.74 322.53 131.08 324.18 138.32C325.6 144.54 326.85 156.44 318.6 159.16C315.333 160.247 313.217 159.097 312.25 155.71C312.163 155.403 312.193 155.11 312.34 154.83C313.233 153.07 314.707 152.293 316.76 152.5C316.952 152.519 317.138 152.578 317.305 152.673C317.472 152.767 317.617 152.896 317.73 153.05L319.37 155.33C319.468 155.466 319.605 155.567 319.763 155.621C319.921 155.675 320.093 155.677 320.253 155.629C320.414 155.581 320.557 155.484 320.662 155.352C320.767 155.22 320.829 155.058 320.84 154.89C321.51 142.56 309.81 114.79 317.65 106.72C319.95 104.34 325.22 102.71 327.22 106.49C329.28 110.37 322.82 113.65 320.7 108.01C320.657 107.893 320.578 107.794 320.475 107.724C320.372 107.655 320.25 107.62 320.125 107.625C320.001 107.629 319.882 107.673 319.784 107.749C319.686 107.825 319.615 107.931 319.58 108.05Z" fill="black"/>
<path d="M453.61 117.73C449.89 108.23 440.23 109.48 433.8 115.54C433.353 115.96 433.197 115.873 433.33 115.28C433.76 113.38 433.91 111.53 435.45 110.19C444.22 102.56 455.72 106.55 458.37 117.83C461.157 129.656 459.307 140.573 452.82 150.58C447.7 158.48 432.48 162.71 429.02 150.52C427.02 143.48 428.39 133.42 433.58 128.05C438.7 122.76 451.33 119.71 453.41 130.04C453.422 130.096 453.454 130.146 453.5 130.182C453.545 130.217 453.601 130.236 453.659 130.235C453.717 130.234 453.772 130.213 453.816 130.175C453.86 130.138 453.89 130.086 453.9 130.03C454.57 126.06 455.08 121.49 453.61 117.73ZM436.44 132.94C433.62 137.15 430.59 151.5 438.76 152.87C446.6 154.19 454.61 141.32 452.33 134.57C449.97 127.58 440.22 127.27 436.44 132.94Z" fill="black"/>
<path d="M194.25 137.42C192.477 141.32 189.72 143.493 185.98 143.94C171.26 145.69 168.25 121.48 181.34 118.35C186.69 117.06 191.51 119.84 193.71 124.8C193.751 124.889 193.817 124.964 193.9 125.015C193.983 125.067 194.08 125.093 194.176 125.09C194.273 125.086 194.366 125.054 194.444 124.997C194.521 124.94 194.579 124.861 194.61 124.77C196.51 119.383 200.373 116.51 206.2 116.15C206.56 116.13 206.74 116.297 206.74 116.65L206.76 121.23C206.76 121.637 206.56 121.87 206.16 121.93C194.51 123.68 193.53 139.6 206.56 140.02C206.623 140.023 206.684 140.038 206.741 140.064C206.798 140.091 206.848 140.129 206.89 140.175C206.932 140.222 206.964 140.276 206.985 140.336C207.006 140.395 207.014 140.458 207.01 140.52L206.67 145.27C206.643 145.69 206.42 145.877 206 145.83C200.66 145.23 197.02 142.437 195.08 137.45C195.049 137.367 194.994 137.295 194.922 137.243C194.85 137.191 194.764 137.162 194.675 137.159C194.586 137.155 194.499 137.178 194.423 137.225C194.347 137.272 194.287 137.339 194.25 137.42ZM192.07 130.92C192.07 128.92 191.276 127.002 189.862 125.588C188.448 124.174 186.53 123.38 184.53 123.38C182.53 123.38 180.612 124.174 179.198 125.588C177.784 127.002 176.99 128.92 176.99 130.92C176.99 131.91 177.185 132.891 177.564 133.805C177.943 134.72 178.498 135.551 179.198 136.252C179.899 136.952 180.73 137.507 181.645 137.886C182.559 138.265 183.54 138.46 184.53 138.46C185.52 138.46 186.501 138.265 187.415 137.886C188.33 137.507 189.161 136.952 189.862 136.252C190.562 135.551 191.117 134.72 191.496 133.805C191.875 132.891 192.07 131.91 192.07 130.92Z" fill="black"/>
<path d="M192.07 130.92C192.07 131.91 191.875 132.891 191.496 133.805C191.117 134.72 190.562 135.551 189.862 136.251C189.161 136.952 188.33 137.507 187.415 137.886C186.501 138.265 185.52 138.46 184.53 138.46C183.54 138.46 182.559 138.265 181.645 137.886C180.73 137.507 179.899 136.952 179.198 136.251C178.498 135.551 177.943 134.72 177.564 133.805C177.185 132.891 176.99 131.91 176.99 130.92C176.99 128.92 177.784 127.002 179.198 125.588C180.612 124.174 182.53 123.38 184.53 123.38C186.53 123.38 188.448 124.174 189.862 125.588C191.276 127.002 192.07 128.92 192.07 130.92Z" fill="#4CA553"/>
<path d="M436.44 132.94C440.22 127.27 449.97 127.58 452.33 134.57C454.61 141.32 446.6 154.19 438.76 152.87C430.59 151.5 433.62 137.15 436.44 132.94Z" fill="#BC2A32"/>
<path d="M594 349.6V210.13C594 209.897 594.093 209.673 594.258 209.508C594.423 209.343 594.647 209.25 594.88 209.25H621.12C621.353 209.25 621.577 209.343 621.742 209.508C621.907 209.673 622 209.897 622 210.13V349.66C622 349.893 621.907 350.117 621.742 350.282C621.577 350.447 621.353 350.54 621.12 350.54L594.88 350.48C594.647 350.48 594.423 350.387 594.258 350.222C594.093 350.057 594 349.833 594 349.6Z" fill="black"/>
<path d="M113.49 249.63L85.88 349.85C85.823 350.057 85.6982 350.239 85.5247 350.37C85.3513 350.5 85.1389 350.57 84.92 350.57L70.13 350.47C69.53 350.463 69.15 350.17 68.99 349.59L41.69 250.51C41.658 250.385 41.583 250.275 41.4782 250.2C41.3733 250.124 41.2453 250.088 41.1165 250.098C40.9877 250.107 40.8664 250.162 40.7738 250.252C40.6811 250.342 40.6232 250.462 40.61 250.59L28.21 350.07C28.1766 350.357 28.0166 350.5 27.73 350.5H1.07998C0.793317 350.5 0.669984 350.36 0.709984 350.08L20.03 209.7C20.0468 209.576 20.1087 209.462 20.2042 209.38C20.2997 209.297 20.4225 209.251 20.55 209.25H53.26C53.4833 209.249 53.7011 209.323 53.88 209.46C54.0588 209.598 54.1888 209.791 54.25 210.01L77.08 292.73C77.1073 292.822 77.1634 292.903 77.2401 292.961C77.3168 293.019 77.4101 293.051 77.5063 293.052C77.6025 293.054 77.6965 293.024 77.7745 292.968C77.8526 292.911 77.9106 292.832 77.94 292.74L102.68 209.68C102.718 209.556 102.795 209.447 102.9 209.37C103.004 209.293 103.13 209.251 103.26 209.25H134.04C134.264 209.25 134.48 209.331 134.649 209.478C134.818 209.625 134.929 209.828 134.96 210.05L154.21 349.86C154.263 350.287 154.077 350.5 153.65 350.5H127.27C126.95 350.5 126.77 350.34 126.73 350.02C122.997 320.1 119.26 290.177 115.52 260.25C115.073 256.663 114.523 253.13 113.87 249.65C113.86 249.606 113.836 249.566 113.802 249.536C113.767 249.507 113.724 249.489 113.68 249.487C113.636 249.485 113.593 249.498 113.558 249.524C113.524 249.55 113.5 249.587 113.49 249.63Z" fill="black"/>
<path d="M255.09 319.65L246.08 350.12C246.045 350.236 245.974 350.338 245.877 350.41C245.779 350.482 245.661 350.521 245.54 350.52L215.72 350.49C215.631 350.49 215.543 350.469 215.464 350.428C215.385 350.387 215.317 350.328 215.265 350.256C215.213 350.184 215.179 350.1 215.166 350.012C215.153 349.924 215.161 349.834 215.19 349.75L262.7 209.63C262.737 209.519 262.809 209.423 262.904 209.355C262.999 209.287 263.113 209.25 263.23 209.25H295.32C295.437 209.25 295.551 209.287 295.646 209.355C295.741 209.423 295.812 209.519 295.85 209.63L343.26 349.76C343.288 349.844 343.297 349.934 343.284 350.022C343.27 350.11 343.237 350.194 343.185 350.266C343.133 350.338 343.065 350.397 342.986 350.438C342.907 350.479 342.819 350.5 342.73 350.5H312.87C312.749 350.501 312.631 350.462 312.533 350.39C312.436 350.318 312.364 350.216 312.33 350.1L303.41 319.65C303.375 319.534 303.304 319.432 303.207 319.36C303.109 319.288 302.991 319.249 302.87 319.25H255.63C255.509 319.249 255.391 319.288 255.293 319.36C255.196 319.432 255.124 319.534 255.09 319.65ZM261.91 295.84C261.888 295.917 261.885 295.998 261.9 296.077C261.915 296.156 261.948 296.23 261.996 296.294C262.045 296.358 262.107 296.41 262.179 296.445C262.251 296.481 262.33 296.5 262.41 296.5H295.99C296.07 296.5 296.149 296.481 296.221 296.445C296.293 296.41 296.355 296.358 296.404 296.294C296.452 296.23 296.485 296.156 296.5 296.077C296.515 295.998 296.511 295.917 296.49 295.84L279.7 238.96C279.669 238.851 279.603 238.756 279.513 238.688C279.423 238.62 279.313 238.583 279.2 238.583C279.087 238.583 278.977 238.62 278.887 238.688C278.796 238.756 278.731 238.851 278.7 238.96L261.91 295.84Z" fill="black"/>
<path d="M425.77 349.7L425.89 210.07C425.89 209.853 425.976 209.644 426.13 209.49C426.284 209.336 426.493 209.25 426.71 209.25H452.93C453.148 209.25 453.356 209.336 453.51 209.49C453.664 209.644 453.75 209.853 453.75 210.07V325.28C453.75 325.497 453.836 325.706 453.99 325.86C454.144 326.014 454.353 326.1 454.57 326.1L487.68 325.95C487.897 325.95 488.106 326.036 488.26 326.19C488.414 326.344 488.5 326.553 488.5 326.77V349.67C488.5 349.887 488.414 350.096 488.26 350.25C488.106 350.404 487.897 350.49 487.68 350.49L426.59 350.52C426.373 350.52 426.164 350.434 426.01 350.28C425.856 350.126 425.77 349.917 425.77 349.7Z" fill="black"/>
</g>
<defs>
<clipPath id="clip0_2691_30">
<rect width="653" height="351" fill="white"/>
</clipPath>
</defs>
</svg>
