<svg width="52" height="71" viewBox="0 0 52 71" fill="none" xmlns="http://www.w3.org/2000/svg">
<path d="M0.767456 6.02V4.02H1.26746V0.519997H4.80467V0.0199966H6.82327V0.519997H14.8977V0.0199966H16.9163V0.519997H24.9907V0.0199966H27.0093V0.519997H35.0837V0.0199966H37.1023V0.519997H45.1768V0.0199966H47.1954V0.519997H50.7326V4.02H51.2326V6.02H50.7326V14.02H51.2326V16.02H50.7326V24.02H51.2326V26.02H50.7326V34.02H51.2326V36.02H50.7326V44.02H51.2326V46.02H50.7326V54.02H51.2326V56.02H50.7326V64.02H51.2326V66.02H50.7326V69.52H47.1954V70.02H45.1768V69.52H37.1023V70.02H35.0837V69.52H27.0093V70.02H24.9907V69.52H16.9163V70.02H14.8977V69.52H6.82327V70.02H4.80467V69.52H1.26746V66.02H0.767456V64.02H1.26746V56.02H0.767456V54.02H1.26746V46.02H0.767456V44.02H1.26746V36.02H0.767456V34.02H1.26746V26.02H0.767456V24.02H1.26746V16.02H0.767456V14.02H1.26746V6.02H0.767456Z" fill="#98D0B9"/>
<path d="M0.767456 6.02V4.02H1.26746V0.519997H4.80467V0.0199966H6.82327V0.519997H14.8977V0.0199966H16.9163V0.519997H24.9907V0.0199966H27.0093V0.519997H35.0837V0.0199966H37.1023V0.519997H45.1768V0.0199966H47.1954V0.519997H50.7326V4.02H51.2326V6.02H50.7326V14.02H51.2326V16.02H50.7326V24.02H51.2326V26.02H50.7326V34.02H51.2326V36.02H50.7326V44.02H51.2326V46.02H50.7326V54.02H51.2326V56.02H50.7326V64.02H51.2326V66.02H50.7326V69.52H47.1954V70.02H45.1768V69.52H37.1023V70.02H35.0837V69.52H27.0093V70.02H24.9907V69.52H16.9163V70.02H14.8977V69.52H6.82327V70.02H4.80467V69.52H1.26746V66.02H0.767456V64.02H1.26746V56.02H0.767456V54.02H1.26746V46.02H0.767456V44.02H1.26746V36.02H0.767456V34.02H1.26746V26.02H0.767456V24.02H1.26746V16.02H0.767456V14.02H1.26746V6.02H0.767456Z" stroke="black" stroke-dasharray="8 2"/>
<path d="M16.4268 29.4795V31H9.43945C9.42188 30.3848 9.60645 29.6963 9.99316 28.9346C10.3857 28.1729 11.1006 27.2734 12.1377 26.2363C13.3506 25.0293 14.1445 24.0977 14.5195 23.4414C14.8945 22.7793 15.082 22.1641 15.082 21.5957C15.082 20.9395 14.8887 20.4062 14.502 19.9961C14.1211 19.5801 13.6494 19.3721 13.0869 19.3721C12.4834 19.3721 11.9883 19.5947 11.6016 20.04C11.2148 20.4854 11.0215 21.124 11.0215 21.9561L9.68555 21.7891C9.7793 20.5527 10.1279 19.624 10.7314 19.0029C11.3408 18.376 12.1406 18.0625 13.1309 18.0625C14.209 18.0625 15.0234 18.4258 15.5742 19.1523C16.1309 19.8789 16.4092 20.7051 16.4092 21.6309C16.4092 22.4512 16.1924 23.2393 15.7588 23.9951C15.3252 24.7451 14.502 25.7471 13.2891 27.001C12.5156 27.792 12.0146 28.3311 11.7861 28.6182C11.5635 28.9053 11.3818 29.1924 11.2412 29.4795H16.4268ZM25.0049 28.917V25.3838H22.1309V23.9072H25.0049V20.4004H26.2354V23.9072H29.1094V25.3838H26.2354V28.917H25.0049ZM41.4932 29.4795V31H34.5059C34.4883 30.3848 34.6729 29.6963 35.0596 28.9346C35.4521 28.1729 36.167 27.2734 37.2041 26.2363C38.417 25.0293 39.2109 24.0977 39.5859 23.4414C39.9609 22.7793 40.1484 22.1641 40.1484 21.5957C40.1484 20.9395 39.9551 20.4062 39.5684 19.9961C39.1875 19.5801 38.7158 19.3721 38.1533 19.3721C37.5498 19.3721 37.0547 19.5947 36.668 20.04C36.2812 20.4854 36.0879 21.124 36.0879 21.9561L34.752 21.7891C34.8457 20.5527 35.1943 19.624 35.7979 19.0029C36.4072 18.376 37.207 18.0625 38.1973 18.0625C39.2754 18.0625 40.0898 18.4258 40.6406 19.1523C41.1973 19.8789 41.4756 20.7051 41.4756 21.6309C41.4756 22.4512 41.2588 23.2393 40.8252 23.9951C40.3916 24.7451 39.5684 25.7471 38.3555 27.001C37.582 27.792 37.0811 28.3311 36.8525 28.6182C36.6299 28.9053 36.4482 29.1924 36.3076 29.4795H41.4932Z" fill="black"/>
<path d="M19.7871 47.9238H12.8086V46.4473H19.7871V47.9238ZM19.7871 51.835H12.8086V50.3584H19.7871V51.835Z" fill="black"/>
<rect x="29.25" y="42.25" width="10.5" height="12" stroke="black" stroke-width="1.5"/>
</svg>
