<?xml version="1.0" encoding="UTF-8" standalone="no"?>
<!-- Created with Inkscape (http://www.inkscape.org/) -->

<svg
   xmlns:dc="http://purl.org/dc/elements/1.1/"
   xmlns:cc="http://creativecommons.org/ns#"
   xmlns:rdf="http://www.w3.org/1999/02/22-rdf-syntax-ns#"
   xmlns:svg="http://www.w3.org/2000/svg"
   xmlns="http://www.w3.org/2000/svg"
   xmlns:sodipodi="http://sodipodi.sourceforge.net/DTD/sodipodi-0.dtd"
   xmlns:inkscape="http://www.inkscape.org/namespaces/inkscape"
   width="324.96088mm"
   height="100.68987mm"
   viewBox="0 0 1151.4362 356.77513"
   id="svg5080"
   version="1.1"
   inkscape:version="0.91 r13725"
   sodipodi:docname="backCoverNoFonts.svg"
   inkscape:export-filename="X:\dev\b36\artwork\Logos\backCoverWithNoFonts.png"
   inkscape:export-xdpi="299.9368"
   inkscape:export-ydpi="299.9368">
  <defs
     id="defs5082">
    <inkscape:path-effect
       effect="spiro"
       id="path-effect4192"
       is_visible="true" />
  </defs>
  <sodipodi:namedview
     id="base"
     pagecolor="#ffffff"
     bordercolor="#666666"
     borderopacity="1.0"
     inkscape:pageopacity="0.0"
     inkscape:pageshadow="2"
     inkscape:zoom="0.35"
     inkscape:cx="481.85644"
     inkscape:cy="-254.6903"
     inkscape:document-units="px"
     inkscape:current-layer="layer1"
     showgrid="false"
     fit-margin-top="0"
     fit-margin-left="0"
     fit-margin-right="0"
     fit-margin-bottom="0"
     inkscape:window-width="1725"
     inkscape:window-height="1177"
     inkscape:window-x="1192"
     inkscape:window-y="468"
     inkscape:window-maximized="1"
     showguides="false" />
  <metadata
     id="metadata5085">
    <rdf:RDF>
      <cc:Work
         rdf:about="">
        <dc:format>image/svg+xml</dc:format>
        <dc:type
           rdf:resource="http://purl.org/dc/dcmitype/StillImage" />
        <dc:title />
      </cc:Work>
    </rdf:RDF>
  </metadata>
  <g
     inkscape:label="Layer 1"
     inkscape:groupmode="layer"
     id="layer1"
     transform="translate(-301.15543,-117.13021)">
    <path
       sodipodi:nodetypes="ccccccccccccccc"
       inkscape:connector-curvature="0"
       id="path4198"
       d="m 482.81854,-476.23213 c -2.58139,0 -6.33387,0.0547 -10.64245,0.16686 -6.44622,3.80082 -13.78852,5.81385 -21.27083,5.83181 -5.75329,-0.006 -11.44434,-1.19139 -16.72173,-3.48376 -4.72239,0.45444 -9.65977,0.9871 -14.79572,1.61622 0,0 -89.22858,67.59038 -94.93652,83.13537 -2.42035,6.59105 -0.97217,13.7822 2.22083,19.03052 15.46699,1.90666 41.10971,-11.63117 100.05518,-63.80935 l 1.63259,58.65139 66.06815,0 -3.26258,-61.10008 c 28.97398,9.69032 73.10734,82.64257 102.77675,62.49915 -6.5254,-32.64285 -18.76419,-22.51258 -106.03958,-102.48782 0,0 -1.78321,-0.0495 -5.08409,-0.0495 z"
       style="fill:#808080;fill-opacity:1;stroke:none" />
    <path
       d="m 577.67874,234.66166 -1.26809,-1.18837 0,-8.49011 1.26809,-1.1887 q 27.11031,1.35828 41.85447,1.35828 5.54871,0 43.9149,-1.35828 12.36585,-0.33949 17.91515,-0.33949 21.4025,0 33.9268,4.58455 12.5246,4.58423 20.1347,16.30029 7.6098,11.54615 7.6098,26.31858 0,18.84757 -12.6834,34.97829 -12.6828,16.1307 -41.2196,23.09231 17.1218,1.69777 28.2196,4.92404 11.0977,3.22595 19.1832,10.01828 8.0852,6.6218 12.6831,17.31908 4.7564,10.69696 4.7564,24.7904 0,11.03677 -3.171,22.41302 -3.1707,11.37657 -11.732,22.58324 -8.4021,11.20666 -20.451,19.18675 -12.0492,7.9804 -24.7323,11.54615 -12.5243,3.56608 -31.23212,3.56608 -3.80489,0 -22.82936,-0.84889 -21.08586,-0.50971 -22.82968,-0.50971 -10.78079,0 -26.47579,1.3586 l -1.2684,-1.3586 0,-5.60333 1.2684,-1.69809 q 9.19513,-4.41464 10.62201,-6.11241 1.42687,-1.69808 2.21955,-30.05424 0.95115,-28.35584 0.95115,-43.29817 l 0,-62.31533 -0.15879,-38.54372 q 0,-12.56495 -0.31758,-20.37576 -0.31757,-7.9804 -0.95147,-11.37657 -0.47541,-3.39586 -1.74381,-4.75413 -1.26841,-1.3586 -3.64611,-2.20748 -2.21955,-1.01879 -7.76889,-1.69777 l -12.04888,-1.01879 z m 56.91557,89.14332 q 7.92673,0.67898 17.91454,0.67898 32.81781,0 45.65931,-12.56495 12.8416,-12.56494 12.8416,-34.46858 0,-12.73484 -4.9145,-21.56445 -4.9148,-8.99886 -15.5372,-13.75331 -10.4632,-4.75445 -28.53682,-4.75445 -14.74416,0 -26.00037,2.54728 -1.42656,15.2815 -1.42656,53.31615 l 0,30.56333 z m 0.31758,123.78177 q 12.20767,3.05636 25.04923,3.05636 22.67084,0 35.51244,-7.81049 12.8416,-7.81081 18.866,-21.56445 6.1832,-13.92322 6.1832,-30.22351 0,-24.45092 -13.0003,-39.05344 -12.8416,-14.7721 -55.80565,-14.7721 -7.13406,0 -17.12186,0.67898 l 0,57.90069 0.31758,51.78796 z"
       style="font-style:normal;font-variant:normal;font-weight:normal;font-stretch:normal;font-size:medium;line-height:125%;font-family:'Palatino Linotype';-inkscape-font-specification:'Palatino Linotype';letter-spacing:-4.84888411px;word-spacing:0px;fill:#808080;fill-opacity:1;stroke:#808080;stroke-opacity:1"
       id="path4913"
       inkscape:connector-curvature="0" />
    <path
       d="m 814.87536,212.24833 3.0122,2.03757 q -1.7438,19.52688 -1.7438,78.27645 l 0,106.46239 q 0,3.73566 0.6339,24.1111 0.6342,20.20617 1.2687,23.60171 0.7927,3.39617 2.2192,4.92435 1.4269,1.52818 3.488,2.03758 2.061,0.3398 17.1221,1.35828 l 1.4266,1.35827 0,7.13152 -1.2681,1.5285 q -19.8174,-1.3586 -38.2077,-1.3586 -18.2318,0 -38.0493,1.3586 l -1.4268,-1.5285 0,-7.13152 1.4268,-1.35827 q 15.3784,-1.01848 17.2807,-1.52787 2.0611,-0.50939 3.4879,-2.03789 1.5854,-1.69777 2.0611,-4.92404 0.6339,-3.39585 1.2681,-21.90362 0.7927,-18.67799 0.7927,-28.18625 l 0,-87.95462 -0.6339,-35.99739 q -0.4757,-18.84726 -1.1099,-26.14836 -0.4758,-7.30174 -1.4269,-8.66001 -0.9512,-1.35828 -3.3292,-2.03726 -2.378,-0.6793 -19.1832,-0.6793 l -1.4269,-1.52786 0,-7.13184 1.2684,-1.52818 q 30.2807,-3.73566 51.0493,-12.56494 z"
       style="font-style:normal;font-variant:normal;font-weight:normal;font-stretch:normal;font-size:medium;line-height:125%;font-family:'Palatino Linotype';-inkscape-font-specification:'Palatino Linotype';letter-spacing:-4.84888411px;word-spacing:0px;fill:#808080;fill-opacity:1;stroke:#808080;stroke-opacity:1"
       id="path4915"
       inkscape:connector-curvature="0" />
    <path
       d="m 845.97186,385.9504 q 0,-20.20586 7.7683,-38.88354 7.7685,-18.84724 26.9515,-32.43098 19.3417,-13.75363 45.8178,-13.75363 33.2929,0 54.22,22.58292 20.92714,22.41332 20.92714,57.7311 0,38.88352 -24.09784,64.01341 -23.9393,25.12989 -57.8667,25.12989 -22.1952,0 -39.6346,-12.73485 -17.4391,-12.90443 -25.8416,-31.4122 -8.244,-18.50777 -8.244,-40.24212 z m 29.9634,-11.71574 q 0,23.77129 5.7075,42.61887 5.7075,18.67767 18.0737,30.05424 12.3658,11.37594 28.2196,11.37594 18.7075,0 30.9152,-15.7909 12.2076,-15.9608 12.2076,-47.88271 0,-36.16666 -13.3176,-59.25897 -13.1585,-23.09231 -38.0492,-23.09231 -20.6098,0 -32.183,15.9608 -11.5738,15.9611 -11.5738,46.01504 z m 48.0374,-83.03059 0,0 z m -2.378,182.70126 0,0 z"
       style="font-style:normal;font-variant:normal;font-weight:normal;font-stretch:normal;font-size:medium;line-height:125%;font-family:'Palatino Linotype';-inkscape-font-specification:'Palatino Linotype';letter-spacing:-4.84888411px;word-spacing:0px;fill:#808080;fill-opacity:1;stroke:#808080;stroke-opacity:1"
       id="path4917"
       inkscape:connector-curvature="0" />
    <path
       d="m 1008.655,385.9504 q 0,-20.20586 7.7689,-38.88354 7.7683,-18.84724 26.9512,-32.43098 19.3417,-13.75363 45.8175,-13.75363 33.2932,0 54.2203,22.58292 20.9271,22.41332 20.9271,57.7311 0,38.88352 -24.0981,64.01341 -23.939,25.12989 -57.8664,25.12989 -22.1955,0 -39.6343,-12.73485 -17.4394,-12.90443 -25.8422,-31.4122 -8.244,-18.50777 -8.244,-40.24212 z m 29.9641,-11.71574 q 0,23.77129 5.7071,42.61887 5.7075,18.67767 18.0734,30.05424 12.3661,11.37594 28.2199,11.37594 18.7078,0 30.9152,-15.7909 12.2073,-15.9608 12.2073,-47.88271 0,-36.16666 -13.3172,-59.25897 -13.1585,-23.09231 -38.0493,-23.09231 -20.6098,0 -32.1833,15.9608 -11.5731,15.9611 -11.5731,46.01504 z m 48.037,-83.03059 0,0 z m -2.378,182.70126 0,0 z"
       style="font-style:normal;font-variant:normal;font-weight:normal;font-stretch:normal;font-size:medium;line-height:125%;font-family:'Palatino Linotype';-inkscape-font-specification:'Palatino Linotype';letter-spacing:-4.84888411px;word-spacing:0px;fill:#808080;fill-opacity:1;stroke:#808080;stroke-opacity:1"
       id="path4919"
       inkscape:connector-curvature="0" />
    <path
       d="m 1218.9001,301.90104 3.0122,2.20748 q -0.9511,11.20666 -1.2684,26.82765 l 15.0614,-14.7721 q 6.3414,-6.28232 8.4025,-7.98072 2.0607,-1.86767 9.6708,-4.24474 7.6098,-2.37706 16.0126,-2.37706 15.8535,0 27.7442,8.48979 11.89,8.31989 17.5975,23.09231 21.4029,-21.73403 24.8906,-24.1111 3.6464,-2.37707 11.4147,-4.75413 7.7685,-2.54729 15.5368,-2.54729 12.5246,0 22.9881,5.77324 10.4636,5.77292 16.6468,15.11191 6.1826,9.339 7.1341,20.20616 1.1099,10.86655 1.1099,29.88404 l 0,17.82878 q 0,2.88615 0.9508,42.27907 0.3176,16.13102 3.3295,19.18706 3.0122,3.05637 19.5005,3.05637 l 1.2681,1.35827 0,7.30142 -1.2681,1.3586 q -20.1347,-1.3586 -27.2688,-1.3586 -3.9633,0 -22.9881,1.3586 l -2.0611,-1.86799 q 2.0611,-22.07353 2.0611,-57.5612 l 0,-20.37544 q 0,-26.99789 -2.378,-37.69516 -2.378,-10.86685 -11.0978,-17.65888 -8.7197,-6.96161 -20.7686,-6.96161 -8.5609,0 -16.0122,3.73566 -7.4513,3.56576 -13.4758,10.86718 -5.8659,7.13151 -6.5001,13.41382 -0.6342,6.11273 -0.6342,22.75283 l 0,21.22465 q 0,7.471 0.6342,28.01634 0.6342,20.54535 1.2684,23.94152 0.7923,3.39585 2.2195,4.92372 1.585,1.35859 3.4876,1.86799 2.0611,0.3398 17.1222,1.35828 l 1.4269,1.35827 0,7.13152 -1.2684,1.5285 q -19.8171,-1.3586 -38.2078,-1.3586 -16.9637,0 -38.0492,1.3586 l -1.4266,-1.5285 0,-7.13152 1.4266,-1.35827 q 15.3783,-1.01848 17.2806,-1.52787 2.0614,-0.50939 3.488,-2.03789 1.5856,-1.69777 2.061,-4.92404 0.6342,-3.39585 1.2684,-21.90362 0.7927,-18.67799 0.7927,-28.18625 l 0,-19.35697 q 0,-19.18708 -2.5365,-29.54486 -2.3783,-10.35714 -10.4635,-17.48897 -8.0858,-7.13152 -20.2929,-7.13152 -9.5124,0 -17.4394,4.07547 -7.7683,3.90493 -12.8416,9.84776 -4.9148,5.77322 -6.1832,10.86716 -1.1099,5.09394 -1.1099,22.07354 l 0,25.13021 q 0,7.471 0.6345,28.01634 0.6342,20.54535 1.2681,23.94152 0.7926,3.39585 2.2195,4.92372 1.5854,1.35859 3.488,1.86799 2.061,0.3398 17.1222,1.35828 l 1.4268,1.35827 0,7.13152 -1.2684,1.5285 q -19.8171,-1.3586 -38.2077,-1.3586 -18.2321,0 -38.0493,1.3586 l -1.4268,-1.5285 0,-7.13152 1.4268,-1.35827 q 15.3784,-1.01848 17.2807,-1.52787 2.0611,-0.50939 3.4879,-2.03789 1.5857,-1.69777 2.0608,-4.92404 0.6345,-3.39585 1.2687,-21.90362 0.7927,-18.67799 0.7927,-28.18625 l 0,-33.45011 q 0,-6.79171 -0.6345,-18.50777 -0.6339,-11.71605 -1.1096,-14.43292 -0.3176,-2.71656 -2.3781,-3.90525 -2.061,-1.35859 -8.2439,-1.35859 l -13.3173,-0.1715 -1.4269,-1.35827 0,-7.30142 1.2684,-1.3586 q 30.2807,-3.90493 51.0493,-12.73453 z"
       style="font-style:normal;font-variant:normal;font-weight:normal;font-stretch:normal;font-size:medium;line-height:125%;font-family:'Palatino Linotype';-inkscape-font-specification:'Palatino Linotype';letter-spacing:-4.84888411px;word-spacing:0px;fill:#808080;fill-opacity:1;stroke:#808080;stroke-opacity:1"
       id="path4921"
       inkscape:connector-curvature="0" />
    <path
       style="fill:#808080;fill-opacity:1;stroke:none"
       d="m 452.81854,200.91074 c -2.58139,0 -6.33387,0.0547 -10.64245,0.16686 -6.44622,3.80082 -13.78852,5.81385 -21.27083,5.83181 -5.75329,-0.006 -11.44434,-1.19139 -16.72173,-3.48376 -4.72239,0.45444 -9.65977,0.9871 -14.79572,1.61622 0,0 -76.60167,68.09546 -82.30961,83.64045 -2.42035,6.59105 -6.52801,18.83296 -3.33501,24.08128 15.46699,1.90666 34.03864,-17.18701 92.98411,-69.36519 l 1.63259,58.65139 66.06815,0 -3.26258,-61.10008 c 0,0 51.87595,67.19208 81.2399,68.82445 l 7.25114,-12.03959 c -6.5254,-32.64285 -4.47848,-16.79829 -91.75387,-96.77353 0,0 -1.78321,-0.0495 -5.08409,-0.0495 z"
       id="path4857"
       inkscape:connector-curvature="0"
       sodipodi:nodetypes="cccccccccccccccc" />
    <ellipse
       style="fill:#808080;fill-opacity:1;stroke:none;stroke-width:3.06918955;stroke-miterlimit:4;stroke-dasharray:none;stroke-opacity:1"
       id="circle5750"
       inkscape:export-filename="C:\dev\Bloom\artwork\LogoAgainstDark276x100.png"
       inkscape:export-xdpi="67.648125"
       inkscape:export-ydpi="67.648125"
       cx="421.26996"
       cy="159.24574"
       rx="42.094135"
       ry="42.115536" />
    <g
       transform="matrix(3.1757731,0,0,3.1757729,721.90006,-280.60368)"
       id="text4939-0-5-9-6-1-6-3-7-2-0"
       style="font-style:normal;font-variant:normal;font-weight:normal;font-stretch:normal;font-size:40.59825134px;line-height:125%;font-family:'Freestyle Script';-inkscape-font-specification:'Freestyle Script';letter-spacing:0px;word-spacing:0px;fill:#808080;fill-opacity:1;stroke:none">
      <path
         inkscape:connector-curvature="0"
         id="path4960"
         style="font-style:normal;font-variant:normal;font-weight:normal;font-stretch:normal;font-size:37.4149971px;line-height:125%;font-family:'Freestyle Script';-inkscape-font-specification:'Freestyle Script';text-align:start;writing-mode:lr-tb;text-anchor:start;fill:#808080;fill-opacity:1;stroke:none"
         d="m 35.061042,178.0836 q 0.493264,-0.14615 0.730762,-0.21923 4.220148,-1.2971 6.047053,-1.2971 1.370178,0 1.370178,1.02306 0,0.40192 -0.310574,0.7125 -0.310574,0.31057 -0.694224,0.31057 -0.18269,0 -0.529802,-0.0548 -0.292305,-0.0548 -0.474995,-0.0548 -1.077873,0 -2.831701,0.49326 -0.639417,0.20096 -2.466321,1.02307 -1.224026,0.54807 -2.009595,0.54807 -0.56634,0 -0.931721,-0.5298 -0.347111,-0.49327 -0.347111,-1.04134 0,-0.67595 0.74903,-2.28363 2.28363,-4.96918 4.896103,-8.91529 3.745154,-5.66341 5.809556,-8.31242 0.56634,-0.71249 1.13268,-1.44325 0.895183,-1.20576 1.552869,-1.20576 0.328842,0 0.584609,0.25577 0.237498,0.25577 0.237498,0.5298 0,0.40192 -0.621148,1.2423 -0.127883,0.16442 -1.51633,1.99132 -2.594204,3.41631 -3.873037,5.22495 -1.260564,1.80863 -2.703818,4.18361 -2.831702,4.6586 -3.799961,7.81915 z" />
      <path
         inkscape:connector-curvature="0"
         id="path4962"
         style="font-style:normal;font-variant:normal;font-weight:normal;font-stretch:normal;font-size:37.4149971px;line-height:125%;font-family:'Freestyle Script';-inkscape-font-specification:'Freestyle Script';text-align:start;writing-mode:lr-tb;text-anchor:start;fill:#808080;fill-opacity:1;stroke:none"
         d="m 46.004198,176.11054 0,0.32884 q 0,0.40192 0.200959,0.69423 0.456726,0.67595 1.498062,0.67595 2.28363,0 5.279753,-3.50765 0.529802,-0.60288 0.895183,-0.60288 0.200959,0 0.36538,0.20096 0.109615,0.14615 0.109615,0.27403 0,0.7125 -1.753828,2.41152 -1.370178,1.33364 -2.923047,2.17401 -1.552869,0.84038 -2.886509,0.84038 -1.370178,0 -2.155746,-0.94999 -0.529803,-0.65769 -0.529803,-1.79037 0,-3.08747 2.904778,-6.04705 2.356706,-2.41151 4.110534,-2.41151 0.474995,0 0.858645,0.2923 0.474995,0.38365 0.474995,1.0048 0,0.96826 -0.895183,2.37497 -1.845173,2.92305 -5.553788,4.03746 z m 0.401919,-1.42498 q 1.278832,-0.43846 2.009594,-0.98653 1.278833,-0.98653 2.027864,-2.22883 0.274035,-0.43845 0.274035,-0.78556 0,-0.36539 -0.347111,-0.36539 -0.474995,0 -1.351909,0.7125 -1.571138,1.26056 -2.612473,3.65381 z" />
      <path
         inkscape:connector-curvature="0"
         id="path4964"
         style="font-style:normal;font-variant:normal;font-weight:normal;font-stretch:normal;font-size:37.4149971px;line-height:125%;font-family:'Freestyle Script';-inkscape-font-specification:'Freestyle Script';text-align:start;writing-mode:lr-tb;text-anchor:start;fill:#808080;fill-opacity:1;stroke:none"
         d="m 61.569421,167.85293 q -1.187488,1.84518 -2.192285,4.12881 -1.443254,3.25189 -1.443254,4.85956 0,0.45673 0.18269,0.69423 0.20096,0.23749 0.58461,0.23749 0.913452,0 2.210554,-1.71729 0.822107,-1.0596 1.461523,-2.1192 0.347112,-0.60288 0.749031,-0.60288 0.237497,0 0.401919,0.16442 0.146152,0.16442 0.146152,0.32884 0,0.67596 -1.772097,3.01439 -2.119209,2.81344 -3.873037,2.81344 -0.931721,0 -1.552868,-0.85865 -0.38365,-0.54807 -0.38365,-1.55287 0,-2.21055 1.278833,-5.15187 0.310573,-0.73076 1.71729,-3.52592 -0.493265,0.12788 -0.749031,0.12788 -0.38365,0 -0.675955,-0.18269 -0.401919,-0.25577 -0.401919,-0.63942 0,-0.45672 0.529803,-0.73076 0.146152,-0.0731 1.351909,-0.2375 0.438457,-0.0731 1.278833,-0.34711 0.639416,-1.15095 2.08267,-3.124 0.803838,-1.09615 1.114412,-1.42499 0.438457,-0.45672 0.7673,-0.45672 0.237497,0 0.474995,0.25576 0.219228,0.2375 0.219228,0.475 0,0.47499 -1.023066,1.88171 -0.675955,0.91345 -1.004797,1.47979 2.027863,-0.54807 2.904777,-0.54807 1.004797,0 1.004797,0.84038 0,0.42018 -0.347111,0.62114 -0.182691,0.10962 -0.949991,0.18269 -0.310573,-0.0183 -2.758625,0.69423 -0.675954,0.20096 -1.33364,0.42018 z" />
      <path
         inkscape:connector-curvature="0"
         id="path4966"
         style="font-style:normal;font-variant:normal;font-weight:normal;font-stretch:normal;font-size:37.4149971px;line-height:125%;font-family:'Freestyle Script';-inkscape-font-specification:'Freestyle Script';text-align:start;writing-mode:lr-tb;text-anchor:start;fill:#808080;fill-opacity:1;stroke:none"
         d="m 75.344277,155.81364 q 0.255767,0 0.456726,0.14615 0.310574,0.2375 0.310574,0.63941 0,0.78557 -2.174016,4.95092 -0.7673,1.46152 -1.169219,1.79036 -0.292304,0.2375 -0.56634,0.2375 -0.639416,0 -0.639416,-0.85865 0,-0.5298 0.657685,-1.79036 1.589407,-3.25189 1.71729,-3.599 0.584609,-1.51633 1.406716,-1.51633 z" />
      <path
         inkscape:connector-curvature="0"
         id="path4968"
         style="font-style:normal;font-variant:normal;font-weight:normal;font-stretch:normal;font-size:37.4149971px;line-height:125%;font-family:'Freestyle Script';-inkscape-font-specification:'Freestyle Script';text-align:start;writing-mode:lr-tb;text-anchor:start;fill:#808080;fill-opacity:1;stroke:none"
         d="m 77.079838,167.48755 q 1.13268,0 1.699021,0.40192 0.56634,0.40192 0.56634,1.22403 0,1.07787 -0.803838,2.08267 -0.7673,0.94999 -2.301899,1.5346 -0.840376,0.31057 -1.406716,0.31057 -0.7673,0 -0.7673,-0.67595 0,-0.45673 0.438457,-0.69423 0.109614,-0.0548 1.242295,-0.31057 0.675954,-0.14615 1.242294,-0.63942 0.493265,-0.42018 0.493265,-0.91345 0,-0.38365 -0.219229,-0.56634 -0.219228,-0.18269 -0.657685,-0.18269 -1.059605,0 -2.338438,0.85865 -1.479792,0.96826 -1.479792,2.3019 0,0.94999 0.968259,2.37497 1.077874,1.55287 1.077874,2.63074 0,1.60768 -1.424986,2.52113 -0.876914,0.56634 -1.991325,0.56634 -1.753828,0 -2.66728,-1.26056 -0.639417,-0.89519 -0.639417,-2.11921 0,-1.42499 0.730762,-2.39325 0.474995,-0.63941 0.986528,-0.63941 0.456726,0 0.456726,0.36538 0,0.14615 -0.164421,0.43845 -0.420188,0.78557 -0.420188,1.84518 0,0.89518 0.639416,1.51633 0.566341,0.54807 1.297102,0.54807 0.712493,0 1.114412,-0.475 0.328843,-0.40191 0.328843,-1.02306 0,-0.7673 -0.876914,-1.99133 -1.205757,-1.68075 -1.205757,-3.05093 0,-1.8269 1.991325,-3.23362 1.936519,-1.35191 4.092266,-1.35191 z" />
      <path
         inkscape:connector-curvature="0"
         id="path4970"
         style="font-style:normal;font-variant:normal;font-weight:normal;font-stretch:normal;font-size:37.4149971px;line-height:125%;font-family:'Freestyle Script';-inkscape-font-specification:'Freestyle Script';text-align:start;writing-mode:lr-tb;text-anchor:start;fill:#808080;fill-opacity:1;stroke:none"
         d="m 93.01044,178.04706 q 1.954788,-1.42499 2.904778,-2.5942 1.406716,-1.69903 1.991325,-2.75863 0.292305,-0.47499 0.602879,-0.47499 0.438457,0 0.438457,0.42018 0,0.49327 -0.694224,1.64422 -2.155747,3.50765 -6.467241,6.12013 -2.009594,4.20188 -2.959584,5.69994 -2.521128,3.94611 -4.749951,3.94611 -1.169219,0 -1.680752,-0.91345 -0.292305,-0.5298 -0.292305,-1.20576 0,-2.86824 3.690347,-5.49898 0.584609,-0.43846 4.731682,-2.74036 0.803837,-1.69902 1.242294,-2.66728 -1.918249,2.0096 -3.178813,2.0096 -0.785569,0 -1.224026,-0.80384 -0.274035,-0.5298 -0.274035,-1.09614 0,-1.31537 1.077873,-3.37978 1.5346,-2.97785 3.690347,-4.71341 1.808635,-1.44325 3.197082,-1.44325 0.712492,0 1.224026,0.5298 0.347111,0.34711 0.347111,1.02307 0,0.84037 -0.56634,2.08267 0.420188,0.40192 0.420188,0.60288 0,0.12788 -0.18269,0.36538 -0.493264,0.67595 -1.589407,2.53939 -0.968259,1.62595 -1.699021,3.3067 z m -0.127883,-4.22015 q -0.255767,-0.27403 -0.255767,-0.38365 0,-0.16442 0.274036,-0.42019 0.913452,-0.87691 1.479792,-1.8269 0.456726,-0.74903 0.456726,-1.16922 0,-0.49326 -0.456726,-0.49326 -0.785568,0 -2.247092,1.49806 -1.735559,1.77209 -2.703818,3.96438 -0.474995,1.09614 -0.474995,1.68075 0,0.32884 0.146152,0.49327 0.146153,0.16442 0.420188,0.16442 0.639417,0 1.790366,-1.31537 0.730762,-0.84038 1.242295,-1.64422 0.347112,-0.5298 0.328843,-0.54807 z m -3.452849,7.98357 q -2.411513,1.02307 -4.256687,3.10574 -0.858645,0.96826 -1.224025,2.04613 -0.109615,0.32884 -0.109615,0.54807 0,0.2375 0.109615,0.42019 0.200959,0.32884 0.56634,0.32884 1.13268,0 2.649011,-2.42978 1.315371,-2.10094 2.265361,-4.01919 z" />
      <path
         inkscape:connector-curvature="0"
         id="path4972"
         style="font-style:normal;font-variant:normal;font-weight:normal;font-stretch:normal;font-size:37.4149971px;line-height:125%;font-family:'Freestyle Script';-inkscape-font-specification:'Freestyle Script';text-align:start;writing-mode:lr-tb;text-anchor:start;fill:#808080;fill-opacity:1;stroke:none"
         d="m 102.41899,173.60768 q 1.79037,-1.91825 4.12881,-3.74515 0.84037,-0.65769 1.79036,-1.22403 0.475,-0.27403 0.60288,-0.27403 0.27404,0 0.54807,0.40192 0.16442,0.21922 0.16442,0.40192 0,0.32884 -0.69422,0.89518 -1.86344,1.47979 -1.86344,2.22882 0,0.42019 0.47499,0.42019 0.78557,0 2.70382,-1.2971 0.32884,-0.21923 0.54807,-0.21923 0.14616,0 0.29231,0.14615 0.16442,0.16442 0.16442,0.34711 0,0.54807 -1.5346,1.68075 -1.60768,1.20576 -3.05093,1.20576 -0.58461,0 -1.07787,-0.31057 -0.42019,-0.25577 -0.42019,-0.91345 0,-0.45673 0.38365,-1.04134 -1.44326,1.02307 -3.39804,3.50766 -1.13268,1.5346 -2.247095,3.78169 -0.420188,0.84037 -1.041336,0.84037 -0.675954,0 -0.675954,-0.63941 0,-0.62115 1.059604,-3.32497 1.571141,-4.01919 3.288431,-6.22974 1.0596,-1.37018 1.77209,-1.37018 0.2375,0 0.43846,0.14615 0.2375,0.18269 0.2375,0.45673 0,0.27403 -0.36538,0.7673 -0.0731,0.0913 -0.96826,1.22402 -0.82211,1.07788 -1.26057,2.13748 z" />
      <path
         inkscape:connector-curvature="0"
         id="path4974"
         style="font-style:normal;font-variant:normal;font-weight:normal;font-stretch:normal;font-size:37.4149971px;line-height:125%;font-family:'Freestyle Script';-inkscape-font-specification:'Freestyle Script';text-align:start;writing-mode:lr-tb;text-anchor:start;fill:#808080;fill-opacity:1;stroke:none"
         d="m 117.54577,167.83467 q 1.49806,0 1.49806,1.8269 0,2.42978 -2.24709,6.15667 -2.44806,4.03745 -4.73169,4.03745 -1.0596,0 -1.55287,-0.98652 -0.25576,-0.49327 -0.25576,-1.18749 0,-2.33844 1.60767,-5.07879 1.49807,-2.5394 3.52593,-3.94612 1.18749,-0.8221 2.15575,-0.8221 z m -1.89998,6.90569 q -0.45673,-0.36538 -0.45673,-0.56634 0,-0.14615 0.58461,-0.80384 1.64421,-1.84517 1.64421,-2.97785 0,-0.14615 -0.0913,-0.2923 -0.14615,-0.27404 -0.45673,-0.27404 -0.58461,0 -1.71729,1.13268 -1.46152,1.46152 -2.22882,3.01439 -0.89518,1.7721 -0.89518,2.94132 0,0.31057 0.16442,0.54807 0.23749,0.32884 0.60288,0.32884 0.87691,0 1.88171,-1.31537 0.43845,-0.54807 0.71249,-1.13268 0.27403,-0.58461 0.25577,-0.60288 z" />
      <path
         inkscape:connector-curvature="0"
         id="path4976"
         style="font-style:normal;font-variant:normal;font-weight:normal;font-stretch:normal;font-size:37.4149971px;line-height:125%;font-family:'Freestyle Script';-inkscape-font-specification:'Freestyle Script';text-align:start;writing-mode:lr-tb;text-anchor:start;fill:#808080;fill-opacity:1;stroke:none"
         d="m 125.47453,174.52113 q -1.57114,2.11921 -2.32017,2.92305 -0.93172,1.0048 -1.60768,1.5346 -0.7673,0.56634 -1.42498,0.56634 -0.63942,0 -0.98653,-0.63942 -0.27403,-0.49326 -0.27403,-1.09614 0,-1.99132 2.37497,-5.48071 2.15575,-3.16054 3.19708,-3.16054 0.25577,0 0.49327,0.23749 0.21923,0.21923 0.21923,0.51154 0,0.40191 -0.7125,1.11441 -1.51633,1.49806 -2.63074,3.37977 -0.94999,1.60768 -0.94999,2.10094 0,0.36538 0.32884,0.36538 1.09615,0 4.74995,-4.74995 1.18749,-1.5346 1.44326,-1.7721 0.47499,-0.43845 0.96826,-0.43845 0.32884,0 0.56634,0.18269 0.20096,0.18269 0.20096,0.38365 0,0.21922 -0.87692,1.84517 -1.99132,3.50766 -1.99132,4.73168 0,0.475 0.38365,0.475 0.65768,0 1.80863,-1.51633 1.09615,-1.42499 2.02787,-3.61727 0.40192,-0.94999 0.71249,-2.50286 0.36538,-1.7721 1.46152,-1.7721 0.62115,0 0.62115,0.69422 0,2.39325 -2.66728,6.57686 -2.77689,4.3663 -4.67687,4.3663 -1.40672,0 -1.40672,-1.73556 0,-1.42498 0.96826,-3.50766 z" />
      <path
         inkscape:connector-curvature="0"
         id="path4978"
         style="font-style:normal;font-variant:normal;font-weight:normal;font-stretch:normal;font-size:37.4149971px;line-height:125%;font-family:'Freestyle Script';-inkscape-font-specification:'Freestyle Script';text-align:start;writing-mode:lr-tb;text-anchor:start;fill:#808080;fill-opacity:1;stroke:none"
         d="m 148.01853,176.60381 q -0.60288,1.0596 -1.18749,1.79036 -1.15095,1.42499 -2.28363,1.42499 -0.98653,0 -1.5346,-0.93172 -0.34711,-0.60288 -0.34711,-1.42499 0,-2.02786 1.27883,-4.47591 1.42498,-2.72209 3.43458,-4.18362 1.31537,-0.94999 2.5394,-0.94999 0.7673,0 1.27883,0.475 0.43846,0.42019 0.43846,0.94999 0,0.40192 -0.31058,1.11441 0.27404,0.38365 0.27404,0.67596 0,0.38365 -0.51154,1.26056 -0.5298,0.89518 -1.0596,2.37497 -0.56634,1.57114 -0.56634,2.52113 0,0.7673 0.45673,1.26057 0.12788,0.12788 0.74903,0.42018 0.45672,0.21923 0.45672,0.7673 0,0.34712 -0.25576,0.56634 -0.27404,0.2375 -0.63942,0.2375 -0.98653,0 -1.69902,-0.87691 -0.58461,-0.71249 -0.58461,-1.79037 0,-0.36538 0.0731,-1.20575 z m 2.28363,-6.01052 q -0.21923,-0.40192 -0.475,-0.58461 -0.25577,-0.20096 -0.54807,-0.20096 -1.38845,0 -3.01439,2.42978 -1.79037,2.68555 -1.79037,4.549 0,0.45672 0.16442,0.69422 0.18269,0.2375 0.5298,0.2375 0.87692,0 2.04614,-1.86345 0.65768,-1.02306 1.62594,-3.01439 0.63942,-1.2971 0.93172,-1.71729 0.14616,-0.21923 0.52981,-0.5298 z" />
      <path
         inkscape:connector-curvature="0"
         id="path4980"
         style="font-style:normal;font-variant:normal;font-weight:normal;font-stretch:normal;font-size:37.4149971px;line-height:125%;font-family:'Freestyle Script';-inkscape-font-specification:'Freestyle Script';text-align:start;writing-mode:lr-tb;text-anchor:start;fill:#808080;fill-opacity:1;stroke:none"
         d="m 164.71643,173.55288 q -0.54807,1.42498 -0.8221,2.30189 -0.27404,0.87692 -0.27404,1.22403 0,0.45673 0.43846,0.45673 0.65768,0 1.69902,-1.2423 0.49326,-0.60288 1.46152,-2.17401 0.38365,-0.62115 0.80384,-0.62115 0.47499,0 0.47499,0.45672 0,0.78557 -1.80863,3.17882 -1.88171,2.50286 -3.48939,2.50286 -0.69422,0 -1.13268,-0.58461 -0.31057,-0.42019 -0.31057,-1.02307 0,-1.02307 0.62115,-2.8317 0.62114,-1.80864 1.84517,-4.40284 3.14227,-6.59512 6.41243,-10.87008 2.61248,-3.43458 4.32977,-3.43458 0.54807,0 0.89518,0.42019 0.36538,0.42019 0.36538,0.96826 0,2.55766 -4.56726,8.51337 -2.04613,2.64901 -4.8961,5.29802 -0.74903,0.69423 -2.04614,1.86345 z m 1.29711,-2.90478 q 3.79996,-3.25189 6.79608,-8.22107 1.55287,-2.57594 1.55287,-3.41631 0,-0.40192 -0.34711,-0.40192 -1.0048,0 -3.65381,4.00092 -2.19229,3.28843 -4.34803,8.03838 z" />
      <path
         inkscape:connector-curvature="0"
         id="path4982"
         style="font-style:normal;font-variant:normal;font-weight:normal;font-stretch:normal;font-size:37.4149971px;line-height:125%;font-family:'Freestyle Script';-inkscape-font-specification:'Freestyle Script';text-align:start;writing-mode:lr-tb;text-anchor:start;fill:#808080;fill-opacity:1;stroke:none"
         d="m 174.61825,168.67504 q 0.31057,0 0.51153,0.2375 0.14616,0.20096 0.14616,0.40192 0,0.32884 -0.52981,1.09614 -1.89998,2.94132 -2.70382,4.8413 -0.85864,1.95478 -1.51633,4.01919 -0.2923,0.91345 -0.91345,0.91345 -0.36538,0 -0.58461,-0.29231 -0.20096,-0.23749 -0.20096,-0.51153 0,-0.54807 1.16922,-3.65381 0.91345,-2.44805 2.95959,-5.40764 0.65768,-0.96825 0.98652,-1.2971 0.32885,-0.34711 0.67596,-0.34711 z m 3.47112,-6.77781 q 0.8221,0 0.8221,0.84037 0,0.7673 -0.80383,1.69902 -0.7673,0.89519 -1.4798,0.89519 -0.34711,0 -0.56634,-0.25577 -0.21922,-0.2375 -0.21922,-0.58461 0,-0.87691 0.96825,-1.86344 0.7125,-0.73076 1.27884,-0.73076 z" />
      <path
         inkscape:connector-curvature="0"
         id="path4984"
         style="font-style:normal;font-variant:normal;font-weight:normal;font-stretch:normal;font-size:37.4149971px;line-height:125%;font-family:'Freestyle Script';-inkscape-font-specification:'Freestyle Script';text-align:start;writing-mode:lr-tb;text-anchor:start;fill:#808080;fill-opacity:1;stroke:none"
         d="m 180.04415,170.02695 q 1.55287,-1.31537 2.79517,-1.31537 0.7673,0 1.26056,0.63942 0.45673,0.56634 0.45673,1.31537 0,1.42498 -0.93173,3.45285 -1.04133,2.24709 -3.01439,4.18361 -1.62594,1.60767 -3.10573,1.60767 -0.54808,0 -1.0048,-0.20096 -0.43846,-0.20096 -0.78557,-0.60288 -0.14615,0.25577 -0.18269,0.32885 -0.31057,0.67595 -0.42019,0.8221 -0.12788,0.14616 -0.38365,0.14616 -0.32884,0 -0.62115,-0.38365 -0.20096,-0.25577 -0.20096,-0.54808 0,-0.51153 2.10094,-5.17013 2.94132,-6.50378 6.81436,-12.93449 1.57113,-2.63074 1.91825,-3.08746 0.38365,-0.54807 0.71249,-0.54807 0.40192,0 0.71249,0.40191 0.20096,0.25577 0.20096,0.60288 0,0.38365 -0.34711,0.96826 -0.0731,0.12789 -1.15095,1.88171 -3.3067,5.11533 -4.82303,8.4403 z m -3.63554,7.36242 q 0.27404,0.36538 0.54807,0.54808 0.29231,0.18269 0.60288,0.18269 1.58941,0 3.36151,-2.75863 0.8221,-1.24229 1.2971,-2.46632 0.42019,-1.09614 0.42019,-1.62594 0,-0.36539 -0.16442,-0.52981 -0.16443,-0.18269 -0.51154,-0.18269 -0.84037,0 -2.02786,1.15095 -1.18749,1.13268 -2.33844,3.27016 -0.54807,1.02307 -0.94999,1.91825 -0.2375,0.49326 -0.2375,0.49326 z" />
      <path
         inkscape:connector-curvature="0"
         id="path4986"
         style="font-style:normal;font-variant:normal;font-weight:normal;font-stretch:normal;font-size:37.4149971px;line-height:125%;font-family:'Freestyle Script';-inkscape-font-specification:'Freestyle Script';text-align:start;writing-mode:lr-tb;text-anchor:start;fill:#808080;fill-opacity:1;stroke:none"
         d="m 188.57579,173.60768 q 1.79037,-1.91825 4.12881,-3.74515 0.84037,-0.65769 1.79036,-1.22403 0.475,-0.27403 0.60288,-0.27403 0.27404,0 0.54807,0.40192 0.16442,0.21922 0.16442,0.40192 0,0.32884 -0.69422,0.89518 -1.86344,1.47979 -1.86344,2.22882 0,0.42019 0.47499,0.42019 0.78557,0 2.70382,-1.2971 0.32884,-0.21923 0.54807,-0.21923 0.14616,0 0.29231,0.14615 0.16442,0.16442 0.16442,0.34711 0,0.54807 -1.5346,1.68075 -1.60768,1.20576 -3.05093,1.20576 -0.58461,0 -1.07787,-0.31057 -0.42019,-0.25577 -0.42019,-0.91345 0,-0.45673 0.38365,-1.04134 -1.44326,1.02307 -3.39804,3.50766 -1.13268,1.5346 -2.2471,3.78169 -0.42018,0.84037 -1.04133,0.84037 -0.67596,0 -0.67596,-0.63941 0,-0.62115 1.05961,-3.32497 1.57114,-4.01919 3.28843,-6.22974 1.0596,-1.37018 1.77209,-1.37018 0.2375,0 0.43846,0.14615 0.2375,0.18269 0.2375,0.45673 0,0.27403 -0.36538,0.7673 -0.0731,0.0913 -0.96826,1.22402 -0.82211,1.07788 -1.26057,2.13748 z" />
      <path
         inkscape:connector-curvature="0"
         id="path4988"
         style="font-style:normal;font-variant:normal;font-weight:normal;font-stretch:normal;font-size:37.4149971px;line-height:125%;font-family:'Freestyle Script';-inkscape-font-specification:'Freestyle Script';text-align:start;writing-mode:lr-tb;text-anchor:start;fill:#808080;fill-opacity:1;stroke:none"
         d="m 202.02181,176.60381 q -0.60288,1.0596 -1.18748,1.79036 -1.15095,1.42499 -2.28363,1.42499 -0.98653,0 -1.5346,-0.93172 -0.34712,-0.60288 -0.34712,-1.42499 0,-2.02786 1.27884,-4.47591 1.42498,-2.72209 3.43458,-4.18362 1.31537,-0.94999 2.53939,-0.94999 0.7673,0 1.27884,0.475 0.43845,0.42019 0.43845,0.94999 0,0.40192 -0.31057,1.11441 0.27404,0.38365 0.27404,0.67596 0,0.38365 -0.51154,1.26056 -0.5298,0.89518 -1.0596,2.37497 -0.56634,1.57114 -0.56634,2.52113 0,0.7673 0.45672,1.26057 0.12789,0.12788 0.74903,0.42018 0.45673,0.21923 0.45673,0.7673 0,0.34712 -0.25577,0.56634 -0.27403,0.2375 -0.63941,0.2375 -0.98653,0 -1.69902,-0.87691 -0.58461,-0.71249 -0.58461,-1.79037 0,-0.36538 0.0731,-1.20575 z m 2.28363,-6.01052 q -0.21922,-0.40192 -0.47499,-0.58461 -0.25577,-0.20096 -0.54807,-0.20096 -1.38845,0 -3.01439,2.42978 -1.79037,2.68555 -1.79037,4.549 0,0.45672 0.16442,0.69422 0.18269,0.2375 0.5298,0.2375 0.87692,0 2.04614,-1.86345 0.65768,-1.02306 1.62594,-3.01439 0.63942,-1.2971 0.93172,-1.71729 0.14615,-0.21923 0.5298,-0.5298 z" />
      <path
         inkscape:connector-curvature="0"
         id="path4990"
         style="font-style:normal;font-variant:normal;font-weight:normal;font-stretch:normal;font-size:37.4149971px;line-height:125%;font-family:'Freestyle Script';-inkscape-font-specification:'Freestyle Script';text-align:start;writing-mode:lr-tb;text-anchor:start;fill:#808080;fill-opacity:1;stroke:none"
         d="m 209.69481,173.60768 q 1.79037,-1.91825 4.12881,-3.74515 0.84037,-0.65769 1.79036,-1.22403 0.475,-0.27403 0.60288,-0.27403 0.27404,0 0.54807,0.40192 0.16442,0.21922 0.16442,0.40192 0,0.32884 -0.69422,0.89518 -1.86344,1.47979 -1.86344,2.22882 0,0.42019 0.47499,0.42019 0.78557,0 2.70382,-1.2971 0.32884,-0.21923 0.54807,-0.21923 0.14615,0 0.29231,0.14615 0.16442,0.16442 0.16442,0.34711 0,0.54807 -1.5346,1.68075 -1.60768,1.20576 -3.05093,1.20576 -0.58461,0 -1.07788,-0.31057 -0.42018,-0.25577 -0.42018,-0.91345 0,-0.45673 0.38365,-1.04134 -1.44326,1.02307 -3.39805,3.50766 -1.13268,1.5346 -2.24709,3.78169 -0.42019,0.84037 -1.04133,0.84037 -0.67596,0 -0.67596,-0.63941 0,-0.62115 1.05961,-3.32497 1.57113,-4.01919 3.28842,-6.22974 1.05961,-1.37018 1.7721,-1.37018 0.2375,0 0.43846,0.14615 0.2375,0.18269 0.2375,0.45673 0,0.27403 -0.36538,0.7673 -0.0731,0.0913 -0.96826,1.22402 -0.82211,1.07788 -1.26057,2.13748 z" />
      <path
         inkscape:connector-curvature="0"
         id="path4992"
         style="font-style:normal;font-variant:normal;font-weight:normal;font-stretch:normal;font-size:37.4149971px;line-height:125%;font-family:'Freestyle Script';-inkscape-font-specification:'Freestyle Script';text-align:start;writing-mode:lr-tb;text-anchor:start;fill:#808080;fill-opacity:1;stroke:none"
         d="m 224.32832,174.50287 q -1.62595,1.91824 -2.5942,2.84997 -1.91825,1.8269 -3.19709,1.8269 -0.62114,0 -0.98652,-0.45673 -0.27404,-0.36538 -0.27404,-0.91345 0,-1.97305 2.33844,-5.24321 2.37497,-3.32497 3.43458,-3.32497 0.2923,0 0.51153,0.25577 0.20096,0.20096 0.20096,0.47499 0,0.40192 -0.21923,0.7125 -0.20096,0.2923 -1.18749,1.33364 -1.04133,1.07787 -1.91825,2.33843 -1.00479,1.42499 -1.00479,2.08267 0,0.38365 0.36538,0.38365 0.73076,0 2.74035,-1.99132 1.26057,-1.26057 1.97306,-2.11921 0.14615,-0.18269 1.27883,-1.73556 1.02307,-1.37018 1.26057,-1.62594 0.54807,-0.63942 1.02306,-0.63942 0.29231,0 0.52981,0.25577 0.21922,0.23749 0.21922,0.54807 0,0.5298 -0.73076,1.77209 -0.87691,1.51633 -1.60767,2.83171 -1.15095,2.04613 -1.7721,3.6538 1.16922,-0.67595 2.13748,-1.66248 1.64421,-1.64421 2.00959,-2.44805 0.34711,-0.73076 0.71249,-0.73076 0.51154,0 0.51154,0.51153 0,0.96826 -1.64422,2.88651 -1.97305,2.3019 -4.85956,3.90957 -1.5346,3.69035 -2.90478,6.12013 -2.55766,4.47592 -5.27975,4.47592 -1.11441,0 -1.79037,-0.85865 -0.5298,-0.65768 -0.5298,-1.66248 0,-2.84997 4.00092,-5.82782 1.16922,-0.87692 3.47112,-2.19229 0.93172,-0.5298 1.46152,-0.85864 0.32884,-0.84038 1.0048,-2.22883 0.74903,-1.49806 1.31537,-2.70381 z m -3.3615,7.17973 q -1.93652,0.98653 -3.96439,2.81343 -2.04613,1.88171 -2.04613,3.50766 0,0.34711 0.20096,0.58461 0.27404,0.32884 0.71249,0.32884 1.37018,0 3.03266,-2.86824 0.27404,-0.475 1.49807,-3.16054 0.25576,-0.54808 0.56634,-1.20576 z" />
    </g>
    <path
       sodipodi:nodetypes="ccssscc"
       inkscape:connector-curvature="0"
       id="path5210"
       d="m 443.94979,414.22871 c 1.62635,-89.18726 -34.36898,-152.67392 -126.53681,-170.98915 -1.64803,-0.3111 -6.11054,104.8574 2.2357,130.99157 31.27863,97.94319 100.37448,92.48755 107.51893,92.34109 27.10498,-0.5558 91.46681,-24.7329 104.3463,-73.906 10.89913,-41.61216 4.74736,-139.32723 3.95305,-146.91033 -78.75819,6.9242 -98.86824,46.26813 -107.72333,71.60761"
       style="fill:#ffffff;stroke:#808080;stroke-width:16.70089912;stroke-linecap:butt;stroke-linejoin:round;stroke-miterlimit:4;stroke-dasharray:none;stroke-opacity:1"
       inkscape:export-filename="C:\dev\Bloom\artwork\Favicon16x16.png"
       inkscape:export-xdpi="15.43"
       inkscape:export-ydpi="15.43" />
    <ellipse
       ry="15.094842"
       rx="8.0464935"
       cy="297.61139"
       cx="540.88385"
       inkscape:export-ydpi="67.648125"
       inkscape:export-xdpi="67.648125"
       inkscape:export-filename="C:\dev\Bloom\artwork\LogoAgainstDark276x100.png"
       id="ellipse4867"
       style="fill:#808080;fill-opacity:1;fill-rule:nonzero;stroke:#808080;stroke-width:2.55772662;stroke-linecap:round;stroke-miterlimit:4;stroke-dasharray:none;stroke-dashoffset:0;stroke-opacity:1" />
    <ellipse
       ry="15.094842"
       rx="8.9844933"
       cy="304.99063"
       cx="311.49121"
       inkscape:export-ydpi="67.648125"
       inkscape:export-xdpi="67.648125"
       inkscape:export-filename="C:\dev\Bloom\artwork\LogoAgainstDark276x100.png"
       id="ellipse4865"
       style="fill:#808080;fill-opacity:1;fill-rule:nonzero;stroke:#808080;stroke-width:2.70269871;stroke-linecap:round;stroke-miterlimit:4;stroke-dasharray:none;stroke-dashoffset:0;stroke-opacity:1" />
    <ellipse
       ry="50.701832"
       rx="50.676067"
       cy="-529.21533"
       cx="450.97229"
       inkscape:export-ydpi="67.648125"
       inkscape:export-xdpi="67.648125"
       inkscape:export-filename="C:\dev\Bloom\artwork\LogoAgainstDark276x100.png"
       id="ellipse4182"
       style="fill:#808080;fill-opacity:1;stroke:none;stroke-width:3.06918955;stroke-miterlimit:4;stroke-dasharray:none;stroke-opacity:1" />
    <path
       inkscape:export-ydpi="15.43"
       inkscape:export-xdpi="15.43"
       inkscape:export-filename="C:\dev\Bloom\artwork\Favicon16x16.png"
       style="fill:#ffffff;stroke:#808080;stroke-width:16.70089912;stroke-linecap:butt;stroke-linejoin:round;stroke-miterlimit:4;stroke-dasharray:none;stroke-opacity:1"
       d="m 476.27467,-296.91869 c 1.62635,-89.18726 -34.36898,-152.67392 -126.53681,-170.98915 -1.64803,-0.3111 -6.11054,104.8574 2.2357,130.99157 31.27863,97.94319 100.37448,92.48755 107.51893,92.34109 27.10498,-0.5558 91.46681,-24.7329 104.3463,-73.906 10.89913,-41.61216 4.74736,-139.32723 3.95305,-146.91033 -78.75819,6.9242 -98.86824,46.26813 -107.72333,71.60761"
       id="path4184"
       inkscape:connector-curvature="0"
       sodipodi:nodetypes="ccssscc" />
    <ellipse
       style="fill:#808080;fill-opacity:1;fill-rule:nonzero;stroke:#808080;stroke-width:3.14831471;stroke-linecap:round;stroke-miterlimit:4;stroke-dasharray:none;stroke-dashoffset:0;stroke-opacity:1"
       id="ellipse4188"
       inkscape:export-filename="C:\dev\Bloom\artwork\LogoAgainstDark276x100.png"
       inkscape:export-xdpi="67.648125"
       inkscape:export-ydpi="67.648125"
       ry="17.548952"
       rx="10.486535"
       cy="-548.70685"
       cx="-111.89046"
       transform="matrix(0.81372251,0.58125354,-0.80669434,0.5909689,0,0)" />
    <path
       style="fill:none;fill-rule:evenodd;stroke:#ffffff;stroke-width:3;stroke-linecap:butt;stroke-linejoin:miter;stroke-miterlimit:4;stroke-dasharray:none;stroke-opacity:1"
       d="m 457.224,-413.63997 c 0,0 -33.84011,-47.35089 -110.10663,-65.02856"
       id="path4194"
       inkscape:connector-curvature="0"
       sodipodi:nodetypes="cc" />
    <path
       sodipodi:nodetypes="cc"
       inkscape:connector-curvature="0"
       id="path4196"
       d="m 457.99905,-413.63997 c 0,0 18.68782,-53.91688 109.60155,-60.98795"
       style="fill:none;fill-rule:evenodd;stroke:#ffffff;stroke-width:3;stroke-linecap:butt;stroke-linejoin:miter;stroke-miterlimit:4;stroke-dasharray:none;stroke-opacity:1" />
    <ellipse
       transform="matrix(-0.81372251,0.58125354,0.80669434,0.5909689,0,0)"
       cx="-680.49719"
       cy="0.88282478"
       rx="10.486535"
       ry="17.548952"
       inkscape:export-ydpi="67.648125"
       inkscape:export-xdpi="67.648125"
       inkscape:export-filename="C:\dev\Bloom\artwork\LogoAgainstDark276x100.png"
       id="ellipse4200"
       style="fill:#808080;fill-opacity:1;fill-rule:nonzero;stroke:#808080;stroke-width:3.14831471;stroke-linecap:round;stroke-miterlimit:4;stroke-dasharray:none;stroke-dashoffset:0;stroke-opacity:1" />
    <path
       inkscape:connector-curvature="0"
       id="path4202"
       style="font-style:normal;font-variant:normal;font-weight:normal;font-stretch:normal;font-size:medium;line-height:125%;font-family:'Palatino Linotype';-inkscape-font-specification:'Palatino Linotype';letter-spacing:-4.84888411px;word-spacing:0px;fill:#808080;fill-opacity:1;stroke:#808080;stroke-opacity:1"
       d="m 589.10731,920.37595 -1.26809,-1.18837 0,-8.49011 1.26809,-1.1887 q 27.11031,1.35828 41.85447,1.35828 5.54871,0 43.9149,-1.35828 12.36585,-0.33949 17.91515,-0.33949 21.4025,0 33.9268,4.58455 12.5246,4.58423 20.1347,16.30029 7.6098,11.54615 7.6098,26.31858 0,18.84757 -12.6834,34.97829 -12.6828,16.13071 -41.2196,23.09231 17.1218,1.6978 28.2196,4.924 11.0977,3.226 19.1832,10.0183 8.0852,6.6218 12.6831,17.3191 4.7564,10.697 4.7564,24.7904 0,11.0368 -3.171,22.413 -3.1707,11.3766 -11.732,22.5833 -8.4021,11.2066 -20.451,19.1867 -12.0492,7.9804 -24.7323,11.5462 -12.5243,3.566 -31.23212,3.566 -3.80489,0 -22.82936,-0.8488 -21.08586,-0.5098 -22.82968,-0.5098 -10.78079,0 -26.47579,1.3586 l -1.2684,-1.3586 0,-5.6033 1.2684,-1.6981 q 9.19513,-4.4146 10.62201,-6.1124 1.42687,-1.6981 2.21955,-30.0542 0.95115,-28.3559 0.95115,-43.2982 l 0,-62.3153 -0.15879,-38.54375 q 0,-12.56495 -0.31758,-20.37576 -0.31757,-7.9804 -0.95147,-11.37657 -0.47541,-3.39586 -1.74381,-4.75413 -1.26841,-1.3586 -3.64611,-2.20748 -2.21955,-1.01879 -7.76889,-1.69777 l -12.04888,-1.01879 z m 56.91557,89.14335 q 7.92673,0.679 17.91454,0.679 32.81781,0 45.65931,-12.565 12.8416,-12.56494 12.8416,-34.46858 0,-12.73484 -4.9145,-21.56445 -4.9148,-8.99886 -15.5372,-13.75331 -10.4632,-4.75445 -28.53682,-4.75445 -14.74416,0 -26.00037,2.54728 -1.42656,15.2815 -1.42656,53.31615 l 0,30.56336 z m 0.31758,123.7817 q 12.20767,3.0564 25.04923,3.0564 22.67084,0 35.51244,-7.8105 12.8416,-7.8108 18.866,-21.5644 6.1832,-13.9233 6.1832,-30.2235 0,-24.451 -13.0003,-39.0535 -12.8416,-14.7721 -55.80565,-14.7721 -7.13406,0 -17.12186,0.679 l 0,57.9007 0.31758,51.7879 z" />
    <path
       inkscape:connector-curvature="0"
       id="path4204"
       style="font-style:normal;font-variant:normal;font-weight:normal;font-stretch:normal;font-size:medium;line-height:125%;font-family:'Palatino Linotype';-inkscape-font-specification:'Palatino Linotype';letter-spacing:-4.84888411px;word-spacing:0px;fill:#808080;fill-opacity:1;stroke:#808080;stroke-opacity:1"
       d="m 826.30393,897.96262 3.0122,2.03757 q -1.7438,19.52688 -1.7438,78.27645 l 0,106.46236 q 0,3.7357 0.6339,24.1111 0.6342,20.2062 1.2687,23.6017 0.7927,3.3962 2.2192,4.9244 1.4269,1.5282 3.488,2.0376 2.061,0.3398 17.1221,1.3583 l 1.4266,1.3582 0,7.1315 -1.2681,1.5285 q -19.8174,-1.3586 -38.2077,-1.3586 -18.2318,0 -38.0493,1.3586 l -1.4268,-1.5285 0,-7.1315 1.4268,-1.3582 q 15.3784,-1.0185 17.2807,-1.5279 2.0611,-0.5094 3.4879,-2.0379 1.5854,-1.6978 2.0611,-4.924 0.6339,-3.3959 1.2681,-21.9037 0.7927,-18.678 0.7927,-28.1862 l 0,-87.95464 -0.6339,-35.99739 q -0.4757,-18.84726 -1.1099,-26.14836 -0.4758,-7.30174 -1.4269,-8.66001 -0.9512,-1.35828 -3.3292,-2.03726 -2.378,-0.6793 -19.1832,-0.6793 l -1.4269,-1.52786 0,-7.13184 1.2684,-1.52818 q 30.2807,-3.73566 51.0493,-12.56494 z" />
    <path
       inkscape:connector-curvature="0"
       id="path4206"
       style="font-style:normal;font-variant:normal;font-weight:normal;font-stretch:normal;font-size:medium;line-height:125%;font-family:'Palatino Linotype';-inkscape-font-specification:'Palatino Linotype';letter-spacing:-4.84888411px;word-spacing:0px;fill:#808080;fill-opacity:1;stroke:#808080;stroke-opacity:1"
       d="m 857.40043,1071.6647 q 0,-20.2059 7.7683,-38.8835 7.7685,-18.8473 26.9515,-32.431 19.3417,-13.75366 45.8178,-13.75366 33.2929,0 54.22,22.58296 20.92717,22.4133 20.92717,57.7311 0,38.8835 -24.09787,64.0134 -23.9393,25.1299 -57.8667,25.1299 -22.1952,0 -39.6346,-12.7349 -17.4391,-12.9044 -25.8416,-31.4122 -8.244,-18.5078 -8.244,-40.2421 z m 29.9634,-11.7157 q 0,23.7712 5.7075,42.6188 5.7075,18.6777 18.0737,30.0543 12.3658,11.3759 28.2196,11.3759 18.7075,0 30.9152,-15.7909 12.2076,-15.9608 12.2076,-47.8827 0,-36.1667 -13.3176,-59.259 -13.1585,-23.09229 -38.0492,-23.09229 -20.6098,0 -32.183,15.96079 -11.5738,15.9611 -11.5738,46.0151 z m 48.0374,-83.03064 0,0 z m -2.378,182.70124 0,0 z" />
    <path
       inkscape:connector-curvature="0"
       id="path4208"
       style="font-style:normal;font-variant:normal;font-weight:normal;font-stretch:normal;font-size:medium;line-height:125%;font-family:'Palatino Linotype';-inkscape-font-specification:'Palatino Linotype';letter-spacing:-4.84888411px;word-spacing:0px;fill:#808080;fill-opacity:1;stroke:#808080;stroke-opacity:1"
       d="m 1020.0836,1071.6647 q 0,-20.2059 7.7689,-38.8835 7.7683,-18.8473 26.9512,-32.431 19.3417,-13.75366 45.8175,-13.75366 33.2932,0 54.2203,22.58296 20.9271,22.4133 20.9271,57.7311 0,38.8835 -24.0981,64.0134 -23.939,25.1299 -57.8664,25.1299 -22.1955,0 -39.6343,-12.7349 -17.4394,-12.9044 -25.8422,-31.4122 -8.244,-18.5078 -8.244,-40.2421 z m 29.9641,-11.7157 q 0,23.7712 5.7071,42.6188 5.7075,18.6777 18.0734,30.0543 12.3661,11.3759 28.2199,11.3759 18.7078,0 30.9152,-15.7909 12.2073,-15.9608 12.2073,-47.8827 0,-36.1667 -13.3172,-59.259 -13.1585,-23.09229 -38.0493,-23.09229 -20.6098,0 -32.1833,15.96079 -11.5731,15.9611 -11.5731,46.0151 z m 48.037,-83.03064 0,0 z m -2.378,182.70124 0,0 z" />
    <path
       inkscape:connector-curvature="0"
       id="path4210"
       style="font-style:normal;font-variant:normal;font-weight:normal;font-stretch:normal;font-size:medium;line-height:125%;font-family:'Palatino Linotype';-inkscape-font-specification:'Palatino Linotype';letter-spacing:-4.84888411px;word-spacing:0px;fill:#808080;fill-opacity:1;stroke:#808080;stroke-opacity:1"
       d="m 1230.3287,987.61533 3.0122,2.20748 q -0.9511,11.20669 -1.2684,26.82769 l 15.0614,-14.7721 q 6.3414,-6.28236 8.4025,-7.98076 2.0607,-1.86767 9.6708,-4.24474 7.6098,-2.37706 16.0126,-2.37706 15.8535,0 27.7442,8.48979 11.89,8.31987 17.5975,23.09227 21.4029,-21.73399 24.8906,-24.11106 3.6464,-2.37707 11.4147,-4.75413 7.7685,-2.54729 15.5368,-2.54729 12.5246,0 22.9881,5.77324 10.4636,5.77292 16.6468,15.11194 6.1826,9.339 7.1341,20.2061 1.1099,10.8666 1.1099,29.8841 l 0,17.8288 q 0,2.8861 0.9508,42.279 0.3176,16.131 3.3295,19.1871 3.0122,3.0564 19.5005,3.0564 l 1.2681,1.3582 0,7.3014 -1.2681,1.3586 q -20.1347,-1.3586 -27.2688,-1.3586 -3.9633,0 -22.9881,1.3586 l -2.0611,-1.8679 q 2.0611,-22.0736 2.0611,-57.5612 l 0,-20.3755 q 0,-26.9979 -2.378,-37.6951 -2.378,-10.8669 -11.0978,-17.6589 -8.7197,-6.9616 -20.7686,-6.9616 -8.5609,0 -16.0122,3.7356 -7.4513,3.5658 -13.4758,10.8672 -5.8659,7.1315 -6.5001,13.4138 -0.6342,6.1128 -0.6342,22.7529 l 0,21.2246 q 0,7.471 0.6342,28.0163 0.6342,20.5454 1.2684,23.9416 0.7923,3.3958 2.2195,4.9237 1.585,1.3586 3.4876,1.868 2.0611,0.3398 17.1222,1.3583 l 1.4269,1.3582 0,7.1315 -1.2684,1.5285 q -19.8171,-1.3586 -38.2078,-1.3586 -16.9637,0 -38.0492,1.3586 l -1.4266,-1.5285 0,-7.1315 1.4266,-1.3582 q 15.3783,-1.0185 17.2806,-1.5279 2.0614,-0.5094 3.488,-2.0379 1.5856,-1.6978 2.061,-4.924 0.6342,-3.3959 1.2684,-21.9037 0.7927,-18.678 0.7927,-28.1862 l 0,-19.357 q 0,-19.1871 -2.5365,-29.5448 -2.3783,-10.3572 -10.4635,-17.489 -8.0858,-7.1315 -20.2929,-7.1315 -9.5124,0 -17.4394,4.0754 -7.7683,3.905 -12.8416,9.8478 -4.9148,5.7732 -6.1832,10.8672 -1.1099,5.0939 -1.1099,22.0735 l 0,25.1302 q 0,7.471 0.6345,28.0163 0.6342,20.5454 1.2681,23.9416 0.7926,3.3958 2.2195,4.9237 1.5854,1.3586 3.488,1.868 2.061,0.3398 17.1222,1.3583 l 1.4268,1.3582 0,7.1315 -1.2684,1.5285 q -19.8171,-1.3586 -38.2077,-1.3586 -18.2321,0 -38.0493,1.3586 l -1.4268,-1.5285 0,-7.1315 1.4268,-1.3582 q 15.3784,-1.0185 17.2807,-1.5279 2.0611,-0.5094 3.4879,-2.0379 1.5857,-1.6978 2.0608,-4.924 0.6345,-3.3959 1.2687,-21.9037 0.7927,-18.678 0.7927,-28.1862 l 0,-33.4501 q 0,-6.7917 -0.6345,-18.5078 -0.6339,-11.716 -1.1096,-14.4329 -0.3176,-2.7166 -2.3781,-3.9053 -2.061,-1.3586 -8.2439,-1.3586 l -13.3173,-0.1715 -1.4269,-1.3582 0,-7.3014 1.2684,-1.3586 q 30.2807,-3.90498 51.0493,-12.73458 z" />
    <g
       style="font-style:normal;font-variant:normal;font-weight:normal;font-stretch:normal;font-size:40.59825134px;line-height:125%;font-family:'Freestyle Script';-inkscape-font-specification:'Freestyle Script';letter-spacing:0px;word-spacing:0px;fill:#808080;fill-opacity:1;stroke:none"
       id="g4216"
       transform="matrix(3.1757731,0,0,3.1757729,733.32863,405.11061)">
      <path
         d="m 35.061042,178.0836 q 0.493264,-0.14615 0.730762,-0.21923 4.220148,-1.2971 6.047053,-1.2971 1.370178,0 1.370178,1.02306 0,0.40192 -0.310574,0.7125 -0.310574,0.31057 -0.694224,0.31057 -0.18269,0 -0.529802,-0.0548 -0.292305,-0.0548 -0.474995,-0.0548 -1.077873,0 -2.831701,0.49326 -0.639417,0.20096 -2.466321,1.02307 -1.224026,0.54807 -2.009595,0.54807 -0.56634,0 -0.931721,-0.5298 -0.347111,-0.49327 -0.347111,-1.04134 0,-0.67595 0.74903,-2.28363 2.28363,-4.96918 4.896103,-8.91529 3.745154,-5.66341 5.809556,-8.31242 0.56634,-0.71249 1.13268,-1.44325 0.895183,-1.20576 1.552869,-1.20576 0.328842,0 0.584609,0.25577 0.237498,0.25577 0.237498,0.5298 0,0.40192 -0.621148,1.2423 -0.127883,0.16442 -1.51633,1.99132 -2.594204,3.41631 -3.873037,5.22495 -1.260564,1.80863 -2.703818,4.18361 -2.831702,4.6586 -3.799961,7.81915 z"
         style="font-style:normal;font-variant:normal;font-weight:normal;font-stretch:normal;font-size:37.4149971px;line-height:125%;font-family:'Freestyle Script';-inkscape-font-specification:'Freestyle Script';text-align:start;writing-mode:lr-tb;text-anchor:start;fill:#808080;fill-opacity:1;stroke:none"
         id="path4218"
         inkscape:connector-curvature="0" />
      <path
         d="m 46.004198,176.11054 0,0.32884 q 0,0.40192 0.200959,0.69423 0.456726,0.67595 1.498062,0.67595 2.28363,0 5.279753,-3.50765 0.529802,-0.60288 0.895183,-0.60288 0.200959,0 0.36538,0.20096 0.109615,0.14615 0.109615,0.27403 0,0.7125 -1.753828,2.41152 -1.370178,1.33364 -2.923047,2.17401 -1.552869,0.84038 -2.886509,0.84038 -1.370178,0 -2.155746,-0.94999 -0.529803,-0.65769 -0.529803,-1.79037 0,-3.08747 2.904778,-6.04705 2.356706,-2.41151 4.110534,-2.41151 0.474995,0 0.858645,0.2923 0.474995,0.38365 0.474995,1.0048 0,0.96826 -0.895183,2.37497 -1.845173,2.92305 -5.553788,4.03746 z m 0.401919,-1.42498 q 1.278832,-0.43846 2.009594,-0.98653 1.278833,-0.98653 2.027864,-2.22883 0.274035,-0.43845 0.274035,-0.78556 0,-0.36539 -0.347111,-0.36539 -0.474995,0 -1.351909,0.7125 -1.571138,1.26056 -2.612473,3.65381 z"
         style="font-style:normal;font-variant:normal;font-weight:normal;font-stretch:normal;font-size:37.4149971px;line-height:125%;font-family:'Freestyle Script';-inkscape-font-specification:'Freestyle Script';text-align:start;writing-mode:lr-tb;text-anchor:start;fill:#808080;fill-opacity:1;stroke:none"
         id="path4220"
         inkscape:connector-curvature="0" />
      <path
         d="m 61.569421,167.85293 q -1.187488,1.84518 -2.192285,4.12881 -1.443254,3.25189 -1.443254,4.85956 0,0.45673 0.18269,0.69423 0.20096,0.23749 0.58461,0.23749 0.913452,0 2.210554,-1.71729 0.822107,-1.0596 1.461523,-2.1192 0.347112,-0.60288 0.749031,-0.60288 0.237497,0 0.401919,0.16442 0.146152,0.16442 0.146152,0.32884 0,0.67596 -1.772097,3.01439 -2.119209,2.81344 -3.873037,2.81344 -0.931721,0 -1.552868,-0.85865 -0.38365,-0.54807 -0.38365,-1.55287 0,-2.21055 1.278833,-5.15187 0.310573,-0.73076 1.71729,-3.52592 -0.493265,0.12788 -0.749031,0.12788 -0.38365,0 -0.675955,-0.18269 -0.401919,-0.25577 -0.401919,-0.63942 0,-0.45672 0.529803,-0.73076 0.146152,-0.0731 1.351909,-0.2375 0.438457,-0.0731 1.278833,-0.34711 0.639416,-1.15095 2.08267,-3.124 0.803838,-1.09615 1.114412,-1.42499 0.438457,-0.45672 0.7673,-0.45672 0.237497,0 0.474995,0.25576 0.219228,0.2375 0.219228,0.475 0,0.47499 -1.023066,1.88171 -0.675955,0.91345 -1.004797,1.47979 2.027863,-0.54807 2.904777,-0.54807 1.004797,0 1.004797,0.84038 0,0.42018 -0.347111,0.62114 -0.182691,0.10962 -0.949991,0.18269 -0.310573,-0.0183 -2.758625,0.69423 -0.675954,0.20096 -1.33364,0.42018 z"
         style="font-style:normal;font-variant:normal;font-weight:normal;font-stretch:normal;font-size:37.4149971px;line-height:125%;font-family:'Freestyle Script';-inkscape-font-specification:'Freestyle Script';text-align:start;writing-mode:lr-tb;text-anchor:start;fill:#808080;fill-opacity:1;stroke:none"
         id="path4222"
         inkscape:connector-curvature="0" />
      <path
         d="m 75.344277,155.81364 q 0.255767,0 0.456726,0.14615 0.310574,0.2375 0.310574,0.63941 0,0.78557 -2.174016,4.95092 -0.7673,1.46152 -1.169219,1.79036 -0.292304,0.2375 -0.56634,0.2375 -0.639416,0 -0.639416,-0.85865 0,-0.5298 0.657685,-1.79036 1.589407,-3.25189 1.71729,-3.599 0.584609,-1.51633 1.406716,-1.51633 z"
         style="font-style:normal;font-variant:normal;font-weight:normal;font-stretch:normal;font-size:37.4149971px;line-height:125%;font-family:'Freestyle Script';-inkscape-font-specification:'Freestyle Script';text-align:start;writing-mode:lr-tb;text-anchor:start;fill:#808080;fill-opacity:1;stroke:none"
         id="path4224"
         inkscape:connector-curvature="0" />
      <path
         d="m 77.079838,167.48755 q 1.13268,0 1.699021,0.40192 0.56634,0.40192 0.56634,1.22403 0,1.07787 -0.803838,2.08267 -0.7673,0.94999 -2.301899,1.5346 -0.840376,0.31057 -1.406716,0.31057 -0.7673,0 -0.7673,-0.67595 0,-0.45673 0.438457,-0.69423 0.109614,-0.0548 1.242295,-0.31057 0.675954,-0.14615 1.242294,-0.63942 0.493265,-0.42018 0.493265,-0.91345 0,-0.38365 -0.219229,-0.56634 -0.219228,-0.18269 -0.657685,-0.18269 -1.059605,0 -2.338438,0.85865 -1.479792,0.96826 -1.479792,2.3019 0,0.94999 0.968259,2.37497 1.077874,1.55287 1.077874,2.63074 0,1.60768 -1.424986,2.52113 -0.876914,0.56634 -1.991325,0.56634 -1.753828,0 -2.66728,-1.26056 -0.639417,-0.89519 -0.639417,-2.11921 0,-1.42499 0.730762,-2.39325 0.474995,-0.63941 0.986528,-0.63941 0.456726,0 0.456726,0.36538 0,0.14615 -0.164421,0.43845 -0.420188,0.78557 -0.420188,1.84518 0,0.89518 0.639416,1.51633 0.566341,0.54807 1.297102,0.54807 0.712493,0 1.114412,-0.475 0.328843,-0.40191 0.328843,-1.02306 0,-0.7673 -0.876914,-1.99133 -1.205757,-1.68075 -1.205757,-3.05093 0,-1.8269 1.991325,-3.23362 1.936519,-1.35191 4.092266,-1.35191 z"
         style="font-style:normal;font-variant:normal;font-weight:normal;font-stretch:normal;font-size:37.4149971px;line-height:125%;font-family:'Freestyle Script';-inkscape-font-specification:'Freestyle Script';text-align:start;writing-mode:lr-tb;text-anchor:start;fill:#808080;fill-opacity:1;stroke:none"
         id="path4226"
         inkscape:connector-curvature="0" />
      <path
         d="m 93.01044,178.04706 q 1.954788,-1.42499 2.904778,-2.5942 1.406716,-1.69903 1.991325,-2.75863 0.292305,-0.47499 0.602879,-0.47499 0.438457,0 0.438457,0.42018 0,0.49327 -0.694224,1.64422 -2.155747,3.50765 -6.467241,6.12013 -2.009594,4.20188 -2.959584,5.69994 -2.521128,3.94611 -4.749951,3.94611 -1.169219,0 -1.680752,-0.91345 -0.292305,-0.5298 -0.292305,-1.20576 0,-2.86824 3.690347,-5.49898 0.584609,-0.43846 4.731682,-2.74036 0.803837,-1.69902 1.242294,-2.66728 -1.918249,2.0096 -3.178813,2.0096 -0.785569,0 -1.224026,-0.80384 -0.274035,-0.5298 -0.274035,-1.09614 0,-1.31537 1.077873,-3.37978 1.5346,-2.97785 3.690347,-4.71341 1.808635,-1.44325 3.197082,-1.44325 0.712492,0 1.224026,0.5298 0.347111,0.34711 0.347111,1.02307 0,0.84037 -0.56634,2.08267 0.420188,0.40192 0.420188,0.60288 0,0.12788 -0.18269,0.36538 -0.493264,0.67595 -1.589407,2.53939 -0.968259,1.62595 -1.699021,3.3067 z m -0.127883,-4.22015 q -0.255767,-0.27403 -0.255767,-0.38365 0,-0.16442 0.274036,-0.42019 0.913452,-0.87691 1.479792,-1.8269 0.456726,-0.74903 0.456726,-1.16922 0,-0.49326 -0.456726,-0.49326 -0.785568,0 -2.247092,1.49806 -1.735559,1.77209 -2.703818,3.96438 -0.474995,1.09614 -0.474995,1.68075 0,0.32884 0.146152,0.49327 0.146153,0.16442 0.420188,0.16442 0.639417,0 1.790366,-1.31537 0.730762,-0.84038 1.242295,-1.64422 0.347112,-0.5298 0.328843,-0.54807 z m -3.452849,7.98357 q -2.411513,1.02307 -4.256687,3.10574 -0.858645,0.96826 -1.224025,2.04613 -0.109615,0.32884 -0.109615,0.54807 0,0.2375 0.109615,0.42019 0.200959,0.32884 0.56634,0.32884 1.13268,0 2.649011,-2.42978 1.315371,-2.10094 2.265361,-4.01919 z"
         style="font-style:normal;font-variant:normal;font-weight:normal;font-stretch:normal;font-size:37.4149971px;line-height:125%;font-family:'Freestyle Script';-inkscape-font-specification:'Freestyle Script';text-align:start;writing-mode:lr-tb;text-anchor:start;fill:#808080;fill-opacity:1;stroke:none"
         id="path4228"
         inkscape:connector-curvature="0" />
      <path
         d="m 102.41899,173.60768 q 1.79037,-1.91825 4.12881,-3.74515 0.84037,-0.65769 1.79036,-1.22403 0.475,-0.27403 0.60288,-0.27403 0.27404,0 0.54807,0.40192 0.16442,0.21922 0.16442,0.40192 0,0.32884 -0.69422,0.89518 -1.86344,1.47979 -1.86344,2.22882 0,0.42019 0.47499,0.42019 0.78557,0 2.70382,-1.2971 0.32884,-0.21923 0.54807,-0.21923 0.14616,0 0.29231,0.14615 0.16442,0.16442 0.16442,0.34711 0,0.54807 -1.5346,1.68075 -1.60768,1.20576 -3.05093,1.20576 -0.58461,0 -1.07787,-0.31057 -0.42019,-0.25577 -0.42019,-0.91345 0,-0.45673 0.38365,-1.04134 -1.44326,1.02307 -3.39804,3.50766 -1.13268,1.5346 -2.247095,3.78169 -0.420188,0.84037 -1.041336,0.84037 -0.675954,0 -0.675954,-0.63941 0,-0.62115 1.059604,-3.32497 1.571141,-4.01919 3.288431,-6.22974 1.0596,-1.37018 1.77209,-1.37018 0.2375,0 0.43846,0.14615 0.2375,0.18269 0.2375,0.45673 0,0.27403 -0.36538,0.7673 -0.0731,0.0913 -0.96826,1.22402 -0.82211,1.07788 -1.26057,2.13748 z"
         style="font-style:normal;font-variant:normal;font-weight:normal;font-stretch:normal;font-size:37.4149971px;line-height:125%;font-family:'Freestyle Script';-inkscape-font-specification:'Freestyle Script';text-align:start;writing-mode:lr-tb;text-anchor:start;fill:#808080;fill-opacity:1;stroke:none"
         id="path4230"
         inkscape:connector-curvature="0" />
      <path
         d="m 117.54577,167.83467 q 1.49806,0 1.49806,1.8269 0,2.42978 -2.24709,6.15667 -2.44806,4.03745 -4.73169,4.03745 -1.0596,0 -1.55287,-0.98652 -0.25576,-0.49327 -0.25576,-1.18749 0,-2.33844 1.60767,-5.07879 1.49807,-2.5394 3.52593,-3.94612 1.18749,-0.8221 2.15575,-0.8221 z m -1.89998,6.90569 q -0.45673,-0.36538 -0.45673,-0.56634 0,-0.14615 0.58461,-0.80384 1.64421,-1.84517 1.64421,-2.97785 0,-0.14615 -0.0913,-0.2923 -0.14615,-0.27404 -0.45673,-0.27404 -0.58461,0 -1.71729,1.13268 -1.46152,1.46152 -2.22882,3.01439 -0.89518,1.7721 -0.89518,2.94132 0,0.31057 0.16442,0.54807 0.23749,0.32884 0.60288,0.32884 0.87691,0 1.88171,-1.31537 0.43845,-0.54807 0.71249,-1.13268 0.27403,-0.58461 0.25577,-0.60288 z"
         style="font-style:normal;font-variant:normal;font-weight:normal;font-stretch:normal;font-size:37.4149971px;line-height:125%;font-family:'Freestyle Script';-inkscape-font-specification:'Freestyle Script';text-align:start;writing-mode:lr-tb;text-anchor:start;fill:#808080;fill-opacity:1;stroke:none"
         id="path4232"
         inkscape:connector-curvature="0" />
      <path
         d="m 125.47453,174.52113 q -1.57114,2.11921 -2.32017,2.92305 -0.93172,1.0048 -1.60768,1.5346 -0.7673,0.56634 -1.42498,0.56634 -0.63942,0 -0.98653,-0.63942 -0.27403,-0.49326 -0.27403,-1.09614 0,-1.99132 2.37497,-5.48071 2.15575,-3.16054 3.19708,-3.16054 0.25577,0 0.49327,0.23749 0.21923,0.21923 0.21923,0.51154 0,0.40191 -0.7125,1.11441 -1.51633,1.49806 -2.63074,3.37977 -0.94999,1.60768 -0.94999,2.10094 0,0.36538 0.32884,0.36538 1.09615,0 4.74995,-4.74995 1.18749,-1.5346 1.44326,-1.7721 0.47499,-0.43845 0.96826,-0.43845 0.32884,0 0.56634,0.18269 0.20096,0.18269 0.20096,0.38365 0,0.21922 -0.87692,1.84517 -1.99132,3.50766 -1.99132,4.73168 0,0.475 0.38365,0.475 0.65768,0 1.80863,-1.51633 1.09615,-1.42499 2.02787,-3.61727 0.40192,-0.94999 0.71249,-2.50286 0.36538,-1.7721 1.46152,-1.7721 0.62115,0 0.62115,0.69422 0,2.39325 -2.66728,6.57686 -2.77689,4.3663 -4.67687,4.3663 -1.40672,0 -1.40672,-1.73556 0,-1.42498 0.96826,-3.50766 z"
         style="font-style:normal;font-variant:normal;font-weight:normal;font-stretch:normal;font-size:37.4149971px;line-height:125%;font-family:'Freestyle Script';-inkscape-font-specification:'Freestyle Script';text-align:start;writing-mode:lr-tb;text-anchor:start;fill:#808080;fill-opacity:1;stroke:none"
         id="path4234"
         inkscape:connector-curvature="0" />
      <path
         d="m 148.01853,176.60381 q -0.60288,1.0596 -1.18749,1.79036 -1.15095,1.42499 -2.28363,1.42499 -0.98653,0 -1.5346,-0.93172 -0.34711,-0.60288 -0.34711,-1.42499 0,-2.02786 1.27883,-4.47591 1.42498,-2.72209 3.43458,-4.18362 1.31537,-0.94999 2.5394,-0.94999 0.7673,0 1.27883,0.475 0.43846,0.42019 0.43846,0.94999 0,0.40192 -0.31058,1.11441 0.27404,0.38365 0.27404,0.67596 0,0.38365 -0.51154,1.26056 -0.5298,0.89518 -1.0596,2.37497 -0.56634,1.57114 -0.56634,2.52113 0,0.7673 0.45673,1.26057 0.12788,0.12788 0.74903,0.42018 0.45672,0.21923 0.45672,0.7673 0,0.34712 -0.25576,0.56634 -0.27404,0.2375 -0.63942,0.2375 -0.98653,0 -1.69902,-0.87691 -0.58461,-0.71249 -0.58461,-1.79037 0,-0.36538 0.0731,-1.20575 z m 2.28363,-6.01052 q -0.21923,-0.40192 -0.475,-0.58461 -0.25577,-0.20096 -0.54807,-0.20096 -1.38845,0 -3.01439,2.42978 -1.79037,2.68555 -1.79037,4.549 0,0.45672 0.16442,0.69422 0.18269,0.2375 0.5298,0.2375 0.87692,0 2.04614,-1.86345 0.65768,-1.02306 1.62594,-3.01439 0.63942,-1.2971 0.93172,-1.71729 0.14616,-0.21923 0.52981,-0.5298 z"
         style="font-style:normal;font-variant:normal;font-weight:normal;font-stretch:normal;font-size:37.4149971px;line-height:125%;font-family:'Freestyle Script';-inkscape-font-specification:'Freestyle Script';text-align:start;writing-mode:lr-tb;text-anchor:start;fill:#808080;fill-opacity:1;stroke:none"
         id="path4236"
         inkscape:connector-curvature="0" />
      <path
         d="m 164.71643,173.55288 q -0.54807,1.42498 -0.8221,2.30189 -0.27404,0.87692 -0.27404,1.22403 0,0.45673 0.43846,0.45673 0.65768,0 1.69902,-1.2423 0.49326,-0.60288 1.46152,-2.17401 0.38365,-0.62115 0.80384,-0.62115 0.47499,0 0.47499,0.45672 0,0.78557 -1.80863,3.17882 -1.88171,2.50286 -3.48939,2.50286 -0.69422,0 -1.13268,-0.58461 -0.31057,-0.42019 -0.31057,-1.02307 0,-1.02307 0.62115,-2.8317 0.62114,-1.80864 1.84517,-4.40284 3.14227,-6.59512 6.41243,-10.87008 2.61248,-3.43458 4.32977,-3.43458 0.54807,0 0.89518,0.42019 0.36538,0.42019 0.36538,0.96826 0,2.55766 -4.56726,8.51337 -2.04613,2.64901 -4.8961,5.29802 -0.74903,0.69423 -2.04614,1.86345 z m 1.29711,-2.90478 q 3.79996,-3.25189 6.79608,-8.22107 1.55287,-2.57594 1.55287,-3.41631 0,-0.40192 -0.34711,-0.40192 -1.0048,0 -3.65381,4.00092 -2.19229,3.28843 -4.34803,8.03838 z"
         style="font-style:normal;font-variant:normal;font-weight:normal;font-stretch:normal;font-size:37.4149971px;line-height:125%;font-family:'Freestyle Script';-inkscape-font-specification:'Freestyle Script';text-align:start;writing-mode:lr-tb;text-anchor:start;fill:#808080;fill-opacity:1;stroke:none"
         id="path4238"
         inkscape:connector-curvature="0" />
      <path
         d="m 174.61825,168.67504 q 0.31057,0 0.51153,0.2375 0.14616,0.20096 0.14616,0.40192 0,0.32884 -0.52981,1.09614 -1.89998,2.94132 -2.70382,4.8413 -0.85864,1.95478 -1.51633,4.01919 -0.2923,0.91345 -0.91345,0.91345 -0.36538,0 -0.58461,-0.29231 -0.20096,-0.23749 -0.20096,-0.51153 0,-0.54807 1.16922,-3.65381 0.91345,-2.44805 2.95959,-5.40764 0.65768,-0.96825 0.98652,-1.2971 0.32885,-0.34711 0.67596,-0.34711 z m 3.47112,-6.77781 q 0.8221,0 0.8221,0.84037 0,0.7673 -0.80383,1.69902 -0.7673,0.89519 -1.4798,0.89519 -0.34711,0 -0.56634,-0.25577 -0.21922,-0.2375 -0.21922,-0.58461 0,-0.87691 0.96825,-1.86344 0.7125,-0.73076 1.27884,-0.73076 z"
         style="font-style:normal;font-variant:normal;font-weight:normal;font-stretch:normal;font-size:37.4149971px;line-height:125%;font-family:'Freestyle Script';-inkscape-font-specification:'Freestyle Script';text-align:start;writing-mode:lr-tb;text-anchor:start;fill:#808080;fill-opacity:1;stroke:none"
         id="path4240"
         inkscape:connector-curvature="0" />
      <path
         d="m 180.04415,170.02695 q 1.55287,-1.31537 2.79517,-1.31537 0.7673,0 1.26056,0.63942 0.45673,0.56634 0.45673,1.31537 0,1.42498 -0.93173,3.45285 -1.04133,2.24709 -3.01439,4.18361 -1.62594,1.60767 -3.10573,1.60767 -0.54808,0 -1.0048,-0.20096 -0.43846,-0.20096 -0.78557,-0.60288 -0.14615,0.25577 -0.18269,0.32885 -0.31057,0.67595 -0.42019,0.8221 -0.12788,0.14616 -0.38365,0.14616 -0.32884,0 -0.62115,-0.38365 -0.20096,-0.25577 -0.20096,-0.54808 0,-0.51153 2.10094,-5.17013 2.94132,-6.50378 6.81436,-12.93449 1.57113,-2.63074 1.91825,-3.08746 0.38365,-0.54807 0.71249,-0.54807 0.40192,0 0.71249,0.40191 0.20096,0.25577 0.20096,0.60288 0,0.38365 -0.34711,0.96826 -0.0731,0.12789 -1.15095,1.88171 -3.3067,5.11533 -4.82303,8.4403 z m -3.63554,7.36242 q 0.27404,0.36538 0.54807,0.54808 0.29231,0.18269 0.60288,0.18269 1.58941,0 3.36151,-2.75863 0.8221,-1.24229 1.2971,-2.46632 0.42019,-1.09614 0.42019,-1.62594 0,-0.36539 -0.16442,-0.52981 -0.16443,-0.18269 -0.51154,-0.18269 -0.84037,0 -2.02786,1.15095 -1.18749,1.13268 -2.33844,3.27016 -0.54807,1.02307 -0.94999,1.91825 -0.2375,0.49326 -0.2375,0.49326 z"
         style="font-style:normal;font-variant:normal;font-weight:normal;font-stretch:normal;font-size:37.4149971px;line-height:125%;font-family:'Freestyle Script';-inkscape-font-specification:'Freestyle Script';text-align:start;writing-mode:lr-tb;text-anchor:start;fill:#808080;fill-opacity:1;stroke:none"
         id="path4242"
         inkscape:connector-curvature="0" />
      <path
         d="m 188.57579,173.60768 q 1.79037,-1.91825 4.12881,-3.74515 0.84037,-0.65769 1.79036,-1.22403 0.475,-0.27403 0.60288,-0.27403 0.27404,0 0.54807,0.40192 0.16442,0.21922 0.16442,0.40192 0,0.32884 -0.69422,0.89518 -1.86344,1.47979 -1.86344,2.22882 0,0.42019 0.47499,0.42019 0.78557,0 2.70382,-1.2971 0.32884,-0.21923 0.54807,-0.21923 0.14616,0 0.29231,0.14615 0.16442,0.16442 0.16442,0.34711 0,0.54807 -1.5346,1.68075 -1.60768,1.20576 -3.05093,1.20576 -0.58461,0 -1.07787,-0.31057 -0.42019,-0.25577 -0.42019,-0.91345 0,-0.45673 0.38365,-1.04134 -1.44326,1.02307 -3.39804,3.50766 -1.13268,1.5346 -2.2471,3.78169 -0.42018,0.84037 -1.04133,0.84037 -0.67596,0 -0.67596,-0.63941 0,-0.62115 1.05961,-3.32497 1.57114,-4.01919 3.28843,-6.22974 1.0596,-1.37018 1.77209,-1.37018 0.2375,0 0.43846,0.14615 0.2375,0.18269 0.2375,0.45673 0,0.27403 -0.36538,0.7673 -0.0731,0.0913 -0.96826,1.22402 -0.82211,1.07788 -1.26057,2.13748 z"
         style="font-style:normal;font-variant:normal;font-weight:normal;font-stretch:normal;font-size:37.4149971px;line-height:125%;font-family:'Freestyle Script';-inkscape-font-specification:'Freestyle Script';text-align:start;writing-mode:lr-tb;text-anchor:start;fill:#808080;fill-opacity:1;stroke:none"
         id="path4244"
         inkscape:connector-curvature="0" />
      <path
         d="m 202.02181,176.60381 q -0.60288,1.0596 -1.18748,1.79036 -1.15095,1.42499 -2.28363,1.42499 -0.98653,0 -1.5346,-0.93172 -0.34712,-0.60288 -0.34712,-1.42499 0,-2.02786 1.27884,-4.47591 1.42498,-2.72209 3.43458,-4.18362 1.31537,-0.94999 2.53939,-0.94999 0.7673,0 1.27884,0.475 0.43845,0.42019 0.43845,0.94999 0,0.40192 -0.31057,1.11441 0.27404,0.38365 0.27404,0.67596 0,0.38365 -0.51154,1.26056 -0.5298,0.89518 -1.0596,2.37497 -0.56634,1.57114 -0.56634,2.52113 0,0.7673 0.45672,1.26057 0.12789,0.12788 0.74903,0.42018 0.45673,0.21923 0.45673,0.7673 0,0.34712 -0.25577,0.56634 -0.27403,0.2375 -0.63941,0.2375 -0.98653,0 -1.69902,-0.87691 -0.58461,-0.71249 -0.58461,-1.79037 0,-0.36538 0.0731,-1.20575 z m 2.28363,-6.01052 q -0.21922,-0.40192 -0.47499,-0.58461 -0.25577,-0.20096 -0.54807,-0.20096 -1.38845,0 -3.01439,2.42978 -1.79037,2.68555 -1.79037,4.549 0,0.45672 0.16442,0.69422 0.18269,0.2375 0.5298,0.2375 0.87692,0 2.04614,-1.86345 0.65768,-1.02306 1.62594,-3.01439 0.63942,-1.2971 0.93172,-1.71729 0.14615,-0.21923 0.5298,-0.5298 z"
         style="font-style:normal;font-variant:normal;font-weight:normal;font-stretch:normal;font-size:37.4149971px;line-height:125%;font-family:'Freestyle Script';-inkscape-font-specification:'Freestyle Script';text-align:start;writing-mode:lr-tb;text-anchor:start;fill:#808080;fill-opacity:1;stroke:none"
         id="path4246"
         inkscape:connector-curvature="0" />
      <path
         d="m 209.69481,173.60768 q 1.79037,-1.91825 4.12881,-3.74515 0.84037,-0.65769 1.79036,-1.22403 0.475,-0.27403 0.60288,-0.27403 0.27404,0 0.54807,0.40192 0.16442,0.21922 0.16442,0.40192 0,0.32884 -0.69422,0.89518 -1.86344,1.47979 -1.86344,2.22882 0,0.42019 0.47499,0.42019 0.78557,0 2.70382,-1.2971 0.32884,-0.21923 0.54807,-0.21923 0.14615,0 0.29231,0.14615 0.16442,0.16442 0.16442,0.34711 0,0.54807 -1.5346,1.68075 -1.60768,1.20576 -3.05093,1.20576 -0.58461,0 -1.07788,-0.31057 -0.42018,-0.25577 -0.42018,-0.91345 0,-0.45673 0.38365,-1.04134 -1.44326,1.02307 -3.39805,3.50766 -1.13268,1.5346 -2.24709,3.78169 -0.42019,0.84037 -1.04133,0.84037 -0.67596,0 -0.67596,-0.63941 0,-0.62115 1.05961,-3.32497 1.57113,-4.01919 3.28842,-6.22974 1.05961,-1.37018 1.7721,-1.37018 0.2375,0 0.43846,0.14615 0.2375,0.18269 0.2375,0.45673 0,0.27403 -0.36538,0.7673 -0.0731,0.0913 -0.96826,1.22402 -0.82211,1.07788 -1.26057,2.13748 z"
         style="font-style:normal;font-variant:normal;font-weight:normal;font-stretch:normal;font-size:37.4149971px;line-height:125%;font-family:'Freestyle Script';-inkscape-font-specification:'Freestyle Script';text-align:start;writing-mode:lr-tb;text-anchor:start;fill:#808080;fill-opacity:1;stroke:none"
         id="path4248"
         inkscape:connector-curvature="0" />
      <path
         d="m 224.32832,174.50287 q -1.62595,1.91824 -2.5942,2.84997 -1.91825,1.8269 -3.19709,1.8269 -0.62114,0 -0.98652,-0.45673 -0.27404,-0.36538 -0.27404,-0.91345 0,-1.97305 2.33844,-5.24321 2.37497,-3.32497 3.43458,-3.32497 0.2923,0 0.51153,0.25577 0.20096,0.20096 0.20096,0.47499 0,0.40192 -0.21923,0.7125 -0.20096,0.2923 -1.18749,1.33364 -1.04133,1.07787 -1.91825,2.33843 -1.00479,1.42499 -1.00479,2.08267 0,0.38365 0.36538,0.38365 0.73076,0 2.74035,-1.99132 1.26057,-1.26057 1.97306,-2.11921 0.14615,-0.18269 1.27883,-1.73556 1.02307,-1.37018 1.26057,-1.62594 0.54807,-0.63942 1.02306,-0.63942 0.29231,0 0.52981,0.25577 0.21922,0.23749 0.21922,0.54807 0,0.5298 -0.73076,1.77209 -0.87691,1.51633 -1.60767,2.83171 -1.15095,2.04613 -1.7721,3.6538 1.16922,-0.67595 2.13748,-1.66248 1.64421,-1.64421 2.00959,-2.44805 0.34711,-0.73076 0.71249,-0.73076 0.51154,0 0.51154,0.51153 0,0.96826 -1.64422,2.88651 -1.97305,2.3019 -4.85956,3.90957 -1.5346,3.69035 -2.90478,6.12013 -2.55766,4.47592 -5.27975,4.47592 -1.11441,0 -1.79037,-0.85865 -0.5298,-0.65768 -0.5298,-1.66248 0,-2.84997 4.00092,-5.82782 1.16922,-0.87692 3.47112,-2.19229 0.93172,-0.5298 1.46152,-0.85864 0.32884,-0.84038 1.0048,-2.22883 0.74903,-1.49806 1.31537,-2.70381 z m -3.3615,7.17973 q -1.93652,0.98653 -3.96439,2.81343 -2.04613,1.88171 -2.04613,3.50766 0,0.34711 0.20096,0.58461 0.27404,0.32884 0.71249,0.32884 1.37018,0 3.03266,-2.86824 0.27404,-0.475 1.49807,-3.16054 0.25576,-0.54808 0.56634,-1.20576 z"
         style="font-style:normal;font-variant:normal;font-weight:normal;font-stretch:normal;font-size:37.4149971px;line-height:125%;font-family:'Freestyle Script';-inkscape-font-specification:'Freestyle Script';text-align:start;writing-mode:lr-tb;text-anchor:start;fill:#808080;fill-opacity:1;stroke:none"
         id="path4250"
         inkscape:connector-curvature="0" />
    </g>
    <path
       inkscape:export-ydpi="15.43"
       inkscape:export-xdpi="15.43"
       inkscape:export-filename="C:\dev\Bloom\artwork\Favicon16x16.png"
       style="fill:#ffffff;stroke:#808080;stroke-width:16.70089912;stroke-linecap:butt;stroke-linejoin:round;stroke-miterlimit:4;stroke-dasharray:none;stroke-opacity:1"
       d="m 455.37836,1099.943 c 1.62635,-89.1873 -34.36898,-152.67392 -126.53681,-170.98915 -1.64803,-0.3111 -6.11054,104.85745 2.2357,130.99155 31.27863,97.9432 100.37448,92.4876 107.51893,92.3411 27.10498,-0.5558 91.46681,-24.7329 104.3463,-73.906 10.89913,-41.6121 4.74736,-139.32722 3.95305,-146.91032 -78.75819,6.9242 -98.86824,46.26813 -107.72333,71.60762"
       id="path4252"
       inkscape:connector-curvature="0"
       sodipodi:nodetypes="ccssscc" />
  </g>
</svg>
