<?xml version="1.0" encoding="UTF-8" standalone="no"?>
<!-- Created with Inkscape (http://www.inkscape.org/) -->

<svg
   xmlns:dc="http://purl.org/dc/elements/1.1/"
   xmlns:cc="http://creativecommons.org/ns#"
   xmlns:rdf="http://www.w3.org/1999/02/22-rdf-syntax-ns#"
   xmlns:svg="http://www.w3.org/2000/svg"
   xmlns="http://www.w3.org/2000/svg"
   xmlns:sodipodi="http://sodipodi.sourceforge.net/DTD/sodipodi-0.dtd"
   xmlns:inkscape="http://www.inkscape.org/namespaces/inkscape"
   width="45.444908mm"
   height="12.240125mm"
   viewBox="0 0 45.444908 12.240125"
   version="1.1"
   id="svg4669"
   inkscape:version="0.92.1 r15371"
   sodipodi:docname="bloom reader against dark.svg">
  <defs
     id="defs4663" />
  <sodipodi:namedview
     id="base"
     pagecolor="#ffffff"
     bordercolor="#666666"
     borderopacity="1.0"
     inkscape:pageopacity="0.0"
     inkscape:pageshadow="2"
     inkscape:zoom="3.04"
     inkscape:cx="90.061244"
     inkscape:cy="5.6711483"
     inkscape:document-units="mm"
     inkscape:current-layer="layer1"
     showgrid="false"
     fit-margin-top="0"
     fit-margin-left="0"
     fit-margin-right="0"
     fit-margin-bottom="0"
     inkscape:pagecheckerboard="true"
     inkscape:window-width="1822"
     inkscape:window-height="1177"
     inkscape:window-x="1912"
     inkscape:window-y="-8"
     inkscape:window-maximized="1" />
  <metadata
     id="metadata4666">
    <rdf:RDF>
      <cc:Work
         rdf:about="">
        <dc:format>image/svg+xml</dc:format>
        <dc:type
           rdf:resource="http://purl.org/dc/dcmitype/StillImage" />
        <dc:title></dc:title>
      </cc:Work>
    </rdf:RDF>
  </metadata>
  <g
     inkscape:label="Layer 1"
     inkscape:groupmode="layer"
     id="layer1"
     transform="translate(-79.224183,69.172001)">
    <g
       inkscape:export-ydpi="314.63"
       inkscape:export-xdpi="314.63"
       id="g4593"
       transform="matrix(0.14996369,0,0,0.14996369,-19.861704,-375.18056)">
      <path
         style="opacity:1;fill:none;stroke:#d65649;stroke-width:9.3975563;stroke-linejoin:round;stroke-opacity:1"
         d="m 695.15098,2101.6624 c 0.36137,-20.2411 -6.98799,-24.9398 -11.32525,-28.1927 -3.85542,-2.771 -11.5663,-5.7833 -17.10843,-6.8675 -4.18983,23.3065 1.57307,51.9139 24.84627,50.843 26.73943,-1.2301 26.39771,-21.5318 24.79208,-50.2405 -14.57817,1.325 -19.0361,5.6625 -19.0361,5.6625 l -0.84332,0.6025"
         class="st1"
         sodipodi:nodetypes="cccsccc"
         inkscape:export-ydpi="108.54"
         inkscape:export-xdpi="108.54"
         inkscape:export-filename="X:\dev\b36\src\BloomExe\Resources\LogoForSplashScreen.png"
         inkscape:connector-curvature="0"
         id="path4553" />
      <path
         style="fill:#d65649;fill-opacity:1;stroke-width:1.06666672"
         d="m 738.57172,2064.2896 c 1.82496,-0.2434 4.25824,-0.365 6.93483,-0.6083 2.79829,-0.1217 5.9616,-0.2434 9.61152,-0.2434 6.93483,0 12.288,1.3383 15.93792,3.8933 3.64992,2.5549 5.47488,6.0832 5.47488,10.5847 0,3.0416 -0.72992,5.4749 -2.31157,7.5432 -1.58166,2.0683 -3.89323,3.7716 -6.93483,5.1099 3.64992,1.3383 6.44811,3.0416 8.27317,5.3532 1.82496,2.3116 2.79819,5.1099 2.79819,8.5165 0,5.1099 -1.94656,9.2464 -5.96149,12.288 -4.01494,3.0416 -9.85483,4.5017 -17.64128,4.5017 -3.28491,0 -6.32651,-0.1217 -9.36811,-0.2434 -2.92,-0.1216 -5.23157,-0.3649 -6.93493,-0.6084 l 0.1217,-56.087 m 16.78966,50.4906 c 4.86656,0 8.63808,-0.8517 11.19306,-2.555 2.67659,-1.7033 4.01494,-4.2583 4.01494,-7.5432 0,-3.2849 -1.33835,-5.7182 -3.89323,-7.5431 -2.67669,-1.825 -6.44821,-2.7983 -11.31477,-2.7983 h -9.24651 v 19.9528 c 2.92,0.3651 5.9616,0.4868 9.24651,0.4868 m -0.24331,-26.2795 c 4.25824,0 7.66475,-0.8516 10.09803,-2.6766 2.55498,-1.7034 3.77162,-4.0149 3.77162,-6.9348 0,-3.0416 -1.21664,-5.3533 -3.64992,-6.935 -2.43328,-1.5815 -5.83989,-2.3115 -10.09813,-2.3115 -1.82496,0 -3.40661,0 -4.86656,0.1217 -1.45995,0.1216 -2.79829,0.1216 -4.01493,0.2433 v 18.3712 z m 37.47253,18.2496 c 0,2.92 0.48662,5.1099 1.70326,6.4482 1.21664,1.3384 2.91989,2.0683 4.98826,2.0683 0.97323,0 2.06827,-0.1216 3.0416,-0.365 0.97323,-0.2433 1.82496,-0.4867 2.55488,-0.8517 l 1.82496,5.8399 c -0.97333,0.4866 -2.18997,0.8517 -3.52821,1.095 -1.45995,0.365 -3.0416,0.4867 -4.74496,0.4867 -1.82496,0 -3.64992,-0.2433 -5.23147,-0.8516 -1.58165,-0.4868 -2.92,-1.3384 -4.13664,-2.555 -1.21664,-1.095 -2.06826,-2.555 -2.79829,-4.38 -0.72992,-1.8249 -0.97323,-3.8932 -0.97323,-6.4481 v -46.354 h 7.29984 z m 49.15222,-7.1781 c 0,-2.0683 -0.36502,-4.1367 -0.97334,-5.9616 -0.72992,-1.825 -1.58154,-3.5283 -2.79818,-4.8666 -1.21664,-1.3382 -2.6767,-2.5549 -4.25824,-3.4066 -1.58166,-0.8516 -3.40662,-1.2167 -5.35328,-1.2167 -4.25824,0 -7.54315,1.3384 -9.85472,4.1367 -2.31168,2.7983 -3.52832,6.4482 -3.52832,11.0715 0,2.0682 0.36501,4.1365 0.97333,5.9614 0.73003,1.9467 1.58165,3.5283 2.79829,4.9883 1.21664,1.46 2.67659,2.5549 4.25824,3.4065 1.58166,0.8518 3.40662,1.2167 5.35318,1.2167 2.06826,0 4.01493,-0.3649 5.59658,-1.095 1.70326,-0.73 3.0416,-1.8249 4.25824,-3.1633 1.09494,-1.3382 2.06827,-3.0416 2.67659,-4.8665 0.48661,-1.825 0.85163,-3.8933 0.85163,-6.2048 m -34.30923,0 c 0,-3.4067 0.48661,-6.4483 1.58165,-9.1248 1.09494,-2.6767 2.55488,-4.9883 4.37984,-6.935 1.82496,-1.8249 4.01494,-3.2849 6.56992,-4.3798 2.55488,-0.9733 5.35318,-1.5817 8.27318,-1.5817 2.91989,0 5.59648,0.4866 8.15146,1.5817 2.55488,0.9733 4.74486,2.4333 6.69152,4.3798 1.82496,1.825 3.40662,4.1367 4.37984,6.8133 1.09504,2.6765 1.58166,5.7181 1.58166,9.0032 0,3.2849 -0.48662,6.3265 -1.58166,9.1248 -1.09493,2.6765 -2.55488,4.9881 -4.37984,6.9348 -1.82496,1.9465 -4.13664,3.4066 -6.69152,4.5015 -2.55498,1.095 -5.35328,1.5817 -8.27317,1.5817 -3.0416,0 -5.83989,-0.4867 -8.39477,-1.5817 -2.55499,-1.0949 -4.74496,-2.555 -6.56992,-4.5015 -1.82496,-1.9467 -3.28491,-4.2583 -4.37995,-6.9348 -0.85163,-2.6767 -1.33824,-5.5966 -1.33824,-8.8815 z m 81.27157,0 c 0,-2.0683 -0.36501,-4.1367 -0.97333,-5.9616 -0.72992,-1.825 -1.58165,-3.5283 -2.79829,-4.8666 -1.21664,-1.3382 -2.67659,-2.5549 -4.25824,-3.4066 -1.58155,-0.8516 -3.40651,-1.2167 -5.35318,-1.2167 -4.25824,0 -7.54314,1.3384 -9.85482,4.1367 -2.31158,2.7983 -3.52822,6.4482 -3.52822,11.0715 0,2.0682 0.36502,4.1365 0.97334,5.9614 0.72992,1.9467 1.58165,3.5283 2.79829,4.9883 1.21664,1.46 2.67659,2.5549 4.25824,3.4065 1.58155,0.8518 3.40651,1.2167 5.35317,1.2167 2.06827,0 4.01494,-0.3649 5.59659,-1.095 1.70325,-0.73 3.0416,-1.8249 4.25824,-3.1633 1.09493,-1.3382 2.06827,-3.0416 2.67659,-4.8665 0.60832,-1.825 0.85162,-3.8933 0.85162,-6.2048 m -34.30922,0 c 0,-3.4067 0.48661,-6.4483 1.58165,-9.1248 1.09493,-2.6767 2.55488,-4.9883 4.37984,-6.935 1.82496,-1.8249 4.01493,-3.2849 6.56992,-4.3798 2.55488,-0.9733 5.35317,-1.5817 8.27307,-1.5817 2.92,0 5.59658,0.4866 8.15157,1.5817 2.55488,0.9733 4.74485,2.4333 6.69152,4.3798 1.82496,1.825 3.40651,4.1367 4.37984,6.8133 1.09504,2.6765 1.58165,5.7181 1.58165,9.0032 0,3.2849 -0.48661,6.3265 -1.58165,9.1248 -1.09493,2.6765 -2.55488,4.9881 -4.37984,6.9348 -1.82496,1.9465 -4.13664,3.4066 -6.69152,4.5015 -2.55499,1.095 -5.35328,1.5817 -8.27317,1.5817 -3.0416,0 -5.8399,-0.4867 -8.39488,-1.5817 -2.55488,-1.0949 -4.74486,-2.555 -6.56982,-4.5015 -1.82496,-1.9467 -3.2849,-4.2583 -4.37994,-6.9348 -0.85163,-2.6767 -1.33824,-5.5966 -1.33824,-8.8815 z m 54.9921,-13.8698 c 1.45995,-2.3116 3.40662,-4.1365 5.71819,-5.7182 2.31168,-1.5816 4.98827,-2.3116 7.90816,-2.3116 3.28501,0 6.0832,0.8517 8.15157,2.4333 2.06827,1.5816 3.64992,3.7715 4.50155,6.4481 1.70325,-2.4333 3.64992,-4.6231 5.96149,-6.3265 2.31168,-1.7032 5.10998,-2.5549 8.51648,-2.5549 2.31168,0 4.25824,0.3649 5.9616,1.095 1.70326,0.73 3.1632,1.8249 4.25824,3.1633 1.09494,1.3382 1.94656,3.0416 2.55488,4.8665 0.60832,1.9466 0.85174,4.0149 0.85174,6.3265 v 27.3744 h -7.29984 v -26.766 c 0,-2.92 -0.73003,-5.2316 -2.06838,-7.0566 -1.33824,-1.8249 -3.1632,-2.6766 -5.59648,-2.6766 -1.21664,0 -2.43328,0.2434 -3.52832,0.73 -1.09493,0.4867 -2.18986,1.095 -3.2849,1.9466 -0.97334,0.8517 -1.94656,1.825 -2.9199,2.9199 -0.97333,1.0951 -1.70336,2.19 -2.55498,3.4066 v 27.4961 h -7.29984 v -26.766 c 0,-2.92 -0.73003,-5.2316 -2.06827,-7.0566 -1.33835,-1.8249 -3.16331,-2.6766 -5.59659,-2.6766 -1.21664,0 -2.31157,0.2434 -3.52821,0.73 -1.09504,0.4867 -2.18997,1.095 -3.28491,1.9466 -1.09504,0.8517 -2.06837,1.7033 -2.92,2.7983 -0.97333,1.095 -1.70325,2.19 -2.55488,3.4066 v 27.6177 h -7.29984 v -41.8524 h 7.05643 z"
         class="st2"
         sodipodi:nodetypes="ccscsccsscscccccssscccscscscccsscsccccscccsccsccccssscccsccscssscscssssccscsssccccssscccsccscssscscssssccscsssccscccscccsccscsccccccscsccccccccc"
         inkscape:connector-curvature="0"
         id="path4555"
         inkscape:export-xdpi="108.54"
         inkscape:export-ydpi="108.54" />
      <text
         xml:space="preserve"
         style="font-style:normal;font-variant:normal;font-weight:normal;font-stretch:normal;font-size:43.66012573px;line-height:125%;font-family:'Freestyle Script';-inkscape-font-specification:'Freestyle Script, Normal';font-variant-ligatures:normal;font-variant-caps:normal;font-variant-numeric:normal;font-feature-settings:normal;text-align:start;letter-spacing:0px;word-spacing:0px;writing-mode:lr-tb;text-anchor:start;fill:#ffffff;fill-opacity:1;stroke:none;stroke-width:1.76431596px;stroke-linecap:butt;stroke-linejoin:miter;stroke-opacity:1"
         x="884.56805"
         y="2069.7786"
         id="text4597"
         inkscape:export-xdpi="108.54"
         inkscape:export-ydpi="108.54"><tspan
           sodipodi:role="line"
           id="tspan4595"
           x="884.56805"
           y="2069.7786"
           style="font-style:normal;font-variant:normal;font-weight:normal;font-stretch:normal;font-size:43.66012573px;font-family:'Freestyle Script';-inkscape-font-specification:'Freestyle Script, Normal';font-variant-ligatures:normal;font-variant-caps:normal;font-variant-numeric:normal;font-feature-settings:normal;text-align:start;writing-mode:lr-tb;text-anchor:start;fill:#ffffff;fill-opacity:1;stroke-width:1.76431596px">Reader</tspan></text>
    </g>
  </g>
</svg>
