<?xml version="1.0" encoding="UTF-8" standalone="no"?>
<!-- Created with Inkscape (http://www.inkscape.org/) -->

<svg
   xmlns:dc="http://purl.org/dc/elements/1.1/"
   xmlns:cc="http://creativecommons.org/ns#"
   xmlns:rdf="http://www.w3.org/1999/02/22-rdf-syntax-ns#"
   xmlns:svg="http://www.w3.org/2000/svg"
   xmlns="http://www.w3.org/2000/svg"
   xmlns:sodipodi="http://sodipodi.sourceforge.net/DTD/sodipodi-0.dtd"
   xmlns:inkscape="http://www.inkscape.org/namespaces/inkscape"
   width="48.437126mm"
   height="11.763654mm"
   viewBox="0 0 171.62761 41.682238"
   id="svg4231"
   version="1.1"
   inkscape:version="0.91 r13725"
   sodipodi:docname="bloom Against Dark.svg">
  <defs
     id="defs4233" />
  <sodipodi:namedview
     id="base"
     pagecolor="#ffffff"
     bordercolor="#666666"
     borderopacity="1.0"
     inkscape:pageopacity="0.0"
     inkscape:pageshadow="2"
     inkscape:zoom="0.35"
     inkscape:cx="-763.47191"
     inkscape:cy="-316.30173"
     inkscape:document-units="px"
     inkscape:current-layer="layer1"
     showgrid="false"
     fit-margin-top="0"
     fit-margin-left="0"
     fit-margin-right="0"
     fit-margin-bottom="0"
     inkscape:window-width="1920"
     inkscape:window-height="1147"
     inkscape:window-x="-8"
     inkscape:window-y="-8"
     inkscape:window-maximized="1" />
  <metadata
     id="metadata4236">
    <rdf:RDF>
      <cc:Work
         rdf:about="">
        <dc:format>image/svg+xml</dc:format>
        <dc:type
           rdf:resource="http://purl.org/dc/dcmitype/StillImage" />
        <dc:title></dc:title>
      </cc:Work>
    </rdf:RDF>
  </metadata>
  <g
     inkscape:label="Layer 1"
     inkscape:groupmode="layer"
     id="layer1"
     transform="translate(-479.90048,-174.37823)">
    <g
       transform="matrix(0.56679189,0,0,0.56679189,128.80876,-911.59234)"
       id="g4227">
      <path
         id="path4229"
         inkscape:connector-curvature="0"
         inkscape:export-filename="X:\dev\b36\src\BloomExe\Resources\LogoForSplashScreen.png"
         inkscape:export-xdpi="108.54"
         inkscape:export-ydpi="108.54"
         sodipodi:nodetypes="cccsccc"
         class="st1"
         d="m 651.70404,1970.3085 c 0.33879,-18.976 -6.55124,-23.3811 -10.61742,-26.4307 -3.61445,-2.5978 -10.8434,-5.4218 -16.03915,-6.4382 -3.92797,21.8498 1.47475,48.6692 23.29338,47.6653 25.06821,-1.1532 24.74785,-20.1861 23.24257,-47.1005 -13.66703,1.2422 -17.84634,5.3086 -17.84634,5.3086 l -0.79061,0.5648"
         style="opacity:1;fill:none;stroke:#d65649;stroke-width:8.81020927;stroke-linejoin:round;stroke-opacity:1" />
      <path
         id="path4231"
         inkscape:connector-curvature="0"
         sodipodi:nodetypes="ccscsccsscscccccssscccscscscccsscsccccscccsccsccccssscccsccscssscscssssccscsssccccssscccsccscssscscssssccscsssccscccscccsccscsccccccscsccccccccc"
         class="st2"
         d="m 692.41099,1935.2715 c 1.7109,-0.2282 3.9921,-0.3422 6.5014,-0.5703 2.6234,-0.1141 5.589,-0.2282 9.0108,-0.2282 6.5014,0 11.52,1.2547 14.9418,3.65 3.4218,2.3952 5.1327,5.703 5.1327,9.9232 0,2.8515 -0.6843,5.1327 -2.1671,7.0717 -1.4828,1.939 -3.6499,3.5359 -6.5014,4.7905 3.4218,1.2547 6.0451,2.8515 7.7561,5.0187 1.7109,2.1671 2.6233,4.7905 2.6233,7.9842 0,4.7905 -1.8249,8.6685 -5.5889,11.52 -3.764,2.8515 -9.2389,4.2203 -16.5387,4.2203 -3.0796,0 -5.9311,-0.1141 -8.7826,-0.2282 -2.7375,-0.114 -4.9046,-0.3421 -6.5015,-0.5703 l 0.1141,-52.5816 m 15.7403,47.3349 c 4.5624,0 8.0982,-0.7984 10.4935,-2.3953 2.5093,-1.5968 3.764,-3.9921 3.764,-7.0717 0,-3.0796 -1.2547,-5.3608 -3.6499,-7.0717 -2.5094,-1.7109 -6.0452,-2.6234 -10.6076,-2.6234 l -8.6686,0 0,18.7058 c 2.7375,0.3422 5.589,0.4563 8.6686,0.4563 m -0.2281,-24.637 c 3.9921,0 7.1857,-0.7984 9.4669,-2.5093 2.3953,-1.5969 3.5359,-3.764 3.5359,-6.5014 0,-2.8515 -1.1406,-5.0187 -3.4218,-6.5015 -2.2812,-1.4827 -5.4749,-2.1671 -9.467,-2.1671 -1.7109,0 -3.1937,0 -4.5624,0.1141 -1.3687,0.114 -2.6234,0.114 -3.764,0.2281 l 0,17.223 8.2124,0.1141 z m 35.1305,17.109 c 0,2.7375 0.4562,4.7905 1.5968,6.0452 1.1406,1.2547 2.7374,1.939 4.6765,1.939 0.9124,0 1.939,-0.114 2.8515,-0.3422 0.9124,-0.2281 1.7109,-0.4562 2.3952,-0.7984 l 1.7109,5.4749 c -0.9125,0.4562 -2.0531,0.7984 -3.3077,1.0265 -1.3687,0.3422 -2.8515,0.4563 -4.4484,0.4563 -1.7109,0 -3.4218,-0.2281 -4.9045,-0.7984 -1.4828,-0.4563 -2.7375,-1.2547 -3.8781,-2.3953 -1.1406,-1.0265 -1.939,-2.3953 -2.6234,-4.1062 -0.6843,-1.7109 -0.9124,-3.6499 -0.9124,-6.0451 l 0,-43.4569 6.8436,0 0,43.0006 0,0 z m 46.0802,-6.7295 c 0,-1.939 -0.3422,-3.8781 -0.9125,-5.589 -0.6843,-1.7109 -1.4827,-3.3077 -2.6233,-4.5624 -1.1406,-1.2546 -2.5094,-2.3952 -3.9921,-3.1937 -1.4828,-0.7984 -3.1937,-1.1406 -5.0187,-1.1406 -3.9921,0 -7.0717,1.2547 -9.2388,3.8781 -2.1672,2.6234 -3.3078,6.0452 -3.3078,10.3795 0,1.939 0.3422,3.878 0.9125,5.5889 0.6844,1.825 1.4828,3.3077 2.6234,4.6765 1.1406,1.3687 2.5093,2.3952 3.9921,3.1936 1.4828,0.7985 3.1937,1.1406 5.0186,1.1406 1.939,0 3.764,-0.3421 5.2468,-1.0265 1.5968,-0.6844 2.8515,-1.7109 3.9921,-2.9656 1.0265,-1.2546 1.939,-2.8515 2.5093,-4.5624 0.4562,-1.7109 0.7984,-3.6499 0.7984,-5.817 m -32.1649,0 c 0,-3.1937 0.4562,-6.0452 1.4828,-8.5545 1.0265,-2.5094 2.3952,-4.6765 4.1061,-6.5015 1.7109,-1.7109 3.764,-3.0796 6.1593,-4.1061 2.3952,-0.9125 5.0186,-1.4828 7.7561,-1.4828 2.7374,0 5.2467,0.4562 7.642,1.4828 2.3952,0.9125 4.4483,2.2812 6.2733,4.1061 1.7109,1.7109 3.1937,3.8781 4.1061,6.3874 1.0266,2.5093 1.4828,5.3608 1.4828,8.4405 0,3.0796 -0.4562,5.9311 -1.4828,8.5545 -1.0265,2.5093 -2.3952,4.6764 -4.1061,6.5014 -1.7109,1.8249 -3.8781,3.1937 -6.2733,4.2202 -2.3953,1.0265 -5.0187,1.4828 -7.7561,1.4828 -2.8515,0 -5.4749,-0.4563 -7.8701,-1.4828 -2.3953,-1.0265 -4.4484,-2.3953 -6.1593,-4.2202 -1.7109,-1.825 -3.0796,-3.9921 -4.1062,-6.5014 -0.7984,-2.5094 -1.2546,-5.2468 -1.2546,-8.3264 z m 76.1921,0 c 0,-1.939 -0.3422,-3.8781 -0.9125,-5.589 -0.6843,-1.7109 -1.4828,-3.3077 -2.6234,-4.5624 -1.1406,-1.2546 -2.5093,-2.3952 -3.9921,-3.1937 -1.4827,-0.7984 -3.1936,-1.1406 -5.0186,-1.1406 -3.9921,0 -7.0717,1.2547 -9.2389,3.8781 -2.1671,2.6234 -3.3077,6.0452 -3.3077,10.3795 0,1.939 0.3422,3.878 0.9125,5.5889 0.6843,1.825 1.4828,3.3077 2.6234,4.6765 1.1406,1.3687 2.5093,2.3952 3.9921,3.1936 1.4827,0.7985 3.1936,1.1406 5.0186,1.1406 1.939,0 3.764,-0.3421 5.2468,-1.0265 1.5968,-0.6844 2.8515,-1.7109 3.9921,-2.9656 1.0265,-1.2546 1.939,-2.8515 2.5093,-4.5624 0.5703,-1.7109 0.7984,-3.6499 0.7984,-5.817 m -32.1649,0 c 0,-3.1937 0.4562,-6.0452 1.4828,-8.5545 1.0265,-2.5094 2.3952,-4.6765 4.1061,-6.5015 1.7109,-1.7109 3.764,-3.0796 6.1593,-4.1061 2.3952,-0.9125 5.0186,-1.4828 7.756,-1.4828 2.7375,0 5.2468,0.4562 7.6421,1.4828 2.3952,0.9125 4.4483,2.2812 6.2733,4.1061 1.7109,1.7109 3.1936,3.8781 4.1061,6.3874 1.0266,2.5093 1.4828,5.3608 1.4828,8.4405 0,3.0796 -0.4562,5.9311 -1.4828,8.5545 -1.0265,2.5093 -2.3952,4.6764 -4.1061,6.5014 -1.7109,1.8249 -3.8781,3.1937 -6.2733,4.2202 -2.3953,1.0265 -5.0187,1.4828 -7.7561,1.4828 -2.8515,0 -5.4749,-0.4563 -7.8702,-1.4828 -2.3952,-1.0265 -4.4483,-2.3953 -6.1592,-4.2202 -1.7109,-1.825 -3.0796,-3.9921 -4.1062,-6.5014 -0.7984,-2.5094 -1.2546,-5.2468 -1.2546,-8.3264 l 0,0 z m 51.5551,-13.0029 c 1.3687,-2.1671 3.1937,-3.878 5.3608,-5.3608 2.1672,-1.4828 4.6765,-2.1671 7.4139,-2.1671 3.0797,0 5.703,0.7984 7.6421,2.2812 1.939,1.4827 3.4218,3.5358 4.2202,6.0451 1.5968,-2.2812 3.4218,-4.3342 5.5889,-5.9311 2.1672,-1.5968 4.7906,-2.3952 7.9842,-2.3952 2.1672,0 3.9921,0.3421 5.589,1.0265 1.5968,0.6844 2.9655,1.7109 3.9921,2.9656 1.0265,1.2546 1.8249,2.8515 2.3952,4.5624 0.5703,1.8249 0.7985,3.7639 0.7985,5.9311 l 0,25.6635 -6.8436,0 0,-25.0932 c 0,-2.7375 -0.6844,-4.9046 -1.9391,-6.6155 -1.2546,-1.7109 -2.9655,-2.5093 -5.2467,-2.5093 -1.1406,0 -2.2812,0.2281 -3.3078,0.6843 -1.0265,0.4563 -2.053,1.0266 -3.0796,1.825 -0.9125,0.7984 -1.8249,1.7109 -2.7374,2.7374 -0.9125,1.0266 -1.5969,2.0531 -2.3953,3.1937 l 0,25.7776 -6.8436,0 0,-25.0932 c 0,-2.7375 -0.6844,-4.9046 -1.939,-6.6155 -1.2547,-1.7109 -2.9656,-2.5093 -5.2468,-2.5093 -1.1406,0 -2.1671,0.2281 -3.3077,0.6843 -1.0266,0.4563 -2.0531,1.0266 -3.0796,1.825 -1.0266,0.7984 -1.9391,1.5968 -2.7375,2.6234 -0.9125,1.0265 -1.5968,2.0531 -2.3952,3.1937 l 0,25.8916 -6.8436,0 0,-39.2367 6.6154,0 0.3422,6.6155 z"
         style="fill:#d65649;fill-opacity:1" />
      <g
         transform="matrix(1.1406006,0,0,1.1406006,591.58197,1884.1725)"
         id="g4233"
         style="fill:#ffffff;fill-opacity:1">
        <path
           id="path4235"
           inkscape:connector-curvature="0"
           class="st3"
           d="m 146.7,44.7 c 0.2,-0.1 0.4,-0.1 0.5,-0.2 2.1,-0.6 3.7,-0.9 4.6,-0.9 0.7,0 1,0.2 1,0.7 0,0.2 -0.1,0.4 -0.2,0.5 -0.1,0.1 -0.3,0.2 -0.5,0.2 -0.1,0 -0.2,0 -0.4,0 -0.1,0 -0.3,0 -0.3,0 -0.5,0 -1.3,0.1 -2.1,0.4 -0.3,0.1 -0.9,0.3 -1.9,0.7 -0.6,0.3 -1.1,0.4 -1.6,0.4 -0.3,0 -0.5,-0.1 -0.7,-0.4 -0.2,-0.2 -0.3,-0.5 -0.3,-0.8 0,-0.3 0.2,-0.9 0.5,-1.7 1.1,-2.5 2.4,-4.7 3.7,-6.7 1.9,-2.8 3.3,-4.9 4.4,-6.3 0.3,-0.3 0.5,-0.7 0.8,-1 0.4,-0.6 0.8,-0.9 1.1,-0.9 0.2,0 0.3,0.1 0.4,0.2 0.1,0.1 0.2,0.3 0.2,0.4 0,0.2 -0.1,0.5 -0.4,0.9 -0.1,0.1 -0.4,0.6 -1.1,1.5 -1.3,1.7 -2.3,3 -2.9,4 -0.6,0.9 -1.4,2 -2.1,3.1 -1.3,2.3 -2.2,4.3 -2.7,5.9 z"
           style="fill:#ffffff;fill-opacity:1" />
        <path
           id="path4237"
           inkscape:connector-curvature="0"
           class="st3"
           d="m 155.6,43.2 0,0.2 c 0,0.2 0,0.4 0.1,0.5 0.2,0.3 0.6,0.5 1.1,0.5 1.1,0 2.5,-0.8 4,-2.6 0.3,-0.3 0.5,-0.4 0.6,-0.4 0.1,0 0.2,0 0.3,0.1 0.1,0.1 0.1,0.1 0.1,0.2 0,0.3 -0.4,0.9 -1.4,1.8 -0.7,0.6 -1.5,1.3 -2.2,1.7 -0.7,0.4 -1.5,0.6 -2.2,0.6 -0.7,0 -1.3,-0.2 -1.7,-0.7 -0.3,-0.3 -0.4,-0.7 -0.4,-1.4 0,-1.6 0.7,-3 2.2,-4.6 1.1,-1.3 2.2,-1.8 3.1,-1.8 0.2,0 0.4,0.1 0.6,0.2 0.2,0.2 0.3,0.5 0.3,0.8 0,0.5 -0.1,1.2 -0.4,1.8 -0.9,1.8 -2.3,2.5 -4.1,3.1 z m 0.3,-1.1 c 0.6,-0.2 1,-0.3 1.6,-0.7 0.8,-0.6 1.1,-0.9 1.6,-1.7 0.1,-0.2 0.2,-0.4 0.2,-0.6 0,-0.2 -0.1,-0.3 -0.3,-0.3 -0.2,0 -0.6,0.2 -1,0.5 -1,0.7 -1.6,1.6 -2.1,2.8 z"
           style="fill:#ffffff;fill-opacity:1" />
        <path
           id="path4239"
           inkscape:connector-curvature="0"
           class="st3"
           d="m 166.6,36.9 c -0.6,0.9 -1.1,2 -1.7,3.1 -0.7,1.7 -1,2.8 -1,3.7 0,0.2 0,0.4 0.1,0.5 0.1,0.1 0.2,0.2 0.4,0.2 0.4,0 1,-0.4 1.7,-1.3 0.4,-0.5 0.7,-1 1.1,-1.6 0.2,-0.3 0.3,-0.4 0.5,-0.4 0.1,0 0.2,0 0.3,0.1 0.1,0.1 0.1,0.2 0.1,0.2 0,0.3 -0.4,1.1 -1.4,2.3 -1,1.5 -2.1,2.1 -2.9,2.1 -0.4,0 -0.8,-0.2 -1.1,-0.6 -0.2,-0.3 -0.3,-0.6 -0.3,-1.1 0,-1.1 0.3,-2.4 0.9,-3.9 0.1,-0.4 0.6,-1.3 1.3,-2.6 -0.2,0.1 -0.4,0.1 -0.5,0.1 -0.2,0 -0.3,0 -0.5,-0.1 -0.2,-0.1 -0.3,-0.3 -0.3,-0.5 0,-0.2 0.1,-0.4 0.4,-0.5 0.1,0 0.4,-0.1 1,-0.2 0.2,0 0.5,-0.1 0.9,-0.3 0.3,-0.6 0.8,-1.4 1.6,-2.4 0.4,-0.5 0.7,-0.9 0.8,-1 0.2,-0.2 0.4,-0.3 0.6,-0.3 0.1,0 0.2,0.1 0.3,0.2 0.1,0.1 0.2,0.2 0.2,0.3 0,0.2 -0.2,0.7 -0.7,1.5 -0.3,0.4 -0.6,0.8 -0.7,1.1 1,-0.3 1.8,-0.4 2.2,-0.4 0.5,0 0.7,0.2 0.7,0.6 0,0.2 -0.1,0.4 -0.3,0.4 -0.1,0.1 -0.3,0.1 -0.7,0.1 -0.1,0 -0.8,0.2 -2.1,0.5 -0.2,0 -0.6,0.1 -0.9,0.2 l 0,0 z"
           style="fill:#ffffff;fill-opacity:1" />
        <path
           id="path4241"
           inkscape:connector-curvature="0"
           class="st3"
           d="m 176,27.9 c 0.1,0 0.2,0 0.3,0.1 0.1,0.1 0.2,0.3 0.2,0.5 0,0.4 -0.5,1.7 -1.7,3.8 -0.4,0.7 -0.7,1.1 -0.8,1.4 -0.1,0.1 -0.3,0.2 -0.4,0.2 -0.3,0 -0.5,-0.2 -0.5,-0.6 0,-0.3 0.2,-0.7 0.5,-1.4 0.8,-1.7 1.3,-2.5 1.3,-2.7 0.3,-0.9 0.7,-1.3 1.1,-1.3 z"
           style="fill:#ffffff;fill-opacity:1" />
        <path
           id="path4243"
           inkscape:connector-curvature="0"
           class="st3"
           d="m 177.3,36.6 c 0.5,0 1,0.1 1.3,0.3 0.3,0.2 0.4,0.5 0.4,0.9 0,0.5 -0.2,1 -0.6,1.6 -0.4,0.6 -0.9,0.8 -1.8,1.1 -0.4,0.1 -0.7,0.2 -1,0.2 -0.4,0 -0.6,-0.2 -0.6,-0.5 0,-0.2 0.1,-0.4 0.3,-0.5 0.1,0 0.4,-0.1 0.9,-0.2 0.3,-0.1 0.6,-0.2 0.9,-0.5 0.2,-0.2 0.4,-0.4 0.4,-0.7 0,-0.2 -0.1,-0.3 -0.2,-0.4 -0.1,-0.1 -0.3,-0.1 -0.5,-0.1 -0.5,0 -1.1,0.2 -1.8,0.6 -0.7,0.5 -1.1,1 -1.1,1.8 0,0.5 0.2,1 0.7,1.8 0.5,0.8 0.8,1.5 0.8,2 0,0.8 -0.3,1.5 -1,1.9 -0.4,0.3 -0.9,0.4 -1.5,0.4 -0.8,0 -1.6,-0.3 -2,-0.9 -0.3,-0.4 -0.5,-0.9 -0.5,-1.6 0,-0.7 0.2,-1.4 0.5,-1.8 0.2,-0.3 0.5,-0.5 0.7,-0.5 0.2,0 0.3,0.1 0.3,0.3 0,0.1 0,0.2 -0.1,0.3 -0.2,0.4 -0.3,0.8 -0.3,1.4 0,0.4 0.2,0.8 0.5,1.1 0.3,0.3 0.6,0.4 0.9,0.4 0.3,0 0.6,-0.1 0.8,-0.3 0.2,-0.2 0.2,-0.4 0.2,-0.7 0,-0.4 -0.2,-0.8 -0.6,-1.5 -0.6,-0.8 -0.9,-1.6 -0.9,-2.3 0,-0.9 0.5,-1.8 1.5,-2.4 1.3,-0.8 2.3,-1.2 3.4,-1.2 l 0,0 z"
           style="fill:#ffffff;fill-opacity:1" />
        <path
           id="path4245"
           inkscape:connector-curvature="0"
           class="st3"
           d="m 189.3,44.7 c 0.9,-0.7 1.7,-1.4 2.2,-2 0.7,-0.8 1.3,-1.6 1.5,-2.1 0.1,-0.2 0.3,-0.3 0.4,-0.3 0.2,0 0.3,0.1 0.3,0.3 0,0.2 -0.2,0.6 -0.5,1.3 -1,1.8 -2.7,3.3 -4.9,4.6 -1,2.1 -1.8,3.5 -2.2,4.3 -1.3,2 -2.5,2.9 -3.5,2.9 -0.6,0 -1,-0.2 -1.3,-0.7 -0.1,-0.3 -0.2,-0.5 -0.2,-0.9 0,-1.5 0.9,-2.8 2.8,-4.2 0.3,-0.2 1.5,-0.9 3.5,-2.1 0.4,-0.8 0.7,-1.6 0.9,-2 -0.9,1 -1.8,1.6 -2.4,1.6 -0.4,0 -0.7,-0.2 -0.9,-0.6 -0.1,-0.3 -0.2,-0.5 -0.2,-0.8 0,-0.6 0.3,-1.5 0.8,-2.5 0.7,-1.5 1.7,-2.7 2.8,-3.5 0.9,-0.7 1.7,-1 2.4,-1 0.3,0 0.6,0.1 0.9,0.4 0.2,0.2 0.3,0.4 0.3,0.7 0,0.4 -0.1,0.9 -0.4,1.6 0.2,0.2 0.3,0.3 0.3,0.4 0,0.1 0,0.1 -0.1,0.3 -0.2,0.3 -0.6,0.9 -1.1,1.9 -0.6,0.7 -1,1.4 -1.4,2.4 z m -0.1,-3.3 c -0.1,-0.1 -0.2,-0.2 -0.2,-0.3 0,-0.1 0.1,-0.2 0.2,-0.3 0.4,-0.4 0.8,-0.9 1.1,-1.4 0.2,-0.4 0.3,-0.6 0.3,-0.8 0,-0.2 -0.1,-0.4 -0.3,-0.4 -0.4,0 -0.9,0.4 -1.7,1.1 -0.8,0.9 -1.6,1.9 -2.1,3 -0.2,0.5 -0.3,0.9 -0.3,1.3 0,0.2 0,0.3 0.1,0.4 0.1,0.1 0.2,0.1 0.3,0.1 0.3,0 0.7,-0.3 1.4,-0.9 0.4,-0.4 0.7,-0.8 0.9,-1.3 0.3,-0.3 0.3,-0.5 0.3,-0.5 l 0,0 z m -2.6,6.1 c -1.3,0.5 -2.3,1.3 -3.2,2.3 -0.4,0.5 -0.7,1 -0.9,1.6 -0.1,0.2 -0.1,0.3 -0.1,0.4 0,0.1 0,0.2 0.1,0.3 0.1,0.2 0.2,0.2 0.4,0.2 0.5,0 1.3,-0.6 2,-1.9 0.6,-0.9 1.2,-2 1.7,-2.9 z"
           style="fill:#ffffff;fill-opacity:1" />
        <path
           id="path4247"
           inkscape:connector-curvature="0"
           class="st3"
           d="m 196.4,41.3 c 0.9,-0.9 2,-1.9 3.1,-2.8 0.4,-0.3 0.8,-0.6 1.4,-0.9 0.2,-0.1 0.4,-0.2 0.4,-0.2 0.1,0 0.3,0.1 0.4,0.3 0.1,0.1 0.1,0.2 0.1,0.3 0,0.2 -0.2,0.4 -0.5,0.6 -0.9,0.7 -1.4,1.3 -1.4,1.7 0,0.2 0.1,0.3 0.3,0.3 0.4,0 1,-0.3 2.1,-0.9 0.2,-0.1 0.3,-0.2 0.4,-0.2 0.1,0 0.1,0 0.2,0.1 0.1,0.1 0.1,0.2 0.1,0.3 0,0.3 -0.4,0.7 -1.1,1.3 -0.8,0.6 -1.6,0.9 -2.3,0.9 -0.3,0 -0.5,-0.1 -0.8,-0.2 -0.2,-0.1 -0.3,-0.3 -0.3,-0.7 0,-0.2 0.1,-0.5 0.3,-0.8 -0.7,0.5 -1.6,1.4 -2.6,2.6 -0.5,0.7 -1.1,1.7 -1.7,2.8 -0.2,0.4 -0.5,0.6 -0.8,0.6 -0.3,0 -0.5,-0.2 -0.5,-0.5 0,-0.3 0.3,-1.1 0.8,-2.5 0.8,-2 1.6,-3.5 2.5,-4.7 0.5,-0.7 0.9,-1 1.4,-1 0.1,0 0.2,0 0.3,0.1 0.1,0.1 0.2,0.2 0.2,0.3 0,0.1 -0.1,0.3 -0.3,0.6 0,0 -0.3,0.3 -0.7,0.9 -0.5,0.6 -0.8,1.1 -1,1.7 l 0,0 z"
           style="fill:#ffffff;fill-opacity:1" />
        <path
           id="path4249"
           inkscape:connector-curvature="0"
           class="st3"
           d="m 207.7,36.9 c 0.7,0 1.1,0.4 1.1,1.4 0,1.3 -0.5,2.7 -1.7,4.6 -1.3,2 -2.4,3 -3.5,3 -0.5,0 -0.9,-0.2 -1.1,-0.7 -0.1,-0.2 -0.2,-0.5 -0.2,-0.9 0,-1.1 0.4,-2.4 1.3,-3.9 0.7,-1.3 1.7,-2.3 2.6,-2.9 0.5,-0.4 1.1,-0.6 1.5,-0.6 z m -1.3,5.3 c -0.2,-0.2 -0.3,-0.3 -0.3,-0.4 0,-0.1 0.1,-0.3 0.4,-0.6 0.8,-0.9 1.3,-1.7 1.3,-2.2 0,-0.1 0,-0.1 -0.1,-0.2 -0.1,-0.1 -0.2,-0.2 -0.3,-0.2 -0.3,0 -0.7,0.3 -1.3,0.8 -0.7,0.7 -1.3,1.5 -1.7,2.3 -0.4,0.9 -0.6,1.7 -0.6,2.2 0,0.1 0,0.3 0.1,0.4 0.1,0.2 0.3,0.2 0.4,0.2 0.4,0 0.9,-0.3 1.5,-0.9 0.2,-0.3 0.4,-0.5 0.5,-0.8 0,-0.5 0.1,-0.6 0.1,-0.6 l 0,0 z"
           style="fill:#ffffff;fill-opacity:1" />
        <path
           id="path4251"
           inkscape:connector-curvature="0"
           class="st3"
           d="m 213.7,41.9 c -0.8,1 -1.4,1.8 -1.8,2.2 -0.4,0.5 -0.8,0.9 -1.3,1.1 -0.4,0.3 -0.7,0.4 -1,0.4 -0.3,0 -0.5,-0.2 -0.7,-0.5 -0.1,-0.2 -0.2,-0.5 -0.2,-0.8 0,-1 0.6,-2.4 1.8,-4.2 1,-1.6 1.9,-2.4 2.4,-2.4 0.1,0 0.2,0.1 0.4,0.2 0.1,0.1 0.2,0.2 0.2,0.4 0,0.2 -0.2,0.5 -0.5,0.8 -0.7,0.7 -1.5,1.6 -2,2.5 -0.5,0.8 -0.7,1.4 -0.7,1.6 0,0.2 0.1,0.3 0.2,0.3 0.5,0 1.8,-1.1 3.5,-3.5 0.6,-0.7 0.9,-1.3 1,-1.4 0.2,-0.2 0.5,-0.3 0.7,-0.3 0.2,0 0.3,0 0.4,0.1 0.1,0.1 0.1,0.2 0.1,0.3 0,0.1 -0.2,0.5 -0.6,1.4 -1,1.8 -1.5,2.9 -1.5,3.5 0,0.2 0.1,0.3 0.3,0.3 0.3,0 0.8,-0.4 1.4,-1.1 0.5,-0.7 1,-1.7 1.6,-2.7 0.2,-0.5 0.4,-1.1 0.5,-1.9 0.2,-0.9 0.5,-1.4 1.1,-1.4 0.3,0 0.4,0.2 0.4,0.5 0,1.3 -0.6,2.8 -2,4.9 -1.4,2.2 -2.6,3.3 -3.5,3.3 -0.7,0 -1,-0.4 -1,-1.4 0.1,-0.2 0.4,-1.1 0.8,-2.2 l 0,0 z"
           style="fill:#ffffff;fill-opacity:1" />
        <path
           id="path4253"
           inkscape:connector-curvature="0"
           class="st3"
           d="m 228.6,43.5 c -0.3,0.5 -0.6,0.9 -0.9,1.4 -0.6,0.7 -1.1,1 -1.7,1 -0.6,0 -0.8,-0.2 -1.1,-0.7 -0.2,-0.3 -0.3,-0.6 -0.3,-1 0,-1 0.3,-2.2 0.9,-3.3 0.7,-1.4 1.6,-2.4 2.6,-3.1 0.6,-0.5 1.3,-0.7 1.9,-0.7 0.4,0 0.7,0.1 0.9,0.3 0.2,0.2 0.3,0.4 0.3,0.7 0,0.2 -0.1,0.5 -0.2,0.8 0.1,0.2 0.2,0.3 0.2,0.5 0,0.2 -0.1,0.5 -0.4,0.9 -0.3,0.4 -0.5,1 -0.8,1.8 -0.3,0.8 -0.4,1.5 -0.4,1.9 0,0.4 0.1,0.7 0.3,0.9 0.1,0.1 0.2,0.2 0.5,0.3 0.2,0.1 0.3,0.3 0.3,0.6 0,0.2 -0.1,0.3 -0.2,0.4 -0.1,0.1 -0.3,0.2 -0.5,0.2 -0.5,0 -0.9,-0.2 -1.3,-0.6 -0.3,-0.3 -0.4,-0.8 -0.4,-1.4 0.3,-0.2 0.3,-0.5 0.3,-0.9 l 0,0 z m 1.8,-4.5 c -0.1,-0.2 -0.2,-0.3 -0.3,-0.4 -0.1,-0.1 -0.3,-0.1 -0.4,-0.1 -0.7,0 -1.5,0.6 -2.3,1.9 -0.9,1.4 -1.4,2.5 -1.4,3.4 0,0.2 0,0.4 0.1,0.5 0.1,0.1 0.2,0.2 0.4,0.2 0.4,0 0.9,-0.4 1.6,-1.4 0.3,-0.5 0.7,-1.3 1.3,-2.3 0.3,-0.6 0.5,-1 0.7,-1.3 0,-0.2 0.1,-0.4 0.3,-0.5 z"
           style="fill:#ffffff;fill-opacity:1" />
        <path
           id="path4255"
           inkscape:connector-curvature="0"
           class="st3"
           d="m 240.2,41.2 c -0.3,0.7 -0.5,1.3 -0.6,1.8 -0.1,0.4 -0.2,0.7 -0.2,0.9 0,0.2 0.1,0.3 0.3,0.3 0.3,0 0.7,-0.3 1.3,-0.9 0.2,-0.3 0.6,-0.8 1.1,-1.7 0.2,-0.3 0.4,-0.4 0.6,-0.4 0.2,0 0.3,0.1 0.3,0.3 0,0.4 -0.4,1.1 -1.4,2.4 -0.9,1.3 -1.8,1.9 -2.6,1.9 -0.3,0 -0.6,-0.1 -0.8,-0.4 -0.1,-0.2 -0.2,-0.4 -0.2,-0.7 0,-0.5 0.1,-1.3 0.4,-2.1 0.3,-0.9 0.7,-2 1.4,-3.3 1.6,-3.3 3.2,-6.1 4.8,-8.1 1.4,-1.8 2.4,-2.6 3.2,-2.6 0.3,0 0.5,0.1 0.6,0.3 0.2,0.2 0.3,0.4 0.3,0.7 0,1.3 -1.1,3.4 -3.4,6.4 -1,1.4 -2.3,2.6 -3.7,4 -0.2,0.2 -0.8,0.7 -1.4,1.2 l 0,0 z m 0.9,-2.2 c 1.9,-1.7 3.7,-3.7 5.1,-6.2 0.7,-1.3 1.1,-2.2 1.1,-2.6 0,-0.2 -0.1,-0.3 -0.3,-0.3 -0.5,0 -1.5,1 -2.7,3 -1,1.7 -2.1,3.7 -3.2,6.1 l 0,0 z"
           style="fill:#ffffff;fill-opacity:1" />
        <path
           id="path4257"
           inkscape:connector-curvature="0"
           class="st3"
           d="m 247.6,37.6 c 0.1,0 0.3,0.1 0.4,0.2 0.1,0.1 0.1,0.2 0.1,0.3 0,0.2 -0.1,0.4 -0.4,0.8 -0.9,1.5 -1.7,2.7 -2.1,3.7 -0.4,0.9 -0.8,2 -1.1,3 -0.1,0.4 -0.4,0.7 -0.7,0.7 -0.2,0 -0.3,-0.1 -0.4,-0.2 -0.1,-0.1 -0.1,-0.2 -0.1,-0.4 0,-0.3 0.3,-1.1 0.8,-2.7 0.4,-1.3 1.3,-2.6 2.2,-4.1 0.3,-0.5 0.6,-0.8 0.7,-0.9 0.3,-0.3 0.4,-0.4 0.6,-0.4 l 0,0 z m 2.6,-5.2 c 0.4,0 0.6,0.2 0.6,0.6 0,0.4 -0.2,0.8 -0.6,1.3 -0.4,0.5 -0.7,0.6 -1.1,0.6 -0.2,0 -0.3,-0.1 -0.4,-0.2 -0.1,-0.1 -0.2,-0.3 -0.2,-0.4 0,-0.4 0.2,-0.9 0.7,-1.4 0.4,-0.2 0.7,-0.5 1,-0.5 l 0,0 z"
           style="fill:#ffffff;fill-opacity:1" />
        <path
           id="path4259"
           inkscape:connector-curvature="0"
           class="st3"
           d="m 251.7,38.6 c 0.7,-0.6 1.5,-0.9 2.1,-0.9 0.4,0 0.7,0.2 0.9,0.5 0.2,0.3 0.3,0.6 0.3,0.9 0,0.7 -0.2,1.6 -0.7,2.6 -0.5,1.1 -1.3,2.2 -2.3,3.1 -0.8,0.8 -1.6,1.3 -2.3,1.3 -0.3,0 -0.5,0 -0.7,-0.1 -0.2,-0.1 -0.4,-0.2 -0.6,-0.4 -0.1,0.1 -0.1,0.2 -0.1,0.2 -0.1,0.3 -0.3,0.5 -0.3,0.6 -0.1,0.1 -0.2,0.1 -0.3,0.1 -0.2,0 -0.3,-0.1 -0.4,-0.3 -0.1,-0.1 -0.1,-0.3 -0.1,-0.4 0,-0.2 0.5,-1.6 1.6,-3.9 1.5,-3.2 3.2,-6.5 5.1,-9.7 0.8,-1.4 1.3,-2.1 1.5,-2.3 0.2,-0.3 0.4,-0.4 0.5,-0.4 0.2,0 0.4,0.1 0.5,0.3 0.1,0.1 0.1,0.3 0.1,0.4 0,0.2 -0.1,0.4 -0.3,0.7 0,0.1 -0.3,0.5 -0.8,1.5 -1.7,2.3 -2.9,4.5 -3.7,6.2 l 0,0 z m -2.7,5.5 c 0.1,0.2 0.3,0.3 0.4,0.4 0.1,0.1 0.3,0.1 0.4,0.1 0.8,0 1.7,-0.7 2.5,-2.1 0.4,-0.6 0.7,-1.3 0.9,-1.9 0.2,-0.5 0.3,-0.9 0.3,-1.3 0,-0.2 0,-0.3 -0.1,-0.4 -0.1,-0.1 -0.2,-0.1 -0.4,-0.1 -0.4,0 -0.9,0.3 -1.6,0.8 -0.6,0.5 -1.1,1.4 -1.8,2.5 -0.3,0.5 -0.5,1 -0.7,1.5 0.2,0.4 0.1,0.5 0.1,0.5 l 0,0 z"
           style="fill:#ffffff;fill-opacity:1" />
        <path
           id="path4261"
           inkscape:connector-curvature="0"
           class="st3"
           d="m 257.8,41.3 c 0.9,-0.9 2,-1.9 3.1,-2.8 0.4,-0.3 0.8,-0.6 1.4,-0.9 0.2,-0.1 0.4,-0.2 0.4,-0.2 0.1,0 0.3,0.1 0.4,0.3 0.1,0.1 0.1,0.2 0.1,0.3 0,0.2 -0.2,0.4 -0.5,0.6 -0.9,0.7 -1.4,1.3 -1.4,1.7 0,0.2 0.1,0.3 0.3,0.3 0.4,0 1,-0.3 2.1,-0.9 0.2,-0.1 0.3,-0.2 0.4,-0.2 0.1,0 0.1,0 0.2,0.1 0.1,0.1 0.1,0.2 0.1,0.3 0,0.3 -0.4,0.7 -1.1,1.3 -0.8,0.6 -1.6,0.9 -2.3,0.9 -0.3,0 -0.5,-0.1 -0.8,-0.2 -0.2,-0.1 -0.3,-0.3 -0.3,-0.7 0,-0.2 0.1,-0.5 0.3,-0.8 -0.7,0.5 -1.6,1.4 -2.6,2.6 -0.5,0.7 -1.1,1.7 -1.7,2.8 -0.2,0.4 -0.5,0.6 -0.8,0.6 -0.3,0 -0.5,-0.2 -0.5,-0.5 0,-0.3 0.3,-1.1 0.8,-2.5 0.8,-2 1.6,-3.5 2.5,-4.7 0.5,-0.7 0.9,-1 1.4,-1 0.1,0 0.2,0 0.3,0.1 0.1,0.1 0.2,0.2 0.2,0.3 0,0.1 -0.1,0.3 -0.3,0.6 0,0 -0.3,0.3 -0.7,0.9 -0.4,0.6 -0.7,1.1 -1,1.7 l 0,0 z"
           style="fill:#ffffff;fill-opacity:1" />
        <path
           id="path4263"
           inkscape:connector-curvature="0"
           class="st3"
           d="m 268.3,43.5 c -0.3,0.5 -0.6,0.9 -0.9,1.4 -0.6,0.7 -1.1,1 -1.7,1 -0.5,0 -0.8,-0.2 -1.1,-0.7 -0.2,-0.3 -0.3,-0.6 -0.3,-1 0,-1 0.3,-2.2 0.9,-3.3 0.7,-1.4 1.6,-2.4 2.6,-3.1 0.6,-0.5 1.3,-0.7 1.9,-0.7 0.4,0 0.7,0.1 0.9,0.3 0.2,0.2 0.3,0.4 0.3,0.7 0,0.2 -0.1,0.5 -0.2,0.8 0.1,0.2 0.2,0.3 0.2,0.5 0,0.2 -0.1,0.5 -0.4,0.9 -0.3,0.4 -0.5,1 -0.8,1.8 -0.3,0.8 -0.4,1.5 -0.4,1.9 0,0.4 0.1,0.7 0.3,0.9 0.1,0.1 0.2,0.2 0.5,0.3 0.2,0.1 0.3,0.3 0.3,0.6 0,0.2 -0.1,0.3 -0.2,0.4 -0.1,0.1 -0.3,0.2 -0.5,0.2 -0.5,0 -0.9,-0.2 -1.3,-0.6 -0.3,-0.3 -0.4,-0.8 -0.4,-1.4 0.2,-0.2 0.2,-0.5 0.3,-0.9 l 0,0 z M 270,39 c -0.1,-0.2 -0.2,-0.3 -0.3,-0.4 -0.1,-0.1 -0.3,-0.1 -0.4,-0.1 -0.7,0 -1.5,0.6 -2.3,1.9 -0.9,1.4 -1.4,2.5 -1.4,3.4 0,0.2 0,0.4 0.1,0.5 0.1,0.1 0.2,0.2 0.4,0.2 0.4,0 0.9,-0.4 1.6,-1.4 0.3,-0.5 0.7,-1.3 1.3,-2.3 0.3,-0.6 0.5,-1 0.7,-1.3 -0.1,-0.2 0,-0.4 0.3,-0.5 z"
           style="fill:#ffffff;fill-opacity:1" />
        <path
           id="path4265"
           inkscape:connector-curvature="0"
           class="st3"
           d="m 274.7,41.3 c 0.9,-0.9 2,-1.9 3.1,-2.8 0.4,-0.3 0.8,-0.6 1.4,-0.9 0.2,-0.1 0.4,-0.2 0.4,-0.2 0.1,0 0.3,0.1 0.4,0.3 0.1,0.1 0.1,0.2 0.1,0.3 0,0.2 -0.2,0.4 -0.5,0.6 -0.9,0.7 -1.4,1.3 -1.4,1.7 0,0.2 0.1,0.3 0.3,0.3 0.4,0 1,-0.3 2.1,-0.9 0.2,-0.1 0.3,-0.2 0.4,-0.2 0.1,0 0.1,0 0.2,0.1 0.1,0.1 0.1,0.2 0.1,0.3 0,0.3 -0.4,0.7 -1.1,1.3 -0.8,0.6 -1.6,0.9 -2.3,0.9 -0.3,0 -0.5,-0.1 -0.8,-0.2 -0.2,-0.1 -0.3,-0.3 -0.3,-0.7 0,-0.2 0.1,-0.5 0.3,-0.8 -0.7,0.5 -1.6,1.4 -2.6,2.6 -0.5,0.7 -1.1,1.7 -1.7,2.8 -0.2,0.4 -0.5,0.6 -0.8,0.6 -0.3,0 -0.5,-0.2 -0.5,-0.5 0,-0.3 0.3,-1.1 0.8,-2.5 0.8,-2 1.6,-3.5 2.5,-4.7 0.5,-0.7 0.9,-1 1.4,-1 0.1,0 0.2,0 0.3,0.1 0.1,0.1 0.2,0.2 0.2,0.3 0,0.1 -0.1,0.3 -0.3,0.6 0,0 -0.3,0.3 -0.7,0.9 -0.5,0.6 -0.8,1.1 -1,1.7 l 0,0 z"
           style="fill:#ffffff;fill-opacity:1" />
        <path
           id="path4267"
           inkscape:connector-curvature="0"
           class="st3"
           d="m 285.7,41.9 c -0.8,0.9 -1.5,1.7 -2,2.2 -0.9,0.9 -1.8,1.4 -2.4,1.4 -0.3,0 -0.5,-0.1 -0.7,-0.3 -0.1,-0.2 -0.2,-0.4 -0.2,-0.7 0,-0.9 0.6,-2.3 1.8,-4 1.1,-1.7 2.1,-2.5 2.6,-2.5 0.1,0 0.3,0.1 0.4,0.2 0.1,0.1 0.1,0.2 0.1,0.3 0,0.2 -0.1,0.4 -0.2,0.5 -0.1,0.1 -0.4,0.5 -0.9,1 -0.5,0.5 -1,1.1 -1.5,1.8 -0.5,0.7 -0.7,1.3 -0.7,1.6 0,0.2 0.1,0.3 0.3,0.3 0.4,0 1,-0.5 2.1,-1.5 0.6,-0.6 1.1,-1.1 1.5,-1.6 0.1,-0.1 0.4,-0.5 0.9,-1.4 0.5,-0.7 0.8,-1.1 0.9,-1.3 0.3,-0.3 0.5,-0.5 0.7,-0.5 0.1,0 0.3,0.1 0.4,0.2 0.1,0.1 0.2,0.2 0.2,0.4 0,0.3 -0.2,0.7 -0.5,1.4 -0.4,0.7 -0.8,1.5 -1.3,2.1 -0.6,1 -1,2 -1.4,2.7 0.6,-0.3 1.1,-0.7 1.6,-1.3 0.8,-0.8 1.4,-1.5 1.6,-1.9 0.2,-0.4 0.3,-0.5 0.5,-0.5 0.2,0 0.4,0.1 0.4,0.4 0,0.5 -0.4,1.3 -1.3,2.2 -0.9,1.1 -2.2,2.1 -3.7,2.9 -0.7,1.9 -1.5,3.3 -2.2,4.6 -1.3,2.3 -2.6,3.3 -4,3.3 -0.5,0 -1,-0.2 -1.4,-0.6 -0.3,-0.3 -0.4,-0.7 -0.4,-1.3 0,-1.5 1,-2.9 3,-4.4 0.6,-0.4 1.5,-0.9 2.6,-1.7 0.4,-0.3 0.8,-0.5 1.1,-0.6 0.2,-0.4 0.4,-0.9 0.7,-1.7 0.8,-0.4 1.1,-1 1.4,-1.7 l 0,0 z m -2.5,5.5 c -0.9,0.5 -2,1.3 -3,2.1 -1,0.9 -1.6,1.8 -1.6,2.6 0,0.2 0,0.3 0.1,0.4 0.1,0.2 0.3,0.2 0.5,0.2 0.7,0 1.5,-0.7 2.3,-2.2 0.1,-0.2 0.5,-1 1.1,-2.4 0.3,-0.1 0.4,-0.4 0.6,-0.7 l 0,0 z"
           style="fill:#ffffff;fill-opacity:1" />
      </g>
    </g>
  </g>
</svg>
