<?xml version="1.0" encoding="UTF-8" standalone="no"?>
<!-- Created with Inkscape (http://www.inkscape.org/) -->

<svg
   xmlns:dc="http://purl.org/dc/elements/1.1/"
   xmlns:cc="http://creativecommons.org/ns#"
   xmlns:rdf="http://www.w3.org/1999/02/22-rdf-syntax-ns#"
   xmlns:svg="http://www.w3.org/2000/svg"
   xmlns="http://www.w3.org/2000/svg"
   xmlns:sodipodi="http://sodipodi.sourceforge.net/DTD/sodipodi-0.dtd"
   xmlns:inkscape="http://www.inkscape.org/namespaces/inkscape"
   width="3.9018888in"
   height="5.7838502in"
   id="svg2"
   version="1.1"
   inkscape:version="0.92.1 r15371"
   sodipodi:docname="logos.svg">
  <sodipodi:namedview
     id="base"
     pagecolor="#ffffff"
     bordercolor="#666666"
     borderopacity="1.0"
     inkscape:pageopacity="0.0"
     inkscape:pageshadow="2"
     inkscape:zoom="1.4142135"
     inkscape:cx="-25.912318"
     inkscape:cy="288.49944"
     inkscape:document-units="px"
     inkscape:current-layer="layer1"
     showgrid="false"
     inkscape:window-width="1781"
     inkscape:window-height="1177"
     inkscape:window-x="1912"
     inkscape:window-y="-8"
     inkscape:window-maximized="1"
     showguides="true"
     inkscape:guide-bbox="true"
     fit-margin-top="0"
     fit-margin-left="0"
     fit-margin-right="0"
     fit-margin-bottom="0"
     units="in"
     inkscape:snap-global="false" />
  <defs
     id="defs4" />
  <metadata
     id="metadata7">
    <rdf:RDF>
      <cc:Work
         rdf:about="">
        <dc:format>image/svg+xml</dc:format>
        <dc:type
           rdf:resource="http://purl.org/dc/dcmitype/StillImage" />
        <dc:title />
      </cc:Work>
    </rdf:RDF>
  </metadata>
  <g
     transform="translate(-643.45154,-1504.7925)"
     id="layer1"
     inkscape:groupmode="layer"
     inkscape:label="Layer 1">
    <g
       style="fill:#0c8597;fill-opacity:1"
       transform="matrix(0.56679189,0,0,0.56679189,-428.24729,584.96586)"
       id="g4079-8-5-6-3">
      <g
         style="fill:#0c8597;fill-opacity:1"
         transform="translate(187.20382,-28.18122)"
         id="g4107-0-8-0" />
    </g>
    <g
       transform="matrix(0.56679189,0,0,0.56679189,-414.55626,589.52954)"
       id="g4079-8-1-2">
      <g
         transform="translate(187.20382,-28.18122)"
         id="g4107-8-1" />
    </g>
    <g
       id="g3174-48-3-8-5"
       transform="matrix(0.56679189,0,0,0.56679189,-676.99148,15.208773)" />
    <g
       id="g4079-8-5-6-3-4"
       transform="matrix(0.56679189,0,0,0.56679189,1391.7551,1120.8593)"
       style="fill:#0c8597;fill-opacity:1">
      <g
         id="g4107-0-8-0-4"
         transform="translate(187.20382,-28.18122)"
         style="fill:#0c8597;fill-opacity:1" />
    </g>
    <g
       id="g4079-8-1-2-8"
       transform="matrix(0.56679189,0,0,0.56679189,1405.4461,1125.4229)">
      <g
         id="g4107-8-1-8"
         transform="translate(187.20382,-28.18122)" />
    </g>
    <g
       transform="matrix(0.56679189,0,0,0.56679189,1143.0109,551.10222)"
       id="g3174-48-3-8-5-8" />
    <g
       id="g4079-8-5-6-3-0"
       transform="matrix(0.56679189,0,0,0.56679189,1391.7551,1120.8593)"
       style="fill:#0c8597;fill-opacity:1">
      <g
         id="g4107-0-8-0-9"
         transform="translate(187.20382,-28.18122)"
         style="fill:#0c8597;fill-opacity:1" />
    </g>
    <g
       id="g4079-8-1-2-83"
       transform="matrix(0.56679189,0,0,0.56679189,1405.4461,1125.4229)">
      <g
         id="g4107-8-1-4"
         transform="translate(187.20382,-28.18122)" />
    </g>
    <g
       transform="matrix(0.56679189,0,0,0.56679189,1143.0109,551.10222)"
       id="g3174-48-3-8-5-4" />
    <flowRoot
       xml:space="preserve"
       id="flowRoot5380"
       style="font-style:normal;font-weight:normal;font-size:11.22142601px;line-height:0.01%;font-family:sans-serif;letter-spacing:0px;word-spacing:0px;fill:#000000;fill-opacity:1;stroke:none;stroke-width:0.93511879px;stroke-linecap:butt;stroke-linejoin:miter;stroke-opacity:1"><flowRegion
         id="flowRegion5382"
         style="font-family:sans-serif;stroke-width:0.93511879px"><rect
           id="rect5384"
           width="83.790237"
           height="56.430164"
           x="-1147.4324"
           y="-156.35277"
           style="font-family:sans-serif;stroke-width:0.87444717px" /></flowRegion><flowPara
         id="flowPara5386"
         style="font-size:6.80150223px;line-height:1.25;font-family:sans-serif;stroke-width:0.93511879px"> </flowPara></flowRoot>    <rect
       style="opacity:1;fill:#323232;fill-opacity:1;fill-rule:nonzero;stroke:#0068a6;stroke-width:0.85181695;stroke-linecap:round;stroke-linejoin:miter;stroke-miterlimit:4;stroke-dasharray:none;stroke-dashoffset:0;stroke-opacity:1"
       id="rect5020"
       width="206.68959"
       height="85.521873"
       x="658.06268"
       y="1637.9606"
       rx="0.071086876"
       ry="7.8869615" />
    <g
       id="g4712"
       transform="matrix(0.56679189,0,0,0.56679189,226.71609,604.0729)">
      <text
         id="text4696"
         y="2032.4281"
         x="798.11823"
         style="font-style:normal;font-weight:normal;font-size:12.80000019px;line-height:0%;font-family:sans-serif;letter-spacing:0px;word-spacing:0px;fill:#000000;fill-opacity:1;stroke:none;stroke-width:1.06666672px;stroke-linecap:butt;stroke-linejoin:miter;stroke-opacity:1"
         xml:space="preserve"><tspan
           y="2032.4281"
           x="798.11823"
           id="tspan4698"
           sodipodi:role="line"
           style="font-size:12px;line-height:1.25;font-family:sans-serif;stroke-width:1.06666672px">#D65649  |  Red 214, Green 86, Blue 73  |  Cyan 11, Magenta 80, Yellow 74, Black 2</tspan></text>
      <text
         id="text4700"
         y="2069.228"
         x="798.11823"
         style="font-style:normal;font-weight:normal;font-size:12.80000019px;line-height:0%;font-family:sans-serif;letter-spacing:0px;word-spacing:0px;fill:#000000;fill-opacity:1;stroke:none;stroke-width:1.06666672px;stroke-linecap:butt;stroke-linejoin:miter;stroke-opacity:1"
         xml:space="preserve"><tspan
           y="2069.228"
           x="798.11823"
           id="tspan4702"
           sodipodi:role="line"
           style="font-size:12px;line-height:1.25;font-family:sans-serif;stroke-width:1.06666672px">#4E4E4E  |  Red 78, Green 78, Blue 78  |  Cyan 65, Magenta 58, Yellow 57, Black 36</tspan></text>
      <rect
         ry="13.915093"
         rx="0"
         y="2020.8953"
         x="764.83801"
         height="16.427034"
         width="19.627035"
         id="rect4704"
         style="opacity:1;fill:#d65649;fill-opacity:1;fill-rule:nonzero;stroke:#d65649;stroke-width:10.23963261;stroke-linecap:round;stroke-linejoin:miter;stroke-miterlimit:4;stroke-dasharray:none;stroke-dashoffset:0;stroke-opacity:1" />
      <rect
         style="opacity:1;fill:#4d4d4d;fill-opacity:1;fill-rule:nonzero;stroke:#4d4d4d;stroke-width:10.23963261;stroke-linecap:round;stroke-linejoin:miter;stroke-miterlimit:4;stroke-dasharray:none;stroke-dashoffset:0;stroke-opacity:1"
         id="rect4710"
         width="19.627035"
         height="16.427034"
         x="765.90466"
         y="2057.6953"
         rx="0"
         ry="13.915093" />
    </g>
    <g
       transform="matrix(0.56679189,0,0,0.56679189,297.76817,494.48228)"
       id="g4227"
       inkscape:export-xdpi="314.63"
       inkscape:export-ydpi="314.63">
      <path
         id="path4229"
         inkscape:connector-curvature="0"
         inkscape:export-filename="X:\dev\b36\src\BloomExe\Resources\LogoForSplashScreen.png"
         inkscape:export-xdpi="108.54"
         inkscape:export-ydpi="108.54"
         sodipodi:nodetypes="cccsccc"
         class="st1"
         d="m 695.15098,2101.6624 c 0.36137,-20.2411 -6.98799,-24.9398 -11.32525,-28.1927 -3.85542,-2.771 -11.5663,-5.7833 -17.10843,-6.8675 -4.18983,23.3065 1.57307,51.9139 24.84627,50.843 26.73943,-1.2301 26.39771,-21.5318 24.79208,-50.2405 -14.57817,1.325 -19.0361,5.6625 -19.0361,5.6625 l -0.84332,0.6025"
         style="opacity:1;fill:none;stroke:#d65649;stroke-width:9.3975563;stroke-linejoin:round;stroke-opacity:1" />
      <path
         id="path4231"
         inkscape:connector-curvature="0"
         sodipodi:nodetypes="ccscsccsscscccccssscccscscscccsscsccccscccsccsccccssscccsccscssscscssssccscsssccccssscccsccscssscscssssccscsssccscccscccsccscsccccccscsccccccccc"
         class="st2"
         d="m 738.57172,2064.2896 c 1.82496,-0.2434 4.25824,-0.365 6.93483,-0.6083 2.79829,-0.1217 5.9616,-0.2434 9.61152,-0.2434 6.93483,0 12.288,1.3383 15.93792,3.8933 3.64992,2.5549 5.47488,6.0832 5.47488,10.5847 0,3.0416 -0.72992,5.4749 -2.31157,7.5432 -1.58166,2.0683 -3.89323,3.7716 -6.93483,5.1099 3.64992,1.3383 6.44811,3.0416 8.27317,5.3532 1.82496,2.3116 2.79819,5.1099 2.79819,8.5165 0,5.1099 -1.94656,9.2464 -5.96149,12.288 -4.01494,3.0416 -9.85483,4.5017 -17.64128,4.5017 -3.28491,0 -6.32651,-0.1217 -9.36811,-0.2434 -2.92,-0.1216 -5.23157,-0.3649 -6.93493,-0.6084 l 0.1217,-56.087 m 16.78966,50.4906 c 4.86656,0 8.63808,-0.8517 11.19306,-2.555 2.67659,-1.7033 4.01494,-4.2583 4.01494,-7.5432 0,-3.2849 -1.33835,-5.7182 -3.89323,-7.5431 -2.67669,-1.825 -6.44821,-2.7983 -11.31477,-2.7983 h -9.24651 v 19.9528 c 2.92,0.3651 5.9616,0.4868 9.24651,0.4868 m -0.24331,-26.2795 c 4.25824,0 7.66475,-0.8516 10.09803,-2.6766 2.55498,-1.7034 3.77162,-4.0149 3.77162,-6.9348 0,-3.0416 -1.21664,-5.3533 -3.64992,-6.935 -2.43328,-1.5815 -5.83989,-2.3115 -10.09813,-2.3115 -1.82496,0 -3.40661,0 -4.86656,0.1217 -1.45995,0.1216 -2.79829,0.1216 -4.01493,0.2433 v 18.3712 z m 37.47253,18.2496 c 0,2.92 0.48662,5.1099 1.70326,6.4482 1.21664,1.3384 2.91989,2.0683 4.98826,2.0683 0.97323,0 2.06827,-0.1216 3.0416,-0.365 0.97323,-0.2433 1.82496,-0.4867 2.55488,-0.8517 l 1.82496,5.8399 c -0.97333,0.4866 -2.18997,0.8517 -3.52821,1.095 -1.45995,0.365 -3.0416,0.4867 -4.74496,0.4867 -1.82496,0 -3.64992,-0.2433 -5.23147,-0.8516 -1.58165,-0.4868 -2.92,-1.3384 -4.13664,-2.555 -1.21664,-1.095 -2.06826,-2.555 -2.79829,-4.38 -0.72992,-1.8249 -0.97323,-3.8932 -0.97323,-6.4481 v -46.354 h 7.29984 z m 49.15222,-7.1781 c 0,-2.0683 -0.36502,-4.1367 -0.97334,-5.9616 -0.72992,-1.825 -1.58154,-3.5283 -2.79818,-4.8666 -1.21664,-1.3382 -2.6767,-2.5549 -4.25824,-3.4066 -1.58166,-0.8516 -3.40662,-1.2167 -5.35328,-1.2167 -4.25824,0 -7.54315,1.3384 -9.85472,4.1367 -2.31168,2.7983 -3.52832,6.4482 -3.52832,11.0715 0,2.0682 0.36501,4.1365 0.97333,5.9614 0.73003,1.9467 1.58165,3.5283 2.79829,4.9883 1.21664,1.46 2.67659,2.5549 4.25824,3.4065 1.58166,0.8518 3.40662,1.2167 5.35318,1.2167 2.06826,0 4.01493,-0.3649 5.59658,-1.095 1.70326,-0.73 3.0416,-1.8249 4.25824,-3.1633 1.09494,-1.3382 2.06827,-3.0416 2.67659,-4.8665 0.48661,-1.825 0.85163,-3.8933 0.85163,-6.2048 m -34.30923,0 c 0,-3.4067 0.48661,-6.4483 1.58165,-9.1248 1.09494,-2.6767 2.55488,-4.9883 4.37984,-6.935 1.82496,-1.8249 4.01494,-3.2849 6.56992,-4.3798 2.55488,-0.9733 5.35318,-1.5817 8.27318,-1.5817 2.91989,0 5.59648,0.4866 8.15146,1.5817 2.55488,0.9733 4.74486,2.4333 6.69152,4.3798 1.82496,1.825 3.40662,4.1367 4.37984,6.8133 1.09504,2.6765 1.58166,5.7181 1.58166,9.0032 0,3.2849 -0.48662,6.3265 -1.58166,9.1248 -1.09493,2.6765 -2.55488,4.9881 -4.37984,6.9348 -1.82496,1.9465 -4.13664,3.4066 -6.69152,4.5015 -2.55498,1.095 -5.35328,1.5817 -8.27317,1.5817 -3.0416,0 -5.83989,-0.4867 -8.39477,-1.5817 -2.55499,-1.0949 -4.74496,-2.555 -6.56992,-4.5015 -1.82496,-1.9467 -3.28491,-4.2583 -4.37995,-6.9348 -0.85163,-2.6767 -1.33824,-5.5966 -1.33824,-8.8815 z m 81.27157,0 c 0,-2.0683 -0.36501,-4.1367 -0.97333,-5.9616 -0.72992,-1.825 -1.58165,-3.5283 -2.79829,-4.8666 -1.21664,-1.3382 -2.67659,-2.5549 -4.25824,-3.4066 -1.58155,-0.8516 -3.40651,-1.2167 -5.35318,-1.2167 -4.25824,0 -7.54314,1.3384 -9.85482,4.1367 -2.31158,2.7983 -3.52822,6.4482 -3.52822,11.0715 0,2.0682 0.36502,4.1365 0.97334,5.9614 0.72992,1.9467 1.58165,3.5283 2.79829,4.9883 1.21664,1.46 2.67659,2.5549 4.25824,3.4065 1.58155,0.8518 3.40651,1.2167 5.35317,1.2167 2.06827,0 4.01494,-0.3649 5.59659,-1.095 1.70325,-0.73 3.0416,-1.8249 4.25824,-3.1633 1.09493,-1.3382 2.06827,-3.0416 2.67659,-4.8665 0.60832,-1.825 0.85162,-3.8933 0.85162,-6.2048 m -34.30922,0 c 0,-3.4067 0.48661,-6.4483 1.58165,-9.1248 1.09493,-2.6767 2.55488,-4.9883 4.37984,-6.935 1.82496,-1.8249 4.01493,-3.2849 6.56992,-4.3798 2.55488,-0.9733 5.35317,-1.5817 8.27307,-1.5817 2.92,0 5.59658,0.4866 8.15157,1.5817 2.55488,0.9733 4.74485,2.4333 6.69152,4.3798 1.82496,1.825 3.40651,4.1367 4.37984,6.8133 1.09504,2.6765 1.58165,5.7181 1.58165,9.0032 0,3.2849 -0.48661,6.3265 -1.58165,9.1248 -1.09493,2.6765 -2.55488,4.9881 -4.37984,6.9348 -1.82496,1.9465 -4.13664,3.4066 -6.69152,4.5015 -2.55499,1.095 -5.35328,1.5817 -8.27317,1.5817 -3.0416,0 -5.8399,-0.4867 -8.39488,-1.5817 -2.55488,-1.0949 -4.74486,-2.555 -6.56982,-4.5015 -1.82496,-1.9467 -3.2849,-4.2583 -4.37994,-6.9348 -0.85163,-2.6767 -1.33824,-5.5966 -1.33824,-8.8815 z m 54.9921,-13.8698 c 1.45995,-2.3116 3.40662,-4.1365 5.71819,-5.7182 2.31168,-1.5816 4.98827,-2.3116 7.90816,-2.3116 3.28501,0 6.0832,0.8517 8.15157,2.4333 2.06827,1.5816 3.64992,3.7715 4.50155,6.4481 1.70325,-2.4333 3.64992,-4.6231 5.96149,-6.3265 2.31168,-1.7032 5.10998,-2.5549 8.51648,-2.5549 2.31168,0 4.25824,0.3649 5.9616,1.095 1.70326,0.73 3.1632,1.8249 4.25824,3.1633 1.09494,1.3382 1.94656,3.0416 2.55488,4.8665 0.60832,1.9466 0.85174,4.0149 0.85174,6.3265 v 27.3744 h -7.29984 v -26.766 c 0,-2.92 -0.73003,-5.2316 -2.06838,-7.0566 -1.33824,-1.8249 -3.1632,-2.6766 -5.59648,-2.6766 -1.21664,0 -2.43328,0.2434 -3.52832,0.73 -1.09493,0.4867 -2.18986,1.095 -3.2849,1.9466 -0.97334,0.8517 -1.94656,1.825 -2.9199,2.9199 -0.97333,1.0951 -1.70336,2.19 -2.55498,3.4066 v 27.4961 h -7.29984 v -26.766 c 0,-2.92 -0.73003,-5.2316 -2.06827,-7.0566 -1.33835,-1.8249 -3.16331,-2.6766 -5.59659,-2.6766 -1.21664,0 -2.31157,0.2434 -3.52821,0.73 -1.09504,0.4867 -2.18997,1.095 -3.28491,1.9466 -1.09504,0.8517 -2.06837,1.7033 -2.92,2.7983 -0.97333,1.095 -1.70325,2.19 -2.55488,3.4066 v 27.6177 h -7.29984 v -41.8524 h 7.05643 z"
         style="fill:#d65649;fill-opacity:1;stroke-width:1.06666672" />
      <g
         transform="matrix(1.1406006,0,0,1.1406006,631.02077,2009.784)"
         id="g4233"
         style="fill:#ffffff;fill-opacity:1">
        <path
           id="path4235"
           inkscape:connector-curvature="0"
           class="st3"
           d="m 156.48,47.68 c 0.21333,-0.106667 0.42667,-0.106667 0.53333,-0.213333 2.24,-0.64 3.94667,-0.96 4.90667,-0.96 0.74667,0 1.06667,0.213333 1.06667,0.746666 0,0.213334 -0.10667,0.426667 -0.21334,0.533334 C 162.66667,47.893333 162.45333,48 162.24,48 c -0.10667,0 -0.21333,0 -0.42667,0 -0.10666,0 -0.32,0 -0.32,0 -0.53333,0 -1.38666,0.106667 -2.24,0.426667 -0.32,0.106666 -0.96,0.32 -2.02666,0.746666 -0.64,0.32 -1.17334,0.426667 -1.70667,0.426667 -0.32,0 -0.53333,-0.106667 -0.74667,-0.426667 C 154.56,48.96 154.45333,48.64 154.45333,48.32 c 0,-0.32 0.21334,-0.96 0.53334,-1.813333 1.17333,-2.666667 2.56,-5.013334 3.94666,-7.146667 2.02667,-2.986667 3.52,-5.226667 4.69334,-6.72 0.32,-0.32 0.53333,-0.746667 0.85333,-1.066667 0.42667,-0.64 0.85333,-0.96 1.17333,-0.96 0.21334,0 0.32,0.106667 0.42667,0.213334 0.10667,0.106666 0.21333,0.32 0.21333,0.426666 0,0.213334 -0.10666,0.533334 -0.42666,0.96 -0.10667,0.106667 -0.42667,0.64 -1.17334,1.6 -1.38666,1.813334 -2.45333,3.2 -3.09333,4.266667 -0.64,0.96 -1.49333,2.133333 -2.24,3.306667 -1.38667,2.453333 -2.34667,4.586666 -2.88,6.293333 z"
           style="fill:#ffffff;fill-opacity:1;stroke-width:1.06666672" />
        <path
           id="path4237"
           inkscape:connector-curvature="0"
           class="st3"
           d="m 165.97333,46.08 v 0.213333 c 0,0.213334 0,0.426667 0.10667,0.533334 0.21333,0.32 0.64,0.533333 1.17333,0.533333 1.17334,0 2.66667,-0.853333 4.26667,-2.773333 0.32,-0.32 0.53333,-0.426667 0.64,-0.426667 0.10667,0 0.21333,0 0.32,0.106667 0.10667,0.106666 0.10667,0.106666 0.10667,0.213333 0,0.32 -0.42667,0.96 -1.49334,1.92 -0.74666,0.64 -1.6,1.386667 -2.34666,1.813333 -0.74667,0.426667 -1.6,0.64 -2.34667,0.64 -0.74667,0 -1.38667,-0.213333 -1.81333,-0.746666 -0.32,-0.32 -0.42667,-0.746667 -0.42667,-1.493334 0,-1.706666 0.74667,-3.2 2.34667,-4.906666 1.17333,-1.386667 2.34666,-1.92 3.30666,-1.92 0.21334,0 0.42667,0.106666 0.64,0.213333 0.21334,0.213333 0.32,0.533333 0.32,0.853333 0,0.533334 -0.10666,1.28 -0.42666,1.92 -0.96,1.92 -2.45334,2.666667 -4.37334,3.306667 z m 0.32,-1.173333 c 0.64,-0.213334 1.06667,-0.32 1.70667,-0.746667 0.85333,-0.64 1.17333,-0.96 1.70667,-1.813333 0.10666,-0.213334 0.21333,-0.426667 0.21333,-0.64 0,-0.213334 -0.10667,-0.32 -0.32,-0.32 -0.21333,0 -0.64,0.213333 -1.06667,0.533333 -1.06666,0.746667 -1.70666,1.706667 -2.24,2.986667 z"
           style="fill:#ffffff;fill-opacity:1;stroke-width:1.06666672" />
        <path
           id="path4239"
           inkscape:connector-curvature="0"
           class="st3"
           d="m 177.70667,39.36 c -0.64,0.96 -1.17334,2.133333 -1.81334,3.306667 -0.74666,1.813333 -1.06666,2.986666 -1.06666,3.946666 0,0.213334 0,0.426667 0.10666,0.533334 C 175.04,47.253333 175.14667,47.36 175.36,47.36 c 0.42667,0 1.06667,-0.426667 1.81333,-1.386667 C 177.6,45.44 177.92,44.906667 178.34667,44.266667 178.56,43.946667 178.66667,43.84 178.88,43.84 c 0.10667,0 0.21333,0 0.32,0.106667 0.10667,0.106666 0.10667,0.213333 0.10667,0.213333 0,0.32 -0.42667,1.173333 -1.49334,2.453333 -1.06666,1.6 -2.24,2.24 -3.09333,2.24 -0.42667,0 -0.85333,-0.213333 -1.17333,-0.64 -0.21334,-0.32 -0.32,-0.64 -0.32,-1.173333 0,-1.173333 0.32,-2.56 0.96,-4.16 0.10666,-0.426667 0.64,-1.386667 1.38666,-2.773333 -0.21333,0.106666 -0.42666,0.106666 -0.53333,0.106666 -0.21333,0 -0.32,0 -0.53333,-0.106666 -0.21334,-0.106667 -0.32,-0.32 -0.32,-0.533334 0,-0.213333 0.10666,-0.426666 0.42666,-0.533333 0.10667,0 0.42667,-0.106667 1.06667,-0.213333 0.21333,0 0.53333,-0.106667 0.96,-0.32 0.32,-0.64 0.85333,-1.493334 1.70667,-2.56 0.42666,-0.533334 0.74666,-0.96 0.85333,-1.066667 0.21333,-0.213333 0.42667,-0.32 0.64,-0.32 0.10667,0 0.21333,0.106667 0.32,0.213333 0.10667,0.106667 0.21333,0.213334 0.21333,0.32 0,0.213334 -0.21333,0.746667 -0.74666,1.6 -0.32,0.426667 -0.64,0.853334 -0.74667,1.173334 1.06667,-0.32 1.92,-0.426667 2.34667,-0.426667 0.53333,0 0.74666,0.213333 0.74666,0.64 0,0.213333 -0.10666,0.426667 -0.32,0.426667 -0.10666,0.106666 -0.32,0.106666 -0.74666,0.106666 -0.10667,0 -0.85334,0.213334 -2.24,0.533334 -0.21334,0 -0.64,0.106666 -0.96,0.213333 z"
           style="fill:#ffffff;fill-opacity:1;stroke-width:1.06666672" />
        <path
           id="path4241"
           inkscape:connector-curvature="0"
           class="st3"
           d="m 187.73333,29.76 c 0.10667,0 0.21334,0 0.32,0.106667 0.10667,0.106666 0.21334,0.32 0.21334,0.533333 0,0.426667 -0.53334,1.813333 -1.81334,4.053333 C 186.02667,35.2 185.70667,35.626667 185.6,35.946667 185.49333,36.053333 185.28,36.16 185.17333,36.16 c -0.32,0 -0.53333,-0.213333 -0.53333,-0.64 0,-0.32 0.21333,-0.746667 0.53333,-1.493333 0.85334,-1.813334 1.38667,-2.666667 1.38667,-2.88 0.32,-0.96 0.74667,-1.386667 1.17333,-1.386667 z"
           style="fill:#ffffff;fill-opacity:1;stroke-width:1.06666672" />
        <path
           id="path4243"
           inkscape:connector-curvature="0"
           class="st3"
           d="m 189.12,39.04 c 0.53333,0 1.06667,0.106667 1.38667,0.32 0.32,0.213333 0.42666,0.533333 0.42666,0.96 0,0.533333 -0.21333,1.066667 -0.64,1.706667 -0.42666,0.64 -0.96,0.853333 -1.92,1.173333 -0.42666,0.106667 -0.74666,0.213333 -1.06666,0.213333 -0.42667,0 -0.64,-0.213333 -0.64,-0.533333 0,-0.213333 0.10666,-0.426667 0.32,-0.533333 0.10666,0 0.42666,-0.106667 0.96,-0.213334 0.32,-0.106666 0.64,-0.213333 0.96,-0.533333 0.21333,-0.213333 0.42666,-0.426667 0.42666,-0.746667 0,-0.213333 -0.10666,-0.32 -0.21333,-0.426666 C 189.01333,40.32 188.8,40.32 188.58667,40.32 c -0.53334,0 -1.17334,0.213333 -1.92,0.64 -0.74667,0.533333 -1.17334,1.066667 -1.17334,1.92 0,0.533333 0.21334,1.066667 0.74667,1.92 0.53333,0.853333 0.85333,1.6 0.85333,2.133333 0,0.853334 -0.32,1.6 -1.06666,2.026667 -0.42667,0.32 -0.96,0.426667 -1.6,0.426667 -0.85334,0 -1.70667,-0.32 -2.13334,-0.96 C 181.97333,48 181.76,47.466667 181.76,46.72 c 0,-0.746667 0.21333,-1.493333 0.53333,-1.92 0.21334,-0.32 0.53334,-0.533333 0.74667,-0.533333 0.21333,0 0.32,0.106666 0.32,0.32 0,0.106666 0,0.213333 -0.10667,0.32 -0.21333,0.426666 -0.32,0.853333 -0.32,1.493333 0,0.426667 0.21334,0.853333 0.53334,1.173333 0.32,0.32 0.64,0.426667 0.96,0.426667 0.32,0 0.64,-0.106667 0.85333,-0.32 0.21333,-0.213333 0.21333,-0.426667 0.21333,-0.746667 0,-0.426666 -0.21333,-0.853333 -0.64,-1.6 -0.64,-0.853333 -0.96,-1.706666 -0.96,-2.453333 0,-0.96 0.53334,-1.92 1.6,-2.56 1.38667,-0.853333 2.45334,-1.28 3.62667,-1.28 z"
           style="fill:#ffffff;fill-opacity:1;stroke-width:1.06666672" />
        <path
           id="path4245"
           inkscape:connector-curvature="0"
           class="st3"
           d="m 201.92,47.68 c 0.96,-0.746667 1.81333,-1.493333 2.34667,-2.133333 0.74666,-0.853334 1.38666,-1.706667 1.6,-2.24 0.10666,-0.213334 0.32,-0.32 0.42666,-0.32 0.21334,0 0.32,0.106666 0.32,0.32 0,0.213333 -0.21333,0.64 -0.53333,1.386666 -1.06667,1.92 -2.88,3.52 -5.22667,4.906667 -1.06666,2.24 -1.92,3.733333 -2.34666,4.586667 C 197.12,56.32 195.84,57.28 194.77333,57.28 c -0.64,0 -1.06666,-0.213333 -1.38666,-0.746667 -0.10667,-0.32 -0.21334,-0.533333 -0.21334,-0.96 0,-1.6 0.96,-2.986666 2.98667,-4.48 0.32,-0.213333 1.6,-0.96 3.73333,-2.24 C 200.32,48 200.64,47.146667 200.85333,46.72 c -0.96,1.066667 -1.92,1.706667 -2.56,1.706667 -0.42666,0 -0.74666,-0.213334 -0.96,-0.64 -0.10666,-0.32 -0.21333,-0.533334 -0.21333,-0.853334 0,-0.64 0.32,-1.6 0.85333,-2.666666 0.74667,-1.6 1.81334,-2.88 2.98667,-3.733334 0.96,-0.746666 1.81333,-1.066666 2.56,-1.066666 0.32,0 0.64,0.106666 0.96,0.426666 0.21333,0.213334 0.32,0.426667 0.32,0.746667 0,0.426667 -0.10667,0.96 -0.42667,1.706667 0.21334,0.213333 0.32,0.32 0.32,0.426666 0,0.106667 0,0.106667 -0.10666,0.32 -0.21334,0.32 -0.64,0.96 -1.17334,2.026667 -0.64,0.746667 -1.06666,1.493333 -1.49333,2.56 z m -0.10667,-3.52 C 201.70667,44.053333 201.6,43.946667 201.6,43.84 c 0,-0.106667 0.10667,-0.213333 0.21333,-0.32 0.42667,-0.426667 0.85334,-0.96 1.17334,-1.493333 0.21333,-0.426667 0.32,-0.64 0.32,-0.853334 0,-0.213333 -0.10667,-0.426666 -0.32,-0.426666 -0.42667,0 -0.96,0.426666 -1.81334,1.173333 -0.85333,0.96 -1.70666,2.026667 -2.24,3.2 -0.21333,0.533333 -0.32,0.96 -0.32,1.386667 0,0.213333 0,0.32 0.10667,0.426666 0.10667,0.106667 0.21333,0.106667 0.32,0.106667 0.32,0 0.74667,-0.32 1.49333,-0.96 0.42667,-0.426667 0.74667,-0.853333 0.96,-1.386667 0.32,-0.32 0.32,-0.533333 0.32,-0.533333 z M 199.04,50.666667 C 197.65333,51.2 196.58667,52.053333 195.62667,53.12 195.2,53.653333 194.88,54.186667 194.66667,54.826667 194.56,55.04 194.56,55.146667 194.56,55.253333 c 0,0.106667 0,0.213334 0.10667,0.32 0.10666,0.213334 0.21333,0.213334 0.42666,0.213334 0.53334,0 1.38667,-0.64 2.13334,-2.026667 0.64,-0.96 1.28,-2.133333 1.81333,-3.093333 z"
           style="fill:#ffffff;fill-opacity:1;stroke-width:1.06666672" />
        <path
           id="path4247"
           inkscape:connector-curvature="0"
           class="st3"
           d="m 209.49333,44.053333 c 0.96,-0.96 2.13334,-2.026666 3.30667,-2.986666 0.42667,-0.32 0.85333,-0.64 1.49333,-0.96 C 214.50667,40 214.72,39.893333 214.72,39.893333 c 0.10667,0 0.32,0.106667 0.42667,0.32 0.10666,0.106667 0.10666,0.213334 0.10666,0.32 0,0.213334 -0.21333,0.426667 -0.53333,0.64 -0.96,0.746667 -1.49333,1.386667 -1.49333,1.813334 0,0.213333 0.10666,0.32 0.32,0.32 0.42666,0 1.06666,-0.32 2.24,-0.96 0.21333,-0.106667 0.32,-0.213334 0.42666,-0.213334 0.10667,0 0.10667,0 0.21334,0.106667 0.10666,0.106667 0.10666,0.213333 0.10666,0.32 0,0.32 -0.42666,0.746667 -1.17333,1.386667 -0.85333,0.64 -1.70667,0.96 -2.45333,0.96 -0.32,0 -0.53334,-0.106667 -0.85334,-0.213334 -0.21333,-0.106666 -0.32,-0.32 -0.32,-0.746666 0,-0.213334 0.10667,-0.533334 0.32,-0.853334 -0.74666,0.533334 -1.70666,1.493334 -2.77333,2.773334 -0.53333,0.746666 -1.17333,1.813333 -1.81333,2.986666 -0.21334,0.426667 -0.53334,0.64 -0.85334,0.64 -0.32,0 -0.53333,-0.213333 -0.53333,-0.533333 0,-0.32 0.32,-1.173333 0.85333,-2.666667 C 207.78667,44.16 208.64,42.56 209.6,41.28 c 0.53333,-0.746667 0.96,-1.066667 1.49333,-1.066667 0.10667,0 0.21334,0 0.32,0.106667 0.10667,0.106667 0.21334,0.213333 0.21334,0.32 0,0.106667 -0.10667,0.32 -0.32,0.64 0,0 -0.32,0.32 -0.74667,0.96 -0.53333,0.64 -0.85333,1.173333 -1.06667,1.813333 z"
           style="fill:#ffffff;fill-opacity:1;stroke-width:1.06666672" />
        <path
           id="path4249"
           inkscape:connector-curvature="0"
           class="st3"
           d="m 221.54667,39.36 c 0.74666,0 1.17333,0.426667 1.17333,1.493333 0,1.386667 -0.53333,2.88 -1.81333,4.906667 -1.38667,2.133333 -2.56,3.2 -3.73334,3.2 -0.53333,0 -0.96,-0.213333 -1.17333,-0.746667 -0.10667,-0.213333 -0.21333,-0.533333 -0.21333,-0.96 0,-1.173333 0.42666,-2.56 1.38666,-4.16 C 217.92,41.706667 218.98667,40.64 219.94667,40 c 0.53333,-0.426667 1.17333,-0.64 1.6,-0.64 z M 220.16,45.013333 c -0.21333,-0.213333 -0.32,-0.32 -0.32,-0.426666 0,-0.106667 0.10667,-0.32 0.42667,-0.64 0.85333,-0.96 1.38666,-1.813334 1.38666,-2.346667 0,-0.106667 0,-0.106667 -0.10666,-0.213333 -0.10667,-0.106667 -0.21334,-0.213334 -0.32,-0.213334 -0.32,0 -0.74667,0.32 -1.38667,0.853334 -0.74667,0.746666 -1.38667,1.6 -1.81333,2.453333 -0.42667,0.96 -0.64,1.813333 -0.64,2.346667 0,0.106666 0,0.32 0.10666,0.426666 0.10667,0.213334 0.32,0.213334 0.42667,0.213334 0.42667,0 0.96,-0.32 1.6,-0.96 0.21333,-0.32 0.42667,-0.533334 0.53333,-0.853334 0,-0.533333 0.10667,-0.64 0.10667,-0.64 z"
           style="fill:#ffffff;fill-opacity:1;stroke-width:1.06666672" />
        <path
           id="path4251"
           inkscape:connector-curvature="0"
           class="st3"
           d="m 227.94667,44.693333 c -0.85334,1.066667 -1.49334,1.92 -1.92,2.346667 -0.42667,0.533333 -0.85334,0.96 -1.38667,1.173333 -0.42667,0.32 -0.74667,0.426667 -1.06667,0.426667 -0.32,0 -0.53333,-0.213333 -0.74666,-0.533333 -0.10667,-0.213334 -0.21334,-0.533334 -0.21334,-0.853334 0,-1.066666 0.64,-2.56 1.92,-4.48 1.06667,-1.706666 2.02667,-2.56 2.56,-2.56 0.10667,0 0.21334,0.106667 0.42667,0.213334 0.10667,0.106666 0.21333,0.213333 0.21333,0.426666 0,0.213334 -0.21333,0.533334 -0.53333,0.853334 -0.74667,0.746666 -1.6,1.706666 -2.13333,2.666666 -0.53334,0.853334 -0.74667,1.493334 -0.74667,1.706667 0,0.213333 0.10667,0.32 0.21333,0.32 0.53334,0 1.92,-1.173333 3.73334,-3.733333 0.64,-0.746667 0.96,-1.386667 1.06666,-1.493334 0.21334,-0.213333 0.53334,-0.32 0.74667,-0.32 0.21333,0 0.32,0 0.42667,0.106667 0.10666,0.106667 0.10666,0.213333 0.10666,0.32 0,0.106667 -0.21333,0.533333 -0.64,1.493333 -1.06666,1.92 -1.6,3.093334 -1.6,3.733334 0,0.213333 0.10667,0.32 0.32,0.32 0.32,0 0.85334,-0.426667 1.49334,-1.173334 0.53333,-0.746666 1.06666,-1.813333 1.70666,-2.88 C 232.10667,42.24 232.32,41.6 232.42667,40.746667 c 0.21333,-0.96 0.53333,-1.493334 1.17333,-1.493334 0.32,0 0.42667,0.213334 0.42667,0.533334 0,1.386666 -0.64,2.986666 -2.13334,5.226666 -1.49333,2.346667 -2.77333,3.52 -3.73333,3.52 -0.74667,0 -1.06667,-0.426666 -1.06667,-1.493333 0.10667,-0.213333 0.42667,-1.173333 0.85334,-2.346667 z"
           style="fill:#ffffff;fill-opacity:1;stroke-width:1.06666672" />
        <path
           id="path4253"
           inkscape:connector-curvature="0"
           class="st3"
           d="m 243.84,46.4 c -0.32,0.533333 -0.64,0.96 -0.96,1.493333 C 242.24,48.64 241.70667,48.96 241.06667,48.96 c -0.64,0 -0.85334,-0.213333 -1.17334,-0.746667 -0.21333,-0.32 -0.32,-0.64 -0.32,-1.066666 0,-1.066667 0.32,-2.346667 0.96,-3.52 0.74667,-1.493334 1.70667,-2.56 2.77334,-3.306667 0.64,-0.533333 1.38666,-0.746667 2.02666,-0.746667 0.42667,0 0.74667,0.106667 0.96,0.32 0.21334,0.213334 0.32,0.426667 0.32,0.746667 0,0.213333 -0.10666,0.533333 -0.21333,0.853333 0.10667,0.213334 0.21333,0.32 0.21333,0.533334 0,0.213333 -0.10666,0.533333 -0.42666,0.96 -0.32,0.426666 -0.53334,1.066666 -0.85334,1.92 -0.32,0.853333 -0.42666,1.6 -0.42666,2.026666 0,0.426667 0.10666,0.746667 0.32,0.96 0.10666,0.106667 0.21333,0.213334 0.53333,0.32 0.21333,0.106667 0.32,0.32 0.32,0.64 0,0.213334 -0.10667,0.32 -0.21333,0.426667 -0.10667,0.106667 -0.32,0.213333 -0.53334,0.213333 -0.53333,0 -0.96,-0.213333 -1.38666,-0.64 C 243.62667,48.533333 243.52,48 243.52,47.36 c 0.32,-0.213333 0.32,-0.533333 0.32,-0.96 z m 1.92,-4.8 c -0.10667,-0.213333 -0.21333,-0.32 -0.32,-0.426667 -0.10667,-0.106666 -0.32,-0.106666 -0.42667,-0.106666 -0.74666,0 -1.6,0.64 -2.45333,2.026666 -0.96,1.493334 -1.49333,2.666667 -1.49333,3.626667 0,0.213333 0,0.426667 0.10666,0.533333 0.10667,0.106667 0.21334,0.213334 0.42667,0.213334 0.42667,0 0.96,-0.426667 1.70667,-1.493334 0.32,-0.533333 0.74666,-1.386666 1.38666,-2.453333 0.32,-0.64 0.53334,-1.066667 0.74667,-1.386667 0,-0.213333 0.10667,-0.426666 0.32,-0.533333 z"
           style="fill:#ffffff;fill-opacity:1;stroke-width:1.06666672" />
        <path
           id="path4255"
           inkscape:connector-curvature="0"
           class="st3"
           d="m 256.21333,43.946667 c -0.32,0.746666 -0.53333,1.386666 -0.64,1.92 -0.10666,0.426666 -0.21333,0.746666 -0.21333,0.96 0,0.213333 0.10667,0.32 0.32,0.32 0.32,0 0.74667,-0.32 1.38667,-0.96 0.21333,-0.32 0.64,-0.853334 1.17333,-1.813334 0.21333,-0.32 0.42667,-0.426666 0.64,-0.426666 0.21333,0 0.32,0.106666 0.32,0.32 0,0.426666 -0.42667,1.173333 -1.49333,2.56 -0.96,1.386666 -1.92,2.026666 -2.77334,2.026666 -0.32,0 -0.64,-0.106666 -0.85333,-0.426666 C 253.97333,48.213333 253.86667,48 253.86667,47.68 c 0,-0.533333 0.10666,-1.386667 0.42666,-2.24 0.32,-0.96 0.74667,-2.133333 1.49334,-3.52 1.70666,-3.52 3.41333,-6.506667 5.12,-8.64 1.49333,-1.92 2.56,-2.773333 3.41333,-2.773333 0.32,0 0.53333,0.106666 0.64,0.32 0.21333,0.213333 0.32,0.426666 0.32,0.746666 0,1.386667 -1.17333,3.626667 -3.62667,6.826667 -1.06666,1.493333 -2.45333,2.773333 -3.94666,4.266667 -0.21334,0.213333 -0.85334,0.746666 -1.49334,1.28 z M 257.17333,41.6 C 259.2,39.786667 261.12,37.653333 262.61333,34.986667 263.36,33.6 263.78667,32.64 263.78667,32.213333 c 0,-0.213333 -0.10667,-0.32 -0.32,-0.32 -0.53334,0 -1.6,1.066667 -2.88,3.2 C 259.52,36.906667 258.34667,39.04 257.17333,41.6 Z"
           style="fill:#ffffff;fill-opacity:1;stroke-width:1.06666672" />
        <path
           id="path4257"
           inkscape:connector-curvature="0"
           class="st3"
           d="m 264.10667,40.106667 c 0.10666,0 0.32,0.106666 0.42666,0.213333 0.10667,0.106667 0.10667,0.213333 0.10667,0.32 0,0.213333 -0.10667,0.426667 -0.42667,0.853333 -0.96,1.6 -1.81333,2.88 -2.24,3.946667 -0.42666,0.96 -0.85333,2.133333 -1.17333,3.2 -0.10667,0.426667 -0.42667,0.746667 -0.74667,0.746667 -0.21333,0 -0.32,-0.106667 -0.42666,-0.213334 C 259.52,49.066667 259.52,48.96 259.52,48.746667 c 0,-0.32 0.32,-1.173334 0.85333,-2.88 C 260.8,44.48 261.76,43.093333 262.72,41.493333 c 0.32,-0.533333 0.64,-0.853333 0.74667,-0.96 0.32,-0.32 0.42666,-0.426666 0.64,-0.426666 z M 266.88,34.56 c 0.42667,0 0.64,0.213333 0.64,0.64 0,0.426667 -0.21333,0.853333 -0.64,1.386667 -0.42667,0.533333 -0.74667,0.64 -1.17333,0.64 -0.21334,0 -0.32,-0.106667 -0.42667,-0.213334 -0.10667,-0.106666 -0.21333,-0.32 -0.21333,-0.426666 0,-0.426667 0.21333,-0.96 0.74666,-1.493334 C 266.24,34.88 266.56,34.56 266.88,34.56 Z"
           style="fill:#ffffff;fill-opacity:1;stroke-width:1.06666672" />
        <path
           id="path4259"
           inkscape:connector-curvature="0"
           class="st3"
           d="m 268.48,41.173333 c 0.74667,-0.64 1.6,-0.96 2.24,-0.96 0.42667,0 0.74667,0.213334 0.96,0.533334 0.21333,0.32 0.32,0.64 0.32,0.96 0,0.746666 -0.21333,1.706666 -0.74667,2.773333 -0.53333,1.173333 -1.38666,2.346667 -2.45333,3.306667 -0.85333,0.853333 -1.70667,1.386666 -2.45333,1.386666 -0.32,0 -0.53334,0 -0.74667,-0.106666 C 265.38667,48.96 265.17333,48.853333 264.96,48.64 c -0.10667,0.106667 -0.10667,0.213333 -0.10667,0.213333 -0.10666,0.32 -0.32,0.533334 -0.32,0.64 C 264.42667,49.6 264.32,49.6 264.21333,49.6 264,49.6 263.89333,49.493333 263.78667,49.28 263.68,49.173333 263.68,48.96 263.68,48.853333 c 0,-0.213333 0.53333,-1.706666 1.70667,-4.16 1.6,-3.413333 3.41333,-6.933333 5.44,-10.346666 0.85333,-1.493334 1.38666,-2.24 1.6,-2.453334 0.21333,-0.32 0.42666,-0.426666 0.53333,-0.426666 0.21333,0 0.42667,0.106666 0.53333,0.32 0.10667,0.106666 0.10667,0.32 0.10667,0.426666 0,0.213334 -0.10667,0.426667 -0.32,0.746667 0,0.106667 -0.32,0.533333 -0.85333,1.6 -1.81334,2.453333 -3.09334,4.8 -3.94667,6.613333 z M 265.6,47.04 c 0.10667,0.213333 0.32,0.32 0.42667,0.426667 0.10666,0.106666 0.32,0.106666 0.42666,0.106666 0.85334,0 1.81334,-0.746666 2.66667,-2.24 0.42667,-0.64 0.74667,-1.386666 0.96,-2.026666 0.21333,-0.533334 0.32,-0.96 0.32,-1.386667 0,-0.213333 0,-0.32 -0.10667,-0.426667 -0.10666,-0.106666 -0.21333,-0.106666 -0.42666,-0.106666 -0.42667,0 -0.96,0.32 -1.70667,0.853333 -0.64,0.533333 -1.17333,1.493333 -1.92,2.666667 -0.32,0.533333 -0.53333,1.066666 -0.74667,1.6 C 265.70667,46.933333 265.6,47.04 265.6,47.04 Z"
           style="fill:#ffffff;fill-opacity:1;stroke-width:1.06666672" />
        <path
           id="path4261"
           inkscape:connector-curvature="0"
           class="st3"
           d="m 274.98667,44.053333 c 0.96,-0.96 2.13333,-2.026666 3.30666,-2.986666 0.42667,-0.32 0.85334,-0.64 1.49334,-0.96 C 280,40 280.21333,39.893333 280.21333,39.893333 c 0.10667,0 0.32,0.106667 0.42667,0.32 0.10667,0.106667 0.10667,0.213334 0.10667,0.32 0,0.213334 -0.21334,0.426667 -0.53334,0.64 C 279.25333,41.92 278.72,42.56 278.72,42.986667 c 0,0.213333 0.10667,0.32 0.32,0.32 0.42667,0 1.06667,-0.32 2.24,-0.96 0.21333,-0.106667 0.32,-0.213334 0.42667,-0.213334 0.10666,0 0.10666,0 0.21333,0.106667 0.10667,0.106667 0.10667,0.213333 0.10667,0.32 0,0.32 -0.42667,0.746667 -1.17334,1.386667 -0.85333,0.64 -1.70666,0.96 -2.45333,0.96 -0.32,0 -0.53333,-0.106667 -0.85333,-0.213334 -0.21334,-0.106666 -0.32,-0.32 -0.32,-0.746666 0,-0.213334 0.10666,-0.533334 0.32,-0.853334 C 276.8,43.626667 275.84,44.586667 274.77333,45.866667 274.24,46.613333 273.6,47.68 272.96,48.853333 c -0.21333,0.426667 -0.53333,0.64 -0.85333,0.64 -0.32,0 -0.53334,-0.213333 -0.53334,-0.533333 0,-0.32 0.32,-1.173333 0.85334,-2.666667 C 273.28,44.16 274.13333,42.56 275.09333,41.28 c 0.53334,-0.746667 0.96,-1.066667 1.49334,-1.066667 0.10666,0 0.21333,0 0.32,0.106667 0.10666,0.106667 0.21333,0.213333 0.21333,0.32 0,0.106667 -0.10667,0.32 -0.32,0.64 0,0 -0.32,0.32 -0.74667,0.96 -0.42666,0.64 -0.74666,1.173333 -1.06666,1.813333 z"
           style="fill:#ffffff;fill-opacity:1;stroke-width:1.06666672" />
        <path
           id="path4263"
           inkscape:connector-curvature="0"
           class="st3"
           d="m 286.18667,46.4 c -0.32,0.533333 -0.64,0.96 -0.96,1.493333 C 284.58667,48.64 284.05333,48.96 283.41333,48.96 282.88,48.96 282.56,48.746667 282.24,48.213333 c -0.21333,-0.32 -0.32,-0.64 -0.32,-1.066666 0,-1.066667 0.32,-2.346667 0.96,-3.52 0.74667,-1.493334 1.70667,-2.56 2.77333,-3.306667 0.64,-0.533333 1.38667,-0.746667 2.02667,-0.746667 0.42667,0 0.74667,0.106667 0.96,0.32 0.21333,0.213334 0.32,0.426667 0.32,0.746667 0,0.213333 -0.10667,0.533333 -0.21333,0.853333 0.10666,0.213334 0.21333,0.32 0.21333,0.533334 0,0.213333 -0.10667,0.533333 -0.42667,0.96 -0.32,0.426666 -0.53333,1.066666 -0.85333,1.92 -0.32,0.853333 -0.42667,1.6 -0.42667,2.026666 0,0.426667 0.10667,0.746667 0.32,0.96 0.10667,0.106667 0.21334,0.213334 0.53334,0.32 0.21333,0.106667 0.32,0.32 0.32,0.64 0,0.213334 -0.10667,0.32 -0.21334,0.426667 -0.10666,0.106667 -0.32,0.213333 -0.53333,0.213333 -0.53333,0 -0.96,-0.213333 -1.38667,-0.64 -0.32,-0.32 -0.42666,-0.853333 -0.42666,-1.493333 0.21333,-0.213333 0.21333,-0.533333 0.32,-0.96 z M 288,41.6 c -0.10667,-0.213333 -0.21333,-0.32 -0.32,-0.426667 -0.10667,-0.106666 -0.32,-0.106666 -0.42667,-0.106666 -0.74666,0 -1.6,0.64 -2.45333,2.026666 -0.96,1.493334 -1.49333,2.666667 -1.49333,3.626667 0,0.213333 0,0.426667 0.10666,0.533333 0.10667,0.106667 0.21334,0.213334 0.42667,0.213334 0.42667,0 0.96,-0.426667 1.70667,-1.493334 0.32,-0.533333 0.74666,-1.386666 1.38666,-2.453333 0.32,-0.64 0.53334,-1.066667 0.74667,-1.386667 C 287.57333,41.92 287.68,41.706667 288,41.6 Z"
           style="fill:#ffffff;fill-opacity:1;stroke-width:1.06666672" />
        <path
           id="path4265"
           inkscape:connector-curvature="0"
           class="st3"
           d="m 293.01333,44.053333 c 0.96,-0.96 2.13334,-2.026666 3.30667,-2.986666 0.42667,-0.32 0.85333,-0.64 1.49333,-0.96 C 298.02667,40 298.24,39.893333 298.24,39.893333 c 0.10667,0 0.32,0.106667 0.42667,0.32 0.10666,0.106667 0.10666,0.213334 0.10666,0.32 0,0.213334 -0.21333,0.426667 -0.53333,0.64 -0.96,0.746667 -1.49333,1.386667 -1.49333,1.813334 0,0.213333 0.10666,0.32 0.32,0.32 0.42666,0 1.06666,-0.32 2.24,-0.96 0.21333,-0.106667 0.32,-0.213334 0.42666,-0.213334 0.10667,0 0.10667,0 0.21334,0.106667 0.10666,0.106667 0.10666,0.213333 0.10666,0.32 0,0.32 -0.42666,0.746667 -1.17333,1.386667 -0.85333,0.64 -1.70667,0.96 -2.45333,0.96 -0.32,0 -0.53334,-0.106667 -0.85334,-0.213334 -0.21333,-0.106666 -0.32,-0.32 -0.32,-0.746666 0,-0.213334 0.10667,-0.533334 0.32,-0.853334 -0.74666,0.533334 -1.70666,1.493334 -2.77333,2.773334 -0.53333,0.746666 -1.17333,1.813333 -1.81333,2.986666 -0.21334,0.426667 -0.53334,0.64 -0.85334,0.64 -0.32,0 -0.53333,-0.213333 -0.53333,-0.533333 0,-0.32 0.32,-1.173333 0.85333,-2.666667 C 291.30667,44.16 292.16,42.56 293.12,41.28 c 0.53333,-0.746667 0.96,-1.066667 1.49333,-1.066667 0.10667,0 0.21334,0 0.32,0.106667 0.10667,0.106667 0.21334,0.213333 0.21334,0.32 0,0.106667 -0.10667,0.32 -0.32,0.64 0,0 -0.32,0.32 -0.74667,0.96 -0.53333,0.64 -0.85333,1.173333 -1.06667,1.813333 z"
           style="fill:#ffffff;fill-opacity:1;stroke-width:1.06666672" />
        <path
           id="path4267"
           inkscape:connector-curvature="0"
           class="st3"
           d="m 304.74667,44.693333 c -0.85334,0.96 -1.6,1.813334 -2.13334,2.346667 -0.96,0.96 -1.92,1.493333 -2.56,1.493333 -0.32,0 -0.53333,-0.106666 -0.74666,-0.32 C 299.2,48 299.09333,47.786667 299.09333,47.466667 c 0,-0.96 0.64,-2.453334 1.92,-4.266667 1.17334,-1.813333 2.24,-2.666667 2.77334,-2.666667 0.10666,0 0.32,0.106667 0.42666,0.213334 0.10667,0.106666 0.10667,0.213333 0.10667,0.32 0,0.213333 -0.10667,0.426666 -0.21333,0.533333 -0.10667,0.106667 -0.42667,0.533333 -0.96,1.066667 -0.53334,0.533333 -1.06667,1.173333 -1.6,1.92 -0.53334,0.746666 -0.74667,1.386666 -0.74667,1.706666 0,0.213334 0.10667,0.32 0.32,0.32 0.42667,0 1.06667,-0.533333 2.24,-1.6 0.64,-0.64 1.17333,-1.173333 1.6,-1.706666 0.10667,-0.106667 0.42667,-0.533334 0.96,-1.493334 0.53333,-0.746666 0.85333,-1.173333 0.96,-1.386666 0.32,-0.32 0.53333,-0.533334 0.74667,-0.533334 0.10666,0 0.32,0.106667 0.42666,0.213334 0.10667,0.106666 0.21334,0.213333 0.21334,0.426666 0,0.32 -0.21334,0.746667 -0.53334,1.493334 -0.42666,0.746666 -0.85333,1.6 -1.38666,2.24 -0.64,1.066666 -1.06667,2.133333 -1.49334,2.88 0.64,-0.32 1.17334,-0.746667 1.70667,-1.386667 0.85333,-0.853333 1.49333,-1.6 1.70667,-2.026667 C 308.48,43.306667 308.58667,43.2 308.8,43.2 c 0.21333,0 0.42667,0.106667 0.42667,0.426667 0,0.533333 -0.42667,1.386666 -1.38667,2.346666 -0.96,1.173334 -2.34667,2.24 -3.94667,3.093334 -0.74666,2.026666 -1.6,3.52 -2.34666,4.906666 -1.38667,2.453334 -2.77334,3.52 -4.26667,3.52 -0.53333,0 -1.06667,-0.213333 -1.49333,-0.64 -0.32,-0.32 -0.42667,-0.746666 -0.42667,-1.386666 0,-1.6 1.06667,-3.093334 3.2,-4.693334 0.64,-0.426666 1.6,-0.96 2.77333,-1.813333 0.42667,-0.32 0.85334,-0.533333 1.17334,-0.64 0.21333,-0.426667 0.42666,-0.96 0.74666,-1.813333 C 304.10667,46.08 304.42667,45.44 304.74667,44.693333 Z M 302.08,50.56 c -0.96,0.533333 -2.13333,1.386667 -3.2,2.24 -1.06667,0.96 -1.70667,1.92 -1.70667,2.773333 0,0.213334 0,0.32 0.10667,0.426667 0.10667,0.213333 0.32,0.213333 0.53333,0.213333 0.74667,0 1.6,-0.746666 2.45334,-2.346666 C 300.37333,53.653333 300.8,52.8 301.44,51.306667 301.76,51.2 301.86667,50.88 302.08,50.56 Z"
           style="fill:#ffffff;fill-opacity:1;stroke-width:1.06666672" />
      </g>
    </g>
    <rect
       ry="7.8869615"
       rx="0.071086876"
       y="1844.4358"
       x="662.3053"
       height="85.521873"
       width="206.68959"
       id="rect4551"
       style="opacity:1;fill:#323232;fill-opacity:1;fill-rule:nonzero;stroke:#0068a6;stroke-width:0.85181695;stroke-linecap:round;stroke-linejoin:miter;stroke-miterlimit:4;stroke-dasharray:none;stroke-dashoffset:0;stroke-opacity:1" />
    <g
       inkscape:export-ydpi="314.63"
       inkscape:export-xdpi="314.63"
       id="g4593"
       transform="matrix(0.56679189,0,0,0.56679189,302.01081,700.95747)">
      <path
         style="opacity:1;fill:none;stroke:#d65649;stroke-width:9.3975563;stroke-linejoin:round;stroke-opacity:1"
         d="m 695.15098,2101.6624 c 0.36137,-20.2411 -6.98799,-24.9398 -11.32525,-28.1927 -3.85542,-2.771 -11.5663,-5.7833 -17.10843,-6.8675 -4.18983,23.3065 1.57307,51.9139 24.84627,50.843 26.73943,-1.2301 26.39771,-21.5318 24.79208,-50.2405 -14.57817,1.325 -19.0361,5.6625 -19.0361,5.6625 l -0.84332,0.6025"
         class="st1"
         sodipodi:nodetypes="cccsccc"
         inkscape:export-ydpi="108.54"
         inkscape:export-xdpi="108.54"
         inkscape:export-filename="X:\dev\b36\src\BloomExe\Resources\LogoForSplashScreen.png"
         inkscape:connector-curvature="0"
         id="path4553" />
      <path
         style="fill:#d65649;fill-opacity:1;stroke-width:1.06666672"
         d="m 738.57172,2064.2896 c 1.82496,-0.2434 4.25824,-0.365 6.93483,-0.6083 2.79829,-0.1217 5.9616,-0.2434 9.61152,-0.2434 6.93483,0 12.288,1.3383 15.93792,3.8933 3.64992,2.5549 5.47488,6.0832 5.47488,10.5847 0,3.0416 -0.72992,5.4749 -2.31157,7.5432 -1.58166,2.0683 -3.89323,3.7716 -6.93483,5.1099 3.64992,1.3383 6.44811,3.0416 8.27317,5.3532 1.82496,2.3116 2.79819,5.1099 2.79819,8.5165 0,5.1099 -1.94656,9.2464 -5.96149,12.288 -4.01494,3.0416 -9.85483,4.5017 -17.64128,4.5017 -3.28491,0 -6.32651,-0.1217 -9.36811,-0.2434 -2.92,-0.1216 -5.23157,-0.3649 -6.93493,-0.6084 l 0.1217,-56.087 m 16.78966,50.4906 c 4.86656,0 8.63808,-0.8517 11.19306,-2.555 2.67659,-1.7033 4.01494,-4.2583 4.01494,-7.5432 0,-3.2849 -1.33835,-5.7182 -3.89323,-7.5431 -2.67669,-1.825 -6.44821,-2.7983 -11.31477,-2.7983 h -9.24651 v 19.9528 c 2.92,0.3651 5.9616,0.4868 9.24651,0.4868 m -0.24331,-26.2795 c 4.25824,0 7.66475,-0.8516 10.09803,-2.6766 2.55498,-1.7034 3.77162,-4.0149 3.77162,-6.9348 0,-3.0416 -1.21664,-5.3533 -3.64992,-6.935 -2.43328,-1.5815 -5.83989,-2.3115 -10.09813,-2.3115 -1.82496,0 -3.40661,0 -4.86656,0.1217 -1.45995,0.1216 -2.79829,0.1216 -4.01493,0.2433 v 18.3712 z m 37.47253,18.2496 c 0,2.92 0.48662,5.1099 1.70326,6.4482 1.21664,1.3384 2.91989,2.0683 4.98826,2.0683 0.97323,0 2.06827,-0.1216 3.0416,-0.365 0.97323,-0.2433 1.82496,-0.4867 2.55488,-0.8517 l 1.82496,5.8399 c -0.97333,0.4866 -2.18997,0.8517 -3.52821,1.095 -1.45995,0.365 -3.0416,0.4867 -4.74496,0.4867 -1.82496,0 -3.64992,-0.2433 -5.23147,-0.8516 -1.58165,-0.4868 -2.92,-1.3384 -4.13664,-2.555 -1.21664,-1.095 -2.06826,-2.555 -2.79829,-4.38 -0.72992,-1.8249 -0.97323,-3.8932 -0.97323,-6.4481 v -46.354 h 7.29984 z m 49.15222,-7.1781 c 0,-2.0683 -0.36502,-4.1367 -0.97334,-5.9616 -0.72992,-1.825 -1.58154,-3.5283 -2.79818,-4.8666 -1.21664,-1.3382 -2.6767,-2.5549 -4.25824,-3.4066 -1.58166,-0.8516 -3.40662,-1.2167 -5.35328,-1.2167 -4.25824,0 -7.54315,1.3384 -9.85472,4.1367 -2.31168,2.7983 -3.52832,6.4482 -3.52832,11.0715 0,2.0682 0.36501,4.1365 0.97333,5.9614 0.73003,1.9467 1.58165,3.5283 2.79829,4.9883 1.21664,1.46 2.67659,2.5549 4.25824,3.4065 1.58166,0.8518 3.40662,1.2167 5.35318,1.2167 2.06826,0 4.01493,-0.3649 5.59658,-1.095 1.70326,-0.73 3.0416,-1.8249 4.25824,-3.1633 1.09494,-1.3382 2.06827,-3.0416 2.67659,-4.8665 0.48661,-1.825 0.85163,-3.8933 0.85163,-6.2048 m -34.30923,0 c 0,-3.4067 0.48661,-6.4483 1.58165,-9.1248 1.09494,-2.6767 2.55488,-4.9883 4.37984,-6.935 1.82496,-1.8249 4.01494,-3.2849 6.56992,-4.3798 2.55488,-0.9733 5.35318,-1.5817 8.27318,-1.5817 2.91989,0 5.59648,0.4866 8.15146,1.5817 2.55488,0.9733 4.74486,2.4333 6.69152,4.3798 1.82496,1.825 3.40662,4.1367 4.37984,6.8133 1.09504,2.6765 1.58166,5.7181 1.58166,9.0032 0,3.2849 -0.48662,6.3265 -1.58166,9.1248 -1.09493,2.6765 -2.55488,4.9881 -4.37984,6.9348 -1.82496,1.9465 -4.13664,3.4066 -6.69152,4.5015 -2.55498,1.095 -5.35328,1.5817 -8.27317,1.5817 -3.0416,0 -5.83989,-0.4867 -8.39477,-1.5817 -2.55499,-1.0949 -4.74496,-2.555 -6.56992,-4.5015 -1.82496,-1.9467 -3.28491,-4.2583 -4.37995,-6.9348 -0.85163,-2.6767 -1.33824,-5.5966 -1.33824,-8.8815 z m 81.27157,0 c 0,-2.0683 -0.36501,-4.1367 -0.97333,-5.9616 -0.72992,-1.825 -1.58165,-3.5283 -2.79829,-4.8666 -1.21664,-1.3382 -2.67659,-2.5549 -4.25824,-3.4066 -1.58155,-0.8516 -3.40651,-1.2167 -5.35318,-1.2167 -4.25824,0 -7.54314,1.3384 -9.85482,4.1367 -2.31158,2.7983 -3.52822,6.4482 -3.52822,11.0715 0,2.0682 0.36502,4.1365 0.97334,5.9614 0.72992,1.9467 1.58165,3.5283 2.79829,4.9883 1.21664,1.46 2.67659,2.5549 4.25824,3.4065 1.58155,0.8518 3.40651,1.2167 5.35317,1.2167 2.06827,0 4.01494,-0.3649 5.59659,-1.095 1.70325,-0.73 3.0416,-1.8249 4.25824,-3.1633 1.09493,-1.3382 2.06827,-3.0416 2.67659,-4.8665 0.60832,-1.825 0.85162,-3.8933 0.85162,-6.2048 m -34.30922,0 c 0,-3.4067 0.48661,-6.4483 1.58165,-9.1248 1.09493,-2.6767 2.55488,-4.9883 4.37984,-6.935 1.82496,-1.8249 4.01493,-3.2849 6.56992,-4.3798 2.55488,-0.9733 5.35317,-1.5817 8.27307,-1.5817 2.92,0 5.59658,0.4866 8.15157,1.5817 2.55488,0.9733 4.74485,2.4333 6.69152,4.3798 1.82496,1.825 3.40651,4.1367 4.37984,6.8133 1.09504,2.6765 1.58165,5.7181 1.58165,9.0032 0,3.2849 -0.48661,6.3265 -1.58165,9.1248 -1.09493,2.6765 -2.55488,4.9881 -4.37984,6.9348 -1.82496,1.9465 -4.13664,3.4066 -6.69152,4.5015 -2.55499,1.095 -5.35328,1.5817 -8.27317,1.5817 -3.0416,0 -5.8399,-0.4867 -8.39488,-1.5817 -2.55488,-1.0949 -4.74486,-2.555 -6.56982,-4.5015 -1.82496,-1.9467 -3.2849,-4.2583 -4.37994,-6.9348 -0.85163,-2.6767 -1.33824,-5.5966 -1.33824,-8.8815 z m 54.9921,-13.8698 c 1.45995,-2.3116 3.40662,-4.1365 5.71819,-5.7182 2.31168,-1.5816 4.98827,-2.3116 7.90816,-2.3116 3.28501,0 6.0832,0.8517 8.15157,2.4333 2.06827,1.5816 3.64992,3.7715 4.50155,6.4481 1.70325,-2.4333 3.64992,-4.6231 5.96149,-6.3265 2.31168,-1.7032 5.10998,-2.5549 8.51648,-2.5549 2.31168,0 4.25824,0.3649 5.9616,1.095 1.70326,0.73 3.1632,1.8249 4.25824,3.1633 1.09494,1.3382 1.94656,3.0416 2.55488,4.8665 0.60832,1.9466 0.85174,4.0149 0.85174,6.3265 v 27.3744 h -7.29984 v -26.766 c 0,-2.92 -0.73003,-5.2316 -2.06838,-7.0566 -1.33824,-1.8249 -3.1632,-2.6766 -5.59648,-2.6766 -1.21664,0 -2.43328,0.2434 -3.52832,0.73 -1.09493,0.4867 -2.18986,1.095 -3.2849,1.9466 -0.97334,0.8517 -1.94656,1.825 -2.9199,2.9199 -0.97333,1.0951 -1.70336,2.19 -2.55498,3.4066 v 27.4961 h -7.29984 v -26.766 c 0,-2.92 -0.73003,-5.2316 -2.06827,-7.0566 -1.33835,-1.8249 -3.16331,-2.6766 -5.59659,-2.6766 -1.21664,0 -2.31157,0.2434 -3.52821,0.73 -1.09504,0.4867 -2.18997,1.095 -3.28491,1.9466 -1.09504,0.8517 -2.06837,1.7033 -2.92,2.7983 -0.97333,1.095 -1.70325,2.19 -2.55488,3.4066 v 27.6177 h -7.29984 v -41.8524 h 7.05643 z"
         class="st2"
         sodipodi:nodetypes="ccscsccsscscccccssscccscscscccsscsccccscccsccsccccssscccsccscssscscssssccscsssccccssscccsccscssscscssssccscsssccscccscccsccscsccccccscsccccccccc"
         inkscape:connector-curvature="0"
         id="path4555"
         inkscape:export-xdpi="108.54"
         inkscape:export-ydpi="108.54" />
      <g
         aria-label="Reader"
         style="font-style:normal;font-variant:normal;font-weight:normal;font-stretch:normal;font-size:43.66012573px;line-height:125%;font-family:'Freestyle Script';-inkscape-font-specification:'Freestyle Script, Normal';font-variant-ligatures:normal;font-variant-caps:normal;font-variant-numeric:normal;font-feature-settings:normal;text-align:start;letter-spacing:0px;word-spacing:0px;writing-mode:lr-tb;text-anchor:start;fill:#ffffff;fill-opacity:1;stroke:none;stroke-width:1.76431596px;stroke-linecap:butt;stroke-linejoin:miter;stroke-opacity:1"
         id="text4597">
        <path
           d="m 890.55853,2058.7356 q -2.79271,5.4149 -3.87995,8.6553 -0.63955,1.876 -0.87406,2.0892 -0.29846,0.2985 -0.91669,0.2985 -0.51164,0 -0.78878,-0.3411 -0.25582,-0.3198 -0.25582,-0.6609 0,-1.002 1.91866,-5.3296 1.36437,-3.1125 3.62413,-7.0777 -0.29846,-0.9807 -0.29846,-1.4923 0,-0.7248 0.55428,-1.1512 0.27714,-0.2132 0.59691,-0.2132 0.29846,0 0.76747,0.2132 0.31977,-0.5543 2.36634,-4.0718 1.83339,-3.5602 2.02525,-4.1784 -0.5756,0.2558 -0.91669,0.4477 -0.36241,0.1918 -0.5756,0.1918 -0.27714,0 -0.469,-0.2984 -0.14923,-0.2345 -0.14923,-0.533 0,-1.0659 1.42833,-1.876 1.00197,-0.5756 1.9613,-0.9594 0.27714,-1.0019 0.44768,-1.3217 0.29846,-0.5756 0.95933,-0.5756 0.72483,0 1.25779,0.8101 1.00197,-0.2984 1.89734,-0.4477 0.91669,-0.1492 1.72679,-0.1492 2.47294,0 3.75204,1.407 1.21515,1.3431 1.21515,3.2617 0,3.1338 -2.45162,5.9265 -2.30238,2.6009 -6.1397,3.9866 -2.94194,1.0659 -5.79861,1.0659 -0.49032,0 -1.49229,-0.064 0.34109,1.3004 0.91669,2.6008 1.00197,2.1105 2.85667,6.0544 0.53296,1.0446 1.74811,2.9846 0.31978,0.5117 0.31978,0.938 0,0.4051 -0.46901,0.7675 -0.49032,0.3411 -0.83142,0.3411 -0.53296,0 -1.12987,-1.1299 -0.29846,-0.533 -0.74615,-1.3217 -1.64152,-2.7075 -4.15709,-8.8472 z m 2.60085,-4.6048 q 0.8101,0.043 1.21515,0.043 4.41291,0 8.25023,-3.0912 1.68415,-1.3644 2.72875,-3.1551 0.66088,-1.1086 0.66088,-2.345 0,-1.2578 -0.8101,-1.8761 -0.78879,-0.6395 -2.38767,-0.6395 -1.44965,0 -2.92062,0.5543 -0.5756,0.2131 -1.64152,0.7035 -0.74614,1.7054 -2.4303,4.9458 -1.68415,3.2191 -2.6648,4.8606 z"
           style="font-style:normal;font-variant:normal;font-weight:normal;font-stretch:normal;font-size:43.66012573px;font-family:'Freestyle Script';-inkscape-font-specification:'Freestyle Script, Normal';font-variant-ligatures:normal;font-variant-caps:normal;font-variant-numeric:normal;font-feature-settings:normal;text-align:start;writing-mode:lr-tb;text-anchor:start;fill:#ffffff;fill-opacity:1;stroke-width:1.76431596px"
           id="path4650"
           inkscape:connector-curvature="0" />
        <path
           d="m 904.181,2064.0226 v 0.3837 q 0,0.469 0.2345,0.8101 0.53296,0.7888 1.74811,0.7888 2.66481,0 6.16103,-4.0931 0.61823,-0.7035 1.0446,-0.7035 0.2345,0 0.42637,0.2345 0.12791,0.1705 0.12791,0.3197 0,0.8315 -2.04657,2.8141 -1.59888,1.5562 -3.41095,2.5369 -1.81206,0.9806 -3.36831,0.9806 -1.59888,0 -2.51557,-1.1085 -0.61823,-0.7675 -0.61823,-2.0893 0,-3.6028 3.38962,-7.0564 2.75008,-2.814 4.79665,-2.814 0.55428,0 1.00196,0.3411 0.55428,0.4477 0.55428,1.1725 0,1.1299 -1.0446,2.7714 -2.15316,3.411 -6.4808,4.7114 z m 0.46901,-1.6628 q 1.49229,-0.5117 2.34502,-1.1512 1.49229,-1.1512 2.36635,-2.6009 0.31977,-0.5116 0.31977,-0.9167 0,-0.4263 -0.40505,-0.4263 -0.55428,0 -1.57756,0.8314 -1.83338,1.4709 -3.04853,4.2637 z"
           style="font-style:normal;font-variant:normal;font-weight:normal;font-stretch:normal;font-size:43.66012573px;font-family:'Freestyle Script';-inkscape-font-specification:'Freestyle Script, Normal';font-variant-ligatures:normal;font-variant-caps:normal;font-variant-numeric:normal;font-feature-settings:normal;text-align:start;writing-mode:lr-tb;text-anchor:start;fill:#ffffff;fill-opacity:1;stroke-width:1.76431596px"
           id="path4652"
           inkscape:connector-curvature="0" />
        <path
           d="m 920.80937,2064.5982 q -0.70351,1.2365 -1.3857,2.0892 -1.34306,1.6628 -2.6648,1.6628 -1.1512,0 -1.79075,-1.0872 -0.40505,-0.7035 -0.40505,-1.6628 0,-2.3664 1.49229,-5.2231 1.66284,-3.1764 4.00786,-4.8819 1.53493,-1.1085 2.96326,-1.1085 0.89538,0 1.49229,0.5542 0.51165,0.4904 0.51165,1.1086 0,0.469 -0.36242,1.3004 0.31978,0.4477 0.31978,0.7888 0,0.4477 -0.59692,1.471 -0.61823,1.0446 -1.23647,2.7714 -0.66087,1.8334 -0.66087,2.9419 0,0.8954 0.53296,1.471 0.14923,0.1492 0.87406,0.4903 0.53296,0.2558 0.53296,0.8954 0,0.405 -0.29846,0.6609 -0.31977,0.2771 -0.74614,0.2771 -1.1512,0 -1.98262,-1.0233 -0.68219,-0.8314 -0.68219,-2.0892 0,-0.4264 0.0853,-1.407 z m 2.6648,-7.0138 q -0.25582,-0.469 -0.55428,-0.6822 -0.29846,-0.2345 -0.63955,-0.2345 -1.6202,0 -3.51754,2.8354 -2.08921,3.1338 -2.08921,5.3083 0,0.5329 0.19187,0.8101 0.21318,0.2771 0.61823,0.2771 1.02329,0 2.38767,-2.1745 0.76746,-1.1938 1.89734,-3.5175 0.74614,-1.5136 1.08724,-2.0039 0.17054,-0.2559 0.61823,-0.6183 z"
           style="font-style:normal;font-variant:normal;font-weight:normal;font-stretch:normal;font-size:43.66012573px;font-family:'Freestyle Script';-inkscape-font-specification:'Freestyle Script, Normal';font-variant-ligatures:normal;font-variant-caps:normal;font-variant-numeric:normal;font-feature-settings:normal;text-align:start;writing-mode:lr-tb;text-anchor:start;fill:#ffffff;fill-opacity:1;stroke-width:1.76431596px"
           id="path4654"
           inkscape:connector-curvature="0" />
        <path
           d="m 934.47448,2055.6658 q 2.13184,-4.4556 4.02918,-7.7599 1.83338,-3.1978 2.49425,-4.0292 0.72483,-0.9167 1.36438,-0.9167 0.3411,0 0.61824,0.2771 0.25582,0.2772 0.25582,0.5969 0,0.4904 -0.72483,1.6416 -3.09117,4.9885 -5.6707,10.1262 -2.98458,5.9905 -2.98458,8.9751 0,1.2151 0.46901,1.9186 0.0853,0.1493 0.76746,0.6822 0.12791,0.1066 0.12791,0.4264 0,0.4264 -0.34109,0.7888 -0.31978,0.3411 -0.72483,0.3411 -0.49032,0 -1.08724,-0.597 -0.85274,-0.8527 -1.02328,-1.9612 -0.064,-0.4691 -0.14923,-1.7482 -2.23844,4.0292 -4.26369,4.0292 -1.17251,0 -1.87602,-1.3217 -0.469,-0.8741 -0.469,-1.9826 0,-3.3257 2.4303,-6.694 2.40898,-3.3257 5.18037,-3.3257 0.76747,0 1.57757,0.533 z m -0.72483,1.7481 q -0.5756,-0.3838 -1.00197,-0.3838 -1.79074,0 -3.38962,2.1958 -2.11053,2.8567 -2.11053,5.5215 0,0.3198 0.12791,0.5969 0.25582,0.533 0.76747,0.533 0.74614,0 1.81206,-1.4497 1.42834,-1.9186 2.64349,-4.5408 0.42636,-0.8954 0.83141,-1.7907 0,0 0.19187,-0.4051 z"
           style="font-style:normal;font-variant:normal;font-weight:normal;font-stretch:normal;font-size:43.66012573px;font-family:'Freestyle Script';-inkscape-font-specification:'Freestyle Script, Normal';font-variant-ligatures:normal;font-variant-caps:normal;font-variant-numeric:normal;font-feature-settings:normal;text-align:start;writing-mode:lr-tb;text-anchor:start;fill:#ffffff;fill-opacity:1;stroke-width:1.76431596px"
           id="path4656"
           inkscape:connector-curvature="0" />
        <path
           d="m 938.88739,2064.0226 v 0.3837 q 0,0.469 0.2345,0.8101 0.53296,0.7888 1.74811,0.7888 2.66481,0 6.16103,-4.0931 0.61823,-0.7035 1.0446,-0.7035 0.2345,0 0.42637,0.2345 0.12791,0.1705 0.12791,0.3197 0,0.8315 -2.04657,2.8141 -1.59888,1.5562 -3.41095,2.5369 -1.81206,0.9806 -3.36831,0.9806 -1.59888,0 -2.51557,-1.1085 -0.61824,-0.7675 -0.61824,-2.0893 0,-3.6028 3.38963,-7.0564 2.75008,-2.814 4.79665,-2.814 0.55428,0 1.00196,0.3411 0.55428,0.4477 0.55428,1.1725 0,1.1299 -1.0446,2.7714 -2.15316,3.411 -6.4808,4.7114 z m 0.46901,-1.6628 q 1.49228,-0.5117 2.34502,-1.1512 1.49229,-1.1512 2.36635,-2.6009 0.31977,-0.5116 0.31977,-0.9167 0,-0.4263 -0.40505,-0.4263 -0.55428,0 -1.57756,0.8314 -1.83338,1.4709 -3.04853,4.2637 z"
           style="font-style:normal;font-variant:normal;font-weight:normal;font-stretch:normal;font-size:43.66012573px;font-family:'Freestyle Script';-inkscape-font-specification:'Freestyle Script, Normal';font-variant-ligatures:normal;font-variant-caps:normal;font-variant-numeric:normal;font-feature-settings:normal;text-align:start;writing-mode:lr-tb;text-anchor:start;fill:#ffffff;fill-opacity:1;stroke-width:1.76431596px"
           id="path4658"
           inkscape:connector-curvature="0" />
        <path
           d="m 953.1281,2061.102 q 2.0892,-2.2385 4.81796,-4.3703 0.98065,-0.7675 2.0892,-1.4283 0.55428,-0.3198 0.70351,-0.3198 0.31978,0 0.63955,0.469 0.19187,0.2558 0.19187,0.469 0,0.3837 -0.8101,1.0446 -2.17448,1.7268 -2.17448,2.6008 0,0.4904 0.55428,0.4904 0.91669,0 3.15513,-1.5136 0.38373,-0.2559 0.63955,-0.2559 0.17055,0 0.34109,0.1706 0.19187,0.1918 0.19187,0.405 0,0.6396 -1.79075,1.9613 -1.87602,1.407 -3.56017,1.407 -0.68219,0 -1.25779,-0.3624 -0.49032,-0.2984 -0.49032,-1.0659 0,-0.533 0.44768,-1.2151 -1.68415,1.1938 -3.96522,4.0931 -1.32175,1.7907 -2.62217,4.4129 -0.49032,0.9807 -1.21515,0.9807 -0.78878,0 -0.78878,-0.7462 0,-0.7248 1.23647,-3.8799 1.83338,-4.6901 3.83731,-7.2696 1.23647,-1.5989 2.06789,-1.5989 0.27714,0 0.51164,0.1705 0.27714,0.2132 0.27714,0.533 0,0.3198 -0.42637,0.8954 -0.0853,0.1066 -1.12987,1.4283 -0.95933,1.2578 -1.47097,2.4943 z"
           style="font-style:normal;font-variant:normal;font-weight:normal;font-stretch:normal;font-size:43.66012573px;font-family:'Freestyle Script';-inkscape-font-specification:'Freestyle Script, Normal';font-variant-ligatures:normal;font-variant-caps:normal;font-variant-numeric:normal;font-feature-settings:normal;text-align:start;writing-mode:lr-tb;text-anchor:start;fill:#ffffff;fill-opacity:1;stroke-width:1.76431596px"
           id="path4660"
           inkscape:connector-curvature="0" />
      </g>
    </g>
    <g
       inkscape:export-ydpi="314.63"
       inkscape:export-xdpi="314.63"
       transform="matrix(0.56679189,0,0,0.56679189,284.09743,399.16429)"
       id="g4618">
      <path
         id="path4578"
         inkscape:connector-curvature="0"
         inkscape:export-filename="X:\dev\b36\src\BloomExe\Resources\LogoForSplashScreen.png"
         inkscape:export-xdpi="108.54"
         inkscape:export-ydpi="108.54"
         sodipodi:nodetypes="cccsccc"
         class="st1"
         d="m 695.15098,2101.6624 c 0.36137,-20.2411 -6.98799,-24.9398 -11.32525,-28.1927 -3.85542,-2.771 -11.5663,-5.7833 -17.10843,-6.8675 -4.18983,23.3065 1.57307,51.9139 24.84627,50.843 26.73943,-1.2301 26.39771,-21.5318 24.79208,-50.2405 -14.57817,1.325 -19.0361,5.6625 -19.0361,5.6625 l -0.84332,0.6025"
         style="opacity:1;fill:none;stroke:#d65649;stroke-width:9.3975563;stroke-linejoin:round;stroke-opacity:1" />
      <path
         id="path4580"
         inkscape:connector-curvature="0"
         sodipodi:nodetypes="ccscsccsscscccccssscccscscscccsscsccccscccsccsccccssscccsccscssscscssssccscsssccccssscccsccscssscscssssccscsssccscccscccsccscsccccccscsccccccccc"
         class="st2"
         d="m 738.57172,2064.2896 c 1.82496,-0.2434 4.25824,-0.365 6.93483,-0.6083 2.79829,-0.1217 5.9616,-0.2434 9.61152,-0.2434 6.93483,0 12.288,1.3383 15.93792,3.8933 3.64992,2.5549 5.47488,6.0832 5.47488,10.5847 0,3.0416 -0.72992,5.4749 -2.31157,7.5432 -1.58166,2.0683 -3.89323,3.7716 -6.93483,5.1099 3.64992,1.3383 6.44811,3.0416 8.27317,5.3532 1.82496,2.3116 2.79819,5.1099 2.79819,8.5165 0,5.1099 -1.94656,9.2464 -5.96149,12.288 -4.01494,3.0416 -9.85483,4.5017 -17.64128,4.5017 -3.28491,0 -6.32651,-0.1217 -9.36811,-0.2434 -2.92,-0.1216 -5.23157,-0.3649 -6.93493,-0.6084 l 0.1217,-56.087 m 16.78966,50.4906 c 4.86656,0 8.63808,-0.8517 11.19306,-2.555 2.67659,-1.7033 4.01494,-4.2583 4.01494,-7.5432 0,-3.2849 -1.33835,-5.7182 -3.89323,-7.5431 -2.67669,-1.825 -6.44821,-2.7983 -11.31477,-2.7983 h -9.24651 v 19.9528 c 2.92,0.3651 5.9616,0.4868 9.24651,0.4868 m -0.24331,-26.2795 c 4.25824,0 7.66475,-0.8516 10.09803,-2.6766 2.55498,-1.7034 3.77162,-4.0149 3.77162,-6.9348 0,-3.0416 -1.21664,-5.3533 -3.64992,-6.935 -2.43328,-1.5815 -5.83989,-2.3115 -10.09813,-2.3115 -1.82496,0 -3.40661,0 -4.86656,0.1217 -1.45995,0.1216 -2.79829,0.1216 -4.01493,0.2433 v 18.3712 z m 37.47253,18.2496 c 0,2.92 0.48662,5.1099 1.70326,6.4482 1.21664,1.3384 2.91989,2.0683 4.98826,2.0683 0.97323,0 2.06827,-0.1216 3.0416,-0.365 0.97323,-0.2433 1.82496,-0.4867 2.55488,-0.8517 l 1.82496,5.8399 c -0.97333,0.4866 -2.18997,0.8517 -3.52821,1.095 -1.45995,0.365 -3.0416,0.4867 -4.74496,0.4867 -1.82496,0 -3.64992,-0.2433 -5.23147,-0.8516 -1.58165,-0.4868 -2.92,-1.3384 -4.13664,-2.555 -1.21664,-1.095 -2.06826,-2.555 -2.79829,-4.38 -0.72992,-1.8249 -0.97323,-3.8932 -0.97323,-6.4481 v -46.354 h 7.29984 z m 49.15222,-7.1781 c 0,-2.0683 -0.36502,-4.1367 -0.97334,-5.9616 -0.72992,-1.825 -1.58154,-3.5283 -2.79818,-4.8666 -1.21664,-1.3382 -2.6767,-2.5549 -4.25824,-3.4066 -1.58166,-0.8516 -3.40662,-1.2167 -5.35328,-1.2167 -4.25824,0 -7.54315,1.3384 -9.85472,4.1367 -2.31168,2.7983 -3.52832,6.4482 -3.52832,11.0715 0,2.0682 0.36501,4.1365 0.97333,5.9614 0.73003,1.9467 1.58165,3.5283 2.79829,4.9883 1.21664,1.46 2.67659,2.5549 4.25824,3.4065 1.58166,0.8518 3.40662,1.2167 5.35318,1.2167 2.06826,0 4.01493,-0.3649 5.59658,-1.095 1.70326,-0.73 3.0416,-1.8249 4.25824,-3.1633 1.09494,-1.3382 2.06827,-3.0416 2.67659,-4.8665 0.48661,-1.825 0.85163,-3.8933 0.85163,-6.2048 m -34.30923,0 c 0,-3.4067 0.48661,-6.4483 1.58165,-9.1248 1.09494,-2.6767 2.55488,-4.9883 4.37984,-6.935 1.82496,-1.8249 4.01494,-3.2849 6.56992,-4.3798 2.55488,-0.9733 5.35318,-1.5817 8.27318,-1.5817 2.91989,0 5.59648,0.4866 8.15146,1.5817 2.55488,0.9733 4.74486,2.4333 6.69152,4.3798 1.82496,1.825 3.40662,4.1367 4.37984,6.8133 1.09504,2.6765 1.58166,5.7181 1.58166,9.0032 0,3.2849 -0.48662,6.3265 -1.58166,9.1248 -1.09493,2.6765 -2.55488,4.9881 -4.37984,6.9348 -1.82496,1.9465 -4.13664,3.4066 -6.69152,4.5015 -2.55498,1.095 -5.35328,1.5817 -8.27317,1.5817 -3.0416,0 -5.83989,-0.4867 -8.39477,-1.5817 -2.55499,-1.0949 -4.74496,-2.555 -6.56992,-4.5015 -1.82496,-1.9467 -3.28491,-4.2583 -4.37995,-6.9348 -0.85163,-2.6767 -1.33824,-5.5966 -1.33824,-8.8815 z m 81.27157,0 c 0,-2.0683 -0.36501,-4.1367 -0.97333,-5.9616 -0.72992,-1.825 -1.58165,-3.5283 -2.79829,-4.8666 -1.21664,-1.3382 -2.67659,-2.5549 -4.25824,-3.4066 -1.58155,-0.8516 -3.40651,-1.2167 -5.35318,-1.2167 -4.25824,0 -7.54314,1.3384 -9.85482,4.1367 -2.31158,2.7983 -3.52822,6.4482 -3.52822,11.0715 0,2.0682 0.36502,4.1365 0.97334,5.9614 0.72992,1.9467 1.58165,3.5283 2.79829,4.9883 1.21664,1.46 2.67659,2.5549 4.25824,3.4065 1.58155,0.8518 3.40651,1.2167 5.35317,1.2167 2.06827,0 4.01494,-0.3649 5.59659,-1.095 1.70325,-0.73 3.0416,-1.8249 4.25824,-3.1633 1.09493,-1.3382 2.06827,-3.0416 2.67659,-4.8665 0.60832,-1.825 0.85162,-3.8933 0.85162,-6.2048 m -34.30922,0 c 0,-3.4067 0.48661,-6.4483 1.58165,-9.1248 1.09493,-2.6767 2.55488,-4.9883 4.37984,-6.935 1.82496,-1.8249 4.01493,-3.2849 6.56992,-4.3798 2.55488,-0.9733 5.35317,-1.5817 8.27307,-1.5817 2.92,0 5.59658,0.4866 8.15157,1.5817 2.55488,0.9733 4.74485,2.4333 6.69152,4.3798 1.82496,1.825 3.40651,4.1367 4.37984,6.8133 1.09504,2.6765 1.58165,5.7181 1.58165,9.0032 0,3.2849 -0.48661,6.3265 -1.58165,9.1248 -1.09493,2.6765 -2.55488,4.9881 -4.37984,6.9348 -1.82496,1.9465 -4.13664,3.4066 -6.69152,4.5015 -2.55499,1.095 -5.35328,1.5817 -8.27317,1.5817 -3.0416,0 -5.8399,-0.4867 -8.39488,-1.5817 -2.55488,-1.0949 -4.74486,-2.555 -6.56982,-4.5015 -1.82496,-1.9467 -3.2849,-4.2583 -4.37994,-6.9348 -0.85163,-2.6767 -1.33824,-5.5966 -1.33824,-8.8815 z m 54.9921,-13.8698 c 1.45995,-2.3116 3.40662,-4.1365 5.71819,-5.7182 2.31168,-1.5816 4.98827,-2.3116 7.90816,-2.3116 3.28501,0 6.0832,0.8517 8.15157,2.4333 2.06827,1.5816 3.64992,3.7715 4.50155,6.4481 1.70325,-2.4333 3.64992,-4.6231 5.96149,-6.3265 2.31168,-1.7032 5.10998,-2.5549 8.51648,-2.5549 2.31168,0 4.25824,0.3649 5.9616,1.095 1.70326,0.73 3.1632,1.8249 4.25824,3.1633 1.09494,1.3382 1.94656,3.0416 2.55488,4.8665 0.60832,1.9466 0.85174,4.0149 0.85174,6.3265 v 27.3744 h -7.29984 v -26.766 c 0,-2.92 -0.73003,-5.2316 -2.06838,-7.0566 -1.33824,-1.8249 -3.1632,-2.6766 -5.59648,-2.6766 -1.21664,0 -2.43328,0.2434 -3.52832,0.73 -1.09493,0.4867 -2.18986,1.095 -3.2849,1.9466 -0.97334,0.8517 -1.94656,1.825 -2.9199,2.9199 -0.97333,1.0951 -1.70336,2.19 -2.55498,3.4066 v 27.4961 h -7.29984 v -26.766 c 0,-2.92 -0.73003,-5.2316 -2.06827,-7.0566 -1.33835,-1.8249 -3.16331,-2.6766 -5.59659,-2.6766 -1.21664,0 -2.31157,0.2434 -3.52821,0.73 -1.09504,0.4867 -2.18997,1.095 -3.28491,1.9466 -1.09504,0.8517 -2.06837,1.7033 -2.92,2.7983 -0.97333,1.095 -1.70325,2.19 -2.55488,3.4066 v 27.6177 h -7.29984 v -41.8524 h 7.05643 z"
         style="fill:#4d4d4d;fill-opacity:1;stroke-width:1.06666672" />
      <g
         transform="matrix(1.1406006,0,0,1.1406006,631.02077,2009.784)"
         id="g4616"
         style="fill:#d65649;fill-opacity:1">
        <path
           id="path4582"
           inkscape:connector-curvature="0"
           class="st3"
           d="m 156.48,47.68 c 0.21333,-0.106667 0.42667,-0.106667 0.53333,-0.213333 2.24,-0.64 3.94667,-0.96 4.90667,-0.96 0.74667,0 1.06667,0.213333 1.06667,0.746666 0,0.213334 -0.10667,0.426667 -0.21334,0.533334 C 162.66667,47.893333 162.45333,48 162.24,48 c -0.10667,0 -0.21333,0 -0.42667,0 -0.10666,0 -0.32,0 -0.32,0 -0.53333,0 -1.38666,0.106667 -2.24,0.426667 -0.32,0.106666 -0.96,0.32 -2.02666,0.746666 -0.64,0.32 -1.17334,0.426667 -1.70667,0.426667 -0.32,0 -0.53333,-0.106667 -0.74667,-0.426667 C 154.56,48.96 154.45333,48.64 154.45333,48.32 c 0,-0.32 0.21334,-0.96 0.53334,-1.813333 1.17333,-2.666667 2.56,-5.013334 3.94666,-7.146667 2.02667,-2.986667 3.52,-5.226667 4.69334,-6.72 0.32,-0.32 0.53333,-0.746667 0.85333,-1.066667 0.42667,-0.64 0.85333,-0.96 1.17333,-0.96 0.21334,0 0.32,0.106667 0.42667,0.213334 0.10667,0.106666 0.21333,0.32 0.21333,0.426666 0,0.213334 -0.10666,0.533334 -0.42666,0.96 -0.10667,0.106667 -0.42667,0.64 -1.17334,1.6 -1.38666,1.813334 -2.45333,3.2 -3.09333,4.266667 -0.64,0.96 -1.49333,2.133333 -2.24,3.306667 -1.38667,2.453333 -2.34667,4.586666 -2.88,6.293333 z"
           style="fill:#d65649;fill-opacity:1;stroke-width:1.06666672" />
        <path
           id="path4584"
           inkscape:connector-curvature="0"
           class="st3"
           d="m 165.97333,46.08 v 0.213333 c 0,0.213334 0,0.426667 0.10667,0.533334 0.21333,0.32 0.64,0.533333 1.17333,0.533333 1.17334,0 2.66667,-0.853333 4.26667,-2.773333 0.32,-0.32 0.53333,-0.426667 0.64,-0.426667 0.10667,0 0.21333,0 0.32,0.106667 0.10667,0.106666 0.10667,0.106666 0.10667,0.213333 0,0.32 -0.42667,0.96 -1.49334,1.92 -0.74666,0.64 -1.6,1.386667 -2.34666,1.813333 -0.74667,0.426667 -1.6,0.64 -2.34667,0.64 -0.74667,0 -1.38667,-0.213333 -1.81333,-0.746666 -0.32,-0.32 -0.42667,-0.746667 -0.42667,-1.493334 0,-1.706666 0.74667,-3.2 2.34667,-4.906666 1.17333,-1.386667 2.34666,-1.92 3.30666,-1.92 0.21334,0 0.42667,0.106666 0.64,0.213333 0.21334,0.213333 0.32,0.533333 0.32,0.853333 0,0.533334 -0.10666,1.28 -0.42666,1.92 -0.96,1.92 -2.45334,2.666667 -4.37334,3.306667 z m 0.32,-1.173333 c 0.64,-0.213334 1.06667,-0.32 1.70667,-0.746667 0.85333,-0.64 1.17333,-0.96 1.70667,-1.813333 0.10666,-0.213334 0.21333,-0.426667 0.21333,-0.64 0,-0.213334 -0.10667,-0.32 -0.32,-0.32 -0.21333,0 -0.64,0.213333 -1.06667,0.533333 -1.06666,0.746667 -1.70666,1.706667 -2.24,2.986667 z"
           style="fill:#d65649;fill-opacity:1;stroke-width:1.06666672" />
        <path
           id="path4586"
           inkscape:connector-curvature="0"
           class="st3"
           d="m 177.70667,39.36 c -0.64,0.96 -1.17334,2.133333 -1.81334,3.306667 -0.74666,1.813333 -1.06666,2.986666 -1.06666,3.946666 0,0.213334 0,0.426667 0.10666,0.533334 C 175.04,47.253333 175.14667,47.36 175.36,47.36 c 0.42667,0 1.06667,-0.426667 1.81333,-1.386667 C 177.6,45.44 177.92,44.906667 178.34667,44.266667 178.56,43.946667 178.66667,43.84 178.88,43.84 c 0.10667,0 0.21333,0 0.32,0.106667 0.10667,0.106666 0.10667,0.213333 0.10667,0.213333 0,0.32 -0.42667,1.173333 -1.49334,2.453333 -1.06666,1.6 -2.24,2.24 -3.09333,2.24 -0.42667,0 -0.85333,-0.213333 -1.17333,-0.64 -0.21334,-0.32 -0.32,-0.64 -0.32,-1.173333 0,-1.173333 0.32,-2.56 0.96,-4.16 0.10666,-0.426667 0.64,-1.386667 1.38666,-2.773333 -0.21333,0.106666 -0.42666,0.106666 -0.53333,0.106666 -0.21333,0 -0.32,0 -0.53333,-0.106666 -0.21334,-0.106667 -0.32,-0.32 -0.32,-0.533334 0,-0.213333 0.10666,-0.426666 0.42666,-0.533333 0.10667,0 0.42667,-0.106667 1.06667,-0.213333 0.21333,0 0.53333,-0.106667 0.96,-0.32 0.32,-0.64 0.85333,-1.493334 1.70667,-2.56 0.42666,-0.533334 0.74666,-0.96 0.85333,-1.066667 0.21333,-0.213333 0.42667,-0.32 0.64,-0.32 0.10667,0 0.21333,0.106667 0.32,0.213333 0.10667,0.106667 0.21333,0.213334 0.21333,0.32 0,0.213334 -0.21333,0.746667 -0.74666,1.6 -0.32,0.426667 -0.64,0.853334 -0.74667,1.173334 1.06667,-0.32 1.92,-0.426667 2.34667,-0.426667 0.53333,0 0.74666,0.213333 0.74666,0.64 0,0.213333 -0.10666,0.426667 -0.32,0.426667 -0.10666,0.106666 -0.32,0.106666 -0.74666,0.106666 -0.10667,0 -0.85334,0.213334 -2.24,0.533334 -0.21334,0 -0.64,0.106666 -0.96,0.213333 z"
           style="fill:#d65649;fill-opacity:1;stroke-width:1.06666672" />
        <path
           id="path4588"
           inkscape:connector-curvature="0"
           class="st3"
           d="m 187.73333,29.76 c 0.10667,0 0.21334,0 0.32,0.106667 0.10667,0.106666 0.21334,0.32 0.21334,0.533333 0,0.426667 -0.53334,1.813333 -1.81334,4.053333 C 186.02667,35.2 185.70667,35.626667 185.6,35.946667 185.49333,36.053333 185.28,36.16 185.17333,36.16 c -0.32,0 -0.53333,-0.213333 -0.53333,-0.64 0,-0.32 0.21333,-0.746667 0.53333,-1.493333 0.85334,-1.813334 1.38667,-2.666667 1.38667,-2.88 0.32,-0.96 0.74667,-1.386667 1.17333,-1.386667 z"
           style="fill:#d65649;fill-opacity:1;stroke-width:1.06666672" />
        <path
           id="path4590"
           inkscape:connector-curvature="0"
           class="st3"
           d="m 189.12,39.04 c 0.53333,0 1.06667,0.106667 1.38667,0.32 0.32,0.213333 0.42666,0.533333 0.42666,0.96 0,0.533333 -0.21333,1.066667 -0.64,1.706667 -0.42666,0.64 -0.96,0.853333 -1.92,1.173333 -0.42666,0.106667 -0.74666,0.213333 -1.06666,0.213333 -0.42667,0 -0.64,-0.213333 -0.64,-0.533333 0,-0.213333 0.10666,-0.426667 0.32,-0.533333 0.10666,0 0.42666,-0.106667 0.96,-0.213334 0.32,-0.106666 0.64,-0.213333 0.96,-0.533333 0.21333,-0.213333 0.42666,-0.426667 0.42666,-0.746667 0,-0.213333 -0.10666,-0.32 -0.21333,-0.426666 C 189.01333,40.32 188.8,40.32 188.58667,40.32 c -0.53334,0 -1.17334,0.213333 -1.92,0.64 -0.74667,0.533333 -1.17334,1.066667 -1.17334,1.92 0,0.533333 0.21334,1.066667 0.74667,1.92 0.53333,0.853333 0.85333,1.6 0.85333,2.133333 0,0.853334 -0.32,1.6 -1.06666,2.026667 -0.42667,0.32 -0.96,0.426667 -1.6,0.426667 -0.85334,0 -1.70667,-0.32 -2.13334,-0.96 C 181.97333,48 181.76,47.466667 181.76,46.72 c 0,-0.746667 0.21333,-1.493333 0.53333,-1.92 0.21334,-0.32 0.53334,-0.533333 0.74667,-0.533333 0.21333,0 0.32,0.106666 0.32,0.32 0,0.106666 0,0.213333 -0.10667,0.32 -0.21333,0.426666 -0.32,0.853333 -0.32,1.493333 0,0.426667 0.21334,0.853333 0.53334,1.173333 0.32,0.32 0.64,0.426667 0.96,0.426667 0.32,0 0.64,-0.106667 0.85333,-0.32 0.21333,-0.213333 0.21333,-0.426667 0.21333,-0.746667 0,-0.426666 -0.21333,-0.853333 -0.64,-1.6 -0.64,-0.853333 -0.96,-1.706666 -0.96,-2.453333 0,-0.96 0.53334,-1.92 1.6,-2.56 1.38667,-0.853333 2.45334,-1.28 3.62667,-1.28 z"
           style="fill:#d65649;fill-opacity:1;stroke-width:1.06666672" />
        <path
           id="path4592"
           inkscape:connector-curvature="0"
           class="st3"
           d="m 201.92,47.68 c 0.96,-0.746667 1.81333,-1.493333 2.34667,-2.133333 0.74666,-0.853334 1.38666,-1.706667 1.6,-2.24 0.10666,-0.213334 0.32,-0.32 0.42666,-0.32 0.21334,0 0.32,0.106666 0.32,0.32 0,0.213333 -0.21333,0.64 -0.53333,1.386666 -1.06667,1.92 -2.88,3.52 -5.22667,4.906667 -1.06666,2.24 -1.92,3.733333 -2.34666,4.586667 C 197.12,56.32 195.84,57.28 194.77333,57.28 c -0.64,0 -1.06666,-0.213333 -1.38666,-0.746667 -0.10667,-0.32 -0.21334,-0.533333 -0.21334,-0.96 0,-1.6 0.96,-2.986666 2.98667,-4.48 0.32,-0.213333 1.6,-0.96 3.73333,-2.24 C 200.32,48 200.64,47.146667 200.85333,46.72 c -0.96,1.066667 -1.92,1.706667 -2.56,1.706667 -0.42666,0 -0.74666,-0.213334 -0.96,-0.64 -0.10666,-0.32 -0.21333,-0.533334 -0.21333,-0.853334 0,-0.64 0.32,-1.6 0.85333,-2.666666 0.74667,-1.6 1.81334,-2.88 2.98667,-3.733334 0.96,-0.746666 1.81333,-1.066666 2.56,-1.066666 0.32,0 0.64,0.106666 0.96,0.426666 0.21333,0.213334 0.32,0.426667 0.32,0.746667 0,0.426667 -0.10667,0.96 -0.42667,1.706667 0.21334,0.213333 0.32,0.32 0.32,0.426666 0,0.106667 0,0.106667 -0.10666,0.32 -0.21334,0.32 -0.64,0.96 -1.17334,2.026667 -0.64,0.746667 -1.06666,1.493333 -1.49333,2.56 z m -0.10667,-3.52 C 201.70667,44.053333 201.6,43.946667 201.6,43.84 c 0,-0.106667 0.10667,-0.213333 0.21333,-0.32 0.42667,-0.426667 0.85334,-0.96 1.17334,-1.493333 0.21333,-0.426667 0.32,-0.64 0.32,-0.853334 0,-0.213333 -0.10667,-0.426666 -0.32,-0.426666 -0.42667,0 -0.96,0.426666 -1.81334,1.173333 -0.85333,0.96 -1.70666,2.026667 -2.24,3.2 -0.21333,0.533333 -0.32,0.96 -0.32,1.386667 0,0.213333 0,0.32 0.10667,0.426666 0.10667,0.106667 0.21333,0.106667 0.32,0.106667 0.32,0 0.74667,-0.32 1.49333,-0.96 0.42667,-0.426667 0.74667,-0.853333 0.96,-1.386667 0.32,-0.32 0.32,-0.533333 0.32,-0.533333 z M 199.04,50.666667 C 197.65333,51.2 196.58667,52.053333 195.62667,53.12 195.2,53.653333 194.88,54.186667 194.66667,54.826667 194.56,55.04 194.56,55.146667 194.56,55.253333 c 0,0.106667 0,0.213334 0.10667,0.32 0.10666,0.213334 0.21333,0.213334 0.42666,0.213334 0.53334,0 1.38667,-0.64 2.13334,-2.026667 0.64,-0.96 1.28,-2.133333 1.81333,-3.093333 z"
           style="fill:#d65649;fill-opacity:1;stroke-width:1.06666672" />
        <path
           id="path4594"
           inkscape:connector-curvature="0"
           class="st3"
           d="m 209.49333,44.053333 c 0.96,-0.96 2.13334,-2.026666 3.30667,-2.986666 0.42667,-0.32 0.85333,-0.64 1.49333,-0.96 C 214.50667,40 214.72,39.893333 214.72,39.893333 c 0.10667,0 0.32,0.106667 0.42667,0.32 0.10666,0.106667 0.10666,0.213334 0.10666,0.32 0,0.213334 -0.21333,0.426667 -0.53333,0.64 -0.96,0.746667 -1.49333,1.386667 -1.49333,1.813334 0,0.213333 0.10666,0.32 0.32,0.32 0.42666,0 1.06666,-0.32 2.24,-0.96 0.21333,-0.106667 0.32,-0.213334 0.42666,-0.213334 0.10667,0 0.10667,0 0.21334,0.106667 0.10666,0.106667 0.10666,0.213333 0.10666,0.32 0,0.32 -0.42666,0.746667 -1.17333,1.386667 -0.85333,0.64 -1.70667,0.96 -2.45333,0.96 -0.32,0 -0.53334,-0.106667 -0.85334,-0.213334 -0.21333,-0.106666 -0.32,-0.32 -0.32,-0.746666 0,-0.213334 0.10667,-0.533334 0.32,-0.853334 -0.74666,0.533334 -1.70666,1.493334 -2.77333,2.773334 -0.53333,0.746666 -1.17333,1.813333 -1.81333,2.986666 -0.21334,0.426667 -0.53334,0.64 -0.85334,0.64 -0.32,0 -0.53333,-0.213333 -0.53333,-0.533333 0,-0.32 0.32,-1.173333 0.85333,-2.666667 C 207.78667,44.16 208.64,42.56 209.6,41.28 c 0.53333,-0.746667 0.96,-1.066667 1.49333,-1.066667 0.10667,0 0.21334,0 0.32,0.106667 0.10667,0.106667 0.21334,0.213333 0.21334,0.32 0,0.106667 -0.10667,0.32 -0.32,0.64 0,0 -0.32,0.32 -0.74667,0.96 -0.53333,0.64 -0.85333,1.173333 -1.06667,1.813333 z"
           style="fill:#d65649;fill-opacity:1;stroke-width:1.06666672" />
        <path
           id="path4596"
           inkscape:connector-curvature="0"
           class="st3"
           d="m 221.54667,39.36 c 0.74666,0 1.17333,0.426667 1.17333,1.493333 0,1.386667 -0.53333,2.88 -1.81333,4.906667 -1.38667,2.133333 -2.56,3.2 -3.73334,3.2 -0.53333,0 -0.96,-0.213333 -1.17333,-0.746667 -0.10667,-0.213333 -0.21333,-0.533333 -0.21333,-0.96 0,-1.173333 0.42666,-2.56 1.38666,-4.16 C 217.92,41.706667 218.98667,40.64 219.94667,40 c 0.53333,-0.426667 1.17333,-0.64 1.6,-0.64 z M 220.16,45.013333 c -0.21333,-0.213333 -0.32,-0.32 -0.32,-0.426666 0,-0.106667 0.10667,-0.32 0.42667,-0.64 0.85333,-0.96 1.38666,-1.813334 1.38666,-2.346667 0,-0.106667 0,-0.106667 -0.10666,-0.213333 -0.10667,-0.106667 -0.21334,-0.213334 -0.32,-0.213334 -0.32,0 -0.74667,0.32 -1.38667,0.853334 -0.74667,0.746666 -1.38667,1.6 -1.81333,2.453333 -0.42667,0.96 -0.64,1.813333 -0.64,2.346667 0,0.106666 0,0.32 0.10666,0.426666 0.10667,0.213334 0.32,0.213334 0.42667,0.213334 0.42667,0 0.96,-0.32 1.6,-0.96 0.21333,-0.32 0.42667,-0.533334 0.53333,-0.853334 0,-0.533333 0.10667,-0.64 0.10667,-0.64 z"
           style="fill:#d65649;fill-opacity:1;stroke-width:1.06666672" />
        <path
           id="path4598"
           inkscape:connector-curvature="0"
           class="st3"
           d="m 227.94667,44.693333 c -0.85334,1.066667 -1.49334,1.92 -1.92,2.346667 -0.42667,0.533333 -0.85334,0.96 -1.38667,1.173333 -0.42667,0.32 -0.74667,0.426667 -1.06667,0.426667 -0.32,0 -0.53333,-0.213333 -0.74666,-0.533333 -0.10667,-0.213334 -0.21334,-0.533334 -0.21334,-0.853334 0,-1.066666 0.64,-2.56 1.92,-4.48 1.06667,-1.706666 2.02667,-2.56 2.56,-2.56 0.10667,0 0.21334,0.106667 0.42667,0.213334 0.10667,0.106666 0.21333,0.213333 0.21333,0.426666 0,0.213334 -0.21333,0.533334 -0.53333,0.853334 -0.74667,0.746666 -1.6,1.706666 -2.13333,2.666666 -0.53334,0.853334 -0.74667,1.493334 -0.74667,1.706667 0,0.213333 0.10667,0.32 0.21333,0.32 0.53334,0 1.92,-1.173333 3.73334,-3.733333 0.64,-0.746667 0.96,-1.386667 1.06666,-1.493334 0.21334,-0.213333 0.53334,-0.32 0.74667,-0.32 0.21333,0 0.32,0 0.42667,0.106667 0.10666,0.106667 0.10666,0.213333 0.10666,0.32 0,0.106667 -0.21333,0.533333 -0.64,1.493333 -1.06666,1.92 -1.6,3.093334 -1.6,3.733334 0,0.213333 0.10667,0.32 0.32,0.32 0.32,0 0.85334,-0.426667 1.49334,-1.173334 0.53333,-0.746666 1.06666,-1.813333 1.70666,-2.88 C 232.10667,42.24 232.32,41.6 232.42667,40.746667 c 0.21333,-0.96 0.53333,-1.493334 1.17333,-1.493334 0.32,0 0.42667,0.213334 0.42667,0.533334 0,1.386666 -0.64,2.986666 -2.13334,5.226666 -1.49333,2.346667 -2.77333,3.52 -3.73333,3.52 -0.74667,0 -1.06667,-0.426666 -1.06667,-1.493333 0.10667,-0.213333 0.42667,-1.173333 0.85334,-2.346667 z"
           style="fill:#d65649;fill-opacity:1;stroke-width:1.06666672" />
        <path
           id="path4600"
           inkscape:connector-curvature="0"
           class="st3"
           d="m 243.84,46.4 c -0.32,0.533333 -0.64,0.96 -0.96,1.493333 C 242.24,48.64 241.70667,48.96 241.06667,48.96 c -0.64,0 -0.85334,-0.213333 -1.17334,-0.746667 -0.21333,-0.32 -0.32,-0.64 -0.32,-1.066666 0,-1.066667 0.32,-2.346667 0.96,-3.52 0.74667,-1.493334 1.70667,-2.56 2.77334,-3.306667 0.64,-0.533333 1.38666,-0.746667 2.02666,-0.746667 0.42667,0 0.74667,0.106667 0.96,0.32 0.21334,0.213334 0.32,0.426667 0.32,0.746667 0,0.213333 -0.10666,0.533333 -0.21333,0.853333 0.10667,0.213334 0.21333,0.32 0.21333,0.533334 0,0.213333 -0.10666,0.533333 -0.42666,0.96 -0.32,0.426666 -0.53334,1.066666 -0.85334,1.92 -0.32,0.853333 -0.42666,1.6 -0.42666,2.026666 0,0.426667 0.10666,0.746667 0.32,0.96 0.10666,0.106667 0.21333,0.213334 0.53333,0.32 0.21333,0.106667 0.32,0.32 0.32,0.64 0,0.213334 -0.10667,0.32 -0.21333,0.426667 -0.10667,0.106667 -0.32,0.213333 -0.53334,0.213333 -0.53333,0 -0.96,-0.213333 -1.38666,-0.64 C 243.62667,48.533333 243.52,48 243.52,47.36 c 0.32,-0.213333 0.32,-0.533333 0.32,-0.96 z m 1.92,-4.8 c -0.10667,-0.213333 -0.21333,-0.32 -0.32,-0.426667 -0.10667,-0.106666 -0.32,-0.106666 -0.42667,-0.106666 -0.74666,0 -1.6,0.64 -2.45333,2.026666 -0.96,1.493334 -1.49333,2.666667 -1.49333,3.626667 0,0.213333 0,0.426667 0.10666,0.533333 0.10667,0.106667 0.21334,0.213334 0.42667,0.213334 0.42667,0 0.96,-0.426667 1.70667,-1.493334 0.32,-0.533333 0.74666,-1.386666 1.38666,-2.453333 0.32,-0.64 0.53334,-1.066667 0.74667,-1.386667 0,-0.213333 0.10667,-0.426666 0.32,-0.533333 z"
           style="fill:#d65649;fill-opacity:1;stroke-width:1.06666672" />
        <path
           id="path4602"
           inkscape:connector-curvature="0"
           class="st3"
           d="m 256.21333,43.946667 c -0.32,0.746666 -0.53333,1.386666 -0.64,1.92 -0.10666,0.426666 -0.21333,0.746666 -0.21333,0.96 0,0.213333 0.10667,0.32 0.32,0.32 0.32,0 0.74667,-0.32 1.38667,-0.96 0.21333,-0.32 0.64,-0.853334 1.17333,-1.813334 0.21333,-0.32 0.42667,-0.426666 0.64,-0.426666 0.21333,0 0.32,0.106666 0.32,0.32 0,0.426666 -0.42667,1.173333 -1.49333,2.56 -0.96,1.386666 -1.92,2.026666 -2.77334,2.026666 -0.32,0 -0.64,-0.106666 -0.85333,-0.426666 C 253.97333,48.213333 253.86667,48 253.86667,47.68 c 0,-0.533333 0.10666,-1.386667 0.42666,-2.24 0.32,-0.96 0.74667,-2.133333 1.49334,-3.52 1.70666,-3.52 3.41333,-6.506667 5.12,-8.64 1.49333,-1.92 2.56,-2.773333 3.41333,-2.773333 0.32,0 0.53333,0.106666 0.64,0.32 0.21333,0.213333 0.32,0.426666 0.32,0.746666 0,1.386667 -1.17333,3.626667 -3.62667,6.826667 -1.06666,1.493333 -2.45333,2.773333 -3.94666,4.266667 -0.21334,0.213333 -0.85334,0.746666 -1.49334,1.28 z M 257.17333,41.6 C 259.2,39.786667 261.12,37.653333 262.61333,34.986667 263.36,33.6 263.78667,32.64 263.78667,32.213333 c 0,-0.213333 -0.10667,-0.32 -0.32,-0.32 -0.53334,0 -1.6,1.066667 -2.88,3.2 C 259.52,36.906667 258.34667,39.04 257.17333,41.6 Z"
           style="fill:#d65649;fill-opacity:1;stroke-width:1.06666672" />
        <path
           id="path4604"
           inkscape:connector-curvature="0"
           class="st3"
           d="m 264.10667,40.106667 c 0.10666,0 0.32,0.106666 0.42666,0.213333 0.10667,0.106667 0.10667,0.213333 0.10667,0.32 0,0.213333 -0.10667,0.426667 -0.42667,0.853333 -0.96,1.6 -1.81333,2.88 -2.24,3.946667 -0.42666,0.96 -0.85333,2.133333 -1.17333,3.2 -0.10667,0.426667 -0.42667,0.746667 -0.74667,0.746667 -0.21333,0 -0.32,-0.106667 -0.42666,-0.213334 C 259.52,49.066667 259.52,48.96 259.52,48.746667 c 0,-0.32 0.32,-1.173334 0.85333,-2.88 C 260.8,44.48 261.76,43.093333 262.72,41.493333 c 0.32,-0.533333 0.64,-0.853333 0.74667,-0.96 0.32,-0.32 0.42666,-0.426666 0.64,-0.426666 z M 266.88,34.56 c 0.42667,0 0.64,0.213333 0.64,0.64 0,0.426667 -0.21333,0.853333 -0.64,1.386667 -0.42667,0.533333 -0.74667,0.64 -1.17333,0.64 -0.21334,0 -0.32,-0.106667 -0.42667,-0.213334 -0.10667,-0.106666 -0.21333,-0.32 -0.21333,-0.426666 0,-0.426667 0.21333,-0.96 0.74666,-1.493334 C 266.24,34.88 266.56,34.56 266.88,34.56 Z"
           style="fill:#d65649;fill-opacity:1;stroke-width:1.06666672" />
        <path
           id="path4606"
           inkscape:connector-curvature="0"
           class="st3"
           d="m 268.48,41.173333 c 0.74667,-0.64 1.6,-0.96 2.24,-0.96 0.42667,0 0.74667,0.213334 0.96,0.533334 0.21333,0.32 0.32,0.64 0.32,0.96 0,0.746666 -0.21333,1.706666 -0.74667,2.773333 -0.53333,1.173333 -1.38666,2.346667 -2.45333,3.306667 -0.85333,0.853333 -1.70667,1.386666 -2.45333,1.386666 -0.32,0 -0.53334,0 -0.74667,-0.106666 C 265.38667,48.96 265.17333,48.853333 264.96,48.64 c -0.10667,0.106667 -0.10667,0.213333 -0.10667,0.213333 -0.10666,0.32 -0.32,0.533334 -0.32,0.64 C 264.42667,49.6 264.32,49.6 264.21333,49.6 264,49.6 263.89333,49.493333 263.78667,49.28 263.68,49.173333 263.68,48.96 263.68,48.853333 c 0,-0.213333 0.53333,-1.706666 1.70667,-4.16 1.6,-3.413333 3.41333,-6.933333 5.44,-10.346666 0.85333,-1.493334 1.38666,-2.24 1.6,-2.453334 0.21333,-0.32 0.42666,-0.426666 0.53333,-0.426666 0.21333,0 0.42667,0.106666 0.53333,0.32 0.10667,0.106666 0.10667,0.32 0.10667,0.426666 0,0.213334 -0.10667,0.426667 -0.32,0.746667 0,0.106667 -0.32,0.533333 -0.85333,1.6 -1.81334,2.453333 -3.09334,4.8 -3.94667,6.613333 z M 265.6,47.04 c 0.10667,0.213333 0.32,0.32 0.42667,0.426667 0.10666,0.106666 0.32,0.106666 0.42666,0.106666 0.85334,0 1.81334,-0.746666 2.66667,-2.24 0.42667,-0.64 0.74667,-1.386666 0.96,-2.026666 0.21333,-0.533334 0.32,-0.96 0.32,-1.386667 0,-0.213333 0,-0.32 -0.10667,-0.426667 -0.10666,-0.106666 -0.21333,-0.106666 -0.42666,-0.106666 -0.42667,0 -0.96,0.32 -1.70667,0.853333 -0.64,0.533333 -1.17333,1.493333 -1.92,2.666667 -0.32,0.533333 -0.53333,1.066666 -0.74667,1.6 C 265.70667,46.933333 265.6,47.04 265.6,47.04 Z"
           style="fill:#d65649;fill-opacity:1;stroke-width:1.06666672" />
        <path
           id="path4608"
           inkscape:connector-curvature="0"
           class="st3"
           d="m 274.98667,44.053333 c 0.96,-0.96 2.13333,-2.026666 3.30666,-2.986666 0.42667,-0.32 0.85334,-0.64 1.49334,-0.96 C 280,40 280.21333,39.893333 280.21333,39.893333 c 0.10667,0 0.32,0.106667 0.42667,0.32 0.10667,0.106667 0.10667,0.213334 0.10667,0.32 0,0.213334 -0.21334,0.426667 -0.53334,0.64 C 279.25333,41.92 278.72,42.56 278.72,42.986667 c 0,0.213333 0.10667,0.32 0.32,0.32 0.42667,0 1.06667,-0.32 2.24,-0.96 0.21333,-0.106667 0.32,-0.213334 0.42667,-0.213334 0.10666,0 0.10666,0 0.21333,0.106667 0.10667,0.106667 0.10667,0.213333 0.10667,0.32 0,0.32 -0.42667,0.746667 -1.17334,1.386667 -0.85333,0.64 -1.70666,0.96 -2.45333,0.96 -0.32,0 -0.53333,-0.106667 -0.85333,-0.213334 -0.21334,-0.106666 -0.32,-0.32 -0.32,-0.746666 0,-0.213334 0.10666,-0.533334 0.32,-0.853334 C 276.8,43.626667 275.84,44.586667 274.77333,45.866667 274.24,46.613333 273.6,47.68 272.96,48.853333 c -0.21333,0.426667 -0.53333,0.64 -0.85333,0.64 -0.32,0 -0.53334,-0.213333 -0.53334,-0.533333 0,-0.32 0.32,-1.173333 0.85334,-2.666667 C 273.28,44.16 274.13333,42.56 275.09333,41.28 c 0.53334,-0.746667 0.96,-1.066667 1.49334,-1.066667 0.10666,0 0.21333,0 0.32,0.106667 0.10666,0.106667 0.21333,0.213333 0.21333,0.32 0,0.106667 -0.10667,0.32 -0.32,0.64 0,0 -0.32,0.32 -0.74667,0.96 -0.42666,0.64 -0.74666,1.173333 -1.06666,1.813333 z"
           style="fill:#d65649;fill-opacity:1;stroke-width:1.06666672" />
        <path
           id="path4610"
           inkscape:connector-curvature="0"
           class="st3"
           d="m 286.18667,46.4 c -0.32,0.533333 -0.64,0.96 -0.96,1.493333 C 284.58667,48.64 284.05333,48.96 283.41333,48.96 282.88,48.96 282.56,48.746667 282.24,48.213333 c -0.21333,-0.32 -0.32,-0.64 -0.32,-1.066666 0,-1.066667 0.32,-2.346667 0.96,-3.52 0.74667,-1.493334 1.70667,-2.56 2.77333,-3.306667 0.64,-0.533333 1.38667,-0.746667 2.02667,-0.746667 0.42667,0 0.74667,0.106667 0.96,0.32 0.21333,0.213334 0.32,0.426667 0.32,0.746667 0,0.213333 -0.10667,0.533333 -0.21333,0.853333 0.10666,0.213334 0.21333,0.32 0.21333,0.533334 0,0.213333 -0.10667,0.533333 -0.42667,0.96 -0.32,0.426666 -0.53333,1.066666 -0.85333,1.92 -0.32,0.853333 -0.42667,1.6 -0.42667,2.026666 0,0.426667 0.10667,0.746667 0.32,0.96 0.10667,0.106667 0.21334,0.213334 0.53334,0.32 0.21333,0.106667 0.32,0.32 0.32,0.64 0,0.213334 -0.10667,0.32 -0.21334,0.426667 -0.10666,0.106667 -0.32,0.213333 -0.53333,0.213333 -0.53333,0 -0.96,-0.213333 -1.38667,-0.64 -0.32,-0.32 -0.42666,-0.853333 -0.42666,-1.493333 0.21333,-0.213333 0.21333,-0.533333 0.32,-0.96 z M 288,41.6 c -0.10667,-0.213333 -0.21333,-0.32 -0.32,-0.426667 -0.10667,-0.106666 -0.32,-0.106666 -0.42667,-0.106666 -0.74666,0 -1.6,0.64 -2.45333,2.026666 -0.96,1.493334 -1.49333,2.666667 -1.49333,3.626667 0,0.213333 0,0.426667 0.10666,0.533333 0.10667,0.106667 0.21334,0.213334 0.42667,0.213334 0.42667,0 0.96,-0.426667 1.70667,-1.493334 0.32,-0.533333 0.74666,-1.386666 1.38666,-2.453333 0.32,-0.64 0.53334,-1.066667 0.74667,-1.386667 C 287.57333,41.92 287.68,41.706667 288,41.6 Z"
           style="fill:#d65649;fill-opacity:1;stroke-width:1.06666672" />
        <path
           id="path4612"
           inkscape:connector-curvature="0"
           class="st3"
           d="m 293.01333,44.053333 c 0.96,-0.96 2.13334,-2.026666 3.30667,-2.986666 0.42667,-0.32 0.85333,-0.64 1.49333,-0.96 C 298.02667,40 298.24,39.893333 298.24,39.893333 c 0.10667,0 0.32,0.106667 0.42667,0.32 0.10666,0.106667 0.10666,0.213334 0.10666,0.32 0,0.213334 -0.21333,0.426667 -0.53333,0.64 -0.96,0.746667 -1.49333,1.386667 -1.49333,1.813334 0,0.213333 0.10666,0.32 0.32,0.32 0.42666,0 1.06666,-0.32 2.24,-0.96 0.21333,-0.106667 0.32,-0.213334 0.42666,-0.213334 0.10667,0 0.10667,0 0.21334,0.106667 0.10666,0.106667 0.10666,0.213333 0.10666,0.32 0,0.32 -0.42666,0.746667 -1.17333,1.386667 -0.85333,0.64 -1.70667,0.96 -2.45333,0.96 -0.32,0 -0.53334,-0.106667 -0.85334,-0.213334 -0.21333,-0.106666 -0.32,-0.32 -0.32,-0.746666 0,-0.213334 0.10667,-0.533334 0.32,-0.853334 -0.74666,0.533334 -1.70666,1.493334 -2.77333,2.773334 -0.53333,0.746666 -1.17333,1.813333 -1.81333,2.986666 -0.21334,0.426667 -0.53334,0.64 -0.85334,0.64 -0.32,0 -0.53333,-0.213333 -0.53333,-0.533333 0,-0.32 0.32,-1.173333 0.85333,-2.666667 C 291.30667,44.16 292.16,42.56 293.12,41.28 c 0.53333,-0.746667 0.96,-1.066667 1.49333,-1.066667 0.10667,0 0.21334,0 0.32,0.106667 0.10667,0.106667 0.21334,0.213333 0.21334,0.32 0,0.106667 -0.10667,0.32 -0.32,0.64 0,0 -0.32,0.32 -0.74667,0.96 -0.53333,0.64 -0.85333,1.173333 -1.06667,1.813333 z"
           style="fill:#d65649;fill-opacity:1;stroke-width:1.06666672" />
        <path
           id="path4614"
           inkscape:connector-curvature="0"
           class="st3"
           d="m 304.74667,44.693333 c -0.85334,0.96 -1.6,1.813334 -2.13334,2.346667 -0.96,0.96 -1.92,1.493333 -2.56,1.493333 -0.32,0 -0.53333,-0.106666 -0.74666,-0.32 C 299.2,48 299.09333,47.786667 299.09333,47.466667 c 0,-0.96 0.64,-2.453334 1.92,-4.266667 1.17334,-1.813333 2.24,-2.666667 2.77334,-2.666667 0.10666,0 0.32,0.106667 0.42666,0.213334 0.10667,0.106666 0.10667,0.213333 0.10667,0.32 0,0.213333 -0.10667,0.426666 -0.21333,0.533333 -0.10667,0.106667 -0.42667,0.533333 -0.96,1.066667 -0.53334,0.533333 -1.06667,1.173333 -1.6,1.92 -0.53334,0.746666 -0.74667,1.386666 -0.74667,1.706666 0,0.213334 0.10667,0.32 0.32,0.32 0.42667,0 1.06667,-0.533333 2.24,-1.6 0.64,-0.64 1.17333,-1.173333 1.6,-1.706666 0.10667,-0.106667 0.42667,-0.533334 0.96,-1.493334 0.53333,-0.746666 0.85333,-1.173333 0.96,-1.386666 0.32,-0.32 0.53333,-0.533334 0.74667,-0.533334 0.10666,0 0.32,0.106667 0.42666,0.213334 0.10667,0.106666 0.21334,0.213333 0.21334,0.426666 0,0.32 -0.21334,0.746667 -0.53334,1.493334 -0.42666,0.746666 -0.85333,1.6 -1.38666,2.24 -0.64,1.066666 -1.06667,2.133333 -1.49334,2.88 0.64,-0.32 1.17334,-0.746667 1.70667,-1.386667 0.85333,-0.853333 1.49333,-1.6 1.70667,-2.026667 C 308.48,43.306667 308.58667,43.2 308.8,43.2 c 0.21333,0 0.42667,0.106667 0.42667,0.426667 0,0.533333 -0.42667,1.386666 -1.38667,2.346666 -0.96,1.173334 -2.34667,2.24 -3.94667,3.093334 -0.74666,2.026666 -1.6,3.52 -2.34666,4.906666 -1.38667,2.453334 -2.77334,3.52 -4.26667,3.52 -0.53333,0 -1.06667,-0.213333 -1.49333,-0.64 -0.32,-0.32 -0.42667,-0.746666 -0.42667,-1.386666 0,-1.6 1.06667,-3.093334 3.2,-4.693334 0.64,-0.426666 1.6,-0.96 2.77333,-1.813333 0.42667,-0.32 0.85334,-0.533333 1.17334,-0.64 0.21333,-0.426667 0.42666,-0.96 0.74666,-1.813333 C 304.10667,46.08 304.42667,45.44 304.74667,44.693333 Z M 302.08,50.56 c -0.96,0.533333 -2.13333,1.386667 -3.2,2.24 -1.06667,0.96 -1.70667,1.92 -1.70667,2.773333 0,0.213334 0,0.32 0.10667,0.426667 0.10667,0.213333 0.32,0.213333 0.53333,0.213333 0.74667,0 1.6,-0.746666 2.45334,-2.346666 C 300.37333,53.653333 300.8,52.8 301.44,51.306667 301.76,51.2 301.86667,50.88 302.08,50.56 Z"
           style="fill:#d65649;fill-opacity:1;stroke-width:1.06666672" />
      </g>
    </g>
    <path
       inkscape:connector-curvature="0"
       style="line-height:normal;font-family:'Bitstream Vera Sans';-inkscape-font-specification:'Bitstream Vera Sans';text-indent:0;text-align:start;text-transform:none;overflow:visible;fill:#4d4d4d;fill-opacity:1;stroke-width:0.25753784;enable-background:accumulate"
       d="m 834.12546,1595.9209 c -1.41929,0 -2.57538,1.1561 -2.57538,2.5754 0,1.4193 1.15609,2.5754 2.57538,2.5754 1.41929,0 2.57538,-1.1561 2.57538,-2.5754 0,-1.4193 -1.15609,-2.5754 -2.57538,-2.5754 z m 0,0.5151 c 1.14092,0 2.0603,0.9194 2.0603,2.0603 0,1.1409 -0.91938,2.0603 -2.0603,2.0603 -1.14093,0 -2.0603,-0.9194 -2.0603,-2.0603 0,-1.1409 0.91937,-2.0603 2.0603,-2.0603 z m -0.90138,0.7726 v 2.5754 h 0.53922 v -0.9255 h 0.41045 l 0.49093,0.9255 h 0.57141 v -0.024 l -0.57141,-1.0543 c 0.0515,-0.026 0.1336,-0.053 0.1851,-0.1047 0.0773,-0.052 0.10141,-0.1014 0.15292,-0.1529 0.0515,-0.077 0.0789,-0.132 0.10462,-0.2092 0.0258,-0.077 0.0241,-0.1546 0.0241,-0.2576 0,-0.1287 -0.029,-0.235 -0.0805,-0.338 -0.0258,-0.077 -0.0998,-0.1481 -0.17706,-0.2253 -0.10301,-0.077 -0.1851,-0.1352 -0.31387,-0.161 -0.10301,-0.026 -0.23178,-0.048 -0.38631,-0.048 z m 0.56336,0.4668 h 0.4185 c 0.12877,0 0.22856,0.019 0.30583,0.097 0.0773,0.077 0.10462,0.1609 0.10462,0.2897 0,0.052 0.002,0.1014 -0.0241,0.1529 -0.0258,0.052 -0.0547,0.103 -0.0805,0.1288 -0.0258,0.026 -0.0773,0.047 -0.12877,0.072 -0.0515,0.026 -0.0998,0.032 -0.17706,0.032 h -0.4185 z"
       overflow="visible"
       id="path4624" />
    <path
       id="path4626"
       overflow="visible"
       d="m 848.06859,1691.1861 c -1.41929,0 -2.57538,1.1561 -2.57538,2.5754 0,1.4193 1.15609,2.5754 2.57538,2.5754 1.41929,0 2.57538,-1.1561 2.57538,-2.5754 0,-1.4193 -1.15609,-2.5754 -2.57538,-2.5754 z m 0,0.5151 c 1.14092,0 2.0603,0.9194 2.0603,2.0603 0,1.1409 -0.91938,2.0603 -2.0603,2.0603 -1.14093,0 -2.0603,-0.9194 -2.0603,-2.0603 0,-1.1409 0.91937,-2.0603 2.0603,-2.0603 z m -0.90138,0.7726 v 2.5754 h 0.53922 v -0.9255 h 0.41045 l 0.49093,0.9255 h 0.57141 v -0.024 l -0.57141,-1.0543 c 0.0515,-0.026 0.1336,-0.053 0.1851,-0.1047 0.0773,-0.052 0.10141,-0.1014 0.15292,-0.1529 0.0515,-0.077 0.0789,-0.132 0.10462,-0.2092 0.0258,-0.077 0.0241,-0.1546 0.0241,-0.2576 0,-0.1287 -0.029,-0.235 -0.0805,-0.338 -0.0258,-0.077 -0.0998,-0.1481 -0.17706,-0.2253 -0.10301,-0.077 -0.1851,-0.1352 -0.31387,-0.161 -0.10301,-0.026 -0.23178,-0.048 -0.38631,-0.048 z m 0.56336,0.4668 h 0.4185 c 0.12877,0 0.22856,0.019 0.30583,0.097 0.0773,0.077 0.10462,0.1609 0.10462,0.2897 0,0.052 0.002,0.1014 -0.0241,0.1529 -0.0258,0.052 -0.0547,0.103 -0.0805,0.1288 -0.0258,0.026 -0.0773,0.047 -0.12877,0.072 -0.0515,0.026 -0.0998,0.032 -0.17706,0.032 h -0.4185 z"
       style="line-height:normal;font-family:'Bitstream Vera Sans';-inkscape-font-specification:'Bitstream Vera Sans';text-indent:0;text-align:start;text-transform:none;overflow:visible;fill:#d65649;fill-opacity:1;stroke-width:0.25753784;enable-background:accumulate"
       inkscape:connector-curvature="0" />
    <path
       inkscape:connector-curvature="0"
       style="line-height:normal;font-family:'Bitstream Vera Sans';-inkscape-font-specification:'Bitstream Vera Sans';text-indent:0;text-align:start;text-transform:none;overflow:visible;fill:#d65649;fill-opacity:1;stroke-width:0.25753784;enable-background:accumulate"
       d="m 852.56859,1897.6861 c -1.41929,0 -2.57538,1.1561 -2.57538,2.5754 0,1.4193 1.15609,2.5754 2.57538,2.5754 1.41929,0 2.57538,-1.1561 2.57538,-2.5754 0,-1.4193 -1.15609,-2.5754 -2.57538,-2.5754 z m 0,0.5151 c 1.14092,0 2.0603,0.9194 2.0603,2.0603 0,1.1409 -0.91938,2.0603 -2.0603,2.0603 -1.14093,0 -2.0603,-0.9194 -2.0603,-2.0603 0,-1.1409 0.91937,-2.0603 2.0603,-2.0603 z m -0.90138,0.7726 v 2.5754 h 0.53922 v -0.9255 h 0.41045 l 0.49093,0.9255 h 0.57141 v -0.024 l -0.57141,-1.0543 c 0.0515,-0.026 0.1336,-0.053 0.1851,-0.1047 0.0773,-0.052 0.10141,-0.1014 0.15292,-0.1529 0.0515,-0.077 0.0789,-0.132 0.10462,-0.2092 0.0258,-0.077 0.0241,-0.1546 0.0241,-0.2576 0,-0.1287 -0.029,-0.235 -0.0805,-0.338 -0.0258,-0.077 -0.0998,-0.1481 -0.17706,-0.2253 -0.10301,-0.077 -0.1851,-0.1352 -0.31387,-0.161 -0.10301,-0.026 -0.23178,-0.048 -0.38631,-0.048 z m 0.56336,0.4668 h 0.4185 c 0.12877,0 0.22856,0.019 0.30583,0.097 0.0773,0.077 0.10462,0.1609 0.10462,0.2897 0,0.052 0.002,0.1014 -0.0241,0.1529 -0.0258,0.052 -0.0547,0.103 -0.0805,0.1288 -0.0258,0.026 -0.0773,0.047 -0.12877,0.072 -0.0515,0.026 -0.0998,0.032 -0.17706,0.032 h -0.4185 z"
       overflow="visible"
       id="path4632" />
  </g>
</svg>
