<svg width="234" height="139" viewBox="0 0 234 139" fill="none" xmlns="http://www.w3.org/2000/svg">
<g clip-path="url(#clip0)">
<path d="M166.77 12.2767C165.864 12.2767 165.13 13.0125 165.13 13.9201V65.0834C165.13 65.991 165.864 66.7267 166.77 66.7268H196.606C197.511 66.7268 198.246 65.991 198.246 65.0834V13.9201C198.246 13.0125 197.511 12.2768 196.606 12.2767H166.77ZM168.41 16.8124H194.966V62.8854H168.41V16.8124Z" fill="#1D94A4"/>
<path d="M151.221 89.5362C151.221 88.5213 152.042 87.6986 153.055 87.6985H220.3C221.313 87.6986 222.134 88.5213 222.134 89.5362V136.523C222.134 137.538 221.313 138.36 220.3 138.36H153.055C152.042 138.36 151.221 137.538 151.221 136.523V89.5362ZM154.592 91.3739V134.685H214.652V91.3739H154.592Z" fill="#1D94A4"/>
<path d="M217.919 118.726V106.014C217.919 105.514 218.324 105.108 218.825 105.108C219.325 105.108 219.73 105.514 219.73 106.014V118.726C219.73 119.227 219.325 119.632 218.825 119.632C218.324 119.632 217.919 119.227 217.919 118.726Z" fill="white"/>
<path d="M175.763 14.5054C175.763 14.1703 176.035 13.8987 176.37 13.8987H187.006C187.341 13.8987 187.613 14.1703 187.613 14.5054C187.613 14.8405 187.341 15.1122 187.006 15.1122H176.37C176.035 15.1122 175.763 14.8405 175.763 14.5054Z" fill="white"/>
<path d="M72.4442 91.1592L71.9168 90.3096L69.9764 91.5141L72.1776 92.1231L72.4442 91.1592ZM153.092 41.9302C153.218 41.3925 152.884 40.8545 152.346 40.7287L143.583 38.6781C143.045 38.5522 142.507 38.8862 142.381 39.4239C142.255 39.9617 142.589 40.4996 143.127 40.6255L150.917 42.4482L149.094 50.2378C148.968 50.7756 149.302 51.3135 149.84 51.4394C150.377 51.5652 150.915 51.2313 151.041 50.6935L153.092 41.9302ZM140.628 110.754C141.108 110.482 141.277 109.872 141.005 109.391L136.568 101.561C136.296 101.08 135.685 100.911 135.205 101.184C134.724 101.456 134.556 102.066 134.828 102.547L138.772 109.507L131.811 113.451C131.331 113.723 131.162 114.333 131.434 114.814C131.707 115.294 132.317 115.463 132.797 115.191L140.628 110.754ZM72.9716 92.0089L152.645 42.552L151.591 40.8528L71.9168 90.3096L72.9716 92.0089ZM72.1776 92.1231L139.868 110.848L140.401 108.92L72.7108 90.1954L72.1776 92.1231Z" fill="#575757"/>
<path d="M71.4896 111.315C69.4634 108.155 67.3231 105.051 65.2969 101.912C65.0497 101.46 64.6734 101.088 64.2136 100.841C63.7539 100.594 63.2306 100.482 62.7071 100.52C45.1658 100.548 27.6246 100.548 10.0833 100.52C9.55981 100.482 9.03645 100.594 8.57673 100.841C8.11701 101.088 7.74069 101.46 7.49347 101.912C5.48869 105.009 3.4411 108.079 1.36497 111.127C1.02914 111.523 0.812067 112.001 0.737776 112.51C0.663484 113.019 0.734871 113.537 0.944034 114.009C1.44345 115.018 2.49221 114.823 3.39829 114.823H69.6703C70.0312 114.826 70.3917 114.798 70.7476 114.74C70.9306 114.73 71.1096 114.685 71.2742 114.606C71.4387 114.527 71.5853 114.417 71.7052 114.282C71.825 114.147 71.9158 113.99 71.9719 113.819C72.028 113.649 72.0484 113.47 72.0318 113.292C72.0118 112.601 71.8261 111.924 71.4896 111.315ZM28.2976 111.127C28.3832 110.431 28.4403 109.735 28.583 109.039C28.6512 108.943 28.7416 108.864 28.847 108.808C28.9524 108.753 29.0696 108.722 29.1894 108.719C34.0028 108.719 38.8161 108.719 43.6295 108.719C43.7593 108.736 43.8827 108.785 43.9885 108.86C44.0943 108.935 44.1794 109.035 44.236 109.15C44.3592 109.797 44.4473 110.45 44.4999 111.106H28.2976V111.127Z" fill="#1D94A4"/>
<path d="M10.4614 99.4409H62.0436C63.2351 99.4409 63.5347 99.1694 63.5347 98.0488C63.5347 87.9425 63.5347 77.8363 63.5347 67.73C63.5496 67.1151 63.4234 66.5048 63.1654 65.9436C62.9074 65.3824 62.5242 64.8846 62.0436 64.4865C61.0594 63.7613 59.8329 63.4212 58.6048 63.5329C45.739 63.5329 32.8732 63.5329 20.0073 63.5329C17.7671 63.5329 15.5198 63.5329 13.2795 63.5329C10.5256 63.5677 8.8633 65.2243 8.8633 67.9109C8.8633 77.8873 8.8633 87.8637 8.8633 97.84C8.87043 99.2042 9.11301 99.4409 10.4614 99.4409ZM14.0287 67.2427H58.348C59.5679 67.2427 59.7249 67.4098 59.7178 68.5722C59.7178 75.3282 59.7035 82.0843 59.675 88.8404C59.675 90.7266 59.675 92.6198 59.7106 94.5061C59.7106 95.6406 59.5822 95.7659 58.3836 95.7659H14.0786C12.7516 95.7659 12.6517 95.6754 12.6517 94.3738C12.6517 85.7895 12.6517 77.2052 12.6517 68.6209C12.6588 67.3054 12.7088 67.2427 14.0358 67.2427H14.0287Z" fill="#1D94A4"/>
<path d="M60.1687 54.868C65.7023 53.7417 71.5402 57.2586 72.6688 62.8029C72.8329 63.6094 74.4702 63.1095 74.3059 62.3021C73.041 56.0881 66.2325 51.6752 59.9919 52.9455C59.187 53.1094 59.3629 55.032 60.1687 54.868Z" fill="#D65649"/>
<path d="M60.5962 58.2783C64.6624 57.4506 68.6452 60.0918 69.4745 64.166C69.6387 64.9725 71.4392 64.4905 71.2748 63.6831C70.3056 58.9213 65.1152 55.4999 60.362 56.4674C59.557 56.6312 59.7904 58.4423 60.5962 58.2783Z" fill="#D65649"/>
<path d="M60.8542 61.7618C63.4531 61.2328 65.6973 62.6317 66.2273 65.2357C66.3915 66.0423 68.1266 65.5208 67.9622 64.7134C67.2932 61.4263 63.8746 59.2266 60.5935 59.8944C59.7885 60.0583 60.0484 61.9258 60.8542 61.7618Z" fill="#D65649"/>
<path d="M195.169 3.868C200.702 2.74165 206.54 6.25856 207.669 11.8029C207.833 12.6094 209.47 12.1095 209.306 11.3021C208.041 5.0881 201.233 0.67525 194.992 1.94552C194.187 2.10936 194.363 4.03202 195.169 3.868Z" fill="#D65649"/>
<path d="M195.596 7.27826C199.662 6.45058 203.645 9.09182 204.475 13.166C204.639 13.9725 206.439 13.4905 206.275 12.6831C205.306 7.92127 200.115 4.49986 195.362 5.46738C194.557 5.63122 194.79 7.44228 195.596 7.27826Z" fill="#D65649"/>
<path d="M195.854 10.7618C198.453 10.2328 200.697 11.6317 201.227 14.2357C201.391 15.0423 203.127 14.5208 202.962 13.7134C202.293 10.4263 198.875 8.22655 195.594 8.8944C194.789 9.05825 195.048 10.9258 195.854 10.7618Z" fill="#D65649"/>
<path d="M218.147 79.7403C223.681 78.614 229.519 82.1309 230.647 87.6752C230.812 88.4818 232.449 87.9818 232.285 87.1744C231.02 80.9604 224.211 76.5476 217.971 77.8178C217.166 77.9817 217.342 79.9043 218.147 79.7403Z" fill="#D65649"/>
<path d="M218.575 83.1506C222.641 82.3229 226.624 84.9641 227.453 89.0383C227.617 89.8448 229.418 89.3628 229.253 88.5554C228.284 83.7936 223.094 80.3722 218.341 81.3397C217.536 81.5035 217.769 83.3146 218.575 83.1506Z" fill="#D65649"/>
<path d="M218.833 86.6341C221.432 86.1051 223.676 87.504 224.206 90.108C224.37 90.9146 226.105 90.3931 225.941 89.5857C225.272 86.2987 221.853 84.0989 218.572 84.7667C217.767 84.9306 218.027 86.7982 218.833 86.6341Z" fill="#D65649"/>
</g>
<defs>
<clipPath id="clip0">
<rect width="233.737" height="138.496" fill="white" transform="translate(0 0.50415)"/>
</clipPath>
</defs>
</svg>
