<svg width="187" height="68" viewBox="0 0 187 68" fill="none" xmlns="http://www.w3.org/2000/svg">
<g clip-path="url(#clip0_1306_5697)">
<g clip-path="url(#clip1_1306_5697)">
<path d="M72.1359 57.815C70.1097 54.6551 67.9693 51.5508 65.9431 48.4117C65.6959 47.96 65.3196 47.588 64.8599 47.3409C64.4002 47.0938 63.8768 46.9822 63.3533 47.0197C45.8121 47.0475 28.2708 47.0475 10.7295 47.0197C10.206 46.9822 9.68269 47.0938 9.22297 47.3409C8.76325 47.588 8.38694 47.96 8.13971 48.4117C6.13493 51.509 4.08734 54.5785 2.01121 57.6271C1.67538 58.0227 1.45831 58.5013 1.38402 59.0099C1.30972 59.5185 1.38111 60.0372 1.59027 60.5086C2.08969 61.5179 3.13845 61.323 4.04453 61.323H70.3166C70.6775 61.3257 71.0379 61.2978 71.3939 61.2394C71.5768 61.2299 71.7559 61.1844 71.9204 61.1058C72.0849 61.0272 72.2315 60.917 72.3514 60.7819C72.4713 60.6467 72.562 60.4894 72.6181 60.3193C72.6743 60.1491 72.6946 59.9697 72.6781 59.7917C72.6581 59.1005 72.4724 58.4236 72.1359 57.815ZM28.9438 57.6271C29.0294 56.9311 29.0865 56.235 29.2292 55.539C29.2974 55.443 29.3879 55.3639 29.4932 55.3083C29.5986 55.2527 29.7159 55.222 29.8356 55.2188C34.649 55.2188 39.4624 55.2188 44.2758 55.2188C44.4056 55.2362 44.5289 55.2847 44.6347 55.3601C44.7406 55.4354 44.8256 55.5351 44.8822 55.6504C45.0054 56.2973 45.0936 56.9502 45.1462 57.6062H28.9438V57.6271Z" fill="#1D94A4"/>
<path d="M11.1077 45.9408H62.6898C63.8813 45.9408 64.181 45.6693 64.181 44.5487C64.181 34.4424 64.181 24.3361 64.181 14.2298C64.1958 13.615 64.0696 13.0047 63.8117 12.4435C63.5537 11.8823 63.1704 11.3845 62.6898 10.9864C61.7056 10.2612 60.4791 9.92108 59.251 10.0328C46.3852 10.0328 33.5194 10.0328 20.6536 10.0328C18.4134 10.0328 16.166 10.0328 13.9258 10.0328C11.1719 10.0676 9.50954 11.7242 9.50954 14.4108C9.50954 24.3872 9.50954 34.3635 9.50954 44.3399C9.51667 45.7041 9.75925 45.9408 11.1077 45.9408ZM14.6749 13.7426H58.9942C60.2142 13.7426 60.3711 13.9097 60.364 15.072C60.364 21.8281 60.3497 28.5842 60.3212 35.3403C60.3212 37.2265 60.3212 39.1197 60.3569 41.0059C60.3569 42.1405 60.2285 42.2658 59.0299 42.2658H14.7248C13.3978 42.2658 13.2979 42.1753 13.2979 40.8737C13.2979 32.2894 13.2979 23.7051 13.2979 15.1208C13.3051 13.8053 13.355 13.7426 14.682 13.7426H14.6749Z" fill="#1D94A4"/>
</g>
<path d="M111.35 29.7681C111.738 29.3744 111.732 28.7412 111.339 28.354L104.922 22.0429C104.529 21.6557 103.895 21.6609 103.508 22.0546C103.121 22.4484 103.126 23.0815 103.52 23.4688L109.223 29.0786L103.614 34.7821C103.226 35.1759 103.232 35.809 103.625 36.1963C104.019 36.5836 104.652 36.5783 105.039 36.1846L111.35 29.7681ZM72.4436 30.3833L110.646 30.0669L110.629 28.0669L72.427 28.3834L72.4436 30.3833Z" fill="#575757"/>
<path d="M123.5 15.3859C123.5 13.7921 124.798 12.5 126.4 12.5H177.388C178.989 12.5 180.288 13.7921 180.288 15.3859V42.4706C180.288 44.0645 178.989 45.3565 177.388 45.3565H126.4C124.798 45.3565 123.5 44.0645 123.5 42.4706V15.3859Z" fill="#1D94A4"/>
<rect x="128.856" y="15.3728" width="45.8024" height="27.0922" fill="white"/>
<path d="M131.807 25.2713V19.2565H133.915C134.645 19.2565 135.198 19.397 135.576 19.6779C135.953 19.956 136.142 20.365 136.142 20.9048C136.142 21.1995 136.066 21.4597 135.915 21.6856C135.763 21.9086 135.552 22.0725 135.282 22.1772C135.591 22.2543 135.833 22.4099 136.01 22.644C136.189 22.8781 136.278 23.1645 136.278 23.5032C136.278 24.0816 136.094 24.5195 135.725 24.8169C135.355 25.1143 134.829 25.2658 134.146 25.2713H131.807ZM133.047 22.6522V24.2757H134.109C134.401 24.2757 134.628 24.2069 134.791 24.0692C134.956 23.9287 135.039 23.736 135.039 23.4908C135.039 22.94 134.753 22.6605 134.183 22.6522H133.047ZM133.047 21.7765H133.964C134.59 21.7654 134.902 21.5162 134.902 21.0287C134.902 20.7561 134.822 20.5605 134.663 20.4421C134.506 20.3209 134.256 20.2604 133.915 20.2604H133.047V21.7765Z" fill="#1D94A4"/>
<path d="M138.394 25.2713H137.196V18.926H138.394V25.2713Z" fill="#1D94A4"/>
<path d="M139.196 22.9951C139.196 22.5517 139.281 22.1565 139.452 21.8095C139.623 21.4625 139.868 21.194 140.188 21.0039C140.51 20.8139 140.884 20.7189 141.308 20.7189C141.911 20.7189 142.403 20.9034 142.783 21.2725C143.166 21.6415 143.38 22.1427 143.424 22.7762L143.432 23.0819C143.432 23.7676 143.241 24.3184 142.858 24.7343C142.475 25.1474 141.961 25.3539 141.316 25.3539C140.671 25.3539 140.156 25.1474 139.771 24.7343C139.388 24.3212 139.196 23.7594 139.196 23.0488V22.9951ZM140.39 23.0819C140.39 23.506 140.47 23.831 140.63 24.0568C140.79 24.2799 141.019 24.3914 141.316 24.3914C141.605 24.3914 141.831 24.2813 141.994 24.0609C142.156 23.8379 142.238 23.4826 142.238 22.9951C142.238 22.5793 142.156 22.257 141.994 22.0284C141.831 21.7999 141.603 21.6856 141.308 21.6856C141.016 21.6856 140.79 21.7999 140.63 22.0284C140.47 22.2543 140.39 22.6054 140.39 23.0819Z" fill="#1D94A4"/>
<path d="M143.982 22.9951C143.982 22.5517 144.067 22.1565 144.238 21.8095C144.409 21.4625 144.654 21.194 144.974 21.0039C145.296 20.8139 145.669 20.7189 146.093 20.7189C146.697 20.7189 147.189 20.9034 147.569 21.2725C147.952 21.6415 148.165 22.1427 148.209 22.7762L148.218 23.0819C148.218 23.7676 148.026 24.3184 147.643 24.7343C147.26 25.1474 146.746 25.3539 146.102 25.3539C145.457 25.3539 144.942 25.1474 144.556 24.7343C144.173 24.3212 143.982 23.7594 143.982 23.0488V22.9951ZM145.176 23.0819C145.176 23.506 145.256 23.831 145.416 24.0568C145.576 24.2799 145.804 24.3914 146.102 24.3914C146.391 24.3914 146.617 24.2813 146.78 24.0609C146.942 23.8379 147.023 23.4826 147.023 22.9951C147.023 22.5793 146.942 22.257 146.78 22.0284C146.617 21.7999 146.388 21.6856 146.093 21.6856C145.801 21.6856 145.576 21.7999 145.416 22.0284C145.256 22.2543 145.176 22.6054 145.176 23.0819Z" fill="#1D94A4"/>
<path d="M150.073 20.8015L150.11 21.3014C150.427 20.9131 150.856 20.7189 151.396 20.7189C151.972 20.7189 152.367 20.9461 152.582 21.4005C152.896 20.9461 153.344 20.7189 153.925 20.7189C154.41 20.7189 154.771 20.8607 155.008 21.1444C155.245 21.4253 155.363 21.8494 155.363 22.4168V25.2713H154.165V22.4209C154.165 22.1675 154.115 21.983 154.016 21.8673C153.917 21.7489 153.742 21.6897 153.491 21.6897C153.133 21.6897 152.885 21.8605 152.747 22.202L152.751 25.2713H151.557V22.425C151.557 22.1662 151.506 21.9789 151.404 21.8632C151.302 21.7475 151.128 21.6897 150.883 21.6897C150.544 21.6897 150.299 21.8302 150.148 22.1111V25.2713H148.953V20.8015H150.073Z" fill="#1D94A4"/>
<path d="M157.603 23.1521V25.2713H156.363V19.2565H158.711C159.162 19.2565 159.559 19.3391 159.901 19.5044C160.245 19.6696 160.51 19.9051 160.694 20.2108C160.879 20.5137 160.971 20.8594 160.971 21.2477C160.971 21.837 160.769 22.3025 160.364 22.644C159.961 22.9827 159.403 23.1521 158.69 23.1521H157.603ZM157.603 22.1482H158.711C159.038 22.1482 159.288 22.0711 159.459 21.9169C159.632 21.7627 159.719 21.5424 159.719 21.2559C159.719 20.9613 159.632 20.723 159.459 20.5413C159.285 20.3595 159.045 20.2659 158.739 20.2604H157.603V22.1482Z" fill="#1D94A4"/>
<path d="M166.381 19.2565V23.2182C166.381 23.8764 166.174 24.3969 165.761 24.7797C165.35 25.1625 164.788 25.3539 164.075 25.3539C163.372 25.3539 162.814 25.1681 162.401 24.7963C161.988 24.4245 161.777 23.9136 161.769 23.2636V19.2565H163.008V23.2265C163.008 23.6203 163.102 23.9081 163.29 24.0898C163.48 24.2689 163.741 24.3584 164.075 24.3584C164.772 24.3584 165.126 23.9921 165.137 23.2595V19.2565H166.381Z" fill="#1D94A4"/>
<path d="M167.397 25.2713V19.2565H169.505C170.235 19.2565 170.789 19.397 171.166 19.6779C171.544 19.956 171.733 20.365 171.733 20.9048C171.733 21.1995 171.657 21.4597 171.505 21.6856C171.354 21.9086 171.143 22.0725 170.873 22.1772C171.182 22.2543 171.424 22.4099 171.6 22.644C171.779 22.8781 171.869 23.1645 171.869 23.5032C171.869 24.0816 171.684 24.5195 171.315 24.8169C170.946 25.1143 170.42 25.2658 169.736 25.2713H167.397ZM168.637 22.6522V24.2757H169.699C169.991 24.2757 170.219 24.2069 170.381 24.0692C170.546 23.9287 170.629 23.736 170.629 23.4908C170.629 22.94 170.344 22.6605 169.774 22.6522H168.637ZM168.637 21.7765H169.555C170.18 21.7654 170.493 21.5162 170.493 21.0287C170.493 20.7561 170.413 20.5605 170.253 20.4421C170.096 20.3209 169.847 20.2604 169.505 20.2604H168.637V21.7765Z" fill="#1D94A4"/>
<path fill-rule="evenodd" clip-rule="evenodd" d="M146.085 29.0933C146.3 28.9503 146.566 28.8972 146.822 28.9458C148.068 29.1823 149.809 29.83 150.752 30.4874C150.757 30.4912 150.762 30.4949 150.768 30.4988C150.8 30.5223 150.834 30.5468 150.87 30.5725C151.315 30.8922 152.016 31.3965 152.57 32.3424C153.165 33.3597 153.545 34.7954 153.506 36.9433L151.557 36.9095C151.593 34.9856 151.248 33.9127 150.875 33.2758C150.53 32.6853 150.122 32.3904 149.69 32.0775C149.662 32.0576 149.635 32.0376 149.607 32.0175C149.14 31.6946 148.278 31.3195 147.442 31.0572C147.222 32.9873 147.381 34.9664 147.985 36.4866C148.337 37.3728 148.821 38.0566 149.42 38.5055C150.004 38.9431 150.753 39.2013 151.743 39.1572C153.012 39.1005 153.854 38.8287 154.428 38.449C154.99 38.0776 155.379 37.5474 155.642 36.8114C155.911 36.057 156.04 35.1081 156.072 33.9501C156.096 33.0713 156.065 32.1074 156.011 31.0588C155.157 31.1955 154.575 31.3802 154.203 31.5339C153.951 31.6378 153.794 31.7282 153.711 31.7815C153.67 31.8079 153.646 31.8255 153.639 31.8315C153.61 31.857 153.579 31.8809 153.548 31.9029L153.373 32.0241L152.24 30.4859L152.375 30.3925C152.387 30.3824 152.4 30.3714 152.415 30.3598C152.47 30.3168 152.543 30.2643 152.635 30.205C152.82 30.0864 153.082 29.942 153.44 29.7944C154.155 29.4992 155.243 29.1942 156.841 29.0533C157.104 29.0301 157.366 29.1116 157.566 29.2791C157.766 29.4467 157.887 29.6859 157.902 29.9419C157.985 31.3823 158.054 32.7574 158.02 34.0008C157.986 35.2406 157.848 36.411 157.483 37.4305C157.112 38.4684 156.5 39.3665 155.526 40.011C154.564 40.6471 153.336 40.9786 151.832 41.0457C150.409 41.1092 149.199 40.7289 148.228 40.0015C147.273 39.2855 146.608 38.2779 146.166 37.1662C145.29 34.9595 145.221 32.1626 145.676 29.7062C145.722 29.457 145.869 29.2362 146.085 29.0933Z" fill="#1D94A4"/>
<rect x="125.169" y="14.4497" width="3.70748" height="28.957" fill="#1D94A4"/>
<rect x="174.658" y="14.4497" width="3.70748" height="28.957" fill="#1D94A4"/>
<rect x="125.169" y="23.0867" width="1.85374" height="11.6833" fill="white"/>
<ellipse cx="176.438" cy="28.9284" rx="1.25504" ry="1.25455" fill="white"/>
<path d="M162.623 30.7431C162.623 30.7431 162.934 46.1759 162.898 48.1409C162.864 50.0164 168.268 57.6462 169.642 58.7155C169.749 58.7987 169.88 58.8224 170.015 58.8224H184.95C185.502 58.8224 185.95 58.3747 185.95 57.8224V28.7576C185.95 24.3579 184.342 20.3023 178.811 18.926V44.8458C178.811 45.5658 173.611 44.1867 171.124 43.8553C171.124 39.2567 171.939 34.4041 167.366 31.476C164.961 29.936 162.623 30.7431 162.623 30.7431Z" fill="#1D94A4"/>
<path d="M178.884 44.5969C179.665 43.5041 179.337 21.5403 179.713 21.4995C182.714 22.4134 184.002 25.5754 183.859 28.2509L183.656 56.6183C179.74 56.6183 171.546 56.7518 170.826 56.6183C170.147 56.4922 166.679 51.4224 165.305 48.4647C165.151 48.1332 165.078 47.7727 165.068 47.4073L164.685 33.2637C171.78 34.1483 168.013 44.8051 170.233 45.3326C172.453 45.8601 178.103 45.6898 178.884 44.5969Z" fill="white"/>
</g>
<defs>
<clipPath id="clip0_1306_5697">
<rect width="186" height="67" fill="white" transform="translate(0.5 0.5)"/>
</clipPath>
<clipPath id="clip1_1306_5697">
<rect width="73" height="61" fill="white" transform="translate(0.64624 0.5)"/>
</clipPath>
</defs>
</svg>
