<svg width="173" height="67" viewBox="0 0 173 67" fill="none" xmlns="http://www.w3.org/2000/svg">
<path d="M130.48 9.64795V44.5246H154.813V18.5699H146.702C146.278 18.5699 145.891 18.1835 145.891 17.7588V9.64795H130.48ZM147.513 10.459V16.9477H154.002L147.513 10.459Z" fill="#D65649"/>
<path d="M118.078 59.8601C118.078 59.6414 118.142 59.4591 118.27 59.3132C118.402 59.1674 118.598 59.0945 118.858 59.0945C119.117 59.0945 119.313 59.1674 119.446 59.3132C119.582 59.4591 119.651 59.6414 119.651 59.8601C119.651 60.0697 119.582 60.2452 119.446 60.3865C119.313 60.5278 119.117 60.5984 118.858 60.5984C118.598 60.5984 118.402 60.5278 118.27 60.3865C118.142 60.2452 118.078 60.0697 118.078 59.8601ZM128.004 56.907C128.004 58.0372 127.744 58.9464 127.225 59.6345C126.705 60.3181 126.008 60.6599 125.133 60.6599C124.199 60.6599 123.477 60.3295 122.966 59.6687L122.905 60.5232H121.742V50.0232H123.007V53.9402C123.518 53.3067 124.222 52.99 125.119 52.99C126.017 52.99 126.721 53.3295 127.232 54.0085C127.747 54.6876 128.004 55.6173 128.004 56.7976V56.907ZM126.74 56.7634C126.74 55.9021 126.573 55.2367 126.241 54.7673C125.908 54.2979 125.429 54.0632 124.805 54.0632C123.971 54.0632 123.372 54.4506 123.007 55.2253V58.4246C123.395 59.1993 123.998 59.5867 124.819 59.5867C125.425 59.5867 125.896 59.352 126.234 58.8826C126.571 58.4132 126.74 57.7068 126.74 56.7634ZM130.978 60.5232H129.713V50.0232H130.978V60.5232ZM132.673 56.7566C132.673 56.032 132.814 55.3803 133.097 54.8015C133.384 54.2227 133.781 53.7761 134.286 53.4617C134.797 53.1472 135.378 52.99 136.03 52.99C137.037 52.99 137.85 53.3386 138.47 54.0359C139.094 54.7332 139.407 55.6606 139.407 56.8181V56.907C139.407 57.627 139.268 58.2742 138.99 58.8484C138.716 59.4181 138.322 59.8624 137.807 60.1814C137.297 60.5004 136.709 60.6599 136.043 60.6599C135.041 60.6599 134.227 60.3113 133.603 59.614C132.983 58.9167 132.673 57.9939 132.673 56.8455V56.7566ZM133.945 56.907C133.945 57.7273 134.134 58.3858 134.512 58.8826C134.895 59.3793 135.405 59.6277 136.043 59.6277C136.686 59.6277 137.196 59.377 137.575 58.8757C137.953 58.3699 138.142 57.6635 138.142 56.7566C138.142 55.9454 137.948 55.2891 137.561 54.7878C137.178 54.282 136.668 54.0291 136.03 54.0291C135.405 54.0291 134.902 54.2774 134.519 54.7742C134.136 55.2709 133.945 55.9819 133.945 56.907ZM140.658 56.7566C140.658 56.032 140.799 55.3803 141.081 54.8015C141.368 54.2227 141.765 53.7761 142.271 53.4617C142.781 53.1472 143.362 52.99 144.014 52.99C145.021 52.99 145.835 53.3386 146.454 54.0359C147.079 54.7332 147.391 55.6606 147.391 56.8181V56.907C147.391 57.627 147.252 58.2742 146.974 58.8484C146.7 59.4181 146.306 59.8624 145.791 60.1814C145.281 60.5004 144.693 60.6599 144.028 60.6599C143.025 60.6599 142.212 60.3113 141.587 59.614C140.967 58.9167 140.658 57.9939 140.658 56.8455V56.7566ZM141.929 56.907C141.929 57.7273 142.118 58.3858 142.496 58.8826C142.879 59.3793 143.39 59.6277 144.028 59.6277C144.67 59.6277 145.181 59.377 145.559 58.8757C145.937 58.3699 146.126 57.6635 146.126 56.7566C146.126 55.9454 145.933 55.2891 145.545 54.7878C145.162 54.282 144.652 54.0291 144.014 54.0291C143.39 54.0291 142.886 54.2774 142.503 54.7742C142.12 55.2709 141.929 55.9819 141.929 56.907ZM150.166 53.1267L150.2 53.947C150.743 53.309 151.474 52.99 152.395 52.99C153.429 52.99 154.133 53.3865 154.507 54.1794C154.753 53.824 155.072 53.5369 155.464 53.3181C155.861 53.0994 156.328 52.99 156.866 52.99C158.488 52.99 159.313 53.849 159.34 55.5671V60.5232H158.075V55.6423C158.075 55.1137 157.955 54.7195 157.713 54.4597C157.472 54.1954 157.066 54.0632 156.496 54.0632C156.027 54.0632 155.637 54.2045 155.327 54.4871C155.018 54.7651 154.838 55.141 154.787 55.615V60.5232H153.516V55.6765C153.516 54.601 152.99 54.0632 151.937 54.0632C151.107 54.0632 150.54 54.4164 150.235 55.1228V60.5232H148.97V53.1267H150.166ZM160.947 56.7634C160.947 55.6287 161.215 54.7172 161.753 54.0291C162.291 53.3363 162.995 52.99 163.866 52.99C164.731 52.99 165.417 53.2862 165.923 53.8787V50.0232H167.188V60.5232H166.026L165.964 59.7302C165.458 60.35 164.754 60.6599 163.852 60.6599C162.995 60.6599 162.296 60.309 161.753 59.6072C161.215 58.9054 160.947 57.9893 160.947 56.8591V56.7634ZM162.211 56.907C162.211 57.7455 162.384 58.4018 162.731 58.8757C163.077 59.3497 163.556 59.5867 164.166 59.5867C164.968 59.5867 165.554 59.2266 165.923 58.5066V55.1091C165.545 54.4119 164.964 54.0632 164.18 54.0632C163.56 54.0632 163.077 54.3025 162.731 54.781C162.384 55.2595 162.211 55.9682 162.211 56.907Z" fill="#D65649"/>
<path d="M71.4896 57.315C69.4634 54.1551 67.323 51.0508 65.2968 47.9117C65.0496 47.46 64.6733 47.088 64.2136 46.8409C63.7539 46.5938 63.2305 46.4822 62.707 46.5197C45.1658 46.5475 27.6245 46.5475 10.0832 46.5197C9.55975 46.4822 9.03639 46.5938 8.57667 46.8409C8.11694 47.088 7.74063 47.46 7.49341 47.9117C5.48863 51.009 3.44104 54.0785 1.36491 57.1271C1.02908 57.5227 0.812006 58.0013 0.737714 58.5099C0.663423 59.0185 0.73481 59.5372 0.943973 60.0086C1.44339 61.0179 2.49215 60.823 3.39823 60.823H69.6703C70.0312 60.8257 70.3916 60.7978 70.7476 60.7394C70.9305 60.7299 71.1096 60.6844 71.2741 60.6058C71.4386 60.5272 71.5852 60.417 71.7051 60.2819C71.825 60.1467 71.9157 59.9894 71.9718 59.8193C72.028 59.6491 72.0483 59.4697 72.0318 59.2917C72.0118 58.6005 71.8261 57.9236 71.4896 57.315ZM28.2975 57.1271C28.3831 56.4311 28.4402 55.735 28.5829 55.039C28.6511 54.943 28.7416 54.8639 28.8469 54.8083C28.9523 54.7527 29.0696 54.722 29.1893 54.7188C34.0027 54.7188 38.8161 54.7188 43.6295 54.7188C43.7593 54.7362 43.8826 54.7847 43.9884 54.8601C44.0943 54.9354 44.1793 55.0351 44.2359 55.1504C44.3591 55.7973 44.4473 56.4502 44.4999 57.1062H28.2975V57.1271Z" fill="#1D94A4"/>
<path d="M10.4614 45.4408H62.0435C63.235 45.4408 63.5346 45.1693 63.5346 44.0487C63.5346 33.9424 63.5346 23.8361 63.5346 13.7298C63.5495 13.115 63.4233 12.5047 63.1654 11.9435C62.9074 11.3823 62.5241 10.8845 62.0435 10.4864C61.0593 9.76119 59.8328 9.42108 58.6047 9.53281C45.7389 9.53281 32.8731 9.53281 20.0073 9.53281C17.7671 9.53281 15.5197 9.53281 13.2795 9.53281C10.5256 9.56761 8.86324 11.2242 8.86324 13.9108C8.86324 23.8872 8.86324 33.8635 8.86324 43.8399C8.87037 45.2041 9.11294 45.4408 10.4614 45.4408ZM14.0286 13.2426H58.3479C59.5679 13.2426 59.7248 13.4097 59.7177 14.572C59.7177 21.3281 59.7034 28.0842 59.6749 34.8403C59.6749 36.7265 59.6749 38.6197 59.7106 40.5059C59.7106 41.6405 59.5822 41.7658 58.3836 41.7658H14.0785C12.7515 41.7658 12.6516 41.6753 12.6516 40.3737C12.6516 31.7894 12.6516 23.2051 12.6516 14.6208C12.6588 13.3053 12.7087 13.2426 14.0357 13.2426H14.0286Z" fill="#1D94A4"/>
<path d="M110.704 29.2681C111.091 28.8744 111.086 28.2412 110.692 27.854L104.276 21.5429C103.882 21.1557 103.249 21.1609 102.862 21.5546C102.475 21.9484 102.48 22.5815 102.874 22.9688L108.577 28.5786L102.967 34.2821C102.58 34.6759 102.585 35.309 102.979 35.6963C103.373 36.0836 104.006 36.0783 104.393 35.6846L110.704 29.2681ZM71.7973 29.8833L109.999 29.5669L109.983 27.5669L71.7807 27.8834L71.7973 29.8833Z" fill="#575757"/>
</svg>
