<svg width="205" height="74" viewBox="0 0 205 74" fill="none" xmlns="http://www.w3.org/2000/svg">
<path d="M61.8449 20.9994V32.8666V35.5034H64.3503H74.2394C75.6958 35.5034 77.9893 35.1103 79.3634 34.6252L86.8625 31.9873C87.5481 31.7439 88.1275 30.9571 88.1275 30.2298V23.6363C88.1275 22.9078 87.5481 22.121 86.8619 21.8787L79.3743 19.2396C78.0001 18.7557 75.6953 18.3626 74.2389 18.3626H64.3503H61.8449V20.9994ZM71.1729 23.3911V23.9385H71.6666C73.3715 23.9385 74.0869 24.7504 74.7188 25.5023C75.273 26.1634 75.7181 26.7547 76.786 26.7799L79.6051 26.7787C79.7879 26.1954 80.3324 25.704 80.9769 25.704C81.77 25.704 82.4139 26.3468 82.4139 27.141C82.4139 27.9352 81.77 28.5797 80.9769 28.5797C80.3341 28.5797 79.7971 28.0831 79.6119 27.5015H78.8658C77.747 27.5072 77.2996 28.1106 76.7346 28.7831C76.1032 29.5361 75.3873 30.3257 73.6818 30.3257L72.5591 30.3275C72.3979 30.6486 72.0677 30.9325 71.6843 30.9325C71.1455 30.9325 70.709 30.496 70.709 29.9584C70.709 29.4196 71.145 28.9836 71.6843 28.9836C72.066 28.9836 72.3974 29.2493 72.5568 29.5676L73.8378 29.5727C75.1416 29.5727 75.6467 28.9242 76.2306 28.2289C76.4146 28.0089 76.6106 27.7129 76.8323 27.5015H67.6294V28.3254L65.2731 27.1444L67.6294 25.96V26.7805H74.7971C74.5771 26.5713 74.3451 26.2748 74.1623 26.0577C73.5767 25.3623 73.0727 24.6727 71.77 24.6727H71.1729V25.2189H69.2377V23.3911H71.1729Z" fill="#D65649"/>
<path d="M86.1087 27.4999C136.866 23.1087 187.479 101.646 187.479 61.2439" stroke="#D65649" stroke-width="2"/>
<path d="M189.776 54.1509H185.094H184.053V55.1395V56.4714C184.053 57.046 184.208 57.951 184.4 58.4933L185.441 61.4524C185.537 61.723 185.847 61.9516 186.134 61.9516H188.736C189.023 61.9516 189.334 61.723 189.429 61.4522L190.471 58.4976C190.662 57.9553 190.817 57.0458 190.817 56.4711V55.1395V54.1509H189.776Z" fill="#D65649"/>
<path d="M71.4896 58.315C69.4634 55.1551 67.323 52.0508 65.2968 48.9117C65.0496 48.46 64.6733 48.088 64.2136 47.8409C63.7539 47.5938 63.2305 47.4822 62.707 47.5197C45.1658 47.5475 27.6245 47.5475 10.0832 47.5197C9.55975 47.4822 9.03639 47.5938 8.57667 47.8409C8.11694 48.088 7.74063 48.46 7.49341 48.9117C5.48863 52.009 3.44104 55.0785 1.36491 58.1271C1.02908 58.5227 0.812006 59.0013 0.737714 59.5099C0.663423 60.0185 0.73481 60.5372 0.943973 61.0086C1.44339 62.0179 2.49215 61.823 3.39823 61.823H69.6703C70.0312 61.8257 70.3916 61.7978 70.7476 61.7394C70.9305 61.7299 71.1096 61.6844 71.2741 61.6058C71.4386 61.5272 71.5852 61.417 71.7051 61.2819C71.825 61.1467 71.9157 60.9894 71.9718 60.8193C72.028 60.6491 72.0483 60.4697 72.0318 60.2917C72.0118 59.6005 71.8261 58.9236 71.4896 58.315ZM28.2975 58.1271C28.3831 57.4311 28.4402 56.735 28.5829 56.039C28.6511 55.943 28.7416 55.8639 28.8469 55.8083C28.9523 55.7527 29.0696 55.722 29.1893 55.7188C34.0027 55.7188 38.8161 55.7188 43.6295 55.7188C43.7593 55.7362 43.8826 55.7847 43.9884 55.8601C44.0943 55.9354 44.1793 56.0351 44.2359 56.1504C44.3591 56.7973 44.4473 57.4502 44.4999 58.1062H28.2975V58.1271Z" fill="#1D94A4"/>
<path d="M10.4614 46.4408H62.0435C63.235 46.4408 63.5346 46.1693 63.5346 45.0487C63.5346 34.9424 63.5346 24.8361 63.5346 14.7298C63.5495 14.115 63.4233 13.5047 63.1654 12.9435C62.9074 12.3823 62.5241 11.8845 62.0435 11.4864C61.0593 10.7612 59.8328 10.4211 58.6047 10.5328C45.7389 10.5328 32.8731 10.5328 20.0073 10.5328C17.7671 10.5328 15.5197 10.5328 13.2795 10.5328C10.5256 10.5676 8.86324 12.2242 8.86324 14.9108C8.86324 24.8872 8.86324 34.8635 8.86324 44.8399C8.87037 46.2041 9.11294 46.4408 10.4614 46.4408ZM14.0286 14.2426H58.3479C59.5679 14.2426 59.7248 14.4097 59.7177 15.572C59.7177 22.3281 59.7034 29.0842 59.6749 35.8403C59.6749 37.7265 59.6749 39.6197 59.7106 41.5059C59.7106 42.6405 59.5822 42.7658 58.3836 42.7658H14.0785C12.7515 42.7658 12.6516 42.6753 12.6516 41.3737C12.6516 32.7894 12.6516 24.2051 12.6516 15.6208C12.6588 14.3053 12.7087 14.2426 14.0357 14.2426H14.0286Z" fill="#1D94A4"/>
<path d="M172.718 0.0396729C171.812 0.0396729 171.078 0.77547 171.078 1.68304V52.8463C171.078 53.7539 171.812 54.4896 172.718 54.4897H202.553C203.459 54.4897 204.193 53.7539 204.193 52.8463V1.68304C204.193 0.77547 203.459 0.0397649 202.553 0.0396729H172.718ZM174.358 4.57536H200.913V50.6483H174.358V4.57536Z" fill="#1D94A4"/>
<path d="M182.711 2.26824C182.711 1.93315 182.982 1.6615 183.318 1.6615H193.953C194.288 1.6615 194.56 1.93315 194.56 2.26824V2.26824C194.56 2.60333 194.288 2.87498 193.953 2.87498H183.318C182.982 2.87498 182.711 2.60333 182.711 2.26824V2.26824Z" fill="white"/>
</svg>
