<svg width="245" height="140" viewBox="0 0 245 140" fill="none" xmlns="http://www.w3.org/2000/svg">
<g clip-path="url(#clip0)">
<path d="M229.683 80.3705C235.217 79.2442 240.637 82.8385 241.765 88.3828C241.929 89.1894 243.148 88.9422 242.984 88.1349C241.719 81.9208 235.675 77.8796 229.435 79.1498C228.63 79.3137 228.877 80.5345 229.683 80.3705Z" fill="#D65649"/>
<path d="M230.225 83.0382C234.291 82.2105 238.274 84.8518 239.103 88.926C239.267 89.7325 240.486 89.4854 240.322 88.678C239.352 83.9161 234.73 80.85 229.976 81.8175C229.171 81.9813 229.419 83.2022 230.225 83.0382V83.0382Z" fill="#D65649"/>
<path d="M230.767 85.7055C233.366 85.1765 235.911 86.8647 236.441 89.4686C236.605 90.2752 237.824 90.0281 237.659 89.2207C236.99 85.9336 233.799 83.8169 230.518 84.4848C229.713 84.6486 229.961 85.8696 230.767 85.7055V85.7055Z" fill="#D65649"/>
<path d="M205.795 4.13846C211.328 3.01211 216.748 6.60644 217.877 12.1508C218.041 12.9573 219.259 12.7102 219.095 11.9028C217.83 5.68879 211.787 1.64749 205.546 2.91776C204.741 3.08161 204.989 4.30249 205.795 4.13846Z" fill="#D65649"/>
<path d="M206.336 6.80616C210.403 5.97848 214.385 8.61972 215.215 12.6939C215.379 13.5004 216.597 13.2533 216.433 12.4459C215.464 7.68409 210.841 4.61793 206.088 5.58544C205.283 5.74929 205.531 6.97018 206.336 6.80616V6.80616Z" fill="#D65649"/>
<path d="M206.878 9.47348C209.477 8.94448 212.023 10.6326 212.553 13.2366C212.717 14.0431 213.935 13.796 213.771 12.9886C213.102 9.70154 209.911 7.58488 206.63 8.25274C205.825 8.41658 206.072 9.6375 206.878 9.47348V9.47348Z" fill="#D65649"/>
<path d="M175.77 13.2769C174.864 13.2769 174.13 14.0127 174.13 14.9202V66.0835C174.13 66.9911 174.864 67.7268 175.77 67.7269H205.606C206.511 67.7269 207.246 66.9911 207.246 66.0835V14.9202C207.246 14.0127 206.511 13.2769 205.606 13.2769H175.77ZM177.41 17.8125H203.966V63.8855H177.41V17.8125Z" fill="#1D94A4"/>
<path d="M160.221 90.5363C160.221 89.5214 161.042 88.6987 162.055 88.6986H229.3C230.313 88.6987 231.134 89.5214 231.134 90.5363V137.523C231.134 138.538 230.313 139.36 229.3 139.361H162.055C161.042 139.361 160.221 138.538 160.221 137.523V90.5363ZM163.592 92.374V135.685H223.652V92.374H163.592Z" fill="#1D94A4"/>
<path d="M226.919 119.727V107.014C226.919 106.514 227.324 106.108 227.825 106.108C228.325 106.108 228.73 106.514 228.73 107.014V119.727C228.73 120.227 228.325 120.633 227.825 120.633C227.324 120.633 226.919 120.227 226.919 119.727Z" fill="white"/>
<path d="M184.763 15.5055C184.763 15.1705 185.035 14.8988 185.37 14.8988H196.006C196.341 14.8988 196.613 15.1705 196.613 15.5055V15.5055C196.613 15.8406 196.341 16.1123 196.006 16.1123H185.37C185.035 16.1123 184.763 15.8406 184.763 15.5055V15.5055Z" fill="white"/>
<path d="M81.4442 92.1592L80.9168 91.3096L78.9764 92.5141L81.1776 93.1231L81.4442 92.1592ZM162.092 42.9302C162.218 42.3925 161.884 41.8545 161.346 41.7287L152.583 39.6781C152.045 39.5522 151.507 39.8862 151.381 40.4239C151.255 40.9617 151.589 41.4996 152.127 41.6255L159.917 43.4482L158.094 51.2378C157.968 51.7756 158.302 52.3135 158.84 52.4394C159.377 52.5652 159.915 52.2313 160.041 51.6935L162.092 42.9302ZM149.628 111.754C150.108 111.482 150.277 110.872 150.005 110.391L145.568 102.561C145.296 102.08 144.685 101.911 144.205 102.184C143.724 102.456 143.556 103.066 143.828 103.547L147.772 110.507L140.811 114.451C140.331 114.723 140.162 115.333 140.434 115.814C140.707 116.294 141.317 116.463 141.797 116.191L149.628 111.754ZM81.9716 93.0089L161.645 43.552L160.591 41.8528L80.9168 91.3096L81.9716 93.0089ZM81.1776 93.1231L148.868 111.848L149.401 109.92L81.7108 91.1954L81.1776 93.1231Z" fill="#575757"/>
<path d="M80.4896 112.315C78.4634 109.155 76.3231 106.051 74.2969 102.912C74.0497 102.46 73.6734 102.088 73.2136 101.841C72.7539 101.594 72.2306 101.482 71.7071 101.52C54.1658 101.548 36.6246 101.548 19.0833 101.52C18.5598 101.482 18.0364 101.594 17.5767 101.841C17.117 102.088 16.7407 102.46 16.4935 102.912C14.4887 106.009 12.4411 109.079 10.365 112.127C10.0291 112.523 9.81207 113.001 9.73778 113.51C9.66348 114.019 9.73487 114.537 9.94403 115.009C10.4434 116.018 11.4922 115.823 12.3983 115.823H78.6703C79.0312 115.826 79.3917 115.798 79.7476 115.74C79.9306 115.73 80.1096 115.685 80.2742 115.606C80.4387 115.527 80.5853 115.417 80.7052 115.282C80.825 115.147 80.9158 114.99 80.9719 114.819C81.028 114.649 81.0484 114.47 81.0318 114.292C81.0118 113.601 80.8261 112.924 80.4896 112.315ZM37.2976 112.127C37.3832 111.431 37.4403 110.735 37.583 110.039C37.6512 109.943 37.7417 109.864 37.847 109.808C37.9523 109.753 38.0696 109.722 38.1894 109.719C43.0028 109.719 47.8161 109.719 52.6295 109.719C52.7593 109.736 52.8827 109.785 52.9885 109.86C53.0943 109.935 53.1794 110.035 53.236 110.15C53.3592 110.797 53.4473 111.45 53.4999 112.106H37.2976V112.127Z" fill="#1D94A4"/>
<path d="M19.4614 100.441H71.0436C72.2351 100.441 72.5347 100.169 72.5347 99.0488C72.5347 88.9425 72.5347 78.8363 72.5347 68.73C72.5496 68.1151 72.4234 67.5048 72.1654 66.9436C71.9074 66.3824 71.5242 65.8846 71.0436 65.4865C70.0594 64.7613 68.8329 64.4212 67.6048 64.5329C54.739 64.5329 41.8732 64.5329 29.0073 64.5329C26.7671 64.5329 24.5198 64.5329 22.2795 64.5329C19.5256 64.5677 17.8633 66.2243 17.8633 68.9109C17.8633 78.8873 17.8633 88.8637 17.8633 98.84C17.8704 100.204 18.113 100.441 19.4614 100.441ZM23.0287 68.2427H67.348C68.5679 68.2427 68.7249 68.4098 68.7178 69.5722C68.7178 76.3282 68.7035 83.0843 68.675 89.8404C68.675 91.7266 68.675 93.6198 68.7106 95.5061C68.7106 96.6406 68.5822 96.7659 67.3836 96.7659H23.0786C21.7516 96.7659 21.6517 96.6754 21.6517 95.3738C21.6517 86.7895 21.6517 78.2052 21.6517 69.6209C21.6588 68.3054 21.7088 68.2427 23.0358 68.2427H23.0287Z" fill="#1D94A4"/>
<path d="M70.288 54.5376C75.8215 53.4113 81.2416 57.0056 82.3701 62.55C82.5343 63.3565 83.7528 63.1094 83.5884 62.302C82.3236 56.088 76.2801 52.0467 70.0395 53.3169C69.2345 53.4808 69.4822 54.7017 70.288 54.5376Z" fill="#D65649"/>
<path d="M70.8298 57.2053C74.896 56.3777 78.8788 59.0189 79.7081 63.0931C79.8723 63.8996 81.0908 63.6525 80.9265 62.8451C79.9572 58.0833 75.3345 55.0171 70.5813 55.9846C69.7764 56.1485 70.024 57.3694 70.8298 57.2053V57.2053Z" fill="#D65649"/>
<path d="M71.3715 59.8726C73.9704 59.3436 76.5159 61.0318 77.046 63.6358C77.2102 64.4423 78.4287 64.1952 78.2643 63.3878C77.5952 60.1007 74.4041 57.9841 71.123 58.6519C70.3181 58.8158 70.5657 60.0367 71.3715 59.8726V59.8726Z" fill="#D65649"/>
</g>
<defs>
<clipPath id="clip0">
<rect width="245" height="140" fill="white"/>
</clipPath>
</defs>
</svg>
