<!-- This is the icon from figma. Not inlinable at this point because it is invoked by CSS on an element defined
in pug, not a react component. -->
<svg width="32" height="36" viewBox="0 0 32 36" fill="none" xmlns="http://www.w3.org/2000/svg">
<path d="M31.6747 16.4627C31.6979 16.4319 32 21.5616 32 21.5616C31.8606 21.5616 31.7676 21.5156 31.7676 21.4695V21.4388C31.7444 21.4388 31.7444 21.4234 31.7444 21.4234V21.6384C31.7444 21.6538 31.7444 21.6691 31.7211 21.6845V21.9609C31.7211 21.9917 31.6747 22.0224 31.6282 22.0377C31.6049 22.0531 31.5352 22.0685 31.4655 22.0685C31.3261 22.0685 31.2331 22.0224 31.2331 21.9763V21.8995C31.1866 21.8688 31.1634 21.8534 31.1634 21.8227V21.6845C31.1402 21.6691 31.1402 21.6538 31.1402 21.6384V20.7476H31.1169V20.8091C31.1169 20.8551 31.024 20.9012 30.8845 20.9012C30.8148 20.9012 30.7451 20.8859 30.6986 20.8551V20.9626V21.408C30.6986 21.4234 30.6986 21.4388 30.6754 21.4541V21.6999V22.176C30.6754 22.1913 30.6754 22.2067 30.6521 22.222V22.4217C30.6521 22.4524 30.5824 22.4831 30.5127 22.4985V23.6504C30.5127 23.6811 30.4662 23.7118 30.4198 23.7272C30.3733 23.7425 30.3036 23.7579 30.2338 23.7579C30.0944 23.7579 30.0015 23.7118 30.0015 23.6657V23.0053L29.955 23.036V23.1896C29.955 23.2203 29.8853 23.251 29.8155 23.2664V25.4319C29.8155 25.4473 29.8155 25.4627 29.7923 25.478V25.5702V26.1077C29.7923 26.1538 29.6993 26.1999 29.5599 26.1999C29.467 26.1999 29.374 26.1691 29.3508 26.1231V27.751C29.3508 27.7664 29.3508 27.7818 29.3275 27.7971V29.0565V29.7476C29.3275 29.7937 29.2346 29.8398 29.0951 29.8398C28.9557 29.8398 28.8627 29.7937 28.8627 29.7476V27.5975C28.8395 27.5975 28.8395 27.5821 28.8395 27.5821V27.7357C28.8395 27.7818 28.7465 27.8278 28.6071 27.8278H28.5142V27.9814C28.5142 28.0121 28.4444 28.0429 28.3747 28.0582V29.0719V30.2852C28.3747 30.3313 28.2818 30.3773 28.1423 30.3773H28.0494V30.9149C28.0494 30.9609 27.9564 31.007 27.817 31.007C27.6776 31.007 27.5846 30.9609 27.5846 30.9149V30.6845C27.5614 30.6691 27.5614 30.6538 27.5614 30.6384V29.8859C27.4916 29.8705 27.4452 29.8398 27.4452 29.8091V29.2408C27.4219 29.2715 27.3522 29.3022 27.236 29.3022C27.1431 29.3022 27.0501 29.2715 27.0269 29.2254V30.0855C27.0269 30.1316 26.9339 30.1777 26.7945 30.1777C26.655 30.1777 26.5621 30.1316 26.5621 30.0855V29.1333H26.4691C26.3994 29.1333 26.3297 29.1179 26.2832 29.0872V29.8244C26.2832 29.8705 26.1903 29.9166 26.0508 29.9166C25.9579 29.9166 25.8649 29.8859 25.8417 29.8398V30.0702C25.8417 30.1009 25.772 30.1316 25.7023 30.147V30.6231C25.7023 30.6691 25.6093 30.7152 25.4699 30.7152C25.3304 30.7152 25.2375 30.6691 25.2375 30.6231V29.2254C25.2142 29.2562 25.1445 29.2715 25.0516 29.2715H24.9818V30.5923C24.9818 30.6231 24.9121 30.6538 24.8424 30.6691V31.2067C24.8424 31.2528 24.7495 31.2988 24.61 31.2988C24.4706 31.2988 24.3776 31.2528 24.3776 31.2067V30.577C24.3544 30.6077 24.2847 30.6231 24.1917 30.6231C24.0523 30.6231 23.9593 30.577 23.9593 30.5309V29.4558V26.9831C23.9361 27.0138 23.8664 27.0292 23.7734 27.0292C23.634 27.0292 23.541 26.9831 23.541 26.9371V26.7988C23.5178 26.8295 23.4481 26.8449 23.3551 26.8449C23.2157 26.8449 23.1227 26.7988 23.1227 26.7528V25.8005C23.0065 25.7852 22.9368 25.7545 22.9368 25.7084V24.4797C22.9136 24.4644 22.9136 24.449 22.9136 24.4336V23.1743C22.8903 23.1589 22.8903 23.1435 22.8903 23.1282V21.6691C22.8671 21.6691 22.8671 21.6845 22.8671 21.6845V21.6999V22.1299C22.8671 22.176 22.7741 22.222 22.6347 22.222C22.565 22.222 22.4953 22.2067 22.4488 22.176C22.4488 22.176 22.4488 22.1913 22.4256 22.1913V22.9285C22.4256 22.9746 22.3326 23.0207 22.1932 23.0207C22.0537 23.0207 21.9608 22.9746 21.9608 22.9285V22.8364C21.9375 22.821 21.9375 22.8057 21.9375 22.7903V21.9149C21.9143 21.8995 21.9143 21.8842 21.9143 21.8688V21.3466C21.8911 21.3312 21.8911 21.3159 21.8911 21.3005V20.0872C21.8678 20.0872 21.8446 20.0719 21.8446 20.0565V21.3005C21.8446 21.3159 21.8446 21.3312 21.8214 21.3466V21.7152C21.8214 21.7306 21.8214 21.7459 21.7981 21.7613V22.5446C21.7981 22.5906 21.7052 22.6367 21.5657 22.6367C21.5192 22.6367 21.4728 22.6214 21.4495 22.6214V23.42C21.4495 23.4661 21.3566 23.5121 21.2171 23.5121C21.1242 23.5121 21.0312 23.4814 21.008 23.4507C20.9615 23.4353 20.915 23.4046 20.915 23.3739V22.7442C20.8918 22.7289 20.8686 22.7289 20.8453 22.7135V22.8517C20.8453 22.8978 20.7524 22.9439 20.6129 22.9439C20.4735 22.9439 20.3805 22.8978 20.3805 22.8517V22.7289C20.3573 22.7135 20.3573 22.6981 20.3573 22.6828V21.8227V21.2237C20.3341 21.2237 20.3108 21.2237 20.2876 21.2084V21.5923C20.2876 21.6077 20.2876 21.6231 20.2643 21.6384V21.6538V21.7306C20.2643 21.7766 20.1714 21.8227 20.032 21.8227C19.8925 21.8227 19.7996 21.7766 19.7996 21.7306V21.6538V21.6077C19.7763 21.6077 19.7763 21.5923 19.7531 21.5923V21.9917C19.7531 22.007 19.7531 22.0224 19.7298 22.0377V22.1299V22.222C19.7298 22.2374 19.7066 22.2528 19.6834 22.2681C19.6601 22.2988 19.5672 22.3295 19.4742 22.3295C19.3348 22.3295 19.2418 22.2835 19.2418 22.2374V22.1606C19.2186 22.1452 19.2186 22.1299 19.2186 22.1145V21.4234C19.1954 21.408 19.1954 21.3927 19.1954 21.3773V20.9934V20.4405C19.1721 20.4251 19.1721 20.4097 19.1721 20.3944V19.7801C19.1489 19.7647 19.1489 19.7493 19.1489 19.734V19.1196C19.1256 19.1043 19.1256 19.0889 19.1256 19.0736V18.9353H19.1024V19.4575V19.4729C19.1024 19.4882 19.1024 19.5036 19.0792 19.519V20.4558V21.2084C19.0792 21.2237 19.0792 21.2391 19.0559 21.2545V22.2988V23.1743C19.0559 23.1896 19.0559 23.205 19.0327 23.2203V23.251V23.3893C19.0327 23.42 18.9862 23.4507 18.9165 23.4661V23.8347C18.9165 23.85 18.9165 23.8654 18.8932 23.8807V23.9115C18.8932 23.9422 18.8468 23.9729 18.7771 23.9882V24.2801C18.7771 24.2954 18.7771 24.3108 18.7538 24.3261V24.3876C18.7538 24.4336 18.6609 24.4797 18.5214 24.4797C18.382 24.4797 18.289 24.4336 18.289 24.3876V23.6964C18.2658 23.6811 18.2658 23.6657 18.2658 23.6504V22.9132C18.2426 22.8978 18.2426 22.8824 18.2426 22.8671V21.9302C18.2193 21.9149 18.2193 21.8995 18.2193 21.8841V21.4695C18.1961 21.4541 18.1961 21.4388 18.1961 21.4234V20.9166C18.1728 20.9012 18.1728 20.8859 18.1728 20.8705V20.7169H18.0799C17.9405 20.7169 17.8475 20.6708 17.8475 20.6248V20.4251V20.1179C17.8243 20.1026 17.8243 20.0872 17.8243 20.0719V19.9183C17.7081 19.9183 17.6151 19.8876 17.5919 19.8415L17.5919 19.8415C17.5454 19.8261 17.4989 19.8108 17.4757 19.7954C17.4524 19.8261 17.4292 19.8261 17.3827 19.8415V20.5019C17.3827 20.5173 17.3827 20.5326 17.3595 20.548V20.6401C17.3595 20.6862 17.2665 20.7323 17.1271 20.7323C16.9877 20.7323 16.8947 20.6862 16.8947 20.6401V20.6248C16.8715 20.6094 16.8715 20.594 16.8715 20.5787V20.548H16.8482H16.7553V21.2698C16.7553 21.2852 16.7553 21.3005 16.732 21.3159V22.7596C16.732 22.7749 16.732 22.7903 16.7088 22.8057V23.1128V23.5275C16.7088 23.5429 16.7088 23.5582 16.6855 23.5736V23.6043C16.6855 23.635 16.6391 23.6657 16.5694 23.6811V23.9729V24.5565C16.5694 24.6026 16.4764 24.6487 16.337 24.6487C16.1975 24.6487 16.1046 24.6026 16.1046 24.5565V24.4336C16.0813 24.4183 16.0813 24.4029 16.0813 24.3876V23.9422C16.0581 23.9268 16.0581 23.9115 16.0581 23.8961V23.4507V22.8364C16.0349 22.821 16.0349 22.8057 16.0349 22.7903V21.0394C16.0116 21.0241 16.0116 21.0087 16.0116 20.9934V20.4558C15.9884 20.4558 15.9884 20.4712 15.9884 20.4712V20.763C15.9884 20.8091 15.8954 20.8551 15.756 20.8551C15.6166 20.8551 15.5236 20.8091 15.5236 20.763C15.4306 20.7476 15.3609 20.7169 15.3609 20.6708V21.5616C15.3609 21.577 15.3609 21.5923 15.3377 21.6077V22.0992C15.3377 22.1299 15.3145 22.1452 15.2912 22.1606C15.2912 22.176 15.2912 22.1913 15.268 22.2067V22.4217C15.268 22.4371 15.268 22.4524 15.2447 22.4678V23.0514C15.2447 23.0667 15.2447 23.0821 15.2215 23.0975V24.664C15.2215 24.6794 15.2215 24.6947 15.1983 24.7101V25.7391C15.1983 25.7852 15.1053 25.8313 14.9659 25.8313C14.8264 25.8313 14.7335 25.7852 14.7335 25.7391V24.7254C14.7102 24.7101 14.7102 24.6947 14.7102 24.6794V24.1418C14.687 24.1265 14.687 24.1111 14.687 24.0958V23.0207C14.6638 23.0053 14.6405 22.9746 14.6405 22.9592V22.8671C14.6173 22.8517 14.6173 22.8364 14.6173 22.821V21.9302C14.594 21.9149 14.594 21.8995 14.594 21.8841V21.0702C14.5708 21.0548 14.5708 21.0394 14.5708 21.0241V20.8091C14.5011 20.7937 14.4546 20.763 14.4546 20.7323V20.2101C14.4314 20.1947 14.4314 20.1794 14.4314 20.164V19.3807L14.4081 19.3961V20.0258C14.4081 20.0412 14.4081 20.0565 14.3849 20.0719V20.2562V21.1623C14.3849 21.1777 14.3849 21.193 14.3617 21.2084V21.577C14.3617 21.6231 14.2687 21.6691 14.1293 21.6691C13.9898 21.6691 13.8969 21.6231 13.8969 21.577V21.3313C13.8504 21.3005 13.8272 21.2852 13.8272 21.2545C13.8039 21.2391 13.7807 21.2084 13.7807 21.193V20.7476H13.7574V21.4848C13.7574 21.5156 13.7342 21.5309 13.711 21.5463V21.9456C13.711 21.9763 13.6877 21.9917 13.6645 22.007C13.6645 22.0224 13.6645 22.0377 13.6412 22.0531V22.3142C13.6412 22.3295 13.6412 22.3449 13.618 22.3603V22.8824C13.618 22.8978 13.618 22.9132 13.5948 22.9285V23.2357C13.5948 23.2664 13.5483 23.2971 13.5018 23.3125C13.4553 23.3278 13.3856 23.3432 13.3159 23.3432C13.1765 23.3432 13.0835 23.2971 13.0835 23.251V23.1743C13.0603 23.1589 13.037 23.1282 13.037 23.1128V22.7903C13.0138 22.7749 12.9906 22.7442 12.9906 22.7289V22.5599C12.9673 22.5446 12.9673 22.5292 12.9673 22.5138V22.1145C12.8976 22.0992 12.8511 22.0685 12.8511 22.0377C12.7349 22.0224 12.6652 21.9917 12.6652 21.9456V21.1623C12.642 21.1469 12.6187 21.1162 12.6187 21.1009V20.6708C12.5723 20.6708 12.5258 20.6555 12.4793 20.6401V21.3927C12.4793 21.408 12.4793 21.4234 12.4561 21.4388V21.4541C12.4561 21.4848 12.4096 21.5156 12.3399 21.5309V21.8688C12.3399 21.8842 12.3399 21.8995 12.3166 21.9149V22.007C12.3166 22.0531 12.2237 22.0992 12.0842 22.0992C12.0145 22.0992 11.9681 22.0838 11.9216 22.0685L11.9216 22.0685V22.3142C11.9216 22.3295 11.9216 22.3449 11.8983 22.3603V22.8671C11.8983 22.9132 11.8054 22.9592 11.6659 22.9592C11.5265 22.9592 11.4336 22.9132 11.4336 22.8671V22.4524C11.4103 22.4371 11.4103 22.4217 11.4103 22.4063V22.3295C11.3871 22.3142 11.3871 22.3142 11.3871 22.2988C11.3871 22.2835 11.3638 22.2681 11.3638 22.2528V22.0685C11.2941 22.0531 11.2476 22.0224 11.2476 21.9917V21.5616C11.2244 21.5463 11.2244 21.5309 11.2244 21.5156V21.1162V20.7016H11.2012V21.4541C11.2012 21.4695 11.2012 21.4848 11.1779 21.5002V22.0377V22.2835C11.1779 22.3295 11.1082 22.3603 11.0153 22.3756V24.1572C11.0153 24.2033 10.9455 24.234 10.8526 24.2493V25.5087C10.8526 25.5241 10.8526 25.5394 10.8293 25.5548V26.8142V27.4439C10.8293 27.4592 10.8293 27.4746 10.8061 27.49V27.5975C10.8061 27.6435 10.7131 27.6896 10.5737 27.6896C10.4343 27.6896 10.3413 27.6435 10.3413 27.5975V27.4285C10.2484 27.4132 10.2019 27.3824 10.2019 27.3517V26.7528C10.1786 26.7374 10.1786 26.722 10.1786 26.7067V24.2186C10.1554 24.2186 10.1554 24.234 10.1554 24.234V24.4029V24.7254C10.1554 24.7715 10.0857 24.8022 9.99274 24.8176V26.1077V26.7528C9.99274 26.7988 9.89978 26.8449 9.76035 26.8449C9.62091 26.8449 9.52796 26.7988 9.52796 26.7528V26.3381H9.50472V27.5207C9.50472 27.5667 9.41176 27.6128 9.27233 27.6128C9.1329 27.6128 9.03994 27.5667 9.03994 27.5207V27.321C9.0167 27.321 9.0167 27.3057 9.0167 27.3057V27.6435C9.0167 27.6896 8.92375 27.7357 8.78431 27.7357C8.64488 27.7357 8.55192 27.6896 8.55192 27.6435V27.5821C8.52869 27.5667 8.52869 27.5514 8.52869 27.536V27.49C8.50545 27.49 8.50545 27.5053 8.50545 27.5053C8.50545 27.5514 8.41249 27.5975 8.27306 27.5975C8.13362 27.5975 8.04067 27.5514 8.04067 27.5053V27.321C8.01743 27.321 8.01743 27.3364 8.01743 27.3364V27.4592C8.01743 27.5053 7.92447 27.5514 7.78504 27.5514C7.64561 27.5514 7.55265 27.5053 7.55265 27.4592V26.1231H7.48293C7.3435 26.1231 7.25054 26.077 7.25054 26.0309V25.3551C7.22731 25.3551 7.22731 25.3705 7.22731 25.3705V26.9217C7.22731 26.9678 7.13435 27.0138 6.99492 27.0138C6.85548 27.0138 6.76253 26.9678 6.76253 26.9217V26.6913C6.73929 26.676 6.73929 26.6606 6.73929 26.6452V25.9388C6.64633 25.9234 6.57662 25.8927 6.57662 25.8466V25.7237H6.55338V27.0446C6.55338 27.0599 6.55338 27.0753 6.53014 27.0906V27.3978C6.53014 27.4439 6.43718 27.49 6.29775 27.49C6.15831 27.49 6.06536 27.4439 6.06536 27.3978V26.6452V25.4934C6.04212 25.478 6.04212 25.4627 6.04212 25.4473V24.4951H6.01888V24.9558C6.01888 25.0019 5.90269 25.048 5.78649 25.048C5.64706 25.048 5.5541 25.0019 5.5541 24.9558V24.3261H5.53086V25.4319C5.53086 25.4473 5.53086 25.4627 5.50763 25.478V27.0292C5.50763 27.0753 5.41467 27.1214 5.27524 27.1214C5.1358 27.1214 5.04285 27.0753 5.04285 27.0292V25.9848C5.01961 25.9695 5.01961 25.9541 5.01961 25.9388V23.7272H4.99637V24.5719C4.99637 24.5872 4.99637 24.6026 4.97313 24.6179V24.9097C4.97313 24.9405 4.90341 24.9712 4.8337 24.9865V25.7237C4.8337 25.7391 4.8337 25.7391 4.81046 25.7852V25.8313C4.81046 25.8773 4.7175 25.9234 4.57807 25.9234C4.43863 25.9234 4.34568 25.8773 4.34568 25.8313V24.5872C4.2992 24.6026 4.27596 24.6026 4.22948 24.6026C4.09005 24.6026 3.99709 24.5565 3.99709 24.5104C3.97386 24.4951 3.97386 24.4797 3.97386 24.4644V22.7903C3.95062 22.7903 3.95062 22.7749 3.95062 22.7749V23.2203C3.95062 23.2357 3.95062 23.251 3.92738 23.2664V23.6196C3.92738 23.635 3.92738 23.6504 3.90414 23.6657V23.7272C3.90414 23.7732 3.81118 23.8193 3.67175 23.8193C3.53232 23.8193 3.43936 23.7732 3.43936 23.7272V23.4353V23.3586C3.39288 23.3739 3.36964 23.3739 3.32317 23.3739C3.18373 23.3739 3.09078 23.3278 3.09078 23.2818V22.4371C3.06754 22.4217 3.06754 22.4063 3.06754 22.391V21.6691C2.97458 21.6538 2.90487 21.6231 2.90487 21.577V21.2237C2.88163 21.2084 2.88163 21.193 2.88163 21.1777V20.8091H2.83515V21.8688C2.83515 21.9149 2.74219 21.9609 2.60276 21.9609H2.57952H2.55628H2.46333V22.3295V23.0514C2.46333 23.0667 2.46333 23.0821 2.44009 23.0975V25.3091C2.44009 25.3244 2.44009 25.3398 2.41685 25.3551V26.0923C2.41685 26.1077 2.41685 26.1231 2.39361 26.1384V26.1999C2.39361 26.2459 2.30065 26.292 2.16122 26.292C2.02179 26.292 1.92883 26.2459 1.92883 26.1999V25.9848C1.90559 25.9695 1.90559 25.9541 1.90559 25.9388V25.4166V24.6947C1.88235 24.6794 1.88235 24.664 1.88235 24.6487V22.2681C1.85911 22.3142 1.7894 22.3449 1.6732 22.3449C1.53377 22.3449 1.44081 22.2988 1.44081 22.2528V22.1606C1.41757 22.1452 1.41757 22.1299 1.41757 22.1145V21.6691V21.1162C1.39434 21.1162 1.3711 21.1316 1.32462 21.1316V21.5616C1.32462 21.6077 1.23166 21.6538 1.09223 21.6538C0.952796 21.6538 0.85984 21.6077 0.85984 21.5616V21.4541C0.836601 21.4388 0.836601 21.4234 0.836601 21.408V21.1316C0.790123 21.1009 0.766885 21.0855 0.766885 21.0548V20.763C0.627451 20.763 0.534495 20.7169 0.534495 20.6708V20.5633H0.464778C0.325345 20.5633 0.232389 20.5173 0.232389 20.4712V20.4558C0.20915 20.4405 0.20915 20.4251 0.20915 20.4098V20.2562C0.185911 20.2408 0.185911 20.2254 0.185911 20.2101V20.1026C0.116195 20.0872 0.0697168 20.0565 0.0697168 20.0258C0.0464779 20.0104 0.0464778 19.9951 0.0464778 19.9797V19.8415C0.0232389 19.8261 0.0232389 19.8108 0.0232389 19.7954C0 19.7801 0 19.7647 0 19.7493V19.734V19.6879V19.6572C0 19.6111 0.0929557 19.565 0.232389 19.565H0.255628H0.278867H0.348584V19.3961V19.3193C0.348584 19.3039 0.348584 19.2886 0.371823 19.2732V18.2442C0.371823 18.2289 0.371823 18.2135 0.395062 18.1981V18.0753C0.395062 18.0292 0.488017 17.9831 0.627451 17.9831C0.673929 17.9831 0.720407 17.9831 0.743646 17.9985V17.8603C0.743646 17.8142 0.836601 17.7681 0.952796 17.7681V17.5992C0.952796 17.5838 0.952796 17.5685 0.976035 17.5531V16.8313C0.976035 16.7852 1.06899 16.7391 1.20842 16.7391C1.34786 16.7391 1.44081 16.7852 1.44081 16.8313V17.0923C1.46405 17.1077 1.46405 17.1231 1.46405 17.1384V18.8893H1.48729H1.51053C1.51053 18.8739 1.51053 18.8586 1.53377 18.8432V18.3671C1.53377 18.3517 1.53377 18.3364 1.55701 18.321V17.8449C1.55701 17.8295 1.55701 17.8142 1.58025 17.7988V17.5838C1.58025 17.5685 1.58025 17.5531 2.60276 17.5224V16.3398C2.60276 16.3244 2.60276 16.3091 2.626 16.2937V16.2169C2.626 16.2016 2.626 16.1862 2.64924 16.1708V16.0787C2.64924 16.0326 2.74219 15.9865 2.88163 15.9865C3.02106 15.9865 3.11402 16.0326 3.11402 16.0787V16.8313V17.6299C3.13725 17.6452 3.13725 17.6606 3.13725 17.676V17.8295C3.16049 17.8295 3.16049 17.8449 3.18373 17.8449V17.4456C3.18373 17.4302 3.18373 17.4149 3.20697 17.3995V17.1384C3.20697 17.0923 3.29993 17.0463 3.41612 17.0463V16.8927C3.41612 16.8773 3.41612 16.862 3.43936 16.8466V15.8022V15.4644C3.43936 15.4183 3.53232 15.3722 3.67175 15.3722H3.76471V15.1265V14.4814C3.76471 14.4661 3.76471 14.4507 3.78794 14.4353V14.3739V13.8824C3.78794 13.8364 3.8809 13.7903 4.02033 13.7903C4.15977 13.7903 4.25272 13.8364 4.25272 13.8824V15.5719C4.27596 15.5872 4.27596 15.6026 4.27596 15.6179V17.077C4.2992 17.0923 4.2992 17.1077 4.2992 17.1231V17.2459C4.32244 17.2459 4.32244 17.2306 4.32244 17.2306V16.0633C4.32244 16.048 4.32244 16.0326 4.34568 16.0173V15.2954C4.34568 15.2493 4.43863 15.2033 4.57807 15.2033C4.7175 15.2033 4.81046 15.2493 4.81046 15.2954V16.9848H4.8337V16.5241V14.7886C4.8337 14.7732 4.8337 14.7579 4.85694 14.7425V12.3313V11.4558C4.85694 11.4405 4.85694 11.4251 4.88017 11.4097V10.3961C4.88017 10.35 4.97313 10.3039 5.11256 10.3039C5.252 10.3039 5.34495 10.35 5.34495 10.3961V11.1333C5.36819 11.1487 5.36819 11.164 5.36819 11.1794V13.9132V16.2783C5.39143 16.2937 5.39143 16.3091 5.39143 16.3244V16.4319C5.41467 16.4319 5.41467 16.4166 5.41467 16.4166V15.449V14.7118C5.41467 14.6657 5.50763 14.6196 5.64706 14.6196C5.78649 14.6196 5.87945 14.6657 5.87945 14.7118V15.0036C5.90269 15.0036 5.92593 15.019 5.94916 15.019V14.2664C5.94916 14.2203 6.04212 14.1743 6.18155 14.1743C6.32099 14.1743 6.41394 14.2203 6.41394 14.2664V16.6777C6.43718 16.6777 6.43718 16.6623 6.43718 16.6623V12.9917C6.43718 12.9763 6.43718 12.9609 6.46042 12.9456V10.8415V9.78176C6.46042 9.73569 6.55338 9.68961 6.69281 9.68961C6.83224 9.68961 6.9252 9.73569 6.9252 9.78176V10.8415V11.6708C6.94844 11.6862 6.94844 11.7016 6.94844 11.7169V13.1606C6.97168 13.1606 6.97168 13.1452 6.97168 13.1452V11.5633C6.97168 11.5173 7.06463 11.4712 7.20407 11.4712C7.3435 11.4712 7.43646 11.5173 7.43646 11.5633V13.176C7.45969 13.176 7.45969 13.1913 7.45969 13.1913V11.8244V11.1333C7.45969 11.1179 7.45969 11.1026 7.48293 11.0872V10.3654C7.48293 10.3193 7.57589 10.2732 7.71532 10.2732C7.85476 10.2732 7.94771 10.3193 7.94771 10.3654V11.4097V13.5753C7.97095 13.5753 7.97095 13.5599 7.97095 13.5599V11.8398C7.97095 11.7937 8.06391 11.7476 8.20334 11.7476C8.34277 11.7476 8.43573 11.7937 8.43573 11.8398V12.0855C8.45897 12.0855 8.45897 12.1009 8.45897 12.1009V10.135C8.45897 10.0889 8.55192 10.0429 8.69136 10.0429C8.83079 10.0429 8.92375 10.0889 8.92375 10.135V10.3654C8.94699 10.3807 8.94699 10.3961 8.94699 10.4115V13.0685V13.3142C8.97023 13.3142 8.97022 13.2988 8.97022 13.2988V13.2835C8.97022 13.2374 9.06318 13.1913 9.20261 13.1913C9.27233 13.1913 9.34205 13.2067 9.38853 13.2374V11.6555C9.38853 11.6401 9.38853 11.6248 9.41176 11.6094V8.93705C9.41176 8.92169 9.41176 8.90634 9.435 8.89098V8.76811C9.435 8.72204 9.52796 8.67596 9.66739 8.67596C9.80683 8.67596 9.89978 8.72204 9.89978 8.76811V10.9644V11.9012C9.99274 11.9166 10.0625 11.9473 10.0625 11.9934V12.6231H10.1554C10.2484 12.6231 10.3413 12.6538 10.3646 12.6999V11.2408C10.3646 11.2254 10.3646 11.2101 10.3878 11.1947V10.7186V9.9507C10.3878 9.90463 10.4808 9.85855 10.6202 9.85855C10.7131 9.85855 10.8061 9.88927 10.8293 9.93535V9.44388C10.8293 9.42852 10.8293 9.41316 10.8526 9.3978V8.21521C10.8526 8.16914 10.9455 8.12306 11.085 8.12306C11.2244 8.12306 11.3174 8.16914 11.3174 8.21521V8.24593C11.3406 8.26128 11.3406 8.27664 11.3406 8.292V12.2698C11.4336 12.2852 11.5033 12.3159 11.5033 12.362V15.019H11.5962C11.7357 15.019 11.8286 15.065 11.8286 15.1111V15.7101V15.7408C11.8519 15.7562 11.8519 15.7715 11.8519 15.7869V16.5548C11.8751 16.5241 11.9448 16.4934 12.061 16.4934C12.2004 16.4934 12.2934 16.5394 12.2934 16.5855V16.693C12.3166 16.693 12.3166 16.7084 12.3166 16.7237C12.3399 16.7391 12.3631 16.7698 12.3631 16.7852V17.891C12.3863 17.9063 12.3863 17.9217 12.3863 17.9371V18.3824H12.4096V17.5377C12.4096 17.5224 12.4096 17.507 12.4328 17.4917V17.3995V17.1538C12.4328 17.1384 12.4328 17.1231 12.4561 17.1077V16.1708C12.4561 16.1555 12.4561 16.1401 12.4793 16.1248V15.7101C12.4793 15.664 12.5723 15.6179 12.7117 15.6179C12.8511 15.6179 12.9441 15.664 12.9441 15.7101V16.5241C12.9673 16.5394 12.9673 16.5548 12.9673 16.5702V16.9541V17.077C12.9906 17.077 12.9906 17.0616 12.9906 17.0616V16.9234V16.4473C12.9906 16.4012 13.0835 16.3551 13.2229 16.3551C13.3624 16.3551 13.4553 16.4012 13.4553 16.4473V16.5548L13.4553 16.5548C13.5018 16.5855 13.5251 16.6009 13.5251 16.6316V16.693C13.5483 16.7084 13.5715 16.7391 13.5715 16.7545V16.8927C13.5948 16.908 13.5948 16.9234 13.5948 16.9388V17.0002H13.6877C13.8272 17.0002 13.9201 17.0463 13.9201 17.0923V17.7067V17.9831C13.9434 17.9985 13.9434 18.0138 13.9434 18.0292V18.1367C14.0595 18.1521 14.1293 18.1828 14.1293 18.2289V19.1657C14.1757 19.1657 14.199 19.1811 14.2222 19.1964V18.9968V18.3057C14.2222 18.2749 14.2687 18.2442 14.3384 18.2289V18.1521C14.3384 18.1367 14.3384 18.1214 14.3617 18.106V18.0138V17.077C14.3617 17.0309 14.4546 16.9848 14.594 16.9848C14.7335 16.9848 14.8264 17.0309 14.8264 17.077V17.5224C14.8497 17.5377 14.8497 17.5531 14.8497 17.5685V18.0599C14.8497 18.0292 14.8729 17.9985 14.9194 17.9831V16.4012C14.9194 16.3859 14.9194 16.3705 14.9426 16.3551V15.9712C14.9426 15.9251 15.0356 15.879 15.175 15.879C15.3145 15.879 15.4074 15.9251 15.4074 15.9712V16.1094C15.5468 16.1094 15.6398 16.1555 15.6398 16.2016V16.8005C15.6863 16.8313 15.7095 16.8466 15.7095 16.8773V16.8927C15.7328 16.908 15.7328 16.9234 15.7328 16.9388V18.3364C15.756 18.3517 15.756 18.3671 15.756 18.3824V18.6128C15.8025 18.6128 15.8257 18.6435 15.8489 18.6589V18.5975C15.8489 18.5821 15.8489 18.5667 15.8722 18.5514V18.3824C15.8722 18.3671 15.8722 18.3517 15.8954 18.3364V18.0906C15.8954 18.0446 15.9884 17.9985 16.1278 17.9985C16.2208 17.9985 16.3137 18.0292 16.337 18.0753H16.4067H16.4299C16.4532 18.0753 16.4764 18.0599 16.5229 18.0599V18.0138C16.5229 17.9831 16.5461 17.9524 16.5926 17.9371V17.6606C16.5926 17.6452 16.5926 17.6299 16.6158 17.6145V17.4302C16.6158 17.4149 16.6158 17.3995 16.6391 17.3842V17.0923C16.6391 17.0463 16.732 17.0002 16.8715 17.0002C16.8947 16.9848 16.9179 16.9848 16.9644 16.9848C17.1038 16.9848 17.1968 17.0309 17.1968 17.077V17.7681V17.9678C17.22 17.9831 17.22 17.9985 17.22 18.0138V18.0292C17.2433 18.0292 17.2433 18.0446 17.2433 18.0446V17.9678C17.2433 17.9524 17.2433 17.9371 17.2665 17.9217V17.1845C17.2665 17.1384 17.3595 17.0923 17.4989 17.0923C17.6383 17.0923 17.7313 17.1384 17.7313 17.1845V17.5685V17.6299C17.7545 17.6452 17.7545 17.6606 17.7545 17.676V18.49C17.7778 18.49 17.7778 18.5053 17.801 18.5053C17.8243 18.5053 17.8243 18.5053 17.8475 18.5207V18.3364C17.8475 18.2903 17.894 18.2596 17.9869 18.2442V18.2289V18.2135C17.9869 18.1674 18.0799 18.1214 18.2193 18.1214C18.3588 18.1214 18.4517 18.1674 18.4517 18.2135V18.4746C18.4749 18.4746 18.4982 18.49 18.5214 18.49V18.0906C18.5214 18.0753 18.5214 18.0599 18.5447 18.0446V18.0292C18.5447 17.9831 18.6376 17.9371 18.7771 17.9371C18.9165 17.9371 19.0094 17.9831 19.0094 18.0292V18.1981C19.0327 18.2135 19.0327 18.2289 19.0327 18.2442V18.3671V18.3978C19.0559 18.4132 19.0559 18.4285 19.0559 18.4439V18.9353H19.1024V18.8586V18.705C19.1024 18.705 19.1024 18.6896 19.1256 18.6896V18.9353H19.1489C19.2883 18.9353 19.3813 18.9814 19.3813 19.0275V19.1196C19.4045 19.135 19.4045 19.1504 19.4045 19.1657V19.4422V19.8568C19.4277 19.8722 19.4277 19.8876 19.4277 19.9029V19.9183V19.9797C19.451 19.9951 19.451 20.0104 19.451 20.0258V20.3637C19.4742 20.3637 19.4742 20.379 19.4742 20.379V19.5036C19.4742 19.4882 19.4742 19.4729 19.4975 19.4575V18.6282C19.4975 18.6128 19.4975 18.5975 19.5207 18.5821V18.3978C19.5207 18.3824 19.5207 18.3671 19.5439 18.3517V17.9371V17.5224C19.5439 17.507 19.5439 17.4917 19.5672 17.4763V16.8773V16.4166C19.5672 16.4012 19.5672 16.3859 19.5904 16.3705V15.7254V15.3568C19.5904 15.3415 19.5904 15.3261 19.6137 15.3108V14.8807C19.6137 14.8654 19.6137 14.85 19.6369 14.8347V14.7732V14.6657C19.6369 14.6196 19.7298 14.5736 19.8693 14.5736C20.0087 14.5736 20.1017 14.6196 20.1017 14.6657V14.8654C20.1249 14.8654 20.1249 14.8807 20.1249 14.8961C20.1946 14.9268 20.2179 14.9422 20.2179 14.9729V15.2801C20.2411 15.2954 20.2411 15.3108 20.2411 15.3261V16.1708C20.3341 16.1862 20.3805 16.2169 20.3805 16.2476V16.3705V16.5241C20.4038 16.5394 20.4038 16.5548 20.4038 16.5702V17.1845V17.8142C20.427 17.8295 20.427 17.8449 20.427 17.8603V18.0753C20.4735 18.0753 20.52 18.0599 20.5664 18.0599C20.7059 18.0599 20.7988 18.106 20.7988 18.1521V18.321V18.49C20.8221 18.5053 20.8221 18.5207 20.8221 18.536V20.0872H20.8453V19.3654C20.8453 19.35 20.8453 19.3347 20.8686 19.3193V19.0121V18.7971C20.8686 18.7818 20.8686 18.7664 20.8918 18.751V18.5975V18.2903C20.8918 18.2749 20.8918 18.2596 20.915 18.2442V17.9371V17.7067C20.915 17.6606 21.008 17.6145 21.1474 17.6145C21.2171 17.6145 21.2636 17.6299 21.3101 17.6452V16.8927C21.3101 16.8773 21.3101 16.862 21.3333 16.8466V16.7852C21.3333 16.7391 21.4263 16.693 21.5425 16.693V16.3091C21.5425 16.263 21.6354 16.2169 21.7749 16.2169C21.9143 16.2169 22.0073 16.263 22.0073 16.3091V17.3381C22.0305 17.3534 22.0305 17.3688 22.0305 17.3842V17.5838C22.0537 17.5992 22.0537 17.6145 22.0537 17.6299V18.6589H22.077C22.1467 18.6589 22.1932 18.6743 22.2397 18.6896V18.536C22.2397 18.5053 22.2629 18.4746 22.3094 18.4592V17.7835C22.3094 17.7528 22.3326 17.7374 22.3558 17.722V17.0463C22.3558 17.0309 22.3558 17.0156 22.3791 17.0002V16.8005C22.3791 16.7698 22.4023 16.7545 22.4256 16.7391C22.4256 16.7237 22.4256 16.7084 22.4488 16.693V16.4166V16.048C22.4488 16.0019 22.5418 15.9558 22.6812 15.9558C22.8206 15.9558 22.9136 16.0019 22.9136 16.048V16.2937C22.9368 16.3091 22.9368 16.3244 22.9368 16.3398V16.9234V17.0923C22.9601 17.1077 22.9601 17.1231 22.9601 17.1384V17.5838C23.0065 17.6145 23.0298 17.6299 23.0298 17.6606V18.106C23.0763 18.0906 23.1227 18.0753 23.1924 18.0753C23.2622 18.0753 23.3086 18.0906 23.3551 18.106V16.7391C23.3551 16.7237 23.3551 16.7084 23.3784 16.693V16.0326C23.3784 16.0173 23.3784 16.0019 23.4016 15.9865V15.7562C23.4016 15.7101 23.4946 15.664 23.634 15.664C23.7734 15.664 23.8664 15.7101 23.8664 15.7562V16.1401C23.9129 16.1555 23.9593 16.1708 23.9826 16.2016V15.5258C23.9826 15.4797 24.0755 15.4336 24.215 15.4336V12.7613C24.215 12.7459 24.215 12.7306 24.2382 12.7152V9.67425V8.90634C24.2382 8.86026 24.3312 8.81419 24.4706 8.81419C24.5403 8.81419 24.61 8.82954 24.6565 8.86026V6.95582C24.6565 6.90975 24.7495 6.86367 24.8889 6.86367C24.9586 6.86367 25.0283 6.87903 25.0748 6.90975V6.74081C25.0748 6.69473 25.1678 6.64866 25.3072 6.64866C25.3769 6.64866 25.4466 6.66402 25.4931 6.69473V5.29712C25.4931 5.2664 25.5628 5.23569 25.6325 5.22033V4.39098C25.6325 4.3449 25.7255 4.29883 25.8649 4.29883C26.0044 4.29883 26.0973 4.3449 26.0973 4.39098V5.38927C26.1206 5.40463 26.1206 5.41999 26.1206 5.43535V7.84661H26.1438C26.2832 7.84661 26.3762 7.89268 26.3762 7.93876V8.03091C26.3994 8.00019 26.4691 7.96948 26.5853 7.96948C26.655 7.96948 26.7248 7.98483 26.7712 8.01555V7.69303C26.7712 7.64695 26.8642 7.60088 27.0036 7.60088C27.1431 7.60088 27.236 7.64695 27.236 7.69303V7.75446C27.2593 7.76982 27.2593 7.78518 27.2593 7.80053V7.87733C27.3057 7.87733 27.329 7.90804 27.3522 7.9234V6.54115C27.3522 6.49507 27.4452 6.449 27.5846 6.449H27.6776V6.31077C27.6776 6.2647 27.7705 6.21862 27.91 6.21862C28.0494 6.21862 28.1423 6.2647 28.1423 6.31077V6.92511C28.2353 6.94047 28.2818 6.97118 28.2818 7.0019V7.98483H28.3747C28.5142 7.98483 28.6071 8.03091 28.6071 8.07698V8.99849C28.6304 8.96777 28.6536 8.95241 28.7233 8.93705V8.13842C28.7233 8.09234 28.8163 8.04627 28.9557 8.04627H29.0487V5.48142C29.0487 5.46606 29.0487 5.45071 29.0719 5.43535V5.2664C29.0719 5.22033 29.1649 5.17425 29.3043 5.17425C29.374 5.17425 29.4437 5.18961 29.4902 5.20497C29.6064 5.22033 29.6761 5.25105 29.6761 5.29712V6.43364H29.7691C29.9085 6.43364 30.0015 6.47972 30.0015 6.52579V8.87562C30.0247 8.89098 30.0247 8.90634 30.0247 8.92169V10.6111C30.0944 10.6265 30.1409 10.6572 30.1409 10.6879V10.7493C30.1641 10.7647 30.1641 10.7801 30.1641 10.7954V12.6077H30.2571C30.3965 12.6077 30.4895 12.6538 30.4895 12.6999V12.7152C30.5127 12.7306 30.5127 12.7459 30.5127 12.7613V16.7698C30.5359 16.7698 30.5359 16.7852 30.5592 16.7852V15.6026C30.5592 15.5872 30.5592 15.5719 30.5824 15.5565V15.3568C30.5824 15.3108 30.6754 15.2647 30.8148 15.2647C30.9542 15.2647 31.0472 15.3108 31.0472 15.3568V16.5702C31.1169 16.5855 31.1634 16.6162 31.1634 16.647C31.2099 16.6162 31.2796 16.6009 31.3725 16.6009C31.512 16.6009 31.6049 16.647 31.6049 16.693V16.7545C31.6282 16.7545 31.6282 16.7698 31.6282 16.7698V16.5087C31.6282 16.4934 31.6514 16.478 31.6747 16.4627Z" fill="#1D94A4"/>
<line x1="18" y1="0.298828" x2="18" y2="35.2988" stroke="#D65649" stroke-width="2" stroke-dasharray="2 2"/>
</svg>
