<?xml version="1.0" encoding="UTF-8" standalone="no"?>
<!-- Created with Inkscape (http://www.inkscape.org/) -->

<svg
   xmlns:dc="http://purl.org/dc/elements/1.1/"
   xmlns:cc="http://creativecommons.org/ns#"
   xmlns:rdf="http://www.w3.org/1999/02/22-rdf-syntax-ns#"
   xmlns:svg="http://www.w3.org/2000/svg"
   xmlns="http://www.w3.org/2000/svg"
   xmlns:sodipodi="http://sodipodi.sourceforge.net/DTD/sodipodi-0.dtd"
   xmlns:inkscape="http://www.inkscape.org/namespaces/inkscape"
   width="12.959394mm"
   height="13.34299mm"
   viewBox="0 0 45.919114 47.278311"
   id="svg5543"
   version="1.1"
   inkscape:version="0.91 r13725"
   sodipodi:docname="next_disabled.svg">
  <defs
     id="defs5545">
    <inkscape:path-effect
       is_visible="true"
       id="path-effect5517-6-1"
       effect="spiro" />
    <inkscape:path-effect
       effect="spiro"
       id="path-effect5574-5-5"
       is_visible="true" />
  </defs>
  <sodipodi:namedview
     id="base"
     pagecolor="#ffffff"
     bordercolor="#666666"
     borderopacity="1.0"
     inkscape:pageopacity="0.0"
     inkscape:pageshadow="2"
     inkscape:zoom="3.959798"
     inkscape:cx="244.12094"
     inkscape:cy="-44.339354"
     inkscape:document-units="px"
     inkscape:current-layer="layer1"
     showgrid="false"
     fit-margin-top="0"
     fit-margin-left="0"
     fit-margin-right="0"
     fit-margin-bottom="0"
     inkscape:window-width="2560"
     inkscape:window-height="1377"
     inkscape:window-x="1592"
     inkscape:window-y="-8"
     inkscape:window-maximized="1" />
  <metadata
     id="metadata5548">
    <rdf:RDF>
      <cc:Work
         rdf:about="">
        <dc:format>image/svg+xml</dc:format>
        <dc:type
           rdf:resource="http://purl.org/dc/dcmitype/StillImage" />
        <dc:title />
      </cc:Work>
    </rdf:RDF>
  </metadata>
  <g
     inkscape:label="Layer 1"
     inkscape:groupmode="layer"
     id="layer1"
     transform="translate(1411.531,-57.294477)">
    <g
       style="stroke:#bfb8c0;stroke-opacity:1"
       transform="matrix(-1,0,0,1,-1200.0267,-213.81956)"
       id="g9423">
      <g
         style="stroke:#bfb8c0;stroke-opacity:1"
         transform="matrix(-0.94396729,0,0,0.92247561,494.0291,23.096361)"
         id="g9425">
        <path
           style="fill:none;fill-opacity:1;fill-rule:evenodd;stroke:#bfb8c0;stroke-width:7.50139666;stroke-linecap:butt;stroke-linejoin:miter;stroke-miterlimit:4;stroke-dasharray:none;stroke-opacity:1"
           d="m 302.21148,271.42557 21.5199,22.96539 -21.69939,23.15694"
           id="path9427"
           inkscape:path-effect="#path-effect5517-6-1"
           inkscape:original-d="m 302.21148,271.42557 21.5199,22.96539 -21.69939,23.15694"
           inkscape:connector-curvature="0" />
        <path
           inkscape:connector-curvature="0"
           inkscape:original-d="m 321.27996,271.42557 21.5199,22.96539 -21.69939,23.15694"
           inkscape:path-effect="#path-effect5574-5-5"
           id="path9429"
           d="m 321.27996,271.42557 21.5199,22.96539 -21.69939,23.15694"
           style="fill:none;fill-opacity:1;fill-rule:evenodd;stroke:#bfb8c0;stroke-width:7.50139666;stroke-linecap:butt;stroke-linejoin:miter;stroke-miterlimit:4;stroke-dasharray:none;stroke-opacity:1" />
      </g>
    </g>
    <path
       style="fill:#09606d;fill-opacity:1"
       d="M 2.5876959,44.882394 C 1.2543243,43.664286 0.19307967,42.584978 0.22937438,42.48393 0.26566911,42.382882 4.2728404,38.141461 9.1341996,33.058553 13.995559,27.975642 18.005467,23.723996 18.045106,23.610448 18.084746,23.4969 14.086291,19.211302 9.1596516,14.086898 L 0.20212488,4.7697992 2.1427809,2.9385947 C 3.2101415,1.931432 4.3817629,0.88260773 4.7463835,0.60787397 L 5.4093305,0.10835803 16.552541,11.724472 c 6.128767,6.388863 11.143212,11.70594 11.143212,11.815727 0,0.237384 -22.1204459,23.368846 -22.4539422,23.4802 -0.1263918,0.0422 -1.3207436,-0.9199 -2.6541149,-2.138005 z"
       id="path5523"
       inkscape:connector-curvature="0"
       transform="translate(-1411.531,57.294477)" />
    <path
       style="fill:#09606d;fill-opacity:1"
       d="m 20.61715,44.889674 c -1.315368,-1.199144 -2.391578,-2.262297 -2.391578,-2.362562 0,-0.100263 3.96018,-4.309531 8.800399,-9.353929 4.840219,-5.044397 8.857594,-9.320682 8.9275,-9.502854 0.07422,-0.19341 -3.561118,-4.16457 -8.737264,-9.544389 -4.875401,-5.0672414 -8.864365,-9.2776355 -8.864365,-9.3564312 0,-0.1432015 2.339056,-2.3677759 4.078505,-3.87888881 L 23.352126,0.08984257 32.25844,9.3746197 c 4.898474,5.1066273 9.978695,10.3782433 11.289381,11.7147013 l 2.383069,2.429924 -11.298535,11.775346 c -6.214193,6.476439 -11.371679,11.775346 -11.46108,11.775346 -0.0894,0 -1.238758,-0.981118 -2.554125,-2.180263 z"
       id="path5525"
       inkscape:connector-curvature="0"
       transform="translate(-1411.531,57.294477)" />
  </g>
</svg>
