<?xml version="1.0" encoding="UTF-8" standalone="no"?>
<!-- Created with Inkscape (http://www.inkscape.org/) -->

<svg
   xmlns:dc="http://purl.org/dc/elements/1.1/"
   xmlns:cc="http://creativecommons.org/ns#"
   xmlns:rdf="http://www.w3.org/1999/02/22-rdf-syntax-ns#"
   xmlns:svg="http://www.w3.org/2000/svg"
   xmlns="http://www.w3.org/2000/svg"
   xmlns:sodipodi="http://sodipodi.sourceforge.net/DTD/sodipodi-0.dtd"
   xmlns:inkscape="http://www.inkscape.org/namespaces/inkscape"
   width="5.7602139mm"
   height="5.9307146mm"
   viewBox="0 0 20.410207 21.014343"
   id="svg5651"
   version="1.1"
   inkscape:version="0.91 r13725"
   sodipodi:docname="prev_disabled.svg">
  <defs
     id="defs5653">
    <inkscape:path-effect
       is_visible="true"
       id="path-effect5517-6-1"
       effect="spiro" />
    <inkscape:path-effect
       effect="spiro"
       id="path-effect5574-5-5"
       is_visible="true" />
  </defs>
  <sodipodi:namedview
     id="base"
     pagecolor="#ffffff"
     bordercolor="#666666"
     borderopacity="1.0"
     inkscape:pageopacity="0.0"
     inkscape:pageshadow="2"
     inkscape:zoom="1.979899"
     inkscape:cx="485.17114"
     inkscape:cy="-235.76326"
     inkscape:document-units="px"
     inkscape:current-layer="layer1"
     showgrid="false"
     fit-margin-top="0"
     fit-margin-left="0"
     fit-margin-right="0"
     fit-margin-bottom="0"
     inkscape:window-width="2560"
     inkscape:window-height="1377"
     inkscape:window-x="1592"
     inkscape:window-y="-8"
     inkscape:window-maximized="1" />
  <metadata
     id="metadata5656">
    <rdf:RDF>
      <cc:Work
         rdf:about="">
        <dc:format>image/svg+xml</dc:format>
        <dc:type
           rdf:resource="http://purl.org/dc/dcmitype/StillImage" />
        <dc:title />
      </cc:Work>
    </rdf:RDF>
  </metadata>
  <g
     inkscape:label="Layer 1"
     inkscape:groupmode="layer"
     id="layer1"
     transform="translate(1487.3479,363.85925)">
    <g
       id="g9415"
       transform="matrix(0.4444817,0,0,0.4444817,-1560.9475,-484.36448)">
      <g
         id="g9417"
         transform="matrix(-0.94396729,0,0,0.92247561,494.0291,23.096361)">
        <path
           inkscape:connector-curvature="0"
           inkscape:original-d="m 302.21148,271.42557 21.5199,22.96539 -21.69939,23.15694"
           inkscape:path-effect="#path-effect5517-6-1"
           id="path9419"
           d="m 302.21148,271.42557 21.5199,22.96539 -21.69939,23.15694"
           style="opacity:0.25;fill:none;fill-rule:evenodd;stroke:#000080;stroke-width:7.50139666;stroke-linecap:butt;stroke-linejoin:miter;stroke-miterlimit:4;stroke-dasharray:none;stroke-opacity:1" />
        <path
           style="opacity:0.25;fill:none;fill-rule:evenodd;stroke:#000080;stroke-width:7.50139666;stroke-linecap:butt;stroke-linejoin:miter;stroke-miterlimit:4;stroke-dasharray:none;stroke-opacity:1"
           d="m 321.27996,271.42557 21.5199,22.96539 -21.69939,23.15694"
           id="path9421"
           inkscape:path-effect="#path-effect5574-5-5"
           inkscape:original-d="m 321.27996,271.42557 21.5199,22.96539 -21.69939,23.15694"
           inkscape:connector-curvature="0" />
      </g>
    </g>
    <path
       style="fill:#09606d;fill-opacity:1"
       d="M 5.1588272,15.667512 0.23529738,10.593577 4.9385645,5.551088 C 7.5253616,2.7777191 9.8981074,0.50709326 10.211333,0.50525267 10.524559,0.50341419 11.073128,0.854099 11.430377,1.284557 11.98131,1.9483904 11.740556,2.427626 9.8445334,4.4412837 8.6150707,5.7470252 6.8252648,7.6711916 5.8671866,8.7172091 l -1.7419603,1.9018499 4.0080572,4.031703 4.0080575,4.031703 -1.029492,1.029491 -1.029492,1.029492 -4.9235298,-5.073936 z"
       id="path4139"
       inkscape:connector-curvature="0"
       transform="translate(-1487.3479,-363.85925)" />
    <path
       style="fill:#09606d;fill-opacity:1"
       d="M 13.206897,15.683837 8.2091633,10.667279 12.895394,5.5845927 c 2.577426,-2.7954776 4.831694,-5.07545817 5.009482,-5.06662343 0.177789,0.008835 0.768392,0.35265027 1.312451,0.76403463 0.95143,0.7194127 0.87355,0.8682551 -2.039717,3.8982778 -1.665904,1.7326687 -3.460904,3.6702595 -3.988889,4.3057575 l -0.959974,1.1554518 3.996907,4.020487 c 3.995339,4.018909 3.996511,4.020883 2.987942,5.029452 -1.008569,1.008569 -1.010926,1.006996 -6.006699,-4.007593 z"
       id="path4141"
       inkscape:connector-curvature="0"
       transform="translate(-1487.3479,-363.85925)" />
  </g>
</svg>
