<svg width="34" height="37" viewBox="0 0 34 37" fill="none" xmlns="http://www.w3.org/2000/svg">
<path d="M0.999293 8.01812C0.724035 8.04697 0.469329 8.17711 0.284658 8.38325C0.0999861 8.58939 -0.00146418 8.85683 1.59709e-05 9.13359V31.0349C4.55498e-05 31.3307 0.117578 31.6145 0.326763 31.8236C0.535948 32.0328 0.819655 32.1504 1.11549 32.1504C4.98259 32.1504 7.90516 32.3517 10.2252 32.9638C12.5452 33.5758 14.2749 34.5526 15.9304 36.2637C16.0344 36.3712 16.159 36.4567 16.2967 36.5151C16.4344 36.5735 16.5825 36.6036 16.7321 36.6036C16.8817 36.6036 17.0298 36.5735 17.1675 36.5151C17.3052 36.4567 17.4298 36.3712 17.5338 36.2637C19.1893 34.5526 20.919 33.5758 23.239 32.9638C25.559 32.3517 28.4816 32.1504 32.3487 32.1504C32.6445 32.1504 32.9282 32.0328 33.1374 31.8236C33.3466 31.6145 33.4641 31.3307 33.4642 31.0349V9.13359C33.4641 8.83775 33.3466 8.55405 33.1374 8.34486C32.9282 8.13568 32.6445 8.01814 32.3487 8.01812C28.4075 8.01812 25.3149 8.20331 22.6697 8.9012C20.3821 9.50472 18.4492 10.5464 16.7321 12.0849C15.015 10.5464 13.082 9.50472 10.7945 8.9012C8.14933 8.20331 5.05669 8.01812 1.11549 8.01812C1.07678 8.0161 1.038 8.0161 0.999293 8.01812ZM2.64918 10.8901C5.91808 10.9311 8.15709 11.123 10.2252 11.6686C12.4002 12.2424 13.8267 13.147 15.3893 14.6664V32.6186C13.9563 31.5657 12.6019 30.8063 10.7945 30.3295C8.42594 29.7046 6.02418 29.5197 2.64918 29.4813V10.8901ZM30.7295 10.8901V29.4813C27.3545 29.5197 25.0382 29.7046 22.6697 30.3295C20.8623 30.8063 19.5524 31.5657 18.1194 32.6186V14.6664C19.6819 13.147 21.064 12.2424 23.239 11.6686C25.3071 11.123 27.4606 10.9311 30.7295 10.8901Z" fill="#979797"/>
<path d="M20.2987 17.2519C20.2987 15.7103 20.4859 14.4825 20.8603 13.5686C21.2347 12.6547 21.9174 11.7572 22.9084 10.8763C23.9104 9.9844 24.5766 9.26315 24.9069 8.71259C25.2373 8.15101 25.4025 7.5619 25.4025 6.94526C25.4025 5.08434 24.5436 4.15388 22.8258 4.15388C22.011 4.15388 21.3558 4.40714 20.8603 4.91367C20.3758 5.40918 20.1225 6.09739 20.1005 6.9783H15.3105C15.3326 4.87513 16.0098 3.22893 17.3421 2.0397C18.6855 0.850473 20.5134 0.255859 22.8258 0.255859C25.1602 0.255859 26.9716 0.822945 28.2599 1.95712C29.5482 3.08027 30.1924 4.67142 30.1924 6.73054C30.1924 7.66651 29.9832 8.55292 29.5648 9.38979C29.1463 10.2156 28.4141 11.1351 27.368 12.1481L26.0301 13.4199C25.1932 14.2238 24.7143 15.1652 24.5931 16.2444L24.5271 17.2519H20.2987ZM19.8197 22.3226C19.8197 21.5849 20.0675 20.9792 20.563 20.5058C21.0695 20.0213 21.7137 19.779 22.4955 19.779C23.2773 19.779 23.9159 20.0213 24.4114 20.5058C24.918 20.9792 25.1712 21.5849 25.1712 22.3226C25.1712 23.0494 24.9235 23.6495 24.428 24.123C23.9435 24.5965 23.2993 24.8332 22.4955 24.8332C21.6916 24.8332 21.042 24.5965 20.5465 24.123C20.062 23.6495 19.8197 23.0494 19.8197 22.3226Z" fill="#D65649"/>
</svg>
