<svg width="40" height="33" viewBox="0 0 40 33" fill="none" xmlns="http://www.w3.org/2000/svg">
<path d="M9.57936 26.2344L6.41724 20.672L8.12876 19.699C8.61777 19.421 9.11755 19.2835 9.62809 19.2864C10.1397 19.2854 10.6196 19.4271 11.0678 19.7115C11.5145 19.9934 11.8848 20.3929 12.1787 20.9099L12.3242 21.1659C12.6181 21.6829 12.7725 22.2034 12.7873 22.7275C12.8047 23.25 12.6828 23.7322 12.4216 24.1738C12.1605 24.6155 11.7874 24.9758 11.3023 25.2549L9.57936 26.2344ZM8.09109 20.9488L10.2021 24.6622L10.756 24.3473C11.2043 24.0924 11.4636 23.7513 11.5339 23.3237C11.6043 22.8962 11.4871 22.4084 11.1824 21.8605L11.0151 21.5663C10.6937 21.0009 10.3333 20.6396 9.93394 20.4825C9.53312 20.3228 9.10731 20.3711 8.65651 20.6273L8.09109 20.9488ZM15.5697 20.1347L14.6566 20.6538L15.8142 22.6901L14.6681 23.3416L11.506 17.7791L13.5728 16.6042C14.2299 16.2306 14.82 16.089 15.3431 16.1792C15.8661 16.2694 16.2797 16.5819 16.5837 17.1167C16.7995 17.4962 16.897 17.8604 16.8762 18.2092C16.8565 18.554 16.7226 18.8964 16.4744 19.2363L18.97 20.8253L19.0004 20.8788L17.7702 21.5781L15.5697 20.1347ZM14.1289 19.7254L15.0534 19.1999C15.3412 19.0363 15.5228 18.837 15.5982 18.602C15.6721 18.3646 15.636 18.1172 15.4897 17.86C15.3406 17.5976 15.1482 17.434 14.9125 17.3692C14.6794 17.3029 14.4087 17.3574 14.1005 17.5325L13.1798 18.0559L14.1289 19.7254ZM22.1539 17.5696L20.1444 18.7119L20.4139 20.0752L19.1952 20.768L18.1038 14.0284L19.1658 13.4247L24.41 17.8035L23.1913 18.4963L22.1539 17.5696ZM19.9261 17.6077L21.3168 16.8171L19.434 15.1325L19.9261 17.6077ZM26.984 13.3326L24.7835 14.5835L26.0757 16.8566L24.9296 17.5082L21.7675 11.9457L25.3892 9.88685L25.9169 10.8152L23.4413 12.2225L24.2579 13.659L26.4585 12.408L26.984 13.3326ZM30.8452 8.01359L29.1413 8.98221L31.7757 13.6163L30.6296 14.2679L27.9952 9.63374L26.3143 10.5893L25.7865 9.66098L30.3175 7.08524L30.8452 8.01359Z" fill="#1D94A4"/>
<rect x="0.681775" y="18.1409" width="35.328" height="15.8666" rx="2.5" transform="rotate(-29.6172 0.681775 18.1409)" stroke="#1D94A4"/>
</svg>
