<svg width="50" height="71" viewBox="0 0 50 71" fill="none" xmlns="http://www.w3.org/2000/svg">
<path d="M0 6.01999V4.01999H0.5V0.519989H4V0.019989H6V0.519989H14V0.019989H16V0.519989H24V0.019989H26V0.519989H34V0.019989H36V0.519989H44V0.019989H46V0.519989H49.5V4.01999H50V6.01999H49.5V14.02H50V16.02H49.5V24.02H50V26.02H49.5V34.02H50V36.02H49.5V44.02H50V46.02H49.5V54.02H50V56.02H49.5V64.02H50V66.02H49.5V69.52H46V70.02H44V69.52H36V70.02H34V69.52H26V70.02H24V69.52H16V70.02H14V69.52H6V70.02H4V69.52H0.5V66.02H0V64.02H0.5V56.02H0V54.02H0.5V46.02H0V44.02H0.5V36.02H0V34.02H0.5V26.02H0V24.02H0.5V16.02H0V14.02H0.5V6.01999H0Z" fill="#98D0B9"/>
<path d="M0 6.01999V4.01999H0.5V0.519989H4V0.019989H6V0.519989H14V0.019989H16V0.519989H24V0.019989H26V0.519989H34V0.019989H36V0.519989H44V0.019989H46V0.519989H49.5V4.01999H50V6.01999H49.5V14.02H50V16.02H49.5V24.02H50V26.02H49.5V34.02H50V36.02H49.5V44.02H50V46.02H49.5V54.02H50V56.02H49.5V64.02H50V66.02H49.5V69.52H46V70.02H44V69.52H36V70.02H34V69.52H26V70.02H24V69.52H16V70.02H14V69.52H6V70.02H4V69.52H0.5V66.02H0V64.02H0.5V56.02H0V54.02H0.5V46.02H0V44.02H0.5V36.02H0V34.02H0.5V26.02H0V24.02H0.5V16.02H0V14.02H0.5V6.01999H0Z" stroke="black" stroke-dasharray="8 2"/>
<path d="M18.0971 43.5132L17.6579 43.3223L17.1977 43.4544L7.55347 46.2231L12.0081 40.5848L12.6395 39.7855L12.0344 38.9661C10.8864 37.4116 10.3126 35.7199 10.3126 34.0507C10.3126 31.1876 11.9465 28.3566 15.2438 26.138C18.4774 23.9623 22.832 22.7252 27.5203 22.7252C32.2088 22.7252 36.5634 23.9623 39.7969 26.138L39.7969 26.138C43.0944 28.3566 44.7283 31.1876 44.7283 34.0507C44.7283 36.9139 43.0944 39.7449 39.797 41.9634L39.7969 41.9635C36.5634 44.1391 32.2088 45.3763 27.5203 45.3763C24.1357 45.3763 20.8873 44.7259 18.0971 43.5132Z" stroke="black" stroke-width="2"/>
</svg>
