<?xml version="1.0" encoding="UTF-8" standalone="no"?>
<svg
   width="27.528145mm"
   height="26.260841mm"
   viewBox="0 0 27.528145 26.260841"
   xmlns="http://www.w3.org/2000/svg">
  <g
     id="layer1"
     transform="translate(-38.100001,-96.572917)">
    <path
       fill-rule="evenodd"
       clip-rule="evenodd"
       d="m 39.553697,96.930383 c 0.45638,-0.309615 1.019916,-0.424656 1.562868,-0.319378 2.642552,0.51218 6.332854,1.915107 8.332549,3.339068 0.01132,0.0081 0.02267,0.01627 0.03299,0.02463 0.06903,0.05088 0.141129,0.104037 0.217382,0.159787 0.942658,0.69231 2.431336,1.78467 3.604789,3.83349 1.262036,2.20337 2.067666,5.31294 1.984216,9.96537 l -4.131257,-0.0731 c 0.07522,-4.16721 -0.656246,-6.49099 -1.44645,-7.8705 -0.732499,-1.27913 -1.596866,-1.91778 -2.51378,-2.59557 -0.05768,-0.0432 -0.11639,-0.0864 -0.175101,-0.13001 -0.989039,-0.69943 -2.817733,-1.51178 -4.589727,-2.07984 -0.466699,4.18039 -0.129805,8.4672 1.149747,11.75983 0.746918,1.91953 1.773025,3.4004 3.043316,4.37301 1.238356,0.94774 2.826967,1.50706 4.925563,1.41155 2.689939,-0.12277 4.47638,-0.71173 5.693092,-1.53405 1.191022,-0.80434 2.016258,-1.95289 2.57347,-3.54696 0.571765,-1.63396 0.843756,-3.68937 0.911754,-6.19749 0.05159,-1.90357 -0.01429,-3.99124 -0.127793,-6.2624 -1.812132,0.29589 -3.045354,0.69604 -3.834448,1.02892 -0.533664,0.2251 -0.867463,0.42084 -1.043622,0.53633 -0.08758,0.0572 -0.137002,0.0952 -0.153485,0.10827 -0.0608,0.0553 -0.124672,0.10694 -0.19267,0.15465 l -0.370866,0.26249 -2.401517,-3.331687 0.285379,-0.202221 c 0.02577,-0.02204 0.05461,-0.04564 0.08655,-0.07088 0.116443,-0.09303 0.269928,-0.206984 0.465666,-0.335254 0.391504,-0.256963 0.948875,-0.569754 1.706087,-0.889344 1.516512,-0.639392 3.823096,-1.300109 7.211615,-1.605306 0.557477,-0.05027 1.112573,0.126285 1.537229,0.489188 0.424392,0.362876 0.680773,0.880983 0.712788,1.435444 0.176212,3.11997 0.322527,6.09849 0.250296,8.79163 -0.07303,2.68531 -0.365655,5.22041 -1.138238,7.42852 -0.786077,2.24816 -2.084387,4.19338 -4.14999,5.58932 -2.039672,1.37795 -4.643146,2.09577 -7.831745,2.24102 -3.018579,0.13759 -5.583873,-0.68606 -7.641246,-2.26139 -2.026471,-1.55099 -3.436885,-3.73327 -4.372346,-6.14124 -1.858539,-4.7797 -2.005832,-10.83789 -1.0405,-16.158215 0.09787,-0.539776 0.41103,-1.018064 0.867436,-1.327653 z"
       fill="#d65649"
       id="path2"
       style="stroke-width:0.264583" />
    <path
       d="m 63.610963,118.52919 c -1.111515,0 -2.016125,0.89747 -2.016125,1.9992 0,1.10172 0.90461,1.99919 2.016125,1.99919 1.111779,0 2.017183,-0.89747 2.017183,-1.99919 0,-1.10173 -0.905404,-1.9992 -2.017183,-1.9992 z m 0,0.39979 c 0.893233,0 1.613429,0.71385 1.613429,1.59941 0,0.88556 -0.720196,1.5994 -1.613429,1.5994 -0.893233,0 -1.613429,-0.71384 -1.613429,-1.5994 0,-0.88556 0.720196,-1.59941 1.613429,-1.59941 z m -0.705644,0.59981 v 1.99919 h 0.422275 v -0.71834 h 0.321469 l 0.38444,0.71834 h 0.446881 v -0.0188 l -0.446881,-0.81836 c 0.03995,-0.0201 0.103981,-0.041 0.145256,-0.0812 0.05953,-0.0402 0.07911,-0.0786 0.119327,-0.11853 0.04022,-0.0598 0.06191,-0.10239 0.08149,-0.16245 0.02064,-0.0598 0.01958,-0.12013 0.01958,-0.20003 0,-0.0998 -0.02275,-0.1823 -0.06297,-0.26247 -0.02064,-0.0595 -0.07832,-0.11483 -0.138906,-0.17462 -0.08043,-0.0598 -0.145257,-0.10504 -0.246327,-0.12515 -0.08043,-0.0201 -0.18124,-0.0373 -0.30189,-0.0373 z m 0.440796,0.36248 h 0.327819 c 0.100806,0 0.179123,0.0145 0.239977,0.0751 0.0598,0.0598 0.08123,0.12488 0.08123,0.2249 0,0.0405 0.0021,0.0788 -0.01852,0.11879 -0.02037,0.0405 -0.04313,0.0799 -0.06271,0.10002 -0.02064,0.0201 -0.06085,0.0365 -0.101071,0.0558 -0.04022,0.0201 -0.07832,0.0249 -0.138906,0.0249 h -0.327819 z"
       fill="#d65649"
       id="path3"
       style="stroke-width:0.264583" />
  </g>
</svg>
