<?xml version="1.0" encoding="UTF-8" standalone="no"?>
<!-- Created with Inkscape (http://www.inkscape.org/) -->

<svg
   xmlns:dc="http://purl.org/dc/elements/1.1/"
   xmlns:cc="http://creativecommons.org/ns#"
   xmlns:rdf="http://www.w3.org/1999/02/22-rdf-syntax-ns#"
   xmlns:svg="http://www.w3.org/2000/svg"
   xmlns="http://www.w3.org/2000/svg"
   xmlns:sodipodi="http://sodipodi.sourceforge.net/DTD/sodipodi-0.dtd"
   xmlns:inkscape="http://www.inkscape.org/namespaces/inkscape"
   width="1.9069735in"
   height="0.4631348in"
   viewBox="0 0 171.62762 41.682133"
   id="svg2"
   version="1.1"
   inkscape:version="0.91 r13725"
   sodipodi:docname="back-cover-outside.svg">
  <defs
     id="defs4" />
  <sodipodi:namedview
     id="base"
     pagecolor="#ffffff"
     bordercolor="#666666"
     borderopacity="1.0"
     inkscape:pageopacity="0.0"
     inkscape:pageshadow="2"
     inkscape:zoom="1.4"
     inkscape:cx="272.43719"
     inkscape:cy="-208.2445"
     inkscape:document-units="px"
     inkscape:current-layer="layer1"
     showgrid="false"
     units="in"
     inkscape:window-width="1839"
     inkscape:window-height="1177"
     inkscape:window-x="1192"
     inkscape:window-y="468"
     inkscape:window-maximized="1"
     showguides="true"
     inkscape:guide-bbox="true"
     fit-margin-top="0"
     fit-margin-left="0"
     fit-margin-right="0"
     fit-margin-bottom="0">
    <sodipodi:guide
       position="97.459749,-1.3823014"
       orientation="0,1"
       id="guide4248" />
    <sodipodi:guide
       position="163.3722,76.651983"
       orientation="0,1"
       id="guide4292" />
  </sodipodi:namedview>
  <metadata
     id="metadata7">
    <rdf:RDF>
      <cc:Work
         rdf:about="">
        <dc:format>image/svg+xml</dc:format>
        <dc:type
           rdf:resource="http://purl.org/dc/dcmitype/StillImage" />
        <dc:title></dc:title>
      </cc:Work>
    </rdf:RDF>
  </metadata>
  <g
     inkscape:label="Layer 1"
     inkscape:groupmode="layer"
     id="layer1"
     transform="translate(-176.03906,-1003.2368)">
    <path
       style="opacity:1;fill:none;stroke:#4d4d4d;stroke-width:4.99400045;stroke-linejoin:round;stroke-opacity:1;stroke-miterlimit:4;stroke-dasharray:none"
       d="m 194.3279,1034.021 c 0.19203,-10.7554 -3.71319,-13.2522 -6.01786,-14.9807 -2.04864,-1.4724 -6.14596,-3.073 -9.09086,-3.6491 -2.22635,12.3843 0.83587,27.5853 13.20249,27.0163 14.20846,-0.6536 14.02689,-11.4413 13.17371,-26.6962 -7.74637,0.7041 -10.11517,3.0089 -10.11517,3.0089 l -0.44811,0.3201"
       class="st1"
       sodipodi:nodetypes="cccsccc"
       inkscape:export-ydpi="108.54"
       inkscape:export-xdpi="108.54"
       inkscape:export-filename="X:\dev\b36\src\BloomExe\Resources\LogoForSplashScreen.png"
       inkscape:connector-curvature="0"
       id="path4143" />
    <path
       style="fill:#4d4d4d;fill-opacity:1"
       d="m 217.40027,1014.1623 c 0.96973,-0.1293 2.26269,-0.1939 3.68494,-0.3232 1.48693,-0.065 3.1678,-0.1293 5.10725,-0.1293 3.68494,0 6.52944,0.7111 8.46889,2.0688 1.93945,1.3575 2.90918,3.2324 2.90918,5.6243 0,1.6162 -0.38786,2.9092 -1.2283,4.0082 -0.84044,1.099 -2.06873,2.0041 -3.68494,2.7152 1.93945,0.7112 3.42631,1.6162 4.39609,2.8446 0.96973,1.2283 1.48687,2.7152 1.48687,4.5254 0,2.7152 -1.03434,4.9132 -3.16774,6.5294 -2.13341,1.6162 -5.23654,2.392 -9.374,2.392 -1.7455,0 -3.3617,-0.065 -4.97791,-0.1293 -1.55159,-0.065 -2.77989,-0.1939 -3.685,-0.3232 l 0.0647,-29.8029 m 8.92148,26.8291 c 2.58593,0 4.58999,-0.4525 5.94763,-1.3577 1.42225,-0.905 2.1334,-2.2626 2.1334,-4.0081 0,-1.7455 -0.71115,-3.0385 -2.06873,-4.0082 -1.42231,-0.9697 -3.42637,-1.4869 -6.0123,-1.4869 l -4.9133,0 0,10.6023 c 1.5516,0.1939 3.1678,0.2586 4.9133,0.2586 m -0.12929,-13.9641 c 2.26269,0 4.0728,-0.4525 5.36576,-1.4222 1.35764,-0.9051 2.00412,-2.1334 2.00412,-3.685 0,-1.6162 -0.64648,-2.8445 -1.93944,-3.685 -1.29297,-0.8403 -3.10313,-1.2283 -5.36582,-1.2283 -0.96973,0 -1.81017,0 -2.58594,0.065 -0.77576,0.065 -1.48692,0.065 -2.1334,0.1293 l 0,9.7619 4.65472,0.065 z m 19.91168,9.6973 c 0,1.5516 0.25857,2.7152 0.90506,3.4263 0.64648,0.7112 1.55153,1.099 2.6506,1.099 0.51714,0 1.09901,-0.065 1.61621,-0.1939 0.51714,-0.1293 0.96972,-0.2586 1.35758,-0.4525 l 0.96972,3.1031 c -0.5172,0.2586 -1.16368,0.4525 -1.87478,0.5818 -0.77576,0.194 -1.6162,0.2586 -2.52131,0.2586 -0.96973,0 -1.93945,-0.1293 -2.77983,-0.4525 -0.84044,-0.2586 -1.5516,-0.7111 -2.19808,-1.3576 -0.64648,-0.5818 -1.09901,-1.3577 -1.48692,-2.3274 -0.38786,-0.9697 -0.51714,-2.0687 -0.51714,-3.4263 l 0,-24.631 3.87889,0 0,24.3724 0,0 z m 26.11789,-3.8143 c 0,-1.099 -0.19396,-2.198 -0.5172,-3.1678 -0.38786,-0.9697 -0.84038,-1.8747 -1.48686,-2.5859 -0.64649,-0.7111 -1.42231,-1.3576 -2.26269,-1.8101 -0.84044,-0.4526 -1.81017,-0.6465 -2.84456,-0.6465 -2.26269,0 -4.00819,0.7111 -5.23648,2.198 -1.22835,1.487 -1.87483,3.4264 -1.87483,5.8831 0,1.099 0.19395,2.198 0.51719,3.1677 0.38792,1.0344 0.84044,1.8748 1.48693,2.6506 0.64648,0.7758 1.42225,1.3576 2.26269,1.8101 0.84043,0.4526 1.81016,0.6465 2.8445,0.6465 1.09901,0 2.1334,-0.1939 2.97384,-0.5818 0.90505,-0.3879 1.61621,-0.9697 2.26269,-1.6809 0.58181,-0.7111 1.09901,-1.6162 1.42225,-2.5859 0.25857,-0.9698 0.45253,-2.0688 0.45253,-3.2971 m -18.23081,0 c 0,-1.8101 0.25857,-3.4263 0.84044,-4.8486 0.58181,-1.4223 1.35758,-2.6506 2.32731,-3.685 0.96972,-0.9697 2.1334,-1.7455 3.49104,-2.3273 1.35758,-0.5172 2.8445,-0.8404 4.39609,-0.8404 1.55154,0 2.97379,0.2586 4.33143,0.8404 1.35758,0.5172 2.52126,1.293 3.55565,2.3273 0.96973,0.9698 1.81017,2.1981 2.32731,3.6204 0.58186,1.4222 0.84044,3.0384 0.84044,4.784 0,1.7455 -0.25858,3.3617 -0.84044,4.8486 -0.58182,1.4222 -1.35758,2.6505 -2.32731,3.6849 -0.96972,1.0344 -2.19807,1.8102 -3.55565,2.392 -1.35764,0.5818 -2.84456,0.8404 -4.3961,0.8404 -1.61621,0 -3.10313,-0.2586 -4.46071,-0.8404 -1.35763,-0.5818 -2.52131,-1.3576 -3.49104,-2.392 -0.96972,-1.0344 -1.74549,-2.2627 -2.32736,-3.6849 -0.45253,-1.4223 -0.7111,-2.9739 -0.7111,-4.7194 z m 43.18507,0 c 0,-1.099 -0.19396,-2.198 -0.5172,-3.1678 -0.38785,-0.9697 -0.84044,-1.8747 -1.48692,-2.5859 -0.64648,-0.7111 -1.42225,-1.3576 -2.26269,-1.8101 -0.84038,-0.4526 -1.81011,-0.6465 -2.8445,-0.6465 -2.26269,0 -4.00818,0.7111 -5.23654,2.198 -1.22829,1.487 -1.87477,3.4264 -1.87477,5.8831 0,1.099 0.19395,2.198 0.51719,3.1677 0.38786,1.0344 0.84044,1.8748 1.48693,2.6506 0.64648,0.7758 1.42225,1.3576 2.26269,1.8101 0.84038,0.4526 1.8101,0.6465 2.8445,0.6465 1.09901,0 2.1334,-0.1939 2.97384,-0.5818 0.90505,-0.3879 1.61621,-0.9697 2.26269,-1.6809 0.58181,-0.7111 1.09901,-1.6162 1.42225,-2.5859 0.32324,-0.9698 0.45253,-2.0688 0.45253,-3.2971 m -18.23081,0 c 0,-1.8101 0.25857,-3.4263 0.84044,-4.8486 0.58181,-1.4223 1.35758,-2.6506 2.32731,-3.685 0.96972,-0.9697 2.1334,-1.7455 3.49104,-2.3273 1.35758,-0.5172 2.8445,-0.8404 4.39604,-0.8404 1.55159,0 2.97384,0.2586 4.33148,0.8404 1.35758,0.5172 2.52126,1.293 3.55565,2.3273 0.96973,0.9698 1.81011,2.1981 2.32731,3.6204 0.58187,1.4222 0.84044,3.0384 0.84044,4.784 0,1.7455 -0.25857,3.3617 -0.84044,4.8486 -0.58182,1.4222 -1.35758,2.6505 -2.32731,3.6849 -0.96972,1.0344 -2.19807,1.8102 -3.55565,2.392 -1.35764,0.5818 -2.84456,0.8404 -4.3961,0.8404 -1.6162,0 -3.10313,-0.2586 -4.46076,-0.8404 -1.35758,-0.5818 -2.52126,-1.3576 -3.49099,-2.392 -0.96972,-1.0344 -1.74549,-2.2627 -2.32736,-3.6849 -0.45253,-1.4223 -0.7111,-2.9739 -0.7111,-4.7194 l 0,0 z m 29.22102,-7.3699 c 0.77576,-1.2283 1.81016,-2.198 3.03845,-3.0385 1.22836,-0.8404 2.65061,-1.2282 4.20214,-1.2282 1.74555,0 3.23242,0.4525 4.33148,1.2929 1.09901,0.8404 1.93945,2.0041 2.39198,3.4263 0.90505,-1.2929 1.93945,-2.4566 3.16774,-3.3617 1.22835,-0.905 2.71527,-1.3575 4.52538,-1.3575 1.22835,0 2.26269,0.1939 3.1678,0.5818 0.90505,0.3879 1.68082,0.9697 2.26269,1.6808 0.58181,0.7111 1.03434,1.6163 1.35758,2.586 0.32324,1.0343 0.45258,2.1333 0.45258,3.3617 l 0,14.5458 -3.87889,0 0,-14.2226 c 0,-1.5516 -0.38791,-2.7799 -1.09907,-3.7496 -0.7111,-0.9697 -1.68082,-1.4222 -2.97379,-1.4222 -0.64648,0 -1.29296,0.1292 -1.87483,0.3878 -0.58181,0.2586 -1.16362,0.5819 -1.74549,1.0344 -0.5172,0.4525 -1.03434,0.9697 -1.55154,1.5515 -0.5172,0.5819 -0.90511,1.1637 -1.35763,1.8102 l 0,14.6105 -3.8789,0 0,-14.2226 c 0,-1.5516 -0.38791,-2.7799 -1.09901,-3.7496 -0.71116,-0.9697 -1.68088,-1.4222 -2.97385,-1.4222 -0.64648,0 -1.22829,0.1292 -1.87477,0.3878 -0.58187,0.2586 -1.16368,0.5819 -1.74549,1.0344 -0.58187,0.4525 -1.09907,0.9051 -1.5516,1.4869 -0.5172,0.5818 -0.90505,1.1637 -1.35758,1.8102 l 0,14.6751 -3.87889,0 0,-22.239 3.74955,0 0.19396,3.7496 z"
       class="st2"
       sodipodi:nodetypes="ccscsccsscscccccssscccscscscccsscsccccscccsccsccccssscccsccscssscscssssccscsssccccssscccsccscssscscssssccscsssccscccscccsccscsccccccscsccccccccc"
       inkscape:connector-curvature="0"
       id="path7129" />
    <g
       style="fill:#4d4d4d;fill-opacity:1"
       id="g7131"
       transform="matrix(0.64648317,0,0,0.64648317,160.2512,985.19994)">
      <path
         style="fill:#4d4d4d;fill-opacity:1"
         d="m 146.7,44.7 c 0.2,-0.1 0.4,-0.1 0.5,-0.2 2.1,-0.6 3.7,-0.9 4.6,-0.9 0.7,0 1,0.2 1,0.7 0,0.2 -0.1,0.4 -0.2,0.5 -0.1,0.1 -0.3,0.2 -0.5,0.2 -0.1,0 -0.2,0 -0.4,0 -0.1,0 -0.3,0 -0.3,0 -0.5,0 -1.3,0.1 -2.1,0.4 -0.3,0.1 -0.9,0.3 -1.9,0.7 -0.6,0.3 -1.1,0.4 -1.6,0.4 -0.3,0 -0.5,-0.1 -0.7,-0.4 -0.2,-0.2 -0.3,-0.5 -0.3,-0.8 0,-0.3 0.2,-0.9 0.5,-1.7 1.1,-2.5 2.4,-4.7 3.7,-6.7 1.9,-2.8 3.3,-4.9 4.4,-6.3 0.3,-0.3 0.5,-0.7 0.8,-1 0.4,-0.6 0.8,-0.9 1.1,-0.9 0.2,0 0.3,0.1 0.4,0.2 0.1,0.1 0.2,0.3 0.2,0.4 0,0.2 -0.1,0.5 -0.4,0.9 -0.1,0.1 -0.4,0.6 -1.1,1.5 -1.3,1.7 -2.3,3 -2.9,4 -0.6,0.9 -1.4,2 -2.1,3.1 -1.3,2.3 -2.2,4.3 -2.7,5.9 z"
         class="st3"
         inkscape:connector-curvature="0"
         id="path7133" />
      <path
         style="fill:#4d4d4d;fill-opacity:1"
         d="m 155.6,43.2 0,0.2 c 0,0.2 0,0.4 0.1,0.5 0.2,0.3 0.6,0.5 1.1,0.5 1.1,0 2.5,-0.8 4,-2.6 0.3,-0.3 0.5,-0.4 0.6,-0.4 0.1,0 0.2,0 0.3,0.1 0.1,0.1 0.1,0.1 0.1,0.2 0,0.3 -0.4,0.9 -1.4,1.8 -0.7,0.6 -1.5,1.3 -2.2,1.7 -0.7,0.4 -1.5,0.6 -2.2,0.6 -0.7,0 -1.3,-0.2 -1.7,-0.7 -0.3,-0.3 -0.4,-0.7 -0.4,-1.4 0,-1.6 0.7,-3 2.2,-4.6 1.1,-1.3 2.2,-1.8 3.1,-1.8 0.2,0 0.4,0.1 0.6,0.2 0.2,0.2 0.3,0.5 0.3,0.8 0,0.5 -0.1,1.2 -0.4,1.8 -0.9,1.8 -2.3,2.5 -4.1,3.1 z m 0.3,-1.1 c 0.6,-0.2 1,-0.3 1.6,-0.7 0.8,-0.6 1.1,-0.9 1.6,-1.7 0.1,-0.2 0.2,-0.4 0.2,-0.6 0,-0.2 -0.1,-0.3 -0.3,-0.3 -0.2,0 -0.6,0.2 -1,0.5 -1,0.7 -1.6,1.6 -2.1,2.8 z"
         class="st3"
         inkscape:connector-curvature="0"
         id="path7135" />
      <path
         style="fill:#4d4d4d;fill-opacity:1"
         d="m 166.6,36.9 c -0.6,0.9 -1.1,2 -1.7,3.1 -0.7,1.7 -1,2.8 -1,3.7 0,0.2 0,0.4 0.1,0.5 0.1,0.1 0.2,0.2 0.4,0.2 0.4,0 1,-0.4 1.7,-1.3 0.4,-0.5 0.7,-1 1.1,-1.6 0.2,-0.3 0.3,-0.4 0.5,-0.4 0.1,0 0.2,0 0.3,0.1 0.1,0.1 0.1,0.2 0.1,0.2 0,0.3 -0.4,1.1 -1.4,2.3 -1,1.5 -2.1,2.1 -2.9,2.1 -0.4,0 -0.8,-0.2 -1.1,-0.6 -0.2,-0.3 -0.3,-0.6 -0.3,-1.1 0,-1.1 0.3,-2.4 0.9,-3.9 0.1,-0.4 0.6,-1.3 1.3,-2.6 -0.2,0.1 -0.4,0.1 -0.5,0.1 -0.2,0 -0.3,0 -0.5,-0.1 -0.2,-0.1 -0.3,-0.3 -0.3,-0.5 0,-0.2 0.1,-0.4 0.4,-0.5 0.1,0 0.4,-0.1 1,-0.2 0.2,0 0.5,-0.1 0.9,-0.3 0.3,-0.6 0.8,-1.4 1.6,-2.4 0.4,-0.5 0.7,-0.9 0.8,-1 0.2,-0.2 0.4,-0.3 0.6,-0.3 0.1,0 0.2,0.1 0.3,0.2 0.1,0.1 0.2,0.2 0.2,0.3 0,0.2 -0.2,0.7 -0.7,1.5 -0.3,0.4 -0.6,0.8 -0.7,1.1 1,-0.3 1.8,-0.4 2.2,-0.4 0.5,0 0.7,0.2 0.7,0.6 0,0.2 -0.1,0.4 -0.3,0.4 -0.1,0.1 -0.3,0.1 -0.7,0.1 -0.1,0 -0.8,0.2 -2.1,0.5 -0.2,0 -0.6,0.1 -0.9,0.2 l 0,0 z"
         class="st3"
         inkscape:connector-curvature="0"
         id="path7137" />
      <path
         style="fill:#4d4d4d;fill-opacity:1"
         d="m 176,27.9 c 0.1,0 0.2,0 0.3,0.1 0.1,0.1 0.2,0.3 0.2,0.5 0,0.4 -0.5,1.7 -1.7,3.8 -0.4,0.7 -0.7,1.1 -0.8,1.4 -0.1,0.1 -0.3,0.2 -0.4,0.2 -0.3,0 -0.5,-0.2 -0.5,-0.6 0,-0.3 0.2,-0.7 0.5,-1.4 0.8,-1.7 1.3,-2.5 1.3,-2.7 0.3,-0.9 0.7,-1.3 1.1,-1.3 z"
         class="st3"
         inkscape:connector-curvature="0"
         id="path7139" />
      <path
         style="fill:#4d4d4d;fill-opacity:1"
         d="m 177.3,36.6 c 0.5,0 1,0.1 1.3,0.3 0.3,0.2 0.4,0.5 0.4,0.9 0,0.5 -0.2,1 -0.6,1.6 -0.4,0.6 -0.9,0.8 -1.8,1.1 -0.4,0.1 -0.7,0.2 -1,0.2 -0.4,0 -0.6,-0.2 -0.6,-0.5 0,-0.2 0.1,-0.4 0.3,-0.5 0.1,0 0.4,-0.1 0.9,-0.2 0.3,-0.1 0.6,-0.2 0.9,-0.5 0.2,-0.2 0.4,-0.4 0.4,-0.7 0,-0.2 -0.1,-0.3 -0.2,-0.4 -0.1,-0.1 -0.3,-0.1 -0.5,-0.1 -0.5,0 -1.1,0.2 -1.8,0.6 -0.7,0.5 -1.1,1 -1.1,1.8 0,0.5 0.2,1 0.7,1.8 0.5,0.8 0.8,1.5 0.8,2 0,0.8 -0.3,1.5 -1,1.9 -0.4,0.3 -0.9,0.4 -1.5,0.4 -0.8,0 -1.6,-0.3 -2,-0.9 -0.3,-0.4 -0.5,-0.9 -0.5,-1.6 0,-0.7 0.2,-1.4 0.5,-1.8 0.2,-0.3 0.5,-0.5 0.7,-0.5 0.2,0 0.3,0.1 0.3,0.3 0,0.1 0,0.2 -0.1,0.3 -0.2,0.4 -0.3,0.8 -0.3,1.4 0,0.4 0.2,0.8 0.5,1.1 0.3,0.3 0.6,0.4 0.9,0.4 0.3,0 0.6,-0.1 0.8,-0.3 0.2,-0.2 0.2,-0.4 0.2,-0.7 0,-0.4 -0.2,-0.8 -0.6,-1.5 -0.6,-0.8 -0.9,-1.6 -0.9,-2.3 0,-0.9 0.5,-1.8 1.5,-2.4 1.3,-0.8 2.3,-1.2 3.4,-1.2 l 0,0 z"
         class="st3"
         inkscape:connector-curvature="0"
         id="path7141" />
      <path
         style="fill:#4d4d4d;fill-opacity:1"
         d="m 189.3,44.7 c 0.9,-0.7 1.7,-1.4 2.2,-2 0.7,-0.8 1.3,-1.6 1.5,-2.1 0.1,-0.2 0.3,-0.3 0.4,-0.3 0.2,0 0.3,0.1 0.3,0.3 0,0.2 -0.2,0.6 -0.5,1.3 -1,1.8 -2.7,3.3 -4.9,4.6 -1,2.1 -1.8,3.5 -2.2,4.3 -1.3,2 -2.5,2.9 -3.5,2.9 -0.6,0 -1,-0.2 -1.3,-0.7 -0.1,-0.3 -0.2,-0.5 -0.2,-0.9 0,-1.5 0.9,-2.8 2.8,-4.2 0.3,-0.2 1.5,-0.9 3.5,-2.1 0.4,-0.8 0.7,-1.6 0.9,-2 -0.9,1 -1.8,1.6 -2.4,1.6 -0.4,0 -0.7,-0.2 -0.9,-0.6 -0.1,-0.3 -0.2,-0.5 -0.2,-0.8 0,-0.6 0.3,-1.5 0.8,-2.5 0.7,-1.5 1.7,-2.7 2.8,-3.5 0.9,-0.7 1.7,-1 2.4,-1 0.3,0 0.6,0.1 0.9,0.4 0.2,0.2 0.3,0.4 0.3,0.7 0,0.4 -0.1,0.9 -0.4,1.6 0.2,0.2 0.3,0.3 0.3,0.4 0,0.1 0,0.1 -0.1,0.3 -0.2,0.3 -0.6,0.9 -1.1,1.9 -0.6,0.7 -1,1.4 -1.4,2.4 z m -0.1,-3.3 c -0.1,-0.1 -0.2,-0.2 -0.2,-0.3 0,-0.1 0.1,-0.2 0.2,-0.3 0.4,-0.4 0.8,-0.9 1.1,-1.4 0.2,-0.4 0.3,-0.6 0.3,-0.8 0,-0.2 -0.1,-0.4 -0.3,-0.4 -0.4,0 -0.9,0.4 -1.7,1.1 -0.8,0.9 -1.6,1.9 -2.1,3 -0.2,0.5 -0.3,0.9 -0.3,1.3 0,0.2 0,0.3 0.1,0.4 0.1,0.1 0.2,0.1 0.3,0.1 0.3,0 0.7,-0.3 1.4,-0.9 0.4,-0.4 0.7,-0.8 0.9,-1.3 0.3,-0.3 0.3,-0.5 0.3,-0.5 l 0,0 z m -2.6,6.1 c -1.3,0.5 -2.3,1.3 -3.2,2.3 -0.4,0.5 -0.7,1 -0.9,1.6 -0.1,0.2 -0.1,0.3 -0.1,0.4 0,0.1 0,0.2 0.1,0.3 0.1,0.2 0.2,0.2 0.4,0.2 0.5,0 1.3,-0.6 2,-1.9 0.6,-0.9 1.2,-2 1.7,-2.9 z"
         class="st3"
         inkscape:connector-curvature="0"
         id="path7143" />
      <path
         style="fill:#4d4d4d;fill-opacity:1"
         d="m 196.4,41.3 c 0.9,-0.9 2,-1.9 3.1,-2.8 0.4,-0.3 0.8,-0.6 1.4,-0.9 0.2,-0.1 0.4,-0.2 0.4,-0.2 0.1,0 0.3,0.1 0.4,0.3 0.1,0.1 0.1,0.2 0.1,0.3 0,0.2 -0.2,0.4 -0.5,0.6 -0.9,0.7 -1.4,1.3 -1.4,1.7 0,0.2 0.1,0.3 0.3,0.3 0.4,0 1,-0.3 2.1,-0.9 0.2,-0.1 0.3,-0.2 0.4,-0.2 0.1,0 0.1,0 0.2,0.1 0.1,0.1 0.1,0.2 0.1,0.3 0,0.3 -0.4,0.7 -1.1,1.3 -0.8,0.6 -1.6,0.9 -2.3,0.9 -0.3,0 -0.5,-0.1 -0.8,-0.2 -0.2,-0.1 -0.3,-0.3 -0.3,-0.7 0,-0.2 0.1,-0.5 0.3,-0.8 -0.7,0.5 -1.6,1.4 -2.6,2.6 -0.5,0.7 -1.1,1.7 -1.7,2.8 -0.2,0.4 -0.5,0.6 -0.8,0.6 -0.3,0 -0.5,-0.2 -0.5,-0.5 0,-0.3 0.3,-1.1 0.8,-2.5 0.8,-2 1.6,-3.5 2.5,-4.7 0.5,-0.7 0.9,-1 1.4,-1 0.1,0 0.2,0 0.3,0.1 0.1,0.1 0.2,0.2 0.2,0.3 0,0.1 -0.1,0.3 -0.3,0.6 0,0 -0.3,0.3 -0.7,0.9 -0.5,0.6 -0.8,1.1 -1,1.7 l 0,0 z"
         class="st3"
         inkscape:connector-curvature="0"
         id="path7145" />
      <path
         style="fill:#4d4d4d;fill-opacity:1"
         d="m 207.7,36.9 c 0.7,0 1.1,0.4 1.1,1.4 0,1.3 -0.5,2.7 -1.7,4.6 -1.3,2 -2.4,3 -3.5,3 -0.5,0 -0.9,-0.2 -1.1,-0.7 -0.1,-0.2 -0.2,-0.5 -0.2,-0.9 0,-1.1 0.4,-2.4 1.3,-3.9 0.7,-1.3 1.7,-2.3 2.6,-2.9 0.5,-0.4 1.1,-0.6 1.5,-0.6 z m -1.3,5.3 c -0.2,-0.2 -0.3,-0.3 -0.3,-0.4 0,-0.1 0.1,-0.3 0.4,-0.6 0.8,-0.9 1.3,-1.7 1.3,-2.2 0,-0.1 0,-0.1 -0.1,-0.2 -0.1,-0.1 -0.2,-0.2 -0.3,-0.2 -0.3,0 -0.7,0.3 -1.3,0.8 -0.7,0.7 -1.3,1.5 -1.7,2.3 -0.4,0.9 -0.6,1.7 -0.6,2.2 0,0.1 0,0.3 0.1,0.4 0.1,0.2 0.3,0.2 0.4,0.2 0.4,0 0.9,-0.3 1.5,-0.9 0.2,-0.3 0.4,-0.5 0.5,-0.8 0,-0.5 0.1,-0.6 0.1,-0.6 l 0,0 z"
         class="st3"
         inkscape:connector-curvature="0"
         id="path7147" />
      <path
         style="fill:#4d4d4d;fill-opacity:1"
         d="m 213.7,41.9 c -0.8,1 -1.4,1.8 -1.8,2.2 -0.4,0.5 -0.8,0.9 -1.3,1.1 -0.4,0.3 -0.7,0.4 -1,0.4 -0.3,0 -0.5,-0.2 -0.7,-0.5 -0.1,-0.2 -0.2,-0.5 -0.2,-0.8 0,-1 0.6,-2.4 1.8,-4.2 1,-1.6 1.9,-2.4 2.4,-2.4 0.1,0 0.2,0.1 0.4,0.2 0.1,0.1 0.2,0.2 0.2,0.4 0,0.2 -0.2,0.5 -0.5,0.8 -0.7,0.7 -1.5,1.6 -2,2.5 -0.5,0.8 -0.7,1.4 -0.7,1.6 0,0.2 0.1,0.3 0.2,0.3 0.5,0 1.8,-1.1 3.5,-3.5 0.6,-0.7 0.9,-1.3 1,-1.4 0.2,-0.2 0.5,-0.3 0.7,-0.3 0.2,0 0.3,0 0.4,0.1 0.1,0.1 0.1,0.2 0.1,0.3 0,0.1 -0.2,0.5 -0.6,1.4 -1,1.8 -1.5,2.9 -1.5,3.5 0,0.2 0.1,0.3 0.3,0.3 0.3,0 0.8,-0.4 1.4,-1.1 0.5,-0.7 1,-1.7 1.6,-2.7 0.2,-0.5 0.4,-1.1 0.5,-1.9 0.2,-0.9 0.5,-1.4 1.1,-1.4 0.3,0 0.4,0.2 0.4,0.5 0,1.3 -0.6,2.8 -2,4.9 -1.4,2.2 -2.6,3.3 -3.5,3.3 -0.7,0 -1,-0.4 -1,-1.4 0.1,-0.2 0.4,-1.1 0.8,-2.2 l 0,0 z"
         class="st3"
         inkscape:connector-curvature="0"
         id="path7149" />
      <path
         style="fill:#4d4d4d;fill-opacity:1"
         d="m 228.6,43.5 c -0.3,0.5 -0.6,0.9 -0.9,1.4 -0.6,0.7 -1.1,1 -1.7,1 -0.6,0 -0.8,-0.2 -1.1,-0.7 -0.2,-0.3 -0.3,-0.6 -0.3,-1 0,-1 0.3,-2.2 0.9,-3.3 0.7,-1.4 1.6,-2.4 2.6,-3.1 0.6,-0.5 1.3,-0.7 1.9,-0.7 0.4,0 0.7,0.1 0.9,0.3 0.2,0.2 0.3,0.4 0.3,0.7 0,0.2 -0.1,0.5 -0.2,0.8 0.1,0.2 0.2,0.3 0.2,0.5 0,0.2 -0.1,0.5 -0.4,0.9 -0.3,0.4 -0.5,1 -0.8,1.8 -0.3,0.8 -0.4,1.5 -0.4,1.9 0,0.4 0.1,0.7 0.3,0.9 0.1,0.1 0.2,0.2 0.5,0.3 0.2,0.1 0.3,0.3 0.3,0.6 0,0.2 -0.1,0.3 -0.2,0.4 -0.1,0.1 -0.3,0.2 -0.5,0.2 -0.5,0 -0.9,-0.2 -1.3,-0.6 -0.3,-0.3 -0.4,-0.8 -0.4,-1.4 0.3,-0.2 0.3,-0.5 0.3,-0.9 l 0,0 z m 1.8,-4.5 c -0.1,-0.2 -0.2,-0.3 -0.3,-0.4 -0.1,-0.1 -0.3,-0.1 -0.4,-0.1 -0.7,0 -1.5,0.6 -2.3,1.9 -0.9,1.4 -1.4,2.5 -1.4,3.4 0,0.2 0,0.4 0.1,0.5 0.1,0.1 0.2,0.2 0.4,0.2 0.4,0 0.9,-0.4 1.6,-1.4 0.3,-0.5 0.7,-1.3 1.3,-2.3 0.3,-0.6 0.5,-1 0.7,-1.3 0,-0.2 0.1,-0.4 0.3,-0.5 z"
         class="st3"
         inkscape:connector-curvature="0"
         id="path7151" />
      <path
         style="fill:#4d4d4d;fill-opacity:1"
         d="m 240.2,41.2 c -0.3,0.7 -0.5,1.3 -0.6,1.8 -0.1,0.4 -0.2,0.7 -0.2,0.9 0,0.2 0.1,0.3 0.3,0.3 0.3,0 0.7,-0.3 1.3,-0.9 0.2,-0.3 0.6,-0.8 1.1,-1.7 0.2,-0.3 0.4,-0.4 0.6,-0.4 0.2,0 0.3,0.1 0.3,0.3 0,0.4 -0.4,1.1 -1.4,2.4 -0.9,1.3 -1.8,1.9 -2.6,1.9 -0.3,0 -0.6,-0.1 -0.8,-0.4 -0.1,-0.2 -0.2,-0.4 -0.2,-0.7 0,-0.5 0.1,-1.3 0.4,-2.1 0.3,-0.9 0.7,-2 1.4,-3.3 1.6,-3.3 3.2,-6.1 4.8,-8.1 1.4,-1.8 2.4,-2.6 3.2,-2.6 0.3,0 0.5,0.1 0.6,0.3 0.2,0.2 0.3,0.4 0.3,0.7 0,1.3 -1.1,3.4 -3.4,6.4 -1,1.4 -2.3,2.6 -3.7,4 -0.2,0.2 -0.8,0.7 -1.4,1.2 l 0,0 z m 0.9,-2.2 c 1.9,-1.7 3.7,-3.7 5.1,-6.2 0.7,-1.3 1.1,-2.2 1.1,-2.6 0,-0.2 -0.1,-0.3 -0.3,-0.3 -0.5,0 -1.5,1 -2.7,3 -1,1.7 -2.1,3.7 -3.2,6.1 l 0,0 z"
         class="st3"
         inkscape:connector-curvature="0"
         id="path7153" />
      <path
         style="fill:#4d4d4d;fill-opacity:1"
         d="m 247.6,37.6 c 0.1,0 0.3,0.1 0.4,0.2 0.1,0.1 0.1,0.2 0.1,0.3 0,0.2 -0.1,0.4 -0.4,0.8 -0.9,1.5 -1.7,2.7 -2.1,3.7 -0.4,0.9 -0.8,2 -1.1,3 -0.1,0.4 -0.4,0.7 -0.7,0.7 -0.2,0 -0.3,-0.1 -0.4,-0.2 -0.1,-0.1 -0.1,-0.2 -0.1,-0.4 0,-0.3 0.3,-1.1 0.8,-2.7 0.4,-1.3 1.3,-2.6 2.2,-4.1 0.3,-0.5 0.6,-0.8 0.7,-0.9 0.3,-0.3 0.4,-0.4 0.6,-0.4 l 0,0 z m 2.6,-5.2 c 0.4,0 0.6,0.2 0.6,0.6 0,0.4 -0.2,0.8 -0.6,1.3 -0.4,0.5 -0.7,0.6 -1.1,0.6 -0.2,0 -0.3,-0.1 -0.4,-0.2 -0.1,-0.1 -0.2,-0.3 -0.2,-0.4 0,-0.4 0.2,-0.9 0.7,-1.4 0.4,-0.2 0.7,-0.5 1,-0.5 l 0,0 z"
         class="st3"
         inkscape:connector-curvature="0"
         id="path7155" />
      <path
         style="fill:#4d4d4d;fill-opacity:1"
         d="m 251.7,38.6 c 0.7,-0.6 1.5,-0.9 2.1,-0.9 0.4,0 0.7,0.2 0.9,0.5 0.2,0.3 0.3,0.6 0.3,0.9 0,0.7 -0.2,1.6 -0.7,2.6 -0.5,1.1 -1.3,2.2 -2.3,3.1 -0.8,0.8 -1.6,1.3 -2.3,1.3 -0.3,0 -0.5,0 -0.7,-0.1 -0.2,-0.1 -0.4,-0.2 -0.6,-0.4 -0.1,0.1 -0.1,0.2 -0.1,0.2 -0.1,0.3 -0.3,0.5 -0.3,0.6 -0.1,0.1 -0.2,0.1 -0.3,0.1 -0.2,0 -0.3,-0.1 -0.4,-0.3 -0.1,-0.1 -0.1,-0.3 -0.1,-0.4 0,-0.2 0.5,-1.6 1.6,-3.9 1.5,-3.2 3.2,-6.5 5.1,-9.7 0.8,-1.4 1.3,-2.1 1.5,-2.3 0.2,-0.3 0.4,-0.4 0.5,-0.4 0.2,0 0.4,0.1 0.5,0.3 0.1,0.1 0.1,0.3 0.1,0.4 0,0.2 -0.1,0.4 -0.3,0.7 0,0.1 -0.3,0.5 -0.8,1.5 -1.7,2.3 -2.9,4.5 -3.7,6.2 l 0,0 z m -2.7,5.5 c 0.1,0.2 0.3,0.3 0.4,0.4 0.1,0.1 0.3,0.1 0.4,0.1 0.8,0 1.7,-0.7 2.5,-2.1 0.4,-0.6 0.7,-1.3 0.9,-1.9 0.2,-0.5 0.3,-0.9 0.3,-1.3 0,-0.2 0,-0.3 -0.1,-0.4 -0.1,-0.1 -0.2,-0.1 -0.4,-0.1 -0.4,0 -0.9,0.3 -1.6,0.8 -0.6,0.5 -1.1,1.4 -1.8,2.5 -0.3,0.5 -0.5,1 -0.7,1.5 0.2,0.4 0.1,0.5 0.1,0.5 l 0,0 z"
         class="st3"
         inkscape:connector-curvature="0"
         id="path7157" />
      <path
         style="fill:#4d4d4d;fill-opacity:1"
         d="m 257.8,41.3 c 0.9,-0.9 2,-1.9 3.1,-2.8 0.4,-0.3 0.8,-0.6 1.4,-0.9 0.2,-0.1 0.4,-0.2 0.4,-0.2 0.1,0 0.3,0.1 0.4,0.3 0.1,0.1 0.1,0.2 0.1,0.3 0,0.2 -0.2,0.4 -0.5,0.6 -0.9,0.7 -1.4,1.3 -1.4,1.7 0,0.2 0.1,0.3 0.3,0.3 0.4,0 1,-0.3 2.1,-0.9 0.2,-0.1 0.3,-0.2 0.4,-0.2 0.1,0 0.1,0 0.2,0.1 0.1,0.1 0.1,0.2 0.1,0.3 0,0.3 -0.4,0.7 -1.1,1.3 -0.8,0.6 -1.6,0.9 -2.3,0.9 -0.3,0 -0.5,-0.1 -0.8,-0.2 -0.2,-0.1 -0.3,-0.3 -0.3,-0.7 0,-0.2 0.1,-0.5 0.3,-0.8 -0.7,0.5 -1.6,1.4 -2.6,2.6 -0.5,0.7 -1.1,1.7 -1.7,2.8 -0.2,0.4 -0.5,0.6 -0.8,0.6 -0.3,0 -0.5,-0.2 -0.5,-0.5 0,-0.3 0.3,-1.1 0.8,-2.5 0.8,-2 1.6,-3.5 2.5,-4.7 0.5,-0.7 0.9,-1 1.4,-1 0.1,0 0.2,0 0.3,0.1 0.1,0.1 0.2,0.2 0.2,0.3 0,0.1 -0.1,0.3 -0.3,0.6 0,0 -0.3,0.3 -0.7,0.9 -0.4,0.6 -0.7,1.1 -1,1.7 l 0,0 z"
         class="st3"
         inkscape:connector-curvature="0"
         id="path7159" />
      <path
         style="fill:#4d4d4d;fill-opacity:1"
         d="m 268.3,43.5 c -0.3,0.5 -0.6,0.9 -0.9,1.4 -0.6,0.7 -1.1,1 -1.7,1 -0.5,0 -0.8,-0.2 -1.1,-0.7 -0.2,-0.3 -0.3,-0.6 -0.3,-1 0,-1 0.3,-2.2 0.9,-3.3 0.7,-1.4 1.6,-2.4 2.6,-3.1 0.6,-0.5 1.3,-0.7 1.9,-0.7 0.4,0 0.7,0.1 0.9,0.3 0.2,0.2 0.3,0.4 0.3,0.7 0,0.2 -0.1,0.5 -0.2,0.8 0.1,0.2 0.2,0.3 0.2,0.5 0,0.2 -0.1,0.5 -0.4,0.9 -0.3,0.4 -0.5,1 -0.8,1.8 -0.3,0.8 -0.4,1.5 -0.4,1.9 0,0.4 0.1,0.7 0.3,0.9 0.1,0.1 0.2,0.2 0.5,0.3 0.2,0.1 0.3,0.3 0.3,0.6 0,0.2 -0.1,0.3 -0.2,0.4 -0.1,0.1 -0.3,0.2 -0.5,0.2 -0.5,0 -0.9,-0.2 -1.3,-0.6 -0.3,-0.3 -0.4,-0.8 -0.4,-1.4 0.2,-0.2 0.2,-0.5 0.3,-0.9 l 0,0 z M 270,39 c -0.1,-0.2 -0.2,-0.3 -0.3,-0.4 -0.1,-0.1 -0.3,-0.1 -0.4,-0.1 -0.7,0 -1.5,0.6 -2.3,1.9 -0.9,1.4 -1.4,2.5 -1.4,3.4 0,0.2 0,0.4 0.1,0.5 0.1,0.1 0.2,0.2 0.4,0.2 0.4,0 0.9,-0.4 1.6,-1.4 0.3,-0.5 0.7,-1.3 1.3,-2.3 0.3,-0.6 0.5,-1 0.7,-1.3 -0.1,-0.2 0,-0.4 0.3,-0.5 z"
         class="st3"
         inkscape:connector-curvature="0"
         id="path7161" />
      <path
         style="fill:#4d4d4d;fill-opacity:1"
         d="m 274.7,41.3 c 0.9,-0.9 2,-1.9 3.1,-2.8 0.4,-0.3 0.8,-0.6 1.4,-0.9 0.2,-0.1 0.4,-0.2 0.4,-0.2 0.1,0 0.3,0.1 0.4,0.3 0.1,0.1 0.1,0.2 0.1,0.3 0,0.2 -0.2,0.4 -0.5,0.6 -0.9,0.7 -1.4,1.3 -1.4,1.7 0,0.2 0.1,0.3 0.3,0.3 0.4,0 1,-0.3 2.1,-0.9 0.2,-0.1 0.3,-0.2 0.4,-0.2 0.1,0 0.1,0 0.2,0.1 0.1,0.1 0.1,0.2 0.1,0.3 0,0.3 -0.4,0.7 -1.1,1.3 -0.8,0.6 -1.6,0.9 -2.3,0.9 -0.3,0 -0.5,-0.1 -0.8,-0.2 -0.2,-0.1 -0.3,-0.3 -0.3,-0.7 0,-0.2 0.1,-0.5 0.3,-0.8 -0.7,0.5 -1.6,1.4 -2.6,2.6 -0.5,0.7 -1.1,1.7 -1.7,2.8 -0.2,0.4 -0.5,0.6 -0.8,0.6 -0.3,0 -0.5,-0.2 -0.5,-0.5 0,-0.3 0.3,-1.1 0.8,-2.5 0.8,-2 1.6,-3.5 2.5,-4.7 0.5,-0.7 0.9,-1 1.4,-1 0.1,0 0.2,0 0.3,0.1 0.1,0.1 0.2,0.2 0.2,0.3 0,0.1 -0.1,0.3 -0.3,0.6 0,0 -0.3,0.3 -0.7,0.9 -0.5,0.6 -0.8,1.1 -1,1.7 l 0,0 z"
         class="st3"
         inkscape:connector-curvature="0"
         id="path7163" />
      <path
         style="fill:#4d4d4d;fill-opacity:1"
         d="m 285.7,41.9 c -0.8,0.9 -1.5,1.7 -2,2.2 -0.9,0.9 -1.8,1.4 -2.4,1.4 -0.3,0 -0.5,-0.1 -0.7,-0.3 -0.1,-0.2 -0.2,-0.4 -0.2,-0.7 0,-0.9 0.6,-2.3 1.8,-4 1.1,-1.7 2.1,-2.5 2.6,-2.5 0.1,0 0.3,0.1 0.4,0.2 0.1,0.1 0.1,0.2 0.1,0.3 0,0.2 -0.1,0.4 -0.2,0.5 -0.1,0.1 -0.4,0.5 -0.9,1 -0.5,0.5 -1,1.1 -1.5,1.8 -0.5,0.7 -0.7,1.3 -0.7,1.6 0,0.2 0.1,0.3 0.3,0.3 0.4,0 1,-0.5 2.1,-1.5 0.6,-0.6 1.1,-1.1 1.5,-1.6 0.1,-0.1 0.4,-0.5 0.9,-1.4 0.5,-0.7 0.8,-1.1 0.9,-1.3 0.3,-0.3 0.5,-0.5 0.7,-0.5 0.1,0 0.3,0.1 0.4,0.2 0.1,0.1 0.2,0.2 0.2,0.4 0,0.3 -0.2,0.7 -0.5,1.4 -0.4,0.7 -0.8,1.5 -1.3,2.1 -0.6,1 -1,2 -1.4,2.7 0.6,-0.3 1.1,-0.7 1.6,-1.3 0.8,-0.8 1.4,-1.5 1.6,-1.9 0.2,-0.4 0.3,-0.5 0.5,-0.5 0.2,0 0.4,0.1 0.4,0.4 0,0.5 -0.4,1.3 -1.3,2.2 -0.9,1.1 -2.2,2.1 -3.7,2.9 -0.7,1.9 -1.5,3.3 -2.2,4.6 -1.3,2.3 -2.6,3.3 -4,3.3 -0.5,0 -1,-0.2 -1.4,-0.6 -0.3,-0.3 -0.4,-0.7 -0.4,-1.3 0,-1.5 1,-2.9 3,-4.4 0.6,-0.4 1.5,-0.9 2.6,-1.7 0.4,-0.3 0.8,-0.5 1.1,-0.6 0.2,-0.4 0.4,-0.9 0.7,-1.7 0.8,-0.4 1.1,-1 1.4,-1.7 l 0,0 z m -2.5,5.5 c -0.9,0.5 -2,1.3 -3,2.1 -1,0.9 -1.6,1.8 -1.6,2.6 0,0.2 0,0.3 0.1,0.4 0.1,0.2 0.3,0.2 0.5,0.2 0.7,0 1.5,-0.7 2.3,-2.2 0.1,-0.2 0.5,-1 1.1,-2.4 0.3,-0.1 0.4,-0.4 0.6,-0.7 l 0,0 z"
         class="st3"
         inkscape:connector-curvature="0"
         id="path7165" />
    </g>
  </g>
</svg>
