<svg width="521" height="43" viewBox="0 0 521 43" fill="none" xmlns="http://www.w3.org/2000/svg">
<path fill-rule="evenodd" clip-rule="evenodd" d="M427.839 7.71953C428.282 7.419 428.829 7.30733 429.356 7.40954C431.921 7.90667 435.503 9.26844 437.444 10.6506C437.455 10.6585 437.466 10.6664 437.476 10.6745C437.543 10.7239 437.613 10.7755 437.687 10.8296C438.602 11.5016 440.047 12.5619 441.186 14.5506C442.411 16.6893 443.193 19.7076 443.112 24.2235L439.102 24.1525C439.175 20.1076 438.465 17.852 437.698 16.513C436.987 15.2714 436.148 14.6515 435.258 13.9936C435.202 13.9517 435.145 13.9097 435.088 13.8674C434.128 13.1885 432.353 12.4 430.633 11.8486C430.18 15.9063 430.507 20.0673 431.749 23.2633C432.474 25.1265 433.47 26.564 434.703 27.5079C435.905 28.4279 437.447 28.9708 439.484 28.878C442.095 28.7589 443.829 28.1873 445.01 27.3891C446.166 26.6083 446.967 25.4936 447.508 23.9462C448.063 22.3602 448.327 20.3651 448.393 17.9306C448.443 16.0829 448.379 14.0565 448.269 11.852C446.51 12.1392 445.313 12.5276 444.547 12.8507C444.029 13.0692 443.705 13.2592 443.534 13.3713C443.449 13.4268 443.401 13.4637 443.385 13.4764C443.326 13.5301 443.264 13.5802 443.198 13.6265L442.838 13.8813L440.507 10.6474L440.784 10.4511C440.809 10.4297 440.837 10.4068 440.868 10.3823C440.981 10.292 441.13 10.1814 441.32 10.0569C441.7 9.80748 442.241 9.50386 442.976 9.19365C444.448 8.57303 446.687 7.93169 449.976 7.63546C450.517 7.58666 451.056 7.75804 451.468 8.11028C451.88 8.46252 452.129 8.96541 452.16 9.50361C452.331 12.532 452.473 15.4231 452.403 18.0372C452.332 20.6437 452.048 23.1044 451.298 25.2478C450.535 27.4298 449.275 29.3181 447.27 30.673C445.29 32.0105 442.763 32.7073 439.668 32.8483C436.738 32.9819 434.248 32.1823 432.251 30.6531C430.284 29.1477 428.915 27.0294 428.007 24.6922C426.203 20.0528 426.06 14.1724 426.997 9.00823C427.092 8.48429 427.396 8.02005 427.839 7.71953Z" fill="#D65649"/>
<path d="M451.19 28.6846C450.111 28.6846 449.233 29.5556 449.233 30.625C449.233 31.6944 450.111 32.5655 451.19 32.5655C452.269 32.5655 453.148 31.6944 453.148 30.625C453.148 29.5556 452.269 28.6846 451.19 28.6846ZM451.19 29.0726C452.057 29.0726 452.756 29.7654 452.756 30.625C452.756 31.4846 452.057 32.1774 451.19 32.1774C450.323 32.1774 449.624 31.4846 449.624 30.625C449.624 29.7654 450.323 29.0726 451.19 29.0726ZM450.505 29.6547V31.5953H450.915V30.8979H451.227L451.6 31.5953H452.034V31.5771L451.6 30.7828C451.639 30.7632 451.701 30.7429 451.741 30.7039C451.799 30.6647 451.818 30.6275 451.857 30.5887C451.896 30.5307 451.917 30.4893 451.936 30.4311C451.956 30.3731 451.955 30.3146 451.955 30.237C451.955 30.14 451.933 30.0599 451.894 29.9823C451.874 29.9243 451.818 29.8707 451.759 29.8126C451.681 29.7546 451.618 29.7107 451.52 29.6913C451.442 29.6717 451.344 29.6551 451.227 29.6551L450.505 29.6547ZM450.933 30.0065H451.251C451.349 30.0065 451.425 30.0208 451.484 30.0796C451.542 30.1376 451.563 30.2008 451.563 30.2978C451.563 30.337 451.565 30.3743 451.545 30.4131C451.525 30.4523 451.503 30.4907 451.484 30.5101C451.464 30.5297 451.425 30.5456 451.386 30.5644C451.347 30.584 451.31 30.5885 451.251 30.5885H450.933V30.0065Z" fill="#D65649"/>
<path d="M459.466 17.5687V10.044H460.623L462.08 14.0587C462.173 14.3187 462.262 14.5825 462.347 14.8501C462.439 15.1101 462.532 15.3701 462.624 15.6301H462.671C462.763 15.3701 462.848 15.1101 462.925 14.8501C463.01 14.5825 463.099 14.3187 463.191 14.0587L464.626 10.044H465.795V17.5687H464.892V13.4278C464.892 13.0913 464.908 12.7204 464.938 12.3151C464.969 11.9098 464.996 11.539 465.019 11.2025H464.973L464.371 12.9116L462.937 16.8116H462.3L460.866 12.9116L460.264 11.2025H460.218C460.241 11.539 460.264 11.9098 460.287 12.3151C460.318 12.7204 460.333 13.0913 460.333 13.4278V17.5687H459.466Z" fill="#4D4D4D"/>
<path d="M469.076 17.7063C468.605 17.7063 468.212 17.5687 467.895 17.2934C467.587 17.0181 467.433 16.6281 467.433 16.1234C467.433 15.5116 467.706 15.0451 468.254 14.724C468.802 14.3951 469.677 14.1657 470.881 14.0357C470.881 13.8598 470.861 13.6878 470.823 13.5196C470.792 13.3513 470.734 13.2022 470.649 13.0722C470.564 12.9422 470.445 12.839 470.291 12.7625C470.144 12.6784 469.955 12.6363 469.724 12.6363C469.4 12.6363 469.095 12.6975 468.81 12.8198C468.524 12.9422 468.27 13.0798 468.046 13.2328L467.676 12.579C467.938 12.4107 468.258 12.2501 468.636 12.0972C469.014 11.9366 469.43 11.8563 469.886 11.8563C470.572 11.8563 471.07 12.0666 471.378 12.4872C471.687 12.9001 471.841 13.4546 471.841 14.1504V17.5687H471.054L470.973 16.9034H470.939C470.669 17.1251 470.379 17.3163 470.071 17.4769C469.762 17.6298 469.43 17.7063 469.076 17.7063ZM469.353 16.9493C469.623 16.9493 469.878 16.8881 470.117 16.7657C470.356 16.6357 470.611 16.4484 470.881 16.2037V14.6551C470.41 14.7163 470.013 14.789 469.689 14.8731C469.373 14.9572 469.114 15.0566 468.914 15.1713C468.721 15.286 468.578 15.4198 468.486 15.5728C468.401 15.7181 468.358 15.8787 468.358 16.0546C468.358 16.3757 468.455 16.6051 468.648 16.7428C468.84 16.8804 469.076 16.9493 469.353 16.9493Z" fill="#4D4D4D"/>
<path d="M475.531 17.7063C474.821 17.7063 474.254 17.454 473.83 16.9493C473.414 16.4446 473.205 15.7257 473.205 14.7928C473.205 14.3416 473.271 13.9363 473.402 13.5769C473.541 13.2098 473.722 12.9001 473.946 12.6478C474.169 12.3954 474.428 12.2004 474.721 12.0628C475.014 11.9251 475.323 11.8563 475.647 11.8563C475.971 11.8563 476.252 11.9137 476.491 12.0284C476.73 12.1431 476.973 12.2998 477.22 12.4987L477.174 11.5466V9.40161H478.134V17.5687H477.348L477.267 16.9148H477.232C477.008 17.129 476.75 17.3163 476.457 17.4769C476.171 17.6298 475.863 17.7063 475.531 17.7063ZM475.739 16.9148C476.002 16.9148 476.248 16.8537 476.48 16.7313C476.711 16.6013 476.943 16.4063 477.174 16.1463V13.2328C476.935 13.0187 476.703 12.8696 476.48 12.7854C476.264 12.6937 476.04 12.6478 475.809 12.6478C475.585 12.6478 475.373 12.7013 475.172 12.8084C474.979 12.9078 474.81 13.0531 474.663 13.2443C474.517 13.4278 474.401 13.6496 474.316 13.9096C474.231 14.1696 474.189 14.4601 474.189 14.7813C474.189 15.4543 474.324 15.9781 474.594 16.3528C474.864 16.7275 475.246 16.9148 475.739 16.9148Z" fill="#4D4D4D"/>
<path d="M482.308 17.7063C481.93 17.7063 481.575 17.6413 481.243 17.5113C480.919 17.3737 480.634 17.1825 480.387 16.9378C480.148 16.6854 479.959 16.3796 479.82 16.0201C479.681 15.6607 479.612 15.2516 479.612 14.7928C479.612 14.334 479.681 13.9248 479.82 13.5654C479.967 13.1984 480.156 12.8887 480.387 12.6363C480.626 12.384 480.896 12.1928 481.197 12.0628C481.498 11.9251 481.81 11.8563 482.134 11.8563C482.489 11.8563 482.805 11.9175 483.083 12.0398C483.368 12.1622 483.604 12.3381 483.789 12.5675C483.982 12.7969 484.128 13.0722 484.228 13.3934C484.329 13.7146 484.379 14.074 484.379 14.4716C484.379 14.571 484.375 14.6704 484.367 14.7698C484.367 14.8616 484.36 14.9419 484.344 15.0107H480.549C480.588 15.6072 480.773 16.0813 481.104 16.4331C481.444 16.7772 481.883 16.9493 482.423 16.9493C482.693 16.9493 482.94 16.911 483.164 16.8346C483.395 16.7504 483.615 16.6434 483.823 16.5134L484.159 17.1328C483.912 17.2857 483.638 17.4196 483.338 17.5343C483.037 17.649 482.693 17.7063 482.308 17.7063ZM480.537 14.334H483.546C483.546 13.7681 483.422 13.3398 483.176 13.0493C482.936 12.751 482.597 12.6019 482.157 12.6019C481.957 12.6019 481.764 12.6401 481.579 12.7166C481.401 12.7931 481.239 12.9078 481.093 13.0607C480.946 13.206 480.823 13.3857 480.723 13.5998C480.63 13.814 480.568 14.0587 480.537 14.334Z" fill="#4D4D4D"/>
<path d="M488.976 17.5687L487.414 11.994H488.386L489.219 15.2172C489.28 15.4848 489.338 15.7448 489.392 15.9972C489.446 16.2496 489.5 16.5057 489.554 16.7657H489.601C489.662 16.5057 489.724 16.2496 489.786 15.9972C489.847 15.7372 489.913 15.4772 489.982 15.2172L490.85 11.994H491.776L492.655 15.2172C492.725 15.4848 492.79 15.7448 492.852 15.9972C492.921 16.2496 492.987 16.5057 493.049 16.7657H493.095C493.157 16.5057 493.214 16.2496 493.268 15.9972C493.322 15.7448 493.38 15.4848 493.442 15.2172L494.264 11.994H495.166L493.662 17.5687H492.505L491.695 14.5748C491.625 14.3072 491.56 14.0434 491.498 13.7834C491.444 13.5234 491.382 13.2519 491.313 12.969H491.267C491.205 13.2519 491.143 13.5272 491.082 13.7948C491.02 14.0548 490.95 14.3187 490.873 14.5863L490.087 17.5687H488.976Z" fill="#4D4D4D"/>
<path d="M496.39 17.5687V11.994H497.339V17.5687H496.39ZM496.876 10.8469C496.691 10.8469 496.533 10.7896 496.401 10.6748C496.278 10.5601 496.216 10.4148 496.216 10.239C496.216 10.0554 496.278 9.91014 496.401 9.80308C496.533 9.68838 496.691 9.63102 496.876 9.63102C497.061 9.63102 497.215 9.68838 497.339 9.80308C497.47 9.91014 497.535 10.0554 497.535 10.239C497.535 10.4148 497.47 10.5601 497.339 10.6748C497.215 10.7896 497.061 10.8469 496.876 10.8469Z" fill="#4D4D4D"/>
<path d="M501.008 17.7063C500.707 17.7063 500.452 17.6604 500.244 17.5687C500.043 17.4769 499.878 17.3507 499.746 17.1901C499.623 17.0296 499.534 16.8346 499.48 16.6051C499.426 16.3757 499.399 16.1234 499.399 15.8481V12.7625H498.566V12.0513L499.446 11.994L499.561 10.434H500.36V11.994H501.875V12.7625H500.36V15.8596C500.36 16.2037 500.421 16.4713 500.545 16.6625C500.676 16.846 500.904 16.9378 501.228 16.9378C501.328 16.9378 501.436 16.9225 501.551 16.8919C501.667 16.8613 501.771 16.8269 501.864 16.7887L502.049 17.4998C501.895 17.5534 501.725 17.5993 501.54 17.6375C501.363 17.6834 501.185 17.7063 501.008 17.7063Z" fill="#4D4D4D"/>
<path d="M503.147 17.5687V9.40161H504.096V11.6269L504.061 12.774C504.331 12.5216 504.613 12.3075 504.906 12.1316C505.199 11.9481 505.542 11.8563 505.936 11.8563C506.529 11.8563 506.961 12.0398 507.231 12.4069C507.509 12.774 507.648 13.3169 507.648 14.0357V17.5687H506.699V14.1619C506.699 13.6343 506.614 13.2557 506.445 13.0263C506.275 12.7893 506.005 12.6707 505.635 12.6707C505.342 12.6707 505.083 12.7434 504.859 12.8887C504.636 13.034 504.381 13.2481 504.096 13.531V17.5687H503.147Z" fill="#4D4D4D"/>
<path d="M459.811 31.8882V21.0523H463.304C463.873 21.0523 464.391 21.102 464.859 21.2014C465.338 21.2898 465.75 21.4389 466.095 21.6487C466.452 21.8476 466.725 22.1182 466.914 22.4606C467.115 22.803 467.215 23.2228 467.215 23.7198C467.215 24.239 467.082 24.7195 466.814 25.1613C466.547 25.6031 466.173 25.9069 465.694 26.0726V26.1388C466.296 26.2714 466.792 26.5531 467.182 26.9838C467.583 27.4036 467.784 27.978 467.784 28.707C467.784 29.2482 467.678 29.7177 467.466 30.1153C467.254 30.513 466.959 30.8443 466.58 31.1094C466.212 31.3745 465.772 31.5734 465.26 31.7059C464.747 31.8274 464.19 31.8882 463.589 31.8882H459.811ZM461.75 25.5258H463.137C463.906 25.5258 464.458 25.3877 464.792 25.1116C465.137 24.8354 465.31 24.4654 465.31 24.0015C465.31 23.4713 465.132 23.0957 464.775 22.8748C464.419 22.6539 463.884 22.5435 463.171 22.5435H461.75V25.5258ZM461.75 30.397H463.388C464.19 30.397 464.809 30.2534 465.243 29.9662C465.678 29.668 465.895 29.2151 465.895 28.6076C465.895 28.0332 465.683 27.619 465.26 27.3649C464.836 27.0998 464.212 26.9673 463.388 26.9673H461.75V30.397Z" fill="#4D4D4D"/>
<path d="M471.488 32.087C470.798 32.087 470.313 31.8826 470.034 31.4739C469.756 31.0653 469.617 30.5074 469.617 29.8005V20.1907H471.539V29.8999C471.539 30.1319 471.583 30.2976 471.672 30.397C471.761 30.4853 471.856 30.5295 471.956 30.5295C472.001 30.5295 472.04 30.5295 472.073 30.5295C472.118 30.5295 472.179 30.5185 472.257 30.4964L472.508 31.9213C472.252 32.0318 471.912 32.087 471.488 32.087Z" fill="#4D4D4D"/>
<path d="M477.513 32.087C477.001 32.087 476.511 31.9931 476.043 31.8053C475.575 31.6175 475.157 31.3414 474.789 30.9769C474.433 30.6124 474.148 30.165 473.937 29.6348C473.725 29.1046 473.619 28.5026 473.619 27.8288C473.619 27.1551 473.725 26.5531 473.937 26.0229C474.148 25.4927 474.433 25.0453 474.789 24.6808C475.157 24.3163 475.575 24.0402 476.043 23.8524C476.511 23.6536 477.001 23.5541 477.513 23.5541C478.026 23.5541 478.516 23.6536 478.984 23.8524C479.463 24.0402 479.881 24.3163 480.238 24.6808C480.594 25.0453 480.878 25.4927 481.09 26.0229C481.313 26.5531 481.424 27.1551 481.424 27.8288C481.424 28.5026 481.313 29.1046 481.09 29.6348C480.878 30.165 480.594 30.6124 480.238 30.9769C479.881 31.3414 479.463 31.6175 478.984 31.8053C478.516 31.9931 478.026 32.087 477.513 32.087ZM477.513 30.5295C478.115 30.5295 478.589 30.2865 478.934 29.8005C479.279 29.3035 479.452 28.6462 479.452 27.8288C479.452 27.0004 479.279 26.3432 478.934 25.8572C478.589 25.3601 478.115 25.1116 477.513 25.1116C476.912 25.1116 476.438 25.3601 476.093 25.8572C475.758 26.3432 475.591 27.0004 475.591 27.8288C475.591 28.6462 475.758 29.3035 476.093 29.8005C476.438 30.2865 476.912 30.5295 477.513 30.5295Z" fill="#4D4D4D"/>
<path d="M486.686 32.087C486.173 32.087 485.683 31.9931 485.215 31.8053C484.747 31.6175 484.329 31.3414 483.962 30.9769C483.605 30.6124 483.321 30.165 483.109 29.6348C482.898 29.1046 482.792 28.5026 482.792 27.8288C482.792 27.1551 482.898 26.5531 483.109 26.0229C483.321 25.4927 483.605 25.0453 483.962 24.6808C484.329 24.3163 484.747 24.0402 485.215 23.8524C485.683 23.6536 486.173 23.5541 486.686 23.5541C487.198 23.5541 487.689 23.6536 488.157 23.8524C488.636 24.0402 489.054 24.3163 489.41 24.6808C489.767 25.0453 490.051 25.4927 490.263 26.0229C490.485 26.5531 490.597 27.1551 490.597 27.8288C490.597 28.5026 490.485 29.1046 490.263 29.6348C490.051 30.165 489.767 30.6124 489.41 30.9769C489.054 31.3414 488.636 31.6175 488.157 31.8053C487.689 31.9931 487.198 32.087 486.686 32.087ZM486.686 30.5295C487.288 30.5295 487.761 30.2865 488.107 29.8005C488.452 29.3035 488.625 28.6462 488.625 27.8288C488.625 27.0004 488.452 26.3432 488.107 25.8572C487.761 25.3601 487.288 25.1116 486.686 25.1116C486.084 25.1116 485.611 25.3601 485.265 25.8572C484.931 26.3432 484.764 27.0004 484.764 27.8288C484.764 28.6462 484.931 29.3035 485.265 29.8005C485.611 30.2865 486.084 30.5295 486.686 30.5295Z" fill="#4D4D4D"/>
<path d="M492.499 31.8882V23.753H494.087L494.221 24.8631H494.288C494.633 24.4986 495.006 24.1893 495.407 23.9352C495.82 23.6812 496.282 23.5541 496.794 23.5541C497.396 23.5541 497.875 23.6812 498.232 23.9352C498.6 24.1893 498.878 24.5483 499.067 25.0122C499.457 24.5924 499.864 24.2445 500.288 23.9684C500.711 23.6922 501.184 23.5541 501.708 23.5541C502.577 23.5541 503.218 23.8358 503.63 24.3991C504.042 24.9514 504.249 25.7467 504.249 26.785V31.8882H502.31V27.0336C502.31 26.3598 502.204 25.8848 501.992 25.6087C501.792 25.3325 501.48 25.1944 501.056 25.1944C500.544 25.1944 499.97 25.5313 499.335 26.2051V31.8882H497.413V27.0336C497.413 26.3598 497.307 25.8848 497.095 25.6087C496.895 25.3325 496.577 25.1944 496.143 25.1944C495.63 25.1944 495.056 25.5313 494.421 26.2051V31.8882H492.499Z" fill="#4D4D4D"/>
<path d="M507.95 29.2817C506.871 29.2817 505.992 30.1527 505.992 31.2221C505.992 32.2916 506.871 33.1627 507.95 33.1627C509.028 33.1627 509.907 32.2916 509.907 31.2221C509.907 30.1527 509.028 29.2817 507.95 29.2817ZM507.95 29.6698C508.817 29.6698 509.516 30.3625 509.516 31.2221C509.516 32.0818 508.817 32.7745 507.95 32.7745C507.083 32.7745 506.384 32.0818 506.384 31.2221C506.384 30.3625 507.083 29.6698 507.95 29.6698ZM507.265 30.2519V32.1924H507.674V31.495H507.986L508.359 32.1924H508.794V32.1743L508.359 31.38C508.399 31.3604 508.461 31.34 508.5 31.3011C508.559 31.2619 508.577 31.2246 508.616 31.1858C508.656 31.1278 508.676 31.0864 508.696 31.0283C508.716 30.9702 508.714 30.9117 508.714 30.8341C508.714 30.7371 508.692 30.657 508.653 30.5794C508.633 30.5214 508.577 30.4679 508.519 30.4097C508.44 30.3517 508.378 30.3078 508.28 30.2884C508.202 30.2688 508.104 30.2522 507.986 30.2522L507.265 30.2519ZM507.693 30.6036H508.011C508.109 30.6036 508.185 30.618 508.243 30.6767C508.302 30.7347 508.323 30.7979 508.323 30.895C508.323 30.9342 508.324 30.9714 508.304 31.0102C508.285 31.0494 508.263 31.0878 508.243 31.1073C508.224 31.1269 508.185 31.1427 508.145 31.1615C508.106 31.1811 508.07 31.1856 508.011 31.1856H507.693V30.6036Z" fill="#4D4D4D"/>
<path d="M424 2H516V0H424V2ZM519 5V35.2353H521V5H519ZM516 38.2353H424V40.2353H516V38.2353ZM421 35.2353V4.99999H419V35.2353H421ZM424 38.2353C422.343 38.2353 421 36.8921 421 35.2353H419C419 37.9967 421.239 40.2353 424 40.2353V38.2353ZM519 35.2353C519 36.8922 517.657 38.2353 516 38.2353V40.2353C518.761 40.2353 521 37.9967 521 35.2353H519ZM516 2C517.657 2 519 3.34315 519 5H521C521 2.23858 518.761 0 516 0V2ZM424 0C421.239 0 419 2.23857 419 4.99999H421C421 3.34314 422.343 2 424 2V0Z" fill="#D65649"/>
</svg>
