<svg width="27" height="21" viewBox="0 0 27 21" fill="none" xmlns="http://www.w3.org/2000/svg">
<path fill-rule="evenodd" clip-rule="evenodd" d="M15.2332 13.3798C18.592 13.3798 21.3149 10.6569 21.3149 7.29807C21.3149 3.93923 18.592 1.21635 15.2332 1.21635C11.8743 1.21635 9.15146 3.93923 9.15146 7.29807C9.15146 10.6569 11.8743 13.3798 15.2332 13.3798ZM15.2332 14.5961C19.2638 14.5961 22.5313 11.3287 22.5313 7.29807C22.5313 3.26746 19.2638 0 15.2332 0C11.2026 0 7.93511 3.26746 7.93511 7.29807C7.93511 11.3287 11.2026 14.5961 15.2332 14.5961Z" fill="white"/>
<path fill-rule="evenodd" clip-rule="evenodd" d="M6.09018 18.5504L9.95943 14.4094C10.4635 13.9653 10.5121 13.1967 10.068 12.6927C9.62388 12.1886 8.85527 12.14 8.35123 12.5841L4.48198 16.7251C3.97794 17.1692 3.92934 17.9378 4.37343 18.4419C4.81752 18.9459 5.58614 18.9945 6.09018 18.5504ZM10.3678 11.8878C9.47962 10.8797 10.1595 9.78328 9.15146 10.6715L3.67787 15.8125C2.6698 16.7007 2.5726 18.2379 3.46079 19.246C4.34897 20.2541 5.8862 20.3512 6.89428 19.4631L11.5841 14.3205C12.5922 13.4323 11.256 12.8959 10.3678 11.8878Z" fill="white"/>
<line x1="12.1802" y1="7.56812" x2="14.3818" y2="9.76976" stroke="white" stroke-width="1.70288" stroke-linecap="round"/>
<line x1="14.3813" y1="9.76976" x2="18.2859" y2="5.86523" stroke="white" stroke-width="1.70288" stroke-linecap="round"/>
</svg>
