<svg width="118" height="184" viewBox="0 0 118 184" fill="none" xmlns="http://www.w3.org/2000/svg">
<g clip-path="url(#clip0_2001_5832)">
<rect width="118" height="184" rx="7" fill="#539EFF"/>
<path d="M40.5829 18H33.8437V24H40.5829V18Z" fill="white"/>
<path d="M62.0897 18H46.5829V24H62.0897V18Z" fill="white"/>
<path d="M83.5965 18H68.0897V24H83.5965V18Z" fill="white"/>
<rect width="50" height="49" transform="translate(33.7201 30)" fill="white"/>
<path d="M73.9326 65.9097C49.8758 49.4057 75.1492 50.2303 47.5893 59.8478C32.7612 65.0223 49.6034 87.8578 54.0707 72.836C62.3739 44.9159 69.3975 69.1449 51.7104 45.9738C42.1942 33.507 25.6245 56.5399 41.3287 56.1355C70.5171 55.3841 49.5845 69.5338 66.2133 45.5957C75.16 32.7164 48.0771 24.116 53.3156 38.8879C63.0518 66.3435 43.0911 50.8596 71.0553 59.2361C86.1009 63.743 85.9326 35.3948 73.4659 44.9287C50.2948 62.6487 58.891 38.9293 59.5451 68.0444C59.897 83.7092 86.8758 74.7894 73.9326 65.9097Z" fill="#888A85"/>
<path fill-rule="evenodd" clip-rule="evenodd" d="M68.242 36.534C69.6379 39.3126 69.5929 42.7016 67.1384 46.235C66.4371 47.2445 65.8042 48.1844 65.2326 49.0587C67.2241 47.9822 69.708 46.388 72.7811 44.0379C74.4354 42.7727 75.9864 42.0564 77.4187 41.8773C78.8855 41.6939 80.1649 42.0845 81.1753 42.9057C83.1161 44.483 83.8497 47.4383 83.7016 50.2561C83.5508 53.1251 82.4767 56.2408 80.3229 58.3603C78.1048 60.5431 74.8594 61.5477 70.7316 60.3112C69.5524 59.958 68.4606 59.648 67.4503 59.376C69.0922 60.9325 71.3798 62.796 74.5704 64.9849C76.288 66.1632 77.4504 67.4131 78.0637 68.7164C78.6919 70.0511 78.7147 71.3855 78.2439 72.5977C77.3397 74.9261 74.7484 76.5353 72.0158 77.2655C69.2335 78.009 65.9306 77.9529 63.2441 76.5649C60.4773 75.1353 58.5165 72.3672 58.42 68.0696C58.3924 66.8418 58.3506 65.7103 58.2977 64.6679C57.321 66.7063 56.2509 69.4522 55.1497 73.1552C54.5569 75.1486 53.7243 76.6374 52.6711 77.622C51.5925 78.6303 50.3272 79.0643 49.0259 78.9923C46.5262 78.8541 44.1911 76.8933 42.6504 74.5269C41.0816 72.1174 40.1145 68.9669 40.6078 65.9896C41.116 62.9233 43.1496 60.2079 47.2176 58.7883C48.3798 58.3827 49.4458 57.9934 50.4234 57.6211C48.1779 57.3245 45.2289 57.158 41.3578 57.2577C39.2738 57.3114 37.5969 56.9817 36.3325 56.2868C35.0378 55.5753 34.233 54.5092 33.8995 53.2525C33.2588 50.8386 34.4069 48.0176 36.1873 45.8248C38.0001 43.5921 40.7052 41.7012 43.6967 41.2492C46.7776 40.7836 49.9952 41.8736 52.6059 45.2938C53.3518 46.2709 54.0524 47.1618 54.7094 47.9741C54.2984 45.7524 53.5458 42.9036 52.2546 39.2622C51.5594 37.302 51.3556 35.6094 51.6274 34.1953C51.9058 32.7473 52.6737 31.6544 53.7689 30.9497C55.8726 29.5961 58.9173 29.8134 61.5584 30.8246C64.2475 31.8543 66.8865 33.836 68.242 36.534ZM55.1415 51.9885C53.8938 50.5586 52.4579 48.806 50.815 46.6537C48.6677 43.8406 46.2455 43.1346 44.0338 43.4688C41.7328 43.8166 39.4927 45.321 37.9365 47.2377C36.348 49.1942 35.7034 51.2765 36.0754 52.678C36.2482 53.329 36.6509 53.8985 37.4188 54.3205C38.217 54.7592 39.4576 55.0609 41.2997 55.0134C47.5167 54.8534 51.5608 55.3592 54.2233 56.0675C54.254 55.9047 54.3077 55.79 54.323 55.7573C54.3242 55.7549 54.3251 55.7529 54.3258 55.7514C54.3948 55.6003 54.4476 55.509 54.4974 55.4232C54.5781 55.2838 54.6507 55.1585 54.7709 54.814C54.9313 54.3544 55.1074 53.6104 55.1374 52.4435C55.1411 52.2983 55.1426 52.1467 55.1415 51.9885ZM57.5979 59.1098C57.5915 59.1287 57.5915 59.1251 57.5989 59.1065C57.5986 59.1077 57.5982 59.1087 57.5979 59.1098ZM57.9905 60.5833C57.8448 60.5039 57.752 60.4175 57.7255 60.3928C57.7236 60.391 57.722 60.3895 57.7208 60.3884C57.598 60.2762 57.5273 60.1979 57.4608 60.1242C57.3528 60.0045 57.2558 59.897 56.9645 59.6765C56.5758 59.3823 55.9208 58.9853 54.8173 58.5963C54.6801 58.5479 54.536 58.4997 54.3847 58.4518C52.6358 59.1935 50.5209 60.014 47.961 60.9073C44.615 62.075 43.1933 64.1545 42.8286 66.3557C42.449 68.6459 43.1914 71.2357 44.5381 73.3042C45.9128 75.4156 47.6991 76.6705 49.1504 76.7508C49.8246 76.788 50.4922 76.582 51.1318 75.984C51.7968 75.3624 52.4678 74.2788 52.9918 72.5168C54.7603 66.5699 56.4923 62.89 57.9905 60.5833ZM61.9342 58.3223C61.9503 58.3342 61.9469 58.3331 61.9314 58.3203C61.9324 58.321 61.9333 58.3217 61.9342 58.3223ZM63.4605 58.4052C63.3398 58.5189 63.2288 58.5802 63.197 58.5977C63.1947 58.599 63.1928 58.6 63.1914 58.6009C63.0465 58.6827 62.95 58.7255 62.8591 58.7658C62.7116 58.8312 62.5791 58.89 62.2788 59.0983C61.8782 59.3761 61.2973 59.8747 60.5853 60.8013C60.4968 60.9165 60.4063 61.0383 60.3139 61.1669C60.4806 63.0552 60.6095 65.3149 60.6703 68.0193C60.7497 71.5541 62.2932 73.5452 64.2794 74.5714C66.3459 75.6392 69.0448 75.7353 71.4333 75.097C73.8715 74.4454 75.62 73.1387 76.145 71.7868C76.3889 71.1589 76.3987 70.4619 76.0262 69.6704C75.6389 68.8475 74.8131 67.8762 73.2948 66.8346C68.1708 63.3193 65.1971 60.5392 63.4605 58.4052ZM62.5233 53.9656C62.5396 53.954 62.5375 53.9569 62.5205 53.9676C62.5215 53.9669 62.5224 53.9663 62.5233 53.9656ZM63.0741 52.5434C63.1451 52.693 63.1693 52.8173 63.1762 52.8528C63.1767 52.8554 63.1771 52.8575 63.1774 52.8591C63.2107 53.0219 63.2217 53.1267 63.232 53.2253C63.2488 53.3854 63.264 53.5293 63.3697 53.8785C63.5108 54.3443 63.8068 55.0495 64.4703 56.0111C64.5528 56.1307 64.6409 56.2542 64.7351 56.3816C66.5871 56.807 68.7816 57.383 71.3791 58.1611C74.7741 59.1781 77.1498 58.3291 78.7421 56.7622C80.3987 55.1319 81.3244 52.6015 81.4539 50.1385C81.586 47.6244 80.8804 45.5619 79.7535 44.6461C79.2301 44.2208 78.5686 43.9961 77.6987 44.1048C76.7944 44.2179 75.613 44.7012 74.1507 45.8195C69.2153 49.5938 65.6455 51.5555 63.0741 52.5434ZM58.5511 52.0605C58.5451 52.0415 58.5472 52.0443 58.5522 52.0637C58.5518 52.0626 58.5515 52.0615 58.5511 52.0605ZM55.507 55.2397C55.487 55.2396 55.4904 55.2385 55.5104 55.2397C55.5092 55.2397 55.5081 55.2397 55.507 55.2397ZM57.3651 51.0985C57.2178 48.3541 56.4504 44.3615 54.3766 38.5136C53.7621 36.7809 53.6664 35.5109 53.838 34.6181C54.0031 33.7593 54.4218 33.2013 54.9891 32.8362C56.2106 32.0503 58.3952 32.0183 60.7517 32.9205C63.0602 33.8044 65.187 35.4644 66.2296 37.5397C67.2317 39.5344 67.3071 42.0502 65.2882 44.9565C63.7437 47.1799 62.5162 49.0837 61.5383 50.709C61.3878 50.759 61.2428 50.8044 61.1032 50.8457C59.9812 51.1779 59.2174 51.2408 58.7296 51.2307C58.3639 51.2231 58.2221 51.1929 58.0642 51.1594C57.967 51.1388 57.8636 51.1168 57.6982 51.0981C57.6965 51.0979 57.6944 51.0976 57.6918 51.0973C57.6557 51.0929 57.5298 51.0774 57.3651 51.0985Z" fill="#888A85"/>
<path d="M63.7359 54.9893C63.7363 55.6354 63.6091 56.2753 63.3614 56.8724C63.1138 57.4695 62.7507 58.012 62.2927 58.4691C61.8348 58.9261 61.291 59.2887 60.6925 59.536C60.0941 59.7834 59.4526 59.9107 58.8048 59.9107C58.1569 59.9107 57.5155 59.7834 56.917 59.536C56.3185 59.2887 55.7748 58.9261 55.3168 58.4691C54.8589 58.012 54.4957 57.4695 54.2481 56.8724C54.0004 56.2753 53.8732 55.6354 53.8736 54.9893C53.8732 54.3431 54.0004 53.7032 54.2481 53.1062C54.4957 52.5091 54.8589 51.9665 55.3168 51.5095C55.7748 51.0525 56.3185 50.6899 56.917 50.4426C57.5155 50.1952 58.1569 50.0679 58.8048 50.0679C59.4526 50.0679 60.0941 50.1952 60.6925 50.4426C61.291 50.6899 61.8348 51.0525 62.2927 51.5095C62.7507 51.9665 63.1138 52.5091 63.3614 53.1062C63.6091 53.7032 63.7363 54.3431 63.7359 54.9893V54.9893Z" fill="#BABDB6"/>
<path fill-rule="evenodd" clip-rule="evenodd" d="M58.8048 51.1904C58.3048 51.1904 57.8097 51.2887 57.3478 51.4796C56.8859 51.6705 56.4663 51.9503 56.1129 52.3031C55.7594 52.6558 55.4792 53.0745 55.288 53.5353C55.0969 53.9961 54.9987 54.49 54.999 54.9887V54.99C54.9987 55.4887 55.0969 55.9826 55.288 56.4434C55.4792 56.9042 55.7594 57.3229 56.1129 57.6756C56.4663 58.0284 56.8859 58.3082 57.3478 58.4991C57.8097 58.69 58.3048 58.7882 58.8048 58.7882C59.3047 58.7882 59.7998 58.69 60.2617 58.4991C60.7236 58.3082 61.1432 58.0284 61.4967 57.6756C61.8501 57.3229 62.1304 56.9042 62.3215 56.4434C62.5126 55.9826 62.6108 55.4887 62.6105 54.99L63.7359 54.9893L62.6105 54.9887C62.6108 54.49 62.5126 53.9961 62.3215 53.5353C62.1304 53.0745 61.8501 52.6558 61.4967 52.3031C61.1432 51.9503 60.7236 51.6705 60.2617 51.4796C59.7998 51.2887 59.3047 51.1904 58.8048 51.1904ZM64.8614 54.9893C64.8618 54.196 64.7055 53.4103 64.4014 52.6772C64.0973 51.9438 63.6512 51.2774 63.0888 50.7161C62.5263 50.1547 61.8584 49.7094 61.1234 49.4056C60.3883 49.1018 59.6005 48.9454 58.8048 48.9454C58.0091 48.9454 57.2212 49.1018 56.4861 49.4056C55.7511 49.7094 55.0832 50.1547 54.5208 50.7161C53.9583 51.2774 53.5123 51.9438 53.2081 52.6772C52.9041 53.4103 52.7478 54.196 52.7482 54.9893C52.7478 55.7827 52.9041 56.5684 53.2081 57.3015C53.5123 58.0349 53.9583 58.7013 54.5208 59.2626C55.0832 59.824 55.7511 60.2693 56.4861 60.5731C57.2212 60.8769 58.0091 61.0333 58.8048 61.0333C59.6005 61.0333 60.3883 60.8769 61.1234 60.5731C61.8584 60.2693 62.5263 59.824 63.0888 59.2626C63.6512 58.7013 64.0973 58.0349 64.4014 57.3015C64.7055 56.5684 64.8618 55.7827 64.8614 54.9893Z" fill="#BABDB6"/>
<path d="M30.2201 88C30.2201 86.3431 31.5632 85 33.2201 85H84.2201C85.8769 85 87.2201 86.3431 87.2201 88V99C87.2201 100.657 85.8769 102 84.2201 102H33.2201C31.5632 102 30.2201 100.657 30.2201 99V88Z" fill="white"/>
<path d="M51.9677 96.4172L53.1161 90.3469H54.868L52.9755 98.8782H51.2059L49.8173 93.1711L48.4286 98.8782H46.6591L44.7665 90.3469H46.5184L47.6727 96.4055L49.079 90.3469H50.5673L51.9677 96.4172ZM55.2606 95.6497C55.2606 95.0208 55.3817 94.4602 55.6239 93.968C55.8661 93.4758 56.2137 93.095 56.6669 92.8254C57.1239 92.5559 57.6532 92.4211 58.2548 92.4211C59.1102 92.4211 59.8075 92.6829 60.3466 93.2063C60.8895 93.7297 61.1923 94.4407 61.2548 95.3391L61.2665 95.7727C61.2665 96.7454 60.995 97.5266 60.452 98.1165C59.9091 98.7024 59.1805 98.9954 58.2665 98.9954C57.3524 98.9954 56.6219 98.7024 56.0751 98.1165C55.5321 97.5305 55.2606 96.7336 55.2606 95.7258V95.6497ZM56.954 95.7727C56.954 96.3743 57.0673 96.8352 57.2938 97.1555C57.5204 97.4719 57.8446 97.6301 58.2665 97.6301C58.6766 97.6301 58.9969 97.4739 59.2274 97.1614C59.4579 96.845 59.5731 96.3411 59.5731 95.6497C59.5731 95.0598 59.4579 94.6028 59.2274 94.2786C58.9969 93.9543 58.6727 93.7922 58.2548 93.7922C57.8407 93.7922 57.5204 93.9543 57.2938 94.2786C57.0673 94.5989 56.954 95.0969 56.954 95.7727ZM65.8719 94.1262C65.6415 94.095 65.4384 94.0793 65.2626 94.0793C64.6219 94.0793 64.202 94.2961 64.0028 94.7297V98.8782H62.3094V92.5383H63.9091L63.9559 93.2942C64.2958 92.7122 64.7665 92.4211 65.368 92.4211C65.5555 92.4211 65.7313 92.4465 65.8954 92.4973L65.8719 94.1262ZM66.3114 95.6614C66.3114 94.6731 66.5321 93.886 66.9735 93.3C67.4188 92.7141 68.0262 92.4211 68.7958 92.4211C69.413 92.4211 69.9227 92.6516 70.3251 93.1125V89.8782H72.0243V98.8782H70.495L70.413 98.2043C69.9911 98.7317 69.4481 98.9954 68.7841 98.9954C68.038 98.9954 67.4384 98.7024 66.9852 98.1165C66.536 97.5266 66.3114 96.7083 66.3114 95.6614ZM68.0048 95.7844C68.0048 96.3782 68.1083 96.8333 68.3153 97.1497C68.5223 97.4661 68.8231 97.6243 69.2177 97.6243C69.7411 97.6243 70.1102 97.4036 70.3251 96.9622V94.4602C70.1141 94.0188 69.7489 93.7981 69.2294 93.7981C68.413 93.7981 68.0048 94.4602 68.0048 95.7844Z" fill="#0069F1"/>
<path d="M30.2201 111C30.2201 109.343 31.5632 108 33.2201 108H84.2201C85.8769 108 87.2201 109.343 87.2201 111V122C87.2201 123.657 85.8769 125 84.2201 125H33.2201C31.5632 125 30.2201 123.657 30.2201 122V111Z" fill="#6CD05A"/>
<path d="M51.9677 119.417L53.1161 113.347H54.868L52.9755 121.878H51.2059L49.8173 116.171L48.4286 121.878H46.6591L44.7665 113.347H46.5184L47.6727 119.406L49.079 113.347H50.5673L51.9677 119.417ZM55.2606 118.65C55.2606 118.021 55.3817 117.46 55.6239 116.968C55.8661 116.476 56.2137 116.095 56.6669 115.825C57.1239 115.556 57.6532 115.421 58.2548 115.421C59.1102 115.421 59.8075 115.683 60.3466 116.206C60.8895 116.73 61.1923 117.441 61.2548 118.339L61.2665 118.773C61.2665 119.745 60.995 120.527 60.452 121.116C59.9091 121.702 59.1805 121.995 58.2665 121.995C57.3524 121.995 56.6219 121.702 56.0751 121.116C55.5321 120.531 55.2606 119.734 55.2606 118.726V118.65ZM56.954 118.773C56.954 119.374 57.0673 119.835 57.2938 120.156C57.5204 120.472 57.8446 120.63 58.2665 120.63C58.6766 120.63 58.9969 120.474 59.2274 120.161C59.4579 119.845 59.5731 119.341 59.5731 118.65C59.5731 118.06 59.4579 117.603 59.2274 117.279C58.9969 116.954 58.6727 116.792 58.2548 116.792C57.8407 116.792 57.5204 116.954 57.2938 117.279C57.0673 117.599 56.954 118.097 56.954 118.773ZM65.8719 117.126C65.6415 117.095 65.4384 117.079 65.2626 117.079C64.6219 117.079 64.202 117.296 64.0028 117.73V121.878H62.3094V115.538H63.9091L63.9559 116.294C64.2958 115.712 64.7665 115.421 65.368 115.421C65.5555 115.421 65.7313 115.447 65.8954 115.497L65.8719 117.126ZM66.3114 118.661C66.3114 117.673 66.5321 116.886 66.9735 116.3C67.4188 115.714 68.0262 115.421 68.7958 115.421C69.413 115.421 69.9227 115.652 70.3251 116.113V112.878H72.0243V121.878H70.495L70.413 121.204C69.9911 121.732 69.4481 121.995 68.7841 121.995C68.038 121.995 67.4384 121.702 66.9852 121.116C66.536 120.527 66.3114 119.708 66.3114 118.661ZM68.0048 118.784C68.0048 119.378 68.1083 119.833 68.3153 120.15C68.5223 120.466 68.8231 120.624 69.2177 120.624C69.7411 120.624 70.1102 120.404 70.3251 119.962V117.46C70.1141 117.019 69.7489 116.798 69.2294 116.798C68.413 116.798 68.0048 117.46 68.0048 118.784Z" fill="white"/>
<path d="M30.2201 134C30.2201 132.343 31.5632 131 33.2201 131H84.2201C85.8769 131 87.2201 132.343 87.2201 134V145C87.2201 146.657 85.8769 148 84.2201 148H33.2201C31.5632 148 30.2201 146.657 30.2201 145V134Z" fill="white"/>
<path d="M51.9677 142.417L53.1161 136.347H54.868L52.9755 144.878H51.2059L49.8173 139.171L48.4286 144.878H46.6591L44.7665 136.347H46.5184L47.6727 142.406L49.079 136.347H50.5673L51.9677 142.417ZM55.2606 141.65C55.2606 141.021 55.3817 140.46 55.6239 139.968C55.8661 139.476 56.2137 139.095 56.6669 138.825C57.1239 138.556 57.6532 138.421 58.2548 138.421C59.1102 138.421 59.8075 138.683 60.3466 139.206C60.8895 139.73 61.1923 140.441 61.2548 141.339L61.2665 141.773C61.2665 142.745 60.995 143.527 60.452 144.116C59.9091 144.702 59.1805 144.995 58.2665 144.995C57.3524 144.995 56.6219 144.702 56.0751 144.116C55.5321 143.531 55.2606 142.734 55.2606 141.726V141.65ZM56.954 141.773C56.954 142.374 57.0673 142.835 57.2938 143.156C57.5204 143.472 57.8446 143.63 58.2665 143.63C58.6766 143.63 58.9969 143.474 59.2274 143.161C59.4579 142.845 59.5731 142.341 59.5731 141.65C59.5731 141.06 59.4579 140.603 59.2274 140.279C58.9969 139.954 58.6727 139.792 58.2548 139.792C57.8407 139.792 57.5204 139.954 57.2938 140.279C57.0673 140.599 56.954 141.097 56.954 141.773ZM65.8719 140.126C65.6415 140.095 65.4384 140.079 65.2626 140.079C64.6219 140.079 64.202 140.296 64.0028 140.73V144.878H62.3094V138.538H63.9091L63.9559 139.294C64.2958 138.712 64.7665 138.421 65.368 138.421C65.5555 138.421 65.7313 138.447 65.8954 138.497L65.8719 140.126ZM66.3114 141.661C66.3114 140.673 66.5321 139.886 66.9735 139.3C67.4188 138.714 68.0262 138.421 68.7958 138.421C69.413 138.421 69.9227 138.652 70.3251 139.113V135.878H72.0243V144.878H70.495L70.413 144.204C69.9911 144.732 69.4481 144.995 68.7841 144.995C68.038 144.995 67.4384 144.702 66.9852 144.116C66.536 143.527 66.3114 142.708 66.3114 141.661ZM68.0048 141.784C68.0048 142.378 68.1083 142.833 68.3153 143.15C68.5223 143.466 68.8231 143.624 69.2177 143.624C69.7411 143.624 70.1102 143.404 70.3251 142.962V140.46C70.1141 140.019 69.7489 139.798 69.2294 139.798C68.413 139.798 68.0048 140.46 68.0048 141.784Z" fill="#0069F1"/>
<path d="M6.43539 -4.07458C3.22498 -4.07458 0.622514 -1.4718 0.622192 1.73861V182.722C0.622541 185.933 3.22498 188.535 6.43539 188.535H112.187C115.397 188.535 118 185.933 118 182.722V1.73861C118 -1.4718 115.397 -4.07426 112.187 -4.07458H6.43539ZM12.2486 11.9698H106.374V164.818H12.2486V11.9698Z" fill="#848484"/>
<path d="M59.3111 181.942C62.7968 181.942 65.6226 179.116 65.6226 175.63C65.6226 172.145 62.7968 169.319 59.3111 169.319C55.8254 169.319 52.9996 172.145 52.9996 175.63C52.9996 179.116 55.8254 181.942 59.3111 181.942Z" fill="white"/>
</g>
<defs>
<clipPath id="clip0_2001_5832">
<rect width="118" height="184" rx="7" fill="white"/>
</clipPath>
</defs>
</svg>
