<svg width="184" height="118" viewBox="0 0 184 118" fill="none" xmlns="http://www.w3.org/2000/svg">
<g clip-path="url(#clip0_2001_5900)">
<rect y="118" width="118" height="184" rx="7" transform="rotate(-90 0 118)" fill="#539EFF"/>
<path d="M87 29.9918C87 28.5327 88.1828 27.35 89.6418 27.35H138.075C139.534 27.35 140.717 28.5327 140.717 29.9918V45.8426C140.717 47.3016 139.534 48.4844 138.075 48.4844H89.6418C88.1828 48.4844 87 47.3016 87 45.8426V29.9918Z" fill="white"/>
<path d="M119.485 42.4283C110.587 35.9031 119.935 36.2291 109.742 40.0316C104.257 42.0774 110.486 51.1059 112.139 45.1667C115.21 34.1279 117.807 43.7074 111.266 34.5462C107.746 29.6172 101.618 38.7237 107.426 38.5639C118.221 38.2667 110.48 43.8611 116.63 34.3967C119.939 29.3046 109.922 25.9042 111.859 31.7446C115.46 42.5998 108.078 36.4779 118.421 39.7897C123.985 41.5716 123.923 30.3636 119.312 34.133C110.742 41.139 113.922 31.761 114.163 43.2723C114.294 49.4657 124.272 45.9391 119.485 42.4283Z" fill="#888A85"/>
<path fill-rule="evenodd" clip-rule="evenodd" d="M117.38 30.8139C117.896 31.9125 117.88 33.2524 116.972 34.6495C116.712 35.0486 116.478 35.4202 116.267 35.7659C117.004 35.3402 117.922 34.71 119.059 33.7808C119.671 33.2806 120.244 32.9973 120.774 32.9265C121.317 32.854 121.79 33.0085 122.163 33.3331C122.881 33.9567 123.153 35.1252 123.098 36.2393C123.042 37.3736 122.645 38.6055 121.848 39.4434C121.028 40.3065 119.827 40.7036 118.301 40.2148C117.865 40.0751 117.461 39.9526 117.087 39.845C117.694 40.4604 118.541 41.1972 119.721 42.0626C120.356 42.5285 120.786 43.0226 121.013 43.538C121.245 44.0657 121.253 44.5932 121.079 45.0725C120.745 45.9931 119.786 46.6293 118.776 46.918C117.747 47.212 116.525 47.1898 115.532 46.641C114.508 46.0758 113.783 44.9814 113.747 43.2822C113.737 42.7968 113.722 42.3494 113.702 41.9373C113.341 42.7432 112.945 43.8289 112.538 45.2929C112.319 46.081 112.011 46.6697 111.621 47.059C111.222 47.4576 110.754 47.6292 110.273 47.6008C109.348 47.5461 108.485 46.7709 107.915 45.8352C107.335 44.8826 106.977 43.637 107.159 42.4598C107.347 41.2475 108.1 40.1739 109.604 39.6126C110.034 39.4523 110.428 39.2984 110.79 39.1512C109.959 39.0339 108.869 38.9681 107.437 39.0075C106.666 39.0287 106.046 38.8984 105.578 38.6236C105.099 38.3423 104.802 37.9208 104.678 37.424C104.441 36.4696 104.866 35.3542 105.525 34.4873C106.195 33.6045 107.195 32.8569 108.302 32.6782C109.441 32.4941 110.631 32.9251 111.597 34.2773C111.873 34.6636 112.132 35.0159 112.375 35.3371C112.223 34.4586 111.945 33.3323 111.467 31.8926C111.21 31.1176 111.135 30.4484 111.235 29.8893C111.338 29.3168 111.622 28.8847 112.027 28.6061C112.805 28.0709 113.931 28.1568 114.908 28.5566C115.903 28.9637 116.879 29.7472 117.38 30.8139ZM112.535 36.9242C112.073 36.3589 111.542 35.6659 110.935 34.815C110.14 33.7028 109.245 33.4237 108.427 33.5558C107.576 33.6933 106.747 34.2881 106.171 35.0459C105.584 35.8194 105.346 36.6427 105.483 37.1968C105.547 37.4542 105.696 37.6794 105.98 37.8462C106.275 38.0197 106.734 38.1389 107.415 38.1202C109.715 38.0569 111.21 38.2569 112.195 38.5369C112.207 38.4726 112.226 38.4272 112.232 38.4143C112.232 38.4133 112.233 38.4126 112.233 38.412C112.259 38.3522 112.278 38.3161 112.297 38.2822C112.326 38.2271 112.353 38.1775 112.398 38.0413C112.457 37.8596 112.522 37.5655 112.533 37.1041C112.535 37.0467 112.535 36.9868 112.535 36.9242ZM113.443 39.7398C113.441 39.7472 113.441 39.7458 113.444 39.7385C113.443 39.7389 113.443 39.7393 113.443 39.7398ZM113.588 40.3223C113.535 40.2909 113.5 40.2568 113.49 40.247C113.49 40.2463 113.489 40.2457 113.489 40.2453C113.443 40.201 113.417 40.17 113.393 40.1408C113.353 40.0935 113.317 40.051 113.209 39.9638C113.065 39.8475 112.823 39.6906 112.415 39.5368C112.364 39.5176 112.311 39.4986 112.255 39.4796C111.608 39.7728 110.826 40.0973 109.879 40.4505C108.641 40.9121 108.116 41.7343 107.981 42.6046C107.84 43.5101 108.115 44.534 108.613 45.3518C109.122 46.1866 109.782 46.6828 110.319 46.7145C110.568 46.7292 110.815 46.6478 111.052 46.4114C111.298 46.1656 111.546 45.7372 111.74 45.0405C112.394 42.6893 113.034 41.2343 113.588 40.3223ZM115.047 39.4284C115.053 39.4331 115.052 39.4327 115.046 39.4276C115.046 39.4279 115.047 39.4282 115.047 39.4284ZM115.612 39.4612C115.567 39.5062 115.526 39.5304 115.514 39.5373C115.513 39.5378 115.513 39.5382 115.512 39.5386C115.458 39.5709 115.423 39.5878 115.389 39.6038C115.335 39.6296 115.286 39.6529 115.174 39.7352C115.026 39.845 114.811 40.0422 114.548 40.4085C114.515 40.4541 114.482 40.5022 114.448 40.5531C114.509 41.2997 114.557 42.1931 114.58 43.2623C114.609 44.6599 115.18 45.4471 115.914 45.8529C116.679 46.275 117.677 46.313 118.56 46.0606C119.462 45.803 120.109 45.2864 120.303 44.7519C120.393 44.5036 120.397 44.2281 120.259 43.9151C120.116 43.5898 119.81 43.2057 119.249 42.7939C117.354 41.4041 116.254 40.3049 115.612 39.4612ZM115.265 37.7059C115.271 37.7013 115.27 37.7025 115.264 37.7067C115.264 37.7064 115.265 37.7062 115.265 37.7059ZM115.469 37.1436C115.495 37.2028 115.504 37.2519 115.506 37.2659C115.507 37.2669 115.507 37.2678 115.507 37.2684C115.519 37.3328 115.523 37.3742 115.527 37.4132C115.533 37.4765 115.539 37.5334 115.578 37.6715C115.63 37.8556 115.74 38.1344 115.985 38.5146C116.016 38.5619 116.048 38.6108 116.083 38.6611C116.768 38.8293 117.58 39.0571 118.54 39.3647C119.796 39.7668 120.675 39.4311 121.263 38.8116C121.876 38.167 122.219 37.1666 122.266 36.1928C122.315 35.1988 122.054 34.3833 121.638 34.0212C121.444 33.8531 121.199 33.7642 120.878 33.8072C120.543 33.8519 120.106 34.043 119.565 34.4852C117.74 35.9774 116.42 36.753 115.469 37.1436ZM113.796 36.9527C113.794 36.9451 113.794 36.9463 113.796 36.9539C113.796 36.9535 113.796 36.9531 113.796 36.9527ZM112.67 38.2097C112.663 38.2096 112.664 38.2092 112.671 38.2097C112.671 38.2097 112.67 38.2097 112.67 38.2097ZM113.357 36.5723C113.303 35.4873 113.019 33.9087 112.252 31.5966C112.025 30.9115 111.989 30.4094 112.053 30.0565C112.114 29.7169 112.269 29.4963 112.478 29.3519C112.93 29.0412 113.738 29.0285 114.61 29.3853C115.463 29.7348 116.25 30.3911 116.636 31.2116C117.006 32.0002 117.034 32.9949 116.288 34.144C115.716 35.023 115.262 35.7757 114.901 36.4183C114.845 36.4381 114.791 36.4561 114.74 36.4724C114.325 36.6037 114.042 36.6286 113.862 36.6246C113.727 36.6216 113.674 36.6097 113.616 36.5964C113.58 36.5883 113.542 36.5796 113.48 36.5722C113.48 36.5721 113.479 36.572 113.478 36.5719C113.465 36.5701 113.418 36.564 113.357 36.5723Z" fill="#888A85"/>
<path d="M115.713 38.1107C115.714 38.3662 115.666 38.6192 115.575 38.8552C115.483 39.0913 115.349 39.3058 115.18 39.4865C115.01 39.6672 114.809 39.8106 114.588 39.9084C114.366 40.0062 114.129 40.0565 113.89 40.0565C113.65 40.0565 113.413 40.0062 113.191 39.9084C112.97 39.8106 112.769 39.6672 112.6 39.4865C112.43 39.3058 112.296 39.0913 112.204 38.8552C112.113 38.6192 112.066 38.3662 112.066 38.1107C112.066 37.8552 112.113 37.6022 112.204 37.3662C112.296 37.1301 112.43 36.9156 112.6 36.7349C112.769 36.5542 112.97 36.4109 113.191 36.3131C113.413 36.2153 113.65 36.1649 113.89 36.1649C114.129 36.1649 114.366 36.2153 114.588 36.3131C114.809 36.4109 115.01 36.5542 115.18 36.7349C115.349 36.9156 115.483 37.1301 115.575 37.3662C115.666 37.6022 115.714 37.8552 115.713 38.1107V38.1107Z" fill="#BABDB6"/>
<path fill-rule="evenodd" clip-rule="evenodd" d="M113.89 36.6087C113.705 36.6087 113.522 36.6475 113.351 36.723C113.18 36.7985 113.025 36.9091 112.894 37.0486C112.763 37.188 112.66 37.3536 112.589 37.5358C112.518 37.718 112.482 37.9132 112.482 38.1104V38.1109C112.482 38.3081 112.518 38.5033 112.589 38.6855C112.66 38.8677 112.763 39.0333 112.894 39.1727C113.025 39.3122 113.18 39.4228 113.351 39.4983C113.522 39.5738 113.705 39.6126 113.89 39.6126C114.075 39.6126 114.258 39.5738 114.428 39.4983C114.599 39.4228 114.755 39.3122 114.885 39.1727C115.016 39.0333 115.12 38.8677 115.19 38.6855C115.261 38.5033 115.297 38.3081 115.297 38.1109L115.713 38.1107L115.297 38.1104C115.297 37.9132 115.261 37.718 115.19 37.5358C115.12 37.3536 115.016 37.188 114.885 37.0486C114.755 36.9091 114.599 36.7985 114.428 36.723C114.258 36.6475 114.075 36.6087 113.89 36.6087ZM116.13 38.1107C116.13 37.797 116.072 37.4863 115.96 37.1965C115.847 36.9065 115.682 36.6431 115.474 36.4211C115.266 36.1992 115.019 36.0231 114.747 35.903C114.475 35.7829 114.184 35.7211 113.89 35.7211C113.595 35.7211 113.304 35.7829 113.032 35.903C112.76 36.0231 112.513 36.1992 112.305 36.4211C112.097 36.6431 111.932 36.9065 111.82 37.1965C111.707 37.4863 111.649 37.797 111.65 38.1107C111.649 38.4243 111.707 38.735 111.82 39.0248C111.932 39.3148 112.097 39.5782 112.305 39.8002C112.513 40.0221 112.76 40.1982 113.032 40.3183C113.304 40.4384 113.595 40.5002 113.89 40.5002C114.184 40.5002 114.475 40.4384 114.747 40.3183C115.019 40.1982 115.266 40.0221 115.474 39.8002C115.682 39.5782 115.847 39.3148 115.96 39.0248C116.072 38.735 116.13 38.4243 116.13 38.1107Z" fill="#BABDB6"/>
<path d="M87 56.4097C87 54.9507 88.1828 53.7679 89.6418 53.7679H138.075C139.534 53.7679 140.717 54.9507 140.717 56.4097V72.2605C140.717 73.7196 139.534 74.9023 138.075 74.9023H89.6418C88.1828 74.9023 87 73.7196 87 72.2605V56.4097Z" fill="#6CD05A"/>
<path d="M119.485 68.8463C110.587 62.321 119.935 62.6471 109.742 66.4495C104.257 68.4954 110.486 77.5239 112.139 71.5847C115.21 60.5459 117.807 70.1253 111.266 60.9641C107.746 56.0351 101.618 65.1417 107.426 64.9818C118.221 64.6847 110.48 70.2791 116.63 60.8147C119.939 55.7225 109.922 52.3222 111.859 58.1626C115.46 69.0177 108.078 62.8958 118.421 66.2077C123.985 67.9896 123.923 56.7815 119.312 60.551C110.742 67.5569 113.922 58.179 114.163 69.6902C114.294 75.8836 124.272 72.357 119.485 68.8463Z" fill="#888A85"/>
<path fill-rule="evenodd" clip-rule="evenodd" d="M117.38 57.2319C117.896 58.3305 117.88 59.6704 116.972 61.0674C116.712 61.4665 116.478 61.8381 116.267 62.1838C117.004 61.7582 117.922 61.1279 119.059 60.1987C119.671 59.6985 120.244 59.4153 120.774 59.3445C121.317 59.272 121.79 59.4264 122.163 59.7511C122.881 60.3747 123.153 61.5432 123.098 62.6572C123.042 63.7916 122.645 65.0234 121.848 65.8614C121.028 66.7244 119.827 67.1216 118.301 66.6327C117.865 66.4931 117.461 66.3705 117.087 66.263C117.694 66.8784 118.541 67.6152 119.721 68.4806C120.356 68.9465 120.786 69.4406 121.013 69.9559C121.245 70.4836 121.253 71.0112 121.079 71.4905C120.745 72.4111 119.786 73.0473 118.776 73.336C117.747 73.63 116.525 73.6078 115.532 73.059C114.508 72.4938 113.783 71.3993 113.747 69.7002C113.737 69.2147 113.722 68.7674 113.702 68.3552C113.341 69.1612 112.945 70.2468 112.538 71.7109C112.319 72.499 112.011 73.0877 111.621 73.4769C111.222 73.8756 110.754 74.0472 110.273 74.0187C109.348 73.9641 108.485 73.1888 107.915 72.2532C107.335 71.3006 106.977 70.055 107.159 68.8778C107.347 67.6655 108.1 66.5919 109.604 66.0306C110.034 65.8703 110.428 65.7164 110.79 65.5692C109.959 65.4519 108.869 65.3861 107.437 65.4255C106.666 65.4467 106.046 65.3163 105.578 65.0416C105.099 64.7603 104.802 64.3388 104.678 63.8419C104.441 62.8876 104.866 61.7722 105.525 60.9052C106.195 60.0225 107.195 59.2749 108.302 59.0962C109.441 58.9121 110.631 59.343 111.597 60.6953C111.873 61.0816 112.132 61.4338 112.375 61.755C112.223 60.8766 111.945 59.7503 111.467 58.3106C111.21 57.5356 111.135 56.8663 111.235 56.3073C111.338 55.7348 111.622 55.3027 112.027 55.024C112.805 54.4889 113.931 54.5748 114.908 54.9746C115.903 55.3817 116.879 56.1652 117.38 57.2319ZM112.535 63.3422C112.073 62.7768 111.542 62.0839 110.935 61.233C110.14 60.1207 109.245 59.8416 108.427 59.9738C107.576 60.1112 106.747 60.7061 106.171 61.4638C105.584 62.2374 105.346 63.0607 105.483 63.6148C105.547 63.8722 105.696 64.0974 105.98 64.2642C106.275 64.4376 106.734 64.5569 107.415 64.5382C109.715 64.4749 111.21 64.6748 112.195 64.9549C112.207 64.8905 112.226 64.8452 112.232 64.8322C112.232 64.8313 112.233 64.8305 112.233 64.8299C112.259 64.7702 112.278 64.7341 112.297 64.7002C112.326 64.645 112.353 64.5955 112.398 64.4593C112.457 64.2776 112.522 63.9834 112.533 63.5221C112.535 63.4647 112.535 63.4047 112.535 63.3422ZM113.443 66.1577C113.441 66.1652 113.441 66.1638 113.444 66.1565C113.443 66.1569 113.443 66.1573 113.443 66.1577ZM113.588 66.7403C113.535 66.7089 113.5 66.6748 113.49 66.665C113.49 66.6643 113.489 66.6637 113.489 66.6633C113.443 66.6189 113.417 66.588 113.393 66.5588C113.353 66.5115 113.317 66.469 113.209 66.3818C113.065 66.2655 112.823 66.1085 112.415 65.9547C112.364 65.9356 112.311 65.9165 112.255 65.8976C111.608 66.1908 110.826 66.5152 109.879 66.8684C108.641 67.3301 108.116 68.1523 107.981 69.0226C107.84 69.928 108.115 70.952 108.613 71.7698C109.122 72.6046 109.782 73.1007 110.319 73.1325C110.568 73.1472 110.815 73.0657 111.052 72.8293C111.298 72.5835 111.546 72.1551 111.74 71.4585C112.394 69.1073 113.034 67.6523 113.588 66.7403ZM115.047 65.8464C115.053 65.8511 115.052 65.8507 115.046 65.8456C115.046 65.8459 115.047 65.8461 115.047 65.8464ZM115.612 65.8792C115.567 65.9241 115.526 65.9484 115.514 65.9553C115.513 65.9558 115.513 65.9562 115.512 65.9565C115.458 65.9889 115.423 66.0058 115.389 66.0217C115.335 66.0476 115.286 66.0709 115.174 66.1532C115.026 66.263 114.811 66.4602 114.548 66.8265C114.515 66.8721 114.482 66.9202 114.448 66.9711C114.509 67.7176 114.557 68.6111 114.58 69.6803C114.609 71.0778 115.18 71.8651 115.914 72.2708C116.679 72.693 117.677 72.731 118.56 72.4786C119.462 72.221 120.109 71.7044 120.303 71.1699C120.393 70.9216 120.397 70.6461 120.259 70.3331C120.116 70.0077 119.81 69.6237 119.249 69.2119C117.354 67.8221 116.254 66.7229 115.612 65.8792ZM115.265 64.1239C115.271 64.1193 115.27 64.1204 115.264 64.1247C115.264 64.1244 115.265 64.1241 115.265 64.1239ZM115.469 63.5616C115.495 63.6207 115.504 63.6699 115.506 63.6839C115.507 63.6849 115.507 63.6858 115.507 63.6864C115.519 63.7507 115.523 63.7922 115.527 63.8312C115.533 63.8945 115.539 63.9514 115.578 64.0894C115.63 64.2736 115.74 64.5524 115.985 64.9326C116.016 64.9799 116.048 65.0287 116.083 65.0791C116.768 65.2473 117.58 65.475 118.54 65.7826C119.796 66.1847 120.675 65.8491 121.263 65.2296C121.876 64.585 122.219 63.5845 122.266 62.6108C122.315 61.6167 122.054 60.8013 121.638 60.4392C121.444 60.271 121.199 60.1822 120.878 60.2252C120.543 60.2699 120.106 60.461 119.565 60.9031C117.74 62.3954 116.42 63.171 115.469 63.5616ZM113.796 63.3706C113.794 63.3631 113.794 63.3642 113.796 63.3719C113.796 63.3715 113.796 63.371 113.796 63.3706ZM112.67 64.6276C112.663 64.6276 112.664 64.6271 112.671 64.6276C112.671 64.6276 112.67 64.6276 112.67 64.6276ZM113.357 62.9903C113.303 61.9052 113.019 60.3267 112.252 58.0146C112.025 57.3295 111.989 56.8274 112.053 56.4744C112.114 56.1349 112.269 55.9142 112.478 55.7699C112.93 55.4592 113.738 55.4465 114.61 55.8033C115.463 56.1527 116.25 56.809 116.636 57.6296C117.006 58.4182 117.034 59.4129 116.288 60.5619C115.716 61.441 115.262 62.1937 114.901 62.8363C114.845 62.8561 114.791 62.874 114.74 62.8904C114.325 63.0217 114.042 63.0466 113.862 63.0426C113.727 63.0396 113.674 63.0276 113.616 63.0144C113.58 63.0062 113.542 62.9975 113.48 62.9901C113.48 62.9901 113.479 62.99 113.478 62.9898C113.465 62.9881 113.418 62.982 113.357 62.9903Z" fill="#888A85"/>
<path d="M115.713 64.5287C115.714 64.7841 115.666 65.0371 115.575 65.2732C115.483 65.5093 115.349 65.7238 115.18 65.9045C115.01 66.0852 114.809 66.2285 114.588 66.3263C114.366 66.4241 114.129 66.4745 113.89 66.4745C113.65 66.4745 113.413 66.4241 113.191 66.3263C112.97 66.2285 112.769 66.0852 112.6 65.9045C112.43 65.7238 112.296 65.5093 112.204 65.2732C112.113 65.0371 112.066 64.7841 112.066 64.5287C112.066 64.2732 112.113 64.0202 112.204 63.7841C112.296 63.5481 112.43 63.3336 112.6 63.1529C112.769 62.9722 112.97 62.8288 113.191 62.731C113.413 62.6332 113.65 62.5829 113.89 62.5829C114.129 62.5829 114.366 62.6332 114.588 62.731C114.809 62.8288 115.01 62.9722 115.18 63.1529C115.349 63.3336 115.483 63.5481 115.575 63.7841C115.666 64.0202 115.714 64.2732 115.713 64.5287V64.5287Z" fill="#BABDB6"/>
<path fill-rule="evenodd" clip-rule="evenodd" d="M113.89 63.0266C113.705 63.0266 113.522 63.0655 113.351 63.141C113.18 63.2165 113.025 63.3271 112.894 63.4665C112.763 63.606 112.66 63.7716 112.589 63.9537C112.518 64.1359 112.482 64.3312 112.482 64.5283V64.5289C112.482 64.7261 112.518 64.9213 112.589 65.1035C112.66 65.2857 112.763 65.4512 112.894 65.5907C113.025 65.7302 113.18 65.8408 113.351 65.9163C113.522 65.9917 113.705 66.0306 113.89 66.0306C114.075 66.0306 114.258 65.9917 114.428 65.9163C114.599 65.8408 114.755 65.7302 114.885 65.5907C115.016 65.4512 115.12 65.2857 115.19 65.1035C115.261 64.9213 115.297 64.7261 115.297 64.5289L115.713 64.5286L115.297 64.5283C115.297 64.3312 115.261 64.1359 115.19 63.9537C115.12 63.7716 115.016 63.606 114.885 63.4665C114.755 63.3271 114.599 63.2165 114.428 63.141C114.258 63.0655 114.075 63.0266 113.89 63.0266ZM116.13 64.5286C116.13 64.2149 116.072 63.9043 115.96 63.6144C115.847 63.3245 115.682 63.061 115.474 62.8391C115.266 62.6172 115.019 62.4411 114.747 62.321C114.475 62.2009 114.184 62.139 113.89 62.139C113.595 62.139 113.304 62.2009 113.032 62.321C112.76 62.4411 112.513 62.6172 112.305 62.8391C112.097 63.061 111.932 63.3245 111.82 63.6144C111.707 63.9043 111.649 64.2149 111.65 64.5286C111.649 64.8423 111.707 65.1529 111.82 65.4428C111.932 65.7327 112.097 65.9962 112.305 66.2181C112.513 66.4401 112.76 66.6161 113.032 66.7363C113.304 66.8564 113.595 66.9182 113.89 66.9182C114.184 66.9182 114.475 66.8564 114.747 66.7363C115.019 66.6161 115.266 66.4401 115.474 66.2181C115.682 65.9962 115.847 65.7327 115.96 65.4428C116.072 65.1529 116.13 64.8423 116.13 64.5286Z" fill="#BABDB6"/>
<path d="M87 82.8277C87 81.3687 88.1828 80.1859 89.6418 80.1859H138.075C139.534 80.1859 140.717 81.3687 140.717 82.8277V98.6785C140.717 100.138 139.534 101.32 138.075 101.32H89.6418C88.1828 101.32 87 100.138 87 98.6785V82.8277Z" fill="white"/>
<path d="M119.485 95.2642C110.587 88.739 119.935 89.065 109.742 92.8675C104.257 94.9134 110.486 103.942 112.139 98.0027C115.21 86.9639 117.807 96.5433 111.266 87.3821C107.746 82.4531 101.618 91.5597 107.426 91.3998C118.221 91.1027 110.48 96.6971 116.63 87.2327C119.939 82.1405 109.922 78.7402 111.859 84.5806C115.46 95.4357 108.078 89.3138 118.421 92.6257C123.985 94.4076 123.923 83.1995 119.312 86.9689C110.742 93.9749 113.922 84.5969 114.163 96.1082C114.294 102.302 124.272 98.775 119.485 95.2642Z" fill="#888A85"/>
<path fill-rule="evenodd" clip-rule="evenodd" d="M117.38 83.6499C117.896 84.7485 117.88 86.0884 116.972 87.4854C116.712 87.8845 116.478 88.2561 116.267 88.6018C117.004 88.1762 117.922 87.5459 119.059 86.6167C119.671 86.1165 120.244 85.8333 120.774 85.7625C121.317 85.6899 121.79 85.8444 122.163 86.1691C122.881 86.7927 123.153 87.9611 123.098 89.0752C123.042 90.2095 122.645 91.4414 121.848 92.2794C121.028 93.1424 119.827 93.5396 118.301 93.0507C117.865 92.9111 117.461 92.7885 117.087 92.681C117.694 93.2963 118.541 94.0331 119.721 94.8986C120.356 95.3644 120.786 95.8586 121.013 96.3739C121.245 96.9016 121.253 97.4292 121.079 97.9084C120.745 98.829 119.786 99.4652 118.776 99.754C117.747 100.048 116.525 100.026 115.532 99.4769C114.508 98.9117 113.783 97.8173 113.747 96.1181C113.737 95.6327 113.722 95.1854 113.702 94.7732C113.341 95.5792 112.945 96.6648 112.538 98.1288C112.319 98.917 112.011 99.5056 111.621 99.8949C111.222 100.294 110.754 100.465 110.273 100.437C109.348 100.382 108.485 99.6068 107.915 98.6712C107.335 97.7185 106.977 96.4729 107.159 95.2958C107.347 94.0834 108.1 93.0099 109.604 92.4486C110.034 92.2882 110.428 92.1343 110.79 91.9871C109.959 91.8699 108.869 91.804 107.437 91.8434C106.666 91.8647 106.046 91.7343 105.578 91.4596C105.099 91.1783 104.802 90.7568 104.678 90.2599C104.441 89.3055 104.866 88.1902 105.525 87.3232C106.195 86.4405 107.195 85.6928 108.302 85.5141C109.441 85.3301 110.631 85.761 111.597 87.1133C111.873 87.4996 112.132 87.8518 112.375 88.173C112.223 87.2946 111.945 86.1682 111.467 84.7285C111.21 83.9535 111.135 83.2843 111.235 82.7252C111.338 82.1527 111.622 81.7206 112.027 81.442C112.805 80.9068 113.931 80.9928 114.908 81.3926C115.903 81.7997 116.879 82.5832 117.38 83.6499ZM112.535 89.7601C112.073 89.1948 111.542 88.5019 110.935 87.6509C110.14 86.5387 109.245 86.2596 108.427 86.3917C107.576 86.5292 106.747 87.124 106.171 87.8818C105.584 88.6554 105.346 89.4786 105.483 90.0327C105.547 90.2901 105.696 90.5153 105.98 90.6822C106.275 90.8556 106.734 90.9749 107.415 90.9561C109.715 90.8928 111.21 91.0928 112.195 91.3729C112.207 91.3085 112.226 91.2632 112.232 91.2502C112.232 91.2493 112.233 91.2485 112.233 91.2479C112.259 91.1881 112.278 91.1521 112.297 91.1181C112.326 91.063 112.353 91.0135 112.398 90.8773C112.457 90.6956 112.522 90.4014 112.533 89.94C112.535 89.8826 112.535 89.8227 112.535 89.7601ZM113.443 92.5757C113.441 92.5832 113.441 92.5818 113.444 92.5744C113.443 92.5749 113.443 92.5753 113.443 92.5757ZM113.588 93.1583C113.535 93.1269 113.5 93.0927 113.49 93.083C113.49 93.0823 113.489 93.0817 113.489 93.0812C113.443 93.0369 113.417 93.0059 113.393 92.9768C113.353 92.9295 113.317 92.8869 113.209 92.7998C113.065 92.6835 112.823 92.5265 112.415 92.3727C112.364 92.3536 112.311 92.3345 112.255 92.3156C111.608 92.6088 110.826 92.9332 109.879 93.2864C108.641 93.7481 108.116 94.5702 107.981 95.4405C107.84 96.346 108.115 97.3699 108.613 98.1878C109.122 99.0226 109.782 99.5187 110.319 99.5504C110.568 99.5652 110.815 99.4837 111.052 99.2473C111.298 99.0015 111.546 98.5731 111.74 97.8764C112.394 95.5252 113.034 94.0703 113.588 93.1583ZM115.047 92.2644C115.053 92.2691 115.052 92.2686 115.046 92.2636C115.046 92.2638 115.047 92.2641 115.047 92.2644ZM115.612 92.2971C115.567 92.3421 115.526 92.3663 115.514 92.3733C115.513 92.3738 115.513 92.3742 115.512 92.3745C115.458 92.4068 115.423 92.4238 115.389 92.4397C115.335 92.4656 115.286 92.4888 115.174 92.5712C115.026 92.681 114.811 92.8781 114.548 93.2445C114.515 93.29 114.482 93.3382 114.448 93.389C114.509 94.1356 114.557 95.029 114.58 96.0983C114.609 97.4958 115.18 98.2831 115.914 98.6888C116.679 99.1109 117.677 99.1489 118.56 98.8966C119.462 98.639 120.109 98.1223 120.303 97.5878C120.393 97.3396 120.397 97.064 120.259 96.7511C120.116 96.4257 119.81 96.0417 119.249 95.6299C117.354 94.24 116.254 93.1409 115.612 92.2971ZM115.265 90.5418C115.271 90.5373 115.27 90.5384 115.264 90.5426C115.264 90.5424 115.265 90.5421 115.265 90.5418ZM115.469 89.9795C115.495 90.0387 115.504 90.0878 115.506 90.1019C115.507 90.1029 115.507 90.1037 115.507 90.1044C115.519 90.1687 115.523 90.2101 115.527 90.2491C115.533 90.3124 115.539 90.3693 115.578 90.5074C115.63 90.6916 115.74 90.9704 115.985 91.3506C116.016 91.3979 116.048 91.4467 116.083 91.4971C116.768 91.6652 117.58 91.893 118.54 92.2006C119.796 92.6027 120.675 92.2671 121.263 91.6475C121.876 91.0029 122.219 90.0025 122.266 89.0287C122.315 88.0347 122.054 87.2193 121.638 86.8572C121.444 86.689 121.199 86.6002 120.878 86.6432C120.543 86.6879 120.106 86.879 119.565 87.3211C117.74 88.8133 116.42 89.589 115.469 89.9795ZM113.796 89.7886C113.794 89.7811 113.794 89.7822 113.796 89.7899C113.796 89.7894 113.796 89.789 113.796 89.7886ZM112.67 91.0456C112.663 91.0455 112.664 91.0451 112.671 91.0456C112.671 91.0456 112.67 91.0456 112.67 91.0456ZM113.357 89.4083C113.303 88.3232 113.019 86.7447 112.252 84.4326C112.025 83.7475 111.989 83.2454 112.053 82.8924C112.114 82.5529 112.269 82.3322 112.478 82.1879C112.93 81.8771 113.738 81.8645 114.61 82.2212C115.463 82.5707 116.25 83.227 116.636 84.0475C117.006 84.8362 117.034 85.8308 116.288 86.9799C115.716 87.859 115.262 88.6117 114.901 89.2543C114.845 89.274 114.791 89.292 114.74 89.3083C114.325 89.4397 114.042 89.4645 113.862 89.4605C113.727 89.4575 113.674 89.4456 113.616 89.4324C113.58 89.4242 113.542 89.4155 113.48 89.4081C113.48 89.408 113.479 89.4079 113.478 89.4078C113.465 89.406 113.418 89.3999 113.357 89.4083Z" fill="#888A85"/>
<path d="M115.713 90.9466C115.714 91.2021 115.666 91.4551 115.575 91.6912C115.483 91.9272 115.349 92.1418 115.18 92.3225C115.01 92.5032 114.809 92.6465 114.588 92.7443C114.366 92.8421 114.129 92.8924 113.89 92.8924C113.65 92.8924 113.413 92.8421 113.191 92.7443C112.97 92.6465 112.769 92.5032 112.6 92.3225C112.43 92.1418 112.296 91.9272 112.204 91.6912C112.113 91.4551 112.066 91.2021 112.066 90.9466C112.066 90.6912 112.113 90.4382 112.204 90.2021C112.296 89.966 112.43 89.7515 112.6 89.5708C112.769 89.3901 112.97 89.2468 113.191 89.149C113.413 89.0512 113.65 89.0009 113.89 89.0009C114.129 89.0009 114.366 89.0512 114.588 89.149C114.809 89.2468 115.01 89.3901 115.18 89.5708C115.349 89.7515 115.483 89.966 115.575 90.2021C115.666 90.4382 115.714 90.6912 115.713 90.9466V90.9466Z" fill="#BABDB6"/>
<path fill-rule="evenodd" clip-rule="evenodd" d="M113.89 89.4446C113.705 89.4446 113.522 89.4835 113.351 89.5589C113.18 89.6344 113.025 89.7451 112.894 89.8845C112.763 90.024 112.66 90.1895 112.589 90.3717C112.518 90.5539 112.482 90.7492 112.482 90.9463V90.9469C112.482 91.144 112.518 91.3393 112.589 91.5215C112.66 91.7037 112.763 91.8692 112.894 92.0087C113.025 92.1481 113.18 92.2588 113.351 92.3342C113.522 92.4097 113.705 92.4486 113.89 92.4486C114.075 92.4486 114.258 92.4097 114.428 92.3342C114.599 92.2588 114.755 92.1481 114.885 92.0087C115.016 91.8692 115.12 91.7037 115.19 91.5215C115.261 91.3393 115.297 91.144 115.297 90.9469L115.713 90.9466L115.297 90.9463C115.297 90.7492 115.261 90.5539 115.19 90.3717C115.12 90.1895 115.016 90.024 114.885 89.8845C114.755 89.7451 114.599 89.6344 114.428 89.5589C114.258 89.4835 114.075 89.4446 113.89 89.4446ZM116.13 90.9466C116.13 90.6329 116.072 90.3223 115.96 90.0324C115.847 89.7425 115.682 89.479 115.474 89.2571C115.266 89.0351 115.019 88.8591 114.747 88.739C114.475 88.6188 114.184 88.557 113.89 88.557C113.595 88.557 113.304 88.6188 113.032 88.739C112.76 88.8591 112.513 89.0351 112.305 89.2571C112.097 89.479 111.932 89.7425 111.82 90.0324C111.707 90.3223 111.649 90.6329 111.65 90.9466C111.649 91.2603 111.707 91.5709 111.82 91.8608C111.932 92.1507 112.097 92.4142 112.305 92.6361C112.513 92.8581 112.76 93.0341 113.032 93.1542C113.304 93.2743 113.595 93.3362 113.89 93.3362C114.184 93.3362 114.475 93.2743 114.747 93.1542C115.019 93.0341 115.266 92.8581 115.474 92.6361C115.682 92.4142 115.847 92.1507 115.96 91.8608C116.072 91.5709 116.13 91.2603 116.13 90.9466Z" fill="#BABDB6"/>
<path d="M25.7392 19H19V25H25.7392V19Z" fill="white"/>
<path d="M47.246 19H31.7392V25H47.246V19Z" fill="white"/>
<path d="M68.7528 19H53.246V25H68.7528V19Z" fill="white"/>
<path d="M24.6602 63.4224L24.9883 65.6724L25.4688 63.645L28.8438 51.7388H30.7422L34.0352 63.645L34.5039 65.7075L34.8672 63.4106L37.5156 51.7388H39.7773L35.6406 68.8013H33.5898L30.0742 56.3677L29.8047 55.0669L29.5352 56.3677L25.8906 68.8013H23.8398L19.7148 51.7388H21.9648L24.6602 63.4224ZM40.9961 62.3442C40.9961 61.1021 41.2383 59.9849 41.7227 58.9927C42.2148 58.0005 42.8945 57.2349 43.7617 56.6958C44.6367 56.1567 45.6328 55.8872 46.75 55.8872C48.4766 55.8872 49.8711 56.4849 50.9336 57.6802C52.0039 58.8755 52.5391 60.4653 52.5391 62.4497V62.6021C52.5391 63.8364 52.3008 64.9458 51.8242 65.9302C51.3555 66.9067 50.6797 67.6685 49.7969 68.2153C48.9219 68.7622 47.9141 69.0356 46.7734 69.0356C45.0547 69.0356 43.6602 68.438 42.5898 67.2427C41.5273 66.0474 40.9961 64.4653 40.9961 62.4966V62.3442ZM43.1758 62.6021C43.1758 64.0083 43.5 65.1372 44.1484 65.9888C44.8047 66.8403 45.6797 67.2661 46.7734 67.2661C47.875 67.2661 48.75 66.8364 49.3984 65.9771C50.0469 65.1099 50.3711 63.8989 50.3711 62.3442C50.3711 60.9536 50.0391 59.8286 49.375 58.9692C48.7188 58.1021 47.8438 57.6685 46.75 57.6685C45.6797 57.6685 44.8164 58.0942 44.1602 58.9458C43.5039 59.7974 43.1758 61.0161 43.1758 62.6021ZM61.3867 58.0669C61.0586 58.0122 60.7031 57.9849 60.3203 57.9849C58.8984 57.9849 57.9336 58.5903 57.4258 59.8013V68.8013H55.2578V56.1216H57.3672L57.4023 57.5864C58.1133 56.4536 59.1211 55.8872 60.4258 55.8872C60.8477 55.8872 61.168 55.9419 61.3867 56.0513V58.0669ZM62.6289 62.356C62.6289 60.4106 63.0898 58.8481 64.0117 57.6685C64.9336 56.481 66.1406 55.8872 67.6328 55.8872C69.1172 55.8872 70.293 56.395 71.1602 57.4106V50.8013H73.3281V68.8013H71.3359L71.2305 67.4419C70.3633 68.5044 69.1562 69.0356 67.6094 69.0356C66.1406 69.0356 64.9414 68.4341 64.0117 67.231C63.0898 66.0278 62.6289 64.4575 62.6289 62.52V62.356ZM64.7969 62.6021C64.7969 64.0396 65.0938 65.1646 65.6875 65.9771C66.2812 66.7896 67.1016 67.1958 68.1484 67.1958C69.5234 67.1958 70.5273 66.5786 71.1602 65.3442V59.52C70.5117 58.3247 69.5156 57.7271 68.1719 57.7271C67.1094 57.7271 66.2812 58.1372 65.6875 58.9575C65.0938 59.7778 64.7969 60.9927 64.7969 62.6021Z" fill="white"/>
<path d="M-3.9939 112.106C-3.9939 115.317 -1.39111 117.919 1.8193 117.919H182.803C186.013 117.919 188.616 115.317 188.616 112.106V6.35472C188.616 3.14431 186.013 0.541845 182.803 0.54152H1.8193C-1.39111 0.54152 -3.99357 3.14431 -3.9939 6.35472V112.106ZM12.0505 106.293V12.1679H164.898V106.293H12.0505Z" fill="#848484"/>
<path d="M182.023 59.2304C182.023 55.7447 179.197 52.9189 175.711 52.9189C172.225 52.9189 169.4 55.7447 169.4 59.2304C169.4 62.7161 172.225 65.5419 175.711 65.5419C179.197 65.5419 182.023 62.7161 182.023 59.2304Z" fill="white"/>
</g>
<defs>
<clipPath id="clip0_2001_5900">
<rect y="118" width="118" height="184" rx="7" transform="rotate(-90 0 118)" fill="white"/>
</clipPath>
</defs>
</svg>
