<svg width="65" height="101" viewBox="0 0 65 101" fill="none" xmlns="http://www.w3.org/2000/svg">
<g clip-path="url(#clip0_5365_3882)">
<rect width="64.7347" height="100.942" rx="3.8402" fill="white"/>
<path d="M3.23343 -2.19434C1.4722 -2.19434 0.0444882 -0.766448 0.0443115 0.99478L0.0443115 100.282C0.0445029 102.043 1.4722 103.471 3.23343 103.471H61.2486C63.0098 103.471 64.4375 102.043 64.4377 100.282V0.99478C64.4377 -0.766448 63.0098 -2.19416 61.2486 -2.19434L3.23343 -2.19434ZM6.42255 6.60762L58.0595 6.60762L58.0595 90.4597H6.42255L6.42255 6.60762Z" fill="#848484"/>
<path d="M32.241 99.8541C34.1533 99.8541 35.7035 98.3039 35.7035 96.3917C35.7035 94.4794 34.1533 92.9292 32.241 92.9292C30.3288 92.9292 28.7786 94.4794 28.7786 96.3917C28.7786 98.3039 30.3288 99.8541 32.241 99.8541Z" fill="white"/>
<path d="M22.9462 16.9702H9.38135V20.5069H22.9462V16.9702Z" fill="#0069F1"/>
<path d="M43.9536 24.6521C43.9647 24.0083 44.0374 23.4996 44.1729 23.1263C44.3084 22.7529 44.5841 22.339 45.0011 21.8844L46.0644 20.7887C46.5188 20.2747 46.746 19.7227 46.746 19.133C46.746 18.5648 46.5973 18.1211 46.2995 17.8019C46.0022 17.4772 45.5694 17.3149 45.0011 17.3149C44.4486 17.3149 44.0053 17.461 43.6695 17.7532C43.3342 18.0454 43.166 18.4377 43.166 18.9301H41.6647C41.6752 18.0535 41.9868 17.3473 42.5983 16.8117C43.2151 16.2706 44.0158 16 45.0011 16C46.0238 16 46.8193 16.276 47.3875 16.8279C47.9611 17.3744 48.2479 18.1265 48.2479 19.0843C48.2479 20.0312 47.8098 20.9646 46.9331 21.8844L46.048 22.761C45.6532 23.1993 45.4555 23.8297 45.4555 24.6521H43.9536ZM43.8888 27.2251C43.8888 26.9816 43.962 26.7787 44.1081 26.6163C44.2594 26.4486 44.4813 26.3648 44.7733 26.3648C45.0659 26.3648 45.2879 26.4486 45.4391 26.6163C45.591 26.7787 45.6664 26.9816 45.6664 27.2251C45.6664 27.4686 45.591 27.6715 45.4391 27.8338C45.2879 27.9908 45.0659 28.0692 44.7733 28.0692C44.4813 28.0692 44.2594 27.9908 44.1081 27.8338C43.962 27.6715 43.8888 27.4686 43.8888 27.2251Z" fill="#0069F1"/>
<path d="M33.779 16.9702H25.6849V20.5069H33.779V16.9702Z" fill="#0069F1"/>
<path d="M34.9528 37.0498H26.8588V40.5865H34.9528V37.0498Z" fill="#0069F1"/>
<path d="M50.9005 36.8577H38.0029V40.3944H50.9005V36.8577Z" fill="#0069F1"/>
<path d="M26.8588 51.2192H38.9371V54.756H26.8588V51.2192Z" fill="#0069F1"/>
<path d="M42.4465 51.0273H55.3441V54.564H42.4465V51.0273Z" fill="#0069F1"/>
<path fill-rule="evenodd" clip-rule="evenodd" d="M18.3104 35.0122V42.8123H10.5103V35.0122H18.3104ZM18.3104 33.8979H10.5103C9.89743 33.8979 9.396 34.3994 9.396 35.0122V42.8123C9.396 43.4252 9.89743 43.9266 10.5103 43.9266H18.3104C18.9233 43.9266 19.4247 43.4252 19.4247 42.8123V35.0122C19.4247 34.3994 18.9233 33.8979 18.3104 33.8979Z" fill="#0069F1"/>
<path fill-rule="evenodd" clip-rule="evenodd" d="M18.3673 48.2234H10.6285C10.0204 48.2234 9.52295 48.7209 9.52295 49.3289V57.0678C9.52295 57.6758 10.0204 58.1733 10.6285 58.1733H18.3673C18.9754 58.1733 19.4728 57.6758 19.4728 57.0678V49.3289C19.4728 48.7209 18.9754 48.2234 18.3673 48.2234ZM13.3924 55.9622L10.6285 53.1983L11.4024 52.4244L13.3924 54.4144L17.5934 50.2134L18.3673 50.9873L13.3924 55.9622Z" fill="#0069F1"/>
</g>
<defs>
<clipPath id="clip0_5365_3882">
<rect width="64.7347" height="100.942" rx="3.8402" fill="white"/>
</clipPath>
</defs>
</svg>
