<svg width="102" height="66" viewBox="0 0 102 66" fill="none" xmlns="http://www.w3.org/2000/svg">
<g clip-path="url(#clip0_5345_4089)">
<rect x="0.46875" y="65.0698" width="64.7347" height="100.942" rx="3.8402" transform="rotate(-90 0.46875 65.0698)" fill="white"/>
<path d="M-1.72229 61.8363C-1.72229 63.5975 -0.294402 65.0252 1.46683 65.0254H100.754C102.515 65.0252 103.943 63.5975 103.943 61.8363V3.82113C103.943 2.0599 102.515 0.632187 100.754 0.632009H1.46683C-0.294402 0.632009 -1.72211 2.0599 -1.72229 3.82113V61.8363ZM7.07967 58.6472V7.01024H90.9318V58.6472H7.07967Z" fill="#848484"/>
<path d="M100.326 32.8285C100.326 30.9163 98.776 29.3661 96.8637 29.3661C94.9514 29.3661 93.4012 30.9163 93.4012 32.8285C93.4012 34.7408 94.9514 36.291 96.8637 36.291C98.776 36.291 100.326 34.7408 100.326 32.8285Z" fill="white"/>
<path d="M26.387 12.2859H12.8221V15.8226H26.387V12.2859Z" fill="#0069F1"/>
<path d="M80.3944 19.9678C80.4055 19.3239 80.4782 18.8153 80.6137 18.442C80.7492 18.0686 81.0249 17.6547 81.4419 17.2001L82.5052 16.1044C82.9596 15.5904 83.1868 15.0384 83.1868 14.4487C83.1868 13.8805 83.0381 13.4368 82.7403 13.1176C82.443 12.7929 82.0102 12.6305 81.4419 12.6305C80.8894 12.6305 80.4461 12.7766 80.1103 13.0689C79.775 13.361 79.6068 13.7533 79.6068 14.2457H78.1055C78.116 13.3691 78.4276 12.663 79.0391 12.1273C79.6558 11.5862 80.4566 11.3157 81.4419 11.3157C82.4646 11.3157 83.2601 11.5917 83.8283 12.1436C84.4019 12.6901 84.6887 13.4422 84.6887 14.4C84.6887 15.3469 84.2506 16.2802 83.3739 17.2001L82.4888 18.0767C82.094 18.515 81.8963 19.1454 81.8963 19.9678H80.3944ZM80.3296 22.5407C80.3296 22.2973 80.4028 22.0943 80.5489 21.932C80.7002 21.7643 80.9221 21.6804 81.2141 21.6804C81.5067 21.6804 81.7286 21.7643 81.8799 21.932C82.0318 22.0943 82.1072 22.2973 82.1072 22.5407C82.1072 22.7842 82.0318 22.9872 81.8799 23.1495C81.7286 23.3064 81.5067 23.3849 81.2141 23.3849C80.9221 23.3849 80.7002 23.3064 80.5489 23.1495C80.4028 22.9872 80.3296 22.7842 80.3296 22.5407Z" fill="#0069F1"/>
<path d="M37.2198 12.2859H29.1257V15.8226H37.2198V12.2859Z" fill="#0069F1"/>
<path d="M68.7551 12.2859H56.6766V15.8226H68.7551V12.2859Z" fill="#0069F1"/>
<path d="M53.1676 12.0938H40.27V15.6305H53.1676V12.0938Z" fill="#0069F1"/>
<path d="M38.3936 32.3655H30.2996V35.9022H38.3936V32.3655Z" fill="#0069F1"/>
<path d="M54.3413 32.1733H41.4437V35.7101H54.3413V32.1733Z" fill="#0069F1"/>
<path d="M30.2996 46.5349H42.3779V50.0716H30.2996V46.5349Z" fill="#0069F1"/>
<path d="M45.8873 46.343H58.7849V49.8797H45.8873V46.343Z" fill="#0069F1"/>
<path fill-rule="evenodd" clip-rule="evenodd" d="M21.7512 30.3279V38.128H13.9511V30.3279H21.7512ZM21.7512 29.2136H13.9511C13.3382 29.2136 12.8368 29.7151 12.8368 30.3279V38.128C12.8368 38.7409 13.3382 39.2423 13.9511 39.2423H21.7512C22.364 39.2423 22.8655 38.7409 22.8655 38.128V30.3279C22.8655 29.7151 22.364 29.2136 21.7512 29.2136Z" fill="#0069F1"/>
<path fill-rule="evenodd" clip-rule="evenodd" d="M21.8081 43.5391H14.0693C13.4612 43.5391 12.9637 44.0365 12.9637 44.6446V52.3834C12.9637 52.9915 13.4612 53.489 14.0693 53.489H21.8081C22.4162 53.489 22.9136 52.9915 22.9136 52.3834V44.6446C22.9136 44.0365 22.4162 43.5391 21.8081 43.5391ZM16.8332 51.2779L14.0693 48.514L14.8432 47.7401L16.8332 49.7301L21.0342 45.5291L21.8081 46.303L16.8332 51.2779Z" fill="#0069F1"/>
</g>
<defs>
<clipPath id="clip0_5345_4089">
<rect x="0.46875" y="65.0698" width="64.7347" height="100.942" rx="3.8402" transform="rotate(-90 0.46875 65.0698)" fill="white"/>
</clipPath>
</defs>
</svg>
