<svg width="118" height="193" viewBox="0 0 118 193" fill="none" xmlns="http://www.w3.org/2000/svg">
<rect x="7.89461" y="6.29022" width="105.47" height="162.495" fill="white"/>
<path d="M6.26492 0.125305C3.05451 0.125305 0.452043 2.72809 0.451721 5.9385V186.922C0.45207 190.132 3.05451 192.735 6.26492 192.735H112.016C115.227 192.735 117.829 190.132 117.83 186.922V5.9385C117.83 2.72809 115.227 0.12563 112.016 0.125305H6.26492ZM12.0781 16.1697H106.203V169.017H12.0781V16.1697Z" fill="#848484"/>
<path d="M59.1406 186.142C62.6264 186.142 65.4521 183.316 65.4521 179.83C65.4521 176.345 62.6264 173.519 59.1406 173.519C55.6549 173.519 52.8292 176.345 52.8292 179.83C52.8292 183.316 55.6549 186.142 59.1406 186.142Z" fill="white"/>
<path d="M89.6535 81.5574H85.7139V63.7804C85.7139 62.6017 85.2492 61.4713 84.4218 60.6378C83.5945 59.8044 82.4724 59.3361 81.3024 59.3361H63.6561V55.3674C63.7038 53.2039 62.9945 51.0923 61.6524 49.4026C60.3102 47.7129 58.4208 46.5527 56.315 46.1252C55.0489 45.9089 53.7513 45.9735 52.5125 46.3143C51.2737 46.6552 50.1237 47.2642 49.1426 48.0989C48.1615 48.9335 47.3729 49.9737 46.8318 51.147C46.2908 52.3202 46.0103 53.5982 46.0099 54.8919V59.3361H28.3637C27.1936 59.3361 26.0715 59.8044 25.2442 60.6378C24.4169 61.4713 23.9521 62.6017 23.9521 63.7804V79.3353C23.9521 80.514 24.4169 81.6444 25.2442 82.4779C26.0715 83.3113 27.1936 83.7795 28.3637 83.7795H30.5694C32.3245 83.7795 34.0076 84.4819 35.2486 85.7321C36.4896 86.9823 37.1868 88.6779 37.1868 90.4459C37.1868 92.214 36.4896 93.9096 35.2486 95.1598C34.0076 96.41 32.3245 97.1123 30.5694 97.1123H28.3637C27.1936 97.1123 26.0715 97.5806 25.2442 98.414C24.4169 99.2475 23.9521 100.378 23.9521 101.557V121.556C23.9521 122.734 24.4169 123.865 25.2442 124.698C26.0715 125.532 27.1936 126 28.3637 126H43.8041C44.9741 126 46.0962 125.532 46.9236 124.698C47.7509 123.865 48.2157 122.734 48.2157 121.556V119.334C48.2157 117.566 48.9129 115.87 50.1539 114.62C51.3948 113.37 53.078 112.667 54.833 112.667C56.5881 112.667 58.2712 113.37 59.5122 114.62C60.7532 115.87 61.4504 117.566 61.4504 119.334V121.556C61.4504 122.734 61.9152 123.865 62.7425 124.698C63.5698 125.532 64.6919 126 65.8619 126H81.3024C82.4724 126 83.5945 125.532 84.4218 124.698C85.2492 123.865 85.7139 122.734 85.7139 121.556V99.3344H90.1255C91.4097 99.3341 92.6783 99.0515 93.8429 98.5065C95.0075 97.9614 96.0401 97.167 96.8686 96.1786C97.6971 95.1902 98.3017 94.0316 98.6401 92.7837C98.9784 91.5357 99.0425 90.2284 98.8278 88.953C98.4034 86.8315 97.2517 84.9281 95.5744 83.576C93.8971 82.2239 91.8011 81.5093 89.6535 81.5574V81.5574Z" fill="#848484"/>
</svg>
