<svg width="23" height="24" viewBox="0 0 23 24" fill="none" xmlns="http://www.w3.org/2000/svg">
<path d="M4.001 12.4131L1.586 14.8281C1.2109 15.203 1.00011 15.7117 1 16.2421V19.9141H4.672C4.93479 19.9141 5.19502 19.8624 5.43781 19.7619C5.68061 19.6613 5.90121 19.5139 6.087 19.3281L8.5 16.9141L4 12.4141L15 1.41406L19.501 5.91306L8.501 16.9131M3.5 2.41406L3.832 3.08206L4.5 3.41406L3.832 3.74606L3.5 4.41406L3.168 3.74606L2.5 3.41406L3.168 3.08206L3.5 2.41406ZM17.5 16.1641L18.2 17.7141L19.75 18.4141L18.2 19.1141L17.5 20.6641L16.8 19.1141L15.25 18.4141L16.8 17.7141L17.5 16.1641Z" stroke="black" stroke-width="2"/>
</svg>
