<svg width="21" height="22" viewBox="0 0 21 22" fill="none" xmlns="http://www.w3.org/2000/svg">
<!-- Painted solid black; callers recolor it (e.g. to black at 80% opacity, matching the
     other TopBar controls) with a CSS filter on the <img>. The gear's center is a real
     transparent hole (fill-rule="evenodd"), so the bar color shows through. -->
<path fill-rule="evenodd" clip-rule="evenodd" d="M11.9697 0C13.594 0 15.168 0.979328 15.168 2.5625V8.52832C15.5018 8.69501 15.8161 8.89352 16.1133 9.12207L18.0498 8.34473C18.2209 8.28253 18.431 8.34464 18.5244 8.51562L20.0801 11.207C20.1732 11.378 20.1339 11.5875 19.9863 11.7041L18.3457 12.9883C18.3768 13.237 18.4004 13.4857 18.4004 13.75C18.4004 14.0144 18.3768 14.2638 18.3457 14.5127L19.9863 15.7959C20.1339 15.9125 20.1732 16.122 20.0801 16.293L18.5244 18.9844C18.4311 19.1554 18.2287 19.2253 18.0498 19.1553L16.1133 18.3779C15.7089 18.6812 15.2732 18.9452 14.7988 19.1396L14.5039 21.2012C14.4804 21.3877 14.3164 21.5273 14.1221 21.5273H11.0117C10.8174 21.5273 10.6534 21.3877 10.6299 21.2012L10.335 19.1396C9.86064 18.9453 9.42486 18.6889 9.02051 18.3779L7.08398 19.1553C6.91292 19.2175 6.70273 19.1554 6.60938 18.9844L5.73828 17.4775H0.206055L0.166992 17.4727C0.0785425 17.4515 0 17.3614 0 17.2715V1.85156H0.0205078L1.97852 0.0791016L11.9697 0ZM1 2.87305V16.4775H5.16016L5.05371 16.293C4.96061 16.1219 4.99983 15.9125 5.14746 15.7959L6.78809 14.5127C6.75698 14.2638 6.7334 14.0067 6.7334 13.75C6.7334 13.4935 6.75701 13.237 6.78809 12.9883L5.14746 11.7041C4.99984 11.5875 4.95281 11.378 5.05371 11.207L6.60938 8.51562C6.70274 8.34465 6.90516 8.27475 7.08398 8.34473L9.02051 9.12207C9.42485 8.81884 9.86065 8.55474 10.335 8.36035L10.6299 6.29883C10.6534 6.11238 10.8174 5.97266 11.0117 5.97266H12.1592V4.31836C12.1592 3.51366 11.4961 2.85156 10.6914 2.85156L1 2.87305ZM12.5 10.9727C11.1193 10.9727 10 12.0919 10 13.4727C10 14.8534 11.1193 15.9727 12.5 15.9727C13.8807 15.9727 15 14.8534 15 13.4727C15 12.0919 13.8807 10.9727 12.5 10.9727ZM2.5 0.751953L1.5 1.87207L10.6914 1.85156C12.0484 1.85156 13.1592 2.96137 13.1592 4.31836V5.97266H14.1221C14.2148 5.97266 14.3004 6.005 14.3672 6.05859L14.3828 2.58301C14.3828 1.67841 12.8794 0.673018 11.9336 0.672852L2.5 0.751953Z" fill="black"/>
</svg>
