<svg width="32" height="35" viewBox="0 0 32 35" fill="none" xmlns="http://www.w3.org/2000/svg">
<path d="M0 0.489227H21.259V2.77647H3.51157V27.2806H0V0.489227Z" fill="#1D94A4"/>
<path d="M5.37048 3.9967V30.7881H8.88205V6.28394H26.6295V3.9967H5.37048Z" fill="#1D94A4"/>
<path fill-rule="evenodd" clip-rule="evenodd" d="M32 7.76044H11.2701V34.2181H32V7.76044ZM15.0584 13.6832C14.7136 13.619 14.3562 13.6891 14.0662 13.8777C13.7762 14.0664 13.5779 14.3578 13.5157 14.6867C12.903 17.9282 12.996 21.6192 14.1757 24.5314C14.77 25.9984 15.6655 27.3281 16.9515 28.273C18.2578 29.2328 19.8862 29.7348 21.8026 29.6509C23.8266 29.5624 25.4797 29.125 26.7744 28.2855C28.086 27.435 28.9098 26.2497 29.4089 24.8801C29.8992 23.5347 30.0851 21.9902 30.1313 20.3541C30.1776 18.7132 30.0841 16.8985 29.9723 14.9976C29.9525 14.6598 29.7892 14.3441 29.5198 14.123C29.2505 13.9019 28.8983 13.7943 28.544 13.825C26.3929 14.0109 24.9285 14.4135 23.9662 14.803C23.4852 14.9978 23.1319 15.1883 22.8831 15.3449C22.7589 15.4231 22.6613 15.4924 22.5873 15.5491C22.5673 15.5645 22.549 15.5789 22.5324 15.5923L22.3511 15.7155L23.8761 17.7454L24.1115 17.5855C24.1543 17.5564 24.1951 17.525 24.2339 17.4913C24.2443 17.4833 24.2756 17.4601 24.3309 17.4253C24.4427 17.355 24.6548 17.2357 24.9936 17.0985C25.4946 16.8957 26.2776 16.6519 27.4278 16.4716C27.4994 17.8554 27.5417 19.1274 27.509 20.2871C27.4659 21.8153 27.2931 23.0676 26.9303 24.0631C26.5763 25.0344 26.0525 25.7341 25.2966 26.2242C24.524 26.7252 23.39 27.084 21.682 27.1587C20.3501 27.217 19.3412 26.8762 18.5553 26.2988C17.749 25.7063 17.0974 24.804 16.6236 23.6345C15.8109 21.6284 15.5975 19.0165 15.8933 16.4695C17.0184 16.8157 18.179 17.3106 18.807 17.7367L18.9185 17.8159C19.5006 18.2289 20.0489 18.618 20.5142 19.3973C21.016 20.2378 21.4799 21.6537 21.4322 24.1926L24.0551 24.2371C24.1083 21.4026 23.5969 19.508 22.7954 18.1656C22.0502 16.9173 21.1056 16.2517 20.5069 15.8299C20.4777 15.8093 20.4493 15.7893 20.4218 15.7699C20.4039 15.7572 20.3864 15.7448 20.3693 15.7326L20.3478 15.7176C19.0786 14.85 16.7357 13.9952 15.0584 13.6832Z" fill="#1D94A4"/>
</svg>
