<svg width="34" height="59" viewBox="0 0 34 59" fill="none" xmlns="http://www.w3.org/2000/svg">
<path d="M0.502441 3.724L30.2897 1.47941C31.8756 1.35991 33.163 2.8273 33.1762 4.76953L33.4519 45.1687C33.4652 47.1109 32.1991 48.7707 30.6132 48.8902L0.826012 51.1348L0.502441 3.724Z" fill="#FF0033"/>
<path d="M0.502441 3.724L30.2897 1.47941C31.8756 1.35991 33.1637 2.93052 33.1778 5.00097L33.4717 48.0671C33.4858 50.1375 32.2205 51.9006 30.6346 52.0201L0.847372 54.2646L0.502441 3.724Z" fill="#0C8597" stroke="black"/>
<path d="M0.847168 4.26355L20.9109 7.35722C21.9791 7.52191 22.848 9.31573 22.8591 11.3791L23.0909 54.2971C23.102 56.3603 22.251 57.889 21.1828 57.7241L1.11915 54.6305L0.847168 4.26355Z" fill="#1D94A4" stroke="black" stroke-width="1.13411"/>
</svg>
