<svg width="32" height="33" viewBox="0 0 32 33" fill="none" xmlns="http://www.w3.org/2000/svg">
<mask id="mask0" mask-type="alpha" maskUnits="userSpaceOnUse" x="0" y="5" width="32" height="24">
<path fill-rule="evenodd" clip-rule="evenodd" d="M31.9984 19.7243C31.9984 16.2043 29.265 13.351 25.7984 13.111C24.8917 8.51095 20.8517 5.05762 15.9984 5.05762C14.225 5.05762 12.5717 5.53762 11.1317 6.35095L13.1184 8.33762C14.0117 7.95095 14.9717 7.72428 15.9984 7.72428C20.0517 7.72428 23.3317 11.0043 23.3317 15.0576V15.7243H25.3317C27.545 15.7243 29.3317 17.511 29.3317 19.7243C29.3317 21.0443 28.6917 22.191 27.7184 22.9243L29.5984 24.8043C31.0517 23.5776 31.9984 21.7776 31.9984 19.7243ZM4.94502 5.80428C4.42502 6.32428 4.42502 7.16428 4.94502 7.68428L7.69168 10.431H7.13168C2.75835 10.8976 -0.548316 14.8843 0.0783507 19.4843C0.611684 23.511 4.25168 26.391 8.29168 26.391H23.6383L25.3583 28.111C25.8783 28.631 26.7183 28.631 27.2383 28.111C27.7583 27.591 27.7583 26.751 27.2383 26.231L6.82502 5.80428C6.57591 5.55461 6.23771 5.4143 5.88502 5.4143C5.53233 5.4143 5.19413 5.55461 4.94502 5.80428ZM2.66502 18.391C2.66502 21.3376 5.05168 23.7243 7.99835 23.7243H20.9717L10.305 13.0576H7.99835C5.05168 13.0576 2.66502 15.4443 2.66502 18.391Z" fill="black"/>
</mask>
<g mask="url(#mask0)">
<rect y="0.779297" width="32" height="32" fill="#FEBF00"/>
</g>
</svg>
