<svg width="31" height="35" viewBox="0 0 31 35" fill="none" xmlns="http://www.w3.org/2000/svg">
<path d="M5.36049 32.6818L10.6054 30.773L6.95766 26.8507C4.9515 24.6935 3.23458 23.0343 3.14245 23.1636C2.88614 23.523 -0.123465 34.3917 0.00393099 34.4978C0.0650828 34.5485 2.47584 33.7316 5.36049 32.6818ZM16.8088 24.0459L21.7931 18.632L18.007 14.5576L14.221 10.4833L9.23675 15.8971L4.25249 21.311L8.03856 25.3855L11.8246 29.4597L16.8088 24.0459ZM24.7157 15.4862L26.3866 13.6201L22.6292 9.55265L18.8717 5.48522L17.1633 7.33466L15.4548 9.1841L19.2498 13.2682L23.0449 17.3523L24.7157 15.4862ZM29.5326 10.1991C31.6908 7.5381 31.5195 6.09982 28.6784 3.02428C25.7657 -0.128708 24.4598 -0.271979 21.9045 2.28119L20.0852 4.09903L23.726 8.08099C25.7284 10.271 27.514 12.0628 27.6938 12.0628C27.8737 12.0628 28.701 11.2242 29.5326 10.1991Z" fill="#96668F"/>
</svg>
