<?xml version="1.0" encoding="iso-8859-1"?>
<!-- Generator: Adobe Illustrator 17.1.0, SVG Export Plug-In . SVG Version: 6.00 Build 0)  -->
<!DOCTYPE svg PUBLIC "-//W3C//DTD SVG 1.1//EN" "http://www.w3.org/Graphics/SVG/1.1/DTD/svg11.dtd">
<svg version="1.1" id="Capa_1" xmlns="http://www.w3.org/2000/svg" xmlns:xlink="http://www.w3.org/1999/xlink" x="0px" y="0px"
	 viewBox="0 0 418.197 418.197" style="enable-background:new 0 0 418.197 418.197;" xml:space="preserve">
<path d="M318.288,127.397c-0.027-1.353-0.08-2.681-0.144-3.998V13.5c0-7.456-6.044-13.5-13.5-13.5c-7.456,0-13.5,6.044-13.5,13.5
	v51.682c-1.088-0.81-2.205-1.596-3.36-2.351c-17.263-11.28-42.265-16.534-78.685-16.534c-36.419,0-61.422,5.254-78.685,16.534
	c-19.895,13.001-29.891,34.141-30.505,64.566c-0.006,0.202-0.031,0.4-0.031,0.604v2.415v2.112v178.873v9.774v12.902
	c0,32.051,9.988,54.158,30.536,67.585c17.262,11.28,42.265,16.534,78.684,16.534c36.42,0,61.423-5.254,78.685-16.534
	c20.547-13.427,30.535-35.534,30.535-67.585v-12.902v-9.774V132.528v-2.112v-2.415C318.319,127.797,318.294,127.599,318.288,127.397
	z M188.981,82.189h42.196c2.761,0,5,2.238,5,5c0,2.762-2.239,5-5,5h-42.196c-2.761,0-5-2.238-5-5
	C183.981,84.428,186.219,82.189,188.981,82.189z M147.718,375.625c-9.054,0-16.394-7.34-16.394-16.394s7.34-16.394,16.394-16.394
	s16.394,7.34,16.394,16.394S156.772,375.625,147.718,375.625z M147.718,327.254c-9.054,0-16.394-7.34-16.394-16.394
	s7.34-16.394,16.394-16.394s16.394,7.34,16.394,16.394S156.772,327.254,147.718,327.254z M147.718,278.884
	c-9.054,0-16.394-7.34-16.394-16.394c0-9.054,7.34-16.394,16.394-16.394s16.394,7.34,16.394,16.394
	C164.112,271.544,156.772,278.884,147.718,278.884z M209.099,375.625c-9.054,0-16.394-7.34-16.394-16.394s7.34-16.394,16.394-16.394
	c9.054,0,16.394,7.34,16.394,16.394S218.153,375.625,209.099,375.625z M209.099,327.254c-9.054,0-16.394-7.34-16.394-16.394
	s7.34-16.394,16.394-16.394c9.054,0,16.394,7.34,16.394,16.394S218.153,327.254,209.099,327.254z M209.099,278.884
	c-9.054,0-16.394-7.34-16.394-16.394c0-9.054,7.34-16.394,16.394-16.394c9.054,0,16.394,7.34,16.394,16.394
	C225.493,271.544,218.153,278.884,209.099,278.884z M270.48,375.625c-9.054,0-16.394-7.34-16.394-16.394s7.34-16.394,16.394-16.394
	s16.394,7.34,16.394,16.394S279.534,375.625,270.48,375.625z M270.48,327.254c-9.054,0-16.394-7.34-16.394-16.394
	s7.34-16.394,16.394-16.394s16.394,7.34,16.394,16.394S279.534,327.254,270.48,327.254z M270.48,278.884
	c-9.054,0-16.394-7.34-16.394-16.394c0-9.054,7.34-16.394,16.394-16.394s16.394,7.34,16.394,16.394
	C286.874,271.544,279.534,278.884,270.48,278.884z M295.599,209.298c0,2.75-2.25,5-5,5H127.599c-2.75,0-5-2.25-5-5v-97.466
	c0-2.75,2.25-5,5-5h162.999c2.75,0,5,2.25,5,5V209.298z"/>
<g>
</g>
<g>
</g>
<g>
</g>
<g>
</g>
<g>
</g>
<g>
</g>
<g>
</g>
<g>
</g>
<g>
</g>
<g>
</g>
<g>
</g>
<g>
</g>
<g>
</g>
<g>
</g>
<g>
</g>
</svg>
