<svg width="27" height="23" viewBox="0 0 27 23" fill="none" xmlns="http://www.w3.org/2000/svg">
<path d="M20.1007 16.8899C9.99688 9.81674 20.6117 10.1701 9.03653 14.2919C2.80874 16.5096 9.88246 26.2962 11.7587 19.8583C15.2461 7.89255 18.196 18.2764 10.7674 8.34591C6.77063 3.00301 -0.188683 12.8742 6.4071 12.701C18.6662 12.3789 9.87454 18.4431 16.8586 8.1839C20.6163 2.66416 9.24144 -1.02171 11.4416 5.30911C15.5308 17.0758 7.1473 10.4398 18.8923 14.0298C25.2114 15.9613 25.1407 3.81207 19.9047 7.89802C10.1729 15.4923 13.7833 5.32687 14.058 17.8048C14.2058 24.5182 25.5369 20.6955 20.1007 16.8899Z" fill="#4BACBB"/>
<path fill-rule="evenodd" clip-rule="evenodd" d="M17.7106 4.30028C18.2969 5.49112 18.278 6.94354 17.2471 8.45787C16.9526 8.89051 16.6867 9.2933 16.4467 9.66802C17.2831 9.20666 18.3263 8.52345 19.617 7.51624C20.3119 6.97403 20.9633 6.66701 21.5649 6.59026C22.1809 6.51166 22.7182 6.67909 23.1426 7.03101C23.9578 7.70698 24.2659 8.97354 24.2037 10.1812C24.1403 11.4107 23.6892 12.7461 22.7846 13.6544C21.853 14.5899 20.4899 15.0204 18.7563 14.4905C18.261 14.3391 17.8024 14.2063 17.3781 14.0897C18.0677 14.7568 19.0285 15.5554 20.3686 16.4935C21.0899 16.9985 21.5781 17.5342 21.8358 18.0928C22.0996 18.6648 22.1092 19.2366 21.9114 19.7562C21.5317 20.7541 20.4433 21.4437 19.2956 21.7566C18.1271 22.0753 16.7398 22.0513 15.6115 21.4564C14.4494 20.8437 13.6259 19.6574 13.5854 17.8155C13.5738 17.2893 13.5562 16.8044 13.534 16.3577C13.1238 17.2313 12.6744 18.4081 12.2119 19.9951C11.9629 20.8494 11.6132 21.4875 11.1708 21.9094C10.7178 22.3416 10.1864 22.5276 9.63985 22.4967C8.58999 22.4375 7.60924 21.5971 6.96213 20.5829C6.30326 19.5503 5.89706 18.2001 6.10428 16.9241C6.31769 15.61 7.1718 14.4462 8.88039 13.8378C9.36852 13.664 9.81622 13.4972 10.2268 13.3376C9.28369 13.2105 8.04513 13.1392 6.41925 13.1819C5.54399 13.2049 4.83967 13.0636 4.30866 12.7658C3.76488 12.4608 3.42685 12.0039 3.28677 11.4653C3.0177 10.4308 3.4999 9.22184 4.24766 8.28207C5.00902 7.32521 6.14519 6.5148 7.40159 6.32107C8.69556 6.12154 10.047 6.58867 11.1435 8.05448C11.4567 8.47325 11.751 8.85505 12.027 9.2032C11.8543 8.25101 11.5382 7.0301 10.9959 5.46952C10.7039 4.62942 10.6183 3.90402 10.7325 3.298C10.8494 2.67742 11.1719 2.20903 11.6319 1.90701C12.5155 1.32688 13.7943 1.42003 14.9035 1.85342C16.0329 2.29469 17.1413 3.14401 17.7106 4.30028ZM12.2084 10.9236C11.6844 10.3108 11.0813 9.55971 10.3913 8.63732C9.48941 7.43168 8.47208 7.12913 7.5432 7.27236C6.57675 7.42138 5.63593 8.06616 4.98233 8.88758C4.31514 9.72609 4.04442 10.6185 4.20065 11.2191C4.27321 11.4981 4.44238 11.7422 4.76488 11.9231C5.10013 12.1111 5.62117 12.2404 6.39485 12.22C9.00599 12.1514 10.7045 12.3682 11.8228 12.6718C11.8357 12.602 11.8582 12.5529 11.8647 12.5388C11.8651 12.5378 11.8655 12.537 11.8658 12.5363C11.8948 12.4715 11.917 12.4324 11.9379 12.3956C11.9718 12.3359 12.0023 12.2822 12.0528 12.1346C12.1201 11.9376 12.1941 11.6188 12.2067 11.1186C12.2082 11.0564 12.2089 10.9915 12.2084 10.9236ZM13.2401 13.9756C13.2374 13.9837 13.2374 13.9822 13.2405 13.9742C13.2404 13.9747 13.2402 13.9752 13.2401 13.9756ZM13.405 14.6071C13.3438 14.5731 13.3048 14.5361 13.2937 14.5255C13.2929 14.5247 13.2922 14.5241 13.2917 14.5236C13.2401 14.4755 13.2105 14.442 13.1825 14.4104C13.1372 14.3591 13.0964 14.313 12.9741 14.2185C12.8108 14.0924 12.5357 13.9223 12.0723 13.7556C12.0146 13.7348 11.9541 13.7142 11.8906 13.6936C11.156 14.0115 10.2677 14.3632 9.19259 14.746C7.78727 15.2464 7.19018 16.1376 7.03698 17.081C6.87759 18.0625 7.18937 19.1724 7.75499 20.0589C8.33237 20.9638 9.08262 21.5017 9.69218 21.536C9.9753 21.552 10.2557 21.4637 10.5243 21.2074C10.8036 20.941 11.0854 20.4766 11.3055 19.7215C12.0483 17.1728 12.7758 15.5957 13.405 14.6071ZM15.0613 13.6381C15.0681 13.6432 15.0667 13.6428 15.0602 13.6373C15.0606 13.6376 15.061 13.6379 15.0613 13.6381ZM15.7024 13.6737C15.6517 13.7224 15.6051 13.7487 15.5917 13.7562C15.5908 13.7567 15.59 13.7572 15.5894 13.7575C15.5285 13.7926 15.488 13.8109 15.4498 13.8282C15.3879 13.8562 15.3322 13.8814 15.2061 13.9707C15.0378 14.0897 14.7939 14.3034 14.4948 14.7005C14.4576 14.7499 14.4196 14.8021 14.3808 14.8573C14.4508 15.6665 14.505 16.635 14.5305 17.794C14.5638 19.3089 15.2121 20.1622 16.0463 20.602C16.9143 21.0596 18.0478 21.1008 19.051 20.8273C20.075 20.548 20.8094 19.988 21.0299 19.4086C21.1323 19.1395 21.1364 18.8408 20.98 18.5016C20.8173 18.1489 20.4705 17.7327 19.8328 17.2863C17.6807 15.7797 16.4318 14.5882 15.7024 13.6737ZM15.3088 11.771C15.3156 11.766 15.3147 11.7672 15.3076 11.7718C15.308 11.7715 15.3084 11.7713 15.3088 11.771ZM15.5401 11.1614C15.5699 11.2256 15.5801 11.2788 15.583 11.2941C15.5832 11.2952 15.5834 11.2961 15.5835 11.2968C15.5975 11.3665 15.6021 11.4114 15.6064 11.4537C15.6135 11.5223 15.6198 11.584 15.6643 11.7336C15.7235 11.9333 15.8478 12.2355 16.1265 12.6476C16.1612 12.6989 16.1982 12.7518 16.2377 12.8064C17.0155 12.9887 17.9373 13.2356 19.0282 13.569C20.4541 14.0049 21.4519 13.6411 22.1207 12.9695C22.8165 12.2708 23.2052 11.1863 23.2596 10.1308C23.3151 9.05329 23.0187 8.16939 22.5455 7.77691C22.3256 7.59461 22.0478 7.49832 21.6824 7.54493C21.3026 7.59339 20.8065 7.8005 20.1923 8.27978C18.1194 9.89733 16.6201 10.7381 15.5401 11.1614ZM13.6405 10.9545C13.6379 10.9463 13.6388 10.9476 13.6409 10.9559C13.6407 10.9554 13.6406 10.9549 13.6405 10.9545ZM12.3619 12.317C12.3535 12.317 12.3549 12.3165 12.3634 12.317C12.3629 12.317 12.3624 12.317 12.3619 12.317ZM13.1423 10.5422C13.0805 9.36602 12.7581 7.65494 11.8872 5.14869C11.6291 4.40608 11.5889 3.8618 11.661 3.47919C11.7303 3.11114 11.9061 2.87197 12.1444 2.71551C12.6574 2.37869 13.575 2.36497 14.5647 2.75166C15.5343 3.13047 16.4275 3.84189 16.8654 4.73131C17.2863 5.58617 17.318 6.66438 16.47 7.90992C15.8213 8.86283 15.3058 9.67872 14.8951 10.3753C14.8318 10.3967 14.771 10.4162 14.7123 10.4339C14.2411 10.5763 13.9203 10.6032 13.7154 10.5989C13.5618 10.5956 13.5023 10.5827 13.436 10.5683C13.3951 10.5595 13.3517 10.5501 13.2822 10.542C13.2815 10.5419 13.2806 10.5418 13.2795 10.5417C13.2644 10.5398 13.2115 10.5332 13.1423 10.5422Z" fill="#4BACBB"/>
<path d="M15.818 12.2097C15.8181 12.4866 15.7647 12.7609 15.6607 13.0168C15.5567 13.2726 15.4041 13.5052 15.2118 13.701C15.0195 13.8969 14.7911 14.0523 14.5397 14.1583C14.2884 14.2643 14.019 14.3189 13.7469 14.3189C13.4748 14.3189 13.2054 14.2643 12.954 14.1583C12.7026 14.0523 12.4743 13.8969 12.2819 13.701C12.0896 13.5052 11.9371 13.2726 11.8331 13.0168C11.7291 12.7609 11.6756 12.4866 11.6758 12.2097C11.6756 11.9328 11.7291 11.6585 11.8331 11.4027C11.9371 11.1468 12.0896 10.9142 12.2819 10.7184C12.4743 10.5225 12.7026 10.3671 12.954 10.2611C13.2054 10.1551 13.4748 10.1005 13.7469 10.1005C14.019 10.1005 14.2884 10.1551 14.5397 10.2611C14.7911 10.3671 15.0195 10.5225 15.2118 10.7184C15.4041 10.9142 15.5567 11.1468 15.6607 11.4027C15.7647 11.6585 15.8181 11.9328 15.818 12.2097V12.2097Z" fill="white"/>
<rect x="1.91162" y="4.5" width="24" height="14" stroke="#0C8597" stroke-width="2"/>
<rect x="4.91162" y="19.5" width="18" height="3" fill="white" fill-opacity="0.79"/>
<rect x="3.91162" y="0.5" width="18" height="3" fill="white" fill-opacity="0.79"/>
</svg>
