<svg width="27" height="17" viewBox="0 0 27 17" fill="none" xmlns="http://www.w3.org/2000/svg">
<path d="M10.6442 9.74347C10.5943 9.92329 10.8082 10.693 11.9429 11.4351C11.9861 11.4634 12.7722 12.0892 13.4673 11.8633C13.1416 12.5806 12.9677 13.1595 12.6568 13.8835C11.1686 17.3703 7.72846 15.9708 5.37093 15.22C5.21296 14.1608 5.37401 13.1661 6.00595 12.2822C6.44498 11.6769 7.04258 11.223 7.72846 10.9297C8.70018 10.5222 9.69684 10.2116 10.6442 9.74347ZM10.1829 11.2787C9.63138 11.5054 8.91622 11.7981 8.36287 12.0205L8.26916 12.0586C7.74705 12.2732 7.34189 12.5751 7.04388 12.9806C6.61957 13.558 6.48552 14.2177 6.60751 15.0356C8.85255 15.7282 10.7223 15.3406 11.8162 12.5828C11.6549 12.5199 11.4741 12.4163 11.2908 12.2904C10.9134 12.0311 10.525 11.6769 10.2729 11.3869C10.2406 11.3497 10.2104 11.3135 10.1829 11.2787Z" fill="black"/>
<path d="M13.1681 11.7665C13.3237 11.8696 14.1219 11.904 15.1783 11.0542C15.2185 11.0218 16.0566 10.4676 16.0566 9.73664C16.6381 10.2681 17.1349 10.6124 17.7274 11.1318C18.5573 11.8561 19.4458 12.5024 20.3472 13.1337C20.8358 13.481 21.2799 13.8754 21.6018 14.3927L21.6288 14.4369C21.9084 14.9038 22.0302 15.4314 21.9383 15.9708C24.808 15.9708 13.6531 17.7642 13.3953 14.9061C13.308 13.8561 13.3206 12.8122 13.1681 11.7665ZM14.4857 12.6797C14.5309 13.2743 14.5882 14.0449 14.6288 14.6399L14.6361 14.7408C14.6788 15.3036 14.8407 15.7823 15.1343 16.191C17.7274 15.5158 18.5553 15.9708 20.7115 15.7282C20.7451 15.4839 20.6691 15.2602 20.5404 15.0533C20.3274 14.7112 20.004 14.4152 19.5383 14.0935C18.392 13.3018 17.303 12.4175 16.2307 11.5293C16.0514 11.7483 15.7526 11.9833 15.4331 12.1886C15.2848 12.2839 15.132 12.3729 14.9846 12.4508C14.8042 12.5463 14.6319 12.6254 14.4857 12.6797Z" fill="black"/>
<path d="M15.8721 9.99131C16.0182 9.87519 16.2976 9.12674 15.8158 7.85942C15.7975 7.81113 15.5294 6.84279 14.8342 6.61698C15.5194 6.22812 16.0003 5.86199 16.6774 5.45904C17.6226 4.89357 18.5119 4.24828 19.3908 3.58613C19.8722 3.2287 20.3845 2.92828 20.9759 2.78194L21.0263 2.76994C21.5567 2.64824 22.0961 2.69545 22.5808 2.94956C22.9991 3.17494 23.3087 3.5368 23.5298 3.95187C23.8639 4.58912 23.9855 5.27557 23.9874 5.98533C23.9857 6.91485 23.7883 7.83307 23.3574 8.66023C22.8626 9.61 22.1476 10.3201 21.1168 10.6637C20.4059 10.8954 19.6556 10.9113 18.9283 10.7455C17.9026 10.504 16.9137 10.1695 15.8721 9.99131ZM17.1478 9.02042C17.7272 9.1612 18.4778 9.34476 19.0562 9.49006L19.1544 9.51433C19.7029 9.64763 20.2082 9.64154 20.6876 9.48862C21.3703 9.27088 21.8665 8.81604 22.2485 8.08259C22.5735 7.45888 22.7312 6.7817 22.7371 6.04412C22.7418 5.45029 22.6456 4.95792 22.4225 4.53232C22.2844 4.2689 22.1356 4.12546 21.9709 4.04136C21.7489 3.93393 21.5127 3.93705 21.2762 3.99558C20.885 4.09237 20.5036 4.30848 20.0537 4.65204C18.9465 5.49752 17.769 6.26001 16.5929 7.00531C16.9036 7.4895 17.1244 8.46289 17.1478 9.02042Z" fill="black"/>
<path d="M15.0194 6.87108C14.9541 6.69624 14.3286 6.19924 12.9744 6.26586C12.9228 6.2684 11.919 6.22413 11.4894 6.81553C11.3314 6.04369 11.1317 5.47321 10.9578 4.7047C10.7121 3.63096 10.3732 2.58582 10.015 1.54532C10.3996 0.730758 17.2796 0.886435 17.2796 2.09085C17.2802 2.83862 17.0635 3.55711 16.681 4.19757C16.1344 5.09843 15.5107 5.93553 15.0194 6.87108ZM14.4902 5.35784C14.8031 4.8503 15.2097 4.19315 15.5266 3.68795L15.58 3.60205C15.8763 3.12157 16.0266 2.63919 16.0294 2.13593C14.4902 1.54532 11.9429 0.808608 11.2336 1.24424C11.6956 2.55852 12.0568 3.91403 12.4022 5.26286C12.6238 5.20479 12.9147 5.18422 13.2186 5.18998C13.4849 5.19502 13.761 5.22028 14.0092 5.25821C14.1891 5.28571 14.3542 5.31988 14.4902 5.35784Z" fill="black"/>
<path d="M11.7883 6.7179C11.6019 6.72596 10.9359 7.16725 10.5808 8.47574C10.5673 8.52561 10.215 9.46659 10.6447 10.0579C9.86178 9.96974 9.25754 9.98329 8.47288 9.91128C7.37577 9.81314 6.27706 9.8125 5.17681 9.83159C4.57729 9.83782 3.98624 9.77973 3.42176 9.5505L3.37396 9.53059C2.87324 9.31724 2.46463 8.96201 2.22191 8.47157C2.01591 8.04332 1.97816 7.5686 2.04324 7.10283C2.14757 6.39094 2.45268 5.76412 2.86827 5.18876C3.41604 4.43779 4.11546 3.81097 4.95028 3.39506C5.90883 2.91751 6.90463 2.7633 7.94051 3.09117C8.65186 3.32166 9.26824 3.74975 9.75916 4.31142C10.447 5.10964 11.0504 5.96155 11.7883 6.7179ZM10.1856 6.75357C9.79964 6.29911 9.30028 5.7094 8.91774 5.25187L8.85255 5.17452C8.48715 4.74426 8.07483 4.45222 7.59704 4.29412C6.91677 4.069 6.24802 4.14535 5.5078 4.51413C4.87831 4.82774 4.35268 5.28288 3.91439 5.87614C3.56152 6.35378 3.34995 6.80866 3.28027 7.28412C3.23715 7.57839 3.27322 7.7819 3.35706 7.94676C3.47348 8.16414 3.66639 8.30044 3.89217 8.39213C4.26552 8.54374 4.70112 8.59309 5.26703 8.5796C6.65974 8.54638 8.06055 8.62165 9.4501 8.70997C9.45832 8.56794 9.48857 8.40493 9.53413 8.23298C9.65754 7.76714 9.89327 7.23565 10.1075 6.87775C10.134 6.83356 10.1601 6.79201 10.1856 6.75357Z" fill="black"/>
<path d="M15.8624 9.01908C15.8624 7.59453 14.7075 6.4397 13.283 6.4397C11.8584 6.43971 10.7036 7.59453 10.7036 9.01908C10.7036 10.4436 11.8584 11.5984 13.283 11.5984V12.8487C12.5533 12.8487 11.8712 12.6446 11.2908 12.2904C10.8999 12.0518 10.5551 11.7452 10.2729 11.3869C9.75962 10.7353 9.45337 9.91296 9.45337 9.01908C9.45337 8.74964 9.48119 8.4867 9.53413 8.23298C9.63703 7.73976 9.83481 7.28136 10.1075 6.87775C10.7845 5.87572 11.9234 5.21134 13.2186 5.18998C13.24 5.18963 13.2615 5.18945 13.283 5.18945C13.5313 5.18945 13.7741 5.21308 14.0092 5.25821C15.777 5.59752 17.1126 7.15232 17.1126 9.01908C17.1126 10.3371 16.4468 11.4997 15.4331 12.1886C15.2902 12.2857 15.1404 12.3734 14.9846 12.4508C14.472 12.7055 13.8942 12.8487 13.283 12.8487V11.5984C14.7075 11.5984 15.8624 10.4436 15.8624 9.01908Z" fill="black"/>
<path d="M19.0562 9.49006L19.1544 9.51433C19.7029 9.64763 20.2082 9.64154 20.6876 9.48862C21.3703 9.27088 21.8665 8.81604 22.2485 8.08259C22.5735 7.45888 22.7312 6.7817 22.7371 6.04412C22.7418 5.45029 22.6456 4.95792 22.4225 4.53232C22.2844 4.2689 22.1356 4.12546 21.9709 4.04136C21.7489 3.93393 21.5127 3.93705 21.2762 3.99558C20.885 4.09237 20.5036 4.30848 20.0537 4.65204C18.9465 5.49752 17.769 6.26001 16.5929 7.00531C16.9036 7.4895 17.1244 8.46289 17.1478 9.02042C17.7272 9.1612 18.4778 9.34476 19.0562 9.49006Z" fill="black"/>
<path d="M14.6288 14.6399L14.6361 14.7408C14.6788 15.3036 14.8407 15.7823 15.1343 16.191C17.7274 15.5158 18.5553 15.9708 20.7115 15.7282C20.7451 15.4839 20.6691 15.2602 20.5404 15.0533C20.3274 14.7112 20.004 14.4152 19.5383 14.0935C18.392 13.3018 17.303 12.4175 16.2307 11.5293C16.0514 11.7483 15.7526 11.9833 15.4331 12.1886C15.2902 12.2857 15.1404 12.3734 14.9846 12.4508C14.8042 12.5463 14.6319 12.6254 14.4857 12.6797C14.5309 13.2743 14.5882 14.0449 14.6288 14.6399Z" fill="black"/>
<path d="M8.36287 12.0205L8.26916 12.0586C7.74705 12.2732 7.34189 12.5751 7.04388 12.9806C6.61957 13.558 6.48552 14.2177 6.60751 15.0356C8.85255 15.7282 10.7223 15.3406 11.8162 12.5828C11.6549 12.5199 11.4741 12.4163 11.2908 12.2904C10.8999 12.0518 10.5551 11.7452 10.2729 11.3869C10.2406 11.3497 10.2104 11.3135 10.1829 11.2787C9.63138 11.5054 8.91622 11.7981 8.36287 12.0205Z" fill="black"/>
<path d="M8.91774 5.25187L8.85255 5.17452C8.48715 4.74426 8.07483 4.45222 7.59704 4.29412C6.91677 4.069 6.24802 4.14535 5.5078 4.51413C4.87831 4.82774 4.35268 5.28288 3.91439 5.87614C3.56152 6.35378 3.34995 6.80866 3.28027 7.28412C3.23715 7.57839 3.27322 7.7819 3.35706 7.94676C3.47348 8.16414 3.66639 8.30044 3.89217 8.39213C4.26552 8.54374 4.70112 8.59309 5.26703 8.5796C6.65974 8.54638 8.06055 8.62165 9.4501 8.70997C9.45832 8.56794 9.48857 8.40493 9.53413 8.23298C9.63703 7.73976 9.83481 7.28136 10.1075 6.87775C10.134 6.83356 10.1601 6.79201 10.1856 6.75357C9.79964 6.29911 9.30028 5.7094 8.91774 5.25187Z" fill="black"/>
<path d="M15.5266 3.68795L15.58 3.60205C15.8763 3.12157 16.0266 2.63919 16.0294 2.13593C14.4902 1.54532 11.9429 0.808608 11.2336 1.24424C11.6956 2.55852 12.0568 3.91403 12.4022 5.26286C12.6238 5.20479 12.9147 5.18422 13.2186 5.18998C13.24 5.18963 13.2615 5.18945 13.283 5.18945C13.5313 5.18945 13.7741 5.21308 14.0092 5.25821C14.1891 5.28571 14.3542 5.31988 14.4902 5.35784C14.8031 4.8503 15.2097 4.19315 15.5266 3.68795Z" fill="black"/>
<rect x="1" y="1.53537" width="24" height="14" stroke="#0E0E0E" stroke-width="2"/>
</svg>
