<svg width="36" height="61" viewBox="0 0 36 61" fill="none" xmlns="http://www.w3.org/2000/svg">
<path d="M1.40006 3.64595L31.7151 1.14643C33.3066 1.02187 34.5994 2.67905 34.6137 4.86207L34.9123 49.7698C34.9267 51.9528 33.657 53.8105 32.0655 53.9351L1.4085 56.7566L1.40006 3.64595Z" fill="white" stroke="black"/>
<path d="M2.17128 3.40511L29.5747 2.72389C31.0337 2.72489 32.2196 4.43977 32.2336 6.56893L32.5249 51.5562C32.5389 53.6853 31.3756 55.3986 29.9166 55.3976L1.85752 56.7773L2.17128 3.40511Z" fill="white" stroke="black"/>
<path d="M1.83328 3.40514L26.8924 4.60539C28.2157 4.60635 29.2918 6.33832 29.3052 8.48873L29.5835 54.0181C29.5969 56.1685 28.5423 57.8989 27.219 57.8979L1.83841 56.7774L1.83328 3.40514Z" fill="white" stroke="black"/>
<path d="M1.66553 3.40515L23.7504 5.85276C24.951 6.02835 25.9276 7.94037 25.9401 10.1398L26.2006 55.889C26.2131 58.0884 25.2567 59.7177 24.0561 59.5422L1.50635 56.7773L1.66553 3.40515Z" fill="white" stroke="black"/>
</svg>
