<svg width="35" height="61" viewBox="0 0 35 61" fill="none" xmlns="http://www.w3.org/2000/svg">
<path d="M1.36182 3.24005L31.3991 0.889227C32.9983 0.764067 34.2974 2.43281 34.3119 4.63081L34.6125 50.35C34.6269 52.548 33.3511 54.4183 31.7519 54.5434L1.71463 56.8943L1.36182 3.24005Z" fill="#F1F3F4" stroke="black" stroke-width="0.757044"/>
<path d="M1.36182 3.24005L31.3991 0.889227C32.9983 0.764067 34.2974 2.43281 34.3119 4.63081L34.6125 50.35C34.6269 52.548 33.3511 54.4183 31.7519 54.5434L1.71463 56.8943L1.36182 3.24005Z" fill="#F1F3F4" stroke="black" stroke-width="0.757044"/>
<path d="M1.85254 3.04236L30.5326 3.06201C32.0596 3.06306 33.3005 4.83359 33.3149 7.03182L33.6156 52.7559C33.6301 54.9541 32.4124 56.723 30.8855 56.7219L2.20539 56.7023L1.85254 3.04236Z" fill="#F1F3F4" stroke="black" stroke-width="1.13413"/>
<path d="M1.85254 3.04236L30.5326 3.06201C32.0596 3.06306 33.3005 4.83359 33.3149 7.03182L33.6156 52.7559C33.6301 54.9541 32.4124 56.723 30.8855 56.7219L2.20539 56.7023L1.85254 3.04236Z" fill="#F1F3F4" stroke="black" stroke-width="1.13413"/>
<path d="M1.66136 4.41503L29.1159 4.43492C30.5776 4.43597 31.7655 6.22731 31.7793 8.45136L32.0671 54.7125C32.081 56.9366 30.9154 58.7262 29.4537 58.7252L1.90162 55.3897L1.66136 4.41503Z" fill="#F1F3F4" stroke="black" stroke-width="1.11613"/>
<path d="M1.46631 3.43994L29.1159 4.43501C30.5776 4.43606 31.7655 6.2274 31.7793 8.45145L32.0671 54.7126C32.081 56.9367 30.9154 58.7263 29.4537 58.7253L1.80408 55.8773L1.46631 3.43994Z" fill="#F1F3F4" stroke="black" stroke-width="1.11613"/>
<path d="M1.71973 3.35583L27.7564 6.65238C29.1426 6.82791 30.2702 8.73929 30.2846 10.938L30.5853 56.6718C30.5998 58.8705 29.4955 60.4993 28.1093 60.3237L2.07264 57.0271L1.71973 3.35583Z" fill="#F1F3F4" stroke="black" stroke-width="1.13411"/>
</svg>
