<svg width="36" height="61" viewBox="0 0 36 61" fill="none" xmlns="http://www.w3.org/2000/svg">
<path d="M1.40006 3.90755L31.7151 1.40803C33.3066 1.28347 34.5994 2.94065 34.6137 5.12367L34.9123 50.0314C34.9267 52.2144 33.657 54.0721 32.0655 54.1967L1.4085 57.0182L1.40006 3.90755Z" fill="white" stroke="black"/>
<path d="M2.17128 3.66671L29.5747 2.98548C31.0337 2.98648 32.2196 4.70137 32.2336 6.83053L32.5249 51.8178C32.5389 53.9469 31.3756 55.6602 29.9166 55.6592L1.85752 57.0389L2.17128 3.66671Z" fill="white" stroke="black"/>
<path d="M1.83328 3.66674L26.8924 4.86699C28.2157 4.86795 29.2918 6.59992 29.3052 8.75032L29.5835 54.2797C29.5969 56.4301 28.5424 58.1605 27.219 58.1595L1.83841 57.039L1.83328 3.66674Z" fill="white" stroke="black"/>
<path d="M1.66553 3.66675L23.7504 6.11436C24.951 6.28994 25.9276 8.20197 25.9401 10.4014L26.2006 56.1506C26.2131 58.35 25.2567 59.9793 24.0561 59.8037L1.50635 57.0389L1.66553 3.66675Z" fill="white" stroke="black"/>
</svg>
