<svg width="16" height="29" viewBox="0 0 16 29" fill="none" xmlns="http://www.w3.org/2000/svg">
<rect x="0.5" y="1.30688" width="15" height="15" rx="0.928413" stroke="white" stroke-dasharray="2.2 2.2"/>
<path d="M9.09534 22.16L9.03203 22.4614H9.34H12.5C12.9127 22.4614 13.25 22.7953 13.25 23.2114V24.2114C13.25 24.3067 13.2322 24.3948 13.1985 24.4819L11.6902 28.003L11.6902 28.003L11.6892 28.0053C11.5772 28.2741 11.3119 28.4614 11 28.4614H6.5C6.30109 28.4614 6.11032 28.3824 5.96967 28.2418C5.82902 28.1011 5.75 27.9103 5.75 27.7114V22.7114C5.75 22.5051 5.83198 22.318 5.97178 22.1782L9.08584 19.0641L9.43822 19.4132C9.43836 19.4133 9.4385 19.4135 9.43863 19.4136C9.52857 19.5038 9.585 19.6308 9.585 19.7664C9.585 19.8066 9.58133 19.8446 9.57507 19.8763L9.09534 22.16ZM4.25 22.9614V28.4614H2.75V22.9614H4.25Z" stroke="white" stroke-width="0.5"/>
</svg>
