<?xml version="1.0" encoding="UTF-8" standalone="no"?>
<svg
   xmlns:dc="http://purl.org/dc/elements/1.1/"
   xmlns:cc="http://creativecommons.org/ns#"
   xmlns:rdf="http://www.w3.org/1999/02/22-rdf-syntax-ns#"
   xmlns:svg="http://www.w3.org/2000/svg"
   xmlns="http://www.w3.org/2000/svg"
   xmlns:sodipodi="http://sodipodi.sourceforge.net/DTD/sodipodi-0.dtd"
   xmlns:inkscape="http://www.inkscape.org/namespaces/inkscape"
   version="1.1"
   viewBox="0 0 64.35617 61.323662"
   width="128.71234"
   height="122.64732"
   id="svg1997"
   sodipodi:version="0.32"
   inkscape:version="0.91 r13725"
   sodipodi:docname="experimentalEpubNotice.svg">
  <metadata
     id="metadata2084">
    <rdf:RDF>
      <cc:Work
         rdf:about="">
        <dc:format>image/svg+xml</dc:format>
        <dc:type
           rdf:resource="http://purl.org/dc/dcmitype/StillImage" />
        <dc:title></dc:title>
      </cc:Work>
    </rdf:RDF>
  </metadata>
  <defs
     id="defs2082" />
  <sodipodi:namedview
     inkscape:window-height="1177"
     inkscape:window-width="1752"
     inkscape:pageshadow="2"
     inkscape:pageopacity="0.0"
     guidetolerance="10.0"
     gridtolerance="10.0"
     objecttolerance="10.0"
     borderopacity="1.0"
     bordercolor="#666666"
     pagecolor="#ffffff"
     id="base"
     inkscape:zoom="1.6705398"
     inkscape:cx="237.07948"
     inkscape:cy="-17.039577"
     inkscape:window-x="3112"
     inkscape:window-y="468"
     inkscape:current-layer="g4272"
     showgrid="false"
     inkscape:window-maximized="1"
     fit-margin-top="0"
     fit-margin-left="0"
     fit-margin-right="0"
     fit-margin-bottom="0" />
  <g
     id="g4272"
     transform="translate(-6.5568061,-1.5639711)">
    <path
       inkscape:connector-curvature="0"
       id="path24960"
       style="fill:#d6d6d6;fill-opacity:1;fill-rule:evenodd;stroke:none"
       d="m 26.331387,20.12656 c 1.137981,-0.711237 -4.201001,-0.600143 -6.3015,1.200286 -1.074007,0.920578 1.800429,-6.401524 4.100977,-7.201716 2.300547,-0.800189 -4.70112,1.400335 -5.101215,1.900453 -0.400096,0.500121 3.500834,-5.601333 6.201478,-6.00143 2.687923,-0.3982121 -5.601335,-0.4000943 -5.601335,-0.4000943 0,0 3.500833,-3.7008809 7.201715,-4.1009773 3.700881,-0.4000945 -5.201238,-0.8001891 -5.201238,-0.8001891 1.200285,-1.2002857 7.60181,-3.4008117 11.502739,0.2000472 0,0 3.41716,-2.9108019 5.801382,-2.5005968 0,0 -2.400572,1.9004531 -2.600619,3.0007151 0,0 5.401285,-2.4005713 7.401763,-0.5001201 0,0 -1.300311,1.8e-6 -2.200526,1.4003349 5.311029,-0.9618417 9.702311,1.5003568 11.002622,4.0009514 0,0 -3.600858,-0.100022 -3.600858,-0.100022 1.400333,0.700168 4.801144,3.500834 3.900929,6.001429 0,0 -3.000715,-1.700406 -3.000715,-1.700406 0,0 1.881879,4.104253 1.400333,5.901406 -0.126338,0.471501 -2.800666,-1.800429 -2.800666,-1.800429 0,0 0.866102,2.977203 0.200047,2.800668 -0.300071,-0.500118 -1.800429,-1.400333 -1.800429,-1.400333 0,0 0.700167,2.200524 0.100024,2.300547 -0.600142,0.100024 -1.600381,0 -1.100262,0.600143 0.09711,0.116535 -1.136438,1.423026 -2.417331,1.372225 -0.651128,-0.02583 0.798834,-5.228508 -0.04456,-5.326188 -2.451435,-0.283923 -8.100303,3.179324 -10.40329,3.578361 -4.706494,0.81549 -7.648185,-1.794616 -6.639467,-2.425065 z" />
    <path
       inkscape:connector-curvature="0"
       id="path29589"
       style="fill:none;fill-opacity:1;fill-rule:evenodd;stroke:#020202;stroke-width:1.15000522;stroke-linecap:butt;stroke-linejoin:round;stroke-opacity:1"
       d="m 24.053294,19.678406 c -1.415623,0.191745 -3.122877,0.667264 -4.113675,1.516519 -1.080143,0.925839 1.81072,-6.43811 4.124415,-7.242874 -0.89239,-0.110111 -4.334371,1.644504 -5.523982,2.777265 0.0059,-1.366442 3.525308,-6.654956 7.331001,-6.97951 2.722907,-0.2322123 -6.333814,-0.3245508 -6.333814,-0.3245508 0,-1.2595634 3.520841,-3.7220312 7.242873,-4.1244143 3.722031,-0.4023811 -5.230964,-0.8047623 -5.230964,-0.8047623 1.207145,-1.2071454 7.645255,-3.4202467 11.568479,0.2011906 0,0 3.436688,-2.9274368 5.834536,-2.5148876 0,0 -2.414291,1.9113139 -2.61548,3.0178636 0,0 4.015142,-2.3355673 7.995121,-0.739145 0,0 -1.858801,0.236169 -2.76416,1.6445051 5.02649,-1.2035058 9.915205,1.4302082 11.53784,4.6535987 0,0 -4.560753,-0.652545 -4.560753,-0.652545 1.486166,0.470679 5.29556,3.443011 4.390201,5.957896 0,0 -3.990151,-1.530068 -3.990151,-1.530068 0,0 3.255856,3.800925 2.538068,6.542306 -1.22918,-1.730043 -2.974117,-2.597947 -2.974117,-2.597947 0,0 0.87105,2.994218 0.20119,2.816674 -0.301785,-0.502976 -1.810719,-1.408336 -1.810719,-1.408336 0,0 0.70417,2.213101 0.100595,2.313695 -0.603571,0.100595 -1.859634,0.78273 -1.106548,1.006669" />
    <path
       inkscape:connector-curvature="0"
       id="path4638"
       style="fill:#96668f;fill-opacity:1;fill-rule:evenodd;stroke:#000000;stroke-width:1.15000558;stroke-linecap:butt;stroke-linejoin:miter;stroke-opacity:1"
       d="m 45.589276,62.64468 c -0.07827,-1.252405 1.334786,-10.393573 1.046078,-14.146805 0,-2.019342 9.960504,3.32017 13.93027,-11.476237 0,0 -2.767559,-0.740492 -2.767559,-0.740492 -1.221849,4.2404 -6.747817,8.514754 -10.440937,7.525186 -4.89519,-1.311662 -5.124607,-1.010487 -5.557674,-1.804439 -0.433065,-0.793955 -0.197096,-2.898522 -3.392346,-2.818426 -2.814744,0.07056 -3.546889,2.225291 -3.624298,4.798059 -2.814926,2.670571 -8.429358,5.526836 -12.904367,1.990134 0,0 -2.237506,2.598393 -2.237506,2.598393 2.598394,3.031458 10.46575,4.330655 14.507695,0.649598 0,0 -0.216532,13.425029 -0.216532,13.425029" />
    <path
       inkscape:connector-curvature="0"
       id="path29585"
       style="fill:none;fill-opacity:1;fill-rule:evenodd;stroke:#020202;stroke-width:1.15000439;stroke-linecap:butt;stroke-linejoin:round;stroke-opacity:1"
       d="m 35.63602,42.86455 c 0,0 -2.694162,-1.586768 -5.269687,0.26761 -2.575525,1.854382 -5.460115,2.163442 -6.284284,0.618126 -0.82417,-1.545314 0.721149,-3.399694 -0.206041,-4.120839 -0.927191,-0.72115 -2.266467,-0.927192 -1.648339,-2.266464 0.618125,-1.339273 1.692553,-0.942134 2.060422,-2.266461 0.515106,-1.85438 -2.266464,-2.163445 -2.060422,-3.708763 0.116332,-0.872489 1.442293,-0.206042 1.957404,-1.23625 0.515104,-1.030213 1.193054,-3.347349 0.30906,-4.120843 -0.824169,-0.72115 -0.927191,-4.635947 1.545318,-6.181262 0.622354,-0.388973 -0.636157,-0.539147 -2.277467,-0.316833 m 22.36657,3.614236 c 1.61595,0.480524 3.055542,5.147647 -0.05501,6.025833 0,0 0.66386,1.241276 0.562782,1.493974 -0.791152,2.634902 -2.568194,1.214249 -2.568194,1.214249 -0.560183,0.840272 -0.320779,5.005887 -3.414865,7.543123" />
    <path
       inkscape:connector-curvature="0"
       id="path4640"
       style="fill:none;stroke:#000000;stroke-width:0.47916898;stroke-linecap:round;stroke-linejoin:round;stroke-miterlimit:4;stroke-dasharray:none;stroke-opacity:1"
       d="m 43.315184,62.64468 c 0,0 2.454037,-14.940759 0.360887,-16.961731 0,0 -2.237504,4.041943 -9.166552,1.804439" />
    <path
       inkscape:connector-curvature="0"
       id="path4642"
       style="display:inline;overflow:visible;visibility:visible;fill:none;stroke:#000000;stroke-width:0.47916898;stroke-linecap:round;stroke-linejoin:round;stroke-miterlimit:4;stroke-dasharray:none;stroke-dashoffset:0;stroke-opacity:1;marker:none;marker-start:none;marker-mid:none;marker-end:none"
       d="m 34.470381,48.789137 c 0.195689,-0.70448 -0.89917,-2.600945 0.905269,-4.044497" />
    <path
       inkscape:connector-curvature="0"
       id="path4644"
       style="display:inline;overflow:visible;visibility:visible;fill:none;stroke:#000000;stroke-width:0.47916898;stroke-linecap:round;stroke-linejoin:round;stroke-miterlimit:4;stroke-dasharray:none;stroke-dashoffset:0;stroke-opacity:1;marker:none;marker-start:none;marker-mid:none;marker-end:none"
       d="m 36.747024,46.043836 c 0,0 -1.897462,-1.500981 -1.680929,-2.728001 0.216535,-1.227019 1.464396,-3.262738 3.413192,-3.407093 1.948793,-0.144354 3.392345,1.22702 2.670569,4.1863" />
    <path
       inkscape:connector-curvature="0"
       id="path4646"
       style="fill:#050504;fill-opacity:1;fill-rule:evenodd;stroke:none"
       d="m 42.477898,53.155739 c -0.360887,0.144358 -1.056167,1.000545 -0.878137,1.639246 0.312808,1.122238 1.596737,0.489017 1.626409,-0.289534 0.03858,-1.012329 -0.09232,-1.525474 -0.748272,-1.349712 z" />
    <path
       inkscape:connector-curvature="0"
       id="path4648"
       style="fill:none;stroke:#000000;stroke-width:0.76667035;stroke-linecap:butt;stroke-linejoin:miter;stroke-opacity:1"
       d="m 37.613156,41.280117 c -0.649598,0.288708 -1.673392,1.041575 -0.962526,1.752441 0.399414,0.399414 1.857504,1.251036 2.839141,-0.449209 0.875383,-1.516206 -0.784838,-1.788468 -1.876615,-1.303232 z" />
    <path
       inkscape:connector-curvature="0"
       id="path4650"
       style="fill:#020202;fill-opacity:1;fill-rule:evenodd;stroke:none"
       d="m 59.482961,21.647815 c -0.05863,0.820768 -6.004291,11.029908 -7.217757,12.414545 -0.260523,0.273546 -0.07203,0.910333 0.42504,1.176277 2.257205,1.207661 10.877579,2.21009 12.711275,1.85518 0.502886,0.08599 0.850747,-0.55245 0.765258,-0.859371 -1.09189,-3.92005 -0.872229,-10.520436 -1.19832,-12.998725 2.093149,0.144355 5.511456,-0.86613 5.944523,-2.237504 0,0 0,-3.536701 0,-3.536701 0,0 -2.40782,2.381862 -4.573151,1.876618 5.124611,-3.825413 2.461467,-8.234679 0.505244,-7.650824 -2.195709,0.655335 2.066207,4.027701 -3.392346,6.135095 1.230087,-2.130574 0.998767,-4.338207 0.0079,-5.768122 -0.398446,-0.575024 -1.688345,-1.593043 -3.204477,-1.542177 -2.116996,0.06933 -2.609532,2.465683 -1.293439,2.465683 1.870198,0 4.872839,4.192548 0.01499,5.494213 -2.953745,0.791453 -0.929952,-1.585594 -0.793953,-2.09315 0.558369,-2.08387 -3.392347,-1.037991 -3.392347,1.299198 0,3.405593 0.86613,3.392345 4.691543,3.969765 z" />
    <path
       inkscape:connector-curvature="0"
       id="path4652"
       style="fill:#96668f;fill-opacity:1;fill-rule:evenodd;stroke:none"
       d="m 54.806219,32.277045 1.055274,-2.05192 c 3.752081,1.817415 6.74202,1.993293 8.500805,1.75879 0.117256,2.051918 0,2.227796 0,2.227796 -5.334989,0.234505 -7.680038,-0.820767 -9.556079,-1.934666 z" />
    <path
       inkscape:connector-curvature="0"
       id="path4654"
       style="fill:none;fill-opacity:1;fill-rule:evenodd;stroke:#eaeae7;stroke-width:0.23000111;stroke-linecap:round;stroke-linejoin:miter;stroke-miterlimit:4;stroke-dasharray:none;stroke-opacity:1"
       d="m 60.082582,19.789651 c 1.055274,-0.410383 3.576205,-0.234505 4.045214,1.055274" />
    <path
       inkscape:connector-curvature="0"
       id="path4670"
       style="fill:#0fa8bf;fill-opacity:1;fill-rule:evenodd;stroke:#000000;stroke-width:1.15000558;stroke-linecap:butt;stroke-linejoin:miter;stroke-opacity:1"
       d="m 9.5517886,28.680605 c 0,0 -0.050012,-6.4195 -0.050012,-6.4195 -1.0558743,-0.527937 -1.7867341,-2.261936 1.8854894,-2.76592 4.58924,-0.629839 4.500393,1.684794 3.092202,2.464241 0,0 0,6.482441 0,6.482441" />
    <path
       inkscape:connector-curvature="0"
       id="path4656"
       style="fill:#020202;fill-opacity:1;fill-rule:evenodd;stroke:none"
       d="m 17.930301,51.271951 c 3.283071,-2.989936 6.800647,-7.62141 6.331636,-8.618057 -0.46901,-0.996647 -6.507515,-3.458951 -8.031798,-10.435476 2.872687,-3.986586 0.987005,-5.356639 -0.644889,-5.569494 -1.348404,-0.175878 -3.224444,0.117253 -3.869333,1.58291 -4.0452122,-0.410385 -5.393616,1.582907 -4.2210909,3.28307 0,0 -0.93802,0.644889 -0.93802,1.70016 0,1.289779 1.3484039,1.348405 1.0552726,1.641536 0,0 -0.7035151,0.996646 -0.2345051,1.758787 0.4103839,1.113901 1.5016322,0.762144 1.5016322,0.762144 0,0 -0.4463603,1.87604 0.2571554,3.107192 0.5729429,1.002647 0.8793938,1.934665 2.6381818,2.051918 0.762142,0.586263 -0.762141,3.224443 4.572848,9.204323 0.586264,0.117251 0.938021,0 1.58291,-0.469013 z" />
    <path
       inkscape:connector-curvature="0"
       id="path4678"
       style="fill:#f2d6c6;fill-opacity:1;fill-rule:evenodd;stroke:none"
       d="m 36.125754,42.335835 c 0,0 -3.092771,-1.40432 -5.593366,0.39611 -2.500595,1.800429 -5.301263,2.1005 -6.101454,0.600142 -0.800189,-1.500357 0.70017,-3.300786 -0.200045,-4.000952 -0.900215,-0.700168 -2.200526,-0.900214 -1.600382,-2.200524 0.600142,-1.300311 1.64331,-0.914724 2.000477,-2.200524 0.500118,-1.800429 -2.200524,-2.1005 -2.000477,-3.600859 0.112948,-0.847108 1.400333,-0.200047 1.900453,-1.200285 0.500118,-1.000239 1.158345,-3.249964 0.300071,-4.000954 -0.80019,-0.700168 -0.900215,-4.50107 1.500356,-6.001429 1.137981,-0.711237 -4.201001,-0.600143 -6.3015,1.200286 -1.074007,0.920578 1.800429,-6.401524 4.100977,-7.201716 2.300547,-0.800189 -4.70112,1.400335 -5.101215,1.900453 -0.400096,0.500121 3.500834,-5.601333 6.201478,-6.00143 2.687923,-0.3982121 -5.601335,-0.4000943 -5.601335,-0.4000943 0,0 3.500833,-3.7008809 7.201715,-4.1009773 3.700881,-0.4000945 -5.201238,-0.8001891 -5.201238,-0.8001891 1.200285,-1.2002857 7.60181,-3.4008117 11.502739,0.2000472 0,0 3.41716,-2.9108019 5.801382,-2.5005968 0,0 -2.400572,1.9004531 -2.600619,3.0007151 0,0 5.401285,-2.4005713 7.401763,-0.5001201 0,0 -1.300311,1.8e-6 -2.200526,1.4003349 5.311029,-0.9618417 9.702311,1.5003568 11.002622,4.0009514 0,0 -3.600858,-0.100022 -3.600858,-0.100022 1.400333,0.700168 4.801144,3.500834 3.900929,6.001429 0,0 -3.000715,-1.700406 -3.000715,-1.700406 0,0 1.881879,4.104253 1.400333,5.901406 -0.126338,0.471501 -2.800666,-1.800429 -2.800666,-1.800429 0,0 0.866102,2.977203 0.200047,2.800668 -0.300071,-0.500118 -1.800429,-1.400333 -1.800429,-1.400333 0,0 0.700167,2.200524 0.100024,2.300547 -0.600142,0.100024 -1.600381,0 -1.100262,0.600143 0.50012,0.600143 2.400571,3.400811 1.500357,4.801144 -0.900214,1.400333 -1.290882,2.802554 -1.290882,2.802554 0,2.700644 -2.209952,1.898565 -2.209952,1.898565 -0.600144,0.900215 -0.344705,4.610022 -4.445682,6.910571 -1.155456,0.667103 -0.504684,1.772356 -0.267813,2.482964 0.23687,0.710609 -0.473149,1.563668 -1.544492,1.555083 -0.662047,-0.0053 -1.466671,-1.187601 -1.451815,-1.042273 z" />
    <path
       inkscape:connector-curvature="0"
       id="path4658"
       style="fill:#96668f;fill-opacity:1;fill-rule:evenodd;stroke:none"
       d="m 14.479469,47.60208 1.282133,2.036328 c 3.770978,-3.4693 6.184404,-7.391118 6.184404,-7.391118 l -1.508391,-1.357551 c -1.055874,3.016783 -5.958146,6.712341 -5.958146,6.712341 z" />
    <path
       inkscape:connector-curvature="0"
       id="path4660"
       style="fill:none;stroke:#eaeae7;stroke-width:0.23000111;stroke-linecap:round;stroke-linejoin:miter;stroke-miterlimit:4;stroke-dasharray:none;stroke-opacity:1"
       d="m 8.1442246,34.705334 c 1.7346502,0.527937 3.3184614,-0.377099 3.3184614,-0.377099" />
    <path
       inkscape:connector-curvature="0"
       id="path4662"
       style="fill:none;stroke:#eaeae7;stroke-width:0.23000111;stroke-linecap:round;stroke-linejoin:miter;stroke-miterlimit:4;stroke-dasharray:none;stroke-opacity:1"
       d="m 8.6721616,31.613132 c 2.4888454,0.452517 3.6201394,-0.678778 4.0726564,-1.131293" />
    <path
       inkscape:connector-curvature="0"
       id="path4664"
       style="fill:none;stroke:#eaeae7;stroke-width:0.23000111;stroke-linecap:round;stroke-linejoin:miter;stroke-miterlimit:4;stroke-dasharray:none;stroke-opacity:1"
       d="m 11.915203,29.124286 c 0,0.905035 0.603357,1.88549 2.715104,1.206712" />
    <path
       inkscape:connector-curvature="0"
       id="path4666"
       style="fill:none;stroke:#eaeae7;stroke-width:0.23000111;stroke-linecap:round;stroke-linejoin:miter;stroke-miterlimit:4;stroke-dasharray:none;stroke-opacity:1"
       d="m 12.39336,32.40635 c 0,-0.684439 0.108397,-1.354804 0.709138,-1.885718" />
    <path
       inkscape:connector-curvature="0"
       id="path4668"
       style="fill:#0fa8bf;fill-opacity:1;fill-rule:evenodd;stroke:none"
       d="m 10.029714,37.345018 c 0.150839,2.941363 0.377098,3.846399 1.432972,3.770979 1.055874,-0.07542 1.73465,-1.734651 1.810069,-5.505628 0.01365,-0.682818 -1.131293,-1.430455 -1.131293,-1.430455 -0.754825,0.604615 1.726037,1.109542 0.0802,2.751476 -0.663127,0.661554 -2.191953,0.413628 -2.191953,0.413628 z" />
    <path
       inkscape:connector-curvature="0"
       id="path4672"
       style="fill:none;stroke:#000000;stroke-width:0.47916898;stroke-linecap:round;stroke-linejoin:miter;stroke-miterlimit:4;stroke-dasharray:none;stroke-opacity:1"
       d="m 10.255973,20.978971 c 1.885489,0.603358 3.39388,-0.301677 3.39388,-0.301677" />
    <path
       inkscape:connector-curvature="0"
       id="path4674"
       style="fill:#fefefe;fill-opacity:1;fill-rule:evenodd;stroke:none"
       d="m 10.87932,24.402683 c 0.01689,0.780797 -0.04182,1.325064 0.407559,1.300059 0.333319,-0.01855 0.339437,-0.311615 0.339551,-1.271391 9.8e-5,-0.832305 0.02434,-1.593367 -0.33122,-1.589009 -0.504894,0.006 -0.426897,1.051552 -0.41589,1.560341 z" />
    <path
       inkscape:connector-curvature="0"
       id="path4676"
       style="fill:#fefefe;fill-opacity:1;fill-rule:evenodd;stroke:none"
       d="m 10.877707,27.040706 c 0,0.237557 0.187544,0.337582 0.400095,0.325078 0.212551,-0.0125 0.316994,-0.15192 0.300072,-0.350083 -0.0161,-0.188519 -0.112527,-0.350083 -0.300072,-0.350083 -0.187544,0 -0.425101,0.08752 -0.400095,0.375088 z" />
    <path
       inkscape:connector-curvature="0"
       id="path4680"
       style="fill:none;stroke:#000000;stroke-width:0.38333517;stroke-linecap:round;stroke-linejoin:miter;stroke-opacity:1"
       d="m 23.030602,38.178799 c 1.211887,1.048188 2.749156,1.255921 2.749156,1.255921" />
    <path
       inkscape:connector-curvature="0"
       id="path4683"
       style="fill:#050504;fill-opacity:1;fill-rule:evenodd;stroke:none"
       d="m 41.765462,50.028231 c 0.360662,0.581784 1.513254,0 1.602268,-0.593431 0.07495,-0.499701 -0.206522,-1.073878 -0.74179,-1.127523 -0.60217,-0.06035 -1.216447,1.146741 -0.860478,1.720954 z" />
    <path
       inkscape:connector-curvature="0"
       id="path4685"
       style="fill:#050504;fill-opacity:1;fill-rule:evenodd;stroke:none"
       d="m 42.269881,58.662678 c -0.295592,-0.02368 -0.860478,0.50442 -0.86048,1.157192 0,0.478445 0.178032,1.038512 0.474749,1.097852 0.296717,0.05935 0.827126,-0.482356 0.949492,-1.216537 0.122361,-0.734181 -0.171492,-1.007087 -0.563761,-1.038507 z" />
    <path
       inkscape:connector-curvature="0"
       id="path4687"
       style="fill:#fefefe;fill-opacity:1;fill-rule:evenodd;stroke:#000000;stroke-width:0.51750249;stroke-linecap:butt;stroke-linejoin:miter;stroke-miterlimit:4;stroke-dasharray:none;stroke-opacity:1"
       d="m 24.437225,35.815518 c 0,0 -0.466402,1.168592 -0.03205,1.284978 0.507867,0.136082 1.634313,0.198602 2.13873,0.524991 0.504418,0.326389 1.097851,1.275881 1.839641,1.275881 0.741792,0 1.898985,-0.771464 2.492418,-0.771464 0.593434,0 1.542926,0.563762 2.047344,0.53409 0.504417,-0.02967 2.937492,-2.16603 3.590267,-2.255044 0.652776,-0.08901 1.364896,0.593434 2.16603,0.474747 0.801134,-0.118688 3.382566,-3.174866 3.471581,-3.857314 0.08902,-0.682447 0.08902,-4.094687 -0.08901,-4.510088 -0.17803,-0.415403 -1.542925,-1.7803 -1.928656,-1.720956 -0.385731,0.05934 -2.106686,2.136357 -2.225373,2.640777 -0.118685,0.504417 -0.385731,1.691282 -0.623103,1.809968 -0.237374,0.118687 -2.106688,1.988002 -2.492418,1.958329 -0.385731,-0.02967 -1.275882,-0.207702 -1.631941,-0.02967 -0.356061,0.17803 -1.305551,1.513254 -1.83964,1.542926 -0.53409,0.02967 -2.13636,0.326387 -2.462747,0.148356 -0.326389,-0.178028 -3.277728,-1.195963 -3.84149,-1.255307 -0.563761,-0.05934 -0.579585,2.204802 -0.579585,2.204802 z" />
    <path
       inkscape:connector-curvature="0"
       id="path4689"
       style="fill:none;stroke:#000000;stroke-width:0.47916898;stroke-linecap:butt;stroke-linejoin:miter;stroke-miterlimit:4;stroke-dasharray:none;stroke-opacity:1"
       d="m 38.11585,29.080055 c 0,0 1.809971,1.809971 2.225374,2.373732 0.415403,0.563759 1.305551,2.255044 1.305551,2.255044" />
    <path
       inkscape:connector-curvature="0"
       id="path4691"
       style="fill:none;stroke:#000000;stroke-width:0.47916898;stroke-linecap:butt;stroke-linejoin:miter;stroke-miterlimit:4;stroke-dasharray:none;stroke-opacity:1"
       d="m 36.928985,31.572473 c 0,0 1.394568,2.195702 1.483582,2.522089 0.08901,0.326389 0.91982,2.403402 0.91982,2.403402" />
    <path
       inkscape:connector-curvature="0"
       id="path4693"
       style="fill:none;stroke:#000000;stroke-width:0.47916898;stroke-linecap:butt;stroke-linejoin:miter;stroke-miterlimit:4;stroke-dasharray:none;stroke-opacity:1"
       d="m 34.792626,33.145071 1.038508,3.708954" />
    <path
       inkscape:connector-curvature="0"
       id="path4695"
       style="fill:none;stroke:#000000;stroke-width:0.47916898;stroke-linecap:butt;stroke-linejoin:miter;stroke-miterlimit:4;stroke-dasharray:none;stroke-opacity:1"
       d="m 32.062836,34.183578 0.504418,4.391402" />
    <path
       inkscape:connector-curvature="0"
       id="path4697"
       style="fill:none;stroke:#000000;stroke-width:0.47916898;stroke-linecap:butt;stroke-linejoin:miter;stroke-miterlimit:4;stroke-dasharray:none;stroke-opacity:1"
       d="m 29.689106,35.014382 -0.385731,3.619942" />
    <path
       inkscape:connector-curvature="0"
       id="path4699"
       style="fill:none;stroke:#000000;stroke-width:0.47916898;stroke-linecap:butt;stroke-linejoin:miter;stroke-miterlimit:4;stroke-dasharray:none;stroke-opacity:1"
       d="m 27.730777,34.331935 -1.246209,3.204538" />
    <path
       inkscape:connector-curvature="0"
       id="path7382"
       style="fill:#d6d6d6;fill-opacity:1;fill-rule:evenodd;stroke:none;stroke-width:1.00000012px;stroke-linecap:butt;stroke-linejoin:miter;stroke-opacity:1"
       d="m 26.331395,20.12657 c 1.13798,-0.711236 -4.201001,-0.600144 -6.301499,1.200287 -1.074006,0.920576 1.800429,-6.401524 4.100977,-7.201713 2.300545,-0.800189 -4.701117,1.400333 -5.101214,1.900453 -0.400095,0.500118 3.500832,-5.601336 6.201476,-6.001432 2.687923,-0.3982126 -5.601334,-0.4000949 -5.601334,-0.4000949 0,0 3.500832,-3.7008789 7.201714,-4.1009752 3.700881,-0.4000927 -5.201237,-0.8001873 -5.201237,-0.8001873 1.200286,-1.2002856 7.601807,-3.4008116 11.502736,0.2000473 0,0 3.417156,-2.9108 5.801381,-2.500595 0,0 -2.400573,1.9004512 -2.60062,3.0007113 0,0 5.401285,-2.4005675 7.401763,-0.5001182 0,0 -1.300313,1.9e-6 -2.200526,1.400335 5.311027,-0.9618418 9.702307,1.5003528 11.002618,4.000949 0,0 -3.600858,-0.100023 -3.600858,-0.100023 1.400333,0.700169 4.801144,3.500835 3.900929,6.00143 0,0 -3.344196,-1.50413 -3.344196,-1.50413 0,0 2.225362,3.907975 1.743814,5.705129 -0.126336,0.471498 -2.800664,-1.80043 -2.800664,-1.80043 0,0 0.866102,2.977202 0.200047,2.800667 -0.300071,-0.500117 -1.800429,-1.400331 -1.800429,-1.400331 0,0 0.45058,2.138124 -0.149564,2.23815 -0.600142,0.100021 -1.007608,0.0312 -0.507488,0.631341 0.09711,0.116536 -1.479624,1.454222 -2.760515,1.403419 -0.65113,-0.02582 0.798832,-5.228504 -0.04456,-5.326183 -2.451434,-0.283923 -8.100299,3.179324 -10.403287,3.578359 -4.706491,0.815492 -7.648182,-1.794617 -6.639465,-2.425065 z" />
    <path
       inkscape:connector-curvature="0"
       id="path4703"
       style="fill:#fefefe;fill-opacity:1;fill-rule:evenodd;stroke:#000000;stroke-width:0.49833569;stroke-linecap:butt;stroke-linejoin:miter;stroke-miterlimit:4;stroke-dasharray:none;stroke-opacity:1"
       d="m 34.139641,22.794729 c 1.202032,-0.858594 3.777814,-2.575783 5.237424,-2.747501 1.45961,-0.171719 2.640834,1.510313 2.146486,3.949532 -0.314464,1.551624 -4.121252,4.292971 -6.611175,3.00508 -2.489923,-1.287892 -1.842432,-3.614763 -0.772735,-4.207111 z" />
    <path
       inkscape:connector-curvature="0"
       id="path24956"
       style="fill:none;fill-opacity:1;fill-rule:evenodd;stroke:#020202;stroke-width:1.15000558;stroke-linecap:butt;stroke-linejoin:round;stroke-miterlimit:4;stroke-dasharray:none;stroke-opacity:1"
       d="m 24.698803,19.754655 c -1.407579,0.190655 -3.683749,0.727763 -4.668916,1.572191 -1.074007,0.920578 1.800429,-6.401524 4.100977,-7.201716 -0.88732,-0.109484 -4.309742,1.63516 -5.492592,2.761483 0.0058,-1.358675 3.505275,-6.617139 7.289343,-6.9398475 2.707433,-0.2308924 -6.297823,-0.3227068 -6.297823,-0.3227068 0,-1.2524059 3.500833,-3.7008809 7.201715,-4.1009773 3.700881,-0.4000945 -5.201238,-0.8001891 -5.201238,-0.8001891 1.200285,-1.2002857 7.60181,-3.4008117 11.502739,0.2000472 0,0 3.41716,-2.9108019 5.801382,-2.5005968 0,0 -2.400572,1.9004531 -2.600619,3.0007151 0,0 4.279828,-2.2264624 8.237193,-0.6391117 0,0 -2.135741,0.1389934 -3.035956,1.5393265 4.997926,-1.196667 9.858861,1.4220812 11.472276,4.6271544 0,0 -4.534837,-0.648837 -4.534837,-0.648837 1.477721,0.468005 5.265469,3.423446 4.365254,5.924041 0,0 -3.72213,-1.668581 -3.72213,-1.668581 0,0 2.992007,3.926534 2.278298,6.652337 -1.222193,-1.720213 -2.957216,-2.679019 -2.957216,-2.679019 0,0 0.866102,3.073037 0.200047,2.896502 -0.300071,-0.500118 -1.704595,-1.496167 -1.704595,-1.496167 0,0 0.126924,1.704929 -0.47322,1.804953 0,0 -0.119217,0.91744 -0.274953,1.835905" />
    <path
       inkscape:connector-curvature="0"
       id="path4707"
       style="display:inline;overflow:visible;visibility:visible;fill:none;stroke:#000000;stroke-width:0.53666925;stroke-linecap:round;stroke-linejoin:miter;stroke-miterlimit:4;stroke-dasharray:none;stroke-dashoffset:0;stroke-opacity:1;marker:none;marker-start:none;marker-mid:none;marker-end:none"
       d="m 41.437691,26.229105 c 1.45961,0.08586 2.318204,3.176798 2.318204,4.035392 0,0.858594 -0.308002,2.560795 -0.308002,2.560795" />
    <path
       inkscape:connector-curvature="0"
       id="path4711"
       style="fill:#e2b28a;fill-opacity:1;fill-rule:evenodd;stroke:none"
       d="m 44.099333,28.46145 c 0,0 0.948925,0.651129 1.545469,-1.015353 0.596544,-1.666483 -0.515157,-2.247305 -1.116172,-1.989727 -0.601016,0.257578 -1.373751,0.429297 -0.858594,1.373751 0.515156,0.944454 0.515156,1.974767 0.429297,1.631329 z" />
    <path
       inkscape:connector-curvature="0"
       id="path4709"
       style="fill:none;stroke:#000000;stroke-width:0.47916898;stroke-linecap:round;stroke-linejoin:miter;stroke-miterlimit:4;stroke-dasharray:none;stroke-opacity:1"
       d="m 43.670036,29.062465 c 0.429297,-1.202031 0.343437,-1.974766 -0.08586,-2.318204 -0.429297,-0.343437 0.515157,-1.459609 1.202032,-1.37375 0.686875,0.08586 1.030313,0.858594 1.030313,0.858594" />
    <path
       inkscape:connector-curvature="0"
       id="path4705"
       style="display:inline;overflow:visible;visibility:visible;fill:#fefefe;fill-opacity:1;fill-rule:evenodd;stroke:#000000;stroke-width:0.49833569;stroke-linecap:butt;stroke-linejoin:miter;stroke-miterlimit:4;stroke-dasharray:none;stroke-dashoffset:0;stroke-opacity:1;marker:none;marker-start:none;marker-mid:none;marker-end:none"
       d="m 25.038542,26.253184 c 3.262657,1.803048 5.097939,1.203059 6.782895,-1.140251 1.38945,-1.932345 -0.446321,-2.867656 -0.446321,-2.867656 l -0.0363,-0.02413 c -3.794347,-3.268976 -4.961839,-2.743605 -6.479578,-0.175123 -1.517738,2.568479 0.179306,4.207161 0.179306,4.207161 z" />
    <path
       inkscape:connector-curvature="0"
       id="path32222"
       style="fill:#d6d6d6;fill-opacity:1;fill-rule:evenodd;stroke:none;stroke-width:1.00000012px;stroke-linecap:butt;stroke-linejoin:miter;stroke-opacity:1"
       d="m 37.818451,2.9521224 c -1.760998,0.3744533 -3.293259,1.450502 -4.658065,2.574662 -2.636117,-2.6504291 -6.975536,-2.505333 -10.162513,-1.018027 1.672013,0.1806764 3.449736,0.030373 5.048704,0.5682005 0.608088,0.7572661 -0.71955,0.9399572 -1.219265,0.9351653 -2.321767,0.3546849 -4.551493,1.514731 -6.254736,3.0263458 1.761956,0.1044904 3.816615,0.1121131 5.526729,0.554505 0.595894,0.763096 -0.618558,0.826938 -1.118647,0.964758 -1.944741,0.889781 -3.47388,2.897394 -4.610715,4.468665 1.559755,-0.600713 3.143323,-1.105241 4.73501,-1.609903 0.378673,1.115131 -0.967477,0.89222 -1.444178,1.556634 -1.483863,1.51209 -2.4627,3.573058 -3.16062,5.587311 1.819253,-0.984758 4.038621,-1.523972 6.102245,-1.171915 0.541115,0.146118 1.08181,-0.240107 0.706348,-0.03023 0.830814,1.358561 2.698122,1.657465 4.166808,1.793385 3.300753,0.242384 5.34922,-0.846471 8.3316,-1.85194 1.204146,-0.368004 2.560485,-1.074841 3.823519,-0.651064 0.699008,0.98604 0.06939,2.358286 0.05919,3.456557 0.02835,0.488405 -0.341566,1.379107 -0.03551,1.669091 0.597103,-0.133928 1.626853,-2.235057 1.835675,-2.775282 -0.249667,-0.869898 0.822384,0.663145 1.259769,0.524633 0.0097,-0.93689 -0.442393,-1.538871 -0.704265,-2.442929 0.743032,0.399176 1.610146,1.260864 2.166515,1.583083 -0.131414,-1.040912 -0.34031,-2.168368 -0.621718,-3.187068 1.021277,0.847567 2.111207,1.65576 3.246252,2.346977 -0.06451,-2.198544 -1.372776,-4.061954 -2.40579,-5.939665 1.314943,0.583216 2.661933,1.226781 3.959651,1.763791 0.08893,-2.191489 -1.846397,-3.795351 -3.521664,-4.912572 C 47.677825,10.175435 47.04495,9.694725 48.79776,9.8829892 49.53512,9.7662668 51.381025,10.218443 51.52039,9.7942082 48.920482,6.7566495 44.485372,6.056576 40.70089,6.9236103 41.116753,6.0773632 41.87218,5.2236501 42.648166,4.8638815 40.300686,4.2835192 37.95631,5.2900846 35.800155,6.1364165 35.875097,4.7740024 37.062357,3.7317629 37.818451,2.9521224 Z" />
    <path
       inkscape:connector-curvature="0"
       id="path4715"
       style="fill:#d6d6d6;fill-opacity:1;fill-rule:evenodd;stroke:#000000;stroke-width:0.44083542;stroke-linecap:round;stroke-linejoin:round;stroke-miterlimit:4;stroke-dasharray:none;stroke-opacity:1"
       d="m 25.510768,18.888126 c 0,0 -1.389195,0.288467 -0.874038,-0.14083 0.515156,-0.429297 1.088687,-0.588976 1.517984,-0.588976 0.429297,0 -0.858029,-0.855134 -1.373751,-0.772734 -0.523819,0.08369 1.65464,-0.487863 2.575783,-0.300508 0.511783,0.104094 -0.429298,-0.815665 -1.030313,-0.987384 1.601613,0.292017 3.691956,0.686876 4.550551,2.661642 0.858594,1.974767 1.116172,0.772735 1.116172,0.772735 0,0 -0.867428,2.284645 -0.07905,3.032565 0.53255,0.50522 -2.804346,-2.492544 -6.082145,-2.840449 -0.227534,-0.02415 -0.530135,-0.246567 -0.726828,-0.239598 -0.853297,0.03023 0.588247,-0.582416 0.405635,-0.596463 z" />
    <path
       inkscape:connector-curvature="0"
       id="path4717"
       style="fill:#d6d6d6;fill-opacity:1;fill-rule:evenodd;stroke:#000000;stroke-width:0.44083542;stroke-linecap:round;stroke-linejoin:round;stroke-miterlimit:4;stroke-dasharray:none;stroke-opacity:1"
       d="m 31.982942,22.674574 c 1.975345,0.602528 2.14375,-0.623278 4.210515,-3.544315 2.792135,-3.946229 7.047282,-2.946705 7.047282,-2.946705 l -1.717188,0.686875 c 0,0 2.962149,-0.171718 3.391446,0.901524 -0.472227,0.300508 -2.404063,0.257578 -1.803048,0.429297 0.601017,0.171719 1.760119,0.987383 1.416681,1.41668 -0.429297,0 -1.287891,-0.257578 -1.287891,-0.257578 l 0.429297,1.202032 c 0,0 -4.529874,-1.768753 -10.282455,2.352499" />
    <path
       inkscape:connector-curvature="0"
       id="path4721"
       style="fill:#ebc09f;fill-opacity:1;fill-rule:evenodd;stroke:#e2b28a;stroke-width:0.38333517;stroke-linecap:round;stroke-linejoin:miter;stroke-opacity:1"
       d="m 34.76253,27.647894 c 0,0 1.597108,0.970127 2.561683,0.302344" />
    <path
       inkscape:connector-curvature="0"
       id="path4701"
       style="fill:#f2d6c6;fill-opacity:1;fill-rule:evenodd;stroke:#000000;stroke-width:0.57500279;stroke-linecap:round;stroke-linejoin:miter;stroke-miterlimit:4;stroke-dasharray:none;stroke-opacity:1"
       d="m 33.528164,22.729544 c 0,0 -4.523585,4.047169 -5.536107,5.718847 -0.621511,1.026116 -1.236327,3.361576 -1.064609,3.876732 0.171719,0.515157 5.237426,-2.91922 6.782896,-3.005079 1.54547,-0.08586 0.717534,-3.165973 -0.04856,-3.06491 -1.15298,0.152097 -2.613079,0.918425 -2.956516,2.120456" />
    <path
       inkscape:connector-curvature="0"
       id="path4719"
       style="fill:none;stroke:#000000;stroke-width:0.44083542;stroke-linecap:round;stroke-linejoin:miter;stroke-miterlimit:4;stroke-dasharray:none;stroke-opacity:1"
       d="m 38.511383,24.314532 c 0,0 -1.620808,-0.939026 -0.408089,-2.151745 1.354243,-1.354243 2.114646,0.445189 1.558158,1.075872 -0.312413,0.354068 -1.150069,0.296792 -1.150069,-0.111297 0,-0.408089 0.593585,-1.001674 0.704881,-0.148395" />
    <path
       inkscape:connector-curvature="0"
       id="path4723"
       style="display:inline;overflow:visible;visibility:visible;fill:none;stroke:#000000;stroke-width:0.47916898;stroke-linecap:round;stroke-linejoin:miter;stroke-miterlimit:4;stroke-dasharray:none;stroke-dashoffset:0;stroke-opacity:1;marker:none;marker-start:none;marker-mid:none;marker-end:none"
       d="m 26.693265,22.141728 c 0,0 0.05648,0.293664 0.423954,0.195672 0.489178,-0.130447 0.423953,-0.71746 0.09783,-0.71746 -0.293504,0 -0.456563,0.09783 -0.521788,0.521788 z" />
    <path
       inkscape:connector-curvature="0"
       id="path4725"
       style="fill:none;stroke:#a8a8a8;stroke-width:0.38333517;stroke-linecap:round;stroke-linejoin:miter;stroke-opacity:1"
       d="M 32.352941,17.785099 C 32.130347,16.375336 30.572188,15.225266 30.015702,15.225266" />
    <path
       inkscape:connector-curvature="0"
       id="path4727"
       style="fill:none;stroke:#a8a8a8;stroke-width:0.38333517;stroke-linecap:round;stroke-linejoin:miter;stroke-opacity:1"
       d="m 32.946526,17.41411 c 0.0742,-1.261368 -1.335565,-2.819528 -1.55816,-2.856627" />
    <path
       inkscape:connector-curvature="0"
       id="path4729"
       style="fill:none;stroke:#a8a8a8;stroke-width:0.38333517;stroke-linecap:round;stroke-linejoin:miter;stroke-opacity:1"
       d="m 33.57721,17.265713 c -0.37099,-1.521061 0.81618,-4.26639 1.632358,-4.822876" />
    <path
       inkscape:connector-curvature="0"
       id="path4731"
       style="fill:none;stroke:#a8a8a8;stroke-width:0.38333517;stroke-linecap:round;stroke-linejoin:miter;stroke-opacity:1"
       d="m 34.244993,17.191515 c 0.0371,-0.816179 1.521061,-3.005022 2.485635,-3.376012" />
    <path
       inkscape:connector-curvature="0"
       id="path4733"
       style="fill:none;stroke:#a8a8a8;stroke-width:0.38333517;stroke-linecap:round;stroke-linejoin:miter;stroke-opacity:1"
       d="m 34.838578,17.228614 c 0.74198,-1.224269 2.70823,-2.188844 3.895398,-1.966249" />
    <path
       inkscape:connector-curvature="0"
       id="path4735"
       style="fill:none;stroke:#0fa8bf;stroke-width:0.38333517;stroke-linecap:butt;stroke-linejoin:miter;stroke-opacity:1"
       d="m 9.8759105,17.288782 c -0.048371,0.385685 0.1293775,0.867309 0.6487635,0.867309 0.639724,0 0.995648,-0.439162 0.975592,-0.893391 -0.01473,-0.333567 -0.36314,-0.644714 -0.805163,-0.644714 -0.462,0 -0.7728123,0.300966 -0.8191925,0.670796 z" />
    <path
       inkscape:connector-curvature="0"
       id="path4737"
       style="fill:none;stroke:#0fa8bf;stroke-width:0.38333517;stroke-linecap:butt;stroke-linejoin:miter;stroke-opacity:1"
       d="m 13.061439,16.264039 c -0.372113,0.194587 -0.593585,0.519386 -0.445189,0.81618 0.148397,0.296792 0.667783,0.482288 1.038774,0.148395 0.37099,-0.333891 0.04859,-1.300383 -0.593585,-0.964575 z" />
    <path
       inkscape:connector-curvature="0"
       id="path4739"
       style="fill:none;stroke:#0fa8bf;stroke-width:0.38333517;stroke-linecap:butt;stroke-linejoin:miter;stroke-opacity:1"
       d="m 10.31611,14.112294 c 0,0.794633 0.77908,1.18717 1.335565,1.112972 0.556486,-0.0742 1.112972,-0.407282 1.112972,-1.261367 0,-0.593584 -0.667783,-1.298467 -1.521061,-1.224269 -0.666299,0.05794 -0.927476,0.670791 -0.927476,1.372664 z" />
    <path
       inkscape:connector-curvature="0"
       id="path4741"
       style="fill:none;stroke:#0fa8bf;stroke-width:0.38333517;stroke-linecap:butt;stroke-linejoin:miter;stroke-opacity:1"
       d="m 13.766321,12.813829 c 0.01699,0.554828 0.296792,1.07587 0.927476,1.15007 0.553901,0.06517 1.372664,-0.333892 1.372664,-1.112971 0,-0.741982 -0.745474,-1.008978 -1.187169,-1.075872 -0.752897,-0.114027 -1.125891,0.61678 -1.112971,1.038773 z" />
    <path
       inkscape:connector-curvature="0"
       id="path4743"
       style="fill:none;stroke:#0fa8bf;stroke-width:0.38333517;stroke-linecap:butt;stroke-linejoin:miter;stroke-opacity:1"
       d="m 12.319458,10.550787 c 0.477468,-0.03012 1.001674,-0.222596 1.038773,-0.964575 0.0371,-0.7419819 -0.927476,-1.038773 -1.224268,-0.8903767 -0.296792,0.1483948 -0.741981,0.6306823 -0.704882,1.1129699 0.0371,0.4822868 0.397529,0.7730638 0.890377,0.7419818 z" />
    <path
       inkscape:connector-curvature="0"
       id="path4745"
       style="fill:none;stroke:#0fa8bf;stroke-width:0.38333517;stroke-linecap:butt;stroke-linejoin:miter;stroke-opacity:1"
       d="m 12.987241,6.6553864 c 0.296792,0.037098 1.075872,-0.1020861 1.075872,-0.7790787 0,-0.4467313 -0.406665,-0.9645749 -0.890377,-0.9645749 -0.482287,0 -0.927476,0.5193865 -0.964575,1.0016741 -0.0371,0.4822871 0.482288,0.8161779 0.77908,0.7419795 z" />
    <path
       inkscape:connector-curvature="0"
       id="path4759"
       style="fill:#c6c2a3;fill-opacity:1;fill-rule:evenodd;stroke:none"
       d="m 22.573465,49.834599 c 0.247287,0.123643 1.330265,-1.96447 1.082979,-2.129329 0,0 -0.995872,-0.399926 -1.572874,-0.935714 l -1.570455,1.808783 c 0,0 0.711405,0.808467 2.06035,1.25626 z" />
    <path
       inkscape:connector-curvature="0"
       id="path4761"
       style="fill:#5c3f58;fill-opacity:1;fill-rule:evenodd;stroke:none"
       d="m 58.082476,36.950905 c -0.346194,1.234311 -0.84486,1.871932 -0.84486,1.871932 -0.08243,0.206073 1.991986,0.533274 2.074417,0.244772 0,0 0.451899,-0.889914 0.524026,-1.637918 0,0 -1.549578,-0.410786 -1.753583,-0.478786 z" />
    <path
       inkscape:connector-curvature="0"
       id="path9130"
       style="fill:none;fill-opacity:1;fill-rule:evenodd;stroke:#020202;stroke-width:1.24583936;stroke-linecap:butt;stroke-linejoin:round;stroke-miterlimit:4;stroke-dasharray:none;stroke-opacity:1"
       d="m 34.919987,43.018701 c 0,0 -1.887004,-2.087186 -4.387599,-0.286756 -2.500595,1.800429 -5.301263,2.1005 -6.101454,0.600142 -0.800189,-1.500357 0.923915,-3.65564 -0.200045,-3.848854 -0.976264,-0.167826 -2.200526,-1.052312 -1.600382,-2.352622 0.600142,-1.300311 1.64331,-0.914724 2.000477,-2.200524 0.500118,-1.800429 -2.200524,-2.1005 -2.000477,-3.600859 0.112948,-0.847108 1.400333,-0.200047 1.900453,-1.200285 0.500118,-1.000239 1.158345,-3.249964 0.300071,-4.000954 -0.80019,-0.700168 -1.666885,-4.50107 0.733686,-6.001429 0.604249,-0.377655 0.149025,-0.45917 -1.444533,-0.243323 m 21.715849,3.410005 c 1.568935,0.466542 2.966644,5.032674 -0.05341,5.885311 0,0 0.546409,1.450509 0.546409,1.450509 -0.725091,2.493477 -2.493476,1.178921 -2.493476,1.178921 -0.553977,0.830963 -0.486368,5.136218 -3.628101,7.554049" />
    <path
       inkscape:connector-curvature="0"
       id="path4713"
       style="display:inline;overflow:visible;visibility:visible;fill:none;stroke:#000000;stroke-width:0.47916898;stroke-linecap:round;stroke-linejoin:miter;stroke-miterlimit:4;stroke-dasharray:none;stroke-dashoffset:0;stroke-opacity:1;marker:none;marker-start:none;marker-mid:none;marker-end:none"
       d="m 43.06902,23.309885 c 0,0 0,0.944454 -0.343438,1.45961 -0.343437,0.515157 1.707756,-1.65058 3.282103,-1.049371" />
    <path
       inkscape:connector-curvature="0"
       id="path15243"
       style="fill:#5c3f58;fill-opacity:1;fill-rule:evenodd;stroke:none"
       d="m 22.573465,49.834599 c 0.247287,0.123643 1.330265,-1.96447 1.082979,-2.129329 0,0 -0.995872,-0.399926 -1.572874,-0.935714 l -1.570455,1.808783 c 0,0 0.711405,0.808467 2.06035,1.25626 z" />
    <path
       inkscape:connector-curvature="0"
       id="path21364"
       style="fill:none;stroke:#000000;stroke-width:0.76667035;stroke-linecap:butt;stroke-linejoin:miter;stroke-opacity:1"
       d="m 45.836514,62.565078 c 0,0 2.375988,-10.169142 1.593233,-14.317737" />
    <path
       inkscape:connector-curvature="0"
       id="path21366"
       style="fill:none;stroke:#000000;stroke-width:1.15000558;stroke-linecap:butt;stroke-linejoin:miter;stroke-opacity:1"
       d="M 33.833295,62.583165 C 34.137799,55.275072 33.021928,54.726119 33.279979,49.858414" />
    <path
       inkscape:connector-curvature="0"
       id="path23994"
       style="display:inline;overflow:visible;visibility:visible;fill:none;stroke:#000000;stroke-width:0.47916898;stroke-linecap:round;stroke-linejoin:round;stroke-miterlimit:4;stroke-dasharray:none;stroke-dashoffset:0;stroke-opacity:1;marker:none;marker-start:none;marker-mid:none;marker-end:none"
       d="m 39.837355,39.151157 c -1.158771,0.955795 -1.997978,0.340709 -0.294436,2.998235" />
    <path
       inkscape:connector-curvature="0"
       id="path23996"
       style="display:inline;overflow:visible;visibility:visible;fill:none;stroke:#000000;stroke-width:0.47916898;stroke-linecap:round;stroke-linejoin:round;stroke-miterlimit:4;stroke-dasharray:none;stroke-dashoffset:0;stroke-opacity:1;marker:none;marker-start:none;marker-mid:none;marker-end:none"
       d="m 36.726519,43.148201 c -0.582075,-0.774326 -0.822018,-1.543942 -3.75178,-1.4758" />
    <path
       inkscape:connector-curvature="0"
       id="path32210"
       style="fill:none;stroke:#000000;stroke-width:0.76667035;stroke-linecap:butt;stroke-linejoin:miter;stroke-opacity:1"
       d="m 23.700167,47.072761 c 0,0 4.983357,1.341673 9.008376,-1.341673" />
    <path
       inkscape:connector-curvature="0"
       id="path32212"
       style="fill:none;stroke:#000000;stroke-width:0.76667035;stroke-linecap:butt;stroke-linejoin:miter;stroke-opacity:1"
       d="m 57.43366,36.147709 c 0,0 -2.30001,5.175025 -5.750026,6.708366" />
    <path
       inkscape:connector-curvature="0"
       id="path32214"
       style="fill:none;stroke:#000000;stroke-width:0.76667035;stroke-linecap:butt;stroke-linejoin:miter;stroke-opacity:1"
       d="m 23.891835,30.589349 c 0,0 1.916676,-3.833351 0.958338,-4.79169 -0.958338,-0.958338 -1.341673,-4.408354 0,-5.750027" />
    <path
       inkscape:connector-curvature="0"
       id="path32216"
       style="fill:none;stroke:#000000;stroke-width:1.53334069;stroke-linecap:butt;stroke-linejoin:miter;stroke-opacity:1"
       d="m 46.791197,23.877708 0.190011,-2.361385" />
    <path
       inkscape:connector-curvature="0"
       id="path32218"
       style="fill:none;stroke:#000000;stroke-width:0.76667035;stroke-linecap:butt;stroke-linejoin:miter;stroke-opacity:1"
       d="m 18.71681,17.133526 c 0,0 2.577356,-1.651338 4.110697,-2.418009" />
    <path
       inkscape:connector-curvature="0"
       id="path32220"
       style="fill:none;stroke:#000000;stroke-width:0.76667035;stroke-linecap:butt;stroke-linejoin:miter;stroke-opacity:1"
       d="m 42.771092,5.4808954 c 0,0 4.600022,-0.2875014 6.995867,2.0125098" />
  </g>
  <flowRoot
     xml:space="preserve"
     id="flowRoot4220"
     style="font-style:normal;font-weight:normal;font-size:11.25px;line-height:125%;font-family:Sans;letter-spacing:0px;word-spacing:0px;fill:#000000;fill-opacity:1;stroke:none;stroke-width:1px;stroke-linecap:butt;stroke-linejoin:miter;stroke-opacity:1"
     transform="matrix(0.5,0,0,0.5,-18.831938,-67.172437)"><flowRegion
       id="flowRegion4222"><rect
         id="rect4224"
         width="492.69843"
         height="367.40741"
         x="67.724869"
         y="296.2963" /></flowRegion><flowPara
       id="flowPara4226" /></flowRoot>  <flowRoot
     xml:space="preserve"
     id="flowRoot4232"
     style="font-style:normal;font-weight:normal;font-size:11.25px;line-height:125%;font-family:Sans;letter-spacing:0px;word-spacing:0px;fill:#000000;fill-opacity:1;stroke:none;stroke-width:1px;stroke-linecap:butt;stroke-linejoin:miter;stroke-opacity:1"
     transform="matrix(0.5,0,0,0.5,-18.831938,-67.172437)"><flowRegion
       id="flowRegion4234"><rect
         id="rect4236"
         width="27.536011"
         height="74.826111"
         x="14.965223"
         y="398.76062" /></flowRegion><flowPara
       id="flowPara4238"></flowPara></flowRoot>  <flowRoot
     xml:space="preserve"
     id="flowRoot4240"
     style="font-style:normal;font-weight:normal;font-size:11.25px;line-height:125%;font-family:Sans;letter-spacing:0px;word-spacing:0px;fill:#000000;fill-opacity:1;stroke:none;stroke-width:1px;stroke-linecap:butt;stroke-linejoin:miter;stroke-opacity:1"
     transform="matrix(0.5,0,0,0.5,-18.831938,-67.172437)"><flowRegion
       id="flowRegion4242"><rect
         id="rect4244"
         width="25.740183"
         height="36.515144"
         x="885.94122"
         y="401.15503" /></flowRegion><flowPara
       id="flowPara4246"></flowPara></flowRoot>  <flowRoot
     xml:space="preserve"
     id="flowRoot4248"
     style="font-style:normal;font-weight:normal;font-size:5.625px;line-height:125%;font-family:Sans;letter-spacing:0px;word-spacing:0px;fill:#000000;fill-opacity:1;stroke:none;stroke-width:1px;stroke-linecap:butt;stroke-linejoin:miter;stroke-opacity:1"
     transform="translate(-8.5047672,0)"><flowRegion
       id="flowRegion4250"><rect
         id="rect4252"
         width="21.549921"
         height="9.5777426"
         x="393.13522"
         y="109.46072" /></flowRegion><flowPara
       id="flowPara4254"></flowPara></flowRoot>  <flowRoot
     xml:space="preserve"
     id="flowRoot4256"
     style="font-style:normal;font-weight:normal;font-size:11.25px;line-height:125%;font-family:Sans;letter-spacing:0px;word-spacing:0px;fill:#000000;fill-opacity:1;stroke:none;stroke-width:1px;stroke-linecap:butt;stroke-linejoin:miter;stroke-opacity:1"
     transform="matrix(0.5,0,0,0.5,-18.831938,-67.172437)"><flowRegion
       id="flowRegion4258"><rect
         id="rect4260"
         width="196.40211"
         height="187.93651"
         x="35.555557"
         y="420.74075" /></flowRegion><flowPara
       id="flowPara4262"></flowPara></flowRoot></svg>
