<?xml version="1.0" encoding="UTF-8" standalone="no"?>
<svg
   xmlns:dc="http://purl.org/dc/elements/1.1/"
   xmlns:cc="http://creativecommons.org/ns#"
   xmlns:rdf="http://www.w3.org/1999/02/22-rdf-syntax-ns#"
   xmlns:svg="http://www.w3.org/2000/svg"
   xmlns="http://www.w3.org/2000/svg"
   xmlns:sodipodi="http://sodipodi.sourceforge.net/DTD/sodipodi-0.dtd"
   xmlns:inkscape="http://www.inkscape.org/namespaces/inkscape"
   enable-background="new 0 0 648 432"
   version="1.1"
   viewBox="0 0 350 350"
   xml:space="preserve"
   id="svg4"
   sodipodi:docname="music-notes-white.svg"
   inkscape:version="0.92.2 (5c3e80d, 2017-08-06)"
   width="350"
   height="350"><metadata
     id="metadata10"><rdf:RDF><cc:Work
         rdf:about=""><dc:format>image/svg+xml</dc:format><dc:type
           rdf:resource="http://purl.org/dc/dcmitype/StillImage" /><dc:title></dc:title></cc:Work></rdf:RDF></metadata><defs
     id="defs8" /><sodipodi:namedview
     pagecolor="#ffffff"
     bordercolor="#666666"
     borderopacity="1"
     objecttolerance="10"
     gridtolerance="10"
     guidetolerance="10"
     inkscape:pageopacity="0"
     inkscape:pageshadow="2"
     inkscape:window-width="1188"
     inkscape:window-height="1146"
     id="namedview6"
     showgrid="false"
     inkscape:zoom="0.4382716"
     inkscape:cx="324"
     inkscape:cy="216"
     inkscape:window-x="1746"
     inkscape:window-y="73"
     inkscape:window-maximized="0"
     inkscape:current-layer="svg4"
     inkscape:pagecheckerboard="true" /><path
     d="m 287.43521,20.888733 c -45.1,9.9 -151.6,33.6 -155.9,34.6 -5.5,1.3 -17.3,2.4 -17.3,17.4 V 272.28873 c -12.4,-7 -31.299998,-7.9 -50.199998,-1.1 -28,10.1 -45.300001,33.2 -38.6,51.7 6.7,18.5 34.8,25.3 62.7,15.2 25.999998,-9.4 42.799998,-30 39.699998,-47.7 v -150.8 c 0,-8.3 -0.2,-19 21.4,-23.6 9.9,-2.1 144.6,-32.099997 144.6,-32.099997 V 223.28873 c -12.4,-7.2 -31.5,-8.2 -50.6,-1.3 -28,10.1 -45.3,33.2 -38.6,51.7 6.7,18.5 34.8,25.3 62.7,15.2 25.8,-9.3 42.4,-29.6 39.8,-47.2 h 0.3 V 49.788733 c 0,-23.8 16.8,-24.4 16.8,-24.4 v -13.1 z"
     id="path2"
     style="fill:#ffffff"
     inkscape:connector-curvature="0" /></svg>