<?xml version="1.0" encoding="UTF-8" standalone="no"?>
<svg
   xmlns:dc="http://purl.org/dc/elements/1.1/"
   xmlns:cc="http://creativecommons.org/ns#"
   xmlns:rdf="http://www.w3.org/1999/02/22-rdf-syntax-ns#"
   xmlns:svg="http://www.w3.org/2000/svg"
   xmlns="http://www.w3.org/2000/svg"
   xmlns:sodipodi="http://sodipodi.sourceforge.net/DTD/sodipodi-0.dtd"
   xmlns:inkscape="http://www.inkscape.org/namespaces/inkscape"
   viewBox="0 -256 1792 1792"
   id="svg2989"
   version="1.1"
   inkscape:version="0.92.2 (5c3e80d, 2017-08-06)"
   width="100%"
   height="100%"
   sodipodi:docname="Pause-font-awesome-bloom-blue.svg">
  <metadata
     id="metadata2999">
    <rdf:RDF>
      <cc:Work
         rdf:about="">
        <dc:format>image/svg+xml</dc:format>
        <dc:type
           rdf:resource="http://purl.org/dc/dcmitype/StillImage" />
        <dc:title></dc:title>
      </cc:Work>
    </rdf:RDF>
  </metadata>
  <defs
     id="defs2997" />
  <sodipodi:namedview
     pagecolor="#ffffff"
     bordercolor="#666666"
     borderopacity="1"
     objecttolerance="10"
     gridtolerance="10"
     guidetolerance="10"
     inkscape:pageopacity="0"
     inkscape:pageshadow="2"
     inkscape:window-width="1017"
     inkscape:window-height="1069"
     id="namedview2995"
     showgrid="false"
     inkscape:zoom="0.13169643"
     inkscape:cx="-337.89829"
     inkscape:cy="896.00002"
     inkscape:window-x="2686"
     inkscape:window-y="202"
     inkscape:window-maximized="0"
     inkscape:current-layer="g2991" />
  <g
     transform="matrix(1,0,0,-1,98.711864,1293.0169)"
     id="g2991">
    <path
       d="M 1536,1344 V -64 q 0,-26 -19,-45 -19,-19 -45,-19 H 960 q -26,0 -45,19 -19,19 -19,45 v 1408 q 0,26 19,45 19,19 45,19 h 512 q 26,0 45,-19 19,-19 19,-45 z m -896,0 V -64 q 0,-26 -19,-45 -19,-19 -45,-19 H 64 q -26,0 -45,19 -19,19 -19,45 v 1408 q 0,26 19,45 19,19 45,19 h 512 q 26,0 45,-19 19,-19 19,-45 z"
       id="path2993"
       inkscape:connector-curvature="0"
       style="fill:#1d94a4;fill-opacity:1" />
  </g>
</svg>
