<svg width="31" height="27" viewBox="0 0 31 27" fill="none" xmlns="http://www.w3.org/2000/svg">
<path d="M1.67083 26.3464L0.121887 26.2025L0.0609437 21.7499L0 17.2971H2.76782C5.0801 17.2971 5.8548 17.4024 7.4752 17.9368C12.7838 19.6878 17.998 19.6879 23.3036 17.9371C24.942 17.3965 25.6901 17.2971 28.1216 17.2971H31L30.9404 21.7498L30.8795 26.2025L29.3305 26.3595C27.4069 26.5545 3.79082 26.5433 1.67083 26.3464ZM11.186 17.3942C10.2123 17.1965 8.96766 16.8797 8.41999 16.6903C7.53372 16.3838 8.30027 16.3458 15.3903 16.3446C22.2653 16.3439 23.2311 16.3881 22.4402 16.671C19.4019 17.7573 14.5184 18.0711 11.186 17.3942ZM0.665902 15.3097C0.791174 15.0445 1.15651 14.5929 1.47801 14.3063C1.99187 13.8481 2.36617 13.7851 4.57742 13.7851C6.25004 13.7851 7.09227 13.8771 7.09227 14.0595C7.09227 14.2104 6.89997 14.3908 6.66502 14.4605C6.20593 14.5966 5.90594 15.1917 6.10885 15.5638C6.18164 15.6964 5.01944 15.792 3.33575 15.792C0.545709 15.792 0.446743 15.7742 0.665902 15.3097ZM24.8933 15.5638C25.1099 15.1664 24.764 14.5377 24.3286 14.5377C24.0983 14.5377 23.9098 14.4248 23.9098 14.2869C23.9098 14.1337 24.9368 14.036 26.5483 14.036C29.0639 14.036 29.2183 14.0661 29.8675 14.6854C30.2419 15.0426 30.5483 15.4377 30.5483 15.5634C30.5483 15.6893 29.2496 15.792 27.6586 15.792C25.9795 15.792 24.821 15.6964 24.8933 15.5638ZM8.41999 9.39512V0.5H15.501H22.5821V9.39512V15.2903H15.501H8.41999V9.39512Z" fill="#D65649"/>
</svg>
