<svg width="26" height="22" viewBox="0 0 26 22" fill="none" xmlns="http://www.w3.org/2000/svg">
<path d="M14.3867 0C8.42822 0 3.59668 4.83154 3.59668 10.79H0L4.66369 15.4537L4.74762 15.6216L9.59115 10.79H5.99447C5.99447 6.15032 9.747 2.39779 14.3867 2.39779C19.0264 2.39779 22.779 6.15032 22.779 10.79C22.779 15.4298 19.0264 19.1823 14.3867 19.1823C12.0729 19.1823 9.97479 18.2352 8.46419 16.7126L6.76176 18.415C8.71595 20.3692 11.4015 21.5801 14.3867 21.5801C20.3452 21.5801 25.1768 16.7485 25.1768 10.79C25.1768 4.83154 20.3452 0 14.3867 0Z" fill="black"/>
<path fill-rule="evenodd" clip-rule="evenodd" d="M17.6428 6.57353C17.8314 7.34041 17.635 8.18202 16.8425 8.93037C16.6162 9.14417 16.4102 9.3443 16.2229 9.5314C16.7679 9.3701 17.4613 9.10629 18.34 8.6858C18.813 8.45944 19.2307 8.3642 19.5901 8.39642C19.9581 8.42941 20.249 8.59531 20.4507 8.85401C20.8381 9.35091 20.8554 10.1263 20.665 10.8201C20.4712 11.5265 20.0385 12.2449 19.3969 12.6572C18.7361 13.0819 17.889 13.158 16.9492 12.6287C16.6807 12.4775 16.4312 12.3417 16.1995 12.2198C16.5151 12.6955 16.9714 13.2823 17.6304 13.9986C17.9851 14.3841 18.2004 14.7577 18.2788 15.1152C18.359 15.4813 18.2916 15.8149 18.1104 16.0915C17.7622 16.6229 17.0417 16.8847 16.3348 16.92C15.6151 16.956 14.812 16.7649 14.2323 16.2751C13.6352 15.7707 13.3082 14.9761 13.5198 13.9006C13.5802 13.5934 13.632 13.3094 13.6761 13.0469C13.3262 13.5022 12.9147 14.1287 12.4433 14.9918C12.1895 15.4565 11.9049 15.7826 11.5939 15.9713C11.2755 16.1646 10.9429 16.2048 10.6292 16.1171C10.0267 15.9487 9.56411 15.3351 9.31757 14.6631C9.06655 13.9789 9.00291 13.1424 9.28626 12.4274C9.57808 11.691 10.223 11.1238 11.2936 10.9884C11.5994 10.9497 11.8809 10.9099 12.1399 10.8696C11.608 10.6753 10.8974 10.4757 9.94714 10.2929C9.43558 10.1945 9.04434 10.0225 8.77378 9.78163C8.49673 9.53499 8.35864 9.22631 8.34601 8.89544C8.32174 8.25992 8.75633 7.61893 9.31087 7.1683C9.87549 6.70948 10.6392 6.38362 11.3941 6.43147C12.1715 6.48075 12.8971 6.92477 13.3472 7.91658C13.4757 8.19993 13.598 8.45938 13.7139 8.69693C13.7351 8.12155 13.7074 7.37171 13.5915 6.39559C13.5291 5.87011 13.572 5.43764 13.7157 5.10006C13.8629 4.75436 14.1101 4.52336 14.416 4.40659C15.0035 4.18229 15.7347 4.39971 16.324 4.7932C16.924 5.19384 17.4596 5.82892 17.6428 6.57353ZM13.5996 9.71986C13.3734 9.29684 13.1188 8.78334 12.8356 8.15923C12.4655 7.34346 11.9129 7.03774 11.3549 7.00236C10.7742 6.96555 10.1452 7.2201 9.66048 7.61399C9.16569 8.01606 8.89443 8.50007 8.90851 8.86906C8.91506 9.04045 8.98219 9.20391 9.1465 9.35018C9.31732 9.50225 9.60359 9.6439 10.0558 9.73088C11.5819 10.0244 12.5413 10.3673 13.1523 10.6865C13.1687 10.6476 13.1881 10.6219 13.1936 10.6146C13.194 10.614 13.1944 10.6136 13.1946 10.6133C13.2197 10.5793 13.2376 10.5594 13.2545 10.5407C13.2818 10.5103 13.3064 10.483 13.3546 10.4037C13.4189 10.2978 13.5026 10.122 13.5737 9.83295C13.5826 9.797 13.5912 9.75933 13.5996 9.71986ZM13.8095 11.6251C13.8066 11.6294 13.8069 11.6295 13.8095 11.6251C13.8096 11.6249 13.8093 11.6254 13.8095 11.6251ZM13.8246 12.0132C13.7934 11.9856 13.7755 11.9591 13.7704 11.9515C13.77 11.951 13.7697 11.9505 13.7695 11.9502C13.7456 11.9157 13.7327 11.8924 13.7205 11.8704C13.7007 11.8348 13.6829 11.8028 13.6239 11.7323C13.5451 11.6382 13.407 11.5042 13.1589 11.3481C13.1281 11.3287 13.0955 11.309 13.0612 11.289C12.5938 11.3799 12.0327 11.4708 11.359 11.556C10.4785 11.6673 10.0177 12.109 9.80823 12.6376C9.59027 13.1877 9.62973 13.8725 9.84522 14.4598C10.0652 15.0594 10.4325 15.4677 10.7823 15.5656C10.9448 15.611 11.119 15.5955 11.3079 15.4809C11.5042 15.3617 11.7272 15.1278 11.9516 14.7171C12.7086 13.3309 13.3328 12.5073 13.8246 12.0132ZM14.9109 11.6616C14.914 11.6656 14.9142 11.6654 14.9109 11.6616C14.9107 11.6614 14.9111 11.6618 14.9109 11.6616ZM15.2789 11.7641C15.2432 11.7859 15.2128 11.7952 15.204 11.7979C15.2034 11.7981 15.2029 11.7983 15.2025 11.7984C15.1627 11.811 15.1368 11.8165 15.1124 11.8216C15.0728 11.83 15.0372 11.8376 14.9525 11.8733C14.8396 11.921 14.6705 12.014 14.446 12.2066C14.4181 12.2306 14.3894 12.256 14.3598 12.2831C14.2971 12.7623 14.2049 13.332 14.0718 14.0088C13.8977 14.8934 14.1655 15.4721 14.5941 15.8342C15.04 16.2109 15.6935 16.3796 16.3113 16.3487C16.9421 16.3172 17.4403 16.0855 17.6425 15.777C17.7363 15.6337 17.7769 15.4607 17.7293 15.2435C17.6798 15.0178 17.5314 14.7316 17.2178 14.3908C16.1596 13.2405 15.586 12.3887 15.2789 11.7641ZM15.2931 10.6082C15.2978 10.6064 15.2977 10.6061 15.2931 10.6082C15.2929 10.6083 15.2934 10.608 15.2931 10.6082ZM15.5054 10.2835C15.5145 10.3246 15.5136 10.3568 15.5133 10.366C15.5133 10.3667 15.5133 10.3672 15.5133 10.3677C15.5125 10.41 15.5095 10.4367 15.5066 10.4618C15.5019 10.5026 15.4978 10.5392 15.5045 10.6318C15.5134 10.7554 15.547 10.9469 15.6564 11.222C15.6699 11.2562 15.6847 11.2917 15.7007 11.3285C16.1294 11.5337 16.6335 11.7949 17.2249 12.128C17.9979 12.5633 18.6241 12.4793 19.0985 12.1744C19.5921 11.8573 19.9565 11.2767 20.1229 10.6703C20.2927 10.0512 20.2333 9.49971 20.0084 9.21121C19.904 9.0772 19.7548 8.98577 19.5365 8.96621C19.3096 8.94587 18.9949 9.00286 18.5768 9.20295C17.1657 9.87825 16.187 10.1754 15.5054 10.2835ZM14.4279 9.92065C14.4277 9.91555 14.4275 9.91559 14.4279 9.92065C14.4279 9.92093 14.4279 9.92035 14.4279 9.92065ZM13.5109 10.5492C13.5061 10.5478 13.5061 10.5481 13.5109 10.5492C13.5112 10.5492 13.5106 10.5491 13.5109 10.5492ZM14.1911 9.61748C14.3053 8.92607 14.3365 7.89058 14.1504 6.32295C14.0952 5.85846 14.1414 5.53704 14.2321 5.32391C14.3194 5.11888 14.4521 5.00235 14.6106 4.94186C14.9517 4.81163 15.4866 4.92082 16.0124 5.27191C16.5275 5.61585 16.9557 6.14332 17.0966 6.71609C17.232 7.2666 17.1127 7.8972 16.4609 8.51272C15.9623 8.98364 15.5585 9.39194 15.2309 9.74428C15.1914 9.74864 15.1536 9.75219 15.1172 9.75499C14.8252 9.77755 14.6354 9.75224 14.5169 9.72356C14.428 9.70206 14.3951 9.68695 14.3584 9.67013C14.3358 9.65977 14.3117 9.64877 14.2724 9.63522C14.272 9.63509 14.2715 9.6349 14.2709 9.63468C14.2623 9.63165 14.2324 9.62104 14.1911 9.61748Z" fill="#5D5D5D"/>
<path d="M12.8356 8.15923C13.1188 8.78334 13.3734 9.29684 13.5996 9.71986C13.5912 9.75933 13.5826 9.797 13.5737 9.83295C13.5026 10.122 13.4189 10.2978 13.3546 10.4037C13.3064 10.483 13.2818 10.5103 13.2545 10.5407C13.2376 10.5594 13.2197 10.5793 13.1946 10.6133C13.1944 10.6136 13.194 10.614 13.1936 10.6146C13.1881 10.6219 13.1687 10.6476 13.1523 10.6865C12.5413 10.3673 11.5819 10.0244 10.0558 9.73088C9.60359 9.6439 9.31732 9.50225 9.1465 9.35018C8.98219 9.20391 8.91506 9.04045 8.90851 8.86906C8.89443 8.50007 9.16569 8.01606 9.66048 7.61399C10.1452 7.2201 10.7742 6.96555 11.3549 7.00236C11.9129 7.03774 12.4655 7.34346 12.8356 8.15923Z" fill="#5D5D5D"/>
<path d="M14.1911 9.61748C14.3053 8.92607 14.3365 7.89058 14.1504 6.32295C14.0952 5.85846 14.1414 5.53704 14.2321 5.32391C14.3194 5.11888 14.4521 5.00235 14.6106 4.94186C14.9517 4.81163 15.4866 4.92082 16.0124 5.27191C16.5275 5.61585 16.9557 6.14332 17.0966 6.71609C17.232 7.2666 17.1127 7.8972 16.4609 8.51272C15.9623 8.98364 15.5585 9.39194 15.2309 9.74428C15.1914 9.74864 15.1536 9.75219 15.1172 9.75499C14.8252 9.77755 14.6354 9.75224 14.5169 9.72356C14.428 9.70206 14.3951 9.68695 14.3584 9.67013C14.3358 9.65977 14.3117 9.64877 14.2724 9.63522C14.272 9.63509 14.2715 9.6349 14.2709 9.63468C14.2623 9.63165 14.2324 9.62104 14.1911 9.61748Z" fill="#5D5D5D"/>
<path d="M15.5133 10.366C15.5136 10.3568 15.5145 10.3246 15.5054 10.2835C16.187 10.1754 17.1657 9.87825 18.5768 9.20295C18.9949 9.00286 19.3096 8.94587 19.5365 8.96621C19.7548 8.98577 19.904 9.0772 20.0084 9.21121C20.2333 9.49971 20.2927 10.0512 20.1229 10.6703C19.9565 11.2767 19.5921 11.8573 19.0985 12.1744C18.6241 12.4793 17.9979 12.5633 17.2249 12.128C16.6335 11.7949 16.1294 11.5337 15.7007 11.3285C15.6847 11.2917 15.6699 11.2562 15.6564 11.222C15.547 10.9469 15.5134 10.7554 15.5045 10.6318C15.4978 10.5392 15.5019 10.5026 15.5066 10.4618C15.5095 10.4367 15.5125 10.41 15.5133 10.3677C15.5133 10.3672 15.5133 10.3667 15.5133 10.366Z" fill="#5D5D5D"/>
<path d="M15.204 11.7979C15.2128 11.7952 15.2432 11.7859 15.2789 11.7641C15.586 12.3887 16.1596 13.2405 17.2178 14.3908C17.5314 14.7316 17.6798 15.0178 17.7293 15.2435C17.7769 15.4607 17.7363 15.6337 17.6425 15.777C17.4403 16.0855 16.9421 16.3172 16.3113 16.3487C15.6935 16.3796 15.04 16.2109 14.5941 15.8342C14.1655 15.4721 13.8977 14.8934 14.0718 14.0088C14.2049 13.332 14.2971 12.7623 14.3598 12.2831C14.3894 12.256 14.4181 12.2306 14.446 12.2066C14.6705 12.014 14.8396 11.921 14.9525 11.8733C15.0372 11.8376 15.0728 11.83 15.1124 11.8216C15.1368 11.8165 15.1627 11.811 15.2025 11.7984C15.2029 11.7983 15.2034 11.7981 15.204 11.7979Z" fill="#5D5D5D"/>
<path d="M13.7704 11.9515C13.7755 11.9591 13.7934 11.9856 13.8246 12.0132C13.3328 12.5073 12.7086 13.3309 11.9516 14.7171C11.7272 15.1278 11.5042 15.3617 11.3079 15.4809C11.119 15.5955 10.9448 15.611 10.7823 15.5656C10.4325 15.4677 10.0652 15.0594 9.84522 14.4598C9.62973 13.8725 9.59027 13.1877 9.80823 12.6376C10.0177 12.109 10.4785 11.6673 11.359 11.556C12.0327 11.4708 12.5938 11.3799 13.0612 11.289C13.0955 11.309 13.1281 11.3287 13.1589 11.3481C13.407 11.5042 13.5451 11.6382 13.6239 11.7323C13.6829 11.8028 13.7007 11.8348 13.7205 11.8704C13.7327 11.8924 13.7456 11.9157 13.7695 11.9502C13.7697 11.9505 13.77 11.951 13.7704 11.9515Z" fill="#5D5D5D"/>
<circle cx="14.2465" cy="10.9441" r="1.38828" transform="rotate(12.393 14.2465 10.9441)" fill="white"/>
</svg>
