<svg width="29" height="22" viewBox="0 0 29 22" fill="none" xmlns="http://www.w3.org/2000/svg">
<path d="M14.3867 0C8.42822 0 3.59668 4.83154 3.59668 10.79H0L4.66369 15.4537L4.74762 15.6216L9.59115 10.79H5.99447C5.99447 6.15032 9.747 2.39779 14.3867 2.39779C19.0264 2.39779 22.779 6.15032 22.779 10.79C22.779 15.4298 19.0264 19.1823 14.3867 19.1823C12.0729 19.1823 9.97479 18.2352 8.46419 16.7126L6.76176 18.415C8.71595 20.3692 11.4015 21.5801 14.3867 21.5801C20.3452 21.5801 25.1768 16.7485 25.1768 10.79C25.1768 4.83154 20.3452 0 14.3867 0Z" fill="black"/>
<path d="M12.6281 10.7072C12.5746 10.8007 12.5846 11.2617 13.1137 11.8385C13.1338 11.8605 13.4845 12.3226 13.9055 12.2952C13.6211 12.6501 13.4414 12.9492 13.1643 13.3099C12.7781 13.8151 12.439 14.3511 12.1091 14.894C11.9272 15.1885 11.7166 15.459 11.4307 15.6639L11.4063 15.681C11.1477 15.8596 10.8484 15.9495 10.5342 15.9167C10.2617 15.8852 10.0183 15.7573 9.81108 15.5819C9.49582 15.3115 9.28398 14.9693 9.13133 14.589C8.93373 14.0901 8.84348 13.5555 8.89792 13.0198C8.96042 12.4048 9.19221 11.8712 9.67164 11.4668C10.0035 11.1907 10.4025 11.0219 10.828 10.9555C11.4296 10.8659 12.0314 10.8341 12.6281 10.7072ZM12.1513 11.5004C11.8105 11.5486 11.3687 11.6105 11.0275 11.6561L10.9696 11.6641C10.647 11.7097 10.3773 11.8209 10.1528 12.0053C9.8332 12.2679 9.66425 12.6178 9.61598 13.0928C9.57493 13.4967 9.63498 13.8936 9.78937 14.2904C9.91367 14.6099 10.0704 14.8535 10.281 15.0341C10.4113 15.1458 10.5218 15.191 10.6281 15.2009C10.7701 15.2111 10.8961 15.159 11.0104 15.0771C11.1995 14.9416 11.3579 14.7443 11.5259 14.4639C11.9391 13.774 12.4078 13.1135 12.8793 12.4626C12.7981 12.4044 12.7117 12.3207 12.627 12.2241C12.4528 12.0253 12.286 11.7719 12.1863 11.5737C12.1735 11.5483 12.1618 11.5237 12.1513 11.5004Z" fill="black"/>
<path d="M13.7519 12.1985C13.8243 12.2783 14.2659 12.4113 14.978 12.0863C15.0051 12.0739 15.5529 11.8833 15.657 11.4743C15.9066 11.8545 16.1355 12.1178 16.393 12.4928C16.7541 13.0162 17.1591 13.5044 17.5734 13.9859C17.7973 14.2499 17.9896 14.5338 18.096 14.869L18.1048 14.8976C18.1947 15.1986 18.1877 15.5111 18.0595 15.7998C17.9453 16.0492 17.7484 16.2411 17.5175 16.384C17.1629 16.6003 16.772 16.696 16.3632 16.7237C15.8277 16.7575 15.2913 16.6781 14.7987 16.4608C14.2331 16.2113 13.7973 15.8259 13.5608 15.245C13.4007 14.8441 13.3634 14.4125 13.4318 13.9873C13.5325 13.3874 13.6883 12.8052 13.7519 12.1985ZM14.359 12.897C14.2995 13.2361 14.2219 13.6754 14.1598 14.014L14.1495 14.0715C14.0932 14.3925 14.1156 14.6833 14.2216 14.9538C14.3726 15.3389 14.6532 15.6077 15.09 15.8004C15.4615 15.9643 15.8575 16.0298 16.2826 16.0056C16.6249 15.9861 16.9049 15.9123 17.1417 15.7678C17.2883 15.6784 17.3654 15.5873 17.4077 15.4893C17.4613 15.3574 17.4506 15.2215 17.4081 15.0874C17.3377 14.8657 17.1989 14.654 16.9842 14.4077C16.4557 13.8015 15.9724 13.1517 15.4991 12.502C15.3675 12.599 15.1669 12.6879 14.9589 12.7573C14.8624 12.7894 14.7642 12.8174 14.6707 12.8401C14.5562 12.8678 14.4485 12.8875 14.359 12.897Z" fill="black"/>
<path d="M15.5175 11.5905C15.6158 11.5464 15.8787 11.1675 15.7897 10.3898C15.7863 10.3602 15.7743 9.78028 15.4175 9.55493C15.8562 9.43499 16.1774 9.29866 16.6136 9.16968C17.223 8.98799 17.8124 8.75365 18.3984 8.50841C18.7186 8.37702 19.048 8.28193 19.3997 8.28431L19.4296 8.28477C19.7437 8.29225 20.0388 8.39549 20.2737 8.60668C20.4756 8.79237 20.5973 9.03891 20.6619 9.30261C20.758 9.7067 20.7282 10.108 20.6282 10.5054C20.4948 11.0252 20.2536 11.5107 19.8947 11.9121C19.4826 12.373 18.9815 12.6684 18.3559 12.7138C17.9251 12.7421 17.5031 12.6441 17.1198 12.4478C16.5804 12.1666 16.0749 11.8386 15.5175 11.5905ZM16.3695 11.2291C16.6736 11.3904 17.0673 11.6 17.3702 11.7637L17.4217 11.7912C17.7096 11.9439 17.9931 12.0125 18.2831 11.9952C18.6961 11.9707 19.0384 11.7869 19.3567 11.431C19.6273 11.1283 19.812 10.772 19.9203 10.3602C20.0076 10.0286 20.0239 9.73948 19.9597 9.4696C19.92 9.30257 19.8571 9.20112 19.777 9.13061C19.6681 9.03889 19.5355 9.00699 19.3948 9.00604C19.1622 9.00447 18.9181 9.07104 18.6174 9.19916C17.8776 9.51444 17.1102 9.77327 16.3461 10.0227C16.4509 10.3378 16.4358 10.9138 16.3695 11.2291Z" fill="black"/>
<path d="M15.4849 9.72346C15.4733 9.61635 15.1942 9.24921 14.4271 9.09358C14.3979 9.08765 13.8426 8.91991 13.518 9.18956C13.5396 8.73525 13.5091 8.38766 13.5213 7.93294C13.5368 7.29725 13.496 6.66428 13.4439 6.03117C13.4179 5.68603 13.4292 5.34337 13.5402 5.00961L13.5499 4.98132C13.654 4.68489 13.8434 4.43621 14.1169 4.27805C14.3559 4.14336 14.6279 4.10385 14.8987 4.12392C15.3127 4.15739 15.6852 4.30971 16.0322 4.52761C16.4853 4.81508 16.8726 5.19456 17.1434 5.65992C17.4543 6.19426 17.5804 6.76215 17.4303 7.37116C17.3241 7.78957 17.1006 8.16067 16.7953 8.46449C16.3612 8.8906 15.893 9.27006 15.4849 9.72346ZM15.4044 8.80152C15.6518 8.56215 15.9728 8.25243 16.2221 8.01494L16.2642 7.97449C16.4984 7.7479 16.6512 7.49945 16.7244 7.21829C16.8287 6.81798 16.7597 6.43559 16.5196 6.02295C16.3153 5.67205 16.0335 5.38627 15.6753 5.15597C15.387 4.97055 15.117 4.86568 14.8405 4.84333C14.6694 4.82949 14.5535 4.85789 14.4616 4.91235C14.3408 4.98755 14.2695 5.10378 14.2251 5.23727C14.1517 5.45802 14.1396 5.71081 14.1685 6.03631C14.2397 6.83738 14.2488 7.64717 14.2499 8.45096C14.3821 8.45004 14.5478 8.47997 14.717 8.52648C14.8652 8.56722 15.0161 8.62069 15.1495 8.67726C15.2463 8.71827 15.3338 8.76091 15.4044 8.80152Z" fill="black"/>
<path d="M13.6992 9.17752C13.5937 9.15548 13.1583 9.30749 12.7732 9.98893C12.7586 10.0149 12.4274 10.4911 12.5836 10.8832C12.1582 10.7223 11.8182 10.6438 11.3895 10.4918C10.7897 10.2806 10.1751 10.1237 9.55687 9.97767C9.22059 9.89576 8.89821 9.77907 8.61507 9.57042L8.59116 9.55247C8.34143 9.36179 8.16344 9.10486 8.09751 8.79591C8.04327 8.52698 8.08976 8.25603 8.19252 8.00473C8.35229 7.62133 8.61227 7.31412 8.92673 7.05144C9.34014 6.70934 9.82072 6.4583 10.347 6.34454C10.9513 6.21392 11.5303 6.26949 12.0631 6.60048C12.4283 6.83075 12.7121 7.15804 12.9068 7.54219C13.1779 8.08673 13.3941 8.64927 13.6992 9.17752ZM12.7975 8.96918C12.6463 8.65996 12.4509 8.25892 12.3021 7.94846L12.2766 7.8959C12.1335 7.60315 11.9444 7.38104 11.6996 7.22453C11.3511 7.00169 10.9661 6.94914 10.4995 7.05001C10.1027 7.13579 9.74376 7.31554 9.41406 7.585C9.14861 7.80195 8.96545 8.02629 8.85875 8.28236C8.7927 8.44084 8.7839 8.55983 8.80731 8.66401C8.84148 8.8022 8.92999 8.90593 9.04323 8.98939C9.23051 9.12739 9.46717 9.21705 9.78569 9.29011C10.5696 9.46991 11.3425 9.71156 12.1073 9.9589C12.1321 9.88061 12.1723 9.79373 12.2223 9.70402C12.3577 9.46099 12.5652 9.19723 12.7361 9.02752C12.7572 9.00657 12.7777 8.98705 12.7975 8.96918Z" fill="black"/>
<path d="M15.6506 11.0452C15.8535 10.2483 15.3719 9.43771 14.575 9.23479C13.778 9.03188 12.9675 9.51343 12.7645 10.3104C12.5616 11.1073 13.0432 11.9179 13.8401 12.1208L13.662 12.8203C13.2538 12.7163 12.9013 12.505 12.627 12.2241C12.4423 12.035 12.2931 11.8143 12.1863 11.5737C11.992 11.136 11.9378 10.6324 12.0651 10.1323C12.1035 9.98156 12.1565 9.83842 12.2223 9.70402C12.3501 9.44275 12.526 9.21448 12.7361 9.02752C13.2576 8.56339 13.9893 8.35392 14.717 8.52648C14.729 8.52933 14.741 8.53229 14.7531 8.53535C14.892 8.57072 15.0244 8.61852 15.1495 8.67726C16.0902 9.1189 16.6159 10.179 16.35 11.2233C16.1622 11.9607 15.6241 12.5162 14.9589 12.7573C14.8651 12.7912 14.7689 12.819 14.6707 12.8401C14.3476 12.9095 14.004 12.9073 13.662 12.8203L13.8401 12.1208C14.6371 12.3237 15.4476 11.8422 15.6506 11.0452Z" fill="black"/>
<path d="M17.3702 11.7637L17.4217 11.7912C17.7096 11.9439 17.9931 12.0125 18.2831 11.9952C18.6961 11.9707 19.0384 11.7869 19.3567 11.431C19.6273 11.1283 19.812 10.772 19.9203 10.3602C20.0076 10.0286 20.0239 9.73948 19.9597 9.4696C19.92 9.30257 19.8571 9.20112 19.777 9.13061C19.6681 9.03889 19.5355 9.00699 19.3948 9.00604C19.1622 9.00447 18.9181 9.07104 18.6174 9.19916C17.8776 9.51444 17.1102 9.77327 16.3461 10.0227C16.4509 10.3378 16.4358 10.9138 16.3695 11.2291C16.6736 11.3904 17.0673 11.6 17.3702 11.7637Z" fill="black"/>
<path d="M14.1598 14.014L14.1495 14.0715C14.0932 14.3925 14.1156 14.6833 14.2216 14.9538C14.3726 15.3389 14.6532 15.6077 15.09 15.8004C15.4615 15.9643 15.8575 16.0298 16.2826 16.0056C16.6249 15.9861 16.9049 15.9123 17.1417 15.7678C17.2883 15.6784 17.3654 15.5873 17.4077 15.4893C17.4613 15.3574 17.4506 15.2215 17.4081 15.0874C17.3377 14.8657 17.1989 14.654 16.9842 14.4077C16.4557 13.8015 15.9724 13.1517 15.4991 12.502C15.3675 12.599 15.1669 12.6879 14.9589 12.7573C14.8651 12.7912 14.7689 12.819 14.6707 12.8401C14.5562 12.8678 14.4485 12.8875 14.359 12.897C14.2995 13.2361 14.2219 13.6754 14.1598 14.014Z" fill="black"/>
<path d="M11.0275 11.6561L10.9696 11.6641C10.647 11.7097 10.3773 11.8209 10.1528 12.0053C9.8332 12.2679 9.66425 12.6178 9.61598 13.0928C9.57493 13.4967 9.63498 13.8936 9.78937 14.2904C9.91367 14.6099 10.0704 14.8535 10.281 15.0341C10.4113 15.1458 10.5218 15.191 10.6281 15.2009C10.7701 15.2111 10.8961 15.159 11.0104 15.0771C11.1995 14.9416 11.3579 14.7443 11.5259 14.4639C11.9391 13.774 12.4078 13.1135 12.8793 12.4626C12.7981 12.4044 12.7117 12.3207 12.627 12.2241C12.4423 12.035 12.2931 11.8143 12.1863 11.5737C12.1735 11.5483 12.1618 11.5237 12.1513 11.5004C11.8105 11.5486 11.3687 11.6105 11.0275 11.6561Z" fill="black"/>
<path d="M12.3021 7.94846L12.2766 7.8959C12.1335 7.60315 11.9444 7.38104 11.6996 7.22453C11.3511 7.00169 10.9661 6.94914 10.4995 7.05001C10.1027 7.13579 9.74376 7.31554 9.41406 7.585C9.14861 7.80195 8.96545 8.02629 8.85875 8.28236C8.7927 8.44084 8.7839 8.55983 8.80731 8.66401C8.84148 8.8022 8.92999 8.90593 9.04323 8.98939C9.23051 9.12739 9.46717 9.21705 9.78569 9.29011C10.5696 9.46991 11.3425 9.71156 12.1073 9.9589C12.1321 9.88061 12.1723 9.79373 12.2223 9.70402C12.3501 9.44275 12.526 9.21448 12.7361 9.02752C12.7572 9.00657 12.7777 8.98705 12.7975 8.96918C12.6463 8.65996 12.4509 8.25892 12.3021 7.94846Z" fill="black"/>
<path d="M16.2221 8.01494L16.2642 7.97449C16.4984 7.7479 16.6512 7.49945 16.7244 7.21829C16.8287 6.81798 16.7597 6.43559 16.5196 6.02295C16.3153 5.67205 16.0335 5.38627 15.6753 5.15597C15.387 4.97055 15.117 4.86568 14.8405 4.84333C14.6694 4.82949 14.5535 4.85789 14.4616 4.91235C14.3408 4.98755 14.2695 5.10378 14.2251 5.23727C14.1517 5.45802 14.1396 5.71081 14.1685 6.03631C14.2397 6.83738 14.2488 7.64717 14.2499 8.45096C14.3821 8.45004 14.5478 8.47997 14.717 8.52648C14.729 8.52933 14.741 8.53229 14.7531 8.53535C14.892 8.57072 15.0244 8.61852 15.1495 8.67726C15.2463 8.71827 15.3338 8.76091 15.4044 8.80152C15.6518 8.56215 15.9728 8.25243 16.2221 8.01494Z" fill="black"/>
</svg>
