<svg width="27" height="23" viewBox="0 0 27 23" fill="none" xmlns="http://www.w3.org/2000/svg">
<path d="M15.2983 0.709961C9.33984 0.709961 4.5083 5.5415 4.5083 11.5H0.911621L5.57532 16.1637L5.65924 16.3315L10.5028 11.5H6.90609C6.90609 6.86028 10.6586 3.10775 15.2983 3.10775C19.9381 3.10775 23.6906 6.86028 23.6906 11.5C23.6906 16.1397 19.9381 19.8923 15.2983 19.8923C12.9845 19.8923 10.8864 18.9451 9.37581 17.4225L7.67338 19.125C9.62757 21.0792 12.3131 22.29 15.2983 22.29C21.2568 22.29 26.0884 17.4585 26.0884 11.5C26.0884 5.5415 21.2568 0.709961 15.2983 0.709961Z" fill="#1D94A4"/>
<path fill-rule="evenodd" clip-rule="evenodd" d="M18.5544 7.28349C18.743 8.05037 18.5466 8.89198 17.7542 9.64033C17.5278 9.85413 17.3218 10.0543 17.1345 10.2414C17.6795 10.0801 18.373 9.81625 19.2516 9.39576C19.7246 9.1694 20.1424 9.07416 20.5017 9.10638C20.8698 9.13937 21.1606 9.30528 21.3623 9.56397C21.7497 10.0609 21.767 10.8362 21.5767 11.53C21.3828 12.2365 20.9502 12.9548 20.3085 13.3672C19.6477 13.7919 18.8006 13.868 17.8608 13.3387C17.5924 13.1875 17.3429 13.0517 17.1112 12.9298C17.4267 13.4055 17.8831 13.9923 18.542 14.7085C18.8967 15.0941 19.112 15.4677 19.1904 15.8252C19.2707 16.1913 19.2032 16.5248 19.022 16.8015C18.6739 17.3329 17.9534 17.5947 17.2465 17.63C16.5267 17.6659 15.7236 17.4748 15.1439 16.9851C14.5469 16.4806 14.2198 15.6861 14.4314 14.6106C14.4919 14.3033 14.5436 14.0193 14.5877 13.7569C14.2378 14.2122 13.8263 14.8386 13.3549 15.7018C13.1012 16.1664 12.8165 16.4926 12.5055 16.6813C12.1871 16.8746 11.8546 16.9148 11.5409 16.8271C10.9384 16.6586 10.4757 16.045 10.2292 15.3731C9.97817 14.6888 9.91453 13.8524 10.1979 13.1373C10.4897 12.4009 11.1346 11.8337 12.2052 11.6983C12.5111 11.6597 12.7925 11.6199 13.0515 11.5796C12.5197 11.3853 11.809 11.1857 10.8588 11.0029C10.3472 10.9045 9.95596 10.7324 9.68541 10.4916C9.40835 10.2449 9.27026 9.93627 9.25763 9.6054C9.23337 8.96988 9.66795 8.32889 10.2225 7.87826C10.7871 7.41944 11.5508 7.09358 12.3057 7.14143C13.0831 7.19071 13.8088 7.63473 14.2588 8.62654C14.3873 8.9099 14.5096 9.16934 14.6255 9.40689C14.6468 8.83151 14.619 8.08167 14.5031 7.10555C14.4407 6.58008 14.4836 6.14761 14.6273 5.81002C14.7745 5.46433 15.0217 5.23332 15.3276 5.11655C15.9151 4.89225 16.6463 5.10967 17.2356 5.50316C17.8356 5.9038 18.3712 6.53888 18.5544 7.28349ZM14.5113 10.4298C14.285 10.0068 14.0304 9.49331 13.7473 8.86919C13.3771 8.05342 12.8246 7.7477 12.2665 7.71232C11.6859 7.67551 11.0568 7.93006 10.5721 8.32395C10.0773 8.72602 9.80605 9.21003 9.82013 9.57902C9.82668 9.75041 9.89381 9.91387 10.0581 10.0601C10.2289 10.2122 10.5152 10.3539 10.9674 10.4408C12.4935 10.7344 13.4529 11.0772 14.0639 11.3964C14.0803 11.3576 14.0997 11.3319 14.1053 11.3245C14.1057 11.324 14.106 11.3236 14.1062 11.3232C14.1314 11.2893 14.1493 11.2694 14.1661 11.2507C14.1934 11.2203 14.218 11.193 14.2662 11.1136C14.3305 11.0078 14.4142 10.8319 14.4854 10.5429C14.4942 10.507 14.5029 10.4693 14.5113 10.4298ZM14.7211 12.3351C14.7183 12.3393 14.7185 12.3395 14.7211 12.3351C14.7209 12.3354 14.7212 12.3349 14.7211 12.3351ZM14.7363 12.7231C14.7051 12.6955 14.6871 12.6691 14.682 12.6615C14.6816 12.6609 14.6813 12.6605 14.6811 12.6601C14.6573 12.6256 14.6443 12.6023 14.6321 12.5804C14.6123 12.5448 14.5945 12.5128 14.5355 12.4423C14.4567 12.3482 14.3186 12.2142 14.0705 12.0581C14.0397 12.0387 14.0072 12.019 13.9729 11.9989C13.5054 12.0898 12.9443 12.1808 12.2707 12.266C11.3901 12.3773 10.9293 12.819 10.7199 13.3476C10.5019 13.8976 10.5414 14.5824 10.7568 15.1698C10.9768 15.7694 11.3441 16.1777 11.6939 16.2755C11.8564 16.321 12.0307 16.3054 12.2195 16.1908C12.4158 16.0717 12.6389 15.8378 12.8632 15.4271C13.6203 14.0409 14.2444 13.2173 14.7363 12.7231ZM15.8225 12.3715C15.8256 12.3756 15.8258 12.3754 15.8225 12.3715C15.8223 12.3713 15.8227 12.3718 15.8225 12.3715ZM16.1905 12.4741C16.1548 12.4959 16.1244 12.5052 16.1157 12.5079C16.115 12.5081 16.1145 12.5082 16.1141 12.5083C16.0743 12.5209 16.0484 12.5264 16.024 12.5316C15.9844 12.54 15.9489 12.5475 15.8642 12.5833C15.7512 12.631 15.5821 12.724 15.3577 12.9166C15.3297 12.9405 15.301 12.966 15.2714 12.9931C15.2088 13.4723 15.1165 14.042 14.9834 14.7188C14.8093 15.6034 15.0771 16.182 15.5057 16.5441C15.9516 16.9209 16.6051 17.0895 17.223 17.0587C17.8537 17.0272 18.352 16.7955 18.5541 16.487C18.648 16.3437 18.6885 16.1706 18.6409 15.9535C18.5914 15.7278 18.443 15.4416 18.1294 15.1008C17.0712 13.9505 16.4976 13.0986 16.1905 12.4741ZM16.2047 11.3181C16.2093 11.3161 16.2095 11.3164 16.2047 11.3181C16.2045 11.3182 16.205 11.318 16.2047 11.3181ZM16.417 10.9934C16.4261 11.0345 16.4252 11.0668 16.425 11.076C16.425 11.0766 16.4249 11.0772 16.4249 11.0776C16.4241 11.1199 16.4211 11.1466 16.4182 11.1717C16.4136 11.2125 16.4094 11.2492 16.4161 11.3418C16.425 11.4654 16.4587 11.6569 16.568 11.932C16.5816 11.9662 16.5963 12.0017 16.6123 12.0384C17.0411 12.2437 17.5452 12.5048 18.1365 12.8379C18.9095 13.2733 19.5358 13.1893 20.0101 12.8844C20.5037 12.5672 20.8681 11.9867 21.0345 11.3802C21.2043 10.7612 21.145 10.2097 20.9201 9.92117C20.8156 9.78716 20.6664 9.69573 20.4482 9.67617C20.2213 9.65583 19.9065 9.71283 19.4884 9.91291C18.0773 10.5882 17.0986 10.8853 16.417 10.9934ZM15.3395 10.6306C15.3391 10.6256 15.3394 10.6255 15.3395 10.6306C15.3395 10.6303 15.3395 10.6309 15.3395 10.6306ZM14.4226 11.2591C14.4177 11.2577 14.4177 11.258 14.4226 11.2591C14.4223 11.2591 14.4228 11.2592 14.4226 11.2591ZM15.1027 10.3274C15.2169 9.63603 15.2481 8.60054 15.062 7.03291C15.0068 6.56842 15.053 6.247 15.1437 6.03387C15.231 5.82884 15.3637 5.71231 15.5222 5.65182C15.8633 5.52159 16.3983 5.63078 16.924 5.98187C17.4391 6.32581 17.8673 6.85328 18.0082 7.42605C18.1436 7.97656 18.0243 8.60716 17.3726 9.22269C16.8739 9.6936 16.4702 10.1019 16.1425 10.4542C16.1031 10.4586 16.0652 10.4621 16.0289 10.465C15.7368 10.4875 15.547 10.4622 15.4285 10.4335C15.3396 10.412 15.3067 10.3969 15.27 10.3801C15.2474 10.3697 15.2234 10.3587 15.184 10.3452C15.1836 10.345 15.1831 10.3449 15.1825 10.3446C15.1739 10.3416 15.144 10.331 15.1027 10.3274Z" fill="#1D94A4"/>
<path d="M13.7473 8.86919C14.0304 9.49331 14.285 10.0068 14.5113 10.4298C14.5029 10.4693 14.4942 10.507 14.4854 10.5429C14.4142 10.8319 14.3305 11.0078 14.2662 11.1136C14.218 11.193 14.1934 11.2203 14.1661 11.2507C14.1493 11.2694 14.1314 11.2893 14.1062 11.3232C14.106 11.3236 14.1057 11.324 14.1053 11.3245C14.0997 11.3319 14.0803 11.3576 14.0639 11.3964C13.4529 11.0772 12.4935 10.7344 10.9674 10.4408C10.5152 10.3539 10.2289 10.2122 10.0581 10.0601C9.89381 9.91387 9.82668 9.75041 9.82013 9.57902C9.80605 9.21003 10.0773 8.72602 10.5721 8.32395C11.0568 7.93006 11.6859 7.67551 12.2665 7.71232C12.8246 7.7477 13.3771 8.05342 13.7473 8.86919Z" fill="#1D94A4"/>
<path d="M15.1027 10.3274C15.2169 9.63603 15.2481 8.60054 15.062 7.03291C15.0068 6.56842 15.053 6.247 15.1437 6.03387C15.231 5.82884 15.3637 5.71231 15.5222 5.65182C15.8633 5.52159 16.3983 5.63078 16.924 5.98187C17.4391 6.32581 17.8673 6.85328 18.0082 7.42605C18.1436 7.97656 18.0243 8.60716 17.3726 9.22269C16.8739 9.6936 16.4702 10.1019 16.1425 10.4542C16.1031 10.4586 16.0652 10.4621 16.0289 10.465C15.7368 10.4875 15.547 10.4622 15.4285 10.4335C15.3396 10.412 15.3067 10.3969 15.27 10.3801C15.2474 10.3697 15.2234 10.3587 15.184 10.3452C15.1836 10.345 15.1831 10.3449 15.1825 10.3446C15.1739 10.3416 15.144 10.331 15.1027 10.3274Z" fill="#1D94A4"/>
<path d="M16.425 11.076C16.4252 11.0668 16.4261 11.0345 16.417 10.9934C17.0986 10.8853 18.0773 10.5882 19.4884 9.91291C19.9065 9.71283 20.2213 9.65583 20.4482 9.67617C20.6664 9.69573 20.8156 9.78716 20.9201 9.92117C21.145 10.2097 21.2043 10.7612 21.0345 11.3802C20.8681 11.9867 20.5037 12.5672 20.0101 12.8844C19.5358 13.1893 18.9095 13.2733 18.1365 12.8379C17.5452 12.5048 17.0411 12.2437 16.6123 12.0384C16.5963 12.0017 16.5816 11.9662 16.568 11.932C16.4587 11.6569 16.425 11.4654 16.4161 11.3418C16.4094 11.2492 16.4136 11.2125 16.4182 11.1717C16.4211 11.1466 16.4241 11.1199 16.4249 11.0776C16.4249 11.0772 16.425 11.0766 16.425 11.076Z" fill="#1D94A4"/>
<path d="M16.1157 12.5079C16.1244 12.5052 16.1548 12.4959 16.1905 12.4741C16.4976 13.0986 17.0712 13.9505 18.1294 15.1008C18.443 15.4416 18.5914 15.7278 18.6409 15.9535C18.6885 16.1706 18.648 16.3437 18.5541 16.487C18.352 16.7955 17.8537 17.0272 17.223 17.0587C16.6051 17.0895 15.9516 16.9209 15.5057 16.5441C15.0771 16.182 14.8093 15.6034 14.9834 14.7188C15.1165 14.042 15.2088 13.4723 15.2714 12.9931C15.301 12.966 15.3297 12.9405 15.3577 12.9166C15.5821 12.724 15.7512 12.631 15.8642 12.5833C15.9489 12.5475 15.9844 12.54 16.024 12.5316C16.0484 12.5264 16.0743 12.5209 16.1141 12.5083C16.1145 12.5082 16.115 12.5081 16.1157 12.5079Z" fill="#1D94A4"/>
<path d="M14.682 12.6615C14.6871 12.6691 14.7051 12.6955 14.7363 12.7231C14.2444 13.2173 13.6203 14.0409 12.8632 15.4271C12.6389 15.8378 12.4158 16.0717 12.2195 16.1908C12.0307 16.3054 11.8564 16.321 11.6939 16.2755C11.3441 16.1777 10.9768 15.7694 10.7568 15.1698C10.5414 14.5824 10.5019 13.8976 10.7199 13.3476C10.9293 12.819 11.3901 12.3773 12.2707 12.266C12.9443 12.1808 13.5054 12.0898 13.9729 11.9989C14.0072 12.019 14.0397 12.0387 14.0705 12.0581C14.3186 12.2142 14.4567 12.3482 14.5355 12.4423C14.5945 12.5128 14.6123 12.5448 14.6321 12.5804C14.6443 12.6023 14.6573 12.6256 14.6811 12.6601C14.6813 12.6605 14.6816 12.6609 14.682 12.6615Z" fill="#1D94A4"/>
<circle cx="15.1581" cy="11.6541" r="1.38828" transform="rotate(12.393 15.1581 11.6541)" fill="white"/>
</svg>
