<svg width="16" height="23" viewBox="0 0 16 23" fill="none" xmlns="http://www.w3.org/2000/svg">
<rect x="0.412479" y="1.3158" width="15.175" height="15.175" rx="1.01593" stroke="white" stroke-width="0.824957" stroke-dasharray="2.2 2.2"/>
<path d="M8 19.4033C7.71067 19.4033 7.4332 19.5087 7.22861 19.6962C7.02403 19.8837 6.90909 20.1381 6.90909 20.4033C6.90909 20.6685 7.02403 20.9229 7.22861 21.1104C7.4332 21.298 7.71067 21.4033 8 21.4033C8.28933 21.4033 8.5668 21.298 8.77139 21.1104C8.97597 20.9229 9.09091 20.6685 9.09091 20.4033C9.09091 20.1381 8.97597 19.8837 8.77139 19.6962C8.5668 19.5087 8.28933 19.4033 8 19.4033ZM8 22.07C7.51779 22.07 7.05533 21.8944 6.71435 21.5818C6.37338 21.2693 6.18182 20.8453 6.18182 20.4033C6.18182 19.9613 6.37338 19.5374 6.71435 19.2248C7.05533 18.9122 7.51779 18.7367 8 18.7367C8.48221 18.7367 8.94467 18.9122 9.28565 19.2248C9.62662 19.5374 9.81818 19.9613 9.81818 20.4033C9.81818 20.8453 9.62662 21.2693 9.28565 21.5818C8.94467 21.8944 8.48221 22.07 8 22.07ZM8 17.9033C6.18182 17.9033 4.62909 18.94 4 20.4033C4.62909 21.8667 6.18182 22.9033 8 22.9033C9.81818 22.9033 11.3709 21.8667 12 20.4033C11.3709 18.94 9.81818 17.9033 8 17.9033Z" fill="white"/>
</svg>
