<svg width="16" height="17" viewBox="0 0 16 17" fill="none" xmlns="http://www.w3.org/2000/svg">
<rect x="0.412479" y="1.3158" width="15.175" height="15.175" rx="1.01593" stroke="white" stroke-width="0.824957" stroke-dasharray="2.2 2.2"/>
<path opacity="0.8" d="M6.09766 3.47461C6.125 3.56445 6.15234 3.67969 6.17969 3.82031C6.21094 3.96094 6.23828 4.10938 6.26172 4.26562C6.28906 4.41797 6.31445 4.56836 6.33789 4.7168C6.36133 4.86133 6.37891 4.98438 6.39062 5.08594C6.625 4.76953 6.86328 4.49805 7.10547 4.27148C7.35156 4.04492 7.59961 3.85938 7.84961 3.71484C8.09961 3.57031 8.35156 3.46484 8.60547 3.39844C8.86328 3.33203 9.12109 3.29883 9.37891 3.29883C9.74219 3.29883 10.0664 3.37305 10.3516 3.52148C10.6406 3.66602 10.8828 3.88477 11.0781 4.17773C11.2773 4.4668 11.4297 4.82812 11.5352 5.26172C11.6406 5.69531 11.6934 6.19922 11.6934 6.77344V11.1504C11.6934 11.7715 11.6348 12.3086 11.5176 12.7617C11.4004 13.2148 11.2324 13.5879 11.0137 13.8809C10.7988 14.1777 10.5352 14.3965 10.2227 14.5371C9.91016 14.6816 9.56055 14.7539 9.17383 14.7539C9.05273 14.7539 8.93359 14.7441 8.81641 14.7246C8.70312 14.7051 8.5957 14.6797 8.49414 14.6484C8.39258 14.6211 8.30078 14.5898 8.21875 14.5547C8.14062 14.5234 8.07812 14.4922 8.03125 14.4609L8.41211 13.5527C8.50977 13.627 8.63867 13.6797 8.79883 13.7109C8.96289 13.7422 9.13672 13.7578 9.32031 13.7578C9.47656 13.7578 9.62891 13.7148 9.77734 13.6289C9.92969 13.5469 10.0645 13.416 10.1816 13.2363C10.3027 13.0605 10.3984 12.832 10.4688 12.5508C10.543 12.2695 10.5801 11.9297 10.5801 11.5312V7.40039C10.5801 6.87695 10.5566 6.42969 10.5098 6.05859C10.4629 5.6875 10.3809 5.38477 10.2637 5.15039C10.1465 4.91602 9.98438 4.74414 9.77734 4.63477C9.57422 4.52539 9.31445 4.4707 8.99805 4.4707C8.81055 4.4707 8.62695 4.50977 8.44727 4.58789C8.26758 4.66211 8.09375 4.76562 7.92578 4.89844C7.76172 5.02734 7.60352 5.17773 7.45117 5.34961C7.30273 5.52148 7.16797 5.70508 7.04688 5.90039C6.92578 6.0918 6.81836 6.28906 6.72461 6.49219C6.63477 6.69141 6.5625 6.88672 6.50781 7.07812V12H5.30664C5.34961 11.7656 5.375 11.4336 5.38281 11.0039C5.39062 10.5703 5.39453 10.0625 5.39453 9.48047V6.84375C5.39453 6.43359 5.38281 6.05469 5.35938 5.70703C5.33594 5.35938 5.30469 5.04492 5.26562 4.76367C5.22656 4.48242 5.18359 4.23438 5.13672 4.01953C5.09375 3.80078 5.05273 3.61914 5.01367 3.47461H6.09766Z" fill="white"/>
</svg>
