<svg width="127" height="134" viewBox="0 0 127 134" fill="none" xmlns="http://www.w3.org/2000/svg">
<path d="M110.711 59.6666H104.125V30.2C104.125 28.2462 103.348 26.3725 101.965 24.9909C100.582 23.6094 98.706 22.8333 96.75 22.8333H67.25V16.2549C67.3298 12.6686 66.1439 9.16864 63.9002 6.36783C61.6565 3.56702 58.4979 1.64389 54.9775 0.935207C52.8609 0.576723 50.6916 0.68373 48.6207 1.24877C46.5498 1.8138 44.6272 2.82326 42.987 4.20676C41.3469 5.59025 40.0286 7.31448 39.1241 9.25919C38.2196 11.2039 37.7506 13.3223 37.75 15.4666V22.8333H8.25C6.29403 22.8333 4.41817 23.6094 3.03509 24.9909C1.65201 26.3725 0.875 28.2462 0.875 30.2V55.9833C0.875 57.937 1.65201 59.8108 3.03509 61.1923C4.41817 62.5738 6.29403 63.3499 8.25 63.3499H11.9375C14.8715 63.3499 17.6852 64.5141 19.7599 66.5864C21.8345 68.6587 23 71.4693 23 74.3999C23 77.3306 21.8345 80.1412 19.7599 82.2135C17.6852 84.2858 14.8715 85.45 11.9375 85.45H8.25C6.29403 85.45 4.41817 86.2261 3.03509 87.6076C1.65201 88.9891 0.875 90.8629 0.875 92.8166V125.967C0.875 127.92 1.65201 129.794 3.03509 131.176C4.41817 132.557 6.29403 133.333 8.25 133.333H34.0625C36.0185 133.333 37.8943 132.557 39.2774 131.176C40.6605 129.794 41.4375 127.92 41.4375 125.967V122.283C41.4375 119.353 42.603 116.542 44.6776 114.47C46.7523 112.397 49.566 111.233 52.5 111.233C55.434 111.233 58.2477 112.397 60.3224 114.47C62.397 116.542 63.5625 119.353 63.5625 122.283V125.967C63.5625 127.92 64.3395 129.794 65.7226 131.176C67.1057 132.557 68.9815 133.333 70.9375 133.333H96.75C98.706 133.333 100.582 132.557 101.965 131.176C103.348 129.794 104.125 127.92 104.125 125.967V89.1333H111.5C113.647 89.1327 115.768 88.6643 117.715 87.7608C119.661 86.8574 121.388 85.5406 122.773 83.9022C124.158 82.2639 125.168 80.3435 125.734 78.2749C126.3 76.2064 126.407 74.0394 126.048 71.9253C125.339 68.4088 123.413 65.2537 120.609 63.0125C117.805 60.7714 114.301 59.5869 110.711 59.6666Z" fill="#D3D3D3"/>
</svg>
