<?xml version="1.0" encoding="UTF-8" standalone="no"?>
<!-- Created with Inkscape (http://www.inkscape.org/) -->

<svg
   xmlns:dc="http://purl.org/dc/elements/1.1/"
   xmlns:cc="http://creativecommons.org/ns#"
   xmlns:rdf="http://www.w3.org/1999/02/22-rdf-syntax-ns#"
   xmlns:svg="http://www.w3.org/2000/svg"
   xmlns="http://www.w3.org/2000/svg"
   xmlns:sodipodi="http://sodipodi.sourceforge.net/DTD/sodipodi-0.dtd"
   xmlns:inkscape="http://www.inkscape.org/namespaces/inkscape"
   width="148mm"
   height="210mm"
   viewBox="0 0 524.40945 744.09448"
   id="svg2"
   version="1.1"
   inkscape:version="0.91 r13725"
   sodipodi:docname="Picture Dictionary Page.svg">
  <defs
     id="defs4" />
  <sodipodi:namedview
     id="base"
     pagecolor="#ffffff"
     bordercolor="#666666"
     borderopacity="1.0"
     inkscape:pageopacity="0.0"
     inkscape:pageshadow="2"
     inkscape:zoom="0.7"
     inkscape:cx="189.95766"
     inkscape:cy="352.4747"
     inkscape:document-units="px"
     inkscape:current-layer="layer1"
     showgrid="false"
     inkscape:window-width="1200"
     inkscape:window-height="1867"
     inkscape:window-x="-8"
     inkscape:window-y="-8"
     inkscape:window-maximized="1" />
  <metadata
     id="metadata7">
    <rdf:RDF>
      <cc:Work
         rdf:about="">
        <dc:format>image/svg+xml</dc:format>
        <dc:type
           rdf:resource="http://purl.org/dc/dcmitype/StillImage" />
        <dc:title />
      </cc:Work>
    </rdf:RDF>
  </metadata>
  <g
     inkscape:label="Layer 1"
     inkscape:groupmode="layer"
     id="layer1"
     transform="translate(0,-308.26772)">
    <rect
       style="opacity:1;fill:#ffffff;fill-opacity:0.47843137;fill-rule:nonzero;stroke:none;stroke-width:25;stroke-linecap:butt;stroke-linejoin:round;stroke-miterlimit:4;stroke-dasharray:none;stroke-dashoffset:0;stroke-opacity:0.47843137"
       id="rect4155"
       width="522.24884"
       height="749.57361"
       x="1.0101523"
       y="308.84952" />
    <rect
       y="341.79523"
       x="90.96463"
       height="33.705379"
       width="332.35645"
       id="rect4146-4"
       style="opacity:1;fill:#585858;fill-opacity:0.72941176;fill-rule:nonzero;stroke:none;stroke-width:25;stroke-linecap:butt;stroke-linejoin:round;stroke-miterlimit:4;stroke-dasharray:none;stroke-dashoffset:0;stroke-opacity:0.47843137" />
    <g
       id="g4264"
       transform="translate(16,0)">
      <g
         transform="matrix(0.8733158,0,0,0.8733158,-4.7445502,18.024015)"
         id="g4161">
        <g
           id="g4142"
           transform="matrix(0.31188412,0,0,0.31188412,86.591142,424.19102)">
          <path
             inkscape:connector-curvature="0"
             id="path1549-1"
             d="m 229.82156,0.25846411 c -41.4166,0.5398 -60.9537,48.38223989 -46.361,82.98970289 10.8612,32.784683 22.3603,65.281033 28.1351,99.092183 -24.9566,-39.01151 -66.3219,-80.46098 -117.141103,-67.24112 -52.7529,12.71342 -105.201137,66.51883 -92.5450275,123.86523 16.4298305,44.83276 74.2668275,37.58323 112.3634305,37.33651 12.3354,1.52144 60.6615,-0.13493 45.8302,6.90105 -45.065,10.4641 -92.774503,42.8844 -92.368103,93.6067 -1.1859,53.21254 34.965103,118.98274 93.606703,120.14934 49.995,-7.1906 55.0712,-68.34355 70.0723,-105.81634 6.1491,-15.9332 20.4896,-58.7148 17.5181,-18.0489 -5.6982,51.18829 28.04,105.20484 81.928,109.70924 47.1273,7.2605 116.3666,-12.2444 122.2727,-67.41814 -3.231,-52.6788 -64.4542,-69.4527 -95.9071,-102.2773 -31.8734,-23.2254 4.4907,-8.8833 24.0653,-3.7159 56.0155,18.3325 113.1576,-26.1104 120.857,-81.92803 11.0886,-40.73436 -2.7222,-107.39209 -54.8546,-107.40885 -51.3302,5.13751 -83.4454,54.67136 -129.5276,73.43438 29.8599,-35.6896 56.3008,-88.08422 27.9582,-132.535796 -23.4992,-38.62341 -70.3072,-63.8008099 -115.9025,-60.69395989 z"
             style="opacity:0.68141593;fill:#010101;fill-opacity:0.70196078;stroke:none" />
          <path
             inkscape:connector-curvature="0"
             id="path1551-7"
             d="m 248.43026,199.07901 c -51.2881,2.2016 -74.6527,74.15764 -35.2132,106.52409 36.4312,36.14175 104.9087,5.65148 102.4543,-45.47623 0.7476,-35.54029 -32.1682,-64.99292 -67.2411,-61.04786 z"
             style="fill:#ffffff;fill-opacity:0.32941176;stroke:none" />
        </g>
        <rect
           y="590.07788"
           x="88.828346"
           height="17.398241"
           width="151.55771"
           id="rect4146"
           style="opacity:1;fill:#585858;fill-opacity:0.72941176;fill-rule:nonzero;stroke:none;stroke-width:25;stroke-linecap:butt;stroke-linejoin:round;stroke-miterlimit:4;stroke-dasharray:none;stroke-dashoffset:0;stroke-opacity:0.47843137" />
        <rect
           style="opacity:1;fill:#585858;fill-opacity:0.72941176;fill-rule:nonzero;stroke:none;stroke-width:25;stroke-linecap:butt;stroke-linejoin:round;stroke-miterlimit:4;stroke-dasharray:none;stroke-dashoffset:0;stroke-opacity:0.47843137"
           id="rect4159"
           width="151.55771"
           height="17.398241"
           x="88.828346"
           y="621.50647" />
      </g>
      <g
         id="g4180"
         transform="matrix(0.8733158,0,0,0.8733158,-4.7445502,231.98638)">
        <g
           id="g4182"
           transform="matrix(0.31188412,0,0,0.31188412,86.591142,424.19102)">
          <path
             inkscape:connector-curvature="0"
             id="path4184"
             d="m 229.82156,0.25846411 c -41.4166,0.5398 -60.9537,48.38223989 -46.361,82.98970289 10.8612,32.784683 22.3603,65.281033 28.1351,99.092183 -24.9566,-39.01151 -66.3219,-80.46098 -117.141103,-67.24112 -52.7529,12.71342 -105.201137,66.51883 -92.5450275,123.86523 16.4298305,44.83276 74.2668275,37.58323 112.3634305,37.33651 12.3354,1.52144 60.6615,-0.13493 45.8302,6.90105 -45.065,10.4641 -92.774503,42.8844 -92.368103,93.6067 -1.1859,53.21254 34.965103,118.98274 93.606703,120.14934 49.995,-7.1906 55.0712,-68.34355 70.0723,-105.81634 6.1491,-15.9332 20.4896,-58.7148 17.5181,-18.0489 -5.6982,51.18829 28.04,105.20484 81.928,109.70924 47.1273,7.2605 116.3666,-12.2444 122.2727,-67.41814 -3.231,-52.6788 -64.4542,-69.4527 -95.9071,-102.2773 -31.8734,-23.2254 4.4907,-8.8833 24.0653,-3.7159 56.0155,18.3325 113.1576,-26.1104 120.857,-81.92803 11.0886,-40.73436 -2.7222,-107.39209 -54.8546,-107.40885 -51.3302,5.13751 -83.4454,54.67136 -129.5276,73.43438 29.8599,-35.6896 56.3008,-88.08422 27.9582,-132.535796 -23.4992,-38.62341 -70.3072,-63.8008099 -115.9025,-60.69395989 z"
             style="opacity:0.68141593;fill:#010101;fill-opacity:0.70196078;stroke:none" />
          <path
             inkscape:connector-curvature="0"
             id="path4186"
             d="m 248.43026,199.07901 c -51.2881,2.2016 -74.6527,74.15764 -35.2132,106.52409 36.4312,36.14175 104.9087,5.65148 102.4543,-45.47623 0.7476,-35.54029 -32.1682,-64.99292 -67.2411,-61.04786 z"
             style="fill:#ffffff;fill-opacity:0.32941176;stroke:none" />
        </g>
        <rect
           y="590.07788"
           x="88.828346"
           height="17.398241"
           width="151.55771"
           id="rect4188"
           style="opacity:1;fill:#585858;fill-opacity:0.72941176;fill-rule:nonzero;stroke:none;stroke-width:25;stroke-linecap:butt;stroke-linejoin:round;stroke-miterlimit:4;stroke-dasharray:none;stroke-dashoffset:0;stroke-opacity:0.47843137" />
        <rect
           style="opacity:1;fill:#585858;fill-opacity:0.72941176;fill-rule:nonzero;stroke:none;stroke-width:25;stroke-linecap:butt;stroke-linejoin:round;stroke-miterlimit:4;stroke-dasharray:none;stroke-dashoffset:0;stroke-opacity:0.47843137"
           id="rect4190"
           width="151.55771"
           height="17.398241"
           x="88.828346"
           y="621.50647" />
      </g>
      <g
         id="g4204"
         transform="matrix(0.8733158,0,0,0.8733158,-4.7445502,445.94875)">
        <g
           id="g4206"
           transform="matrix(0.31188412,0,0,0.31188412,86.591142,424.19102)">
          <path
             inkscape:connector-curvature="0"
             id="path4208"
             d="m 229.82156,0.25846411 c -41.4166,0.5398 -60.9537,48.38223989 -46.361,82.98970289 10.8612,32.784683 22.3603,65.281033 28.1351,99.092183 -24.9566,-39.01151 -66.3219,-80.46098 -117.141103,-67.24112 -52.7529,12.71342 -105.201137,66.51883 -92.5450275,123.86523 16.4298305,44.83276 74.2668275,37.58323 112.3634305,37.33651 12.3354,1.52144 60.6615,-0.13493 45.8302,6.90105 -45.065,10.4641 -92.774503,42.8844 -92.368103,93.6067 -1.1859,53.21254 34.965103,118.98274 93.606703,120.14934 49.995,-7.1906 55.0712,-68.34355 70.0723,-105.81634 6.1491,-15.9332 20.4896,-58.7148 17.5181,-18.0489 -5.6982,51.18829 28.04,105.20484 81.928,109.70924 47.1273,7.2605 116.3666,-12.2444 122.2727,-67.41814 -3.231,-52.6788 -64.4542,-69.4527 -95.9071,-102.2773 -31.8734,-23.2254 4.4907,-8.8833 24.0653,-3.7159 56.0155,18.3325 113.1576,-26.1104 120.857,-81.92803 11.0886,-40.73436 -2.7222,-107.39209 -54.8546,-107.40885 -51.3302,5.13751 -83.4454,54.67136 -129.5276,73.43438 29.8599,-35.6896 56.3008,-88.08422 27.9582,-132.535796 -23.4992,-38.62341 -70.3072,-63.8008099 -115.9025,-60.69395989 z"
             style="opacity:0.68141593;fill:#010101;fill-opacity:0.70196078;stroke:none" />
          <path
             inkscape:connector-curvature="0"
             id="path4210"
             d="m 248.43026,199.07901 c -51.2881,2.2016 -74.6527,74.15764 -35.2132,106.52409 36.4312,36.14175 104.9087,5.65148 102.4543,-45.47623 0.7476,-35.54029 -32.1682,-64.99292 -67.2411,-61.04786 z"
             style="fill:#ffffff;fill-opacity:0.32941176;stroke:none" />
        </g>
        <rect
           y="590.07788"
           x="88.828346"
           height="17.398241"
           width="151.55771"
           id="rect4212"
           style="opacity:1;fill:#585858;fill-opacity:0.72941176;fill-rule:nonzero;stroke:none;stroke-width:25;stroke-linecap:butt;stroke-linejoin:round;stroke-miterlimit:4;stroke-dasharray:none;stroke-dashoffset:0;stroke-opacity:0.47843137" />
        <rect
           style="opacity:1;fill:#585858;fill-opacity:0.72941176;fill-rule:nonzero;stroke:none;stroke-width:25;stroke-linecap:butt;stroke-linejoin:round;stroke-miterlimit:4;stroke-dasharray:none;stroke-dashoffset:0;stroke-opacity:0.47843137"
           id="rect4214"
           width="151.55771"
           height="17.398241"
           x="88.828346"
           y="621.50647" />
      </g>
    </g>
    <g
       id="g4284"
       transform="translate(16,0)">
      <g
         id="g4228"
         transform="matrix(0.8733158,0,0,0.8733158,206.68402,13.738301)">
        <g
           transform="matrix(0.31188412,0,0,0.31188412,86.591142,424.19102)"
           id="g4230">
          <path
             style="opacity:0.68141593;fill:#010101;fill-opacity:0.70196078;stroke:none"
             d="m 229.82156,0.25846411 c -41.4166,0.5398 -60.9537,48.38223989 -46.361,82.98970289 10.8612,32.784683 22.3603,65.281033 28.1351,99.092183 -24.9566,-39.01151 -66.3219,-80.46098 -117.141103,-67.24112 -52.7529,12.71342 -105.201137,66.51883 -92.5450275,123.86523 16.4298305,44.83276 74.2668275,37.58323 112.3634305,37.33651 12.3354,1.52144 60.6615,-0.13493 45.8302,6.90105 -45.065,10.4641 -92.774503,42.8844 -92.368103,93.6067 -1.1859,53.21254 34.965103,118.98274 93.606703,120.14934 49.995,-7.1906 55.0712,-68.34355 70.0723,-105.81634 6.1491,-15.9332 20.4896,-58.7148 17.5181,-18.0489 -5.6982,51.18829 28.04,105.20484 81.928,109.70924 47.1273,7.2605 116.3666,-12.2444 122.2727,-67.41814 -3.231,-52.6788 -64.4542,-69.4527 -95.9071,-102.2773 -31.8734,-23.2254 4.4907,-8.8833 24.0653,-3.7159 56.0155,18.3325 113.1576,-26.1104 120.857,-81.92803 11.0886,-40.73436 -2.7222,-107.39209 -54.8546,-107.40885 -51.3302,5.13751 -83.4454,54.67136 -129.5276,73.43438 29.8599,-35.6896 56.3008,-88.08422 27.9582,-132.535796 -23.4992,-38.62341 -70.3072,-63.8008099 -115.9025,-60.69395989 z"
             id="path4232"
             inkscape:connector-curvature="0" />
          <path
             style="fill:#ffffff;fill-opacity:0.32941176;stroke:none"
             d="m 248.43026,199.07901 c -51.2881,2.2016 -74.6527,74.15764 -35.2132,106.52409 36.4312,36.14175 104.9087,5.65148 102.4543,-45.47623 0.7476,-35.54029 -32.1682,-64.99292 -67.2411,-61.04786 z"
             id="path4234"
             inkscape:connector-curvature="0" />
        </g>
        <rect
           style="opacity:1;fill:#585858;fill-opacity:0.72941176;fill-rule:nonzero;stroke:none;stroke-width:25;stroke-linecap:butt;stroke-linejoin:round;stroke-miterlimit:4;stroke-dasharray:none;stroke-dashoffset:0;stroke-opacity:0.47843137"
           id="rect4236"
           width="151.55771"
           height="17.398241"
           x="88.828346"
           y="590.07788" />
        <rect
           y="621.50647"
           x="88.828346"
           height="17.398241"
           width="151.55771"
           id="rect4238"
           style="opacity:1;fill:#585858;fill-opacity:0.72941176;fill-rule:nonzero;stroke:none;stroke-width:25;stroke-linecap:butt;stroke-linejoin:round;stroke-miterlimit:4;stroke-dasharray:none;stroke-dashoffset:0;stroke-opacity:0.47843137" />
      </g>
      <g
         transform="matrix(0.8733158,0,0,0.8733158,206.68402,227.70067)"
         id="g4240">
        <g
           transform="matrix(0.31188412,0,0,0.31188412,86.591142,424.19102)"
           id="g4242">
          <path
             style="opacity:0.68141593;fill:#010101;fill-opacity:0.70196078;stroke:none"
             d="m 229.82156,0.25846411 c -41.4166,0.5398 -60.9537,48.38223989 -46.361,82.98970289 10.8612,32.784683 22.3603,65.281033 28.1351,99.092183 -24.9566,-39.01151 -66.3219,-80.46098 -117.141103,-67.24112 -52.7529,12.71342 -105.201137,66.51883 -92.5450275,123.86523 16.4298305,44.83276 74.2668275,37.58323 112.3634305,37.33651 12.3354,1.52144 60.6615,-0.13493 45.8302,6.90105 -45.065,10.4641 -92.774503,42.8844 -92.368103,93.6067 -1.1859,53.21254 34.965103,118.98274 93.606703,120.14934 49.995,-7.1906 55.0712,-68.34355 70.0723,-105.81634 6.1491,-15.9332 20.4896,-58.7148 17.5181,-18.0489 -5.6982,51.18829 28.04,105.20484 81.928,109.70924 47.1273,7.2605 116.3666,-12.2444 122.2727,-67.41814 -3.231,-52.6788 -64.4542,-69.4527 -95.9071,-102.2773 -31.8734,-23.2254 4.4907,-8.8833 24.0653,-3.7159 56.0155,18.3325 113.1576,-26.1104 120.857,-81.92803 11.0886,-40.73436 -2.7222,-107.39209 -54.8546,-107.40885 -51.3302,5.13751 -83.4454,54.67136 -129.5276,73.43438 29.8599,-35.6896 56.3008,-88.08422 27.9582,-132.535796 -23.4992,-38.62341 -70.3072,-63.8008099 -115.9025,-60.69395989 z"
             id="path4244"
             inkscape:connector-curvature="0" />
          <path
             style="fill:#ffffff;fill-opacity:0.32941176;stroke:none"
             d="m 248.43026,199.07901 c -51.2881,2.2016 -74.6527,74.15764 -35.2132,106.52409 36.4312,36.14175 104.9087,5.65148 102.4543,-45.47623 0.7476,-35.54029 -32.1682,-64.99292 -67.2411,-61.04786 z"
             id="path4246"
             inkscape:connector-curvature="0" />
        </g>
        <rect
           style="opacity:1;fill:#585858;fill-opacity:0.72941176;fill-rule:nonzero;stroke:none;stroke-width:25;stroke-linecap:butt;stroke-linejoin:round;stroke-miterlimit:4;stroke-dasharray:none;stroke-dashoffset:0;stroke-opacity:0.47843137"
           id="rect4248"
           width="151.55771"
           height="17.398241"
           x="88.828346"
           y="590.07788" />
        <rect
           y="621.50647"
           x="88.828346"
           height="17.398241"
           width="151.55771"
           id="rect4250"
           style="opacity:1;fill:#585858;fill-opacity:0.72941176;fill-rule:nonzero;stroke:none;stroke-width:25;stroke-linecap:butt;stroke-linejoin:round;stroke-miterlimit:4;stroke-dasharray:none;stroke-dashoffset:0;stroke-opacity:0.47843137" />
      </g>
      <g
         transform="matrix(0.8733158,0,0,0.8733158,206.68402,441.66304)"
         id="g4252">
        <g
           transform="matrix(0.31188412,0,0,0.31188412,86.591142,424.19102)"
           id="g4254">
          <path
             style="opacity:0.68141593;fill:#010101;fill-opacity:0.70196078;stroke:none"
             d="m 229.82156,0.25846411 c -41.4166,0.5398 -60.9537,48.38223989 -46.361,82.98970289 10.8612,32.784683 22.3603,65.281033 28.1351,99.092183 -24.9566,-39.01151 -66.3219,-80.46098 -117.141103,-67.24112 -52.7529,12.71342 -105.201137,66.51883 -92.5450275,123.86523 16.4298305,44.83276 74.2668275,37.58323 112.3634305,37.33651 12.3354,1.52144 60.6615,-0.13493 45.8302,6.90105 -45.065,10.4641 -92.774503,42.8844 -92.368103,93.6067 -1.1859,53.21254 34.965103,118.98274 93.606703,120.14934 49.995,-7.1906 55.0712,-68.34355 70.0723,-105.81634 6.1491,-15.9332 20.4896,-58.7148 17.5181,-18.0489 -5.6982,51.18829 28.04,105.20484 81.928,109.70924 47.1273,7.2605 116.3666,-12.2444 122.2727,-67.41814 -3.231,-52.6788 -64.4542,-69.4527 -95.9071,-102.2773 -31.8734,-23.2254 4.4907,-8.8833 24.0653,-3.7159 56.0155,18.3325 113.1576,-26.1104 120.857,-81.92803 11.0886,-40.73436 -2.7222,-107.39209 -54.8546,-107.40885 -51.3302,5.13751 -83.4454,54.67136 -129.5276,73.43438 29.8599,-35.6896 56.3008,-88.08422 27.9582,-132.535796 -23.4992,-38.62341 -70.3072,-63.8008099 -115.9025,-60.69395989 z"
             id="path4256"
             inkscape:connector-curvature="0" />
          <path
             style="fill:#ffffff;fill-opacity:0.32941176;stroke:none"
             d="m 248.43026,199.07901 c -51.2881,2.2016 -74.6527,74.15764 -35.2132,106.52409 36.4312,36.14175 104.9087,5.65148 102.4543,-45.47623 0.7476,-35.54029 -32.1682,-64.99292 -67.2411,-61.04786 z"
             id="path4258"
             inkscape:connector-curvature="0" />
        </g>
        <rect
           style="opacity:1;fill:#585858;fill-opacity:0.72941176;fill-rule:nonzero;stroke:none;stroke-width:25;stroke-linecap:butt;stroke-linejoin:round;stroke-miterlimit:4;stroke-dasharray:none;stroke-dashoffset:0;stroke-opacity:0.47843137"
           id="rect4260"
           width="151.55771"
           height="17.398241"
           x="88.828346"
           y="590.07788" />
        <rect
           y="621.50647"
           x="88.828346"
           height="17.398241"
           width="151.55771"
           id="rect4262"
           style="opacity:1;fill:#585858;fill-opacity:0.72941176;fill-rule:nonzero;stroke:none;stroke-width:25;stroke-linecap:butt;stroke-linejoin:round;stroke-miterlimit:4;stroke-dasharray:none;stroke-dashoffset:0;stroke-opacity:0.47843137" />
      </g>
    </g>
  </g>
</svg>
