<svg width="257" height="288" viewBox="0 0 257 288" fill="none" xmlns="http://www.w3.org/2000/svg">
<path d="M256.37 0H0V194.36L16.92 207.08L0 216.43V287.98H256.37V216.43L242.73 208.68L256.37 194.36V0Z" fill="black"/>
<path d="M146.35 104.59H124.29V216.43H146.35V104.59Z" fill="white"/>
<path d="M86.29 151.34C74.29 144.12 70.49 141.45 70.49 133.62C70.49 128.59 74.26 123.22 84.83 123.22C90.62 123.22 95 124.97 98.11 126.68L102.02 105.94C97.94 104.13 86.57 101.46 79.74 101.46C62.47 101.46 45.04 111.7 45.04 134.58C45.04 141.29 47.75 154.2 65.9 165.26C75.57 171.54 80.59 175.23 80.39 184.46C80.29 188.97 77.39 194.34 64.08 194.34L0 194.39V216.04L70.03 216.01C91.72 215.96 106.3 202.64 106.3 182.86C106.3 170 99.56 159.4 86.29 151.34Z" fill="white"/>
<path d="M256.37 194.36L192.76 194.3V104.51L169.24 104.52V216.43H256.37V194.36Z" fill="white"/>
<path d="M239.62 263.57C243.94 263.57 247.35 266.93 247.35 271.2C247.35 275.57 243.94 278.93 239.57 278.93C235.2 278.93 231.74 275.57 231.74 271.2C231.74 266.93 235.2 263.57 239.57 263.57H239.62ZM239.52 264.91C236.06 264.91 233.42 267.74 233.42 271.2C233.42 274.75 236.06 277.54 239.61 277.54C243.07 277.59 245.61 274.76 245.61 271.25C245.61 267.75 243.07 264.91 239.56 264.91H239.52ZM238.18 275.43H236.69V267.41C237.51 267.27 238.37 267.17 239.47 267.17C240.81 267.17 241.49 267.41 242.01 267.79C242.49 268.13 242.83 268.75 242.83 269.47C242.83 270.48 242.11 271.1 241.25 271.39V271.49C241.97 271.78 242.35 272.4 242.59 273.41C242.83 274.66 242.97 275.14 243.17 275.43H241.63C241.39 275.14 241.2 274.42 241.01 273.32C240.82 272.46 240.29 272.07 239.14 272.07H238.18V275.43V275.43ZM238.18 270.91H239.19C240.29 270.91 241.25 270.57 241.25 269.61C241.25 268.84 240.77 268.31 239.33 268.31C238.75 268.31 238.42 268.36 238.18 268.41V270.91Z" fill="white"/>
</svg>
