<?xml version="1.0" encoding="utf-8"?>
<!DOCTYPE svg PUBLIC "-//W3C//DTD SVG 1.0//EN" "http://www.w3.org/TR/2001/REC-SVG-20010904/DTD/svg10.dtd">
<svg version="1.0" xmlns="http://www.w3.org/2000/svg" width="1417px" height="472px" viewBox="0 0 1417 472" preserveAspectRatio="xMidYMid meet">
 <g fill="#1176bb">
  <path d="M0 236 l0 -236 708.50 0 708.50 0 0 236 0 236 -708.50 0 -708.50 0 0 -236z m777 169.45 c3.05 -2.10 5.60 -5.40 8 -10.20 4.45 -9.05 6.15 -17.10 9.50 -45 0.85 -6.85 1.65 -13.55 1.80 -14.85 l0.30 -2.30 3.30 -0.55 c1.85 -0.30 5.50 -0.80 8.10 -1.05 6.90 -0.75 10.50 -1.50 12.60 -2.65 4.50 -2.45 2.40 -3 -11.30 -2.75 -12.20 0.20 -11.60 0.55 -11.50 -7 0.05 -3.85 0.45 -6.85 1.40 -10.75 3.15 -13 6.25 -19.50 10.95 -22.90 1.75 -1.30 2.45 -1.45 5.60 -1.45 3.05 0 3.75 0.15 4.65 1.15 2.10 2.20 2.60 4.45 2.60 11.20 l0.05 6.40 1 -1.25 c3.15 -3.75 5.20 -10.75 4.35 -14.75 -0.65 -3 -3.10 -6.15 -6.15 -7.90 -5 -2.80 -11.80 -0.95 -17.35 4.75 -5.60 5.70 -9.50 15.70 -11.90 30.40 -1.60 9.95 -1.75 10.45 -3.75 11.30 -2.80 1.15 -19.75 0.95 -25.45 -0.30 -9.95 -2.20 -17.40 -5.65 -22.10 -10.20 -6.75 -6.60 -9.50 -6.80 -17.80 -1.50 -5.35 3.45 -9.60 7.80 -16.25 16.75 -7.55 10.15 -12.30 22.95 -10.70 28.90 1.15 4.40 4.75 9.25 8.45 11.40 2.05 1.20 2.45 1.25 6.75 1 11.15 -0.70 18.65 -4 26.05 -11.60 5.80 -5.95 10.40 -13.85 12.15 -20.90 0.70 -2.95 0.75 -3.85 0.15 -6.50 -0.35 -1.70 -0.75 -4.05 -0.85 -5.20 -0.25 -2.10 -0.20 -2.15 1.20 -2.15 0.80 0 2.40 0.45 3.55 1 6.35 3.05 17.30 5.50 28.35 6.30 6 0.45 6.25 0.60 6.25 3.85 0 6.65 -3.05 32.85 -5.20 44.85 -1.85 10.20 -4.15 15.35 -8.15 18 -1.70 1.15 -2.25 1.25 -6.95 1.15 -5 -0.10 -5.10 -0.05 -4.80 1 0.40 1.65 3 4.70 4.80 5.60 2.20 1.10 5.50 0.60 8.30 -1.30z m-356.55 -21.05 c8.60 -4.05 23.35 -15.55 34.55 -26.85 5.65 -5.70 14.45 -16.25 17.30 -20.75 1.30 -2.05 1.65 -2.25 3.35 -2.30 l1.95 0 -0.45 4.65 c-1.25 14.40 0.65 23.25 6.20 28.75 5.10 5.05 10.75 4.80 21.65 -1 5 -2.65 12.65 -7.70 16.55 -10.95 1.75 -1.45 2.80 -1.95 4.10 -1.95 1.60 0 1.75 0.15 2.05 1.75 0.95 4.85 4 9.45 8.10 12.05 10.85 6.95 27.25 2.45 45.45 -12.50 3.80 -3.10 14.65 -14.10 16.25 -16.50 1.05 -1.50 1.55 -1.80 3.05 -1.80 1.60 0 2.05 0.30 4.10 2.95 1.25 1.65 4.50 4.75 7.20 6.90 10.05 8 11.65 10 11.65 15.05 0 7.50 -4.80 12.75 -12.35 13.45 -4.85 0.45 -7.85 3.25 -6.70 6.30 0.75 2 2.70 3.05 4.90 2.60 9.25 -1.65 20.65 -12.85 21.95 -21.55 0.80 -5.50 -3.20 -11.40 -13.30 -19.65 -1.80 -1.45 -4.75 -4.20 -6.60 -6.10 -3.05 -3.15 -3.40 -3.70 -3.40 -5.55 0 -1.75 0.30 -2.30 2.15 -4 7 -6.60 10 -9.90 11.05 -12 1.35 -2.75 1.20 -4.10 -0.55 -5.30 -1.20 -0.75 -1.40 -0.70 -3.35 0.30 -2.80 1.50 -7.45 6.05 -10.55 10.40 -2.35 3.25 -4.20 7.30 -4.95 10.75 -0.20 0.85 -2.35 3.30 -5.65 6.50 -14.25 13.60 -26.15 21.50 -36.80 24.45 -2.70 0.75 -5.10 1 -9.85 1 -5.50 0 -6.55 -0.15 -8.75 -1.20 -4.65 -2.15 -6.75 -5.70 -6.75 -11.30 l0.05 -2.75 3.35 -2.25 c7.95 -5.40 20.15 -16.65 23.20 -21.50 3.70 -5.85 4.50 -10.50 2.55 -14.55 -2.50 -4.95 -6.50 -7.30 -10.65 -6.20 -7.75 2 -14.55 8.70 -20 19.60 -2.95 5.95 -4.35 11.30 -5.90 22.65 l-0.35 2.75 -5.25 3.90 c-6.65 4.95 -13.35 8.95 -17.35 10.30 -3.80 1.25 -11.40 1.45 -13.55 0.35 -5.30 -2.75 -6.35 -15.30 -3.35 -41.30 0.75 -6.65 1.90 -11.55 5.45 -23.35 2.65 -8.70 4.80 -17.35 4.80 -19.25 0 -0.75 -0.50 -1.95 -1.15 -2.70 -1.15 -1.30 -1.20 -1.30 -2.75 -0.50 -3.45 1.75 -6.05 6.90 -8.35 16.45 -1.60 6.75 -3.75 17.60 -4.55 23.10 -0.40 2.85 -0.95 4.15 -4.10 9 -6 9.35 -13.15 17.85 -24.40 29.15 -7.80 7.85 -8.15 8.10 -10.15 8.10 -1.80 0 -2.05 -0.15 -2.35 -1.35 -0.65 -2.55 -3.50 -7.90 -7.55 -13.95 -6.15 -9.15 -6.80 -10.60 -7.05 -16 -0.25 -5.35 0.10 -6.25 3.95 -10.25 3.25 -3.45 6.50 -8.30 6.10 -9.25 -0.35 -0.95 -2.75 -2.20 -4.20 -2.20 -1.40 0 -7.25 5.85 -9.90 10 -2.55 3.95 -4.55 10.20 -4.55 14.35 l0 3.05 -7.75 7.55 c-16.55 16.10 -26.15 22.05 -35.45 22.05 -4.95 0 -6.10 -0.65 -7.70 -4.45 -2.95 -6.80 -3.25 -20.50 -0.85 -35.95 0.90 -5.95 1.10 -8.40 0.75 -9.15 -0.65 -1.15 -0.60 -1.15 -2.95 0.05 -2.45 1.25 -5.25 4.45 -5.95 6.85 -1.50 5.25 -2.60 18.45 -2.05 24.90 1.10 13 4.65 21.15 10.85 25.15 6.65 4.20 14.45 1.95 26.45 -7.75 6.65 -5.40 13.85 -12.80 20.80 -21.25 3.35 -4.15 3.65 -4.40 5.45 -4.40 1.05 0 1.90 0.25 1.90 0.55 0 0.30 1.05 2.05 2.35 3.90 10.05 14.20 10.95 15.90 10.50 20.55 -0.45 5.15 -2.25 6.95 -9.55 9.70 -4.90 1.85 -7.90 3.60 -9.15 5.40 -1 1.40 -1.05 1.70 -0.35 2.95 0.70 1.35 2.50 2.95 3.35 2.95 0.25 0 1.95 -0.70 3.80 -1.60z m738.30 -3.60 c3.60 -1.75 8.75 -4.45 11.50 -6 7.85 -4.50 24.80 -15.20 30 -18.90 3.25 -2.35 5.15 -3.40 6.20 -3.40 1.35 0 1.50 0.20 2.10 2.65 1.40 6 3.95 9.90 8.25 12.65 11.60 7.45 29.85 1.65 48.90 -15.55 4.20 -3.80 5.55 -4.75 6.75 -4.75 1.85 0 1.95 0.70 0.80 5.75 -1.30 5.45 -1.10 8.30 0.75 12.10 2.10 4.20 5.10 6.35 8.35 5.95 6 -0.80 18.70 -10.40 25.50 -19.40 1.60 -2.05 2.10 -2.40 3.65 -2.40 l1.75 0 1.10 4.20 c2.70 10.55 8.20 16.80 14.75 16.80 3.60 0 9.60 -3.25 13.20 -7.15 2.70 -2.90 5.45 -7.25 4.95 -7.80 -0.15 -0.10 -1.55 1.15 -3.20 2.80 -3.80 3.90 -5.95 4.65 -12.95 4.65 l-5.20 0 -1.90 -1.90 c-3.20 -3.15 -4.10 -7 -4.40 -18.40 -0.20 -8.85 -0.10 -10 1.15 -16.60 1.25 -6.45 1.30 -7.20 0.60 -8 -0.45 -0.45 -1.25 -1.95 -1.80 -3.25 -0.55 -1.30 -1.75 -3.05 -2.60 -3.80 -1.40 -1.30 -1.75 -1.40 -3.05 -0.95 -0.90 0.30 -2.85 0.40 -4.80 0.20 -1.85 -0.20 -3.85 -0.40 -4.50 -0.40 -1.30 0 -6.65 3.40 -10.05 6.40 -3.30 2.90 -9.50 10.55 -12.15 15.05 -2.15 3.65 -3.60 5.25 -11.15 12.20 -9.90 9.05 -21.95 16.50 -30.80 18.95 -2.80 0.75 -5.15 1 -9.95 1 -5.55 0 -6.55 -0.15 -8.75 -1.20 -4.45 -2.10 -6.35 -5.05 -6.60 -10.30 l-0.20 -3.75 3.40 -2.25 c3.75 -2.50 11.15 -8.60 16.20 -13.40 5.80 -5.45 9.30 -10.75 10.45 -15.80 0.70 -3.05 0 -5.70 -2.35 -9.15 -2.15 -3.25 -5.55 -4.80 -8.75 -4.05 -5.50 1.20 -11.45 5.80 -15.85 12.15 -6.05 8.75 -8.70 16.30 -10.30 29.25 -0.25 2.20 -0.40 2.30 -4.40 4.80 -2.25 1.40 -6.55 4.10 -9.60 6 -3 1.90 -6.65 4.10 -8.05 4.85 -4.05 2.15 -6.70 1.70 -6.70 -1.15 0 -2.15 -3.60 -8.90 -7.75 -14.50 -4.95 -6.65 -6.30 -9.65 -6.60 -14.55 l-0.30 -3.80 3.80 -3.05 c7.10 -5.85 9.10 -9.10 7.55 -12.35 -1.70 -3.60 -4.45 -3.30 -9.05 0.85 -4.90 4.50 -8.65 12.70 -8.65 18.90 0 4.45 1.70 8.35 7.40 16.85 2.80 4.15 5.30 8.15 5.60 8.90 0.55 1.50 0.65 5.80 0.20 8.20 -0.70 3.45 -4 5.35 -13.40 7.75 -5.55 1.40 -8.15 2.70 -10.20 5.05 -2.25 2.50 -2.25 3.70 -0.20 5.55 1.90 1.70 3.50 1.30 11.35 -2.50z m-1013 -4.95 c3.20 -3.30 5.25 -6.45 13.95 -21.30 7.85 -13.45 11.30 -18.60 16.30 -24.40 3.10 -3.65 3.75 -4.15 5.20 -4.15 1 0 2 0.40 2.55 1 0.85 0.95 0.90 1.80 0.55 11.15 -0.35 11.55 0.15 15.70 2.65 20.10 1.60 2.80 5.20 5.85 8.05 6.70 6.35 1.90 16.65 -1.60 27.15 -9.25 2.90 -2.10 4.85 -3.20 5.75 -3.20 1.25 0 1.50 0.25 2 2.40 3.15 12.15 13.05 17.80 25.60 14.65 10.85 -2.70 22.85 -10.80 30.40 -20.45 2.25 -2.90 3.80 -6.60 2.75 -6.60 -0.25 0 -2.20 1.75 -4.45 3.90 -7.60 7.20 -16.15 12.45 -23.75 14.60 -5.10 1.40 -14.65 1.45 -17.35 0.05 -2.30 -1.20 -3.85 -2.80 -4.80 -5.10 -1 -2.40 -1.55 -7.55 -0.90 -8.80 0.30 -0.50 2.40 -2.10 4.70 -3.50 10.25 -6.30 19.40 -14.30 23.95 -21.10 4.25 -6.30 4.30 -10.70 0.25 -14.80 -3.90 -3.90 -8.40 -4.20 -14.95 -1.05 -11.05 5.30 -21 21.15 -22.15 35.30 -0.45 5.25 -0.35 5.15 -4.90 7.95 -8.35 5.10 -14.60 7.05 -23 7.05 l-5.45 0 -1.80 -1.90 c-2.75 -2.90 -3.55 -5.95 -3.55 -13.80 0 -3.60 0.35 -9.60 0.80 -13.40 0.70 -5.70 0.75 -7.20 0.20 -9.10 -0.35 -1.25 -0.95 -2.55 -1.30 -2.85 -1.60 -1.35 -8.20 2.55 -13.35 7.90 -4 4.15 -8.45 10.25 -15.60 21.50 -7.80 12.20 -10.35 15.15 -12.95 15.15 -2.15 0 -2.30 -0.45 -2.30 -6.40 0 -10.55 2.75 -29.75 7.45 -52.60 1.10 -5.35 2.55 -12.95 3.25 -16.85 1.15 -6.65 1.20 -7.30 0.50 -9.65 -1 -3.30 -2.20 -3.95 -4.50 -2.40 -2.35 1.60 -3.05 3.35 -3.65 9.15 -0.30 2.75 -1.05 8.50 -1.60 12.80 l-1.05 7.80 -5.60 2.80 c-3.05 1.55 -6.80 3.25 -8.30 3.80 -6.70 2.25 -22.45 5.05 -28.60 5.05 l-3.80 0 -0.35 -1.50 c-0.45 -2 0.10 -5.95 1.75 -13.50 2.25 -10.15 3.65 -18.35 3.35 -19.60 -0.35 -1.35 -2.10 -3.40 -2.90 -3.40 -1.15 0 -3.90 3.35 -4.15 5.05 -0.85 5.85 -4 23.10 -4.60 25.40 -1 3.75 -3.05 7.95 -4.35 8.80 -1.30 0.80 -10.60 1.75 -17.60 1.75 -5.65 0 -7.90 0.50 -9.60 2.10 -1.55 1.45 -1.45 2.05 0.65 4.40 l1.85 2.05 11.10 -0.35 c6.10 -0.20 11.70 -0.20 12.40 0 1.15 0.25 1.35 0.60 1.35 2.20 0 2.30 -0.95 7.85 -3.75 21.85 -3.40 16.80 -3.45 21.75 -0.45 25 l1.20 1.30 2.25 -1.60 c1.25 -0.90 2.35 -2.10 2.50 -2.65 0.10 -0.60 0.30 -4.40 0.45 -8.55 0.20 -4.10 0.60 -9.40 1 -11.75 0.40 -2.35 1.30 -8.20 2.05 -13 0.75 -4.80 1.75 -10.20 2.20 -12 l0.80 -3.25 5.25 -0.55 c14.20 -1.55 31.10 -6.60 36.80 -10.95 1.05 -0.80 2.30 -1.25 3.40 -1.25 1.70 0 1.80 0.10 1.80 1.65 0 0.85 -0.50 4.55 -1.05 8.10 -4.55 29.25 -5.25 36 -4.75 46.75 0.35 9.35 0.65 10.95 2 11.50 1.90 0.80 2.45 0.55 5.05 -2.15z m801.15 1.85 c2.40 -1.40 6.30 -7 13.15 -18.75 8.10 -13.95 13.75 -22.60 18.20 -27.95 3.65 -4.40 4.45 -5 6.65 -5 2.50 0 2.70 1.10 2.50 13.30 -0.10 7.75 0.05 11.75 0.50 13.75 0.95 4.20 3.35 7.85 6.70 10.15 2.45 1.65 3.30 1.95 6.30 2.20 6.55 0.45 15.25 -3.10 24.95 -10.25 2.35 -1.70 4.15 -2.65 5.05 -2.65 1.25 0 1.45 0.25 2 2.40 1.65 6.40 5.25 11.15 10.50 13.70 3.15 1.55 3.65 1.65 8.60 1.65 5.95 0 9.30 -0.90 16.15 -4.35 9.30 -4.60 20.10 -14.20 22.90 -20.15 2.05 -4.35 1.25 -4.25 -3.90 0.65 -7.65 7.30 -16.05 12.45 -23.65 14.55 -5.25 1.45 -14.65 1.50 -17.50 0.05 -3.50 -1.80 -5.25 -4.85 -5.80 -10.20 -0.40 -3.85 -0.55 -3.70 7.80 -9.15 9.90 -6.40 16.70 -12.65 21.10 -19.20 4.20 -6.35 4.25 -10.60 0.20 -14.70 -3.90 -3.90 -8.60 -4.25 -15.05 -1.05 -11.40 5.65 -21.10 21.55 -22.10 36.20 l-0.30 4.15 -3.05 2 c-3.70 2.45 -8.90 5 -13.30 6.50 -2.55 0.90 -4.65 1.20 -9.90 1.35 l-6.65 0.20 -1.85 -1.95 c-2.80 -2.90 -3.60 -6.15 -3.60 -14.15 0 -3.70 0.35 -9.50 0.80 -12.95 0.85 -6.65 0.50 -10.75 -1.05 -12.05 -1.60 -1.30 -8.10 2.35 -12.90 7.30 -3.05 3.10 -10.25 12.70 -13.65 18.10 -5.95 9.55 -9.10 14.10 -12.40 17.95 -1.20 1.40 -4.50 1.60 -5 0.35 -0.45 -1.20 -0.35 -9.55 0.20 -15.25 1.20 -12.25 2.95 -22.80 6.95 -42.95 4.75 -23.65 5 -26.30 2.50 -28.90 -1.30 -1.45 -1.60 -1.40 -3.90 0.65 -2.30 2.10 -2.30 2.05 -3.25 10.75 -0.45 3.70 -1.15 9.35 -1.60 12.50 l-0.85 5.80 -4.80 2.55 c-2.65 1.40 -6.35 3.10 -8.30 3.80 -7 2.45 -22.75 5.35 -29.35 5.35 l-3.80 0 -0.35 -1.50 c-0.45 -2 0.10 -6 1.75 -13.50 0.75 -3.45 1.90 -9.15 2.55 -12.65 1.15 -6.25 1.15 -6.40 0.25 -8.10 -1.15 -2.10 -2.10 -2.50 -3.60 -1.50 -2.10 1.40 -2.75 3.05 -4 10.85 -1.60 9.95 -3.05 17.55 -3.95 20.60 -0.90 3 -2.95 6.60 -4.15 7.25 -1.20 0.65 -11.25 1.55 -17.35 1.55 -5.80 0 -8.15 0.55 -9.70 2.20 -1.45 1.50 -1.10 2.70 1.25 4.80 l1.75 1.50 10.90 -0.30 c6 -0.20 11.50 -0.20 12.20 0 1.15 0.25 1.35 0.60 1.35 2.20 0 2.30 -1.30 9.75 -3.95 22.85 -3.10 15.10 -3.20 20.20 -0.60 23.70 1.15 1.50 2.70 1.20 4.90 -0.85 l1.50 -1.45 0.30 -8.20 c0.20 -4.50 0.65 -10.10 1.05 -12.45 0.35 -2.35 1.30 -8.20 2.05 -13 0.75 -4.80 1.75 -10.20 2.20 -12 l0.80 -3.25 5.25 -0.55 c13.60 -1.50 29.25 -6 35.70 -10.25 1.95 -1.30 3.50 -1.95 4.60 -1.95 1.60 0 1.70 0.10 1.70 1.65 0 0.85 -0.45 4.40 -1 7.85 -4.55 29.10 -5.25 36 -4.85 47 0.35 8.45 0.90 11.30 2.25 11.65 1.45 0.40 1.65 0.35 3 -0.45z m-573.10 -91.35 c2 -2.20 3.05 -5.35 2.40 -7.25 -0.55 -1.60 -3.80 -2.95 -5.80 -2.45 -1.95 0.50 -6.20 4.60 -7.45 7.15 -0.95 2.05 -1 2.35 -0.30 3.05 1.05 1.05 3.65 1.60 6.80 1.45 2.40 -0.15 2.90 -0.35 4.35 -1.95z m4.45 -44.95 c0.75 -0.60 2.20 -2.90 3.25 -5.10 2.65 -5.75 4.50 -9.75 5.50 -12.05 0.85 -2 12.90 -28.15 18.60 -40.50 3.25 -6.95 5.10 -11.05 6.85 -14.85 1.05 -2.35 1.15 -2.40 3.25 -2.40 2.75 0 29.75 -1.25 47.80 -2.25 54.90 -3 107.50 -7.15 137 -10.80 10.40 -1.30 27.45 -1.80 35.10 -1 25.85 2.70 45.75 14.80 56.05 34.05 1.20 2.35 2.65 5.40 3.15 6.75 1 2.85 2.50 4.75 3.70 4.75 1.20 0 2.25 -1.35 3.50 -4.50 5.65 -14.45 17.15 -26.55 32 -33.65 10.90 -5.20 21 -7.30 36.50 -7.70 10.40 -0.25 14.05 -0.05 30.75 1.85 4.95 0.60 11.15 1.25 13.75 1.50 2.60 0.25 6.90 0.70 9.50 0.95 13.80 1.45 54 4.50 78.75 6.05 28.45 1.75 72.55 4 78 4 l2.10 0 16.90 36.90 c10.50 22.95 17.30 37.25 18.10 38 l1.20 1.10 150.10 -0.10 150.10 -0.15 0 -3.25 0 -3.25 -149.30 -0.15 -149.25 -0.10 -0.95 -2.15 c-1.10 -2.50 -4.05 -8.90 -9 -19.60 -1.85 -3.95 -14.90 -32.45 -16.85 -36.75 -0.55 -1.25 -1.80 -3.95 -2.80 -6 -0.95 -2.05 -2.25 -4.85 -2.85 -6.25 -2.05 -4.55 -1.55 -4.40 -16.65 -5.10 -73.40 -3.40 -132.95 -7.60 -173.10 -12.20 -15.80 -1.80 -17.65 -1.95 -25 -1.95 -26.40 0 -48.50 8.75 -63.95 25.30 -3.35 3.55 -9.55 12.20 -9.55 13.25 0 0.25 -0.85 0.45 -1.85 0.40 -1.85 0 -2 -0.20 -4.65 -4.35 -3.85 -6.10 -14.20 -16.45 -20.50 -20.60 -14.25 -9.30 -31.25 -14 -50.65 -14 -7.80 0 -8.75 0.10 -27.60 2.20 -18.90 2.15 -54 5.30 -58.85 5.30 l-2.40 0 0 -1.75 c0 -0.95 0.20 -1.75 0.45 -1.75 0.75 0 7 -13.05 8.55 -18 3.60 -11.30 4.70 -24.15 3 -35 l-0.75 -4.75 -0.30 9.50 c-0.40 12.85 -2.30 21.15 -7.35 32.25 -2.85 6.35 -10.25 17.40 -13.25 19.90 -0.50 0.45 -6.65 1.05 -19.20 1.85 -27.80 1.80 -33.55 2.15 -56.90 3.25 -39.05 1.90 -36.40 1.70 -37.90 2.75 -0.70 0.55 -1.45 1.45 -1.65 1.95 -0.15 0.50 -1.15 2.75 -2.20 5 -1.05 2.25 -4.25 9.25 -7.15 15.55 -2.90 6.35 -6.05 13.20 -7 15.25 -0.95 2.05 -4.10 8.95 -7 15.25 -2.90 6.35 -6.25 13.70 -7.50 16.40 l-2.30 4.85 -149 0 -149.05 0 0 3.50 0 3.50 149.70 0 149.65 0 1.40 -1.10z m190.95 -114.70 c0.15 -0.45 0.30 -1.55 0.30 -2.50 0 -1.35 0.20 -1.70 1 -1.70 1.20 0 1.25 -0.60 0.25 -5.25 -0.90 -4.25 -0.95 -6.10 -0.10 -6.40 0.40 -0.15 -0.10 -1.25 -1.50 -3.30 -2.15 -3.10 -2.85 -6.05 -1.50 -6.05 0.70 -0.05 -4.25 -4.70 -6.25 -5.90 -1 -0.60 -1.40 -1.20 -1.40 -2.20 0 -1.15 -0.50 -1.75 -2.75 -3.20 -2.40 -1.65 -2.75 -2.05 -2.75 -3.50 0 -1.60 0.10 -1.70 1.70 -1.70 2 0 4.55 1 8.35 3.30 1.55 0.95 3.50 1.70 4.30 1.70 1.50 0 3.15 1.40 4.90 4.15 0.60 0.95 1.30 1.35 2.25 1.35 1.60 0 1.90 0.30 3.75 3.90 1.05 2.05 1.60 2.60 2.55 2.60 1.05 0 1.20 -0.25 1.20 -1.90 0 -1.55 -0.40 -2.30 -2.45 -4.45 -1.95 -2.05 -2.50 -3.05 -2.65 -4.50 -0.15 -1.80 -0.35 -2 -3.25 -3.40 -2.40 -1.15 -3.15 -1.75 -3.15 -2.55 0 -0.95 -0.60 -1.25 -3.90 -2.15 -2.15 -0.60 -4.40 -1.05 -5 -1.05 -0.75 0 -1.10 -0.30 -1.10 -0.95 0 -1.05 -2.45 -1.55 -8.05 -1.55 l-3.45 0 0 -1.75 c0 -1.50 0.20 -1.80 1.40 -2.05 0.75 -0.15 2.15 -0.50 3.10 -0.75 0.95 -0.30 4.30 -0.65 7.40 -0.80 4.35 -0.25 5.60 -0.45 5.60 -1 0 -0.60 0.90 -0.70 4.75 -0.55 2.60 0.10 4.75 0 4.75 -0.20 0 -0.65 4.45 -0.45 6.15 0.25 1.15 0.50 2.65 0.60 5.10 0.40 l3.50 -0.35 -1.60 -0.95 c-1.20 -0.75 -1.65 -1.35 -1.65 -2.30 0 -1.25 -0.20 -1.40 -3.15 -1.90 -1.75 -0.30 -4 -0.55 -5 -0.55 -1.55 0 -1.85 -0.15 -1.85 -1.05 0 -1 -0.15 -1.05 -4.55 -0.70 -3.50 0.30 -4.65 0.20 -4.95 -0.25 -0.30 -0.50 -1.05 -0.40 -3.45 0.50 -1.70 0.60 -3.20 1.35 -3.35 1.55 -0.15 0.25 -1.05 0.45 -2.05 0.45 -1.90 0 -6.50 2.90 -9.35 5.95 -1.10 1.15 -1.95 1.55 -3.15 1.55 -1.50 0 -1.65 -0.15 -1.65 -1.55 0 -1.70 0.60 -3.05 2.30 -5.10 0.65 -0.80 1.20 -2.05 1.20 -2.85 0 -1 0.65 -1.95 2.50 -3.65 1.40 -1.30 2.50 -2.70 2.50 -3.30 0 -0.65 0.95 -1.55 3 -2.85 2.25 -1.40 3 -2.15 3 -3 0 -0.95 0.60 -1.35 3.75 -2.55 2.90 -1.10 3.75 -1.60 3.75 -2.40 0 -0.55 0.75 -1.55 1.65 -2.20 l1.60 -1.15 -1.50 0.40 c-0.80 0.20 -2.50 0.45 -3.75 0.50 -1.25 0.10 -2.35 0.15 -2.50 0.15 -0.15 0.05 -1.30 0.95 -2.50 2.05 -1.75 1.60 -2.60 2 -4.10 2 -1.70 0 -2.10 0.25 -3.50 2.25 -0.90 1.25 -2 2.25 -2.50 2.25 -1.10 0 -2.55 2.20 -4 6.15 -0.70 1.95 -1.30 2.85 -1.90 2.85 -0.70 0 -0.90 0.70 -1.15 4.15 -0.20 2.25 -0.35 5.50 -0.35 7.25 l0 3.10 -1.60 0 c-1.50 0 -1.85 -0.30 -3.80 -3.70 -1.15 -2 -2.85 -4.40 -3.75 -5.35 -1.45 -1.50 -1.90 -1.65 -4 -1.50 -1.45 0.05 -2.35 -0.10 -2.35 -0.40 0 -0.30 -0.90 -1.45 -2 -2.50 -1.80 -1.75 -2.20 -1.95 -4 -1.70 -1.45 0.20 -2.55 -0.05 -4.55 -1.05 -2.90 -1.40 -3.95 -1.60 -3.95 -0.75 0 0.45 -1 0.50 -3.35 0.30 -4.05 -0.40 -5.65 -0.05 -5.65 1.15 0 0.55 -0.70 1.15 -1.85 1.60 l-1.90 0.70 3.15 -0.20 c2.55 -0.20 3.10 -0.10 3.10 0.55 0 0.70 0.60 0.75 4.25 0.50 3.60 -0.25 4.25 -0.20 4.25 0.45 0 0.60 0.75 0.85 3.40 1 2.20 0.10 3.70 0.45 4.20 0.95 0.45 0.40 2.05 1.05 3.60 1.45 2.05 0.50 2.80 0.90 2.80 1.50 0 0.55 1.05 1.40 2.90 2.30 2.65 1.35 2.85 1.60 3 3.35 0.15 1.75 0.10 1.85 -1.25 1.85 -0.75 -0.05 -2.85 -0.35 -4.65 -0.75 -4 -0.85 -7.50 -0.50 -7.50 0.75 0 0.70 -0.60 0.95 -2.85 1.20 -4.40 0.50 -6.70 1.35 -7.15 2.60 -0.25 0.60 -0.95 1.20 -1.60 1.35 -0.65 0.20 -2.20 1 -3.50 1.80 -1.75 1.10 -2.40 1.85 -2.40 2.70 0 0.65 -0.65 1.75 -1.40 2.50 -1.15 1.10 -1.35 1.70 -1.20 3.10 0.35 2.75 1.95 2.35 5.40 -1.25 2.40 -2.55 3.10 -3 4.55 -3 1 0 2.30 -0.45 3 -1 0.70 -0.55 1.95 -1 2.75 -1 0.85 0 2.10 -0.40 2.80 -0.90 1.75 -1.20 4.35 -2.10 6.15 -2.10 1.30 0 1.45 0.15 1.45 1.70 0 1.40 -0.40 2 -2.25 3.50 -1.80 1.50 -2.25 2.20 -2.30 3.45 0 1.25 -0.45 2 -2.15 3.35 -3 2.45 -4.80 4.95 -4.80 6.55 0 0.75 -0.55 2.50 -1.25 3.85 -1.50 2.95 -1.50 3.10 -0.45 3.10 0.75 0 0.80 0.65 0.45 6 -0.35 5.85 -0.30 6 0.70 6 0.75 0 1.10 0.45 1.35 1.75 0.35 1.85 1.20 2.40 1.20 0.80 0 -1.55 0.55 -2.55 1.45 -2.55 0.70 0 0.80 -0.70 0.65 -5.75 l-0.15 -5.75 1.45 0 c1.25 0 1.50 -0.25 1.80 -1.50 0.55 -3 2.40 -6.50 3.35 -6.50 0.65 0 1.50 -1.30 3.15 -4.75 1.85 -3.95 2.45 -4.75 3.40 -4.75 0.75 -0.05 1.60 -0.70 2.50 -2 2.05 -2.95 3.75 -3.65 8.10 -3.25 3.60 0.35 3.65 0.35 4.85 2.45 0.70 1.10 1.55 2.80 1.90 3.70 0.50 1.15 1 1.60 1.85 1.60 1.35 0 2.70 1.75 4.45 5.75 1 2.25 1.45 2.75 2.45 2.75 1.35 0 1.55 0.50 2.10 5.40 0.30 2.85 0.45 3.10 1.50 3.10 1.20 0 1.20 0.05 1.20 5.50 0 5.05 0.10 5.50 0.95 5.50 0.95 0 1.55 1.25 1.55 3.40 0 1.25 1.25 1.50 1.70 0.30z"/>
  <path d="M708.35 362.80 c-2.80 -2.25 -3.35 -3.65 -3.35 -8.30 0 -9.80 2.70 -15.70 12.95 -28.50 5.80 -7.30 6.70 -8 10.20 -8 2 0 3.75 0.35 5.50 1.15 1.45 0.65 3.50 1.35 4.60 1.50 3.55 0.55 5.55 4.45 6.10 11.60 0.50 6.95 -1.05 13 -4.45 17.50 -1.90 2.50 -8.50 8.90 -10.75 10.40 -4.40 3 -7.35 3.85 -13.65 3.80 -5.25 0 -5.85 -0.10 -7.15 -1.15z"/>
  <path d="M534.50 338.10 c0 -6.95 4.95 -18.40 10.45 -24.25 2.50 -2.65 4 -3.35 7.45 -3.35 4 0 4.60 0.90 4.60 6.60 0 3.70 -0.15 4.45 -1.55 6.85 -3 5.20 -16.30 16.55 -19.40 16.55 -1.50 0 -1.55 -0.05 -1.55 -2.40z"/>
  <path d="M1281.85 363.10 c-2.15 -2.35 -2.45 -8.15 -0.80 -14.10 2.05 -7.50 11.75 -25.10 16.30 -29.65 3 -3.05 6 -4.35 10.05 -4.35 2.90 0 3.60 0.15 4.45 1.15 2.50 2.70 2.95 10.80 0.90 17.15 -3.35 10.35 -10.20 20.60 -18.25 27.30 -3.80 3.15 -4.45 3.40 -8.40 3.40 -2.65 0 -3.65 -0.20 -4.25 -0.90z"/>
  <path d="M1215.50 338.10 c0 -8.35 7.85 -23.90 13.55 -26.85 0.75 -0.40 2.75 -0.75 4.40 -0.75 4.05 0 4.55 0.75 4.55 6.50 0 3.80 -0.15 4.50 -1.55 6.90 -1.95 3.45 -6.35 7.85 -12.80 12.75 -3.80 2.85 -5.45 3.85 -6.60 3.85 -1.50 0 -1.55 -0.05 -1.55 -2.40z"/>
  <path d="M237.15 336.40 c0.70 -8.90 6.25 -19.10 12.65 -23.30 4.40 -2.95 10.70 -2.55 11.50 0.70 0.55 2.25 -0.15 6.65 -1.50 8.85 -1.60 2.80 -7.75 8.65 -14.20 13.50 -4.20 3.15 -5.50 3.85 -6.95 3.85 l-1.80 0 0.30 -3.60z"/>
  <path d="M1039.50 338.65 c0.05 -4.50 3.95 -15.10 7.20 -19.55 3.80 -5.15 6.90 -7.30 11.20 -7.90 3.05 -0.40 5.20 0.35 6.10 2.05 0.85 1.55 0.40 6.50 -0.75 8.75 -1.25 2.45 -5.30 6.60 -10.75 11 -7.70 6.25 -8.95 7 -11.10 7 -1.75 0 -1.90 -0.10 -1.90 -1.35z"/>
 </g>
 <g fill="#ffe17f">
  <path d="M767.20 408.25 c-0.90 -0.45 -2.30 -1.75 -3.20 -2.85 -1.30 -1.60 -1.65 -2.45 -1.70 -4.55 l-0.05 -2.60 2 0.10 c1.10 0 3.35 0.15 5.05 0.25 2.55 0.10 3.30 -0.05 4.90 -1.10 2.25 -1.50 4.40 -4.65 5.85 -8.45 1.95 -5.25 4.95 -25.05 6.75 -44.50 0.80 -8.50 0.80 -9.25 0.05 -9.80 -0.45 -0.35 -2.90 -0.75 -5.45 -0.95 -11.05 -0.75 -22.15 -3.20 -28.45 -6.25 l-2 -1 0.35 1.10 c2.10 6.60 1.45 12.35 -2.30 20.20 -2.60 5.45 -5.15 9.15 -9.30 13.40 -7.80 7.95 -15.20 11.10 -27.55 11.60 -5.85 0.25 -6.15 0.25 -8.30 -1 -4.60 -2.70 -8.45 -8.85 -8.75 -14.15 -0.55 -8.05 3.75 -19.30 11.05 -29.15 6.65 -8.95 10.90 -13.30 16.25 -16.75 4.55 -2.90 7.05 -3.80 10.65 -3.80 3.85 0 5.70 1 10.15 5.30 4.70 4.55 12.15 8 22.10 10.20 5.65 1.25 19.70 1.45 22.45 0.30 2 -0.85 2.15 -1.35 3.75 -11.30 2.40 -14.70 6.30 -24.70 11.90 -30.40 4.20 -4.35 7.45 -5.80 13.35 -6 4.15 -0.10 4.70 0 7 1.25 5.20 2.90 7.40 8.15 6.30 14.90 -1.05 6.45 -5.55 13.75 -8.40 13.75 -1 0 -1.20 -0.15 -0.85 -0.85 0.65 -1.55 0.85 -12.65 0.25 -14.70 -0.30 -1.05 -1.15 -2.60 -1.85 -3.45 -3.30 -3.90 -10.20 0.05 -13.85 8 -2.75 6.10 -5.90 18.60 -6 24.10 -0.15 5.85 -0.50 5.70 11.85 5.50 13.85 -0.25 16.30 0.50 13.05 4.05 -2.35 2.50 -5.15 3.30 -14.75 4.35 -2.60 0.25 -6.25 0.75 -8.10 1.05 l-3.30 0.55 -0.30 2.30 c-0.15 1.30 -0.95 8 -1.80 14.85 -3.35 27.90 -5.05 35.95 -9.50 45 -2.40 4.85 -4.95 8.10 -8.10 10.25 -2.05 1.40 -2.90 1.70 -6 1.85 -2.70 0.15 -4.05 0 -5.20 -0.60z m-44.55 -46.95 c1.60 -0.70 3.85 -1.85 5 -2.65 2.25 -1.50 8.85 -7.90 10.75 -10.40 4.30 -5.70 5.65 -13.80 3.35 -20.75 -1.10 -3.35 -2.65 -5 -5 -5.35 -1.10 -0.15 -3.15 -0.85 -4.60 -1.50 -4.90 -2.20 -5.95 -1.65 -12.70 6.85 -9.75 12.15 -12.90 18.80 -12.95 27 0 3 0.90 4.80 3.35 6.80 2.05 1.70 8.65 1.70 12.80 0z"/>
  <path d="M414.60 387.20 c-1.90 -0.75 -3.60 -3.40 -3.60 -5.40 0 -3.30 3.15 -5.90 10.30 -8.60 6.70 -2.50 8.70 -4.25 9.45 -8.25 0.55 -2.95 -0.80 -5.45 -10.40 -19 -1.30 -1.85 -2.35 -3.60 -2.35 -3.90 0 -1.20 -0.95 -0.35 -4.35 3.85 -12.35 15.15 -26.35 27.15 -35.15 30.10 -2.65 0.90 -4.10 1.05 -7.75 0.90 -4.15 -0.20 -4.70 -0.35 -7.30 -2 -6.35 -4.05 -9.75 -12.05 -10.95 -25.70 -0.30 -3.30 -0.40 -7.65 -0.25 -9.70 0.55 -6.30 1.75 -15.65 2.35 -17.65 1.25 -4.10 6.20 -8.05 9.80 -7.75 2.95 0.25 3.05 1.35 1.40 12.55 -2.40 16.40 -2.15 26.60 0.80 33.40 1.45 3.40 2.90 4.45 6.20 4.45 7.65 0 18.50 -7 33.95 -22.05 l7.75 -7.55 0 -3.05 c0 -4.15 2 -10.40 4.55 -14.35 3 -4.65 8.35 -9.85 10.50 -10.25 2.05 -0.40 5.75 0.90 6.45 2.30 1.40 2.55 -0.70 6.90 -5.95 12.40 -3.65 3.75 -4.20 5.10 -3.95 8.80 0.30 3.70 1.65 6.40 7.05 14.45 4.05 6.05 6.90 11.40 7.55 13.95 0.15 0.75 0.55 1.35 0.85 1.35 0.80 0 16.10 -15.45 21 -21.25 4.85 -5.65 8.75 -10.90 12.05 -16 3.15 -4.85 3.70 -6.15 4.10 -9 0.80 -5.50 2.95 -16.35 4.55 -23.10 2.95 -12.10 6.30 -17.15 11.45 -17.15 1.25 0 2 0.35 2.75 1.30 2.05 2.60 1.10 8.80 -3.75 24.85 -4.80 15.90 -5.60 20.60 -6.80 38.70 -0.65 10.55 -0.20 15.20 1.90 19.55 1.55 3.20 3.10 4.10 7.20 4.10 5.80 0 13 -3.45 23.50 -11.35 l5.25 -3.90 0.35 -2.75 c1.55 -11.35 2.95 -16.70 5.90 -22.65 5.75 -11.50 13.05 -18.30 21.40 -19.95 2.20 -0.45 3.15 -0.40 5.35 0.30 5.05 1.60 8 6.10 8 12.30 0 4.25 -0.95 7.20 -3.65 11.50 -3.05 4.85 -15.25 16.10 -23.20 21.50 -3.65 2.45 -3.90 3 -2.85 6.65 0.70 2.60 3.20 5.30 6.20 6.65 3.35 1.60 10.35 1.65 15.60 0.20 10.65 -2.95 22.55 -10.85 36.80 -24.45 3.30 -3.20 5.45 -5.65 5.65 -6.50 1.55 -7.20 8.05 -16.30 14.65 -20.60 6.25 -4.05 11.20 0.45 7.90 7.15 -1.20 2.45 -3.85 5.35 -11.20 12.30 -1.20 1.10 -2.15 2.20 -2.15 2.50 0 0.80 6.15 7.05 10 10.15 7.20 5.85 11.65 11.10 13 15.15 1.10 3.45 0.45 8.75 -1.70 13.05 -4.20 8.50 -14.90 16.20 -22.65 16.25 -3.50 0 -5.15 -1.35 -5.50 -4.65 -0.50 -4.50 1.85 -7 7 -7.50 5.40 -0.50 10.10 -3.85 11.60 -8.30 1.95 -5.80 0.45 -8.20 -10.90 -17.20 -2.70 -2.15 -5.95 -5.25 -7.20 -6.90 -1.25 -1.60 -2.45 -2.95 -2.60 -2.95 -0.15 0 -0.85 0.80 -1.55 1.80 -1.60 2.40 -12.45 13.40 -16.25 16.50 -13.20 10.85 -24.40 15.80 -35.50 15.75 -5.50 0 -9.45 -1 -12.95 -3.25 -4.10 -2.60 -7.15 -7.20 -8.10 -12.05 -0.15 -0.95 -0.40 -1.75 -0.55 -1.75 -0.15 0 -1.30 0.85 -2.60 1.95 -6.85 5.65 -18.45 12.55 -24.50 14.50 -3.65 1.20 -9.05 1.40 -12.25 0.45 -2.65 -0.80 -6.50 -4.60 -8.05 -8.05 -2.40 -5.25 -2.95 -8.50 -2.95 -17.40 0.05 -4.55 0.20 -8.85 0.40 -9.60 0.50 -2 -0.25 -1.60 -1.90 0.95 -2.85 4.50 -11.65 15.05 -17.30 20.75 -13.55 13.70 -31.35 26.80 -38.65 28.45 -1.10 0.25 -2.25 0.15 -3.25 -0.30z m134.65 -59 c4.25 -4.15 6.25 -7.65 6.25 -11.10 0 -4.60 -2.30 -6.30 -5.90 -4.40 -4.50 2.35 -10.35 11.95 -12.60 20.50 -1.60 6.35 -1.65 6.35 4.05 2 2.80 -2.15 6.50 -5.30 8.20 -7z"/>
  <path d="M1145.85 384.80 c-2.50 -2.30 -2.45 -5.55 0.25 -8.55 2.05 -2.35 4.65 -3.65 10.20 -5.05 6.60 -1.65 10.25 -3.15 11.80 -4.80 1.45 -1.60 2.20 -4.80 1.65 -7.30 -0.15 -0.80 -2.70 -5.05 -5.60 -9.40 -6.50 -9.65 -7.65 -12.55 -7.65 -18.70 0 -7.75 3.25 -15.40 8.60 -20.35 3.80 -3.45 6.80 -4.40 10.05 -3.20 1.50 0.55 2.85 3.35 2.85 5.75 0 3.80 -2.10 6.75 -8.40 11.90 l-3.70 3.05 0.30 2.45 c0.50 3.65 2.20 7.05 6.55 12.90 3.85 5.20 7.55 12.05 7.85 14.50 0.35 2.50 0.80 2.65 3.55 1.15 1.45 -0.75 5.10 -2.95 8.10 -4.85 3.05 -1.90 7.35 -4.60 9.60 -6 4 -2.50 4.15 -2.60 4.40 -4.80 1.60 -12.95 4.25 -20.50 10.30 -29.25 4.80 -6.95 11.55 -11.75 17.60 -12.50 4.15 -0.50 7.75 1.05 10 4.40 4 5.90 3.70 12.35 -1.05 19.85 -3.10 4.90 -15.35 16.25 -23.25 21.50 l-3.40 2.25 0.25 2.35 c0.40 3.90 2.65 6.85 6.55 8.70 3.35 1.60 10.30 1.65 15.70 0.20 8.85 -2.45 20.90 -9.90 30.80 -18.95 7.55 -6.95 9 -8.55 11.15 -12.20 2.65 -4.50 8.85 -12.15 12.15 -15.05 1.20 -1.05 3.75 -2.95 5.65 -4.25 3.35 -2.20 3.55 -2.30 6.75 -2.15 5.75 0.25 6.75 0.25 8.85 -0.15 2.85 -0.50 4.75 0.95 6.70 5.05 0.80 1.70 1.70 3.25 2 3.45 0.85 0.50 0.60 4.10 -0.80 11 -1.15 5.85 -1.25 7.30 -1.05 14.75 0.30 10.05 1.30 14.10 4.35 17.10 1.85 1.85 1.95 1.90 5.60 1.90 5.60 0 7.90 -1 11.95 -5.15 3.20 -3.30 3.50 -3.50 4.70 -2.95 4.30 1.95 -2.60 12.45 -10.85 16.60 -3.65 1.80 -4.40 2 -7.80 2 -2.75 0 -4.35 -0.25 -5.85 -1 -4.75 -2.30 -8.30 -7.65 -10.40 -15.80 -0.60 -2.30 -1.20 -4.20 -1.35 -4.20 -0.15 0 -1.10 1.10 -2.15 2.40 -2.90 3.85 -9.25 10.05 -13.60 13.25 -5.95 4.40 -9.30 5.95 -13.50 6.20 -3.20 0.20 -3.70 0.10 -5.80 -1.25 -1.85 -1.20 -2.70 -2.25 -4 -4.90 -1.55 -3.15 -1.70 -3.75 -1.60 -7.70 0.05 -2.35 0.40 -5.50 0.80 -7.10 l0.70 -2.80 -5.20 4.70 c-14 12.60 -26.85 18.80 -38.90 18.75 -11.85 -0.05 -18.15 -4.80 -21.35 -16.10 l-0.65 -2.35 -4.60 3.35 c-5.05 3.60 -22 14.30 -29.90 18.85 -2.75 1.55 -7.95 4.30 -11.55 6.10 -5.50 2.70 -7.10 3.25 -9.75 3.40 -2.90 0.20 -3.35 0.10 -4.60 -1z m143.30 -22.85 c3.75 -2 10.50 -8.75 14.20 -14.30 8.70 -13.15 11.50 -25.15 7 -30 -2.10 -2.35 -7.50 -0.85 -11.50 3.20 -2.70 2.70 -8.35 11.75 -12.10 19.40 -5.55 11.35 -6.60 17.85 -3.40 21.35 0.95 1.05 4.15 1.20 5.80 0.35z m-58.80 -33.80 c4.30 -4.25 6.15 -7.65 6.15 -11.15 0 -4.60 -2.25 -6.20 -5.95 -4.25 -4.15 2.10 -10.55 12.60 -12.55 20.45 -1.60 6.35 -1.65 6.35 4.10 1.95 2.85 -2.15 6.55 -5.30 8.25 -7z"/>
  <path d="M139.20 379.50 c-1.40 -0.55 -1.60 -1.80 -2 -12.75 -0.45 -12.80 0 -17.60 4.75 -48.50 0.55 -3.55 0.90 -6.55 0.80 -6.65 -0.10 -0.10 -0.95 0.40 -1.90 1.10 -5.75 4.40 -22.60 9.40 -36.85 11 l-5.25 0.55 -0.80 3.25 c-0.45 1.80 -1.45 7.20 -2.20 12 -0.75 4.80 -1.65 10.65 -2.05 13 -0.40 2.35 -0.80 7.65 -1 11.75 -0.15 4.15 -0.35 7.95 -0.45 8.55 -0.30 1.45 -4.35 4.20 -6.25 4.20 -2 0 -3.65 -1.75 -4.50 -4.80 -1.05 -3.75 -0.30 -12.05 2.20 -24.45 3.50 -17.10 4 -20.30 3.20 -20.85 -0.35 -0.25 -5.65 -0.30 -12.40 -0.15 l-11.80 0.35 -1.85 -2.05 c-1.55 -1.70 -1.85 -2.40 -1.85 -4.20 0 -4.05 2.65 -5.35 10.75 -5.35 7 0 16.30 -0.95 17.60 -1.75 1.30 -0.85 3.35 -5.05 4.35 -8.80 0.60 -2.30 3.70 -19.50 4.60 -25.45 0.35 -2 3.65 -5.50 5.20 -5.50 1.75 0 3.35 1.10 4.45 3 1 1.80 1.05 2.20 0.55 5.35 -0.80 4.95 -2.35 13 -3.70 19.10 -1.10 4.95 -1.55 8.05 -1.35 10.20 0.10 1.15 3.05 1.15 11.05 -0.15 13.50 -2.15 18.55 -3.65 26.80 -7.85 l5.60 -2.80 1.05 -7.80 c0.55 -4.30 1.30 -10.05 1.60 -12.80 0.30 -2.75 0.85 -5.65 1.25 -6.50 1.55 -3.30 6.55 -4.90 8.65 -2.80 0.55 0.55 1.25 2.20 1.60 3.75 0.70 3.30 0.25 6.70 -3.60 25.80 -6.15 30.35 -9.35 55 -7.50 57.90 0.85 1.35 4.65 -3.35 11.80 -14.55 7.15 -11.25 11.60 -17.35 15.60 -21.50 7.30 -7.60 15.15 -10.60 17.10 -6.60 1.10 2.25 1.25 7.25 0.35 14 -1.05 8 -1.05 15.85 0.05 19.30 0.50 1.50 1.65 3.45 2.70 4.55 1.80 1.90 1.80 1.90 5.75 1.90 6.85 0 13.70 -2.25 21.50 -7.05 4.55 -2.80 4.45 -2.70 4.90 -7.95 1.15 -14.20 11.05 -29.90 22.30 -35.40 3.55 -1.75 4 -1.85 8.80 -1.85 4.65 0 5.20 0.10 7.10 1.40 6.15 4.05 6.75 12.15 1.45 19.75 -4.60 6.60 -13.10 14.05 -23.20 20.40 -2.45 1.50 -4.65 3.10 -5 3.55 -1.05 1.35 0.25 6.35 2.20 8.70 2.20 2.60 4.55 3.45 9.50 3.45 10.30 0 21.20 -5.45 32.35 -16.10 4.55 -4.35 5.55 -4.95 6.70 -3.80 0.80 0.80 0.75 4.05 -0.10 6.15 -2.70 6.40 -13.75 16.10 -24 21.05 -6.75 3.25 -11.75 4.35 -18.35 4.10 -4.80 -0.20 -5.70 -0.40 -8.65 -1.85 -5.10 -2.50 -8.75 -7.25 -10.35 -13.60 l-0.60 -2.30 -4.30 3.10 c-8.75 6.40 -17.05 9.75 -24.05 9.75 -5.10 0 -7.25 -0.60 -10.30 -2.95 -2.95 -2.25 -4.95 -5.75 -5.95 -10.55 -0.70 -3.10 -0.75 -5.50 -0.50 -14 0.35 -9.85 0.30 -10.30 -0.65 -11.15 -1 -0.90 -1.05 -0.85 -4.55 3.25 -5.05 5.85 -8.45 11 -16.35 24.45 -8.70 14.85 -10.75 18 -13.95 21.30 -2.35 2.45 -2.75 2.65 -4.80 2.60 -1.20 0 -2.70 -0.20 -3.25 -0.45z m107.30 -46.75 c10.15 -7.95 14.50 -13.80 13.25 -17.75 -0.50 -1.60 -2.75 -2.50 -4.95 -2 -6.75 1.50 -14.50 12.80 -16.10 23.35 l-0.35 2.35 1.45 -0.95 c0.80 -0.50 3.80 -2.75 6.70 -5z"/>
  <path d="M942.40 379.65 c-1.40 -0.35 -1.90 -3.35 -2.25 -13.15 -0.40 -12.80 0.10 -17.80 4.85 -48.50 0.50 -3.40 0.85 -6.30 0.80 -6.35 -0.10 -0.10 -1.50 0.70 -3.10 1.80 -6.45 4.25 -22.10 8.75 -35.70 10.25 l-5.25 0.55 -0.80 3.25 c-0.45 1.80 -1.45 7.20 -2.20 12 -0.75 4.80 -1.70 10.65 -2.05 13 -0.40 2.35 -0.85 7.90 -1.05 12.40 -0.35 8.85 -0.40 9.05 -3.65 11.05 -2.35 1.40 -4.25 1.35 -5.70 -0.20 -3.15 -3.35 -3 -11.25 0.40 -28 3.45 -17 4 -20.30 3.20 -20.85 -0.35 -0.25 -5.60 -0.30 -12.30 -0.15 l-11.60 0.35 -2 -2 c-1.75 -1.70 -2 -2.30 -2 -4.20 0 -4.10 2.60 -5.40 10.75 -5.40 6.05 0 16.15 -0.90 17.35 -1.55 1.20 -0.65 3.25 -4.25 4.15 -7.25 0.90 -3.05 2.35 -10.65 3.95 -20.55 0.65 -4.15 1.45 -8 1.75 -8.60 0.75 -1.30 3.65 -3.55 4.70 -3.55 1.60 0 3.25 1.15 4.30 3 1 1.80 1.05 2.20 0.55 5.35 -0.80 4.95 -2.35 13 -3.70 19.10 -1.10 4.95 -1.55 8.05 -1.35 10.20 0.10 1.15 3.05 1.15 11.05 -0.15 13.60 -2.20 19.70 -4 27.55 -8.15 l4.80 -2.55 0.85 -5.80 c0.45 -3.15 1.15 -8.80 1.60 -12.50 0.95 -8.70 0.95 -8.65 3.25 -10.75 1.55 -1.40 2.35 -1.75 3.95 -1.75 2.55 0 3.80 1.30 4.50 4.85 0.70 3.35 0.15 7.40 -4.05 28.15 -3.35 16.70 -3.95 20.30 -5.40 30.50 -2 14.05 -2.55 23.40 -1.55 25 0.40 0.65 0.65 0.55 1.60 -0.50 3 -3.25 6.40 -8.15 12.60 -18.10 3.40 -5.40 10.60 -15 13.65 -18.10 6.85 -7.05 14.75 -9.95 16.60 -6.10 1.10 2.30 1.20 7.50 0.35 14.05 -0.45 3.25 -0.80 8.30 -0.80 11.20 0 6.45 1 9.95 3.60 12.70 l1.85 1.95 5.15 -0.20 c7.05 -0.30 14.05 -2.85 21.70 -7.85 l3.05 -2 0.30 -4.15 c1 -14.75 10.70 -30.55 22.30 -36.30 3.60 -1.75 3.95 -1.85 8.80 -1.85 4.70 0 5.20 0.10 7.15 1.40 4.25 2.80 5.95 7.70 4.60 13.25 -1.65 6.95 -11 16.80 -24 25.25 -6.85 4.50 -8.15 5.60 -7.80 6.75 0.10 0.45 0.35 1.65 0.50 2.65 0.45 2.50 2.90 5.70 5.25 6.95 1.55 0.80 3 1 6.40 1 10.35 0 21.10 -5.35 32.35 -16.10 2.50 -2.40 4.90 -4.40 5.35 -4.40 2.10 0 2.60 3.75 1 7.25 -2.80 5.95 -13.60 15.55 -22.90 20.15 -7.35 3.70 -10.05 4.35 -17.65 4.35 -6.65 0 -6.85 -0.05 -10.10 -1.65 -5.20 -2.55 -8.85 -7.30 -10.45 -13.65 l-0.60 -2.35 -3.55 2.60 c-6.40 4.70 -11.70 7.50 -17.70 9.30 -3 0.90 -4.55 1.10 -8.60 0.90 -4.80 -0.20 -5.05 -0.25 -7.85 -2.20 -3.40 -2.30 -5.80 -5.90 -6.75 -10.15 -0.45 -1.95 -0.60 -6.10 -0.50 -13.80 0.20 -15.15 -0.05 -15.55 -6.15 -8.25 -4.45 5.35 -10.10 14 -18.20 27.95 -6.85 11.75 -10.75 17.35 -13.15 18.75 -1.25 0.75 -4.10 0.95 -6 0.45z m101.65 -42.75 c8.05 -5.80 16 -13.15 17.60 -16.25 2.55 -4.85 0.65 -8.65 -3.80 -7.70 -5.20 1.20 -10.65 7.35 -13.80 15.55 -1.65 4.20 -3.10 10 -2.55 10 0.20 0 1.35 -0.70 2.55 -1.60z"/>
  <path d="M363.65 289.55 c-2.35 -0.60 -3.15 -1.45 -3.15 -3.40 0 -3.25 2.30 -6.90 6.20 -9.70 1.55 -1.15 2.50 -1.45 4.55 -1.45 3.15 0 5.60 0.80 6.25 2 0.80 1.50 0.55 6.10 -0.45 8.25 -0.50 1.10 -1.55 2.55 -2.25 3.25 -1.20 1.10 -1.90 1.25 -5.45 1.35 -2.25 0.05 -4.85 -0.10 -5.70 -0.30z"/>
  <path d="M76 239 l0 -5 149.05 0 149 0 2.30 -4.85 c1.25 -2.70 4.60 -10.05 7.50 -16.40 2.90 -6.30 6.05 -13.20 7 -15.25 0.95 -2.05 4.10 -8.90 7 -15.25 2.90 -6.30 6.10 -13.30 7.15 -15.55 1.05 -2.25 2.05 -4.50 2.20 -5 0.20 -0.50 0.95 -1.40 1.65 -1.95 1.50 -1.05 -1.15 -0.85 37.90 -2.75 23.35 -1.10 29.10 -1.45 56.90 -3.25 12.55 -0.80 18.70 -1.40 19.20 -1.85 1.55 -1.25 7.15 -8.80 9.45 -12.70 4.45 -7.50 7.40 -15 9.50 -24 1.15 -5.10 1.40 -7.35 1.60 -15.85 0.15 -6.60 0.05 -10.10 -0.30 -10.45 -0.85 -0.85 -3.65 1.10 -5.40 3.70 -1.25 1.85 -1.70 2.20 -2.40 1.80 -0.70 -0.40 -1.15 0.25 -3.05 4.25 -1.25 2.60 -2.25 5.10 -2.25 5.55 0 1.05 -0.80 1.05 -1.25 -0.10 -0.30 -0.75 -0.40 -0.70 -1.05 0.40 -0.35 0.70 -1.15 2.75 -1.75 4.60 -0.55 1.90 -1.25 3.40 -1.50 3.40 -0.25 0 -0.45 -0.20 -0.45 -0.50 0 -0.25 -0.35 -0.50 -0.80 -0.50 -0.75 0 -0.80 0.60 -0.55 5.15 0.15 2.80 0.45 5.55 0.65 6.05 0.30 0.85 0.20 0.90 -0.95 0.60 -0.95 -0.20 -1.35 -0.10 -1.55 0.55 -0.20 0.80 -1.30 6.55 -1.30 7 0 0.10 -0.20 0.15 -0.45 0.15 -0.50 0 -2.30 -4.10 -2.80 -6.35 -0.30 -1.50 -1.25 -2.35 -1.25 -1.15 0 0.30 -0.25 0.50 -0.60 0.50 -0.40 0 -0.45 -1.75 -0.25 -6.40 l0.25 -6.45 -1.20 0.25 c-0.65 0.10 -1.20 0.05 -1.20 -0.10 0 -0.80 2.10 -6.50 2.80 -7.55 0.60 -0.90 0.60 -1.20 0.10 -1.40 -0.50 -0.15 -0.45 -0.60 0.30 -2 1 -1.90 6.20 -7.35 7 -7.35 0.25 0 0.10 -0.30 -0.45 -0.70 -0.85 -0.60 -0.70 -0.85 2.20 -3.70 2.90 -2.85 3 -3.05 1.45 -2.50 -2 0.70 -5.40 2.85 -5.40 3.45 0 0.25 -0.20 0.45 -0.50 0.45 -0.25 0 -0.50 -0.35 -0.50 -0.75 0 -1.35 -1.15 -0.80 -3.55 1.75 -2.15 2.25 -2.40 2.45 -2.70 1.50 -0.15 -0.55 -0.15 -1.20 0 -1.50 0.15 -0.25 0.10 -0.50 -0.15 -0.50 -0.55 0 -5.50 5.20 -6.70 7 l-0.80 1.25 -0.45 -1.20 -0.45 -1.20 -2 1.70 c-1.05 0.95 -2.20 2.05 -2.55 2.45 -1.05 1.30 -0.75 -2.45 0.35 -4.95 1 -2.15 1 -2.15 0 -1.90 -1.70 0.45 -1.20 -1.35 1.25 -4 1.50 -1.70 2.05 -2.65 1.70 -3 -0.70 -0.70 2.05 -2.95 5.45 -4.50 1.40 -0.70 2.60 -1.55 2.60 -1.95 0 -0.95 1.90 -1.65 6.50 -2.45 2.05 -0.35 3.45 -0.65 3.05 -0.70 -0.50 -0.05 -0.55 -0.20 -0.10 -0.75 0.95 -1.15 6.40 -1.50 10.50 -0.65 4.15 0.85 4.15 0.15 0.05 -1.60 -1.65 -0.70 -2.50 -1.40 -2.50 -1.95 0 -0.70 -0.80 -1.10 -3.50 -1.80 -1.90 -0.50 -3.35 -1.10 -3.25 -1.35 0.40 -0.65 -3.05 -1.10 -5.80 -0.80 -2.35 0.30 -2.45 0.25 -1.95 -0.65 0.45 -0.85 0.35 -1 -0.40 -1 -1.10 0 -5.85 0.85 -7.30 1.30 -0.80 0.25 -0.90 0.10 -0.60 -1 l0.35 -1.35 -2.65 0.35 c-1.45 0.15 -3.50 0.50 -4.60 0.80 -1.05 0.25 -2.05 0.35 -2.20 0.15 -0.65 -0.60 1.85 -3.10 4.40 -4.35 1.60 -0.80 2.35 -1.35 1.75 -1.40 -0.90 0 -0.90 -0.05 -0.10 -0.85 0.70 -0.75 1.75 -0.90 5.35 -0.90 3.50 0 4.50 -0.15 4.50 -0.70 0 -1.25 4.25 -0.15 9.10 2.35 0.25 0.10 0.40 -0.40 0.40 -1.10 0 -0.70 0.15 -1.30 0.30 -1.30 0.85 0 6.55 4.55 7.15 5.70 0.85 1.55 1.55 1.70 1.55 0.35 0 -1.65 0.80 -1.60 2.95 0.15 2.65 2.25 3.95 3.85 6.40 7.95 l2 3.35 0.35 -6.95 c0.35 -7.70 0.55 -8.85 1.55 -8.05 0.45 0.40 0.85 -0.20 1.70 -2.40 1.35 -3.70 3.15 -6.40 4.15 -6.20 0.45 0.05 1.25 -0.60 1.90 -1.65 1.20 -1.95 4.85 -5.25 5.85 -5.25 0.45 0 0.50 0.30 0.15 1.25 -0.25 0.70 -0.40 1.25 -0.35 1.25 0.10 0 1.05 -0.80 2.10 -1.80 2.35 -2.10 6.90 -4.60 6.65 -3.60 -0.20 0.95 0.35 1.05 3.40 0.40 4.30 -0.90 10.90 0.20 7.05 1.20 -1.40 0.35 -6.85 3.85 -6.85 4.40 0 0.20 0.45 0.40 1 0.40 1.60 0 1.15 0.90 -0.60 1.25 -2.45 0.55 -7.90 2.80 -7.90 3.25 0 0.25 0.40 0.50 0.85 0.60 0.55 0.10 -0.50 1 -3.05 2.60 -2.75 1.75 -3.70 2.55 -3.20 2.85 0.50 0.30 -0.20 1.20 -2.60 3.45 -2 1.90 -3 3.15 -2.60 3.30 0.95 0.40 0.75 1 -0.95 2.80 -0.85 0.90 -1.85 2.35 -2.30 3.15 -0.70 1.35 -0.55 1.30 1.65 -0.75 2.60 -2.45 8.30 -6.50 9.15 -6.50 0.25 0 0.55 0.30 0.70 0.65 0.15 0.45 0.35 0.45 0.90 0 1.15 -0.95 5.60 -2.55 8.10 -2.90 1.95 -0.30 2.30 -0.25 2.10 0.35 -0.25 0.65 0.45 0.70 4.65 0.50 3.65 -0.15 5.05 -0.05 5.35 0.40 0.20 0.35 0.10 0.80 -0.30 1.05 -0.45 0.30 -0.05 0.45 1.25 0.45 3.05 0 8.15 1 9.15 1.80 0.85 0.65 0.85 0.70 0 1.25 -0.80 0.45 -0.65 0.70 1.35 2.05 1.25 0.80 2.75 2.15 3.35 2.95 l1.05 1.50 -4.55 -0.35 c-3.95 -0.30 -4.55 -0.25 -4.55 0.45 0 1.35 -0.70 1.35 -3.40 0.05 -3.60 -1.75 -5.60 -2.05 -5.60 -0.95 0 0.60 -0.25 0.75 -0.85 0.50 -0.50 -0.20 -2.65 -0.45 -4.80 -0.60 -3.45 -0.25 -3.90 -0.20 -3.75 0.50 0.15 0.70 -0.60 0.85 -5.60 1.05 -5.10 0.25 -11.10 1.25 -11.90 2 -0.15 0.15 1.50 0.30 3.70 0.35 5.50 0 7.95 0.50 7.90 1.60 -0.05 0.55 0.30 0.85 0.95 0.85 2.95 0 12.55 3.45 9.75 3.50 -1.65 0 -0.90 0.80 1.75 1.90 4.15 1.75 7.30 5.60 4.55 5.60 -0.40 0 0.20 0.90 1.35 2.15 1.15 1.15 2.65 2.95 3.35 4.05 1.15 1.70 1.20 2 0.55 2.50 -0.70 0.45 -0.70 0.80 -0.15 2.30 0.60 1.75 0.90 5 0.45 5 -0.15 0 -1.20 -0.90 -2.35 -2.05 -1.95 -1.85 -2.15 -1.95 -2.75 -1.15 -0.75 1.05 -0.60 1.20 -2.60 -2.80 -1.85 -3.65 -3.05 -5.10 -3.40 -4.10 -0.40 1.10 -1.60 0.65 -2.40 -0.90 -0.40 -0.80 -1.45 -2.30 -2.30 -3.25 -1.40 -1.60 -1.65 -1.70 -2.20 -0.95 -0.50 0.75 -0.80 0.65 -2.95 -0.95 -2.40 -1.90 -8.70 -5.10 -9.10 -4.70 -0.15 0.10 0.95 0.95 2.35 1.90 2.75 1.75 4.45 3.35 4.45 4.10 0 0.25 -0.35 0.35 -0.75 0.15 -1.35 -0.50 -0.80 0.45 0.85 1.45 1.95 1.15 8.40 7.45 8.40 8.20 0 0.30 -0.65 0.55 -1.50 0.55 l-1.50 0 1.70 2.40 c1.80 2.55 2.95 4.65 3.55 6.55 0.35 1.10 0.25 1.15 -0.95 0.95 -1.05 -0.20 -1.25 -0.10 -1.05 0.55 0.55 1.90 1.25 6.35 1.25 8.35 0 1.85 -0.15 2.20 -1 2.20 -0.80 0 -1 0.35 -1.05 1.90 -0.05 1.80 -0.80 4.95 -0.90 3.75 -0.05 -0.90 -1.55 -0.80 -1.55 0.05 0 0.40 -0.40 1.20 -0.90 1.85 l-0.95 1.10 -0.35 -2.90 c-0.50 -4.40 -0.80 -5.30 -1.75 -5.15 -0.70 0.15 -0.80 -0.60 -0.95 -5.50 -0.15 -5.65 -0.15 -5.70 -1.25 -5.40 -1.10 0.25 -1.20 0.10 -1.70 -4 -0.25 -2.30 -0.65 -4.35 -0.85 -4.55 -0.15 -0.20 -0.65 0.10 -1 0.65 -0.70 0.95 -0.75 0.95 -1.10 -0.05 -1 -2.80 -3.15 -7.15 -4.10 -8.25 -1 -1.25 -1.05 -1.25 -1.80 -0.25 l-0.75 1 -0.30 -1 c-1 -2.90 -1.55 -4.20 -2.85 -6.25 -1.60 -2.50 -1.60 -2.80 -0.30 4 0.30 1.80 0.60 7.50 0.60 12.75 0 10.55 -0.80 16.20 -3.70 25.25 -1.55 4.85 -6.95 16.40 -8.30 17.75 -0.70 0.65 -0.65 0.75 0.15 0.75 3.55 0 41.75 -3.50 57.40 -5.30 6.05 -0.65 13.05 -1.45 15.50 -1.70 6.95 -0.75 21.95 -0.60 28.60 0.25 14.15 1.85 26.40 6.25 37.15 13.25 6.20 4.10 16.15 14 20.25 20.25 1.65 2.50 3.10 4.60 3.20 4.75 0.10 0.15 0.30 -0.05 0.45 -0.45 0.65 -1.85 6.50 -9.85 9.65 -13.25 11 -11.80 25.55 -19.70 42.70 -23.25 7.60 -1.55 13.15 -2.05 22.75 -2.05 8.80 0 10.55 0.15 26.50 1.95 40.15 4.60 99.70 8.80 173.10 12.20 15.10 0.70 14.60 0.55 16.65 5.10 0.60 1.40 1.90 4.20 2.85 6.25 1 2.05 2.25 4.75 2.80 6 1.95 4.30 15 32.80 16.85 36.75 4.95 10.70 7.90 17.10 9 19.60 l0.95 2.15 149.25 0.10 149.30 0.15 0 4.75 0 4.75 -151.60 0.15 -151.60 0.10 -1.20 -1.10 c-0.80 -0.75 -7.60 -15.05 -18.10 -38 l-16.90 -36.90 -2.10 0 c-5.45 0 -49.55 -2.25 -78 -4 -24.75 -1.55 -64.95 -4.60 -78.75 -6.05 -2.60 -0.25 -6.90 -0.70 -9.50 -0.95 -2.60 -0.25 -8.80 -0.90 -13.75 -1.50 -16.55 -1.90 -20.40 -2.15 -29.25 -1.85 -17.85 0.55 -31.55 4.55 -43.95 12.80 -4.75 3.15 -11.80 9.80 -15.20 14.35 -2.45 3.30 -6.70 11.05 -8.10 14.80 -1.05 2.85 -2.10 3.85 -4.35 4.25 -1.45 0.20 -2 0 -3.25 -1.15 -0.85 -0.80 -1.90 -2.55 -2.40 -3.95 -0.45 -1.35 -1.90 -4.40 -3.10 -6.75 -10.30 -19.25 -30.20 -31.35 -56.10 -34.05 -7.35 -0.75 -21.30 -0.30 -32.05 1 -30.05 3.70 -82.25 7.85 -137 10.80 -18.05 1 -45.05 2.25 -47.80 2.25 -2.10 0 -2.20 0.05 -3.25 2.40 -1.75 3.80 -3.60 7.90 -6.85 14.85 -5.70 12.35 -17.75 38.50 -18.60 40.50 -1 2.30 -2.85 6.30 -5.50 12.05 -1.05 2.20 -2.50 4.50 -3.25 5.10 l-1.40 1.10 -151.15 0 -151.20 0 0 -5z"/>
 </g>
</svg>