<svg width="78" height="36" viewBox="0 0 78 36" fill="none" xmlns="http://www.w3.org/2000/svg">
<g filter="url(#filter0_ddd_5736_9466)">
<rect x="5" y="4.20575" width="67.4306" height="25.2345" rx="2.80383" fill="#1D94A4"/>
<path d="M20.0158 16.7196H17.9842L17.9732 15.7175H19.7475C20.0469 15.7175 20.3006 15.6737 20.5087 15.5861C20.7204 15.4948 20.8811 15.3652 20.9906 15.1972C21.1001 15.0257 21.1549 14.8194 21.1549 14.5784C21.1549 14.3119 21.1038 14.0947 21.0016 13.9268C20.8993 13.7588 20.7423 13.6365 20.5306 13.5599C20.3225 13.4832 20.056 13.4449 19.7311 13.4449H18.4003V20.323H17.0258V12.3496H19.7311C20.1692 12.3496 20.5598 12.3916 20.903 12.4756C21.2498 12.5595 21.5437 12.691 21.7847 12.8698C22.0293 13.0451 22.2136 13.2678 22.3378 13.5379C22.4655 13.8081 22.5294 14.1294 22.5294 14.5018C22.5294 14.8303 22.4509 15.1315 22.2939 15.4053C22.137 15.6755 21.9051 15.8964 21.5985 16.068C21.2918 16.2396 20.9103 16.3418 20.4539 16.3746L20.0158 16.7196ZM19.9556 20.323H17.5515L18.1703 19.2332H19.9556C20.2659 19.2332 20.5251 19.1821 20.7332 19.0799C20.9413 18.974 21.0965 18.8298 21.1987 18.6473C21.3046 18.4611 21.3575 18.2439 21.3575 17.9956C21.3575 17.7364 21.3119 17.5119 21.2206 17.322C21.1293 17.1285 20.9851 16.9807 20.788 16.8784C20.5908 16.7726 20.3335 16.7196 20.0158 16.7196H18.4715L18.4825 15.7175H20.4923L20.8044 16.0953C21.2425 16.11 21.6021 16.2067 21.8832 16.3856C22.168 16.5645 22.3797 16.7963 22.5185 17.0811C22.6572 17.3658 22.7266 17.6725 22.7266 18.0011C22.7266 18.5085 22.6152 18.9339 22.3925 19.277C22.1735 19.6202 21.8577 19.8812 21.4451 20.0601C21.0326 20.2354 20.5361 20.323 19.9556 20.323ZM28.7263 12.3496H30.0954V17.678C30.0954 18.284 29.964 18.7915 29.7011 19.2004C29.4382 19.6093 29.0805 19.9178 28.6278 20.1259C28.1787 20.3303 27.6767 20.4325 27.1218 20.4325C26.5486 20.4325 26.0375 20.3303 25.5884 20.1259C25.1394 19.9178 24.7853 19.6093 24.5261 19.2004C24.2705 18.7915 24.1427 18.284 24.1427 17.678V12.3496H25.5118V17.678C25.5118 18.0613 25.5775 18.3771 25.7089 18.6254C25.8404 18.87 26.0265 19.0507 26.2675 19.1675C26.5085 19.2843 26.7932 19.3428 27.1218 19.3428C27.4504 19.3428 27.7333 19.2843 27.9706 19.1675C28.2116 19.0507 28.3978 18.87 28.5292 18.6254C28.6606 18.3771 28.7263 18.0613 28.7263 17.678V12.3496ZM35.0109 12.3496V20.323H33.6473V12.3496H35.0109ZM37.5135 12.3496V13.4449H31.1665V12.3496H37.5135ZM42.073 12.3496V20.323H40.7094V12.3496H42.073ZM44.5756 12.3496V13.4449H38.2287V12.3496H44.5756ZM51.9718 16.1173V16.5554C51.9718 17.1577 51.8933 17.6981 51.7364 18.1763C51.5794 18.6546 51.3548 19.0616 51.0628 19.3975C50.7744 19.7334 50.4275 19.9908 50.0223 20.1697C49.6171 20.3449 49.168 20.4325 48.6751 20.4325C48.1859 20.4325 47.7387 20.3449 47.3335 20.1697C46.9319 19.9908 46.5832 19.7334 46.2875 19.3975C45.9918 19.0616 45.7618 18.6546 45.5975 18.1763C45.4369 17.6981 45.3565 17.1577 45.3565 16.5554V16.1173C45.3565 15.5149 45.4369 14.9764 45.5975 14.5018C45.7581 14.0235 45.9845 13.6164 46.2766 13.2806C46.5723 12.941 46.9209 12.6837 47.3225 12.5084C47.7278 12.3295 48.175 12.2401 48.6642 12.2401C49.1571 12.2401 49.6061 12.3295 50.0113 12.5084C50.4166 12.6837 50.7652 12.941 51.0573 13.2806C51.3494 13.6164 51.5739 14.0235 51.7309 14.5018C51.8915 14.9764 51.9718 15.5149 51.9718 16.1173ZM50.5973 16.5554V16.1063C50.5973 15.6609 50.5535 15.2684 50.4659 14.9289C50.3819 14.5857 50.256 14.2991 50.088 14.0691C49.9237 13.8355 49.7211 13.6603 49.4802 13.5434C49.2392 13.4229 48.9672 13.3627 48.6642 13.3627C48.3612 13.3627 48.091 13.4229 47.8537 13.5434C47.6164 13.6603 47.4138 13.8355 47.2458 14.0691C47.0816 14.2991 46.9556 14.5857 46.868 14.9289C46.7804 15.2684 46.7366 15.6609 46.7366 16.1063V16.5554C46.7366 17.0008 46.7804 17.395 46.868 17.7382C46.9556 18.0814 47.0834 18.3716 47.2513 18.6089C47.4229 18.8426 47.6274 19.0197 47.8647 19.1401C48.102 19.257 48.3721 19.3154 48.6751 19.3154C48.9818 19.3154 49.2538 19.257 49.4911 19.1401C49.7284 19.0197 49.9292 18.8426 50.0935 18.6089C50.2578 18.3716 50.3819 18.0814 50.4659 17.7382C50.5535 17.395 50.5973 17.0008 50.5973 16.5554ZM59.8116 12.3496V20.323H58.4371L54.8611 14.6113V20.323H53.4866V12.3496H54.8611L58.448 18.0723V12.3496H59.8116Z" fill="white"/>
</g>
<defs>
<filter id="filter0_ddd_5736_9466" x="0" y="0.20575" width="77.4306" height="35.2345" filterUnits="userSpaceOnUse" color-interpolation-filters="sRGB">
<feFlood flood-opacity="0" result="BackgroundImageFix"/>
<feColorMatrix in="SourceAlpha" type="matrix" values="0 0 0 0 0 0 0 0 0 0 0 0 0 0 0 0 0 0 127 0" result="hardAlpha"/>
<feOffset dy="1"/>
<feGaussianBlur stdDeviation="2.5"/>
<feColorMatrix type="matrix" values="0 0 0 0 0 0 0 0 0 0 0 0 0 0 0 0 0 0 0.2 0"/>
<feBlend mode="normal" in2="BackgroundImageFix" result="effect1_dropShadow_5736_9466"/>
<feColorMatrix in="SourceAlpha" type="matrix" values="0 0 0 0 0 0 0 0 0 0 0 0 0 0 0 0 0 0 127 0" result="hardAlpha"/>
<feOffset dy="3"/>
<feGaussianBlur stdDeviation="0.5"/>
<feColorMatrix type="matrix" values="0 0 0 0 0 0 0 0 0 0 0 0 0 0 0 0 0 0 0.12 0"/>
<feBlend mode="normal" in2="effect1_dropShadow_5736_9466" result="effect2_dropShadow_5736_9466"/>
<feColorMatrix in="SourceAlpha" type="matrix" values="0 0 0 0 0 0 0 0 0 0 0 0 0 0 0 0 0 0 127 0" result="hardAlpha"/>
<feOffset dy="2"/>
<feGaussianBlur stdDeviation="1"/>
<feColorMatrix type="matrix" values="0 0 0 0 0 0 0 0 0 0 0 0 0 0 0 0 0 0 0.14 0"/>
<feBlend mode="normal" in2="effect2_dropShadow_5736_9466" result="effect3_dropShadow_5736_9466"/>
<feBlend mode="normal" in="SourceGraphic" in2="effect3_dropShadow_5736_9466" result="shape"/>
</filter>
</defs>
</svg>
