<svg width="52" height="71" viewBox="0 0 52 71" fill="none" xmlns="http://www.w3.org/2000/svg">
<rect x="1.26746" y="0.519997" width="49.4651" height="69" fill="#E48C84"/>
<rect x="1.26746" y="0.519997" width="49.4651" height="69" stroke="black" stroke-dasharray="8 2"/>
<path d="M4.22105 49.8859L11.858 49.8239C11.858 49.8239 11.8958 42.0587 11.9382 41.9917L19.6667 41.8187L19.7649 33.8626C19.7649 33.8626 27.4504 33.7766 27.5405 33.7021C27.6461 33.6141 27.6894 25.9698 27.8273 25.9169L35.5299 25.8579V18H47.2186C47.2186 18 47.1979 22.0141 47.0632 22.0657L39.4611 22.1247L39.4097 29.9336L31.65 30.0316L31.5518 37.8896L23.7921 37.9876L23.6939 45.8455L15.836 45.9435L15.7847 53.9488H4C4 53.9488 4.00103 49.9447 4.22105 49.8859Z" fill="black"/>
<path fill-rule="evenodd" clip-rule="evenodd" d="M36.0607 39H42.0607C42.8891 39 43.5607 39.6716 43.5607 40.5V46.5C43.5607 47.3284 42.8891 48 42.0607 48C41.2322 48 40.5607 47.3284 40.5607 46.5V44.1213L32.1213 52.5607L30 50.4393L38.4393 42H36.0607C35.2322 42 34.5607 41.3284 34.5607 40.5C34.5607 39.6716 35.2322 39 36.0607 39Z" fill="black"/>
</svg>
