<?xml version="1.0" encoding="UTF-8" standalone="no"?>
<!-- Created with Inkscape (http://www.inkscape.org/) -->

<svg
   xmlns:dc="http://purl.org/dc/elements/1.1/"
   xmlns:cc="http://creativecommons.org/ns#"
   xmlns:rdf="http://www.w3.org/1999/02/22-rdf-syntax-ns#"
   xmlns:svg="http://www.w3.org/2000/svg"
   xmlns="http://www.w3.org/2000/svg"
   xmlns:sodipodi="http://sodipodi.sourceforge.net/DTD/sodipodi-0.dtd"
   xmlns:inkscape="http://www.inkscape.org/namespaces/inkscape"
   width="2.56476in"
   height="1.7026501in"
   viewBox="0 0 230.82841 153.23851"
   id="svg2"
   version="1.1"
   inkscape:version="0.92.2 (5c3e80d, 2017-08-06)"
   sodipodi:docname="source svg for back-cover-outside-wide.svg"
   inkscape:export-filename="D:\dev\b41\DistFiles\branding\Local Community\back-cover-outside.png"
   inkscape:export-xdpi="300.12039"
   inkscape:export-ydpi="300.12039">
  <defs
     id="defs4" />
  <sodipodi:namedview
     id="base"
     pagecolor="#ffffff"
     bordercolor="#666666"
     borderopacity="1.0"
     inkscape:pageopacity="0.0"
     inkscape:pageshadow="2"
     inkscape:zoom="1.979899"
     inkscape:cx="-39.215302"
     inkscape:cy="-18.817658"
     inkscape:document-units="px"
     inkscape:current-layer="layer1"
     showgrid="false"
     units="in"
     inkscape:window-width="1822"
     inkscape:window-height="1177"
     inkscape:window-x="3832"
     inkscape:window-y="-8"
     inkscape:window-maximized="1"
     showguides="true"
     inkscape:guide-bbox="true"
     fit-margin-top="0"
     fit-margin-left="0"
     fit-margin-right="0"
     fit-margin-bottom="0">
    <sodipodi:guide
       position="96.889628,-1.392521"
       orientation="0,1"
       id="guide4248"
       inkscape:locked="false" />
    <sodipodi:guide
       position="-157.9362,158.69515"
       orientation="0,1"
       id="guide4292"
       inkscape:locked="false" />
  </sodipodi:namedview>
  <metadata
     id="metadata7">
    <rdf:RDF>
      <cc:Work
         rdf:about="">
        <dc:format>image/svg+xml</dc:format>
        <dc:type
           rdf:resource="http://purl.org/dc/dcmitype/StillImage" />
        <dc:title />
      </cc:Work>
    </rdf:RDF>
  </metadata>
  <g
     inkscape:label="Layer 1"
     inkscape:groupmode="layer"
     id="layer1"
     transform="translate(-176.60918,-891.67022)">
    <g
       id="g4540"
       transform="matrix(1.3449375,0,0,1.3449375,-60.919135,-360.42824)">
      <path
         id="path4578"
         inkscape:connector-curvature="0"
         inkscape:export-filename="X:\dev\b36\src\BloomExe\Resources\LogoForSplashScreen.png"
         inkscape:export-xdpi="108.54"
         inkscape:export-ydpi="108.54"
         sodipodi:nodetypes="cccsccc"
         class="st1"
         d="m 194.89803,1034.0108 c 0.19202,-10.7554 -3.71319,-13.2522 -6.01787,-14.9807 -2.04865,-1.4724 -6.14596,-3.073 -9.09086,-3.6491 -2.22634,12.3843 0.83587,27.5853 13.20249,27.0163 14.20846,-0.6537 14.02689,-11.4413 13.17371,-26.6962 -7.74637,0.7041 -10.11517,3.0089 -10.11517,3.0089 l -0.44811,0.3201"
         style="opacity:1;fill:none;stroke:#d65649;stroke-width:4.99355555;stroke-linejoin:round;stroke-opacity:1" />
      <path
         id="path4580"
         inkscape:connector-curvature="0"
         sodipodi:nodetypes="ccscsccsscscccccssscccscscscccsscsccccscccsccsccccssscccsccscssscscssssccscsssccccssscccsccscssscscssssccscsssccscccscccsccscsccccccscsccccccccc"
         class="st2"
         d="m 217.97039,1014.1521 c 0.96973,-0.1293 2.26269,-0.1939 3.68494,-0.3232 1.48692,-0.065 3.1678,-0.1293 5.10725,-0.1293 3.68495,0 6.52945,0.7111 8.46889,2.0687 1.93945,1.3576 2.90918,3.2324 2.90918,5.6244 0,1.6162 -0.38786,2.9092 -1.2283,4.0082 -0.84044,1.099 -2.06873,2.0041 -3.68494,2.7152 1.93945,0.7112 3.42632,1.6163 4.39609,2.8446 0.96973,1.2283 1.48687,2.7152 1.48687,4.5254 0,2.7152 -1.03434,4.9132 -3.16774,6.5294 -2.13341,1.6162 -5.23654,2.3921 -9.374,2.3921 -1.7455,0 -3.3617,-0.065 -4.97791,-0.1294 -1.55159,-0.065 -2.77988,-0.1939 -3.685,-0.3233 l 0.0647,-29.8028 m 8.92148,26.8291 c 2.58593,0 4.58999,-0.4526 5.94763,-1.3577 1.42225,-0.905 2.13341,-2.2627 2.13341,-4.0082 0,-1.7455 -0.71116,-3.0384 -2.06874,-4.0081 -1.42231,-0.9698 -3.42637,-1.487 -6.0123,-1.487 h -4.91329 v 10.6023 c 1.55159,0.194 3.1678,0.2587 4.91329,0.2587 m -0.12929,-13.9641 c 2.26269,0 4.0728,-0.4525 5.36577,-1.4222 1.35763,-0.9052 2.00411,-2.1334 2.00411,-3.685 0,-1.6162 -0.64648,-2.8445 -1.93945,-3.685 -1.29296,-0.8404 -3.10312,-1.2283 -5.36581,-1.2283 -0.96973,0 -1.81016,0 -2.58593,0.065 -0.77577,0.065 -1.48692,0.065 -2.13341,0.1293 v 9.7619 z m 19.91168,9.6973 c 0,1.5516 0.25858,2.7152 0.90506,3.4263 0.64648,0.7112 1.55154,1.099 2.6506,1.099 0.51714,0 1.09901,-0.065 1.61621,-0.1939 0.51714,-0.1293 0.96972,-0.2586 1.35758,-0.4526 l 0.96972,3.1032 c -0.5172,0.2585 -1.16368,0.4525 -1.87477,0.5818 -0.77577,0.194 -1.61621,0.2586 -2.52132,0.2586 -0.96973,0 -1.93945,-0.1292 -2.77983,-0.4525 -0.84044,-0.2587 -1.5516,-0.7112 -2.19808,-1.3576 -0.64648,-0.5819 -1.09901,-1.3577 -1.48692,-2.3274 -0.38786,-0.9697 -0.51714,-2.0687 -0.51714,-3.4263 v -24.631 h 3.87889 z m 26.11789,-3.8142 c 0,-1.0991 -0.19396,-2.1982 -0.5172,-3.1678 -0.38786,-0.9698 -0.84038,-1.8749 -1.48686,-2.586 -0.64648,-0.7111 -1.42231,-1.3576 -2.26269,-1.8102 -0.84044,-0.4525 -1.81017,-0.6465 -2.84456,-0.6465 -2.26269,0 -4.00818,0.7112 -5.23648,2.1981 -1.22835,1.487 -1.87483,3.4264 -1.87483,5.8831 0,1.0989 0.19395,2.198 0.5172,3.1677 0.38791,1.0344 0.84043,1.8748 1.48692,2.6506 0.64648,0.7758 1.42225,1.3576 2.26269,1.8101 0.84044,0.4526 1.81016,0.6465 2.8445,0.6465 1.09901,0 2.1334,-0.1939 2.97384,-0.5818 0.90506,-0.3879 1.61621,-0.9697 2.26269,-1.6809 0.58181,-0.7111 1.09901,-1.6162 1.42225,-2.5859 0.25857,-0.9698 0.45253,-2.0688 0.45253,-3.297 m -18.2308,0 c 0,-1.8103 0.25856,-3.4265 0.84043,-4.8487 0.58182,-1.4223 1.35758,-2.6506 2.32731,-3.685 0.96972,-0.9697 2.13341,-1.7455 3.49104,-2.3273 1.35758,-0.5172 2.8445,-0.8404 4.3961,-0.8404 1.55153,0 2.97378,0.2585 4.33142,0.8404 1.35757,0.5172 2.52126,1.293 3.55565,2.3273 0.96973,0.9697 1.81017,2.1981 2.32731,3.6204 0.58187,1.4222 0.84044,3.0384 0.84044,4.784 0,1.7455 -0.25857,3.3617 -0.84044,4.8486 -0.58181,1.4222 -1.35758,2.6505 -2.32731,3.6849 -0.96972,1.0343 -2.19808,1.8102 -3.55565,2.392 -1.35764,0.5818 -2.84456,0.8404 -4.3961,0.8404 -1.6162,0 -3.10312,-0.2586 -4.4607,-0.8404 -1.35764,-0.5818 -2.52132,-1.3577 -3.49104,-2.392 -0.96973,-1.0344 -1.7455,-2.2627 -2.32737,-3.6849 -0.45253,-1.4223 -0.71109,-2.9739 -0.71109,-4.7193 z m 43.18506,0 c 0,-1.0991 -0.19395,-2.1982 -0.51719,-3.1678 -0.38787,-0.9698 -0.84044,-1.8749 -1.48693,-2.586 -0.64648,-0.7111 -1.42225,-1.3576 -2.26269,-1.8102 -0.84038,-0.4525 -1.81011,-0.6465 -2.84451,-0.6465 -2.26268,0 -4.00817,0.7112 -5.23652,2.1981 -1.2283,1.487 -1.87479,3.4264 -1.87479,5.8831 0,1.0989 0.19397,2.198 0.51721,3.1677 0.38785,1.0344 0.84043,1.8748 1.48691,2.6506 0.64649,0.7758 1.42226,1.3576 2.2627,1.8101 0.84038,0.4526 1.8101,0.6465 2.84449,0.6465 1.09902,0 2.13342,-0.1939 2.97386,-0.5818 0.90504,-0.3879 1.6162,-0.9697 2.26268,-1.6809 0.58181,-0.7111 1.09901,-1.6162 1.42225,-2.5859 0.32325,-0.9698 0.45253,-2.0688 0.45253,-3.297 m -18.23081,0 c 0,-1.8103 0.25858,-3.4265 0.84044,-4.8487 0.58182,-1.4223 1.35759,-2.6506 2.32731,-3.685 0.96972,-0.9697 2.1334,-1.7455 3.49104,-2.3273 1.35758,-0.5172 2.8445,-0.8404 4.39604,-0.8404 1.5516,0 2.97384,0.2585 4.33148,0.8404 1.35757,0.5172 2.52126,1.293 3.55566,2.3273 0.96972,0.9697 1.8101,2.1981 2.3273,3.6204 0.58187,1.4222 0.84043,3.0384 0.84043,4.784 0,1.7455 -0.25856,3.3617 -0.84043,4.8486 -0.58181,1.4222 -1.35758,2.6505 -2.3273,3.6849 -0.96973,1.0343 -2.19809,1.8102 -3.55566,2.392 -1.35764,0.5818 -2.84456,0.8404 -4.3961,0.8404 -1.6162,0 -3.10313,-0.2586 -4.46076,-0.8404 -1.35758,-0.5818 -2.52127,-1.3577 -3.49099,-2.392 -0.96972,-1.0344 -1.74548,-2.2627 -2.32735,-3.6849 -0.45253,-1.4223 -0.71111,-2.9739 -0.71111,-4.7193 z m 29.22102,-7.37 c 0.77577,-1.2283 1.81017,-2.198 3.03845,-3.0385 1.22836,-0.8404 2.65062,-1.2283 4.20215,-1.2283 1.74554,0 3.23241,0.4526 4.33147,1.293 1.09902,0.8404 1.93945,2.004 2.39198,3.4263 0.90505,-1.293 1.93945,-2.4566 3.16775,-3.3617 1.22835,-0.905 2.71527,-1.3576 4.52537,-1.3576 1.22835,0 2.26269,0.1939 3.1678,0.5819 0.90506,0.3879 1.68082,0.9697 2.26269,1.6808 0.58181,0.7111 1.03434,1.6162 1.35758,2.5859 0.32325,1.0344 0.45258,2.1334 0.45258,3.3617 v 14.5459 h -3.87889 v -14.2226 c 0,-1.5516 -0.38791,-2.7799 -1.09907,-3.7496 -0.71109,-0.9697 -1.68082,-1.4223 -2.97379,-1.4223 -0.64648,0 -1.29296,0.1293 -1.87483,0.3879 -0.58181,0.2586 -1.16362,0.5819 -1.74548,1.0344 -0.51721,0.4525 -1.03435,0.9697 -1.55155,1.5515 -0.5172,0.5819 -0.90511,1.1637 -1.35763,1.8102 v 14.6105 h -3.8789 v -14.2226 c 0,-1.5516 -0.38791,-2.7799 -1.09901,-3.7496 -0.71116,-0.9697 -1.68088,-1.4223 -2.97384,-1.4223 -0.64648,0 -1.2283,0.1293 -1.87478,0.3879 -0.58187,0.2586 -1.16368,0.5819 -1.74549,1.0344 -0.58187,0.4525 -1.09907,0.905 -1.5516,1.4869 -0.51719,0.5818 -0.90504,1.1637 -1.35758,1.8102 v 14.6751 h -3.87889 v -22.239 h 3.74956 z"
         style="fill:#4d4d4d;fill-opacity:1;stroke-width:0.56679189" />
      <g
         transform="matrix(0.60607798,0,0,0.60607798,160.82132,985.19018)"
         id="g4616"
         style="fill:#d65649;fill-opacity:1">
        <path
           id="path4582"
           inkscape:connector-curvature="0"
           class="st3"
           d="m 156.48,47.68 c 0.21333,-0.106667 0.42667,-0.106667 0.53333,-0.213333 2.24,-0.64 3.94667,-0.96 4.90667,-0.96 0.74667,0 1.06667,0.213333 1.06667,0.746666 0,0.213334 -0.10667,0.426667 -0.21334,0.533334 C 162.66667,47.893333 162.45333,48 162.24,48 c -0.10667,0 -0.21333,0 -0.42667,0 -0.10666,0 -0.32,0 -0.32,0 -0.53333,0 -1.38666,0.106667 -2.24,0.426667 -0.32,0.106666 -0.96,0.32 -2.02666,0.746666 -0.64,0.32 -1.17334,0.426667 -1.70667,0.426667 -0.32,0 -0.53333,-0.106667 -0.74667,-0.426667 C 154.56,48.96 154.45333,48.64 154.45333,48.32 c 0,-0.32 0.21334,-0.96 0.53334,-1.813333 1.17333,-2.666667 2.56,-5.013334 3.94666,-7.146667 2.02667,-2.986667 3.52,-5.226667 4.69334,-6.72 0.32,-0.32 0.53333,-0.746667 0.85333,-1.066667 0.42667,-0.64 0.85333,-0.96 1.17333,-0.96 0.21334,0 0.32,0.106667 0.42667,0.213334 0.10667,0.106666 0.21333,0.32 0.21333,0.426666 0,0.213334 -0.10666,0.533334 -0.42666,0.96 -0.10667,0.106667 -0.42667,0.64 -1.17334,1.6 -1.38666,1.813334 -2.45333,3.2 -3.09333,4.266667 -0.64,0.96 -1.49333,2.133333 -2.24,3.306667 -1.38667,2.453333 -2.34667,4.586666 -2.88,6.293333 z"
           style="fill:#d65649;fill-opacity:1;stroke-width:1.06666672" />
        <path
           id="path4584"
           inkscape:connector-curvature="0"
           class="st3"
           d="m 165.97333,46.08 v 0.213333 c 0,0.213334 0,0.426667 0.10667,0.533334 0.21333,0.32 0.64,0.533333 1.17333,0.533333 1.17334,0 2.66667,-0.853333 4.26667,-2.773333 0.32,-0.32 0.53333,-0.426667 0.64,-0.426667 0.10667,0 0.21333,0 0.32,0.106667 0.10667,0.106666 0.10667,0.106666 0.10667,0.213333 0,0.32 -0.42667,0.96 -1.49334,1.92 -0.74666,0.64 -1.6,1.386667 -2.34666,1.813333 -0.74667,0.426667 -1.6,0.64 -2.34667,0.64 -0.74667,0 -1.38667,-0.213333 -1.81333,-0.746666 -0.32,-0.32 -0.42667,-0.746667 -0.42667,-1.493334 0,-1.706666 0.74667,-3.2 2.34667,-4.906666 1.17333,-1.386667 2.34666,-1.92 3.30666,-1.92 0.21334,0 0.42667,0.106666 0.64,0.213333 0.21334,0.213333 0.32,0.533333 0.32,0.853333 0,0.533334 -0.10666,1.28 -0.42666,1.92 -0.96,1.92 -2.45334,2.666667 -4.37334,3.306667 z m 0.32,-1.173333 c 0.64,-0.213334 1.06667,-0.32 1.70667,-0.746667 0.85333,-0.64 1.17333,-0.96 1.70667,-1.813333 0.10666,-0.213334 0.21333,-0.426667 0.21333,-0.64 0,-0.213334 -0.10667,-0.32 -0.32,-0.32 -0.21333,0 -0.64,0.213333 -1.06667,0.533333 -1.06666,0.746667 -1.70666,1.706667 -2.24,2.986667 z"
           style="fill:#d65649;fill-opacity:1;stroke-width:1.06666672" />
        <path
           id="path4586"
           inkscape:connector-curvature="0"
           class="st3"
           d="m 177.70667,39.36 c -0.64,0.96 -1.17334,2.133333 -1.81334,3.306667 -0.74666,1.813333 -1.06666,2.986666 -1.06666,3.946666 0,0.213334 0,0.426667 0.10666,0.533334 C 175.04,47.253333 175.14667,47.36 175.36,47.36 c 0.42667,0 1.06667,-0.426667 1.81333,-1.386667 C 177.6,45.44 177.92,44.906667 178.34667,44.266667 178.56,43.946667 178.66667,43.84 178.88,43.84 c 0.10667,0 0.21333,0 0.32,0.106667 0.10667,0.106666 0.10667,0.213333 0.10667,0.213333 0,0.32 -0.42667,1.173333 -1.49334,2.453333 -1.06666,1.6 -2.24,2.24 -3.09333,2.24 -0.42667,0 -0.85333,-0.213333 -1.17333,-0.64 -0.21334,-0.32 -0.32,-0.64 -0.32,-1.173333 0,-1.173333 0.32,-2.56 0.96,-4.16 0.10666,-0.426667 0.64,-1.386667 1.38666,-2.773333 -0.21333,0.106666 -0.42666,0.106666 -0.53333,0.106666 -0.21333,0 -0.32,0 -0.53333,-0.106666 -0.21334,-0.106667 -0.32,-0.32 -0.32,-0.533334 0,-0.213333 0.10666,-0.426666 0.42666,-0.533333 0.10667,0 0.42667,-0.106667 1.06667,-0.213333 0.21333,0 0.53333,-0.106667 0.96,-0.32 0.32,-0.64 0.85333,-1.493334 1.70667,-2.56 0.42666,-0.533334 0.74666,-0.96 0.85333,-1.066667 0.21333,-0.213333 0.42667,-0.32 0.64,-0.32 0.10667,0 0.21333,0.106667 0.32,0.213333 0.10667,0.106667 0.21333,0.213334 0.21333,0.32 0,0.213334 -0.21333,0.746667 -0.74666,1.6 -0.32,0.426667 -0.64,0.853334 -0.74667,1.173334 1.06667,-0.32 1.92,-0.426667 2.34667,-0.426667 0.53333,0 0.74666,0.213333 0.74666,0.64 0,0.213333 -0.10666,0.426667 -0.32,0.426667 -0.10666,0.106666 -0.32,0.106666 -0.74666,0.106666 -0.10667,0 -0.85334,0.213334 -2.24,0.533334 -0.21334,0 -0.64,0.106666 -0.96,0.213333 z"
           style="fill:#d65649;fill-opacity:1;stroke-width:1.06666672" />
        <path
           id="path4588"
           inkscape:connector-curvature="0"
           class="st3"
           d="m 187.73333,29.76 c 0.10667,0 0.21334,0 0.32,0.106667 0.10667,0.106666 0.21334,0.32 0.21334,0.533333 0,0.426667 -0.53334,1.813333 -1.81334,4.053333 C 186.02667,35.2 185.70667,35.626667 185.6,35.946667 185.49333,36.053333 185.28,36.16 185.17333,36.16 c -0.32,0 -0.53333,-0.213333 -0.53333,-0.64 0,-0.32 0.21333,-0.746667 0.53333,-1.493333 0.85334,-1.813334 1.38667,-2.666667 1.38667,-2.88 0.32,-0.96 0.74667,-1.386667 1.17333,-1.386667 z"
           style="fill:#d65649;fill-opacity:1;stroke-width:1.06666672" />
        <path
           id="path4590"
           inkscape:connector-curvature="0"
           class="st3"
           d="m 189.12,39.04 c 0.53333,0 1.06667,0.106667 1.38667,0.32 0.32,0.213333 0.42666,0.533333 0.42666,0.96 0,0.533333 -0.21333,1.066667 -0.64,1.706667 -0.42666,0.64 -0.96,0.853333 -1.92,1.173333 -0.42666,0.106667 -0.74666,0.213333 -1.06666,0.213333 -0.42667,0 -0.64,-0.213333 -0.64,-0.533333 0,-0.213333 0.10666,-0.426667 0.32,-0.533333 0.10666,0 0.42666,-0.106667 0.96,-0.213334 0.32,-0.106666 0.64,-0.213333 0.96,-0.533333 0.21333,-0.213333 0.42666,-0.426667 0.42666,-0.746667 0,-0.213333 -0.10666,-0.32 -0.21333,-0.426666 C 189.01333,40.32 188.8,40.32 188.58667,40.32 c -0.53334,0 -1.17334,0.213333 -1.92,0.64 -0.74667,0.533333 -1.17334,1.066667 -1.17334,1.92 0,0.533333 0.21334,1.066667 0.74667,1.92 0.53333,0.853333 0.85333,1.6 0.85333,2.133333 0,0.853334 -0.32,1.6 -1.06666,2.026667 -0.42667,0.32 -0.96,0.426667 -1.6,0.426667 -0.85334,0 -1.70667,-0.32 -2.13334,-0.96 C 181.97333,48 181.76,47.466667 181.76,46.72 c 0,-0.746667 0.21333,-1.493333 0.53333,-1.92 0.21334,-0.32 0.53334,-0.533333 0.74667,-0.533333 0.21333,0 0.32,0.106666 0.32,0.32 0,0.106666 0,0.213333 -0.10667,0.32 -0.21333,0.426666 -0.32,0.853333 -0.32,1.493333 0,0.426667 0.21334,0.853333 0.53334,1.173333 0.32,0.32 0.64,0.426667 0.96,0.426667 0.32,0 0.64,-0.106667 0.85333,-0.32 0.21333,-0.213333 0.21333,-0.426667 0.21333,-0.746667 0,-0.426666 -0.21333,-0.853333 -0.64,-1.6 -0.64,-0.853333 -0.96,-1.706666 -0.96,-2.453333 0,-0.96 0.53334,-1.92 1.6,-2.56 1.38667,-0.853333 2.45334,-1.28 3.62667,-1.28 z"
           style="fill:#d65649;fill-opacity:1;stroke-width:1.06666672" />
        <path
           id="path4592"
           inkscape:connector-curvature="0"
           class="st3"
           d="m 201.92,47.68 c 0.96,-0.746667 1.81333,-1.493333 2.34667,-2.133333 0.74666,-0.853334 1.38666,-1.706667 1.6,-2.24 0.10666,-0.213334 0.32,-0.32 0.42666,-0.32 0.21334,0 0.32,0.106666 0.32,0.32 0,0.213333 -0.21333,0.64 -0.53333,1.386666 -1.06667,1.92 -2.88,3.52 -5.22667,4.906667 -1.06666,2.24 -1.92,3.733333 -2.34666,4.586667 C 197.12,56.32 195.84,57.28 194.77333,57.28 c -0.64,0 -1.06666,-0.213333 -1.38666,-0.746667 -0.10667,-0.32 -0.21334,-0.533333 -0.21334,-0.96 0,-1.6 0.96,-2.986666 2.98667,-4.48 0.32,-0.213333 1.6,-0.96 3.73333,-2.24 C 200.32,48 200.64,47.146667 200.85333,46.72 c -0.96,1.066667 -1.92,1.706667 -2.56,1.706667 -0.42666,0 -0.74666,-0.213334 -0.96,-0.64 -0.10666,-0.32 -0.21333,-0.533334 -0.21333,-0.853334 0,-0.64 0.32,-1.6 0.85333,-2.666666 0.74667,-1.6 1.81334,-2.88 2.98667,-3.733334 0.96,-0.746666 1.81333,-1.066666 2.56,-1.066666 0.32,0 0.64,0.106666 0.96,0.426666 0.21333,0.213334 0.32,0.426667 0.32,0.746667 0,0.426667 -0.10667,0.96 -0.42667,1.706667 0.21334,0.213333 0.32,0.32 0.32,0.426666 0,0.106667 0,0.106667 -0.10666,0.32 -0.21334,0.32 -0.64,0.96 -1.17334,2.026667 -0.64,0.746667 -1.06666,1.493333 -1.49333,2.56 z m -0.10667,-3.52 C 201.70667,44.053333 201.6,43.946667 201.6,43.84 c 0,-0.106667 0.10667,-0.213333 0.21333,-0.32 0.42667,-0.426667 0.85334,-0.96 1.17334,-1.493333 0.21333,-0.426667 0.32,-0.64 0.32,-0.853334 0,-0.213333 -0.10667,-0.426666 -0.32,-0.426666 -0.42667,0 -0.96,0.426666 -1.81334,1.173333 -0.85333,0.96 -1.70666,2.026667 -2.24,3.2 -0.21333,0.533333 -0.32,0.96 -0.32,1.386667 0,0.213333 0,0.32 0.10667,0.426666 0.10667,0.106667 0.21333,0.106667 0.32,0.106667 0.32,0 0.74667,-0.32 1.49333,-0.96 0.42667,-0.426667 0.74667,-0.853333 0.96,-1.386667 0.32,-0.32 0.32,-0.533333 0.32,-0.533333 z M 199.04,50.666667 C 197.65333,51.2 196.58667,52.053333 195.62667,53.12 195.2,53.653333 194.88,54.186667 194.66667,54.826667 194.56,55.04 194.56,55.146667 194.56,55.253333 c 0,0.106667 0,0.213334 0.10667,0.32 0.10666,0.213334 0.21333,0.213334 0.42666,0.213334 0.53334,0 1.38667,-0.64 2.13334,-2.026667 0.64,-0.96 1.28,-2.133333 1.81333,-3.093333 z"
           style="fill:#d65649;fill-opacity:1;stroke-width:1.06666672" />
        <path
           id="path4594"
           inkscape:connector-curvature="0"
           class="st3"
           d="m 209.49333,44.053333 c 0.96,-0.96 2.13334,-2.026666 3.30667,-2.986666 0.42667,-0.32 0.85333,-0.64 1.49333,-0.96 C 214.50667,40 214.72,39.893333 214.72,39.893333 c 0.10667,0 0.32,0.106667 0.42667,0.32 0.10666,0.106667 0.10666,0.213334 0.10666,0.32 0,0.213334 -0.21333,0.426667 -0.53333,0.64 -0.96,0.746667 -1.49333,1.386667 -1.49333,1.813334 0,0.213333 0.10666,0.32 0.32,0.32 0.42666,0 1.06666,-0.32 2.24,-0.96 0.21333,-0.106667 0.32,-0.213334 0.42666,-0.213334 0.10667,0 0.10667,0 0.21334,0.106667 0.10666,0.106667 0.10666,0.213333 0.10666,0.32 0,0.32 -0.42666,0.746667 -1.17333,1.386667 -0.85333,0.64 -1.70667,0.96 -2.45333,0.96 -0.32,0 -0.53334,-0.106667 -0.85334,-0.213334 -0.21333,-0.106666 -0.32,-0.32 -0.32,-0.746666 0,-0.213334 0.10667,-0.533334 0.32,-0.853334 -0.74666,0.533334 -1.70666,1.493334 -2.77333,2.773334 -0.53333,0.746666 -1.17333,1.813333 -1.81333,2.986666 -0.21334,0.426667 -0.53334,0.64 -0.85334,0.64 -0.32,0 -0.53333,-0.213333 -0.53333,-0.533333 0,-0.32 0.32,-1.173333 0.85333,-2.666667 C 207.78667,44.16 208.64,42.56 209.6,41.28 c 0.53333,-0.746667 0.96,-1.066667 1.49333,-1.066667 0.10667,0 0.21334,0 0.32,0.106667 0.10667,0.106667 0.21334,0.213333 0.21334,0.32 0,0.106667 -0.10667,0.32 -0.32,0.64 0,0 -0.32,0.32 -0.74667,0.96 -0.53333,0.64 -0.85333,1.173333 -1.06667,1.813333 z"
           style="fill:#d65649;fill-opacity:1;stroke-width:1.06666672" />
        <path
           id="path4596"
           inkscape:connector-curvature="0"
           class="st3"
           d="m 221.54667,39.36 c 0.74666,0 1.17333,0.426667 1.17333,1.493333 0,1.386667 -0.53333,2.88 -1.81333,4.906667 -1.38667,2.133333 -2.56,3.2 -3.73334,3.2 -0.53333,0 -0.96,-0.213333 -1.17333,-0.746667 -0.10667,-0.213333 -0.21333,-0.533333 -0.21333,-0.96 0,-1.173333 0.42666,-2.56 1.38666,-4.16 C 217.92,41.706667 218.98667,40.64 219.94667,40 c 0.53333,-0.426667 1.17333,-0.64 1.6,-0.64 z M 220.16,45.013333 c -0.21333,-0.213333 -0.32,-0.32 -0.32,-0.426666 0,-0.106667 0.10667,-0.32 0.42667,-0.64 0.85333,-0.96 1.38666,-1.813334 1.38666,-2.346667 0,-0.106667 0,-0.106667 -0.10666,-0.213333 -0.10667,-0.106667 -0.21334,-0.213334 -0.32,-0.213334 -0.32,0 -0.74667,0.32 -1.38667,0.853334 -0.74667,0.746666 -1.38667,1.6 -1.81333,2.453333 -0.42667,0.96 -0.64,1.813333 -0.64,2.346667 0,0.106666 0,0.32 0.10666,0.426666 0.10667,0.213334 0.32,0.213334 0.42667,0.213334 0.42667,0 0.96,-0.32 1.6,-0.96 0.21333,-0.32 0.42667,-0.533334 0.53333,-0.853334 0,-0.533333 0.10667,-0.64 0.10667,-0.64 z"
           style="fill:#d65649;fill-opacity:1;stroke-width:1.06666672" />
        <path
           id="path4598"
           inkscape:connector-curvature="0"
           class="st3"
           d="m 227.94667,44.693333 c -0.85334,1.066667 -1.49334,1.92 -1.92,2.346667 -0.42667,0.533333 -0.85334,0.96 -1.38667,1.173333 -0.42667,0.32 -0.74667,0.426667 -1.06667,0.426667 -0.32,0 -0.53333,-0.213333 -0.74666,-0.533333 -0.10667,-0.213334 -0.21334,-0.533334 -0.21334,-0.853334 0,-1.066666 0.64,-2.56 1.92,-4.48 1.06667,-1.706666 2.02667,-2.56 2.56,-2.56 0.10667,0 0.21334,0.106667 0.42667,0.213334 0.10667,0.106666 0.21333,0.213333 0.21333,0.426666 0,0.213334 -0.21333,0.533334 -0.53333,0.853334 -0.74667,0.746666 -1.6,1.706666 -2.13333,2.666666 -0.53334,0.853334 -0.74667,1.493334 -0.74667,1.706667 0,0.213333 0.10667,0.32 0.21333,0.32 0.53334,0 1.92,-1.173333 3.73334,-3.733333 0.64,-0.746667 0.96,-1.386667 1.06666,-1.493334 0.21334,-0.213333 0.53334,-0.32 0.74667,-0.32 0.21333,0 0.32,0 0.42667,0.106667 0.10666,0.106667 0.10666,0.213333 0.10666,0.32 0,0.106667 -0.21333,0.533333 -0.64,1.493333 -1.06666,1.92 -1.6,3.093334 -1.6,3.733334 0,0.213333 0.10667,0.32 0.32,0.32 0.32,0 0.85334,-0.426667 1.49334,-1.173334 0.53333,-0.746666 1.06666,-1.813333 1.70666,-2.88 C 232.10667,42.24 232.32,41.6 232.42667,40.746667 c 0.21333,-0.96 0.53333,-1.493334 1.17333,-1.493334 0.32,0 0.42667,0.213334 0.42667,0.533334 0,1.386666 -0.64,2.986666 -2.13334,5.226666 -1.49333,2.346667 -2.77333,3.52 -3.73333,3.52 -0.74667,0 -1.06667,-0.426666 -1.06667,-1.493333 0.10667,-0.213333 0.42667,-1.173333 0.85334,-2.346667 z"
           style="fill:#d65649;fill-opacity:1;stroke-width:1.06666672" />
        <path
           id="path4600"
           inkscape:connector-curvature="0"
           class="st3"
           d="m 243.84,46.4 c -0.32,0.533333 -0.64,0.96 -0.96,1.493333 C 242.24,48.64 241.70667,48.96 241.06667,48.96 c -0.64,0 -0.85334,-0.213333 -1.17334,-0.746667 -0.21333,-0.32 -0.32,-0.64 -0.32,-1.066666 0,-1.066667 0.32,-2.346667 0.96,-3.52 0.74667,-1.493334 1.70667,-2.56 2.77334,-3.306667 0.64,-0.533333 1.38666,-0.746667 2.02666,-0.746667 0.42667,0 0.74667,0.106667 0.96,0.32 0.21334,0.213334 0.32,0.426667 0.32,0.746667 0,0.213333 -0.10666,0.533333 -0.21333,0.853333 0.10667,0.213334 0.21333,0.32 0.21333,0.533334 0,0.213333 -0.10666,0.533333 -0.42666,0.96 -0.32,0.426666 -0.53334,1.066666 -0.85334,1.92 -0.32,0.853333 -0.42666,1.6 -0.42666,2.026666 0,0.426667 0.10666,0.746667 0.32,0.96 0.10666,0.106667 0.21333,0.213334 0.53333,0.32 0.21333,0.106667 0.32,0.32 0.32,0.64 0,0.213334 -0.10667,0.32 -0.21333,0.426667 -0.10667,0.106667 -0.32,0.213333 -0.53334,0.213333 -0.53333,0 -0.96,-0.213333 -1.38666,-0.64 C 243.62667,48.533333 243.52,48 243.52,47.36 c 0.32,-0.213333 0.32,-0.533333 0.32,-0.96 z m 1.92,-4.8 c -0.10667,-0.213333 -0.21333,-0.32 -0.32,-0.426667 -0.10667,-0.106666 -0.32,-0.106666 -0.42667,-0.106666 -0.74666,0 -1.6,0.64 -2.45333,2.026666 -0.96,1.493334 -1.49333,2.666667 -1.49333,3.626667 0,0.213333 0,0.426667 0.10666,0.533333 0.10667,0.106667 0.21334,0.213334 0.42667,0.213334 0.42667,0 0.96,-0.426667 1.70667,-1.493334 0.32,-0.533333 0.74666,-1.386666 1.38666,-2.453333 0.32,-0.64 0.53334,-1.066667 0.74667,-1.386667 0,-0.213333 0.10667,-0.426666 0.32,-0.533333 z"
           style="fill:#d65649;fill-opacity:1;stroke-width:1.06666672" />
        <path
           id="path4602"
           inkscape:connector-curvature="0"
           class="st3"
           d="m 256.21333,43.946667 c -0.32,0.746666 -0.53333,1.386666 -0.64,1.92 -0.10666,0.426666 -0.21333,0.746666 -0.21333,0.96 0,0.213333 0.10667,0.32 0.32,0.32 0.32,0 0.74667,-0.32 1.38667,-0.96 0.21333,-0.32 0.64,-0.853334 1.17333,-1.813334 0.21333,-0.32 0.42667,-0.426666 0.64,-0.426666 0.21333,0 0.32,0.106666 0.32,0.32 0,0.426666 -0.42667,1.173333 -1.49333,2.56 -0.96,1.386666 -1.92,2.026666 -2.77334,2.026666 -0.32,0 -0.64,-0.106666 -0.85333,-0.426666 C 253.97333,48.213333 253.86667,48 253.86667,47.68 c 0,-0.533333 0.10666,-1.386667 0.42666,-2.24 0.32,-0.96 0.74667,-2.133333 1.49334,-3.52 1.70666,-3.52 3.41333,-6.506667 5.12,-8.64 1.49333,-1.92 2.56,-2.773333 3.41333,-2.773333 0.32,0 0.53333,0.106666 0.64,0.32 0.21333,0.213333 0.32,0.426666 0.32,0.746666 0,1.386667 -1.17333,3.626667 -3.62667,6.826667 -1.06666,1.493333 -2.45333,2.773333 -3.94666,4.266667 -0.21334,0.213333 -0.85334,0.746666 -1.49334,1.28 z M 257.17333,41.6 C 259.2,39.786667 261.12,37.653333 262.61333,34.986667 263.36,33.6 263.78667,32.64 263.78667,32.213333 c 0,-0.213333 -0.10667,-0.32 -0.32,-0.32 -0.53334,0 -1.6,1.066667 -2.88,3.2 C 259.52,36.906667 258.34667,39.04 257.17333,41.6 Z"
           style="fill:#d65649;fill-opacity:1;stroke-width:1.06666672" />
        <path
           id="path4604"
           inkscape:connector-curvature="0"
           class="st3"
           d="m 264.10667,40.106667 c 0.10666,0 0.32,0.106666 0.42666,0.213333 0.10667,0.106667 0.10667,0.213333 0.10667,0.32 0,0.213333 -0.10667,0.426667 -0.42667,0.853333 -0.96,1.6 -1.81333,2.88 -2.24,3.946667 -0.42666,0.96 -0.85333,2.133333 -1.17333,3.2 -0.10667,0.426667 -0.42667,0.746667 -0.74667,0.746667 -0.21333,0 -0.32,-0.106667 -0.42666,-0.213334 C 259.52,49.066667 259.52,48.96 259.52,48.746667 c 0,-0.32 0.32,-1.173334 0.85333,-2.88 C 260.8,44.48 261.76,43.093333 262.72,41.493333 c 0.32,-0.533333 0.64,-0.853333 0.74667,-0.96 0.32,-0.32 0.42666,-0.426666 0.64,-0.426666 z M 266.88,34.56 c 0.42667,0 0.64,0.213333 0.64,0.64 0,0.426667 -0.21333,0.853333 -0.64,1.386667 -0.42667,0.533333 -0.74667,0.64 -1.17333,0.64 -0.21334,0 -0.32,-0.106667 -0.42667,-0.213334 -0.10667,-0.106666 -0.21333,-0.32 -0.21333,-0.426666 0,-0.426667 0.21333,-0.96 0.74666,-1.493334 C 266.24,34.88 266.56,34.56 266.88,34.56 Z"
           style="fill:#d65649;fill-opacity:1;stroke-width:1.06666672" />
        <path
           id="path4606"
           inkscape:connector-curvature="0"
           class="st3"
           d="m 268.48,41.173333 c 0.74667,-0.64 1.6,-0.96 2.24,-0.96 0.42667,0 0.74667,0.213334 0.96,0.533334 0.21333,0.32 0.32,0.64 0.32,0.96 0,0.746666 -0.21333,1.706666 -0.74667,2.773333 -0.53333,1.173333 -1.38666,2.346667 -2.45333,3.306667 -0.85333,0.853333 -1.70667,1.386666 -2.45333,1.386666 -0.32,0 -0.53334,0 -0.74667,-0.106666 C 265.38667,48.96 265.17333,48.853333 264.96,48.64 c -0.10667,0.106667 -0.10667,0.213333 -0.10667,0.213333 -0.10666,0.32 -0.32,0.533334 -0.32,0.64 C 264.42667,49.6 264.32,49.6 264.21333,49.6 264,49.6 263.89333,49.493333 263.78667,49.28 263.68,49.173333 263.68,48.96 263.68,48.853333 c 0,-0.213333 0.53333,-1.706666 1.70667,-4.16 1.6,-3.413333 3.41333,-6.933333 5.44,-10.346666 0.85333,-1.493334 1.38666,-2.24 1.6,-2.453334 0.21333,-0.32 0.42666,-0.426666 0.53333,-0.426666 0.21333,0 0.42667,0.106666 0.53333,0.32 0.10667,0.106666 0.10667,0.32 0.10667,0.426666 0,0.213334 -0.10667,0.426667 -0.32,0.746667 0,0.106667 -0.32,0.533333 -0.85333,1.6 -1.81334,2.453333 -3.09334,4.8 -3.94667,6.613333 z M 265.6,47.04 c 0.10667,0.213333 0.32,0.32 0.42667,0.426667 0.10666,0.106666 0.32,0.106666 0.42666,0.106666 0.85334,0 1.81334,-0.746666 2.66667,-2.24 0.42667,-0.64 0.74667,-1.386666 0.96,-2.026666 0.21333,-0.533334 0.32,-0.96 0.32,-1.386667 0,-0.213333 0,-0.32 -0.10667,-0.426667 -0.10666,-0.106666 -0.21333,-0.106666 -0.42666,-0.106666 -0.42667,0 -0.96,0.32 -1.70667,0.853333 -0.64,0.533333 -1.17333,1.493333 -1.92,2.666667 -0.32,0.533333 -0.53333,1.066666 -0.74667,1.6 C 265.70667,46.933333 265.6,47.04 265.6,47.04 Z"
           style="fill:#d65649;fill-opacity:1;stroke-width:1.06666672" />
        <path
           id="path4608"
           inkscape:connector-curvature="0"
           class="st3"
           d="m 274.98667,44.053333 c 0.96,-0.96 2.13333,-2.026666 3.30666,-2.986666 0.42667,-0.32 0.85334,-0.64 1.49334,-0.96 C 280,40 280.21333,39.893333 280.21333,39.893333 c 0.10667,0 0.32,0.106667 0.42667,0.32 0.10667,0.106667 0.10667,0.213334 0.10667,0.32 0,0.213334 -0.21334,0.426667 -0.53334,0.64 C 279.25333,41.92 278.72,42.56 278.72,42.986667 c 0,0.213333 0.10667,0.32 0.32,0.32 0.42667,0 1.06667,-0.32 2.24,-0.96 0.21333,-0.106667 0.32,-0.213334 0.42667,-0.213334 0.10666,0 0.10666,0 0.21333,0.106667 0.10667,0.106667 0.10667,0.213333 0.10667,0.32 0,0.32 -0.42667,0.746667 -1.17334,1.386667 -0.85333,0.64 -1.70666,0.96 -2.45333,0.96 -0.32,0 -0.53333,-0.106667 -0.85333,-0.213334 -0.21334,-0.106666 -0.32,-0.32 -0.32,-0.746666 0,-0.213334 0.10666,-0.533334 0.32,-0.853334 C 276.8,43.626667 275.84,44.586667 274.77333,45.866667 274.24,46.613333 273.6,47.68 272.96,48.853333 c -0.21333,0.426667 -0.53333,0.64 -0.85333,0.64 -0.32,0 -0.53334,-0.213333 -0.53334,-0.533333 0,-0.32 0.32,-1.173333 0.85334,-2.666667 C 273.28,44.16 274.13333,42.56 275.09333,41.28 c 0.53334,-0.746667 0.96,-1.066667 1.49334,-1.066667 0.10666,0 0.21333,0 0.32,0.106667 0.10666,0.106667 0.21333,0.213333 0.21333,0.32 0,0.106667 -0.10667,0.32 -0.32,0.64 0,0 -0.32,0.32 -0.74667,0.96 -0.42666,0.64 -0.74666,1.173333 -1.06666,1.813333 z"
           style="fill:#d65649;fill-opacity:1;stroke-width:1.06666672" />
        <path
           id="path4610"
           inkscape:connector-curvature="0"
           class="st3"
           d="m 286.18667,46.4 c -0.32,0.533333 -0.64,0.96 -0.96,1.493333 C 284.58667,48.64 284.05333,48.96 283.41333,48.96 282.88,48.96 282.56,48.746667 282.24,48.213333 c -0.21333,-0.32 -0.32,-0.64 -0.32,-1.066666 0,-1.066667 0.32,-2.346667 0.96,-3.52 0.74667,-1.493334 1.70667,-2.56 2.77333,-3.306667 0.64,-0.533333 1.38667,-0.746667 2.02667,-0.746667 0.42667,0 0.74667,0.106667 0.96,0.32 0.21333,0.213334 0.32,0.426667 0.32,0.746667 0,0.213333 -0.10667,0.533333 -0.21333,0.853333 0.10666,0.213334 0.21333,0.32 0.21333,0.533334 0,0.213333 -0.10667,0.533333 -0.42667,0.96 -0.32,0.426666 -0.53333,1.066666 -0.85333,1.92 -0.32,0.853333 -0.42667,1.6 -0.42667,2.026666 0,0.426667 0.10667,0.746667 0.32,0.96 0.10667,0.106667 0.21334,0.213334 0.53334,0.32 0.21333,0.106667 0.32,0.32 0.32,0.64 0,0.213334 -0.10667,0.32 -0.21334,0.426667 -0.10666,0.106667 -0.32,0.213333 -0.53333,0.213333 -0.53333,0 -0.96,-0.213333 -1.38667,-0.64 -0.32,-0.32 -0.42666,-0.853333 -0.42666,-1.493333 0.21333,-0.213333 0.21333,-0.533333 0.32,-0.96 z M 288,41.6 c -0.10667,-0.213333 -0.21333,-0.32 -0.32,-0.426667 -0.10667,-0.106666 -0.32,-0.106666 -0.42667,-0.106666 -0.74666,0 -1.6,0.64 -2.45333,2.026666 -0.96,1.493334 -1.49333,2.666667 -1.49333,3.626667 0,0.213333 0,0.426667 0.10666,0.533333 0.10667,0.106667 0.21334,0.213334 0.42667,0.213334 0.42667,0 0.96,-0.426667 1.70667,-1.493334 0.32,-0.533333 0.74666,-1.386666 1.38666,-2.453333 0.32,-0.64 0.53334,-1.066667 0.74667,-1.386667 C 287.57333,41.92 287.68,41.706667 288,41.6 Z"
           style="fill:#d65649;fill-opacity:1;stroke-width:1.06666672" />
        <path
           id="path4612"
           inkscape:connector-curvature="0"
           class="st3"
           d="m 293.01333,44.053333 c 0.96,-0.96 2.13334,-2.026666 3.30667,-2.986666 0.42667,-0.32 0.85333,-0.64 1.49333,-0.96 C 298.02667,40 298.24,39.893333 298.24,39.893333 c 0.10667,0 0.32,0.106667 0.42667,0.32 0.10666,0.106667 0.10666,0.213334 0.10666,0.32 0,0.213334 -0.21333,0.426667 -0.53333,0.64 -0.96,0.746667 -1.49333,1.386667 -1.49333,1.813334 0,0.213333 0.10666,0.32 0.32,0.32 0.42666,0 1.06666,-0.32 2.24,-0.96 0.21333,-0.106667 0.32,-0.213334 0.42666,-0.213334 0.10667,0 0.10667,0 0.21334,0.106667 0.10666,0.106667 0.10666,0.213333 0.10666,0.32 0,0.32 -0.42666,0.746667 -1.17333,1.386667 -0.85333,0.64 -1.70667,0.96 -2.45333,0.96 -0.32,0 -0.53334,-0.106667 -0.85334,-0.213334 -0.21333,-0.106666 -0.32,-0.32 -0.32,-0.746666 0,-0.213334 0.10667,-0.533334 0.32,-0.853334 -0.74666,0.533334 -1.70666,1.493334 -2.77333,2.773334 -0.53333,0.746666 -1.17333,1.813333 -1.81333,2.986666 -0.21334,0.426667 -0.53334,0.64 -0.85334,0.64 -0.32,0 -0.53333,-0.213333 -0.53333,-0.533333 0,-0.32 0.32,-1.173333 0.85333,-2.666667 C 291.30667,44.16 292.16,42.56 293.12,41.28 c 0.53333,-0.746667 0.96,-1.066667 1.49333,-1.066667 0.10667,0 0.21334,0 0.32,0.106667 0.10667,0.106667 0.21334,0.213333 0.21334,0.32 0,0.106667 -0.10667,0.32 -0.32,0.64 0,0 -0.32,0.32 -0.74667,0.96 -0.53333,0.64 -0.85333,1.173333 -1.06667,1.813333 z"
           style="fill:#d65649;fill-opacity:1;stroke-width:1.06666672" />
        <path
           id="path4614"
           inkscape:connector-curvature="0"
           class="st3"
           d="m 304.74667,44.693333 c -0.85334,0.96 -1.6,1.813334 -2.13334,2.346667 -0.96,0.96 -1.92,1.493333 -2.56,1.493333 -0.32,0 -0.53333,-0.106666 -0.74666,-0.32 C 299.2,48 299.09333,47.786667 299.09333,47.466667 c 0,-0.96 0.64,-2.453334 1.92,-4.266667 1.17334,-1.813333 2.24,-2.666667 2.77334,-2.666667 0.10666,0 0.32,0.106667 0.42666,0.213334 0.10667,0.106666 0.10667,0.213333 0.10667,0.32 0,0.213333 -0.10667,0.426666 -0.21333,0.533333 -0.10667,0.106667 -0.42667,0.533333 -0.96,1.066667 -0.53334,0.533333 -1.06667,1.173333 -1.6,1.92 -0.53334,0.746666 -0.74667,1.386666 -0.74667,1.706666 0,0.213334 0.10667,0.32 0.32,0.32 0.42667,0 1.06667,-0.533333 2.24,-1.6 0.64,-0.64 1.17333,-1.173333 1.6,-1.706666 0.10667,-0.106667 0.42667,-0.533334 0.96,-1.493334 0.53333,-0.746666 0.85333,-1.173333 0.96,-1.386666 0.32,-0.32 0.53333,-0.533334 0.74667,-0.533334 0.10666,0 0.32,0.106667 0.42666,0.213334 0.10667,0.106666 0.21334,0.213333 0.21334,0.426666 0,0.32 -0.21334,0.746667 -0.53334,1.493334 -0.42666,0.746666 -0.85333,1.6 -1.38666,2.24 -0.64,1.066666 -1.06667,2.133333 -1.49334,2.88 0.64,-0.32 1.17334,-0.746667 1.70667,-1.386667 0.85333,-0.853333 1.49333,-1.6 1.70667,-2.026667 C 308.48,43.306667 308.58667,43.2 308.8,43.2 c 0.21333,0 0.42667,0.106667 0.42667,0.426667 0,0.533333 -0.42667,1.386666 -1.38667,2.346666 -0.96,1.173334 -2.34667,2.24 -3.94667,3.093334 -0.74666,2.026666 -1.6,3.52 -2.34666,4.906666 -1.38667,2.453334 -2.77334,3.52 -4.26667,3.52 -0.53333,0 -1.06667,-0.213333 -1.49333,-0.64 -0.32,-0.32 -0.42667,-0.746666 -0.42667,-1.386666 0,-1.6 1.06667,-3.093334 3.2,-4.693334 0.64,-0.426666 1.6,-0.96 2.77333,-1.813333 0.42667,-0.32 0.85334,-0.533333 1.17334,-0.64 0.21333,-0.426667 0.42666,-0.96 0.74666,-1.813333 C 304.10667,46.08 304.42667,45.44 304.74667,44.693333 Z M 302.08,50.56 c -0.96,0.533333 -2.13333,1.386667 -3.2,2.24 -1.06667,0.96 -1.70667,1.92 -1.70667,2.773333 0,0.213334 0,0.32 0.10667,0.426667 0.10667,0.213333 0.32,0.213333 0.53333,0.213333 0.74667,0 1.6,-0.746666 2.45334,-2.346666 C 300.37333,53.653333 300.8,52.8 301.44,51.306667 301.76,51.2 301.86667,50.88 302.08,50.56 Z"
           style="fill:#d65649;fill-opacity:1;stroke-width:1.06666672" />
      </g>
      <path
         inkscape:connector-curvature="0"
         style="line-height:normal;font-family:'Bitstream Vera Sans';-inkscape-font-specification:'Bitstream Vera Sans';text-indent:0;text-align:start;text-transform:none;overflow:visible;fill:#4d4d4d;fill-opacity:1;stroke-width:0.24144173;enable-background:accumulate"
         d="m 341.16874,1039.2152 c -1.33059,0 -2.41442,1.0839 -2.41442,2.4145 0,1.3306 1.08383,2.4144 2.41442,2.4144 1.33058,0 2.41441,-1.0838 2.41441,-2.4144 0,-1.3306 -1.08383,-2.4145 -2.41441,-2.4145 z m 0,0.483 c 1.06961,0 1.93153,0.8619 1.93153,1.9315 0,1.0696 -0.86192,1.9315 -1.93153,1.9315 -1.06963,0 -1.93154,-0.8619 -1.93154,-1.9315 0,-1.0696 0.86191,-1.9315 1.93154,-1.9315 z m -0.84505,0.7243 v 2.4144 h 0.50552 v -0.8677 h 0.3848 l 0.46024,0.8677 h 0.5357 v -0.023 l -0.5357,-0.9884 c 0.0483,-0.024 0.12525,-0.05 0.17354,-0.098 0.0725,-0.049 0.0951,-0.095 0.14336,-0.1433 0.0483,-0.072 0.074,-0.1238 0.0981,-0.1961 0.0242,-0.072 0.0226,-0.145 0.0226,-0.2415 0,-0.1207 -0.0272,-0.2203 -0.0755,-0.3169 -0.0242,-0.072 -0.0936,-0.1388 -0.16599,-0.2112 -0.0966,-0.072 -0.17353,-0.1268 -0.29425,-0.151 -0.0966,-0.024 -0.2173,-0.045 -0.36217,-0.045 z m 0.52815,0.4376 h 0.39235 c 0.12072,0 0.21427,0.018 0.28671,0.091 0.0725,0.072 0.0981,0.1509 0.0981,0.2716 0,0.049 0.002,0.095 -0.0226,0.1434 -0.0242,0.049 -0.0513,0.097 -0.0755,0.1207 -0.0242,0.024 -0.0725,0.044 -0.12072,0.067 -0.0483,0.024 -0.0936,0.03 -0.166,0.03 h -0.39234 z"
         overflow="visible"
         id="path4624" />
    </g>
    <flowRoot
       xml:space="preserve"
       id="flowRoot4504"
       style="font-style:normal;font-weight:normal;font-size:11.25px;line-height:125%;font-family:Sans;letter-spacing:0px;word-spacing:0px;fill:#000000;fill-opacity:1;stroke:none;stroke-width:1px;stroke-linecap:butt;stroke-linejoin:miter;stroke-opacity:1"
       transform="matrix(0.93750001,0,0,0.93750001,176.03906,1003.2368)"><flowRegion
         id="flowRegion4506"><rect
           id="rect4508"
           width="165.96675"
           height="99.94725"
           x="10"
           y="-93.396202" /></flowRegion><flowPara
         id="flowPara4510" /></flowRoot>    <flowRoot
       xml:space="preserve"
       id="flowRoot4512"
       style="font-style:italic;font-variant:normal;font-weight:normal;font-stretch:normal;font-size:11.25000095px;line-height:125%;font-family:'Andika New Basic';-inkscape-font-specification:'Andika New Basic, Italic';font-variant-ligatures:normal;font-variant-caps:normal;font-variant-numeric:normal;font-feature-settings:normal;text-align:start;letter-spacing:0px;word-spacing:0px;writing-mode:lr-tb;text-anchor:start;fill:#000000;fill-opacity:1;stroke:none;stroke-width:1px;stroke-linecap:butt;stroke-linejoin:miter;stroke-opacity:1"
       transform="matrix(1.2608789,0,0,1.2608789,189.65671,1001.4824)"><flowRegion
         id="flowRegion4514"
         style="font-style:italic;font-variant:normal;font-weight:normal;font-stretch:normal;font-size:11.25000095px;font-family:'Andika New Basic';-inkscape-font-specification:'Andika New Basic, Italic';font-variant-ligatures:normal;font-variant-caps:normal;font-variant-numeric:normal;font-feature-settings:normal;text-align:start;writing-mode:lr-tb;text-anchor:start"><rect
           id="rect4516"
           width="174.97795"
           height="114.6664"
           x="-6.4285712"
           y="-88.396202"
           style="font-style:italic;font-variant:normal;font-weight:normal;font-stretch:normal;font-size:11.25000095px;font-family:'Andika New Basic';-inkscape-font-specification:'Andika New Basic, Italic';font-variant-ligatures:normal;font-variant-caps:normal;font-variant-numeric:normal;font-feature-settings:normal;text-align:start;writing-mode:lr-tb;text-anchor:start" /></flowRegion><flowPara
         id="flowPara4518">This book was created with Bloom Enterprise features freely enabled in order to support projects funded by the local community. </flowPara></flowRoot>  </g>
</svg>
