<svg width="210" height="297" viewBox="0 0 210 297" fill="none" xmlns="http://www.w3.org/2000/svg">
<g clip-path="url(#clip0)">
<rect width="210" height="297" fill="#FFFFA4"/>
<path d="M233.616 56.3836H-23.7105V237.98H233.616V56.3836Z" fill="#FFFFA4"/>
<path opacity="0.681416" d="M93.0748 30.8604C71.977 31.1354 62.0247 55.5065 69.4583 73.1357C74.991 89.8364 80.8487 106.39 83.7904 123.614C71.0774 103.741 50.0057 82.6265 24.1182 89.3608C-2.75436 95.837 -29.4717 123.246 -23.0247 152.458C-14.6552 175.296 14.8072 171.603 34.2138 171.478C40.4975 172.253 65.115 171.409 57.5599 174.993C34.6036 180.324 10.3001 196.839 10.5072 222.677C9.90306 249.783 28.3185 283.287 58.1908 283.881C83.6585 280.218 86.2444 249.067 93.886 229.978C97.0184 221.862 104.323 200.068 102.81 220.784C99.9071 246.859 117.093 274.376 144.544 276.67C168.551 280.369 203.822 270.433 206.831 242.327C205.185 215.492 173.997 206.948 157.975 190.227C141.739 178.396 160.263 185.701 170.234 188.334C198.769 197.672 227.877 175.033 231.799 146.599C237.448 125.849 230.412 91.8932 203.856 91.8847C177.708 94.5017 161.348 119.735 137.874 129.292C153.085 111.112 166.554 84.422 152.116 61.7782C140.145 42.1032 116.301 29.2777 93.0748 30.8604V30.8604Z" fill="#010101" fill-opacity="0.701961"/>
<path d="M102.554 132.14C76.4277 133.262 64.5257 169.917 84.6163 186.404C103.175 204.815 138.057 189.283 136.807 163.239C137.188 145.134 120.42 130.131 102.554 132.14V132.14Z" fill="white" fill-opacity="0.329412"/>
<path d="M122.327 137.288H13.4368V119.455H122.327V137.288Z" fill="#F4F4F4" fill-opacity="0.729412"/>
<path d="M114.965 165.166H13.4368V147.333H114.965V165.166Z" fill="#F4F4F4" fill-opacity="0.729412"/>
<path d="M155.194 217.928H122.327V200.094H155.194V217.928Z" fill="#F4F4F4" fill-opacity="0.729412"/>
<path d="M168.329 245.806H122.327V227.972H168.329V245.806Z" fill="#F4F4F4" fill-opacity="0.729412"/>
</g>
<defs>
<clipPath id="clip0">
<rect width="210" height="297" fill="white"/>
</clipPath>
</defs>
</svg>
