<svg width="210" height="297" viewBox="0 0 210 297" fill="none" xmlns="http://www.w3.org/2000/svg">
<g clip-path="url(#clip0)">
<rect width="210" height="297" fill="#FFFFA4"/>
<path opacity="0.681416" d="M93.2849 33.1244C72.5648 33.3944 62.7907 57.3292 70.0912 74.6427C75.5249 91.0444 81.2777 107.302 84.1667 124.217C71.6814 104.7 50.987 83.9636 25.563 90.5773C-0.828423 96.9376 -27.0674 123.856 -20.7358 152.545C-12.5162 174.974 16.4187 171.347 35.4778 171.224C41.649 171.985 65.8258 171.156 58.4059 174.676C35.8606 179.911 11.9923 196.131 12.1957 221.506C11.6024 248.128 29.6881 281.031 59.0256 281.615C84.0372 278.018 86.5768 247.424 94.0816 228.677C97.1579 220.706 104.332 199.303 102.846 219.647C99.9949 245.256 116.874 272.279 143.833 274.533C167.41 278.165 202.049 268.407 205.004 240.805C203.387 214.45 172.758 206.059 157.023 189.637C141.077 178.018 159.27 185.193 169.063 187.778C197.086 196.95 225.673 174.716 229.525 146.791C235.073 126.412 228.163 93.0644 202.082 93.056C176.403 95.6262 160.336 120.407 137.282 129.794C152.22 111.939 165.448 85.7269 151.269 63.4885C139.513 44.1659 116.095 31.5701 93.2849 33.1244V33.1244Z" fill="#010101" fill-opacity="0.701961"/>
<path d="M102.594 132.591C76.9359 133.692 65.247 169.691 84.9779 185.883C103.204 203.964 137.462 188.711 136.234 163.132C136.608 145.352 120.141 130.617 102.594 132.591V132.591Z" fill="white" fill-opacity="0.329412"/>
<path d="M92.6664 163.095H15.9503V154.209H92.6664V163.095Z" fill="#F4F4F4" fill-opacity="0.729412"/>
<path d="M124.841 135.311H15.9503V126.425H124.841V135.311Z" fill="#F4F4F4" fill-opacity="0.729412"/>
<path d="M117.479 149.203H15.9503V140.317H117.479V149.203Z" fill="#F4F4F4" fill-opacity="0.729412"/>
</g>
<defs>
<clipPath id="clip0">
<rect width="210" height="297" fill="white"/>
</clipPath>
</defs>
</svg>
