<svg width="210" height="298" viewBox="0 0 210 298" fill="none" xmlns="http://www.w3.org/2000/svg">
<g clip-path="url(#clip0)">
<rect width="210" height="297" transform="translate(0 0.5)" fill="#03006F"/>
<path opacity="0.681416" d="M93.2849 33.6244C72.5648 33.8944 62.7907 57.8292 70.0912 75.1428C75.5249 91.5444 81.2777 107.802 84.1667 124.717C71.6814 105.2 50.987 84.4637 25.563 91.0773C-0.828423 97.4376 -27.0674 124.356 -20.7358 153.045C-12.5162 175.474 16.4187 171.847 35.4778 171.724C41.649 172.485 65.8258 171.656 58.4059 175.176C35.8606 180.411 11.9923 196.631 12.1957 222.006C11.6024 248.628 29.6881 281.531 59.0256 282.115C84.0372 278.518 86.5768 247.924 94.0816 229.177C97.1579 221.206 104.332 199.803 102.846 220.147C99.9949 245.756 116.874 272.78 143.833 275.033C167.41 278.665 202.049 268.907 205.004 241.305C203.387 214.95 172.758 206.559 157.023 190.137C141.077 178.518 159.27 185.693 169.063 188.278C197.086 197.45 225.673 175.216 229.525 147.291C235.073 126.912 228.163 93.5644 202.082 93.556C176.403 96.1263 160.336 120.907 137.282 130.294C152.22 112.439 165.448 86.227 151.269 63.9886C139.513 44.6659 116.095 32.0701 93.2849 33.6244V33.6244Z" fill="#010101" fill-opacity="0.701961"/>
<path d="M102.594 133.091C76.9359 134.192 65.247 170.191 84.9779 186.383C103.204 204.464 137.462 189.211 136.234 163.632C136.608 145.852 120.141 131.117 102.594 133.091V133.091Z" fill="white" fill-opacity="0.329412"/>
<path d="M126.445 134.818H17.5544V125.932H126.445V134.818Z" fill="#F4F4F4" fill-opacity="0.729412"/>
<path d="M119.083 148.71H17.5544V139.824H119.083V148.71Z" fill="#F4F4F4" fill-opacity="0.729412"/>
<path d="M196.683 248.877C196.655 257.873 196.658 266.87 196.658 275.866C196.682 277.019 195.225 277.891 194.249 277.306C186.633 272.758 178.988 268.255 171.345 263.749C170.322 262.667 170.396 261.819 171.345 260.944C178.987 256.435 186.645 251.949 194.301 247.462C195.437 247.312 196.606 247.944 196.683 248.877Z" fill="#FF8A83" stroke="#FF2F23" stroke-width="6.613" stroke-miterlimit="0"/>
<path d="M175.375 247.132H144.914C143.167 247.132 141.751 248.551 141.751 250.302V274.698C141.751 276.449 143.167 277.868 144.914 277.868H175.375C177.122 277.868 178.538 276.449 178.538 274.698V250.302C178.538 248.551 177.122 247.132 175.375 247.132Z" fill="#FF8A83" stroke="#FF2F23" stroke-width="7" stroke-linejoin="round"/>
</g>
<defs>
<clipPath id="clip0">
<rect width="210" height="297" fill="white" transform="translate(0 0.5)"/>
</clipPath>
</defs>
</svg>
