<svg xmlns="http://www.w3.org/2000/svg" fill="none" viewBox="0 0 96 106"><path stroke="#888A85" stroke-linejoin="round" stroke-width="10.4" d="M10 34c0-14 0-20 5-25 4-4 12-4 28-4h10c16 0 23 0 28 4 5 5 5 11 5 25v42H10V34Z"/><path stroke="#888A85" stroke-linecap="round" stroke-width="10.4" d="M5 76h86"/><path stroke="#888A85" stroke-linecap="round" stroke-linejoin="round" stroke-width="10.4" d="M42 22c6-1 15 0 7 8-10 10-25 32-7 25 17-8 25-3 17 5"/><path stroke="#888A85" stroke-linecap="round" stroke-width="10.4" d="M48 76v19m-33 5 14-24m52 24L67 76"/></svg>