<?xml version="1.0" encoding="utf-8"?>
<svg version="1.1" xmlns="http://www.w3.org/2000/svg" width="749px" height="259px">
<path fill="#166598" d="M703.344,215.459H219.758v-173.9h483.585c22.136,0,40.144,18.008,40.144,40.144v93.616
	C743.486,197.454,725.479,215.459,703.344,215.459L703.344,215.459z"/>
<g>
	<path fill="#FFF" d="M132.104,245.278c-64.082,0-116.215-52.135-116.215-116.215c0-64.083,52.133-116.215,116.215-116.215
		c64.083,0,116.216,52.133,116.216,116.215C248.321,193.145,196.188,245.278,132.104,245.278L132.104,245.278z"/>
	<path d="M132.104,24.022c58.013,0,105.041,47.028,105.041,105.04s-47.028,105.04-105.041,105.04
		c-58.012,0-105.039-47.027-105.039-105.04C27.064,71.051,74.092,24.022,132.104,24.022 M132.104,1.673
		c-34.026,0-66.016,13.251-90.077,37.312c-24.06,24.06-37.312,56.05-37.312,90.078s13.251,66.018,37.312,90.078
		c24.061,24.062,56.051,37.313,90.077,37.313c34.027,0,66.018-13.251,90.079-37.313c24.061-24.062,37.312-56.052,37.312-90.078
		c0-34.027-13.251-66.017-37.312-90.078S166.132,1.673,132.104,1.673L132.104,1.673z"/>
	<path d="M130.728,107.994c-7.206-13.141-19.498-18.369-33.768-18.369c-20.772,0-37.302,14.693-37.302,39.564
		c0,25.293,15.542,39.562,38.01,39.562c14.413,0,26.705-7.912,33.487-19.923l-15.826-8.054c-3.534,8.478-8.902,11.017-15.684,11.017
		c-11.728,0-17.096-9.748-17.096-22.603c0-12.861,4.521-22.61,17.096-22.61c3.39,0,10.173,1.838,14.129,10.314L130.728,107.994z"/>
	<path d="M204.313,107.994c-7.205-13.141-19.496-18.369-33.766-18.369c-20.771,0-37.305,14.693-37.305,39.564
		c0,25.293,15.545,39.562,38.01,39.562c14.414,0,26.705-7.912,33.487-19.923l-15.824-8.054c-3.533,8.478-8.903,11.017-15.685,11.017
		c-11.726,0-17.098-9.748-17.098-22.603c0-12.861,4.523-22.61,17.098-22.61c3.39,0,10.173,1.838,14.132,10.314L204.313,107.994z"/>
</g>
<path fill="#FFF" d="M292.195,119.232c-6.97,0-11.796-1.757-14.48-5.271c-2.684-3.52-4.202-7.986-4.556-13.405l12.048-0.988
	c0.26,2.563,0.793,4.516,1.594,5.858c1.303,2.173,3.167,3.259,5.59,3.259c1.807,0,3.201-0.555,4.179-1.667
	c0.979-1.11,1.467-2.398,1.467-3.862c0-1.391-0.465-2.636-1.398-3.735c-0.932-1.098-3.093-2.135-6.485-3.111
	c-5.554-1.636-9.514-3.809-11.88-6.516c-2.386-2.71-3.579-6.165-3.579-10.363c0-2.759,0.61-5.364,1.831-7.816
	c1.22-2.453,3.056-4.381,5.507-5.785c2.45-1.404,5.81-2.104,10.078-2.104c5.237,0,9.229,1.275,11.978,3.826
	c2.749,2.551,4.384,6.609,4.906,12.174l-11.936,0.915c-0.317-2.417-0.983-4.174-1.999-5.271c-1.015-1.1-2.418-1.648-4.207-1.648
	c-1.473,0-2.582,0.409-3.326,1.227c-0.747,0.818-1.118,1.812-1.118,2.984c0,0.855,0.308,1.622,0.923,2.307
	c0.597,0.708,2.013,1.367,4.249,1.977c5.536,1.562,9.5,3.142,11.895,4.74c2.395,1.601,4.137,3.583,5.227,5.95
	c1.089,2.368,1.635,5.016,1.635,7.946c0,3.441-0.727,6.615-2.18,9.519c-1.455,2.905-3.485,5.107-6.095,6.609
	C299.454,118.482,296.165,119.232,292.195,119.232z M348.743,115.879c-3.045,2.234-6.844,3.35-11.391,3.35
	c-4.623,0-8.448-0.964-11.475-2.893c-3.028-1.928-5.484-4.979-7.366-9.153c-1.881-4.175-2.822-9.397-2.822-15.67
	c0-8.763,1.863-15.584,5.59-20.468c3.729-4.88,8.918-7.321,15.57-7.321c6.821,0,12.077,2.396,15.766,7.193
	c3.69,4.797,5.535,11.516,5.535,20.156c0,6.273-0.806,11.417-2.418,15.433C354.121,110.521,351.791,113.646,348.743,115.879z
	 M345.49,90.854c0-5.052-0.778-8.744-2.335-11.076c-1.556-2.332-3.666-3.496-6.331-3.496c-2.553,0-4.603,1.184-6.149,3.551
	c-1.549,2.367-2.322,6.285-2.322,11.753c0,5.418,0.77,9.312,2.307,11.679c1.537,2.368,3.629,3.552,6.276,3.552
	c2.721,0,4.826-1.159,6.317-3.479C344.743,101.02,345.49,96.858,345.49,90.854z M401.127,77.379v40.934h10.372V64.638h-16.644
	l-6.377,32.659l-6.422-32.659h-16.653v53.675h10.37V77.379l7.976,40.934h9.387L401.127,77.379z M454.675,106.157h-21.862V95.575
	h19.709V84.629h-19.709v-8.531h21.246v-11.46h-33.936v53.675h34.552V106.157z M501.131,101.911
	c-0.856-2.124-1.622-3.502-2.292-4.138c-0.913-0.83-1.946-1.246-3.104-1.246h-1.119v21.786h-12.717V64.638h21.104
	c3.913,0,6.903,0.44,8.973,1.318c2.068,0.878,3.735,2.507,5.004,4.888c1.268,2.379,1.899,5.277,1.899,8.695
	c0,2.979-0.481,5.546-1.453,7.707c-0.97,2.16-2.304,3.912-3.999,5.254c-1.082,0.854-2.563,1.563-4.447,2.124
	c1.509,0.661,2.608,1.321,3.297,1.979c0.466,0.441,1.141,1.381,2.024,2.822c0.884,1.442,1.479,2.553,1.774,3.335l6.131,15.553H507.9
	L501.131,101.911z M499.959,86.387c0.575,0,1.693-0.244,3.354-0.732c0.839-0.219,1.524-0.781,2.056-1.684
	c0.53-0.903,0.797-1.94,0.797-3.112c0-1.733-0.42-3.062-1.257-3.991c-0.84-0.927-2.415-1.391-4.727-1.391h-5.563v10.91H499.959z
	 M540.027,64.638h-12.688v53.675h12.688V64.638z M557.779,115.97c3.063,2.172,7.028,3.258,11.893,3.258
	c3.95,0,7.367-0.604,10.246-1.812c2.878-1.208,6.193-3.484,9.938-6.829V87.705h-19.567v11.167l8.469-0.002v5.052
	c-1.659,1.293-3.131,2.208-4.416,2.746s-2.638,0.807-4.054,0.807c-2.982,0-5.308-1.246-6.975-3.735
	c-1.668-2.49-2.5-6.638-2.5-12.448c0-5.468,0.823-9.465,2.474-11.991c1.647-2.525,3.86-3.788,6.638-3.788
	c1.865,0,3.397,0.537,4.6,1.61c1.203,1.075,2.055,2.624,2.558,4.65l12.216-2.855c-0.745-3.465-1.857-6.328-3.339-8.585
	c-1.482-2.259-3.345-3.924-5.59-4.998c-2.247-1.074-5.634-1.61-10.164-1.61c-4.695,0-8.432,0.865-11.21,2.599
	c-3.556,2.245-6.259,5.534-8.105,9.866c-1.846,4.332-2.768,9.428-2.768,15.286c0,5.565,0.843,10.497,2.528,14.792
	C552.336,110.563,554.712,113.797,557.779,115.97z M624.503,118.313h12.718V64.638h-12.718v18.783h-13.836V64.638h-12.663v53.675
	h12.663V96.601h13.836V118.313z M681.823,64.638h-38.492v13.255h12.913v40.421h12.664V77.893h12.915V64.638z M721.462,92.907
	c-1.091-2.367-2.833-4.349-5.229-5.95c-2.394-1.598-6.359-3.178-11.894-4.74c-2.234-0.61-3.651-1.269-4.248-1.977
	c-0.614-0.685-0.924-1.452-0.924-2.307c0-1.172,0.374-2.166,1.121-2.984c0.742-0.818,1.852-1.227,3.324-1.227
	c1.789,0,3.189,0.55,4.207,1.648c1.015,1.097,1.682,2.854,1.998,5.271l11.935-0.915c-0.521-5.565-2.158-9.623-4.905-12.174
	c-2.749-2.551-6.74-3.826-11.978-3.826c-4.269,0-7.627,0.7-10.078,2.104c-2.45,1.404-4.288,3.333-5.507,5.785
	c-1.22,2.452-1.832,5.057-1.832,7.816c0,4.198,1.193,7.653,3.579,10.363c2.367,2.707,6.326,4.88,11.881,6.516
	c3.39,0.976,5.551,2.013,6.484,3.111c0.933,1.099,1.398,2.344,1.398,3.735c0,1.464-0.489,2.752-1.468,3.862
	c-0.98,1.112-2.371,1.667-4.179,1.667c-2.424,0-4.287-1.086-5.591-3.259c-0.803-1.342-1.334-3.295-1.595-5.858l-12.048,0.988
	c0.355,5.419,1.875,9.889,4.56,13.405c2.681,3.514,7.51,5.271,14.479,5.271c3.97,0,7.259-0.75,9.867-2.251
	c2.61-1.502,4.642-3.704,6.094-6.609c1.454-2.904,2.181-6.078,2.181-9.519C723.096,97.923,722.553,95.275,721.462,92.907z
	 M323.252,175.906l7.905,18.063h-18.446l-8.726-19.05c-1.105-2.466-2.091-4.066-2.955-4.804c-1.176-0.964-2.51-1.447-4-1.447h-1.442
	v25.301h-16.395v-62.336H306.4c5.046,0,8.901,0.511,11.568,1.531c2.667,1.021,4.816,2.914,6.45,5.676
	c1.634,2.766,2.45,6.133,2.45,10.102c0,3.458-0.625,6.439-1.875,8.949c-1.25,2.509-2.969,4.542-5.157,6.102
	c-1.394,0.992-3.304,1.813-5.732,2.466c1.945,0.768,3.361,1.535,4.25,2.298c0.6,0.512,1.471,1.604,2.611,3.278
	C322.105,173.709,322.867,175,323.252,175.906z M310.472,150.469c0-2.012-0.541-3.557-1.622-4.634s-3.112-1.617-6.091-1.617h-7.17
	l0.001,12.675h6.882c0.745,0,2.186-0.284,4.325-0.854c1.081-0.253,1.963-0.903,2.649-1.956
	C310.13,153.034,310.472,151.831,310.472,150.469z M279.191,193.971h0.002v-0.001L279.191,193.971L279.191,193.971z
	 M353.814,167.565h25.406V154.85h-25.406v-9.907h27.388v-13.31h-43.748h-0.001v62.337h44.541v-14.116h-28.18V167.565z
	 M428.132,157.554c-3.088-1.857-8.199-3.692-15.334-5.507c-2.883-0.707-4.708-1.475-5.477-2.296
	c-0.793-0.795-1.189-1.687-1.189-2.68c0-1.36,0.479-2.515,1.439-3.465c0.963-0.949,2.393-1.426,4.29-1.426
	c2.307,0,4.111,0.64,5.423,1.915c1.308,1.275,2.169,3.316,2.576,6.123l15.388-1.063c-0.673-6.463-2.782-11.177-6.324-14.14
	c-3.543-2.961-8.689-4.442-15.439-4.442c-5.502,0-9.833,0.815-12.992,2.444c-3.16,1.631-5.526,3.869-7.1,6.719
	c-1.574,2.847-2.36,5.874-2.36,9.078c0,4.877,1.538,8.887,4.611,12.032c3.052,3.146,8.157,5.672,15.316,7.569
	c4.372,1.134,7.158,2.338,8.36,3.615c1.199,1.273,1.802,2.721,1.802,4.336c0,1.7-0.631,3.197-1.891,4.484
	c-1.266,1.29-3.061,1.937-5.389,1.937c-3.125,0-5.526-1.26-7.208-3.784c-1.033-1.558-1.72-3.827-2.054-6.803l-15.532,1.146
	c0.456,6.291,2.412,11.481,5.875,15.568c3.459,4.08,9.682,6.122,18.665,6.122c5.12,0,9.359-0.873,12.722-2.614
	c3.365-1.745,5.983-4.304,7.857-7.678s2.811-7.06,2.811-11.056c0-3.402-0.701-6.478-2.107-9.228
	C433.466,161.713,431.22,159.412,428.132,157.554z M462.625,167.565h25.406V154.85h-25.406v-9.907h27.388v-13.31h-43.748v62.337
	h44.54v-14.116h-28.18V167.565z M544.981,175.906l7.905,18.063H534.44l-8.727-19.05c-1.105-2.466-2.091-4.066-2.955-4.804
	c-1.178-0.964-2.511-1.447-3.999-1.447h-1.44v25.301h-16.398v-62.336h27.209c5.044,0,8.9,0.511,11.567,1.531
	c2.666,1.021,4.814,2.914,6.452,5.676c1.634,2.766,2.448,6.133,2.448,10.102c0,3.458-0.624,6.439-1.876,8.949
	c-1.25,2.509-2.969,4.542-5.155,6.102c-1.395,0.992-3.306,1.813-5.734,2.466c1.943,0.768,3.362,1.535,4.249,2.298
	c0.603,0.512,1.473,1.604,2.614,3.278C543.834,173.709,544.595,175,544.981,175.906z M532.2,150.469c0-2.012-0.54-3.557-1.623-4.634
	c-1.079-1.077-3.111-1.617-6.088-1.617h-7.171v12.675h0.001h6.88c0.745,0,2.188-0.284,4.327-0.854
	c1.081-0.253,1.964-0.903,2.647-1.956C531.86,153.036,532.2,151.831,532.2,150.469z M581.725,176.495l-11.889-44.862H552.77
	l19.951,62.337h17.693l19.617-62.337h-16.567L581.725,176.495z M632.796,167.565h25.406V154.85h-25.406v-9.907h27.388v-13.31
	h-43.746v62.337h44.54v-14.116h-28.182V167.565z M718.41,150.513c0.865,3.799,1.298,7.824,1.298,12.076
	c0,6.662-0.646,11.829-1.929,15.502c-1.285,3.67-3.068,6.745-5.353,9.227c-2.282,2.479-4.731,4.133-7.351,4.951
	c-3.581,1.138-6.823,1.701-9.729,1.701h-24.254v-62.337h24.254c4.781,0,8.644,0.767,11.587,2.296
	c2.942,1.53,5.374,3.729,7.295,6.592C716.153,143.382,717.545,146.713,718.41,150.513z M703.313,162.974
	c0-6.606-0.916-11.127-2.739-13.564c-1.825-2.438-4.854-3.657-9.082-3.657h-4.074v34.062h4c3.412,0,5.84-0.446,7.279-1.339
	c1.443-0.895,2.571-2.452,3.39-4.679C702.899,171.57,703.313,167.963,703.313,162.974z"/>
</svg>
