<?xml version="1.0" encoding="UTF-8" standalone="no"?>
<!-- Created with Inkscape (http://www.inkscape.org/) -->

<svg
   xmlns:dc="http://purl.org/dc/elements/1.1/"
   xmlns:cc="http://creativecommons.org/ns#"
   xmlns:rdf="http://www.w3.org/1999/02/22-rdf-syntax-ns#"
   xmlns:svg="http://www.w3.org/2000/svg"
   xmlns="http://www.w3.org/2000/svg"
   xmlns:sodipodi="http://sodipodi.sourceforge.net/DTD/sodipodi-0.dtd"
   xmlns:inkscape="http://www.inkscape.org/namespaces/inkscape"
   width="6.4148741mm"
   height="6.4139175mm"
   viewBox="0 0 22.729869 22.726479"
   id="svg4197"
   version="1.1"
   inkscape:version="0.91 r13725"
   sodipodi:docname="draghandle.svg">
  <defs
     id="defs4199" />
  <sodipodi:namedview
     id="base"
     pagecolor="#ffffff"
     bordercolor="#666666"
     borderopacity="1.0"
     inkscape:pageopacity="0.0"
     inkscape:pageshadow="2"
     inkscape:zoom="11.2"
     inkscape:cx="23.249557"
     inkscape:cy="-12.910662"
     inkscape:document-units="px"
     inkscape:current-layer="layer1"
     showgrid="false"
     fit-margin-top="0"
     fit-margin-left="0"
     fit-margin-right="0"
     fit-margin-bottom="0"
     inkscape:window-width="1839"
     inkscape:window-height="1177"
     inkscape:window-x="1912"
     inkscape:window-y="-8"
     inkscape:window-maximized="1" />
  <metadata
     id="metadata4202">
    <rdf:RDF>
      <cc:Work
         rdf:about="">
        <dc:format>image/svg+xml</dc:format>
        <dc:type
           rdf:resource="http://purl.org/dc/dcmitype/StillImage" />
        <dc:title></dc:title>
      </cc:Work>
    </rdf:RDF>
  </metadata>
  <g
     inkscape:label="Layer 1"
     inkscape:groupmode="layer"
     id="layer1"
     transform="translate(22.793506,221.85818)">
    <path
       style="fill:#91928f;fill-opacity:1"
       id="path4182"
       d="m -0.19678053,-210.80592 -3.63784997,-2.96218 c -0.28638,-0.28638 -0.77411,-0.085 -0.77411,0.32217 l 0,1.82116 -5.6827405,0 0,-5.68274 1.8211605,0 c 0.40272,0 0.60407,-0.48773 0.32217,-0.77411 l -2.9532305,-3.64232 c -0.17899,-0.17898 -0.46536,-0.17898 -0.63987,0 l -2.96218,3.63785 c -0.28638,0.28637 -0.085,0.77411 0.32217,0.77411 l 1.82116,0 0,5.68274 -5.68274,0 0,-1.82116 c 0,-0.40272 -0.48773,-0.60408 -0.77411,-0.32218 l -3.64232,2.95324 c -0.17898,0.17898 -0.17898,0.46536 0,0.63986 l 3.63785,2.96219 c 0.28637,0.28637 0.77411,0.085 0.77411,-0.32217 l 0,-1.82116 5.68274,0 0,5.68274 -1.82116,0 c -0.40272,0 -0.60408,0.48772 -0.32218,0.7741 l 2.94876,3.63785 c 0.17899,0.17898 0.46536,0.17898 0.63987,0 l 2.9621905,-3.63785 c 0.28637,-0.28638 0.085,-0.7741 -0.32218,-0.7741 l -1.8211605,0 0,-5.68274 5.6827405,0 0,1.82116 c 0,0.40271 0.48773,0.60407 0.77411,0.32217 l 3.63784997,-2.94876 c 0.18793,-0.17899 0.18793,-0.46536 0.009,-0.63987 z"
       inkscape:connector-curvature="0" />
  </g>
</svg>
