<?xml version="1.0" encoding="UTF-8" standalone="no"?>
<svg
   xmlns:x="adobe:ns:meta/"
   xmlns:dc="http://purl.org/dc/elements/1.1/"
   xmlns:cc="http://creativecommons.org/ns#"
   xmlns:rdf="http://www.w3.org/1999/02/22-rdf-syntax-ns#"
   xmlns:svg="http://www.w3.org/2000/svg"
   xmlns="http://www.w3.org/2000/svg"
   xmlns:sodipodi="http://sodipodi.sourceforge.net/DTD/sodipodi-0.dtd"
   xmlns:inkscape="http://www.inkscape.org/namespaces/inkscape"
   version="1.1"
   x="0px"
   y="0px"
   viewBox="0 0 100 100"
   enable-background="new 0 0 100 100"
   xml:space="preserve"
   id="svg2"
   inkscape:version="0.91 r13725"
   sodipodi:docname="information-licenseCC0.svg"><defs
     id="defs12" /><sodipodi:namedview
     pagecolor="#ffffff"
     bordercolor="#666666"
     borderopacity="1"
     objecttolerance="10"
     gridtolerance="10"
     guidetolerance="10"
     inkscape:pageopacity="0"
     inkscape:pageshadow="2"
     inkscape:window-width="1844"
     inkscape:window-height="1177"
     id="namedview10"
     showgrid="false"
     inkscape:zoom="2.36"
     inkscape:cx="-2.7542373"
     inkscape:cy="50"
     inkscape:window-x="1912"
     inkscape:window-y="-8"
     inkscape:window-maximized="1"
     inkscape:current-layer="svg2" /><metadata
     id="metadata4"><?xpacket begin="&#65279;" id="W5M0MpCehiHzreSzNTczkc9d"?><x:xmpmeta
       x:xmptk="Adobe XMP Core 5.0-c061 64.140949, 2010/12/07-10:57:01        " /><?xpacket end="w"?><rdf:RDF><cc:Work
         rdf:about=""><dc:format>image/svg+xml</dc:format><dc:type
           rdf:resource="http://purl.org/dc/dcmitype/StillImage" /></cc:Work></rdf:RDF></metadata><g
     id="g6"
     style="fill:#363333;fill-opacity:1"><path
       fill="#000000"
       d="M50,100c27.614,0,49.999-22.386,49.999-50C99.999,22.386,77.614,0,50,0C22.386,0,0.001,22.386,0.001,50    C0.001,77.614,22.386,100,50,100z M49.679,15.666c4.596,0,7.721,3.493,7.721,7.998c0,4.781-3.401,8.089-7.721,8.089    c-4.229,0-7.631-3.309-7.631-8.089C42.048,18.976,45.45,15.666,49.679,15.666z M37.544,80.475c5.424,0,5.884-0.827,5.884-7.629    V51.792c0-6.802-0.367-7.262-5.884-7.262v-3.676c5.608-0.369,11.583-1.84,17.927-4.505l1.563,0.827v35.76    c0,6.711,0.551,7.538,5.423,7.538v3.859H37.544V80.475z"
       id="path8"
       style="fill:#363333;fill-opacity:1" /></g></svg>