<?xml version="1.0" encoding="UTF-8" standalone="no"?>
<!-- Generator: Adobe Illustrator 16.0.0, SVG Export Plug-In . SVG Version: 6.00 Build 0)  -->

<svg
   xmlns:dc="http://purl.org/dc/elements/1.1/"
   xmlns:cc="http://creativecommons.org/ns#"
   xmlns:rdf="http://www.w3.org/1999/02/22-rdf-syntax-ns#"
   xmlns:svg="http://www.w3.org/2000/svg"
   xmlns="http://www.w3.org/2000/svg"
   xmlns:sodipodi="http://sodipodi.sourceforge.net/DTD/sodipodi-0.dtd"
   xmlns:inkscape="http://www.inkscape.org/namespaces/inkscape"
   version="1.1"
   id="Your_Icon"
   x="0px"
   y="0px"
   width="97.509px"
   height="100px"
   viewBox="0.94 0.569 97.509 100"
   enable-background="new 0.94 0.569 97.509 100"
   xml:space="preserve"
   inkscape:version="0.48.4 r9939"
   sodipodi:docname="keys.svg"><metadata
   id="metadata15"><rdf:RDF><cc:Work
       rdf:about=""><dc:format>image/svg+xml</dc:format><dc:type
         rdf:resource="http://purl.org/dc/dcmitype/StillImage" /></cc:Work></rdf:RDF></metadata><defs
   id="defs13" /><sodipodi:namedview
   pagecolor="#ffffff"
   bordercolor="#666666"
   borderopacity="1"
   objecttolerance="10"
   gridtolerance="10"
   guidetolerance="10"
   inkscape:pageopacity="0"
   inkscape:pageshadow="2"
   inkscape:window-width="640"
   inkscape:window-height="480"
   id="namedview11"
   showgrid="false"
   inkscape:zoom="2.36"
   inkscape:cx="48.754501"
   inkscape:cy="50"
   inkscape:window-x="0"
   inkscape:window-y="0"
   inkscape:window-maximized="0"
   inkscape:current-layer="Your_Icon" />
<g
   id="g3">
	<path
   d="M44.195,61.913h-0.175C33.96,61.795,25.344,54.52,23.533,44.616c-0.707-3.864-0.276-7.699,1.035-11.168   c-0.47,0.17-0.942,0.338-1.392,0.553c-0.105,0.05-0.205,0.109-0.308,0.161c-0.542,0.274-1.066,0.581-1.573,0.916   c-0.111,0.074-0.227,0.141-0.337,0.218c-0.554,0.387-1.084,0.814-1.587,1.274c-0.107,0.101-0.209,0.205-0.314,0.306   c-0.45,0.437-0.877,0.899-1.275,1.391c-0.059,0.072-0.123,0.138-0.18,0.211c-0.427,0.549-0.811,1.14-1.166,1.753   c-0.083,0.143-0.16,0.288-0.237,0.432c-0.344,0.642-0.661,1.302-0.918,2.002c-2.95,8.057,1.187,16.98,9.244,19.935   c1.197,0.438,2.413,0.702,3.627,0.836l4.537,9.781l5.856,2.147l-2.146,5.854l0.041,0.089l5.855,2.145l-2.145,5.856l0.041,0.087   l5.856,2.146l-1.944,5.312l10.137,3.716l3.914-10.689l-5.337-11.529l-7.644-16.469C44.846,61.897,44.52,61.913,44.195,61.913z"
   id="path5" />
	<path
   d="M96.12,65.519l-11.879-8.211L61.891,41.871c0.084-1.384,0.021-2.795-0.238-4.221c-0.104-0.569-0.238-1.126-0.394-1.67   c-0.051-0.178-0.113-0.35-0.172-0.524c-0.113-0.364-0.232-0.723-0.368-1.073c-0.079-0.202-0.17-0.394-0.253-0.589   c-0.138-0.314-0.275-0.627-0.431-0.929c-0.102-0.2-0.208-0.394-0.315-0.588c-0.158-0.287-0.323-0.571-0.498-0.848   c-0.121-0.19-0.241-0.375-0.37-0.561c-0.182-0.269-0.373-0.531-0.571-0.787c-0.134-0.175-0.269-0.35-0.405-0.518   c-0.215-0.255-0.438-0.502-0.666-0.746c-0.141-0.152-0.277-0.306-0.424-0.452c-0.258-0.259-0.526-0.503-0.802-0.744   c-0.129-0.114-0.249-0.236-0.384-0.345c-0.41-0.345-0.834-0.671-1.274-0.975c-0.023-0.015-0.047-0.028-0.07-0.043   c-0.42-0.287-0.852-0.554-1.294-0.805c-0.154-0.087-0.315-0.165-0.474-0.248c-0.318-0.167-0.635-0.331-0.965-0.479   c-0.188-0.084-0.384-0.159-0.577-0.238c-0.306-0.125-0.612-0.246-0.926-0.355c-0.208-0.072-0.418-0.136-0.63-0.2   c-0.311-0.095-0.623-0.18-0.938-0.257c-0.021-0.005-0.043-0.008-0.064-0.015c-0.239,6.367-2.79,12.386-7.378,16.975   c-0.975,0.977-2.272,1.513-3.65,1.513c-1.379,0-2.675-0.536-3.651-1.513c-2.012-2.012-2.012-5.288,0-7.301   c2.466-2.465,3.938-5.618,4.309-8.992c-7.812,2.961-12.654,11.141-11.097,19.651c1.544,8.446,8.866,14.378,17.142,14.476   c0.381,0.005,0.766-0.014,1.152-0.032c0.181-0.011,0.36-0.011,0.541-0.023c0.567-0.049,1.136-0.121,1.707-0.226   c1.425-0.261,2.77-0.701,4.036-1.271l10.08,6.965l6.974-1.274l1.275,6.972l0.087,0.063l6.974-1.275l1.27,6.972l0.091,0.062   l6.972-1.274l1.159,6.322l12.072-2.209L96.12,65.519z"
   id="path7" />
	<path
   d="M36.14,35.769c-0.672,0.672-0.672,1.761,0,2.433c0.336,0.337,0.776,0.504,1.217,0.504c0.44,0,0.88-0.167,1.217-0.504   c5.07-5.071,7.125-12.01,6.216-18.618c-0.633-4.6-2.688-9.038-6.215-12.565c-4.299-4.3-9.946-6.449-15.592-6.449   c-1.276,0-2.548,0.125-3.808,0.345c-0.134,0.023-0.272,0.032-0.406,0.057c-0.318,0.062-0.631,0.156-0.946,0.232   c-0.375,0.089-0.752,0.164-1.122,0.273c-0.057,0.017-0.114,0.042-0.169,0.059c-2.414,0.735-4.717,1.908-6.809,3.487   c-0.81,0.61-1.597,1.26-2.333,1.997c-8.598,8.597-8.598,22.586,0,31.184c1.381,1.381,2.929,2.55,4.591,3.506   c0.026-0.074,0.042-0.149,0.069-0.224c0.287-0.784,0.643-1.563,1.143-2.494c0.077-0.145,0.155-0.287,0.233-0.424   c-1.301-0.776-2.514-1.707-3.604-2.798c-7.254-7.254-7.254-19.062,0-26.317c1.097-1.097,2.308-2.007,3.581-2.774   c0.654-0.392,1.331-0.726,2.019-1.031c0.168-0.075,0.334-0.147,0.502-0.215c0.686-0.282,1.381-0.533,2.089-0.729   c0.062-0.017,0.125-0.028,0.186-0.042c0.664-0.177,1.336-0.308,2.012-0.41c0.175-0.026,0.349-0.052,0.524-0.074   c0.723-0.088,1.449-0.143,2.176-0.146c0.026,0,0.051-0.005,0.077-0.005c0.328,0,0.653,0.022,0.98,0.041   c0.167,0.008,0.333,0.007,0.5,0.02c0.526,0.042,1.053,0.104,1.576,0.19c2.897,0.48,5.695,1.647,8.142,3.498   c0.678,0.513,1.338,1.058,1.956,1.675c2.912,2.912,4.634,6.56,5.208,10.352C42.206,25.454,40.483,31.424,36.14,35.769z"
   id="path9" />
</g>
<text
   xml:space="preserve"
   style="font-size:40px;font-style:normal;font-weight:normal;line-height:125%;letter-spacing:0px;word-spacing:0px;fill:#000000;fill-opacity:1;stroke:none;font-family:Sans"
   x="59.547615"
   y="11.77522"
   id="text7200"
   sodipodi:linespacing="125%"><tspan
     sodipodi:role="line"
     id="tspan7202"
     x="59.547615"
     y="11.77522"
     style="font-size:10px">William J. Salvador</tspan></text>
</svg>