<?xml version="1.0" encoding="UTF-8" standalone="no"?>
<svg
   xmlns:dc="http://purl.org/dc/elements/1.1/"
   xmlns:cc="http://creativecommons.org/ns#"
   xmlns:rdf="http://www.w3.org/1999/02/22-rdf-syntax-ns#"
   xmlns:svg="http://www.w3.org/2000/svg"
   xmlns="http://www.w3.org/2000/svg"
   xmlns:sodipodi="http://sodipodi.sourceforge.net/DTD/sodipodi-0.dtd"
   xmlns:inkscape="http://www.inkscape.org/namespaces/inkscape"
   version="1.1"
   id="Layer_1"
   x="0px"
   y="0px"
   width="100px"
   height="100px"
   viewBox="0 0 100 100"
   enable-background="new 0 0 100 100"
   xml:space="preserve"
   inkscape:version="0.48.4 r9939"
   sodipodi:docname="level.svg"><metadata
   id="metadata33"><rdf:RDF><cc:Work
       rdf:about=""><dc:format>image/svg+xml</dc:format><dc:type
         rdf:resource="http://purl.org/dc/dcmitype/StillImage" /><dc:title></dc:title></cc:Work></rdf:RDF></metadata><defs
   id="defs31" /><sodipodi:namedview
   pagecolor="#ffffff"
   bordercolor="#666666"
   borderopacity="1"
   objecttolerance="10"
   gridtolerance="10"
   guidetolerance="10"
   inkscape:pageopacity="0"
   inkscape:pageshadow="2"
   inkscape:window-width="640"
   inkscape:window-height="480"
   id="namedview29"
   showgrid="false"
   inkscape:zoom="2.36"
   inkscape:cx="58.299621"
   inkscape:cy="50"
   inkscape:window-x="0"
   inkscape:window-y="0"
   inkscape:window-maximized="0"
   inkscape:current-layer="Layer_1" />
<g
   id="g3"
   inkscape:export-filename="X:\dev\b3\artwork\levels.png"
   inkscape:export-xdpi="144.7"
   inkscape:export-ydpi="144.7">
	<g
   id="g5">
		<path
   d="M80.737,63.429c0,2.422,1.962,4.384,4.384,4.384s4.385-1.962,4.385-4.384c0-8.286-2.558-15.984-6.921-22.352    c-1.91,2.175-3.954,4.497-6.035,6.854C79.207,52.49,80.737,57.782,80.737,63.429z"
   id="path7" />
		<path
   d="M49.849,23.772c-21.866,0-39.655,17.79-39.655,39.657c0,2.422,1.963,4.384,4.385,4.384s4.384-1.962,4.384-4.384    c0-17.032,13.855-30.888,30.886-30.888c6.355,0,12.269,1.931,17.185,5.235c2.715-1.729,5.397-3.433,7.913-5.027    C68.104,27.143,59.363,23.772,49.849,23.772z"
   id="path9" />
		<path
   d="M89.807,27.512c0,0-42.654,26.848-45.723,29.472c-3.068,2.622-3.429,7.236-0.806,10.306    c1.446,1.69,3.496,2.559,5.559,2.559c1.681,0,3.37-0.575,4.747-1.753C56.651,65.472,89.807,27.512,89.807,27.512z"
   id="path11" />
	</g>
	<g
   id="g13">
		<circle
   cx="49.63"
   cy="41.029"
   r="3.946"
   id="circle15" />
	</g>
	<g
   id="g17">
		<circle
   cx="33.56"
   cy="47.685"
   r="3.947"
   id="circle19" />
	</g>
	<g
   id="g21">
		<circle
   cx="26.904"
   cy="63.754"
   r="3.947"
   id="circle23" />
	</g>
	<g
   id="g25">
		<circle
   cx="72.358"
   cy="63.754"
   r="3.947"
   id="circle27" />
	</g>
</g>
<text
   sodipodi:linespacing="125%"
   id="text7204"
   y="10.358763"
   x="58.937862"
   style="font-size:40px;font-style:normal;font-weight:normal;line-height:125%;letter-spacing:0px;word-spacing:0px;fill:#000000;fill-opacity:1;stroke:none;font-family:Sans"
   xml:space="preserve"><tspan
     style="font-size:10px"
     y="10.358763"
     x="58.937862"
     id="tspan7206"
     sodipodi:role="line">Must attribute illustrator, Chris Kerr</tspan></text>

</svg>