<?xml version="1.0" encoding="UTF-8" standalone="no"?>
<svg
   xmlns:dc="http://purl.org/dc/elements/1.1/"
   xmlns:cc="http://creativecommons.org/ns#"
   xmlns:rdf="http://www.w3.org/1999/02/22-rdf-syntax-ns#"
   xmlns:svg="http://www.w3.org/2000/svg"
   xmlns="http://www.w3.org/2000/svg"
   xmlns:sodipodi="http://sodipodi.sourceforge.net/DTD/sodipodi-0.dtd"
   xmlns:inkscape="http://www.inkscape.org/namespaces/inkscape"
   version="1.1"
   id="Layer_1"
   x="0px"
   y="0px"
   width="100px"
   height="100px"
   viewBox="0 0 100 100"
   enable-background="new 0 0 100 100"
   xml:space="preserve"
   inkscape:version="0.91 r13725"
   sodipodi:docname="level.svg"><metadata
     id="metadata33"><rdf:RDF><cc:Work
         rdf:about=""><dc:format>image/svg+xml</dc:format><dc:type
           rdf:resource="http://purl.org/dc/dcmitype/StillImage" /><dc:title /></cc:Work></rdf:RDF></metadata><defs
     id="defs31" /><sodipodi:namedview
     pagecolor="#ffffff"
     bordercolor="#666666"
     borderopacity="1"
     objecttolerance="10"
     gridtolerance="10"
     guidetolerance="10"
     inkscape:pageopacity="0"
     inkscape:pageshadow="2"
     inkscape:window-width="1200"
     inkscape:window-height="1867"
     id="namedview29"
     showgrid="false"
     inkscape:zoom="2.36"
     inkscape:cx="46.026012"
     inkscape:cy="-165.14857"
     inkscape:window-x="-8"
     inkscape:window-y="-8"
     inkscape:window-maximized="1"
     inkscape:current-layer="g3029" /><g
     id="g3029"
     transform="translate(102.9661,57.20339)"><g
       inkscape:export-ydpi="65.599998"
       inkscape:export-xdpi="65.599998"
       inkscape:export-filename="X:\dev\b3\DistFiles\factoryCollections\Templates\Leveled Reader\thumbnail.png"
       style="fill:#e48c84;fill-opacity:1"
       transform="matrix(1.9628572,0,0,1.3794392,209.72027,-1254.983)"
       id="g4163"><rect
         style="fill:#e48c84;fill-opacity:1;stroke:#000000;stroke-width:0.77362907;stroke-miterlimit:4;stroke-dasharray:4.6417743, 1.5472581;stroke-dashoffset:0;stroke-opacity:1"
         id="rect4165"
         width="67.331383"
         height="98.271706"
         x="-166.52283"
         y="970.9176"
         inkscape:export-filename="C:\dev\Bloom\DistFiles\factoryCollections\Sample Shells\A5 Wall Calendar\thumbnail.png"
         inkscape:export-xdpi="91.849998"
         inkscape:export-ydpi="91.849998" /><text
         xml:space="preserve"
         style="font-style:normal;font-weight:normal;font-size:54.56119919px;line-height:125%;font-family:Sans;letter-spacing:0px;word-spacing:0px;fill:#e48c84;fill-opacity:1;stroke:none"
         x="-152.34695"
         y="992.34052"
         id="text4167"
         sodipodi:linespacing="125%"><tspan
           id="tspan4169"
           sodipodi:role="line"
           x="-152.34695"
           y="992.34052"
           style="font-size:10.91224003px;fill:#e48c84;fill-opacity:1" /></text>
</g><g
       inkscape:export-ydpi="65.599998"
       inkscape:export-xdpi="65.599998"
       inkscape:export-filename="X:\dev\b3\DistFiles\factoryCollections\Templates\Leveled Reader\thumbnail.png"
       style="fill:#98d0b9;fill-opacity:1"
       transform="translate(79.043576,-1028.528)"
       id="g6889"><rect
         style="fill:#98d0b9;fill-opacity:1;stroke:#000000;stroke-width:1.273;stroke-miterlimit:4;stroke-opacity:1;stroke-dasharray:7.638, 2.546;stroke-dashoffset:0"
         id="rect6891"
         width="67.331383"
         height="98.271706"
         x="-166.52283"
         y="970.9176"
         inkscape:export-filename="C:\dev\Bloom\DistFiles\factoryCollections\Sample Shells\A5 Wall Calendar\thumbnail.png"
         inkscape:export-xdpi="91.849998"
         inkscape:export-ydpi="91.849998" /><text
         xml:space="preserve"
         style="font-size:54.56119919px;font-style:normal;font-weight:normal;line-height:125%;letter-spacing:0px;word-spacing:0px;fill:#98d0b9;fill-opacity:1;stroke:none;font-family:Sans"
         x="-152.34695"
         y="992.34052"
         id="text6893"
         sodipodi:linespacing="125%"><tspan
           id="tspan6895"
           sodipodi:role="line"
           x="-152.34695"
           y="992.34052"
           style="font-size:10.91224003px;fill:#98d0b9;fill-opacity:1" /></text>
</g><text
       inkscape:export-ydpi="65.599998"
       inkscape:export-xdpi="65.599998"
       inkscape:export-filename="X:\dev\b3\DistFiles\factoryCollections\Templates\Leveled Reader\thumbnail.png"
       sodipodi:linespacing="125%"
       id="text6899"
       y="-31.718098"
       x="-74.809052"
       style="font-size:63.67641449px;font-style:normal;font-weight:normal;line-height:125%;letter-spacing:0px;word-spacing:0px;fill:#000000;fill-opacity:1;stroke:none;font-family:Sans"
       xml:space="preserve"><tspan
         style="font-size:12.7352829px"
         y="-31.718098"
         x="-74.809052"
         id="tspan6901"
         sodipodi:role="line">Leveled</tspan><tspan
         id="tspan6903"
         style="font-size:12.7352829px"
         y="-15.798994"
         x="-74.809052"
         sodipodi:role="line">Reader</tspan></text>
<g
       id="g6905"
       transform="translate(79.043576,-1028.528)"
       style="fill:#e48c84;fill-opacity:1"
       inkscape:export-filename="X:\dev\b3\DistFiles\factoryCollections\Templates\Leveled Reader\thumbnail.png"
       inkscape:export-xdpi="65.599998"
       inkscape:export-ydpi="65.599998"><rect
         inkscape:export-ydpi="91.849998"
         inkscape:export-xdpi="91.849998"
         inkscape:export-filename="C:\dev\Bloom\DistFiles\factoryCollections\Sample Shells\A5 Wall Calendar\thumbnail.png"
         y="970.9176"
         x="-166.52283"
         height="98.271706"
         width="67.331383"
         id="rect6907"
         style="fill:#e48c84;fill-opacity:1;stroke:#000000;stroke-width:1.273;stroke-miterlimit:4;stroke-opacity:1;stroke-dasharray:7.638, 2.546;stroke-dashoffset:0" /><text
         sodipodi:linespacing="125%"
         id="text6909"
         y="992.34052"
         x="-152.34695"
         style="font-size:54.56119919px;font-style:normal;font-weight:normal;line-height:125%;letter-spacing:0px;word-spacing:0px;fill:#e48c84;fill-opacity:1;stroke:none;font-family:Sans"
         xml:space="preserve"><tspan
           style="font-size:10.91224003px;fill:#e48c84;fill-opacity:1"
           y="992.34052"
           x="-152.34695"
           sodipodi:role="line"
           id="tspan6911" /></text>
</g><path
       inkscape:export-ydpi="65.599998"
       inkscape:export-xdpi="65.599998"
       inkscape:export-filename="X:\dev\b3\DistFiles\factoryCollections\Templates\Leveled Reader\thumbnail.png"
       inkscape:connector-curvature="0"
       id="path1312"
       d="m -75.001796,4.4543454 7.636949,-0.062 c 0,0 0.03782,-7.7652 0.08017,-7.8322 l 7.72857,-0.173 0.09817,-7.9561004 c 0,0 7.685459,-0.086 7.775613,-0.16048 0.105583,-0.088 0.148845,-7.7323 0.286814,-7.7852 l 7.702568,-0.059 0,-7.85794 11.688682,0 c 0,0 -0.02072,4.01414 -0.155365,4.06574 l -7.602097,0.059 -0.05143,7.8089 -7.759716,0.098 -0.09817,7.8579804 -7.759716,0.098 -0.09817,7.85789998 -7.857932,0.098 -0.05128,8.00530002 -11.784705,0 c 0,0 9.83e-4,-4.0046 0.220999,-4.0634 z"
       style="fill:#000000"
       sodipodi:nodetypes="ccsccsscccscccccccccs" /><path
       inkscape:export-ydpi="65.599998"
       inkscape:export-xdpi="65.599998"
       inkscape:export-filename="X:\dev\b3\DistFiles\factoryCollections\Templates\Leveled Reader\thumbnail.png"
       inkscape:connector-curvature="0"
       id="path4812"
       d="m -47.65086,5.8407454 11.46674,-11.4667"
       style="fill:none;stroke:#000000;stroke-width:3;stroke-linecap:butt;stroke-linejoin:miter;stroke-miterlimit:4;stroke-opacity:1;stroke-dasharray:none" /><path
       inkscape:export-ydpi="65.599998"
       inkscape:export-xdpi="65.599998"
       inkscape:export-filename="X:\dev\b3\DistFiles\factoryCollections\Templates\Leveled Reader\thumbnail.png"
       inkscape:connector-curvature="0"
       id="path4814"
       d="m -35.68557,2.9602454 0,-8.7524 -8.19843,0"
       style="fill:none;stroke:#000000;stroke-width:3;stroke-linecap:butt;stroke-linejoin:miter;stroke-miterlimit:4;stroke-opacity:1;stroke-dasharray:none" /><path
       sodipodi:nodetypes="ccsccsscccscccccccccs"
       style="fill:#000000"
       d="m -75.001796,4.4543454 7.636949,-0.062 c 0,0 0.03782,-7.7652 0.08017,-7.8322 l 7.72857,-0.173 0.09817,-7.9561004 c 0,0 7.685459,-0.086 7.775613,-0.16048 0.105583,-0.088 0.148845,-7.7323 0.286814,-7.7852 l 7.702568,-0.059 0,-7.85794 11.688682,0 c 0,0 -0.02072,4.01414 -0.155365,4.06574 l -7.602097,0.059 -0.05143,7.8089 -7.759716,0.098 -0.09817,7.8579804 -7.759716,0.098 -0.09817,7.85789998 -7.857932,0.098 -0.05128,8.00530002 -11.784705,0 c 0,0 9.83e-4,-4.0046 0.220999,-4.0634 z"
       id="path4147"
       inkscape:connector-curvature="0"
       inkscape:export-filename="X:\dev\b3\DistFiles\factoryCollections\Templates\Leveled Reader\thumbnail.png"
       inkscape:export-xdpi="65.599998"
       inkscape:export-ydpi="65.599998" /><path
       sodipodi:nodetypes="ccsccsscccscccccccccs"
       style="fill:#000000"
       d="m -91.52722,164.62384 7.636949,-0.062 c 0,0 0.03782,-7.7652 0.08017,-7.8322 l 7.72857,-0.173 0.09817,-7.9561 c 0,0 7.685459,-0.086 7.775613,-0.16048 0.105583,-0.088 0.148845,-7.7323 0.286814,-7.7852 l 7.702568,-0.059 0,-7.85794 11.688682,0 c 0,0 -0.02072,4.01414 -0.155365,4.06574 l -7.602097,0.059 -0.05143,7.8089 -7.759716,0.098 -0.09817,7.85798 -7.759716,0.098 -0.09817,7.8579 -7.857932,0.098 -0.05128,8.0053 -11.784705,0 c 0,0 9.83e-4,-4.0046 0.220999,-4.0634 z"
       id="path4155"
       inkscape:connector-curvature="0"
       inkscape:export-filename="X:\dev\b3\DistFiles\factoryCollections\Templates\Leveled Reader\thumbnail.png"
       inkscape:export-xdpi="133.276"
       inkscape:export-ydpi="133.276" /><path
       style="fill:#f9f9f9;stroke:#f9f9f9;stroke-width:3;stroke-linecap:butt;stroke-linejoin:miter;stroke-miterlimit:4;stroke-dasharray:none;stroke-opacity:1;fill-opacity:1"
       d="m -64.176284,166.01024 11.46674,-11.4667"
       id="path4157"
       inkscape:connector-curvature="0"
       inkscape:export-filename="X:\dev\b3\DistFiles\factoryCollections\Templates\Leveled Reader\thumbnail.png"
       inkscape:export-xdpi="133.276"
       inkscape:export-ydpi="133.276" /><path
       style="fill:none;stroke:#f9f9f9;stroke-width:3;stroke-linecap:butt;stroke-linejoin:miter;stroke-miterlimit:4;stroke-dasharray:none;stroke-opacity:1"
       d="m -52.210994,163.12974 0,-8.7524 -8.19843,0"
       id="path4159"
       inkscape:connector-curvature="0"
       inkscape:export-filename="X:\dev\b3\DistFiles\factoryCollections\Templates\Leveled Reader\thumbnail.png"
       inkscape:export-xdpi="133.276"
       inkscape:export-ydpi="133.276" /><path
       inkscape:export-ydpi="133.276"
       inkscape:export-xdpi="133.276"
       inkscape:export-filename="X:\dev\b3\DistFiles\factoryCollections\Templates\Leveled Reader\thumbnail.png"
       inkscape:connector-curvature="0"
       id="path4161"
       d="m -91.52722,164.62384 7.636949,-0.062 c 0,0 0.03782,-7.7652 0.08017,-7.8322 l 7.72857,-0.173 0.09817,-7.9561 c 0,0 7.685459,-0.086 7.775613,-0.16048 0.105583,-0.088 0.148845,-7.7323 0.286814,-7.7852 l 7.702568,-0.059 0,-7.85794 11.688682,0 c 0,0 -0.02072,4.01414 -0.155365,4.06574 l -7.602097,0.059 -0.05143,7.8089 -7.759716,0.098 -0.09817,7.85798 -7.759716,0.098 -0.09817,7.8579 -7.857932,0.098 -0.05128,8.0053 -11.784705,0 c 0,0 9.83e-4,-4.0046 0.220999,-4.0634 z"
       style="fill:#f9f9f9"
       sodipodi:nodetypes="ccsccsscccscccccccccs" /></g></svg>