<?xml version="1.0" encoding="UTF-8" standalone="no"?>
<!-- Created with Inkscape (http://www.inkscape.org/) -->
<svg
   xmlns:dc="http://purl.org/dc/elements/1.1/"
   xmlns:cc="http://creativecommons.org/ns#"
   xmlns:rdf="http://www.w3.org/1999/02/22-rdf-syntax-ns#"
   xmlns:svg="http://www.w3.org/2000/svg"
   xmlns="http://www.w3.org/2000/svg"
   xmlns:xlink="http://www.w3.org/1999/xlink"
   xmlns:sodipodi="http://sodipodi.sourceforge.net/DTD/sodipodi-0.dtd"
   xmlns:inkscape="http://www.inkscape.org/namespaces/inkscape"
   width="867.55206"
   height="544.20251"
   id="svg2"
   sodipodi:version="0.32"
   inkscape:version="0.46"
   version="1.0"
   sodipodi:docname="scanner.svg"
   inkscape:output_extension="org.inkscape.output.svg.inkscape">
  <defs
     id="defs4">
    <linearGradient
       inkscape:collect="always"
       id="linearGradient3277">
      <stop
         style="stop-color:#e6e6e6;stop-opacity:1;"
         offset="0"
         id="stop3279" />
      <stop
         style="stop-color:#e6e6e6;stop-opacity:0;"
         offset="1"
         id="stop3281" />
    </linearGradient>
    <linearGradient
       inkscape:collect="always"
       id="linearGradient3264">
      <stop
         style="stop-color:#f2f2f2;stop-opacity:1;"
         offset="0"
         id="stop3266" />
      <stop
         style="stop-color:#f2f2f2;stop-opacity:0;"
         offset="1"
         id="stop3268" />
    </linearGradient>
    <linearGradient
       inkscape:collect="always"
       id="linearGradient3226">
      <stop
         style="stop-color:#f2f2f2;stop-opacity:1;"
         offset="0"
         id="stop3228" />
      <stop
         style="stop-color:#f2f2f2;stop-opacity:0;"
         offset="1"
         id="stop3230" />
    </linearGradient>
    <linearGradient
       inkscape:collect="always"
       xlink:href="#linearGradient3226"
       id="linearGradient3232"
       x1="299.54044"
       y1="380.37036"
       x2="358.70312"
       y2="315.31653"
       gradientUnits="userSpaceOnUse"
       gradientTransform="matrix(3.5076058,0,0,4.082233,-580.49572,-1190.4729)" />
    <linearGradient
       inkscape:collect="always"
       xlink:href="#linearGradient3264"
       id="linearGradient3270"
       x1="309.9794"
       y1="206.12375"
       x2="292.7467"
       y2="340.62375"
       gradientUnits="userSpaceOnUse" />
    <linearGradient
       inkscape:collect="always"
       xlink:href="#linearGradient3277"
       id="linearGradient3283"
       x1="297.30005"
       y1="368.29141"
       x2="278.82358"
       y2="432.6369"
       gradientUnits="userSpaceOnUse"
       gradientTransform="matrix(3.5076058,0,0,4.082233,-580.49572,-1190.4729)" />
    <filter
       inkscape:collect="always"
       id="filter3339"
       x="-0.1211009"
       width="1.2422018"
       y="-0.21192665"
       height="1.4238533">
      <feGaussianBlur
         inkscape:collect="always"
         stdDeviation="0.71805403"
         id="feGaussianBlur3341" />
    </filter>
    <filter
       inkscape:collect="always"
       id="filter3405">
      <feGaussianBlur
         inkscape:collect="always"
         stdDeviation="19.370594"
         id="feGaussianBlur3407" />
    </filter>
  </defs>
  <sodipodi:namedview
     id="base"
     pagecolor="#ffffff"
     bordercolor="#666666"
     borderopacity="1.0"
     gridtolerance="10000"
     guidetolerance="10"
     objecttolerance="10"
     inkscape:pageopacity="0.0"
     inkscape:pageshadow="2"
     inkscape:zoom="0.24071921"
     inkscape:cx="-157.84894"
     inkscape:cy="169.60043"
     inkscape:document-units="px"
     inkscape:current-layer="layer1"
     showgrid="false"
     inkscape:window-width="1280"
     inkscape:window-height="736"
     inkscape:window-x="0"
     inkscape:window-y="26" />
  <metadata
     id="metadata7">
    <rdf:RDF>
      <cc:Work
         rdf:about="">
        <dc:format>image/svg+xml</dc:format>
        <dc:type
           rdf:resource="http://purl.org/dc/dcmitype/StillImage" />
      </cc:Work>
    </rdf:RDF>
  </metadata>
  <g
     inkscape:label="Layer 1"
     inkscape:groupmode="layer"
     id="layer1"
     transform="translate(-143.38644,-109.6627)">
    <path
       transform="translate(117.27955,87.57225)"
       style="fill:#000000;fill-opacity:1;stroke:none;stroke-width:0.1;stroke-linecap:round;stroke-linejoin:round;stroke-miterlimit:4;stroke-opacity:1;filter:url(#filter3405)"
       d="M 435.78425,30.097618 L 871.56848,194.77185 L 417.71023,554.24366 L 40.164447,335.34742 L 435.78425,30.097618 z"
       id="rect3366"
       sodipodi:nodetypes="ccccc" />
    <path
       style="fill:#cccccc;fill-opacity:1;stroke:none;stroke-width:0.1;stroke-linecap:round;stroke-linejoin:round;stroke-miterlimit:4;stroke-opacity:1"
       d="M 627.74128,109.6627 L 990.92098,253.99143 L 546.24727,602.44225 L 195.46881,408.62938 L 627.74128,109.6627 z"
       id="rect2433"
       sodipodi:nodetypes="ccccc" />
    <path
       style="fill:#4d4d4d;fill-opacity:1;stroke:none;stroke-width:0.1;stroke-linecap:round;stroke-linejoin:round;stroke-miterlimit:4;stroke-opacity:1"
       d="M 641.24443,126.00906 L 260.6692,389.18552 L 554.65042,551.58185 L 944.21389,246.43494 L 641.24443,126.00906 z"
       id="path2438"
       sodipodi:nodetypes="ccccc" />
    <path
       style="fill:#000000;fill-opacity:1;stroke:none;stroke-width:0.1;stroke-linecap:round;stroke-linejoin:round;stroke-miterlimit:4;stroke-opacity:1"
       d="M 195.46881,408.56485 L 546.2747,602.45877 L 546.2747,649.80859 L 199.8489,451.81694 L 195.46881,408.56485 z"
       id="rect2441"
       sodipodi:nodetypes="ccccc" />
    <path
       style="fill:#000000;fill-opacity:1;stroke:none;stroke-width:0.1;stroke-linecap:round;stroke-linejoin:round;stroke-miterlimit:4;stroke-opacity:1"
       d="M 546.24727,602.4604 L 990.72166,254.19759 L 974.93681,295.43304 L 546.24665,649.81916 L 546.24727,602.4604 z"
       id="rect2444"
       sodipodi:nodetypes="ccccc" />
    <path
       sodipodi:type="inkscape:offset"
       inkscape:radius="-1.7193834"
       inkscape:original="M 348.3125 322.5 L 239.8125 386.96875 L 323.625 426.75 L 434.6875 352 L 348.3125 322.5 z "
       style="fill:#008080;fill-opacity:1;stroke:none;stroke-width:0.1;stroke-linecap:round;stroke-linejoin:round;stroke-miterlimit:4;stroke-opacity:1"
       id="path2449"
       d="M 348.5,324.375 L 243.46875,386.78125 L 323.46875,424.75 L 430.84375,352.5 L 348.5,324.375 z"
       transform="matrix(3.5076058,0,0,4.082233,-581.34278,-1188.5828)" />
    <path
       style="fill:url(#linearGradient3232);fill-opacity:1;stroke:none;stroke-width:0.1;stroke-linecap:round;stroke-linejoin:round;stroke-miterlimit:4;stroke-opacity:1"
       d="M 641.02802,135.61503 L 425.52948,284.61651 C 492.42302,280.27628 563.97798,280.51914 621.18812,292.52584 C 677.31068,304.30426 744.63147,325.08654 807.20084,346.48787 L 929.85742,250.42782 L 641.02802,135.61503 z"
       id="path2451" />
    <path
       style="fill:#000000;fill-opacity:1;stroke:none;stroke-width:0.1;stroke-linecap:round;stroke-linejoin:round;stroke-miterlimit:4;stroke-opacity:1"
       d="M 145.14023,122.42299 L 627.43604,110.17627 L 982.69292,255.84736 L 590.33568,293.79374 L 145.14023,122.42299 z"
       id="rect3234"
       sodipodi:nodetypes="ccccc" />
    <path
       style="fill:#ffffff;fill-opacity:1;stroke:none;stroke-width:0.1;stroke-linecap:round;stroke-linejoin:round;stroke-miterlimit:4;stroke-opacity:1"
       d="M 143.38644,110.42391 L 627.43604,114.50614 L 983.45805,253.30209 L 590.60619,288.00106 L 143.38644,110.42391 z"
       id="path3244"
       sodipodi:nodetypes="ccccc" />
    <path
       sodipodi:nodetypes="ccccc"
       id="path3237"
       d="M 146.89403,114.25852 L 627.43602,110.17628 L 983.45801,248.97221 L 594.11377,281.63008 L 146.89403,114.25852 z"
       style="fill:#000000;fill-opacity:1;stroke:none;stroke-width:0.1;stroke-linecap:round;stroke-linejoin:round;stroke-miterlimit:4;stroke-opacity:1" />
    <path
       sodipodi:type="inkscape:offset"
       inkscape:radius="1.75"
       inkscape:original="M 210.25 321.9375 L 227.03125 327.5625 C 248.9245 323.04974 279.19988 320.85486 316.0625 328.5625 C 342.62392 334.11625 369.32106 341.7125 393.1875 349.3125 L 425.5 349.3125 L 343.78125 321.9375 L 210.25 321.9375 z "
       style="fill:url(#linearGradient3270);fill-opacity:1;stroke:none;stroke-width:0.1;stroke-linecap:round;stroke-linejoin:round;stroke-miterlimit:4;stroke-opacity:1"
       id="path3262"
       d="M 210.0625,320.1875 C 209.23722,320.26669 208.58074,320.91406 208.49001,321.73815 C 208.39929,322.56224 208.89922,323.33692 209.6875,323.59375 L 226.46875,329.21875 C 226.76007,329.31898 227.07268,329.34054 227.375,329.28125 C 249.06571,324.81024 279.10917,322.62652 315.71875,330.28125 C 342.1972,335.81765 368.82809,343.38094 392.65625,350.96875 C 392.82742,351.02727 393.00664,351.05889 393.1875,351.0625 L 425.5,351.0625 C 426.35516,351.06072 427.08381,350.44122 427.22315,349.59749 C 427.36248,348.75375 426.87169,347.93288 426.0625,347.65625 L 344.34375,320.28125 C 344.16264,320.21946 343.97261,320.18779 343.78125,320.1875 L 210.25,320.1875 C 210.18754,320.18415 210.12496,320.18415 210.0625,320.1875 z"
       transform="matrix(3.5076058,0,0,4.082233,-580.49572,-1190.4729)" />
    <path
       style="fill:url(#linearGradient3283);fill-opacity:1;stroke:none;stroke-width:0.1;stroke-linecap:round;stroke-linejoin:round;stroke-miterlimit:4;stroke-opacity:1"
       d="M 195.45245,410.52788 L 199.61774,452.11562 L 546.32265,649.8488 L 546.32265,614.51198 C 500.39587,595.61993 433.63275,566.19151 361.40606,527.76452 C 282.2562,485.65416 226.85058,440.00705 195.45245,410.52788 z"
       id="path3272"
       sodipodi:nodetypes="ccccsc" />
    <path
       sodipodi:type="arc"
       style="opacity:1;fill:#ffffff;fill-opacity:1;stroke:none;stroke-width:0.1;stroke-linecap:round;stroke-linejoin:round;stroke-miterlimit:4;stroke-dasharray:none;stroke-opacity:1"
       id="path3289"
       sodipodi:cx="294.50998"
       sodipodi:cy="475.04034"
       sodipodi:rx="24.395184"
       sodipodi:ry="12.374369"
       d="M 318.90516,475.04034 A 24.395184,12.374369 0 1 1 270.1148,475.04034 A 24.395184,12.374369 0 1 1 318.90516,475.04034 z"
       transform="matrix(1.0820445,0,0,1.0803254,13.424264,-57.180164)" />
    <path
       d="M 318.90516,475.04034 A 24.395184,12.374369 0 1 1 270.1148,475.04034 A 24.395184,12.374369 0 1 1 318.90516,475.04034 z"
       sodipodi:ry="12.374369"
       sodipodi:rx="24.395184"
       sodipodi:cy="475.04034"
       sodipodi:cx="294.50998"
       id="path3291"
       style="opacity:1;fill:#000000;fill-opacity:1;stroke:none;stroke-width:0.1;stroke-linecap:round;stroke-linejoin:round;stroke-miterlimit:4;stroke-dasharray:none;stroke-opacity:1"
       sodipodi:type="arc"
       transform="matrix(1.0820445,0,0,1.0803254,12.754783,-59.949322)" />
    <path
       d="M 318.90516,475.04034 A 24.395184,12.374369 0 1 1 270.1148,475.04034 A 24.395184,12.374369 0 1 1 318.90516,475.04034 z"
       sodipodi:ry="12.374369"
       sodipodi:rx="24.395184"
       sodipodi:cy="475.04034"
       sodipodi:cx="294.50998"
       id="path3295"
       style="opacity:1;fill:#00ffff;fill-opacity:1;stroke:none;stroke-width:0.1;stroke-linecap:round;stroke-linejoin:round;stroke-miterlimit:4;stroke-dasharray:none;stroke-opacity:1"
       sodipodi:type="arc"
       transform="matrix(0.5919882,0,0,0.6250454,346.83128,264.2287)" />
    <path
       sodipodi:type="arc"
       style="opacity:1;fill:#f9f9f9;fill-opacity:1;stroke:none;stroke-width:0.1;stroke-linecap:round;stroke-linejoin:round;stroke-miterlimit:4;stroke-dasharray:none;stroke-opacity:1;filter:url(#filter3339)"
       id="path3297"
       sodipodi:cx="290.97443"
       sodipodi:cy="473.27258"
       sodipodi:rx="7.1152635"
       sodipodi:ry="4.0658636"
       d="M 298.08969,473.27258 A 7.1152635,4.0658636 0 1 1 283.85916,473.27258 A 7.1152635,4.0658636 0 1 1 298.08969,473.27258 z"
       transform="matrix(1.0820445,0,0,1.0803254,16.484748,-58.707975)" />
    <path
       style="fill:#000000;fill-opacity:1;stroke:none;stroke-width:0.1;stroke-linecap:round;stroke-linejoin:round;stroke-miterlimit:4;stroke-opacity:1"
       d="M 311.46309,365.67222 L 585.54218,520.08816 L 553.31099,545.43662 L 275.91877,392.17125 L 311.46309,365.67222 z"
       id="rect3343"
       sodipodi:nodetypes="ccccc" />
  </g>
</svg>
