<?xml version="1.0" encoding="UTF-8" standalone="no"?>
<!-- Created with Inkscape (http://www.inkscape.org/) -->

<svg
   xmlns:dc="http://purl.org/dc/elements/1.1/"
   xmlns:cc="http://creativecommons.org/ns#"
   xmlns:rdf="http://www.w3.org/1999/02/22-rdf-syntax-ns#"
   xmlns:svg="http://www.w3.org/2000/svg"
   xmlns="http://www.w3.org/2000/svg"
   xmlns:sodipodi="http://sodipodi.sourceforge.net/DTD/sodipodi-0.dtd"
   xmlns:inkscape="http://www.inkscape.org/namespaces/inkscape"
   width="104.81424"
   height="142.88451"
   id="svg3135"
   version="1.1"
   inkscape:version="0.48.0 r9654"
   sodipodi:docname="MinimalLogo.svg">
  <defs
     id="defs3137" />
  <sodipodi:namedview
     id="base"
     pagecolor="#ffffff"
     bordercolor="#666666"
     borderopacity="1.0"
     inkscape:pageopacity="0.0"
     inkscape:pageshadow="2"
     inkscape:zoom="0.35"
     inkscape:cx="142.57017"
     inkscape:cy="-528.48818"
     inkscape:document-units="px"
     inkscape:current-layer="layer1"
     showgrid="false"
     showguides="true"
     inkscape:guide-bbox="true"
     fit-margin-top="0"
     fit-margin-left="0"
     fit-margin-right="0"
     fit-margin-bottom="0"
     inkscape:window-width="1920"
     inkscape:window-height="1058"
     inkscape:window-x="-8"
     inkscape:window-y="-8"
     inkscape:window-maximized="1">
    <sodipodi:guide
       orientation="0,1"
       position="-82.0429,-174.26967"
       id="guide3158" />
  </sodipodi:namedview>
  <metadata
     id="metadata3140">
    <rdf:RDF>
      <cc:Work
         rdf:about="">
        <dc:format>image/svg+xml</dc:format>
        <dc:type
           rdf:resource="http://purl.org/dc/dcmitype/StillImage" />
        <dc:title></dc:title>
      </cc:Work>
    </rdf:RDF>
  </metadata>
  <g
     inkscape:label="Layer 1"
     inkscape:groupmode="layer"
     id="layer1"
     transform="translate(-239.18576,-83.779436)">
    <path
       sodipodi:nodetypes="cccccccccsc"
       inkscape:connector-curvature="0"
       id="path3103-2-6-5-2-4-1-3-2-0-3-3-4-9-0"
       d="m 277.9614,120.97629 c 14.9012,-1.8246 25.545,-1.5205 25.545,-1.5205 32.5391,29.8023 35.276,33.1475 37.7089,45.3117 l -3.9534,2.737 c -10.9478,-0.6083 -32.5391,-33.1476 -32.5391,-33.1476 l 1.2164,51.08981 -24.6326,0 -0.6082,-50.17741 c -21.9768,19.4439 -28.9013,26.5594 -34.6679,25.8489 -1.1905,-1.9557 -5.1588,-3.0174 -4.2564,-5.4735 2.128,-5.7927 36.1874,-34.6684 36.1874,-34.6684 z"
       style="fill:#ffffff;fill-opacity:1;stroke:#000000;stroke-width:5;stroke-miterlimit:4;stroke-dasharray:none" />
    <path
       sodipodi:nodetypes="csssccc"
       style="fill:#d65649;fill-opacity:1;fill-rule:evenodd;stroke:none"
       d="m 250.7457,139.18469 0,42.3316 c 0,23.37461 18.9571,42.31751 42.3316,42.31751 23.3747,0 42.3173,-18.9429 42.3173,-42.31751 l 0,-42.3316 c -23.3744,0 -53.1594,23.127 -34.6445,51.00521 -3.5028,-23.37461 -26.6298,-51.00521 -50.0044,-51.00521 z"
       id="path10-8-1-3-4-7-0-0-5-4-2-2-7-5-5-3-5-2"
       inkscape:connector-curvature="0" />
    <path
       transform="matrix(0.28824494,0,0,0.28824494,452.2717,-35.292747)"
       d="m -503.33473,476.20172 c 0,30.07029 -24.37678,54.44707 -54.44707,54.44707 -30.07029,0 -54.44707,-24.37678 -54.44707,-54.44707 0,-30.07029 24.37678,-54.44707 54.44707,-54.44707 30.07029,0 54.44707,24.37678 54.44707,54.44707 z"
       sodipodi:ry="54.447071"
       sodipodi:rx="54.447071"
       sodipodi:cy="476.20172"
       sodipodi:cx="-557.7818"
       id="path3101-5-6-7-9-0-4-9-4-7-0-8-3-0-3"
       style="fill:#ffffff;fill-opacity:1;stroke:#000000;stroke-width:17.34635735;stroke-miterlimit:4;stroke-dasharray:none"
       sodipodi:type="arc" />
    <path
       style="fill:none;stroke:#ffffff;stroke-width:6.23699999;stroke-linecap:butt;stroke-linejoin:miter;stroke-miterlimit:4;stroke-opacity:1;stroke-dasharray:none"
       d="m 335.3326,139.00589 c -30.0055,2.7604 -38.642,19.9107 -41.3979,31.5296 m 5.2743,36.91981 c 3.209,-39.59821 -18.4181,-63.71651 -48.7388,-66.36601"
       id="path4441-5-7-9-8-3-0-0-5-5-2-7-8-2-4"
       inkscape:connector-curvature="0"
       sodipodi:nodetypes="cccc" />
    <path
       style="fill:none;stroke:#000000;stroke-width:5;stroke-linecap:butt;stroke-linejoin:miter;stroke-miterlimit:4;stroke-opacity:1;stroke-dasharray:none"
       d="m 335.1524,136.66399 c -30.0054,2.7604 -37.9688,18.3404 -41.4754,28.3747 m 0.9378,0 c -2.1068,-5.2457 -7.3592,-11.8655 -14.9471,-17.4947 -6.6363,-4.9232 -20.0127,-10.0323 -29.6801,-11.858 -0.6526,-0.1232 -2.4197,41.523 0.8853,51.87201 12.3859,38.785 39.7469,36.6246 42.576,36.5666 10.7332,-0.2201 36.2196,-9.7941 41.3197,-29.2664 4.3159,-16.47821 0.7666,-55.28421 2.7469,-58.15731"
       id="path4441-5-7-9-8-3-0-0-5-5-2-7-8-2-4-8"
       inkscape:connector-curvature="0"
       sodipodi:nodetypes="cccsssssc" />
  </g>
</svg>
