<svg xmlns="http://www.w3.org/2000/svg" xmlns:xlink="http://www.w3.org/1999/xlink" version="1.1" id="Layer_1" x="0px" y="0px" width="100px" height="100px" viewBox="0 0 100 100" enable-background="new 0 0 100 100" xml:space="preserve">
<g>
	<path d="M32.714,93.852c-0.667,0-1.16-0.173-1.143-0.856C31.964,92.777,32.704,93.23,32.714,93.852z"/>
	<path d="M27.858,11.464c0.641,0.257-0.133,0.94-0.286,1.284c0.072,0.32,0.797,0.716,1.001,0.43c0.592,0.217,0.459,1.157,0.856,1.57   c-0.176,0.537-0.606,0.821-0.715,1.428c-0.362-0.018-0.553-0.208-0.571-0.569c-0.535-0.013-0.431,0.614-1.142,0.427   c0-0.189,0-0.38,0-0.57c-0.776-0.108-1.157,0.176-1.857,0.144C25.646,13.82,26.567,12.457,27.858,11.464z"/>
	<path d="M71.121,18.318c0.348,0.463,0.313,1.308,0.432,1.999c-0.432,0.094-0.5,0.548-1.145,0.429   c-0.607-0.589-0.271-1.443-0.428-2.285C70.381,18.245,70.566,18.508,71.121,18.318z"/>
	<path d="M82.83,24.172c0.027,0.789-0.871,0.651-1.283,1c-0.449-0.313-0.929-0.595-0.857-1.427   C81.396,23.376,82.272,23.928,82.83,24.172z"/>
	<path d="M87.258,24.743c-0.141,0.575-0.625,0.803-1,1.142C84.647,25.464,85.664,24.153,87.258,24.743z"/>
	<path d="M14.722,37.022c1.262-0.359,2.994-0.333,2.998,1.284c-0.945-0.088-1.554,0.159-1.856,0.714   c-0.486-0.679-1.398-0.043-1.713-0.856c-0.065-0.446,0.306-0.456,0.714-0.428c0.018-0.256-0.175-0.302-0.143-0.572   c-0.644,0.165-1.065,0.554-1.999,0.43c0.012-1.605-2.129-1.953-3.142-1.286C10.119,33.505,13.976,35.773,14.722,37.022z"/>
	<path d="M19.292,37.879c0.181,0.771-0.843,0.874-1.285,0.571c0-0.191,0-0.38,0-0.571C18.237,37.665,19.06,37.665,19.292,37.879z"/>
	<path d="M13.581,39.45C11.331,40.207,13.184,37.202,13.581,39.45L13.581,39.45z"/>
	<path d="M18.006,79c0.759-0.162,1.181,1.121,0.571,1.429C17.958,80.383,18.028,79.646,18.006,79z"/>
	<path d="M26.146,86.139c0.442,0.037,0.808,0.146,1.143,0.287c0.048,0.62-0.393,0.749-0.856,0.855   C26.106,86.896,25.941,86.775,26.146,86.139z"/>
	<path d="M28.002,86.855c0.432,0.09,0.823,0.224,0.856,0.713c-0.434,0.043-0.854,0.53-1.286,0.144   C27.575,87.283,27.944,87.227,28.002,86.855z"/>
	<path d="M83.621,68.047c-0.824-1.486-0.283-3.018,0.61-4.021c-0.442-0.761-0.238-2.31,0.362-3.168   c0.545-0.769,1.928-0.881,2.438-1.828c0.306-0.563-0.135-1.01,0.488-1.582c1.692,1.254-0.294,4.07-0.729,5.725   c-0.299,1.125-0.24,1.77-0.976,2.314c0.083,0.49-0.119,0.697-0.123,1.099C85.07,67.143,84.745,67.99,83.621,68.047z"/>
	<path d="M47.434,4.198c14.66-0.943,26.21,5.142,33.751,12.063c7.741,7.107,13.79,17.148,14.62,31.193   c0.869,14.688-4.834,25.827-11.94,33.628c-6.836,7.51-17.472,14.031-31.071,14.744c-14.39,0.755-25.959-4.758-33.75-12.063   c-7.771-7.285-14.147-17.22-14.867-30.947C3.384,37.711,9.177,26.564,16.118,18.943c5.188-5.7,12.401-10.631,21.202-13.161   C40.398,4.899,44.181,4.407,47.434,4.198z M26.355,82.182c-1.671-0.605-2.034-2.517-2.561-4.266   c-0.132-0.395-0.81-0.247-0.608-0.975c0.02-0.18,0.293-0.112,0.487-0.121c0.206-1.778-1.021-2.856-1.096-4.51   c-0.056-1.207,0.389-2.421,0.241-3.656c-0.267-2.254-0.597-4.479-0.608-7.066c-0.525-0.691-0.933-1.501-1.949-1.705   c-1.033-1.202-1.733-2.734-2.195-4.509c-0.807-0.374-1.794-1.951-0.853-2.925c-1.1-1.178,0.399-2.787,0.853-3.898   c0.043-1.178,0.006-2.278-0.609-2.803C17,45.696,17.2,46.303,16.971,46.481c-0.761-0.021-0.699-0.615-1.341-0.49   c-0.03-0.616-0.592-0.705-0.852-1.094c-0.074-1.916-2.449-1.534-2.803-3.168c-0.456-0.012-0.368,0.523-0.976,0.364   c-1.273-0.957-2.411-1.11-2.556-2.56c-0.045-0.432,0.244-0.747,0.12-1.218c-0.227-0.865-0.967-1.606-1.219-2.438   c-0.009,0.87,1.058,2.313,0.244,2.803c-0.508-0.344-0.335-1.371-0.729-1.827c-2.003,4.657-2.567,11.738-1.952,18.033   C6.338,69.52,15.358,81.732,25.864,88.396c2.431,1.539,4.656,3.197,6.825,2.189c-0.068-0.264-0.357-0.934-0.61-0.607   c0.097,0.016,0.371,0.404,0.121,0.365c-0.735,0.135-1.858,0.194-2.314-0.486c0.254-0.44,0.254-0.656,0-1.098   c-0.526,0.398-1.527,0.156-1.585-0.609c0.5-0.121,0.494,0.016,1.099,0c0.253-0.191-0.075-0.965,0.486-0.853   c0.514,0.021,0.571,0.631,0.244,0.853c0.707,0.105,0.793,0.834,1.34,1.1c-0.063-0.715-0.453-0.682-0.487-1.223   c-0.109-1.641,2.439-2.125,2.925-0.973c-0.723,0.172-1.505,0.283-1.463,1.219c1.828,1.262,3.188,2.986,5.116,4.143   c0.104,0.51-0.235,0.572-0.241,0.977c2.866,0.859,8.75,2.646,11.819,1.219c0.658-0.067,1.253,0.092,1.828,0   c1.275-0.203,3.069-1.686,4.143-1.828c0.35-0.047,0.859,0.199,1.22,0.121c0.552-0.121,0.927-0.696,1.462-0.976   c1.479-0.769,3.295-0.976,5.239-1.219c0.048,0.604,1.241,0.062,1.218,0.729c0.691-0.382,0.938,0.031,1.706,0.123   c0.729-0.943,2.068-0.875,3.655-0.73c14.021-6.954,24.995-20.146,25.711-39.965c0.188-5.207-0.656-9.759-1.828-14.133   c-0.982,0.047-1.461-0.409-2.314-0.489c0,0.889,1.026,1.172,1.096,1.949c0.063,0.713-0.502,0.805-0.486,1.706   c-1.121,1.072-2.716,1.67-4.021,2.56c-0.018,0.392,0.119,0.934-0.363,0.854c-0.688-0.167-0.628-1.076-1.096-1.461   c-0.112-2.246-1.844-2.87-1.951-5.117c-0.202-0.409-0.73-0.488-0.854-0.978c-0.217-0.775-0.463-2.108-1.219-1.948   c0.125,1.338,1.02,2.96,1.829,4.021c-0.351,2.052,1.69,3.718,2.681,5.238c-0.142,0.298-0.688,0.589-0.367,0.975   c0.881-0.181,2.016-0.284,2.925-0.73c0.192,2.309-1.32,3.955-1.706,6.093c-0.268,0.138-0.404,0.406-0.73,0.485   c-0.203,2.078-2.729,2.583-2.437,4.508c0.073,0.498,0.778,0.776,0.974,1.342c0.409,1.183-0.195,2.125-0.244,3.654   c-0.955,0.75-2,1.41-2.557,2.56c0.484,0.657,0.438,2.024,0,2.679c-0.203,0-0.408,0-0.609,0c-0.793,1.362-0.886,3.42-2.436,4.021   c-0.389,1.522-1.753,2.066-2.928,2.805c-1.17-0.467-3.168,1.535-3.654-0.367c-0.168-0.493,0.264-0.385,0.245-0.73   c-1.116-1.687-1.8-3.34-2.073-5.605c-0.139-1.152-1.111-1.963-1.218-3.043c-0.211-2.152,2.416-4.579,0.123-6.215   c-0.3-1.733-1.491-2.572-1.952-4.146c0.396-0.732,0.577-2.449,0.123-3.286c-1.26,0.922-1.987-0.913-3.046-1.099   c-1.263-0.219-2.394,0.887-3.654,1.219c-0.823-0.056-1.053-0.647-1.829-0.609c-0.813,0.042-1.279,0.835-2.193,0.73   c-2.092-0.239-3.051-2.701-3.896-4.631c-0.594-0.339-1.236-0.632-1.585-1.217c0.144-0.754-0.183-1.039-0.366-1.461   c0.678-1.071,1.169-3.458,0.123-4.511c1.254-1.749,1.833-4.173,4.02-4.994c1.139-1.057,0.89-3.5,2.683-3.899   c0-0.688,0.368-1.012,0.731-1.341c-0.401-0.533-1.459-0.411-2.193-0.608c-0.277-1.434,0.604-2.904-0.122-4.387   c1.004-1.069,2.913,0.15,4.631-0.122c0.716-1.962-0.866-2.606-1.95-3.169c0-0.323-0.048-0.694,0.121-0.853   c1.442,0.246,1.482-0.861,2.682-0.243c0.039-0.406-0.599-0.132-0.365-0.73c-0.749,0.228-2.186,0.412-3.047,0.121   c0.156-0.414,0.677-0.462,0.73-0.975c-0.439,0.073-0.688-0.043-0.73-0.365c0.145-0.141,0.431-0.138,0.73-0.123   c0.085-0.45-0.207-0.521-0.121-0.974c0.143-0.141,0.43-0.139,0.729-0.122c0.12-0.487-0.361-0.367-0.242-0.854   c-0.446-0.038-0.679,0.138-0.976,0.245c0,0.367,0,0.731,0,1.098c-0.334,0.52-0.871,0.835-1.584,0.975   c-0.235-0.373-0.795-0.424-1.099-0.731c0.038-0.605-0.018-1.117-0.12-1.585c0.963,0.135,1.163-0.534,1.948-0.852   c0.029,0.159,0.688,0.483,0.61,0c0.115-0.441-0.549-0.103-0.487-0.486c0.479-0.456,0.386-1.482,0.974-1.829   c0.383,0.025,0.896-0.083,1.098,0.123c0.052,0.293-0.223,0.265-0.122,0.608c0.465-0.058,0.76,0.052,0.854,0.366   c0.03,0.478-0.439,0.453-0.365,0.975c0.637-0.012,0.58,0.397,0.486,0.854c0.6,0.255,1.08,0.626,1.098,1.462   c0.224,0.185,0.685,0.13,0.854,0.365c0.423,0.382-0.374,0.644,0,0.976c0.986,0.093,1.053-0.734,1.463-1.219   c0.651-0.232,1.54-0.2,2.07-0.244c-0.555-1.08-0.773-2.836,0.854-2.925c0.364,0.913,0.319,1.318,0,2.192   c0.317,0.448,1.237,0.402,0.854,1.219c1.244,1.119,2.553-0.046,4.021,0.487c0.391-0.665,0.168-1.943,0.975-2.192   c0.604-0.078,0.402,0.652,0.975,0.609c-0.007-0.849-0.92-1.013-0.486-1.95c-1.222-0.403-1.971-1.277-3.168-1.706   c0.024,0.583,0.756,0.462,0.609,1.219c-0.878,0.341-0.832,1.604-0.977,2.681c-0.525,0.278-2.196,0.259-2.438-0.487   c-0.177-0.747,0.755-0.383,0.73-0.976c-0.483-0.571-1.017-1.097-1.217-1.95c-0.912,0.208-1.117,0.873-1.951,0.732   c-1.274-0.219-1.724-2.975-0.852-3.899c-6.5-2.346-16.319-3.153-24.127-1.462c-0.358,0.454-0.431,1.194-0.974,1.462   c0.378,1.154-0.899,1.989-1.829,2.561c-0.301-0.106-0.36-0.452-0.609-0.61c-0.4,0.004-0.606,0.206-1.096,0.122   c-0.359-0.385-0.35-0.595-0.124-1.096c-0.53-0.038-0.578-0.56-0.973-0.731c-3.12,0.904-5.674,2.368-8.286,3.776   c-0.254,0.478-0.522,0.94-0.731,1.463c0.162,0.123,0.454,0.115,0.489,0.363c1.049-0.167,0.849-1.586,1.948-1.704   c0.386,1.076,0.696,2.229,0.977,3.412c0.303,0.103,0.651,0.159,1.095,0.121c-0.104,0.794,0.789,0.593,0.853,1.219   c-0.289,0.969-0.857,1.66-1.948,1.827c-0.104,1.074-1.438,0.92-2.193,1.341c0.203,0.281,1.09-0.116,0.971,0.487   c-0.688,0.493-1.721-0.105-1.824,0.976c0.288,0.237,1.129-0.075,1.216,0.365c0.033,0.396-0.472,0.258-0.486,0.609   c0.393,0.054,0.706,0.186,0.607,0.731c-0.738,0.599-1.777,0.901-2.559,1.461c-0.346-0.259-0.074-0.777-0.241-0.976   c-0.545,0.595-1.605,0.673-1.952,1.463c-0.156,0.483,0.401,0.249,0.245,0.73c-0.83,0.227-1.048,1.064-1.828,1.34   c-0.397,0.781-0.615,1.743-1.341,2.194c0.038,0.286,0.193,0.458,0.121,0.853c-0.378,1.27-1.648,1.273-2.313,2.315   c-0.914,1.428,0.646,3.534-0.731,4.751c-0.403-0.733-0.611-1.662-0.731-2.68c-0.795,0.203-0.896-0.192-1.828,0   c0.034,0.48-0.047,0.846-0.366,0.976c-0.5-0.028-0.518-0.539-1.097-0.489c-2.126,0.69-2.093,4.026-1.341,6.095   c1.882,0.397,1.235-2.963,3.168-1.705c-0.186,1.07-0.619,1.896-0.851,2.922c3.127-0.972,1.019,2.712,2.315,3.776   c0.763-0.542,1.745-0.223,2.194,0c0.286-1.172,1.305-1.616,2.314-2.069c0.228,0.534,0.168,0.134,0.731,0.122   c0.166,0.482,0.641,0.657,0.853,1.097c0.662-0.037,0.885-0.179,1.34,0.123c0.261-0.43,0.799-0.58,1.584-0.488   c0.149,1.228,1.893,1.705,2.436,2.924c2.823-0.224,3.726,1.474,4.145,3.655c1.111,0.573,2.609,0.397,3.167,1.707   c2.227-0.259,5.552,1.295,6.093,2.803c0.493,1.372-1.85,3.787-2.314,4.142c0.229,1.951-0.222,5.403-1.344,5.852   c-0.424,0.169-0.912-0.066-1.46,0c-0.62,0.598-1.605,0.831-2.072,1.584c-0.097,0.622,0.169,0.885,0.123,1.461   c-1.022,1.253-1.491,3.059-2.924,3.898c-0.18-0.188-0.626-0.106-0.975-0.121c0.87,1.328-0.146,2.689-1.952,2.07   c0.003,0.402,0.192,0.795,0,1.221c-0.443,0.037-0.792-0.021-1.094-0.123c-0.118,0.685,0.902,0.23,0.853,0.854   c-0.015,0.313-0.455,0.195-0.611,0.364c0.014,0.353-0.064,0.799,0.122,0.976c-0.185,0.221-0.834-0.021-0.731,0.488   c0.278,0.371,0.908,0.391,0.975,0.975c-0.312,0.58-0.625,1.162-0.975,1.707c0.607,1.262,1.606,2.129,2.681,2.92   c-1.005,0.35-2.632-0.076-3.167-0.851c0.403,0.058,0.485-1.294,0.364-0.976C26.446,81.621,26.736,82.238,26.355,82.182z    M19.409,16.749c0.177,0.066,0.628-0.143,0.608,0.123c-0.156,0.721-0.428,1.546,0,2.193c0.969-0.054,0.911-1.413,0.608-2.071   c0.696-0.729,1.7-1.143,1.706-2.56C21.233,14.605,20.131,15.801,19.409,16.749z M62.785,16.505   c0.295,0.092,0.497-0.789,0.122-0.608C63.006,16.239,62.735,16.212,62.785,16.505z M25.743,19.064   c0.001,0.183-0.451,0.499-0.122,0.609c0.333-0.316,1.152-0.147,1.218-0.73C26.34,18.846,26.215,19.13,25.743,19.064z    M86.547,24.792c-0.605,1.696,0.106,3.123,1.947,3.045c-0.021-1.074-0.502-1.69-0.974-2.314c-0.187-2.372-1.793-3.322-2.927-4.751   C84.664,22.245,85.588,23.813,86.547,24.792z M77.895,22.841c0.306,0.224,0.502,0.555,0.73,0.854   c2.648-0.732,3.897,0.914,6.092,0.853c-0.316-1.43-2.094-1.398-2.559-2.682c0.178-0.065,0.629,0.144,0.609-0.121   c-0.215-0.03-0.278-0.209-0.244-0.487c-0.245,0.203-0.904-0.011-1.096,0.244c0.228,0.137,0.586,0.145,0.486,0.609   c-0.506-0.104-1.06-0.392-1.584-0.123c-0.156-0.317-0.267-0.367-0.123-0.73c-0.662,0.136-0.641-0.415-1.218-0.366   C78.549,21.466,78.293,22.224,77.895,22.841z M26.963,21.379c-0.229-0.097-0.446-0.203-0.73-0.243   C26.075,21.545,26.849,21.64,26.963,21.379z M67.659,21.136c-0.873,0.473-1.757,0.781-2.923,0.366   c-0.284,1.505-2.095,1.481-1.829,3.534c-0.836,0.849-1.95,1.254-3.534,1.34c1.266,1.091,2.586,0.052,3.9-0.244   c1.406-0.314,2.747-0.178,4.266,0c0.305-0.102,0.478-0.334,0.853-0.366c0.268,0.221,0.62,0.354,0.976,0.487   c-0.322,0.654,0.537,0.835,0.242,1.827c1.859,0.74,2.956,2.245,4.874,2.925c0.069-0.557-0.215-0.759-0.122-1.34   c0.322-0.41,1.348-0.114,1.706-0.487c1.265,1.562,3.595,1.757,5.972,1.95c0.215-1.219,0.113-2.138,0.243-3.291   c-0.567-0.038-0.813,0.243-1.341,0.243c-0.331-0.074-0.303-0.508-0.73-0.486c-1.398,0.427-2.229-0.667-2.803-1.462   c0.02-0.581,0.092-2.068-0.854-2.07c-0.012,1.249,0.177,1.587,0.486,2.559c-0.433-0.19-0.072,0.415-0.365,0.365   c-0.162,0.019-0.365-0.496-0.487-0.121c0.198-0.087,0.198,0.574,0,0.487c-1.644-0.67-2.384-2.244-2.681-4.265   c-0.51-0.271-0.722-0.589-1.461-0.366c0.179,0.878,1.377,0.736,1.34,1.828c-0.379,0.344-0.566-0.242-0.975-0.244   c-0.021,0.387,0.324,0.406,0.243,0.854c-0.39,0.058-0.653,0.241-0.731,0.609c-0.233,0.235-0.489-0.13-0.852-0.122   c0.073,0.292,0.176,0.556,0.12,0.975c-0.285-0.002-0.358,0.209-0.731,0.123c-0.404-0.472-1.201-1.122-0.973-1.829   c0.643,0.43,1.2,0.232,1.826,0.123C70.868,22.963,68.651,22.661,67.659,21.136z M16.362,22.598   c0.491-0.023,0.499-0.016,0.365,0.365c0.385,0.061,0.43-0.219,0.853-0.122c0.027-0.514-0.229-0.746-0.609-0.854   C16.87,22.295,16.543,22.373,16.362,22.598z M15.998,23.085c0.017-0.145,0.216-0.274,0-0.366   C15.979,22.864,15.779,22.997,15.998,23.085z M18.312,24.303c0.083-0.354,0.202-1.077,0.732-0.608   c0.026-0.23-0.138-0.271-0.123-0.486c-0.539-0.059-0.605,0.167-0.975,0C18.014,23.626,18.186,23.941,18.312,24.303z M88.131,25.522   c-0.052-0.231-0.043-0.524-0.367-0.486C87.729,25.354,87.809,25.56,88.131,25.522z M88.131,35.148c0.285-0.038,0.502-0.239,0.73,0   c0.018,0.592,0.088,1.129,0.364,1.463c1.042,0.063,1.198-0.752,1.584-1.342c-0.47,0.02-0.562,0.411-1.095,0.364   c-1.285-0.38-1.006-2.323-2.315-2.679C87.432,33.896,87.935,34.368,88.131,35.148z M20.749,44.285   c0.391,0.05,0.695-0.517,0.246-0.609C20.939,43.911,20.73,43.985,20.749,44.285z"/>
	<g>
		<path d="M50,4.571c25.088,0,45.43,20.338,45.43,45.428c0,25.089-20.342,45.43-45.43,45.43S4.57,75.088,4.57,49.999    C4.57,24.909,24.91,4.571,50,4.571 M50,2.571C23.847,2.571,2.57,23.847,2.57,49.999c0,26.151,21.276,47.43,47.429,47.43    c26.153,0,47.43-21.276,47.43-47.43C97.428,23.847,76.151,2.571,50,2.571L50,2.571z"/>
	</g>
</g>
</svg>