<svg xmlns="http://www.w3.org/2000/svg" xmlns:xlink="http://www.w3.org/1999/xlink" version="1.1" id="Ebene_1" x="0px" y="0px" width="90px" height="90px" viewBox="0 0 90 90" enable-background="new 0 0 90 90" xml:space="preserve">
<path d="M72.867,21.189l-4.057-4.057c-2.04-2.04-4.752-3.163-7.637-3.163c-2.886,0-5.598,1.123-7.638,3.163l-32.98,32.982  l19.33,19.33l32.981-32.982c2.04-2.04,3.163-4.751,3.163-7.636S74.907,23.229,72.867,21.189z"/>
<path d="M23.313,54.883l-10.17,10.17l5.513,5.513l10.17-10.171L23.313,54.883z M19.283,62.339l2.134-2.135l2.056,2.057l-2.135,2.133  L19.283,62.339z"/>
<path d="M29.604,61.172l-10.17,10.171l5.514,5.514l10.17-10.17L29.604,61.172z M27.135,70.19l-2.057-2.055l2.135-2.135l2.055,2.056  L27.135,70.19z"/>
</svg>