<svg xmlns="http://www.w3.org/2000/svg" xmlns:xlink="http://www.w3.org/1999/xlink" version="1.1" id="Layer_1" x="0px" y="0px" width="100px" height="100px" viewBox="0 0 100 100" enable-background="new 0 0 100 100" xml:space="preserve">
<path d="M50,0C22.379,0,0,22.379,0,50s22.379,50,50,50s50-22.379,50-50S77.621,0,50,0z M91.109,56.475  c-1.34-0.105-2.657-0.232-3.928-0.396c-0.646-2.661-2.588-4.826-5.123-5.802c-0.402-4.626-1.24-8.879-2.303-12.671  c1.725-1.514,2.824-3.703,2.824-6.173c0-0.183-0.041-0.35-0.053-0.529c1.766-0.488,3.162-0.725,4.048-0.834  c3.243,5.925,5.09,12.716,5.09,19.93C91.667,52.206,91.443,54.357,91.109,56.475z M69.738,83.712l-0.17,0.366  c-4.655-0.737-8.756-2.075-12.362-3.833c0.375-1.074,0.619-2.209,0.619-3.414c0-3.967-2.255-7.386-5.538-9.144  c0.939-4.117,2.115-7.771,3.459-11.039c0.549,0.086,1.1,0.168,1.672,0.168c2.173,0,4.188-0.668,5.855-1.803  c2.312,1.282,4.822,2.445,7.539,3.467c0.176,3.053,1.961,5.66,4.549,6.971C74.482,71.204,72.727,77.328,69.738,83.712z   M32.874,87.943l-0.5-0.603c-4.199-5.013-7.947-19.315-5.546-34.981c1.146,3.509,2.555,6.982,4.297,10.34  c1.701,3.279,3.898,6.779,6.661,10.168c-0.509,1.221-0.793,2.56-0.793,3.963c0,4.365,2.682,8.093,6.478,9.646  c-0.057,1.506-0.098,3.032-0.105,4.606C39.686,90.495,36.166,89.434,32.874,87.943z M36.039,10.791  c0.171,1.811,0.484,4.199,1.054,6.95c-2.922,2.828-5.379,5.823-7.401,8.883c0.265-5.77,1.363-10.819,3.117-14.535  C33.861,11.609,34.939,11.186,36.039,10.791z M57.129,12.268c2.319,1.217,6.93,5.847,11.076,13.412  c-1.412,1.505-2.291,3.52-2.291,5.753c0,0.333,0.061,0.647,0.098,0.968c-1.623,1.257-3.246,2.666-4.846,4.297  c-1.164-0.447-2.421-0.72-3.748-0.72c-1.917,0-3.691,0.554-5.232,1.457c-4.343-5.75-6.82-11.902-8.231-17.159  C47.566,17.22,51.904,14.478,57.129,12.268z M67.146,50.028c0.424-1.135,0.688-2.348,0.688-3.629c0-2.128-0.644-4.102-1.733-5.75  c1.002-1.005,2.015-1.913,3.027-2.734c1.314,1.021,2.93,1.656,4.708,1.746c0.884,3.235,1.587,6.824,1.953,10.718  c-1.156,0.497-2.147,1.266-2.962,2.197C70.805,51.807,68.917,50.956,67.146,50.028z M45.968,66.568  c-1.388,0.191-2.673,0.651-3.829,1.336c-2.145-2.747-3.877-5.555-5.248-8.195c-1.722-3.316-3.109-6.775-4.191-10.266  c2.828-1.859,4.708-5.054,4.708-8.695c0-3.251-1.53-6.12-3.87-8.032c1.506-2.604,3.341-5.184,5.525-7.662  c1.791,5.404,4.595,11.361,8.944,16.939c-0.627,1.343-1.005,2.824-1.005,4.407c0,2.869,1.16,5.469,3.04,7.353  C48.434,57.527,47.055,61.792,45.968,66.568z M82.715,24.28c-0.898,0.22-1.904,0.5-2.999,0.851c-1.46-1.286-3.353-2.096-5.464-2.096  c-0.122,0-0.24,0.033-0.361,0.037c-2.572-4.765-5.433-8.708-8.168-11.633C72.449,14.188,78.279,18.652,82.715,24.28z M50.297,8.35  c-2.848,1.465-5.432,3.08-7.775,4.81c-0.221-1.656-0.334-3.036-0.387-4.057c2.551-0.489,5.176-0.77,7.865-0.77  C50.102,8.333,50.195,8.346,50.297,8.35z M8.333,50c0-13.31,6.299-25.155,16.048-32.788c-0.887,4.146-1.314,8.85-1.199,13.859  c-3.861,1.526-6.608,5.278-6.608,9.676c0,3.438,1.685,6.458,4.252,8.354C18.677,60.71,19.641,72.376,22.27,81.01  C13.741,73.373,8.333,62.32,8.333,50z M49.833,91.659v-0.216c0.004-1.555,0.045-3.049,0.099-4.525  c1.159-0.289,2.245-0.749,3.215-1.387c3.06,1.595,6.453,2.925,10.196,3.906c-4.194,1.424-8.671,2.229-13.342,2.229  C49.943,91.667,49.891,91.659,49.833,91.659z M77.596,81.132c2.014-5.269,3.305-10.358,4.012-15.202  c1.945-0.635,3.574-1.945,4.61-3.674c1.128,0.146,2.308,0.248,3.487,0.354C87.398,69.85,83.15,76.205,77.596,81.132z"/>
</svg>