<?xml version="1.0" encoding="UTF-8" standalone="no"?>
<!-- Created with Inkscape (http://www.inkscape.org/) -->

<svg
   xmlns:dc="http://purl.org/dc/elements/1.1/"
   xmlns:cc="http://creativecommons.org/ns#"
   xmlns:rdf="http://www.w3.org/1999/02/22-rdf-syntax-ns#"
   xmlns:svg="http://www.w3.org/2000/svg"
   xmlns="http://www.w3.org/2000/svg"
   xmlns:sodipodi="http://sodipodi.sourceforge.net/DTD/sodipodi-0.dtd"
   xmlns:inkscape="http://www.inkscape.org/namespaces/inkscape"
   width="16px"
   height="16px"
   id="svg4409"
   version="1.1"
   inkscape:version="0.48.0 r9654"
   sodipodi:docname="pdf.svg"
   inkscape:export-filename="C:\dev\Bloom\artwork\pdf16x16.png"
   inkscape:export-xdpi="90"
   inkscape:export-ydpi="90">
  <defs
     id="defs4411" />
  <sodipodi:namedview
     id="base"
     pagecolor="#ffffff"
     bordercolor="#666666"
     borderopacity="1.0"
     inkscape:pageopacity="0.0"
     inkscape:pageshadow="2"
     inkscape:zoom="11.098901"
     inkscape:cx="-12.947707"
     inkscape:cy="1.271701"
     inkscape:current-layer="g6893"
     showgrid="true"
     inkscape:grid-bbox="true"
     inkscape:document-units="px"
     inkscape:window-width="1362"
     inkscape:window-height="878"
     inkscape:window-x="1912"
     inkscape:window-y="556"
     inkscape:window-maximized="1" />
  <metadata
     id="metadata4414">
    <rdf:RDF>
      <cc:Work
         rdf:about="">
        <dc:format>image/svg+xml</dc:format>
        <dc:type
           rdf:resource="http://purl.org/dc/dcmitype/StillImage" />
        <dc:title></dc:title>
      </cc:Work>
    </rdf:RDF>
  </metadata>
  <g
     id="layer1"
     inkscape:label="Layer 1"
     inkscape:groupmode="layer">
    <g
       id="g6887"
       transform="matrix(0.74516298,0,0,0.74516298,-14.435659,-968.50315)">
      <g
         id="g6893"
         transform="translate(2.6839766,0)"
         inkscape:export-filename="C:\dev\Bloom\artwork\publish32x32.png"
         inkscape:export-xdpi="90"
         inkscape:export-ydpi="90">
        <path
           style="font-size:medium;font-style:normal;font-variant:normal;font-weight:normal;font-stretch:normal;text-indent:0;text-align:start;text-decoration:none;line-height:normal;letter-spacing:normal;word-spacing:normal;text-transform:none;direction:ltr;block-progression:tb;writing-mode:lr-tb;text-anchor:start;baseline-shift:baseline;color:#000000;fill:#d65649;fill-opacity:1;stroke:#000000;stroke-width:0.13419883;stroke-miterlimit:4;stroke-dasharray:none;marker:none;visibility:visible;display:inline;overflow:visible;enable-background:accumulate;font-family:Sans;-inkscape-font-specification:Sans"
           d="m 27.013392,1300.1869 c -0.254134,0.023 -0.498721,0.1005 -0.662239,0.2209 -0.327033,0.2408 -0.498459,0.5357 -0.643841,0.8281 l -0.0552,0.1105 c -0.143496,0.436 -0.202815,0.8843 -0.220745,1.3251 -0.05499,1.3515 0.359527,2.6559 0.809402,3.699 0.04698,0.109 0.06321,0.1185 0.110373,0.2208 -0.601563,2.5833 -1.394525,6.1047 -1.821155,7.2325 l -0.03678,0.1105 c -0.01821,0.079 -0.163653,0.4537 -0.386306,0.8834 -0.0966,0.1864 -0.249339,0.4155 -0.367911,0.6256 -0.429597,0.1867 -0.97387,0.401 -1.342871,0.5707 -0.572466,0.263 -1.073449,0.5044 -1.453244,0.6992 -0.34352,0.1762 -0.546471,0.275 -0.754217,0.4233 -0.01561,0.01 -0.02127,0.028 -0.03678,0.036 -0.0098,0.01 -0.02701,0.01 -0.03678,0.019 -0.658015,0.4054 -1.251514,0.9269 -1.6372,1.4907 -0.200822,0.2934 -0.360601,0.5949 -0.386305,1.0122 -0.0229,0.3718 0.242056,0.8092 0.588656,1.0489 l -0.03679,0.037 c 0.03866,0.03 0.104558,0.044 0.147164,0.073 0.417589,0.2823 0.983453,0.5097 1.710783,0.4232 0.782607,-0.093 1.635833,-0.5944 2.354625,-1.5644 l 0.01839,0 c 0.0092,-0.011 0.02733,-0.043 0.03678,-0.055 0.440557,-0.5402 1.097456,-1.5175 1.729178,-2.5581 0.084,-0.1384 0.139651,-0.2673 0.220745,-0.405 0.758705,-0.3226 1.430507,-0.6345 2.281044,-0.9569 1.460762,-0.5537 2.965068,-1.054 4.322944,-1.3987 0.08022,0.1036 0.206656,0.3196 0.275933,0.405 l 0.07359,0.073 c 0.487312,0.4734 1.071909,0.7838 1.692387,0.8834 0.561556,0.09 1.174492,-0.049 1.655597,-0.4416 l 0.01839,0.036 c 0.03378,-0.021 0.04115,-0.07 0.07359,-0.091 0.02104,-0.02 0.05323,-0.017 0.07359,-0.036 l -0.01839,-0.019 c 0.336107,-0.2385 0.61787,-0.5231 0.791007,-0.9754 0.100046,-0.2613 0.170348,-0.6051 0.03678,-0.9753 -0.133557,-0.3702 -0.472756,-0.6444 -0.827798,-0.773 l -0.128769,-0.036 c -0.862754,-0.1711 -1.895501,-0.027 -3.016863,0.2024 -1.198038,-1.6284 -2.95927,-4.1208 -3.458354,-4.9872 l -0.05518,-0.073 c -0.05958,-0.084 -0.340513,-0.6466 -0.570261,-1.0675 0.175957,-0.7819 0.461304,-1.9674 0.515073,-2.2451 l 0,-0.019 c 0.07323,-0.427 0.139033,-1.0756 0.09198,-1.7667 -0.04705,-0.6911 -0.175156,-1.4964 -0.846193,-2.0428 l -0.09198,-0.055 c -0.219671,-0.1322 -0.481685,-0.1706 -0.735819,-0.1472 z m 0.05519,2.19 c 0.01354,0.08 0.04904,0.075 0.05519,0.1656 0.01804,0.2651 -0.03438,0.4767 -0.05519,0.7362 -0.01506,-0.1831 -0.06231,-0.3771 -0.05519,-0.5521 0.0051,-0.1249 0.03831,-0.2303 0.05519,-0.3497 z m 0.496679,6.3491 c 0.633824,1.0486 1.85018,2.7373 2.961678,4.2697 -1.291965,0.3555 -2.642875,0.7724 -3.955036,1.2698 -0.241716,0.091 -0.40715,0.1831 -0.643841,0.276 0.01558,-0.048 0.06053,-0.099 0.07359,-0.1471 0.006,-0.022 0.01299,-0.052 0.01839,-0.075 0.0028,-0.01 0.01555,-0.029 0.01839,-0.036 0.408456,-1.1091 1.000373,-3.3699 1.526827,-5.5579 z m 6.714361,5.2819 -0.07359,0.055 c -0.05462,0.056 -0.181822,0.1153 -0.441492,0.075 -0.03931,-0.01 -0.08655,-0.061 -0.12877,-0.075 0.201543,-0.012 0.481484,-0.061 0.643844,-0.055 z m -12.049058,3.8464 c -0.18409,0.263 -0.465698,0.7202 -0.57026,0.8464 l -0.03678,0.036 c -0.544455,0.7589 -0.989967,0.9377 -1.306082,0.9752 -0.234208,0.028 -0.387555,-0.054 -0.533469,-0.1287 -0.0012,0 0.0011,-0.018 0,-0.019 0.215367,-0.3148 0.713398,-0.7691 1.214103,-1.0675 l 0.07359,-0.056 c -0.0211,0.016 0.255665,-0.1508 0.607051,-0.3311 0.139824,-0.072 0.376047,-0.172 0.551866,-0.2578 z"
           id="path581-3-0-0-9"
           inkscape:connector-curvature="0" />
      </g>
    </g>
  </g>
</svg>
