<?xml version="1.0" encoding="UTF-8" standalone="no"?>
<!-- Created with Inkscape (http://www.inkscape.org/) -->

<svg
   xmlns:dc="http://purl.org/dc/elements/1.1/"
   xmlns:cc="http://creativecommons.org/ns#"
   xmlns:rdf="http://www.w3.org/1999/02/22-rdf-syntax-ns#"
   xmlns:svg="http://www.w3.org/2000/svg"
   xmlns="http://www.w3.org/2000/svg"
   xmlns:sodipodi="http://sodipodi.sourceforge.net/DTD/sodipodi-0.dtd"
   xmlns:inkscape="http://www.inkscape.org/namespaces/inkscape"
   id="svg2"
   sodipodi:version="0.32"
   inkscape:version="0.48.2 r9819"
   width="595.27559pt"
   height="841.88976pt"
   sodipodi:docname="C:\dev\Bloom\artwork\placeholder.svg"
   version="1.1">
  <metadata
     id="metadata7">
    <rdf:RDF>
      <cc:Work
         rdf:about="">
        <dc:format>image/svg+xml</dc:format>
        <dc:type
           rdf:resource="http://purl.org/dc/dcmitype/StillImage" />
        <dc:title></dc:title>
      </cc:Work>
    </rdf:RDF>
  </metadata>
  <defs
     id="defs5" />
  <sodipodi:namedview
     inkscape:window-height="1178"
     inkscape:window-width="1920"
     inkscape:pageshadow="2"
     inkscape:pageopacity="0.0"
     borderopacity="1.0"
     bordercolor="#666666"
     pagecolor="#ffffff"
     id="base"
     inkscape:zoom="0.7544931"
     inkscape:cx="958.2817"
     inkscape:cy="417.28115"
     inkscape:window-x="1592"
     inkscape:window-y="-8"
     inkscape:current-layer="svg2"
     showgrid="false"
     inkscape:window-maximized="1" />
  <rect
     style="fill:#729fcf;stroke:#eeeeec;stroke-width:3;stroke-linecap:square;stroke-linejoin:miter;stroke-miterlimit:0;stroke-opacity:1;stroke-dasharray:6, 6;stroke-dashoffset:0"
     id="rect2985"
     width="935.7276"
     height="1129.235"
     x="885.36261"
     y="26.507877"
     ry="1.1490486" />
  <path
     sodipodi:type="star"
     style="fill:#888a85;stroke:#888a85;stroke-width:4.02476978;stroke-linecap:butt;stroke-linejoin:round;stroke-miterlimit:4;stroke-opacity:1;stroke-dashoffset:0"
     id="path1549"
     sodipodi:sides="5"
     sodipodi:cx="495.56927"
     sodipodi:cy="257.0004"
     sodipodi:r1="32.004192"
     sodipodi:r2="22.067102"
     sodipodi:arg1="0.60613533"
     sodipodi:arg2="2.801306"
     inkscape:flatsided="false"
     inkscape:rounded="1.08"
     inkscape:randomized="0"
     d="m 521.87211,275.23304 c -43.01606,-29.58772 2.17555,-28.10945 -47.10459,-10.86759 -26.51418,9.27664 3.60143,50.21506 11.5895,23.28462 14.8469,-50.05381 27.40597,-6.61722 -4.22043,-48.15739 -17.01594,-22.34985 -46.64446,18.94247 -18.56363,18.21761 52.19194,-1.34723 14.76226,24.01979 44.49622,-18.89531 15.99775,-23.08961 -32.42929,-38.50798 -23.06246,-12.02552 17.40949,49.22117 -18.28239,21.46227 31.7206,36.47944 26.9031,8.07969 26.60206,-42.7417 4.31025,-25.64979 -41.43228,31.7676 -26.0614,-10.75537 -24.8918,41.44086 0.62927,28.08312 48.87026,12.09215 25.72634,-3.82693 z"
     transform="matrix(5.6624103,0,0,5.6624103,-1482.9332,-538.06572)"
     inkscape:export-filename="C:\dev\Bloom\DistFiles\factoryCollections\Templates\A5Portrait\placeHolder.png"
     inkscape:export-xdpi="60.563259"
     inkscape:export-ydpi="60.563259" />
  <path
     sodipodi:type="arc"
     style="fill:#babdb6;stroke:#babdb6;stroke-width:4.02476978;stroke-linecap:butt;stroke-linejoin:round;stroke-miterlimit:4;stroke-opacity:1;stroke-dashoffset:0"
     id="path1551"
     sodipodi:cx="530.98846"
     sodipodi:cy="261.93216"
     sodipodi:rx="8.8174267"
     sodipodi:ry="8.8174267"
     d="m 539.80589,261.93216 a 8.8174267,8.8174267 0 1 1 -17.63485,0 8.8174267,8.8174267 0 1 1 17.63485,0 z"
     transform="matrix(5.6624103,0,0,5.6624103,-1687.7225,-573.60722)"
     inkscape:export-filename="C:\dev\Bloom\DistFiles\factoryCollections\Templates\A5Portrait\placeHolder.png"
     inkscape:export-xdpi="60.563259"
     inkscape:export-ydpi="60.563259" />
  <path
     style="opacity:0.68141593;fill:#010101;fill-opacity:0.70196078;stroke:none"
     d="m 1212.8835,134.79466 c -41.4166,0.5398 -60.9537,48.38224 -46.361,82.9897 10.8612,32.78468 22.3603,65.28103 28.1351,99.09218 -24.9566,-39.01151 -66.3219,-80.46098 -117.1411,-67.24112 -52.7529,12.71342 -105.20114,66.51883 -92.54503,123.86523 16.42983,44.83276 74.26683,37.58323 112.36343,37.33651 12.3354,1.52144 60.6615,-0.13493 45.8302,6.90105 -45.065,10.4641 -92.7745,42.8844 -92.3681,93.6067 -1.1859,53.21254 34.9651,118.98274 93.6067,120.14934 49.995,-7.1906 55.0712,-68.34355 70.0723,-105.81634 6.1491,-15.9332 20.4896,-58.7148 17.5181,-18.0489 -5.6982,51.18829 28.04,105.20484 81.928,109.70924 47.1273,7.2605 116.3666,-12.2444 122.2727,-67.41814 -3.231,-52.6788 -64.4542,-69.4527 -95.9071,-102.2773 -31.8734,-23.2254 4.4907,-8.8833 24.0653,-3.7159 56.0155,18.3325 113.1576,-26.1104 120.857,-81.92803 11.0886,-40.73436 -2.7222,-107.39209 -54.8546,-107.40885 -51.3302,5.13751 -83.4454,54.67136 -129.5276,73.43438 29.8599,-35.6896 56.3008,-88.08422 27.9582,-132.53579 -23.4992,-38.62341 -70.3072,-63.80081 -115.9025,-60.69396 z"
     id="path1549-1"
     inkscape:connector-curvature="0" />
  <path
     style="fill:#ffffff;fill-opacity:0.32941176;stroke:none"
     d="m 1231.4922,333.6152 c -51.2881,2.2016 -74.6527,74.15764 -35.2132,106.52409 36.4312,36.14175 104.9087,5.65148 102.4543,-45.47623 0.7476,-35.54029 -32.1682,-64.99292 -67.2411,-61.04786 z"
     id="path1551-7"
     inkscape:connector-curvature="0" />
</svg>
