<svg xmlns="http://www.w3.org/2000/svg" fill="none" viewBox="0 0 134 131"><g clip-path="url(#a)"><path fill="#888A85" d="M61 0C50 0 45 13 49 22c2 9 6 17 7 26-7-10-18-21-31-18C11 34-3 48 1 63c4 12 19 10 29 10 4 0 16 0 12 2-12 2-24 11-24 24 0 14 9 32 25 32 13-2 14-18 18-28 2-4 6-15 5-5-2 14 7 28 22 29 12 2 31-3 32-18-1-13-17-18-25-26-9-7 1-3 6-1 15 4 30-7 32-22 3-11-1-28-14-28-14 1-23 14-35 19 8-9 15-23 8-35C85 6 73-1 61 0Z"/><path fill="#BABDB6" d="M66 52c-14 1-20 20-10 29s28 1 28-12c0-10-9-18-18-17Z"/></g><defs><clipPath id="a"><path fill="#fff" d="M0 0h134v131H0z"/></clipPath></defs></svg>