<?xml version="1.0" encoding="UTF-8" standalone="no"?>
<svg
   xmlns:dc="http://purl.org/dc/elements/1.1/"
   xmlns:cc="http://creativecommons.org/ns#"
   xmlns:rdf="http://www.w3.org/1999/02/22-rdf-syntax-ns#"
   xmlns:svg="http://www.w3.org/2000/svg"
   xmlns="http://www.w3.org/2000/svg"
   xmlns:sodipodi="http://sodipodi.sourceforge.net/DTD/sodipodi-0.dtd"
   xmlns:inkscape="http://www.inkscape.org/namespaces/inkscape"
   xml:space="preserve"
   viewBox="0 0 311.75199 342.77904"
   x="0px"
   y="0px"
   version="1.1"
   id="svg14"
   sodipodi:docname="sign language.svg"
   width="3.2474165in"
   height="3.5706151in"
   style="clip-rule:evenodd;fill-rule:evenodd;image-rendering:optimizeQuality;shape-rendering:geometricPrecision;text-rendering:geometricPrecision"
   inkscape:version="0.92.2 (5c3e80d, 2017-08-06)"
   inkscape:export-filename="C:\Users\hatto\Documents\Bloom\Foodo Books\Sign Language\sign-language.png"
   inkscape:export-xdpi="61.310001"
   inkscape:export-ydpi="61.310001"><metadata
     id="metadata20"><rdf:RDF><cc:Work
         rdf:about=""><dc:format>image/svg+xml</dc:format><dc:type
           rdf:resource="http://purl.org/dc/dcmitype/StillImage" /><dc:title></dc:title></cc:Work></rdf:RDF></metadata><defs
     id="defs18" /><sodipodi:namedview
     pagecolor="#ffffff"
     bordercolor="#666666"
     borderopacity="1"
     objecttolerance="10"
     gridtolerance="10"
     guidetolerance="10"
     inkscape:pageopacity="0"
     inkscape:pageshadow="2"
     inkscape:window-width="1920"
     inkscape:window-height="1137"
     id="namedview16"
     showgrid="false"
     units="in"
     fit-margin-top="0"
     fit-margin-left="0"
     fit-margin-right="0"
     fit-margin-bottom="0"
     inkscape:zoom="0.944"
     inkscape:cx="385.23064"
     inkscape:cy="43.462756"
     inkscape:window-x="1912"
     inkscape:window-y="-8"
     inkscape:window-maximized="1"
     inkscape:current-layer="svg14" /><g
     id="g8"
     inkscape:export-filename="C:\Users\hatto\Desktop\g8.png"
     inkscape:export-xdpi="358.54001"
     inkscape:export-ydpi="358.54001"
     transform="matrix(5.8215827,0,0,5.8215827,-135.20271,-119.69143)"><path
       d="M 36.4904,65.5623 C 36.47386,53.4854 36.4656,47.4476 36.4656,47.4476 c 0.194883,-2.72482 1.33584,-3.89885 3.42168,-3.52207 1.28387,0.651974 1.92167,2.11183 1.91222,4.3772 0.468901,6.64257 0.703943,9.96386 0.703943,9.96386 0.431106,1.43151 1.53781,1.44804 3.32129,0.04961 11.0706,-12.143 16.6052,-18.2151 16.6052,-18.2151 2.61262,-1.60513 4.27562,-0.02599 3.47247,2.31498 -6.84336,8.52054 -10.265,12.7808 -10.265,12.7808 -0.239766,1.09489 0.281105,1.39607 1.55907,0.905913 8.65519,-7.61581 12.9828,-11.4225 12.9828,-11.4225 2.62207,-1.17284 4.05003,0.737014 2.41537,3.1701 -7.7162,7.61463 -11.5737,11.4225 -11.5737,11.4225 -0.52087,1.26615 -0.03425,1.85316 1.45985,1.76104 7.71502,-5.43429 11.5725,-8.15203 11.5725,-8.15203 1.03583,-0.113387 1.74096,0.07205 2.11419,0.553941 0.653155,0.875204 0.66969,1.68072 0.04961,2.41537 -7.61463,6.00477 -11.4225,9.00716 -11.4225,9.00716 -0.709848,1.22127 -0.374412,1.83309 1.00631,1.83663 5.9717,-3.18782 8.95755,-4.78114 8.95755,-4.78114 1.06891,-0.278742 1.72324,-0.06142 1.96183,0.654336 0.205513,0.827959 -0.162993,1.58269 -1.1067,2.26419 -12.1962,8.61385 -19.8191,13.3867 -22.8699,14.3163 -5.98706,1.02993 -10.7339,-0.664966 -14.2407,-5.08232 -1.12678,-2.48742 -1.79765,-5.32209 -2.01261,-8.504 z"
       id="path2"
       inkscape:connector-curvature="0"
       style="fill:#000000" /><path
       d="m 23.9116,48.9571 c 3.81853,3.80318 7.35714,7.05714 10.617,9.76189 0,0 0,-3.00239 0,-9.00716 -5.90438,-3.28821 -8.85598,-4.93114 -8.85598,-4.93114 -2.49687,-0.131103 -3.08388,1.26143 -1.76104,4.17641 z"
       id="path4"
       inkscape:connector-curvature="0"
       style="fill:#000000" /><path
       d="m 39.5235,41.9366 c -2.55002,-0.100394 -3.1205,0.905913 -3.1205,0.905913 0,0 0.0047,-5.87839 0.0378,-16.982 0.940165,-3.13231 4.54728,-2.37167 4.88153,0.301183 1.1067,10.0643 1.65946,15.0958 1.65946,15.0958 1.16221,0.724021 1.88505,0.571658 2.16852,-0.455909 -0.137009,-12.2092 -0.205513,-18.3131 -0.205513,-18.3131 0.950795,-3.03782 4.57917,-2.26065 5.28311,0.75473 0.06732,12.4123 0.101576,18.6179 0.101576,18.6179 0.675596,0.324806 1.32993,0.19134 1.96183,-0.402759 1.34174,-9.69456 2.01261,-14.5418 2.01261,-14.5418 1.4067,-2.56183 3.57995,-1.19174 4.07602,0.805518 -0.838589,9.96268 -1.25788,14.9446 -1.25788,14.9446 -7.01108,7.48116 -10.5166,11.2206 -10.5166,11.2206 -1.08426,1.28269 -1.94057,0.432287 -2.0634,-0.150001 -0.335436,-5.66934 -0.917724,-8.83117 -0.917724,-8.83117 -0.609454,-1.8319 -2.16143,-3.08979 -4.10082,-2.96931 z"
       id="path6"
       inkscape:connector-curvature="0"
       style="fill:#000000" /></g></svg>