<?xml version="1.0" encoding="UTF-8" standalone="no"?>
<!-- Created with Inkscape (http://www.inkscape.org/) -->

<svg
   xmlns:dc="http://purl.org/dc/elements/1.1/"
   xmlns:cc="http://creativecommons.org/ns#"
   xmlns:rdf="http://www.w3.org/1999/02/22-rdf-syntax-ns#"
   xmlns:svg="http://www.w3.org/2000/svg"
   xmlns="http://www.w3.org/2000/svg"
   xmlns:sodipodi="http://sodipodi.sourceforge.net/DTD/sodipodi-0.dtd"
   xmlns:inkscape="http://www.inkscape.org/namespaces/inkscape"
   version="1.1"
   width="320.46249"
   height="359.97501"
   id="svg2"
   xml:space="preserve"
   inkscape:version="0.48.4 r9939"
   sodipodi:docname="SIL_Logo_TM_Blue_2014_no_bleed-no_tag_.svg"
   inkscape:export-filename="X:\dev\bloom2\src\BloomExe\Resources\SIL_Logo_2014Small1.png"
   inkscape:export-xdpi="19.940001"
   inkscape:export-ydpi="19.940001"><sodipodi:namedview
     pagecolor="#ffffff"
     bordercolor="#666666"
     borderopacity="1"
     objecttolerance="10"
     gridtolerance="10"
     guidetolerance="10"
     inkscape:pageopacity="0"
     inkscape:pageshadow="2"
     inkscape:window-width="1809"
     inkscape:window-height="1177"
     id="namedview22"
     showgrid="false"
     inkscape:zoom="0.46357996"
     inkscape:cx="397.63685"
     inkscape:cy="-612.87996"
     inkscape:window-x="1192"
     inkscape:window-y="-8"
     inkscape:window-maximized="1"
     inkscape:current-layer="g26" /><metadata
     id="metadata8"><rdf:RDF><cc:Work
         rdf:about=""><dc:format>image/svg+xml</dc:format><dc:type
           rdf:resource="http://purl.org/dc/dcmitype/StillImage" /><dc:title></dc:title></cc:Work></rdf:RDF></metadata><defs
     id="defs6"><clipPath
       id="clipPath18"><path
         d="M 0,2879.78 0,0 l 2563.7,0 0,2879.78 -2563.7,0 z"
         inkscape:connector-curvature="0"
         id="path20" /></clipPath><clipPath
       id="clipPath28"><path
         d="M 0.00390625,2879.78 2563.7,2879.78 2563.7,0 0.00390625,0 l 0,2879.78 z"
         inkscape:connector-curvature="0"
         id="path30" /></clipPath></defs><g
     transform="matrix(1.25,0,0,-1.25,0,359.975)"
     id="g10"><g
       id="g14"
       transform="scale(0.1,0.1)"><g
         id="g16"
         clip-path="url(#clipPath18)"><path
           style="fill:#ffffff;fill-opacity:1;fill-rule:nonzero;stroke:none"
           id="path22"
           inkscape:connector-curvature="0"
           d="m 2467.31,107.191 -3.41,54.649 c -0.34,7.18 -0.34,16.058 -0.68,25.969 l -1.03,0 c -2.39,-8.207 -5.11,-19.137 -7.85,-27.68 l -16.73,-51.578 -19.14,0 -16.74,52.961 c -1.7,7.16 -4.44,18.09 -6.48,26.297 l -1.03,0 c 0,-8.539 -0.34,-17.43 -0.68,-25.969 l -3.43,-54.649 -17.75,0 6.82,92.911 27.68,0 16.05,-45.43 c 2.05,-7.184 3.77,-14.012 6.16,-23.563 l 0.33,0 c 2.39,8.539 4.44,16.379 6.5,23.219 l 16.04,45.774 26.65,0 7.18,-92.911 -18.46,0 z m -100.42,92.911 0,-15.372 -29.72,0 0,-77.539 -18.44,0 0,77.539 -29.72,0 0,15.372 77.88,0" /></g></g><g
       id="g24"
       transform="scale(0.1,0.1)"><g
         id="g26"
         clip-path="url(#clipPath28)"><path
           style="fill:#1064a7;fill-opacity:1;fill-rule:nonzero;stroke:none"
           id="path32"
           inkscape:connector-curvature="0"
           d="m 2563.7,2879.79 -2563.69609375,0 0,-1943.579 L 169.273,808.98 0.00390625,715.5 0.00390625,0 2563.7,0 l 0,715.5 -136.36,77.488 136.36,143.223" /><path
           style="fill:#ffffff;fill-opacity:1;fill-rule:nonzero;stroke:none"
           id="path34"
           inkscape:connector-curvature="0"
           d="m 1242.9,715.488 220.602,0 0,1118.4 -220.602,0 0,-1118.4 z" /><path
           style="fill:#ffffff;fill-opacity:1;fill-rule:nonzero;stroke:none"
           id="path36"
           inkscape:connector-curvature="0"
           d="m 862.914,1366.47 c -120.031,72.25 -158.012,98.85 -158.012,177.22 0,50.28 37.672,104 143.403,104 57.898,0 101.699,-17.5 132.808,-34.61 l 39.067,207.35 c -40.817,18.06 -154.457,44.76 -222.778,44.76 -172.718,0 -347,-102.41 -347,-331.2 0,-67.1 27.09,-196.19 208.602,-306.79 96.699,-62.77 146.879,-99.7 144.891,-192.03 -0.961,-45.061 -30.04,-98.779 -163.09,-98.779 l -640.80890625,-0.469 0,-216.492 L 700.293,719.691 c 216.93,0.489 362.697,133.7 362.697,331.499 0,128.6 -67.314,234.67 -200.076,315.28" /><path
           style="fill:#ffffff;fill-opacity:1;fill-rule:nonzero;stroke:none"
           id="path38"
           inkscape:connector-curvature="0"
           d="m 2563.7,936.25 -636.11,0.559 0,897.881 -235.19,-0.09 0,-1119.112 871.3,0" /><path
           style="fill:#1064a7;fill-opacity:1;fill-rule:nonzero;stroke:none"
           id="path42"
           inkscape:connector-curvature="0"
           d="m 0.03125,713.051 7.73047,0 0,6.37891 -7.73047,0 0,-6.37891 z" /><text
           xml:space="preserve"
           style="font-size:579.17352295px;font-style:normal;font-weight:normal;line-height:125%;letter-spacing:0px;word-spacing:0px;fill:#ffffff;fill-opacity:1;stroke:none;font-family:Sans"
           x="2183.6545"
           y="-126.60139"
           id="text3014"
           sodipodi:linespacing="125%"
           transform="scale(1,-1)"><tspan
             sodipodi:role="line"
             id="tspan3016"
             x="2183.6545"
             y="-126.60139"
             style="font-size:202.71073914px">TM</tspan></text>
</g></g></g></svg>