<?xml version="1.0" encoding="UTF-8" standalone="no"?>
<svg
   xmlns:dc="http://purl.org/dc/elements/1.1/"
   xmlns:cc="http://creativecommons.org/ns#"
   xmlns:rdf="http://www.w3.org/1999/02/22-rdf-syntax-ns#"
   xmlns:svg="http://www.w3.org/2000/svg"
   xmlns="http://www.w3.org/2000/svg"
   xmlns:sodipodi="http://sodipodi.sourceforge.net/DTD/sodipodi-0.dtd"
   xmlns:inkscape="http://www.inkscape.org/namespaces/inkscape"
   width="25pt"
   height="25pt"
   viewBox="0 0 25 25"
   version="1.1"
   id="svg2"
   inkscape:version="0.48.0 r9654"
   sodipodi:docname="uservoice.svg"
   inkscape:export-filename="C:\dev\Bloom\artwork\uservoice16x16.png"
   inkscape:export-xdpi="46.080002"
   inkscape:export-ydpi="46.080002">
  <metadata
     id="metadata20">
    <rdf:RDF>
      <cc:Work
         rdf:about="">
        <dc:format>image/svg+xml</dc:format>
        <dc:type
           rdf:resource="http://purl.org/dc/dcmitype/StillImage" />
        <dc:title></dc:title>
      </cc:Work>
    </rdf:RDF>
  </metadata>
  <defs
     id="defs18" />
  <sodipodi:namedview
     pagecolor="#ffffff"
     bordercolor="#666666"
     borderopacity="1"
     objecttolerance="10"
     gridtolerance="10"
     guidetolerance="10"
     inkscape:pageopacity="0"
     inkscape:pageshadow="2"
     inkscape:window-width="1920"
     inkscape:window-height="1058"
     id="namedview16"
     showgrid="false"
     inkscape:zoom="9.312"
     inkscape:cx="0.066108659"
     inkscape:cy="5.5584266"
     inkscape:window-x="-30080"
     inkscape:window-y="-31436"
     inkscape:window-maximized="1"
     inkscape:current-layer="svg2" />
  <rect
     style="fill:#333333;fill-opacity:1;stroke:#000000;stroke-width:0.48000002;stroke-miterlimit:1;stroke-opacity:1;stroke-dasharray:none;stroke-dashoffset:0"
     id="rect2983"
     width="70.103096"
     height="40.635738"
     x="-8.6769753"
     y="47.852234" />
  <path
     style="fill:#204a87;fill-opacity:1"
     d="m -34.906014,-0.85549828 c -1.8813,-0.0812201 -5.255,4.39499998 -8.925,4.62499998 -4.05,0.53 -8.245,0.635 -11.925,2.625 0,0 -0.493986,0.5427832 -0.493986,2.1106528 -0.02148,0.880584 0.493986,1.7682125 0.493986,1.7682125 1.47,1.74 3.56,2.526135 5.6,3.396135 -0.35,1.9 -1.04744,3.984605 -0.561082,5.764261 0.0858,0.845782 0.414605,1.324096 0.911082,1.885739 1.373732,0.866817 3.935983,1.148365 4.5,-0.45 0.697588,-1.460292 0.376929,-6.249927 1.05,-7.05 1.268385,-0.06299 4.64,4.36 7.7,5.45 3.82,0.11 5.12842,-8.075911 5.55,-10.9788659 -0.04295,0.987972 -0.1,-4.5461344 -0.1,-4.5461344 -0.534536,-1.8759106 -1.56,-4.48598398 -3.8,-4.59999998 z m -0.775,1.475 c 2.318299,-0.1159424 3.071875,2.39062498 3.4,4.34999998 0.68,4.72 -2.412544,13.2880243 -3.65,12.9250003 -2.065464,-0.262027 -2.539553,-1.290224 -3.6,-2.825 -0.612061,-1.394743 -0.45,-6.6350003 -0.6,-9.7250003 -0.32,2.78 -0.405,6.0900003 -0.425,8.9000003 -1.86,-0.81 -3.360447,-1.686357 -5.75,-2.55 -0.01,3.02 0.126083,6.044261 -0.05387,9.064261 -0.384399,0.212772 -2.205012,-0.398749 -2.971135,-0.864261 -0.03405,-2.350357 0.307364,-5.014189 0.8,-7.25 -1.73,-0.77 -3.51,-1.445 -5.1,-2.475 -1.94,-1.6700003 0.575,-3.6150003 2.225,-4.0250003 4.94,-0.86 10.685,-0.245 14.375,-4.375 -1.1,3.51 -1.585,7.165 -1.775,10.8250003 1.59,-0.45 3.18,-0.885 4.7,-1.525 0.6266,-0.302715 1.213196,-1.9470451 0.6,-3.0000003 -1.341134,-1.0213744 -2.955,-0.855 -4.425,-1.275 0.49,-2.05 0.57,-4.28 1.75,-6.09999998 0.168751,-0.0318752 0.345447,-0.0672704 0.5,-0.075 z"
     id="path6"
     inkscape:connector-curvature="0"
     sodipodi:nodetypes="ccccccccccccccscccccccccccccccccs" />
  <path
     d="m -49.536014,19.824502 c 0.15,0.13 0.44,0.38 0.59,0.51 -0.15,-0.13 -0.44,-0.38 -0.59,-0.51 z"
     id="path12"
     inkscape:connector-curvature="0"
     style="fill:#f8a038" />
  <path
     style="fill:#204a87;fill-opacity:1;stroke:#000000;stroke-width:0.23436624;stroke-miterlimit:1;stroke-opacity:1;stroke-dasharray:none"
     d="M 21.030143,1.3606264 C 19.193004,1.2813129 15.898499,5.6524582 12.314648,5.8770591 8.3597178,6.3946179 4.2631913,6.4971532 0.66957563,8.4404399 c 0,0 -0.48239017,0.5300417 -0.48239017,2.0611081 -0.0209758,0.859913 0.48239017,1.726705 0.48239017,1.726705 1.43549327,1.699156 3.47643257,2.466836 5.46854547,3.316414 -0.3417841,1.855399 -1.0228523,3.89107 -0.547911,5.628949 0.083786,0.825929 0.4048724,1.293016 0.8896951,1.841474 1.3414851,0.84647 3.8435898,1.121408 4.3943668,-0.439437 0.681213,-1.426013 0.368081,-6.103215 1.025353,-6.884507 1.23861,-0.06151 4.53108,4.257653 7.51925,5.322065 3.730329,0.107418 5.008035,-7.886335 5.419719,-10.721147 0.343651,-1.9716589 -0.09765,-4.439418 -0.09765,-4.439418 -0.521988,-1.8318759 -1.52338,-4.38068 -3.710798,-4.4920196 z M 20.273335,2.8010022 C 22.537214,2.6877809 23.273101,5.1355097 23.593523,7.0488903 24.257561,11.658093 21.237611,20.024991 20.029203,19.670489 18.012224,19.414613 17.549264,18.410552 16.51371,16.911803 15.916016,15.5498 16.074273,10.432553 15.927794,7.4150876 15.615306,10.12983 15.532301,13.362131 15.512771,16.106169 13.696432,15.315183 12.231207,14.459398 9.8977462,13.616028 9.887981,16.565136 10.02087,19.518406 9.8451505,22.467513 9.4697759,22.675292 7.691899,22.078125 6.9437609,21.62354 6.9105102,19.328356 7.2439099,16.727055 7.7249817,14.543727 6.0355918,13.791802 4.2973756,13.132647 2.7446992,12.126826 0.8502388,10.496027 3.3062017,8.5966841 4.9174696,8.1963084 9.7415079,7.356496 15.35165,7.9570595 18.955031,3.9240071 17.880852,7.3516134 17.407237,10.920816 17.221697,14.494901 18.774373,14.055464 20.32705,13.630676 21.811369,13.005699 22.42326,12.71009 22.996087,11.104359 22.397285,10.076121 21.087632,9.0787217 19.511651,9.2411912 18.076157,8.8310503 18.554655,6.829172 18.632777,4.651519 19.785078,2.8742417 19.949867,2.84311 20.122415,2.8085508 20.273335,2.8010022 z"
     id="path6-1"
     inkscape:connector-curvature="0"
     sodipodi:nodetypes="ccccccccccccccscccccccccccccccccs" />
  <path
     style="fill:#f8a038;stroke:#000000;stroke-width:0.23436624;stroke-miterlimit:1;stroke-opacity:1;stroke-dasharray:none"
     inkscape:connector-curvature="0"
     d="m 6.7435673,21.555183 c 0.1464789,0.126949 0.4296714,0.37108 0.5761503,0.498028 C 7.1732387,21.926263 6.8900462,21.682132 6.7435673,21.555183 z"
     id="path12-7" />
  <path
     style="fill:#ffffff;fill-opacity:1;stroke:#000000;stroke-width:0.0251682;stroke-miterlimit:1;stroke-opacity:1;stroke-dasharray:none;stroke-dashoffset:0"
     d="M 8.9017444,22.215035 C 8.5719931,22.128593 8.0434611,21.950415 7.7272287,21.819093 L 7.15226,21.580326 7.1242923,20.995132 c -0.051853,-1.084957 0.2083604,-3.561456 0.575414,-5.476277 0.09111,-0.475295 0.165653,-0.913492 0.165653,-0.973772 0,-0.06028 -0.3680849,-0.270523 -0.8179665,-0.467208 C 3.9253998,12.712969 2.776924,12.075435 2.4571407,11.529767 1.8952265,10.570932 2.5363701,9.483014 4.1212488,8.7060415 4.9019657,8.3233019 5.2850365,8.2538357 8.4945653,7.9129813 12.13491,7.5263731 13.846547,7.1936988 15.37234,6.5762148 16.336842,6.1858833 17.501568,5.4871774 18.13808,4.9170792 18.412569,4.6712298 18.613703,4.5315874 18.585045,4.6067619 18.470501,4.9072288 18.015077,6.8846197 17.814658,7.9516814 17.401202,10.15299 16.973119,14.408391 17.147579,14.582851 c 0.09279,0.09279 2.760245,-0.671235 3.97303,-1.137973 0.913799,-0.351675 1.170185,-0.55897 1.436619,-1.161546 0.245597,-0.555448 0.277232,-1.714021 0.05775,-2.114882 -0.283475,-0.5177196 -1.41708,-0.9523963 -3.267195,-1.2527906 -0.490568,-0.079651 -0.934235,-0.17096 -0.98593,-0.2029088 -0.06665,-0.041186 0.0029,-0.5396244 0.239369,-1.7131055 0.383696,-1.9049241 0.565458,-2.5385574 0.968689,-3.3769089 0.326032,-0.6778481 0.441992,-0.7355421 1.228498,-0.6112123 1.423704,0.2250572 2.388811,1.86371 2.682703,4.5549492 0.315153,2.8859379 -1.142427,8.9324109 -2.725816,11.3074929 -0.402766,0.60415 -0.530269,0.671821 -1.072181,0.569049 -1.047501,-0.198655 -1.759129,-0.73893 -2.584646,-1.962293 -0.506836,-0.751101 -0.630483,-1.143923 -0.757427,-2.406325 -0.07026,-0.698762 -0.24286,-5.7585103 -0.252265,-7.395371 -0.0014,-0.2498282 -0.03385,-0.3146023 -0.157433,-0.3146023 -0.138854,0 -0.166093,0.1197916 -0.252748,1.1115951 -0.155289,1.7773072 -0.261305,3.7044642 -0.273447,4.9707192 -0.0062,0.645984 -0.03464,1.443636 -0.06322,1.77256 l -0.05196,0.598045 -1.593985,-0.74142 C 11.67719,14.136912 9.997886,13.457231 9.8432502,13.516572 c -0.1016514,0.039 -0.1125612,0.449187 -0.072195,2.714612 0.055838,3.133642 -0.029706,6.15262 -0.1741303,6.145643 -0.052596,-0.0025 -0.3654345,-0.07535 -0.6951849,-0.161792 l 0,0 z"
     id="path3774"
     inkscape:connector-curvature="0" />
</svg>
