<?xml version="1.0" encoding="UTF-8"?>
<!DOCTYPE svg PUBLIC "-//W3C//DTD SVG 1.1//EN" "http://www.w3.org/Graphics/SVG/1.1/DTD/svg11.dtd" [
	<!ENTITY ns_svg "http://www.w3.org/2000/svg">
	<!ENTITY ns_xlink "http://www.w3.org/1999/xlink">
]>
<svg version="1.1" id="Layer_1" xmlns="http://www.w3.org/2000/svg" xmlns:xlink="http://www.w3.org/1999/xlink" width="128" height="128" viewBox="0 0 128 128" overflow="visible" enable-background="new 0 0 128 128" xml:space="preserve">
	<path opacity="0.2" d="M63.105,15.187L63.105,15.187L4.188,111.771c-0.467,0.766-0.527,1.572-0.167,2.216   C4.382,114.631,5.103,115,6,115h118c0.896,0,1.617-0.369,1.979-1.012c0.361-0.644,0.301-1.451-0.166-2.217L66.895,15.187   c-0.458-0.752-1.148-1.183-1.895-1.183C64.254,14.003,63.563,14.435,63.105,15.187z"/>
	<path opacity="0.2" d="M62.251,14.666L62.251,14.666L3.334,111.251c-0.661,1.082-0.728,2.258-0.186,3.226   C3.692,115.443,4.73,116,5.999,116H124c1.27,0,2.309-0.555,2.851-1.523c0.544-0.967,0.476-2.143-0.185-3.226   c0.074,0.123,0.098,0.267,0.114,0.408c-0.334-0.769-4.594-7.751-59.032-96.993c-0.644-1.057-1.646-1.663-2.748-1.663   S62.896,13.609,62.251,14.666z"/>
	<linearGradient id="XMLID_7_" gradientUnits="userSpaceOnUse" x1="65" y1="119" x2="65" y2="4.7496">
		<stop offset="0" style="stop-color:#F35B00"/>
		<stop offset="0.9888" style="stop-color:#EC3D00"/>
	</linearGradient>
	<path fill="url(#XMLID_7_)" d="M63.105,14.187L63.105,14.187L4.188,110.771c-0.467,0.766-0.527,1.572-0.167,2.216   C4.382,113.631,5.103,114,6,114h118c0.896,0,1.617-0.369,1.979-1.012c0.361-0.644,0.301-1.451-0.166-2.217L66.895,14.187   c-0.458-0.752-1.148-1.183-1.895-1.183C64.254,13.003,63.563,13.435,63.105,14.187z"/>
	<radialGradient id="XMLID_8_" cx="65.5" cy="113.25" r="56.7499" gradientUnits="userSpaceOnUse">
		<stop offset="0" style="stop-color:#FCB600"/>
		<stop offset="0.9888" style="stop-color:#F67C00"/>
	</radialGradient>
	<path fill="url(#XMLID_8_)" d="M66.041,14.708c-0.572-0.939-1.51-0.939-2.083,0L5.042,111.293C4.469,112.231,4.9,113,6,113h118   c1.1,0,1.531-0.769,0.959-1.707L66.041,14.708z"/>
	<linearGradient id="XMLID_9_" gradientUnits="userSpaceOnUse" x1="65.9277" y1="127.3672" x2="57.6778" y2="-8.6315">
		<stop offset="0" style="stop-color:#FCB600"/>
		<stop offset="0.9888" style="stop-color:#F67C00"/>
	</linearGradient>
	<path fill="url(#XMLID_9_)" d="M5.303,112.863l58.655-96.156c0.573-0.939,1.51-0.939,2.083,0l58.656,96.156   c0.556-0.261,0.689-0.867,0.262-1.57L66.041,14.708c-0.572-0.939-1.51-0.939-2.083,0L5.042,111.293   C4.613,111.996,4.747,112.603,5.303,112.863z"/>
	<radialGradient id="XMLID_10_" cx="-32.75" cy="55.5005" r="147.5013" gradientUnits="userSpaceOnUse">
		<stop offset="0" style="stop-color:#FCC128"/>
		<stop offset="0.9888" style="stop-color:#F6932F"/>
	</radialGradient>
	<path fill="url(#XMLID_10_)" d="M57.089,71.576C81.25,65,98.291,67.574,98.291,67.574l-32.25-52.867   c-0.572-0.939-1.51-0.939-2.083,0L17.955,90.123C17.955,90.123,32.929,78.153,57.089,71.576z"/>
	<radialGradient id="XMLID_11_" cx="-1" cy="63.5005" r="118.7162" gradientUnits="userSpaceOnUse">
		<stop offset="0" style="stop-color:#FCCC51"/>
		<stop offset="0.9888" style="stop-color:#F6A95B"/>
	</radialGradient>
	<path fill="url(#XMLID_11_)" d="M63.958,16.708c0.573-0.939,1.51-0.939,2.083,0L96.977,67.42c0.857,0.086,1.314,0.154,1.314,0.154   l-32.25-52.867c-0.572-0.939-1.51-0.939-2.083,0L17.955,90.123c0,0,0.762-0.607,2.208-1.619L63.958,16.708z"/>
	<linearGradient id="XMLID_12_" gradientUnits="userSpaceOnUse" x1="64.2109" y1="106.25" x2="65.4609" y2="34.25">
		<stop offset="0" style="stop-color:#EBC710"/>
		<stop offset="0.9944" style="stop-color:#F6B000"/>
	</linearGradient>
	<path fill="url(#XMLID_12_)" d="M59.03,46.093c-0.406,0-0.8,0.167-1.081,0.46s-0.434,0.693-0.417,1.098l1.48,38.415   c0.031,0.81,0.689,1.443,1.499,1.443h8.883c0.806,0,1.464-0.631,1.499-1.437l1.637-38.416c0.018-0.406-0.134-0.808-0.416-1.102   c-0.281-0.294-0.676-0.462-1.082-0.462H59.03z M59.575,89.574c-0.827,0-1.5,0.674-1.5,1.5v10.91c0,0.826,0.673,1.5,1.5,1.5h10.909   c0.828,0,1.5-0.674,1.5-1.5v-10.91c0-0.826-0.672-1.5-1.5-1.5H59.575z"/>
	<path d="M59.03,47.593h12.001L69.394,86.01h-8.883L59.03,47.593z M59.575,91.074h10.909v10.91H59.575V91.074z"/>
	<path fill="#262626" d="M59.926,70.842c3.586-0.893,7-1.588,10.205-2.119l0.9-21.129H59.03L59.926,70.842z"/>
</svg>