<svg width="1713" height="284" viewBox="0 0 1713 284" fill="none" xmlns="http://www.w3.org/2000/svg">
<path d="M176.202 26.6913H188.583C188.583 26.6913 197.317 25.6708 200.195 31.6083C203.076 37.5458 289.194 264.192 289.194 264.192L188.871 266.258L132.055 107.837L147.41 40.6073L152.401 33.3712L176.202 26.6913Z" fill="black"/>
<path d="M153.314 176.613C153.314 176.613 120.578 179.303 89.0473 205.838V264.915C89.0473 264.915 111.861 271.1 128.183 256.757C144.597 242.414 225.186 184.323 253.378 176.613H153.314Z" fill="url(#paint0_linear_2783_5470)"/>
<path d="M80.966 35.9382C80.966 35.9382 6.55386 233.629 1.31005 249.319C-3.93377 265.25 9.80002 266.215 9.80002 266.215H102.69C96.6975 265.25 99.4442 248.595 99.4442 248.595C99.4442 248.595 170.61 55.2487 173.856 41.9727C176.853 28.9382 185.842 26.7658 185.842 26.7658C185.842 26.7658 105.937 25.0761 94.6998 24.8347C83.7128 24.8347 80.966 35.9382 80.966 35.9382ZM102.69 266.215C102.94 266.215 103.19 266.215 103.689 266.215H102.69Z" fill="url(#paint1_linear_2783_5470)"/>
<path d="M176.202 26.6913H188.583C188.583 26.6913 197.317 25.6708 200.195 31.6083C203.076 37.5458 289.194 264.192 289.194 264.192L188.871 266.258L132.055 107.837L147.41 40.6073L152.401 33.3712L176.202 26.6913Z" fill="black"/>
<path d="M153.314 176.613C153.314 176.613 120.578 179.303 89.0473 205.838V264.915C89.0473 264.915 111.861 271.1 128.183 256.757C144.597 242.414 225.186 184.323 253.378 176.613H153.314Z" fill="url(#paint2_linear_2783_5470)"/>
<path d="M80.966 35.9382C80.966 35.9382 6.55386 233.629 1.31005 249.319C-3.93377 265.25 9.80002 266.215 9.80002 266.215H102.69C96.6975 265.25 99.4442 248.595 99.4442 248.595C99.4442 248.595 170.61 55.2487 173.856 41.9727C176.853 28.9382 185.842 26.7658 185.842 26.7658C185.842 26.7658 105.937 25.0761 94.6998 24.8347C83.7128 24.8347 80.966 35.9382 80.966 35.9382ZM102.69 266.215C102.94 266.215 103.19 266.215 103.689 266.215H102.69Z" fill="url(#paint3_linear_2783_5470)"/>
<path d="M403.408 82.243V95.6093C403.408 95.6093 397.847 98.1123 389.724 98.1123C375.55 98.1123 366.717 88.5262 366.717 77.663C366.717 66.7998 374.187 56.7876 388.961 56.7876C394.631 56.7876 396.757 58.0125 398.773 58.0125C399.647 58.0125 400.083 57.5332 400.083 57.5332H401.064L402.863 65.1489L401.881 65.4673C399.865 62.8056 395.176 60.4623 390.051 60.4623C381.329 60.4623 375.877 67.5975 375.877 78.0358C375.877 87.8871 381.71 94.4909 389.288 94.4909C392.231 94.4909 394.031 93.7986 394.467 93.5323V82.3496C394.467 80.3258 393.103 79.2074 391.25 79.1009V78.4086H406.243V79.1009C405.37 79.2074 403.408 79.8465 403.408 82.243Z" fill="#1D1D1B"/>
<path d="M456.238 60.4639C450.786 60.4639 443.263 64.4048 443.263 76.7059C443.263 86.4519 447.788 94.3327 456.292 94.3327C462.78 94.3327 468.886 89.3266 468.886 78.1439C468.886 64.5102 461.472 60.4639 456.238 60.4639ZM456.074 98.1139C441.846 98.1139 434.05 87.8354 434.05 77.4504C434.05 67.3861 440.81 56.6294 456.129 56.6294C465.179 56.6294 478.155 61.6888 478.155 78.4101C478.155 87.6224 470.795 98.1139 456.074 98.1139Z" fill="#1D1D1B"/>
<path d="M535.776 62.4864L520.512 99.179L504.81 63.1788C503.447 60.091 502.303 58.1726 500.448 58.1726V57.4814H515.441V58.1726C513.096 58.1726 513.151 60.091 513.751 61.5278L523.128 83.7879L531.96 61.9539C532.941 59.5573 532.614 58.3335 530.651 58.1726V57.4814H539.537V58.1726C538.392 58.1726 536.867 59.8769 535.776 62.4864Z" fill="#1D1D1B"/>
<path d="M591.496 97.2606H564.51V96.5683C566.2 96.5683 567.291 95.9824 567.291 92.6273V61.8473C567.291 59.0247 565.437 58.1726 564.128 58.1726V57.4814H590.788L589.915 63.5515L589.206 63.445C588.988 61.155 587.571 60.8355 581.247 60.8355H576.122V75.4799H580.866C585.444 75.4799 589.206 76.1189 589.206 72.8182H590.079V81.6565H589.206C589.206 78.4622 586.207 78.835 580.811 78.835H576.122V90.8698C576.122 93.3196 577.485 93.9054 579.611 93.9054H585.662C589.152 93.9054 592.204 92.4687 593.459 90.6035L594.331 90.9763L591.496 97.2606Z" fill="#1D1D1B"/>
<path d="M634.458 60.6212H631.624V76.6502C631.95 76.7035 634.022 76.6502 634.022 76.6502C639.201 76.6502 642.037 73.1353 642.037 68.6096C642.037 63.0177 638.711 60.6212 634.458 60.6212ZM645.525 97.2593L634.676 79.7391C633.477 79.8989 633.041 79.8989 631.624 79.8989V92.4663C631.624 95.8747 634.131 96.567 634.73 96.567V97.2593H619.957V96.567C620.72 96.567 622.956 96.1942 622.956 92.626V62.1112C622.956 59.1833 621.101 58.1714 619.684 58.1714V57.4802H631.95C634.022 57.4802 650.759 55.9879 650.759 67.9162C650.759 74.6265 646.125 77.1295 642.963 78.0349L653.595 93.6923C654.249 94.6498 655.775 96.4072 657.574 96.567V97.2593H645.525Z" fill="#1D1D1B"/>
<path d="M719.013 62.0071V99.3376L688.811 64.3504V92.4154C688.811 95.5043 689.956 96.5683 691.973 96.5683V97.2606H682.269V96.5683C684.014 96.5683 685.213 95.9292 685.213 92.8414V62.4332C685.213 58.8661 683.796 58.1726 682.052 58.1726V57.4814H694.318L715.252 81.6043V62.3266C715.252 59.1856 713.617 58.1726 711.872 58.1726V57.4814H722.013V58.1726C719.996 58.1726 719.013 59.2389 719.013 62.0071Z" fill="#1D1D1B"/>
<path d="M771.677 60.4639C766.225 60.4639 758.702 64.4048 758.702 76.7059C758.702 86.4519 763.227 94.3327 771.731 94.3327C778.218 94.3327 784.324 89.3266 784.324 78.1439C784.324 64.5102 776.911 60.4639 771.677 60.4639ZM771.513 98.1139C757.284 98.1139 749.487 87.8354 749.487 77.4504C749.487 67.3861 756.249 56.6294 771.567 56.6294C780.617 56.6294 793.592 61.6888 793.592 78.4101C793.592 87.6224 786.232 98.1139 771.513 98.1139Z" fill="#1D1D1B"/>
<path d="M880.771 60.8899H876.465V91.935C876.465 93.5859 877.991 93.9598 880.117 93.9598C890.803 93.9598 895.001 85.3323 895.001 77.1852C895.001 69.3576 891.239 60.8899 880.771 60.8899ZM881.099 97.2617H864.526V96.5683C865.725 96.5683 867.523 96.2499 867.523 92.6284V62.1136C867.523 59.3987 866.924 58.1738 864.253 58.1738V57.4814H881.753C898.871 57.4814 904.05 68.7707 904.05 77.3438C904.05 86.3986 897.672 97.2617 881.099 97.2617Z" fill="#1D1D1B"/>
<path d="M959.118 97.2606H932.133V96.5683C933.822 96.5683 934.912 95.9824 934.912 92.6273V61.8473C934.912 59.0247 933.059 58.1726 931.75 58.1726V57.4814H958.41L957.537 63.5515L956.829 63.445C956.609 61.155 955.192 60.8355 948.868 60.8355H943.745V75.4799H948.487C953.067 75.4799 956.829 76.1189 956.829 72.8182H957.701V81.6565H956.829C956.829 78.4622 953.829 78.835 948.432 78.835H943.745V90.8698C943.745 93.3196 945.107 93.9054 947.233 93.9054H953.284C956.774 93.9054 959.826 92.4687 961.08 90.6035L961.952 90.9763L959.118 97.2606Z" fill="#1D1D1B"/>
<path d="M934.243 158.24C930.378 166.785 927.366 173.44 923.838 181.239H944.397C941.018 173.586 938.074 166.916 934.243 158.24ZM997.972 208.052H948.789C950.794 205.697 952.175 204.075 953.902 202.044C952.223 198.282 950.573 194.583 948.692 190.368H919.981C918.349 193.772 916.468 197.693 914.487 201.823C916.267 203.86 917.703 205.504 919.618 207.698H893.367C900.982 204.937 903.155 198.15 905.988 192.215C917.766 167.545 929.244 142.739 940.879 118.003C941.484 116.719 942.514 115.624 944.213 113.206C949.988 124.352 955.315 134.553 960.569 144.789C969.3 161.799 977.959 178.844 986.707 195.846C989.117 200.53 991.513 205.349 997.972 205.813V208.052Z" fill="black"/>
<path d="M382.376 181.965C378.622 173.627 377.161 166.575 371.122 160.342C367.763 167.687 364.908 173.931 361.744 180.851C364.539 181.339 366.324 181.862 368.125 181.922C372.214 182.058 376.31 181.965 382.376 181.965ZM544.932 209.856C523.757 192.887 502.951 176.215 480.292 158.055C480.292 173.026 479.84 185.888 480.609 198.68C480.8 201.865 484.93 204.83 487.141 207.753H388.053C389.219 205.467 390.192 203.561 391.405 201.185C389.704 197.666 387.951 194.042 386.081 190.176H357.689C355.905 193.951 354.187 197.592 352.338 201.504C353.835 203.65 355.169 205.56 356.804 207.903H331.122C337.904 204.666 340.7 198.7 343.514 192.747C355.358 167.695 367.198 142.643 379.063 117.601C379.536 116.605 380.244 115.714 381.453 113.814C383.311 116.677 385.057 118.922 386.327 121.395C399.173 146.394 411.858 171.473 424.775 196.438C429.384 205.348 434.657 207.894 443.206 205.831C444.94 205.411 446.408 203.961 448.539 202.655V115.92C470.783 133.799 491.497 150.449 513.5 168.134V124.776C511.514 122.973 509.39 121.041 506.761 118.654H553.979C545.283 122.473 544.827 127.913 544.864 133.863C545.024 158.733 544.932 183.604 544.932 209.856Z" fill="black"/>
<path d="M763.652 163.736C761.796 154.648 760.758 146.148 758.221 138.084C755.564 129.635 749.132 124.221 739.597 123.732C729.594 123.22 722.252 128.116 718.727 136.754C711.527 154.383 711.425 172.463 718.819 190.057C722.202 198.103 729.013 203.18 738.65 202.936C748.181 202.695 754.993 197.784 757.817 189.318C760.604 180.968 761.807 172.123 763.652 163.736ZM736.035 210.793C729.381 209.652 721.21 209.068 713.585 206.786C692.893 200.59 681.784 185.427 681.316 164.126C680.836 142.285 692.542 125.976 714.15 119.629C731.543 114.52 749.186 114.631 766.268 120.941C783.173 127.186 792.766 139.198 794.65 156.91C797.907 187.536 780.044 204.955 753.504 209.006C748.207 209.815 742.826 210.114 736.035 210.793Z" fill="black"/>
<path d="M656.715 121.62C656.095 130.296 655.554 137.863 655.014 145.43C654.461 145.516 653.908 145.601 653.354 145.686C651.812 142.825 650.362 139.913 648.711 137.11C642.705 126.898 633.224 122.888 621.542 123.809C609.318 124.771 602.002 131.826 598.684 142.912C594.401 157.228 594.709 171.669 598.504 185.984C599.427 189.47 601.479 192.933 603.84 195.76C612.113 205.669 622.813 205.357 631.723 195.41V165.831H664.516C663.96 175.171 663.403 184.543 662.854 193.788C644.308 210.903 607.898 215.696 586.142 203.708C568.768 194.133 562.524 178.611 563.598 160.267C565.12 134.238 580.145 119.735 608.624 116.693C624.441 115.006 640.055 117.371 656.715 121.62Z" fill="black"/>
<path d="M883.969 207.745H809.289C810.715 203.623 813.316 199.485 813.397 195.3C813.808 174.078 813.802 152.84 813.356 131.619C813.267 127.331 810.646 123.093 809.136 118.671H849.779C848.176 122.318 845.369 125.79 845.311 129.304C844.915 152.712 845.106 176.128 845.106 199.336C869.541 205.149 878.913 195.255 886.906 178.212C887.866 188.968 885.774 197.707 883.969 207.745Z" fill="black"/>
<path d="M403.408 82.243V95.6093C403.408 95.6093 397.847 98.1123 389.724 98.1123C375.55 98.1123 366.717 88.5262 366.717 77.663C366.717 66.7998 374.187 56.7876 388.961 56.7876C394.631 56.7876 396.757 58.0125 398.773 58.0125C399.647 58.0125 400.083 57.5332 400.083 57.5332H401.064L402.863 65.1489L401.881 65.4673C399.865 62.8056 395.176 60.4623 390.051 60.4623C381.329 60.4623 375.877 67.5975 375.877 78.0358C375.877 87.8871 381.71 94.4909 389.288 94.4909C392.231 94.4909 394.031 93.7986 394.467 93.5323V82.3496C394.467 80.3258 393.103 79.2074 391.25 79.1009V78.4086H406.243V79.1009C405.37 79.2074 403.408 79.8465 403.408 82.243Z" fill="#1D1D1B"/>
<path d="M456.238 60.4639C450.786 60.4639 443.263 64.4048 443.263 76.7059C443.263 86.4519 447.788 94.3327 456.292 94.3327C462.78 94.3327 468.886 89.3266 468.886 78.1439C468.886 64.5102 461.472 60.4639 456.238 60.4639ZM456.074 98.1139C441.846 98.1139 434.05 87.8354 434.05 77.4504C434.05 67.3861 440.81 56.6294 456.129 56.6294C465.179 56.6294 478.155 61.6888 478.155 78.4101C478.155 87.6224 470.795 98.1139 456.074 98.1139Z" fill="#1D1D1B"/>
<path d="M535.776 62.4864L520.512 99.179L504.81 63.1788C503.447 60.091 502.303 58.1726 500.448 58.1726V57.4814H515.441V58.1726C513.096 58.1726 513.151 60.091 513.751 61.5278L523.128 83.7879L531.96 61.9539C532.941 59.5573 532.614 58.3335 530.651 58.1726V57.4814H539.537V58.1726C538.392 58.1726 536.867 59.8769 535.776 62.4864Z" fill="#1D1D1B"/>
<path d="M591.496 97.2606H564.51V96.5683C566.2 96.5683 567.291 95.9824 567.291 92.6273V61.8473C567.291 59.0247 565.437 58.1726 564.128 58.1726V57.4814H590.788L589.915 63.5515L589.206 63.445C588.988 61.155 587.571 60.8355 581.247 60.8355H576.122V75.4799H580.866C585.444 75.4799 589.206 76.1189 589.206 72.8182H590.079V81.6565H589.206C589.206 78.4622 586.207 78.835 580.811 78.835H576.122V90.8698C576.122 93.3196 577.485 93.9054 579.611 93.9054H585.662C589.152 93.9054 592.204 92.4687 593.459 90.6035L594.331 90.9763L591.496 97.2606Z" fill="#1D1D1B"/>
<path d="M634.458 60.6212H631.624V76.6502C631.95 76.7035 634.022 76.6502 634.022 76.6502C639.201 76.6502 642.037 73.1353 642.037 68.6096C642.037 63.0177 638.711 60.6212 634.458 60.6212ZM645.525 97.2593L634.676 79.7391C633.477 79.8989 633.041 79.8989 631.624 79.8989V92.4663C631.624 95.8747 634.131 96.567 634.73 96.567V97.2593H619.957V96.567C620.72 96.567 622.956 96.1942 622.956 92.626V62.1112C622.956 59.1833 621.101 58.1714 619.684 58.1714V57.4802H631.95C634.022 57.4802 650.759 55.9879 650.759 67.9162C650.759 74.6265 646.125 77.1295 642.963 78.0349L653.595 93.6923C654.249 94.6498 655.775 96.4072 657.574 96.567V97.2593H645.525Z" fill="#1D1D1B"/>
<path d="M719.013 62.0071V99.3376L688.811 64.3504V92.4154C688.811 95.5043 689.956 96.5683 691.973 96.5683V97.2606H682.269V96.5683C684.014 96.5683 685.213 95.9292 685.213 92.8414V62.4332C685.213 58.8661 683.796 58.1726 682.052 58.1726V57.4814H694.318L715.252 81.6043V62.3266C715.252 59.1856 713.617 58.1726 711.872 58.1726V57.4814H722.013V58.1726C719.996 58.1726 719.013 59.2389 719.013 62.0071Z" fill="#1D1D1B"/>
<path d="M771.677 60.4639C766.225 60.4639 758.702 64.4048 758.702 76.7059C758.702 86.4519 763.227 94.3327 771.731 94.3327C778.218 94.3327 784.324 89.3266 784.324 78.1439C784.324 64.5102 776.911 60.4639 771.677 60.4639ZM771.513 98.1139C757.284 98.1139 749.487 87.8354 749.487 77.4504C749.487 67.3861 756.249 56.6294 771.567 56.6294C780.617 56.6294 793.592 61.6888 793.592 78.4101C793.592 87.6224 786.232 98.1139 771.513 98.1139Z" fill="#1D1D1B"/>
<path d="M880.771 60.8899H876.465V91.935C876.465 93.5859 877.991 93.9598 880.117 93.9598C890.803 93.9598 895.001 85.3323 895.001 77.1852C895.001 69.3576 891.239 60.8899 880.771 60.8899ZM881.099 97.2617H864.526V96.5683C865.725 96.5683 867.523 96.2499 867.523 92.6284V62.1136C867.523 59.3987 866.924 58.1738 864.253 58.1738V57.4814H881.753C898.871 57.4814 904.05 68.7707 904.05 77.3438C904.05 86.3986 897.672 97.2617 881.099 97.2617Z" fill="#1D1D1B"/>
<path d="M959.118 97.2606H932.133V96.5683C933.822 96.5683 934.912 95.9824 934.912 92.6273V61.8473C934.912 59.0247 933.059 58.1726 931.75 58.1726V57.4814H958.41L957.537 63.5515L956.829 63.445C956.609 61.155 955.192 60.8355 948.868 60.8355H943.745V75.4799H948.487C953.067 75.4799 956.829 76.1189 956.829 72.8182H957.701V81.6565H956.829C956.829 78.4622 953.829 78.835 948.432 78.835H943.745V90.8698C943.745 93.3196 945.107 93.9054 947.233 93.9054H953.284C956.774 93.9054 959.826 92.4687 961.08 90.6035L961.952 90.9763L959.118 97.2606Z" fill="#1D1D1B"/>
<path d="M934.243 158.24C930.378 166.785 927.366 173.44 923.838 181.239H944.397C941.018 173.586 938.074 166.916 934.243 158.24ZM997.972 208.052H948.789C950.794 205.697 952.175 204.075 953.902 202.044C952.223 198.282 950.573 194.583 948.692 190.368H919.981C918.349 193.772 916.468 197.693 914.487 201.823C916.267 203.86 917.703 205.504 919.618 207.698H893.367C900.982 204.937 903.155 198.15 905.988 192.215C917.766 167.545 929.244 142.739 940.879 118.003C941.484 116.719 942.514 115.624 944.213 113.206C949.988 124.352 955.315 134.553 960.569 144.789C969.3 161.799 977.959 178.844 986.707 195.846C989.117 200.53 991.513 205.349 997.972 205.813V208.052Z" fill="black"/>
<path d="M382.376 181.965C378.622 173.627 377.161 166.575 371.122 160.342C367.763 167.687 364.908 173.931 361.744 180.851C364.539 181.339 366.324 181.862 368.125 181.922C372.214 182.058 376.31 181.965 382.376 181.965ZM544.932 209.856C523.757 192.887 502.951 176.215 480.292 158.055C480.292 173.026 479.84 185.888 480.609 198.68C480.8 201.865 484.93 204.83 487.141 207.753H388.053C389.219 205.467 390.192 203.561 391.405 201.185C389.704 197.666 387.951 194.042 386.081 190.176H357.689C355.905 193.951 354.187 197.592 352.338 201.504C353.835 203.65 355.169 205.56 356.804 207.903H331.122C337.904 204.666 340.7 198.7 343.514 192.747C355.358 167.695 367.198 142.643 379.063 117.601C379.536 116.605 380.244 115.714 381.453 113.814C383.311 116.677 385.057 118.922 386.327 121.395C399.173 146.394 411.858 171.473 424.775 196.438C429.384 205.348 434.657 207.894 443.206 205.831C444.94 205.411 446.408 203.961 448.539 202.655V115.92C470.783 133.799 491.497 150.449 513.5 168.134V124.776C511.514 122.973 509.39 121.041 506.761 118.654H553.979C545.283 122.473 544.827 127.913 544.864 133.863C545.024 158.733 544.932 183.604 544.932 209.856Z" fill="black"/>
<path d="M763.652 163.736C761.796 154.648 760.758 146.148 758.221 138.084C755.564 129.635 749.132 124.221 739.597 123.732C729.594 123.22 722.252 128.116 718.727 136.754C711.527 154.383 711.425 172.463 718.819 190.057C722.202 198.103 729.013 203.18 738.65 202.936C748.181 202.695 754.993 197.784 757.817 189.318C760.604 180.968 761.807 172.123 763.652 163.736ZM736.035 210.793C729.381 209.652 721.21 209.068 713.585 206.786C692.893 200.59 681.784 185.427 681.316 164.126C680.836 142.285 692.542 125.976 714.15 119.629C731.543 114.52 749.186 114.631 766.268 120.941C783.173 127.186 792.766 139.198 794.65 156.91C797.907 187.536 780.044 204.955 753.504 209.006C748.207 209.815 742.826 210.114 736.035 210.793Z" fill="black"/>
<path d="M656.715 121.62C656.095 130.296 655.554 137.863 655.014 145.43C654.461 145.516 653.908 145.601 653.354 145.686C651.812 142.825 650.362 139.913 648.711 137.11C642.705 126.898 633.224 122.888 621.542 123.809C609.318 124.771 602.002 131.826 598.684 142.912C594.401 157.228 594.709 171.669 598.504 185.984C599.427 189.47 601.479 192.933 603.84 195.76C612.113 205.669 622.813 205.357 631.723 195.41V165.831H664.516C663.96 175.171 663.403 184.543 662.854 193.788C644.308 210.903 607.898 215.696 586.142 203.708C568.768 194.133 562.524 178.611 563.598 160.267C565.12 134.238 580.145 119.735 608.624 116.693C624.441 115.006 640.055 117.371 656.715 121.62Z" fill="black"/>
<path d="M883.969 207.745H809.289C810.715 203.623 813.316 199.485 813.397 195.3C813.808 174.078 813.802 152.84 813.356 131.619C813.267 127.331 810.646 123.093 809.136 118.671H849.779C848.176 122.318 845.369 125.79 845.311 129.304C844.915 152.712 845.106 176.128 845.106 199.336C869.541 205.149 878.913 195.255 886.906 178.212C887.866 188.968 885.774 197.707 883.969 207.745Z" fill="black"/>
<g clip-path="url(#clip0_2783_5470)">
<path d="M1549.85 207.899C1549.85 210 1550.19 211.587 1550.87 212.663C1551.57 213.738 1552.7 214.276 1554.25 214.276C1555.8 214.276 1556.9 213.744 1557.57 212.682C1558.26 211.606 1558.6 210.012 1558.6 207.899C1558.6 205.799 1558.26 204.224 1557.57 203.174C1556.89 202.124 1555.77 201.599 1554.21 201.599C1552.67 201.599 1551.56 202.124 1550.87 203.174C1550.19 204.211 1549.85 205.786 1549.85 207.899ZM1564.52 207.899C1564.52 211.353 1563.61 214.054 1561.79 216.003C1559.96 217.951 1557.43 218.925 1554.18 218.925C1552.14 218.925 1550.34 218.483 1548.79 217.597C1547.23 216.699 1546.03 215.415 1545.2 213.744C1544.36 212.074 1543.95 210.126 1543.95 207.899C1543.95 204.433 1544.85 201.738 1546.66 199.815C1548.47 197.892 1551.01 196.93 1554.29 196.93C1556.33 196.93 1558.12 197.373 1559.68 198.259C1561.24 199.144 1562.43 200.416 1563.27 202.073C1564.1 203.731 1564.52 205.673 1564.52 207.899Z" fill="black"/>
<path d="M1535.22 218.546L1534.1 215.662H1533.95C1532.97 216.889 1531.97 217.743 1530.93 218.224C1529.9 218.692 1528.56 218.926 1526.91 218.926C1524.87 218.926 1523.26 218.344 1522.09 217.18C1520.92 216.016 1520.34 214.359 1520.34 212.208C1520.34 209.956 1521.12 208.298 1522.69 207.236C1524.27 206.16 1526.65 205.566 1529.83 205.452L1533.51 205.338V204.408C1533.51 202.257 1532.41 201.182 1530.21 201.182C1528.51 201.182 1526.52 201.694 1524.23 202.719L1522.31 198.81C1524.75 197.532 1527.46 196.893 1530.44 196.893C1533.28 196.893 1535.46 197.513 1536.98 198.753C1538.5 199.992 1539.26 201.878 1539.26 204.408V218.546H1535.22ZM1533.51 208.716L1531.27 208.792C1529.59 208.842 1528.34 209.146 1527.51 209.703C1526.69 210.259 1526.28 211.107 1526.28 212.246C1526.28 213.878 1527.22 214.694 1529.09 214.694C1530.43 214.694 1531.5 214.308 1532.3 213.536C1533.1 212.765 1533.51 211.74 1533.51 210.462V208.716ZM1527.57 193.002C1527.18 193.002 1526.8 193.173 1526.43 193.515C1526.08 193.844 1525.82 194.35 1525.65 195.033H1522.83C1522.96 193.198 1523.48 191.762 1524.38 190.725C1525.29 189.688 1526.49 189.169 1527.99 189.169C1528.51 189.169 1529.01 189.276 1529.51 189.491C1530.01 189.694 1530.5 189.922 1530.99 190.175C1531.48 190.415 1531.96 190.636 1532.43 190.839C1532.9 191.041 1533.36 191.143 1533.81 191.143C1534.21 191.143 1534.58 190.978 1534.93 190.649C1535.3 190.32 1535.57 189.814 1535.73 189.131H1538.56C1538.42 190.965 1537.89 192.401 1536.96 193.439C1536.05 194.476 1534.86 194.995 1533.4 194.995C1532.88 194.995 1532.36 194.894 1531.86 194.691C1531.37 194.476 1530.87 194.249 1530.38 194.008C1529.9 193.755 1529.42 193.527 1528.96 193.325C1528.49 193.11 1528.03 193.002 1527.57 193.002Z" fill="black"/>
<path d="M1510.36 218.925C1503.75 218.925 1500.45 215.301 1500.45 208.051C1500.45 204.445 1501.35 201.694 1503.15 199.796C1504.94 197.885 1507.52 196.93 1510.87 196.93C1513.32 196.93 1515.53 197.411 1517.47 198.372L1515.77 202.851C1514.85 202.484 1514.01 202.187 1513.22 201.959C1512.44 201.719 1511.65 201.599 1510.87 201.599C1507.86 201.599 1506.35 203.737 1506.35 208.013C1506.35 212.163 1507.86 214.238 1510.87 214.238C1511.98 214.238 1513.01 214.092 1513.96 213.801C1514.91 213.498 1515.86 213.03 1516.81 212.397V217.35C1515.87 217.945 1514.92 218.356 1513.96 218.584C1513.01 218.812 1511.81 218.925 1510.36 218.925ZM1513.98 223.29C1513.98 224.91 1513.5 226.08 1512.54 226.801C1511.59 227.522 1510.12 227.883 1508.12 227.883C1507.13 227.883 1506.21 227.75 1505.35 227.484V224.296C1505.69 224.385 1506.14 224.473 1506.71 224.562C1507.3 224.65 1507.74 224.695 1508.06 224.695C1508.97 224.695 1509.43 224.302 1509.43 223.518C1509.43 222.468 1508.38 221.785 1506.28 221.468L1507.76 218.546H1511.42L1510.91 219.704C1511.84 220.007 1512.59 220.475 1513.15 221.108C1513.7 221.753 1513.98 222.481 1513.98 223.29Z" fill="black"/>
<path d="M1491.72 218.546L1490.6 215.662H1490.45C1489.47 216.889 1488.47 217.743 1487.43 218.224C1486.41 218.692 1485.07 218.926 1483.41 218.926C1481.37 218.926 1479.76 218.344 1478.59 217.18C1477.42 216.016 1476.84 214.358 1476.84 212.208C1476.84 209.956 1477.63 208.298 1479.2 207.235C1480.78 206.16 1483.16 205.565 1486.33 205.452L1490.01 205.338V204.408C1490.01 202.257 1488.91 201.182 1486.71 201.182C1485.01 201.182 1483.02 201.694 1480.73 202.719L1478.82 198.809C1481.26 197.531 1483.96 196.893 1486.94 196.893C1489.78 196.893 1491.97 197.513 1493.49 198.752C1495 199.992 1495.76 201.877 1495.76 204.408V218.546H1491.72ZM1490.01 208.716L1487.77 208.792C1486.09 208.842 1484.84 209.146 1484.02 209.703C1483.19 210.259 1482.78 211.107 1482.78 212.246C1482.78 213.878 1483.72 214.694 1485.59 214.694C1486.93 214.694 1488 214.308 1488.8 213.536C1489.61 212.764 1490.01 211.74 1490.01 210.462V208.716Z" fill="black"/>
<path d="M1466.86 218.925C1460.26 218.925 1456.95 215.301 1456.95 208.051C1456.95 204.445 1457.85 201.694 1459.65 199.796C1461.44 197.885 1464.02 196.93 1467.37 196.93C1469.83 196.93 1472.03 197.411 1473.98 198.372L1472.27 202.851C1471.36 202.484 1470.51 202.187 1469.72 201.959C1468.94 201.719 1468.16 201.599 1467.37 201.599C1464.36 201.599 1462.85 203.737 1462.85 208.013C1462.85 212.163 1464.36 214.238 1467.37 214.238C1468.49 214.238 1469.52 214.092 1470.47 213.801C1471.41 213.498 1472.36 213.03 1473.31 212.397V217.35C1472.38 217.945 1471.43 218.356 1470.47 218.584C1469.52 218.812 1468.31 218.925 1466.86 218.925Z" fill="black"/>
<path d="M1447.73 218.546L1446.95 215.832H1446.65C1446.03 216.819 1445.15 217.585 1444.01 218.129C1442.87 218.66 1441.57 218.926 1440.12 218.926C1437.63 218.926 1435.75 218.262 1434.48 216.933C1433.22 215.592 1432.59 213.669 1432.59 211.164V197.329H1438.37V209.722C1438.37 211.252 1438.65 212.404 1439.19 213.176C1439.73 213.935 1440.6 214.314 1441.79 214.314C1443.41 214.314 1444.58 213.777 1445.3 212.701C1446.02 211.613 1446.38 209.816 1446.38 207.311V197.329H1452.17V218.546H1447.73Z" fill="black"/>
<path d="M1414.82 218.926C1412.33 218.926 1410.37 217.958 1408.94 216.022C1407.52 214.086 1406.81 211.404 1406.81 207.975C1406.81 204.496 1407.54 201.789 1408.98 199.853C1410.43 197.905 1412.43 196.93 1414.97 196.93C1417.64 196.93 1419.68 197.968 1421.09 200.043H1421.28C1420.98 198.461 1420.84 197.051 1420.84 195.811V189.017H1426.65V218.546H1422.2L1421.09 215.794H1420.84C1419.52 217.882 1417.52 218.926 1414.82 218.926ZM1416.85 214.314C1418.33 214.314 1419.42 213.884 1420.1 213.024C1420.79 212.163 1421.17 210.702 1421.24 208.64V208.013C1421.24 205.736 1420.88 204.104 1420.17 203.117C1419.48 202.13 1418.34 201.637 1416.76 201.637C1415.47 201.637 1414.46 202.187 1413.74 203.288C1413.03 204.376 1412.68 205.964 1412.68 208.051C1412.68 210.139 1413.04 211.708 1413.76 212.758C1414.48 213.795 1415.51 214.314 1416.85 214.314Z" fill="black"/>
<path d="M1402.75 218.546H1386.77V190.8H1402.75V195.621H1392.66V201.713H1402.05V206.533H1392.66V213.688H1402.75V218.546Z" fill="black"/>
<path d="M1366.2 218.546L1365.08 215.662H1364.93C1363.96 216.889 1362.95 217.743 1361.91 218.224C1360.89 218.692 1359.55 218.926 1357.89 218.926C1355.85 218.926 1354.25 218.344 1353.07 217.18C1351.9 216.016 1351.32 214.358 1351.32 212.208C1351.32 209.956 1352.11 208.298 1353.68 207.235C1355.26 206.16 1357.64 205.565 1360.81 205.452L1364.49 205.338V204.408C1364.49 202.257 1363.39 201.182 1361.19 201.182C1359.5 201.182 1357.5 201.694 1355.21 202.719L1353.3 198.809C1355.74 197.531 1358.45 196.893 1361.42 196.893C1364.27 196.893 1366.45 197.513 1367.97 198.752C1369.48 199.992 1370.24 201.877 1370.24 204.408V218.546H1366.2ZM1364.49 208.716L1362.25 208.792C1360.57 208.842 1359.32 209.146 1358.5 209.703C1357.67 210.259 1357.26 211.107 1357.26 212.246C1357.26 213.878 1358.2 214.694 1360.07 214.694C1361.41 214.694 1362.48 214.308 1363.28 213.536C1364.09 212.764 1364.49 211.74 1364.49 210.462V208.716Z" fill="black"/>
<path d="M1347.43 204.407C1347.43 208.975 1346.13 212.473 1343.52 214.902C1340.93 217.331 1337.18 218.546 1332.27 218.546H1324.41V190.8H1333.12C1337.65 190.8 1341.17 191.996 1343.67 194.387C1346.18 196.778 1347.43 200.118 1347.43 204.407ZM1341.32 204.559C1341.32 198.6 1338.69 195.621 1333.43 195.621H1330.3V213.688H1332.82C1338.49 213.688 1341.32 210.645 1341.32 204.559Z" fill="black"/>
<path d="M1294.41 207.899C1294.41 210 1294.75 211.587 1295.43 212.663C1296.13 213.738 1297.25 214.276 1298.81 214.276C1300.35 214.276 1301.46 213.744 1302.13 212.682C1302.82 211.606 1303.16 210.012 1303.16 207.899C1303.16 205.799 1302.82 204.224 1302.13 203.174C1301.45 202.124 1300.33 201.599 1298.77 201.599C1297.23 201.599 1296.12 202.124 1295.43 203.174C1294.75 204.211 1294.41 205.786 1294.41 207.899ZM1309.08 207.899C1309.08 211.353 1308.17 214.054 1306.34 216.003C1304.52 217.951 1301.99 218.925 1298.73 218.925C1296.7 218.925 1294.9 218.483 1293.35 217.597C1291.79 216.699 1290.59 215.415 1289.76 213.744C1288.92 212.074 1288.51 210.126 1288.51 207.899C1288.51 204.433 1289.41 201.738 1291.22 199.815C1293.03 197.892 1295.57 196.93 1298.85 196.93C1300.89 196.93 1302.68 197.373 1304.24 198.259C1305.79 199.144 1306.99 200.416 1307.83 202.073C1308.66 203.731 1309.08 205.673 1309.08 207.899Z" fill="black"/>
<path d="M1277.67 191.844C1277.67 189.959 1278.72 189.017 1280.82 189.017C1282.92 189.017 1283.97 189.959 1283.97 191.844C1283.97 192.743 1283.7 193.445 1283.17 193.951C1282.65 194.444 1281.87 194.691 1280.82 194.691C1278.72 194.691 1277.67 193.742 1277.67 191.844ZM1283.7 218.546H1277.92V197.329H1283.7V218.546Z" fill="black"/>
<path d="M1272.11 196.93C1272.89 196.93 1273.55 196.987 1274.06 197.101L1273.63 202.529C1273.16 202.402 1272.59 202.339 1271.92 202.339C1270.07 202.339 1268.63 202.813 1267.59 203.762C1266.57 204.711 1266.06 206.04 1266.06 207.748V218.546H1260.27V197.329H1264.65L1265.51 200.897H1265.79C1266.45 199.707 1267.33 198.752 1268.45 198.031C1269.57 197.297 1270.79 196.93 1272.11 196.93Z" fill="black"/>
<path d="M1246.09 201.049C1244.86 201.049 1243.9 201.441 1243.21 202.225C1242.51 202.997 1242.11 204.098 1242.01 205.527H1250.13C1250.11 204.098 1249.73 202.997 1249.01 202.225C1248.29 201.441 1247.32 201.049 1246.09 201.049ZM1246.91 218.926C1243.49 218.926 1240.82 217.983 1238.9 216.098C1236.98 214.213 1236.01 211.543 1236.01 208.089C1236.01 204.534 1236.9 201.789 1238.67 199.853C1240.45 197.905 1242.92 196.93 1246.05 196.93C1249.05 196.93 1251.39 197.784 1253.06 199.492C1254.73 201.2 1255.56 203.56 1255.56 206.571V209.38H1241.88C1241.94 211.025 1242.43 212.309 1243.34 213.232C1244.25 214.156 1245.53 214.618 1247.17 214.618C1248.45 214.618 1249.66 214.485 1250.8 214.219C1251.94 213.954 1253.13 213.53 1254.37 212.948V217.426C1253.35 217.933 1252.27 218.306 1251.12 218.546C1249.97 218.799 1248.56 218.926 1246.91 218.926ZM1242.75 194.995V194.482C1244.93 191.952 1246.41 190.048 1247.21 188.77H1253.7V189.169C1253.04 189.826 1251.92 190.807 1250.32 192.11C1248.74 193.401 1247.5 194.362 1246.6 194.995H1242.75Z" fill="black"/>
<path d="M1229.35 214.314C1230.36 214.314 1231.58 214.092 1233 213.65V217.958C1231.55 218.603 1229.78 218.925 1227.68 218.925C1225.37 218.925 1223.68 218.343 1222.62 217.179C1221.57 216.003 1221.04 214.244 1221.04 211.904V201.675H1218.27V199.227L1221.46 197.291L1223.13 192.812H1226.83V197.329H1232.77V201.675H1226.83V211.904C1226.83 212.726 1227.06 213.333 1227.51 213.726C1227.98 214.118 1228.59 214.314 1229.35 214.314Z" fill="black"/>
<path d="M1215.9 212.245C1215.9 214.421 1215.14 216.079 1213.62 217.217C1212.11 218.356 1209.86 218.925 1206.84 218.925C1205.3 218.925 1203.99 218.818 1202.9 218.603C1201.81 218.4 1200.79 218.097 1199.84 217.692V212.909C1200.92 213.416 1202.13 213.839 1203.47 214.181C1204.82 214.523 1206.01 214.693 1207.03 214.693C1209.13 214.693 1210.19 214.086 1210.19 212.872C1210.19 212.416 1210.05 212.049 1209.77 211.771C1209.49 211.48 1209.01 211.157 1208.33 210.803C1207.64 210.436 1206.73 210.012 1205.59 209.531C1203.96 208.848 1202.76 208.216 1201.99 207.634C1201.23 207.052 1200.67 206.387 1200.32 205.641C1199.97 204.882 1199.8 203.952 1199.8 202.851C1199.8 200.966 1200.53 199.511 1201.99 198.486C1203.45 197.449 1205.53 196.93 1208.21 196.93C1210.77 196.93 1213.25 197.487 1215.67 198.6L1213.92 202.775C1212.86 202.32 1211.87 201.947 1210.94 201.656C1210.02 201.365 1209.08 201.219 1208.12 201.219C1206.41 201.219 1205.55 201.681 1205.55 202.605C1205.55 203.123 1205.83 203.572 1206.37 203.952C1206.93 204.332 1208.14 204.895 1210 205.641C1211.65 206.312 1212.87 206.938 1213.64 207.52C1214.41 208.102 1214.98 208.772 1215.35 209.531C1215.71 210.291 1215.9 211.195 1215.9 212.245Z" fill="black"/>
<path d="M1188.97 191.844C1188.97 189.959 1190.02 189.017 1192.12 189.017C1194.22 189.017 1195.27 189.959 1195.27 191.844C1195.27 192.743 1195 193.445 1194.47 193.951C1193.95 194.444 1193.17 194.691 1192.12 194.691C1190.02 194.691 1188.97 193.742 1188.97 191.844ZM1195 218.546H1189.21V197.329H1195V218.546Z" fill="black"/>
<path d="M1183.26 218.546H1177.47V206.153C1177.47 204.623 1177.2 203.478 1176.65 202.718C1176.11 201.947 1175.24 201.561 1174.05 201.561C1172.43 201.561 1171.26 202.105 1170.54 203.193C1169.82 204.268 1169.46 206.058 1169.46 208.564V218.546H1163.67V197.329H1168.09L1168.87 200.043H1169.19C1169.84 199.018 1170.72 198.246 1171.85 197.727C1172.99 197.196 1174.28 196.93 1175.72 196.93C1178.19 196.93 1180.06 197.601 1181.34 198.942C1182.62 200.27 1183.26 202.193 1183.26 204.711V218.546Z" fill="black"/>
<path d="M1151.54 191.844C1151.54 189.959 1152.59 189.017 1154.69 189.017C1156.79 189.017 1157.84 189.959 1157.84 191.844C1157.84 192.743 1157.58 193.445 1157.05 193.951C1156.53 194.444 1155.74 194.691 1154.69 194.691C1152.59 194.691 1151.54 193.742 1151.54 191.844ZM1157.58 218.546H1151.79V197.329H1157.58V218.546Z" fill="black"/>
<path d="M1127.33 218.546L1120.65 196.778H1120.48C1120.72 201.206 1120.84 204.161 1120.84 205.641V218.546H1115.58V190.8H1123.59L1130.16 212.017H1130.27L1137.23 190.8H1145.24V218.546H1139.76V205.413C1139.76 204.793 1139.76 204.078 1139.78 203.269C1139.8 202.459 1139.89 200.308 1140.04 196.816H1139.87L1132.72 218.546H1127.33Z" fill="black"/>
<path d="M1320.38 147.139C1312.41 147.139 1306.14 144.045 1301.57 137.855C1297.04 131.666 1294.77 123.09 1294.77 112.127C1294.77 101.002 1297.08 92.3451 1301.69 86.1557C1306.34 79.9259 1312.73 76.811 1320.87 76.811C1329.4 76.811 1335.91 80.1282 1340.4 86.7625H1341.01C1340.08 81.7059 1339.62 77.1953 1339.62 73.2309V51.5073H1358.18V145.926H1343.99L1340.4 137.127H1339.62C1335.41 143.802 1329 147.139 1320.38 147.139ZM1326.87 132.394C1331.61 132.394 1335.07 131.019 1337.25 128.268C1339.47 125.517 1340.69 120.845 1340.89 114.251V112.248C1340.89 104.967 1339.76 99.7481 1337.49 96.5927C1335.27 93.4374 1331.63 91.8597 1326.57 91.8597C1322.44 91.8597 1319.23 93.6194 1316.92 97.1389C1314.66 100.618 1313.52 105.695 1313.52 112.37C1313.52 119.044 1314.68 124.061 1316.98 127.418C1319.29 130.735 1322.59 132.394 1326.87 132.394Z" fill="black"/>
<path d="M1261.89 89.9786C1257.97 89.9786 1254.9 91.2327 1252.67 93.7408C1250.45 96.2085 1249.17 99.7279 1248.85 104.299H1274.82C1274.74 99.7279 1273.54 96.2085 1271.24 93.7408C1268.93 91.2327 1265.82 89.9786 1261.89 89.9786ZM1264.5 147.139C1253.58 147.139 1245.04 144.126 1238.9 138.098C1232.75 132.07 1229.67 123.535 1229.67 112.491C1229.67 101.124 1232.5 92.3452 1238.17 86.1558C1243.87 79.926 1251.74 76.811 1261.77 76.811C1271.36 76.811 1278.82 79.5416 1284.16 85.0029C1289.5 90.4641 1292.17 98.0087 1292.17 107.637V116.617H1248.42C1248.63 121.876 1250.18 125.982 1253.1 128.935C1256.01 131.888 1260.09 133.365 1265.35 133.365C1269.44 133.365 1273.3 132.94 1276.94 132.091C1280.58 131.241 1284.39 129.886 1288.35 128.025V142.346C1285.11 143.964 1281.66 145.157 1277.97 145.926C1274.29 146.735 1269.8 147.139 1264.5 147.139Z" fill="black"/>
<path d="M1183.4 145.926H1164.89V106.302C1164.89 101.407 1164.07 97.7457 1162.41 95.3185C1160.79 92.8508 1158.22 91.617 1154.7 91.617C1149.97 91.617 1146.53 93.3565 1144.38 96.8355C1142.24 100.315 1141.17 106.039 1141.17 114.008V145.926H1122.66V78.0853H1136.8L1139.29 86.7626H1140.32C1142.14 83.6477 1144.77 81.2205 1148.21 79.481C1151.65 77.701 1155.59 76.811 1160.04 76.811C1170.19 76.811 1177.07 80.1282 1180.67 86.7626H1182.31C1184.13 83.6072 1186.8 81.1598 1190.32 79.4203C1193.88 77.6808 1197.88 76.811 1202.33 76.811C1210.02 76.811 1215.83 78.7933 1219.75 82.7577C1223.71 86.6817 1225.7 92.9924 1225.7 101.69V145.926H1207.13V106.302C1207.13 101.407 1206.3 97.7457 1204.64 95.3185C1203.02 92.8508 1200.45 91.617 1196.93 91.617C1192.4 91.617 1189 93.2352 1186.74 96.4714C1184.51 99.7077 1183.4 104.845 1183.4 111.884V145.926Z" fill="black"/>
<path d="M1058.28 60.6167H1062.24V225.611H1058.28V60.6167Z" fill="black"/>
<path d="M1712.96 114.528C1712.96 125.114 1710.29 133.389 1704.96 139.353C1699.63 145.278 1692.26 148.24 1682.86 148.24C1677.05 148.24 1671.9 146.877 1667.4 144.152C1662.89 141.427 1659.42 137.516 1656.97 132.421C1654.52 127.326 1653.29 121.361 1653.29 114.528C1653.29 103.942 1655.94 95.7067 1661.23 89.8213C1666.53 83.8965 1673.87 80.9341 1683.27 80.9341C1692.36 80.9341 1699.57 83.9557 1704.9 89.9991C1710.27 96.0424 1712.96 104.219 1712.96 114.528ZM1663.49 114.528C1663.49 122.823 1665.14 129.142 1668.46 133.487C1671.78 137.832 1676.66 140.005 1683.1 140.005C1689.53 140.005 1694.41 137.852 1697.73 133.547C1701.09 129.202 1702.77 122.862 1702.77 114.528C1702.77 106.273 1701.09 100.012 1697.73 95.7462C1694.41 91.4408 1689.5 89.2881 1682.98 89.2881C1676.54 89.2881 1671.68 91.4013 1668.4 95.6277C1665.12 99.8541 1663.49 106.154 1663.49 114.528Z" fill="#ED1C24"/>
<path d="M1637.07 147.055L1635.11 137.813H1634.64C1631.4 141.881 1628.16 144.646 1624.92 146.107C1621.72 147.529 1617.71 148.24 1612.89 148.24C1606.45 148.24 1601.4 146.581 1597.73 143.263C1594.09 139.946 1592.27 135.225 1592.27 129.103C1592.27 115.99 1602.76 109.117 1623.74 108.485L1634.76 108.129V104.1C1634.76 99.005 1633.65 95.2526 1631.44 92.8432C1629.26 90.3942 1625.77 89.1698 1620.95 89.1698C1615.54 89.1698 1609.42 90.8287 1602.58 94.1466L1599.56 86.6221C1602.76 84.8841 1606.26 83.5214 1610.05 82.5339C1613.88 81.5465 1617.71 81.0527 1621.54 81.0527C1629.28 81.0527 1635.01 82.7709 1638.72 86.2073C1642.48 89.6437 1644.35 95.1538 1644.35 102.738V147.055H1637.07ZM1614.85 140.123C1620.97 140.123 1625.77 138.445 1629.25 135.087C1632.76 131.73 1634.52 127.029 1634.52 120.986V115.121L1624.68 115.535C1616.86 115.812 1611.21 117.036 1607.74 119.209C1604.3 121.342 1602.58 124.679 1602.58 129.222C1602.58 132.777 1603.65 135.482 1605.78 137.339C1607.96 139.195 1610.98 140.123 1614.85 140.123Z" fill="#ED1C24"/>
<path d="M1571.13 140.775C1571.13 138.129 1571.72 136.134 1572.91 134.791C1574.13 133.409 1575.87 132.717 1578.12 132.717C1580.41 132.717 1582.19 133.409 1583.45 134.791C1584.76 136.134 1585.41 138.129 1585.41 140.775C1585.41 143.342 1584.76 145.317 1583.45 146.7C1582.15 148.082 1580.37 148.774 1578.12 148.774C1576.11 148.774 1574.43 148.161 1573.08 146.937C1571.78 145.673 1571.13 143.619 1571.13 140.775Z" fill="#ED1C24"/>
<path d="M1533.75 147.055L1509.1 82.1191H1519.65L1533.63 120.631C1536.79 129.636 1538.65 135.482 1539.2 138.168H1539.67C1540.11 136.075 1541.47 131.749 1543.76 125.193C1546.09 118.596 1551.29 104.239 1559.34 82.1191H1569.89L1545.24 147.055H1533.75Z" fill="#ED1C24"/>
<path d="M1509.99 114.528C1509.99 125.114 1507.33 133.389 1502 139.353C1496.66 145.278 1489.3 148.24 1479.9 148.24C1474.09 148.24 1468.94 146.877 1464.43 144.152C1459.93 141.427 1456.45 137.516 1454 132.421C1451.56 127.326 1450.33 121.361 1450.33 114.528C1450.33 103.942 1452.98 95.7067 1458.27 89.8213C1463.56 83.8965 1470.91 80.9341 1480.31 80.9341C1489.4 80.9341 1496.6 83.9557 1501.94 89.9991C1507.31 96.0424 1509.99 104.219 1509.99 114.528ZM1460.52 114.528C1460.52 122.823 1462.18 129.142 1465.5 133.487C1468.82 137.832 1473.7 140.005 1480.13 140.005C1486.57 140.005 1491.45 137.852 1494.77 133.547C1498.13 129.202 1499.8 122.862 1499.8 114.528C1499.8 106.273 1498.13 100.012 1494.77 95.7462C1491.45 91.4408 1486.53 89.2881 1480.01 89.2881C1473.58 89.2881 1468.72 91.4013 1465.44 95.6277C1462.16 99.8541 1460.52 106.154 1460.52 114.528Z" fill="#ED1C24"/>
<path d="M1448.38 82.1191V88.3401L1436.35 89.7621C1437.46 91.1445 1438.45 92.9615 1439.32 95.2129C1440.19 97.4249 1440.62 99.9331 1440.62 102.737C1440.62 109.097 1438.45 114.172 1434.1 117.964C1429.76 121.756 1423.79 123.652 1416.21 123.652C1414.27 123.652 1412.46 123.494 1410.76 123.178C1406.57 125.39 1404.48 128.175 1404.48 131.532C1404.48 133.31 1405.21 134.633 1406.67 135.502C1408.13 136.331 1410.64 136.746 1414.2 136.746H1425.69C1432.72 136.746 1438.11 138.227 1441.86 141.19C1445.66 144.152 1447.55 148.457 1447.55 154.106C1447.55 161.295 1444.67 166.765 1438.9 170.518C1433.14 174.309 1424.72 176.205 1413.66 176.205C1405.17 176.205 1398.61 174.625 1393.99 171.466C1389.41 168.306 1387.12 163.842 1387.12 158.075C1387.12 154.126 1388.38 150.709 1390.91 147.825C1393.44 144.942 1396.99 142.987 1401.58 141.96C1399.92 141.209 1398.51 140.044 1397.37 138.464C1396.26 136.884 1395.71 135.048 1395.71 132.954C1395.71 130.584 1396.34 128.51 1397.61 126.733C1398.87 124.956 1400.86 123.237 1403.59 121.578C1400.23 120.196 1397.49 117.846 1395.35 114.528C1393.26 111.21 1392.21 107.418 1392.21 103.152C1392.21 96.0424 1394.35 90.5718 1398.61 86.7404C1402.88 82.8695 1408.92 80.9341 1416.74 80.9341C1420.14 80.9341 1423.2 81.3291 1425.93 82.1191H1448.38ZM1396.6 157.957C1396.6 161.472 1398.08 164.139 1401.04 165.955C1404 167.772 1408.25 168.681 1413.78 168.681C1422.04 168.681 1428.14 167.437 1432.09 164.948C1436.08 162.499 1438.07 159.162 1438.07 154.935C1438.07 151.42 1436.99 148.971 1434.81 147.588C1432.64 146.245 1428.55 145.574 1422.55 145.574H1410.76C1406.3 145.574 1402.82 146.64 1400.33 148.773C1397.84 150.906 1396.6 153.968 1396.6 157.957ZM1401.93 102.915C1401.93 107.458 1403.21 110.894 1405.78 113.224C1408.35 115.555 1411.92 116.72 1416.51 116.72C1426.1 116.72 1430.9 112.059 1430.9 102.737C1430.9 92.9812 1426.05 88.1031 1416.33 88.1031C1411.71 88.1031 1408.15 89.3474 1405.66 91.8358C1403.18 94.3242 1401.93 98.0174 1401.93 102.915Z" fill="#ED1C24"/>
<path d="M1369.23 140.775C1369.23 138.129 1369.82 136.134 1371.01 134.791C1372.23 133.409 1373.97 132.717 1376.22 132.717C1378.51 132.717 1380.29 133.409 1381.56 134.791C1382.86 136.134 1383.51 138.129 1383.51 140.775C1383.51 143.342 1382.86 145.317 1381.56 146.7C1380.25 148.082 1378.47 148.774 1376.22 148.774C1374.21 148.774 1372.53 148.161 1371.19 146.937C1369.88 145.673 1369.23 143.619 1369.23 140.775Z" fill="#ED1C24"/>
</g>
<defs>
<linearGradient id="paint0_linear_2783_5470" x1="171.212" y1="266.259" x2="171.212" y2="176.613" gradientUnits="userSpaceOnUse">
<stop stop-color="#F8D60B"/>
<stop offset="0.09" stop-color="#F8D60B"/>
<stop offset="0.55" stop-color="#F09005"/>
<stop offset="0.92" stop-color="#F8D60B"/>
<stop offset="1" stop-color="#F8D60B"/>
</linearGradient>
<linearGradient id="paint1_linear_2783_5470" x1="93.0014" y1="266.215" x2="93.0014" y2="24.8347" gradientUnits="userSpaceOnUse">
<stop stop-color="#B8192B"/>
<stop offset="0.94" stop-color="#D2121D"/>
<stop offset="0.97" stop-color="#E74038"/>
<stop offset="0.98" stop-color="#C1171F"/>
<stop offset="1" stop-color="#C1171F"/>
</linearGradient>
<linearGradient id="paint2_linear_2783_5470" x1="171.212" y1="266.259" x2="171.212" y2="176.613" gradientUnits="userSpaceOnUse">
<stop stop-color="#F8D60B"/>
<stop offset="0.09" stop-color="#F8D60B"/>
<stop offset="0.55" stop-color="#F09005"/>
<stop offset="0.92" stop-color="#F8D60B"/>
<stop offset="1" stop-color="#F8D60B"/>
</linearGradient>
<linearGradient id="paint3_linear_2783_5470" x1="93.0014" y1="266.215" x2="93.0014" y2="24.8347" gradientUnits="userSpaceOnUse">
<stop stop-color="#B8192B"/>
<stop offset="0.94" stop-color="#D2121D"/>
<stop offset="0.97" stop-color="#E74038"/>
<stop offset="0.98" stop-color="#C1171F"/>
<stop offset="1" stop-color="#C1171F"/>
</linearGradient>
<clipPath id="clip0_2783_5470">
<rect width="654.385" height="183.964" fill="white" transform="translate(1058.28 44.2271)"/>
</clipPath>
</defs>
</svg>
