<?xml version="1.0" encoding="UTF-8" standalone="no"?>
<!-- Created with Inkscape (http://www.inkscape.org/) -->

<svg
   xmlns:dc="http://purl.org/dc/elements/1.1/"
   xmlns:cc="http://creativecommons.org/ns#"
   xmlns:rdf="http://www.w3.org/1999/02/22-rdf-syntax-ns#"
   xmlns:svg="http://www.w3.org/2000/svg"
   xmlns="http://www.w3.org/2000/svg"
   xmlns:sodipodi="http://sodipodi.sourceforge.net/DTD/sodipodi-0.dtd"
   xmlns:inkscape="http://www.inkscape.org/namespaces/inkscape"
   width="210mm"
   height="297mm"
   viewBox="0 0 210 297"
   version="1.1"
   id="svg8"
   inkscape:version="0.92.1 r15371"
   sodipodi:docname="Convertion Documentation Drawings.svg">
  <defs
     id="defs2" />
  <sodipodi:namedview
     id="base"
     pagecolor="#ffffff"
     bordercolor="#666666"
     borderopacity="1.0"
     inkscape:pageopacity="0.0"
     inkscape:pageshadow="2"
     inkscape:zoom="0.7"
     inkscape:cx="359.40937"
     inkscape:cy="562.02837"
     inkscape:document-units="mm"
     inkscape:current-layer="layer1-0"
     showgrid="false"
     inkscape:window-width="1822"
     inkscape:window-height="1177"
     inkscape:window-x="1912"
     inkscape:window-y="-8"
     inkscape:window-maximized="1" />
  <metadata
     id="metadata5">
    <rdf:RDF>
      <cc:Work
         rdf:about="">
        <dc:format>image/svg+xml</dc:format>
        <dc:type
           rdf:resource="http://purl.org/dc/dcmitype/StillImage" />
        <dc:title></dc:title>
      </cc:Work>
    </rdf:RDF>
  </metadata>
  <g
     inkscape:label="Layer 1"
     inkscape:groupmode="layer"
     id="layer1">
    <g
       transform="matrix(0.28222222,0,0,0.28222222,-294.64702,-91.564149)"
       id="layer1-0"
       inkscape:label="Layer 1">
      <rect
         y="308.88995"
         x="0.50507617"
         height="742.96716"
         width="522.75391"
         id="rect4785"
         style="opacity:1;fill:#ffffff;fill-opacity:0.72941176;fill-rule:nonzero;stroke:none;stroke-width:25;stroke-linecap:butt;stroke-linejoin:round;stroke-miterlimit:4;stroke-dasharray:none;stroke-dashoffset:0;stroke-opacity:0.47843137" />
      <g
         id="g5436"
         transform="matrix(1,0,0,-1,-15.297344,1312.1149)">
        <rect
           y="373.10999"
           x="85.14325"
           height="33.705379"
           width="332.35645"
           id="rect5438"
           style="opacity:1;fill:#585858;fill-opacity:0.72941176;fill-rule:nonzero;stroke:none;stroke-width:25;stroke-linecap:butt;stroke-linejoin:round;stroke-miterlimit:4;stroke-dasharray:none;stroke-dashoffset:0;stroke-opacity:0.47843137" />
        <rect
           y="478.49054"
           x="85.14325"
           height="33.705379"
           width="262.53705"
           id="rect5440"
           style="opacity:1;fill:#585858;fill-opacity:0.72941176;fill-rule:nonzero;stroke:none;stroke-width:25;stroke-linecap:butt;stroke-linejoin:round;stroke-miterlimit:4;stroke-dasharray:none;stroke-dashoffset:0;stroke-opacity:0.47843137" />
        <rect
           style="opacity:1;fill:#585858;fill-opacity:0.72941176;fill-rule:nonzero;stroke:none;stroke-width:25;stroke-linecap:butt;stroke-linejoin:round;stroke-miterlimit:4;stroke-dasharray:none;stroke-dashoffset:0;stroke-opacity:0.47843137"
           id="rect5442"
           width="372.64368"
           height="33.705379"
           x="85.14325"
           y="583.87103" />
        <g
           transform="matrix(2.6851847,0,0,1,-94.658067,25.807726)"
           id="g5444">
          <rect
             style="opacity:1;fill:#585858;fill-opacity:0.72941176;fill-rule:nonzero;stroke:none;stroke-width:25;stroke-linecap:butt;stroke-linejoin:round;stroke-miterlimit:4;stroke-dasharray:none;stroke-dashoffset:0;stroke-opacity:0.47843137"
             id="rect5446"
             width="138.46864"
             height="33.705379"
             x="66.960503"
             y="399.99246" />
        </g>
        <g
           transform="matrix(1.4041503,0,0,1,-8.8793606,26.72008)"
           id="g5448">
          <rect
             style="opacity:1;fill:#585858;fill-opacity:0.72941176;fill-rule:nonzero;stroke:none;stroke-width:25;stroke-linecap:butt;stroke-linejoin:round;stroke-miterlimit:4;stroke-dasharray:none;stroke-dashoffset:0;stroke-opacity:0.47843137"
             id="rect5450"
             width="247.44533"
             height="33.705379"
             x="66.960503"
             y="504.46069" />
        </g>
      </g>
      <g
         id="g4657">
        <rect
           ry="1.0523748"
           rx="1.0523748"
           y="37.708332"
           x="23.434523"
           height="93.738091"
           width="67.279762"
           id="rect4485"
           style="opacity:1;fill:#ffffff;fill-opacity:1;fill-rule:nonzero;stroke:#656565;stroke-width:0.52916664;stroke-linecap:square;stroke-linejoin:miter;stroke-miterlimit:4;stroke-dasharray:none;stroke-dashoffset:0;stroke-opacity:1"
           transform="matrix(3.5433072,0,0,3.5433072,1044.0249,324.4399)" />
        <g
           transform="matrix(0.16673935,0,0,0.16673935,1271.7563,578.67445)"
           id="g4495"
           style="">
          <path
             style="opacity:0.68141593;fill:#010101;fill-opacity:0.70196078;stroke:none"
             d="m 229.82156,0.25846411 c -41.4166,0.5398 -60.9537,48.38223989 -46.361,82.98970289 10.8612,32.784683 22.3603,65.281033 28.1351,99.092183 -24.9566,-39.01151 -66.3219,-80.46098 -117.141103,-67.24112 -52.7529,12.71342 -105.201137,66.51883 -92.5450275,123.86523 16.4298305,44.83276 74.2668275,37.58323 112.3634305,37.33651 12.3354,1.52144 60.6615,-0.13493 45.8302,6.90105 -45.065,10.4641 -92.774503,42.8844 -92.368103,93.6067 -1.1859,53.21254 34.965103,118.98274 93.606703,120.14934 49.995,-7.1906 55.0712,-68.34355 70.0723,-105.81634 6.1491,-15.9332 20.4896,-58.7148 17.5181,-18.0489 -5.6982,51.18829 28.04,105.20484 81.928,109.70924 47.1273,7.2605 116.3666,-12.2444 122.2727,-67.41814 -3.231,-52.6788 -64.4542,-69.4527 -95.9071,-102.2773 -31.8734,-23.2254 4.4907,-8.8833 24.0653,-3.7159 56.0155,18.3325 113.1576,-26.1104 120.857,-81.92803 11.0886,-40.73436 -2.7222,-107.39209 -54.8546,-107.40885 -51.3302,5.13751 -83.4454,54.67136 -129.5276,73.43438 29.8599,-35.6896 56.3008,-88.08422 27.9582,-132.535796 -23.4992,-38.62341 -70.3072,-63.8008099 -115.9025,-60.69395989 z"
             id="path1549-1"
             inkscape:connector-curvature="0" />
          <path
             style="fill:#ffffff;fill-opacity:0.32941176;stroke:none"
             d="m 248.43026,199.07901 c -51.2881,2.2016 -74.6527,74.15764 -35.2132,106.52409 36.4312,36.14175 104.9087,5.65148 102.4543,-45.47623 0.7476,-35.54029 -32.1682,-64.99292 -67.2411,-61.04786 z"
             id="path1551-7"
             inkscape:connector-curvature="0" />
        </g>
        <g
           id="g4774"
           transform="matrix(0.56288779,0,0,0.39007599,1093.2142,330.13354)">
          <rect
             y="373.10999"
             x="85.14325"
             height="33.705379"
             width="332.35645"
             id="rect4146"
             style="opacity:1;fill:#585858;fill-opacity:0.72941176;fill-rule:nonzero;stroke:none;stroke-width:25;stroke-linecap:butt;stroke-linejoin:round;stroke-miterlimit:4;stroke-dasharray:none;stroke-dashoffset:0;stroke-opacity:0.47843137" />
          <rect
             y="478.49054"
             x="85.14325"
             height="33.705379"
             width="262.53705"
             id="rect4154"
             style="opacity:1;fill:#585858;fill-opacity:0.72941176;fill-rule:nonzero;stroke:none;stroke-width:25;stroke-linecap:butt;stroke-linejoin:round;stroke-miterlimit:4;stroke-dasharray:none;stroke-dashoffset:0;stroke-opacity:0.47843137" />
          <rect
             style="opacity:1;fill:#585858;fill-opacity:0.72941176;fill-rule:nonzero;stroke:none;stroke-width:25;stroke-linecap:butt;stroke-linejoin:round;stroke-miterlimit:4;stroke-dasharray:none;stroke-dashoffset:0;stroke-opacity:0.47843137"
             id="rect4160"
             width="372.64368"
             height="33.705379"
             x="85.14325"
             y="583.87103" />
          <g
             transform="matrix(2.6851847,0,0,1,-94.658067,25.807726)"
             id="g4766">
            <rect
               style="opacity:1;fill:#585858;fill-opacity:0.72941176;fill-rule:nonzero;stroke:none;stroke-width:25;stroke-linecap:butt;stroke-linejoin:round;stroke-miterlimit:4;stroke-dasharray:none;stroke-dashoffset:0;stroke-opacity:0.47843137"
               id="rect4150"
               width="138.46864"
               height="33.705379"
               x="66.960503"
               y="399.99246" />
          </g>
          <g
             transform="matrix(1.4041503,0,0,1,-8.8793606,26.72008)"
             id="g4770">
            <rect
               style="opacity:1;fill:#585858;fill-opacity:0.72941176;fill-rule:nonzero;stroke:none;stroke-width:25;stroke-linecap:butt;stroke-linejoin:round;stroke-miterlimit:4;stroke-dasharray:none;stroke-dashoffset:0;stroke-opacity:0.47843137"
               id="rect4164"
               width="247.44533"
               height="33.705379"
               x="66.960503"
               y="504.46069" />
          </g>
        </g>
        <g
           transform="matrix(0.56288779,0,0,0.39007599,1090.8958,536.16823)"
           id="g4551">
          <rect
             style="opacity:1;fill:#585858;fill-opacity:0.72941176;fill-rule:nonzero;stroke:none;stroke-width:25;stroke-linecap:butt;stroke-linejoin:round;stroke-miterlimit:4;stroke-dasharray:none;stroke-dashoffset:0;stroke-opacity:0.47843137"
             id="rect4537"
             width="332.35645"
             height="33.705379"
             x="85.14325"
             y="373.10999" />
          <rect
             style="opacity:1;fill:#585858;fill-opacity:0.72941176;fill-rule:nonzero;stroke:none;stroke-width:25;stroke-linecap:butt;stroke-linejoin:round;stroke-miterlimit:4;stroke-dasharray:none;stroke-dashoffset:0;stroke-opacity:0.47843137"
             id="rect4539"
             width="262.53705"
             height="33.705379"
             x="85.14325"
             y="478.49054" />
          <rect
             y="583.87103"
             x="85.14325"
             height="33.705379"
             width="372.64368"
             id="rect4541"
             style="opacity:1;fill:#585858;fill-opacity:0.72941176;fill-rule:nonzero;stroke:none;stroke-width:25;stroke-linecap:butt;stroke-linejoin:round;stroke-miterlimit:4;stroke-dasharray:none;stroke-dashoffset:0;stroke-opacity:0.47843137" />
          <g
             id="g4545"
             transform="matrix(2.6851847,0,0,1,-94.658067,25.807726)">
            <rect
               y="399.99246"
               x="66.960503"
               height="33.705379"
               width="138.46864"
               id="rect4543"
               style="opacity:1;fill:#585858;fill-opacity:0.72941176;fill-rule:nonzero;stroke:none;stroke-width:25;stroke-linecap:butt;stroke-linejoin:round;stroke-miterlimit:4;stroke-dasharray:none;stroke-dashoffset:0;stroke-opacity:0.47843137" />
          </g>
          <g
             id="g4549"
             transform="matrix(1.4041503,0,0,1,-8.8793606,26.72008)">
            <rect
               y="504.46069"
               x="66.960503"
               height="33.705379"
               width="247.44533"
               id="rect4547"
               style="opacity:1;fill:#585858;fill-opacity:0.72941176;fill-rule:nonzero;stroke:none;stroke-width:25;stroke-linecap:butt;stroke-linejoin:round;stroke-miterlimit:4;stroke-dasharray:none;stroke-dashoffset:0;stroke-opacity:0.47843137" />
          </g>
        </g>
        <g
           transform="matrix(0.32400089,0,0,0.39007599,1113.5538,435.13354)"
           id="g4567">
          <rect
             style="opacity:1;fill:#585858;fill-opacity:0.72941176;fill-rule:nonzero;stroke:none;stroke-width:25;stroke-linecap:butt;stroke-linejoin:round;stroke-miterlimit:4;stroke-dasharray:none;stroke-dashoffset:0;stroke-opacity:0.47843137"
             id="rect4553"
             width="332.35645"
             height="33.705379"
             x="85.14325"
             y="373.10999" />
          <rect
             style="opacity:1;fill:#585858;fill-opacity:0.72941176;fill-rule:nonzero;stroke:none;stroke-width:25;stroke-linecap:butt;stroke-linejoin:round;stroke-miterlimit:4;stroke-dasharray:none;stroke-dashoffset:0;stroke-opacity:0.47843137"
             id="rect4555"
             width="262.53705"
             height="33.705379"
             x="85.14325"
             y="478.49054" />
          <rect
             y="583.87103"
             x="85.14325"
             height="33.705379"
             width="372.64368"
             id="rect4557"
             style="opacity:1;fill:#585858;fill-opacity:0.72941176;fill-rule:nonzero;stroke:none;stroke-width:25;stroke-linecap:butt;stroke-linejoin:round;stroke-miterlimit:4;stroke-dasharray:none;stroke-dashoffset:0;stroke-opacity:0.47843137" />
          <g
             id="g4561"
             transform="matrix(2.6851847,0,0,1,-94.658067,25.807726)">
            <rect
               y="399.99246"
               x="66.960503"
               height="33.705379"
               width="138.46864"
               id="rect4559"
               style="opacity:1;fill:#585858;fill-opacity:0.72941176;fill-rule:nonzero;stroke:none;stroke-width:25;stroke-linecap:butt;stroke-linejoin:round;stroke-miterlimit:4;stroke-dasharray:none;stroke-dashoffset:0;stroke-opacity:0.47843137" />
          </g>
          <g
             id="g4565"
             transform="matrix(1.4041503,0,0,1,-8.8793606,26.72008)">
            <rect
               y="504.46069"
               x="66.960503"
               height="33.705379"
               width="247.44533"
               id="rect4563"
               style="opacity:1;fill:#585858;fill-opacity:0.72941176;fill-rule:nonzero;stroke:none;stroke-width:25;stroke-linecap:butt;stroke-linejoin:round;stroke-miterlimit:4;stroke-dasharray:none;stroke-dashoffset:0;stroke-opacity:0.47843137" />
          </g>
        </g>
      </g>
      <rect
         ry="0"
         rx="0"
         y="459.94614"
         x="1432.9474"
         height="332.14285"
         width="238.39287"
         id="rect4659"
         style="opacity:1;fill:#ffffff;fill-opacity:1;fill-rule:nonzero;stroke:#656565;stroke-width:1.875;stroke-linecap:square;stroke-linejoin:miter;stroke-miterlimit:4;stroke-dasharray:none;stroke-dashoffset:0;stroke-opacity:1" />
      <rect
         style="opacity:1;fill:none;fill-opacity:1;fill-rule:nonzero;stroke:#2339a7;stroke-width:1.87440944;stroke-linecap:square;stroke-linejoin:miter;stroke-miterlimit:4;stroke-dasharray:1.87440948, 3.74881898;stroke-dashoffset:0;stroke-opacity:1"
         id="rect4745"
         width="92.042557"
         height="94.365379"
         x="1569.1033"
         y="583.99542"
         rx="0"
         ry="0" />
      <g
         transform="matrix(0.16673935,0,0,0.16673935,1573.8931,587.26492)"
         id="g4665">
        <path
           style="opacity:0.68141593;fill:#010101;fill-opacity:0.70196078;stroke:none"
           d="m 229.82156,0.25846411 c -41.4166,0.5398 -60.9537,48.38223989 -46.361,82.98970289 10.8612,32.784683 22.3603,65.281033 28.1351,99.092183 -24.9566,-39.01151 -66.3219,-80.46098 -117.141103,-67.24112 -52.7529,12.71342 -105.201137,66.51883 -92.5450275,123.86523 16.4298305,44.83276 74.2668275,37.58323 112.3634305,37.33651 12.3354,1.52144 60.6615,-0.13493 45.8302,6.90105 -45.065,10.4641 -92.774503,42.8844 -92.368103,93.6067 -1.1859,53.21254 34.965103,118.98274 93.606703,120.14934 49.995,-7.1906 55.0712,-68.34355 70.0723,-105.81634 6.1491,-15.9332 20.4896,-58.7148 17.5181,-18.0489 -5.6982,51.18829 28.04,105.20484 81.928,109.70924 47.1273,7.2605 116.3666,-12.2444 122.2727,-67.41814 -3.231,-52.6788 -64.4542,-69.4527 -95.9071,-102.2773 -31.8734,-23.2254 4.4907,-8.8833 24.0653,-3.7159 56.0155,18.3325 113.1576,-26.1104 120.857,-81.92803 11.0886,-40.73436 -2.7222,-107.39209 -54.8546,-107.40885 -51.3302,5.13751 -83.4454,54.67136 -129.5276,73.43438 29.8599,-35.6896 56.3008,-88.08422 27.9582,-132.535796 -23.4992,-38.62341 -70.3072,-63.8008099 -115.9025,-60.69395989 z"
           id="path4661"
           inkscape:connector-curvature="0" />
        <path
           style="fill:#ffffff;fill-opacity:0.32941176;stroke:none"
           d="m 248.43026,199.07901 c -51.2881,2.2016 -74.6527,74.15764 -35.2132,106.52409 36.4312,36.14175 104.9087,5.65148 102.4543,-45.47623 0.7476,-35.54029 -32.1682,-64.99292 -67.2411,-61.04786 z"
           id="path4663"
           inkscape:connector-curvature="0" />
      </g>
      <g
         id="g4681"
         transform="matrix(0.56288779,0,0,0.39007599,1399.101,332.02758)">
        <rect
           y="373.10999"
           x="85.14325"
           height="33.705379"
           width="332.35645"
           id="rect4667"
           style="opacity:1;fill:#585858;fill-opacity:0.72941176;fill-rule:nonzero;stroke:none;stroke-width:25;stroke-linecap:butt;stroke-linejoin:round;stroke-miterlimit:4;stroke-dasharray:none;stroke-dashoffset:0;stroke-opacity:0.47843137" />
        <rect
           y="478.49054"
           x="85.14325"
           height="33.705379"
           width="262.53705"
           id="rect4669"
           style="opacity:1;fill:#585858;fill-opacity:0.72941176;fill-rule:nonzero;stroke:none;stroke-width:25;stroke-linecap:butt;stroke-linejoin:round;stroke-miterlimit:4;stroke-dasharray:none;stroke-dashoffset:0;stroke-opacity:0.47843137" />
        <rect
           style="opacity:1;fill:#585858;fill-opacity:0.72941176;fill-rule:nonzero;stroke:none;stroke-width:25;stroke-linecap:butt;stroke-linejoin:round;stroke-miterlimit:4;stroke-dasharray:none;stroke-dashoffset:0;stroke-opacity:0.47843137"
           id="rect4671"
           width="372.64368"
           height="33.705379"
           x="85.14325"
           y="583.87103" />
        <g
           transform="matrix(2.6851847,0,0,1,-94.658067,25.807726)"
           id="g4675">
          <rect
             style="opacity:1;fill:#585858;fill-opacity:0.72941176;fill-rule:nonzero;stroke:none;stroke-width:25;stroke-linecap:butt;stroke-linejoin:round;stroke-miterlimit:4;stroke-dasharray:none;stroke-dashoffset:0;stroke-opacity:0.47843137"
             id="rect4673"
             width="138.46864"
             height="33.705379"
             x="66.960503"
             y="399.99246" />
        </g>
        <g
           transform="matrix(1.4041503,0,0,1,-8.8793606,26.72008)"
           id="g4679">
          <rect
             style="opacity:1;fill:#585858;fill-opacity:0.72941176;fill-rule:nonzero;stroke:none;stroke-width:25;stroke-linecap:butt;stroke-linejoin:round;stroke-miterlimit:4;stroke-dasharray:none;stroke-dashoffset:0;stroke-opacity:0.47843137"
             id="rect4677"
             width="247.44533"
             height="33.705379"
             x="66.960503"
             y="504.46069" />
        </g>
      </g>
      <g
         transform="matrix(0.56288779,0,0,0.39007599,1398.6576,538.06227)"
         id="g4697">
        <rect
           style="opacity:1;fill:#585858;fill-opacity:0.72941176;fill-rule:nonzero;stroke:none;stroke-width:25;stroke-linecap:butt;stroke-linejoin:round;stroke-miterlimit:4;stroke-dasharray:none;stroke-dashoffset:0;stroke-opacity:0.47843137"
           id="rect4683"
           width="332.35645"
           height="33.705379"
           x="85.14325"
           y="373.10999" />
        <rect
           style="opacity:1;fill:#585858;fill-opacity:0.72941176;fill-rule:nonzero;stroke:none;stroke-width:25;stroke-linecap:butt;stroke-linejoin:round;stroke-miterlimit:4;stroke-dasharray:none;stroke-dashoffset:0;stroke-opacity:0.47843137"
           id="rect4685"
           width="262.53705"
           height="33.705379"
           x="85.14325"
           y="478.49054" />
        <rect
           y="583.87103"
           x="85.14325"
           height="33.705379"
           width="372.64368"
           id="rect4687"
           style="opacity:1;fill:#585858;fill-opacity:0.72941176;fill-rule:nonzero;stroke:none;stroke-width:25;stroke-linecap:butt;stroke-linejoin:round;stroke-miterlimit:4;stroke-dasharray:none;stroke-dashoffset:0;stroke-opacity:0.47843137" />
        <g
           id="g4691"
           transform="matrix(2.6851847,0,0,1,-94.658067,25.807726)">
          <rect
             y="399.99246"
             x="66.960503"
             height="33.705379"
             width="138.46864"
             id="rect4689"
             style="opacity:1;fill:#585858;fill-opacity:0.72941176;fill-rule:nonzero;stroke:none;stroke-width:25;stroke-linecap:butt;stroke-linejoin:round;stroke-miterlimit:4;stroke-dasharray:none;stroke-dashoffset:0;stroke-opacity:0.47843137" />
        </g>
        <g
           id="g4695"
           transform="matrix(1.4041503,0,0,1,-8.8793606,26.72008)">
          <rect
             y="504.46069"
             x="66.960503"
             height="33.705379"
             width="247.44533"
             id="rect4693"
             style="opacity:1;fill:#585858;fill-opacity:0.72941176;fill-rule:nonzero;stroke:none;stroke-width:25;stroke-linecap:butt;stroke-linejoin:round;stroke-miterlimit:4;stroke-dasharray:none;stroke-dashoffset:0;stroke-opacity:0.47843137" />
        </g>
      </g>
      <g
         transform="matrix(0.30063981,0,0,0.39007599,1421.4296,437.02758)"
         id="g4713">
        <rect
           style="opacity:1;fill:#585858;fill-opacity:0.72941176;fill-rule:nonzero;stroke:none;stroke-width:25;stroke-linecap:butt;stroke-linejoin:round;stroke-miterlimit:4;stroke-dasharray:none;stroke-dashoffset:0;stroke-opacity:0.47843137"
           id="rect4699"
           width="332.35645"
           height="33.705379"
           x="85.14325"
           y="373.10999" />
        <rect
           style="opacity:1;fill:#585858;fill-opacity:0.72941176;fill-rule:nonzero;stroke:none;stroke-width:25;stroke-linecap:butt;stroke-linejoin:round;stroke-miterlimit:4;stroke-dasharray:none;stroke-dashoffset:0;stroke-opacity:0.47843137"
           id="rect4701"
           width="262.53705"
           height="33.705379"
           x="85.14325"
           y="478.49054" />
        <rect
           y="583.87103"
           x="85.14325"
           height="33.705379"
           width="372.64368"
           id="rect4703"
           style="opacity:1;fill:#585858;fill-opacity:0.72941176;fill-rule:nonzero;stroke:none;stroke-width:25;stroke-linecap:butt;stroke-linejoin:round;stroke-miterlimit:4;stroke-dasharray:none;stroke-dashoffset:0;stroke-opacity:0.47843137" />
        <g
           id="g4707"
           transform="matrix(2.6851847,0,0,1,-94.658067,25.807726)">
          <rect
             y="399.99246"
             x="66.960503"
             height="33.705379"
             width="138.46864"
             id="rect4705"
             style="opacity:1;fill:#585858;fill-opacity:0.72941176;fill-rule:nonzero;stroke:none;stroke-width:25;stroke-linecap:butt;stroke-linejoin:round;stroke-miterlimit:4;stroke-dasharray:none;stroke-dashoffset:0;stroke-opacity:0.47843137" />
        </g>
        <g
           id="g4711"
           transform="matrix(1.4041503,0,0,1,-8.8793606,26.72008)">
          <rect
             y="504.46069"
             x="66.960503"
             height="33.705379"
             width="247.44533"
             id="rect4709"
             style="opacity:1;fill:#585858;fill-opacity:0.72941176;fill-rule:nonzero;stroke:none;stroke-width:25;stroke-linecap:butt;stroke-linejoin:round;stroke-miterlimit:4;stroke-dasharray:none;stroke-dashoffset:0;stroke-opacity:0.47843137" />
        </g>
      </g>
      <rect
         ry="0"
         rx="0"
         y="470.62488"
         x="1447.027"
         height="107.23714"
         width="213.83632"
         id="rect4750"
         style="opacity:1;fill:none;fill-opacity:1;fill-rule:nonzero;stroke:#2339a7;stroke-width:1.87440956;stroke-linecap:square;stroke-linejoin:miter;stroke-miterlimit:4;stroke-dasharray:1.87440948, 3.74881898;stroke-dashoffset:0;stroke-opacity:1" />
      <rect
         style="opacity:1;fill:none;fill-opacity:1;fill-rule:nonzero;stroke:#2339a7;stroke-width:1.87440944;stroke-linecap:square;stroke-linejoin:miter;stroke-miterlimit:4;stroke-dasharray:1.87440949, 3.748819;stroke-dashoffset:0;stroke-opacity:1"
         id="rect4752"
         width="112.03147"
         height="95.360481"
         x="1447.0271"
         y="582.56885"
         rx="0"
         ry="0" />
      <rect
         style="opacity:1;fill:none;fill-opacity:1;fill-rule:nonzero;stroke:#2339a7;stroke-width:1.87440956;stroke-linecap:square;stroke-linejoin:miter;stroke-miterlimit:4;stroke-dasharray:1.87440946, 3.74881893;stroke-dashoffset:0;stroke-opacity:1"
         id="rect4754"
         width="214.11369"
         height="98.531776"
         x="1446.5837"
         y="683.60352"
         rx="0"
         ry="0" />
      <g
         style="stroke-width:1.59636784"
         transform="matrix(0.7340883,0,0,0.7340883,1100.6451,440.54347)"
         id="g4781">
        <path
           style="fill:#858585;fill-opacity:1;stroke-width:1.59636784"
           inkscape:connector-curvature="0"
           d="M 67.02,0 H 73 v 8 70 8 H 66.75 C 51.53,83.22 36.27,80.67 21.02,78 21.01,54.67 21.02,31.34 21.02,8.02 36.35,5.34 51.69,2.73 67.02,0 Z"
           id="path6"
           sodipodi:nodetypes="ccccccccc" />
        <path
           style="fill:#ffffff;stroke-width:1.59636784"
           inkscape:connector-curvature="0"
           d="m 41.68,28.67 c 1.9,-0.11 3.8,-0.19 5.7,-0.29 1.33,6.75 2.69,13.49 4.13,20.21 1.13,-6.94 2.38,-13.86 3.59,-20.79 2,-0.07 4,-0.18 5.99,-0.3 -2.26,9.69 -4.24,19.46 -6.71,29.09 -1.67,0.87 -4.17,-0.04 -6.15,0.1 -1.33,-6.62 -2.88,-13.2 -4.07,-19.85 -1.17,6.46 -2.69,12.86 -4.03,19.28 -1.92,-0.1 -3.85,-0.22 -5.78,-0.35 -1.66,-8.8 -3.61,-17.54 -5.16,-26.36 1.71,-0.08 3.43,-0.15 5.14,-0.21 1.03,6.37 2.2,12.71 3.1,19.09 1.41,-6.54 2.85,-13.08 4.25,-19.62 z"
           id="path88" />
      </g>
      <g
         transform="matrix(1.171875,0,0,1.171875,834.25917,438.88717)"
         id="g4793">
        <rect
           style="opacity:1;fill:#ffffff;fill-opacity:1;fill-rule:nonzero;stroke:#858585;stroke-width:0.90708661;stroke-linecap:square;stroke-linejoin:miter;stroke-miterlimit:4;stroke-dasharray:none;stroke-dashoffset:0;stroke-opacity:1"
           id="rect4789"
           width="40.426239"
           height="34.311565"
           x="502.00232"
           y="5.2598772" />
        <path
           style="opacity:1;fill:none;stroke:#858585;stroke-width:4.26116705;stroke-linejoin:round;stroke-opacity:1"
           d="m 522.8952,27.082843 c 0.16386,-9.177992 -3.16859,-11.30854 -5.13525,-12.783514 -1.74817,-1.256465 -5.24454,-2.622347 -7.75753,-3.113957 -1.89981,10.567951 0.71328,23.539504 11.26613,23.053922 12.12455,-0.557768 11.96961,-9.763239 11.24156,-22.780722 -6.61023,0.6008 -8.63161,2.567563 -8.63161,2.567563 l -0.38238,0.273194"
           class="st1"
           sodipodi:nodetypes="cccsccc"
           inkscape:export-ydpi="108.54"
           inkscape:export-xdpi="108.54"
           inkscape:export-filename="X:\dev\b36\src\BloomExe\Resources\LogoForSplashScreen.png"
           inkscape:connector-curvature="0"
           id="path4143" />
      </g>
      <g
         id="g4989"
         transform="translate(0,464.73215)">
        <rect
           transform="matrix(3.5433072,0,0,3.5433072,1044.0249,324.4399)"
           style="opacity:1;fill:#ffffff;fill-opacity:1;fill-rule:nonzero;stroke:#656565;stroke-width:0.52916664;stroke-linecap:square;stroke-linejoin:miter;stroke-miterlimit:4;stroke-dasharray:none;stroke-dashoffset:0;stroke-opacity:1"
           id="rect4933"
           width="67.279762"
           height="93.738091"
           x="23.434523"
           y="37.708332"
           rx="1.0523748"
           ry="1.0523748" />
        <g
           id="g4939"
           transform="matrix(0.16673935,0,0,0.16673935,1271.7563,578.67445)">
          <path
             inkscape:connector-curvature="0"
             id="path4935"
             d="m 229.82156,0.25846411 c -41.4166,0.5398 -60.9537,48.38223989 -46.361,82.98970289 10.8612,32.784683 22.3603,65.281033 28.1351,99.092183 -24.9566,-39.01151 -66.3219,-80.46098 -117.141103,-67.24112 -52.7529,12.71342 -105.201137,66.51883 -92.5450275,123.86523 16.4298305,44.83276 74.2668275,37.58323 112.3634305,37.33651 12.3354,1.52144 60.6615,-0.13493 45.8302,6.90105 -45.065,10.4641 -92.774503,42.8844 -92.368103,93.6067 -1.1859,53.21254 34.965103,118.98274 93.606703,120.14934 49.995,-7.1906 55.0712,-68.34355 70.0723,-105.81634 6.1491,-15.9332 20.4896,-58.7148 17.5181,-18.0489 -5.6982,51.18829 28.04,105.20484 81.928,109.70924 47.1273,7.2605 116.3666,-12.2444 122.2727,-67.41814 -3.231,-52.6788 -64.4542,-69.4527 -95.9071,-102.2773 -31.8734,-23.2254 4.4907,-8.8833 24.0653,-3.7159 56.0155,18.3325 113.1576,-26.1104 120.857,-81.92803 11.0886,-40.73436 -2.7222,-107.39209 -54.8546,-107.40885 -51.3302,5.13751 -83.4454,54.67136 -129.5276,73.43438 29.8599,-35.6896 56.3008,-88.08422 27.9582,-132.535796 -23.4992,-38.62341 -70.3072,-63.8008099 -115.9025,-60.69395989 z"
             style="opacity:0.68141593;fill:#010101;fill-opacity:0.70196078;stroke:none" />
          <path
             inkscape:connector-curvature="0"
             id="path4937"
             d="m 248.43026,199.07901 c -51.2881,2.2016 -74.6527,74.15764 -35.2132,106.52409 36.4312,36.14175 104.9087,5.65148 102.4543,-45.47623 0.7476,-35.54029 -32.1682,-64.99292 -67.2411,-61.04786 z"
             style="fill:#ffffff;fill-opacity:0.32941176;stroke:none" />
        </g>
        <g
           transform="matrix(0.56288779,0,0,0.39007599,1093.2142,330.13354)"
           id="g4955">
          <rect
             style="opacity:1;fill:#585858;fill-opacity:0.72941176;fill-rule:nonzero;stroke:none;stroke-width:25;stroke-linecap:butt;stroke-linejoin:round;stroke-miterlimit:4;stroke-dasharray:none;stroke-dashoffset:0;stroke-opacity:0.47843137"
             id="rect4941"
             width="332.35645"
             height="33.705379"
             x="85.14325"
             y="373.10999" />
          <rect
             style="opacity:1;fill:#585858;fill-opacity:0.72941176;fill-rule:nonzero;stroke:none;stroke-width:25;stroke-linecap:butt;stroke-linejoin:round;stroke-miterlimit:4;stroke-dasharray:none;stroke-dashoffset:0;stroke-opacity:0.47843137"
             id="rect4943"
             width="262.53705"
             height="33.705379"
             x="85.14325"
             y="478.49054" />
          <rect
             y="583.87103"
             x="85.14325"
             height="33.705379"
             width="372.64368"
             id="rect4945"
             style="opacity:1;fill:#585858;fill-opacity:0.72941176;fill-rule:nonzero;stroke:none;stroke-width:25;stroke-linecap:butt;stroke-linejoin:round;stroke-miterlimit:4;stroke-dasharray:none;stroke-dashoffset:0;stroke-opacity:0.47843137" />
          <g
             id="g4949"
             transform="matrix(2.6851847,0,0,1,-94.658067,25.807726)">
            <rect
               y="399.99246"
               x="66.960503"
               height="33.705379"
               width="138.46864"
               id="rect4947"
               style="opacity:1;fill:#585858;fill-opacity:0.72941176;fill-rule:nonzero;stroke:none;stroke-width:25;stroke-linecap:butt;stroke-linejoin:round;stroke-miterlimit:4;stroke-dasharray:none;stroke-dashoffset:0;stroke-opacity:0.47843137" />
          </g>
          <g
             id="g4953"
             transform="matrix(1.4041503,0,0,1,-8.8793606,26.72008)">
            <rect
               y="504.46069"
               x="66.960503"
               height="33.705379"
               width="247.44533"
               id="rect4951"
               style="opacity:1;fill:#585858;fill-opacity:0.72941176;fill-rule:nonzero;stroke:none;stroke-width:25;stroke-linecap:butt;stroke-linejoin:round;stroke-miterlimit:4;stroke-dasharray:none;stroke-dashoffset:0;stroke-opacity:0.47843137" />
          </g>
        </g>
        <g
           id="g4971"
           transform="matrix(0.56288779,0,0,0.39007599,1090.8958,536.16823)">
          <rect
             y="373.10999"
             x="85.14325"
             height="33.705379"
             width="332.35645"
             id="rect4957"
             style="opacity:1;fill:#585858;fill-opacity:0.72941176;fill-rule:nonzero;stroke:none;stroke-width:25;stroke-linecap:butt;stroke-linejoin:round;stroke-miterlimit:4;stroke-dasharray:none;stroke-dashoffset:0;stroke-opacity:0.47843137" />
          <rect
             y="478.49054"
             x="85.14325"
             height="33.705379"
             width="262.53705"
             id="rect4959"
             style="opacity:1;fill:#585858;fill-opacity:0.72941176;fill-rule:nonzero;stroke:none;stroke-width:25;stroke-linecap:butt;stroke-linejoin:round;stroke-miterlimit:4;stroke-dasharray:none;stroke-dashoffset:0;stroke-opacity:0.47843137" />
          <rect
             style="opacity:1;fill:#585858;fill-opacity:0.72941176;fill-rule:nonzero;stroke:none;stroke-width:25;stroke-linecap:butt;stroke-linejoin:round;stroke-miterlimit:4;stroke-dasharray:none;stroke-dashoffset:0;stroke-opacity:0.47843137"
             id="rect4961"
             width="372.64368"
             height="33.705379"
             x="85.14325"
             y="583.87103" />
          <g
             transform="matrix(2.6851847,0,0,1,-94.658067,25.807726)"
             id="g4965">
            <rect
               style="opacity:1;fill:#585858;fill-opacity:0.72941176;fill-rule:nonzero;stroke:none;stroke-width:25;stroke-linecap:butt;stroke-linejoin:round;stroke-miterlimit:4;stroke-dasharray:none;stroke-dashoffset:0;stroke-opacity:0.47843137"
               id="rect4963"
               width="138.46864"
               height="33.705379"
               x="66.960503"
               y="399.99246" />
          </g>
          <g
             transform="matrix(1.4041503,0,0,1,-8.8793606,26.72008)"
             id="g4969">
            <rect
               style="opacity:1;fill:#585858;fill-opacity:0.72941176;fill-rule:nonzero;stroke:none;stroke-width:25;stroke-linecap:butt;stroke-linejoin:round;stroke-miterlimit:4;stroke-dasharray:none;stroke-dashoffset:0;stroke-opacity:0.47843137"
               id="rect4967"
               width="247.44533"
               height="33.705379"
               x="66.960503"
               y="504.46069" />
          </g>
        </g>
        <g
           id="g4987"
           transform="matrix(0.32400089,0,0,0.39007599,1113.5538,435.13354)">
          <rect
             y="373.10999"
             x="85.14325"
             height="33.705379"
             width="332.35645"
             id="rect4973"
             style="opacity:1;fill:#585858;fill-opacity:0.72941176;fill-rule:nonzero;stroke:none;stroke-width:25;stroke-linecap:butt;stroke-linejoin:round;stroke-miterlimit:4;stroke-dasharray:none;stroke-dashoffset:0;stroke-opacity:0.47843137" />
          <rect
             y="478.49054"
             x="85.14325"
             height="33.705379"
             width="262.53705"
             id="rect4975"
             style="opacity:1;fill:#585858;fill-opacity:0.72941176;fill-rule:nonzero;stroke:none;stroke-width:25;stroke-linecap:butt;stroke-linejoin:round;stroke-miterlimit:4;stroke-dasharray:none;stroke-dashoffset:0;stroke-opacity:0.47843137" />
          <rect
             style="opacity:1;fill:#585858;fill-opacity:0.72941176;fill-rule:nonzero;stroke:none;stroke-width:25;stroke-linecap:butt;stroke-linejoin:round;stroke-miterlimit:4;stroke-dasharray:none;stroke-dashoffset:0;stroke-opacity:0.47843137"
             id="rect4977"
             width="372.64368"
             height="33.705379"
             x="85.14325"
             y="583.87103" />
          <g
             transform="matrix(2.6851847,0,0,1,-94.658067,25.807726)"
             id="g4981">
            <rect
               style="opacity:1;fill:#585858;fill-opacity:0.72941176;fill-rule:nonzero;stroke:none;stroke-width:25;stroke-linecap:butt;stroke-linejoin:round;stroke-miterlimit:4;stroke-dasharray:none;stroke-dashoffset:0;stroke-opacity:0.47843137"
               id="rect4979"
               width="138.46864"
               height="33.705379"
               x="66.960503"
               y="399.99246" />
          </g>
          <g
             transform="matrix(1.4041503,0,0,1,-8.8793606,26.72008)"
             id="g4985">
            <rect
               style="opacity:1;fill:#585858;fill-opacity:0.72941176;fill-rule:nonzero;stroke:none;stroke-width:25;stroke-linecap:butt;stroke-linejoin:round;stroke-miterlimit:4;stroke-dasharray:none;stroke-dashoffset:0;stroke-opacity:0.47843137"
               id="rect4983"
               width="247.44533"
               height="33.705379"
               x="66.960503"
               y="504.46069" />
          </g>
        </g>
      </g>
      <rect
         style="opacity:1;fill:#ffffff;fill-opacity:1;fill-rule:nonzero;stroke:#656565;stroke-width:1.875;stroke-linecap:square;stroke-linejoin:miter;stroke-miterlimit:4;stroke-dasharray:none;stroke-dashoffset:0;stroke-opacity:1"
         id="rect4991"
         width="238.39287"
         height="332.14285"
         x="1432.9474"
         y="924.67828"
         rx="0"
         ry="0" />
      <g
         transform="matrix(0.56288779,0,0,0.39007599,1402.9466,838.81093)"
         id="g5015">
        <rect
           style="opacity:1;fill:#585858;fill-opacity:0.72941176;fill-rule:nonzero;stroke:none;stroke-width:25;stroke-linecap:butt;stroke-linejoin:round;stroke-miterlimit:4;stroke-dasharray:none;stroke-dashoffset:0;stroke-opacity:0.47843137"
           id="rect5001"
           width="332.35645"
           height="33.705379"
           x="85.14325"
           y="373.10999" />
        <rect
           style="opacity:1;fill:#585858;fill-opacity:0.72941176;fill-rule:nonzero;stroke:none;stroke-width:25;stroke-linecap:butt;stroke-linejoin:round;stroke-miterlimit:4;stroke-dasharray:none;stroke-dashoffset:0;stroke-opacity:0.47843137"
           id="rect5003"
           width="262.53705"
           height="33.705379"
           x="85.14325"
           y="478.49054" />
        <rect
           y="583.87103"
           x="85.14325"
           height="33.705379"
           width="372.64368"
           id="rect5005"
           style="opacity:1;fill:#585858;fill-opacity:0.72941176;fill-rule:nonzero;stroke:none;stroke-width:25;stroke-linecap:butt;stroke-linejoin:round;stroke-miterlimit:4;stroke-dasharray:none;stroke-dashoffset:0;stroke-opacity:0.47843137" />
        <g
           id="g5009"
           transform="matrix(2.6851847,0,0,1,-94.658067,25.807726)">
          <rect
             y="399.99246"
             x="66.960503"
             height="33.705379"
             width="138.46864"
             id="rect5007"
             style="opacity:1;fill:#585858;fill-opacity:0.72941176;fill-rule:nonzero;stroke:none;stroke-width:25;stroke-linecap:butt;stroke-linejoin:round;stroke-miterlimit:4;stroke-dasharray:none;stroke-dashoffset:0;stroke-opacity:0.47843137" />
        </g>
        <g
           id="g5013"
           transform="matrix(1.4041503,0,0,1,-8.8793606,26.72008)">
          <rect
             y="504.46069"
             x="66.960503"
             height="33.705379"
             width="247.44533"
             id="rect5011"
             style="opacity:1;fill:#585858;fill-opacity:0.72941176;fill-rule:nonzero;stroke:none;stroke-width:25;stroke-linecap:butt;stroke-linejoin:round;stroke-miterlimit:4;stroke-dasharray:none;stroke-dashoffset:0;stroke-opacity:0.47843137" />
        </g>
      </g>
      <g
         id="g5031"
         transform="matrix(0.56288779,0,0,0.39007599,1406.3585,987.39261)">
        <rect
           y="373.10999"
           x="85.14325"
           height="33.705379"
           width="332.35645"
           id="rect5017"
           style="opacity:1;fill:#585858;fill-opacity:0.72941176;fill-rule:nonzero;stroke:none;stroke-width:25;stroke-linecap:butt;stroke-linejoin:round;stroke-miterlimit:4;stroke-dasharray:none;stroke-dashoffset:0;stroke-opacity:0.47843137" />
        <rect
           y="478.49054"
           x="85.14325"
           height="33.705379"
           width="262.53705"
           id="rect5019"
           style="opacity:1;fill:#585858;fill-opacity:0.72941176;fill-rule:nonzero;stroke:none;stroke-width:25;stroke-linecap:butt;stroke-linejoin:round;stroke-miterlimit:4;stroke-dasharray:none;stroke-dashoffset:0;stroke-opacity:0.47843137" />
        <rect
           style="opacity:1;fill:#585858;fill-opacity:0.72941176;fill-rule:nonzero;stroke:none;stroke-width:25;stroke-linecap:butt;stroke-linejoin:round;stroke-miterlimit:4;stroke-dasharray:none;stroke-dashoffset:0;stroke-opacity:0.47843137"
           id="rect5021"
           width="372.64368"
           height="33.705379"
           x="85.14325"
           y="583.87103" />
        <g
           transform="matrix(2.6851847,0,0,1,-94.658067,25.807726)"
           id="g5025">
          <rect
             style="opacity:1;fill:#585858;fill-opacity:0.72941176;fill-rule:nonzero;stroke:none;stroke-width:25;stroke-linecap:butt;stroke-linejoin:round;stroke-miterlimit:4;stroke-dasharray:none;stroke-dashoffset:0;stroke-opacity:0.47843137"
             id="rect5023"
             width="138.46864"
             height="33.705379"
             x="66.960503"
             y="399.99246" />
        </g>
        <g
           transform="matrix(1.4041503,0,0,1,-8.8793606,26.72008)"
           id="g5029">
          <rect
             style="opacity:1;fill:#585858;fill-opacity:0.72941176;fill-rule:nonzero;stroke:none;stroke-width:25;stroke-linecap:butt;stroke-linejoin:round;stroke-miterlimit:4;stroke-dasharray:none;stroke-dashoffset:0;stroke-opacity:0.47843137"
             id="rect5027"
             width="247.44533"
             height="33.705379"
             x="66.960503"
             y="504.46069" />
        </g>
      </g>
      <rect
         style="opacity:1;fill:none;fill-opacity:1;fill-rule:nonzero;stroke:#2339a7;stroke-width:1.87440944;stroke-linecap:square;stroke-linejoin:miter;stroke-miterlimit:4;stroke-dasharray:1.87440945, 3.74881889;stroke-dashoffset:0;stroke-opacity:1"
         id="rect5049"
         width="213.52533"
         height="117.33352"
         x="1450.61"
         y="971.89343"
         rx="0"
         ry="0" />
      <rect
         ry="0"
         rx="0"
         y="1118.7227"
         x="1450.333"
         height="128.14473"
         width="213.80231"
         id="rect5053"
         style="opacity:1;fill:none;fill-opacity:1;fill-rule:nonzero;stroke:#2339a7;stroke-width:1.87440944;stroke-linecap:square;stroke-linejoin:miter;stroke-miterlimit:4;stroke-dasharray:1.87440944, 3.74881886;stroke-dashoffset:0;stroke-opacity:1" />
      <g
         id="g5059"
         transform="matrix(0.7340883,0,0,0.7340883,1100.6451,905.27562)"
         style="stroke-width:1.59636784">
        <path
           sodipodi:nodetypes="ccccccccc"
           id="path5055"
           d="M 67.02,0 H 73 v 8 70 8 H 66.75 C 51.53,83.22 36.27,80.67 21.02,78 21.01,54.67 21.02,31.34 21.02,8.02 36.35,5.34 51.69,2.73 67.02,0 Z"
           inkscape:connector-curvature="0"
           style="fill:#858585;fill-opacity:1;stroke-width:1.59636784" />
        <path
           id="path5057"
           d="m 41.68,28.67 c 1.9,-0.11 3.8,-0.19 5.7,-0.29 1.33,6.75 2.69,13.49 4.13,20.21 1.13,-6.94 2.38,-13.86 3.59,-20.79 2,-0.07 4,-0.18 5.99,-0.3 -2.26,9.69 -4.24,19.46 -6.71,29.09 -1.67,0.87 -4.17,-0.04 -6.15,0.1 -1.33,-6.62 -2.88,-13.2 -4.07,-19.85 -1.17,6.46 -2.69,12.86 -4.03,19.28 -1.92,-0.1 -3.85,-0.22 -5.78,-0.35 -1.66,-8.8 -3.61,-17.54 -5.16,-26.36 1.71,-0.08 3.43,-0.15 5.14,-0.21 1.03,6.37 2.2,12.71 3.1,19.09 1.41,-6.54 2.85,-13.08 4.25,-19.62 z"
           inkscape:connector-curvature="0"
           style="fill:#ffffff;stroke-width:1.59636784" />
      </g>
      <g
         id="g5065"
         transform="matrix(1.171875,0,0,1.171875,834.25917,903.61932)">
        <rect
           y="5.2598772"
           x="502.00232"
           height="34.311565"
           width="40.426239"
           id="rect5061"
           style="opacity:1;fill:#ffffff;fill-opacity:1;fill-rule:nonzero;stroke:#858585;stroke-width:0.90708661;stroke-linecap:square;stroke-linejoin:miter;stroke-miterlimit:4;stroke-dasharray:none;stroke-dashoffset:0;stroke-opacity:1" />
        <path
           id="path5063"
           inkscape:connector-curvature="0"
           inkscape:export-filename="X:\dev\b36\src\BloomExe\Resources\LogoForSplashScreen.png"
           inkscape:export-xdpi="108.54"
           inkscape:export-ydpi="108.54"
           sodipodi:nodetypes="cccsccc"
           class="st1"
           d="m 522.8952,27.082843 c 0.16386,-9.177992 -3.16859,-11.30854 -5.13525,-12.783514 -1.74817,-1.256465 -5.24454,-2.622347 -7.75753,-3.113957 -1.89981,10.567951 0.71328,23.539504 11.26613,23.053922 12.12455,-0.557768 11.96961,-9.763239 11.24156,-22.780722 -6.61023,0.6008 -8.63161,2.567563 -8.63161,2.567563 l -0.38238,0.273194"
           style="opacity:1;fill:none;stroke:#858585;stroke-width:4.26116705;stroke-linejoin:round;stroke-opacity:1" />
      </g>
      <rect
         ry="0"
         rx="0"
         y="942.82758"
         x="1450.61"
         height="29.065926"
         width="213.52533"
         id="rect5067"
         style="opacity:1;fill:none;fill-opacity:1;fill-rule:nonzero;stroke:#2339a7;stroke-width:1.87440956;stroke-linecap:square;stroke-linejoin:miter;stroke-miterlimit:4;stroke-dasharray:1.87440949, 3.74881898;stroke-dashoffset:0;stroke-opacity:1" />
      <text
         xml:space="preserve"
         style="font-style:normal;font-weight:normal;font-size:23.74152756px;line-height:125%;font-family:Sans;letter-spacing:0px;word-spacing:0px;fill:#000000;fill-opacity:1;stroke:none;stroke-width:0.9375px;stroke-linecap:butt;stroke-linejoin:miter;stroke-opacity:1"
         x="1510.0898"
         y="964.93048"
         id="text5071"><tspan
           sodipodi:role="line"
           id="tspan5069"
           x="1510.0898"
           y="964.93048"
           style="stroke-width:0.9375px">Heading</tspan></text>
      <text
         id="text5075"
         y="1112.9631"
         x="1503.9342"
         style="font-style:normal;font-weight:normal;font-size:23.74152756px;line-height:125%;font-family:Sans;letter-spacing:0px;word-spacing:0px;fill:#000000;fill-opacity:1;stroke:none;stroke-width:0.9375px;stroke-linecap:butt;stroke-linejoin:miter;stroke-opacity:1"
         xml:space="preserve"><tspan
           style="stroke-width:0.9375px"
           y="1112.9631"
           x="1503.9342"
           id="tspan5073"
           sodipodi:role="line">Heading</tspan></text>
      <rect
         style="opacity:1;fill:none;fill-opacity:1;fill-rule:nonzero;stroke:#2339a7;stroke-width:1.87440956;stroke-linecap:square;stroke-linejoin:miter;stroke-miterlimit:4;stroke-dasharray:1.87440949, 3.74881898;stroke-dashoffset:0;stroke-opacity:1"
         id="rect5077"
         width="213.52533"
         height="29.065926"
         x="1450.61"
         y="1089.2269"
         rx="0"
         ry="0" />
    </g>
  </g>
</svg>
