<svg xmlns="http://www.w3.org/2000/svg" xmlns:xlink="http://www.w3.org/1999/xlink" width="428" zoomAndPan="magnify" viewBox="0 0 321 320.250004" height="427" preserveAspectRatio="xMidYMid meet" version="1.0"><defs><filter x="0%" y="0%" width="100%" height="100%" id="643fc7dd35"><feColorMatrix values="0 0 0 0 1 0 0 0 0 1 0 0 0 0 1 0 0 0 1 0" color-interpolation-filters="sRGB"/></filter><g/><clipPath id="6a968a605b"><path d="M 86 86 L 235 86 L 235 234 L 86 234 Z M 86 86 " clip-rule="nonzero"/></clipPath><clipPath id="5cf27281e1"><path d="M 75.832031 99.109375 L 221.074219 74.996094 L 245.1875 220.238281 L 99.945312 244.351562 Z M 75.832031 99.109375 " clip-rule="nonzero"/></clipPath><clipPath id="de58568e9f"><path d="M 148.453125 87.050781 C 108.34375 93.710938 81.226562 131.621094 87.886719 171.730469 C 94.546875 211.839844 132.457031 238.953125 172.566406 232.292969 C 212.671875 225.636719 239.789062 187.722656 233.128906 147.617188 C 226.472656 107.507812 188.558594 80.390625 148.453125 87.050781 " clip-rule="nonzero"/></clipPath><mask id="d3ae214009"><g filter="url(#643fc7dd35)"><rect x="-32.1" width="385.2" fill="#000000" y="-32.025" height="384.300005" fill-opacity="0.2863"/></g></mask><clipPath id="8d037e7881"><path d="M 10 11 L 147 11 L 147 147 L 10 147 Z M 10 11 " clip-rule="nonzero"/></clipPath><clipPath id="5e959450c5"><path d="M 0.71875 22.800781 L 134.230469 0.632812 L 156.441406 134.414062 L 22.929688 156.582031 Z M 0.71875 22.800781 " clip-rule="nonzero"/></clipPath><clipPath id="d6934a2f17"><path d="M 89.578125 145.351562 C 71.777344 148.304688 53.863281 144.160156 39.191406 133.644531 C 24.5 123.15625 14.789062 107.542969 11.832031 89.742188 C 8.875 71.941406 13.023438 54.027344 23.539062 39.355469 C 34.023438 24.664062 49.636719 14.949219 67.4375 11.996094 C 85.242188 9.039062 103.152344 13.1875 117.824219 23.703125 C 132.523438 34.214844 142.230469 49.800781 145.1875 67.601562 C 148.140625 85.40625 143.996094 103.316406 133.480469 117.988281 C 122.992188 132.683594 107.382812 142.394531 89.578125 145.351562 Z M 68.101562 15.992188 C 51.367188 18.769531 36.699219 27.914062 26.832031 41.710938 C 16.964844 55.507812 13.050781 72.34375 15.828125 89.078125 C 18.609375 105.816406 27.75 120.480469 41.546875 130.347656 C 55.34375 140.21875 72.179688 144.132812 88.914062 141.351562 C 105.652344 138.574219 120.316406 129.429688 130.183594 115.632812 C 140.054688 101.835938 143.96875 85.003906 141.1875 68.265625 C 138.410156 51.53125 129.265625 36.863281 115.46875 26.996094 C 101.671875 17.128906 84.839844 13.214844 68.101562 15.992188 Z M 68.101562 15.992188 " clip-rule="nonzero"/></clipPath><clipPath id="8c50b8570f"><rect x="0" width="157" y="0" height="157"/></clipPath></defs><g clip-path="url(#6a968a605b)"><g clip-path="url(#5cf27281e1)"><g clip-path="url(#de58568e9f)"><path fill="#a7c6ed" d="M 75.832031 99.109375 L 221.074219 74.996094 L 245.1875 220.238281 L 99.945312 244.351562 Z M 75.832031 99.109375 " fill-opacity="1" fill-rule="nonzero"/></g></g></g><g mask="url(#d3ae214009)"><g transform="matrix(1, 0, 0, 1, 82, 81)"><g clip-path="url(#8c50b8570f)"><g clip-path="url(#8d037e7881)"><g clip-path="url(#5e959450c5)"><g clip-path="url(#d6934a2f17)"><path fill="#ffffff" d="M 0.761719 23.066406 L 134.011719 0.941406 L 156.132812 134.191406 L 22.882812 156.3125 Z M 0.761719 23.066406 " fill-opacity="1" fill-rule="nonzero"/></g></g></g></g></g></g><g fill="#6c6463" fill-opacity="1"><g transform="translate(146.712292, 163.304387)"><g><path d="M 5.296875 -21 C 5.023438 -22.625 6.207031 -24.109375 8.84375 -25.453125 C 9.914062 -26.066406 10.648438 -26.65625 11.046875 -27.21875 C 11.453125 -27.78125 11.707031 -28.597656 11.8125 -29.671875 C 11.945312 -32.015625 11.195312 -33.050781 9.5625 -32.78125 C 8.414062 -32.632812 7.5625 -32.269531 7 -31.6875 C 6.4375 -31.113281 5.9375 -30.050781 5.5 -28.5 C 4.445312 -25.21875 2.816406 -24.085938 0.609375 -25.109375 C -0.359375 -25.535156 -0.941406 -26.363281 -1.140625 -27.59375 C -1.347656 -28.832031 -1.195312 -30.140625 -0.6875 -31.515625 C -0.1875 -32.898438 0.585938 -34.257812 1.640625 -35.59375 C 2.722656 -36.90625 3.945312 -37.882812 5.3125 -38.53125 C 9.75 -40.613281 13.445312 -40.019531 16.40625 -36.75 C 17.039062 -36.082031 17.460938 -35.351562 17.671875 -34.5625 C 17.890625 -33.78125 18.113281 -32.328125 18.34375 -30.203125 C 18.570312 -28.085938 18.472656 -26.582031 18.046875 -25.6875 C 17.628906 -24.800781 17.441406 -24.234375 17.484375 -23.984375 C 17.523438 -23.742188 17.691406 -23.570312 17.984375 -23.46875 C 22.484375 -21.769531 25.367188 -19.300781 26.640625 -16.0625 C 27.910156 -12.832031 27.320312 -9.585938 24.875 -6.328125 C 23.382812 -4.453125 21.753906 -3.203125 19.984375 -2.578125 C 18.210938 -1.960938 15.664062 -1.785156 12.34375 -2.046875 C 7.875 -2.378906 4.40625 -3.847656 1.9375 -6.453125 C 1.070312 -7.410156 0.566406 -8.082031 0.421875 -8.46875 C 0.285156 -8.851562 0.351562 -9.457031 0.625 -10.28125 C 1.03125 -11.738281 1.796875 -12.519531 2.921875 -12.625 C 4.054688 -12.738281 5.414062 -12.1875 7 -10.96875 C 9.15625 -9.320312 11.65625 -8.550781 14.5 -8.65625 C 17.34375 -8.757812 19.210938 -9.707031 20.109375 -11.5 L 21.09375 -13.25 L 19.640625 -14.65625 C 18.859375 -15.425781 17.550781 -16.148438 15.71875 -16.828125 C 13.882812 -17.515625 12.019531 -17.90625 10.125 -18 C 7.207031 -18.195312 5.597656 -19.195312 5.296875 -21 Z M 5.296875 -21 "/></g></g></g><g fill="#6c6463" fill-opacity="1"><g transform="translate(131.178044, 199.464994)"><g><path d="M 11.390625 -21.34375 C 11.640625 -20.394531 11.890625 -19.171875 12.140625 -17.671875 C 12.515625 -15.398438 12.78125 -12.929688 12.9375 -10.265625 L 13.28125 -5.03125 C 13.34375 -4.019531 13.390625 -3.398438 13.421875 -3.171875 C 13.492188 -3.117188 13.5625 -3.0625 13.625 -3 C 13.695312 -2.945312 13.742188 -2.910156 13.765625 -2.890625 C 13.796875 -2.878906 13.820312 -2.851562 13.84375 -2.8125 C 13.875 -2.769531 13.894531 -2.734375 13.90625 -2.703125 C 13.925781 -2.671875 13.941406 -2.625 13.953125 -2.5625 C 14.003906 -2.1875 13.679688 -1.8125 12.984375 -1.4375 C 12.285156 -1.070312 11.644531 -0.84375 11.0625 -0.75 C 10.226562 -0.601562 9.722656 -0.953125 9.546875 -1.796875 C 8.929688 -1.460938 8.359375 -1.25 7.828125 -1.15625 C 5.929688 -0.84375 4.316406 -1.085938 2.984375 -1.890625 C 1.648438 -2.691406 0.832031 -3.984375 0.53125 -5.765625 C 0.21875 -7.671875 0.238281 -9.285156 0.59375 -10.609375 C 0.957031 -11.929688 1.6875 -13.128906 2.78125 -14.203125 C 3.050781 -14.492188 3.382812 -14.660156 3.78125 -14.703125 C 4.320312 -15.242188 5.003906 -15.582031 5.828125 -15.71875 C 6.441406 -15.820312 7.113281 -15.804688 7.84375 -15.671875 C 7.613281 -17.078125 7.425781 -18.191406 7.28125 -19.015625 C 7.144531 -19.804688 7.097656 -20.4375 7.140625 -20.90625 C 7.179688 -21.382812 7.367188 -21.785156 7.703125 -22.109375 C 7.890625 -22.878906 8.390625 -23.328125 9.203125 -23.453125 C 9.753906 -23.546875 10.222656 -23.394531 10.609375 -23 C 11.003906 -22.601562 11.265625 -22.050781 11.390625 -21.34375 Z M 6.0625 -6.75 C 6.425781 -6.21875 7.300781 -5.878906 8.6875 -5.734375 C 8.789062 -5.804688 8.96875 -5.890625 9.21875 -5.984375 L 9.0625 -7.734375 C 8.945312 -8.679688 8.769531 -9.972656 8.53125 -11.609375 C 7.90625 -12.046875 7.164062 -12.234375 6.3125 -12.171875 C 6.207031 -12.109375 6.09375 -11.882812 5.96875 -11.5 C 5.84375 -11.125 5.765625 -10.75 5.734375 -10.375 Z M 9.53125 -1.859375 Z M 9.546875 -1.796875 L 9.578125 -1.828125 Z M 9.546875 -1.796875 "/></g></g></g><g fill="#6c6463" fill-opacity="1"><g transform="translate(146.177348, 196.97475)"><g><path d="M 0.6875 -10.1875 C 0.0625 -10.414062 -0.304688 -10.875 -0.421875 -11.5625 C -0.515625 -12.082031 -0.390625 -12.601562 -0.046875 -13.125 C 0.285156 -13.644531 0.765625 -14.039062 1.390625 -14.3125 C 1.597656 -14.664062 1.863281 -14.898438 2.1875 -15.015625 C 2.34375 -15.085938 2.53125 -15.175781 2.75 -15.28125 C 2.976562 -15.382812 3.128906 -15.453125 3.203125 -15.484375 C 3.273438 -15.523438 3.382812 -15.578125 3.53125 -15.640625 C 3.6875 -15.703125 3.796875 -15.738281 3.859375 -15.75 C 3.921875 -15.757812 4.023438 -15.785156 4.171875 -15.828125 C 4.328125 -15.878906 4.476562 -15.914062 4.625 -15.9375 C 4.769531 -15.957031 4.957031 -15.988281 5.1875 -16.03125 C 6.757812 -16.289062 7.984375 -15.769531 8.859375 -14.46875 C 9.734375 -13.164062 10.40625 -11.222656 10.875 -8.640625 L 11.6875 -3.796875 C 11.757812 -3.316406 11.648438 -2.875 11.359375 -2.46875 C 11.078125 -2.070312 10.695312 -1.835938 10.21875 -1.765625 C 9.570312 -1.648438 9.03125 -1.84375 8.59375 -2.34375 C 7.707031 -1.582031 6.773438 -1.125 5.796875 -0.96875 C 4.660156 -0.78125 3.6875 -0.875 2.875 -1.25 C 2.070312 -1.625 1.59375 -2.289062 1.4375 -3.25 C 1.164062 -4.863281 1.457031 -6.515625 2.3125 -8.203125 C 3.175781 -9.890625 4.285156 -10.878906 5.640625 -11.171875 C 5.492188 -11.378906 5.363281 -11.53125 5.25 -11.625 C 4.164062 -11.445312 3.394531 -11.257812 2.9375 -11.0625 C 2.644531 -10.53125 2.203125 -10.210938 1.609375 -10.109375 C 1.265625 -10.046875 0.957031 -10.070312 0.6875 -10.1875 Z M 6.421875 -7.671875 L 6.296875 -7.578125 C 6.160156 -7.453125 6.007812 -7.28125 5.84375 -7.0625 C 5.738281 -6.875 5.539062 -6.5 5.25 -5.9375 C 5.101562 -5.570312 5.007812 -5.296875 4.96875 -5.109375 C 4.84375 -4.609375 4.800781 -4.226562 4.84375 -3.96875 C 4.832031 -3.925781 4.832031 -3.878906 4.84375 -3.828125 C 4.882812 -3.804688 4.960938 -3.804688 5.078125 -3.828125 C 5.296875 -3.867188 5.492188 -3.9375 5.671875 -4.03125 C 5.910156 -4.164062 6.066406 -4.285156 6.140625 -4.390625 L 6.859375 -4.921875 L 7.28125 -5.296875 L 6.8125 -7.734375 Z M 6.421875 -7.671875 "/></g></g></g><g fill="#6c6463" fill-opacity="1"><g transform="translate(158.494045, 194.929883)"><g><path d="M 11.046875 -16.796875 C 11.160156 -16.597656 11.238281 -16.375 11.28125 -16.125 C 11.414062 -15.28125 11.109375 -14.648438 10.359375 -14.234375 C 8.671875 -13.335938 6.988281 -11.289062 5.3125 -8.09375 C 5.507812 -6.0625 5.507812 -3.992188 5.3125 -1.890625 C 5.28125 -1.472656 5.117188 -1.109375 4.828125 -0.796875 C 4.535156 -0.492188 4.207031 -0.3125 3.84375 -0.25 C 3.394531 -0.175781 2.976562 -0.257812 2.59375 -0.5 C 2.207031 -0.75 1.9375 -1.085938 1.78125 -1.515625 C 1.363281 -1.929688 1.066406 -2.664062 0.890625 -3.71875 C 0.785156 -4.320312 0.625 -5.40625 0.40625 -6.96875 C 0.195312 -8.53125 0.0859375 -9.34375 0.078125 -9.40625 L -0.828125 -14.09375 C -0.972656 -14.789062 -0.945312 -15.390625 -0.75 -15.890625 C -0.550781 -16.390625 -0.1875 -16.679688 0.34375 -16.765625 C 0.875 -16.859375 1.226562 -16.910156 1.40625 -16.921875 C 1.945312 -16.992188 2.421875 -16.953125 2.828125 -16.796875 C 3.566406 -16.546875 4.078125 -15.578125 4.359375 -13.890625 C 5.148438 -15.679688 6.128906 -16.875 7.296875 -17.46875 C 7.734375 -17.707031 8.140625 -17.859375 8.515625 -17.921875 C 9.085938 -18.015625 9.609375 -17.96875 10.078125 -17.78125 C 10.546875 -17.59375 10.867188 -17.265625 11.046875 -16.796875 Z M 11.046875 -16.796875 "/></g></g></g><g fill="#6c6463" fill-opacity="1"><g transform="translate(171.243415, 192.813182)"><g><path d="M 0.6875 -10.1875 C 0.0625 -10.414062 -0.304688 -10.875 -0.421875 -11.5625 C -0.515625 -12.082031 -0.390625 -12.601562 -0.046875 -13.125 C 0.285156 -13.644531 0.765625 -14.039062 1.390625 -14.3125 C 1.597656 -14.664062 1.863281 -14.898438 2.1875 -15.015625 C 2.34375 -15.085938 2.53125 -15.175781 2.75 -15.28125 C 2.976562 -15.382812 3.128906 -15.453125 3.203125 -15.484375 C 3.273438 -15.523438 3.382812 -15.578125 3.53125 -15.640625 C 3.6875 -15.703125 3.796875 -15.738281 3.859375 -15.75 C 3.921875 -15.757812 4.023438 -15.785156 4.171875 -15.828125 C 4.328125 -15.878906 4.476562 -15.914062 4.625 -15.9375 C 4.769531 -15.957031 4.957031 -15.988281 5.1875 -16.03125 C 6.757812 -16.289062 7.984375 -15.769531 8.859375 -14.46875 C 9.734375 -13.164062 10.40625 -11.222656 10.875 -8.640625 L 11.6875 -3.796875 C 11.757812 -3.316406 11.648438 -2.875 11.359375 -2.46875 C 11.078125 -2.070312 10.695312 -1.835938 10.21875 -1.765625 C 9.570312 -1.648438 9.03125 -1.84375 8.59375 -2.34375 C 7.707031 -1.582031 6.773438 -1.125 5.796875 -0.96875 C 4.660156 -0.78125 3.6875 -0.875 2.875 -1.25 C 2.070312 -1.625 1.59375 -2.289062 1.4375 -3.25 C 1.164062 -4.863281 1.457031 -6.515625 2.3125 -8.203125 C 3.175781 -9.890625 4.285156 -10.878906 5.640625 -11.171875 C 5.492188 -11.378906 5.363281 -11.53125 5.25 -11.625 C 4.164062 -11.445312 3.394531 -11.257812 2.9375 -11.0625 C 2.644531 -10.53125 2.203125 -10.210938 1.609375 -10.109375 C 1.265625 -10.046875 0.957031 -10.070312 0.6875 -10.1875 Z M 6.421875 -7.671875 L 6.296875 -7.578125 C 6.160156 -7.453125 6.007812 -7.28125 5.84375 -7.0625 C 5.738281 -6.875 5.539062 -6.5 5.25 -5.9375 C 5.101562 -5.570312 5.007812 -5.296875 4.96875 -5.109375 C 4.84375 -4.609375 4.800781 -4.226562 4.84375 -3.96875 C 4.832031 -3.925781 4.832031 -3.878906 4.84375 -3.828125 C 4.882812 -3.804688 4.960938 -3.804688 5.078125 -3.828125 C 5.296875 -3.867188 5.492188 -3.9375 5.671875 -4.03125 C 5.910156 -4.164062 6.066406 -4.285156 6.140625 -4.390625 L 6.859375 -4.921875 L 7.28125 -5.296875 L 6.8125 -7.734375 Z M 6.421875 -7.671875 "/></g></g></g><g fill="#6c6463" fill-opacity="1"><g transform="translate(183.560113, 190.768315)"><g><path d="M 3.390625 -22.40625 C 4.203125 -22.53125 4.867188 -22.425781 5.390625 -22.09375 C 5.921875 -21.769531 6.242188 -21.265625 6.359375 -20.578125 C 6.472656 -19.910156 6.289062 -19.300781 5.8125 -18.75 C 5.34375 -18.195312 4.753906 -17.859375 4.046875 -17.734375 C 3.296875 -17.609375 2.601562 -17.734375 1.96875 -18.109375 C 1.332031 -18.492188 0.953125 -19.050781 0.828125 -19.78125 C 0.722656 -20.394531 0.851562 -20.957031 1.21875 -21.46875 C 1.59375 -21.976562 2.097656 -22.285156 2.734375 -22.390625 C 2.929688 -22.421875 3.148438 -22.425781 3.390625 -22.40625 Z M 7.921875 -14.953125 C 8.390625 -15.304688 8.585938 -15.691406 8.515625 -16.109375 C 8.492188 -16.222656 8.429688 -16.394531 8.328125 -16.625 C 7.867188 -17.332031 6.625 -17.519531 4.59375 -17.1875 C 3.875 -17.070312 3.332031 -16.867188 2.96875 -16.578125 C 2.601562 -16.296875 2.453125 -15.957031 2.515625 -15.5625 C 2.546875 -15.425781 2.597656 -15.273438 2.671875 -15.109375 C 2.941406 -13.484375 3.320312 -11.25 3.8125 -8.40625 C 4.3125 -5.570312 4.675781 -3.445312 4.90625 -2.03125 C 5.132812 -0.6875 5.066406 0.328125 4.703125 1.015625 C 4.492188 0.898438 4.085938 0.894531 3.484375 1 C 3.003906 1.070312 2.613281 1.300781 2.3125 1.6875 C 2.019531 2.082031 1.914062 2.523438 2 3.015625 C 2.1875 4.203125 3.164062 4.726562 4.9375 4.59375 C 5.238281 4.625 5.570312 4.609375 5.9375 4.546875 C 6.851562 4.398438 7.671875 3.984375 8.390625 3.296875 C 8.929688 2.765625 9.28125 1.820312 9.4375 0.46875 C 9.488281 0.09375 9.570312 -0.289062 9.6875 -0.6875 C 9.800781 -1.195312 9.859375 -1.875 9.859375 -2.71875 C 9.859375 -3.5625 9.816406 -4.238281 9.734375 -4.75 L 7.984375 -14.609375 Z M 7.921875 -14.953125 "/></g></g></g><g fill="#6c6463" fill-opacity="1"><g transform="translate(194.780678, 188.905432)"><g><path d="M 0.6875 -10.1875 C 0.0625 -10.414062 -0.304688 -10.875 -0.421875 -11.5625 C -0.515625 -12.082031 -0.390625 -12.601562 -0.046875 -13.125 C 0.285156 -13.644531 0.765625 -14.039062 1.390625 -14.3125 C 1.597656 -14.664062 1.863281 -14.898438 2.1875 -15.015625 C 2.34375 -15.085938 2.53125 -15.175781 2.75 -15.28125 C 2.976562 -15.382812 3.128906 -15.453125 3.203125 -15.484375 C 3.273438 -15.523438 3.382812 -15.578125 3.53125 -15.640625 C 3.6875 -15.703125 3.796875 -15.738281 3.859375 -15.75 C 3.921875 -15.757812 4.023438 -15.785156 4.171875 -15.828125 C 4.328125 -15.878906 4.476562 -15.914062 4.625 -15.9375 C 4.769531 -15.957031 4.957031 -15.988281 5.1875 -16.03125 C 6.757812 -16.289062 7.984375 -15.769531 8.859375 -14.46875 C 9.734375 -13.164062 10.40625 -11.222656 10.875 -8.640625 L 11.6875 -3.796875 C 11.757812 -3.316406 11.648438 -2.875 11.359375 -2.46875 C 11.078125 -2.070312 10.695312 -1.835938 10.21875 -1.765625 C 9.570312 -1.648438 9.03125 -1.84375 8.59375 -2.34375 C 7.707031 -1.582031 6.773438 -1.125 5.796875 -0.96875 C 4.660156 -0.78125 3.6875 -0.875 2.875 -1.25 C 2.070312 -1.625 1.59375 -2.289062 1.4375 -3.25 C 1.164062 -4.863281 1.457031 -6.515625 2.3125 -8.203125 C 3.175781 -9.890625 4.285156 -10.878906 5.640625 -11.171875 C 5.492188 -11.378906 5.363281 -11.53125 5.25 -11.625 C 4.164062 -11.445312 3.394531 -11.257812 2.9375 -11.0625 C 2.644531 -10.53125 2.203125 -10.210938 1.609375 -10.109375 C 1.265625 -10.046875 0.957031 -10.070312 0.6875 -10.1875 Z M 6.421875 -7.671875 L 6.296875 -7.578125 C 6.160156 -7.453125 6.007812 -7.28125 5.84375 -7.0625 C 5.738281 -6.875 5.539062 -6.5 5.25 -5.9375 C 5.101562 -5.570312 5.007812 -5.296875 4.96875 -5.109375 C 4.84375 -4.609375 4.800781 -4.226562 4.84375 -3.96875 C 4.832031 -3.925781 4.832031 -3.878906 4.84375 -3.828125 C 4.882812 -3.804688 4.960938 -3.804688 5.078125 -3.828125 C 5.296875 -3.867188 5.492188 -3.9375 5.671875 -4.03125 C 5.910156 -4.164062 6.066406 -4.285156 6.140625 -4.390625 L 6.859375 -4.921875 L 7.28125 -5.296875 L 6.8125 -7.734375 Z M 6.421875 -7.671875 "/></g></g></g></svg>