<svg
    width="197"
    height="197"
    viewBox="0 0 197 197"
    fill="none"
    xmlns="http://www.w3.org/2000/svg"
>
<circle cx="98.5" cy="98.5" r="98.5" fill="#651D32" />
<circle
        cx="98.5"
        cy="98.5"
        r="86"
        stroke="white"
        stroke-opacity="0.3"
        stroke-width="5"
    />
<path
        d="M75.7727 123.082C76.1165 124.363 76.4602 125.998 76.7936 127.998C77.2936 131.014 77.6477 134.306 77.8561 137.873L78.2936 144.852C78.3873 146.201 78.4602 147.03 78.5019 147.332C78.5852 147.405 78.6738 147.477 78.7727 147.561C78.8665 147.634 78.929 147.681 78.9602 147.707C78.9863 147.722 79.0123 147.759 79.0436 147.811C79.0852 147.868 79.1165 147.915 79.1477 147.957C79.1738 147.998 79.1946 148.061 79.2102 148.144C79.278 148.644 78.8457 149.144 77.9186 149.644C76.9863 150.134 76.1321 150.436 75.3561 150.561C74.2311 150.759 73.554 150.29 73.3352 149.165C72.5123 149.613 71.7415 149.894 71.0227 150.019C68.4915 150.436 66.3405 150.113 64.5644 149.04C62.7832 147.972 61.6946 146.248 61.2936 143.873C60.8769 141.321 60.903 139.165 61.3769 137.415C61.8613 135.655 62.8352 134.05 64.2936 132.602C64.6686 132.227 65.1113 132.014 65.6269 131.957C66.3457 131.238 67.2623 130.785 68.3769 130.602C69.179 130.467 70.0748 130.477 71.0644 130.644C70.7571 128.769 70.5019 127.285 70.2936 126.186C70.1113 125.134 70.0488 124.29 70.1061 123.665C70.1582 123.03 70.4082 122.493 70.8561 122.061C71.1165 121.05 71.7832 120.457 72.8561 120.29C73.6061 120.165 74.2363 120.368 74.7519 120.894C75.2623 121.41 75.6061 122.139 75.7727 123.082ZM68.6686 142.561C69.153 143.269 70.3196 143.722 72.1686 143.915C72.3196 143.806 72.5644 143.696 72.8977 143.582L72.6686 141.248C72.5123 139.988 72.2832 138.264 71.9811 136.082C71.1321 135.488 70.1373 135.238 69.0019 135.332C68.8613 135.415 68.7102 135.717 68.5436 136.227C68.3769 136.727 68.2727 137.227 68.2311 137.727L68.6686 142.561Z"
        fill="white"
    />
<path
        d="M81.5035 134.657C80.6701 134.355 80.1701 133.735 80.0035 132.803C79.8941 132.125 80.066 131.438 80.5243 130.74C80.967 130.047 81.6076 129.521 82.441 129.157C82.717 128.688 83.0712 128.365 83.5035 128.198C83.7118 128.115 83.967 128.006 84.2743 127.865C84.5764 127.714 84.7795 127.615 84.8785 127.573C84.9722 127.532 85.1181 127.469 85.316 127.386C85.5087 127.292 85.6493 127.235 85.7326 127.219C85.8264 127.209 85.9722 127.172 86.1701 127.115C86.3785 127.063 86.5764 127.021 86.7743 126.99C86.967 126.948 87.2118 126.907 87.5035 126.865C89.6129 126.521 91.2431 127.214 92.3993 128.948C93.566 130.688 94.467 133.271 95.1076 136.698L96.191 143.157C96.2847 143.797 96.1389 144.386 95.7535 144.928C95.3629 145.469 94.8576 145.792 94.2326 145.886C93.3576 146.042 92.6285 145.782 92.0451 145.115C90.8785 146.131 89.6337 146.74 88.316 146.948C86.8004 147.198 85.5035 147.073 84.4201 146.573C83.3472 146.073 82.7118 145.188 82.5035 143.907C82.1389 141.756 82.5295 139.553 83.6701 137.303C84.8212 135.053 86.3056 133.719 88.1285 133.303C87.9201 133.053 87.7379 132.86 87.5868 132.719C86.1389 132.959 85.1129 133.214 84.5035 133.49C84.1129 134.188 83.5243 134.605 82.7326 134.74C82.2743 134.823 81.8629 134.797 81.5035 134.657ZM89.1701 138.011L88.9826 138.115C88.8004 138.297 88.6076 138.532 88.3993 138.823C88.2587 139.063 87.9879 139.563 87.5868 140.323C87.3889 140.813 87.2639 141.178 87.2118 141.428C87.0451 142.094 86.9879 142.605 87.0451 142.948C87.0295 142.99 87.0295 143.053 87.0451 143.136C87.0972 143.167 87.2014 143.167 87.3576 143.136C87.6493 143.084 87.9201 142.99 88.1701 142.865C88.4722 142.688 88.6754 142.526 88.7743 142.386L89.7326 141.657L90.2951 141.178L89.6701 137.928L89.1701 138.011Z"
        fill="white"
    />
<path
        d="M111.74 123.117C111.907 123.367 112.016 123.669 112.074 124.013C112.251 125.138 111.834 125.982 110.824 126.534C108.574 127.732 106.329 130.461 104.094 134.721C104.355 137.43 104.365 140.19 104.115 142.992C104.058 143.55 103.834 144.034 103.449 144.451C103.058 144.857 102.62 145.096 102.136 145.18C101.537 145.279 100.98 145.169 100.469 144.846C99.9538 144.513 99.5944 144.065 99.3861 143.492C98.8288 142.925 98.433 141.945 98.1986 140.555C98.058 139.737 97.8444 138.284 97.5528 136.201C97.2715 134.117 97.1257 133.044 97.1153 132.971L95.9069 126.701C95.6986 125.774 95.7351 124.971 96.0111 124.305C96.2767 123.638 96.7611 123.253 97.4694 123.138C98.1778 123.013 98.6413 122.945 98.8653 122.93C99.5997 122.846 100.245 122.909 100.803 123.117C101.772 123.44 102.449 124.732 102.824 126.992C103.876 124.607 105.183 123.008 106.74 122.201C107.324 121.883 107.865 121.68 108.365 121.596C109.126 121.471 109.824 121.534 110.449 121.784C111.084 122.034 111.516 122.482 111.74 123.117Z"
        fill="white"
    />
<path
        d="M114.929 129.107C114.096 128.805 113.596 128.185 113.429 127.253C113.32 126.576 113.492 125.888 113.95 125.191C114.393 124.498 115.033 123.972 115.867 123.607C116.143 123.138 116.497 122.816 116.929 122.649C117.137 122.566 117.393 122.456 117.7 122.316C118.002 122.165 118.205 122.066 118.304 122.024C118.398 121.982 118.544 121.92 118.742 121.836C118.934 121.743 119.075 121.685 119.158 121.67C119.252 121.659 119.398 121.623 119.596 121.566C119.804 121.513 120.002 121.472 120.2 121.441C120.393 121.399 120.637 121.357 120.929 121.316C123.038 120.972 124.669 121.665 125.825 123.399C126.992 125.138 127.893 127.722 128.533 131.149L129.617 137.607C129.71 138.248 129.564 138.836 129.179 139.378C128.788 139.92 128.283 140.243 127.658 140.336C126.783 140.493 126.054 140.232 125.471 139.566C124.304 140.581 123.059 141.191 121.742 141.399C120.226 141.649 118.929 141.524 117.846 141.024C116.773 140.524 116.137 139.638 115.929 138.357C115.564 136.206 115.955 134.003 117.096 131.753C118.247 129.503 119.731 128.17 121.554 127.753C121.346 127.503 121.163 127.31 121.012 127.17C119.564 127.409 118.538 127.665 117.929 127.941C117.538 128.638 116.95 129.055 116.158 129.191C115.7 129.274 115.288 129.248 114.929 129.107ZM122.596 132.461L122.408 132.566C122.226 132.748 122.033 132.982 121.825 133.274C121.684 133.513 121.413 134.013 121.012 134.774C120.814 135.263 120.689 135.628 120.637 135.878C120.471 136.545 120.413 137.055 120.471 137.399C120.455 137.441 120.455 137.503 120.471 137.586C120.523 137.618 120.627 137.618 120.783 137.586C121.075 137.534 121.346 137.441 121.596 137.316C121.898 137.138 122.101 136.977 122.2 136.836L123.158 136.107L123.721 135.628L123.096 132.378L122.596 132.461Z"
        fill="white"
    />
<path
        d="M134.958 110.068C136.041 109.901 136.937 110.042 137.645 110.485C138.353 110.917 138.781 111.589 138.937 112.505C139.088 113.412 138.843 114.229 138.208 114.964C137.567 115.703 136.775 116.151 135.833 116.318C134.833 116.485 133.9 116.313 133.041 115.797C132.192 115.287 131.692 114.542 131.541 113.568C131.4 112.75 131.572 112.005 132.062 111.339C132.562 110.662 133.234 110.25 134.083 110.11C134.343 110.068 134.635 110.057 134.958 110.068ZM140.999 120.026C141.635 119.557 141.906 119.037 141.812 118.464C141.781 118.313 141.692 118.089 141.541 117.797C140.926 116.854 139.27 116.604 136.562 117.047C135.614 117.203 134.895 117.474 134.395 117.86C133.906 118.235 133.708 118.682 133.791 119.193C133.833 119.391 133.906 119.589 134.02 119.797C134.379 121.964 134.885 124.943 135.541 128.735C136.192 132.526 136.671 135.37 136.978 137.255C137.281 139.047 137.192 140.401 136.708 141.318C136.442 141.162 135.9 141.156 135.083 141.297C134.442 141.391 133.921 141.698 133.52 142.214C133.129 142.74 132.989 143.339 133.103 144.005C133.353 145.573 134.656 146.276 137.02 146.11C137.421 146.136 137.874 146.11 138.374 146.026C139.583 145.828 140.666 145.276 141.624 144.36C142.343 143.662 142.817 142.406 143.041 140.589C143.109 140.089 143.218 139.568 143.374 139.026C143.51 138.36 143.583 137.464 143.583 136.339C143.593 135.214 143.546 134.313 143.437 133.63L141.083 120.464L140.999 120.026Z"
        fill="white"
    />
<path
        d="M146.316 123.896C145.483 123.594 144.983 122.974 144.816 122.042C144.707 121.365 144.879 120.677 145.337 119.98C145.78 119.287 146.42 118.761 147.254 118.396C147.53 117.927 147.884 117.605 148.316 117.438C148.524 117.355 148.78 117.245 149.087 117.105C149.389 116.954 149.592 116.855 149.691 116.813C149.785 116.771 149.931 116.709 150.129 116.625C150.321 116.532 150.462 116.474 150.545 116.459C150.639 116.448 150.785 116.412 150.983 116.355C151.191 116.302 151.389 116.261 151.587 116.23C151.78 116.188 152.024 116.146 152.316 116.105C154.425 115.761 156.056 116.454 157.212 118.188C158.379 119.927 159.28 122.511 159.92 125.938L161.004 132.396C161.097 133.037 160.952 133.625 160.566 134.167C160.175 134.709 159.67 135.032 159.045 135.125C158.17 135.282 157.441 135.021 156.858 134.355C155.691 135.37 154.446 135.98 153.129 136.188C151.613 136.438 150.316 136.313 149.233 135.813C148.16 135.313 147.524 134.427 147.316 133.146C146.952 130.995 147.342 128.792 148.483 126.542C149.634 124.292 151.118 122.959 152.941 122.542C152.733 122.292 152.55 122.099 152.399 121.959C150.952 122.198 149.925 122.454 149.316 122.73C148.925 123.427 148.337 123.844 147.545 123.98C147.087 124.063 146.675 124.037 146.316 123.896ZM153.983 127.25L153.795 127.355C153.613 127.537 153.42 127.771 153.212 128.063C153.071 128.302 152.8 128.802 152.399 129.563C152.202 130.052 152.077 130.417 152.024 130.667C151.858 131.334 151.8 131.844 151.858 132.188C151.842 132.23 151.842 132.292 151.858 132.375C151.91 132.407 152.014 132.407 152.17 132.375C152.462 132.323 152.733 132.23 152.983 132.105C153.285 131.927 153.488 131.766 153.587 131.625L154.545 130.896L155.108 130.417L154.483 127.167L153.983 127.25Z"
        fill="white"
    />
<path
        d="M89.0626 59.9313C93.1459 54.8897 95.8178 52.2647 97.0834 52.0563C98.3438 51.848 99.6042 52.2178 100.854 53.1605C102.104 54.0928 102.651 55.0668 102.5 56.0772C102.344 57.0772 102.833 62.6553 103.958 72.8063C105.068 82.9886 105.734 88.1397 105.958 88.2647C106.026 88.3063 107.651 88.4261 110.833 88.6188C114.026 88.8011 116.281 89.598 117.604 91.0147C118.938 92.4209 118.859 94.0563 117.375 95.9313C116.792 96.6813 116.13 97.1501 115.396 97.3272C114.656 97.5095 113.385 97.5563 111.583 97.473C109.776 97.3897 107.719 97.5147 105.417 97.848C103.125 98.1813 101.031 98.5563 99.1459 98.973C97.2553 99.3897 94.8334 99.9053 91.8751 100.515C88.9271 101.114 86.9584 101.515 85.9584 101.723L84.1667 99.8272C83.3021 98.9834 82.8386 98.348 82.7709 97.9313C82.698 97.5043 82.8594 96.7751 83.2501 95.7438C83.6355 94.8011 84.2292 94.098 85.0209 93.6397C85.8126 93.1709 87.6928 92.5251 90.6667 91.7022L97.3126 89.8688C95.3386 78.0511 94.3959 71.5668 94.4792 70.4105C94.573 69.2438 94.5105 68.6813 94.2917 68.723C94.0834 68.7543 93.0469 69.7386 91.1876 71.6813C89.323 73.6293 87.8126 74.697 86.6459 74.8897C85.4896 75.0876 84.3126 74.5251 83.1042 73.2022C81.8959 71.8688 81.6771 70.4053 82.4584 68.8063C83.2344 67.197 85.4376 64.2386 89.0626 59.9313Z"
        fill="white"
    />
</svg>
