<svg width="84.614mm" height="70.299mm" clip-rule="evenodd" fill-rule="evenodd"
  image-rendering="optimizeQuality" shape-rendering="geometricPrecision"
  text-rendering="geometricPrecision" version="1.1" viewBox="0 0 1645 1366.7" xml:space="preserve"
  xmlns="http://www.w3.org/2000/svg">
 <defs>
   </defs>
 <g transform="translate(-.03 -44.367)" fill="#4c4083">
  <path class="fil1" d="m1053.7 290.29c0 151.83-133.4 151.43-222.12 305.75-1.4-172.34 123.62-258.69 128.99-262.25l-23.17-34.91c-5.37 3.63-114 77.83-141.5 225.33-13.64-81.51-11.86-177.63 34.35-245.78 53.3-77.16 169.4-66.81 223.45-66.81v78.66zm0 319.23c-80.51 0-131.92-6.31-198.31 32.81 38.91-95.4 150.85-166.62 185.96-201.74 17.65-21.37 12.35-56.46 12.35 168.93zm-276.02 17.52c8.29 28.64-7.17-17.52-106.03-17.52h-78.67v-397.89c47.83 0 148.18-9.44 201.94 44.32-70.3 93.78-52.66 254.25-17.24 371.09zm45.65-541.07c97.61 0 150.12 83.98 142.34 83.98-33.26 1.58-65.8 9.02-101.49 27.64-58.84 39.32-26.73 28.59-84.4-1.54-31.02-15.5-61.92-24.49-98.84-26.1-7.64 0 44.82-83.98 142.4-83.98zm191.89 83.77c-73.04-167.2-310.77-167.13-383.78 0-106.81 0-80.35-54.57-80.35 460.73 0 27.94 26.52 20.93 120.56 20.93 100.18 0 118.98 61.85 158.12 61.85v-0.06c0.96 0 5.04-2.45 5.17-2.45 68.95-68.95 143.11-59.34 239.71-59.34 29.85 0 20.93-0.37 20.93-460.71 0-29.58-41.6-20.94-80.34-20.94z"/><path class="fil1" d="m72.78 870.43h29.58l42.4 92.3 42.6-92.3h29.39v137.86h-28.6v-78.3l-36.49 78.3h-13.81l-36.29-78.3v78.3h-28.79v-137.86zm211.02 0h29.39l55.02 137.86h-30.57l-11.83-29.98h-54.63l-11.83 29.98h-30.77zm34.12 84.01-19.52-52.46-19.53 52.46zm66.86-84.01h29.98v59.95l52.07-59.95h35.7l-58.38 67.25 62.32 70.6h-35.7l-56.01-63.31v63.31h-29.98v-137.86zm164.28 25.05h-40.23v-25.05h110.44v25.05h-40.23v112.81h-29.98zm110.05-25.05h29.39l55.02 137.86h-30.57l-11.83-29.98h-54.63l-11.83 29.98h-30.77zm34.12 84.01-19.52-52.46-19.53 52.46zm66.86-84.01h67.65c13.02 0 23.21 3.22 30.57 9.66s11.04 15.78 11.04 28c0 6.18-1.45 11.8-4.34 16.86s-6.84 8.97-11.83 11.73c6.84 2.5 11.96 6.28 15.38 11.34s5.13 11.67 5.13 19.82c0 8.28-1.87 15.48-5.62 21.6-3.75 6.11-8.87 10.78-15.38 14s-13.71 4.83-21.6 4.83h-71v-137.86zm61.93 56.01c5.26 0 9.4-1.32 12.43-3.94 3.02-2.63 4.54-6.84 4.54-12.62 0-6.31-1.48-10.65-4.44-13.02s-7.46-3.55-13.51-3.55h-30.96v33.13h31.95zm1.78 58.97c6.44 0 11.34-1.28 14.69-3.85 3.35-2.56 5.03-7.07 5.03-13.51 0-6.58-1.74-11.31-5.23-14.2-3.48-2.89-8.65-4.34-15.48-4.34h-32.74v35.89h33.73zm137.26 25.84c-14.73 0-27.74-2.93-39.05-8.78s-20.05-14.17-26.23-24.95-9.27-23.47-9.27-38.06 3.09-27.32 9.27-38.16c6.18-10.85 14.92-19.2 26.23-25.05s24.32-8.78 39.05-8.78c9.99 0 18.83 1.02 26.53 3.06 7.69 2.04 14.76 5.23 21.2 9.57v28.6c-5.78-4.73-12.39-8.18-19.82-10.35s-15.88-3.25-25.34-3.25c-8.81 0-16.73 1.81-23.77 5.42-7.03 3.62-12.59 8.78-16.67 15.48-4.07 6.71-6.11 14.53-6.11 23.47 0 9.07 1.87 16.99 5.62 23.77 3.75 6.77 9.04 12 15.88 15.68s14.73 5.52 23.67 5.52c8.15 0 15.25-1.45 21.3-4.34v-26.63h-22.29v-22.09h51.28v66.46c-13.02 8.94-30.18 13.41-51.48 13.41zm119.52-140.82h29.39l55.02 137.86h-30.57l-11.83-29.98h-54.63l-11.83 29.98h-30.77zm34.12 84.01-19.52-52.46-19.53 52.46zm126.62 56.8c-14.73 0-27.74-2.93-39.05-8.78s-20.05-14.17-26.23-24.95-9.27-23.47-9.27-38.06 3.09-27.32 9.27-38.16c6.18-10.85 14.92-19.2 26.23-25.05s24.32-8.78 39.05-8.78c19.06 0 34.97 4.34 47.73 13.02v28.4c-5.78-4.86-12.39-8.38-19.82-10.55s-15.88-3.25-25.34-3.25c-14.33 0-25.67 3.98-34.02 11.93s-12.52 18.77-12.52 32.44c0 13.81 4.21 24.68 12.62 32.64s19.72 11.93 33.92 11.93c9.73 0 18.34-1.15 25.84-3.45 7.49-2.3 14.46-6.02 20.91-11.14v28.4c-12.1 8.94-28.53 13.41-49.31 13.41zm66.07-140.82h29.98v55.22h60.15v-55.22h29.98v137.86h-29.98v-57.79h-60.15v57.79h-29.98zm191.89 0h29.39l55.02 137.86h-30.57l-11.83-29.98h-54.63l-11.83 29.98h-30.77zm34.12 84.01-19.52-52.46-19.53 52.46zm-1283.1 115.92h31.95l37.87 98.02 38.06-98.02h31.75l-55.02 137.86h-29.39zm180.85 0h29.39l55.02 137.86h-30.57l-11.83-29.98h-54.63l-11.83 29.98h-30.77zm34.12 84.01-19.52-52.46-19.53 52.46zm135.88-84.01h29.58l42.4 92.3 42.6-92.3h29.39v137.86h-28.6v-78.3l-36.49 78.3h-13.81l-36.29-78.3v78.3h-28.79v-137.86zm211.02 0h29.39l55.02 137.86h-30.57l-11.83-29.98h-54.63l-11.83 29.98h-30.77zm34.12 84.01-19.52-52.46-19.53 52.46zm66.86-84.01h29.98v59.95l52.07-59.95h35.7l-58.38 67.25 62.32 70.6h-35.7l-56.01-63.31v63.31h-29.98v-137.86zm164.28 25.05h-40.23v-25.05h110.44v25.05h-40.23v112.81h-29.98zm110.05-25.05h29.39l55.02 137.86h-30.57l-11.83-29.98h-54.63l-11.83 29.98h-30.77zm34.12 84.01-19.52-52.46-19.53 52.46zm66.86-84.01h67.65c13.02 0 23.21 3.22 30.57 9.66s11.04 15.78 11.04 28c0 6.18-1.45 11.8-4.34 16.86s-6.84 8.97-11.83 11.73c6.84 2.5 11.96 6.28 15.38 11.34s5.13 11.67 5.13 19.82c0 8.28-1.87 15.48-5.62 21.6-3.75 6.11-8.87 10.78-15.38 14s-13.71 4.83-21.6 4.83h-71v-137.86zm61.93 56.01c5.26 0 9.4-1.32 12.43-3.94 3.02-2.63 4.54-6.84 4.54-12.62 0-6.31-1.48-10.65-4.44-13.02s-7.46-3.55-13.51-3.55h-30.96v33.13h31.95zm1.78 58.97c6.44 0 11.34-1.28 14.69-3.85 3.35-2.56 5.03-7.07 5.03-13.51 0-6.58-1.74-11.31-5.23-14.2-3.48-2.89-8.65-4.34-15.48-4.34h-32.74v35.89h33.73zm-1311.9 110h-40.23v-25.05h110.44v25.05h-40.23v112.81h-29.98zm110.05-25.05h29.39l55.02 137.86h-30.57l-11.83-29.98h-54.63l-11.83 29.98h-30.77zm34.12 84.01-19.52-52.46-19.53 52.46zm121.09-84.01h29.98v112.81h63.11v25.05h-93.09zm105.91 0h29.98v137.86h-29.98zm50.69 0h29.58l42.4 92.3 42.6-92.3h29.39v137.86h-28.6v-78.3l-36.49 78.3h-13.81l-36.29-78.3v78.3h-28.79v-137.86zm164.68 0h29.98v137.86h-29.98zm115.77 0h31.95l37.87 98.02 38.06-98.02h31.75l-55.02 137.86h-29.39zm180.85 0h29.39l55.02 137.86h-30.57l-11.83-29.98h-54.63l-11.83 29.98h-30.77zm34.12 84.01-19.52-52.46-19.53 52.46zm59.96 33.92 67.45-92.89h-65.67v-25.05h102.75v20.12l-67.05 92.69h71v25.05h-108.47v-19.92zm125.23-117.94h29.98v137.86h-29.98zm50.69 0h59.76c15.65 0 27.84 3.91 36.58 11.73s13.12 19.1 13.12 33.82c0 10.26-2.37 18.97-7.1 26.13-4.73 7.17-11.44 12.39-20.12 15.68l26.23 50.49h-30.77l-24.26-46.74h-23.47v46.74h-29.98v-137.86zm54.43 66.07c7.62 0 13.64-1.64 18.05-4.93 4.4-3.29 6.61-8.48 6.61-15.58 0-7.49-2.17-12.79-6.51-15.88s-10.39-4.63-18.14-4.63h-24.46v41.02h24.46zm71.79-66.07h29.98v112.81h63.11v25.05h-93.09zm105.91 0h29.98v137.86h-29.98zm121.29 140.82c-14.73 0-27.74-2.93-39.05-8.78s-20.05-14.17-26.23-24.95-9.27-23.47-9.27-38.06 3.09-27.32 9.27-38.16c6.18-10.85 14.92-19.2 26.23-25.05s24.32-8.78 39.05-8.78c9.99 0 18.83 1.02 26.53 3.06 7.69 2.04 14.76 5.23 21.2 9.57v28.6c-5.78-4.73-12.39-8.18-19.82-10.35s-15.88-3.25-25.34-3.25c-8.81 0-16.73 1.81-23.77 5.42-7.03 3.62-12.59 8.78-16.67 15.48-4.07 6.71-6.11 14.53-6.11 23.47 0 9.07 1.87 16.99 5.62 23.77 3.75 6.77 9.04 12 15.88 15.68s14.73 5.52 23.67 5.52c8.15 0 15.25-1.45 21.3-4.34v-26.63h-22.29v-22.09h51.28v66.46c-13.02 8.94-30.18 13.41-51.48 13.41zm68.24-140.82h29.98v137.86h-29.98zm-1354.9-2.96h28.6l-15.98 39.05h-25.44z"/>
 </g>
</svg>