<?xml version="1.0" encoding="UTF-8" standalone="no"?>
<!-- Created with Inkscape (http://www.inkscape.org/) -->

<svg
   xmlns:dc="http://purl.org/dc/elements/1.1/"
   xmlns:cc="http://creativecommons.org/ns#"
   xmlns:rdf="http://www.w3.org/1999/02/22-rdf-syntax-ns#"
   xmlns:svg="http://www.w3.org/2000/svg"
   xmlns="http://www.w3.org/2000/svg"
   xmlns:xlink="http://www.w3.org/1999/xlink"
   xmlns:sodipodi="http://sodipodi.sourceforge.net/DTD/sodipodi-0.dtd"
   xmlns:inkscape="http://www.inkscape.org/namespaces/inkscape"
   width="48px"
   height="48px"
   id="svg11162"
   version="1.1"
   inkscape:version="0.91 r13725"
   sodipodi:docname="bloom-collection.svg">
  <defs
     id="defs11164">
    <linearGradient
       inkscape:collect="always"
       xlink:href="#linearGradient4580-1-5"
       id="linearGradient11111"
       gradientUnits="userSpaceOnUse"
       gradientTransform="matrix(0.78527196,0,0,1.2734441,-8.1435884,-84.942834)"
       x1="156.43378"
       y1="31.494879"
       x2="125.34739"
       y2="59.78624" />
    <linearGradient
       id="linearGradient4580-1-5">
      <stop
         id="stop4582-9-9"
         offset="0"
         stop-color="#d3b46b" />
      <stop
         id="stop4584-4-6"
         offset="1"
         stop-color="#ad9457" />
    </linearGradient>
    <linearGradient
       inkscape:collect="always"
       xlink:href="#linearGradient4564-3-7"
       id="linearGradient11114"
       gradientUnits="userSpaceOnUse"
       gradientTransform="matrix(1.3882248,0,0,0.72034433,-8.1435884,-84.942834)"
       x1="32.769352"
       y1="96.974602"
       x2="5.3701138"
       y2="120.56913" />
    <linearGradient
       id="linearGradient4564-3-7">
      <stop
         id="stop4566-7-9"
         offset="0"
         stop-color="#c6a965" />
      <stop
         id="stop4568-5-0"
         offset="1"
         stop-color="#b79d5d" />
    </linearGradient>
    <linearGradient
       inkscape:collect="always"
       xlink:href="#linearGradient4564-3-7"
       id="linearGradient11238"
       gradientUnits="userSpaceOnUse"
       gradientTransform="matrix(1.3882248,0,0,0.72034433,-14.000731,-96.085691)"
       x1="32.769352"
       y1="96.974602"
       x2="5.3701138"
       y2="120.56913" />
    <linearGradient
       inkscape:collect="always"
       xlink:href="#linearGradient4580-1-5"
       id="linearGradient11240"
       gradientUnits="userSpaceOnUse"
       gradientTransform="matrix(0.78527196,0,0,1.2734441,-14.000731,-96.085691)"
       x1="156.43378"
       y1="31.494879"
       x2="125.34739"
       y2="59.78624" />
    <linearGradient
       inkscape:collect="always"
       xlink:href="#linearGradient4580-1-5"
       id="linearGradient11243"
       gradientUnits="userSpaceOnUse"
       gradientTransform="matrix(0.78527196,0,0,1.2734441,-8.1435881,-84.942834)"
       x1="156.43378"
       y1="31.494879"
       x2="125.34739"
       y2="59.78624" />
    <linearGradient
       inkscape:collect="always"
       xlink:href="#linearGradient4564-3-7"
       id="linearGradient11246"
       gradientUnits="userSpaceOnUse"
       gradientTransform="matrix(1.3882248,0,0,0.72034433,-8.1435881,-84.942834)"
       x1="32.769352"
       y1="96.974602"
       x2="5.3701138"
       y2="120.56913" />
  </defs>
  <sodipodi:namedview
     id="base"
     pagecolor="#ffffff"
     bordercolor="#666666"
     borderopacity="1.0"
     inkscape:pageopacity="0.0"
     inkscape:pageshadow="2"
     inkscape:zoom="6.9999999"
     inkscape:cx="-13.386752"
     inkscape:cy="-14.632752"
     inkscape:current-layer="layer1"
     showgrid="true"
     inkscape:grid-bbox="true"
     inkscape:document-units="px"
     inkscape:window-width="1719"
     inkscape:window-height="1177"
     inkscape:window-x="1192"
     inkscape:window-y="468"
     inkscape:window-maximized="1" />
  <metadata
     id="metadata11167">
    <rdf:RDF>
      <cc:Work
         rdf:about="">
        <dc:format>image/svg+xml</dc:format>
        <dc:type
           rdf:resource="http://purl.org/dc/dcmitype/StillImage" />
      </cc:Work>
    </rdf:RDF>
  </metadata>
  <g
     id="layer1"
     inkscape:label="Layer 1"
     inkscape:groupmode="layer">
    <path
       style="fill:#0c8597;fill-opacity:1"
       d="M 1.0761719 0.48046875 L 1.0761719 19.839844 L 1.0761719 39.201172 L 3.6972656 39.201172 L 6.3203125 39.201172 L 6.3203125 21.251953 L 6.3203125 3.3027344 L 19.025391 3.3027344 L 31.732422 3.3027344 L 31.732422 1.890625 L 31.732422 0.48046875 L 16.404297 0.48046875 L 1.0761719 0.48046875 z M 9.1425781 6.1269531 L 9.1425781 25.083984 L 9.1425781 44.042969 L 12.572266 44.042969 L 16 44.042969 L 16 26.09375 L 16 8.1425781 L 27.496094 8.1425781 L 38.992188 8.1425781 L 38.992188 7.1347656 L 38.992188 6.1269531 L 24.068359 6.1269531 L 9.1425781 6.1269531 z M 18.824219 10.966797 L 18.824219 29.722656 L 18.824219 48.478516 L 33.546875 48.478516 L 48.269531 48.478516 L 48.269531 29.722656 L 48.269531 10.966797 L 33.546875 10.966797 L 18.824219 10.966797 z M 23.449219 16.222656 A 1.8767469 1.8767469 0 0 1 23.822266 16.255859 C 26.367756 16.734666 29.422959 17.840974 31.423828 19.298828 A 1.8767469 1.8767469 0 0 1 31.441406 19.310547 C 32.259216 19.921285 33.791474 20.982414 34.929688 22.990234 C 36.0679 24.998055 36.814131 27.868288 36.744141 32.148438 L 32.990234 32.087891 C 33.052734 28.265718 32.396876 26.134489 31.664062 24.841797 C 30.93614 23.557733 30.133444 23.017219 29.214844 22.332031 C 28.460368 21.782312 26.806917 21.113569 25.191406 20.578125 C 24.826778 24.212836 24.96979 28.038117 26.089844 30.972656 C 27.428034 34.478713 29.503484 36.587103 33.455078 36.595703 C 34.714341 36.556034 36.549621 36.075575 38.0625 35.152344 C 39.585476 34.22295 40.759937 32.931281 41.197266 31.248047 A 1.8767469 1.8767469 0 0 0 41.197266 31.246094 C 41.831046 28.823417 41.645298 22.797873 41.548828 20.347656 C 39.015924 20.794381 36.695312 22.443359 36.695312 22.443359 L 34.320312 19.539062 C 34.320313 19.539062 38.409585 15.956088 43.546875 16.453125 A 1.8767469 1.8767469 0 0 1 45.234375 18.138672 C 45.350929 19.343534 46.049734 27.528526 44.830078 32.193359 L 44.830078 32.195312 C 44.096906 35.01491 42.147946 37.055416 40.017578 38.355469 C 37.88676 39.655797 35.556998 40.296863 33.527344 40.351562 A 1.8767469 1.8767469 0 0 1 33.476562 40.353516 C 27.995026 40.353516 24.278671 36.750622 22.583984 32.310547 C 20.889298 27.870471 20.7826 22.520834 21.626953 17.771484 A 1.8767469 1.8767469 0 0 1 23.449219 16.222656 z "
       id="path8763-1-6"
       inkscape:export-xdpi="91.540001"
       inkscape:export-ydpi="91.540001" />
  </g>
</svg>
