<svg width="398" height="281" viewBox="0 0 398 281" fill="none" xmlns="http://www.w3.org/2000/svg">
  <style>
    /* Default color for standalone viewing - overridden by currentColor when embedded in HTML */
    svg {
      color: #636363;
    }
  </style><rect width="398" height="280.5" fill="white"/><path d="M103.773 113.373C102.935 116.395 109.65 120.61 112.269 119.758C110.009 124.739 108.133 129.986 106.536 135.211C105.982 136.98 105.212 138.678 103.998 140.095C102.922 141.331 101.525 142.171 99.8959 142.41C96.3097 142.894 93.0782 140.21 91.1015 137.503C89.4616 135.234 88.3181 132.648 87.904 129.869C87.4287 126.679 87.9133 123.682 89.815 121.02C93.0887 116.503 99.0547 115.707 103.773 113.373ZM102.385 117.998C99.3303 119.254 95.0163 120.294 92.9385 123.124C91.6616 124.863 91.2582 126.85 91.6253 129.313C91.9375 131.409 92.7513 133.338 94.0417 135.146C95.1664 136.721 97.2457 139.017 99.4495 138.669C101.573 138.288 102.51 135.553 103.037 133.787C104.237 129.767 105.755 125.824 107.3 121.926C105.687 121.296 103.428 119.315 102.385 117.998Z" fill="currentColor"/>
<path d="M111.369 119.467C113.98 121.199 120.061 116.109 120.061 113.353C124.095 117.043 128.502 120.451 132.973 123.585C134.482 124.659 135.858 125.917 136.829 127.51C137.671 128.916 138.038 130.506 137.761 132.13C137.113 135.694 133.564 137.941 130.38 138.985C127.719 139.846 124.907 140.135 122.139 139.67C118.96 139.137 116.263 137.75 114.321 135.117C111.04 130.605 112.128 124.679 111.369 119.467ZM115.333 122.217C115.584 125.513 115.238 129.941 117.285 132.794C118.543 134.546 120.307 135.544 122.761 135.956C124.848 136.307 126.933 136.128 129.05 135.458C130.894 134.875 133.718 133.605 134.069 131.399C134.363 129.261 132.053 127.523 130.538 126.476C127.089 124.091 123.812 121.428 120.585 118.752C119.488 120.093 116.907 121.632 115.333 122.217Z" fill="currentColor"/>
<path d="M119.506 114.12C121.958 112.169 119.001 104.808 116.382 103.956C121.136 101.256 125.735 98.1144 130.095 94.827C131.582 93.7218 133.202 92.8011 135.016 92.3686C136.613 92.002 138.236 92.1442 139.694 92.9096C142.88 94.6274 143.918 98.7003 143.927 102.053C143.922 104.853 143.328 107.619 142.031 110.11C140.542 112.971 138.391 115.11 135.289 116.145C129.987 117.874 124.693 115.008 119.506 114.12ZM123.345 111.195C126.554 111.976 130.654 113.673 133.997 112.606C136.052 111.95 137.545 110.58 138.695 108.371C139.672 106.492 140.147 104.452 140.165 102.231C140.18 100.294 139.846 97.2136 137.859 96.1981C135.917 95.2576 133.553 96.9189 132.09 98.0375C128.758 100.584 125.214 102.881 121.675 105.126C122.61 106.584 123.274 109.516 123.345 111.195Z" fill="currentColor"/>
<path d="M116.939 104.721C115.844 101.784 107.935 102.324 106.317 104.554C105.22 99.1948 103.656 93.8457 101.88 88.6798C101.289 86.9227 100.915 85.0956 101.065 83.2351C101.21 81.6022 101.846 80.101 103.024 78.9492C105.641 76.4473 109.832 76.7179 113.021 77.7453C115.68 78.6154 118.124 80.0356 120.091 82.0399C122.349 84.3413 123.716 87.0504 123.741 90.323C123.746 95.9039 119.386 100.058 116.939 104.721ZM115.347 100.163C117.08 97.3498 119.96 93.9708 119.979 90.4588C119.991 88.3005 119.15 86.4558 117.406 84.6786C115.923 83.1673 114.132 82.0851 112.027 81.3818C110.191 80.7687 107.161 80.1347 105.582 81.7125C104.088 83.2701 104.936 86.0342 105.547 87.7729C106.937 91.7316 108.024 95.8145 109.064 99.8772C110.738 99.4379 113.73 99.7113 115.347 100.163Z" fill="currentColor"/>
<path d="M107.216 104.26C104.086 104.396 102.156 112.09 103.775 114.32C98.3435 113.708 92.7776 113.544 87.32 113.639C85.4679 113.658 83.6162 113.449 81.8946 112.732C80.3878 112.089 79.1582 111.019 78.4277 109.542C76.8591 106.278 78.4112 102.372 80.3728 99.6542C82.0212 97.3922 84.126 95.5042 86.6383 94.2514C89.5229 92.813 92.5195 92.3485 95.6368 93.3361C100.941 95.0563 103.541 100.49 107.216 104.26ZM102.393 104.367C100.255 101.848 97.9345 98.0627 94.6032 96.9594C92.5561 96.2813 90.5436 96.5114 88.316 97.6221C86.4217 98.5668 84.8399 99.9376 83.5209 101.725C82.3713 103.282 80.8324 105.971 81.8438 107.961C82.8622 109.865 85.7506 109.912 87.5915 109.867C91.7826 109.768 95.9981 109.994 100.18 110.26C100.28 108.53 101.464 105.767 102.393 104.367Z" fill="currentColor"/>
<path d="M119.476 111.191C119.476 106.9 116.001 103.422 111.714 103.422C107.427 103.422 103.952 106.9 103.952 111.191C103.952 115.482 107.427 118.96 111.714 118.96V122.726C105.349 122.726 100.189 117.562 100.189 111.191C100.189 104.821 105.349 99.6562 111.714 99.6562C118.079 99.6562 123.239 104.821 123.239 111.191C123.239 117.562 118.079 122.726 111.714 122.726V118.96C116.001 118.96 119.476 115.482 119.476 111.191Z" fill="currentColor"/>
<path d="M182.916 113.373C182.078 116.395 188.793 120.61 191.412 119.758C189.152 124.739 187.276 129.986 185.679 135.211C185.125 136.98 184.355 138.678 183.141 140.095C182.065 141.331 180.668 142.171 179.039 142.41C175.453 142.894 172.221 140.21 170.245 137.503C168.605 135.234 167.461 132.648 167.047 129.869C166.572 126.679 167.056 123.682 168.958 121.02C172.232 116.503 178.198 115.707 182.916 113.373ZM181.528 117.998C178.473 119.254 174.159 120.294 172.082 123.124C170.805 124.863 170.401 126.85 170.768 129.313C171.081 131.409 171.894 133.338 173.185 135.146C174.31 136.721 176.389 139.017 178.593 138.669C180.716 138.288 181.653 135.553 182.18 133.787C183.38 129.767 184.898 125.824 186.443 121.926C184.83 121.296 182.571 119.315 181.528 117.998Z" fill="currentColor"/>
<path d="M190.512 119.467C193.123 121.199 199.204 116.109 199.204 113.353C203.238 117.043 207.645 120.451 212.116 123.585C213.625 124.659 215.001 125.917 215.972 127.51C216.814 128.916 217.181 130.506 216.904 132.13C216.256 135.694 212.707 137.941 209.524 138.985C206.862 139.846 204.05 140.135 201.282 139.67C198.104 139.137 195.406 137.75 193.464 135.117C190.183 130.605 191.271 124.679 190.512 119.467ZM194.477 122.217C194.727 125.513 194.381 129.941 196.428 132.794C197.686 134.546 199.45 135.544 201.904 135.956C203.991 136.307 206.076 136.128 208.193 135.458C210.037 134.875 212.861 133.605 213.212 131.399C213.506 129.261 211.196 127.523 209.681 126.476C206.232 124.091 202.955 121.428 199.728 118.752C198.631 120.093 196.051 121.632 194.477 122.217Z" fill="currentColor"/>
<path d="M198.649 114.119C201.101 112.169 198.144 104.807 195.525 103.956C200.279 101.256 204.878 98.1141 209.238 94.8267C210.725 93.7215 212.345 92.8009 214.159 92.3683C215.756 92.0018 217.379 92.144 218.837 92.9093C222.023 94.6272 223.061 98.7001 223.071 102.053C223.065 104.853 222.471 107.619 221.174 110.11C219.685 112.971 217.534 115.11 214.432 116.145C209.13 117.874 203.836 115.008 198.649 114.119ZM202.488 111.195C205.697 111.976 209.797 113.673 213.14 112.605C215.195 111.95 216.688 110.58 217.838 108.37C218.815 106.492 219.29 104.452 219.308 102.23C219.323 100.294 218.989 97.2133 217.002 96.1979C215.06 95.2573 212.696 96.9187 211.233 98.0373C207.901 100.584 204.357 102.881 200.818 105.126C201.753 106.584 202.418 109.516 202.488 111.195Z" fill="currentColor"/>
<path d="M196.083 104.721C194.987 101.784 187.078 102.324 185.46 104.554C184.363 99.1948 182.799 93.8457 181.023 88.6798C180.432 86.9227 180.058 85.0956 180.208 83.2351C180.353 81.6022 180.989 80.101 182.167 78.9492C184.784 76.4473 188.975 76.7179 192.164 77.7453C194.823 78.6154 197.267 80.0356 199.234 82.0399C201.492 84.3413 202.859 87.0504 202.884 90.323C202.889 95.9039 198.529 100.058 196.083 104.721ZM194.49 100.163C196.223 97.3498 199.103 93.9708 199.122 90.4588C199.134 88.3005 198.293 86.4558 196.549 84.6786C195.066 83.1673 193.275 82.0851 191.17 81.3818C189.334 80.7687 186.304 80.1347 184.725 81.7125C183.231 83.2701 184.079 86.0342 184.69 87.7729C186.08 91.7316 187.167 95.8145 188.207 99.8772C189.882 99.4379 192.873 99.7113 194.49 100.163Z" fill="currentColor"/>
<path d="M186.359 104.26C183.229 104.396 181.299 112.09 182.918 114.32C177.487 113.708 171.921 113.544 166.463 113.639C164.611 113.658 162.759 113.449 161.038 112.732C159.531 112.089 158.301 111.019 157.571 109.542C156.002 106.278 157.554 102.372 159.516 99.6542C161.164 97.3922 163.269 95.5042 165.781 94.2514C168.666 92.813 171.663 92.3485 174.78 93.3361C180.084 95.0563 182.684 100.49 186.359 104.26ZM181.536 104.367C179.398 101.848 177.078 98.0627 173.746 96.9594C171.699 96.2813 169.687 96.5114 167.459 97.6221C165.565 98.5668 163.983 99.9376 162.664 101.725C161.514 103.282 159.975 105.971 160.987 107.961C162.005 109.865 164.894 109.912 166.735 109.867C170.926 109.768 175.141 109.994 179.323 110.26C179.423 108.53 180.607 105.767 181.536 104.367Z" fill="currentColor"/>
<path d="M198.619 111.191C198.619 106.9 195.144 103.422 190.857 103.422C186.57 103.422 183.095 106.9 183.095 111.191C183.095 115.482 186.57 118.96 190.857 118.96V122.726C184.492 122.726 179.333 117.562 179.333 111.191C179.333 104.821 184.492 99.6562 190.857 99.6562C197.222 99.6562 202.382 104.821 202.382 111.191C202.382 117.562 197.222 122.726 190.857 122.726V118.96C195.144 118.96 198.619 115.482 198.619 111.191Z" fill="currentColor"/>
<path d="M115.49 175.71H113.066V160.266C112.483 160.822 111.715 161.379 110.764 161.935C109.821 162.492 108.973 162.909 108.219 163.188V160.845C109.574 160.207 110.759 159.435 111.774 158.529C112.788 157.622 113.506 156.742 113.928 155.89H115.49V175.71Z" fill="currentColor"/>
<path d="M151.124 172.519V167.106H145.751V164.844H151.124V159.471H153.413V164.844H158.785V167.106H153.413V172.519H151.124Z" fill="currentColor"/>
<path d="M194.49 175.71H192.066V160.266C191.483 160.822 190.715 161.379 189.764 161.935C188.821 162.492 187.973 162.909 187.219 163.188V160.845C188.574 160.207 189.759 159.435 190.774 158.529C191.788 157.622 192.506 156.742 192.928 155.89H194.49V175.71Z" fill="currentColor"/>
<path d="M237.785 164.103H224.751V161.841H237.785V164.103ZM237.785 170.095H224.751V167.833H237.785V170.095Z" fill="currentColor"/>
<path d="M309.746 144.467H263.216V186.953H309.746V144.467Z" stroke="currentColor" stroke-width="2" stroke-linejoin="round"/>
</svg>
