<svg width="281" height="398" viewBox="0 0 281 398" fill="none" xmlns="http://www.w3.org/2000/svg">
  <style>
    /* Default color for standalone viewing - overridden by currentColor when embedded in HTML */
    svg {
      color: #636363;
    }
  </style><rect width="280.5" height="398" fill="white"/><path d="M42.7731 95.3732C41.9346 98.3945 48.6498 102.61 51.2688 101.758C49.0087 106.739 47.1328 111.986 45.5362 117.211C44.9822 118.98 44.2118 120.678 42.9983 122.095C41.922 123.331 40.5254 124.171 38.8959 124.41C35.3097 124.894 32.0782 122.21 30.1015 119.503C28.4616 117.234 27.3181 114.647 26.904 111.869C26.4287 108.678 26.9133 105.682 28.815 103.02C32.0887 98.5024 38.0547 97.7065 42.7731 95.3732ZM41.3848 99.9974C38.3303 101.254 34.0163 102.293 31.9385 105.124C30.6616 106.863 30.2582 108.85 30.6253 111.313C30.9375 113.408 31.7513 115.338 33.0417 117.146C34.1664 118.721 36.2457 121.017 38.4495 120.669C40.5726 120.288 41.5099 117.553 42.037 115.787C43.237 111.767 44.7551 107.824 46.3 103.926C44.6872 103.296 42.4277 101.315 41.3848 99.9974Z" fill="currentColor"/>
<path d="M50.3687 101.467C52.9803 103.199 59.0609 98.1089 59.0608 95.3525C63.0952 99.0431 67.5015 102.451 71.9726 105.585C73.4823 106.659 74.8578 107.917 75.8294 109.51C76.6709 110.916 77.0375 112.506 76.7608 114.13C76.1131 117.694 72.5639 119.941 69.3805 120.985C66.7186 121.846 63.9069 122.135 61.1389 121.67C57.9604 121.137 55.2634 119.75 53.3214 117.117C50.0404 112.605 51.1277 106.679 50.3687 101.467ZM54.3335 104.217C54.5837 107.513 54.2383 111.941 56.2854 114.794C57.5434 116.546 59.3066 117.544 61.761 117.956C63.8482 118.307 65.933 118.128 68.0495 117.458C69.8942 116.875 72.7181 115.605 73.069 113.399C73.3626 111.261 71.0534 109.523 69.5383 108.476C66.0889 106.091 62.8117 103.428 59.5849 100.752C58.4879 102.093 55.9075 103.632 54.3335 104.217Z" fill="currentColor"/>
<path d="M58.5059 96.1196C60.9584 94.1687 58.0013 86.8074 55.3823 85.956C60.1356 83.2559 64.7349 80.1143 69.0946 76.8269C70.5817 75.7216 72.2022 74.801 74.0162 74.3685C75.6126 74.0019 77.2359 74.1441 78.6942 74.9095C81.8802 76.6273 82.9181 80.7002 82.9275 84.0533C82.9222 86.8532 82.3281 89.6188 81.0312 92.1103C79.5422 94.9712 77.3907 97.11 74.2888 98.1448C68.9874 99.8737 63.6933 97.0078 58.5059 96.1196ZM62.3447 93.1952C65.5538 93.9757 69.6543 95.6728 72.9972 94.6055C75.0516 93.9497 76.5447 92.5797 77.6945 90.3705C78.6724 88.4917 79.147 86.4521 79.1647 84.2305C79.1801 82.2939 78.8462 79.2135 76.8589 78.198C74.9173 77.2575 72.553 78.9188 71.0896 80.0374C67.7576 82.5841 64.214 84.8807 60.6749 87.1257C61.6099 88.584 62.2745 91.5159 62.3447 93.1952Z" fill="currentColor"/>
<path d="M55.9395 86.7214C54.8437 83.7837 46.9353 84.3239 45.3169 86.554C44.2201 81.1948 42.6563 75.8457 40.8799 70.6798C40.2892 68.9227 39.9152 67.0956 40.0647 65.2351C40.2098 63.6022 40.8464 62.101 42.0244 60.9492C44.6411 58.4473 48.8319 58.7179 52.0209 59.7453C54.6796 60.6154 57.1241 62.0356 59.0907 64.0399C61.3489 66.3413 62.7163 69.0504 62.7411 72.323C62.7457 77.9039 58.3863 82.0576 55.9395 86.7214ZM54.347 82.1634C56.0804 79.3498 58.9599 75.9708 58.9789 72.4588C58.9906 70.3005 58.1501 68.4558 56.4064 66.6786C54.9234 65.1673 53.132 64.0851 51.0265 63.3818C49.1912 62.7687 46.161 62.1347 44.5819 63.7125C43.0882 65.2701 43.9363 68.0342 44.5469 69.7729C45.9371 73.7316 47.0243 77.8145 48.0638 81.8772C49.7385 81.4379 52.7298 81.7113 54.347 82.1634Z" fill="currentColor"/>
<path d="M46.2162 86.2599C43.0862 86.3954 41.1557 94.0903 42.7747 96.3203C37.3435 95.7079 31.7776 95.5438 26.32 95.6385C24.4679 95.6577 22.6162 95.4492 20.8946 94.7318C19.3878 94.0892 18.1582 93.0193 17.4277 91.542C15.8591 88.278 17.4112 84.3722 19.3728 81.6541C21.0212 79.3921 23.126 77.504 25.6383 76.2513C28.5229 74.8129 31.5195 74.3484 34.6368 75.336C39.9411 77.0562 42.5409 82.4895 46.2162 86.2599ZM41.3932 86.3674C39.2554 83.848 36.9345 80.0626 33.6032 78.9592C31.5561 78.2812 29.5436 78.5113 27.316 79.622C25.4217 80.5667 23.8399 81.9374 22.5209 83.7245C21.3713 85.2821 19.8324 87.9707 20.8438 89.9613C21.8622 91.8645 24.7506 91.9114 26.5915 91.8674C30.7826 91.7674 34.9981 91.9941 39.1797 92.2601C39.2798 90.5301 40.4638 87.7673 41.3932 86.3674Z" fill="currentColor"/>
<path d="M58.4763 93.1912C58.4761 88.9003 55.001 85.422 50.7141 85.422C46.4272 85.422 42.9519 88.9003 42.9519 93.1912C42.9519 97.482 46.4272 100.96 50.7141 100.96V104.726C44.3492 104.726 39.1895 99.5619 39.1895 93.1912C39.1895 86.8206 44.3492 81.6561 50.7141 81.6561C57.079 81.6561 62.2385 86.8206 62.2387 93.1912C62.2387 99.5619 57.079 104.726 50.7141 104.726V100.96C55.001 100.96 58.4763 97.482 58.4763 93.1912Z" fill="currentColor"/>
<path d="M121.916 95.3732C121.078 98.3945 127.793 102.61 130.412 101.758C128.152 106.739 126.276 111.986 124.679 117.211C124.125 118.98 123.355 120.678 122.141 122.095C121.065 123.331 119.668 124.171 118.039 124.41C114.453 124.894 111.221 122.21 109.245 119.503C107.605 117.234 106.461 114.647 106.047 111.869C105.572 108.678 106.056 105.682 107.958 103.02C111.232 98.5024 117.198 97.7065 121.916 95.3732ZM120.528 99.9974C117.473 101.254 113.159 102.293 111.082 105.124C109.805 106.863 109.401 108.85 109.768 111.313C110.081 113.408 110.894 115.338 112.185 117.146C113.31 118.721 115.389 121.017 117.593 120.669C119.716 120.288 120.653 117.553 121.18 115.787C122.38 111.767 123.898 107.824 125.443 103.926C123.83 103.296 121.571 101.315 120.528 99.9974Z" fill="currentColor"/>
<path d="M129.512 101.467C132.123 103.199 138.204 98.1088 138.204 95.3524C142.238 99.0429 146.645 102.45 151.116 105.585C152.625 106.659 154.001 107.917 154.972 109.51C155.814 110.916 156.181 112.505 155.904 114.13C155.256 117.694 151.707 119.94 148.524 120.985C145.862 121.846 143.05 122.135 140.282 121.67C137.104 121.137 134.406 119.75 132.464 117.117C129.183 112.604 130.271 106.679 129.512 101.467ZM133.477 104.217C133.727 107.513 133.381 111.941 135.428 114.794C136.686 116.546 138.45 117.544 140.904 117.956C142.991 118.306 145.076 118.128 147.193 117.458C149.037 116.875 151.861 115.605 152.212 113.399C152.506 111.26 150.196 109.523 148.681 108.476C145.232 106.091 141.955 103.427 138.728 100.752C137.631 102.093 135.051 103.631 133.477 104.217Z" fill="currentColor"/>
<path d="M137.649 96.1196C140.101 94.1687 137.144 86.8074 134.525 85.956C139.279 83.2559 143.878 80.1143 148.238 76.8269C149.725 75.7216 151.345 74.801 153.159 74.3685C154.756 74.0019 156.379 74.1441 157.837 74.9095C161.023 76.6273 162.061 80.7002 162.071 84.0533C162.065 86.8532 161.471 89.6188 160.174 92.1103C158.685 94.9712 156.534 97.11 153.432 98.1448C148.13 99.8737 142.836 97.0078 137.649 96.1196ZM141.488 93.1952C144.697 93.9757 148.797 95.6728 152.14 94.6055C154.195 93.9497 155.688 92.5797 156.838 90.3705C157.815 88.4917 158.29 86.4521 158.308 84.2305C158.323 82.2939 157.989 79.2135 156.002 78.198C154.06 77.2575 151.696 78.9188 150.233 80.0374C146.901 82.5841 143.357 84.8807 139.818 87.1257C140.753 88.584 141.418 91.5159 141.488 93.1952Z" fill="currentColor"/>
<path d="M135.083 86.7214C133.987 83.7837 126.078 84.3239 124.46 86.554C123.363 81.1948 121.799 75.8457 120.023 70.6798C119.432 68.9227 119.058 67.0956 119.208 65.2351C119.353 63.6022 119.989 62.101 121.167 60.9492C123.784 58.4473 127.975 58.7179 131.164 59.7453C133.823 60.6154 136.267 62.0356 138.234 64.0399C140.492 66.3413 141.859 69.0504 141.884 72.323C141.889 77.9039 137.529 82.0576 135.083 86.7214ZM133.49 82.1634C135.223 79.3498 138.103 75.9708 138.122 72.4588C138.134 70.3005 137.293 68.4558 135.549 66.6786C134.066 65.1673 132.275 64.0851 130.17 63.3818C128.334 62.7687 125.304 62.1347 123.725 63.7125C122.231 65.2701 123.079 68.0342 123.69 69.7729C125.08 73.7316 126.167 77.8145 127.207 81.8772C128.882 81.4379 131.873 81.7113 133.49 82.1634Z" fill="currentColor"/>
<path d="M125.359 86.2599C122.229 86.3954 120.299 94.0903 121.918 96.3203C116.487 95.7079 110.921 95.5438 105.463 95.6385C103.611 95.6577 101.759 95.4492 100.038 94.7318C98.5309 94.0892 97.3012 93.0193 96.5708 91.542C95.0021 88.278 96.5542 84.3722 98.5159 81.6541C100.164 79.3921 102.269 77.504 104.781 76.2513C107.666 74.8129 110.663 74.3484 113.78 75.336C119.084 77.0562 121.684 82.4895 125.359 86.2599ZM120.536 86.3674C118.398 83.848 116.078 80.0626 112.746 78.9592C110.699 78.2812 108.687 78.5113 106.459 79.622C104.565 80.5667 102.983 81.9374 101.664 83.7245C100.514 85.2821 98.9755 87.9707 99.9868 89.9613C101.005 91.8645 103.894 91.9114 105.735 91.8674C109.926 91.7674 114.141 91.9941 118.323 92.2601C118.423 90.5301 119.607 87.7673 120.536 86.3674Z" fill="currentColor"/>
<path d="M137.619 93.1912C137.619 88.9003 134.144 85.422 129.857 85.422C125.57 85.422 122.095 88.9003 122.095 93.1912C122.095 97.482 125.57 100.96 129.857 100.96V104.726C123.492 104.726 118.333 99.5619 118.333 93.1912C118.333 86.8206 123.492 81.6561 129.857 81.6561C136.222 81.6561 141.382 86.8206 141.382 93.1912C141.382 99.5619 136.222 104.726 129.857 104.726V100.96C134.144 100.96 137.619 97.482 137.619 93.1912Z" fill="currentColor"/>
<path d="M54.49 157.71H52.0664V142.266C51.4829 142.822 50.7154 143.379 49.7639 143.935C48.8213 144.492 47.973 144.909 47.219 145.188V142.845C48.5745 142.207 49.7594 141.435 50.7737 140.529C51.7881 139.622 52.5062 138.742 52.9281 137.89H54.49V157.71Z" fill="currentColor"/>
<path d="M90.1238 154.519V149.106H84.7513V146.844H90.1238V141.471H92.4129V146.844H97.7854V149.106H92.4129V154.519H90.1238Z" fill="currentColor"/>
<path d="M133.49 157.71H131.066V142.266C130.483 142.822 129.715 143.379 128.764 143.935C127.821 144.492 126.973 144.909 126.219 145.188V142.845C127.574 142.207 128.759 141.435 129.774 140.529C130.788 139.622 131.506 138.742 131.928 137.89H133.49V157.71Z" fill="currentColor"/>
<path d="M176.785 146.103H163.751V143.841H176.785V146.103ZM176.785 152.095H163.751V149.833H176.785V152.095Z" fill="currentColor"/>
<path d="M248.746 126.467H202.216V168.953H248.746V126.467Z" stroke="currentColor" stroke-width="2" stroke-linejoin="round"/>
</svg>
