<svg width="398" height="281" viewBox="0 0 398 281" fill="none" xmlns="http://www.w3.org/2000/svg">
  <style>
    /* Default color for standalone viewing - overridden by currentColor when embedded in HTML */
    svg {
      color: #636363;
    }
  </style><rect width="398" height="280.5" fill="white"/>
<g transform="translate(0 43)">
<path d="M137.063 41.0261C136.518 42.9912 140.886 45.733 142.589 45.1788C141.119 48.4184 139.899 51.8314 138.86 55.2295C138.5 56.38 137.999 57.4845 137.21 58.4063C136.51 59.2101 135.601 59.7563 134.542 59.9117C132.209 60.2268 130.107 58.4809 128.822 56.72C127.755 55.2448 127.011 53.5622 126.742 51.755C126.433 49.6799 126.748 47.7312 127.985 45.9997C130.114 43.0614 133.994 42.5437 137.063 41.0261ZM136.16 44.0338C134.174 44.8511 131.368 45.5271 130.016 47.3679C129.186 48.4991 128.924 49.7912 129.162 51.3937C129.365 52.7564 129.895 54.0113 130.734 55.1871C131.466 56.2119 132.818 57.705 134.251 57.4789C135.632 57.2309 136.242 55.452 136.585 54.3035C137.365 51.6885 138.352 49.124 139.357 46.5886C138.308 46.179 136.839 44.8905 136.16 44.0338Z" fill="currentColor"/>
<path d="M142.003 44.9894C143.702 46.1158 147.657 42.8055 147.657 41.0127C150.281 43.413 153.147 45.6293 156.055 47.6677C157.037 48.3663 157.931 49.1846 158.563 50.2208C159.111 51.1355 159.349 52.1691 159.169 53.2258C158.748 55.5436 156.439 57.0049 154.369 57.6845C152.637 58.244 150.809 58.432 149.008 58.1299C146.941 57.783 145.187 56.8807 143.924 55.1683C141.79 52.2335 142.497 48.3797 142.003 44.9894ZM144.582 46.7784C144.745 48.9221 144.52 51.8019 145.852 53.6573C146.67 54.7973 147.817 55.4464 149.413 55.7143C150.771 55.9421 152.127 55.826 153.503 55.3904C154.703 55.0108 156.54 54.1849 156.768 52.7504C156.959 51.3593 155.457 50.2295 154.471 49.5482C152.228 47.997 150.096 46.2648 147.998 44.5246C147.284 45.3966 145.606 46.3974 144.582 46.7784Z" fill="currentColor"/>
<path d="M147.296 41.5116C148.891 40.2428 146.968 35.455 145.265 34.9012C148.356 33.145 151.348 31.1017 154.183 28.9635C155.15 28.2447 156.204 27.6459 157.384 27.3646C158.423 27.1261 159.478 27.2186 160.427 27.7164C162.499 28.8337 163.174 31.4828 163.18 33.6636C163.177 35.4847 162.79 37.2835 161.947 38.904C160.978 40.7647 159.579 42.1558 157.562 42.8289C154.113 43.9533 150.67 42.0893 147.296 41.5116ZM149.793 39.6096C151.88 40.1172 154.547 41.221 156.721 40.5269C158.058 40.1003 159.029 39.2093 159.777 37.7724C160.413 36.5504 160.721 35.2239 160.733 33.7789C160.743 32.5193 160.526 30.5158 159.233 29.8553C157.97 29.2436 156.433 30.3241 155.481 31.0517C153.314 32.708 151.009 34.2018 148.707 35.6619C149.315 36.6104 149.747 38.5173 149.793 39.6096Z" fill="currentColor"/>
<path d="M145.627 35.399C144.914 33.4883 139.77 33.8397 138.718 35.2902C138.004 31.8046 136.987 28.3255 135.832 24.9655C135.448 23.8227 135.204 22.6343 135.302 21.4243C135.396 20.3622 135.81 19.3858 136.576 18.6367C138.278 17.0094 141.004 17.1854 143.078 17.8536C144.807 18.4196 146.397 19.3433 147.676 20.6469C149.145 22.1437 150.034 23.9057 150.051 26.0342C150.054 29.6641 147.218 32.3657 145.627 35.399ZM144.591 32.4345C145.718 30.6045 147.591 28.4068 147.604 26.1226C147.611 24.7188 147.065 23.519 145.93 22.3631C144.966 21.3801 143.801 20.6763 142.431 20.2188C141.238 19.8201 139.267 19.4077 138.24 20.434C137.268 21.447 137.82 23.2448 138.217 24.3757C139.121 26.9504 139.828 29.6059 140.504 32.2484C141.594 31.9627 143.539 32.1405 144.591 32.4345Z" fill="currentColor"/>
<path d="M139.303 35.0988C137.267 35.187 136.012 40.1918 137.065 41.6422C133.532 41.2439 129.912 41.1371 126.362 41.1987C125.158 41.2112 123.953 41.0756 122.834 40.609C121.854 40.1911 121.054 39.4952 120.579 38.5343C119.558 36.4114 120.568 33.8711 121.844 32.1032C122.916 30.632 124.285 29.404 125.919 28.5892C127.795 27.6537 129.744 27.3515 131.772 27.9939C135.222 29.1127 136.912 32.6466 139.303 35.0988ZM136.166 35.1687C134.776 33.5301 133.266 31.0681 131.099 30.3504C129.768 29.9094 128.459 30.0591 127.01 30.7815C125.778 31.3959 124.749 32.2875 123.891 33.4498C123.144 34.4628 122.143 36.2115 122.801 37.5062C123.463 38.7441 125.342 38.7746 126.539 38.746C129.265 38.6809 132.007 38.8284 134.726 39.0014C134.791 37.8762 135.562 36.0793 136.166 35.1687Z" fill="currentColor"/>
<path d="M147.277 39.607C147.277 36.8161 145.017 34.5538 142.229 34.5538C139.44 34.5538 137.18 36.8161 137.18 39.607C137.18 42.3977 139.44 44.6601 142.229 44.6601V47.1094C138.089 47.1094 134.733 43.7505 134.733 39.607C134.733 35.4635 138.089 32.1045 142.229 32.1045C146.368 32.1045 149.724 35.4635 149.724 39.607C149.724 43.7505 146.368 47.1094 142.229 47.1094V44.6601C145.017 44.6601 147.277 42.3977 147.277 39.607Z" fill="currentColor"/>
<path d="M188.538 41.0261C187.993 42.9912 192.361 45.733 194.064 45.1788C192.594 48.4184 191.374 51.8314 190.336 55.2295C189.975 56.38 189.474 57.4845 188.685 58.4063C187.985 59.2101 187.077 59.7563 186.017 59.9117C183.684 60.2268 181.582 58.4809 180.297 56.72C179.23 55.2448 178.486 53.5622 178.217 51.755C177.908 49.6799 178.223 47.7312 179.46 45.9997C181.589 43.0614 185.47 42.5437 188.538 41.0261ZM187.635 44.0338C185.649 44.8511 182.843 45.5271 181.492 47.3679C180.661 48.4991 180.399 49.7912 180.637 51.3937C180.84 52.7564 181.37 54.0113 182.209 55.1871C182.941 56.2119 184.293 57.705 185.726 57.4789C187.107 57.2309 187.717 55.452 188.06 54.3035C188.84 51.6885 189.828 49.124 190.832 46.5886C189.783 46.179 188.314 44.8905 187.635 44.0338Z" fill="currentColor"/>
<path d="M193.479 44.9894C195.177 46.1158 199.132 42.8055 199.132 41.0127C201.756 43.413 204.622 45.6293 207.53 47.6677C208.512 48.3663 209.406 49.1846 210.038 50.2208C210.586 51.1355 210.824 52.1691 210.644 53.2258C210.223 55.5436 207.914 57.0049 205.844 57.6845C204.113 58.244 202.284 58.432 200.484 58.1299C198.416 57.783 196.662 56.8807 195.399 55.1683C193.265 52.2335 193.972 48.3797 193.479 44.9894ZM196.057 46.7784C196.22 48.9221 195.995 51.8019 197.327 53.6573C198.145 54.7973 199.292 55.4464 200.888 55.7143C202.246 55.9421 203.602 55.826 204.978 55.3904C206.178 55.0108 208.015 54.1849 208.243 52.7504C208.434 51.3593 206.932 50.2295 205.947 49.5482C203.703 47.997 201.572 46.2648 199.473 44.5246C198.759 45.3966 197.081 46.3974 196.057 46.7784Z" fill="currentColor"/>
<path d="M198.771 41.5116C200.366 40.2428 198.443 35.455 196.74 34.9012C199.831 33.145 202.823 31.1017 205.658 28.9635C206.626 28.2447 207.679 27.6459 208.859 27.3646C209.898 27.1261 210.953 27.2186 211.902 27.7164C213.974 28.8337 214.649 31.4828 214.655 33.6636C214.652 35.4847 214.265 37.2835 213.422 38.904C212.453 40.7647 211.054 42.1558 209.037 42.8289C205.589 43.9533 202.145 42.0893 198.771 41.5116ZM201.268 39.6096C203.355 40.1172 206.022 41.221 208.197 40.5269C209.533 40.1003 210.504 39.2093 211.252 37.7724C211.888 36.5504 212.196 35.2239 212.208 33.7789C212.218 32.5193 212.001 30.5158 210.708 29.8553C209.445 29.2436 207.908 30.3241 206.956 31.0517C204.789 32.708 202.484 34.2018 200.182 35.6619C200.79 36.6104 201.222 38.5173 201.268 39.6096Z" fill="currentColor"/>
<path d="M197.102 35.399C196.389 33.4883 191.245 33.8397 190.193 35.2902C189.48 31.8046 188.462 28.3255 187.307 24.9655C186.923 23.8227 186.68 22.6343 186.777 21.4243C186.871 20.3622 187.285 19.3858 188.051 18.6367C189.753 17.0094 192.479 17.1854 194.553 17.8536C196.282 18.4196 197.872 19.3433 199.151 20.6469C200.62 22.1437 201.51 23.9057 201.526 26.0342C201.529 29.6641 198.693 32.3657 197.102 35.399ZM196.066 32.4345C197.193 30.6045 199.066 28.4068 199.079 26.1226C199.086 24.7188 198.54 23.519 197.406 22.3631C196.441 21.3801 195.276 20.6763 193.906 20.2188C192.713 19.8201 190.742 19.4077 189.715 20.434C188.743 21.447 189.295 23.2448 189.692 24.3757C190.596 26.9504 191.303 29.6059 191.979 32.2484C193.069 31.9627 195.014 32.1405 196.066 32.4345Z" fill="currentColor"/>
<path d="M190.778 35.0988C188.742 35.187 187.487 40.1918 188.54 41.6422C185.007 41.2439 181.387 41.1371 177.837 41.1987C176.633 41.2112 175.428 41.0756 174.309 40.609C173.329 40.1911 172.529 39.4952 172.054 38.5343C171.034 36.4114 172.043 33.8711 173.319 32.1032C174.391 30.632 175.76 29.404 177.394 28.5892C179.27 27.6537 181.219 27.3515 183.247 27.9939C186.697 29.1127 188.388 32.6466 190.778 35.0988ZM187.641 35.1687C186.251 33.5301 184.741 31.0681 182.574 30.3504C181.243 29.9094 179.934 30.0591 178.485 30.7815C177.253 31.3959 176.224 32.2875 175.366 33.4498C174.619 34.4628 173.618 36.2115 174.276 37.5062C174.938 38.7441 176.817 38.7746 178.014 38.746C180.74 38.6809 183.482 38.8284 186.201 39.0014C186.267 37.8762 187.037 36.0793 187.641 35.1687Z" fill="currentColor"/>
<path d="M198.752 39.607C198.752 36.8161 196.492 34.5538 193.704 34.5538C190.915 34.5538 188.655 36.8161 188.655 39.607C188.655 42.3977 190.915 44.6601 193.704 44.6601V47.1094C189.564 47.1094 186.208 43.7505 186.208 39.607C186.208 35.4635 189.564 32.1045 193.704 32.1045C197.843 32.1045 201.199 35.4635 201.199 39.607C201.199 43.7505 197.843 47.1094 193.704 47.1094V44.6601C196.492 44.6601 198.752 42.3977 198.752 39.607Z" fill="currentColor"/>
<g clip-path="url(#clip0_5995_847)">
<path d="M144.684 81.5664H143.108V71.5214C142.728 71.8834 142.229 72.2453 141.61 72.6073C140.997 72.9693 140.445 73.2408 139.955 73.4218V71.8979C140.837 71.4834 141.607 70.9813 142.267 70.3916C142.927 69.8019 143.394 69.2298 143.668 68.6751H144.684V81.5664Z" fill="currentColor"/>
<path d="M167.454 79.4908V75.9703H163.96V74.499H167.454V71.0047H168.943V74.499H172.437V75.9703H168.943V79.4908H167.454Z" fill="currentColor"/>
<path d="M195.603 81.5664H194.026V71.5214C193.647 71.8834 193.147 72.2453 192.529 72.6073C191.916 72.9693 191.364 73.2408 190.873 73.4218V71.8979C191.755 71.4834 192.526 70.9813 193.185 70.3916C193.845 69.8019 194.312 69.2298 194.587 68.6751H195.603V81.5664Z" fill="currentColor"/>
<path d="M223.356 74.0173H214.878V72.546H223.356V74.0173ZM223.356 77.9145H214.878V76.4432H223.356V77.9145Z" fill="currentColor"/>
<path d="M270.102 61.2498H239.839V88.8832H270.102V61.2498Z" stroke="currentColor" stroke-width="1.30081" stroke-linejoin="round"/>
</g>
 </g>
<g transform="translate(0 -43)">
<path d="M137.063 213.973C136.518 215.938 140.886 218.68 142.589 218.126C141.119 221.366 139.899 224.779 138.86 228.177C138.5 229.327 137.999 230.432 137.21 231.354C136.51 232.157 135.601 232.704 134.542 232.859C132.209 233.174 130.107 231.428 128.822 229.667C127.755 228.192 127.011 226.509 126.742 224.702C126.433 222.627 126.748 220.679 127.985 218.947C130.114 216.009 133.994 215.491 137.063 213.973ZM136.16 216.981C134.174 217.798 131.368 218.474 130.016 220.315C129.186 221.446 128.924 222.739 129.162 224.341C129.365 225.704 129.895 226.959 130.734 228.134C131.466 229.159 132.818 230.652 134.251 230.426C135.632 230.178 136.242 228.399 136.585 227.251C137.365 224.636 138.352 222.071 139.357 219.536C138.308 219.126 136.839 217.838 136.16 216.981Z" fill="currentColor"/>
<path d="M142.003 217.937C143.702 219.063 147.657 215.753 147.657 213.96C150.281 216.36 153.147 218.577 156.055 220.615C157.037 221.314 157.931 222.132 158.563 223.168C159.111 224.083 159.349 225.116 159.169 226.173C158.748 228.491 156.439 229.952 154.369 230.632C152.637 231.191 150.809 231.379 149.008 231.077C146.941 230.73 145.187 229.828 143.924 228.116C141.79 225.181 142.497 221.327 142.003 217.937ZM144.582 219.726C144.745 221.869 144.52 224.749 145.852 226.605C146.67 227.745 147.817 228.394 149.413 228.662C150.771 228.889 152.127 228.773 153.503 228.338C154.703 227.958 156.54 227.132 156.768 225.698C156.959 224.307 155.457 223.177 154.471 222.495C152.228 220.944 150.096 219.212 147.998 217.472C147.284 218.344 145.606 219.345 144.582 219.726Z" fill="currentColor"/>
<path d="M147.296 214.459C148.891 213.19 146.968 208.402 145.265 207.848C148.356 206.092 151.348 204.049 154.183 201.911C155.15 201.192 156.204 200.593 157.384 200.312C158.423 200.073 159.478 200.166 160.427 200.664C162.499 201.781 163.174 204.43 163.18 206.611C163.177 208.432 162.79 210.231 161.947 211.851C160.978 213.712 159.579 215.103 157.562 215.776C154.113 216.901 150.67 215.037 147.296 214.459ZM149.793 212.557C151.88 213.064 154.547 214.168 156.721 213.474C158.058 213.048 159.029 212.157 159.777 210.72C160.413 209.498 160.721 208.171 160.733 206.726C160.743 205.467 160.526 203.463 159.233 202.803C157.97 202.191 156.433 203.271 155.481 203.999C153.314 205.655 151.009 207.149 148.707 208.609C149.315 209.558 149.747 211.465 149.793 212.557Z" fill="currentColor"/>
<path d="M145.627 208.346C144.914 206.436 139.77 206.787 138.718 208.237C138.004 204.752 136.987 201.273 135.832 197.913C135.448 196.77 135.204 195.582 135.302 194.372C135.396 193.309 135.81 192.333 136.576 191.584C138.278 189.957 141.004 190.133 143.078 190.801C144.807 191.367 146.397 192.291 147.676 193.594C149.145 195.091 150.034 196.853 150.051 198.982C150.054 202.611 147.218 205.313 145.627 208.346ZM144.591 205.382C145.718 203.552 147.591 201.354 147.604 199.07C147.611 197.666 147.065 196.466 145.93 195.31C144.966 194.327 143.801 193.624 142.431 193.166C141.238 192.767 139.267 192.355 138.24 193.381C137.268 194.394 137.82 196.192 138.217 197.323C139.121 199.898 139.828 202.553 140.504 205.196C141.594 204.91 143.539 205.088 144.591 205.382Z" fill="currentColor"/>
<path d="M139.303 208.046C137.267 208.134 136.012 213.139 137.065 214.589C133.532 214.191 129.912 214.084 126.362 214.146C125.158 214.158 123.953 214.023 122.834 213.556C121.854 213.138 121.054 212.442 120.579 211.482C119.558 209.359 120.568 206.818 121.844 205.05C122.916 203.579 124.285 202.351 125.919 201.536C127.795 200.601 129.744 200.299 131.772 200.941C135.222 202.06 136.912 205.594 139.303 208.046ZM136.166 208.116C134.776 206.477 133.266 204.015 131.099 203.298C129.768 202.857 128.459 203.006 127.01 203.729C125.778 204.343 124.749 205.235 123.891 206.397C123.144 207.41 122.143 209.159 122.801 210.454C123.463 211.691 125.342 211.722 126.539 211.693C129.265 211.628 132.007 211.776 134.726 211.949C134.791 210.823 135.562 209.027 136.166 208.116Z" fill="currentColor"/>
<path d="M147.277 212.554C147.277 209.763 145.017 207.501 142.229 207.501C139.44 207.501 137.18 209.763 137.18 212.554C137.18 215.345 139.44 217.607 142.229 217.607V220.057C138.089 220.057 134.733 216.698 134.733 212.554C134.733 208.411 138.089 205.052 142.229 205.052C146.368 205.052 149.724 208.411 149.724 212.554C149.724 216.698 146.368 220.057 142.229 220.057V217.607C145.017 217.607 147.277 215.345 147.277 212.554Z" fill="currentColor"/>
<path d="M188.538 213.973C187.993 215.938 192.361 218.68 194.064 218.126C192.594 221.366 191.374 224.779 190.336 228.177C189.975 229.327 189.474 230.432 188.685 231.354C187.985 232.157 187.077 232.704 186.017 232.859C183.684 233.174 181.582 231.428 180.297 229.667C179.23 228.192 178.486 226.509 178.217 224.702C177.908 222.627 178.223 220.679 179.46 218.947C181.589 216.009 185.47 215.491 188.538 213.973ZM187.635 216.981C185.649 217.798 182.843 218.474 181.492 220.315C180.661 221.446 180.399 222.739 180.637 224.341C180.84 225.704 181.37 226.959 182.209 228.134C182.941 229.159 184.293 230.652 185.726 230.426C187.107 230.178 187.717 228.399 188.06 227.251C188.84 224.636 189.828 222.071 190.832 219.536C189.783 219.126 188.314 217.838 187.635 216.981Z" fill="currentColor"/>
<path d="M193.479 217.937C195.177 219.063 199.132 215.753 199.132 213.96C201.756 216.36 204.622 218.577 207.53 220.615C208.512 221.314 209.406 222.132 210.038 223.168C210.586 224.083 210.824 225.116 210.644 226.173C210.223 228.491 207.914 229.952 205.844 230.632C204.113 231.191 202.284 231.379 200.484 231.077C198.416 230.73 196.662 229.828 195.399 228.116C193.265 225.181 193.972 221.327 193.479 217.937ZM196.057 219.726C196.22 221.869 195.995 224.749 197.327 226.605C198.145 227.745 199.292 228.394 200.888 228.662C202.246 228.889 203.602 228.773 204.978 228.338C206.178 227.958 208.015 227.132 208.243 225.698C208.434 224.307 206.932 223.177 205.947 222.495C203.703 220.944 201.572 219.212 199.473 217.472C198.759 218.344 197.081 219.345 196.057 219.726Z" fill="currentColor"/>
<path d="M198.771 214.459C200.366 213.19 198.443 208.402 196.74 207.848C199.831 206.092 202.823 204.049 205.658 201.911C206.626 201.192 207.679 200.593 208.859 200.312C209.898 200.073 210.953 200.166 211.902 200.664C213.974 201.781 214.649 204.43 214.655 206.611C214.652 208.432 214.265 210.231 213.422 211.851C212.453 213.712 211.054 215.103 209.037 215.776C205.589 216.901 202.145 215.037 198.771 214.459ZM201.268 212.557C203.355 213.064 206.022 214.168 208.197 213.474C209.533 213.048 210.504 212.157 211.252 210.72C211.888 209.498 212.196 208.171 212.208 206.726C212.218 205.467 212.001 203.463 210.708 202.803C209.445 202.191 207.908 203.271 206.956 203.999C204.789 205.655 202.484 207.149 200.182 208.609C200.79 209.558 201.222 211.465 201.268 212.557Z" fill="currentColor"/>
<path d="M197.102 208.346C196.389 206.436 191.245 206.787 190.193 208.237C189.48 204.752 188.462 201.273 187.307 197.913C186.923 196.77 186.68 195.582 186.777 194.372C186.871 193.309 187.285 192.333 188.051 191.584C189.753 189.957 192.479 190.133 194.553 190.801C196.282 191.367 197.872 192.291 199.151 193.594C200.62 195.091 201.51 196.853 201.526 198.982C201.529 202.611 198.693 205.313 197.102 208.346ZM196.066 205.382C197.193 203.552 199.066 201.354 199.079 199.07C199.086 197.666 198.54 196.466 197.406 195.31C196.441 194.327 195.276 193.624 193.906 193.166C192.713 192.767 190.742 192.355 189.715 193.381C188.743 194.394 189.295 196.192 189.692 197.323C190.596 199.898 191.303 202.553 191.979 205.196C193.069 204.91 195.014 205.088 196.066 205.382Z" fill="currentColor"/>
<path d="M190.778 208.046C188.742 208.134 187.487 213.139 188.54 214.589C185.007 214.191 181.387 214.084 177.837 214.146C176.633 214.158 175.428 214.023 174.309 213.556C173.329 213.138 172.529 212.442 172.054 211.482C171.034 209.359 172.043 206.818 173.319 205.05C174.391 203.579 175.76 202.351 177.394 201.536C179.27 200.601 181.219 200.299 183.247 200.941C186.697 202.06 188.388 205.594 190.778 208.046ZM187.641 208.116C186.251 206.477 184.741 204.015 182.574 203.298C181.243 202.857 179.934 203.006 178.485 203.729C177.253 204.343 176.224 205.235 175.366 206.397C174.619 207.41 173.618 209.159 174.276 210.454C174.938 211.691 176.817 211.722 178.014 211.693C180.74 211.628 183.482 211.776 186.201 211.949C186.267 210.823 187.037 209.027 187.641 208.116Z" fill="currentColor"/>
<path d="M198.752 212.554C198.752 209.763 196.492 207.501 193.704 207.501C190.915 207.501 188.655 209.763 188.655 212.554C188.655 215.345 190.915 217.607 193.704 217.607V220.057C189.564 220.057 186.208 216.698 186.208 212.554C186.208 208.411 189.564 205.052 193.704 205.052C197.843 205.052 201.199 208.411 201.199 212.554C201.199 216.698 197.843 220.057 193.704 220.057V217.607C196.492 217.607 198.752 215.345 198.752 212.554Z" fill="currentColor"/>
<path d="M144.684 254.514H143.108V244.469C142.728 244.831 142.229 245.193 141.61 245.555C140.997 245.917 140.445 246.188 139.955 246.369V244.845C140.837 244.431 141.607 243.929 142.267 243.339C142.927 242.749 143.394 242.177 143.668 241.622H144.684V254.514Z" fill="currentColor"/>
<path d="M167.454 252.438V248.918H163.96V247.446H167.454V243.952H168.943V247.446H172.437V248.918H168.943V252.438H167.454Z" fill="currentColor"/>
<path d="M195.603 254.514H194.026V244.469C193.647 244.831 193.147 245.193 192.529 245.555C191.916 245.917 191.364 246.188 190.873 246.369V244.845C191.755 244.431 192.526 243.929 193.185 243.339C193.845 242.749 194.312 242.177 194.587 241.622H195.603V254.514Z" fill="currentColor"/>
<path d="M223.356 246.965H214.878V245.493H223.356V246.965ZM223.356 250.862H214.878V249.39H223.356V250.862Z" fill="currentColor"/>
<path d="M270.102 234.197H239.839V261.83H270.102V234.197Z" stroke="currentColor" stroke-width="1.30081" stroke-linejoin="round"/>
</g><defs>
<clipPath id="clip0_5995_847">
<rect width="141.138" height="30.2351" fill="white" transform="translate(136.701 59.949)"/>
</clipPath>
</defs>
</svg>
