<svg width="398" height="281" viewBox="0 0 398 281" fill="none" xmlns="http://www.w3.org/2000/svg">
  <style>
    /* Default color for standalone viewing - overridden by currentColor when embedded in HTML */
    svg {
      color: #636363;
    }
  </style>
  <rect width="398" height="281" fill="white"/>
  <g transform="translate(99.803 0.000) scale(0.706030)">
<path d="M44.7731 95.3732C43.9346 98.3945 50.6498 102.61 53.2688 101.758C51.0087 106.739 49.1328 111.986 47.5362 117.211C46.9822 118.98 46.2118 120.678 44.9983 122.095C43.922 123.331 42.5254 124.171 40.8959 124.41C37.3097 124.894 34.0782 122.21 32.1015 119.503C30.4616 117.234 29.3181 114.647 28.904 111.869C28.4287 108.678 28.9133 105.682 30.815 103.02C34.0887 98.5024 40.0547 97.7065 44.7731 95.3732ZM43.3848 99.9974C40.3303 101.254 36.0163 102.293 33.9385 105.124C32.6616 106.863 32.2582 108.85 32.6253 111.313C32.9375 113.408 33.7513 115.338 35.0417 117.146C36.1664 118.721 38.2457 121.017 40.4495 120.669C42.5726 120.288 43.5099 117.553 44.037 115.787C45.237 111.767 46.7551 107.824 48.3 103.926C46.6872 103.296 44.4277 101.315 43.3848 99.9974Z" fill="currentColor"/>
<path d="M52.3687 101.467C54.9803 103.199 61.0609 98.1089 61.0608 95.3525C65.0952 99.0431 69.5015 102.451 73.9726 105.585C75.4823 106.659 76.8578 107.917 77.8294 109.51C78.6709 110.916 79.0375 112.506 78.7608 114.13C78.1131 117.694 74.5639 119.941 71.3805 120.985C68.7186 121.846 65.9069 122.135 63.1389 121.67C59.9604 121.137 57.2634 119.75 55.3214 117.117C52.0404 112.605 53.1277 106.679 52.3687 101.467ZM56.3335 104.217C56.5837 107.513 56.2383 111.941 58.2854 114.794C59.5434 116.546 61.3066 117.544 63.761 117.956C65.8482 118.307 67.933 118.128 70.0495 117.458C71.8942 116.875 74.7181 115.605 75.069 113.399C75.3626 111.261 73.0534 109.523 71.5383 108.476C68.0889 106.091 64.8117 103.428 61.5849 100.752C60.4879 102.093 57.9075 103.632 56.3335 104.217Z" fill="currentColor"/>
<path d="M60.5059 96.1196C62.9584 94.1687 60.0013 86.8074 57.3823 85.956C62.1356 83.2559 66.7349 80.1143 71.0946 76.8269C72.5817 75.7216 74.2022 74.801 76.0162 74.3685C77.6126 74.0019 79.2359 74.1441 80.6942 74.9095C83.8802 76.6273 84.9181 80.7002 84.9275 84.0533C84.9222 86.8532 84.3281 89.6188 83.0312 92.1103C81.5422 94.9712 79.3907 97.11 76.2888 98.1448C70.9874 99.8737 65.6933 97.0078 60.5059 96.1196ZM64.3447 93.1952C67.5538 93.9757 71.6543 95.6728 74.9972 94.6055C77.0516 93.9497 78.5447 92.5797 79.6945 90.3705C80.6724 88.4917 81.147 86.4521 81.1647 84.2305C81.1801 82.2939 80.8462 79.2135 78.8589 78.198C76.9173 77.2575 74.553 78.9188 73.0896 80.0374C69.7576 82.5841 66.214 84.8807 62.6749 87.1257C63.6099 88.584 64.2745 91.5159 64.3447 93.1952Z" fill="currentColor"/>
<path d="M57.9395 86.7214C56.8437 83.7837 48.9353 84.3239 47.3169 86.554C46.2201 81.1948 44.6563 75.8457 42.8799 70.6798C42.2892 68.9227 41.9152 67.0956 42.0647 65.2351C42.2098 63.6022 42.8464 62.101 44.0244 60.9492C46.6411 58.4473 50.8319 58.7179 54.0209 59.7453C56.6796 60.6154 59.1241 62.0356 61.0907 64.0399C63.3489 66.3413 64.7163 69.0504 64.7411 72.323C64.7457 77.9039 60.3863 82.0576 57.9395 86.7214ZM56.347 82.1634C58.0804 79.3498 60.9599 75.9708 60.9789 72.4588C60.9906 70.3005 60.1501 68.4558 58.4064 66.6786C56.9234 65.1673 55.132 64.0851 53.0265 63.3818C51.1912 62.7687 48.161 62.1347 46.5819 63.7125C45.0882 65.2701 45.9363 68.0342 46.5469 69.7729C47.9371 73.7316 49.0243 77.8145 50.0638 81.8772C51.7385 81.4379 54.7298 81.7113 56.347 82.1634Z" fill="currentColor"/>
<path d="M48.2162 86.2599C45.0862 86.3954 43.1557 94.0903 44.7747 96.3203C39.3435 95.7079 33.7776 95.5438 28.32 95.6385C26.4679 95.6577 24.6162 95.4492 22.8946 94.7318C21.3878 94.0892 20.1582 93.0193 19.4277 91.542C17.8591 88.278 19.4112 84.3722 21.3728 81.6541C23.0212 79.3921 25.126 77.504 27.6383 76.2513C30.5229 74.8129 33.5195 74.3484 36.6368 75.336C41.9411 77.0562 44.5409 82.4895 48.2162 86.2599ZM43.3932 86.3674C41.2554 83.848 38.9345 80.0626 35.6032 78.9592C33.5561 78.2812 31.5436 78.5113 29.316 79.622C27.4217 80.5667 25.8399 81.9374 24.5209 83.7245C23.3713 85.2821 21.8324 87.9707 22.8438 89.9613C23.8622 91.8645 26.7506 91.9114 28.5915 91.8674C32.7826 91.7674 36.9981 91.9941 41.1797 92.2601C41.2798 90.5301 42.4638 87.7673 43.3932 86.3674Z" fill="currentColor"/>
<path d="M60.4763 93.1912C60.4761 88.9003 57.001 85.422 52.7141 85.422C48.4272 85.422 44.9519 88.9003 44.9519 93.1912C44.9519 97.482 48.4272 100.96 52.7141 100.96V104.726C46.3492 104.726 41.1895 99.5619 41.1895 93.1912C41.1895 86.8206 46.3492 81.6561 52.7141 81.6561C59.079 81.6561 64.2385 86.8206 64.2387 93.1912C64.2387 99.5619 59.079 104.726 52.7141 104.726V100.96C57.001 100.96 60.4763 97.482 60.4763 93.1912Z" fill="currentColor"/>
<path d="M123.916 95.3732C123.078 98.3945 129.793 102.61 132.412 101.758C130.152 106.739 128.276 111.986 126.679 117.211C126.125 118.98 125.355 120.678 124.141 122.095C123.065 123.331 121.668 124.171 120.039 124.41C116.453 124.894 113.221 122.21 111.245 119.503C109.605 117.234 108.461 114.647 108.047 111.869C107.572 108.678 108.056 105.682 109.958 103.02C113.232 98.5024 119.198 97.7065 123.916 95.3732ZM122.528 99.9974C119.473 101.254 115.159 102.293 113.082 105.124C111.805 106.863 111.401 108.85 111.768 111.313C112.081 113.408 112.894 115.338 114.185 117.146C115.31 118.721 117.389 121.017 119.593 120.669C121.716 120.288 122.653 117.553 123.18 115.787C124.38 111.767 125.898 107.824 127.443 103.926C125.83 103.296 123.571 101.315 122.528 99.9974Z" fill="currentColor"/>
<path d="M131.512 101.467C134.123 103.199 140.204 98.1088 140.204 95.3524C144.238 99.0429 148.645 102.45 153.116 105.585C154.625 106.659 156.001 107.917 156.972 109.51C157.814 110.916 158.181 112.505 157.904 114.13C157.256 117.694 153.707 119.94 150.524 120.985C147.862 121.846 145.05 122.135 142.282 121.67C139.104 121.137 136.406 119.75 134.464 117.117C131.183 112.604 132.271 106.679 131.512 101.467ZM135.477 104.217C135.727 107.513 135.381 111.941 137.428 114.794C138.686 116.546 140.45 117.544 142.904 117.956C144.991 118.306 147.076 118.128 149.193 117.458C151.037 116.875 153.861 115.605 154.212 113.399C154.506 111.26 152.196 109.523 150.681 108.476C147.232 106.091 143.955 103.427 140.728 100.752C139.631 102.093 137.051 103.631 135.477 104.217Z" fill="currentColor"/>
<path d="M139.649 96.1196C142.101 94.1687 139.144 86.8074 136.525 85.956C141.279 83.2559 145.878 80.1143 150.238 76.8269C151.725 75.7216 153.345 74.801 155.159 74.3685C156.756 74.0019 158.379 74.1441 159.837 74.9095C163.023 76.6273 164.061 80.7002 164.071 84.0533C164.065 86.8532 163.471 89.6188 162.174 92.1103C160.685 94.9712 158.534 97.11 155.432 98.1448C150.13 99.8737 144.836 97.0078 139.649 96.1196ZM143.488 93.1952C146.697 93.9757 150.797 95.6728 154.14 94.6055C156.195 93.9497 157.688 92.5797 158.838 90.3705C159.815 88.4917 160.29 86.4521 160.308 84.2305C160.323 82.2939 159.989 79.2135 158.002 78.198C156.06 77.2575 153.696 78.9188 152.233 80.0374C148.901 82.5841 145.357 84.8807 141.818 87.1257C142.753 88.584 143.418 91.5159 143.488 93.1952Z" fill="currentColor"/>
<path d="M137.083 86.7214C135.987 83.7837 128.078 84.3239 126.46 86.554C125.363 81.1948 123.799 75.8457 122.023 70.6798C121.432 68.9227 121.058 67.0956 121.208 65.2351C121.353 63.6022 121.989 62.101 123.167 60.9492C125.784 58.4473 129.975 58.7179 133.164 59.7453C135.823 60.6154 138.267 62.0356 140.234 64.0399C142.492 66.3413 143.859 69.0504 143.884 72.323C143.889 77.9039 139.529 82.0576 137.083 86.7214ZM135.49 82.1634C137.223 79.3498 140.103 75.9708 140.122 72.4588C140.134 70.3005 139.293 68.4558 137.549 66.6786C136.066 65.1673 134.275 64.0851 132.17 63.3818C130.334 62.7687 127.304 62.1347 125.725 63.7125C124.231 65.2701 125.079 68.0342 125.69 69.7729C127.08 73.7316 128.167 77.8145 129.207 81.8772C130.882 81.4379 133.873 81.7113 135.49 82.1634Z" fill="currentColor"/>
<path d="M127.359 86.2599C124.229 86.3954 122.299 94.0903 123.918 96.3203C118.487 95.7079 112.921 95.5438 107.463 95.6385C105.611 95.6577 103.759 95.4492 102.038 94.7318C100.531 94.0892 99.3012 93.0193 98.5708 91.542C97.0021 88.278 98.5542 84.3722 100.516 81.6541C102.164 79.3921 104.269 77.504 106.781 76.2513C109.666 74.8129 112.663 74.3484 115.78 75.336C121.084 77.0562 123.684 82.4895 127.359 86.2599ZM122.536 86.3674C120.398 83.848 118.078 80.0626 114.746 78.9592C112.699 78.2812 110.687 78.5113 108.459 79.622C106.565 80.5667 104.983 81.9374 103.664 83.7245C102.514 85.2821 100.975 87.9707 101.987 89.9613C103.005 91.8645 105.894 91.9114 107.735 91.8674C111.926 91.7674 116.141 91.9941 120.323 92.2601C120.423 90.5301 121.607 87.7673 122.536 86.3674Z" fill="currentColor"/>
<path d="M139.619 93.1912C139.619 88.9003 136.144 85.422 131.857 85.422C127.57 85.422 124.095 88.9003 124.095 93.1912C124.095 97.482 127.57 100.96 131.857 100.96V104.726C125.492 104.726 120.333 99.5619 120.333 93.1912C120.333 86.8206 125.492 81.6561 131.857 81.6561C138.222 81.6561 143.382 86.8206 143.382 93.1912C143.382 99.5619 138.222 104.726 131.857 104.726V100.96C136.144 100.96 139.619 97.482 139.619 93.1912Z" fill="currentColor"/>
<path d="M56.49 157.71H54.0664V142.266C53.4829 142.822 52.7154 143.379 51.7639 143.935C50.8213 144.492 49.973 144.909 49.219 145.188V142.845C50.5745 142.207 51.7594 141.435 52.7737 140.529C53.7881 139.622 54.5062 138.742 54.9281 137.89H56.49V157.71Z" fill="currentColor"/>
<path d="M92.1238 154.519V149.106H86.7513V146.844H92.1238V141.471H94.4129V146.844H99.7854V149.106H94.4129V154.519H92.1238Z" fill="currentColor"/>
<path d="M135.49 157.71H133.066V142.266C132.483 142.822 131.715 143.379 130.764 143.935C129.821 144.492 128.973 144.909 128.219 145.188V142.845C129.574 142.207 130.759 141.435 131.774 140.529C132.788 139.622 133.506 138.742 133.928 137.89H135.49V157.71Z" fill="currentColor"/>
<path d="M178.785 146.103H165.751V143.841H178.785V146.103ZM178.785 152.095H165.751V149.833H178.785V152.095Z" fill="currentColor"/>
<path d="M250.746 126.467H204.216V168.953H250.746V126.467Z" stroke="currentColor" stroke-width="2" stroke-linejoin="round"/>
<path d="M44.7731 228.327C43.9346 231.348 50.6498 235.563 53.2688 234.711C51.0087 239.692 49.1328 244.94 47.5362 250.164C46.9822 251.933 46.2118 253.631 44.9983 255.049C43.922 256.284 42.5254 257.124 40.8959 257.363C37.3097 257.848 34.0782 255.163 32.1015 252.456C30.4616 250.188 29.3181 247.601 28.904 244.822C28.4287 241.632 28.9133 238.636 30.815 235.973C34.0887 231.456 40.0547 230.66 44.7731 228.327ZM43.3848 232.951C40.3303 234.207 36.0163 235.247 33.9385 238.077C32.6616 239.816 32.2582 241.803 32.6253 244.267C32.9375 246.362 33.7513 248.291 35.0417 250.099C36.1664 251.675 38.2457 253.97 40.4495 253.623C42.5726 253.241 43.5099 250.506 44.037 248.741C45.237 244.72 46.7551 240.777 48.3 236.879C46.6872 236.249 44.4277 234.268 43.3848 232.951Z" fill="currentColor"/>
<path d="M52.3687 234.42C54.9803 236.152 61.0609 231.062 61.0608 228.306C65.0952 231.996 69.5015 235.404 73.9726 238.538C75.4823 239.612 76.8578 240.87 77.8294 242.463C78.6709 243.87 79.0375 245.459 78.7608 247.084C78.1131 250.647 74.5639 252.894 71.3805 253.939C68.7186 254.799 65.9069 255.088 63.1389 254.624C59.9604 254.09 57.2634 252.703 55.3214 250.07C52.0404 245.558 53.1277 239.633 52.3687 234.42ZM56.3335 237.171C56.5837 240.467 56.2383 244.894 58.2854 247.747C59.5434 249.5 61.3066 250.498 63.761 250.91C65.8482 251.26 67.933 251.081 70.0495 250.412C71.8942 249.828 74.7181 248.558 75.069 246.353C75.3626 244.214 73.0534 242.477 71.5383 241.429C68.0889 239.044 64.8117 236.381 61.5849 233.706C60.4879 235.046 57.9075 236.585 56.3335 237.171Z" fill="currentColor"/>
<path d="M60.5059 229.073C62.9584 227.122 60.0013 219.761 57.3823 218.909C62.1356 216.209 66.7349 213.068 71.0946 209.78C72.5817 208.675 74.2022 207.754 76.0162 207.322C77.6126 206.955 79.2359 207.097 80.6942 207.863C83.8802 209.581 84.9181 213.654 84.9275 217.007C84.9222 219.807 84.3281 222.572 83.0312 225.064C81.5422 227.925 79.3907 230.063 76.2888 231.098C70.9874 232.827 65.6933 229.961 60.5059 229.073ZM64.3447 226.149C67.5538 226.929 71.6543 228.626 74.9972 227.559C77.0516 226.903 78.5447 225.533 79.6945 223.324C80.6724 221.445 81.147 219.406 81.1647 217.184C81.1801 215.247 80.8462 212.167 78.8589 211.151C76.9173 210.211 74.553 211.872 73.0896 212.991C69.7576 215.537 66.214 217.834 62.6749 220.079C63.6099 221.537 64.2745 224.469 64.3447 226.149Z" fill="currentColor"/>
<path d="M57.9395 219.675C56.8437 216.737 48.9353 217.277 47.3169 219.507C46.2201 214.148 44.6563 208.799 42.8799 203.633C42.2892 201.876 41.9152 200.049 42.0647 198.189C42.2098 196.556 42.8464 195.054 44.0244 193.903C46.6411 191.401 50.8319 191.671 54.0209 192.699C56.6796 193.569 59.1241 194.989 61.0907 196.993C63.3489 199.295 64.7163 202.004 64.7411 205.276C64.7457 210.857 60.3863 215.011 57.9395 219.675ZM56.347 215.117C58.0804 212.303 60.9599 208.924 60.9789 205.412C60.9906 203.254 60.1501 201.409 58.4064 199.632C56.9234 198.121 55.132 197.039 53.0265 196.335C51.1912 195.722 48.161 195.088 46.5819 196.666C45.0882 198.223 45.9363 200.988 46.5469 202.726C47.9371 206.685 49.0243 210.768 50.0638 214.831C51.7385 214.391 54.7298 214.665 56.347 215.117Z" fill="currentColor"/>
<path d="M48.2162 219.213C45.0862 219.349 43.1557 227.044 44.7747 229.274C39.3435 228.661 33.7776 228.497 28.32 228.592C26.4679 228.611 24.6162 228.403 22.8946 227.685C21.3878 227.043 20.1582 225.973 19.4277 224.495C17.8591 221.231 19.4112 217.326 21.3728 214.607C23.0212 212.345 25.126 210.457 27.6383 209.205C30.5229 207.766 33.5195 207.302 36.6368 208.289C41.9411 210.01 44.5409 215.443 48.2162 219.213ZM43.3932 219.321C41.2554 216.801 38.9345 213.016 35.6032 211.913C33.5561 211.235 31.5436 211.465 29.316 212.575C27.4217 213.52 25.8399 214.891 24.5209 216.678C23.3713 218.235 21.8324 220.924 22.8438 222.915C23.8622 224.818 26.7506 224.865 28.5915 224.821C32.7826 224.721 36.9981 224.947 41.1797 225.214C41.2798 223.483 42.4638 220.721 43.3932 219.321Z" fill="currentColor"/>
<path d="M60.4763 226.145C60.4761 221.854 57.001 218.375 52.7141 218.375C48.4272 218.375 44.9519 221.854 44.9519 226.145C44.9519 230.435 48.4272 233.914 52.7141 233.914V237.68C46.3492 237.68 41.1895 232.515 41.1895 226.145C41.1895 219.774 46.3492 214.609 52.7141 214.609C59.079 214.609 64.2385 219.774 64.2387 226.145C64.2387 232.515 59.079 237.68 52.7141 237.68V233.914C57.001 233.914 60.4763 230.435 60.4763 226.145Z" fill="currentColor"/>
<path d="M123.916 228.327C123.078 231.348 129.793 235.563 132.412 234.711C130.152 239.692 128.276 244.94 126.679 250.164C126.125 251.933 125.355 253.631 124.141 255.049C123.065 256.284 121.668 257.124 120.039 257.363C116.453 257.848 113.221 255.163 111.245 252.456C109.605 250.188 108.461 247.601 108.047 244.822C107.572 241.632 108.056 238.636 109.958 235.973C113.232 231.456 119.198 230.66 123.916 228.327ZM122.528 232.951C119.473 234.207 115.159 235.247 113.082 238.077C111.805 239.816 111.401 241.803 111.768 244.267C112.081 246.362 112.894 248.291 114.185 250.099C115.31 251.675 117.389 253.97 119.593 253.623C121.716 253.241 122.653 250.506 123.18 248.741C124.38 244.72 125.898 240.777 127.443 236.879C125.83 236.249 123.571 234.268 122.528 232.951Z" fill="currentColor"/>
<path d="M131.512 234.42C134.123 236.152 140.204 231.062 140.204 228.306C144.238 231.996 148.645 235.404 153.116 238.538C154.625 239.612 156.001 240.87 156.972 242.463C157.814 243.87 158.181 245.459 157.904 247.084C157.256 250.647 153.707 252.894 150.524 253.939C147.862 254.799 145.05 255.088 142.282 254.623C139.104 254.09 136.406 252.703 134.464 250.07C131.183 245.558 132.271 239.633 131.512 234.42ZM135.477 237.171C135.727 240.467 135.381 244.894 137.428 247.747C138.686 249.5 140.45 250.498 142.904 250.91C144.991 251.26 147.076 251.081 149.193 250.412C151.037 249.828 153.861 248.558 154.212 246.353C154.506 244.214 152.196 242.477 150.681 241.429C147.232 239.044 143.955 236.381 140.728 233.705C139.631 235.046 137.051 236.585 135.477 237.171Z" fill="currentColor"/>
<path d="M139.649 229.073C142.101 227.122 139.144 219.761 136.525 218.909C141.279 216.209 145.878 213.068 150.238 209.78C151.725 208.675 153.345 207.754 155.159 207.322C156.756 206.955 158.379 207.097 159.837 207.863C163.023 209.581 164.061 213.654 164.071 217.007C164.065 219.807 163.471 222.572 162.174 225.064C160.685 227.925 158.534 230.063 155.432 231.098C150.13 232.827 144.836 229.961 139.649 229.073ZM143.488 226.149C146.697 226.929 150.797 228.626 154.14 227.559C156.195 226.903 157.688 225.533 158.838 223.324C159.815 221.445 160.29 219.406 160.308 217.184C160.323 215.247 159.989 212.167 158.002 211.151C156.06 210.211 153.696 211.872 152.233 212.991C148.901 215.537 145.357 217.834 141.818 220.079C142.753 221.537 143.418 224.469 143.488 226.149Z" fill="currentColor"/>
<path d="M137.083 219.675C135.987 216.737 128.078 217.277 126.46 219.507C125.363 214.148 123.799 208.799 122.023 203.633C121.432 201.876 121.058 200.049 121.208 198.189C121.353 196.556 121.989 195.054 123.167 193.903C125.784 191.401 129.975 191.671 133.164 192.699C135.823 193.569 138.267 194.989 140.234 196.993C142.492 199.295 143.859 202.004 143.884 205.276C143.889 210.857 139.529 215.011 137.083 219.675ZM135.49 215.117C137.223 212.303 140.103 208.924 140.122 205.412C140.134 203.254 139.293 201.409 137.549 199.632C136.066 198.121 134.275 197.039 132.17 196.335C130.334 195.722 127.304 195.088 125.725 196.666C124.231 198.223 125.079 200.988 125.69 202.726C127.08 206.685 128.167 210.768 129.207 214.831C130.882 214.391 133.873 214.665 135.49 215.117Z" fill="currentColor"/>
<path d="M127.359 219.213C124.229 219.349 122.299 227.044 123.918 229.274C118.487 228.661 112.921 228.497 107.463 228.592C105.611 228.611 103.759 228.403 102.038 227.685C100.531 227.043 99.3012 225.973 98.5708 224.495C97.0021 221.231 98.5542 217.326 100.516 214.607C102.164 212.345 104.269 210.457 106.781 209.205C109.666 207.766 112.663 207.302 115.78 208.289C121.084 210.01 123.684 215.443 127.359 219.213ZM122.536 219.321C120.398 216.801 118.078 213.016 114.746 211.913C112.699 211.235 110.687 211.465 108.459 212.575C106.565 213.52 104.983 214.891 103.664 216.678C102.514 218.235 100.975 220.924 101.987 222.915C103.005 224.818 105.894 224.865 107.735 224.821C111.926 224.721 116.141 224.947 120.323 225.214C120.423 223.483 121.607 220.721 122.536 219.321Z" fill="currentColor"/>
<path d="M139.619 226.145C139.619 221.854 136.144 218.375 131.857 218.375C127.57 218.375 124.095 221.854 124.095 226.145C124.095 230.435 127.57 233.914 131.857 233.914V237.68C125.492 237.68 120.333 232.515 120.333 226.145C120.333 219.774 125.492 214.609 131.857 214.609C138.222 214.609 143.382 219.774 143.382 226.145C143.382 232.515 138.222 237.68 131.857 237.68V233.914C136.144 233.914 139.619 230.435 139.619 226.145Z" fill="currentColor"/>
<path d="M56.49 290.663H54.0664V275.219C53.4829 275.776 52.7154 276.332 51.7639 276.889C50.8213 277.445 49.973 277.863 49.219 278.141V275.798C50.5745 275.161 51.7594 274.389 52.7737 273.482C53.7881 272.576 54.5062 271.696 54.9281 270.843H56.49V290.663Z" fill="currentColor"/>
<path d="M92.1238 287.472V282.059H86.7513V279.797H92.1238V274.425H94.4129V279.797H99.7854V282.059H94.4129V287.472H92.1238Z" fill="currentColor"/>
<path d="M135.49 290.663H133.066V275.219C132.483 275.776 131.715 276.332 130.764 276.889C129.821 277.445 128.973 277.863 128.219 278.141V275.798C129.574 275.161 130.759 274.389 131.774 273.482C132.788 272.576 133.506 271.696 133.928 270.843H135.49V290.663Z" fill="currentColor"/>
<path d="M178.785 279.057H165.751V276.795H178.785V279.057ZM178.785 285.049H165.751V282.786H178.785V285.049Z" fill="currentColor"/>
<path d="M250.746 259.42H204.216V301.907H250.746V259.42Z" stroke="currentColor" stroke-width="2" stroke-linejoin="round"/>
  </g>
</svg>
