<svg width="398" height="281" viewBox="0 0 398 281" fill="none" xmlns="http://www.w3.org/2000/svg">
  <style>
    /* Default color for standalone viewing - overridden by currentColor when embedded in HTML */
    svg {
      color: #636363;
    }
  </style>
  <rect width="398" height="281" fill="white"/>
  <g transform="translate(99.803 0.000) scale(0.706030)">
<path d="M44.7731 52.3732C43.9346 55.3945 50.6498 59.61 53.2688 58.7579C51.0087 63.7388 49.1328 68.9863 47.5362 74.2108C46.9822 75.9798 46.2118 77.678 44.9983 79.0953C43.922 80.3311 42.5254 81.1708 40.8959 81.4098C37.3097 81.8942 34.0782 79.21 32.1015 76.5025C30.4616 74.2344 29.3181 71.6474 28.904 68.8688C28.4287 65.6784 28.9133 62.6823 30.815 60.0201C34.0887 55.5024 40.0547 54.7065 44.7731 52.3732ZM43.3848 56.9974C40.3303 58.2541 36.0163 59.2934 33.9385 62.1237C32.6616 63.8629 32.2582 65.8496 32.6253 68.3134C32.9375 70.4085 33.7513 72.3379 35.0417 74.1457C36.1664 75.7213 38.2457 78.017 40.4495 77.6694C42.5726 77.2881 43.5099 74.553 44.037 72.7872C45.237 68.7666 46.7551 64.8237 48.3 60.9256C46.6872 60.2957 44.4277 58.3147 43.3848 56.9974Z" fill="currentColor"/>
<path d="M52.3687 58.4667C54.9803 60.1986 61.0609 55.1089 61.0608 52.3525C65.0952 56.0431 69.5015 59.4506 73.9726 62.5847C75.4823 63.6587 76.8578 64.9168 77.8294 66.51C78.6709 67.9163 79.0375 69.5055 78.7608 71.1303C78.1131 74.6939 74.5639 76.9406 71.3805 77.9854C68.7186 78.8457 65.9069 79.1347 63.1389 78.6702C59.9604 78.137 57.2634 76.7496 55.3214 74.1168C52.0404 69.6046 53.1277 63.6794 52.3687 58.4667ZM56.3335 61.2173C56.5837 64.5133 56.2383 68.941 58.2854 71.7936C59.5434 73.5464 61.3066 74.5444 63.761 74.9564C65.8482 75.3066 67.933 75.1281 70.0495 74.4583C71.8942 73.8746 74.7181 72.6048 75.069 70.3993C75.3626 68.2605 73.0534 66.5233 71.5383 65.4759C68.0889 63.091 64.8117 60.4276 61.5849 57.7522C60.4879 59.0928 57.9075 60.6315 56.3335 61.2173Z" fill="currentColor"/>
<path d="M60.5059 53.1196C62.9584 51.1687 60.0013 43.8074 57.3823 42.956C62.1356 40.2559 66.7349 37.1143 71.0946 33.8269C72.5817 32.7216 74.2022 31.801 76.0162 31.3685C77.6126 31.0019 79.2359 31.1441 80.6942 31.9095C83.8802 33.6273 84.9181 37.7002 84.9275 41.0533C84.9222 43.8532 84.3281 46.6188 83.0312 49.1103C81.5422 51.9712 79.3907 54.11 76.2888 55.1448C70.9874 56.8737 65.6933 54.0078 60.5059 53.1196ZM64.3447 50.1952C67.5538 50.9757 71.6543 52.6728 74.9972 51.6055C77.0516 50.9497 78.5447 49.5797 79.6945 47.3705C80.6724 45.4917 81.147 43.4521 81.1647 41.2305C81.1801 39.2939 80.8462 36.2135 78.8589 35.198C76.9173 34.2575 74.553 35.9188 73.0896 37.0374C69.7576 39.5841 66.214 41.8807 62.6749 44.1257C63.6099 45.584 64.2745 48.5159 64.3447 50.1952Z" fill="currentColor"/>
<path d="M57.9395 43.7214C56.8437 40.7837 48.9353 41.3239 47.3169 43.554C46.2201 38.1948 44.6563 32.8457 42.8799 27.6798C42.2892 25.9227 41.9152 24.0956 42.0647 22.2351C42.2098 20.6022 42.8464 19.101 44.0244 17.9492C46.6411 15.4473 50.8319 15.7179 54.0209 16.7453C56.6796 17.6154 59.1241 19.0356 61.0907 21.0399C63.3489 23.3413 64.7163 26.0504 64.7411 29.323C64.7457 34.9039 60.3863 39.0576 57.9395 43.7214ZM56.347 39.1634C58.0804 36.3498 60.9599 32.9708 60.9789 29.4588C60.9906 27.3005 60.1501 25.4558 58.4064 23.6786C56.9234 22.1673 55.132 21.0851 53.0265 20.3818C51.1912 19.7687 48.161 19.1347 46.5819 20.7125C45.0882 22.2701 45.9363 25.0342 46.5469 26.7729C47.9371 30.7316 49.0243 34.8145 50.0638 38.8772C51.7385 38.4379 54.7298 38.7113 56.347 39.1634Z" fill="currentColor"/>
<path d="M48.2162 43.2599C45.0862 43.3954 43.1557 51.0903 44.7747 53.3203C39.3435 52.7079 33.7776 52.5438 28.32 52.6385C26.4679 52.6577 24.6162 52.4492 22.8946 51.7318C21.3878 51.0892 20.1582 50.0193 19.4277 48.542C17.8591 45.278 19.4112 41.3722 21.3728 38.6541C23.0212 36.3921 25.126 34.504 27.6383 33.2513C30.5229 31.8129 33.5195 31.3484 36.6368 32.336C41.9411 34.0562 44.5409 39.4895 48.2162 43.2599ZM43.3932 43.3674C41.2554 40.848 38.9345 37.0626 35.6032 35.9592C33.5561 35.2812 31.5436 35.5113 29.316 36.622C27.4217 37.5667 25.8399 38.9374 24.5209 40.7245C23.3713 42.2821 21.8324 44.9707 22.8438 46.9613C23.8622 48.8645 26.7506 48.9114 28.5915 48.8674C32.7826 48.7674 36.9981 48.9941 41.1797 49.2601C41.2798 47.5301 42.4638 44.7673 43.3932 43.3674Z" fill="currentColor"/>
<path d="M60.4763 50.1912C60.4761 45.9003 57.001 42.422 52.7141 42.422C48.4272 42.422 44.9519 45.9003 44.9519 50.1912C44.9519 54.482 48.4272 57.9603 52.7141 57.9603V61.7262C46.3492 61.7262 41.1895 56.5619 41.1895 50.1912C41.1895 43.8206 46.3492 38.6561 52.7141 38.6561C59.079 38.6561 64.2385 43.8206 64.2387 50.1912C64.2387 56.5619 59.079 61.7262 52.7141 61.7262V57.9603C57.001 57.9603 60.4763 54.482 60.4763 50.1912Z" fill="currentColor"/>
<path d="M123.916 52.3732C123.078 55.3945 129.793 59.61 132.412 58.7579C130.152 63.7388 128.276 68.9863 126.679 74.2108C126.125 75.9798 125.355 77.678 124.141 79.0953C123.065 80.3311 121.668 81.1708 120.039 81.4098C116.453 81.8942 113.221 79.21 111.245 76.5025C109.605 74.2344 108.461 71.6474 108.047 68.8688C107.572 65.6784 108.056 62.6823 109.958 60.0201C113.232 55.5024 119.198 54.7065 123.916 52.3732ZM122.528 56.9974C119.473 58.2541 115.159 59.2934 113.082 62.1237C111.805 63.8629 111.401 65.8496 111.768 68.3134C112.081 70.4085 112.894 72.3379 114.185 74.1457C115.31 75.7213 117.389 78.017 119.593 77.6694C121.716 77.2881 122.653 74.553 123.18 72.7872C124.38 68.7666 125.898 64.8237 127.443 60.9256C125.83 60.2957 123.571 58.3147 122.528 56.9974Z" fill="currentColor"/>
<path d="M131.512 58.4666C134.123 60.1985 140.204 55.1088 140.204 52.3524C144.238 56.0429 148.645 59.4504 153.116 62.5845C154.625 63.6586 156.001 64.9167 156.972 66.5099C157.814 67.9162 158.181 69.5054 157.904 71.1302C157.256 74.6938 153.707 76.9405 150.524 77.9853C147.862 78.8456 145.05 79.1346 142.282 78.6701C139.104 78.1369 136.406 76.7495 134.464 74.1166C131.183 69.6044 132.271 63.6793 131.512 58.4666ZM135.477 61.2172C135.727 64.5132 135.381 68.9409 137.428 71.7935C138.686 73.5463 140.45 74.5443 142.904 74.9562C144.991 75.3065 147.076 75.128 149.193 74.4582C151.037 73.8745 153.861 72.6047 154.212 70.3992C154.506 68.2604 152.196 66.5232 150.681 65.4758C147.232 63.0909 143.955 60.4275 140.728 57.752C139.631 59.0927 137.051 60.6314 135.477 61.2172Z" fill="currentColor"/>
<path d="M139.649 53.1196C142.101 51.1687 139.144 43.8074 136.525 42.956C141.279 40.2559 145.878 37.1143 150.238 33.8269C151.725 32.7216 153.345 31.801 155.159 31.3685C156.756 31.0019 158.379 31.1441 159.837 31.9095C163.023 33.6273 164.061 37.7002 164.071 41.0533C164.065 43.8532 163.471 46.6188 162.174 49.1103C160.685 51.9712 158.534 54.11 155.432 55.1448C150.13 56.8737 144.836 54.0078 139.649 53.1196ZM143.488 50.1952C146.697 50.9757 150.797 52.6728 154.14 51.6055C156.195 50.9497 157.688 49.5797 158.838 47.3705C159.815 45.4917 160.29 43.4521 160.308 41.2305C160.323 39.2939 159.989 36.2135 158.002 35.198C156.06 34.2575 153.696 35.9188 152.233 37.0374C148.901 39.5841 145.357 41.8807 141.818 44.1257C142.753 45.584 143.418 48.5159 143.488 50.1952Z" fill="currentColor"/>
<path d="M137.083 43.7214C135.987 40.7837 128.078 41.3239 126.46 43.554C125.363 38.1948 123.799 32.8457 122.023 27.6798C121.432 25.9227 121.058 24.0956 121.208 22.2351C121.353 20.6022 121.989 19.101 123.167 17.9492C125.784 15.4473 129.975 15.7179 133.164 16.7453C135.823 17.6154 138.267 19.0356 140.234 21.0399C142.492 23.3413 143.859 26.0504 143.884 29.323C143.889 34.9039 139.529 39.0576 137.083 43.7214ZM135.49 39.1634C137.223 36.3498 140.103 32.9708 140.122 29.4588C140.134 27.3005 139.293 25.4558 137.549 23.6786C136.066 22.1673 134.275 21.0851 132.17 20.3818C130.334 19.7687 127.304 19.1347 125.725 20.7125C124.231 22.2701 125.079 25.0342 125.69 26.7729C127.08 30.7316 128.167 34.8145 129.207 38.8772C130.882 38.4379 133.873 38.7113 135.49 39.1634Z" fill="currentColor"/>
<path d="M127.359 43.2599C124.229 43.3954 122.299 51.0903 123.918 53.3203C118.487 52.7079 112.921 52.5438 107.463 52.6385C105.611 52.6577 103.759 52.4492 102.038 51.7318C100.531 51.0892 99.3012 50.0193 98.5708 48.542C97.0021 45.278 98.5542 41.3722 100.516 38.6541C102.164 36.3921 104.269 34.504 106.781 33.2513C109.666 31.8129 112.663 31.3484 115.78 32.336C121.084 34.0562 123.684 39.4895 127.359 43.2599ZM122.536 43.3674C120.398 40.848 118.078 37.0626 114.746 35.9592C112.699 35.2812 110.687 35.5113 108.459 36.622C106.565 37.5667 104.983 38.9374 103.664 40.7245C102.514 42.2821 100.975 44.9707 101.987 46.9613C103.005 48.8645 105.894 48.9114 107.735 48.8674C111.926 48.7674 116.141 48.9941 120.323 49.2601C120.423 47.5301 121.607 44.7673 122.536 43.3674Z" fill="currentColor"/>
<path d="M139.619 50.1912C139.619 45.9003 136.144 42.422 131.857 42.422C127.57 42.422 124.095 45.9003 124.095 50.1912C124.095 54.482 127.57 57.9603 131.857 57.9603V61.7262C125.492 61.7262 120.333 56.5619 120.333 50.1912C120.333 43.8206 125.492 38.6561 131.857 38.6561C138.222 38.6561 143.382 43.8206 143.382 50.1912C143.382 56.5619 138.222 61.7262 131.857 61.7262V57.9603C136.144 57.9603 139.619 54.482 139.619 50.1912Z" fill="currentColor"/>
<path d="M56.49 114.71H54.0664V99.2658C53.4829 99.8224 52.7154 100.379 51.7639 100.935C50.8213 101.492 49.973 101.909 49.219 102.188V99.8448C50.5745 99.2075 51.7594 98.4355 52.7737 97.5288C53.7881 96.6222 54.5062 95.7425 54.9281 94.8897H56.49V114.71Z" fill="currentColor"/>
<path d="M92.1238 111.519V106.106H86.7513V103.844H92.1238V98.4714H94.4129V103.844H99.7854V106.106H94.4129V111.519H92.1238Z" fill="currentColor"/>
<path d="M135.49 114.71H133.066V99.2658C132.483 99.8224 131.715 100.379 130.764 100.935C129.821 101.492 128.973 101.909 128.219 102.188V99.8448C129.574 99.2075 130.759 98.4355 131.774 97.5288C132.788 96.6222 133.506 95.7425 133.928 94.8897H135.49V114.71Z" fill="currentColor"/>
<path d="M178.785 103.103H165.751V100.841H178.785V103.103ZM178.785 109.095H165.751V106.833H178.785V109.095Z" fill="currentColor"/>
<path d="M250.746 83.4668H204.216V125.953H250.746V83.4668Z" stroke="currentColor" stroke-width="2" stroke-linejoin="round"/>
<path d="M44.7731 185.327C43.9346 188.348 50.6498 192.563 53.2688 191.711C51.0087 196.692 49.1328 201.94 47.5362 207.164C46.9822 208.933 46.2118 210.631 44.9983 212.049C43.922 213.284 42.5254 214.124 40.8959 214.363C37.3097 214.848 34.0782 212.163 32.1015 209.456C30.4616 207.188 29.3181 204.601 28.904 201.822C28.4287 198.632 28.9133 195.636 30.815 192.973C34.0887 188.456 40.0547 187.66 44.7731 185.327ZM43.3848 189.951C40.3303 191.207 36.0163 192.247 33.9385 195.077C32.6616 196.816 32.2582 198.803 32.6253 201.267C32.9375 203.362 33.7513 205.291 35.0417 207.099C36.1664 208.675 38.2457 210.97 40.4495 210.623C42.5726 210.241 43.5099 207.506 44.037 205.741C45.237 201.72 46.7551 197.777 48.3 193.879C46.6872 193.249 44.4277 191.268 43.3848 189.951Z" fill="currentColor"/>
<path d="M52.3687 191.42C54.9803 193.152 61.0609 188.062 61.0608 185.306C65.0952 188.996 69.5015 192.404 73.9726 195.538C75.4823 196.612 76.8578 197.87 77.8294 199.463C78.6709 200.87 79.0375 202.459 78.7608 204.084C78.1131 207.647 74.5639 209.894 71.3805 210.939C68.7186 211.799 65.9069 212.088 63.1389 211.624C59.9604 211.09 57.2634 209.703 55.3214 207.07C52.0404 202.558 53.1277 196.633 52.3687 191.42ZM56.3335 194.171C56.5837 197.467 56.2383 201.894 58.2854 204.747C59.5434 206.5 61.3066 207.498 63.761 207.91C65.8482 208.26 67.933 208.081 70.0495 207.412C71.8942 206.828 74.7181 205.558 75.069 203.353C75.3626 201.214 73.0534 199.477 71.5383 198.429C68.0889 196.044 64.8117 193.381 61.5849 190.706C60.4879 192.046 57.9075 193.585 56.3335 194.171Z" fill="currentColor"/>
<path d="M60.5059 186.073C62.9584 184.122 60.0013 176.761 57.3823 175.909C62.1356 173.209 66.7349 170.068 71.0946 166.78C72.5817 165.675 74.2022 164.754 76.0162 164.322C77.6126 163.955 79.2359 164.097 80.6942 164.863C83.8802 166.581 84.9181 170.654 84.9275 174.007C84.9222 176.807 84.3281 179.572 83.0312 182.064C81.5422 184.925 79.3907 187.063 76.2888 188.098C70.9874 189.827 65.6933 186.961 60.5059 186.073ZM64.3447 183.149C67.5538 183.929 71.6543 185.626 74.9972 184.559C77.0516 183.903 78.5447 182.533 79.6945 180.324C80.6724 178.445 81.147 176.406 81.1647 174.184C81.1801 172.247 80.8462 169.167 78.8589 168.151C76.9173 167.211 74.553 168.872 73.0896 169.991C69.7576 172.537 66.214 174.834 62.6749 177.079C63.6099 178.537 64.2745 181.469 64.3447 183.149Z" fill="currentColor"/>
<path d="M57.9395 176.675C56.8437 173.737 48.9353 174.277 47.3169 176.507C46.2201 171.148 44.6563 165.799 42.8799 160.633C42.2892 158.876 41.9152 157.049 42.0647 155.189C42.2098 153.556 42.8464 152.054 44.0244 150.903C46.6411 148.401 50.8319 148.671 54.0209 149.699C56.6796 150.569 59.1241 151.989 61.0907 153.993C63.3489 156.295 64.7163 159.004 64.7411 162.276C64.7457 167.857 60.3863 172.011 57.9395 176.675ZM56.347 172.117C58.0804 169.303 60.9599 165.924 60.9789 162.412C60.9906 160.254 60.1501 158.409 58.4064 156.632C56.9234 155.121 55.132 154.039 53.0265 153.335C51.1912 152.722 48.161 152.088 46.5819 153.666C45.0882 155.223 45.9363 157.988 46.5469 159.726C47.9371 163.685 49.0243 167.768 50.0638 171.831C51.7385 171.391 54.7298 171.665 56.347 172.117Z" fill="currentColor"/>
<path d="M48.2162 176.213C45.0862 176.349 43.1557 184.044 44.7747 186.274C39.3435 185.661 33.7776 185.497 28.32 185.592C26.4679 185.611 24.6162 185.403 22.8946 184.685C21.3878 184.043 20.1582 182.973 19.4277 181.495C17.8591 178.231 19.4112 174.326 21.3728 171.607C23.0212 169.345 25.126 167.457 27.6383 166.205C30.5229 164.766 33.5195 164.302 36.6368 165.289C41.9411 167.01 44.5409 172.443 48.2162 176.213ZM43.3932 176.321C41.2554 173.801 38.9345 170.016 35.6032 168.913C33.5561 168.235 31.5436 168.465 29.316 169.575C27.4217 170.52 25.8399 171.891 24.5209 173.678C23.3713 175.235 21.8324 177.924 22.8438 179.915C23.8622 181.818 26.7506 181.865 28.5915 181.821C32.7826 181.721 36.9981 181.947 41.1797 182.214C41.2798 180.483 42.4638 177.721 43.3932 176.321Z" fill="currentColor"/>
<path d="M60.4763 183.145C60.4761 178.854 57.001 175.375 52.7141 175.375C48.4272 175.375 44.9519 178.854 44.9519 183.145C44.9519 187.435 48.4272 190.914 52.7141 190.914V194.68C46.3492 194.68 41.1895 189.515 41.1895 183.145C41.1895 176.774 46.3492 171.609 52.7141 171.609C59.079 171.609 64.2385 176.774 64.2387 183.145C64.2387 189.515 59.079 194.68 52.7141 194.68V190.914C57.001 190.914 60.4763 187.435 60.4763 183.145Z" fill="currentColor"/>
<path d="M123.916 185.327C123.078 188.348 129.793 192.563 132.412 191.711C130.152 196.692 128.276 201.94 126.679 207.164C126.125 208.933 125.355 210.631 124.141 212.049C123.065 213.284 121.668 214.124 120.039 214.363C116.453 214.848 113.221 212.163 111.245 209.456C109.605 207.188 108.461 204.601 108.047 201.822C107.572 198.632 108.056 195.636 109.958 192.973C113.232 188.456 119.198 187.66 123.916 185.327ZM122.528 189.951C119.473 191.207 115.159 192.247 113.082 195.077C111.805 196.816 111.401 198.803 111.768 201.267C112.081 203.362 112.894 205.291 114.185 207.099C115.31 208.675 117.389 210.97 119.593 210.623C121.716 210.241 122.653 207.506 123.18 205.741C124.38 201.72 125.898 197.777 127.443 193.879C125.83 193.249 123.571 191.268 122.528 189.951Z" fill="currentColor"/>
<path d="M131.512 191.42C134.123 193.152 140.204 188.062 140.204 185.306C144.238 188.996 148.645 192.404 153.116 195.538C154.625 196.612 156.001 197.87 156.972 199.463C157.814 200.87 158.181 202.459 157.904 204.084C157.256 207.647 153.707 209.894 150.524 210.939C147.862 211.799 145.05 212.088 142.282 211.623C139.104 211.09 136.406 209.703 134.464 207.07C131.183 202.558 132.271 196.633 131.512 191.42ZM135.477 194.171C135.727 197.467 135.381 201.894 137.428 204.747C138.686 206.5 140.45 207.498 142.904 207.91C144.991 208.26 147.076 208.081 149.193 207.412C151.037 206.828 153.861 205.558 154.212 203.353C154.506 201.214 152.196 199.477 150.681 198.429C147.232 196.044 143.955 193.381 140.728 190.705C139.631 192.046 137.051 193.585 135.477 194.171Z" fill="currentColor"/>
<path d="M139.649 186.073C142.101 184.122 139.144 176.761 136.525 175.909C141.279 173.209 145.878 170.068 150.238 166.78C151.725 165.675 153.345 164.754 155.159 164.322C156.756 163.955 158.379 164.097 159.837 164.863C163.023 166.581 164.061 170.654 164.071 174.007C164.065 176.807 163.471 179.572 162.174 182.064C160.685 184.925 158.534 187.063 155.432 188.098C150.13 189.827 144.836 186.961 139.649 186.073ZM143.488 183.149C146.697 183.929 150.797 185.626 154.14 184.559C156.195 183.903 157.688 182.533 158.838 180.324C159.815 178.445 160.29 176.406 160.308 174.184C160.323 172.247 159.989 169.167 158.002 168.151C156.06 167.211 153.696 168.872 152.233 169.991C148.901 172.537 145.357 174.834 141.818 177.079C142.753 178.537 143.418 181.469 143.488 183.149Z" fill="currentColor"/>
<path d="M137.083 176.675C135.987 173.737 128.078 174.277 126.46 176.507C125.363 171.148 123.799 165.799 122.023 160.633C121.432 158.876 121.058 157.049 121.208 155.189C121.353 153.556 121.989 152.054 123.167 150.903C125.784 148.401 129.975 148.671 133.164 149.699C135.823 150.569 138.267 151.989 140.234 153.993C142.492 156.295 143.859 159.004 143.884 162.276C143.889 167.857 139.529 172.011 137.083 176.675ZM135.49 172.117C137.223 169.303 140.103 165.924 140.122 162.412C140.134 160.254 139.293 158.409 137.549 156.632C136.066 155.121 134.275 154.039 132.17 153.335C130.334 152.722 127.304 152.088 125.725 153.666C124.231 155.223 125.079 157.988 125.69 159.726C127.08 163.685 128.167 167.768 129.207 171.831C130.882 171.391 133.873 171.665 135.49 172.117Z" fill="currentColor"/>
<path d="M127.359 176.213C124.229 176.349 122.299 184.044 123.918 186.274C118.487 185.661 112.921 185.497 107.463 185.592C105.611 185.611 103.759 185.403 102.038 184.685C100.531 184.043 99.3012 182.973 98.5708 181.495C97.0021 178.231 98.5542 174.326 100.516 171.607C102.164 169.345 104.269 167.457 106.781 166.205C109.666 164.766 112.663 164.302 115.78 165.289C121.084 167.01 123.684 172.443 127.359 176.213ZM122.536 176.321C120.398 173.801 118.078 170.016 114.746 168.913C112.699 168.235 110.687 168.465 108.459 169.575C106.565 170.52 104.983 171.891 103.664 173.678C102.514 175.235 100.975 177.924 101.987 179.915C103.005 181.818 105.894 181.865 107.735 181.821C111.926 181.721 116.141 181.947 120.323 182.214C120.423 180.483 121.607 177.721 122.536 176.321Z" fill="currentColor"/>
<path d="M139.619 183.145C139.619 178.854 136.144 175.375 131.857 175.375C127.57 175.375 124.095 178.854 124.095 183.145C124.095 187.435 127.57 190.914 131.857 190.914V194.68C125.492 194.68 120.333 189.515 120.333 183.145C120.333 176.774 125.492 171.609 131.857 171.609C138.222 171.609 143.382 176.774 143.382 183.145C143.382 189.515 138.222 194.68 131.857 194.68V190.914C136.144 190.914 139.619 187.435 139.619 183.145Z" fill="currentColor"/>
<path d="M56.49 247.663H54.0664V232.219C53.4829 232.776 52.7154 233.332 51.7639 233.889C50.8213 234.445 49.973 234.863 49.219 235.141V232.798C50.5745 232.161 51.7594 231.389 52.7737 230.482C53.7881 229.576 54.5062 228.696 54.9281 227.843H56.49V247.663Z" fill="currentColor"/>
<path d="M92.1238 244.472V239.059H86.7513V236.797H92.1238V231.425H94.4129V236.797H99.7854V239.059H94.4129V244.472H92.1238Z" fill="currentColor"/>
<path d="M135.49 247.663H133.066V232.219C132.483 232.776 131.715 233.332 130.764 233.889C129.821 234.445 128.973 234.863 128.219 235.141V232.798C129.574 232.161 130.759 231.389 131.774 230.482C132.788 229.576 133.506 228.696 133.928 227.843H135.49V247.663Z" fill="currentColor"/>
<path d="M178.785 236.057H165.751V233.795H178.785V236.057ZM178.785 242.049H165.751V239.786H178.785V242.049Z" fill="currentColor"/>
<path d="M250.746 216.42H204.216V258.907H250.746V216.42Z" stroke="currentColor" stroke-width="2" stroke-linejoin="round"/>
<path d="M44.7731 318.28C43.9346 321.301 50.6498 325.517 53.2688 324.665C51.0087 329.645 49.1328 334.893 47.5362 340.117C46.9822 341.886 46.2118 343.585 44.9983 345.002C43.922 346.238 42.5254 347.077 40.8959 347.316C37.3097 347.801 34.0782 345.117 32.1015 342.409C30.4616 340.141 29.3181 337.554 28.904 334.775C28.4287 331.585 28.9133 328.589 30.815 325.927C34.0887 321.409 40.0547 320.613 44.7731 318.28ZM43.3848 322.904C40.3303 324.161 36.0163 325.2 33.9385 328.03C32.6616 329.77 32.2582 331.756 32.6253 334.22C32.9375 336.315 33.7513 338.245 35.0417 340.052C36.1664 341.628 38.2457 343.924 40.4495 343.576C42.5726 343.195 43.5099 340.46 44.037 338.694C45.237 334.673 46.7551 330.73 48.3 326.832C46.6872 326.202 44.4277 324.221 43.3848 322.904Z" fill="currentColor"/>
<path d="M52.3687 324.373C54.9803 326.105 61.0609 321.016 61.0608 318.259C65.0952 321.95 69.5015 325.357 73.9726 328.491C75.4823 329.565 76.8578 330.823 77.8294 332.417C78.6709 333.823 79.0375 335.412 78.7608 337.037C78.1131 340.6 74.5639 342.847 71.3805 343.892C68.7186 344.752 65.9069 345.041 63.1389 344.577C59.9604 344.044 57.2634 342.656 55.3214 340.023C52.0404 335.511 53.1277 329.586 52.3687 324.373ZM56.3335 327.124C56.5837 330.42 56.2383 334.848 58.2854 337.7C59.5434 339.453 61.3066 340.451 63.761 340.863C65.8482 341.213 67.933 341.035 70.0495 340.365C71.8942 339.781 74.7181 338.511 75.069 336.306C75.3626 334.167 73.0534 332.43 71.5383 331.382C68.0889 328.998 64.8117 326.334 61.5849 323.659C60.4879 324.999 57.9075 326.538 56.3335 327.124Z" fill="currentColor"/>
<path d="M60.5059 319.026C62.9584 317.075 60.0013 309.714 57.3823 308.863C62.1356 306.163 66.7349 303.021 71.0946 299.733C72.5817 298.628 74.2022 297.708 76.0162 297.275C77.6126 296.908 79.2359 297.051 80.6942 297.816C83.8802 299.534 84.9181 303.607 84.9275 306.96C84.9222 309.76 84.3281 312.525 83.0312 315.017C81.5422 317.878 79.3907 320.017 76.2888 321.051C70.9874 322.78 65.6933 319.914 60.5059 319.026ZM64.3447 316.102C67.5538 316.882 71.6543 318.579 74.9972 317.512C77.0516 316.856 78.5447 315.486 79.6945 313.277C80.6724 311.398 81.147 309.359 81.1647 307.137C81.1801 305.201 80.8462 302.12 78.8589 301.105C76.9173 300.164 74.553 301.825 73.0896 302.944C69.7576 305.491 66.214 307.787 62.6749 310.032C63.6099 311.491 64.2745 314.422 64.3447 316.102Z" fill="currentColor"/>
<path d="M57.9395 309.628C56.8437 306.69 48.9353 307.23 47.3169 309.461C46.2201 304.101 44.6563 298.752 42.8799 293.586C42.2892 291.829 41.9152 290.002 42.0647 288.142C42.2098 286.509 42.8464 285.008 44.0244 283.856C46.6411 281.354 50.8319 281.624 54.0209 282.652C56.6796 283.522 59.1241 284.942 61.0907 286.947C63.3489 289.248 64.7163 291.957 64.7411 295.23C64.7457 300.811 60.3863 304.964 57.9395 309.628ZM56.347 305.07C58.0804 302.256 60.9599 298.877 60.9789 295.365C60.9906 293.207 60.1501 291.362 58.4064 289.585C56.9234 288.074 55.132 286.992 53.0265 286.288C51.1912 285.675 48.161 285.041 46.5819 286.619C45.0882 288.177 45.9363 290.941 46.5469 292.68C47.9371 296.638 49.0243 300.721 50.0638 304.784C51.7385 304.345 54.7298 304.618 56.347 305.07Z" fill="currentColor"/>
<path d="M48.2162 309.166C45.0862 309.302 43.1557 316.997 44.7747 319.227C39.3435 318.615 33.7776 318.45 28.32 318.545C26.4679 318.564 24.6162 318.356 22.8946 317.638C21.3878 316.996 20.1582 315.926 19.4277 314.449C17.8591 311.185 19.4112 307.279 21.3728 304.561C23.0212 302.299 25.126 300.411 27.6383 299.158C30.5229 297.72 33.5195 297.255 36.6368 298.243C41.9411 299.963 44.5409 305.396 48.2162 309.166ZM43.3932 309.274C41.2554 306.755 38.9345 302.969 35.6032 301.866C33.5561 301.188 31.5436 301.418 29.316 302.529C27.4217 303.473 25.8399 304.844 24.5209 306.631C23.3713 308.189 21.8324 310.877 22.8438 312.868C23.8622 314.771 26.7506 314.818 28.5915 314.774C32.7826 314.674 36.9981 314.901 41.1797 315.167C41.2798 313.437 42.4638 310.674 43.3932 309.274Z" fill="currentColor"/>
<path d="M60.4763 316.098C60.4761 311.807 57.001 308.329 52.7141 308.329C48.4272 308.329 44.9519 311.807 44.9519 316.098C44.9519 320.389 48.4272 323.867 52.7141 323.867V327.633C46.3492 327.633 41.1895 322.469 41.1895 316.098C41.1895 309.727 46.3492 304.563 52.7141 304.563C59.079 304.563 64.2385 309.727 64.2387 316.098C64.2387 322.469 59.079 327.633 52.7141 327.633V323.867C57.001 323.867 60.4763 320.389 60.4763 316.098Z" fill="currentColor"/>
<path d="M123.916 318.28C123.078 321.301 129.793 325.517 132.412 324.665C130.152 329.645 128.276 334.893 126.679 340.117C126.125 341.886 125.355 343.585 124.141 345.002C123.065 346.238 121.668 347.077 120.039 347.316C116.453 347.801 113.221 345.117 111.245 342.409C109.605 340.141 108.461 337.554 108.047 334.775C107.572 331.585 108.056 328.589 109.958 325.927C113.232 321.409 119.198 320.613 123.916 318.28ZM122.528 322.904C119.473 324.161 115.159 325.2 113.082 328.03C111.805 329.77 111.401 331.756 111.768 334.22C112.081 336.315 112.894 338.245 114.185 340.052C115.31 341.628 117.389 343.924 119.593 343.576C121.716 343.195 122.653 340.46 123.18 338.694C124.38 334.673 125.898 330.73 127.443 326.832C125.83 326.202 123.571 324.221 122.528 322.904Z" fill="currentColor"/>
<path d="M131.512 324.373C134.123 326.105 140.204 321.015 140.204 318.259C144.238 321.95 148.645 325.357 153.116 328.491C154.625 329.565 156.001 330.823 156.972 332.416C157.814 333.823 158.181 335.412 157.904 337.037C157.256 340.6 153.707 342.847 150.524 343.892C147.862 344.752 145.05 345.041 142.282 344.577C139.104 344.043 136.406 342.656 134.464 340.023C131.183 335.511 132.271 329.586 131.512 324.373ZM135.477 327.124C135.727 330.42 135.381 334.848 137.428 337.7C138.686 339.453 140.45 340.451 142.904 340.863C144.991 341.213 147.076 341.035 149.193 340.365C151.037 339.781 153.861 338.511 154.212 336.306C154.506 334.167 152.196 332.43 150.681 331.382C147.232 328.997 143.955 326.334 140.728 323.659C139.631 324.999 137.051 326.538 135.477 327.124Z" fill="currentColor"/>
<path d="M139.649 319.026C142.101 317.075 139.144 309.714 136.525 308.863C141.279 306.163 145.878 303.021 150.238 299.733C151.725 298.628 153.345 297.708 155.159 297.275C156.756 296.908 158.379 297.051 159.837 297.816C163.023 299.534 164.061 303.607 164.071 306.96C164.065 309.76 163.471 312.525 162.174 315.017C160.685 317.878 158.534 320.017 155.432 321.051C150.13 322.78 144.836 319.914 139.649 319.026ZM143.488 316.102C146.697 316.882 150.797 318.579 154.14 317.512C156.195 316.856 157.688 315.486 158.838 313.277C159.815 311.398 160.29 309.359 160.308 307.137C160.323 305.201 159.989 302.12 158.002 301.105C156.06 300.164 153.696 301.825 152.233 302.944C148.901 305.491 145.357 307.787 141.818 310.032C142.753 311.491 143.418 314.422 143.488 316.102Z" fill="currentColor"/>
<path d="M137.083 309.628C135.987 306.69 128.078 307.23 126.46 309.461C125.363 304.101 123.799 298.752 122.023 293.586C121.432 291.829 121.058 290.002 121.208 288.142C121.353 286.509 121.989 285.008 123.167 283.856C125.784 281.354 129.975 281.624 133.164 282.652C135.823 283.522 138.267 284.942 140.234 286.947C142.492 289.248 143.859 291.957 143.884 295.23C143.889 300.811 139.529 304.964 137.083 309.628ZM135.49 305.07C137.223 302.256 140.103 298.877 140.122 295.365C140.134 293.207 139.293 291.362 137.549 289.585C136.066 288.074 134.275 286.992 132.17 286.288C130.334 285.675 127.304 285.041 125.725 286.619C124.231 288.177 125.079 290.941 125.69 292.68C127.08 296.638 128.167 300.721 129.207 304.784C130.882 304.345 133.873 304.618 135.49 305.07Z" fill="currentColor"/>
<path d="M127.359 309.166C124.229 309.302 122.299 316.997 123.918 319.227C118.487 318.615 112.921 318.45 107.463 318.545C105.611 318.564 103.759 318.356 102.038 317.638C100.531 316.996 99.3012 315.926 98.5708 314.449C97.0021 311.185 98.5542 307.279 100.516 304.561C102.164 302.299 104.269 300.411 106.781 299.158C109.666 297.72 112.663 297.255 115.78 298.243C121.084 299.963 123.684 305.396 127.359 309.166ZM122.536 309.274C120.398 306.755 118.078 302.969 114.746 301.866C112.699 301.188 110.687 301.418 108.459 302.529C106.565 303.473 104.983 304.844 103.664 306.631C102.514 308.189 100.975 310.877 101.987 312.868C103.005 314.771 105.894 314.818 107.735 314.774C111.926 314.674 116.141 314.901 120.323 315.167C120.423 313.437 121.607 310.674 122.536 309.274Z" fill="currentColor"/>
<path d="M139.619 316.098C139.619 311.807 136.144 308.329 131.857 308.329C127.57 308.329 124.095 311.807 124.095 316.098C124.095 320.389 127.57 323.867 131.857 323.867V327.633C125.492 327.633 120.333 322.469 120.333 316.098C120.333 309.727 125.492 304.563 131.857 304.563C138.222 304.563 143.382 309.727 143.382 316.098C143.382 322.469 138.222 327.633 131.857 327.633V323.867C136.144 323.867 139.619 320.389 139.619 316.098Z" fill="currentColor"/>
<path d="M56.49 380.617H54.0664V365.172C53.4829 365.729 52.7154 366.286 51.7639 366.842C50.8213 367.399 49.973 367.816 49.219 368.094V365.751C50.5745 365.114 51.7594 364.342 52.7737 363.435C53.7881 362.529 54.5062 361.649 54.9281 360.796H56.49V380.617Z" fill="currentColor"/>
<path d="M92.1238 377.426V372.013H86.7513V369.751H92.1238V364.378H94.4129V369.751H99.7854V372.013H94.4129V377.426H92.1238Z" fill="currentColor"/>
<path d="M135.49 380.617H133.066V365.172C132.483 365.729 131.715 366.286 130.764 366.842C129.821 367.399 128.973 367.816 128.219 368.094V365.751C129.574 365.114 130.759 364.342 131.774 363.435C132.788 362.529 133.506 361.649 133.928 360.796H135.49V380.617Z" fill="currentColor"/>
<path d="M178.785 369.01H165.751V366.748H178.785V369.01ZM178.785 375.002H165.751V372.74H178.785V375.002Z" fill="currentColor"/>
<path d="M250.746 349.373H204.216V391.86H250.746V349.373Z" stroke="currentColor" stroke-width="2" stroke-linejoin="round"/>
  </g>
</svg>
