<svg width="398" height="281" viewBox="0 0 398 281" fill="none" xmlns="http://www.w3.org/2000/svg">
  <style>
    /* Default color for standalone viewing - overridden by currentColor when embedded in HTML */
    svg {
      color: #636363;
    }
  </style><rect width="398" height="280.5" fill="white"/>
<path d="M149.942 41.7122C149.396 43.6818 153.774 46.4299 155.481 45.8745C154.008 49.1215 152.785 52.5424 151.744 55.9484C151.383 57.1016 150.88 58.2087 150.089 59.1326C149.388 59.9382 148.477 60.4857 147.415 60.6414C145.077 60.9573 142.97 59.2074 141.682 57.4424C140.613 55.9637 139.867 54.2773 139.597 52.4659C139.287 50.386 139.603 48.4328 140.843 46.6973C142.977 43.7521 146.866 43.2333 149.942 41.7122ZM149.037 44.7268C147.046 45.546 144.234 46.2236 142.879 48.0686C142.047 49.2024 141.784 50.4976 142.023 52.1037C142.227 53.4696 142.757 54.7274 143.598 55.9059C144.332 56.9331 145.687 58.4296 147.124 58.203C148.508 57.9545 149.119 56.1714 149.463 55.0203C150.245 52.3992 151.235 49.8288 152.242 47.2876C151.19 46.877 149.717 45.5855 149.037 44.7268Z" fill="currentColor"/>
<path d="M154.894 45.6844C156.597 46.8134 160.561 43.4954 160.561 41.6985C163.191 44.1044 166.063 46.3258 168.978 48.3689C169.962 49.0691 170.859 49.8893 171.492 50.9279C172.041 51.8447 172.28 52.8807 172.099 53.9399C171.677 56.2631 169.363 57.7277 167.288 58.4088C165.553 58.9697 163.72 59.1581 161.915 58.8553C159.843 58.5076 158.085 57.6032 156.819 55.8868C154.68 52.9453 155.389 49.0826 154.894 45.6844ZM157.479 47.4775C157.642 49.6262 157.417 52.5127 158.751 54.3723C159.571 55.515 160.721 56.1656 162.321 56.4342C163.682 56.6625 165.041 56.5461 166.42 56.1095C167.623 55.729 169.464 54.9011 169.693 53.4634C169.884 52.0691 168.379 50.9366 167.391 50.2537C165.142 48.699 163.006 46.9627 160.902 45.2186C160.187 46.0925 158.505 47.0956 157.479 47.4775Z" fill="currentColor"/>
<path d="M160.199 42.1987C161.797 40.9269 159.87 36.128 158.162 35.573C161.261 33.8127 164.259 31.7647 167.102 29.6216C168.071 28.9011 169.127 28.3009 170.31 28.0189C171.351 27.7799 172.409 27.8726 173.36 28.3716C175.437 29.4915 176.113 32.1467 176.119 34.3326C176.116 36.1579 175.729 37.9608 174.883 39.585C173.912 41.4501 172.51 42.8444 170.488 43.519C167.032 44.6461 163.58 42.7777 160.199 42.1987ZM162.701 40.2923C164.793 40.8011 167.466 41.9074 169.646 41.2117C170.985 40.7842 171.958 39.891 172.708 38.4508C173.345 37.226 173.655 35.8964 173.666 34.4481C173.676 33.1856 173.459 31.1774 172.163 30.5154C170.897 29.9023 169.356 30.9853 168.402 31.7146C166.23 33.3748 163.92 34.8719 161.613 36.3355C162.222 37.2862 162.655 39.1975 162.701 40.2923Z" fill="currentColor"/>
<path d="M158.526 36.0719C157.811 34.1567 152.656 34.5089 151.601 35.9628C150.886 32.4691 149.866 28.9819 148.708 25.6142C148.323 24.4687 148.079 23.2776 148.177 22.0648C148.271 21.0002 148.686 20.0216 149.454 19.2707C151.16 17.6397 153.892 17.8161 155.971 18.4858C157.704 19.0531 159.298 19.9789 160.58 21.2856C162.052 22.7859 162.944 24.552 162.96 26.6854C162.963 30.3237 160.121 33.0315 158.526 36.0719ZM157.488 33.1005C158.618 31.2662 160.495 29.0635 160.507 26.7739C160.515 25.3669 159.967 24.1644 158.83 23.0058C157.863 22.0205 156.695 21.3151 155.323 20.8565C154.126 20.4569 152.151 20.0435 151.122 21.0722C150.148 22.0876 150.701 23.8895 151.099 25.023C152.005 27.6037 152.714 30.2654 153.391 32.9139C154.483 32.6275 156.433 32.8058 157.488 33.1005Z" fill="currentColor"/>
<path d="M152.187 35.7711C150.147 35.8595 148.888 40.8759 149.944 42.3296C146.403 41.9304 142.774 41.8234 139.216 41.8851C138.009 41.8976 136.802 41.7617 135.68 41.2941C134.697 40.8751 133.896 40.1777 133.42 39.2146C132.397 37.0867 133.409 34.5405 134.688 32.7685C135.762 31.2939 137.134 30.0631 138.772 29.2464C140.653 28.3087 142.606 28.0059 144.638 28.6497C148.096 29.7711 149.791 33.3131 152.187 35.7711ZM149.043 35.8412C147.649 34.1988 146.136 31.731 143.965 31.0117C142.63 30.5697 141.318 30.7197 139.866 31.4438C138.631 32.0596 137.6 32.9532 136.74 34.1183C135.99 35.1336 134.987 36.8864 135.646 38.1841C136.31 39.4248 138.193 39.4554 139.393 39.4267C142.126 39.3615 144.874 39.5093 147.6 39.6827C147.665 38.5549 148.437 36.7538 149.043 35.8412Z" fill="currentColor"/>
<path d="M160.18 40.2896C160.179 37.4923 157.914 35.2248 155.119 35.2248C152.325 35.2248 150.059 37.4923 150.059 40.2896C150.059 43.0869 152.325 45.3544 155.119 45.3544V47.8094C150.97 47.8094 147.606 44.4427 147.606 40.2896C147.606 36.1365 150.97 32.7698 155.119 32.7698C159.269 32.7698 162.632 36.1365 162.632 40.2896C162.632 44.4427 159.269 47.8094 155.119 47.8094V45.3544C157.914 45.3544 160.18 43.0869 160.18 40.2896Z" fill="currentColor"/>
<path d="M201.537 41.7122C200.99 43.6818 205.368 46.4299 207.075 45.8745C205.602 49.1215 204.379 52.5424 203.338 55.9484C202.977 57.1016 202.475 58.2087 201.684 59.1326C200.982 59.9382 200.071 60.4857 199.009 60.6414C196.671 60.9573 194.565 59.2074 193.276 57.4424C192.207 55.9637 191.461 54.2773 191.191 52.4659C190.882 50.386 191.198 48.4328 192.437 46.6973C194.571 43.7521 198.461 43.2333 201.537 41.7122ZM200.632 44.7268C198.64 45.546 195.828 46.2236 194.473 48.0686C193.641 49.2024 193.378 50.4976 193.617 52.1037C193.821 53.4696 194.351 54.7274 195.193 55.9059C195.926 56.9331 197.281 58.4296 198.718 58.203C200.102 57.9545 200.713 56.1714 201.057 55.0203C201.839 52.3992 202.829 49.8288 203.836 47.2876C202.785 46.877 201.312 45.5855 200.632 44.7268Z" fill="currentColor"/>
<path d="M206.488 45.6844C208.191 46.8134 212.155 43.4954 212.155 41.6985C214.785 44.1044 217.657 46.3258 220.572 48.3689C221.556 49.0691 222.453 49.8893 223.086 50.9279C223.635 51.8447 223.874 52.8807 223.694 53.9399C223.271 56.2631 220.958 57.7277 218.882 58.4088C217.147 58.9697 215.314 59.1581 213.51 58.8553C211.437 58.5076 209.679 57.6032 208.413 55.8868C206.274 52.9453 206.983 49.0826 206.488 45.6844ZM209.073 47.4775C209.236 49.6262 209.011 52.5127 210.345 54.3723C211.166 55.515 212.315 56.1656 213.915 56.4342C215.276 56.6625 216.635 56.5461 218.015 56.1095C219.217 55.729 221.058 54.9011 221.287 53.4634C221.478 52.0691 219.973 50.9366 218.985 50.2537C216.737 48.699 214.6 46.9627 212.496 45.2186C211.781 46.0925 210.099 47.0956 209.073 47.4775Z" fill="currentColor"/>
<path d="M211.793 42.1987C213.392 40.9269 211.464 36.128 209.757 35.573C212.855 33.8127 215.854 31.7647 218.696 29.6216C219.665 28.9011 220.722 28.3009 221.904 28.0189C222.945 27.7799 224.003 27.8726 224.954 28.3716C227.031 29.4915 227.707 32.1467 227.714 34.3326C227.71 36.1579 227.323 37.9608 226.477 39.585C225.507 41.4501 224.104 42.8444 222.082 43.519C218.626 44.6461 215.175 42.7777 211.793 42.1987ZM214.295 40.2923C216.387 40.8011 219.061 41.9074 221.24 41.2117C222.579 40.7842 223.553 39.891 224.302 38.4508C224.94 37.226 225.249 35.8964 225.261 34.4481C225.271 33.1856 225.053 31.1774 223.757 30.5154C222.492 29.9023 220.95 30.9853 219.996 31.7146C217.824 33.3748 215.514 34.8719 213.207 36.3355C213.816 37.2862 214.25 39.1975 214.295 40.2923Z" fill="currentColor"/>
<path d="M210.12 36.0719C209.406 34.1567 204.25 34.5089 203.195 35.9628C202.48 32.4691 201.46 28.9819 200.302 25.6142C199.917 24.4687 199.674 23.2776 199.771 22.0648C199.866 21.0002 200.281 20.0216 201.049 19.2707C202.754 17.6397 205.486 17.8161 207.565 18.4858C209.299 19.0531 210.892 19.9789 212.174 21.2856C213.646 22.7859 214.538 24.552 214.554 26.6854C214.557 30.3237 211.715 33.0315 210.12 36.0719ZM209.082 33.1005C210.212 31.2662 212.089 29.0635 212.101 26.7739C212.109 25.3669 211.561 24.1644 210.424 23.0058C209.458 22.0205 208.29 21.3151 206.917 20.8565C205.721 20.4569 203.745 20.0435 202.716 21.0722C201.742 22.0876 202.295 23.8895 202.693 25.023C203.599 27.6037 204.308 30.2654 204.986 32.9139C206.077 32.6275 208.027 32.8058 209.082 33.1005Z" fill="currentColor"/>
<path d="M203.781 35.7711C201.741 35.8595 200.482 40.8759 201.538 42.3296C197.997 41.9304 194.369 41.8234 190.811 41.8851C189.603 41.8976 188.396 41.7617 187.274 41.2941C186.292 40.8751 185.49 40.1777 185.014 39.2146C183.991 37.0867 185.003 34.5405 186.282 32.7685C187.356 31.2939 188.729 30.0631 190.366 29.2464C192.247 28.3087 194.2 28.0059 196.233 28.6497C199.69 29.7711 201.385 33.3131 203.781 35.7711ZM200.637 35.8412C199.243 34.1988 197.73 31.731 195.559 31.0117C194.224 30.5697 192.912 30.7197 191.46 31.4438C190.225 32.0596 189.194 32.9532 188.334 34.1183C187.585 35.1336 186.581 36.8864 187.241 38.1841C187.905 39.4248 189.788 39.4554 190.988 39.4267C193.72 39.3615 196.468 39.5093 199.194 39.6827C199.259 38.5549 200.031 36.7538 200.637 35.8412Z" fill="currentColor"/>
<path d="M211.774 40.2896C211.774 37.4923 209.508 35.2248 206.713 35.2248C203.919 35.2248 201.653 37.4923 201.653 40.2896C201.653 43.0869 203.919 45.3544 206.713 45.3544V47.8094C202.564 47.8094 199.2 44.4427 199.2 40.2896C199.2 36.1365 202.564 32.7698 206.713 32.7698C210.863 32.7698 214.226 36.1365 214.227 40.2896C214.227 44.4427 210.863 47.8094 206.713 47.8094V45.3544C209.508 45.3544 211.774 43.0869 211.774 40.2896Z" fill="currentColor"/>
<g clip-path="url(#clip0_5995_1308)">
<path d="M157.581 82.3311H156.001V72.2628C155.62 72.6256 155.12 72.9884 154.5 73.3512C153.885 73.714 153.332 73.9862 152.841 74.1676V72.6402C153.724 72.2247 154.497 71.7215 155.158 71.1304C155.819 70.5394 156.288 69.9659 156.563 69.4099H157.581V82.3311Z" fill="currentColor"/>
<path d="M181.381 80.2507V76.722H177.878V75.2473H181.381V71.7449H182.873V75.2473H186.375V76.722H182.873V80.2507H181.381Z" fill="currentColor"/>
<path d="M209.569 82.3311H207.989V72.2628C207.608 72.6256 207.108 72.9884 206.488 73.3512C205.873 73.714 205.32 73.9862 204.829 74.1676V72.6402C205.712 72.2247 206.485 71.7215 207.146 71.1304C207.807 70.5394 208.276 69.9659 208.551 69.4099H209.569V82.3311Z" fill="currentColor"/>
<path d="M238.363 74.7645H229.866V73.2898H238.363V74.7645ZM238.363 78.6707H229.866V77.196H238.363V78.6707Z" fill="currentColor"/>
<path d="M285.192 61.9822H254.859V89.6796H285.192V61.9822Z" stroke="currentColor" stroke-width="1.30382" stroke-linejoin="round"/>
</g>
<path d="M149.942 128.386C149.396 130.356 153.774 133.104 155.481 132.548C154.008 135.795 152.785 139.216 151.744 142.622C151.383 143.775 150.88 144.883 150.089 145.806C149.388 146.612 148.477 147.159 147.415 147.315C145.077 147.631 142.97 145.881 141.682 144.116C140.613 142.638 139.867 140.951 139.597 139.14C139.287 137.06 139.603 135.107 140.843 133.371C142.977 130.426 146.866 129.907 149.942 128.386ZM149.037 131.401C147.046 132.22 144.234 132.897 142.879 134.742C142.047 135.876 141.784 137.171 142.023 138.778C142.227 140.143 142.757 141.401 143.598 142.58C144.332 143.607 145.687 145.103 147.124 144.877C148.508 144.628 149.119 142.845 149.463 141.694C150.245 139.073 151.235 136.503 152.242 133.961C151.19 133.551 149.717 132.259 149.037 131.401Z" fill="currentColor"/>
<path d="M154.894 132.358C156.597 133.487 160.561 130.169 160.561 128.372C163.191 130.778 166.063 133 168.978 135.043C169.962 135.743 170.859 136.563 171.492 137.602C172.041 138.519 172.28 139.555 172.099 140.614C171.677 142.937 169.363 144.402 167.288 145.083C165.553 145.644 163.72 145.832 161.915 145.529C159.843 145.181 158.085 144.277 156.819 142.561C154.68 139.619 155.389 135.756 154.894 132.358ZM157.479 134.151C157.642 136.3 157.417 139.187 158.751 141.046C159.571 142.189 160.721 142.839 162.321 143.108C163.682 143.336 165.041 143.22 166.42 142.783C167.623 142.403 169.464 141.575 169.693 140.137C169.884 138.743 168.379 137.61 167.391 136.928C165.142 135.373 163.006 133.637 160.902 131.892C160.187 132.766 158.505 133.769 157.479 134.151Z" fill="currentColor"/>
<path d="M160.199 128.873C161.797 127.601 159.87 122.802 158.162 122.247C161.261 120.487 164.259 118.438 167.102 116.295C168.071 115.575 169.127 114.975 170.31 114.693C171.351 114.454 172.409 114.546 173.36 115.045C175.437 116.165 176.113 118.82 176.119 121.006C176.116 122.832 175.729 124.635 174.883 126.259C173.912 128.124 172.51 129.518 170.488 130.193C167.032 131.32 163.58 129.452 160.199 128.873ZM162.701 126.966C164.793 127.475 167.466 128.581 169.646 127.886C170.985 127.458 171.958 126.565 172.708 125.125C173.345 123.9 173.655 122.57 173.666 121.122C173.676 119.859 173.459 117.851 172.163 117.189C170.897 116.576 169.356 117.659 168.402 118.388C166.23 120.049 163.92 121.546 161.613 123.009C162.222 123.96 162.655 125.871 162.701 126.966Z" fill="currentColor"/>
<path d="M158.526 122.746C157.811 120.831 152.656 121.183 151.601 122.637C150.886 119.143 149.866 115.656 148.708 112.288C148.323 111.143 148.079 109.951 148.177 108.739C148.271 107.674 148.686 106.695 149.454 105.945C151.16 104.314 153.892 104.49 155.971 105.16C157.704 105.727 159.298 106.653 160.58 107.959C162.052 109.46 162.944 111.226 162.96 113.359C162.963 116.997 160.121 119.705 158.526 122.746ZM157.488 119.774C158.618 117.94 160.495 115.737 160.507 113.448C160.515 112.041 159.967 110.838 158.83 109.68C157.863 108.694 156.695 107.989 155.323 107.53C154.126 107.131 152.151 106.717 151.122 107.746C150.148 108.761 150.701 110.563 151.099 111.697C152.005 114.278 152.714 116.939 153.391 119.588C154.483 119.301 156.433 119.48 157.488 119.774Z" fill="currentColor"/>
<path d="M152.187 122.445C150.147 122.533 148.888 127.55 149.944 129.003C146.403 128.604 142.774 128.497 139.216 128.559C138.009 128.571 136.802 128.436 135.68 127.968C134.697 127.549 133.896 126.851 133.42 125.888C132.397 123.761 133.409 121.214 134.688 119.442C135.762 117.968 137.134 116.737 138.772 115.92C140.653 114.983 142.606 114.68 144.638 115.324C148.096 116.445 149.791 119.987 152.187 122.445ZM149.043 122.515C147.649 120.873 146.136 118.405 143.965 117.686C142.63 117.244 141.318 117.394 139.866 118.118C138.631 118.733 137.6 119.627 136.74 120.792C135.99 121.807 134.987 123.56 135.646 124.858C136.31 126.099 138.193 126.129 139.393 126.101C142.126 126.035 144.874 126.183 147.6 126.357C147.665 125.229 148.437 123.428 149.043 122.515Z" fill="currentColor"/>
<path d="M160.18 126.963C160.179 124.166 157.914 121.899 155.119 121.899C152.325 121.899 150.059 124.166 150.059 126.963C150.059 129.761 152.325 132.028 155.119 132.028V134.483C150.97 134.483 147.606 131.117 147.606 126.963C147.606 122.81 150.97 119.444 155.119 119.444C159.269 119.444 162.632 122.81 162.632 126.963C162.632 131.117 159.269 134.483 155.119 134.483V132.028C157.914 132.028 160.18 129.761 160.18 126.963Z" fill="currentColor"/>
<path d="M201.537 128.386C200.99 130.356 205.368 133.104 207.075 132.548C205.602 135.795 204.379 139.216 203.338 142.622C202.977 143.775 202.475 144.883 201.684 145.806C200.982 146.612 200.071 147.159 199.009 147.315C196.671 147.631 194.565 145.881 193.276 144.116C192.207 142.638 191.461 140.951 191.191 139.14C190.882 137.06 191.198 135.107 192.437 133.371C194.571 130.426 198.461 129.907 201.537 128.386ZM200.632 131.401C198.64 132.22 195.828 132.897 194.473 134.742C193.641 135.876 193.378 137.171 193.617 138.778C193.821 140.143 194.351 141.401 195.193 142.58C195.926 143.607 197.281 145.103 198.718 144.877C200.102 144.628 200.713 142.845 201.057 141.694C201.839 139.073 202.829 136.503 203.836 133.961C202.785 133.551 201.312 132.259 200.632 131.401Z" fill="currentColor"/>
<path d="M206.488 132.358C208.191 133.487 212.155 130.169 212.155 128.372C214.785 130.778 217.657 133 220.572 135.043C221.556 135.743 222.453 136.563 223.086 137.602C223.635 138.519 223.874 139.555 223.694 140.614C223.271 142.937 220.958 144.402 218.882 145.083C217.147 145.644 215.314 145.832 213.51 145.529C211.437 145.181 209.679 144.277 208.413 142.561C206.274 139.619 206.983 135.756 206.488 132.358ZM209.073 134.151C209.236 136.3 209.011 139.187 210.345 141.046C211.166 142.189 212.315 142.839 213.915 143.108C215.276 143.336 216.635 143.22 218.015 142.783C219.217 142.403 221.058 141.575 221.287 140.137C221.478 138.743 219.973 137.61 218.985 136.928C216.737 135.373 214.6 133.637 212.496 131.892C211.781 132.766 210.099 133.769 209.073 134.151Z" fill="currentColor"/>
<path d="M211.793 128.873C213.392 127.601 211.464 122.802 209.757 122.247C212.855 120.487 215.854 118.438 218.696 116.295C219.665 115.575 220.722 114.975 221.904 114.693C222.945 114.454 224.003 114.546 224.954 115.045C227.031 116.165 227.707 118.82 227.714 121.006C227.71 122.832 227.323 124.635 226.477 126.259C225.507 128.124 224.104 129.518 222.082 130.193C218.626 131.32 215.175 129.452 211.793 128.873ZM214.295 126.966C216.387 127.475 219.061 128.581 221.24 127.886C222.579 127.458 223.553 126.565 224.302 125.125C224.94 123.9 225.249 122.57 225.261 121.122C225.271 119.859 225.053 117.851 223.757 117.189C222.492 116.576 220.95 117.659 219.996 118.388C217.824 120.049 215.514 121.546 213.207 123.009C213.816 123.96 214.25 125.871 214.295 126.966Z" fill="currentColor"/>
<path d="M210.12 122.746C209.406 120.831 204.25 121.183 203.195 122.637C202.48 119.143 201.46 115.656 200.302 112.288C199.917 111.143 199.674 109.951 199.771 108.739C199.866 107.674 200.281 106.695 201.049 105.945C202.754 104.314 205.486 104.49 207.565 105.16C209.299 105.727 210.892 106.653 212.174 107.959C213.646 109.46 214.538 111.226 214.554 113.359C214.557 116.997 211.715 119.705 210.12 122.746ZM209.082 119.774C210.212 117.94 212.089 115.737 212.101 113.448C212.109 112.041 211.561 110.838 210.424 109.68C209.458 108.694 208.29 107.989 206.917 107.53C205.721 107.131 203.745 106.717 202.716 107.746C201.742 108.761 202.295 110.563 202.693 111.697C203.599 114.278 204.308 116.939 204.986 119.588C206.077 119.301 208.027 119.48 209.082 119.774Z" fill="currentColor"/>
<path d="M203.781 122.445C201.741 122.533 200.482 127.55 201.538 129.003C197.997 128.604 194.369 128.497 190.811 128.559C189.603 128.571 188.396 128.436 187.274 127.968C186.292 127.549 185.49 126.851 185.014 125.888C183.991 123.761 185.003 121.214 186.282 119.442C187.356 117.968 188.729 116.737 190.366 115.92C192.247 114.983 194.2 114.68 196.233 115.324C199.69 116.445 201.385 119.987 203.781 122.445ZM200.637 122.515C199.243 120.873 197.73 118.405 195.559 117.686C194.224 117.244 192.912 117.394 191.46 118.118C190.225 118.733 189.194 119.627 188.334 120.792C187.585 121.807 186.581 123.56 187.241 124.858C187.905 126.099 189.788 126.129 190.988 126.101C193.72 126.035 196.468 126.183 199.194 126.357C199.259 125.229 200.031 123.428 200.637 122.515Z" fill="currentColor"/>
<path d="M211.774 126.963C211.774 124.166 209.508 121.899 206.713 121.899C203.919 121.899 201.653 124.166 201.653 126.963C201.653 129.761 203.919 132.028 206.713 132.028V134.483C202.564 134.483 199.2 131.117 199.2 126.963C199.2 122.81 202.564 119.444 206.713 119.444C210.863 119.444 214.226 122.81 214.227 126.963C214.227 131.117 210.863 134.483 206.713 134.483V132.028C209.508 132.028 211.774 129.761 211.774 126.963Z" fill="currentColor"/>
<g clip-path="url(#clip1_5995_1308)">
<path d="M157.581 169.005H156.001V158.937C155.62 159.299 155.12 159.662 154.5 160.025C153.885 160.388 153.332 160.66 152.841 160.841V159.314C153.724 158.899 154.497 158.395 155.158 157.804C155.819 157.213 156.288 156.64 156.563 156.084H157.581V169.005Z" fill="currentColor"/>
<path d="M181.381 166.925V163.396H177.878V161.921H181.381V158.419H182.873V161.921H186.375V163.396H182.873V166.925H181.381Z" fill="currentColor"/>
<path d="M209.569 169.005H207.989V158.937C207.608 159.299 207.108 159.662 206.488 160.025C205.873 160.388 205.32 160.66 204.829 160.841V159.314C205.712 158.899 206.485 158.395 207.146 157.804C207.807 157.213 208.276 156.64 208.551 156.084H209.569V169.005Z" fill="currentColor"/>
<path d="M238.363 161.438H229.866V159.964H238.363V161.438ZM238.363 165.344H229.866V163.87H238.363V165.344Z" fill="currentColor"/>
<path d="M285.192 148.656H254.859V176.353H285.192V148.656Z" stroke="currentColor" stroke-width="1.30382" stroke-linejoin="round"/>
</g>
<path d="M149.942 215.06C149.396 217.029 153.774 219.777 155.481 219.222C154.008 222.469 152.785 225.89 151.744 229.296C151.383 230.449 150.88 231.556 150.089 232.48C149.388 233.286 148.477 233.833 147.415 233.989C145.077 234.305 142.97 232.555 141.682 230.79C140.613 229.311 139.867 227.625 139.597 225.813C139.287 223.733 139.603 221.78 140.843 220.045C142.977 217.1 146.866 216.581 149.942 215.06ZM149.037 218.074C147.046 218.893 144.234 219.571 142.879 221.416C142.047 222.55 141.784 223.845 142.023 225.451C142.227 226.817 142.757 228.075 143.598 229.253C144.332 230.28 145.687 231.777 147.124 231.55C148.508 231.302 149.119 229.519 149.463 228.368C150.245 225.747 151.235 223.176 152.242 220.635C151.19 220.224 149.717 218.933 149.037 218.074Z" fill="currentColor"/>
<path d="M154.894 219.032C156.597 220.161 160.561 216.843 160.561 215.046C163.191 217.452 166.063 219.673 168.978 221.716C169.962 222.416 170.859 223.237 171.492 224.275C172.041 225.192 172.28 226.228 172.099 227.287C171.677 229.61 169.363 231.075 167.288 231.756C165.553 232.317 163.72 232.506 161.915 232.203C159.843 231.855 158.085 230.951 156.819 229.234C154.68 226.293 155.389 222.43 154.894 219.032ZM157.479 220.825C157.642 222.974 157.417 225.86 158.751 227.72C159.571 228.862 160.721 229.513 162.321 229.782C163.682 230.01 165.041 229.894 166.42 229.457C167.623 229.076 169.464 228.249 169.693 226.811C169.884 225.416 168.379 224.284 167.391 223.601C165.142 222.046 163.006 220.31 160.902 218.566C160.187 219.44 158.505 220.443 157.479 220.825Z" fill="currentColor"/>
<path d="M160.199 215.546C161.797 214.274 159.87 209.475 158.162 208.92C161.261 207.16 164.259 205.112 167.102 202.969C168.071 202.248 169.127 201.648 170.31 201.366C171.351 201.127 172.409 201.22 173.36 201.719C175.437 202.839 176.113 205.494 176.119 207.68C176.116 209.505 175.729 211.308 174.883 212.932C173.912 214.797 172.51 216.192 170.488 216.866C167.032 217.994 163.58 216.125 160.199 215.546ZM162.701 213.64C164.793 214.149 167.466 215.255 169.646 214.559C170.985 214.132 171.958 213.238 172.708 211.798C173.345 210.573 173.655 209.244 173.666 207.795C173.676 206.533 173.459 204.525 172.163 203.863C170.897 203.25 169.356 204.333 168.402 205.062C166.23 206.722 163.92 208.219 161.613 209.683C162.222 210.634 162.655 212.545 162.701 213.64Z" fill="currentColor"/>
<path d="M158.526 209.419C157.811 207.504 152.656 207.856 151.601 209.31C150.886 205.816 149.866 202.329 148.708 198.962C148.323 197.816 148.079 196.625 148.177 195.412C148.271 194.348 148.686 193.369 149.454 192.618C151.16 190.987 153.892 191.163 155.971 191.833C157.704 192.401 159.298 193.326 160.58 194.633C162.052 196.133 162.944 197.899 162.96 200.033C162.963 203.671 160.121 206.379 158.526 209.419ZM157.488 206.448C158.618 204.614 160.495 202.411 160.507 200.121C160.515 198.714 159.967 197.512 158.83 196.353C157.863 195.368 156.695 194.662 155.323 194.204C154.126 193.804 152.151 193.391 151.122 194.42C150.148 195.435 150.701 197.237 151.099 198.37C152.005 200.951 152.714 203.613 153.391 206.261C154.483 205.975 156.433 206.153 157.488 206.448Z" fill="currentColor"/>
<path d="M152.187 209.118C150.147 209.207 148.888 214.223 149.944 215.677C146.403 215.278 142.774 215.171 139.216 215.233C138.009 215.245 136.802 215.109 135.68 214.641C134.697 214.223 133.896 213.525 133.42 212.562C132.397 210.434 133.409 207.888 134.688 206.116C135.762 204.641 137.134 203.41 138.772 202.594C140.653 201.656 142.606 201.353 144.638 201.997C148.096 203.119 149.791 206.661 152.187 209.118ZM149.043 209.189C147.649 207.546 146.136 205.078 143.965 204.359C142.63 203.917 141.318 204.067 139.866 204.791C138.631 205.407 137.6 206.301 136.74 207.466C135.99 208.481 134.987 210.234 135.646 211.531C136.31 212.772 138.193 212.803 139.393 212.774C142.126 212.709 144.874 212.857 147.6 213.03C147.665 211.902 148.437 210.101 149.043 209.189Z" fill="currentColor"/>
<path d="M160.18 213.637C160.179 210.84 157.914 208.572 155.119 208.572C152.325 208.572 150.059 210.84 150.059 213.637C150.059 216.434 152.325 218.702 155.119 218.702V221.157C150.97 221.157 147.606 217.79 147.606 213.637C147.606 209.484 150.97 206.117 155.119 206.117C159.269 206.117 162.632 209.484 162.632 213.637C162.632 217.79 159.269 221.157 155.119 221.157V218.702C157.914 218.702 160.18 216.434 160.18 213.637Z" fill="currentColor"/>
<path d="M201.537 215.06C200.99 217.029 205.368 219.777 207.075 219.222C205.602 222.469 204.379 225.89 203.338 229.296C202.977 230.449 202.475 231.556 201.684 232.48C200.982 233.286 200.071 233.833 199.009 233.989C196.671 234.305 194.565 232.555 193.276 230.79C192.207 229.311 191.461 227.625 191.191 225.813C190.882 223.733 191.198 221.78 192.437 220.045C194.571 217.1 198.461 216.581 201.537 215.06ZM200.632 218.074C198.64 218.893 195.828 219.571 194.473 221.416C193.641 222.55 193.378 223.845 193.617 225.451C193.821 226.817 194.351 228.075 195.193 229.253C195.926 230.28 197.281 231.777 198.718 231.55C200.102 231.302 200.713 229.519 201.057 228.368C201.839 225.747 202.829 223.176 203.836 220.635C202.785 220.224 201.312 218.933 200.632 218.074Z" fill="currentColor"/>
<path d="M206.488 219.032C208.191 220.161 212.155 216.843 212.155 215.046C214.785 217.452 217.657 219.673 220.572 221.716C221.556 222.416 222.453 223.237 223.086 224.275C223.635 225.192 223.874 226.228 223.694 227.287C223.271 229.61 220.958 231.075 218.882 231.756C217.147 232.317 215.314 232.506 213.51 232.203C211.437 231.855 209.679 230.951 208.413 229.234C206.274 226.293 206.983 222.43 206.488 219.032ZM209.073 220.825C209.236 222.974 209.011 225.86 210.345 227.72C211.166 228.862 212.315 229.513 213.915 229.782C215.276 230.01 216.635 229.894 218.015 229.457C219.217 229.076 221.058 228.249 221.287 226.811C221.478 225.416 219.973 224.284 218.985 223.601C216.737 222.046 214.6 220.31 212.496 218.566C211.781 219.44 210.099 220.443 209.073 220.825Z" fill="currentColor"/>
<path d="M211.793 215.546C213.392 214.274 211.464 209.475 209.757 208.92C212.855 207.16 215.854 205.112 218.696 202.969C219.665 202.248 220.722 201.648 221.904 201.366C222.945 201.127 224.003 201.22 224.954 201.719C227.031 202.839 227.707 205.494 227.714 207.68C227.71 209.505 227.323 211.308 226.477 212.932C225.507 214.797 224.104 216.192 222.082 216.866C218.626 217.994 215.175 216.125 211.793 215.546ZM214.295 213.64C216.387 214.149 219.061 215.255 221.24 214.559C222.579 214.132 223.553 213.238 224.302 211.798C224.94 210.573 225.249 209.244 225.261 207.795C225.271 206.533 225.053 204.525 223.757 203.863C222.492 203.25 220.95 204.333 219.996 205.062C217.824 206.722 215.514 208.219 213.207 209.683C213.816 210.634 214.25 212.545 214.295 213.64Z" fill="currentColor"/>
<path d="M210.12 209.419C209.406 207.504 204.25 207.856 203.195 209.31C202.48 205.816 201.46 202.329 200.302 198.962C199.917 197.816 199.674 196.625 199.771 195.412C199.866 194.348 200.281 193.369 201.049 192.618C202.754 190.987 205.486 191.163 207.565 191.833C209.299 192.401 210.892 193.326 212.174 194.633C213.646 196.133 214.538 197.899 214.554 200.033C214.557 203.671 211.715 206.379 210.12 209.419ZM209.082 206.448C210.212 204.614 212.089 202.411 212.101 200.121C212.109 198.714 211.561 197.512 210.424 196.353C209.458 195.368 208.29 194.662 206.917 194.204C205.721 193.804 203.745 193.391 202.716 194.42C201.742 195.435 202.295 197.237 202.693 198.37C203.599 200.951 204.308 203.613 204.986 206.261C206.077 205.975 208.027 206.153 209.082 206.448Z" fill="currentColor"/>
<path d="M203.781 209.118C201.741 209.207 200.482 214.223 201.538 215.677C197.997 215.278 194.369 215.171 190.811 215.233C189.603 215.245 188.396 215.109 187.274 214.641C186.292 214.223 185.49 213.525 185.014 212.562C183.991 210.434 185.003 207.888 186.282 206.116C187.356 204.641 188.729 203.41 190.366 202.594C192.247 201.656 194.2 201.353 196.233 201.997C199.69 203.119 201.385 206.661 203.781 209.118ZM200.637 209.189C199.243 207.546 197.73 205.078 195.559 204.359C194.224 203.917 192.912 204.067 191.46 204.791C190.225 205.407 189.194 206.301 188.334 207.466C187.585 208.481 186.581 210.234 187.241 211.531C187.905 212.772 189.788 212.803 190.988 212.774C193.72 212.709 196.468 212.857 199.194 213.03C199.259 211.902 200.031 210.101 200.637 209.189Z" fill="currentColor"/>
<path d="M211.774 213.637C211.774 210.84 209.508 208.572 206.713 208.572C203.919 208.572 201.653 210.84 201.653 213.637C201.653 216.434 203.919 218.702 206.713 218.702V221.157C202.564 221.157 199.2 217.79 199.2 213.637C199.2 209.484 202.564 206.117 206.713 206.117C210.863 206.117 214.226 209.484 214.227 213.637C214.227 217.79 210.863 221.157 206.713 221.157V218.702C209.508 218.702 211.774 216.434 211.774 213.637Z" fill="currentColor"/>
<g clip-path="url(#clip2_5995_1308)">
<path d="M157.581 255.678H156.001V245.61C155.62 245.973 155.12 246.336 154.5 246.699C153.885 247.061 153.332 247.334 152.841 247.515V245.988C153.724 245.572 154.497 245.069 155.158 244.478C155.819 243.887 156.288 243.313 156.563 242.757H157.581V255.678Z" fill="currentColor"/>
<path d="M181.381 253.598V250.069H177.878V248.595H181.381V245.092H182.873V248.595H186.375V250.069H182.873V253.598H181.381Z" fill="currentColor"/>
<path d="M209.569 255.678H207.989V245.61C207.608 245.973 207.108 246.336 206.488 246.699C205.873 247.061 205.32 247.334 204.829 247.515V245.988C205.712 245.572 206.485 245.069 207.146 244.478C207.807 243.887 208.276 243.313 208.551 242.757H209.569V255.678Z" fill="currentColor"/>
<path d="M238.363 248.112H229.866V246.637H238.363V248.112ZM238.363 252.018H229.866V250.543H238.363V252.018Z" fill="currentColor"/>
<path d="M285.192 235.33H254.859V263.027H285.192V235.33Z" stroke="currentColor" stroke-width="1.30382" stroke-linejoin="round"/>
</g><defs>
<clipPath id="clip0_5995_1308">
<rect width="141.465" height="30.3051" fill="white" transform="translate(149.58 60.6785)"/>
</clipPath>
<clipPath id="clip1_5995_1308">
<rect width="141.465" height="30.3051" fill="white" transform="translate(149.58 147.352)"/>
</clipPath>
<clipPath id="clip2_5995_1308">
<rect width="141.465" height="30.3051" fill="white" transform="translate(149.58 234.026)"/>
</clipPath>
</defs>
</svg>
