<svg width="398" height="281" viewBox="0 0 398 281" fill="none" xmlns="http://www.w3.org/2000/svg">
  <style>
    /* Default color for standalone viewing - overridden by currentColor when embedded in HTML */
    svg {
      color: #636363;
    }
  </style><rect width="398" height="280.5" fill="white"/>
<path d="M145.747 35.8398C145.336 37.3217 148.629 39.3893 149.914 38.9714C148.805 41.4143 147.885 43.988 147.102 46.5505C146.83 47.4181 146.452 48.251 145.857 48.9462C145.329 49.5523 144.644 49.9642 143.845 50.0813C142.086 50.319 140.501 49.0024 139.532 47.6745C138.728 46.562 138.167 45.2932 137.964 43.9304C137.73 42.3656 137.968 40.8961 138.901 39.5904C140.506 37.3746 143.433 36.9843 145.747 35.8398ZM145.066 38.1079C143.568 38.7242 141.452 39.234 140.433 40.6221C139.807 41.4752 139.609 42.4496 139.789 43.658C139.942 44.6856 140.341 45.6319 140.974 46.5185C141.526 47.2913 142.545 48.4173 143.626 48.2468C144.668 48.0598 145.127 46.7183 145.386 45.8522C145.974 43.8803 146.719 41.9464 147.477 40.0345C146.686 39.7256 145.577 38.754 145.066 38.1079Z" fill="currentColor"/>
<path d="M149.472 38.8284C150.753 39.6778 153.735 37.1815 153.735 35.8296C155.714 37.6397 157.875 39.3109 160.068 40.8481C160.808 41.3749 161.483 41.992 161.96 42.7734C162.372 43.4631 162.552 44.2426 162.416 45.0395C162.099 46.7873 160.358 47.8892 158.797 48.4017C157.491 48.8236 156.112 48.9654 154.754 48.7376C153.195 48.476 151.873 47.7956 150.92 46.5042C149.311 44.2911 149.844 41.385 149.472 38.8284ZM151.417 40.1775C151.539 41.7941 151.37 43.9657 152.374 45.3648C152.991 46.2245 153.856 46.714 155.06 46.916C156.083 47.0878 157.106 47.0002 158.144 46.6718C159.049 46.3855 160.434 45.7627 160.606 44.681C160.75 43.6319 159.617 42.7799 158.874 42.2662C157.182 41.0964 155.575 39.7901 153.992 38.4779C153.454 39.1355 152.189 39.8902 151.417 40.1775Z" fill="currentColor"/>
<path d="M153.463 36.206C154.666 35.2492 153.216 31.6387 151.931 31.2211C154.262 29.8968 156.518 28.3559 158.657 26.7436C159.386 26.2015 160.181 25.7499 161.07 25.5378C161.853 25.358 162.65 25.4277 163.365 25.8031C164.927 26.6457 165.437 28.6433 165.441 30.2879C165.439 31.6612 165.147 33.0176 164.511 34.2396C163.781 35.6428 162.726 36.6918 161.204 37.1993C158.604 38.0473 156.007 36.6416 153.463 36.206ZM155.346 34.7717C156.92 35.1545 158.931 35.9869 160.571 35.4634C161.578 35.1418 162.311 34.4698 162.875 33.3863C163.354 32.4648 163.587 31.4644 163.596 30.3748C163.603 29.425 163.439 27.9141 162.465 27.4161C161.512 26.9548 160.353 27.7696 159.635 28.3182C158.001 29.5673 156.263 30.6937 154.527 31.7948C154.986 32.51 155.312 33.948 155.346 34.7717Z" fill="currentColor"/>
<path d="M152.204 31.5964C151.667 30.1556 147.788 30.4205 146.994 31.5143C146.456 28.8858 145.689 26.2623 144.818 23.7286C144.528 22.8668 144.345 21.9706 144.418 21.0581C144.489 20.2572 144.802 19.521 145.379 18.956C146.663 17.7289 148.718 17.8616 150.282 18.3655C151.586 18.7923 152.785 19.4889 153.75 20.4719C154.857 21.6007 155.528 22.9294 155.54 24.5345C155.543 27.2717 153.404 29.309 152.204 31.5964ZM151.423 29.3609C152.273 27.9809 153.686 26.3236 153.695 24.6011C153.701 23.5425 153.289 22.6378 152.433 21.7661C151.706 21.0248 150.827 20.4941 149.795 20.1491C148.895 19.8484 147.408 19.5375 146.634 20.3113C145.901 21.0753 146.317 22.431 146.617 23.2838C147.298 25.2254 147.832 27.2279 148.342 29.2205C149.163 29.0051 150.63 29.1392 151.423 29.3609Z" fill="currentColor"/>
<path d="M147.435 31.3701C145.9 31.4366 144.953 35.2107 145.748 36.3044C143.084 36.0041 140.354 35.9235 137.677 35.97C136.769 35.9794 135.86 35.8772 135.016 35.5253C134.277 35.2101 133.674 34.6854 133.316 33.9608C132.546 32.3599 133.308 30.4443 134.27 29.1111C135.078 28.0017 136.11 27.0757 137.343 26.4612C138.757 25.7557 140.227 25.5279 141.756 26.0123C144.358 26.856 145.633 29.5209 147.435 31.3701ZM145.07 31.4228C144.021 30.1872 142.883 28.3306 141.249 27.7894C140.245 27.4568 139.258 27.5697 138.166 28.1145C137.236 28.5778 136.461 29.2501 135.814 30.1266C135.25 30.8905 134.495 32.2092 134.991 33.1855C135.491 34.119 136.907 34.142 137.81 34.1204C139.866 34.0714 141.933 34.1826 143.984 34.313C144.033 33.4645 144.614 32.1095 145.07 31.4228Z" fill="currentColor"/>
<path d="M153.449 34.7697C153.448 32.6651 151.744 30.9591 149.641 30.9591C147.539 30.9591 145.834 32.6651 145.834 34.7697C145.834 36.8741 147.539 38.5801 149.641 38.5801V40.4272C146.52 40.4272 143.989 37.8943 143.989 34.7697C143.989 31.6451 146.52 29.1121 149.641 29.1121C152.763 29.1121 155.294 31.6451 155.294 34.7697C155.294 37.8943 152.763 40.4272 149.641 40.4272V38.5801C151.744 38.5801 153.449 36.8741 153.449 34.7697Z" fill="currentColor"/>
<path d="M184.564 35.8398C184.153 37.3217 187.446 39.3893 188.731 38.9714C187.622 41.4143 186.702 43.988 185.919 46.5505C185.647 47.4181 185.27 48.251 184.674 48.9462C184.147 49.5523 183.462 49.9642 182.662 50.0813C180.903 50.319 179.318 49.0024 178.349 47.6745C177.545 46.562 176.984 45.2932 176.781 43.9304C176.548 42.3656 176.785 40.8961 177.718 39.5904C179.324 37.3746 182.25 36.9843 184.564 35.8398ZM183.883 38.1079C182.385 38.7242 180.269 39.234 179.25 40.6221C178.624 41.4752 178.426 42.4496 178.606 43.658C178.759 44.6856 179.158 45.6319 179.791 46.5185C180.343 47.2913 181.362 48.4173 182.443 48.2468C183.485 48.0598 183.944 46.7183 184.203 45.8522C184.792 43.8803 185.536 41.9464 186.294 40.0345C185.503 39.7256 184.395 38.754 183.883 38.1079Z" fill="currentColor"/>
<path d="M188.289 38.8284C189.57 39.6778 192.552 37.1815 192.552 35.8296C194.531 37.6397 196.692 39.3109 198.885 40.8481C199.626 41.3749 200.3 41.992 200.777 42.7734C201.189 43.4631 201.369 44.2426 201.234 45.0395C200.916 46.7873 199.175 47.8892 197.614 48.4017C196.308 48.8236 194.929 48.9654 193.572 48.7376C192.013 48.476 190.69 47.7956 189.737 46.5042C188.128 44.2911 188.661 41.385 188.289 38.8284ZM190.234 40.1775C190.356 41.7941 190.187 43.9657 191.191 45.3648C191.808 46.2245 192.673 46.714 193.877 46.916C194.9 47.0878 195.923 47.0002 196.961 46.6718C197.866 46.3855 199.251 45.7627 199.423 44.681C199.567 43.6319 198.434 42.7799 197.691 42.2662C195.999 41.0964 194.392 39.7901 192.809 38.4779C192.271 39.1355 191.006 39.8902 190.234 40.1775Z" fill="currentColor"/>
<path d="M192.28 36.206C193.483 35.2492 192.033 31.6387 190.748 31.2211C193.08 29.8968 195.335 28.3559 197.474 26.7436C198.203 26.2015 198.998 25.7499 199.888 25.5378C200.671 25.358 201.467 25.4277 202.182 25.8031C203.745 26.6457 204.254 28.6433 204.258 30.2879C204.256 31.6612 203.964 33.0176 203.328 34.2396C202.598 35.6428 201.543 36.6918 200.021 37.1993C197.421 38.0473 194.825 36.6416 192.28 36.206ZM194.163 34.7717C195.737 35.1545 197.748 35.9869 199.388 35.4634C200.395 35.1418 201.128 34.4698 201.692 33.3863C202.171 32.4648 202.404 31.4644 202.413 30.3748C202.42 29.425 202.257 27.9141 201.282 27.4161C200.33 26.9548 199.17 27.7696 198.452 28.3182C196.818 29.5673 195.08 30.6937 193.344 31.7948C193.803 32.51 194.129 33.948 194.163 34.7717Z" fill="currentColor"/>
<path d="M191.021 31.5964C190.484 30.1556 186.605 30.4205 185.811 31.5143C185.274 28.8858 184.506 26.2623 183.635 23.7286C183.345 22.8668 183.162 21.9706 183.235 21.0581C183.307 20.2572 183.619 19.521 184.197 18.956C185.48 17.7289 187.535 17.8616 189.1 18.3655C190.404 18.7923 191.602 19.4889 192.567 20.4719C193.675 21.6007 194.345 22.9294 194.357 24.5345C194.36 27.2717 192.222 29.309 191.021 31.5964ZM190.24 29.3609C191.091 27.9809 192.503 26.3236 192.512 24.6011C192.518 23.5425 192.106 22.6378 191.25 21.7661C190.523 21.0248 189.644 20.4941 188.612 20.1491C187.712 19.8484 186.225 19.5375 185.451 20.3113C184.718 21.0753 185.134 22.431 185.434 23.2838C186.116 25.2254 186.649 27.2279 187.159 29.2205C187.98 29.0051 189.447 29.1392 190.24 29.3609Z" fill="currentColor"/>
<path d="M186.253 31.3701C184.717 31.4366 183.771 35.2107 184.565 36.3044C181.901 36.0041 179.171 35.9235 176.494 35.97C175.586 35.9794 174.678 35.8772 173.833 35.5253C173.094 35.2101 172.491 34.6854 172.133 33.9608C171.363 32.3599 172.125 30.4443 173.087 29.1111C173.895 28.0017 174.928 27.0757 176.16 26.4612C177.575 25.7557 179.044 25.5279 180.573 26.0123C183.175 26.856 184.45 29.5209 186.253 31.3701ZM183.887 31.4228C182.839 30.1872 181.7 28.3306 180.066 27.7894C179.062 27.4568 178.075 27.5697 176.983 28.1145C176.054 28.5778 175.278 29.2501 174.631 30.1266C174.067 30.8905 173.312 32.2092 173.808 33.1855C174.308 34.119 175.724 34.142 176.627 34.1204C178.683 34.0714 180.75 34.1826 182.801 34.313C182.851 33.4645 183.431 32.1095 183.887 31.4228Z" fill="currentColor"/>
<path d="M192.266 34.7697C192.266 32.6651 190.561 30.9591 188.459 30.9591C186.356 30.9591 184.651 32.6651 184.651 34.7697C184.651 36.8741 186.356 38.5801 188.459 38.5801V40.4272C185.337 40.4272 182.806 37.8943 182.806 34.7697C182.806 31.6451 185.337 29.1121 188.459 29.1121C191.58 29.1121 194.111 31.6451 194.111 34.7697C194.111 37.8943 191.58 40.4272 188.459 40.4272V38.5801C190.561 38.5801 192.266 36.8741 192.266 34.7697Z" fill="currentColor"/>
<g clip-path="url(#clip0_5995_1027)">
<path d="M151.494 66.5095H150.305V58.9346C150.019 59.2076 149.642 59.4806 149.175 59.7535C148.713 60.0265 148.297 60.2312 147.927 60.3677V59.2186C148.592 58.906 149.173 58.5274 149.671 58.0827C150.168 57.638 150.521 57.2065 150.727 56.7883H151.494V66.5095Z" fill="currentColor"/>
<path d="M169.123 64.9443V62.2895H166.488V61.18H169.123V58.545H170.246V61.18H172.881V62.2895H170.246V64.9443H169.123Z" fill="currentColor"/>
<path d="M190.055 66.5095H188.866V58.9346C188.58 59.2076 188.204 59.4806 187.737 59.7535C187.275 60.0265 186.859 60.2312 186.489 60.3677V59.2186C187.154 58.906 187.735 58.5274 188.232 58.0827C188.73 57.638 189.082 57.2065 189.289 56.7883H190.055V66.5095Z" fill="currentColor"/>
<path d="M211.443 60.8168H205.05V59.7073H211.443V60.8168ZM211.443 63.7556H205.05V62.6461H211.443V63.7556Z" fill="currentColor"/>
<path d="M246.399 51.0903H223.578V71.9286H246.399V51.0903Z" stroke="currentColor" stroke-width="0.980935" stroke-linejoin="round"/>
</g>
<path d="M145.747 101.049C145.336 102.531 148.629 104.598 149.914 104.181C148.805 106.624 147.885 109.197 147.102 111.76C146.83 112.627 146.452 113.46 145.857 114.155C145.329 114.761 144.644 115.173 143.845 115.291C142.086 115.528 140.501 114.212 139.532 112.884C138.728 111.771 138.167 110.502 137.964 109.14C137.73 107.575 137.968 106.105 138.901 104.8C140.506 102.584 143.433 102.193 145.747 101.049ZM145.066 103.317C143.568 103.933 141.452 104.443 140.433 105.831C139.807 106.684 139.609 107.659 139.789 108.867C139.942 109.895 140.341 110.841 140.974 111.728C141.526 112.501 142.545 113.627 143.626 113.456C144.668 113.269 145.127 111.928 145.386 111.061C145.974 109.09 146.719 107.156 147.477 105.244C146.686 104.935 145.577 103.963 145.066 103.317Z" fill="currentColor"/>
<path d="M149.472 104.038C150.753 104.887 153.735 102.391 153.735 101.039C155.714 102.849 157.875 104.52 160.068 106.058C160.808 106.584 161.483 107.201 161.96 107.983C162.372 108.673 162.552 109.452 162.416 110.249C162.099 111.997 160.358 113.099 158.797 113.611C157.491 114.033 156.112 114.175 154.754 113.947C153.195 113.685 151.873 113.005 150.92 111.714C149.311 109.501 149.844 106.595 149.472 104.038ZM151.417 105.387C151.539 107.004 151.37 109.175 152.374 110.574C152.991 111.434 153.856 111.923 155.06 112.125C156.083 112.297 157.106 112.21 158.144 111.881C159.049 111.595 160.434 110.972 160.606 109.89C160.75 108.841 159.617 107.989 158.874 107.476C157.182 106.306 155.575 105 153.992 103.687C153.454 104.345 152.189 105.1 151.417 105.387Z" fill="currentColor"/>
<path d="M153.463 101.415C154.666 100.458 153.216 96.8479 151.931 96.4303C154.262 95.106 156.518 93.5651 158.657 91.9528C159.386 91.4107 160.181 90.9592 161.07 90.747C161.853 90.5672 162.65 90.637 163.365 91.0124C164.927 91.8549 165.437 93.8525 165.441 95.4971C165.439 96.8704 165.147 98.2268 164.511 99.4488C163.781 100.852 162.726 101.901 161.204 102.409C158.604 103.257 156.007 101.851 153.463 101.415ZM155.346 99.9809C156.92 100.364 158.931 101.196 160.571 100.673C161.578 100.351 162.311 99.679 162.875 98.5955C163.354 97.674 163.587 96.6737 163.596 95.584C163.603 94.6342 163.439 93.1233 162.465 92.6253C161.512 92.164 160.353 92.9788 159.635 93.5275C158.001 94.7765 156.263 95.9029 154.527 97.004C154.986 97.7193 155.312 99.1573 155.346 99.9809Z" fill="currentColor"/>
<path d="M152.204 96.8057C151.667 95.3648 147.788 95.6298 146.994 96.7236C146.456 94.0951 145.689 91.4715 144.818 88.9378C144.528 88.076 144.345 87.1799 144.418 86.2674C144.489 85.4664 144.802 84.7302 145.379 84.1653C146.663 82.9382 148.718 83.0709 150.282 83.5748C151.586 84.0015 152.785 84.6981 153.75 85.6811C154.857 86.8099 155.528 88.1386 155.54 89.7437C155.543 92.481 153.404 94.5182 152.204 96.8057ZM151.423 94.5701C152.273 93.1901 153.686 91.5329 153.695 89.8103C153.701 88.7518 153.289 87.847 152.433 86.9753C151.706 86.2341 150.827 85.7033 149.795 85.3584C148.895 85.0577 147.408 84.7467 146.634 85.5206C145.901 86.2845 146.317 87.6402 146.617 88.493C147.298 90.4346 147.832 92.4371 148.342 94.4298C149.163 94.2143 150.63 94.3484 151.423 94.5701Z" fill="currentColor"/>
<path d="M147.435 96.5793C145.9 96.6458 144.953 100.42 145.748 101.514C143.084 101.213 140.354 101.133 137.677 101.179C136.769 101.189 135.86 101.086 135.016 100.735C134.277 100.419 133.674 99.8946 133.316 99.17C132.546 97.5691 133.308 95.6535 134.27 94.3203C135.078 93.2109 136.11 92.2849 137.343 91.6705C138.757 90.965 140.227 90.7371 141.756 91.2215C144.358 92.0652 145.633 94.7301 147.435 96.5793ZM145.07 96.6321C144.021 95.3964 142.883 93.5398 141.249 92.9986C140.245 92.6661 139.258 92.7789 138.166 93.3237C137.236 93.787 136.461 94.4593 135.814 95.3358C135.25 96.0998 134.495 97.4184 134.991 98.3948C135.491 99.3282 136.907 99.3512 137.81 99.3296C139.866 99.2806 141.933 99.3918 143.984 99.5223C144.033 98.6738 144.614 97.3187 145.07 96.6321Z" fill="currentColor"/>
<path d="M153.449 99.9789C153.448 97.8743 151.744 96.1683 149.641 96.1683C147.539 96.1683 145.834 97.8743 145.834 99.9789C145.834 102.083 147.539 103.789 149.641 103.789V105.636C146.52 105.636 143.989 103.103 143.989 99.9789C143.989 96.8543 146.52 94.3213 149.641 94.3213C152.763 94.3213 155.294 96.8543 155.294 99.9789C155.294 103.103 152.763 105.636 149.641 105.636V103.789C151.744 103.789 153.449 102.083 153.449 99.9789Z" fill="currentColor"/>
<path d="M184.564 101.049C184.153 102.531 187.446 104.598 188.731 104.181C187.622 106.624 186.702 109.197 185.919 111.76C185.647 112.627 185.27 113.46 184.674 114.155C184.147 114.761 183.462 115.173 182.662 115.291C180.903 115.528 179.318 114.212 178.349 112.884C177.545 111.771 176.984 110.502 176.781 109.14C176.548 107.575 176.785 106.105 177.718 104.8C179.324 102.584 182.25 102.193 184.564 101.049ZM183.883 103.317C182.385 103.933 180.269 104.443 179.25 105.831C178.624 106.684 178.426 107.659 178.606 108.867C178.759 109.895 179.158 110.841 179.791 111.728C180.343 112.501 181.362 113.627 182.443 113.456C183.485 113.269 183.944 111.928 184.203 111.061C184.792 109.09 185.536 107.156 186.294 105.244C185.503 104.935 184.395 103.963 183.883 103.317Z" fill="currentColor"/>
<path d="M188.289 104.038C189.57 104.887 192.552 102.391 192.552 101.039C194.531 102.849 196.692 104.52 198.885 106.057C199.626 106.584 200.3 107.201 200.777 107.983C201.189 108.672 201.369 109.452 201.234 110.249C200.916 111.997 199.175 113.098 197.614 113.611C196.308 114.033 194.929 114.175 193.572 113.947C192.013 113.685 190.69 113.005 189.737 111.713C188.128 109.5 188.661 106.594 188.289 104.038ZM190.234 105.387C190.356 107.003 190.187 109.175 191.191 110.574C191.808 111.434 192.673 111.923 193.877 112.125C194.9 112.297 195.923 112.209 196.961 111.881C197.866 111.595 199.251 110.972 199.423 109.89C199.567 108.841 198.434 107.989 197.691 107.475C195.999 106.306 194.392 104.999 192.809 103.687C192.271 104.345 191.006 105.099 190.234 105.387Z" fill="currentColor"/>
<path d="M192.28 101.415C193.483 100.458 192.033 96.8479 190.748 96.4303C193.08 95.106 195.335 93.5651 197.474 91.9528C198.203 91.4107 198.998 90.9592 199.888 90.747C200.671 90.5672 201.467 90.637 202.182 91.0124C203.745 91.8549 204.254 93.8525 204.258 95.4971C204.256 96.8704 203.964 98.2268 203.328 99.4488C202.598 100.852 201.543 101.901 200.021 102.409C197.421 103.257 194.825 101.851 192.28 101.415ZM194.163 99.9809C195.737 100.364 197.748 101.196 199.388 100.673C200.395 100.351 201.128 99.679 201.692 98.5955C202.171 97.674 202.404 96.6737 202.413 95.584C202.42 94.6342 202.257 93.1233 201.282 92.6253C200.33 92.164 199.17 92.9788 198.452 93.5275C196.818 94.7765 195.08 95.9029 193.344 97.004C193.803 97.7193 194.129 99.1573 194.163 99.9809Z" fill="currentColor"/>
<path d="M191.021 96.8057C190.484 95.3648 186.605 95.6298 185.811 96.7236C185.274 94.0951 184.506 91.4715 183.635 88.9378C183.345 88.076 183.162 87.1799 183.235 86.2674C183.307 85.4664 183.619 84.7302 184.197 84.1653C185.48 82.9382 187.535 83.0709 189.1 83.5748C190.404 84.0015 191.602 84.6981 192.567 85.6811C193.675 86.8099 194.345 88.1386 194.357 89.7437C194.36 92.481 192.222 94.5182 191.021 96.8057ZM190.24 94.5701C191.091 93.1901 192.503 91.5329 192.512 89.8103C192.518 88.7518 192.106 87.847 191.25 86.9753C190.523 86.2341 189.644 85.7033 188.612 85.3584C187.712 85.0577 186.225 84.7467 185.451 85.5206C184.718 86.2845 185.134 87.6402 185.434 88.493C186.116 90.4346 186.649 92.4371 187.159 94.4298C187.98 94.2143 189.447 94.3484 190.24 94.5701Z" fill="currentColor"/>
<path d="M186.253 96.5793C184.717 96.6458 183.771 100.42 184.565 101.514C181.901 101.213 179.171 101.133 176.494 101.179C175.586 101.189 174.678 101.086 173.833 100.735C173.094 100.419 172.491 99.8946 172.133 99.17C171.363 97.5691 172.125 95.6535 173.087 94.3203C173.895 93.2109 174.928 92.2849 176.16 91.6705C177.575 90.965 179.044 90.7371 180.573 91.2215C183.175 92.0652 184.45 94.7301 186.253 96.5793ZM183.887 96.6321C182.839 95.3964 181.7 93.5398 180.066 92.9986C179.062 92.6661 178.075 92.7789 176.983 93.3237C176.054 93.787 175.278 94.4593 174.631 95.3358C174.067 96.0998 173.312 97.4184 173.808 98.3948C174.308 99.3282 175.724 99.3512 176.627 99.3296C178.683 99.2806 180.75 99.3918 182.801 99.5223C182.851 98.6738 183.431 97.3187 183.887 96.6321Z" fill="currentColor"/>
<path d="M192.266 99.9789C192.266 97.8743 190.561 96.1683 188.459 96.1683C186.356 96.1683 184.651 97.8743 184.651 99.9789C184.651 102.083 186.356 103.789 188.459 103.789V105.636C185.337 105.636 182.806 103.103 182.806 99.9789C182.806 96.8543 185.337 94.3213 188.459 94.3213C191.58 94.3213 194.111 96.8543 194.111 99.9789C194.111 103.103 191.58 105.636 188.459 105.636V103.789C190.561 103.789 192.266 102.083 192.266 99.9789Z" fill="currentColor"/>
<g clip-path="url(#clip1_5995_1027)">
<path d="M151.494 131.719H150.305V124.144C150.019 124.417 149.642 124.69 149.175 124.963C148.713 125.236 148.297 125.44 147.927 125.577V124.428C148.592 124.115 149.173 123.737 149.671 123.292C150.168 122.847 150.521 122.416 150.727 121.998H151.494V131.719Z" fill="currentColor"/>
<path d="M169.123 130.154V127.499H166.488V126.389H169.123V123.754H170.246V126.389H172.881V127.499H170.246V130.154H169.123Z" fill="currentColor"/>
<path d="M190.055 131.719H188.866V124.144C188.58 124.417 188.204 124.69 187.737 124.963C187.275 125.236 186.859 125.44 186.489 125.577V124.428C187.154 124.115 187.735 123.737 188.232 123.292C188.73 122.847 189.082 122.416 189.289 121.998H190.055V131.719Z" fill="currentColor"/>
<path d="M211.443 126.026H205.05V124.917H211.443V126.026ZM211.443 128.965H205.05V127.855H211.443V128.965Z" fill="currentColor"/>
<path d="M246.399 116.3H223.578V137.138H246.399V116.3Z" stroke="currentColor" stroke-width="0.980935" stroke-linejoin="round"/>
</g>
<path d="M145.747 166.258C145.336 167.74 148.629 169.808 149.914 169.39C148.805 171.833 147.885 174.407 147.102 176.969C146.83 177.837 146.452 178.67 145.857 179.365C145.329 179.971 144.644 180.383 143.845 180.5C142.086 180.737 140.501 179.421 139.532 178.093C138.728 176.981 138.167 175.712 137.964 174.349C137.73 172.784 137.968 171.315 138.901 170.009C140.506 167.793 143.433 167.403 145.747 166.258ZM145.066 168.526C143.568 169.143 141.452 169.652 140.433 171.041C139.807 171.894 139.609 172.868 139.789 174.076C139.942 175.104 140.341 176.05 140.974 176.937C141.526 177.71 142.545 178.836 143.626 178.665C144.668 178.478 145.127 177.137 145.386 176.271C145.974 174.299 146.719 172.365 147.477 170.453C146.686 170.144 145.577 169.172 145.066 168.526Z" fill="currentColor"/>
<path d="M149.472 169.247C150.753 170.096 153.735 167.6 153.735 166.248C155.714 168.058 157.875 169.729 160.068 171.267C160.808 171.793 161.483 172.41 161.96 173.192C162.372 173.882 162.552 174.661 162.416 175.458C162.099 177.206 160.358 178.308 158.797 178.82C157.491 179.242 156.112 179.384 154.754 179.156C153.195 178.894 151.873 178.214 150.92 176.923C149.311 174.71 149.844 171.804 149.472 169.247ZM151.417 170.596C151.539 172.213 151.37 174.384 152.374 175.783C152.991 176.643 153.856 177.132 155.06 177.334C156.083 177.506 157.106 177.419 158.144 177.09C159.049 176.804 160.434 176.181 160.606 175.099C160.75 174.05 159.617 173.198 158.874 172.685C157.182 171.515 155.575 170.209 153.992 168.896C153.454 169.554 152.189 170.309 151.417 170.596Z" fill="currentColor"/>
<path d="M153.463 166.624C154.666 165.668 153.216 162.057 151.931 161.64C154.262 160.315 156.518 158.774 158.657 157.162C159.386 156.62 160.181 156.168 161.07 155.956C161.853 155.776 162.65 155.846 163.365 156.222C164.927 157.064 165.437 159.062 165.441 160.706C165.439 162.08 165.147 163.436 164.511 164.658C163.781 166.061 162.726 167.11 161.204 167.618C158.604 168.466 156.007 167.06 153.463 166.624ZM155.346 165.19C156.92 165.573 158.931 166.405 160.571 165.882C161.578 165.56 162.311 164.888 162.875 163.805C163.354 162.883 163.587 161.883 163.596 160.793C163.603 159.843 163.439 158.333 162.465 157.835C161.512 157.373 160.353 158.188 159.635 158.737C158.001 159.986 156.263 161.112 154.527 162.213C154.986 162.929 155.312 164.366 155.346 165.19Z" fill="currentColor"/>
<path d="M152.204 162.015C151.667 160.574 147.788 160.839 146.994 161.933C146.456 159.304 145.689 156.681 144.818 154.147C144.528 153.285 144.345 152.389 144.418 151.477C144.489 150.676 144.802 149.939 145.379 149.374C146.663 148.147 148.718 148.28 150.282 148.784C151.586 149.211 152.785 149.907 153.75 150.89C154.857 152.019 155.528 153.348 155.54 154.953C155.543 157.69 153.404 159.727 152.204 162.015ZM151.423 159.779C152.273 158.399 153.686 156.742 153.695 155.02C153.701 153.961 153.289 153.056 152.433 152.185C151.706 151.443 150.827 150.913 149.795 150.568C148.895 150.267 147.408 149.956 146.634 150.73C145.901 151.494 146.317 152.849 146.617 153.702C147.298 155.644 147.832 157.646 148.342 159.639C149.163 159.424 150.63 159.558 151.423 159.779Z" fill="currentColor"/>
<path d="M147.435 161.789C145.9 161.855 144.953 165.629 145.748 166.723C143.084 166.423 140.354 166.342 137.677 166.388C136.769 166.398 135.86 166.296 135.016 165.944C134.277 165.629 133.674 165.104 133.316 164.379C132.546 162.778 133.308 160.863 134.27 159.53C135.078 158.42 136.11 157.494 137.343 156.88C138.757 156.174 140.227 155.946 141.756 156.431C144.358 157.274 145.633 159.939 147.435 161.789ZM145.07 161.841C144.021 160.606 142.883 158.749 141.249 158.208C140.245 157.875 139.258 157.988 138.166 158.533C137.236 158.996 136.461 159.669 135.814 160.545C135.25 161.309 134.495 162.628 134.991 163.604C135.491 164.537 136.907 164.56 137.81 164.539C139.866 164.49 141.933 164.601 143.984 164.732C144.033 163.883 144.614 162.528 145.07 161.841Z" fill="currentColor"/>
<path d="M153.449 165.188C153.448 163.084 151.744 161.378 149.641 161.378C147.539 161.378 145.834 163.084 145.834 165.188C145.834 167.293 147.539 168.999 149.641 168.999V170.846C146.52 170.846 143.989 168.313 143.989 165.188C143.989 162.064 146.52 159.531 149.641 159.531C152.763 159.531 155.294 162.064 155.294 165.188C155.294 168.313 152.763 170.846 149.641 170.846V168.999C151.744 168.999 153.449 167.293 153.449 165.188Z" fill="currentColor"/>
<path d="M184.564 166.258C184.153 167.74 187.446 169.808 188.731 169.39C187.622 171.833 186.702 174.407 185.919 176.969C185.647 177.837 185.27 178.67 184.674 179.365C184.147 179.971 183.462 180.383 182.662 180.5C180.903 180.737 179.318 179.421 178.349 178.093C177.545 176.981 176.984 175.712 176.781 174.349C176.548 172.784 176.785 171.315 177.718 170.009C179.324 167.793 182.25 167.403 184.564 166.258ZM183.883 168.526C182.385 169.143 180.269 169.652 179.25 171.041C178.624 171.894 178.426 172.868 178.606 174.076C178.759 175.104 179.158 176.05 179.791 176.937C180.343 177.71 181.362 178.836 182.443 178.665C183.485 178.478 183.944 177.137 184.203 176.271C184.792 174.299 185.536 172.365 186.294 170.453C185.503 170.144 184.395 169.172 183.883 168.526Z" fill="currentColor"/>
<path d="M188.289 169.247C189.57 170.096 192.552 167.6 192.552 166.248C194.531 168.058 196.692 169.729 198.885 171.267C199.626 171.793 200.3 172.41 200.777 173.192C201.189 173.882 201.369 174.661 201.234 175.458C200.916 177.206 199.175 178.308 197.614 178.82C196.308 179.242 194.929 179.384 193.572 179.156C192.013 178.894 190.69 178.214 189.737 176.923C188.128 174.71 188.661 171.804 188.289 169.247ZM190.234 170.596C190.356 172.213 190.187 174.384 191.191 175.783C191.808 176.643 192.673 177.132 193.877 177.334C194.9 177.506 195.923 177.419 196.961 177.09C197.866 176.804 199.251 176.181 199.423 175.099C199.567 174.05 198.434 173.198 197.691 172.685C195.999 171.515 194.392 170.209 192.809 168.896C192.271 169.554 191.006 170.309 190.234 170.596Z" fill="currentColor"/>
<path d="M192.28 166.624C193.483 165.668 192.033 162.057 190.748 161.64C193.08 160.315 195.335 158.774 197.474 157.162C198.203 156.62 198.998 156.168 199.888 155.956C200.671 155.776 201.467 155.846 202.182 156.222C203.745 157.064 204.254 159.062 204.258 160.706C204.256 162.08 203.964 163.436 203.328 164.658C202.598 166.061 201.543 167.11 200.021 167.618C197.421 168.466 194.825 167.06 192.28 166.624ZM194.163 165.19C195.737 165.573 197.748 166.405 199.388 165.882C200.395 165.56 201.128 164.888 201.692 163.805C202.171 162.883 202.404 161.883 202.413 160.793C202.42 159.843 202.257 158.333 201.282 157.835C200.33 157.373 199.17 158.188 198.452 158.737C196.818 159.986 195.08 161.112 193.344 162.213C193.803 162.929 194.129 164.366 194.163 165.19Z" fill="currentColor"/>
<path d="M191.021 162.015C190.484 160.574 186.605 160.839 185.811 161.933C185.274 159.304 184.506 156.681 183.635 154.147C183.345 153.285 183.162 152.389 183.235 151.477C183.307 150.676 183.619 149.939 184.197 149.374C185.48 148.147 187.535 148.28 189.1 148.784C190.404 149.211 191.602 149.907 192.567 150.89C193.675 152.019 194.345 153.348 194.357 154.953C194.36 157.69 192.222 159.727 191.021 162.015ZM190.24 159.779C191.091 158.399 192.503 156.742 192.512 155.02C192.518 153.961 192.106 153.056 191.25 152.185C190.523 151.443 189.644 150.913 188.612 150.568C187.712 150.267 186.225 149.956 185.451 150.73C184.718 151.494 185.134 152.849 185.434 153.702C186.116 155.644 186.649 157.646 187.159 159.639C187.98 159.424 189.447 159.558 190.24 159.779Z" fill="currentColor"/>
<path d="M186.253 161.789C184.717 161.855 183.771 165.629 184.565 166.723C181.901 166.423 179.171 166.342 176.494 166.388C175.586 166.398 174.678 166.296 173.833 165.944C173.094 165.629 172.491 165.104 172.133 164.379C171.363 162.778 172.125 160.863 173.087 159.53C173.895 158.42 174.928 157.494 176.16 156.88C177.575 156.174 179.044 155.946 180.573 156.431C183.175 157.274 184.45 159.939 186.253 161.789ZM183.887 161.841C182.839 160.606 181.7 158.749 180.066 158.208C179.062 157.875 178.075 157.988 176.983 158.533C176.054 158.996 175.278 159.669 174.631 160.545C174.067 161.309 173.312 162.628 173.808 163.604C174.308 164.537 175.724 164.56 176.627 164.539C178.683 164.49 180.75 164.601 182.801 164.732C182.851 163.883 183.431 162.528 183.887 161.841Z" fill="currentColor"/>
<path d="M192.266 165.188C192.266 163.084 190.561 161.378 188.459 161.378C186.356 161.378 184.651 163.084 184.651 165.188C184.651 167.293 186.356 168.999 188.459 168.999V170.846C185.337 170.846 182.806 168.313 182.806 165.188C182.806 162.064 185.337 159.531 188.459 159.531C191.58 159.531 194.111 162.064 194.111 165.188C194.111 168.313 191.58 170.846 188.459 170.846V168.999C190.561 168.999 192.266 167.293 192.266 165.188Z" fill="currentColor"/>
<path d="M151.494 196.928H150.305V189.353C150.019 189.626 149.642 189.899 149.175 190.172C148.713 190.445 148.297 190.65 147.927 190.786V189.637C148.592 189.324 149.173 188.946 149.671 188.501C150.168 188.056 150.521 187.625 150.727 187.207H151.494V196.928Z" fill="currentColor"/>
<path d="M169.123 195.363V192.708H166.488V191.598H169.123V188.963H170.246V191.598H172.881V192.708H170.246V195.363H169.123Z" fill="currentColor"/>
<path d="M190.055 196.928H188.866V189.353C188.58 189.626 188.204 189.899 187.737 190.172C187.275 190.445 186.859 190.65 186.489 190.786V189.637C187.154 189.324 187.735 188.946 188.232 188.501C188.73 188.056 189.082 187.625 189.289 187.207H190.055V196.928Z" fill="currentColor"/>
<path d="M211.443 191.235H205.05V190.126H211.443V191.235ZM211.443 194.174H205.05V193.065H211.443V194.174Z" fill="currentColor"/>
<path d="M246.399 181.509H223.578V202.347H246.399V181.509Z" stroke="currentColor" stroke-width="0.980935" stroke-linejoin="round"/>
<path d="M145.747 231.468C145.336 232.949 148.629 235.017 149.914 234.599C148.805 237.042 147.885 239.616 147.102 242.178C146.83 243.046 146.452 243.879 145.857 244.574C145.329 245.18 144.644 245.592 143.845 245.709C142.086 245.947 140.501 244.63 139.532 243.302C138.728 242.19 138.167 240.921 137.964 239.558C137.73 237.993 137.968 236.524 138.901 235.218C140.506 233.002 143.433 232.612 145.747 231.468ZM145.066 233.736C143.568 234.352 141.452 234.862 140.433 236.25C139.807 237.103 139.609 238.077 139.789 239.286C139.942 240.313 140.341 241.26 140.974 242.146C141.526 242.919 142.545 244.045 143.626 243.874C144.668 243.687 145.127 242.346 145.386 241.48C145.974 239.508 146.719 237.574 147.477 235.662C146.686 235.353 145.577 234.382 145.066 233.736Z" fill="currentColor"/>
<path d="M149.472 234.456C150.753 235.306 153.735 232.809 153.735 231.458C155.714 233.268 157.875 234.939 160.068 236.476C160.808 237.003 161.483 237.62 161.96 238.401C162.372 239.091 162.552 239.87 162.416 240.667C162.099 242.415 160.358 243.517 158.797 244.03C157.491 244.452 156.112 244.593 154.754 244.365C153.195 244.104 151.873 243.424 150.92 242.132C149.311 239.919 149.844 237.013 149.472 234.456ZM151.417 235.805C151.539 237.422 151.37 239.594 152.374 240.993C152.991 241.852 153.856 242.342 155.06 242.544C156.083 242.716 157.106 242.628 158.144 242.3C159.049 242.013 160.434 241.391 160.606 240.309C160.75 239.26 159.617 238.408 158.874 237.894C157.182 236.724 155.575 235.418 153.992 234.106C153.454 234.763 152.189 235.518 151.417 235.805Z" fill="currentColor"/>
<path d="M153.463 231.834C154.666 230.877 153.216 227.266 151.931 226.849C154.262 225.524 156.518 223.984 158.657 222.371C159.386 221.829 160.181 221.378 161.07 221.165C161.853 220.986 162.65 221.055 163.365 221.431C164.927 222.273 165.437 224.271 165.441 225.916C165.439 227.289 165.147 228.645 164.511 229.867C163.781 231.27 162.726 232.319 161.204 232.827C158.604 233.675 156.007 232.269 153.463 231.834ZM155.346 230.399C156.92 230.782 158.931 231.615 160.571 231.091C161.578 230.769 162.311 230.098 162.875 229.014C163.354 228.092 163.587 227.092 163.596 226.002C163.603 225.053 163.439 223.542 162.465 223.044C161.512 222.582 160.353 223.397 159.635 223.946C158.001 225.195 156.263 226.321 154.527 227.422C154.986 228.138 155.312 229.576 155.346 230.399Z" fill="currentColor"/>
<path d="M152.204 227.224C151.667 225.783 147.788 226.048 146.994 227.142C146.456 224.514 145.689 221.89 144.818 219.356C144.528 218.494 144.345 217.598 144.418 216.686C144.489 215.885 144.802 215.149 145.379 214.584C146.663 213.357 148.718 213.489 150.282 213.993C151.586 214.42 152.785 215.117 153.75 216.1C154.857 217.228 155.528 218.557 155.54 220.162C155.543 222.899 153.404 224.937 152.204 227.224ZM151.423 224.989C152.273 223.609 153.686 221.951 153.695 220.229C153.701 219.17 153.289 218.265 152.433 217.394C151.706 216.653 150.827 216.122 149.795 215.777C148.895 215.476 147.408 215.165 146.634 215.939C145.901 216.703 146.317 218.059 146.617 218.911C147.298 220.853 147.832 222.856 148.342 224.848C149.163 224.633 150.63 224.767 151.423 224.989Z" fill="currentColor"/>
<path d="M147.435 226.998C145.9 227.064 144.953 230.838 145.748 231.932C143.084 231.632 140.354 231.551 137.677 231.598C136.769 231.607 135.86 231.505 135.016 231.153C134.277 230.838 133.674 230.313 133.316 229.589C132.546 227.988 133.308 226.072 134.27 224.739C135.078 223.629 136.11 222.703 137.343 222.089C138.757 221.383 140.227 221.156 141.756 221.64C144.358 222.484 145.633 225.149 147.435 226.998ZM145.07 227.051C144.021 225.815 142.883 223.958 141.249 223.417C140.245 223.085 139.258 223.197 138.166 223.742C137.236 224.205 136.461 224.878 135.814 225.754C135.25 226.518 134.495 227.837 134.991 228.813C135.491 229.747 136.907 229.77 137.81 229.748C139.866 229.699 141.933 229.81 143.984 229.941C144.033 229.092 144.614 227.737 145.07 227.051Z" fill="currentColor"/>
<path d="M153.449 230.397C153.448 228.293 151.744 226.587 149.641 226.587C147.539 226.587 145.834 228.293 145.834 230.397C145.834 232.502 147.539 234.208 149.641 234.208V236.055C146.52 236.055 143.989 233.522 143.989 230.397C143.989 227.273 146.52 224.74 149.641 224.74C152.763 224.74 155.294 227.273 155.294 230.397C155.294 233.522 152.763 236.055 149.641 236.055V234.208C151.744 234.208 153.449 232.502 153.449 230.397Z" fill="currentColor"/>
<path d="M184.564 231.468C184.153 232.949 187.446 235.017 188.731 234.599C187.622 237.042 186.702 239.616 185.919 242.178C185.647 243.046 185.27 243.879 184.674 244.574C184.147 245.18 183.462 245.592 182.662 245.709C180.903 245.947 179.318 244.63 178.349 243.302C177.545 242.19 176.984 240.921 176.781 239.558C176.548 237.993 176.785 236.524 177.718 235.218C179.324 233.002 182.25 232.612 184.564 231.468ZM183.883 233.736C182.385 234.352 180.269 234.862 179.25 236.25C178.624 237.103 178.426 238.077 178.606 239.286C178.759 240.313 179.158 241.26 179.791 242.146C180.343 242.919 181.362 244.045 182.443 243.874C183.485 243.687 183.944 242.346 184.203 241.48C184.792 239.508 185.536 237.574 186.294 235.662C185.503 235.353 184.395 234.382 183.883 233.736Z" fill="currentColor"/>
<path d="M188.289 234.456C189.57 235.306 192.552 232.809 192.552 231.457C194.531 233.267 196.692 234.939 198.885 236.476C199.626 237.003 200.3 237.62 200.777 238.401C201.189 239.091 201.369 239.87 201.234 240.667C200.916 242.415 199.175 243.517 197.614 244.029C196.308 244.451 194.929 244.593 193.572 244.365C192.013 244.104 190.69 243.423 189.737 242.132C188.128 239.919 188.661 237.013 188.289 234.456ZM190.234 235.805C190.356 237.422 190.187 239.593 191.191 240.992C191.808 241.852 192.673 242.342 193.877 242.544C194.9 242.715 195.923 242.628 196.961 242.299C197.866 242.013 199.251 241.39 199.423 240.309C199.567 239.26 198.434 238.408 197.691 237.894C195.999 236.724 194.392 235.418 192.809 234.106C192.271 234.763 191.006 235.518 190.234 235.805Z" fill="currentColor"/>
<path d="M192.28 231.834C193.483 230.877 192.033 227.266 190.748 226.849C193.08 225.524 195.335 223.984 197.474 222.371C198.203 221.829 198.998 221.378 199.888 221.165C200.671 220.986 201.467 221.055 202.182 221.431C203.745 222.273 204.254 224.271 204.258 225.916C204.256 227.289 203.964 228.645 203.328 229.867C202.598 231.27 201.543 232.319 200.021 232.827C197.421 233.675 194.825 232.269 192.28 231.834ZM194.163 230.399C195.737 230.782 197.748 231.615 199.388 231.091C200.395 230.769 201.128 230.098 201.692 229.014C202.171 228.092 202.404 227.092 202.413 226.002C202.42 225.053 202.257 223.542 201.282 223.044C200.33 222.582 199.17 223.397 198.452 223.946C196.818 225.195 195.08 226.321 193.344 227.422C193.803 228.138 194.129 229.576 194.163 230.399Z" fill="currentColor"/>
<path d="M191.021 227.224C190.484 225.783 186.605 226.048 185.811 227.142C185.274 224.514 184.506 221.89 183.635 219.356C183.345 218.494 183.162 217.598 183.235 216.686C183.307 215.885 183.619 215.149 184.197 214.584C185.48 213.357 187.535 213.489 189.1 213.993C190.404 214.42 191.602 215.117 192.567 216.1C193.675 217.228 194.345 218.557 194.357 220.162C194.36 222.899 192.222 224.937 191.021 227.224ZM190.24 224.989C191.091 223.609 192.503 221.951 192.512 220.229C192.518 219.17 192.106 218.265 191.25 217.394C190.523 216.653 189.644 216.122 188.612 215.777C187.712 215.476 186.225 215.165 185.451 215.939C184.718 216.703 185.134 218.059 185.434 218.911C186.116 220.853 186.649 222.856 187.159 224.848C187.98 224.633 189.447 224.767 190.24 224.989Z" fill="currentColor"/>
<path d="M186.253 226.998C184.717 227.064 183.771 230.838 184.565 231.932C181.901 231.632 179.171 231.551 176.494 231.598C175.586 231.607 174.678 231.505 173.833 231.153C173.094 230.838 172.491 230.313 172.133 229.589C171.363 227.988 172.125 226.072 173.087 224.739C173.895 223.629 174.928 222.703 176.16 222.089C177.575 221.383 179.044 221.156 180.573 221.64C183.175 222.484 184.45 225.149 186.253 226.998ZM183.887 227.051C182.839 225.815 181.7 223.958 180.066 223.417C179.062 223.085 178.075 223.197 176.983 223.742C176.054 224.205 175.278 224.878 174.631 225.754C174.067 226.518 173.312 227.837 173.808 228.813C174.308 229.747 175.724 229.77 176.627 229.748C178.683 229.699 180.75 229.81 182.801 229.941C182.851 229.092 183.431 227.737 183.887 227.051Z" fill="currentColor"/>
<path d="M192.266 230.397C192.266 228.293 190.561 226.587 188.459 226.587C186.356 226.587 184.651 228.293 184.651 230.397C184.651 232.502 186.356 234.208 188.459 234.208V236.055C185.337 236.055 182.806 233.522 182.806 230.397C182.806 227.273 185.337 224.74 188.459 224.74C191.58 224.74 194.111 227.273 194.111 230.397C194.111 233.522 191.58 236.055 188.459 236.055V234.208C190.561 234.208 192.266 232.502 192.266 230.397Z" fill="currentColor"/>
<g clip-path="url(#clip2_5995_1027)">
<path d="M151.494 262.137H150.305V254.562C150.019 254.835 149.642 255.108 149.175 255.381C148.713 255.654 148.297 255.859 147.927 255.995V254.846C148.592 254.534 149.173 254.155 149.671 253.71C150.168 253.266 150.521 252.834 150.727 252.416H151.494V262.137Z" fill="currentColor"/>
<path d="M169.123 260.572V257.917H166.488V256.808H169.123V254.173H170.246V256.808H172.881V257.917H170.246V260.572H169.123Z" fill="currentColor"/>
<path d="M190.055 262.137H188.866V254.562C188.58 254.835 188.204 255.108 187.737 255.381C187.275 255.654 186.859 255.859 186.489 255.995V254.846C187.154 254.534 187.735 254.155 188.232 253.71C188.73 253.266 189.082 252.834 189.289 252.416H190.055V262.137Z" fill="currentColor"/>
<path d="M211.443 256.444H205.05V255.335H211.443V256.444ZM211.443 259.383H205.05V258.274H211.443V259.383Z" fill="currentColor"/>
<path d="M246.399 246.718H223.578V267.556H246.399V246.718Z" stroke="currentColor" stroke-width="0.980935" stroke-linejoin="round"/>
</g><defs>
<clipPath id="clip0_5995_1027">
<rect width="106.431" height="22.8001" fill="white" transform="translate(145.474 50.1094)"/>
</clipPath>
<clipPath id="clip1_5995_1027">
<rect width="106.431" height="22.8001" fill="white" transform="translate(145.474 115.319)"/>
</clipPath>
<clipPath id="clip2_5995_1027">
<rect width="106.431" height="22.8001" fill="white" transform="translate(145.474 245.737)"/>
</clipPath>
</defs>
</svg>
