<svg width="281" height="398" viewBox="0 0 281 398" fill="none" xmlns="http://www.w3.org/2000/svg">
  <style>
    /* Default color for standalone viewing - overridden by currentColor when embedded in HTML */
    svg {
      color: #636363;
    }
  </style><rect width="280.5" height="398" fill="white"/><path d="M65.1026 38.0056C64.4864 40.2264 69.4221 43.3248 71.3472 42.6986C69.686 46.3596 68.3071 50.2166 67.1336 54.0568C66.7264 55.357 66.1602 56.6052 65.2682 57.647C64.4771 58.5553 63.4506 59.1725 62.2528 59.3482C59.6169 59.7043 57.2417 57.7313 55.7888 55.7412C54.5834 54.0741 53.7429 52.1726 53.4385 50.1303C53.0891 47.7853 53.4454 45.5831 54.8431 43.6262C57.2494 40.3057 61.6345 39.7206 65.1026 38.0056ZM64.0822 41.4045C61.8371 42.3282 58.6662 43.0922 57.139 45.1724C56.2004 46.4508 55.9039 47.9111 56.1737 49.722C56.4032 51.262 57.0014 52.6801 57.9498 54.0089C58.7766 55.167 60.3049 56.8544 61.9247 56.5989C63.4853 56.3186 64.1741 54.3082 64.5616 53.0103C65.4436 50.0551 66.5595 47.1571 67.695 44.2918C66.5096 43.8289 64.8488 42.3728 64.0822 41.4045Z" fill="currentColor"/>
<path d="M70.6851 42.4844C72.6047 43.7574 77.0741 40.0164 77.0739 37.9904C80.0393 40.703 83.2781 43.2076 86.5644 45.5112C87.6741 46.3006 88.6851 47.2254 89.3993 48.3964C90.0178 49.4301 90.2873 50.5982 90.0839 51.7924C89.6078 54.4117 86.999 56.0631 84.6592 56.8311C82.7026 57.4634 80.636 57.6759 78.6014 57.3344C76.2652 56.9425 74.2828 55.9228 72.8554 53.9875C70.4438 50.671 71.243 46.3158 70.6851 42.4844ZM73.5993 44.5061C73.7832 46.9288 73.5293 50.1832 75.034 52.28C75.9586 53.5683 77.2547 54.3018 79.0587 54.6047C80.5928 54.8621 82.1252 54.7309 83.6809 54.2386C85.0368 53.8096 87.1124 52.8762 87.3703 51.2551C87.5861 49.6831 85.8888 48.4062 84.7752 47.6363C82.2398 45.8833 79.831 43.9257 77.4592 41.9592C76.6529 42.9446 74.7562 44.0756 73.5993 44.5061Z" fill="currentColor"/>
<path d="M76.6665 38.5543C78.4691 37.1203 76.2956 31.7096 74.3706 31.0838C77.8643 29.0992 81.245 26.79 84.4494 24.3737C85.5425 23.5613 86.7336 22.8846 88.0669 22.5667C89.2403 22.2973 90.4335 22.4018 91.5053 22.9643C93.8471 24.227 94.61 27.2207 94.6169 29.6853C94.613 31.7433 94.1764 33.776 93.2231 35.6073C92.1287 37.7102 90.5473 39.2822 88.2673 40.0429C84.3706 41.3136 80.4794 39.2071 76.6665 38.5543ZM79.4881 36.4048C81.8469 36.9784 84.8608 38.2258 87.3179 37.4414C88.828 36.9594 89.9254 35.9524 90.7706 34.3285C91.4893 32.9476 91.8382 31.4485 91.8512 29.8155C91.8625 28.3921 91.6171 26.1279 90.1564 25.3815C88.7293 24.6902 86.9914 25.9113 85.9158 26.7335C83.4667 28.6053 80.8621 30.2934 78.2608 31.9435C78.948 33.0154 79.4365 35.1704 79.4881 36.4048Z" fill="currentColor"/>
<path d="M74.7799 31.6463C73.9745 29.487 68.1616 29.8841 66.9721 31.5233C66.166 27.5842 65.0165 23.6525 63.7108 19.8554C63.2766 18.5639 63.0017 17.221 63.1117 15.8535C63.2183 14.6532 63.6862 13.5498 64.552 12.7032C66.4754 10.8643 69.5557 11.0631 71.8997 11.8183C73.8539 12.4579 75.6506 13.5017 77.0961 14.975C78.756 16.6665 79.7611 18.6578 79.7793 21.0632C79.7826 25.1653 76.5784 28.2184 74.7799 31.6463ZM73.6095 28.2961C74.8835 26.228 77 23.7444 77.014 21.163C77.0226 19.5766 76.4048 18.2208 75.1231 16.9145C74.0331 15.8036 72.7163 15.0082 71.1688 14.4912C69.8198 14.0406 67.5925 13.5746 66.4319 14.7343C65.334 15.8792 65.9573 17.9108 66.4061 19.1889C67.428 22.0986 68.2271 25.0996 68.9911 28.0858C70.222 27.7629 72.4207 27.9638 73.6095 28.2961Z" fill="currentColor"/>
<path d="M67.6332 31.3071C65.3326 31.4068 63.9136 37.0627 65.1036 38.7018C61.1115 38.2517 57.0205 38.131 53.009 38.2006C51.6477 38.2147 50.2867 38.0615 49.0213 37.5342C47.9137 37.0619 47.0099 36.2755 46.473 35.1896C45.32 32.7905 46.4609 29.9197 47.9027 27.9218C49.1143 26.2592 50.6614 24.8714 52.5079 23.9507C54.6282 22.8934 56.8308 22.552 59.1221 23.2779C63.0208 24.5422 64.9317 28.5359 67.6332 31.3071ZM64.0881 31.3862C62.5168 29.5344 60.8109 26.752 58.3624 25.941C56.8577 25.4427 55.3785 25.6118 53.7411 26.4282C52.3488 27.1225 51.1861 28.1301 50.2167 29.4436C49.3716 30.5884 48.2405 32.5646 48.9839 34.0278C49.7324 35.4267 51.8555 35.4612 53.2086 35.4288C56.2891 35.3553 59.3876 35.5219 62.4612 35.7175C62.5348 34.4459 63.4051 32.4152 64.0881 31.3862Z" fill="currentColor"/>
<path d="M76.6445 36.4019C76.6444 33.2479 74.0901 30.6913 70.9391 30.6913C67.7882 30.6913 65.2337 33.2479 65.2337 36.4019C65.2337 39.5557 67.7882 42.1124 70.9391 42.1124V44.8803C66.2608 44.8803 62.4683 41.0845 62.4683 36.4019C62.4683 31.7193 66.2608 27.9233 70.9391 27.9233C75.6174 27.9233 79.4098 31.7193 79.41 36.4019C79.41 41.0845 75.6174 44.8803 70.9391 44.8803V42.1124C74.0901 42.1124 76.6445 39.5557 76.6445 36.4019Z" fill="currentColor"/>
<path d="M123.275 38.0056C122.658 40.2264 127.594 43.3248 129.519 42.6986C127.858 46.3596 126.479 50.2166 125.305 54.0568C124.898 55.357 124.332 56.6052 123.44 57.647C122.649 58.5553 121.622 59.1725 120.425 59.3482C117.789 59.7043 115.414 57.7313 113.961 55.7412C112.755 54.0741 111.915 52.1726 111.61 50.1303C111.261 47.7853 111.617 45.5831 113.015 43.6262C115.421 40.3057 119.806 39.7206 123.275 38.0056ZM122.254 41.4045C120.009 42.3282 116.838 43.0922 115.311 45.1724C114.372 46.4508 114.076 47.9111 114.346 49.722C114.575 51.262 115.173 52.6801 116.122 54.0089C116.948 55.167 118.477 56.8544 120.097 56.5989C121.657 56.3186 122.346 54.3082 122.733 53.0103C123.616 50.0551 124.731 47.1571 125.867 44.2918C124.681 43.8289 123.021 42.3728 122.254 41.4045Z" fill="currentColor"/>
<path d="M128.857 42.4844C130.777 43.7574 135.246 40.0164 135.246 37.9904C138.211 40.703 141.45 43.2076 144.736 45.5112C145.846 46.3006 146.857 47.2254 147.571 48.3964C148.19 49.4301 148.459 50.5982 148.256 51.7924C147.78 54.4117 145.171 56.0631 142.831 56.8311C140.874 57.4634 138.808 57.6759 136.773 57.3344C134.437 56.9425 132.455 55.9228 131.027 53.9875C128.616 50.671 129.415 46.3158 128.857 42.4844ZM131.771 44.5061C131.955 46.9288 131.701 50.1832 133.206 52.28C134.131 53.5683 135.427 54.3018 137.231 54.6047C138.765 54.8621 140.297 54.7309 141.853 54.2386C143.209 53.8096 145.284 52.8762 145.542 51.2551C145.758 49.6831 144.061 48.4062 142.947 47.6363C140.412 45.8833 138.003 43.9257 135.631 41.9592C134.825 42.9446 132.928 44.0756 131.771 44.5061Z" fill="currentColor"/>
<path d="M134.838 38.5543C136.641 37.1203 134.468 31.7096 132.542 31.0838C136.036 29.0992 139.417 26.79 142.621 24.3737C143.714 23.5613 144.905 22.8846 146.239 22.5667C147.412 22.2973 148.605 22.4018 149.677 22.9643C152.019 24.227 152.782 27.2207 152.789 29.6853C152.785 31.7433 152.348 33.776 151.395 35.6073C150.301 37.7102 148.719 39.2822 146.439 40.0429C142.542 41.3136 138.651 39.2071 134.838 38.5543ZM137.66 36.4048C140.019 36.9784 143.033 38.2258 145.49 37.4414C147 36.9594 148.097 35.9524 148.942 34.3285C149.661 32.9476 150.01 31.4485 150.023 29.8155C150.034 28.3921 149.789 26.1279 148.328 25.3815C146.901 24.6902 145.163 25.9113 144.088 26.7335C141.639 28.6053 139.034 30.2934 136.433 31.9435C137.12 33.0154 137.608 35.1704 137.66 36.4048Z" fill="currentColor"/>
<path d="M132.952 31.6463C132.146 29.487 126.334 29.8841 125.144 31.5233C124.338 27.5842 123.188 23.6525 121.883 19.8554C121.448 18.5639 121.174 17.221 121.284 15.8535C121.39 14.6532 121.858 13.5498 122.724 12.7032C124.647 10.8643 127.728 11.0631 130.072 11.8183C132.026 12.4579 133.823 13.5017 135.268 14.975C136.928 16.6665 137.933 18.6578 137.951 21.0632C137.955 25.1653 134.75 28.2184 132.952 31.6463ZM131.781 28.2961C133.055 26.228 135.172 23.7444 135.186 21.163C135.194 19.5766 134.577 18.2208 133.295 16.9145C132.205 15.8036 130.888 15.0082 129.341 14.4912C127.992 14.0406 125.764 13.5746 124.604 14.7343C123.506 15.8792 124.129 17.9108 124.578 19.1889C125.6 22.0986 126.399 25.0996 127.163 28.0858C128.394 27.7629 130.593 27.9638 131.781 28.2961Z" fill="currentColor"/>
<path d="M125.805 31.3071C123.504 31.4068 122.086 37.0627 123.275 38.7018C119.283 38.2517 115.192 38.131 111.181 38.2006C109.82 38.2147 108.459 38.0615 107.193 37.5342C106.086 37.0619 105.182 36.2755 104.645 35.1896C103.492 32.7905 104.633 29.9197 106.075 27.9218C107.286 26.2592 108.833 24.8714 110.68 23.9507C112.8 22.8934 115.003 22.552 117.294 23.2779C121.193 24.5422 123.104 28.5359 125.805 31.3071ZM122.26 31.3862C120.689 29.5344 118.983 26.752 116.534 25.941C115.03 25.4427 113.55 25.6118 111.913 26.4282C110.521 27.1225 109.358 28.1301 108.389 29.4436C107.543 30.5884 106.412 32.5646 107.156 34.0278C107.904 35.4267 110.027 35.4612 111.38 35.4288C114.461 35.3553 117.559 35.5219 120.633 35.7175C120.707 34.4459 121.577 32.4152 122.26 31.3862Z" fill="currentColor"/>
<path d="M134.816 36.4018C134.816 33.2478 132.262 30.6912 129.111 30.6912C125.96 30.6912 123.406 33.2478 123.406 36.4018C123.406 39.5556 125.96 42.1122 129.111 42.1122V44.8802C124.433 44.8802 120.64 41.0843 120.64 36.4018C120.64 31.7192 124.433 27.9232 129.111 27.9232C133.789 27.9232 137.582 31.7192 137.582 36.4018C137.582 41.0843 133.789 44.8802 129.111 44.8802V42.1122C132.262 42.1122 134.816 39.5556 134.816 36.4018Z" fill="currentColor"/>
<path d="M73.715 83.9744H71.9335V72.6225C71.5047 73.0316 70.9405 73.4406 70.2411 73.8497C69.5484 74.2588 68.9248 74.5656 68.3706 74.7701V73.0481C69.3669 72.5796 70.2378 72.0122 70.9834 71.3458C71.729 70.6794 72.2568 70.0328 72.5669 69.406H73.715V83.9744Z" fill="currentColor"/>
<path d="M100.146 81.6288V77.6502H96.1971V75.9875H100.146V72.0386H101.829V75.9875H105.777V77.6502H101.829V81.6288H100.146Z" fill="currentColor"/>
<path d="M131.526 83.9744H129.745V72.6225C129.316 73.0316 128.752 73.4406 128.052 73.8497C127.359 74.2588 126.736 74.5656 126.182 74.7701V73.0481C127.178 72.5796 128.049 72.0122 128.794 71.3458C129.54 70.6794 130.068 70.0328 130.378 69.406H131.526V83.9744Z" fill="currentColor"/>
<path d="M163.588 75.4431H154.008V73.7804H163.588V75.4431ZM163.588 79.8473H154.008V78.1846H163.588V79.8473Z" fill="currentColor"/>
<path d="M215.986 60.8601H181.786V92.0886H215.986V60.8601Z" stroke="currentColor" stroke-width="1.47004" stroke-linejoin="round"/>
<path d="M65.1026 135.729C64.4864 137.95 69.4221 141.048 71.3472 140.422C69.686 144.083 68.3071 147.94 67.1336 151.78C66.7264 153.081 66.1602 154.329 65.2682 155.371C64.4771 156.279 63.4506 156.896 62.2528 157.072C59.6169 157.428 57.2417 155.455 55.7888 153.465C54.5834 151.798 53.7429 149.896 53.4385 147.854C53.0891 145.509 53.4454 143.307 54.8431 141.35C57.2494 138.029 61.6345 137.444 65.1026 135.729ZM64.0822 139.128C61.8371 140.052 58.6662 140.816 57.139 142.896C56.2004 144.174 55.9039 145.635 56.1737 147.446C56.4032 148.986 57.0014 150.404 57.9498 151.733C58.7766 152.891 60.3049 154.578 61.9247 154.323C63.4853 154.042 64.1741 152.032 64.5616 150.734C65.4436 147.779 66.5595 144.881 67.695 142.015C66.5096 141.552 64.8488 140.096 64.0822 139.128Z" fill="currentColor"/>
<path d="M70.6851 140.208C72.6047 141.481 77.0741 137.74 77.0739 135.714C80.0393 138.427 83.2781 140.931 86.5644 143.235C87.6741 144.024 88.6851 144.949 89.3993 146.12C90.0178 147.154 90.2873 148.322 90.0839 149.516C89.6078 152.135 86.999 153.787 84.6592 154.555C82.7026 155.187 80.636 155.399 78.6014 155.058C76.2652 154.666 74.2828 153.646 72.8554 151.711C70.4438 148.395 71.243 144.039 70.6851 140.208ZM73.5993 142.23C73.7832 144.652 73.5293 147.907 75.034 150.004C75.9586 151.292 77.2547 152.025 79.0587 152.328C80.5928 152.586 82.1252 152.455 83.6809 151.962C85.0368 151.533 87.1124 150.6 87.3703 148.979C87.5861 147.407 85.8888 146.13 84.7752 145.36C82.2398 143.607 79.831 141.649 77.4592 139.683C76.6529 140.668 74.7562 141.799 73.5993 142.23Z" fill="currentColor"/>
<path d="M76.6665 136.278C78.4691 134.844 76.2956 129.433 74.3706 128.807C77.8643 126.823 81.245 124.514 84.4494 122.097C85.5425 121.285 86.7336 120.608 88.0669 120.29C89.2403 120.021 90.4335 120.125 91.5053 120.688C93.8471 121.951 94.61 124.944 94.6169 127.409C94.613 129.467 94.1764 131.5 93.2231 133.331C92.1287 135.434 90.5473 137.006 88.2673 137.766C84.3706 139.037 80.4794 136.931 76.6665 136.278ZM79.4881 134.128C81.8469 134.702 84.8608 135.949 87.3179 135.165C88.828 134.683 89.9254 133.676 90.7706 132.052C91.4893 130.671 91.8382 129.172 91.8512 127.539C91.8625 126.116 91.6171 123.852 90.1564 123.105C88.7293 122.414 86.9914 123.635 85.9158 124.457C83.4667 126.329 80.8621 128.017 78.2608 129.667C78.948 130.739 79.4365 132.894 79.4881 134.128Z" fill="currentColor"/>
<path d="M74.7799 129.37C73.9745 127.211 68.1616 127.608 66.9721 129.247C66.166 125.308 65.0165 121.376 63.7108 117.579C63.2766 116.288 63.0017 114.945 63.1117 113.577C63.2183 112.377 63.6862 111.273 64.552 110.427C66.4754 108.588 69.5557 108.787 71.8997 109.542C73.8539 110.182 75.6506 111.225 77.0961 112.699C78.756 114.39 79.7611 116.381 79.7793 118.787C79.7826 122.889 76.5784 125.942 74.7799 129.37ZM73.6095 126.02C74.8835 123.952 77 121.468 77.014 118.887C77.0226 117.3 76.4048 115.944 75.1231 114.638C74.0331 113.527 72.7163 112.732 71.1688 112.215C69.8198 111.764 67.5925 111.298 66.4319 112.458C65.334 113.603 65.9573 115.634 66.4061 116.912C67.428 119.822 68.2271 122.823 68.9911 125.809C70.222 125.487 72.4207 125.687 73.6095 126.02Z" fill="currentColor"/>
<path d="M67.6332 129.031C65.3326 129.13 63.9136 134.786 65.1036 136.425C61.1115 135.975 57.0205 135.855 53.009 135.924C51.6477 135.938 50.2867 135.785 49.0213 135.258C47.9137 134.786 47.0099 133.999 46.473 132.913C45.32 130.514 46.4609 127.643 47.9027 125.645C49.1143 123.983 50.6614 122.595 52.5079 121.674C54.6282 120.617 56.8308 120.276 59.1221 121.001C63.0208 122.266 64.9317 126.259 67.6332 129.031ZM64.0881 129.11C62.5168 127.258 60.8109 124.476 58.3624 123.665C56.8577 123.166 55.3785 123.335 53.7411 124.152C52.3488 124.846 51.1861 125.854 50.2167 127.167C49.3716 128.312 48.2405 130.288 48.9839 131.751C49.7324 133.15 51.8555 133.185 53.2086 133.152C56.2891 133.079 59.3876 133.246 62.4612 133.441C62.5348 132.17 63.4051 130.139 64.0881 129.11Z" fill="currentColor"/>
<path d="M76.6445 134.126C76.6444 130.972 74.0901 128.415 70.9391 128.415C67.7882 128.415 65.2337 130.972 65.2337 134.126C65.2337 137.279 67.7882 139.836 70.9391 139.836V142.604C66.2608 142.604 62.4683 138.808 62.4683 134.126C62.4683 129.443 66.2608 125.647 70.9391 125.647C75.6174 125.647 79.4098 129.443 79.41 134.126C79.41 138.808 75.6174 142.604 70.9391 142.604V139.836C74.0901 139.836 76.6445 137.279 76.6445 134.126Z" fill="currentColor"/>
<path d="M123.275 135.729C122.658 137.95 127.594 141.048 129.519 140.422C127.858 144.083 126.479 147.94 125.305 151.78C124.898 153.081 124.332 154.329 123.44 155.371C122.649 156.279 121.622 156.896 120.425 157.072C117.789 157.428 115.414 155.455 113.961 153.465C112.755 151.798 111.915 149.896 111.61 147.854C111.261 145.509 111.617 143.307 113.015 141.35C115.421 138.029 119.806 137.444 123.275 135.729ZM122.254 139.128C120.009 140.052 116.838 140.816 115.311 142.896C114.372 144.174 114.076 145.635 114.346 147.446C114.575 148.986 115.173 150.404 116.122 151.733C116.948 152.891 118.477 154.578 120.097 154.323C121.657 154.042 122.346 152.032 122.733 150.734C123.616 147.779 124.731 144.881 125.867 142.015C124.681 141.552 123.021 140.096 122.254 139.128Z" fill="currentColor"/>
<path d="M128.857 140.208C130.777 141.481 135.246 137.74 135.246 135.714C138.211 138.427 141.45 140.931 144.736 143.235C145.846 144.024 146.857 144.949 147.571 146.12C148.19 147.154 148.459 148.322 148.256 149.516C147.78 152.135 145.171 153.787 142.831 154.555C140.874 155.187 138.808 155.399 136.773 155.058C134.437 154.666 132.455 153.646 131.027 151.711C128.616 148.395 129.415 144.039 128.857 140.208ZM131.771 142.23C131.955 144.652 131.701 147.907 133.206 150.004C134.131 151.292 135.427 152.025 137.231 152.328C138.765 152.586 140.297 152.455 141.853 151.962C143.209 151.533 145.284 150.6 145.542 148.979C145.758 147.407 144.061 146.13 142.947 145.36C140.412 143.607 138.003 141.649 135.631 139.683C134.825 140.668 132.928 141.799 131.771 142.23Z" fill="currentColor"/>
<path d="M134.838 136.278C136.641 134.844 134.468 129.433 132.542 128.807C136.036 126.823 139.417 124.514 142.621 122.097C143.714 121.285 144.905 120.608 146.239 120.29C147.412 120.021 148.605 120.125 149.677 120.688C152.019 121.951 152.782 124.944 152.789 127.409C152.785 129.467 152.348 131.5 151.395 133.331C150.301 135.434 148.719 137.006 146.439 137.766C142.542 139.037 138.651 136.931 134.838 136.278ZM137.66 134.128C140.019 134.702 143.033 135.949 145.49 135.165C147 134.683 148.097 133.676 148.942 132.052C149.661 130.671 150.01 129.172 150.023 127.539C150.034 126.116 149.789 123.852 148.328 123.105C146.901 122.414 145.163 123.635 144.088 124.457C141.639 126.329 139.034 128.017 136.433 129.667C137.12 130.739 137.608 132.894 137.66 134.128Z" fill="currentColor"/>
<path d="M132.952 129.37C132.146 127.211 126.334 127.608 125.144 129.247C124.338 125.308 123.188 121.376 121.883 117.579C121.448 116.288 121.174 114.945 121.284 113.577C121.39 112.377 121.858 111.273 122.724 110.427C124.647 108.588 127.728 108.787 130.072 109.542C132.026 110.182 133.823 111.225 135.268 112.699C136.928 114.39 137.933 116.381 137.951 118.787C137.955 122.889 134.75 125.942 132.952 129.37ZM131.781 126.02C133.055 123.952 135.172 121.468 135.186 118.887C135.194 117.3 134.577 115.944 133.295 114.638C132.205 113.527 130.888 112.732 129.341 112.215C127.992 111.764 125.764 111.298 124.604 112.458C123.506 113.603 124.129 115.634 124.578 116.912C125.6 119.822 126.399 122.823 127.163 125.809C128.394 125.487 130.593 125.687 131.781 126.02Z" fill="currentColor"/>
<path d="M125.805 129.031C123.504 129.13 122.086 134.786 123.275 136.425C119.283 135.975 115.192 135.855 111.181 135.924C109.82 135.938 108.459 135.785 107.193 135.258C106.086 134.786 105.182 133.999 104.645 132.913C103.492 130.514 104.633 127.643 106.075 125.645C107.286 123.983 108.833 122.595 110.68 121.674C112.8 120.617 115.003 120.276 117.294 121.001C121.193 122.266 123.104 126.259 125.805 129.031ZM122.26 129.11C120.689 127.258 118.983 124.476 116.534 123.665C115.03 123.166 113.55 123.335 111.913 124.152C110.521 124.846 109.358 125.854 108.389 127.167C107.543 128.312 106.412 130.288 107.156 131.751C107.904 133.15 110.027 133.185 111.38 133.152C114.461 133.079 117.559 133.246 120.633 133.441C120.707 132.17 121.577 130.139 122.26 129.11Z" fill="currentColor"/>
<path d="M134.816 134.125C134.816 130.971 132.262 128.415 129.111 128.415C125.96 128.415 123.406 130.971 123.406 134.125C123.406 137.279 125.96 139.836 129.111 139.836V142.604C124.433 142.604 120.64 138.808 120.64 134.125C120.64 129.443 124.433 125.647 129.111 125.647C133.789 125.647 137.582 129.443 137.582 134.125C137.582 138.808 133.789 142.604 129.111 142.604V139.836C132.262 139.836 134.816 137.279 134.816 134.125Z" fill="currentColor"/>
<path d="M73.715 181.698H71.9335V170.346C71.5047 170.755 70.9405 171.164 70.2411 171.573C69.5484 171.982 68.9248 172.289 68.3706 172.494V170.772C69.3669 170.303 70.2378 169.736 70.9834 169.069C71.729 168.403 72.2568 167.756 72.5669 167.13H73.715V181.698Z" fill="currentColor"/>
<path d="M100.146 179.352V175.374H96.1971V173.711H100.146V169.762H101.829V173.711H105.777V175.374H101.829V179.352H100.146Z" fill="currentColor"/>
<path d="M131.526 181.698H129.745V170.346C129.316 170.755 128.752 171.164 128.052 171.573C127.359 171.982 126.736 172.289 126.182 172.494V170.772C127.178 170.303 128.049 169.736 128.794 169.069C129.54 168.403 130.068 167.756 130.378 167.13H131.526V181.698Z" fill="currentColor"/>
<path d="M163.588 173.167H154.008V171.504H163.588V173.167ZM163.588 177.571H154.008V175.908H163.588V177.571Z" fill="currentColor"/>
<path d="M215.986 158.584H181.786V189.812H215.986V158.584Z" stroke="currentColor" stroke-width="1.47004" stroke-linejoin="round"/>
<path d="M65.1026 233.453C64.4864 235.674 69.4221 238.772 71.3472 238.146C69.686 241.807 68.3071 245.664 67.1336 249.504C66.7264 250.804 66.1602 252.053 65.2682 253.094C64.4771 254.003 63.4506 254.62 62.2528 254.795C59.6169 255.152 57.2417 253.179 55.7888 251.188C54.5834 249.521 53.7429 247.62 53.4385 245.578C53.0891 243.233 53.4454 241.03 54.8431 239.074C57.2494 235.753 61.6345 235.168 65.1026 233.453ZM64.0822 236.852C61.8371 237.775 58.6662 238.539 57.139 240.62C56.2004 241.898 55.9039 243.358 56.1737 245.169C56.4032 246.709 57.0014 248.127 57.9498 249.456C58.7766 250.614 60.3049 252.302 61.9247 252.046C63.4853 251.766 64.1741 249.756 64.5616 248.458C65.4436 245.502 66.5595 242.604 67.695 239.739C66.5096 239.276 64.8488 237.82 64.0822 236.852Z" fill="currentColor"/>
<path d="M70.6851 237.932C72.6047 239.205 77.0741 235.464 77.0739 233.438C80.0393 236.15 83.2781 238.655 86.5644 240.958C87.6741 241.748 88.6851 242.673 89.3993 243.844C90.0178 244.877 90.2873 246.045 90.0839 247.24C89.6078 249.859 86.999 251.51 84.6592 252.278C82.7026 252.911 80.636 253.123 78.6014 252.782C76.2652 252.39 74.2828 251.37 72.8554 249.435C70.4438 246.118 71.243 241.763 70.6851 237.932ZM73.5993 239.953C73.7832 242.376 73.5293 245.631 75.034 247.727C75.9586 249.016 77.2547 249.749 79.0587 250.052C80.5928 250.309 82.1252 250.178 83.6809 249.686C85.0368 249.257 87.1124 248.323 87.3703 246.702C87.5861 245.13 85.8888 243.853 84.7752 243.084C82.2398 241.331 79.831 239.373 77.4592 237.406C76.6529 238.392 74.7562 239.523 73.5993 239.953Z" fill="currentColor"/>
<path d="M76.6665 234.002C78.4691 232.568 76.2956 227.157 74.3706 226.531C77.8643 224.546 81.245 222.237 84.4494 219.821C85.5425 219.009 86.7336 218.332 88.0669 218.014C89.2403 217.745 90.4335 217.849 91.5053 218.412C93.8471 219.674 94.61 222.668 94.6169 225.133C94.613 227.191 94.1764 229.223 93.2231 231.055C92.1287 233.157 90.5473 234.729 88.2673 235.49C84.3706 236.761 80.4794 234.654 76.6665 234.002ZM79.4881 231.852C81.8469 232.426 84.8608 233.673 87.3179 232.889C88.828 232.407 89.9254 231.4 90.7706 229.776C91.4893 228.395 91.8382 226.896 91.8512 225.263C91.8625 223.839 91.6171 221.575 90.1564 220.829C88.7293 220.137 86.9914 221.359 85.9158 222.181C83.4667 224.053 80.8621 225.741 78.2608 227.391C78.948 228.463 79.4365 230.618 79.4881 231.852Z" fill="currentColor"/>
<path d="M74.7799 227.094C73.9745 224.934 68.1616 225.331 66.9721 226.971C66.166 223.031 65.0165 219.1 63.7108 215.303C63.2766 214.011 63.0017 212.668 63.1117 211.301C63.2183 210.1 63.6862 208.997 64.552 208.151C66.4754 206.312 69.5557 206.51 71.8997 207.266C73.8539 207.905 75.6506 208.949 77.0961 210.422C78.756 212.114 79.7611 214.105 79.7793 216.51C79.7826 220.613 76.5784 223.666 74.7799 227.094ZM73.6095 223.743C74.8835 221.675 77 219.192 77.014 216.61C77.0226 215.024 76.4048 213.668 75.1231 212.362C74.0331 211.251 72.7163 210.455 71.1688 209.938C69.8198 209.488 67.5925 209.022 66.4319 210.182C65.334 211.326 65.9573 213.358 66.4061 214.636C67.428 217.546 68.2271 220.547 68.9911 223.533C70.222 223.21 72.4207 223.411 73.6095 223.743Z" fill="currentColor"/>
<path d="M67.6332 226.754C65.3326 226.854 63.9136 232.51 65.1036 234.149C61.1115 233.699 57.0205 233.578 53.009 233.648C51.6477 233.662 50.2867 233.509 49.0213 232.982C47.9137 232.509 47.0099 231.723 46.473 230.637C45.32 228.238 46.4609 225.367 47.9027 223.369C49.1143 221.706 50.6614 220.319 52.5079 219.398C54.6282 218.341 56.8308 217.999 59.1221 218.725C63.0208 219.99 64.9317 223.983 67.6332 226.754ZM64.0881 226.833C62.5168 224.982 60.8109 222.199 58.3624 221.388C56.8577 220.89 55.3785 221.059 53.7411 221.875C52.3488 222.57 51.1861 223.577 50.2167 224.891C49.3716 226.036 48.2405 228.012 48.9839 229.475C49.7324 230.874 51.8555 230.908 53.2086 230.876C56.2891 230.803 59.3876 230.969 62.4612 231.165C62.5348 229.893 63.4051 227.862 64.0881 226.833Z" fill="currentColor"/>
<path d="M76.6445 231.849C76.6444 228.695 74.0901 226.139 70.9391 226.139C67.7882 226.139 65.2337 228.695 65.2337 231.849C65.2337 235.003 67.7882 237.56 70.9391 237.56V240.328C66.2608 240.328 62.4683 236.532 62.4683 231.849C62.4683 227.167 66.2608 223.371 70.9391 223.371C75.6174 223.371 79.4098 227.167 79.41 231.849C79.41 236.532 75.6174 240.328 70.9391 240.328V237.56C74.0901 237.56 76.6445 235.003 76.6445 231.849Z" fill="currentColor"/>
<path d="M123.275 233.453C122.658 235.674 127.594 238.772 129.519 238.146C127.858 241.807 126.479 245.664 125.305 249.504C124.898 250.804 124.332 252.053 123.44 253.094C122.649 254.003 121.622 254.62 120.425 254.795C117.789 255.152 115.414 253.179 113.961 251.188C112.755 249.521 111.915 247.62 111.61 245.578C111.261 243.233 111.617 241.03 113.015 239.074C115.421 235.753 119.806 235.168 123.275 233.453ZM122.254 236.852C120.009 237.775 116.838 238.539 115.311 240.62C114.372 241.898 114.076 243.358 114.346 245.169C114.575 246.709 115.173 248.127 116.122 249.456C116.948 250.614 118.477 252.302 120.097 252.046C121.657 251.766 122.346 249.756 122.733 248.458C123.616 245.502 124.731 242.604 125.867 239.739C124.681 239.276 123.021 237.82 122.254 236.852Z" fill="currentColor"/>
<path d="M128.857 237.932C130.777 239.205 135.246 235.464 135.246 233.438C138.211 236.15 141.45 238.655 144.736 240.958C145.846 241.748 146.857 242.673 147.571 243.844C148.19 244.877 148.459 246.045 148.256 247.24C147.78 249.859 145.171 251.51 142.831 252.278C140.874 252.911 138.808 253.123 136.773 252.782C134.437 252.39 132.455 251.37 131.027 249.435C128.616 246.118 129.415 241.763 128.857 237.932ZM131.771 239.953C131.955 242.376 131.701 245.631 133.206 247.727C134.131 249.016 135.427 249.749 137.231 250.052C138.765 250.309 140.297 250.178 141.853 249.686C143.209 249.257 145.284 248.323 145.542 246.702C145.758 245.13 144.061 243.853 142.947 243.084C140.412 241.331 138.003 239.373 135.631 237.406C134.825 238.392 132.928 239.523 131.771 239.953Z" fill="currentColor"/>
<path d="M134.838 234.002C136.641 232.568 134.468 227.157 132.542 226.531C136.036 224.546 139.417 222.237 142.621 219.821C143.714 219.009 144.905 218.332 146.239 218.014C147.412 217.745 148.605 217.849 149.677 218.412C152.019 219.674 152.782 222.668 152.789 225.133C152.785 227.191 152.348 229.223 151.395 231.055C150.301 233.157 148.719 234.729 146.439 235.49C142.542 236.761 138.651 234.654 134.838 234.002ZM137.66 231.852C140.019 232.426 143.033 233.673 145.49 232.889C147 232.407 148.097 231.4 148.942 229.776C149.661 228.395 150.01 226.896 150.023 225.263C150.034 223.839 149.789 221.575 148.328 220.829C146.901 220.137 145.163 221.359 144.088 222.181C141.639 224.053 139.034 225.741 136.433 227.391C137.12 228.463 137.608 230.618 137.66 231.852Z" fill="currentColor"/>
<path d="M132.952 227.094C132.146 224.934 126.334 225.331 125.144 226.971C124.338 223.031 123.188 219.1 121.883 215.303C121.448 214.011 121.174 212.668 121.284 211.301C121.39 210.1 121.858 208.997 122.724 208.151C124.647 206.312 127.728 206.51 130.072 207.266C132.026 207.905 133.823 208.949 135.268 210.422C136.928 212.114 137.933 214.105 137.951 216.51C137.955 220.613 134.75 223.666 132.952 227.094ZM131.781 223.743C133.055 221.675 135.172 219.192 135.186 216.61C135.194 215.024 134.577 213.668 133.295 212.362C132.205 211.251 130.888 210.455 129.341 209.938C127.992 209.488 125.764 209.022 124.604 210.182C123.506 211.326 124.129 213.358 124.578 214.636C125.6 217.546 126.399 220.547 127.163 223.533C128.394 223.21 130.593 223.411 131.781 223.743Z" fill="currentColor"/>
<path d="M125.805 226.754C123.504 226.854 122.086 232.51 123.275 234.149C119.283 233.699 115.192 233.578 111.181 233.648C109.82 233.662 108.459 233.509 107.193 232.982C106.086 232.509 105.182 231.723 104.645 230.637C103.492 228.238 104.633 225.367 106.075 223.369C107.286 221.706 108.833 220.319 110.68 219.398C112.8 218.341 115.003 217.999 117.294 218.725C121.193 219.99 123.104 223.983 125.805 226.754ZM122.26 226.833C120.689 224.982 118.983 222.199 116.534 221.388C115.03 220.89 113.55 221.059 111.913 221.875C110.521 222.57 109.358 223.577 108.389 224.891C107.543 226.036 106.412 228.012 107.156 229.475C107.904 230.874 110.027 230.908 111.38 230.876C114.461 230.803 117.559 230.969 120.633 231.165C120.707 229.893 121.577 227.862 122.26 226.833Z" fill="currentColor"/>
<path d="M134.816 231.849C134.816 228.695 132.262 226.138 129.111 226.138C125.96 226.138 123.406 228.695 123.406 231.849C123.406 235.003 125.96 237.559 129.111 237.559V240.327C124.433 240.327 120.64 236.532 120.64 231.849C120.64 227.166 124.433 223.37 129.111 223.37C133.789 223.37 137.582 227.166 137.582 231.849C137.582 236.532 133.789 240.327 129.111 240.327V237.559C132.262 237.559 134.816 235.003 134.816 231.849Z" fill="currentColor"/>
<path d="M73.715 279.422H71.9335V268.07C71.5047 268.479 70.9405 268.888 70.2411 269.297C69.5484 269.706 68.9248 270.013 68.3706 270.217V268.495C69.3669 268.027 70.2378 267.459 70.9834 266.793C71.729 266.127 72.2568 265.48 72.5669 264.853H73.715V279.422Z" fill="currentColor"/>
<path d="M100.146 277.076V273.097H96.1971V271.435H100.146V267.486H101.829V271.435H105.777V273.097H101.829V277.076H100.146Z" fill="currentColor"/>
<path d="M131.526 279.422H129.745V268.07C129.316 268.479 128.752 268.888 128.052 269.297C127.359 269.706 126.736 270.013 126.182 270.217V268.495C127.178 268.027 128.049 267.459 128.794 266.793C129.54 266.127 130.068 265.48 130.378 264.853H131.526V279.422Z" fill="currentColor"/>
<path d="M163.588 270.89H154.008V269.228H163.588V270.89ZM163.588 275.295H154.008V273.632H163.588V275.295Z" fill="currentColor"/>
<path d="M215.986 256.307H181.786V287.536H215.986V256.307Z" stroke="currentColor" stroke-width="1.47004" stroke-linejoin="round"/>
<path d="M65.1026 331.177C64.4864 333.397 69.4221 336.496 71.3472 335.869C69.686 339.531 68.3071 343.388 67.1336 347.228C66.7264 348.528 66.1602 349.776 65.2682 350.818C64.4771 351.726 63.4506 352.343 62.2528 352.519C59.6169 352.875 57.2417 350.902 55.7888 348.912C54.5834 347.245 53.7429 345.344 53.4385 343.301C53.0891 340.956 53.4454 338.754 54.8431 336.797C57.2494 333.477 61.6345 332.892 65.1026 331.177ZM64.0822 334.575C61.8371 335.499 58.6662 336.263 57.139 338.343C56.2004 339.622 55.9039 341.082 56.1737 342.893C56.4032 344.433 57.0014 345.851 57.9498 347.18C58.7766 348.338 60.3049 350.025 61.9247 349.77C63.4853 349.49 64.1741 347.479 64.5616 346.181C65.4436 343.226 66.5595 340.328 67.695 337.463C66.5096 337 64.8488 335.544 64.0822 334.575Z" fill="currentColor"/>
<path d="M70.6851 335.655C72.6047 336.928 77.0741 333.187 77.0739 331.161C80.0393 333.874 83.2781 336.378 86.5644 338.682C87.6741 339.472 88.6851 340.396 89.3993 341.567C90.0178 342.601 90.2873 343.769 90.0839 344.963C89.6078 347.583 86.999 349.234 84.6592 350.002C82.7026 350.634 80.636 350.847 78.6014 350.505C76.2652 350.113 74.2828 349.094 72.8554 347.158C70.4438 343.842 71.243 339.487 70.6851 335.655ZM73.5993 337.677C73.7832 340.1 73.5293 343.354 75.034 345.451C75.9586 346.739 77.2547 347.473 79.0587 347.776C80.5928 348.033 82.1252 347.902 83.6809 347.409C85.0368 346.98 87.1124 346.047 87.3703 344.426C87.5861 342.854 85.8888 341.577 84.7752 340.807C82.2398 339.054 79.831 337.097 77.4592 335.13C76.6529 336.115 74.7562 337.246 73.5993 337.677Z" fill="currentColor"/>
<path d="M76.6665 331.725C78.4691 330.291 76.2956 324.881 74.3706 324.255C77.8643 322.27 81.245 319.961 84.4494 317.545C85.5425 316.732 86.7336 316.056 88.0669 315.738C89.2403 315.468 90.4335 315.573 91.5053 316.135C93.8471 317.398 94.61 320.392 94.6169 322.856C94.613 324.914 94.1764 326.947 93.2231 328.778C92.1287 330.881 90.5473 332.453 88.2673 333.214C84.3706 334.485 80.4794 332.378 76.6665 331.725ZM79.4881 329.576C81.8469 330.149 84.8608 331.397 87.3179 330.612C88.828 330.13 89.9254 329.123 90.7706 327.499C91.4893 326.118 91.8382 324.619 91.8512 322.986C91.8625 321.563 91.6171 319.299 90.1564 318.552C88.7293 317.861 86.9914 319.082 85.9158 319.904C83.4667 321.776 80.8621 323.464 78.2608 325.114C78.948 326.186 79.4365 328.341 79.4881 329.576Z" fill="currentColor"/>
<path d="M74.7799 324.817C73.9745 322.658 68.1616 323.055 66.9721 324.694C66.166 320.755 65.0165 316.823 63.7108 313.026C63.2766 311.735 63.0017 310.392 63.1117 309.024C63.2183 307.824 63.6862 306.721 64.552 305.874C66.4754 304.035 69.5557 304.234 71.8997 304.989C73.8539 305.629 75.6506 306.673 77.0961 308.146C78.756 309.837 79.7611 311.829 79.7793 314.234C79.7826 318.336 76.5784 321.389 74.7799 324.817ZM73.6095 321.467C74.8835 319.399 77 316.915 77.014 314.334C77.0226 312.748 76.4048 311.392 75.1231 310.085C74.0331 308.974 72.7163 308.179 71.1688 307.662C69.8198 307.212 67.5925 306.745 66.4319 307.905C65.334 309.05 65.9573 311.082 66.4061 312.36C67.428 315.269 68.2271 318.27 68.9911 321.257C70.222 320.934 72.4207 321.135 73.6095 321.467Z" fill="currentColor"/>
<path d="M67.6332 324.478C65.3326 324.578 63.9136 330.234 65.1036 331.873C61.1115 331.423 57.0205 331.302 53.009 331.372C51.6477 331.386 50.2867 331.232 49.0213 330.705C47.9137 330.233 47.0099 329.446 46.473 328.361C45.32 325.961 46.4609 323.091 47.9027 321.093C49.1143 319.43 50.6614 318.042 52.5079 317.122C54.6282 316.064 56.8308 315.723 59.1221 316.449C63.0208 317.713 64.9317 321.707 67.6332 324.478ZM64.0881 324.557C62.5168 322.705 60.8109 319.923 58.3624 319.112C56.8577 318.614 55.3785 318.783 53.7411 319.599C52.3488 320.293 51.1861 321.301 50.2167 322.615C49.3716 323.759 48.2405 325.736 48.9839 327.199C49.7324 328.598 51.8555 328.632 53.2086 328.6C56.2891 328.526 59.3876 328.693 62.4612 328.888C62.5348 327.617 63.4051 325.586 64.0881 324.557Z" fill="currentColor"/>
<path d="M76.6445 329.573C76.6444 326.419 74.0901 323.862 70.9391 323.862C67.7882 323.862 65.2337 326.419 65.2337 329.573C65.2337 332.727 67.7882 335.283 70.9391 335.283V338.051C66.2608 338.051 62.4683 334.255 62.4683 329.573C62.4683 324.89 66.2608 321.094 70.9391 321.094C75.6174 321.094 79.4098 324.89 79.41 329.573C79.41 334.255 75.6174 338.051 70.9391 338.051V335.283C74.0901 335.283 76.6445 332.727 76.6445 329.573Z" fill="currentColor"/>
<path d="M123.275 331.177C122.658 333.397 127.594 336.496 129.519 335.869C127.858 339.531 126.479 343.388 125.305 347.228C124.898 348.528 124.332 349.776 123.44 350.818C122.649 351.726 121.622 352.343 120.425 352.519C117.789 352.875 115.414 350.902 113.961 348.912C112.755 347.245 111.915 345.344 111.61 343.301C111.261 340.956 111.617 338.754 113.015 336.797C115.421 333.477 119.806 332.892 123.275 331.177ZM122.254 334.575C120.009 335.499 116.838 336.263 115.311 338.343C114.372 339.622 114.076 341.082 114.346 342.893C114.575 344.433 115.173 345.851 116.122 347.18C116.948 348.338 118.477 350.025 120.097 349.77C121.657 349.49 122.346 347.479 122.733 346.181C123.616 343.226 124.731 340.328 125.867 337.463C124.681 337 123.021 335.544 122.254 334.575Z" fill="currentColor"/>
<path d="M128.857 335.655C130.777 336.928 135.246 333.187 135.246 331.161C138.211 333.874 141.45 336.378 144.736 338.682C145.846 339.472 146.857 340.396 147.571 341.567C148.19 342.601 148.459 343.769 148.256 344.963C147.78 347.583 145.171 349.234 142.831 350.002C140.874 350.634 138.808 350.847 136.773 350.505C134.437 350.113 132.455 349.094 131.027 347.158C128.616 343.842 129.415 339.487 128.857 335.655ZM131.771 337.677C131.955 340.1 131.701 343.354 133.206 345.451C134.131 346.739 135.427 347.473 137.231 347.776C138.765 348.033 140.297 347.902 141.853 347.409C143.209 346.98 145.284 346.047 145.542 344.426C145.758 342.854 144.061 341.577 142.947 340.807C140.412 339.054 138.003 337.097 135.631 335.13C134.825 336.115 132.928 337.246 131.771 337.677Z" fill="currentColor"/>
<path d="M134.838 331.725C136.641 330.291 134.468 324.881 132.542 324.255C136.036 322.27 139.417 319.961 142.621 317.545C143.714 316.732 144.905 316.056 146.239 315.738C147.412 315.468 148.605 315.573 149.677 316.135C152.019 317.398 152.782 320.392 152.789 322.856C152.785 324.914 152.348 326.947 151.395 328.778C150.301 330.881 148.719 332.453 146.439 333.214C142.542 334.485 138.651 332.378 134.838 331.725ZM137.66 329.576C140.019 330.149 143.033 331.397 145.49 330.612C147 330.13 148.097 329.123 148.942 327.499C149.661 326.118 150.01 324.619 150.023 322.986C150.034 321.563 149.789 319.299 148.328 318.552C146.901 317.861 145.163 319.082 144.088 319.904C141.639 321.776 139.034 323.464 136.433 325.114C137.12 326.186 137.608 328.341 137.66 329.576Z" fill="currentColor"/>
<path d="M132.952 324.817C132.146 322.658 126.334 323.055 125.144 324.694C124.338 320.755 123.188 316.823 121.883 313.026C121.448 311.735 121.174 310.392 121.284 309.024C121.39 307.824 121.858 306.721 122.724 305.874C124.647 304.035 127.728 304.234 130.072 304.989C132.026 305.629 133.823 306.673 135.268 308.146C136.928 309.837 137.933 311.829 137.951 314.234C137.955 318.336 134.75 321.389 132.952 324.817ZM131.781 321.467C133.055 319.399 135.172 316.915 135.186 314.334C135.194 312.748 134.577 311.392 133.295 310.085C132.205 308.974 130.888 308.179 129.341 307.662C127.992 307.212 125.764 306.745 124.604 307.905C123.506 309.05 124.129 311.082 124.578 312.36C125.6 315.269 126.399 318.27 127.163 321.257C128.394 320.934 130.593 321.135 131.781 321.467Z" fill="currentColor"/>
<path d="M125.805 324.478C123.504 324.578 122.086 330.234 123.275 331.873C119.283 331.423 115.192 331.302 111.181 331.372C109.82 331.386 108.459 331.232 107.193 330.705C106.086 330.233 105.182 329.446 104.645 328.361C103.492 325.961 104.633 323.091 106.075 321.093C107.286 319.43 108.833 318.042 110.68 317.122C112.8 316.064 115.003 315.723 117.294 316.449C121.193 317.713 123.104 321.707 125.805 324.478ZM122.26 324.557C120.689 322.705 118.983 319.923 116.534 319.112C115.03 318.614 113.55 318.783 111.913 319.599C110.521 320.293 109.358 321.301 108.389 322.615C107.543 323.759 106.412 325.736 107.156 327.199C107.904 328.598 110.027 328.632 111.38 328.6C114.461 328.526 117.559 328.693 120.633 328.888C120.707 327.617 121.577 325.586 122.26 324.557Z" fill="currentColor"/>
<path d="M134.816 329.573C134.816 326.419 132.262 323.862 129.111 323.862C125.96 323.862 123.406 326.419 123.406 329.573C123.406 332.726 125.96 335.283 129.111 335.283V338.051C124.433 338.051 120.64 334.255 120.64 329.573C120.64 324.89 124.433 321.094 129.111 321.094C133.789 321.094 137.582 324.89 137.582 329.573C137.582 334.255 133.789 338.051 129.111 338.051V335.283C132.262 335.283 134.816 332.726 134.816 329.573Z" fill="currentColor"/>
<path d="M73.715 377.145H71.9335V365.793C71.5047 366.202 70.9405 366.612 70.2411 367.021C69.5484 367.43 68.9248 367.736 68.3706 367.941V366.219C69.3669 365.75 70.2378 365.183 70.9834 364.517C71.729 363.85 72.2568 363.204 72.5669 362.577H73.715V377.145Z" fill="currentColor"/>
<path d="M100.146 374.8V370.821H96.1971V369.158H100.146V365.209H101.829V369.158H105.777V370.821H101.829V374.8H100.146Z" fill="currentColor"/>
<path d="M131.526 377.145H129.745V365.793C129.316 366.202 128.752 366.612 128.052 367.021C127.359 367.43 126.736 367.736 126.182 367.941V366.219C127.178 365.75 128.049 365.183 128.794 364.517C129.54 363.85 130.068 363.204 130.378 362.577H131.526V377.145Z" fill="currentColor"/>
<path d="M163.588 368.614H154.008V366.951H163.588V368.614ZM163.588 373.018H154.008V371.356H163.588V373.018Z" fill="currentColor"/>
<path d="M215.986 354.031H181.786V385.26H215.986V354.031Z" stroke="currentColor" stroke-width="1.47004" stroke-linejoin="round"/>
</svg>
