<?xml version="1.0" encoding="UTF-8"?>
<svg id="Layer_2" xmlns="http://www.w3.org/2000/svg" version="1.1" viewBox="0 0 453.54 170.08">
  <!-- Generator: Adobe Illustrator 29.7.1, SVG Export Plug-In . SVG Version: 2.1.1 Build 8)  -->
  <defs>
    <style>
      .st0 {
        fill: #231f20;
      }
    </style>
  </defs>
  <path class="st0" d="M214.92,89.42c6.67-4.08,10.42-11.17,9.33-19.08-1.08-7.92-4.67-12.33-15.33-14.25-10.17.08-42.67,0-42.67,0v2.67c2.25.17,7,1.67,7.08,8.25s0,20.67,0,20.67h-12.42l-10.58-31.42h-11.75s-16.48,49.44-17.17,51.5c-3.83,11.5-20.36,15.73-25.17,1.75-4.67-13.58-6.17-50.17,12.33-49.75,8.75,2.42,10.92,2.58,15.17,9h2.67l-2.08-13.58s-18.75-.42-21.33-.5c-2.58-.08-18.17,0-25.58,18.5-6.75,18.83-.5,48.33,21.25,51.33,2.92.17,9.42.5,13.5-1.58h18.25s.08-1.33.08-2.67c-2.67-.17-6.58.5-5.17-6.42l6.33-19.58h14.42s5.75,19.83,6.08,21.33c-.17,2.08-.17,4.58-3,4.67h-3.5l-.08,2.67s62.33.07,64.33,0c7.75.17,16.83-6.5,16.75-17.83-.04-5-1.58-14.67-11.75-15.67ZM133.75,87.62l5.38-16.62,5.38,16.62h-10.75ZM189.19,62.12l10.56.19c8-.31,6.69,12.31,6.31,18.25s-5.69,6.81-8.12,7.25h-8.75v-25.69ZM173.25,113.81c-.19,1.5-.38,4.19-1.62,4.19s-1.44-1.56-1.88-2.69c-.25-.69-6.5-21.06-6.5-21.06h10v19.56ZM181.61,114h-1.93v-21.66h-8.15v-2.12h8.15v-12.39h1.93v12.39h8.15v2.12h-8.15v21.66ZM208.12,105.81c-.19,7.06-1.94,10.12-3.62,10.88-1.69.75-8.75.62-11.31.62s-3.75-3.94-4.06-5.06v-18s5.31,0,10.94.06,8.25,4.44,8.06,11.5Z"/>
  <path class="st0" d="M368.29,117.1c-2.6,1.51-14.9,1.59-19.51,1.42-4.61-.17-4.44-3.35-5.02-6.11v-45.21c0-7.7,4.86-8.21,6.62-8.37,0-1.59-.15-2.64-.15-2.64h-29.22l.15,2.55c7.47.74,6.14,8.17,6.53,9.71,0,.72.08,42.12.08,42.12,0,0,.35,8.9-5.36,9.63-7.37.95-9.07-8.21-10.07-10.55-1-2.34-18.21-53.46-18.21-53.46h-11.81l-17.09,51.2c-1.76,4.35-3.01,8.29-9.13,10.97-5.01,2.2-6.7-.17-7.37-1.51-.67-1.34-.87-6.2-.87-6.2V45.77s99.58-.05,107.12,0c7.98.06,11.72,2.84,13.9,4.76,2.18,1.93,7.87,7.87,9.21,9.88l3.26-1.74-14.77-23.29H92.16l-14.92,23.26,3.18,1.76c5.44-5.8,10.24-13.64,20.43-14.64h130.95v67.14c-.67,8.29-6.61,7.29-6.61,7.29v2.74h48.98v-2.58c-6.28.08-5.53-3.1-5.11-6.2.17-1.27,6.31-19.82,6.31-19.82l14.71-.03s4.19,15.74,5.36,20.01c1.17,4.27-.42,5.02-1.34,5.53-.92.5-4.52.5-4.52.5v2.58h89.84l1.84-25.77h-2.43c-.92,7.95-7.79,19.17-10.55,19.93ZM277.44,87.79l5.27-16.9,5.53,16.9h-10.8Z"/>
</svg>