<svg width="76" height="49" viewBox="0 0 76 49" fill="none" xmlns="http://www.w3.org/2000/svg">
<rect x="1" y="0.519989" width="74" height="47" fill="#E48C84"/>
<rect x="1" y="0.519989" width="74" height="47" stroke="black" stroke-dasharray="8 2"/>
<path opacity="0.5" d="M55.1641 42.01V33.4201H57.8066C58.3418 33.4201 58.7656 33.5041 59.0781 33.6721C59.3906 33.8362 59.6465 34.094 59.8457 34.4455C60.0449 34.7971 60.1445 35.1858 60.1445 35.6115C60.1445 36.0061 60.0586 36.3615 59.8867 36.6779C59.7148 36.9944 59.4727 37.2483 59.1602 37.4397C59.5703 37.5881 59.8926 37.842 60.127 38.2014C60.3652 38.5569 60.4844 38.9963 60.4844 39.5197C60.4844 40.0393 60.377 40.4963 60.1621 40.8908C59.9512 41.2815 59.668 41.5666 59.3125 41.7463C58.957 41.9221 58.4688 42.01 57.8477 42.01H55.1641ZM56.0957 37.0295H57.6191C58.0176 37.0295 58.3008 37.0022 58.4688 36.9475C58.7109 36.8654 58.8965 36.7287 59.0254 36.5373C59.1582 36.342 59.2246 36.0783 59.2246 35.7463C59.2246 35.4377 59.1641 35.1819 59.043 34.9787C58.9258 34.7717 58.7676 34.6291 58.5684 34.551C58.373 34.4729 58.0195 34.4338 57.5078 34.4338H56.0957V37.0295ZM56.0957 40.9963H57.8477C58.2344 40.9963 58.5195 40.9612 58.7031 40.8908C58.9688 40.7893 59.1699 40.6233 59.3066 40.3928C59.4473 40.1584 59.5176 39.8654 59.5176 39.5139C59.5176 39.1897 59.4512 38.9162 59.3184 38.6936C59.1855 38.467 59.0059 38.3029 58.7793 38.2014C58.5566 38.0959 58.2051 38.0432 57.7246 38.0432H56.0957V40.9963ZM61.7266 42.01V33.4201H64.3691C64.9043 33.4201 65.3281 33.5041 65.6406 33.6721C65.9531 33.8362 66.209 34.094 66.4082 34.4455C66.6074 34.7971 66.707 35.1858 66.707 35.6115C66.707 36.0061 66.6211 36.3615 66.4492 36.6779C66.2773 36.9944 66.0352 37.2483 65.7227 37.4397C66.1328 37.5881 66.4551 37.842 66.6895 38.2014C66.9277 38.5569 67.0469 38.9963 67.0469 39.5197C67.0469 40.0393 66.9395 40.4963 66.7246 40.8908C66.5137 41.2815 66.2305 41.5666 65.875 41.7463C65.5195 41.9221 65.0312 42.01 64.4102 42.01H61.7266ZM62.6582 37.0295H64.1816C64.5801 37.0295 64.8633 37.0022 65.0312 36.9475C65.2734 36.8654 65.459 36.7287 65.5879 36.5373C65.7207 36.342 65.7871 36.0783 65.7871 35.7463C65.7871 35.4377 65.7266 35.1819 65.6055 34.9787C65.4883 34.7717 65.3301 34.6291 65.1309 34.551C64.9355 34.4729 64.582 34.4338 64.0703 34.4338H62.6582V37.0295ZM62.6582 40.9963H64.4102C64.7969 40.9963 65.082 40.9612 65.2656 40.8908C65.5312 40.7893 65.7324 40.6233 65.8691 40.3928C66.0098 40.1584 66.0801 39.8654 66.0801 39.5139C66.0801 39.1897 66.0137 38.9162 65.8809 38.6936C65.748 38.467 65.5684 38.3029 65.3418 38.2014C65.1191 38.0959 64.7676 38.0432 64.2871 38.0432H62.6582V40.9963Z" fill="black"/>
</svg>
