<svg width="210" height="297" viewBox="0 0 210 297" fill="none" xmlns="http://www.w3.org/2000/svg">
<rect width="210" height="297" fill="black"/>
<path d="M107.071 90.909C137.786 90.909 162.776 112.438 162.776 138.901C162.776 165.362 137.786 186.894 107.071 186.894L103.775 186.908C101.588 186.908 100.158 186.839 97.9216 186.435L93.4632 185.667L90.6024 189.843C89.2874 191.76 82.5769 198.409 75.1702 202.69C76.6762 197.886 77.7863 192.641 77.8858 187.453L77.9256 187.167V180.475L73.5905 177.804C59.4654 169.088 51.3663 154.912 51.3663 138.901C51.3663 112.438 76.3559 90.909 107.071 90.909ZM107.071 81.3107C71.9074 81.3107 43.4084 107.097 43.4084 138.901C43.4084 158.708 53.1389 175.968 69.9657 186.344C69.9657 186.467 69.9339 186.555 69.9339 186.692C69.9339 195.297 65.9351 204.759 63.5915 209.63H63.5975C63.4125 210.153 63.303 210.727 63.303 211.341C63.303 213.753 64.9145 215.689 66.9099 215.689C67.2103 215.689 67.6878 215.615 67.8629 215.615C67.9047 215.615 67.9285 215.615 67.9245 215.629C80.3587 213.179 94.0302 199.929 96.7498 195.931C99.545 196.432 101.433 196.507 103.773 196.507C104.759 196.507 105.824 196.492 107.071 196.492C142.229 196.492 170.734 170.711 170.734 138.901C170.734 107.097 142.229 81.3105 107.071 81.3107Z" fill="white"/>
</svg>
