<svg width="297" height="210" viewBox="0 0 297 210" fill="none" xmlns="http://www.w3.org/2000/svg">
<rect width="297" height="210" fill="black"/>
<path d="M151.79 37.4718C195.23 37.4718 230.572 62.7161 230.572 93.7452C230.572 124.771 195.23 150.018 151.79 150.018L147.128 150.035C144.035 150.035 142.012 149.954 138.85 149.481L132.544 148.58L128.498 153.476C126.639 155.724 117.148 163.521 106.673 168.541C108.803 162.908 110.373 156.757 110.513 150.674L110.57 150.339V142.492L104.439 139.36C84.4618 129.141 73.0073 112.518 73.0073 93.745C73.0073 62.7159 108.35 37.4718 151.79 37.4718ZM151.79 26.2173C102.058 26.2173 61.7527 56.4527 61.7527 93.745C61.7527 116.969 75.5143 137.208 99.3123 149.374C99.3123 149.517 99.2673 149.622 99.2673 149.782C99.2673 159.872 93.6118 170.966 90.2973 176.678H90.3057C90.0441 177.291 89.8893 177.964 89.8893 178.684C89.8893 181.512 92.1684 183.783 94.9905 183.783C95.4153 183.783 96.0906 183.695 96.3382 183.695C96.3973 183.695 96.4311 183.695 96.4255 183.712C114.011 180.839 133.346 165.302 137.193 160.615C141.146 161.203 143.816 161.29 147.125 161.29C148.52 161.29 150.026 161.273 151.79 161.273C201.513 161.273 241.827 131.043 241.827 93.7452C241.827 56.4529 201.513 26.2171 151.79 26.2173Z" fill="white"/>
</svg>
