<?xml version="1.0" encoding="UTF-8" standalone="no"?>
<!-- Created with Inkscape (http://www.inkscape.org/) -->

<svg
   version="1.1"
   id="svg1"
   width="1006.8267"
   height="531.76001"
   viewBox="0 0 1006.8267 531.76001"
   sodipodi:docname="2017 Pioneer Bible logo_COLOR.eps"
   xmlns:inkscape="http://www.inkscape.org/namespaces/inkscape"
   xmlns:sodipodi="http://sodipodi.sourceforge.net/DTD/sodipodi-0.dtd"
   xmlns="http://www.w3.org/2000/svg"
   xmlns:svg="http://www.w3.org/2000/svg">
  <defs
     id="defs1" />
  <sodipodi:namedview
     id="namedview1"
     pagecolor="#ffffff"
     bordercolor="#000000"
     borderopacity="0.25"
     inkscape:showpageshadow="2"
     inkscape:pageopacity="0.0"
     inkscape:pagecheckerboard="0"
     inkscape:deskcolor="#d1d1d1">
    <inkscape:page
       x="0"
       y="0"
       inkscape:label="1"
       id="page1"
       width="1006.8267"
       height="531.76001"
       margin="0"
       bleed="0" />
  </sodipodi:namedview>
  <g
     id="g1"
     inkscape:groupmode="layer"
     inkscape:label="1">
    <g
       id="group-R5">
      <path
         id="path2"
         d="m 7523.37,1414.17 c -285.96,-69.32 -605.18,-102.64 -1004.57,-104.85 -402.12,-2.09 -731.91,3.17 -1037.75,16.62 -35.54,1.59 -71.11,3.21 -106.69,4.87 -308.94,14.18 -628.38,28.84 -943.59,4.06 -121.14,-9.49 -234.66,-51.19 -344.44,-91.52 -77.71,-28.54 -151.11,-55.51 -224.45,-70.53 -12.6,-2.57 -24.4,-3.92 -36.14,-4.54 -6.79,-0.25 -13.52,-0.34 -20.22,-0.36 -16.08,0.23 -32.77,1.49 -51.95,2.98 -9.19,0.73 -18.89,1.43 -28.85,2.09 -93.71,11.91 -180.01,43 -270.02,75.51 -104.3,37.66 -212.16,76.6 -336.43,86.37 -315.04,24.78 -634.22,10.12 -942.87,-4.06 -35.53,-1.66 -71.02,-3.28 -106.52,-4.87 -305.81,-13.45 -635.39,-18.71 -1037.09,-16.62 -399.075,2.21 -718.118,35.53 -1003.997,104.85 L 0,1295.03 c 295.012,-71.55 622.668,-105.9 1031.14,-108.17 403.74,-2.09 735.14,3.19 1042.95,16.74 35.56,1.58 71.12,3.22 106.7,4.84 305.09,14.05 620.54,28.54 928.26,4.34 108.4,-8.52 204.14,-43.11 305.53,-79.71 91.27,-32.97 184.8,-66.66 289.01,-80.76 l -0.04,-0.66 c 3.68,-0.2 7.1,-0.45 10.64,-0.68 28.9,-3.51 58.58,-5.57 89.33,-5.57 1.09,0 2.21,0.06 3.31,0.06 1.24,-0.01 2.45,-0.06 3.69,-0.06 6.56,0 13.23,0.19 19.98,0.51 0.46,0.02 0.9,0.01 1.36,0.03 v 0.07 c 16.95,0.88 34.59,2.86 53.61,6.73 82.12,16.84 163.17,46.6 241.57,75.39 102.27,37.56 208.02,76.41 312.96,84.65 307.89,24.22 623.61,9.71 928.95,-4.32 35.65,-1.64 71.27,-3.28 106.9,-4.86 307.85,-13.55 639.46,-18.83 1043.59,-16.74 408.78,2.27 736.6,36.62 1031.71,108.17 l -27.78,119.14"
         style="fill:#f1491c;fill-opacity:1;fill-rule:nonzero;stroke:none"
         transform="matrix(0.13333333,0,0,-0.13333333,0,531.76)" />
      <path
         id="path3"
         d="m 1770.4,1947.15 c 347.34,-28.41 594.33,-53.12 852.31,-134.21 223.77,-70.32 378.2,-134.16 529.58,-198.81 l 11.62,28.24 c -152.11,64.94 -307.29,129.1 -532.35,199.84 -260.93,81.98 -509.43,106.88 -858.76,135.45 -251.76,20.63 -492.41,41.72 -669.34,72.99 -377.569,66.72 -564.214,193.85 -566.065,195.14 l -16.899,-25.31 c 7.707,-5.35 193.137,-132.01 577.824,-200.01 162.2,-28.65 361.35,-47.89 672.08,-73.32"
         style="fill:#f1491c;fill-opacity:1;fill-rule:nonzero;stroke:none"
         transform="matrix(0.13333333,0,0,-0.13333333,0,531.76)" />
      <path
         id="path4"
         d="m 4267.33,1406.82 c 461.8,189.32 860.62,352.87 1368.58,315.65 124.74,-9.12 259.78,-29.1 402.73,-50.26 433.01,-64.08 923.79,-136.72 1290.33,82.31 l -35.43,61.62 c -345.36,-206.33 -823.21,-135.63 -1244.83,-73.24 -144.24,21.34 -280.5,41.5 -407.78,50.84 -524.13,38.32 -929.89,-128.01 -1399.74,-320.63 -40.02,-16.4 -80.44,-32.97 -121.36,-49.57 l 25.93,-66.39 c 40.98,16.65 81.48,33.25 121.57,49.67"
         style="fill:#f1491c;fill-opacity:1;fill-rule:nonzero;stroke:none"
         transform="matrix(0.13333333,0,0,-0.13333333,0,531.76)" />
      <path
         id="path5"
         d="m 1472.48,1672.21 c 142.97,21.16 278,41.14 402.73,50.26 507.96,37.13 906.81,-126.33 1368.61,-315.65 40.1,-16.44 80.57,-33.02 121.55,-49.67 l 25.92,66.39 c -40.91,16.6 -81.31,33.17 -121.34,49.57 -469.84,192.62 -875.58,358.95 -1399.74,320.63 -127.28,-9.34 -263.54,-29.5 -407.8,-50.84 -421.6,-62.39 -899.461,-133.11 -1244.832,73.24 l -35.422,-61.62 c 366.543,-219.01 857.324,-146.41 1290.324,-82.31"
         style="fill:#f1491c;fill-opacity:1;fill-rule:nonzero;stroke:none"
         transform="matrix(0.13333333,0,0,-0.13333333,0,531.76)" />
      <path
         id="path6"
         d="m 1532.81,3461.95 c 0,78.06 -17.87,144.77 -53.54,199.94 -35.73,54.96 -90.4,98.44 -164.16,130.39 -45.5,19.68 -94.89,32.22 -148.09,37.03 -53.19,5.01 -107.84,7.47 -164.07,7.47 -6.864,0 -13.665,0 -20.587,0 -6.777,0 -14.062,0 -21.609,0 0,-8.41 -0.742,-65.4 -2.277,-170.97 -1.465,-105.64 -2.215,-189.09 -2.215,-250.67 0,-56.2 0.078,-122.84 0.562,-199.45 0.254,-76.78 0.539,-120.4 0.539,-131.01 6.875,0 14.746,0 23.907,0 9.14,0 16.335,0 21.68,0 50.91,0 104.99,3.55 162.33,10.27 57.36,6.84 106.54,19.46 147.6,37.54 71.41,30.35 125.86,72.46 163.55,126.42 37.53,53.93 56.38,121.59 56.38,203.04 z m 193.73,0 c 0,-111.14 -35.9,-211.33 -107.57,-300.9 -71.62,-89.75 -167.4,-150.43 -287.24,-182.3 -51.52,-13.65 -107.91,-23.7 -169,-29.72 -61.02,-6.09 -129.1,-9.14 -204.253,-9.14 l 2.277,-481.93 H 772.773 c 0.774,45.5 1.875,129.94 3.387,253.57 1.469,123.29 2.297,314.2 2.297,572.7 0,81.9 -0.352,182.52 -1.172,301.8 -0.762,119.26 -2.219,251.76 -4.512,397.62 32.559,0.8 64.7,1.31 96.145,1.31 31.512,0 57,0 76.824,0 131.238,0 242.968,-8.42 335.238,-25.12 92.12,-16.76 169.68,-45.3 232.71,-85.51 69.05,-43.21 121.76,-99.69 158.19,-169.24 36.37,-69.48 54.66,-150.56 54.66,-243.14"
         style="fill:#231f20;fill-opacity:1;fill-rule:nonzero;stroke:none"
         transform="matrix(0.13333333,0,0,-0.13333333,0,531.76)" />
      <path
         id="path7"
         d="m 1998.81,3792.21 h -200.59 v 195.95 h 200.59 v -195.95"
         style="fill:#231f20;fill-opacity:1;fill-rule:nonzero;stroke:none"
         transform="matrix(0.13333333,0,0,-0.13333333,0,531.76)" />
      <path
         id="path8"
         d="m 1988.5,2457.96 h -180.01 c 0.76,12.05 1.67,86.91 2.83,224.54 1.11,137.3 1.66,251.02 1.66,340.59 0,78.3 -0.2,164.25 -0.55,258.18 -0.41,93.71 -1.64,203.7 -3.94,329.86 h 180.01 c -1.55,-109.4 -2.86,-211.84 -3.97,-307.02 -1.17,-95.5 -1.73,-180.36 -1.73,-254.9 0,-176.99 0.9,-318.96 2.84,-425.93 1.88,-107.41 2.86,-162.35 2.86,-165.32"
         style="fill:#231f20;fill-opacity:1;fill-rule:nonzero;stroke:none"
         transform="matrix(0.13333333,0,0,-0.13333333,0,531.76)" />
      <path
         id="path9"
         d="m 2999.05,3026.42 c 0,71.5 -11.56,141.03 -34.76,208.67 -23.23,67.61 -59.02,124.58 -107.65,170.98 -29.65,28.8 -64.82,51.02 -105.34,66.56 -40.81,15.61 -83.04,23.38 -127.09,23.38 -52.4,0 -97.98,-8.49 -136.77,-24.98 -38.73,-16.94 -75.25,-43.05 -109.38,-78.67 -40.33,-41.06 -72.04,-93.45 -95.2,-157.27 -23.2,-63.75 -34.76,-129.83 -34.76,-198.27 0,-77.53 11.84,-148.74 35.38,-213.63 23.51,-64.97 61.53,-121.15 113.89,-168.11 29.67,-26.72 63.89,-46.89 102.6,-61.1 38.71,-13.91 79.78,-20.92 123.07,-20.92 47.85,0 92.44,8.18 133.86,24.95 41.44,16.62 77.72,41 108.89,72.93 43.28,44.07 76.34,97.31 99.03,159.52 22.86,62.32 34.23,127.57 34.23,195.96 z m 182.31,8.18 c 0,-88.21 -15.78,-172.55 -47.19,-253.06 -31.65,-80.54 -77.01,-149.17 -136.21,-206.32 -50.17,-47.73 -105.86,-84.3 -166.94,-109.43 -61.23,-24.89 -130.5,-37.48 -207.98,-37.48 -72.85,0 -141.28,12.25 -205.09,37.06 -63.86,24.58 -120.79,60.87 -170.97,108.75 -57.74,55.47 -102.35,123.83 -133.87,205.07 -31.6,81.46 -47.32,167.2 -47.32,257.63 0,87.36 13.45,167.69 40.53,241 26.87,73.33 68.87,139.12 125.85,197.8 50.91,53.05 110.21,93.93 177.74,122.47 67.69,28.45 139.09,42.68 214.3,42.68 78.95,0 150.57,-13.08 214.72,-39.36 64.19,-26.12 121.4,-65.48 171.55,-117.91 57.76,-60.02 100.64,-127.47 128.69,-202.23 28.2,-74.93 42.19,-157.09 42.19,-246.67"
         style="fill:#231f20;fill-opacity:1;fill-rule:nonzero;stroke:none"
         transform="matrix(0.13333333,0,0,-0.13333333,0,531.76)" />
      <path
         id="path10"
         d="m 4213.77,2457.96 h -180.09 c 0.76,21.25 1.72,91.43 2.9,210.76 1.18,119.13 1.74,192.9 1.74,221.01 0,39.48 -0.3,97.82 -0.56,175.06 -0.41,77.05 -1.04,133.36 -1.72,169.21 -2.36,87.27 -19.04,149.98 -50.15,187.96 -31.17,38.05 -85.2,56.99 -161.8,56.99 -46.34,0 -103.76,-13.64 -172.13,-41.02 -68.37,-27.39 -137.49,-62.24 -207.37,-104.82 0,-8.35 -0.34,-53.43 -1.11,-135.48 -0.82,-82.05 -1.11,-157.02 -1.11,-224.55 0,-88.25 0.83,-194.58 2.85,-319.17 1.8,-124.62 2.84,-190 2.84,-195.95 h -180.09 c 0,5.27 0.77,51.67 2.27,139.58 1.55,87.67 2.24,218.23 2.24,391.32 0,79.86 -0.15,173.26 -0.51,280.34 -0.41,107.24 -1.73,221.07 -4,341.93 h 177.8 l -1.18,-131.03 1.18,-2.4 c 106.32,60.76 195.05,103.17 266.11,127.2 70.92,23.89 130.01,35.87 177.09,35.87 97.26,0 175.33,-30.56 234.21,-91.77 58.86,-61.07 88.37,-144.95 88.37,-251.18 0,-95.68 -0.56,-178.37 -1.87,-247.93 -1.05,-69.41 -1.6,-125.78 -1.6,-169.27 0,-69.14 0.9,-155.38 2.91,-259.21 1.87,-103.61 2.78,-158.18 2.78,-163.45"
         style="fill:#231f20;fill-opacity:1;fill-rule:nonzero;stroke:none"
         transform="matrix(0.13333333,0,0,-0.13333333,0,531.76)" />
      <path
         id="path11"
         d="m 5118.6,3204.29 c -12.12,94.17 -44.24,168.17 -96.33,221.65 -51.96,53.57 -120.6,80.31 -205.59,80.31 -85.11,0 -156.1,-27.18 -213.12,-81.39 -57,-54.37 -96.4,-127.91 -118.57,-220.57 z m 176.61,-127.65 h -823.86 c 0.74,-80.56 17.94,-154.41 51.31,-221.52 33.4,-67.39 84.71,-123.02 153.84,-167.07 43.97,-27.99 94.26,-49.19 150.43,-63.17 56.18,-14.07 123.78,-21.05 202.8,-21.05 43.32,0 82.98,1.17 119.14,3.26 35.94,2.41 58.27,3.8 66.63,4.57 l -20.56,-151.42 c -6.03,-0.82 -26.18,-2.28 -60.34,-4.02 -34.22,-1.94 -74.45,-2.83 -120.78,-2.83 -121.65,0 -227.34,15.79 -317.43,47.16 -89.93,31.64 -163.82,75.09 -221.59,130.57 -49.46,46.4 -91.41,105.62 -125.84,177.8 -34.7,72.1 -51.88,152.23 -51.88,240.29 0,86.67 12.88,164.9 38.63,235.02 25.85,69.7 64.63,134.68 116.24,194.72 44.89,51.69 100.55,91.48 166.97,119.63 66.44,28.11 135.43,42.19 206.83,42.19 70.73,0 133.27,-10.67 188.07,-31.87 54.65,-21.26 102.09,-53.72 142.39,-96.92 44.89,-48.7 78.96,-108.37 102.58,-179.48 23.55,-71 35.67,-156.43 36.42,-255.86"
         style="fill:#231f20;fill-opacity:1;fill-rule:nonzero;stroke:none"
         transform="matrix(0.13333333,0,0,-0.13333333,0,531.76)" />
      <path
         id="path12"
         d="m 6202.71,3209.89 c -12.18,94.22 -44.33,168.15 -96.41,221.65 -51.96,53.63 -120.51,80.36 -205.66,80.36 -85.04,0 -156.04,-27.16 -213.04,-81.38 -56.89,-54.39 -96.49,-128.01 -118.45,-220.63 z m 176.63,-127.64 h -823.91 c 0.69,-80.55 17.87,-154.4 51.27,-221.6 33.44,-67.25 84.71,-122.8 153.82,-166.92 44.13,-28.11 94.26,-49.17 150.52,-63.17 56.11,-14.2 123.75,-21.26 202.75,-21.26 43.27,0 82.95,1.23 119.12,3.45 35.95,2.3 58.25,3.76 66.68,4.58 l -20.56,-151.54 c -6.04,-0.71 -26.17,-2.16 -60.34,-3.89 -34.29,-2.08 -74.59,-2.91 -120.86,-2.91 -121.46,0 -227.24,15.73 -317.42,47.25 -89.99,31.57 -163.82,75 -221.58,130.55 -49.31,46.28 -91.3,105.63 -125.85,177.74 -34.71,72.16 -51.89,152.23 -51.89,240.35 0,86.62 12.97,164.86 38.81,234.96 25.69,69.68 64.48,134.74 116.09,194.7 44.87,51.68 100.47,91.47 166.9,119.7 66.58,27.95 135.56,42.19 206.9,42.19 70.73,0 133.33,-10.75 188.04,-31.94 54.72,-21.35 102.24,-53.58 142.5,-96.84 44.8,-48.73 78.87,-108.42 102.42,-179.61 23.64,-70.93 35.9,-156.22 36.59,-255.79"
         style="fill:#231f20;fill-opacity:1;fill-rule:nonzero;stroke:none"
         transform="matrix(0.13333333,0,0,-0.13333333,0,531.76)" />
      <path
         id="path13"
         d="m 7128.77,3478.08 c -41.81,-9.96 -105.95,-30.87 -192.07,-62.79 -86.21,-31.89 -185.54,-74.5 -297.95,-127.62 0,-8.37 -0.43,-46.56 -1.11,-114.43 -0.83,-67.98 -1.25,-131.23 -1.25,-189.79 0,-89.62 0.97,-196 2.98,-319.03 1.74,-123.2 2.68,-191.51 2.68,-205.06 h -179.92 c 0,12.79 0.76,55.4 2.29,127.56 1.45,72.25 2.2,195.6 2.2,370.35 0,70.61 -0.34,169.33 -1.09,296.35 -0.76,126.66 -1.95,246.38 -3.4,358.83 h 176.62 v -173.22 l 1.11,-1.16 c 85.88,48.58 170.61,90.84 254.03,126.53 83.71,35.8 150.52,60.06 200.59,72.88 l 34.29,-159.4"
         style="fill:#231f20;fill-opacity:1;fill-rule:nonzero;stroke:none"
         transform="matrix(0.13333333,0,0,-0.13333333,0,531.76)" />
      <path
         id="path14"
         d="m 668.75,231.641 c 0,19.988 -3.555,38.031 -10.598,54.039 -7.097,15.968 -17.761,31.281 -31.914,45.742 -13.406,13.48 -31.843,24.207 -55.254,32.578 -23.464,8.172 -48.953,12.398 -76.558,12.398 -22.055,0 -39.895,-0.199 -53.442,-0.527 -13.671,-0.473 -22.593,-0.59 -26.961,-0.59 l -9.382,70.871 c 29.097,0.727 54.839,4.227 77.039,10.297 22.258,6.102 42.097,15.293 59.406,27.422 16.559,11.871 30.184,26.891 40.848,45.32 10.586,18.25 15.886,38.77 15.886,61.758 0,23.922 -5.894,44.711 -17.632,62.293 -11.821,17.488 -27.969,31.379 -48.364,41.688 -17.359,8.191 -38.543,14.41 -63.687,18.558 -25.207,4.094 -52.09,6.184 -80.774,6.184 -18.508,0 -35.527,-0.262 -51.047,-0.863 -15.546,-0.547 -25.457,-0.86 -29.793,-0.86 -1.164,-57.539 -1.875,-118.629 -2.109,-183.258 -0.137,-64.55 -0.266,-111.429 -0.266,-140.57 0,-67.742 0.266,-135.859 0.942,-204.101 0.523,-68.379 0.855,-104.938 0.855,-109.6216 7.871,-0.4687 18.379,-0.9375 31.543,-1.457 13.188,-0.6211 25.879,-0.8828 38.047,-0.8828 45.278,0 87.231,2.3398 125.93,7.0234 38.816,4.7774 71.543,14.5 98.293,29.508 21.988,12.219 39.031,28.14 51.023,47.961 12.012,19.64 17.969,42.691 17.969,69.09 z m 100.496,2.89 c 0,-39.359 -10.183,-74.82 -30.508,-106.261 C 718.563,96.6992 689.133,70.9492 650.574,50.7617 616.309,33.0703 578.77,20.1914 537.805,12.0898 496.902,4.05078 450.039,0.0117188 397.336,0.0117188 c -38.977,0 -78.996,0.6796872 -120.117,2.0781212 -41.098,1.3711 -64.055,2.21875 -68.781,2.69141 1.179,75.61715 1.945,146.96075 2.39,214.05075 0.371,67.277 0.578,131.328 0.578,192.52 0,115.707 -0.508,207.367 -1.523,274.937 -0.977,67.563 -1.445,102.711 -1.445,105.453 5.5,0.34 27.238,1.43 65.183,2.996 37.981,1.563 74.914,2.383 110.703,2.383 40.5,0 77.91,-2.68 112.102,-8 34.258,-5.34 63.152,-12.723 86.844,-22.172 35.722,-14.23 63.898,-34.609 84.347,-61.23 20.442,-26.539 30.703,-59.117 30.703,-97.68 0,-40.629 -12.871,-76.48 -38.554,-107.859 -25.684,-31.25 -54.969,-52.711 -87.891,-64.11 v -5.89 c 27.078,-2.348 53.438,-8.782 78.906,-19.168 25.547,-10.543 47.93,-25.43 67.188,-44.672 16.886,-17.031 29.699,-35.668 38.269,-56.098 8.657,-20.543 13.008,-45.66 13.008,-75.711"
         style="fill:#231f20;fill-opacity:1;fill-rule:nonzero;stroke:none"
         transform="matrix(0.13333333,0,0,-0.13333333,0,531.76)" />
      <path
         id="path15"
         d="M 912.766,0.0117188 H 819.434 C 819.836,6.25 820.305,45.0586 820.996,116.398 c 0.527,71.282 0.801,130.223 0.801,176.692 0,40.601 -0.067,85.152 -0.274,133.871 -0.195,48.539 -0.937,105.59 -2.089,171.039 h 93.332 c -0.746,-56.789 -1.465,-109.828 -2.004,-159.219 -0.672,-49.492 -0.957,-93.551 -0.957,-132.101 0,-91.84 0.539,-165.52 1.496,-220.9105 0.984,-55.7187 1.465,-84.12887 1.465,-85.7577812 z M 918.125,712.551 H 814.141 v 101.66 h 103.984 v -101.66"
         style="fill:#231f20;fill-opacity:1;fill-rule:nonzero;stroke:none"
         transform="matrix(0.13333333,0,0,-0.13333333,0,531.76)" />
      <path
         id="path16"
         d="m 1413.31,311.141 c 0,47.539 -13.49,87.558 -40.43,119.73 -27.02,32.27 -61.76,55.719 -104.34,70.199 -22.05,7.52 -45.83,13.34 -71.45,17.418 -25.61,4.242 -52.03,6.25 -79.17,6.25 -5.18,0 -10.4,0 -15.63,0 -5.36,0 -9.79,0 -13.35,0 0,-8.629 -0.13,-40.019 -0.34,-94.129 -0.19,-54.039 -0.25,-98.668 -0.25,-133.679 0,-65.688 0.19,-112.121 0.59,-139.258 0.41,-27.09 0.6,-54.703 0.6,-82.6603 43.32,0 82.88,3.3594 118.74,9.7774 35.87,6.4609 66.78,16.6409 92.79,30.4529 37.83,19.977 65.98,46.457 84.48,79.309 18.49,32.859 27.76,71.73 27.76,116.59 z m 94.59,2.339 c 0,-64.558 -15.89,-119.992 -47.53,-166.39 -31.78,-46.531 -74.62,-81.1291 -128.59,-103.9884 -35.07,-14.9024 -75.03,-25.8125 -119.94,-32.7227 -44.93,-6.82812 -98.9,-10.3671812 -161.83,-10.3671812 -8.72,0 -17.59,0 -26.64,0 -9.06,0 -17.75,0 -26.007,0 0.403,30.3788812 0.95,86.6601812 1.465,168.9372812 0.613,82.27 0.867,181.153 0.867,296.992 0,70.801 -0.125,139.52 -0.523,206.051 -0.402,66.559 -1.008,134.469 -1.809,203.738 h 93.317 l -1.74,-272.41 c 80.8,-0.8 145.43,-8.039 194.1,-21.519 48.67,-13.61 89.1,-31.981 121.4,-55.242 33.54,-24.008 59.15,-53.969 76.85,-89.969 17.77,-36.098 26.61,-77.039 26.61,-123.11"
         style="fill:#231f20;fill-opacity:1;fill-rule:nonzero;stroke:none"
         transform="matrix(0.13333333,0,0,-0.13333333,0,531.76)" />
      <path
         id="path17"
         d="m 1654.18,0.0117188 h -93.4 C 1561.19,4.75 1561.66,62.4297 1562.26,172.898 c 0.54,110.481 0.87,202.141 0.87,275.024 0,46.859 -0.12,105.988 -0.33,177.59 -0.21,71.488 -0.8,151.66 -2.02,240.769 h 93.4 c -0.8,-60.691 -1.41,-130.82 -1.81,-210.73 -0.4,-79.641 -0.6,-146.961 -0.6,-201.66 0,-119.461 0.39,-223.789 1.22,-313.172 0.8,-89.5081 1.19,-136.29712 1.19,-140.7072812"
         style="fill:#231f20;fill-opacity:1;fill-rule:nonzero;stroke:none"
         transform="matrix(0.13333333,0,0,-0.13333333,0,531.76)" />
      <path
         id="path18"
         d="m 2127.61,389.262 c -6.24,48.867 -22.93,87.297 -49.89,114.988 -27.03,27.82 -62.55,41.691 -106.68,41.691 -44.11,0 -80.91,-14.132 -110.46,-42.211 -29.55,-28.179 -50.02,-66.308 -61.48,-114.468 z m 91.67,-66.09 h -427.23 c 0.42,-41.774 9.27,-80.043 26.57,-114.922 17.36,-34.859 43.9,-63.691 79.76,-86.551 22.86,-14.629 48.82,-25.5467 77.97,-32.7888 29.16,-7.2891 64.22,-10.918 105.25,-10.918 22.4,0 42.98,0.5898 61.69,1.7461 18.71,1.2031 30.26,1.9531 34.6,2.3515 L 2167.25,3.5 c -3.16,-0.39844 -13.62,-1.05078 -31.34,-2.00781 -17.69,-1.011721 -38.61,-1.4804712 -62.62,-1.4804712 -63,0 -117.86,8.1679712 -164.58,24.4687812 -46.66,16.4492 -84.93,38.8789 -114.91,67.7187 -25.61,23.9418 -47.39,54.6988 -65.22,92.1208 -18.02,37.469 -26.94,78.981 -26.94,124.621 0,44.938 6.69,85.5 20.11,121.821 13.4,36.207 33.44,69.937 60.25,100.98 23.26,26.828 52.03,47.469 86.57,62.067 34.44,14.492 70.18,21.871 107.24,21.871 36.6,0 69.13,-5.551 97.48,-16.559 28.37,-11 52.97,-27.742 73.91,-50.223 23.19,-25.269 40.94,-56.187 53.09,-93.109 12.26,-36.758 18.58,-80.988 18.99,-132.617"
         style="fill:#231f20;fill-opacity:1;fill-rule:nonzero;stroke:none"
         transform="matrix(0.13333333,0,0,-0.13333333,0,531.76)" />
      <path
         id="path19"
         d="m 3151.91,707.949 c -6.3,0 -32.65,0.11 -79.19,0.539 -46.46,0.321 -116.78,0.594 -210.98,0.594 -0.73,-80.801 -1.35,-142.062 -1.73,-183.84 -0.41,-41.82 -0.62,-98.844 -0.62,-170.961 0,-69.379 0.34,-139.84 0.86,-211.39 0.69,-71.6019 1.16,-119.1996 1.49,-142.8792812 h -97.49 c 0.8,23.6796812 1.49,72.0273812 2.15,144.8902812 0.54,73.008 0.81,144.348 0.81,214.059 0,68.598 0,123.18 0,163.609 0,40.36 -0.53,102.571 -1.76,186.512 -83.85,0.469 -151.94,0.398 -204.11,-0.332 -52.23,-0.539 -80.88,-0.801 -85.96,-0.801 v 81.5 c 40.57,0 89.85,-0.199 148.06,-0.597 58.02,-0.403 119.98,-0.512 185.75,-0.512 95.32,0 174.97,0.109 238.99,0.512 64.03,0.398 98.57,0.597 103.73,0.597 v -81.5"
         style="fill:#231f20;fill-opacity:1;fill-rule:nonzero;stroke:none"
         transform="matrix(0.13333333,0,0,-0.13333333,0,531.76)" />
      <path
         id="path20"
         d="m 3349.52,528.27 c -21.65,-5.04 -54.84,-15.969 -99.55,-32.528 -44.69,-16.551 -96.21,-38.562 -154.48,-66.101 0,-4.34 -0.21,-24.141 -0.53,-59.332 -0.47,-35.258 -0.66,-68.059 -0.66,-98.43 0,-46.469 0.47,-101.617 1.53,-165.449 0.94,-63.8284 1.42,-99.30109 1.42,-106.4182812 h -93.32 c 0,6.7773412 0.4,28.8398812 1.12,66.2577812 0.88,37.3205 1.21,101.3515 1.21,192.0705 0,36.539 -0.14,87.769 -0.53,153.672 -0.49,65.609 -1.01,127.789 -1.8,185.988 h 91.56 v -89.781 l 0.6,-0.598 c 44.47,25.211 88.44,47.039 131.74,65.629 43.32,18.48 77.99,31.039 104,37.832 l 17.69,-82.812"
         style="fill:#231f20;fill-opacity:1;fill-rule:nonzero;stroke:none"
         transform="matrix(0.13333333,0,0,-0.13333333,0,531.76)" />
      <path
         id="path21"
         d="m 3724.08,203.898 c 0,13.282 0,30.161 0,50.743 0,20.449 -0.25,44.05 -0.66,70.879 -17.37,-0.809 -47.67,-4.168 -90.98,-10.34 -43.3,-6.09 -79.86,-14.86 -109.28,-26.188 -22.06,-8.41 -41.64,-20.82 -58.87,-37.371 -17.09,-16.43 -25.68,-36.992 -25.68,-61.41 0,-26.762 7.31,-48.34 21.85,-64.602 14.62,-16.429 34.46,-28.9606 59.75,-37.5699 19.22,-6.7774 40.63,-11.5274 64.11,-14.4571 23.38,-3.0312 48.12,-4.4531 74.14,-4.4531 7.83,0 17.42,0.1406 28.9,0.543 11.45,0.3789 23.46,0.7969 36.06,1.207 0,2.8125 0.06,15.7695 0.33,39.0311 0.14,23.25 0.33,54.512 0.33,93.988 z m 90.3,142.332 c 0,-97.679 -0.12,-177.25 -0.46,-238.679 -0.46,-61.5393 -0.74,-94.6018 -0.74,-99.26194 -3.89,-0.42968 -22.25,-1.91797 -54.9,-4.45703 -32.71,-2.61328 -74.89,-3.8203112 -126.38,-3.8203112 -32.39,0 -64.83,2.9492212 -97.54,8.7890612 -32.72,6.03122 -60.89,14.42972 -84.54,25.46092 -31.46,14.5586 -56.94,34.3985 -76.52,59.6172 -19.42,25.2031 -29.22,55.5821 -29.22,91.1131 0,37.34 11.53,69.797 34.6,97.078 23,27.422 54.97,49.621 96.01,66.489 25.6,10.66 59.73,20.203 102.51,28.703 42.71,8.418 91.52,14.828 146.22,19.117 -2.35,30.781 -10.05,55.98 -22.99,75.633 -13.07,19.75 -32.19,34.66 -57.32,44.98 -17.38,7.047 -36.68,12.047 -57.94,15.09 -21.25,2.957 -46.13,4.41 -74.48,4.41 -17.69,0 -32.72,-0.371 -45.18,-1.203 -12.4,-0.738 -29.25,-1.73 -50.49,-2.93 l 9.45,78.621 c 5.9,0.399 17.57,1.09 35.06,2.032 17.56,1 41.57,1.468 71.8,1.468 46.46,0 88.04,-4.832 124.43,-14.488 36.49,-9.652 66.66,-25.351 90.66,-46.933 22.52,-20.508 39.41,-45.86 50.87,-75.938 11.33,-30.199 17.09,-73.75 17.09,-130.891"
         style="fill:#231f20;fill-opacity:1;fill-rule:nonzero;stroke:none"
         transform="matrix(0.13333333,0,0,-0.13333333,0,531.76)" />
      <path
         id="path22"
         d="m 4386.8,0.0117188 h -93.43 c 0.38,11.1601812 0.92,47.4687812 1.45,109.4182812 0.69,61.75 0.89,99.968 0.89,114.57 0,20.48 -0.1,50.691 -0.2,90.738 -0.29,39.942 -0.56,69.114 -0.88,87.754 -1.26,45.238 -9.93,77.789 -26.03,97.477 -16.22,19.652 -44.24,29.5 -84.01,29.5 -23.98,0 -53.76,-7.039 -89.23,-21.25 -35.4,-14.227 -71.27,-32.321 -107.45,-54.399 0,-4.269 -0.22,-27.738 -0.57,-70.23 -0.46,-42.59 -0.59,-81.34 -0.59,-116.399 0,-45.812 0.48,-100.902 1.47,-165.531 0.95,-64.5584 1.49,-98.41 1.49,-101.6482812 h -93.49 c 0,2.8085912 0.42,26.8984812 1.36,72.4804812 0.6,45.4568 1.08,113.1098 1.08,202.9568 0,41.301 -0.13,89.75 -0.28,145.352 -0.2,55.5 -0.8,114.558 -2.16,177.199 h 92.21 l -0.52,-67.949 0.52,-1.199 c 55.11,31.519 101.16,53.527 138.04,65.91 36.81,12.34 67.46,18.648 91.85,18.648 50.44,0 91.01,-15.898 121.44,-47.601 30.48,-31.649 45.78,-75.161 45.78,-130.258 0,-49.571 -0.27,-92.403 -0.95,-128.551 -0.48,-36 -0.73,-65.25 -0.73,-87.75 0,-35.871 0.48,-80.668 1.41,-134.418 0.94,-53.7109 1.53,-82.01169 1.53,-84.8202812"
         style="fill:#231f20;fill-opacity:1;fill-rule:nonzero;stroke:none"
         transform="matrix(0.13333333,0,0,-0.13333333,0,531.76)" />
      <path
         id="path23"
         d="m 4847.77,179.07 c 0,-29.3 -7.11,-55.25 -21.25,-78.039 -14.27,-22.8826 -32.78,-41.3591 -55.69,-55.5701 -24.01,-15 -52.57,-26.2187 -85.47,-33.9921 -32.93,-7.66021 -69.41,-11.4570812 -109.16,-11.4570812 -19.39,0 -39.44,0.8476562 -60.14,2.6601612 -20.79,1.67968 -32.41,2.82031 -35.2,3.14843 l -3.62,77.37109 c 3.62,-0.4101 17.29,-1.4023 41.16,-3.1406 23.8,-1.75 47.53,-2.6211 71.2,-2.6211 13.75,0 31.46,1.0703 53.15,3.4492 21.6,2.3125 39.59,6.6797 53.78,13.1133 19.66,8.5778 34.25,19.1678 43.7,31.7778 9.47,12.601 14.24,27.832 14.24,45.582 0,16.168 -4.16,29.168 -12.47,39.23 -8.26,10 -19.71,19.859 -34.21,29.309 -15.9,10.578 -37.32,21.91 -64.77,33.988 -27.36,12.012 -50.34,23.453 -68.9,34.512 -26.37,16.148 -46.52,35.199 -60.5,57.328 -13.91,21.98 -20.89,47.613 -20.89,76.711 0,29.218 7.98,55.429 23.91,78.691 16.06,23.188 37.35,41.91 64.18,56.07 23.27,12.68 49.08,21.051 77.23,25.129 28.37,4.231 55.58,6.239 82.05,6.239 24.03,0 43.81,-0.399 59.16,-1.129 15.49,-0.809 24.27,-1.211 26.61,-1.211 l 6.57,-78.649 c -2.79,0 -14.89,0.809 -36.35,2.422 -21.65,1.528 -45.26,2.34 -70.92,2.34 -18.12,0 -35.41,-1.613 -51.85,-4.762 -16.35,-3.16 -30.17,-7.578 -41.76,-13.539 -16.87,-8.652 -29.01,-19.121 -36.35,-31.371 -7.36,-12.211 -10.91,-24.008 -10.91,-35.41 0,-15.84 5.04,-29.289 15.29,-40.75 10.38,-11.398 22.39,-21.129 36.23,-28.918 16.13,-9.453 38.26,-20.801 66.29,-33.73 28.08,-12.993 48.41,-23.52 61,-31.36 27.63,-17.363 48.7,-36.531 63.09,-57.851 14.34,-21.25 21.57,-46.551 21.57,-75.571"
         style="fill:#231f20;fill-opacity:1;fill-rule:nonzero;stroke:none"
         transform="matrix(0.13333333,0,0,-0.13333333,0,531.76)" />
      <path
         id="path24"
         d="m 5010.12,0.0117188 h -93.37 c 0.34,4.7695312 0.82,62.4296812 1.48,172.9182812 0.56,110.422 0.9,202.129 0.9,275.011 0,46.879 -0.15,106 -0.34,177.598 -0.14,71.473 -0.9,151.641 -2.04,240.762 h 93.37 c -0.84,-60.66 -1.45,-130.821 -1.7,-210.719 -0.46,-79.66 -0.71,-146.98 -0.71,-201.762 0,-119.398 0.44,-223.691 1.25,-313.058 0.72,-89.5315 1.16,-136.31278 1.16,-140.7502812"
         style="fill:#231f20;fill-opacity:1;fill-rule:nonzero;stroke:none"
         transform="matrix(0.13333333,0,0,-0.13333333,0,531.76)" />
      <path
         id="path25"
         d="m 5449.15,203.871 c 0,13.348 0,30.328 0,50.777 0,20.442 -0.2,44.043 -0.66,70.844 -17.3,-0.801 -47.6,-4.16 -90.91,-10.32 -43.4,-6.102 -79.94,-14.871 -109.32,-26.223 -22.15,-8.367 -41.66,-20.699 -58.86,-37.269 -17.09,-16.481 -25.67,-37.071 -25.67,-61.469 0,-26.742 7.27,-48.352 21.88,-64.652 14.45,-16.43 34.47,-28.9574 59.65,-37.5473 19.32,-6.6914 40.65,-11.5 64.1,-14.3906 23.39,-3.1016 48.22,-4.5 74.18,-4.5 7.89,0 17.47,0.1484 28.88,0.5273 11.46,0.4219 23.51,0.8125 36.07,1.2305 0,2.793 0.05,15.75 0.34,39.0121 0.12,23.257 0.32,54.507 0.32,93.98 z m 90.38,142.34 c 0,-97.691 -0.26,-177.262 -0.61,-238.66 -0.47,-61.4416 -0.61,-94.5588 -0.61,-99.30881 -3.9,-0.40235 -22.31,-1.88281 -54.96,-4.35156 -32.67,-2.69922 -74.82,-3.8789112 -126.39,-3.8789112 -32.37,0 -64.81,2.9296912 -97.55,8.7773412 -32.72,6.01954 -60.81,14.48044 -84.46,25.47264 -31.55,14.5391 -57,34.3672 -76.57,59.5899 -19.45,25.2384 -29.15,55.6484 -29.15,91.1094 0,37.348 11.43,69.809 34.51,97.09 23.05,27.418 54.98,49.621 95.96,66.519 25.59,10.66 59.78,20.16 102.57,28.692 42.72,8.367 91.5,14.828 146.22,19.179 -2.37,30.68 -10.06,55.911 -22.93,75.618 -13.14,19.711 -32.19,34.652 -57.41,44.933 -17.37,7.098 -36.6,12.059 -57.94,15.137 -21.25,2.883 -46.03,4.363 -74.46,4.363 -17.69,0 -32.73,-0.422 -45.18,-1.191 -12.36,-0.742 -29.17,-1.762 -50.48,-2.891 l 9.43,78.57 c 5.9,0.399 17.66,1.071 35.15,2.012 17.63,0.988 41.44,1.457 71.81,1.457 46.44,0 87.94,-4.75 124.43,-14.41 36.37,-9.719 66.56,-25.34 90.56,-47 22.6,-20.449 39.43,-45.789 50.97,-75.949 11.27,-30.039 17.09,-73.75 17.09,-130.879"
         style="fill:#231f20;fill-opacity:1;fill-rule:nonzero;stroke:none"
         transform="matrix(0.13333333,0,0,-0.13333333,0,531.76)" />
      <path
         id="path26"
         d="m 5984.76,76.8008 -10.8,-75.00002 c -2.67,-0.41015 -9.51,-0.812499 -20.23,-1.281249 -10.88,-0.257812 -20.27,-0.5078122 -28.05,-0.5078122 -80.92,0 -141.84,16.8671812 -183.29,50.5273812 -41.3,33.7109 -62.03,85.3399 -62.03,155.0699 0,43.743 0.33,90.661 0.9,140.653 0.58,50.027 0.92,112.047 0.92,186.109 h -99.29 v 69.121 h 104.58 v 140.09 h 85.64 v -140.09 h 211.65 v -69.121 h -211.65 c 0,-8.172 -0.21,-32.832 -0.81,-73.871 -0.54,-40.961 -0.85,-71.281 -0.85,-90.949 0,-16.582 0,-36.879 0,-60.84 0,-24.129 0,-52.629 0,-85.75 0,-51.141 13.73,-88.082 41.27,-110.762 27.63,-22.7068 70.2,-33.9802 127.59,-33.9802 7.1,0 15.56,0.1328 25.48,0.25 9.78,0.2812 16.08,0.332 18.97,0.332"
         style="fill:#231f20;fill-opacity:1;fill-rule:nonzero;stroke:none"
         transform="matrix(0.13333333,0,0,-0.13333333,0,531.76)" />
      <path
         id="path27"
         d="m 6461.78,310.16 c 0,37.07 -5.98,73.149 -18.08,108.16 -11.97,35.059 -30.6,64.602 -55.84,88.692 -15.35,14.859 -33.58,26.468 -54.53,34.578 -21.21,8.039 -43.12,12.012 -66,12.012 -27.11,0 -50.74,-4.383 -70.86,-12.93 -20.12,-8.801 -38.96,-22.274 -56.81,-40.781 -20.81,-21.321 -37.19,-48.481 -49.32,-81.571 -11.91,-33.07 -17.89,-67.332 -17.89,-102.789 0,-40.23 6.02,-77.133 18.21,-110.781 12.28,-33.699 31.91,-62.75 59.08,-87.168 15.44,-13.852 33.12,-24.3203 53.16,-31.6328 20.17,-7.2969 41.36,-10.8476 63.9,-10.8476 24.82,0 47.99,4.207 69.4,12.8593 21.51,8.6602 40.29,21.3201 56.45,37.8981 22.47,22.782 39.54,50.422 51.41,82.653 11.8,32.328 17.72,66.179 17.72,101.648 z m 94.52,4.141 c 0,-45.641 -8.19,-89.422 -24.49,-131.129 -16.39,-41.711 -40.02,-77.43 -70.66,-107.0001 C 6435.13,51.4297 6406.24,32.5117 6374.67,19.4414 6342.92,6.57031 6306.95,0.0117188 6266.8,0.0117188 c -37.87,0 -73.34,6.3671912 -106.41,19.1601812 -33.1,12.8086 -62.62,31.6601 -88.64,56.4765 -29.95,28.6606 -53.06,64.1526 -69.38,106.3316 -16.35,42.168 -24.47,86.68 -24.47,133.551 0,45.25 6.9,86.949 20.94,124.949 13.93,38.02 35.78,72.161 65.23,102.571 26.33,27.519 57.12,48.629 92.16,63.5 35.07,14.75 72.14,22.129 111.1,22.129 40.99,0 78.11,-6.758 111.38,-20.45 33.32,-13.48 62.93,-33.929 88.89,-61.089 30.03,-31.102 52.23,-66.161 66.77,-104.84 14.61,-38.879 21.93,-81.52 21.93,-128"
         style="fill:#231f20;fill-opacity:1;fill-rule:nonzero;stroke:none"
         transform="matrix(0.13333333,0,0,-0.13333333,0,531.76)" />
      <path
         id="path28"
         d="m 6974.38,528.242 c -21.61,-5.152 -54.78,-16.031 -99.57,-32.531 -44.65,-16.539 -96.22,-38.66 -154.54,-66.242 0,-4.278 -0.19,-24.129 -0.53,-59.328 -0.46,-35.27 -0.58,-68.02 -0.58,-98.34 0,-46.539 0.44,-101.641 1.46,-165.469 0.91,-63.75 1.46,-99.20309 1.46,-106.3202812 h -93.33 c 0,6.6992212 0.4,28.7382812 1.2,66.1601812 0.76,37.4181 1.14,101.3791 1.14,192.0701 0,36.559 -0.18,87.707 -0.62,153.598 -0.31,65.711 -0.98,127.789 -1.72,186.129 h 91.52 v -89.848 l 0.61,-0.652 c 44.5,25.211 88.5,47.191 131.81,65.691 43.3,18.5 77.94,31.102 103.98,37.809 l 17.71,-82.727"
         style="fill:#231f20;fill-opacity:1;fill-rule:nonzero;stroke:none"
         transform="matrix(0.13333333,0,0,-0.13333333,0,531.76)" />
      <path
         id="path29"
         d="m 7363.69,179.102 c 0,-29.172 -7.12,-55.18 -21.35,-77.993 -14.18,-22.9176 -32.69,-41.4371 -55.62,-55.5699 -24.07,-14.9688 -52.56,-26.2188 -85.49,-33.918 -32.92,-7.62891 -69.29,-11.6093812 -109.2,-11.6093812 -19.32,0 -39.44,0.8671872 -60.14,2.7695312 -20.68,1.73047 -32.38,2.80078 -35.07,3.17969 l -3.69,77.37886 c 3.69,-0.3984 17.28,-1.3906 41.11,-3.2187 23.87,-1.7891 47.68,-2.6719 71.25,-2.6719 13.7,0 31.37,1.1406 53.08,3.5391 21.67,2.3515 39.72,6.7226 53.8,13.0117 19.77,8.57 34.33,19.32 43.72,31.859 9.46,12.653 14.19,27.801 14.19,45.532 0,16.148 -4.03,29.289 -12.37,39.359 -8.19,9.969 -19.75,19.762 -34.25,29.152 -15.77,10.7 -37.38,22.059 -64.71,33.989 -27.37,12.078 -50.38,23.601 -68.85,34.609 -26.41,16.141 -46.6,35.25 -60.5,57.32 -14.07,22.032 -21.07,47.66 -21.07,76.75 0,29.149 7.99,55.43 24.03,78.582 15.94,23.258 37.34,41.957 64.26,56.2 23.16,12.57 48.89,21.027 77.18,25.117 28.24,4.09 55.46,6.25 81.94,6.25 24.06,0 43.78,-0.41 59.19,-1.207 15.44,-0.77 24.31,-1.211 26.65,-1.211 l 6.48,-78.653 c -2.68,0 -14.88,0.801 -36.31,2.411 -21.69,1.55 -45.14,2.351 -70.81,2.351 -18.17,0 -35.54,-1.539 -51.84,-4.762 -16.4,-3.089 -30.31,-7.628 -41.76,-13.457 -16.98,-8.73 -29.11,-19.25 -36.48,-31.382 -7.31,-12.219 -10.92,-24.079 -10.92,-35.477 0,-15.75 5.15,-29.371 15.37,-40.762 10.33,-11.398 22.31,-21.058 36.18,-28.91 16.15,-9.488 38.31,-20.699 66.32,-33.699 28.01,-13.031 48.4,-23.461 60.99,-31.402 27.63,-17.27 48.67,-36.52 63.04,-57.77 14.4,-21.25 21.65,-46.539 21.65,-75.687"
         style="fill:#231f20;fill-opacity:1;fill-rule:nonzero;stroke:none"
         transform="matrix(0.13333333,0,0,-0.13333333,0,531.76)" />
    </g>
  </g>
</svg>
