<?xml version="1.0" encoding="UTF-8" standalone="no"?>
<!-- Created with Inkscape (http://www.inkscape.org/) -->

<svg
   xmlns:dc="http://purl.org/dc/elements/1.1/"
   xmlns:cc="http://creativecommons.org/ns#"
   xmlns:rdf="http://www.w3.org/1999/02/22-rdf-syntax-ns#"
   xmlns:svg="http://www.w3.org/2000/svg"
   xmlns="http://www.w3.org/2000/svg"
   xmlns:sodipodi="http://sodipodi.sourceforge.net/DTD/sodipodi-0.dtd"
   xmlns:inkscape="http://www.inkscape.org/namespaces/inkscape"
   width="10.28381mm"
   height="10.28381mm"
   viewBox="0 0 10.28381 10.283809"
   version="1.1"
   id="svg1102"
   inkscape:version="0.92.3 (2405546, 2018-03-11)"
   sodipodi:docname="blue pencil.svg">
  <defs
     id="defs1096" />
  <sodipodi:namedview
     id="base"
     pagecolor="#ffffff"
     bordercolor="#666666"
     borderopacity="1.0"
     inkscape:pageopacity="0.0"
     inkscape:pageshadow="2"
     inkscape:zoom="1.4"
     inkscape:cx="-370.90241"
     inkscape:cy="108.00539"
     inkscape:document-units="mm"
     inkscape:current-layer="g1165"
     showgrid="false"
     fit-margin-top="0"
     fit-margin-left="0"
     fit-margin-right="0"
     fit-margin-bottom="0"
     inkscape:pagecheckerboard="true"
     inkscape:window-width="2560"
     inkscape:window-height="1377"
     inkscape:window-x="1072"
     inkscape:window-y="185"
     inkscape:window-maximized="1" />
  <metadata
     id="metadata1099">
    <rdf:RDF>
      <cc:Work
         rdf:about="">
        <dc:format>image/svg+xml</dc:format>
        <dc:type
           rdf:resource="http://purl.org/dc/dcmitype/StillImage" />
        <dc:title />
      </cc:Work>
    </rdf:RDF>
  </metadata>
  <g
     inkscape:label="Layer 1"
     inkscape:groupmode="layer"
     id="layer1"
     transform="translate(-50.415102,-220.04261)">
    <g
       transform="translate(194.71005,180.51402)"
       id="g1165">
      <g
         transform="matrix(0.25969233,0,0,0.25969233,-236.7466,-93.678658)"
         id="g1163"
         inkscape:label="Layer 1"
         style="fill:#59b4d4;fill-opacity:1">
        <path
           style="fill:#59b4d4;fill-opacity:1;stroke-width:1.00000012"
           d="m 362.76304,550.42485 6.61283,-2.22317 -4.59911,-4.56828 c -2.52936,-2.51253 -4.69406,-4.44505 -4.81022,-4.29445 -0.32315,0.41863 -4.11765,13.07752 -3.95703,13.201 0.0771,0.0591 3.11657,-0.89237 6.75353,-2.1151 z m 14.434,-10.05822 6.28415,-6.30562 -4.77347,-4.74546 -4.77334,-4.74533 -6.28415,6.30548 -6.28415,6.30562 4.77347,4.74546 4.77347,4.74532 z m 9.96904,-9.96956 2.10663,-2.17344 -4.73737,-4.73737 -4.73736,-4.73736 -2.15404,2.15404 -2.15404,2.15403 4.78478,4.75677 4.78478,4.75677 z m 6.07304,-6.15797 c 2.72107,-3.09923 2.50521,-4.77437 -1.07689,-8.35647 -3.6723,-3.6723 -5.31879,-3.83921 -8.54047,-0.86552 l -2.29383,2.11729 4.59037,4.63778 c 2.52461,2.55069 4.77578,4.63766 5.00257,4.63766 0.22679,0 1.26989,-0.9768 2.31825,-2.17074 z"
           id="path1161"
           inkscape:connector-curvature="0"
           sodipodi:nodetypes="scsscsccccccccccccccccccssscsss" />
      </g>
    </g>
  </g>
</svg>
