<svg width="210" height="148" viewBox="0 0 210 148" fill="none" xmlns="http://www.w3.org/2000/svg">
<g clip-path="url(#clip0)">
<rect width="210" height="148" fill="#4E8844"/>
<path opacity="0.681416" d="M95.261 -20.5823C78.0938 -20.3586 69.9957 -0.527891 76.0444 13.8169C80.5463 27.4061 85.3127 40.8759 87.7064 54.8906C77.3618 38.7203 60.2159 21.5395 39.1514 27.0192C17.2853 32.2889 -4.45446 54.5912 0.791499 78.3613C7.60166 96.9444 31.5751 93.9395 47.3661 93.8372C52.4791 94.4679 72.5103 93.7813 66.3627 96.6977C47.6833 101.035 27.9077 114.473 28.0762 135.498C27.5846 157.554 42.5692 184.816 66.8761 185.3C87.599 182.319 89.7031 156.971 95.9211 141.439C98.4699 134.834 104.414 117.101 103.182 133.957C100.82 155.175 114.805 177.565 137.141 179.432C156.676 182.441 185.375 174.357 187.823 151.487C186.484 129.652 161.107 122.699 148.07 109.093C134.858 99.4663 149.931 105.411 158.045 107.553C181.263 115.152 204.949 96.7302 208.14 73.5938C212.736 56.7094 207.012 29.0798 185.403 29.0728C164.127 31.2023 150.815 51.7341 131.714 59.5114C144.091 44.718 155.051 23.0005 143.303 4.57531C133.562 -11.4341 114.16 -21.8701 95.261 -20.5823V-20.5823Z" fill="#010101" fill-opacity="0.701961"/>
<path d="M102.974 61.8287C81.7154 62.7413 72.0307 92.5671 88.3784 105.983C103.479 120.964 131.863 108.325 130.846 87.1331C131.156 72.4016 117.512 60.1935 102.974 61.8287V61.8287Z" fill="white" fill-opacity="0.329412"/>
<path d="M94.2705 87.1026H17.5544V78.216H94.2705V87.1026Z" fill="#F4F4F4" fill-opacity="0.729412"/>
<path d="M126.445 59.3183H17.5544V50.4317H126.445V59.3183Z" fill="#F4F4F4" fill-opacity="0.729412"/>
<path d="M119.083 73.2104H17.5544V64.3238H119.083V73.2104Z" fill="#F4F4F4" fill-opacity="0.729412"/>
</g>
<defs>
<clipPath id="clip0">
<rect width="210" height="148" fill="white"/>
</clipPath>
</defs>
</svg>
