<svg width="210" height="148" viewBox="0 0 210 148" fill="none" xmlns="http://www.w3.org/2000/svg">
<g clip-path="url(#clip0)">
<rect width="210" height="148" fill="#4E8844"/>
<svg x="-4.454" y="-21.87" width="217.19" height="207.17" viewBox="0 0 352 348" preserveAspectRatio="xMidYMid meet" fill="none">
    <g>
      <path fill="currentColor" d="M138.151 193.175c-4.457 16.046 31.239 38.434 45.161 33.909-12.014 26.453-21.986 54.322-30.473 82.069-2.945 9.395-7.04 18.414-13.491 25.941-5.721 6.563-13.145 11.023-21.807 12.292-19.0634 2.573-36.2414-11.683-46.7487-26.062-8.7175-12.046-14.7963-25.785-16.9971-40.542-2.527-16.944.0493-32.856 10.1582-46.995 17.4019-23.993 49.1156-28.22 74.1976-40.612Zm-7.38 24.559c-16.237 6.674-39.1688 12.194-50.2141 27.225-6.7876 9.237-8.9319 19.788-6.9805 32.873 1.6596 11.127 5.9856 21.374 12.8448 30.975 5.979 8.368 17.0318 20.56 28.7468 18.714 11.286-2.025 16.268-16.551 19.07-25.929 6.379-21.353 14.449-42.293 22.661-62.996-8.573-3.345-20.584-13.866-26.128-20.862Z"/>
      <path fill="currentColor" d="M178.526 225.537c13.883 9.198 46.206-17.833 46.205-32.472 21.446 19.6 44.869 37.697 68.636 54.342 8.025 5.704 15.337 12.386 20.502 20.847 4.473 7.469 6.422 15.909 4.951 24.538-3.443 18.926-22.31 30.858-39.232 36.407-14.15 4.569-29.096 6.104-43.81 3.637-16.896-2.832-31.233-10.2-41.556-24.183-17.441-23.964-11.661-55.432-15.696-83.116Zm21.076 14.608c1.33 17.505-.506 41.02 10.376 56.17 6.687 9.309 16.06 14.609 29.107 16.797 11.095 1.86 22.177.912 33.428-2.645 9.806-3.1 24.817-9.844 26.682-21.557 1.561-11.359-10.714-20.585-18.768-26.148-18.336-12.666-35.757-26.811-52.91-41.02-5.831 7.12-19.548 15.292-27.915 18.403Z"/>
      <path fill="currentColor" d="M221.781 197.139c13.037-10.361-2.682-49.456-16.604-53.978 25.267-14.34 49.716-31.025 72.891-48.4841 7.905-5.8697 16.519-10.7592 26.162-13.0563 8.486-1.9469 17.115-1.1917 24.867 2.8732 16.936 9.1233 22.453 30.7542 22.503 48.5622-.028 14.87-3.186 29.558-10.08 42.79-7.915 15.194-19.352 26.553-35.841 32.049-28.181 9.182-56.323-6.039-83.898-10.756Zm20.406-15.531c17.059 4.145 38.856 13.158 56.626 7.49 10.921-3.483 18.858-10.759 24.97-22.492 5.198-9.978 7.721-20.81 7.815-32.609.082-10.285-1.693-26.645-12.257-32.038-10.321-4.9952-22.889 3.828-30.668 9.769-17.712 13.525-36.549 25.722-55.362 37.645 4.97 7.745 8.503 23.316 8.876 32.235Z"/>
      <path fill="currentColor" d="M208.139 147.226c-5.825-15.602-47.864-12.733-56.467-.889-5.83-28.462-14.143-56.8707-23.586-84.3065-3.14-9.3318-5.128-19.0353-4.333-28.9162.771-8.6725 4.155-16.645 10.417-22.7621 13.91-13.28743 36.187-11.85051 53.139-6.39419 14.133 4.62133 27.127 12.16379 37.581 22.80859 12.004 12.2225 19.273 26.6102 19.405 43.9907.024 29.6397-23.149 51.6997-36.156 76.4687Zm-8.465-24.207c9.214-14.943 24.521-32.8884 24.622-51.5406.062-11.4624-4.406-21.2592-13.675-30.6979-7.883-8.0267-17.406-13.7737-28.598-17.5091-9.756-3.256-25.864-6.6233-34.258 1.7565-7.94 8.2722-3.432 22.9519-.186 32.1863 7.39 21.0242 13.169 42.708 18.695 64.2848 8.902-2.333 24.803-.881 33.4 1.52Z"/>
      <path fill="currentColor" d="M156.453 144.775c-16.638.72-26.9 41.587-18.294 53.43-28.871-3.252-58.458-4.124-87.4692-3.621-9.8452.102-19.6883-1.005-28.8398-4.815-8.0098-3.413-14.54632-9.095-18.42906-16.941-8.33863-17.335-.08801-38.078 10.33976-52.514 8.7624-12.013 19.951-22.0404 33.3053-28.6935 15.3338-7.6393 31.2634-10.1063 47.8342-4.8613 28.1958 9.1359 42.0158 37.9918 61.5528 58.0158Zm-25.638.571c-11.364-13.38-23.701-33.484-41.4092-39.344-10.8821-3.601-21.58-2.379-33.4212 3.52-10.0697 5.017-18.4782 12.297-25.4894 21.788-6.1114 8.272-14.2916 22.551-8.9155 33.123 5.4137 10.108 20.7679 10.357 30.5534 10.123 22.2788-.531 44.6873.673 66.9159 2.086.532-9.188 6.826-23.861 11.766-31.296Z"/>
      <path fill="currentColor" d="M221.625 181.587c-.001-22.789-18.474-41.262-41.262-41.262s-41.262 18.473-41.262 41.262c0 22.788 18.474 41.261 41.262 41.261v20c-33.834 0-61.262-27.427-61.262-61.261s27.428-61.262 61.262-61.262 61.261 27.428 61.262 61.262c0 33.834-27.428 61.261-61.262 61.261v-20c22.788 0 41.262-18.473 41.262-41.261Z"/>
    </g>
</svg>
<path d="M94.2705 87.1026H17.5544V78.216H94.2705V87.1026Z" fill="#F4F4F4" fill-opacity="0.729412"/>
<path d="M126.445 59.3183H17.5544V50.4317H126.445V59.3183Z" fill="#F4F4F4" fill-opacity="0.729412"/>
<path d="M119.083 73.2104H17.5544V64.3238H119.083V73.2104Z" fill="#F4F4F4" fill-opacity="0.729412"/>
</g>
<defs>
<clipPath id="clip0">
<rect width="210" height="148" fill="white"/>
</clipPath>
</defs>
</svg>
