<svg xmlns="http://www.w3.org/2000/svg" width="281" height="398" fill="none" viewBox="0 0 281 398">
  <style>
    /* Default color for standalone viewing - overridden by currentColor when embedded in HTML */
    svg {
      color: #636363;
    }
  </style>
  <path fill="#fff" d="M0 0h280.5v398H0z"/>
  <g clip-path="url(#a)">
    <path fill="currentColor" d="M60.874 145.167c-1.557 5.579 10.916 13.364 15.781 11.79-4.198 9.198-7.683 18.888-10.648 28.536-1.03 3.266-2.46 6.402-4.714 9.02-2 2.281-4.594 3.832-7.62 4.273-6.662.895-12.664-4.062-16.336-9.061-3.046-4.189-5.17-8.966-5.94-14.097-.882-5.891.018-11.424 3.55-16.34 6.081-8.342 17.163-9.812 25.927-14.121Zm-2.578 8.539c-5.674 2.321-13.687 4.24-17.547 9.466-2.372 3.212-3.12 6.881-2.439 11.43.58 3.869 2.092 7.432 4.488 10.77 2.09 2.91 5.952 7.149 10.045 6.507 3.944-.704 5.685-5.754 6.664-9.015 2.23-7.425 5.05-14.705 7.919-21.904-2.996-1.163-7.193-4.821-9.13-7.254Z"/>
    <path fill="currentColor" d="M74.983 156.419c4.85 3.199 16.145-6.2 16.145-11.29 7.494 6.815 15.679 13.107 23.984 18.895 2.804 1.983 5.359 4.306 7.164 7.248 1.563 2.597 2.244 5.532 1.73 8.532-1.203 6.581-7.796 10.729-13.709 12.659-4.945 1.588-10.167 2.122-15.309 1.264-5.904-.984-10.913-3.546-14.52-8.408-6.095-8.332-4.075-19.274-5.485-28.9Zm7.364 5.08c.465 6.086-.176 14.262 3.626 19.53 2.337 3.237 5.612 5.08 10.17 5.84 3.878.647 7.75.317 11.682-.919 3.426-1.078 8.672-3.423 9.323-7.496.546-3.949-3.744-7.157-6.558-9.091-6.407-4.404-12.495-9.323-18.488-14.263-2.038 2.476-6.831 5.317-9.755 6.399Z"/>
    <path fill="currentColor" d="M90.097 146.545c4.556-3.602-.937-17.195-5.802-18.768 8.83-4.986 17.373-10.787 25.471-16.858 2.762-2.041 5.772-3.741 9.142-4.539 2.965-.677 5.98-.415 8.689.999 5.918 3.172 7.846 10.693 7.863 16.885-.01 5.17-1.113 10.277-3.522 14.878-2.766 5.283-6.762 9.232-12.524 11.143-9.847 3.193-19.681-2.099-29.317-3.74Zm7.13-5.4c5.962 1.442 13.578 4.575 19.788 2.605 3.816-1.211 6.589-3.741 8.725-7.821 1.816-3.469 2.698-7.236 2.731-11.338.029-3.576-.592-9.265-4.283-11.14-3.607-1.737-7.998 1.331-10.716 3.397-6.19 4.703-12.772 8.944-19.346 13.089 1.737 2.693 2.971 8.107 3.102 11.208Z"/>
    <path fill="currentColor" d="M85.33 129.191c-2.035-5.425-16.725-4.428-19.73-.309-2.038-9.897-4.943-19.774-8.243-29.314-1.097-3.245-1.791-6.618-1.514-10.054.27-3.016 1.452-5.788 3.64-7.914 4.86-4.62 12.645-4.121 18.569-2.224 4.938 1.607 9.479 4.23 13.132 7.93 4.194 4.25 6.734 9.253 6.78 15.296.009 10.306-8.088 17.976-12.634 26.589Zm-2.957-8.417c3.22-5.196 8.568-11.435 8.603-17.921.022-3.985-1.54-7.392-4.778-10.674-2.755-2.79-6.082-4.789-9.993-6.088-3.41-1.132-9.038-2.302-11.971.611-2.775 2.877-1.2 7.98-.065 11.191 2.582 7.311 4.602 14.85 6.532 22.352 3.111-.811 8.667-.306 11.672.529Z"/>
    <path fill="currentColor" d="M67.27 128.338c-5.814.251-9.4 14.46-6.393 18.578-10.088-1.131-20.427-1.434-30.564-1.259-3.44.036-6.88-.349-10.078-1.674-2.799-1.187-5.083-3.162-6.44-5.891-2.913-6.027-.03-13.239 3.614-18.259 3.061-4.177 6.971-7.663 11.638-9.976 5.358-2.657 10.924-3.514 16.714-1.691 9.853 3.177 14.682 13.21 21.509 20.172Zm-8.959.199c-3.97-4.652-8.282-11.642-14.47-13.68-3.802-1.252-7.54-.827-11.678 1.224-3.519 1.744-6.457 4.276-8.907 7.576-2.135 2.876-4.994 7.841-3.115 11.517 1.892 3.514 7.257 3.601 10.676 3.519 7.785-.184 15.615.234 23.383.726.185-3.195 2.385-8.297 4.111-10.882Z"/>
    <path fill="currentColor" d="M90.043 141.138c0-7.924-6.456-14.347-14.418-14.347-7.963 0-14.419 6.423-14.419 14.347 0 7.923 6.456 14.347 14.419 14.347v6.954c-11.823 0-21.407-9.537-21.407-21.301 0-11.764 9.584-21.301 21.407-21.301 11.822 0 21.406 9.537 21.407 21.301 0 11.764-9.585 21.301-21.407 21.301v-6.954c7.963 0 14.418-6.424 14.418-14.347Z"/>
  </g>
  <path fill="currentColor" d="M266.25 291.812h-126v7.425h126v-7.425Zm0 11.138h-126v7.425h126v-7.425Zm0 11.137h-126v7.425h126v-7.425Zm-37.8 11.138h-88.2v7.425h88.2v-7.425Z"/>
  <path stroke="currentColor" stroke-linecap="round" stroke-linejoin="round" stroke-width="5.489" d="m212.65 170.019 14.443-7.298a3.149 3.149 0 0 1 4.188 1.306c.263.477.401 1.014.402 1.561v21.686a3.245 3.245 0 0 1-.402 1.561 3.186 3.186 0 0 1-1.103 1.165 3.146 3.146 0 0 1-3.085.141l-14.443-7.297v-12.825Zm-38.066-6.413c0-1.7.669-3.331 1.858-4.534a6.31 6.31 0 0 1 4.487-1.878h25.377a6.31 6.31 0 0 1 4.486 1.878 6.448 6.448 0 0 1 1.858 4.534v25.65a6.444 6.444 0 0 1-1.858 4.534 6.31 6.31 0 0 1-4.486 1.878h-25.377a6.31 6.31 0 0 1-4.487-1.878 6.449 6.449 0 0 1-1.858-4.534v-25.65Z"/>
  <defs>
    <clipPath id="a">
      <path fill="#fff" d="M12.6 78h123v121h-123z"/>
    </clipPath>
  </defs>
</svg>
