<svg xmlns="http://www.w3.org/2000/svg" width="210" height="297" fill="none" viewBox="0 0 210 297">
  <style>
    /* Default color for standalone viewing - overridden by currentColor when embedded in HTML */
    svg {
      color: #636363;
    }
  </style>
  <g clip-path="url(#a)">
    <path fill="#fff" d="M210 0H0v297h210V0Z"/>
    <path fill="currentColor" d="M169.208 220.302h-126v7.425h126v-7.425Zm0 11.138h-126v7.425h126v-7.425Zm0 11.137h-126v7.425h126v-7.425Zm-37.8 11.138h-88.2v7.425h88.2v-7.425Z"/>
    <g clip-path="url(#b)">
      <path fill="currentColor" d="M46.728 92.007c-1.076 3.873 7.543 9.277 10.905 8.185-2.9 6.385-5.309 13.112-7.358 19.81-.712 2.268-1.7 4.445-3.258 6.262-1.382 1.584-3.174 2.66-5.266 2.967-4.603.621-8.752-2.82-11.289-6.291-2.105-2.908-3.573-6.224-4.104-9.786-.61-4.09.012-7.931 2.453-11.344 4.202-5.791 11.86-6.811 17.917-9.803Zm-1.782 5.928c-3.921 1.611-9.459 2.944-12.126 6.572-1.639 2.23-2.157 4.776-1.686 7.935.401 2.686 1.446 5.159 3.102 7.476 1.444 2.02 4.113 4.963 6.942 4.518 2.725-.489 3.928-3.995 4.605-6.259 1.54-5.154 3.489-10.209 5.472-15.206-2.07-.807-4.97-3.347-6.31-5.036Z"/>
      <path fill="currentColor" d="M56.477 99.819c3.353 2.22 11.158-4.305 11.158-7.838 5.178 4.73 10.835 9.099 16.574 13.117 1.938 1.377 3.703 2.99 4.95 5.032 1.08 1.803 1.551 3.84 1.196 5.923-.831 4.568-5.387 7.448-9.474 8.788-3.416 1.103-7.026 1.473-10.579.878-4.08-.684-7.542-2.462-10.035-5.838-4.211-5.784-2.815-13.38-3.79-20.062Zm5.09 3.526c.32 4.225-.123 9.901 2.505 13.558 1.615 2.247 3.878 3.527 7.029 4.055 2.68.449 5.355.22 8.072-.639 2.368-.748 5.993-2.376 6.443-5.203.377-2.742-2.587-4.969-4.532-6.312-4.428-3.057-8.634-6.471-12.776-9.901-1.409 1.718-4.72 3.691-6.741 4.442Z"/>
      <path fill="currentColor" d="M66.923 92.964c3.148-2.5-.648-11.937-4.01-13.029 6.102-3.461 12.005-7.489 17.602-11.703 1.909-1.417 3.989-2.597 6.317-3.151 2.05-.47 4.133-.288 6.005.693 4.09 2.202 5.422 7.423 5.434 11.722-.007 3.59-.77 7.135-2.434 10.329-1.912 3.667-4.673 6.409-8.655 7.736-6.805 2.216-13.6-1.458-20.26-2.597Zm4.927-3.749c4.12 1 9.383 3.176 13.674 1.808 2.637-.84 4.554-2.597 6.03-5.429 1.255-2.408 1.864-5.023 1.887-7.87.02-2.484-.409-6.433-2.96-7.734-2.492-1.206-5.527.924-7.405 2.358-4.278 3.264-8.826 6.209-13.37 9.087 1.2 1.869 2.054 5.627 2.144 7.78Z"/>
      <path fill="currentColor" d="M63.628 80.916c-1.406-3.766-11.558-3.073-13.635-.214-1.408-6.87-3.416-13.728-5.696-20.35-.758-2.253-1.238-4.595-1.046-6.98.186-2.093 1.003-4.018 2.515-5.494 3.36-3.208 8.739-2.86 12.832-1.544 3.413 1.116 6.55 2.936 9.075 5.506 2.899 2.95 4.654 6.423 4.686 10.618.006 7.155-5.59 12.48-8.73 18.458Zm-2.044-5.843c2.225-3.607 5.921-7.938 5.946-12.44.015-2.768-1.064-5.132-3.302-7.41-1.904-1.938-4.204-3.325-6.906-4.227-2.356-.786-6.246-1.599-8.273.424-1.917 1.997-.828 5.54-.045 7.77 1.785 5.074 3.18 10.308 4.515 15.516 2.15-.563 5.99-.212 8.065.367Z"/>
      <path fill="currentColor" d="M51.147 80.325c-4.017.173-6.495 10.038-4.417 12.896-6.972-.785-14.117-.995-21.122-.874-2.378.025-4.754-.242-6.964-1.162-1.934-.824-3.513-2.195-4.45-4.089-2.014-4.184-.022-9.191 2.496-12.676 2.116-2.9 4.818-5.32 8.043-6.926 3.703-1.844 7.55-2.44 11.55-1.173 6.81 2.205 10.146 9.17 14.864 14.004Zm-6.19.137c-2.745-3.23-5.724-8.082-10-9.496-2.628-.87-5.211-.575-8.07.85-2.432 1.21-4.463 2.967-6.156 5.258-1.475 1.997-3.45 5.444-2.153 7.996 1.308 2.44 5.015 2.5 7.378 2.443 5.38-.128 10.791.162 16.16.504.127-2.218 1.647-5.76 2.84-7.555Z"/>
      <path fill="currentColor" d="M66.885 89.21c0-5.5-4.461-9.96-9.964-9.96s-9.964 4.46-9.964 9.96c0 5.5 4.461 9.96 9.964 9.96v4.827c-8.17 0-14.793-6.62-14.793-14.787 0-8.167 6.623-14.787 14.793-14.787 8.17 0 14.793 6.62 14.793 14.787 0 8.167-6.623 14.787-14.793 14.787V99.17c5.503 0 9.964-4.46 9.964-9.96Z"/>
    </g>
    <g clip-path="url(#c)">
      <path stroke="currentColor" stroke-linecap="round" stroke-linejoin="round" stroke-width="5.489" d="m164.805 79.179 14.443-7.298a3.146 3.146 0 0 1 3.085.14c.46.288.84.689 1.103 1.166s.402 1.014.402 1.56v21.687c0 .547-.139 1.084-.402 1.561a3.189 3.189 0 0 1-1.103 1.165 3.147 3.147 0 0 1-3.085.14l-14.443-7.297V79.18Zm-38.065-6.413c0-1.7.668-3.332 1.858-4.534a6.308 6.308 0 0 1 4.486-1.878h25.377a6.31 6.31 0 0 1 4.486 1.878 6.447 6.447 0 0 1 1.858 4.534v25.65a6.444 6.444 0 0 1-1.858 4.534 6.308 6.308 0 0 1-4.486 1.878h-25.377a6.306 6.306 0 0 1-4.486-1.878 6.444 6.444 0 0 1-1.858-4.534v-25.65Z"/>
    </g>
  </g>
  <defs>
    <clipPath id="a">
      <path fill="#fff" d="M0 0h210v297H0z"/>
    </clipPath>
    <clipPath id="b">
      <path fill="#fff" d="M13.367 45.379h85v84h-85z"/>
    </clipPath>
    <clipPath id="c">
      <path fill="#fff" d="M123.567 63.148h63.676v45.012h-63.676z"/>
    </clipPath>
  </defs>
</svg>
