<svg width="297" height="210" viewBox="0 0 297 210" fill="none" xmlns="http://www.w3.org/2000/svg">
  <style>
    /* Default color for standalone viewing - overridden by currentColor when embedded in HTML */
    svg {
      color: #636363;
    }
  </style>
<g clip-path="url(#clip0_5987_540)">
<path d="M297 0H0V210H297V0Z" fill="white"/>
<path d="M274.036 143.004H157V155.173H274.036V143.004Z" fill="currentColor"/>
<path d="M274.036 160.041H157V172.21H274.036V160.041Z" fill="currentColor"/>
<path d="M238.925 177.078H157V189.248H238.925V177.078Z" fill="currentColor"/>
<g clip-path="url(#clip1_5987_540)">
<path d="M58.7151 102.518C57.5628 106.714 66.7911 112.568 70.3902 111.385C67.2843 118.302 64.7063 125.59 62.5123 132.845C61.7509 135.302 60.6923 137.66 59.0245 139.629C57.5455 141.345 55.6262 142.511 53.3869 142.843C48.4586 143.516 44.0177 139.788 41.3013 136.028C39.0476 132.878 37.4761 129.285 36.9072 125.426C36.2539 120.996 36.9199 116.835 39.5333 113.138C44.0321 106.863 52.2308 105.758 58.7151 102.518ZM56.8072 108.94C52.6095 110.685 46.6811 112.128 43.8257 116.059C42.0709 118.474 41.5166 121.233 42.0211 124.655C42.4501 127.565 43.5685 130.244 45.3417 132.755C46.8874 134.943 49.7448 138.131 52.7734 137.648C55.6911 137.119 56.9791 133.32 57.7035 130.868C59.3526 125.284 61.4389 119.809 63.5619 114.395C61.3455 113.52 58.2404 110.769 56.8072 108.94Z" fill="currentColor"/>
<path d="M69.1531 110.98C72.7421 113.385 81.0984 106.317 81.0981 102.489C86.6424 107.614 92.6978 112.346 98.8421 116.699C100.917 118.191 102.807 119.938 104.142 122.15C105.299 124.103 105.803 126.31 105.422 128.567C104.532 133.516 99.6546 136.636 95.2799 138.087C91.6218 139.282 87.7579 139.683 83.954 139.038C79.586 138.298 75.8796 136.371 73.2108 132.714C68.702 126.448 70.1962 118.219 69.1531 110.98ZM74.6017 114.8C74.9455 119.377 74.4709 125.527 77.2841 129.488C79.0129 131.922 81.436 133.308 84.809 133.88C87.6773 134.367 90.5422 134.119 93.4509 133.189C95.9859 132.378 99.8666 130.615 100.349 127.552C100.752 124.581 97.5789 122.169 95.4968 120.714C90.7565 117.402 86.2528 113.703 81.8184 109.988C80.3109 111.85 76.7648 113.987 74.6017 114.8Z" fill="currentColor"/>
<path d="M80.3355 103.554C83.7058 100.845 79.6421 90.6218 76.043 89.4393C82.5751 85.6895 88.8957 81.3264 94.8869 76.761C96.9306 75.2261 99.1575 73.9475 101.65 73.3468C103.844 72.8377 106.075 73.0352 108.079 74.0982C112.457 76.4839 113.884 82.1402 113.897 86.7969C113.889 90.6853 113.073 94.5261 111.291 97.9862C109.245 101.959 106.288 104.93 102.025 106.367C94.7396 108.768 87.4642 104.788 80.3355 103.554ZM85.6109 99.493C90.021 100.577 95.656 102.934 100.25 101.452C103.073 100.541 105.125 98.6381 106.705 95.57C108.049 92.9608 108.701 90.1283 108.726 87.043C108.747 84.3535 108.288 80.0754 105.557 78.6652C102.889 77.359 99.6396 79.6662 97.6286 81.2197C93.0496 84.7565 88.1798 87.9459 83.3162 91.0637C84.6011 93.089 85.5145 97.1607 85.6109 99.493Z" fill="currentColor"/>
<path d="M76.8086 90.5023C75.3027 86.4225 64.4346 87.1727 62.2106 90.2698C60.7034 82.8272 58.5543 75.3985 56.113 68.2242C55.3013 65.7839 54.7873 63.2465 54.9929 60.6627C55.1922 58.3949 56.067 56.3102 57.6859 54.7106C61.2819 51.236 67.0411 51.6117 71.4235 53.0385C75.0772 54.247 78.4365 56.2193 81.1391 59.0029C84.2424 62.199 86.1216 65.9613 86.1557 70.5062C86.1619 78.2568 80.1712 84.0253 76.8086 90.5023ZM74.6202 84.1723C77.0022 80.2648 80.9594 75.5722 80.9855 70.6947C81.0015 67.6974 79.8465 65.1356 77.4502 62.6674C75.4123 60.5685 72.9504 59.0657 70.057 58.0889C67.5348 57.2375 63.3705 56.3569 61.2005 58.5482C59.1478 60.7113 60.3133 64.55 61.1524 66.9647C63.0629 72.4624 64.5569 78.1326 65.9855 83.7748C68.2869 83.1648 72.3976 83.5445 74.6202 84.1723Z" fill="currentColor"/>
<path d="M63.4467 89.8614C59.1454 90.0497 56.4924 100.736 58.7172 103.833C51.2534 102.983 43.6045 102.755 36.1045 102.886C33.5593 102.913 31.0146 102.623 28.6487 101.627C26.578 100.735 24.8882 99.2488 23.8844 97.1971C21.7287 92.6641 23.8616 87.2399 26.5575 83.465C28.8227 80.3236 31.7152 77.7015 35.1676 75.9618C39.1318 73.9642 43.2499 73.3191 47.5339 74.6906C54.8231 77.0796 58.3959 84.6252 63.4467 89.8614ZM56.8187 90.0107C53.8808 86.5119 50.6914 81.2548 46.1134 79.7225C43.3002 78.7808 40.5345 79.1004 37.4733 80.6429C34.87 81.9548 32.6963 83.8585 30.8837 86.3404C29.3038 88.5034 27.189 92.2373 28.5788 95.0018C29.9784 97.645 33.9478 97.7101 36.4776 97.6489C42.2372 97.5101 48.0303 97.8249 53.7769 98.1944C53.9144 95.7918 55.5416 91.9549 56.8187 90.0107Z" fill="currentColor"/>
<path d="M80.2951 99.4874C80.2948 93.5282 75.5191 88.6977 69.6279 88.6977C63.7367 88.6977 58.9607 93.5282 58.9607 99.4874C58.9607 105.446 63.7367 110.277 69.6279 110.277V115.507C60.881 115.507 53.7903 108.335 53.7903 99.4874C53.7903 90.64 60.881 83.4678 69.6279 83.4678C78.3748 83.4678 85.4653 90.64 85.4655 99.4874C85.4655 108.335 78.3748 115.507 69.6279 115.507V110.277C75.5191 110.277 80.2951 105.446 80.2951 99.4874Z" fill="currentColor"/>
</g>
<g clip-path="url(#clip2_5987_540)">
<path d="M226.105 88.5744L244.704 79.177C245.327 78.8626 246.019 78.7141 246.714 78.7458C247.409 78.7774 248.085 78.9881 248.677 79.3579C249.27 79.7277 249.759 80.2442 250.098 80.8586C250.437 81.473 250.615 82.1647 250.615 82.8683V110.796C250.615 111.5 250.437 112.191 250.098 112.806C249.759 113.42 249.27 113.937 248.677 114.306C248.085 114.676 247.409 114.887 246.714 114.919C246.019 114.95 245.327 114.802 244.704 114.487L226.105 105.09V88.5744ZM177.085 80.3166C177.085 78.1265 177.946 76.0261 179.478 74.4775C181.01 72.9289 183.088 72.0588 185.255 72.0588H217.935C220.102 72.0588 222.18 72.9289 223.712 74.4775C225.244 76.0261 226.105 78.1265 226.105 80.3166V113.348C226.105 115.538 225.244 117.638 223.712 119.187C222.18 120.735 220.102 121.605 217.935 121.605H185.255C183.088 121.605 181.01 120.735 179.478 119.187C177.946 117.638 177.085 115.538 177.085 113.348V80.3166Z" stroke="currentColor" stroke-width="7.06902" stroke-linecap="round" stroke-linejoin="round"/>
</g>
</g>
<defs>
<clipPath id="clip0_5987_540">
<rect width="297" height="210" fill="white"/>
</clipPath>
<clipPath id="clip1_5987_540">
<rect width="91" height="91" fill="white" transform="translate(23 52.0035)"/>
</clipPath>
<clipPath id="clip2_5987_540">
<rect width="82.0006" height="57.966" fill="white" transform="translate(173 67.9301)"/>
</clipPath>
</defs>
</svg>
