<svg width="297" height="210" viewBox="0 0 297 210" fill="none" xmlns="http://www.w3.org/2000/svg">
  <style>
    /* Default color for standalone viewing - overridden by currentColor when embedded in HTML */
    svg {
      color: #636363;
    }
  </style>
<g clip-path="url(#clip0_5995_1456)">
<path d="M297 0H0V210H297V0Z" fill="white"/>
<path d="M142.036 143.004H25V155.173H142.036V143.004Z" fill="currentColor"/>
<path d="M142.036 160.041H25V172.21H142.036V160.041Z" fill="currentColor"/>
<path d="M106.925 177.078H25V189.248H106.925V177.078Z" fill="currentColor"/>
<g clip-path="url(#clip1_5995_1456)">
<path d="M66.7151 78.5142C65.5628 82.7101 74.7911 88.5644 78.3902 87.3812C75.2843 94.2985 72.7063 101.586 70.5123 108.842C69.7509 111.298 68.6923 113.657 67.0245 115.625C65.5455 117.341 63.6262 118.508 61.3869 118.839C56.4586 119.512 52.0177 115.784 49.3013 112.024C47.0476 108.874 45.4761 105.282 44.9072 101.423C44.2539 96.9921 44.9199 92.8312 47.5333 89.134C52.0321 82.8599 60.2308 81.7546 66.7151 78.5142ZM64.8072 84.9362C60.6095 86.6814 54.6811 88.1249 51.8257 92.0554C50.0709 94.4708 49.5166 97.2298 50.0211 100.651C50.4501 103.561 51.5685 106.241 53.3417 108.751C54.8874 110.939 57.7448 114.128 60.7734 113.645C63.6911 113.115 64.9791 109.317 65.7035 106.865C67.3526 101.281 69.4389 95.8052 71.5619 90.3915C69.3455 89.5168 66.2404 86.7656 64.8072 84.9362Z" fill="currentColor"/>
<path d="M77.1531 86.9766C80.7421 89.3818 89.0984 82.3134 89.0981 78.4854C94.6424 83.6106 100.698 88.3429 106.842 92.6955C108.917 94.187 110.807 95.9343 112.142 98.1468C113.299 100.1 113.803 102.307 113.422 104.563C112.532 109.512 107.655 112.633 103.28 114.084C99.6218 115.278 95.7579 115.68 91.954 115.035C87.586 114.294 83.8796 112.367 81.2108 108.711C76.702 102.445 78.1962 94.2158 77.1531 86.9766ZM82.6017 90.7965C82.9455 95.374 82.4709 101.523 85.2841 105.485C87.0129 107.919 89.436 109.305 92.809 109.877C95.6773 110.363 98.5422 110.115 101.451 109.185C103.986 108.375 107.867 106.611 108.349 103.548C108.752 100.578 105.579 98.1654 103.497 96.7107C98.7565 93.3986 94.2528 89.6998 89.8184 85.9842C88.3109 87.8461 84.7648 89.983 82.6017 90.7965Z" fill="currentColor"/>
<path d="M88.3355 79.5507C91.7058 76.8414 87.6421 66.6182 84.043 65.4358C90.5751 61.6859 96.8957 57.3229 102.887 52.7574C104.931 51.2226 107.157 49.944 109.65 49.3433C111.844 48.8342 114.075 49.0317 116.079 50.0946C120.457 52.4803 121.884 58.1367 121.897 62.7934C121.889 66.6818 121.073 70.5226 119.291 73.9827C117.245 77.9558 114.288 80.9262 110.025 82.3633C102.74 84.7644 95.4642 80.7842 88.3355 79.5507ZM93.6109 75.4894C98.021 76.5733 103.656 78.9302 108.25 77.448C111.073 76.5372 113.125 74.6346 114.705 71.5665C116.049 68.9573 116.701 66.1248 116.726 63.0394C116.747 60.35 116.288 56.0719 113.557 54.6617C110.889 53.3555 107.64 55.6627 105.629 57.2162C101.05 60.7529 96.1798 63.9424 91.3162 67.0602C92.6011 69.0854 93.5145 73.1572 93.6109 75.4894Z" fill="currentColor"/>
<path d="M84.8086 66.4988C83.3027 62.4189 72.4346 63.1691 70.2106 66.2663C68.7034 58.8236 66.5543 51.3949 64.113 44.2206C63.3013 41.7804 62.7873 39.243 62.9929 36.6592C63.1922 34.3914 64.067 32.3066 65.6859 30.707C69.2819 27.2325 75.0411 27.6082 79.4235 29.035C83.0772 30.2434 86.4365 32.2158 89.1391 34.9993C92.2424 38.1954 94.1216 41.9577 94.1557 46.5026C94.1619 54.2532 88.1712 60.0218 84.8086 66.4988ZM82.6202 60.1688C85.0022 56.2613 88.9594 51.5686 88.9855 46.6912C89.0015 43.6938 87.8465 41.132 85.4502 38.6639C83.4123 36.5649 80.9504 35.0621 78.057 34.0853C75.5348 33.2339 71.3705 32.3534 69.2005 34.5447C67.1478 36.7078 68.3133 40.5464 69.1524 42.9612C71.0629 48.4589 72.5569 54.1291 73.9855 59.7713C76.2869 59.1612 80.3976 59.5409 82.6202 60.1688Z" fill="currentColor"/>
<path d="M71.4467 65.8578C67.1454 66.0461 64.4924 76.7326 66.7172 79.8295C59.2534 78.9791 51.6045 78.7511 44.1045 78.8826C41.5593 78.9093 39.0146 78.6198 36.6487 77.6235C34.578 76.731 32.8882 75.2452 31.8844 73.1935C29.7287 68.6605 31.8616 63.2364 34.5575 59.4614C36.8227 56.3201 39.7152 53.698 43.1676 51.9583C47.1318 49.9606 51.2499 49.3155 55.5339 50.6871C62.8231 53.076 66.3959 60.6217 71.4467 65.8578ZM64.8187 66.0072C61.8808 62.5084 58.6914 57.2513 54.1134 55.7189C51.3002 54.7773 48.5345 55.0968 45.4733 56.6394C42.87 57.9513 40.6963 59.855 38.8837 62.3368C37.3038 64.4999 35.189 68.2338 36.5788 70.9983C37.9784 73.6415 41.9478 73.7066 44.4776 73.6454C50.2372 73.5066 56.0303 73.8214 61.7769 74.1909C61.9144 71.7883 63.5416 67.9514 64.8187 66.0072Z" fill="currentColor"/>
<path d="M88.2951 75.484C88.2948 69.5248 83.5191 64.6942 77.6279 64.6942C71.7367 64.6942 66.9607 69.5248 66.9607 75.484C66.9607 81.4429 71.7367 86.2735 77.6279 86.2735V91.5034C68.881 91.5034 61.7903 84.3314 61.7903 75.484C61.7903 66.6366 68.881 59.4644 77.6279 59.4644C86.3748 59.4644 93.4653 66.6366 93.4655 75.484C93.4655 84.3314 86.3748 91.5034 77.6279 91.5034V86.2735C83.5191 86.2735 88.2951 81.4429 88.2951 75.484Z" fill="currentColor"/>
</g>
<g clip-path="url(#clip2_5995_1456)">
<path d="M226.105 88.5744L244.704 79.177C245.327 78.8626 246.019 78.7141 246.714 78.7458C247.409 78.7774 248.085 78.9881 248.677 79.3579C249.27 79.7277 249.759 80.2442 250.098 80.8586C250.437 81.473 250.615 82.1647 250.615 82.8683V110.796C250.615 111.5 250.437 112.191 250.098 112.806C249.759 113.42 249.27 113.937 248.677 114.306C248.085 114.676 247.409 114.887 246.714 114.919C246.019 114.95 245.327 114.802 244.704 114.487L226.105 105.09V88.5744ZM177.085 80.3166C177.085 78.1265 177.946 76.0261 179.478 74.4775C181.01 72.9289 183.088 72.0588 185.255 72.0588H217.935C220.102 72.0588 222.18 72.9289 223.712 74.4775C225.244 76.0261 226.105 78.1265 226.105 80.3166V113.348C226.105 115.538 225.244 117.638 223.712 119.187C222.18 120.735 220.102 121.605 217.935 121.605H185.255C183.088 121.605 181.01 120.735 179.478 119.187C177.946 117.638 177.085 115.538 177.085 113.348V80.3166Z" stroke="currentColor" stroke-width="7.06902" stroke-linecap="round" stroke-linejoin="round"/>
</g>
</g>
<defs>
<clipPath id="clip0_5995_1456">
<rect width="297" height="210" fill="white"/>
</clipPath>
<clipPath id="clip1_5995_1456">
<rect width="91" height="91" fill="white" transform="translate(31 28)"/>
</clipPath>
<clipPath id="clip2_5995_1456">
<rect width="82.0006" height="57.966" fill="white" transform="translate(173 67.9301)"/>
</clipPath>
</defs>
</svg>
