<svg width="297" height="210" viewBox="0 0 297 210" fill="none" xmlns="http://www.w3.org/2000/svg">
  <style>
    /* Default color for standalone viewing - overridden by currentColor when embedded in HTML */
    svg {
      color: #636363;
    }
  </style>
<g clip-path="url(#clip0_5995_1410)">
<mask id="mask0_5995_1410" style="mask-type:luminance" maskUnits="userSpaceOnUse" x="0" y="0" width="297" height="210">
<path d="M0 0H297V210H0V0Z" fill="white"/>
</mask>
<g mask="url(#mask0_5995_1410)">
<path d="M297 0H0V210H297V0Z" fill="white"/>
<path d="M273.036 143.004H24.8032V155.173H273.036V143.004ZM273.036 160.041H24.8032V172.21H273.036V160.041ZM198.566 177.078H24.8032V189.248H198.566V177.078Z" fill="currentColor"/>
<mask id="mask1_5995_1410" style="mask-type:luminance" maskUnits="userSpaceOnUse" x="30" y="33" width="88" height="87">
<path d="M30.9375 33.9782H117.322V119.713H30.9375V33.9782Z" fill="white"/>
</mask>
<g mask="url(#mask1_5995_1410)">
<path d="M64.8419 81.5697C63.7475 85.5233 72.5081 91.0389 75.9245 89.9237C72.9758 96.4409 70.5291 103.307 68.4461 110.143C67.7232 112.457 66.7184 114.679 65.1355 116.534C63.7313 118.151 61.9094 119.25 59.7836 119.562C55.1052 120.196 50.8892 116.684 48.3106 113.141C46.1718 110.173 44.6799 106.789 44.1395 103.153C43.5192 98.9785 44.1518 95.0587 46.6323 91.5754C50.9028 85.6642 58.6865 84.623 64.8419 81.5697ZM63.0298 87.6205C59.0457 89.2644 53.4177 90.6245 50.7073 94.3274C49.0413 96.6032 48.5152 99.2026 48.9939 102.426C49.4012 105.168 50.4631 107.692 52.1466 110.058C53.6139 112.119 56.3262 115.123 59.201 114.668C61.9711 114.169 63.1935 110.59 63.8813 108.28C65.4466 103.019 67.4276 97.8607 69.4424 92.7601C67.338 91.9359 64.3899 89.3437 63.0298 87.6205Z" fill="currentColor"/>
<path d="M74.7495 89.5424C78.1568 91.8086 86.0893 85.1492 86.0893 81.5424C91.3523 86.3715 97.1004 90.8298 102.933 94.9308C104.902 96.3363 106.697 97.9822 107.964 100.066C109.062 101.907 109.54 103.986 109.179 106.112C108.334 110.775 103.705 113.715 99.5517 115.081C96.0788 116.207 92.411 116.585 88.8003 115.977C84.6532 115.28 81.1348 113.465 78.6018 110.02C74.3215 104.115 75.7394 96.3629 74.7495 89.5424ZM79.9222 93.1414C80.2483 97.4541 79.7975 103.248 82.4683 106.98C84.1096 109.273 86.4095 110.579 89.6116 111.119C92.3343 111.576 95.0538 111.343 97.8149 110.466C100.222 109.703 103.905 108.041 104.363 105.155C104.746 102.357 101.734 100.084 99.7576 98.7135C95.2578 95.5933 90.982 92.1087 86.7726 88.6078C85.3417 90.3621 81.9753 92.375 79.9222 93.1414Z" fill="currentColor"/>
<path d="M85.3651 82.5466C88.5645 79.994 84.7065 70.3618 81.29 69.2479C87.4909 65.7152 93.4911 61.6044 99.1782 57.3034C101.118 55.8569 103.232 54.6527 105.599 54.0864C107.682 53.607 109.799 53.7928 111.701 54.7943C115.858 57.0416 117.212 62.3715 117.224 66.7583C117.217 70.4215 116.442 74.0406 114.75 77.3005C112.808 81.0436 110.001 83.8423 105.955 85.1966C99.0385 87.4582 92.1323 83.7085 85.3651 82.5466ZM90.3728 78.7203C94.5595 79.7413 99.9082 81.962 104.27 80.5656C106.95 79.7076 108.897 77.9149 110.397 75.024C111.673 72.5662 112.292 69.8974 112.315 66.9902C112.335 64.4571 111.9 60.4262 109.307 59.0973C106.774 57.8665 103.69 60.0404 101.781 61.5044C97.4342 64.8364 92.8117 67.841 88.1943 70.7788C89.4141 72.6864 90.2812 76.523 90.3728 78.7203Z" fill="currentColor"/>
<path d="M82.0168 70.2495C80.5879 66.4057 70.2704 67.1123 68.1595 70.0306C66.7286 63.0185 64.6885 56.0194 62.3711 49.2606C61.6008 46.9613 61.1123 44.5711 61.3078 42.1368C61.4968 39.9999 62.3276 38.0358 63.8643 36.5289C67.2781 33.2554 72.745 33.6093 76.9051 34.9532C80.3735 36.0918 83.5626 37.95 86.1282 40.5727C89.0737 43.5839 90.8579 47.1282 90.8904 51.4105C90.8962 58.7122 85.2091 64.1473 82.0168 70.2495ZM79.9397 64.2857C82.2006 60.6043 85.9574 56.183 85.982 51.5878C85.9976 48.7644 84.9006 46.3508 82.626 44.0249C80.6918 42.0478 78.3542 40.6318 75.6081 39.7115C73.214 38.9093 69.2604 38.0799 67.2008 40.1441C65.2523 42.1822 66.3584 45.7987 67.1554 48.0739C68.9688 53.2538 70.3867 58.596 71.7428 63.9116C73.9278 63.3367 77.83 63.694 79.9397 64.2857ZM69.3325 69.6461C65.2497 69.8234 62.7309 79.8914 64.8431 82.809C57.7583 82.0082 50.4967 81.7932 43.3768 81.9173C40.9606 81.9419 38.5458 81.6692 36.2998 80.7306C34.3337 79.8901 32.7301 78.4898 31.7772 76.5569C29.7306 72.2863 31.7551 67.176 34.3142 63.6193C36.4647 60.6601 39.2109 58.1894 42.4883 56.5507C46.2509 54.6684 50.1603 54.0605 54.2269 55.353C61.1467 57.6035 64.5385 64.7124 69.3325 69.6461ZM63.0407 69.7864C60.2517 66.4901 57.2244 61.5376 52.8785 60.0937C50.2084 59.2065 47.5824 59.5072 44.6765 60.9608C42.2058 62.1969 40.1423 63.9902 38.4217 66.3284C36.9213 68.3665 34.9144 71.8843 36.2329 74.4888C37.5618 76.979 41.3302 77.0407 43.7314 76.9829C49.199 76.8517 54.6984 77.1486 60.1536 77.4967C60.2835 75.2332 61.8287 71.618 63.0407 69.7864Z" fill="currentColor"/>
<path d="M85.3267 78.7151C85.3267 73.1008 80.7931 68.5496 75.2009 68.5496C69.6086 68.5496 65.0744 73.1008 65.0744 78.7151C65.0744 84.3288 69.6079 88.8799 75.2002 88.8799V93.8078C66.8975 93.8078 60.166 87.0503 60.166 78.7151C60.166 70.3793 66.8975 63.6218 75.2009 63.6218C83.5035 63.6218 90.2344 70.3793 90.2351 78.7151C90.2351 87.0503 83.5035 93.8078 75.2002 93.8078V88.8799C80.7925 88.8799 85.3267 84.3288 85.3267 78.7151Z" fill="currentColor"/>
</g>
</g>
<path d="M221.671 69.18L242.057 58.9892C242.739 58.6482 243.498 58.4872 244.26 58.5215C245.022 58.5559 245.763 58.7844 246.412 59.1854C247.061 59.5864 247.597 60.1465 247.968 60.8128C248.34 61.479 248.536 62.2292 248.536 62.9921V93.2779C248.536 94.0408 248.34 94.791 247.968 95.4572C247.597 96.1235 247.061 96.6837 246.412 97.0847C245.763 97.4857 245.022 97.7142 244.26 97.7485C243.498 97.7828 242.739 97.6218 242.057 97.2808L221.671 87.09V69.18ZM167.941 60.225C167.941 57.85 168.884 55.5723 170.564 53.8929C172.243 52.2135 174.521 51.27 176.896 51.27H212.716C215.091 51.27 217.369 52.2135 219.048 53.8929C220.727 55.5723 221.671 57.85 221.671 60.225V96.045C221.671 98.42 220.727 100.698 219.048 102.377C217.369 104.057 215.091 105 212.716 105H176.896C174.521 105 172.243 104.057 170.564 102.377C168.884 100.698 167.941 98.42 167.941 96.045V60.225Z" stroke="currentColor" stroke-width="6" stroke-linecap="round" stroke-linejoin="round"/>
</g>
<defs>
<clipPath id="clip0_5995_1410">
<rect width="297" height="210" fill="white"/>
</clipPath>
</defs>
</svg>
