<svg width="210" height="297" viewBox="0 0 210 297" fill="none" xmlns="http://www.w3.org/2000/svg">
  <style>
    /* Default color for standalone viewing - overridden by currentColor when embedded in HTML */
    svg {
      color: #636363;
    }
  </style>
<g clip-path="url(#clip0_5995_1433)">
<path d="M210 0H0V297H210V0Z" fill="white"/>
<path d="M105 221.911H22.8188V228.445H105V221.911Z" fill="currentColor"/>
<path d="M105 212.437H22.8188V218.971H105V212.437Z" fill="currentColor"/>
<path d="M105 231.385H22.8188V237.919H105V231.385Z" fill="currentColor"/>
<path d="M80.3456 240.86H22.8188V247.394H80.3456V240.86Z" fill="currentColor"/>
<mask id="mask0_5995_1433" style="mask-type:luminance" maskUnits="userSpaceOnUse" x="11" y="39" width="88" height="86">
<path d="M11.8037 39.0223H98.1885V124.758H11.8037V39.0223Z" fill="white"/>
</mask>
<g mask="url(#mask0_5995_1433)">
<path d="M45.7082 86.6138C44.6137 90.5674 53.3743 96.083 56.7907 94.9678C53.842 101.485 51.3953 108.351 49.3123 115.187C48.5894 117.501 47.5846 119.723 46.0017 121.578C44.5975 123.195 42.7756 124.294 40.6498 124.606C35.9714 125.24 31.7554 121.728 29.1768 118.185C27.038 115.218 25.5461 111.833 25.0057 108.197C24.3854 104.023 25.018 100.103 27.4985 96.6195C31.769 90.7083 39.5528 89.6672 45.7082 86.6138ZM43.896 92.6646C39.9119 94.3086 34.2839 95.6686 31.5735 99.3715C29.9075 101.647 29.3814 104.247 29.8601 107.47C30.2674 110.212 31.3293 112.736 33.0128 115.102C34.4801 117.163 37.1924 120.167 40.0672 119.712C42.8373 119.213 44.0597 115.635 44.7475 113.324C46.3129 108.063 48.2939 102.905 50.3086 97.8042C48.2042 96.98 45.2561 94.3878 43.896 92.6646Z" fill="currentColor"/>
<path d="M55.6157 94.5866C59.023 96.8527 66.9555 90.1933 66.9555 86.5865C72.2185 91.4157 77.9666 95.8739 83.7992 99.9749C85.7686 101.38 87.5631 103.026 88.8303 105.111C89.9287 106.951 90.4067 109.03 90.0456 111.156C89.2006 115.819 84.5709 118.759 80.4179 120.125C76.945 121.252 73.2772 121.63 69.6666 121.022C65.5194 120.324 62.0011 118.509 59.468 115.064C55.1877 109.16 56.6056 101.407 55.6157 94.5866ZM60.7884 98.1855C61.1145 102.498 60.6637 108.292 63.3345 112.024C64.9758 114.317 67.2757 115.624 70.4778 116.163C73.2005 116.621 75.92 116.387 78.6811 115.511C81.0882 114.747 84.7716 113.085 85.2295 110.199C85.6127 107.401 82.6002 105.128 80.6238 103.758C76.124 100.637 71.8483 97.1528 67.6388 93.6519C66.2079 95.4062 62.8415 97.4191 60.7884 98.1855Z" fill="currentColor"/>
<path d="M66.2313 87.5907C69.4308 85.0381 65.5727 75.4059 62.1562 74.292C68.3571 70.7593 74.3573 66.6486 80.0444 62.3475C81.9845 60.901 84.0986 59.6969 86.4648 59.1305C88.5478 58.6511 90.6652 58.8369 92.5676 59.8384C96.7238 62.0858 98.078 67.4156 98.0904 71.8024C98.0832 75.4656 97.3084 79.0847 95.6164 82.3446C93.6743 86.0877 90.8672 88.8865 86.8207 90.2407C79.9047 92.5023 72.9985 88.7527 66.2313 87.5907ZM71.239 83.7644C75.4257 84.7855 80.7744 87.0061 85.1359 85.6097C87.8158 84.7517 89.7637 82.959 91.2634 80.0681C92.539 77.6103 93.1586 74.9415 93.1814 72.0343C93.2015 69.5012 92.7663 65.4703 90.1735 64.1414C87.6404 62.9106 84.5565 65.0845 82.647 66.5485C78.3005 69.8805 73.6779 72.8851 69.0605 75.8229C70.2803 77.7305 71.1474 81.5671 71.239 83.7644Z" fill="currentColor"/>
<path d="M62.883 75.2936C61.4541 71.4498 51.1366 72.1565 49.0257 75.0747C47.5948 68.0626 45.5547 61.0635 43.2373 54.3047C42.467 52.0054 41.9785 49.6152 42.174 47.1809C42.363 45.044 43.1938 43.0799 44.7305 41.573C48.1443 38.2995 53.6113 38.6535 57.7714 39.9973C61.2397 41.1359 64.4288 42.9941 66.9944 45.6168C69.9399 48.628 71.7241 52.1724 71.7566 56.4546C71.7624 63.7564 66.0753 69.1914 62.883 75.2936ZM60.8059 69.3298C63.0668 65.6484 66.8236 61.2272 66.8483 56.6319C66.8638 53.8085 65.7668 51.3949 63.4922 49.069C61.558 47.0919 59.2204 45.676 56.4743 44.7556C54.0802 43.9535 50.1266 43.124 48.067 45.1882C46.1185 47.2263 47.2246 50.8428 48.0216 53.118C49.835 58.2979 51.2529 63.6401 52.6091 68.9557C54.794 68.3809 58.6963 68.7381 60.8059 69.3298ZM50.1987 74.6902C46.1159 74.8675 43.5971 84.9356 45.7093 87.8532C38.6245 87.0523 31.363 86.8373 24.243 86.9614C21.8269 86.9861 19.412 86.7133 17.166 85.7747C15.1999 84.9343 13.5963 83.5339 12.6434 81.601C10.5968 77.3304 12.6214 72.2201 15.1804 68.6634C17.3309 65.7042 20.0771 63.2335 23.3545 61.5948C27.1171 59.7125 31.0265 59.1046 35.0931 60.3971C42.013 62.6476 45.4047 69.7565 50.1987 74.6902ZM43.9069 74.8305C41.1179 71.5342 38.0906 66.5817 33.7447 65.1379C31.0746 64.2506 28.4486 64.5514 25.5427 66.005C23.072 67.241 21.0085 69.0343 19.2879 71.3725C17.7876 73.4107 15.7806 76.9284 17.0991 79.5329C18.428 82.0232 22.1964 82.0849 24.5977 82.0271C30.0652 81.8958 35.5646 82.1927 41.0199 82.5408C41.1498 80.2773 42.6949 76.6621 43.9069 74.8305Z" fill="currentColor"/>
<path d="M66.1929 83.7592C66.1929 78.1449 61.6594 73.5938 56.0671 73.5938C50.4748 73.5938 45.9406 78.1449 45.9406 83.7592C45.9406 89.3729 50.4741 93.9241 56.0664 93.9241V98.8519C47.7637 98.8519 41.0322 92.0944 41.0322 83.7592C41.0322 75.4234 47.7637 68.6659 56.0671 68.6659C64.3698 68.6659 71.1006 75.4234 71.1013 83.7592C71.1013 92.0944 64.3698 98.8519 56.0664 98.8519V93.9241C61.6587 93.9241 66.1929 89.3729 66.1929 83.7592Z" fill="currentColor"/>
</g>
<path d="M162.144 126.107L182.53 115.916C183.213 115.575 183.971 115.414 184.733 115.448C185.495 115.483 186.236 115.711 186.885 116.112C187.534 116.513 188.07 117.073 188.442 117.739C188.813 118.406 189.009 119.156 189.009 119.919V150.205C189.009 150.967 188.813 151.718 188.442 152.384C188.07 153.05 187.534 153.61 186.885 154.011C186.236 154.412 185.495 154.641 184.733 154.675C183.971 154.709 183.213 154.548 182.53 154.207L162.144 144.017V126.107ZM108.414 117.152C108.414 114.777 109.358 112.499 111.037 110.82C112.716 109.14 114.994 108.197 117.369 108.197H153.189C155.564 108.197 157.842 109.14 159.521 110.82C161.201 112.499 162.144 114.777 162.144 117.152V152.972C162.144 155.347 161.201 157.624 159.521 159.304C157.842 160.983 155.564 161.927 153.189 161.927H117.369C114.994 161.927 112.716 160.983 111.037 159.304C109.358 157.624 108.414 155.347 108.414 152.972V117.152Z" stroke="currentColor" stroke-width="6" stroke-linecap="round" stroke-linejoin="round"/>
</g>
<defs>
<clipPath id="clip0_5995_1433">
<rect width="210" height="297" fill="white"/>
</clipPath>
</defs>
</svg>
