<svg width="297" height="210" viewBox="0 0 297 210" fill="none" xmlns="http://www.w3.org/2000/svg">
  <style>
    /* Default color for standalone viewing - overridden by currentColor when embedded in HTML */
    svg {
      color: #636363;
    }
  </style>
<g clip-path="url(#clip0_5995_1484)">
<path d="M297 0H0V210H297V0Z" fill="white"/>
<path d="M168.281 138.122L198.674 123.045C199.692 122.54 200.823 122.302 201.959 122.353C203.095 122.404 204.2 122.742 205.167 123.335C206.135 123.928 206.934 124.757 207.488 125.743C208.042 126.728 208.333 127.838 208.334 128.967V173.774C208.333 174.903 208.042 176.012 207.488 176.998C206.934 177.984 206.135 178.813 205.167 179.406C204.2 179.999 203.095 180.337 201.959 180.388C200.823 180.439 199.692 180.201 198.674 179.696L168.281 164.619V138.122ZM88.1755 124.873C88.1755 121.359 89.5822 117.989 92.0859 115.505C94.5897 113.02 97.9856 111.624 101.527 111.624H154.93C158.471 111.624 161.867 113.02 164.37 115.505C166.875 117.989 168.281 121.359 168.281 124.873V177.868C168.281 181.381 166.875 184.751 164.37 187.236C161.867 189.721 158.471 191.116 154.93 191.116H101.527C97.9856 191.116 94.5897 189.721 92.0859 187.236C89.5822 184.751 88.1755 181.381 88.1755 177.868V124.873Z" stroke="currentColor" stroke-width="10" stroke-linecap="round" stroke-linejoin="round"/>
<path d="M266.293 26.4987H23.7947V38.6682H266.293V26.4987Z" fill="currentColor"/>
<path d="M266.293 43.5359H23.7947V55.7055H266.293V43.5359Z" fill="currentColor"/>
<path d="M193.542 60.5732H23.7947V72.7427H193.542V60.5732Z" fill="currentColor"/>
</g>
<defs>
<clipPath id="clip0_5995_1484">
<rect width="297" height="210" fill="white"/>
</clipPath>
</defs>
</svg>
