<svg width="297" height="210" viewBox="0 0 297 210" fill="none" xmlns="http://www.w3.org/2000/svg">
  <style>
    /* Default color for standalone viewing - overridden by currentColor when embedded in HTML */
    svg {
      color: #636363;
    }
  </style>
<g clip-path="url(#clip0_5995_1471)">
<path d="M297 0H0V210H297V0Z" fill="white"/>
<path d="M165.781 51.1217L196.174 36.0447C197.192 35.5401 198.323 35.3019 199.459 35.3528C200.595 35.4035 201.7 35.7416 202.667 36.3349C203.635 36.9281 204.434 37.7569 204.988 38.7426C205.542 39.7282 205.833 40.8381 205.834 41.9669V86.7739C205.833 87.9027 205.542 89.0125 204.988 89.9982C204.434 90.9838 203.635 91.8126 202.667 92.4059C201.7 92.9991 200.595 93.3372 199.459 93.388C198.323 93.4388 197.192 93.2006 196.174 92.6961L165.781 77.6191V51.1217ZM85.6755 37.873C85.6755 34.3592 87.0822 30.9893 89.5859 28.5048C92.0897 26.0202 95.4856 24.6243 99.0265 24.6243H152.43C155.971 24.6243 159.367 26.0202 161.87 28.5048C164.375 30.9893 165.781 34.3592 165.781 37.873V90.8677C165.781 94.3815 164.375 97.7514 161.87 100.236C159.367 102.721 155.971 104.116 152.43 104.116H99.0265C95.4856 104.116 92.0897 102.721 89.5859 100.236C87.0822 97.7514 85.6755 94.3815 85.6755 90.8677V37.873Z" stroke="currentColor" stroke-width="10" stroke-linecap="round" stroke-linejoin="round"/>
<path d="M269.656 134.09H27.1577V146.26H269.656V134.09Z" fill="currentColor"/>
<path d="M269.656 151.128H27.1577V163.297H269.656V151.128Z" fill="currentColor"/>
<path d="M196.905 168.165H27.1577V180.334H196.905V168.165Z" fill="currentColor"/>
</g>
<defs>
<clipPath id="clip0_5995_1471">
<rect width="297" height="210" fill="white"/>
</clipPath>
</defs>
</svg>
