<svg width="70" height="42" viewBox="0 0 70 42" fill="none" xmlns="http://www.w3.org/2000/svg">
<rect y="1.21075" width="70" height="40" rx="5" fill="#0C8597"/>
<rect width="56.7945" height="32" transform="translate(4 5.21075)" fill="#B0DEE4"/>
<path d="M65.3972 23.8135C66.8347 23.8135 68 22.6482 68 21.2108C68 19.7733 66.8347 18.608 65.3972 18.608C63.9597 18.608 62.7944 19.7733 62.7944 21.2108C62.7944 22.6482 63.9597 23.8135 65.3972 23.8135Z" fill="#B0DEE4"/>
<path d="M24.3272 29.9685L23.8895 29.779L23.431 29.9101L14.5918 32.4374L18.6249 27.3532L19.2605 26.5519L18.6513 25.7304C17.58 24.2855 17.0471 22.717 17.0471 21.1728C17.0471 18.5255 18.5636 15.8941 21.6531 13.8237C24.6828 11.7935 28.7674 10.6365 33.1696 10.6365C37.5719 10.6365 41.6565 11.7935 44.6861 13.8237L44.6861 13.8237C47.7758 15.8942 49.2923 18.5255 49.2923 21.1728C49.2923 23.8203 47.7758 26.4517 44.6861 28.522L44.6861 28.522C41.6565 30.5522 37.5719 31.7093 33.1696 31.7093C29.9921 31.7093 26.9438 31.1012 24.3272 29.9685Z" stroke="black" stroke-width="2"/>
</svg>
