<?xml version="1.0" encoding="UTF-8" standalone="no"?>
<svg
   width="184"
   height="118"
   viewBox="0 0 184 118"
   fill="none"
   version="1.1"
   id="svg108"
   sodipodi:docname="Choose Picture from Word-landscape.svg"
   inkscape:version="1.2.1 (9c6d41e410, 2022-07-14)"
   xmlns:inkscape="http://www.inkscape.org/namespaces/inkscape"
   xmlns:sodipodi="http://sodipodi.sourceforge.net/DTD/sodipodi-0.dtd"
   xmlns="http://www.w3.org/2000/svg"
   xmlns:svg="http://www.w3.org/2000/svg">
  <sodipodi:namedview
     id="namedview110"
     pagecolor="#ffffff"
     bordercolor="#666666"
     borderopacity="1.0"
     inkscape:showpageshadow="2"
     inkscape:pageopacity="0.0"
     inkscape:pagecheckerboard="0"
     inkscape:deskcolor="#d1d1d1"
     showgrid="false"
     inkscape:zoom="6.576087"
     inkscape:cx="67.745455"
     inkscape:cy="59.001653"
     inkscape:window-width="2560"
     inkscape:window-height="1369"
     inkscape:window-x="1072"
     inkscape:window-y="293"
     inkscape:window-maximized="1"
     inkscape:current-layer="g101" />
  <g
     clip-path="url(#clip0_2001_5900)"
     id="g101">
    <rect
       y="-13.229752"
       width="118"
       height="184"
       rx="7"
       transform="rotate(-90)"
       fill="#539eff"
       id="rect57"
       x="-112.82975"
       ry="7" />
    <path
       d="M 156.64701,19 H 18.270793 v 6 H 156.64701 Z"
       fill="#ffffff"
       id="path93"
       style="stroke-width:2.98723" />
    <path
       d="m 66.630448,41.52488 0.3281,2.25 0.4805,-2.0274 3.375,-11.9062 h 1.8984 l 3.293,11.9062 0.4687,2.0625 0.3633,-2.2969 2.6484,-11.6718 h 2.2617 l -4.1367,17.0625 h -2.0508 l -3.5156,-12.4336 -0.2695,-1.3008 -0.2695,1.3008 -3.6446,12.4336 h -2.0508 l -4.125,-17.0625 h 2.25 z m 16.3359,-1.0782 c 0,-1.2421 0.2422,-2.3593 0.7266,-3.3515 0.4921,-0.9922 1.1718,-1.7578 2.039,-2.2969 0.875,-0.5391 1.8711,-0.8086 2.9883,-0.8086 1.7266,0 3.1211,0.5977 4.1836,1.793 1.0703,1.1953 1.6055,2.7851 1.6055,4.7695 v 0.1524 c 0,1.2343 -0.2383,2.3437 -0.7149,3.3281 -0.4687,0.9765 -1.1445,1.7383 -2.0273,2.2851 -0.875,0.5469 -1.8828,0.8203 -3.0235,0.8203 -1.7187,0 -3.1132,-0.5976 -4.1836,-1.7929 -1.0625,-1.1953 -1.5937,-2.7774 -1.5937,-4.7461 z m 2.1797,0.2579 c 0,1.4062 0.3242,2.5351 0.9726,3.3867 0.6563,0.8515 1.5313,1.2773 2.625,1.2773 1.1016,0 1.9766,-0.4297 2.625,-1.289 0.6485,-0.8672 0.9727,-2.0782 0.9727,-3.6329 0,-1.3906 -0.332,-2.5156 -0.9961,-3.375 -0.6562,-0.8671 -1.5312,-1.3007 -2.625,-1.3007 -1.0703,0 -1.9336,0.4257 -2.5898,1.2773 -0.6563,0.8516 -0.9844,2.0703 -0.9844,3.6563 z m 18.210902,-4.5352 c -0.3281,-0.0547 -0.6836,-0.082 -1.0664,-0.082 -1.4219,0 -2.386702,0.6054 -2.894502,1.8164 v 9 h -2.168 v -12.6797 h 2.1094 l 0.0351,1.4648 c 0.711002,-1.1328 1.718802,-1.6992 3.023502,-1.6992 0.4219,0 0.7422,0.0547 0.9609,0.1641 z m 1.2422,4.2891 c 0,-1.9454 0.4609,-3.5079 1.3828,-4.6875 0.9219,-1.1875 2.1289,-1.7813 3.6211,-1.7813 1.4844,0 2.6602,0.5078 3.5274,1.5234 v -6.6093 h 2.1679 v 18 h -1.9922 l -0.1054,-1.3594 c -0.8672,1.0625 -2.0743,1.5937 -3.6211,1.5937 -1.4688,0 -2.668,-0.6015 -3.5977,-1.8046 -0.9219,-1.2032 -1.3828,-2.7735 -1.3828,-4.711 z m 2.168,0.2461 c 0,1.4375 0.2969,2.5625 0.8906,3.375 0.5937,0.8125 1.4141,1.2187 2.4609,1.2187 1.375,0 2.3789,-0.6172 3.0118,-1.8516 v -5.8242 c -0.6485,-1.1953 -1.6446,-1.7929 -2.9883,-1.7929 -1.0625,0 -1.8907,0.4101 -2.4844,1.2304 -0.5937,0.8203 -0.8906,2.0352 -0.8906,3.6446 z"
       fill="#ffffff"
       id="path95" />
    <path
       d="M-3.9939 112.106C-3.9939 115.317 -1.39111 117.919 1.8193 117.919H182.803C186.013 117.919 188.616 115.317 188.616 112.106V6.35472C188.616 3.14431 186.013 0.541845 182.803 0.54152H1.8193C-1.39111 0.54152 -3.99357 3.14431 -3.9939 6.35472V112.106ZM12.0505 106.293V12.1679H164.898V106.293H12.0505Z"
       fill="#848484"
       id="path97" />
    <path
       d="M182.023 59.2304C182.023 55.7447 179.197 52.9189 175.711 52.9189C172.225 52.9189 169.4 55.7447 169.4 59.2304C169.4 62.7161 172.225 65.5419 175.711 65.5419C179.197 65.5419 182.023 62.7161 182.023 59.2304Z"
       fill="white"
       id="path99" />
    <rect
       style="fill:#ffffff;stroke:#ffffff;stroke-width:11.5843;stroke-linecap:round;stroke-linejoin:round"
       id="rect562"
       width="28.436363"
       height="28.436363"
       x="24.938841"
       y="65.692558"
       rx="0"
       ry="0"
       inkscape:highlight-color="#fffbfb" />
    <path
       d="M 48.349826,86.987517 C 32.427833,76.057551 49.155052,76.603613 30.915799,82.972951 c -9.814804,3.426794 1.331306,18.549889 4.289168,8.601494 5.495217,-18.490424 10.142262,-2.444386 -1.562138,-17.789754 -6.298652,-8.25627 -17.264034,6.997476 -6.871257,6.729804 19.316465,-0.497822 5.464796,8.873018 16.469545,-6.980224 5.921092,-8.529466 -12.003228,-14.22527 -8.537179,-4.44237 6.443593,18.182886 -6.765684,7.928462 11.741977,13.475858 9.956166,2.984752 9.845224,-15.789088 1.594346,-9.475196 -15.335072,11.735326 -9.644812,-3.973192 -9.213569,15.308688 0.234411,10.374188 18.088943,4.466994 9.523134,-1.413734 z"
       fill="#888a85"
       id="path61"
       style="stroke-width:1.73127" />
    <path
       fill-rule="evenodd"
       clip-rule="evenodd"
       d="m 44.58316,67.532941 c 0.923325,1.840198 0.894695,4.084584 -0.730072,6.42478 -0.465241,0.668508 -0.883958,1.290954 -1.261519,1.870014 1.31878,-0.713064 2.961441,-1.768674 4.995977,-3.32512 1.095106,-0.837854 2.120427,-1.312394 3.068803,-1.430986 0.971639,-0.12144 1.818021,0.137354 2.485463,0.681072 1.284782,1.044554 1.771496,3.001836 1.67308,4.867998 -0.100205,1.899998 -0.810594,3.963478 -2.236738,5.366994 -1.4673,1.445726 -3.616357,2.110884 -6.346966,1.292124 -0.780174,-0.234002 -1.503088,-0.439194 -2.172319,-0.619428 1.086159,1.030818 2.601772,2.264988 4.713253,3.714566 1.136262,0.780402 1.905701,1.608038 2.311892,2.471354 0.415139,0.883918 0.429453,1.7675 0.118101,2.570346 -0.597656,1.542042 -2.313681,2.607702 -4.120966,3.091286 -1.841282,0.492462 -4.027916,0.455276 -5.80478,-0.463986 -1.832336,-0.946732 -3.129644,-2.779896 -3.194062,-5.626122 -0.0179,-0.813064 -0.04473,-1.562476 -0.08052,-2.25276 -0.64597,1.349914 -1.354568,3.168504 -2.08285,5.620762 -0.391877,1.320098 -0.943008,2.306194 -1.640871,2.958286 -0.713966,0.667672 -1.5514,0.955108 -2.412097,0.907536 -1.655185,-0.09162 -3.199429,-1.390114 -4.219382,-2.957448 -1.037846,-1.595642 -1.678447,-3.682072 -1.352779,-5.653928 0.336405,-2.03065 1.683816,-3.828972 4.375058,-4.769172 0.769439,-0.268508 1.474459,-0.526298 2.122218,-0.772864 -1.486983,-0.196482 -3.437418,-0.306698 -5.999825,-0.240702 -1.37962,0.03552 -2.489041,-0.182746 -3.326477,-0.643048 -0.857118,-0.471188 -1.388566,-1.177218 -1.61045,-2.009376 -0.424085,-1.598658 0.336405,-3.466998 1.515613,-4.919088 1.198891,-1.478726 2.988281,-2.730984 4.969136,-3.030314 2.038115,-0.308374 4.16749,0.413566 5.89604,2.678556 0.493872,0.647066 0.957324,1.237184 1.392145,1.775206 -0.271987,-1.471522 -0.769437,-3.35812 -1.624765,-5.769674 -0.459874,-1.298154 -0.594078,-2.41909 -0.415139,-3.355606 0.184307,-0.95896 0.692494,-1.682744 1.417197,-2.14941 1.392145,-0.89648 3.406998,-0.752594 5.155232,-0.08292 1.780443,0.681908 3.526887,1.994302 4.423372,3.781066 z m -8.669595,10.234992 c -0.826697,-0.9469 -1.776864,-2.107702 -2.863024,-3.532992 -1.422565,-1.862978 -3.024068,-2.330482 -4.48779,-2.10921 -1.522771,0.230318 -3.006175,1.226632 -4.036864,2.495976 -1.050372,1.295644 -1.476246,2.674702 -1.2311,3.602842 0.114527,0.431156 0.38114,0.808374 0.889327,1.08777 0.52787,0.29062 1.349201,0.490284 2.567775,0.458962 4.115596,-0.106036 6.790734,0.228978 8.553284,0.697988 0.02147,-0.107702 0.05548,-0.183752 0.06621,-0.20536 0,-0.0016 0.0018,-0.0029 0.0018,-0.0039 0.04653,-0.100163 0.08052,-0.160636 0.114527,-0.21742 0.05189,-0.0923 0.100205,-0.175376 0.180728,-0.403518 0.105579,-0.304354 0.221885,-0.796982 0.241567,-1.569846 0.0035,-0.09614 0.0035,-0.196482 0.0035,-0.30134 z m 1.624767,4.716242 c -0.0035,0.0124 -0.0035,0.01002 0.0018,-0.0021 -0.0018,6.7e-4 -0.0018,0.0014 -0.0018,0.0021 z m 0.259461,0.97571 c -0.09484,-0.0526 -0.157466,-0.109718 -0.17536,-0.126132 0,-0.0012 -0.0018,-0.0021 -0.0018,-0.0029 -0.08231,-0.0742 -0.128837,-0.126131 -0.171782,-0.175042 -0.07157,-0.07922 -0.135993,-0.150418 -0.329247,-0.296482 -0.257673,-0.194807 -0.690706,-0.45762 -1.420776,-0.715242 -0.09126,-0.03216 -0.186097,-0.06398 -0.286303,-0.09582 -1.157735,0.491122 -2.557039,1.034672 -4.251591,1.626296 -2.215265,0.773198 -3.154694,2.150415 -3.396261,3.608202 -0.252305,1.516748 0.239778,3.23182 1.130894,4.601668 0.910799,1.398322 2.091796,2.229476 3.052699,2.282576 0.445558,0.02462 0.887538,-0.111722 1.311623,-0.507704 0.44019,-0.411726 0.883958,-1.129312 1.2311,-2.296312 1.170262,-3.938352 2.315471,-6.375534 3.306793,-7.90317 z m 2.61072,-1.497318 c 0.01078,0.0079 0.0089,0.0073 -0.0018,-0.0014 0,5.03e-4 0.0018,10e-4 0.0018,0.0014 z m 1.011005,0.05494 c -0.08052,0.07538 -0.153887,0.115918 -0.17536,0.127471 -0.0018,8.37e-4 -0.0018,0.0015 -0.0035,0.0021 -0.09663,0.0541 -0.159256,0.08242 -0.220095,0.109217 -0.09663,0.04322 -0.184308,0.08224 -0.384719,0.2201 -0.26483,0.18392 -0.649549,0.514236 -1.120158,1.127804 -0.05905,0.07638 -0.118101,0.156952 -0.178939,0.24221 0.109153,1.250584 0.195043,2.747064 0.2362,4.538016 0.05189,2.341036 1.073633,3.659626 2.387046,4.339358 1.368883,0.707034 3.154694,0.770686 4.734725,0.347906 1.614029,-0.43149 2.771765,-1.296816 3.118906,-2.192124 0.161046,-0.415912 0.168204,-0.877386 -0.07873,-1.401674 -0.255882,-0.54489 -0.803436,-1.188272 -1.807284,-1.878054 -3.390894,-2.32797 -5.359223,-4.169172 -6.508011,-5.582402 z M 40.7986,79.077311 c 0.01077,-0.0078 0.0089,-0.0056 -0.0018,0.0014 0,-5.02e-4 0.0018,-8.37e-4 0.0018,-0.0014 z m 0.365035,-0.941874 c 0.04653,0.09916 0.06263,0.181406 0.06621,0.204858 0.0018,0.0016 0.0018,0.0031 0.0018,0.0041 0.02147,0.107877 0.02863,0.177218 0.03579,0.242544 0.01077,0.106036 0.02147,0.20134 0.09126,0.432664 0.09304,0.308374 0.289881,0.775376 0.728281,1.412224 0.05548,0.07924 0.112727,0.16114 0.175361,0.245394 1.225731,0.281742 2.678717,0.663316 4.39653,1.178558 2.247475,0.673534 3.820348,0.111221 4.87251,-0.926464 1.096896,-1.07973 1.710656,-2.75544 1.794758,-4.386594 0.08768,-1.664988 -0.379351,-3.030982 -1.123738,-3.637514 -0.347141,-0.281574 -0.785541,-0.430486 -1.359935,-0.358458 -0.599447,0.07488 -1.38141,0.394974 -2.34947,1.135676 -3.265637,2.499494 -5.62763,3.798654 -7.329341,4.452924 z m -2.993648,-0.319764 c -0.0035,-0.01274 -0.0035,-0.01077 0,0.002 0,-6.7e-4 0,-0.0014 0,-0.002 z m -2.014853,2.105524 c -0.01248,-1.68e-4 -0.01078,-8.38e-4 0.0018,0 0,0 -0.0018,0 -0.0018,0 z m 1.22931,-2.74271 c -0.09663,-1.817418 -0.604814,-4.461634 -1.977275,-8.334492 -0.406193,-1.14757 -0.470611,-1.988608 -0.356089,-2.579728 0.109153,-0.568844 0.386507,-0.938358 0.76049,-1.180234 0.808804,-0.520434 2.254632,-0.541708 3.81498,0.05594 1.526349,0.585427 2.934599,1.684755 3.625303,3.059125 0.662074,1.320936 0.712178,2.987097 -0.622708,4.911884 -1.02353,1.47236 -1.835913,2.733162 -2.481883,3.809542 -0.100204,0.03316 -0.196833,0.06332 -0.288092,0.09062 -0.742596,0.219932 -1.248994,0.261641 -1.571084,0.254941 -0.241568,-0.005 -0.336406,-0.02496 -0.44019,-0.04724 -0.06442,-0.01356 -0.132415,-0.02814 -0.243357,-0.04054 0,-1.67e-4 -0.0018,-3.35e-4 -0.0035,-5.03e-4 -0.02326,-0.003 -0.107366,-0.01324 -0.216516,6.7e-4 z"
       fill="#888a85"
       id="path63"
       style="stroke-width:1.73127" />
    <path
       d="m 41.600246,79.755367 c 0.0018,0.427974 -0.08411,0.851758 -0.246936,1.247068 -0.164624,0.395476 -0.404401,0.754772 -0.706808,1.057452 -0.304197,0.30268 -0.663863,0.54288 -1.059319,0.706698 -0.397244,0.16382 -0.82133,0.248074 -1.248994,0.248074 -0.429454,0 -0.853539,-0.08426 -1.250784,-0.248074 -0.395455,-0.163818 -0.755123,-0.404018 -1.05753,-0.706698 -0.304195,-0.30268 -0.543974,-0.661976 -0.708598,-1.057452 -0.162834,-0.39531 -0.246936,-0.819094 -0.246936,-1.247068 0,-0.427972 0.08411,-0.851756 0.246936,-1.247066 0.164624,-0.395476 0.404403,-0.754772 0.708598,-1.057452 0.302407,-0.30268 0.662075,-0.542714 1.05753,-0.706532 0.397245,-0.163818 0.82133,-0.24824 1.250784,-0.24824 0.427664,0 0.85175,0.08442 1.248994,0.24824 0.395456,0.163818 0.755122,0.403852 1.059319,0.706532 0.302407,0.30268 0.542184,0.661976 0.706808,1.057452 0.162835,0.39531 0.248726,0.819094 0.246936,1.247066 z"
       fill="#babdb6"
       id="path65"
       style="stroke-width:1.73127" />
    <path
       fill-rule="evenodd"
       clip-rule="evenodd"
       d="m 38.338189,77.239459 c -0.331038,0 -0.658496,0.065 -0.964481,0.191456 -0.305987,0.126466 -0.583341,0.311726 -0.817751,0.545394 -0.234411,0.2335 -0.418719,0.510886 -0.545765,0.816078 -0.127049,0.305192 -0.191465,0.63216 -0.191465,0.962478 v 8.38e-4 c 0,0.330318 0.06442,0.657286 0.191465,0.962478 0.127049,0.305192 0.311354,0.582578 0.545765,0.816078 0.23441,0.233668 0.511764,0.418928 0.817751,0.545394 0.305985,0.126464 0.633443,0.191456 0.964481,0.191456 0.331037,0 0.658495,-0.065 0.962691,-0.191456 0.305986,-0.126466 0.585131,-0.311726 0.817752,-0.545394 0.23441,-0.2335 0.420507,-0.510886 0.545764,-0.816078 0.127049,-0.305192 0.191465,-0.63216 0.191465,-0.962478 l 0.744385,-3.36e-4 -0.744385,-5.02e-4 c 0,-0.330318 -0.06442,-0.657286 -0.191465,-0.962478 -0.125262,-0.305192 -0.311354,-0.582578 -0.545764,-0.816078 -0.232621,-0.233668 -0.511766,-0.418928 -0.817752,-0.545394 -0.304196,-0.126464 -0.631654,-0.191456 -0.962691,-0.191456 z m 4.008233,2.515908 c 0,-0.52546 -0.103779,-1.045894 -0.304196,-1.53132 -0.202201,-0.485762 -0.497451,-0.926968 -0.869644,-1.298826 -0.372193,-0.37169 -0.814173,-0.666666 -1.300886,-0.867838 -0.486714,-0.201172 -1.007427,-0.30469 -1.533507,-0.30469 -0.52787,0 -1.048583,0.103519 -1.535297,0.30469 -0.486714,0.201172 -0.928694,0.496148 -1.300887,0.867838 -0.372192,0.371858 -0.667442,0.813064 -0.867854,1.298826 -0.2022,0.485426 -0.305985,1.00586 -0.304195,1.53132 -0.0018,0.525292 0.101991,1.045728 0.304195,1.531154 0.200412,0.485762 0.495662,0.926966 0.867854,1.298826 0.372193,0.37169 0.814173,0.666666 1.300887,0.867838 0.486714,0.201172 1.007427,0.304688 1.535297,0.304688 0.52608,0 1.046793,-0.103519 1.533507,-0.304688 0.486713,-0.201172 0.928693,-0.496148 1.300886,-0.867838 0.372193,-0.37186 0.667443,-0.813064 0.869644,-1.298826 0.200412,-0.485426 0.304196,-1.005862 0.304196,-1.531154 z"
       fill="#babdb6"
       id="path67"
       style="stroke-width:1.73127" />
    <rect
       style="fill:#6cd05a;fill-opacity:1;stroke:#6cd05a;stroke-width:11.5843;stroke-linecap:round;stroke-linejoin:round;stroke-opacity:1"
       id="rect1241"
       width="28.436363"
       height="28.436363"
       x="74.20826"
       y="66.452888"
       rx="0"
       ry="0"
       inkscape:highlight-color="#fffbfb" />
    <path
       d="M 97.619248,87.747848 C 81.697255,76.817882 98.424474,77.363944 80.185221,83.733282 c -9.814804,3.426794 1.331306,18.549888 4.289168,8.601494 5.495217,-18.490424 10.142262,-2.444386 -1.562138,-17.789754 -6.298652,-8.25627 -17.264034,6.997476 -6.871257,6.729804 19.316465,-0.497822 5.464796,8.873018 16.469545,-6.980224 5.921092,-8.529466 -12.003228,-14.22527 -8.537179,-4.44237 6.443593,18.182886 -6.765684,7.928462 11.741977,13.475858 9.956163,2.984752 9.845223,-15.789088 1.594346,-9.475196 -15.335072,11.735326 -9.644812,-3.973192 -9.213569,15.308688 0.234411,10.374188 18.088946,4.466994 9.523134,-1.413734 z"
       fill="#888a85"
       id="path1243"
       style="stroke-width:1.73127" />
    <path
       fill-rule="evenodd"
       clip-rule="evenodd"
       d="m 93.852582,68.293272 c 0.923325,1.840198 0.894695,4.084584 -0.730072,6.42478 -0.465241,0.668508 -0.883958,1.290954 -1.261519,1.870014 1.31878,-0.713064 2.961441,-1.768674 4.995977,-3.32512 1.095106,-0.837854 2.120427,-1.312394 3.068803,-1.430986 0.971639,-0.12144 1.818019,0.137354 2.485459,0.681072 1.28479,1.044554 1.7715,3.001836 1.67308,4.867998 -0.1002,1.899998 -0.81059,3.963478 -2.23673,5.366994 -1.4673,1.445726 -3.616361,2.110884 -6.34697,1.292124 -0.780174,-0.234002 -1.503088,-0.439194 -2.172319,-0.619428 1.086159,1.030818 2.601772,2.264988 4.713253,3.714566 1.136262,0.780402 1.905701,1.608038 2.311896,2.471354 0.41513,0.883918 0.42945,1.7675 0.1181,2.570346 -0.597659,1.542042 -2.313684,2.607702 -4.120969,3.091286 -1.841282,0.492462 -4.027916,0.455276 -5.80478,-0.463986 -1.832336,-0.946732 -3.129644,-2.779896 -3.194062,-5.626122 -0.0179,-0.813064 -0.04473,-1.562476 -0.08052,-2.25276 -0.64597,1.349914 -1.354568,3.168504 -2.08285,5.620762 -0.391877,1.320098 -0.943008,2.306194 -1.640871,2.958286 -0.713966,0.667672 -1.5514,0.955108 -2.412097,0.907536 -1.655185,-0.09162 -3.199429,-1.390114 -4.219382,-2.957448 -1.037846,-1.595642 -1.678447,-3.682072 -1.352779,-5.653928 0.336405,-2.03065 1.683816,-3.828972 4.375058,-4.769172 0.769439,-0.268508 1.474459,-0.526298 2.122218,-0.772864 -1.486983,-0.196482 -3.437418,-0.306698 -5.999825,-0.240702 -1.37962,0.03552 -2.489041,-0.182746 -3.326477,-0.643048 -0.857118,-0.471188 -1.388566,-1.177218 -1.61045,-2.009376 -0.424085,-1.598658 0.336405,-3.466998 1.515613,-4.919088 1.198891,-1.478726 2.988281,-2.730984 4.969136,-3.030314 2.038115,-0.308374 4.16749,0.413566 5.89604,2.678556 0.493872,0.647066 0.957324,1.237184 1.392145,1.775206 -0.271987,-1.471522 -0.769437,-3.35812 -1.624765,-5.769674 -0.459874,-1.298154 -0.594078,-2.41909 -0.415139,-3.355606 0.184307,-0.95896 0.692494,-1.682744 1.417197,-2.14941 1.392145,-0.89648 3.406998,-0.752594 5.155232,-0.08292 1.780443,0.681908 3.526887,1.994302 4.423372,3.781066 z m -8.669595,10.234992 c -0.826697,-0.9469 -1.776864,-2.107702 -2.863024,-3.532992 -1.422565,-1.862978 -3.024068,-2.330482 -4.48779,-2.10921 -1.522771,0.230318 -3.006175,1.226632 -4.036864,2.495976 -1.050372,1.295644 -1.476246,2.674702 -1.2311,3.602842 0.114527,0.431156 0.38114,0.808374 0.889327,1.08777 0.52787,0.29062 1.349201,0.490284 2.567775,0.458962 4.115596,-0.106036 6.790734,0.228978 8.553284,0.697988 0.02147,-0.107702 0.05548,-0.183752 0.06621,-0.20536 0,-0.0016 0.0018,-0.0029 0.0018,-0.0039 0.04653,-0.100163 0.08052,-0.160636 0.114527,-0.21742 0.05189,-0.0923 0.100205,-0.175376 0.180728,-0.403518 0.105579,-0.304354 0.221885,-0.796982 0.241567,-1.569846 0.0035,-0.09614 0.0035,-0.196482 0.0035,-0.30134 z m 1.624767,4.716242 c -0.0035,0.0124 -0.0035,0.01002 0.0018,-0.0021 -0.0018,6.7e-4 -0.0018,0.0014 -0.0018,0.0021 z m 0.259461,0.97571 c -0.09484,-0.0526 -0.157466,-0.109718 -0.17536,-0.126132 0,-0.0012 -0.0018,-0.0021 -0.0018,-0.0029 -0.08231,-0.0742 -0.128837,-0.126131 -0.171782,-0.175042 -0.07157,-0.07922 -0.135993,-0.150418 -0.329247,-0.296482 -0.257673,-0.194807 -0.690706,-0.45762 -1.420776,-0.715242 -0.09126,-0.03216 -0.186097,-0.06398 -0.286303,-0.09582 -1.157735,0.491122 -2.557039,1.034672 -4.251591,1.626296 -2.215265,0.773198 -3.154694,2.150415 -3.396261,3.608202 -0.252305,1.516748 0.239778,3.23182 1.130894,4.601668 0.910799,1.398322 2.091796,2.229476 3.052699,2.282576 0.445558,0.02462 0.887538,-0.111722 1.311623,-0.507704 0.44019,-0.411726 0.883958,-1.129312 1.2311,-2.296312 1.170262,-3.938352 2.315471,-6.375534 3.306793,-7.90317 z m 2.61072,-1.497318 c 0.01078,0.0079 0.0089,0.0073 -0.0018,-0.0014 0,5.03e-4 0.0018,0.001 0.0018,0.0014 z m 1.011005,0.05494 c -0.08052,0.07538 -0.153887,0.115918 -0.17536,0.127471 -0.0018,8.37e-4 -0.0018,0.0015 -0.0035,0.0021 -0.09663,0.0541 -0.159256,0.08242 -0.220095,0.109217 -0.09663,0.04322 -0.184308,0.08224 -0.384719,0.2201 -0.26483,0.18392 -0.649549,0.514236 -1.120158,1.127804 -0.05905,0.07638 -0.118101,0.156952 -0.178939,0.24221 0.109153,1.250584 0.195043,2.747064 0.2362,4.538016 0.05189,2.341036 1.073633,3.659626 2.387046,4.339358 1.368883,0.707034 3.154694,0.770686 4.734725,0.347906 1.614029,-0.43149 2.771765,-1.296816 3.118906,-2.192124 0.161046,-0.415912 0.168204,-0.877386 -0.07873,-1.401674 -0.255882,-0.54489 -0.803436,-1.188272 -1.807284,-1.878054 -3.390894,-2.32797 -5.359223,-4.169172 -6.508011,-5.582402 z m -0.620918,-2.940196 c 0.01077,-0.0078 0.0089,-0.0056 -0.0018,0.0014 0,-5.02e-4 0.0018,-8.37e-4 0.0018,-0.0014 z m 0.365035,-0.941874 c 0.04653,0.09916 0.06263,0.181406 0.06621,0.204858 0.0018,0.0016 0.0018,0.0031 0.0018,0.0041 0.02147,0.107877 0.02863,0.177218 0.03579,0.242544 0.01077,0.106036 0.02147,0.20134 0.09126,0.432664 0.09304,0.308374 0.289881,0.775376 0.728281,1.412224 0.05548,0.07924 0.112727,0.16114 0.175361,0.245394 1.225731,0.281742 2.678717,0.663316 4.39653,1.178558 2.247475,0.673534 3.820348,0.111221 4.872511,-0.926464 1.09689,-1.07973 1.71065,-2.75544 1.79476,-4.386594 0.0877,-1.664988 -0.37935,-3.030982 -1.12374,-3.637514 -0.34714,-0.281574 -0.78554,-0.430486 -1.35994,-0.358458 -0.599443,0.07488 -1.381406,0.394974 -2.349466,1.135676 -3.265637,2.499494 -5.62763,3.798654 -7.329341,4.452924 z m -2.993648,-0.319764 c -0.0035,-0.01274 -0.0035,-0.01077 0,0.002 0,-6.7e-4 0,-0.0014 0,-0.002 z m -2.014853,2.105524 c -0.01248,-1.68e-4 -0.01078,-8.38e-4 0.0018,0 0,0 -0.0018,0 -0.0018,0 z m 1.22931,-2.74271 c -0.09663,-1.817418 -0.604814,-4.461634 -1.977275,-8.334492 -0.406193,-1.14757 -0.470611,-1.988608 -0.356089,-2.579728 0.109153,-0.568844 0.386507,-0.938358 0.76049,-1.180234 0.808804,-0.520434 2.254632,-0.541708 3.81498,0.05594 1.526349,0.585427 2.934599,1.684755 3.625303,3.059125 0.662074,1.320936 0.712178,2.987097 -0.622708,4.911884 -1.02353,1.47236 -1.835913,2.733162 -2.481883,3.809542 -0.100204,0.03316 -0.196833,0.06332 -0.288092,0.09062 -0.742596,0.219932 -1.248994,0.261641 -1.571084,0.254941 -0.241568,-0.005 -0.336406,-0.02496 -0.44019,-0.04724 -0.06442,-0.01356 -0.132415,-0.02814 -0.243357,-0.04054 0,-1.67e-4 -0.0018,-3.35e-4 -0.0035,-5.03e-4 -0.02326,-0.003 -0.107366,-0.01324 -0.216516,6.7e-4 z"
       fill="#888a85"
       id="path1245"
       style="stroke-width:1.73127" />
    <path
       d="m 90.869668,80.515698 c 0.0018,0.427974 -0.08411,0.851758 -0.246936,1.247068 -0.164624,0.395476 -0.404401,0.754772 -0.706808,1.057452 -0.304197,0.30268 -0.663863,0.54288 -1.059319,0.706698 -0.397244,0.16382 -0.82133,0.248074 -1.248994,0.248074 -0.429454,0 -0.853539,-0.08426 -1.250784,-0.248074 -0.395455,-0.163818 -0.755123,-0.404018 -1.05753,-0.706698 -0.304195,-0.30268 -0.543974,-0.661976 -0.708598,-1.057452 -0.162834,-0.39531 -0.246936,-0.819094 -0.246936,-1.247068 0,-0.427972 0.08411,-0.851756 0.246936,-1.247066 0.164624,-0.395476 0.404403,-0.754772 0.708598,-1.057452 0.302407,-0.30268 0.662075,-0.542714 1.05753,-0.706532 0.397245,-0.163818 0.82133,-0.24824 1.250784,-0.24824 0.427664,0 0.85175,0.08442 1.248994,0.24824 0.395456,0.163818 0.755122,0.403852 1.059319,0.706532 0.302407,0.30268 0.542184,0.661976 0.706808,1.057452 0.162835,0.39531 0.248726,0.819094 0.246936,1.247066 z"
       fill="#babdb6"
       id="path1247"
       style="stroke-width:1.73127" />
    <path
       fill-rule="evenodd"
       clip-rule="evenodd"
       d="m 87.607611,77.99979 c -0.331038,0 -0.658496,0.065 -0.964481,0.191456 -0.305987,0.126466 -0.583341,0.311726 -0.817751,0.545394 -0.234411,0.2335 -0.418719,0.510886 -0.545765,0.816078 -0.127049,0.305192 -0.191465,0.63216 -0.191465,0.962478 v 8.38e-4 c 0,0.330318 0.06442,0.657286 0.191465,0.962478 0.127049,0.305192 0.311354,0.582578 0.545765,0.816078 0.23441,0.233668 0.511764,0.418928 0.817751,0.545394 0.305985,0.126464 0.633443,0.191456 0.964481,0.191456 0.331037,0 0.658495,-0.065 0.962691,-0.191456 0.305986,-0.126466 0.585131,-0.311726 0.817752,-0.545394 0.23441,-0.2335 0.420507,-0.510886 0.545764,-0.816078 0.127049,-0.305192 0.191465,-0.63216 0.191465,-0.962478 l 0.744385,-3.36e-4 -0.744385,-5.02e-4 c 0,-0.330318 -0.06442,-0.657286 -0.191465,-0.962478 C 89.808556,79.247526 89.622464,78.97014 89.388054,78.73664 89.155433,78.502972 88.876288,78.317712 88.570302,78.191246 88.266106,78.064782 87.938648,77.99979 87.607611,77.99979 Z m 4.008233,2.515908 c 0,-0.52546 -0.103779,-1.045894 -0.304196,-1.53132 -0.202201,-0.485762 -0.497451,-0.926968 -0.869644,-1.298826 -0.372193,-0.37169 -0.814173,-0.666666 -1.300886,-0.867838 -0.486714,-0.201172 -1.007427,-0.30469 -1.533507,-0.30469 -0.52787,0 -1.048583,0.103519 -1.535297,0.30469 -0.486714,0.201172 -0.928694,0.496148 -1.300887,0.867838 -0.372192,0.371858 -0.667442,0.813064 -0.867854,1.298826 -0.2022,0.485426 -0.305985,1.00586 -0.304195,1.53132 -0.0018,0.525292 0.101991,1.045728 0.304195,1.531154 0.200412,0.485762 0.495662,0.926966 0.867854,1.298826 0.372193,0.37169 0.814173,0.666666 1.300887,0.867838 0.486714,0.201172 1.007427,0.304688 1.535297,0.304688 0.52608,0 1.046793,-0.103519 1.533507,-0.304688 0.486713,-0.201172 0.928693,-0.496148 1.300886,-0.867838 0.372193,-0.37186 0.667443,-0.813064 0.869644,-1.298826 0.200412,-0.485426 0.304196,-1.005862 0.304196,-1.531154 z"
       fill="#babdb6"
       id="path1249"
       style="stroke-width:1.73127" />
    <rect
       style="fill:#ffffff;stroke:#ffffff;stroke-width:11.5843;stroke-linecap:round;stroke-linejoin:round"
       id="rect1251"
       width="28.436363"
       height="28.436363"
       x="122.10909"
       y="66.148758"
       rx="0"
       ry="0"
       inkscape:highlight-color="#fffbfb" />
    <path
       d="m 145.52008,87.443715 c -15.922,-10.929966 0.80522,-10.383904 -17.43403,-4.014566 -9.8148,3.426794 1.33131,18.549891 4.28917,8.601494 5.49522,-18.490424 10.14226,-2.444386 -1.56214,-17.789754 -6.29865,-8.25627 -17.26403,6.997476 -6.87126,6.729804 19.31647,-0.497822 5.4648,8.873018 16.46955,-6.980224 5.92109,-8.529466 -12.00323,-14.22527 -8.53718,-4.44237 6.44359,18.182886 -6.76568,7.928462 11.74198,13.475858 9.95616,2.984752 9.84522,-15.789088 1.59434,-9.475196 -15.33507,11.735326 -9.64481,-3.973192 -9.21357,15.308688 0.23441,10.374188 18.08895,4.466994 9.52314,-1.413734 z"
       fill="#888a85"
       id="path1253"
       style="stroke-width:1.73127" />
    <path
       fill-rule="evenodd"
       clip-rule="evenodd"
       d="m 141.75341,67.989139 c 0.92333,1.840198 0.8947,4.084584 -0.73007,6.42478 -0.46524,0.668508 -0.88396,1.290954 -1.26152,1.870014 1.31878,-0.713064 2.96144,-1.768674 4.99598,-3.32512 1.0951,-0.837854 2.12042,-1.312394 3.0688,-1.430986 0.97164,-0.12144 1.81802,0.137354 2.48546,0.681072 1.28479,1.044554 1.7715,3.001836 1.67308,4.867998 -0.1002,1.899998 -0.81059,3.963478 -2.23673,5.366994 -1.4673,1.445726 -3.61636,2.110884 -6.34697,1.292124 -0.78017,-0.234002 -1.50309,-0.439194 -2.17232,-0.619428 1.08616,1.030818 2.60177,2.264988 4.71325,3.714566 1.13627,0.780402 1.9057,1.608038 2.3119,2.471354 0.41513,0.883918 0.42945,1.7675 0.1181,2.570346 -0.59766,1.542042 -2.31368,2.607702 -4.12097,3.091286 -1.84128,0.492462 -4.02792,0.455276 -5.80478,-0.463986 -1.83234,-0.946732 -3.12964,-2.779896 -3.19406,-5.626122 -0.0179,-0.813064 -0.0447,-1.562476 -0.0805,-2.25276 -0.64597,1.349914 -1.35457,3.168504 -2.08285,5.620762 -0.39188,1.320098 -0.94301,2.306194 -1.64087,2.958286 -0.71397,0.667672 -1.5514,0.955108 -2.4121,0.907536 -1.65518,-0.09162 -3.19943,-1.390114 -4.21938,-2.957448 -1.03785,-1.595642 -1.67845,-3.682072 -1.35278,-5.653928 0.3364,-2.03065 1.68382,-3.828972 4.37506,-4.769172 0.76944,-0.268508 1.47446,-0.526298 2.12222,-0.772864 -1.48699,-0.196482 -3.43742,-0.306698 -5.99983,-0.240702 -1.37962,0.03552 -2.48904,-0.182746 -3.32648,-0.643048 -0.85711,-0.471188 -1.38856,-1.177218 -1.61045,-2.009376 -0.42408,-1.598658 0.33641,-3.466998 1.51562,-4.919088 1.19889,-1.478726 2.98828,-2.730984 4.96913,-3.030314 2.03812,-0.308374 4.16749,0.413566 5.89604,2.678556 0.49387,0.647066 0.95733,1.237184 1.39215,1.775206 -0.27199,-1.471522 -0.76944,-3.35812 -1.62477,-5.769674 -0.45987,-1.298154 -0.59408,-2.41909 -0.41514,-3.355606 0.18431,-0.95896 0.6925,-1.682744 1.4172,-2.14941 1.39215,-0.89648 3.407,-0.752594 5.15523,-0.08292 1.78045,0.681908 3.52689,1.994302 4.42337,3.781066 z m -8.66959,10.234992 c -0.8267,-0.9469 -1.77687,-2.107702 -2.86303,-3.532992 -1.42256,-1.862978 -3.02407,-2.330482 -4.48779,-2.10921 -1.52277,0.230318 -3.00617,1.226632 -4.03686,2.495976 -1.05037,1.295644 -1.47625,2.674702 -1.2311,3.602842 0.11453,0.431156 0.38114,0.808374 0.88933,1.08777 0.52787,0.29062 1.3492,0.490284 2.56777,0.458962 4.1156,-0.106036 6.79073,0.228978 8.55328,0.697988 0.0215,-0.107702 0.0555,-0.183752 0.0662,-0.20536 0,-0.0016 0.002,-0.0029 0.002,-0.0039 0.0465,-0.100163 0.0805,-0.160636 0.11453,-0.21742 0.0519,-0.0923 0.10021,-0.175376 0.18073,-0.403518 0.10558,-0.304354 0.22188,-0.796982 0.24157,-1.569846 0.004,-0.09614 0.004,-0.196482 0.004,-0.30134 z m 1.62476,4.716242 c -0.004,0.0124 -0.004,0.01002 0.002,-0.0021 -0.002,6.7e-4 -0.002,0.0014 -0.002,0.0021 z m 0.25946,0.97571 c -0.0948,-0.0526 -0.15746,-0.109718 -0.17536,-0.126132 0,-0.0012 -0.002,-0.0021 -0.002,-0.0029 -0.0823,-0.0742 -0.12883,-0.126131 -0.17178,-0.175042 -0.0716,-0.07922 -0.13599,-0.150418 -0.32924,-0.296482 -0.25768,-0.194807 -0.69071,-0.45762 -1.42078,-0.715242 -0.0913,-0.03216 -0.1861,-0.06398 -0.2863,-0.09582 -1.15774,0.491122 -2.55704,1.034672 -4.25159,1.626296 -2.21527,0.773198 -3.1547,2.150415 -3.39627,3.608202 -0.2523,1.516748 0.23978,3.23182 1.1309,4.601668 0.9108,1.398322 2.09179,2.229476 3.0527,2.282576 0.44556,0.02462 0.88754,-0.111722 1.31162,-0.507704 0.44019,-0.411726 0.88396,-1.129312 1.2311,-2.296312 1.17026,-3.938352 2.31547,-6.375534 3.30679,-7.90317 z m 2.61072,-1.497318 c 0.0108,0.0079 0.009,0.0073 -0.002,-0.0014 0,5.03e-4 0.002,10e-4 0.002,0.0014 z m 1.01101,0.05494 c -0.0805,0.07538 -0.15389,0.115918 -0.17536,0.127471 -0.002,8.37e-4 -0.002,0.0015 -0.004,0.0021 -0.0966,0.0541 -0.15926,0.08242 -0.2201,0.109217 -0.0966,0.04322 -0.1843,0.08224 -0.38471,0.2201 -0.26483,0.18392 -0.64955,0.514236 -1.12016,1.127804 -0.059,0.07638 -0.1181,0.156952 -0.17894,0.24221 0.10915,1.250584 0.19504,2.747064 0.2362,4.538016 0.0519,2.341036 1.07363,3.659626 2.38704,4.339358 1.36889,0.707034 3.1547,0.770686 4.73473,0.347906 1.61403,-0.43149 2.77176,-1.296816 3.11891,-2.192124 0.16104,-0.415912 0.1682,-0.877386 -0.0787,-1.401674 -0.25589,-0.54489 -0.80344,-1.188272 -1.80729,-1.878054 -3.39089,-2.32797 -5.35922,-4.169172 -6.50801,-5.582402 z m -0.62092,-2.940196 c 0.0108,-0.0078 0.009,-0.0056 -0.002,0.0014 0,-5.02e-4 0.002,-8.37e-4 0.002,-0.0014 z m 0.36504,-0.941874 c 0.0465,0.09916 0.0626,0.181406 0.0662,0.204858 0.002,0.0016 0.002,0.0031 0.002,0.0041 0.0215,0.107877 0.0286,0.177218 0.0358,0.242544 0.0108,0.106036 0.0215,0.20134 0.0913,0.432664 0.093,0.308374 0.28988,0.775376 0.72828,1.412224 0.0555,0.07924 0.11272,0.16114 0.17536,0.245394 1.22573,0.281742 2.67872,0.663316 4.39653,1.178558 2.24747,0.673534 3.82035,0.111221 4.87251,-0.926464 1.09689,-1.07973 1.71065,-2.75544 1.79476,-4.386594 0.0877,-1.664988 -0.37935,-3.030982 -1.12374,-3.637514 -0.34714,-0.281574 -0.78554,-0.430486 -1.35994,-0.358458 -0.59944,0.07488 -1.38141,0.394974 -2.34947,1.135676 -3.26563,2.499494 -5.62763,3.798654 -7.32934,4.452924 z m -2.99365,-0.319764 c -0.004,-0.01274 -0.004,-0.01077 0,0.002 0,-6.7e-4 0,-0.0014 0,-0.002 z m -2.01485,2.105524 c -0.0125,-1.68e-4 -0.0108,-8.38e-4 0.002,0 0,0 -0.002,0 -0.002,0 z m 1.22931,-2.74271 c -0.0966,-1.817418 -0.60482,-4.461634 -1.97728,-8.334492 -0.40619,-1.14757 -0.47061,-1.988608 -0.35609,-2.579728 0.10915,-0.568844 0.38651,-0.938358 0.76049,-1.180234 0.80881,-0.520434 2.25463,-0.541708 3.81498,0.05594 1.52635,0.585427 2.9346,1.684755 3.6253,3.059125 0.66208,1.320936 0.71218,2.987097 -0.6227,4.911884 -1.02353,1.47236 -1.83592,2.733162 -2.48189,3.809542 -0.1002,0.03316 -0.19683,0.06332 -0.28809,0.09062 -0.74259,0.219932 -1.24899,0.261641 -1.57108,0.254941 -0.24157,-0.005 -0.33641,-0.02496 -0.44019,-0.04724 -0.0644,-0.01356 -0.13242,-0.02814 -0.24336,-0.04054 0,-1.67e-4 -0.002,-3.35e-4 -0.004,-5.03e-4 -0.0233,-0.003 -0.10737,-0.01324 -0.21652,6.7e-4 z"
       fill="#888a85"
       id="path1255"
       style="stroke-width:1.73127" />
    <path
       d="m 138.7705,80.211565 c 0.002,0.427974 -0.0841,0.851758 -0.24694,1.247068 -0.16462,0.395476 -0.4044,0.754772 -0.70681,1.057452 -0.30419,0.30268 -0.66386,0.54288 -1.05932,0.706698 -0.39724,0.16382 -0.82133,0.248074 -1.24899,0.248074 -0.42945,0 -0.85354,-0.08426 -1.25078,-0.248074 -0.39546,-0.163818 -0.75513,-0.404018 -1.05753,-0.706698 -0.3042,-0.30268 -0.54398,-0.661976 -0.7086,-1.057452 -0.16284,-0.39531 -0.24694,-0.819094 -0.24694,-1.247068 0,-0.427972 0.0841,-0.851756 0.24694,-1.247066 0.16462,-0.395476 0.4044,-0.754772 0.7086,-1.057452 0.3024,-0.30268 0.66207,-0.542714 1.05753,-0.706532 0.39724,-0.163818 0.82133,-0.24824 1.25078,-0.24824 0.42766,0 0.85175,0.08442 1.24899,0.24824 0.39546,0.163818 0.75513,0.403852 1.05932,0.706532 0.30241,0.30268 0.54219,0.661976 0.70681,1.057452 0.16284,0.39531 0.24873,0.819094 0.24694,1.247066 z"
       fill="#babdb6"
       id="path1257"
       style="stroke-width:1.73127" />
    <path
       fill-rule="evenodd"
       clip-rule="evenodd"
       d="m 135.50844,77.695657 c -0.33104,0 -0.6585,0.065 -0.96448,0.191456 -0.30599,0.126466 -0.58334,0.311726 -0.81775,0.545394 -0.23441,0.2335 -0.41872,0.510886 -0.54577,0.816078 -0.12705,0.305192 -0.19146,0.63216 -0.19146,0.962478 v 8.38e-4 c 0,0.330318 0.0644,0.657286 0.19146,0.962478 0.12705,0.305192 0.31136,0.582578 0.54577,0.816078 0.23441,0.233668 0.51176,0.418928 0.81775,0.545394 0.30598,0.126464 0.63344,0.191456 0.96448,0.191456 0.33104,0 0.6585,-0.065 0.96269,-0.191456 0.30599,-0.126466 0.58513,-0.311726 0.81775,-0.545394 0.23441,-0.2335 0.42051,-0.510886 0.54577,-0.816078 0.12705,-0.305192 0.19146,-0.63216 0.19146,-0.962478 l 0.74439,-3.36e-4 -0.74439,-5.02e-4 c 0,-0.330318 -0.0644,-0.657286 -0.19146,-0.962478 -0.12526,-0.305192 -0.31136,-0.582578 -0.54577,-0.816078 -0.23262,-0.233668 -0.51176,-0.418928 -0.81775,-0.545394 -0.30419,-0.126464 -0.63165,-0.191456 -0.96269,-0.191456 z m 4.00823,2.515908 c 0,-0.52546 -0.10378,-1.045894 -0.30419,-1.53132 -0.2022,-0.485762 -0.49745,-0.926968 -0.86965,-1.298826 -0.37219,-0.37169 -0.81417,-0.666666 -1.30088,-0.867838 -0.48672,-0.201172 -1.00743,-0.30469 -1.53351,-0.30469 -0.52787,0 -1.04858,0.103519 -1.5353,0.30469 -0.48671,0.201172 -0.92869,0.496148 -1.30088,0.867838 -0.3722,0.371858 -0.66745,0.813064 -0.86786,1.298826 -0.2022,0.485426 -0.30598,1.00586 -0.30419,1.53132 -0.002,0.525292 0.10199,1.045728 0.30419,1.531154 0.20041,0.485762 0.49566,0.926966 0.86786,1.298826 0.37219,0.37169 0.81417,0.666666 1.30088,0.867838 0.48672,0.201172 1.00743,0.304688 1.5353,0.304688 0.52608,0 1.04679,-0.103519 1.53351,-0.304688 0.48671,-0.201172 0.92869,-0.496148 1.30088,-0.867838 0.3722,-0.37186 0.66745,-0.813064 0.86965,-1.298826 0.20041,-0.485426 0.30419,-1.005862 0.30419,-1.531154 z"
       fill="#babdb6"
       id="path1259"
       style="stroke-width:1.73127" />
  </g>
  <defs
     id="defs106">
    <clipPath
       id="clip0_2001_5900">
      <rect
         y="118"
         width="118"
         height="184"
         rx="7"
         transform="rotate(-90 0 118)"
         fill="white"
         id="rect103" />
    </clipPath>
  </defs>
</svg>
