<svg width="118" height="193" viewBox="0 0 118 193" fill="none" xmlns="http://www.w3.org/2000/svg">
<rect x="7.89461" y="6.29022" width="105.47" height="162.495" fill="white"/>
<path d="M6.26492 0.125305C3.05451 0.125305 0.452043 2.72809 0.451721 5.9385V186.922C0.45207 190.132 3.05451 192.735 6.26492 192.735H112.016C115.227 192.735 117.829 190.132 117.83 186.922V5.9385C117.83 2.72809 115.227 0.12563 112.016 0.125305H6.26492ZM12.0781 16.1697H106.203V169.017H12.0781V16.1697Z" fill="#848484"/>
<path d="M59.1406 186.142C62.6264 186.142 65.4521 183.316 65.4521 179.83C65.4521 176.345 62.6264 173.519 59.1406 173.519C55.6549 173.519 52.8292 176.345 52.8292 179.83C52.8292 183.316 55.6549 186.142 59.1406 186.142Z" fill="white"/>
</svg>
