<svg width="194" height="119" viewBox="0 0 194 119" fill="none" xmlns="http://www.w3.org/2000/svg">
<g clip-path="url(#clip0)">
<rect x="6.79022" y="110.605" width="105.47" height="162.495" transform="rotate(-90 6.79022 110.605)" fill="white"/>
<path d="M0.625275 112.235C0.625275 115.445 3.22806 118.048 6.43847 118.048H187.422C190.632 118.048 193.235 115.445 193.235 112.235V6.484C193.235 3.273 190.632 0.670998 187.422 0.669998H6.43847C3.22806 0.669998 0.6256 3.273 0.625275 6.484V112.235ZM16.6697 106.422V12.297H169.517V106.422H16.6697Z" fill="#848484"/>
<path d="M186.642 59.3594C186.642 55.8736 183.816 53.0479 180.33 53.0479C176.845 53.0479 174.019 55.8736 174.019 59.3594C174.019 62.8451 176.845 65.6708 180.33 65.6708C183.816 65.6708 186.642 62.8451 186.642 59.3594Z" fill="white"/>
</g>
<defs>
<clipPath id="clip0">
<rect width="118" height="193" fill="white" transform="translate(0.5 118.5) rotate(-90)"/>
</clipPath>
</defs>
</svg>
