<svg width="102" height="66" viewBox="0 0 102 66" fill="none" xmlns="http://www.w3.org/2000/svg">
<g clip-path="url(#clip0_5341_5949)">
<rect x="0.46875" y="65.4048" width="64.7347" height="100.942" rx="3.8402" transform="rotate(-90 0.46875 65.4048)" fill="white"/>
<path d="M-1.72229 62.1712C-1.72229 63.9325 -0.294402 65.3602 1.46683 65.3604H100.754C102.515 65.3602 103.943 63.9325 103.943 62.1712V4.15609C103.943 2.39486 102.515 0.967148 100.754 0.96697H1.46683C-0.294402 0.96697 -1.72211 2.39486 -1.72229 4.15609V62.1712ZM7.07967 58.9821V7.3452H90.9318V58.9821H7.07967Z" fill="#848484"/>
<path d="M100.326 33.1638C100.326 31.2515 98.776 29.7013 96.8637 29.7013C94.9514 29.7013 93.4012 31.2515 93.4012 33.1638C93.4012 35.076 94.9514 36.6262 96.8637 36.6262C98.776 36.6262 100.326 35.076 100.326 33.1638Z" fill="white"/>
<rect x="25" y="10" width="19.7093" height="19.7093" rx="1.23315" fill="#0069F1"/>
<path d="M39.5936 15.5186C40.85 16.6687 41.5558 18.2283 41.5558 19.8546C41.5558 21.4809 40.85 23.0405 39.5936 24.1907M37.2278 17.6835C37.856 18.2586 38.2089 19.0384 38.2089 19.8515C38.2089 20.6647 37.856 21.4445 37.2278 22.0196M34.1851 15.5615L30.8342 18.0147H28.1534V21.6945H30.8342L34.1851 24.1477V15.5615Z" stroke="white" stroke-width="0.788373" stroke-linecap="round" stroke-linejoin="round"/>
<rect x="47.4523" y="10" width="19.7093" height="19.7093" rx="1.23315" fill="#0069F1"/>
<path d="M62.0458 15.5186C63.3022 16.6687 64.0081 18.2283 64.0081 19.8546C64.0081 21.4809 63.3022 23.0405 62.0458 24.1907M59.6801 17.6835C60.3083 18.2586 60.6612 19.0384 60.6612 19.8515C60.6612 20.6647 60.3083 21.4445 59.6801 22.0196M56.6374 15.5615L53.2865 18.0147H50.6057V21.6945H53.2865L56.6374 24.1477V15.5615Z" stroke="white" stroke-width="0.788373" stroke-linecap="round" stroke-linejoin="round"/>
<rect x="69.9047" y="10" width="19.7093" height="19.7093" rx="1.23315" fill="#0069F1"/>
<path d="M84.4982 15.5186C85.7546 16.6687 86.4605 18.2283 86.4605 19.8546C86.4605 21.4809 85.7546 23.0405 84.4982 24.1907M82.1325 17.6835C82.7607 18.2586 83.1136 19.0384 83.1136 19.8515C83.1136 20.6647 82.7607 21.4445 82.1325 22.0196M79.0898 15.5615L75.7389 18.0147H73.0581V21.6945H75.7389L79.0898 24.1477V15.5615Z" stroke="white" stroke-width="0.788373" stroke-linecap="round" stroke-linejoin="round"/>
<rect x="14.7324" y="33.0374" width="44.0412" height="20.8468" rx="1.0972" stroke="#0069F1" stroke-width="1.0972"/>
<rect x="18.0242" y="36.3291" width="14.2636" height="14.2636" rx="1.84986" stroke="#0069F1" stroke-width="1.35069" stroke-dasharray="2.7 2.7"/>
<path d="M40.4095 42.2311L40.1266 43.7869C39.9038 43.5854 39.6595 43.4354 39.3937 43.3369C39.128 43.2383 38.813 43.189 38.4487 43.189C37.9687 43.189 37.5829 43.3754 37.2915 43.7483C37.0043 44.1212 36.8607 44.6205 36.8607 45.2462C36.8607 45.812 36.9958 46.2749 37.2658 46.6349C37.5401 46.9949 37.9344 47.1749 38.4487 47.1749C38.8344 47.1749 39.1666 47.1128 39.4452 46.9885C39.7238 46.8642 40.0023 46.6906 40.2809 46.4677L40.4738 48.0107C40.1823 48.2078 39.8502 48.3578 39.4773 48.4607C39.1044 48.5678 38.678 48.6214 38.198 48.6214C37.6236 48.6214 37.0986 48.4928 36.6229 48.2357C36.1471 47.9785 35.7678 47.6035 35.485 47.1106C35.2021 46.6135 35.0607 46.0134 35.0607 45.3105C35.0607 44.6419 35.1978 44.0419 35.4721 43.5104C35.7507 42.9747 36.1407 42.5525 36.6422 42.2439C37.1479 41.9311 37.7394 41.7746 38.4165 41.7746C38.8408 41.7746 39.2202 41.8196 39.5545 41.9096C39.8888 41.9997 40.1738 42.1068 40.4095 42.2311ZM48.5806 48.4607H46.8705C46.8105 48.3578 46.7527 48.1885 46.697 47.9528C46.6412 47.7128 46.5962 47.4642 46.562 47.2071C46.532 46.9456 46.517 46.7356 46.517 46.577V46.2106C46.3584 46.5792 46.1376 46.9499 45.8548 47.3228C45.5719 47.6914 45.2419 48 44.8647 48.2485C44.4876 48.4971 44.074 48.6214 43.6239 48.6214C43.0839 48.6214 42.6275 48.3835 42.2546 47.9078C41.8817 47.4278 41.6953 46.7335 41.6953 45.8248C41.6953 45.3148 41.7703 44.8198 41.9203 44.3398C42.0703 43.8555 42.3017 43.4204 42.6146 43.0347C42.9275 42.649 43.3261 42.3425 43.8104 42.1154C44.2947 41.8882 44.869 41.7746 45.5333 41.7746C46.0005 41.7746 46.4634 41.8025 46.922 41.8582C47.3849 41.9096 47.7984 41.9782 48.1628 42.0639V45.0534C48.1628 45.8634 48.2013 46.5449 48.2785 47.0978C48.3556 47.6464 48.4563 48.1007 48.5806 48.4607ZM46.3241 43.7676V43.3433C46.2341 43.3219 46.1034 43.2961 45.9319 43.2661C45.7605 43.2319 45.5376 43.2147 45.2633 43.2147C44.8133 43.2147 44.4597 43.339 44.2026 43.5876C43.9454 43.8362 43.7632 44.1598 43.6561 44.5584C43.5489 44.9569 43.4954 45.3791 43.4954 45.8248C43.4954 46.202 43.5639 46.5085 43.7011 46.7442C43.8425 46.9756 44.0097 47.0913 44.2026 47.0913C44.3826 47.0913 44.569 47.0013 44.7619 46.8213C44.959 46.6413 45.1497 46.412 45.334 46.1334C45.5183 45.8548 45.6855 45.5613 45.8355 45.2527C45.9855 44.9441 46.1034 44.6569 46.1891 44.3912C46.2791 44.1212 46.3241 43.9133 46.3241 43.7676ZM54.3988 46.6542V48.0942C54.0945 48.2871 53.8009 48.4221 53.518 48.4993C53.2352 48.5807 52.978 48.6214 52.7466 48.6214C52.3437 48.6214 51.9751 48.5678 51.6408 48.4607C51.3065 48.3493 51.0386 48.1564 50.8372 47.8821C50.64 47.6035 50.5414 47.2178 50.5414 46.7249C50.5414 45.5977 50.5414 44.4726 50.5414 43.3497C50.5414 42.2225 50.5414 41.0975 50.5414 39.9745H52.3415C52.3415 40.8917 52.3415 41.8111 52.3415 42.7325C52.3415 43.6497 52.3415 44.5691 52.3415 45.4905C52.3415 45.9749 52.3694 46.3349 52.4251 46.5706C52.4808 46.8063 52.5687 46.9606 52.6887 47.0335C52.8087 47.1021 52.9651 47.1363 53.158 47.1363C53.4666 47.1363 53.8802 46.9756 54.3988 46.6542ZM54.3024 43.2854H49.32V41.9997H54.3024V43.2854Z" fill="#0069F1"/>
<path d="M23 18.5C15.7685 18.9987 15.3716 23.5659 17.3665 33.4407M17.3665 33.4407L20.3089 30.1491M17.3665 33.4407L14.0001 30.6977" stroke="#848484" stroke-width="2.1944" stroke-linecap="round" stroke-linejoin="round"/>
</g>
<defs>
<clipPath id="clip0_5341_5949">
<rect x="0.46875" y="65.4048" width="64.7347" height="100.942" rx="3.8402" transform="rotate(-90 0.46875 65.4048)" fill="white"/>
</clipPath>
</defs>
</svg>
