<svg width="102" height="66" viewBox="0 0 102 66" fill="none" xmlns="http://www.w3.org/2000/svg">
<g clip-path="url(#clip0_5341_5842)">
<rect x="0.46875" y="65.2373" width="64.7347" height="100.942" rx="3.8402" transform="rotate(-90 0.46875 65.2373)" fill="white"/>
<path d="M-1.72229 62.0038C-1.72229 63.765 -0.294402 65.1927 1.46683 65.1929H100.754C102.515 65.1927 103.943 63.765 103.943 62.0038V3.98861C103.943 2.22738 102.515 0.799668 100.754 0.799489H1.46683C-0.294402 0.799489 -1.72211 2.22738 -1.72229 3.98861V62.0038ZM7.07967 58.8146V7.17772H90.9318V58.8146H7.07967Z" fill="#848484"/>
<path d="M100.326 32.996C100.326 31.0838 98.776 29.5336 96.8637 29.5336C94.9514 29.5336 93.4012 31.0838 93.4012 32.996C93.4012 34.9083 94.9514 36.4585 96.8637 36.4585C98.776 36.4585 100.326 34.9083 100.326 32.996Z" fill="white"/>
<rect x="11.4408" y="12.5718" width="16.2411" height="16.2411" rx="1.68011" fill="#0069F1"/>
<path d="M21.9703 23.3721H21.092C21.0452 23.265 21.0033 23.1094 20.9665 22.9053C20.9331 22.6979 20.908 22.4854 20.8913 22.2679C20.8745 22.0471 20.8662 21.8631 20.8662 21.7159V21.3144C20.7357 21.659 20.5684 22.0003 20.3643 22.3382C20.1602 22.6728 19.921 22.9505 19.6466 23.1713C19.3722 23.3888 19.0594 23.4975 18.7081 23.4975C18.2865 23.4975 17.9302 23.3118 17.6391 22.9405C17.348 22.5657 17.2025 22.0237 17.2025 21.3144C17.2025 20.9162 17.256 20.5298 17.3631 20.155C17.4701 19.777 17.6341 19.4373 17.8549 19.1362C18.0757 18.8351 18.3568 18.5959 18.698 18.4185C19.0393 18.2412 19.4442 18.1525 19.9126 18.1525C20.2371 18.1525 20.5433 18.1743 20.831 18.2178C21.1188 18.2579 21.3898 18.3115 21.6441 18.3784V20.7121C21.6441 21.3445 21.6742 21.8765 21.7344 22.3081C21.7946 22.7364 21.8733 23.091 21.9703 23.3721ZM20.7156 19.6833V19.0459C20.632 19.0258 20.5266 19.0057 20.3994 18.9857C20.2756 18.9656 20.0883 18.9555 19.8373 18.9555C19.4024 18.9555 19.0594 19.0693 18.8085 19.2968C18.5609 19.521 18.3852 19.8121 18.2815 20.1701C18.1811 20.5281 18.1309 20.9095 18.1309 21.3144C18.1309 21.7025 18.2029 22.022 18.3467 22.273C18.4906 22.5206 18.6612 22.6443 18.8587 22.6443C19.036 22.6443 19.2133 22.5674 19.3906 22.4135C19.568 22.2562 19.7353 22.0555 19.8925 21.8112C20.0531 21.5636 20.1936 21.3043 20.3141 21.0333C20.4379 20.759 20.5349 20.5013 20.6052 20.2604C20.6788 20.0195 20.7156 19.8271 20.7156 19.6833Z" fill="white"/>
<rect x="30.6819" y="12.5718" width="16.2411" height="16.2411" rx="1.68011" fill="#0069F1"/>
<path d="M40.5188 22.293V23.096C40.2879 23.2433 40.0671 23.347 39.8563 23.4072C39.6455 23.4674 39.4515 23.4975 39.2741 23.4975C39.0132 23.4975 38.7756 23.4557 38.5615 23.3721C38.3473 23.2851 38.1767 23.1345 38.0496 22.9204C37.9224 22.7029 37.8588 22.4018 37.8588 22.017C37.8588 21.8965 37.8588 21.6991 37.8588 21.4248C37.8588 21.1504 37.8588 20.8275 37.8588 20.4562C37.8588 20.0814 37.8588 19.6816 37.8588 19.2567C37.8588 18.8284 37.8588 18.3985 37.8588 17.9668C37.8588 17.5352 37.8588 17.1287 37.8588 16.7473H38.7873C38.7873 17.1756 38.7873 17.6339 38.7873 18.1224C38.7873 18.6076 38.7873 19.0777 38.7873 19.5327C38.7873 19.9877 38.7873 20.3842 38.7873 20.7222C38.7873 21.0567 38.7873 21.2876 38.7873 21.4147C38.7873 21.7594 38.8091 22.022 38.8526 22.2027C38.8994 22.3834 38.9697 22.5072 39.0633 22.5741C39.157 22.6377 39.2792 22.6694 39.4297 22.6694C39.7041 22.6694 40.0671 22.544 40.5188 22.293ZM40.4184 19.1061H36.8551V18.3784H40.4184V19.1061Z" fill="white"/>
<rect x="49.923" y="12.5718" width="16.2411" height="16.2411" rx="1.68011" fill="#0069F1"/>
<path d="M60.0259 22.0672L60.1263 22.9455C59.872 23.1362 59.6143 23.2767 59.3534 23.3671C59.0924 23.454 58.7729 23.4975 58.3948 23.4975C57.9464 23.4975 57.5382 23.3938 57.1702 23.1864C56.8021 22.9756 56.5077 22.6778 56.2869 22.293C56.0694 21.9049 55.9607 21.4449 55.9607 20.9129C55.9607 20.4076 56.0661 19.9459 56.2768 19.5277C56.491 19.1095 56.7938 18.7765 57.1852 18.5289C57.5767 18.278 58.0384 18.1525 58.5704 18.1525C58.905 18.1525 59.1928 18.1927 59.4337 18.273C59.6779 18.3499 59.892 18.452 60.0761 18.5791L59.9004 19.4825C59.6762 19.3152 59.4504 19.1898 59.2229 19.1061C58.9954 19.0225 58.7528 18.9806 58.4951 18.9806C58.0501 18.9806 57.6754 19.1463 57.3709 19.4775C57.0665 19.8087 56.9142 20.2705 56.9142 20.8627C56.9142 21.4014 57.0564 21.838 57.3408 22.1726C57.6252 22.5038 58.01 22.6694 58.4951 22.6694C58.7963 22.6694 59.0723 22.6176 59.3232 22.5139C59.5742 22.4101 59.8084 22.2612 60.0259 22.0672Z" fill="white"/>
<path d="M72 20C79.2315 20.4987 82.7226 26.7328 78.2341 36.458M78.2341 36.458L76.3888 32.8921M78.2341 36.458L82.972 34.8122" stroke="#848484" stroke-width="2.1944" stroke-linecap="round" stroke-linejoin="round"/>
<g clip-path="url(#clip1_5341_5842)">
<rect x="22" y="37" width="14.2636" height="14.2636" rx="1.84986" stroke="#0069F1" stroke-width="1.35069" stroke-dasharray="2.7 2.7"/>
<rect x="40.2635" y="37" width="14.2636" height="14.2636" rx="1.84986" stroke="#0069F1" stroke-width="1.35069" stroke-dasharray="2.7 2.7"/>
<rect x="58.5272" y="37" width="14.2636" height="14.2636" rx="1.84986" stroke="#0069F1" stroke-width="1.35069" stroke-dasharray="2.7 2.7"/>
</g>
</g>
<defs>
<clipPath id="clip0_5341_5842">
<rect x="0.46875" y="65.2373" width="64.7347" height="100.942" rx="3.8402" transform="rotate(-90 0.46875 65.2373)" fill="white"/>
</clipPath>
<clipPath id="clip1_5341_5842">
<rect width="52.7907" height="16.2636" fill="white" transform="translate(21 36)"/>
</clipPath>
</defs>
</svg>
