<svg width="65" height="101" viewBox="0 0 65 101" fill="none" xmlns="http://www.w3.org/2000/svg">
<g clip-path="url(#clip0_5383_8187)">
<rect width="64.7347" height="100.942" rx="3.8402" fill="white"/>
<path d="M3.23343 -2.19434C1.4722 -2.19434 0.0444882 -0.766448 0.0443115 0.99478L0.0443115 100.282C0.0445029 102.043 1.4722 103.471 3.23343 103.471H61.2486C63.0098 103.471 64.4375 102.043 64.4377 100.282V0.99478C64.4377 -0.766448 63.0098 -2.19416 61.2486 -2.19434L3.23343 -2.19434ZM6.42255 6.60762L58.0595 6.60762L58.0595 90.4597H6.42255L6.42255 6.60762Z" fill="#848484"/>
<path d="M32.241 99.8541C34.1533 99.8541 35.7035 98.3039 35.7035 96.3917C35.7035 94.4794 34.1533 92.9292 32.241 92.9292C30.3288 92.9292 28.7786 94.4794 28.7786 96.3917C28.7786 98.3039 30.3288 99.8541 32.241 99.8541Z" fill="white"/>
<rect x="10" y="11.259" width="16.2411" height="16.2411" rx="1.68011" fill="#0069F1"/>
<path d="M20.5295 22.0593H19.6512C19.6044 21.9523 19.5625 21.7967 19.5257 21.5926C19.4923 21.3851 19.4672 21.1727 19.4505 20.9552C19.4337 20.7344 19.4254 20.5503 19.4254 20.4031V20.0016C19.2949 20.3462 19.1276 20.6875 18.9235 21.0255C18.7194 21.36 18.4802 21.6377 18.2058 21.8586C17.9314 22.0761 17.6186 22.1848 17.2673 22.1848C16.8457 22.1848 16.4894 21.9991 16.1983 21.6277C15.9072 21.253 15.7617 20.7109 15.7617 20.0016C15.7617 19.6035 15.8152 19.217 15.9223 18.8423C16.0293 18.4642 16.1933 18.1246 16.4141 17.8235C16.6349 17.5223 16.916 17.2831 17.2573 17.1058C17.5985 16.9285 18.0034 16.8398 18.4718 16.8398C18.7963 16.8398 19.1025 16.8615 19.3902 16.905C19.678 16.9452 19.949 16.9987 20.2033 17.0656V19.3994C20.2033 20.0317 20.2334 20.5637 20.2936 20.9953C20.3538 21.4236 20.4325 21.7783 20.5295 22.0593ZM19.2748 18.3705V17.7331C19.1912 17.7131 19.0858 17.693 18.9586 17.6729C18.8348 17.6528 18.6475 17.6428 18.3965 17.6428C17.9616 17.6428 17.6186 17.7566 17.3677 17.9841C17.1201 18.2082 16.9444 18.4993 16.8407 18.8573C16.7403 19.2154 16.6901 19.5968 16.6901 20.0016C16.6901 20.3897 16.7621 20.7093 16.9059 20.9602C17.0498 21.2078 17.2204 21.3316 17.4179 21.3316C17.5952 21.3316 17.7725 21.2546 17.9498 21.1007C18.1272 20.9435 18.2945 20.7427 18.4517 20.4985C18.6123 20.2509 18.7528 19.9916 18.8733 19.7206C18.9971 19.4462 19.0941 19.1886 19.1644 18.9477C19.238 18.7068 19.2748 18.5144 19.2748 18.3705Z" fill="white"/>
<rect x="29.2411" y="11.259" width="16.2411" height="16.2411" rx="1.68011" fill="#0069F1"/>
<path d="M39.078 20.9803V21.7833C38.8471 21.9305 38.6263 22.0342 38.4155 22.0945C38.2047 22.1547 38.0107 22.1848 37.8333 22.1848C37.5724 22.1848 37.3348 22.143 37.1207 22.0593C36.9065 21.9723 36.7359 21.8218 36.6088 21.6076C36.4816 21.3902 36.418 21.089 36.418 20.7043C36.418 20.5838 36.418 20.3864 36.418 20.112C36.418 19.8377 36.418 19.5148 36.418 19.1434C36.418 18.7687 36.418 18.3689 36.418 17.9439C36.418 17.5157 36.418 17.0857 36.418 16.6541C36.418 16.2225 36.418 15.816 36.418 15.4345H37.3465C37.3465 15.8628 37.3465 16.3212 37.3465 16.8097C37.3465 17.2948 37.3465 17.7649 37.3465 18.22C37.3465 18.675 37.3465 19.0715 37.3465 19.4094C37.3465 19.744 37.3465 19.9749 37.3465 20.102C37.3465 20.4466 37.3683 20.7093 37.4118 20.89C37.4586 21.0706 37.5289 21.1944 37.6225 21.2613C37.7162 21.3249 37.8384 21.3567 37.9889 21.3567C38.2633 21.3567 38.6263 21.2312 39.078 20.9803ZM38.9776 17.7934H35.4143V17.0656H38.9776V17.7934Z" fill="white"/>
<rect x="10" y="30.5" width="16.2411" height="16.2411" rx="1.68011" fill="#0069F1"/>
<path d="M20.1029 39.9954L20.2033 40.8737C19.949 41.0644 19.6914 41.2049 19.4304 41.2953C19.1694 41.3823 18.8499 41.4258 18.4718 41.4258C18.0235 41.4258 17.6153 41.322 17.2472 41.1146C16.8792 40.9038 16.5847 40.606 16.3639 40.2213C16.1464 39.8331 16.0377 39.3731 16.0377 38.8411C16.0377 38.3359 16.1431 37.8741 16.3539 37.4559C16.568 37.0377 16.8708 36.7048 17.2623 36.4572C17.6537 36.2062 18.1155 36.0808 18.6475 36.0808C18.982 36.0808 19.2698 36.1209 19.5107 36.2012C19.7549 36.2782 19.9691 36.3802 20.1531 36.5074L19.9774 37.4107C19.7533 37.2434 19.5274 37.118 19.2999 37.0343C19.0724 36.9507 18.8298 36.9089 18.5722 36.9089C18.1272 36.9089 17.7524 37.0745 17.448 37.4057C17.1435 37.737 16.9913 38.1987 16.9913 38.7909C16.9913 39.3296 17.1335 39.7662 17.4179 40.1008C17.7023 40.432 18.087 40.5977 18.5722 40.5977C18.8733 40.5977 19.1493 40.5458 19.4003 40.4421C19.6512 40.3384 19.8854 40.1895 20.1029 39.9954Z" fill="white"/>
<g clip-path="url(#clip1_5383_8187)">
<rect x="10" y="65" width="11.6667" height="11" rx="1.84986" stroke="#0069F1" stroke-width="1.35069" stroke-dasharray="2.7 2.7"/>
<rect x="25.6666" y="65" width="11.6667" height="11" rx="1.84986" stroke="#0069F1" stroke-width="1.35069" stroke-dasharray="2.7 2.7"/>
<rect x="41.3334" y="65" width="11.6667" height="11" rx="1.84986" stroke="#0069F1" stroke-width="1.35069" stroke-dasharray="2.7 2.7"/>
</g>
<path d="M29 44C36.2315 44.4987 39.7226 50.7328 35.2341 60.458M35.2341 60.458L33.3888 56.8921M35.2341 60.458L39.972 58.8122" stroke="#848484" stroke-width="2.1944" stroke-linecap="round" stroke-linejoin="round"/>
</g>
<defs>
<clipPath id="clip0_5383_8187">
<rect width="64.7347" height="100.942" rx="3.8402" fill="white"/>
</clipPath>
<clipPath id="clip1_5383_8187">
<rect width="45" height="13" fill="white" transform="translate(9 64)"/>
</clipPath>
</defs>
</svg>
