<svg width="193" height="118" viewBox="0 0 193 118" fill="none" xmlns="http://www.w3.org/2000/svg">
<g clip-path="url(#clip0_4699_2467)">
<rect y="118" width="118" height="193" rx="7" transform="rotate(-90 0 118)" fill="white"/>
<path d="M150.757 51.5813C132.955 38.4454 151.658 39.1017 131.263 46.7565C120.29 50.875 132.754 69.0501 136.059 57.094C142.204 34.872 147.401 54.1562 134.313 35.7139C127.271 25.7914 115.009 44.1237 126.63 43.8019C148.23 43.2037 132.74 54.4658 145.045 35.413C151.666 25.1621 131.624 18.3169 135.501 30.0741C142.705 51.9265 127.934 39.6026 148.628 46.2697C159.762 49.8568 159.637 27.2939 150.412 34.8821C133.265 48.9858 139.626 30.1071 140.11 53.2803C140.371 65.7482 160.335 58.6488 150.757 51.5813Z" fill="#888A85"/>
<path fill-rule="evenodd" clip-rule="evenodd" d="M146.546 28.2005C147.579 30.4121 147.546 33.1094 145.73 35.9218C145.211 36.7252 144.742 37.4733 144.319 38.1692C145.793 37.3124 147.631 36.0435 149.905 34.173C151.129 33.1661 152.277 32.5959 153.337 32.4533C154.422 32.3074 155.369 32.6183 156.117 33.2719C157.553 34.5273 158.096 36.8794 157.986 39.1222C157.875 41.4057 157.08 43.8856 155.486 45.5725C153.845 47.3098 151.443 48.1094 148.389 47.1253C147.516 46.8441 146.708 46.5974 145.96 46.3809C147.175 47.6197 148.868 49.103 151.229 50.8451C152.5 51.783 153.36 52.7778 153.814 53.8151C154.279 54.8774 154.296 55.9395 153.948 56.9043C153.279 58.7575 151.361 60.0383 149.339 60.6195C147.28 61.2113 144.836 61.1666 142.848 60.0618C140.8 58.924 139.349 56.7208 139.278 53.3003C139.257 52.323 139.227 51.4225 139.187 50.5928C138.465 52.2152 137.673 54.4008 136.858 57.348C136.419 58.9346 135.803 60.1196 135.024 60.9032C134.226 61.7057 133.289 62.0512 132.326 61.9939C130.477 61.8839 128.749 60.3233 127.608 58.4397C126.448 56.522 125.732 54.0145 126.097 51.6448C126.473 49.2042 127.978 47.043 130.988 45.9131C131.848 45.5903 132.637 45.2805 133.36 44.9842C131.699 44.7481 129.517 44.6156 126.652 44.6949C125.11 44.7376 123.869 44.4752 122.933 43.9222C121.975 43.3558 121.38 42.5073 121.133 41.5071C120.659 39.5858 121.508 37.3406 122.826 35.5953C124.167 33.8182 126.169 32.3132 128.383 31.9534C130.663 31.5829 133.044 32.4504 134.975 35.1726C135.527 35.9503 136.046 36.6594 136.532 37.306C136.228 35.5376 135.671 33.2702 134.716 30.372C134.201 28.8118 134.05 27.4646 134.251 26.3391C134.457 25.1866 135.026 24.3168 135.836 23.7559C137.393 22.6785 139.646 22.8515 141.6 23.6563C143.59 24.4759 145.543 26.0532 146.546 28.2005ZM136.852 40.501C135.929 39.363 134.866 37.968 133.65 36.255C132.061 34.016 130.269 33.4541 128.632 33.7201C126.929 33.9969 125.272 35.1943 124.12 36.7198C122.945 38.277 122.468 39.9343 122.743 41.0498C122.871 41.5679 123.169 42.0213 123.737 42.3572C124.328 42.7063 125.246 42.9464 126.609 42.9086C131.209 42.7812 134.202 43.1838 136.172 43.7476C136.195 43.618 136.235 43.5268 136.246 43.5007C136.247 43.4988 136.248 43.4972 136.248 43.496C136.299 43.3757 136.338 43.3031 136.375 43.2348C136.435 43.1238 136.489 43.0241 136.578 42.7499C136.696 42.3841 136.827 41.792 136.849 40.8632C136.852 40.7476 136.853 40.627 136.852 40.501ZM138.67 46.169C138.665 46.1841 138.665 46.1812 138.67 46.1664C138.67 46.1673 138.67 46.1682 138.67 46.169ZM138.96 47.3418C138.852 47.2786 138.784 47.2099 138.764 47.1902C138.763 47.1888 138.761 47.1876 138.761 47.1867C138.67 47.0974 138.617 47.0351 138.568 46.9764C138.488 46.8811 138.416 46.7956 138.201 46.62C137.913 46.3859 137.429 46.07 136.612 45.7603C136.51 45.7218 136.404 45.6834 136.292 45.6453C134.998 46.2356 133.433 46.8887 131.538 47.5997C129.062 48.5291 128.01 50.1842 127.74 51.9362C127.459 53.759 128.009 55.8203 129.005 57.4666C130.023 59.1471 131.344 60.1459 132.418 60.2098C132.917 60.2395 133.411 60.0755 133.885 59.5995C134.377 59.1048 134.873 58.2423 135.261 56.8399C136.57 52.1067 137.851 49.1777 138.96 47.3418ZM141.878 45.5423C141.89 45.5517 141.888 45.5508 141.876 45.5406C141.877 45.5412 141.878 45.5417 141.878 45.5423ZM143.008 45.6083C142.919 45.6987 142.836 45.7475 142.813 45.7615C142.811 45.7625 142.81 45.7633 142.809 45.7639C142.702 45.8291 142.63 45.8632 142.563 45.8952C142.454 45.9473 142.356 45.9941 142.133 46.1599C141.837 46.3809 141.407 46.7778 140.88 47.5153C140.815 47.607 140.748 47.7039 140.679 47.8063C140.803 49.3092 140.898 51.1078 140.943 53.2602C141.002 56.0736 142.144 57.6584 143.614 58.4752C145.143 59.325 147.14 59.4015 148.908 58.8935C150.712 58.3749 152.006 57.3349 152.394 56.2589C152.575 55.7591 152.582 55.2044 152.307 54.5744C152.02 53.9194 151.409 53.1464 150.285 52.3173C146.494 49.5195 144.293 47.3067 143.008 45.6083ZM142.314 42.0747C142.326 42.0654 142.325 42.0677 142.312 42.0763C142.313 42.0757 142.314 42.0752 142.314 42.0747ZM142.722 40.9427C142.775 41.0618 142.792 41.1607 142.797 41.189C142.798 41.191 142.798 41.1927 142.798 41.194C142.823 41.3235 142.831 41.4069 142.839 41.4854C142.851 41.6129 142.862 41.7274 142.941 42.0053C143.045 42.3761 143.264 42.9373 143.755 43.7027C143.816 43.7979 143.881 43.8962 143.951 43.9976C145.322 44.3362 146.946 44.7947 148.868 45.4139C151.38 46.2233 153.138 45.5477 154.316 44.3005C155.542 43.0029 156.227 40.9889 156.323 39.0286C156.421 37.0275 155.899 35.386 155.065 34.6571C154.677 34.3186 154.188 34.1397 153.544 34.2263C152.875 34.3163 152.001 34.7009 150.919 35.591C147.266 38.595 144.625 40.1564 142.722 40.9427ZM139.375 40.5583C139.371 40.5432 139.372 40.5455 139.376 40.5609C139.375 40.56 139.375 40.5592 139.375 40.5583ZM137.122 43.0888C137.108 43.0886 137.11 43.0877 137.125 43.0888C137.124 43.0888 137.123 43.0888 137.122 43.0888ZM138.497 39.7927C138.388 37.6083 137.82 34.4306 136.286 29.7761C135.831 28.397 135.76 27.3862 135.887 26.6756C136.009 25.9921 136.319 25.5479 136.739 25.2574C137.643 24.6318 139.26 24.6064 141.003 25.3245C142.712 26.028 144.285 27.3492 145.057 29.001C145.799 30.5886 145.854 32.591 144.36 34.9041C143.217 36.6738 142.309 38.1891 141.585 39.4827C141.474 39.5224 141.367 39.5586 141.264 39.5915C140.433 39.8559 139.868 39.9059 139.507 39.8979C139.236 39.8918 139.131 39.8679 139.015 39.8412C138.943 39.8247 138.866 39.8073 138.744 39.7923C138.743 39.7922 138.741 39.792 138.739 39.7917C138.712 39.7882 138.619 39.7759 138.497 39.7927Z" fill="#888A85"/>
<path d="M143.212 42.8896C143.212 43.4039 143.118 43.9132 142.935 44.3884C142.751 44.8636 142.483 45.2954 142.144 45.6592C141.805 46.023 141.402 46.3115 140.96 46.5084C140.517 46.7053 140.042 46.8066 139.563 46.8066C139.083 46.8066 138.609 46.7053 138.166 46.5084C137.723 46.3115 137.32 46.023 136.982 45.6592C136.643 45.2954 136.374 44.8636 136.191 44.3884C136.007 43.9132 135.913 43.4039 135.914 42.8896C135.913 42.3753 136.007 41.866 136.191 41.3908C136.374 40.9155 136.643 40.4837 136.982 40.12C137.32 39.7562 137.723 39.4676 138.166 39.2708C138.609 39.0739 139.083 38.9725 139.563 38.9725C140.042 38.9725 140.517 39.0739 140.96 39.2708C141.402 39.4676 141.805 39.7562 142.144 40.12C142.483 40.4837 142.751 40.9155 142.935 41.3908C143.118 41.866 143.212 42.3753 143.212 42.8896V42.8896Z" fill="#BABDB6"/>
<path fill-rule="evenodd" clip-rule="evenodd" d="M139.563 39.8658C139.193 39.8658 138.827 39.944 138.485 40.096C138.143 40.2479 137.832 40.4706 137.571 40.7514C137.309 41.0321 137.102 41.3654 136.961 41.7322C136.819 42.0989 136.746 42.492 136.747 42.8889V42.89C136.746 43.2869 136.819 43.68 136.961 44.0467C137.102 44.4135 137.309 44.7468 137.571 45.0275C137.832 45.3083 138.143 45.531 138.485 45.6829C138.827 45.8349 139.193 45.9131 139.563 45.9131C139.933 45.9131 140.299 45.8349 140.641 45.6829C140.983 45.531 141.293 45.3083 141.555 45.0275C141.816 44.7468 142.024 44.4135 142.165 44.0467C142.307 43.68 142.379 43.2869 142.379 42.89L143.212 42.8895L142.379 42.8889C142.379 42.492 142.307 42.0989 142.165 41.7322C142.024 41.3654 141.816 41.0321 141.555 40.7514C141.293 40.4706 140.983 40.2479 140.641 40.096C140.299 39.944 139.933 39.8658 139.563 39.8658ZM144.045 42.8895C144.045 42.258 143.929 41.6326 143.704 41.0491C143.479 40.4654 143.149 39.9351 142.733 39.4883C142.317 39.0415 141.823 38.6871 141.279 38.4453C140.735 38.2034 140.152 38.079 139.563 38.079C138.974 38.079 138.391 38.2034 137.847 38.4453C137.303 38.6871 136.809 39.0415 136.393 39.4883C135.977 39.9351 135.646 40.4654 135.421 41.0491C135.196 41.6326 135.081 42.258 135.081 42.8895C135.081 43.5209 135.196 44.1463 135.421 44.7298C135.646 45.3135 135.977 45.8438 136.393 46.2906C136.809 46.7374 137.303 47.0918 137.847 47.3336C138.391 47.5755 138.974 47.6999 139.563 47.6999C140.152 47.6999 140.735 47.5755 141.279 47.3336C141.823 47.0918 142.317 46.7374 142.733 46.2906C143.149 45.8438 143.479 45.3135 143.704 44.7298C143.929 44.1463 144.045 43.5209 144.045 42.8895Z" fill="#BABDB6"/>
<path d="M0 112.156C0 115.383 2.62157 118 5.85515 118H188.145C191.378 118 194 115.383 194 112.156V5.84391C194 2.61648 191.378 0.000217983 188.145 -0.000109282H5.85515C2.62157 -0.000109282 0.000327888 2.61648 0 5.84391V112.156ZM16.1602 106.312V11.6879H170.111V106.312H16.1602Z" fill="#848484"/>
<path d="M187.359 58.9999C187.359 55.4957 184.513 52.655 181.002 52.655C177.491 52.655 174.645 55.4957 174.645 58.9999C174.645 62.5041 177.491 65.3448 181.002 65.3448C184.513 65.3448 187.359 62.5041 187.359 58.9999Z" fill="white"/>
<rect x="47.0874" y="78.4615" width="18.4122" height="18.4122" rx="1.84725" stroke="#2F82BC" stroke-width="1.5" stroke-dasharray="4 4"/>
<rect x="70.4629" y="78.4615" width="18.4122" height="18.4122" rx="1.84725" stroke="#2F82BC" stroke-width="1.5" stroke-dasharray="4 4"/>
<rect x="93.8379" y="78.4615" width="18.4122" height="18.4122" rx="1.84725" stroke="#2F82BC" stroke-width="1.5" stroke-dasharray="4 4"/>
<g filter="url(#filter0_d_4699_2467)">
<rect x="26" y="33.6475" width="19.9122" height="19.9122" rx="2.05989" fill="#2F82BC"/>
<path d="M38.5096 46.5575C38.3538 46.6765 38.1979 46.7791 38.042 46.8652C37.8902 46.9472 37.7302 47.017 37.562 47.0744C37.3939 47.1277 37.2134 47.1667 37.0206 47.1913C36.8278 47.22 36.6165 47.2344 36.3868 47.2344C35.9725 47.2344 35.5848 47.1626 35.2238 47.019C34.8628 46.8714 34.547 46.6601 34.2762 46.3853C34.0055 46.1104 33.7922 45.7781 33.6363 45.3884C33.4804 44.9987 33.4025 44.5577 33.4025 44.0655C33.4025 43.6019 33.4763 43.1651 33.624 42.7548C33.7758 42.3446 33.9891 41.9857 34.2639 41.678C34.5429 41.3704 34.8792 41.1283 35.273 40.9519C35.671 40.7715 36.114 40.6812 36.6021 40.6812C37.0124 40.6812 37.3651 40.7304 37.6605 40.8289C37.96 40.9232 38.2225 41.0483 38.4481 41.2042L38.2328 42.3118C37.9538 42.1067 37.6769 41.9529 37.4021 41.8503C37.1272 41.7478 36.8298 41.6965 36.5098 41.6965C36.235 41.6965 35.9786 41.7498 35.7407 41.8565C35.5069 41.959 35.3018 42.1088 35.1254 42.3057C34.9531 42.5026 34.8177 42.7446 34.7193 43.0317C34.6208 43.3189 34.5716 43.643 34.5716 44.004C34.5716 44.3362 34.6167 44.6377 34.7069 44.9085C34.7972 45.1792 34.9264 45.413 35.0946 45.6099C35.2628 45.8027 35.4658 45.9525 35.7038 46.0591C35.9417 46.1658 36.2104 46.2191 36.5098 46.2191C36.8831 46.2191 37.2216 46.1555 37.5251 46.0284C37.8287 45.9012 38.1158 45.7187 38.3866 45.4807L38.5096 46.5575Z" fill="white"/>
</g>
<g filter="url(#filter1_d_4699_2467)">
<rect x="55.376" y="22.349" width="19.9122" height="19.9122" rx="2.05989" fill="#2F82BC"/>
<path d="M63.806 25.9369V30.7057C63.9496 30.517 64.1055 30.3426 64.2737 30.1827C64.4419 30.0227 64.6224 29.8832 64.8152 29.7642C65.0121 29.6453 65.2233 29.553 65.4489 29.4873C65.6746 29.4176 65.9166 29.3827 66.175 29.3827C66.4868 29.3827 66.7719 29.4586 67.0303 29.6104C67.2888 29.7622 67.5123 29.9755 67.701 30.2503C67.8897 30.5211 68.0354 30.8452 68.1379 31.2226C68.2446 31.6 68.2979 32.0122 68.2979 32.4594C68.2979 32.9885 68.2261 33.4664 68.0825 33.8931C67.9431 34.3197 67.7441 34.6848 67.4857 34.9883C67.2272 35.2919 66.9134 35.5257 66.5442 35.6898C66.1791 35.8539 65.7689 35.9359 65.3136 35.9359C65.0633 35.9359 64.8213 35.9175 64.5875 35.8806C64.3537 35.8477 64.126 35.8047 63.9045 35.7513C63.6871 35.6939 63.4758 35.6344 63.2707 35.5729C63.0656 35.5073 62.8646 35.4437 62.6677 35.3821V28.1029C62.6677 27.8403 62.6636 27.5778 62.6554 27.3153C62.6513 27.0486 62.6431 26.7963 62.6308 26.5584C62.6185 26.3164 62.6 26.1092 62.5754 25.9369H63.806ZM63.806 34.6438C63.9578 34.7053 64.0952 34.7586 64.2183 34.8037C64.3455 34.8448 64.4685 34.8796 64.5875 34.9083C64.7065 34.933 64.8234 34.9514 64.9382 34.9637C65.0572 34.976 65.1823 34.9822 65.3136 34.9822C65.5843 34.9822 65.8345 34.9268 66.0643 34.816C66.294 34.7053 66.4909 34.5494 66.655 34.3484C66.8232 34.1474 66.9544 33.9054 67.0488 33.6223C67.1431 33.3352 67.1903 33.0193 67.1903 32.6747C67.1903 32.3342 67.1595 32.0266 67.098 31.7517C67.0365 31.4769 66.9462 31.2451 66.8273 31.0564C66.7124 30.8636 66.5688 30.7159 66.3965 30.6134C66.2242 30.5108 66.0273 30.4596 65.8058 30.4596C65.613 30.4596 65.4202 30.5026 65.2274 30.5888C65.0346 30.6708 64.85 30.7877 64.6736 30.9395C64.5013 31.0913 64.3393 31.2738 64.1875 31.4871C64.0358 31.6964 63.9086 31.9281 63.806 32.1825V34.6438Z" fill="white"/>
</g>
<g filter="url(#filter2_d_4699_2467)">
<rect x="84.752" y="31.3878" width="19.9122" height="19.9122" rx="2.05989" fill="#2F82BC"/>
<path d="M96.2463 39.5291C96.1438 39.5086 95.994 39.484 95.7971 39.4553C95.6043 39.4225 95.3541 39.4061 95.0464 39.4061C94.6444 39.4061 94.308 39.4881 94.0373 39.6522C93.7707 39.8122 93.5574 40.0276 93.3974 40.2983C93.2374 40.5649 93.1225 40.8726 93.0528 41.2213C92.9872 41.57 92.9543 41.9289 92.9543 42.2981C92.9543 42.536 92.9769 42.7555 93.022 42.9565C93.0712 43.1534 93.1369 43.3257 93.2189 43.4734C93.301 43.6169 93.3953 43.7297 93.502 43.8118C93.6086 43.8897 93.7235 43.9287 93.8466 43.9287C93.9819 43.9287 94.1193 43.8836 94.2588 43.7933C94.4024 43.7031 94.5419 43.5821 94.6772 43.4303C94.8167 43.2744 94.9521 43.096 95.0834 42.895C95.2146 42.694 95.3377 42.4827 95.4525 42.2612C95.5674 42.0356 95.6741 41.8079 95.7725 41.5782C95.871 41.3484 95.9551 41.131 96.0248 40.9259C96.0945 40.7167 96.1479 40.526 96.1848 40.3537C96.2258 40.1814 96.2463 40.0399 96.2463 39.9291V39.5291ZM96.7078 44.8209C96.6627 44.7225 96.6217 44.5748 96.5847 44.3779C96.5519 44.181 96.5232 43.9697 96.4986 43.7441C96.4781 43.5144 96.4617 43.2908 96.4494 43.0734C96.4371 42.856 96.4309 42.6796 96.4309 42.5442V41.9289C96.2996 42.2776 96.1417 42.6324 95.9571 42.9934C95.7766 43.3544 95.5695 43.6826 95.3356 43.9779C95.1018 44.2692 94.8434 44.5092 94.5603 44.6979C94.2814 44.8825 93.9819 44.9748 93.662 44.9748C93.4035 44.9748 93.1615 44.9173 92.9359 44.8025C92.7103 44.6876 92.5134 44.5174 92.3452 44.2917C92.1811 44.0661 92.0519 43.7872 91.9575 43.4549C91.8632 43.1185 91.816 42.7329 91.816 42.2981C91.816 41.8099 91.8816 41.3341 92.0129 40.8705C92.1442 40.4029 92.3452 39.9886 92.6159 39.6276C92.8867 39.2625 93.2312 38.9713 93.6497 38.7538C94.0681 38.5323 94.5644 38.4216 95.1387 38.4216C95.5366 38.4216 95.9325 38.4482 96.3263 38.5016C96.7201 38.5508 97.0729 38.6164 97.3847 38.6985V41.5597C97.3847 42.335 97.4216 42.9873 97.4954 43.5164C97.5693 44.0415 97.6657 44.4763 97.7846 44.8209H96.7078Z" fill="white"/>
</g>
<path d="M60.4581 75.4566C60.4464 76.0087 60.8845 76.4659 61.4366 76.4776L70.4346 76.669C70.9868 76.6808 71.4439 76.2427 71.4557 75.6905C71.4674 75.1384 71.0293 74.6812 70.4772 74.6695L62.479 74.4993L62.6491 66.5011C62.6609 65.949 62.2228 65.4918 61.6706 65.4801C61.1185 65.4683 60.6613 65.9064 60.6496 66.4586L60.4581 75.4566ZM86.3081 50.278L60.766 74.7558L62.1498 76.1998L87.6919 51.722L86.3081 50.278Z" fill="#BABDB6"/>
</g>
<defs>
<filter id="filter0_d_4699_2467" x="23.2535" y="33.6475" width="25.4051" height="25.4053" filterUnits="userSpaceOnUse" color-interpolation-filters="sRGB">
<feFlood flood-opacity="0" result="BackgroundImageFix"/>
<feColorMatrix in="SourceAlpha" type="matrix" values="0 0 0 0 0 0 0 0 0 0 0 0 0 0 0 0 0 0 127 0" result="hardAlpha"/>
<feOffset dy="2.74652"/>
<feGaussianBlur stdDeviation="1.37326"/>
<feComposite in2="hardAlpha" operator="out"/>
<feColorMatrix type="matrix" values="0 0 0 0 0 0 0 0 0 0 0 0 0 0 0 0 0 0 0.25 0"/>
<feBlend mode="normal" in2="BackgroundImageFix" result="effect1_dropShadow_4699_2467"/>
<feBlend mode="normal" in="SourceGraphic" in2="effect1_dropShadow_4699_2467" result="shape"/>
</filter>
<filter id="filter1_d_4699_2467" x="52.6295" y="22.349" width="25.4051" height="25.4053" filterUnits="userSpaceOnUse" color-interpolation-filters="sRGB">
<feFlood flood-opacity="0" result="BackgroundImageFix"/>
<feColorMatrix in="SourceAlpha" type="matrix" values="0 0 0 0 0 0 0 0 0 0 0 0 0 0 0 0 0 0 127 0" result="hardAlpha"/>
<feOffset dy="2.74652"/>
<feGaussianBlur stdDeviation="1.37326"/>
<feComposite in2="hardAlpha" operator="out"/>
<feColorMatrix type="matrix" values="0 0 0 0 0 0 0 0 0 0 0 0 0 0 0 0 0 0 0.25 0"/>
<feBlend mode="normal" in2="BackgroundImageFix" result="effect1_dropShadow_4699_2467"/>
<feBlend mode="normal" in="SourceGraphic" in2="effect1_dropShadow_4699_2467" result="shape"/>
</filter>
<filter id="filter2_d_4699_2467" x="82.0054" y="31.3878" width="25.4051" height="25.4053" filterUnits="userSpaceOnUse" color-interpolation-filters="sRGB">
<feFlood flood-opacity="0" result="BackgroundImageFix"/>
<feColorMatrix in="SourceAlpha" type="matrix" values="0 0 0 0 0 0 0 0 0 0 0 0 0 0 0 0 0 0 127 0" result="hardAlpha"/>
<feOffset dy="2.74652"/>
<feGaussianBlur stdDeviation="1.37326"/>
<feComposite in2="hardAlpha" operator="out"/>
<feColorMatrix type="matrix" values="0 0 0 0 0 0 0 0 0 0 0 0 0 0 0 0 0 0 0.25 0"/>
<feBlend mode="normal" in2="BackgroundImageFix" result="effect1_dropShadow_4699_2467"/>
<feBlend mode="normal" in="SourceGraphic" in2="effect1_dropShadow_4699_2467" result="shape"/>
</filter>
<clipPath id="clip0_4699_2467">
<rect y="118" width="118" height="193" rx="7" transform="rotate(-90 0 118)" fill="white"/>
</clipPath>
</defs>
</svg>
