<svg width="193" height="118" viewBox="0 0 193 118" fill="none" xmlns="http://www.w3.org/2000/svg">
<g clip-path="url(#clip0_4699_2533)">
<rect y="118" width="118" height="193" rx="7" transform="rotate(-90 0 118)" fill="white"/>
<path d="M79.3018 39.3213C67.7546 30.9009 79.8858 31.3216 66.6571 36.2285C59.5396 38.8685 67.6238 50.5193 69.7682 42.8551C73.7537 28.6102 77.125 40.9719 68.6352 29.1499C64.0674 22.7893 56.114 34.5408 63.652 34.3345C77.6624 33.9511 67.6148 41.1703 75.5966 28.957C79.891 22.3859 66.8912 17.998 69.4057 25.5347C74.0791 39.5426 64.4979 31.6426 77.9208 35.9164C85.1426 38.2158 85.0619 23.7525 79.0778 28.6167C67.9557 37.6575 72.0819 25.5558 72.3959 40.4104C72.5648 48.4027 85.5146 43.8518 79.3018 39.3213Z" fill="#888A85"/>
<path fill-rule="evenodd" clip-rule="evenodd" d="M76.5705 24.3337C77.2406 25.7513 77.2189 27.4804 76.0408 29.2832C75.7042 29.7982 75.4003 30.2777 75.126 30.7238C76.0819 30.1746 77.2742 29.3612 78.7493 28.1622C79.5434 27.5167 80.2878 27.1512 80.9754 27.0598C81.6794 26.9663 82.2935 27.1656 82.7785 27.5845C83.7101 28.3893 84.0622 29.8971 83.9911 31.3347C83.9187 32.7985 83.4031 34.3882 82.3694 35.4695C81.3047 36.5832 79.7469 37.0957 77.7655 36.4649C77.1995 36.2847 76.6754 36.1265 76.1905 35.9878C76.9786 36.7819 78.0767 37.7327 79.6081 38.8494C80.4326 39.4506 80.9905 40.0883 81.2849 40.7533C81.5864 41.4342 81.5974 42.115 81.3714 42.7335C80.9374 43.9215 79.6936 44.7425 78.3819 45.1151C77.0464 45.4944 75.4611 45.4658 74.1715 44.7576C72.8434 44.0282 71.9023 42.6159 71.8559 40.4232C71.8427 39.7968 71.8226 39.2195 71.7973 38.6877C71.3284 39.7277 70.8148 41.1287 70.2862 43.0179C70.0017 44.035 69.602 44.7946 69.0965 45.297C68.5788 45.8114 67.9714 46.0328 67.3468 45.9961C66.1469 45.9256 65.0261 44.9252 64.2865 43.7178C63.5335 42.4884 63.0693 40.8811 63.3061 39.362C63.55 37.7976 64.5261 36.4122 66.4788 35.6879C67.0367 35.481 67.5483 35.2824 68.0176 35.0924C66.9397 34.9411 65.5242 34.8561 63.6661 34.907C62.6658 34.9344 61.8609 34.7662 61.254 34.4116C60.6325 34.0486 60.2462 33.5047 60.0861 32.8635C59.7786 31.6319 60.3297 30.1927 61.1843 29.0739C62.0544 27.9348 63.3529 26.97 64.7888 26.7394C66.2676 26.5018 67.812 27.0579 69.0652 28.803C69.4232 29.3015 69.7595 29.756 70.0749 30.1705C69.8776 29.0369 69.5164 27.5834 68.8965 25.7256C68.5629 24.7255 68.465 23.8619 68.5955 23.1405C68.7291 22.4017 69.0977 21.8441 69.6234 21.4845C70.6332 20.7939 72.0947 20.9048 73.3624 21.4207C74.6532 21.9461 75.9199 22.9572 76.5705 24.3337ZM70.2823 32.2186C69.6834 31.4891 68.9941 30.5949 68.2056 29.4968C67.1748 28.0615 66.0122 27.7013 64.9506 27.8719C63.8461 28.0493 62.7709 28.8169 62.0239 29.7947C61.2614 30.793 60.952 31.8553 61.1305 32.5704C61.2135 32.9025 61.4068 33.1931 61.7754 33.4084C62.1585 33.6323 62.754 33.7862 63.6382 33.762C66.6224 33.6803 68.5635 33.9383 69.8415 34.2997C69.8563 34.2167 69.882 34.1582 69.8894 34.1415C69.8899 34.1402 69.8904 34.1393 69.8907 34.1385C69.9238 34.0614 69.9492 34.0148 69.9731 33.971C70.0119 33.8999 70.0467 33.836 70.1044 33.6602C70.1814 33.4257 70.2659 33.0461 70.2803 32.4507C70.2821 32.3767 70.2828 32.2994 70.2823 32.2186ZM71.4613 35.8519C71.4583 35.8616 71.4583 35.8598 71.4618 35.8503C71.4617 35.8508 71.4615 35.8514 71.4613 35.8519ZM71.6498 36.6037C71.5798 36.5632 71.5353 36.5191 71.5226 36.5065C71.5217 36.5056 71.5209 36.5049 71.5203 36.5043C71.4614 36.4471 71.4275 36.4071 71.3955 36.3695C71.3437 36.3084 71.2971 36.2536 71.1573 36.1411C70.9707 35.991 70.6563 35.7884 70.1267 35.59C70.0608 35.5653 69.9916 35.5407 69.919 35.5162C69.0795 35.8946 68.0644 36.3133 66.8356 36.769C65.2295 37.3648 64.5471 38.4258 64.3721 39.5488C64.1899 40.7173 64.5462 42.0386 65.1926 43.094C65.8525 44.1712 66.7099 44.8115 67.4066 44.8524C67.7301 44.8715 68.0506 44.7663 68.3576 44.4612C68.6768 44.1441 68.9989 43.5912 69.2504 42.6922C70.0993 39.6581 70.9307 37.7806 71.6498 36.6037ZM73.5428 35.4502C73.5505 35.4562 73.5489 35.4557 73.5414 35.4491C73.5419 35.4495 73.5423 35.4498 73.5428 35.4502ZM74.2754 35.4925C74.2174 35.5505 74.1642 35.5817 74.1489 35.5907C74.1478 35.5913 74.1469 35.5919 74.1462 35.5923C74.0767 35.634 74.0303 35.6559 73.9867 35.6764C73.9159 35.7098 73.8523 35.7398 73.7082 35.8461C73.5159 35.9878 73.2371 36.2422 72.8953 36.7149C72.8528 36.7737 72.8094 36.8358 72.765 36.9015C72.845 37.8649 72.9069 39.0178 72.9361 40.3976C72.9742 42.201 73.7151 43.2169 74.6685 43.7405C75.6604 44.2853 76.9559 44.3343 78.1023 44.0087C79.2727 43.6762 80.112 43.0096 80.364 42.3198C80.481 41.9994 80.4857 41.6438 80.3069 41.24C80.121 40.8202 79.7246 40.3246 78.9959 39.7932C76.5363 37.9996 75.109 36.5812 74.2754 35.4925ZM73.8255 33.2274C73.8334 33.2214 73.8324 33.2229 73.8242 33.2284C73.8247 33.228 73.8251 33.2277 73.8255 33.2274ZM74.0899 32.5017C74.124 32.5781 74.1356 32.6415 74.1389 32.6596C74.1392 32.6609 74.1394 32.662 74.1395 32.6628C74.1555 32.7458 74.1608 32.7993 74.1657 32.8496C74.1738 32.9313 74.1811 33.0047 74.2318 33.1829C74.2995 33.4206 74.4416 33.7803 74.7601 34.271C74.7997 34.332 74.842 34.395 74.8872 34.46C75.7761 34.677 76.8295 34.9709 78.0763 35.3679C79.7059 35.8868 80.8462 35.4536 81.6105 34.6542C82.4058 33.8224 82.8501 32.5314 82.9122 31.2748C82.9756 29.992 82.6369 28.9397 82.096 28.4725C81.8448 28.2555 81.5273 28.1409 81.1097 28.1963C80.6757 28.254 80.1086 28.5006 79.4067 29.0712C77.0377 30.9968 75.3242 31.9977 74.0899 32.5017ZM71.9189 32.2553C71.916 32.2456 71.917 32.2471 71.9194 32.257C71.9192 32.2564 71.9191 32.2559 71.9189 32.2553ZM70.4577 33.8774C70.4481 33.8773 70.4497 33.8768 70.4594 33.8774C70.4588 33.8774 70.4582 33.8774 70.4577 33.8774ZM71.3496 31.7646C71.2789 30.3643 70.9105 28.3273 69.9151 25.3437C69.6202 24.4596 69.5742 23.8117 69.6566 23.3562C69.7359 22.918 69.9368 22.6333 70.2091 22.447C70.7954 22.0461 71.8441 22.0297 72.9752 22.4901C74.0833 22.941 75.1041 23.788 75.6046 24.8468C76.0856 25.8645 76.1217 27.1481 75.1527 28.6309C74.4113 29.7653 73.8221 30.7366 73.3527 31.5658C73.2805 31.5913 73.2109 31.6145 73.1439 31.6356C72.6053 31.8051 72.2387 31.8371 72.0046 31.832C71.829 31.8281 71.761 31.8127 71.6852 31.7956C71.6385 31.7851 71.5889 31.7739 71.5095 31.7643C71.5087 31.7642 71.5077 31.7641 71.5064 31.7639C71.4891 31.7617 71.4287 31.7538 71.3496 31.7646Z" fill="#888A85"/>
<path d="M74.4077 33.7497C74.4079 34.0794 74.3469 34.4058 74.228 34.7105C74.1091 35.0151 73.9348 35.2919 73.715 35.5251C73.4952 35.7583 73.2342 35.9433 72.9469 36.0695C72.6597 36.1957 72.3517 36.2606 72.0408 36.2606C71.7298 36.2606 71.4219 36.1957 71.1347 36.0695C70.8474 35.9433 70.5864 35.7583 70.3666 35.5251C70.1468 35.2919 69.9724 35.0151 69.8536 34.7105C69.7347 34.4058 69.6736 34.0794 69.6738 33.7497C69.6736 33.42 69.7347 33.0936 69.8536 32.7889C69.9724 32.4843 70.1468 32.2075 70.3666 31.9743C70.5864 31.7411 70.8474 31.5561 71.1347 31.4299C71.4219 31.3037 71.7298 31.2388 72.0408 31.2388C72.3517 31.2388 72.6597 31.3037 72.9469 31.4299C73.2342 31.5561 73.4952 31.7411 73.715 31.9743C73.9348 32.2075 74.1091 32.4843 74.228 32.7889C74.3469 33.0936 74.4079 33.42 74.4077 33.7497V33.7497Z" fill="#BABDB6"/>
<path fill-rule="evenodd" clip-rule="evenodd" d="M72.041 31.8114C71.801 31.8114 71.5633 31.8616 71.3416 31.959C71.1199 32.0564 70.9185 32.1991 70.7488 32.3791C70.5792 32.5591 70.4447 32.7727 70.3529 33.0078C70.2612 33.2429 70.2141 33.4949 70.2142 33.7493V33.75C70.2141 34.0044 70.2612 34.2564 70.3529 34.4915C70.4447 34.7266 70.5792 34.9402 70.7488 35.1202C70.9185 35.3002 71.1199 35.4429 71.3416 35.5403C71.5633 35.6377 71.801 35.6879 72.041 35.6879C72.2809 35.6879 72.5186 35.6377 72.7403 35.5403C72.962 35.4429 73.1634 35.3002 73.3331 35.1202C73.5027 34.9402 73.6372 34.7266 73.729 34.4915C73.8207 34.2564 73.8679 34.0044 73.8677 33.75L74.4079 33.7497L73.8677 33.7493C73.8679 33.4949 73.8207 33.2429 73.729 33.0078C73.6372 32.7727 73.5027 32.5591 73.3331 32.3791C73.1634 32.1991 72.962 32.0564 72.7403 31.959C72.5186 31.8616 72.2809 31.8114 72.041 31.8114ZM74.9481 33.7497C74.9483 33.3449 74.8733 32.944 74.7273 32.57C74.5814 32.1958 74.3672 31.8558 74.0973 31.5694C73.8273 31.283 73.5067 31.0558 73.1539 30.9008C72.8011 30.7458 72.4229 30.666 72.041 30.666C71.659 30.666 71.2808 30.7458 70.928 30.9008C70.5752 31.0558 70.2546 31.283 69.9846 31.5694C69.7147 31.8558 69.5006 32.1958 69.3546 32.57C69.2086 32.944 69.1336 33.3449 69.1338 33.7497C69.1336 34.1544 69.2086 34.5553 69.3546 34.9293C69.5006 35.3035 69.7147 35.6435 69.9846 35.9299C70.2546 36.2163 70.5752 36.4435 70.928 36.5985C71.2808 36.7535 71.659 36.8333 72.041 36.8333C72.4229 36.8333 72.8011 36.7535 73.1539 36.5985C73.5067 36.4435 73.8273 36.2163 74.0973 35.9299C74.3672 35.6435 74.5814 35.3035 74.7273 34.9293C74.8733 34.5553 74.9483 34.1544 74.9481 33.7497Z" fill="#BABDB6"/>
<path d="M51.3018 39.3213C39.7546 30.9009 51.8858 31.3216 38.6571 36.2285C31.5396 38.8685 39.6238 50.5193 41.7682 42.8551C45.7537 28.6102 49.125 40.9719 40.6352 29.1499C36.0674 22.7893 28.114 34.5408 35.652 34.3345C49.6624 33.9511 39.6148 41.1703 47.5966 28.957C51.891 22.3859 38.8912 17.998 41.4057 25.5347C46.0791 39.5426 36.4979 31.6426 49.9208 35.9164C57.1426 38.2158 57.0619 23.7525 51.0778 28.6167C39.9557 37.6575 44.0819 25.5558 44.3959 40.4104C44.5648 48.4027 57.5146 43.8518 51.3018 39.3213Z" fill="#888A85"/>
<path fill-rule="evenodd" clip-rule="evenodd" d="M48.5705 24.3337C49.2406 25.7513 49.2189 27.4804 48.0408 29.2832C47.7042 29.7982 47.4003 30.2777 47.126 30.7238C48.0819 30.1746 49.2742 29.3612 50.7493 28.1622C51.5434 27.5167 52.2878 27.1512 52.9754 27.0598C53.6794 26.9663 54.2935 27.1656 54.7785 27.5845C55.7101 28.3893 56.0622 29.8971 55.9911 31.3347C55.9187 32.7985 55.4031 34.3882 54.3694 35.4695C53.3047 36.5832 51.7469 37.0957 49.7655 36.4649C49.1995 36.2847 48.6754 36.1265 48.1905 35.9878C48.9786 36.7819 50.0767 37.7327 51.6081 38.8494C52.4326 39.4506 52.9905 40.0883 53.2849 40.7533C53.5864 41.4342 53.5974 42.115 53.3714 42.7335C52.9374 43.9215 51.6936 44.7425 50.3819 45.1151C49.0464 45.4944 47.4611 45.4658 46.1715 44.7576C44.8434 44.0282 43.9023 42.6159 43.8559 40.4232C43.8427 39.7968 43.8226 39.2195 43.7973 38.6877C43.3284 39.7277 42.8148 41.1287 42.2862 43.0179C42.0017 44.035 41.602 44.7946 41.0965 45.297C40.5788 45.8114 39.9714 46.0328 39.3468 45.9961C38.1469 45.9256 37.0261 44.9252 36.2865 43.7178C35.5335 42.4884 35.0693 40.8811 35.3061 39.362C35.55 37.7976 36.5261 36.4122 38.4788 35.6879C39.0367 35.481 39.5483 35.2824 40.0176 35.0924C38.9397 34.9411 37.5242 34.8561 35.6661 34.907C34.6658 34.9344 33.8609 34.7662 33.254 34.4116C32.6325 34.0486 32.2462 33.5047 32.0861 32.8635C31.7786 31.6319 32.3297 30.1927 33.1843 29.0739C34.0544 27.9348 35.3529 26.97 36.7888 26.7394C38.2676 26.5018 39.812 27.0579 41.0652 28.803C41.4232 29.3015 41.7595 29.756 42.0749 30.1705C41.8776 29.0369 41.5164 27.5834 40.8965 25.7256C40.5629 24.7255 40.465 23.8619 40.5955 23.1405C40.7291 22.4017 41.0977 21.8441 41.6234 21.4845C42.6332 20.7939 44.0947 20.9048 45.3624 21.4207C46.6532 21.9461 47.9199 22.9572 48.5705 24.3337ZM42.2823 32.2186C41.6834 31.4891 40.9941 30.5949 40.2056 29.4968C39.1748 28.0615 38.0122 27.7013 36.9506 27.8719C35.8461 28.0493 34.7709 28.8169 34.0239 29.7947C33.2614 30.793 32.952 31.8553 33.1305 32.5704C33.2135 32.9025 33.4068 33.1931 33.7754 33.4084C34.1585 33.6323 34.754 33.7862 35.6382 33.762C38.6224 33.6803 40.5635 33.9383 41.8415 34.2997C41.8563 34.2167 41.882 34.1582 41.8894 34.1415C41.8899 34.1402 41.8904 34.1393 41.8907 34.1385C41.9238 34.0614 41.9492 34.0148 41.9731 33.971C42.0119 33.8999 42.0467 33.836 42.1044 33.6602C42.1814 33.4257 42.2659 33.0461 42.2803 32.4507C42.2821 32.3767 42.2828 32.2994 42.2823 32.2186ZM43.4613 35.8519C43.4583 35.8616 43.4583 35.8598 43.4618 35.8503C43.4617 35.8508 43.4615 35.8514 43.4613 35.8519ZM43.6498 36.6037C43.5798 36.5632 43.5353 36.5191 43.5226 36.5065C43.5217 36.5056 43.5209 36.5049 43.5203 36.5043C43.4614 36.4471 43.4275 36.4071 43.3955 36.3695C43.3437 36.3084 43.2971 36.2536 43.1573 36.1411C42.9707 35.991 42.6563 35.7884 42.1267 35.59C42.0608 35.5653 41.9916 35.5407 41.919 35.5162C41.0795 35.8946 40.0644 36.3133 38.8356 36.769C37.2295 37.3648 36.5471 38.4258 36.3721 39.5488C36.1899 40.7173 36.5462 42.0386 37.1926 43.094C37.8525 44.1712 38.7099 44.8115 39.4066 44.8524C39.7301 44.8715 40.0506 44.7663 40.3576 44.4612C40.6768 44.1441 40.9989 43.5912 41.2504 42.6922C42.0993 39.6581 42.9307 37.7806 43.6498 36.6037ZM45.5428 35.4502C45.5505 35.4562 45.5489 35.4557 45.5414 35.4491C45.5419 35.4495 45.5423 35.4498 45.5428 35.4502ZM46.2754 35.4925C46.2174 35.5505 46.1642 35.5817 46.1489 35.5907C46.1478 35.5913 46.1469 35.5919 46.1462 35.5923C46.0767 35.634 46.0303 35.6559 45.9867 35.6764C45.9159 35.7098 45.8523 35.7398 45.7082 35.8461C45.5159 35.9878 45.2371 36.2422 44.8953 36.7149C44.8528 36.7737 44.8094 36.8358 44.765 36.9015C44.845 37.8649 44.9069 39.0178 44.9361 40.3976C44.9742 42.201 45.7151 43.2169 46.6685 43.7405C47.6604 44.2853 48.9559 44.3343 50.1023 44.0087C51.2727 43.6762 52.112 43.0096 52.364 42.3198C52.481 41.9994 52.4857 41.6438 52.3069 41.24C52.121 40.8202 51.7246 40.3246 50.9959 39.7932C48.5363 37.9996 47.109 36.5812 46.2754 35.4925ZM45.8255 33.2274C45.8334 33.2214 45.8324 33.2229 45.8242 33.2284C45.8247 33.228 45.8251 33.2277 45.8255 33.2274ZM46.0899 32.5017C46.124 32.5781 46.1356 32.6415 46.1389 32.6596C46.1392 32.6609 46.1394 32.662 46.1395 32.6628C46.1555 32.7458 46.1608 32.7993 46.1657 32.8496C46.1738 32.9313 46.1811 33.0047 46.2318 33.1829C46.2995 33.4206 46.4416 33.7803 46.7601 34.271C46.7997 34.332 46.842 34.395 46.8872 34.46C47.7761 34.677 48.8295 34.9709 50.0763 35.3679C51.7059 35.8868 52.8462 35.4536 53.6105 34.6542C54.4058 33.8224 54.8501 32.5314 54.9122 31.2748C54.9756 29.992 54.6369 28.9397 54.096 28.4725C53.8448 28.2555 53.5273 28.1409 53.1097 28.1963C52.6757 28.254 52.1086 28.5006 51.4067 29.0712C49.0377 30.9968 47.3242 31.9977 46.0899 32.5017ZM43.9189 32.2553C43.916 32.2456 43.917 32.2471 43.9194 32.257C43.9192 32.2564 43.9191 32.2559 43.9189 32.2553ZM42.4577 33.8774C42.4481 33.8773 42.4497 33.8768 42.4594 33.8774C42.4588 33.8774 42.4582 33.8774 42.4577 33.8774ZM43.3496 31.7646C43.2789 30.3643 42.9105 28.3273 41.9151 25.3437C41.6202 24.4596 41.5742 23.8117 41.6566 23.3562C41.7359 22.918 41.9368 22.6333 42.2091 22.447C42.7954 22.0461 43.8441 22.0297 44.9752 22.4901C46.0833 22.941 47.1041 23.788 47.6046 24.8468C48.0856 25.8645 48.1217 27.1481 47.1527 28.6309C46.4113 29.7653 45.8221 30.7366 45.3527 31.5658C45.2805 31.5913 45.2109 31.6145 45.1439 31.6356C44.6053 31.8051 44.2387 31.8371 44.0046 31.832C43.829 31.8281 43.761 31.8127 43.6852 31.7956C43.6385 31.7851 43.5889 31.7739 43.5095 31.7643C43.5087 31.7642 43.5077 31.7641 43.5064 31.7639C43.4891 31.7617 43.4287 31.7538 43.3496 31.7646Z" fill="#888A85"/>
<path d="M46.4077 33.7497C46.4079 34.0794 46.3469 34.4058 46.228 34.7105C46.1091 35.0151 45.9348 35.2919 45.715 35.5251C45.4952 35.7583 45.2342 35.9433 44.9469 36.0695C44.6597 36.1957 44.3517 36.2606 44.0408 36.2606C43.7298 36.2606 43.4219 36.1957 43.1347 36.0695C42.8474 35.9433 42.5864 35.7583 42.3666 35.5251C42.1468 35.2919 41.9724 35.0151 41.8536 34.7105C41.7347 34.4058 41.6736 34.0794 41.6738 33.7497C41.6736 33.42 41.7347 33.0936 41.8536 32.7889C41.9724 32.4843 42.1468 32.2075 42.3666 31.9743C42.5864 31.7411 42.8474 31.5561 43.1347 31.4299C43.4219 31.3037 43.7298 31.2388 44.0408 31.2388C44.3517 31.2388 44.6597 31.3037 44.9469 31.4299C45.2342 31.5561 45.4952 31.7411 45.715 31.9743C45.9348 32.2075 46.1091 32.4843 46.228 32.7889C46.3469 33.0936 46.4079 33.42 46.4077 33.7497V33.7497Z" fill="#BABDB6"/>
<path fill-rule="evenodd" clip-rule="evenodd" d="M44.041 31.8114C43.801 31.8114 43.5633 31.8616 43.3416 31.959C43.1199 32.0564 42.9185 32.1991 42.7488 32.3791C42.5792 32.5591 42.4447 32.7727 42.3529 33.0078C42.2612 33.2429 42.2141 33.4949 42.2142 33.7493V33.75C42.2141 34.0044 42.2612 34.2564 42.3529 34.4915C42.4447 34.7266 42.5792 34.9402 42.7488 35.1202C42.9185 35.3002 43.1199 35.4429 43.3416 35.5403C43.5633 35.6377 43.801 35.6879 44.041 35.6879C44.2809 35.6879 44.5186 35.6377 44.7403 35.5403C44.962 35.4429 45.1634 35.3002 45.3331 35.1202C45.5027 34.9402 45.6372 34.7266 45.729 34.4915C45.8207 34.2564 45.8679 34.0044 45.8677 33.75L46.4079 33.7497L45.8677 33.7493C45.8679 33.4949 45.8207 33.2429 45.729 33.0078C45.6372 32.7727 45.5027 32.5591 45.3331 32.3791C45.1634 32.1991 44.962 32.0564 44.7403 31.959C44.5186 31.8616 44.2809 31.8114 44.041 31.8114ZM46.9481 33.7497C46.9483 33.3449 46.8733 32.944 46.7273 32.57C46.5814 32.1958 46.3672 31.8558 46.0973 31.5694C45.8273 31.283 45.5067 31.0558 45.1539 30.9008C44.8011 30.7458 44.4229 30.666 44.041 30.666C43.659 30.666 43.2808 30.7458 42.928 30.9008C42.5752 31.0558 42.2546 31.283 41.9846 31.5694C41.7147 31.8558 41.5006 32.1958 41.3546 32.57C41.2086 32.944 41.1336 33.3449 41.1338 33.7497C41.1336 34.1544 41.2086 34.5553 41.3546 34.9293C41.5006 35.3035 41.7147 35.6435 41.9846 35.9299C42.2546 36.2163 42.5752 36.4435 42.928 36.5985C43.2808 36.7535 43.659 36.8333 44.041 36.8333C44.4229 36.8333 44.8011 36.7535 45.1539 36.5985C45.5067 36.4435 45.8273 36.2163 46.0973 35.9299C46.3672 35.6435 46.5814 35.3035 46.7273 34.9293C46.8733 34.5553 46.9483 34.1544 46.9481 33.7497Z" fill="#BABDB6"/>
<path d="M0 112.156C0 115.383 2.62157 118 5.85515 118H188.145C191.378 118 194 115.383 194 112.156V5.84391C194 2.61648 191.378 0.000217983 188.145 -0.000109282H5.85515C2.62157 -0.000109282 0.000327888 2.61648 0 5.84391V112.156ZM16.1602 106.312V11.6879H170.111V106.312H16.1602Z" fill="#848484"/>
<path d="M187.359 59C187.359 55.4958 184.513 52.6551 181.002 52.6551C177.491 52.6551 174.645 55.4958 174.645 59C174.645 62.5042 177.491 65.345 181.002 65.345C184.513 65.345 187.359 62.5042 187.359 59Z" fill="white"/>
<path d="M117.293 63.9562C117.821 63.7945 118.118 63.2354 117.956 62.7073L115.322 54.1015C115.16 53.5734 114.601 53.2763 114.073 53.438C113.545 53.5997 113.248 54.1588 113.409 54.6869L115.751 62.3365L108.101 64.6782C107.573 64.8399 107.276 65.399 107.438 65.9271C107.6 66.4552 108.159 66.7523 108.687 66.5906L117.293 63.9562ZM84.5308 46.8831L116.531 63.8831L117.469 62.1169L85.4692 45.1169L84.5308 46.8831Z" fill="#BABDB6"/>
<path d="M61.8845 71.9933C62.4331 72.0571 62.9295 71.6641 62.9933 71.1155L64.0328 62.1757C64.0966 61.6271 63.7036 61.1307 63.155 61.0669C62.6064 61.0031 62.11 61.3961 62.0462 61.9447L61.1222 69.8912L53.1757 68.9672C52.6271 68.9034 52.1307 69.2964 52.0669 69.845C52.0031 70.3936 52.3961 70.89 52.9447 70.9538L61.8845 71.9933ZM42.216 47.6207L61.216 71.6207L62.784 70.3793L43.784 46.3793L42.216 47.6207Z" fill="#BABDB6"/>
<line x1="114.5" y1="85" x2="114.5" y2="99" stroke="black" stroke-width="3"/>
<line x1="75.5" y1="86" x2="75.5" y2="100" stroke="black" stroke-width="3"/>
<line x1="118.5" y1="84" x2="118.5" y2="98" stroke="black" stroke-width="3"/>
<line x1="79.5" y1="85" x2="79.5" y2="99" stroke="black" stroke-width="3"/>
<rect x="121.75" y="49.75" width="25.5" height="25.5" rx="1.84725" stroke="#2F82BC" stroke-width="1.5" stroke-dasharray="4 4"/>
<rect x="69.5" y="71.5" width="54" height="14" stroke="black" stroke-width="3"/>
<rect x="65.75" y="70.75" width="5.5" height="16.5" rx="1.84725" fill="white"/>
<rect x="65.75" y="70.75" width="5.5" height="16.5" rx="1.84725" stroke="#2F82BC" stroke-width="1.5" stroke-dasharray="4 4"/>
</g>
<defs>
<clipPath id="clip0_4699_2533">
<rect y="118" width="118" height="193" rx="7" transform="rotate(-90 0 118)" fill="white"/>
</clipPath>
</defs>
</svg>
