<svg width="102" height="65" viewBox="0 0 102 65" fill="none" xmlns="http://www.w3.org/2000/svg">
<g clip-path="url(#clip0_5344_531)">
<rect x="0.46875" y="64.7397" width="64.7347" height="100.942" rx="3.8402" transform="rotate(-90 0.46875 64.7397)" fill="white"/>
<path d="M-1.72229 61.5063C-1.72229 63.2675 -0.294402 64.6953 1.46683 64.6954H100.754C102.515 64.6952 103.943 63.2675 103.943 61.5063V3.49117C103.943 1.72994 102.515 0.302231 100.754 0.302053H1.46683C-0.294402 0.302053 -1.72211 1.72994 -1.72229 3.49117V61.5063ZM7.07967 58.3172V6.68028H90.9318V58.3172H7.07967Z" fill="#848484"/>
<path d="M100.326 32.4988C100.326 30.5866 98.776 29.0364 96.8637 29.0364C94.9514 29.0364 93.4012 30.5866 93.4012 32.4988C93.4012 34.4111 94.9514 35.9613 96.8637 35.9613C98.776 35.9613 100.326 34.4111 100.326 32.4988Z" fill="white"/>
<rect x="33.3849" y="10" width="16.3378" height="16.3378" rx="1.0222" fill="#0069F1"/>
<g clip-path="url(#clip1_5344_531)">
<path fill-rule="evenodd" clip-rule="evenodd" d="M38.6766 21.5633C38.6729 18.8605 38.671 17.5093 38.671 17.5093C38.7146 16.8995 38.97 16.6367 39.4368 16.7211C39.7241 16.867 39.8668 17.1937 39.8647 17.7007C39.9697 19.1872 40.0223 19.9305 40.0223 19.9305C40.1187 20.2509 40.3664 20.2546 40.7655 19.9416C43.2431 17.2241 44.4817 15.8652 44.4817 15.8652C45.0664 15.5059 45.4386 15.8593 45.2589 16.3832C43.7273 18.2901 42.9616 19.2435 42.9616 19.2435C42.908 19.4886 43.0245 19.556 43.3105 19.4463C45.2475 17.7419 46.216 16.89 46.216 16.89C46.8028 16.6275 47.1223 17.0549 46.7565 17.5994C45.0297 19.3036 44.1664 20.1557 44.1664 20.1557C44.0498 20.4391 44.1587 20.5704 44.4931 20.5498C46.2197 19.3337 47.083 18.7255 47.083 18.7255C47.3148 18.7001 47.4726 18.7416 47.5561 18.8494C47.7023 19.0453 47.706 19.2255 47.5672 19.39C45.8631 20.7338 45.0109 21.4058 45.0109 21.4058C44.8521 21.679 44.9271 21.816 45.2361 21.8167C46.5726 21.1033 47.2408 20.7468 47.2408 20.7468C47.48 20.6844 47.6265 20.733 47.6799 20.8932C47.7259 21.0785 47.6434 21.2474 47.4322 21.3999C44.7027 23.3276 42.9968 24.3958 42.314 24.6038C40.9741 24.8343 39.9118 24.455 39.127 23.4664C38.8748 22.9097 38.7247 22.2754 38.6766 21.5633Z" fill="white"/>
<path fill-rule="evenodd" clip-rule="evenodd" d="M35.8618 17.8475C36.7164 18.6986 37.5083 19.4268 38.2378 20.0321C38.2378 20.0321 38.2378 19.3602 38.2378 18.0164C36.9165 17.2805 36.2559 16.9128 36.2559 16.9128C35.6971 16.8835 35.5658 17.1951 35.8618 17.8475Z" fill="white"/>
<path fill-rule="evenodd" clip-rule="evenodd" d="M39.3557 16.2761C38.785 16.2536 38.6573 16.4788 38.6573 16.4788C38.6573 16.4788 38.6584 15.1632 38.6658 12.6783C38.8762 11.9773 39.6835 12.1475 39.7583 12.7457C40.0059 14.9981 40.1296 16.1241 40.1296 16.1241C40.3897 16.2861 40.5515 16.252 40.615 16.0221C40.5843 13.2897 40.569 11.9237 40.569 11.9237C40.7818 11.2438 41.5938 11.4177 41.7513 12.0926C41.7663 14.8704 41.774 16.2592 41.774 16.2592C41.9252 16.3319 42.0716 16.302 42.2131 16.169C42.5133 13.9994 42.6635 12.9146 42.6635 12.9146C42.9783 12.3413 43.4647 12.6479 43.5757 13.0949C43.388 15.3245 43.2942 16.4395 43.2942 16.4395C41.7252 18.1137 40.9406 18.9506 40.9406 18.9506C40.698 19.2377 40.5063 19.0473 40.4788 18.917C40.4038 17.6482 40.2734 16.9406 40.2734 16.9406C40.1371 16.5307 39.7897 16.2491 39.3557 16.2761Z" fill="white"/>
</g>
<rect x="52.9904" y="10" width="16.3378" height="16.3378" rx="1.0222" fill="#0069F1"/>
<g clip-path="url(#clip2_5344_531)">
<path fill-rule="evenodd" clip-rule="evenodd" d="M58.2822 21.5633C58.2785 18.8605 58.2766 17.5093 58.2766 17.5093C58.3202 16.8995 58.5756 16.6367 59.0424 16.7211C59.3297 16.867 59.4724 17.1937 59.4703 17.7007C59.5752 19.1872 59.6279 19.9305 59.6279 19.9305C59.7243 20.2509 59.972 20.2546 60.3711 19.9416C62.8487 17.2241 64.0873 15.8652 64.0873 15.8652C64.672 15.5059 65.0442 15.8593 64.8645 16.3832C63.3329 18.2901 62.5671 19.2435 62.5671 19.2435C62.5135 19.4886 62.6301 19.556 62.9161 19.4463C64.8531 17.7419 65.8216 16.89 65.8216 16.89C66.4084 16.6275 66.7279 17.0549 66.3621 17.5994C64.6353 19.3036 63.772 20.1557 63.772 20.1557C63.6554 20.4391 63.7643 20.5704 64.0987 20.5498C65.8253 19.3337 66.6886 18.7255 66.6886 18.7255C66.9204 18.7001 67.0782 18.7416 67.1617 18.8494C67.3079 19.0453 67.3116 19.2255 67.1728 19.39C65.4687 20.7338 64.6165 21.4058 64.6165 21.4058C64.4577 21.679 64.5327 21.816 64.8417 21.8167C66.1781 21.1033 66.8464 20.7468 66.8464 20.7468C67.0856 20.6844 67.2321 20.733 67.2854 20.8932C67.3314 21.0785 67.249 21.2474 67.0378 21.3999C64.3083 23.3276 62.6023 24.3958 61.9196 24.6038C60.5797 24.8343 59.5174 24.455 58.7326 23.4664C58.4804 22.9097 58.3303 22.2754 58.2822 21.5633Z" fill="white"/>
<path fill-rule="evenodd" clip-rule="evenodd" d="M55.4671 17.8475C56.3217 18.6986 57.1136 19.4268 57.8432 20.0321C57.8432 20.0321 57.8432 19.3602 57.8432 18.0164C56.5218 17.2805 55.8613 16.9128 55.8613 16.9128C55.3025 16.8835 55.1711 17.1951 55.4671 17.8475Z" fill="white"/>
<path fill-rule="evenodd" clip-rule="evenodd" d="M58.9612 16.2761C58.3905 16.2536 58.2628 16.4788 58.2628 16.4788C58.2628 16.4788 58.2639 15.1632 58.2713 12.6783C58.4817 11.9773 59.2889 12.1475 59.3637 12.7457C59.6114 14.9981 59.7351 16.1241 59.7351 16.1241C59.9952 16.2861 60.157 16.252 60.2204 16.0221C60.1898 13.2897 60.1744 11.9237 60.1744 11.9237C60.3872 11.2438 61.1992 11.4177 61.3568 12.0926C61.3718 14.8704 61.3795 16.2592 61.3795 16.2592C61.5307 16.3319 61.6771 16.302 61.8185 16.169C62.1188 13.9994 62.269 12.9146 62.269 12.9146C62.5838 12.3413 63.0702 12.6479 63.1811 13.0949C62.9935 15.3245 62.8997 16.4395 62.8997 16.4395C61.3306 18.1137 60.5461 18.9506 60.5461 18.9506C60.3034 19.2377 60.1118 19.0473 60.0843 18.917C60.0092 17.6482 59.8789 16.9406 59.8789 16.9406C59.7425 16.5307 59.3952 16.2491 58.9612 16.2761Z" fill="white"/>
</g>
<rect x="72.5958" y="10" width="16.3378" height="16.3378" rx="1.0222" fill="#0069F1"/>
<g clip-path="url(#clip3_5344_531)">
<path fill-rule="evenodd" clip-rule="evenodd" d="M77.8875 21.5635C77.8838 18.8607 77.882 17.5095 77.882 17.5095C77.9256 16.8997 78.1809 16.637 78.6477 16.7213C78.935 16.8672 79.0778 17.1939 79.0757 17.7009C79.1806 19.1875 79.2332 19.9308 79.2332 19.9308C79.3297 20.2511 79.5774 20.2548 79.9765 19.9419C82.454 17.2243 83.6927 15.8654 83.6927 15.8654C84.2773 15.5062 84.6495 15.8596 84.4698 16.3835C82.9383 18.2903 82.1725 19.2438 82.1725 19.2438C82.1189 19.4888 82.2354 19.5562 82.5215 19.4465C84.4584 17.7421 85.4269 16.8902 85.4269 16.8902C86.0137 16.6277 86.3333 17.0551 85.9675 17.5997C84.2406 19.3038 83.3773 20.156 83.3773 20.156C83.2607 20.4393 83.3697 20.5707 83.704 20.5501C85.4306 19.3339 86.2939 18.7257 86.2939 18.7257C86.5257 18.7003 86.6835 18.7418 86.7671 18.8497C86.9133 19.0455 86.9169 19.2258 86.7782 19.3902C85.0741 20.734 84.2218 21.406 84.2218 21.406C84.063 21.6793 84.1381 21.8162 84.4471 21.817C85.7835 21.1036 86.4517 20.747 86.4517 20.747C86.6909 20.6846 86.8374 20.7333 86.8908 20.8935C86.9368 21.0787 86.8543 21.2477 86.6431 21.4002C83.9136 23.3279 82.2077 24.3961 81.5249 24.6041C80.1851 24.8346 79.1227 24.4553 78.3379 23.4667C78.0857 22.91 77.9356 22.2756 77.8875 21.5635Z" fill="white"/>
<path fill-rule="evenodd" clip-rule="evenodd" d="M75.0726 17.8476C75.9272 18.6987 76.7191 19.427 77.4487 20.0323C77.4487 20.0323 77.4487 19.3603 77.4487 18.0165C76.1273 17.2806 75.4667 16.9129 75.4667 16.9129C74.9079 16.8836 74.7766 17.1952 75.0726 17.8476Z" fill="white"/>
<path fill-rule="evenodd" clip-rule="evenodd" d="M78.5664 16.2762C77.9957 16.2537 77.868 16.4789 77.868 16.4789C77.868 16.4789 77.8691 15.1634 77.8765 12.6784C78.0869 11.9774 78.8942 12.1477 78.969 12.7458C79.2166 14.9982 79.3403 16.1242 79.3403 16.1242C79.6004 16.2862 79.7622 16.2521 79.8256 16.0222C79.795 13.2898 79.7797 11.9238 79.7797 11.9238C79.9925 11.2439 80.8044 11.4179 80.962 12.0927C80.977 14.8705 80.9847 16.2593 80.9847 16.2593C81.1359 16.332 81.2823 16.3021 81.4238 16.1692C81.724 13.9996 81.8742 12.9148 81.8742 12.9148C82.189 12.3414 82.6754 12.6481 82.7864 13.095C82.5987 15.3246 82.5049 16.4396 82.5049 16.4396C80.9359 18.1138 80.1513 18.9507 80.1513 18.9507C79.9087 19.2378 79.717 19.0474 79.6895 18.9171C79.6145 17.6483 79.4841 16.9407 79.4841 16.9407C79.3477 16.5308 79.0004 16.2492 78.5664 16.2762Z" fill="white"/>
</g>
<rect x="14.7324" y="32.3725" width="44.0412" height="20.8468" rx="1.0972" stroke="#0069F1" stroke-width="1.0972"/>
<rect x="18.0242" y="35.6639" width="14.2636" height="14.2636" rx="1.84986" stroke="#0069F1" stroke-width="1.35069" stroke-dasharray="2.7 2.7"/>
<path d="M40.4095 41.5663L40.1266 43.1221C39.9038 42.9207 39.6595 42.7706 39.3937 42.6721C39.128 42.5735 38.813 42.5242 38.4487 42.5242C37.9687 42.5242 37.5829 42.7106 37.2915 43.0835C37.0043 43.4564 36.8607 43.9557 36.8607 44.5814C36.8607 45.1472 36.9958 45.6101 37.2658 45.9701C37.5401 46.3301 37.9344 46.5101 38.4487 46.5101C38.8344 46.5101 39.1666 46.448 39.4452 46.3237C39.7238 46.1994 40.0023 46.0258 40.2809 45.8029L40.4738 47.3459C40.1823 47.543 39.8502 47.693 39.4773 47.7959C39.1044 47.903 38.678 47.9566 38.198 47.9566C37.6236 47.9566 37.0986 47.828 36.6229 47.5709C36.1471 47.3137 35.7678 46.9387 35.485 46.4458C35.2021 45.9487 35.0607 45.3486 35.0607 44.6457C35.0607 43.9771 35.1978 43.3771 35.4721 42.8456C35.7507 42.3099 36.1407 41.8877 36.6422 41.5792C37.1479 41.2663 37.7394 41.1098 38.4165 41.1098C38.8408 41.1098 39.2202 41.1548 39.5545 41.2449C39.8888 41.3349 40.1738 41.442 40.4095 41.5663ZM48.5806 47.7959H46.8705C46.8105 47.693 46.7527 47.5237 46.697 47.288C46.6412 47.048 46.5962 46.7994 46.562 46.5423C46.532 46.2808 46.517 46.0708 46.517 45.9122V45.5458C46.3584 45.9144 46.1376 46.2851 45.8548 46.658C45.5719 47.0266 45.2419 47.3352 44.8647 47.5837C44.4876 47.8323 44.074 47.9566 43.6239 47.9566C43.0839 47.9566 42.6275 47.7188 42.2546 47.243C41.8817 46.763 41.6953 46.0687 41.6953 45.16C41.6953 44.65 41.7703 44.155 41.9203 43.675C42.0703 43.1907 42.3017 42.7556 42.6146 42.3699C42.9275 41.9842 43.3261 41.6777 43.8104 41.4506C44.2947 41.2234 44.869 41.1098 45.5333 41.1098C46.0005 41.1098 46.4634 41.1377 46.922 41.1934C47.3849 41.2449 47.7984 41.3134 48.1628 41.3991V44.3886C48.1628 45.1986 48.2013 45.8801 48.2785 46.433C48.3556 46.9816 48.4563 47.4359 48.5806 47.7959ZM46.3241 43.1028V42.6785C46.2341 42.6571 46.1034 42.6313 45.9319 42.6013C45.7605 42.5671 45.5376 42.5499 45.2633 42.5499C44.8133 42.5499 44.4597 42.6742 44.2026 42.9228C43.9454 43.1714 43.7632 43.495 43.6561 43.8936C43.5489 44.2921 43.4954 44.7143 43.4954 45.16C43.4954 45.5372 43.5639 45.8437 43.7011 46.0794C43.8425 46.3108 44.0097 46.4265 44.2026 46.4265C44.3826 46.4265 44.569 46.3365 44.7619 46.1565C44.959 45.9765 45.1497 45.7472 45.334 45.4686C45.5183 45.1901 45.6855 44.8965 45.8355 44.5879C45.9855 44.2793 46.1034 43.9921 46.1891 43.7264C46.2791 43.4564 46.3241 43.2485 46.3241 43.1028ZM54.3988 45.9894V47.4295C54.0945 47.6223 53.8009 47.7573 53.518 47.8345C53.2352 47.9159 52.978 47.9566 52.7466 47.9566C52.3437 47.9566 51.9751 47.903 51.6408 47.7959C51.3065 47.6845 51.0386 47.4916 50.8372 47.2173C50.64 46.9387 50.5414 46.553 50.5414 46.0601C50.5414 44.9329 50.5414 43.8078 50.5414 42.6849C50.5414 41.5577 50.5414 40.4327 50.5414 39.3098H52.3415C52.3415 40.2269 52.3415 41.1463 52.3415 42.0677C52.3415 42.9849 52.3415 43.9043 52.3415 44.8257C52.3415 45.3101 52.3694 45.6701 52.4251 45.9058C52.4808 46.1415 52.5687 46.2958 52.6887 46.3687C52.8087 46.4373 52.9651 46.4715 53.158 46.4715C53.4666 46.4715 53.8802 46.3108 54.3988 45.9894ZM54.3024 42.6206H49.32V41.3349H54.3024V42.6206Z" fill="#0069F1"/>
<path d="M30.6418 17.5602C23.4103 18.0589 20.7671 21.1261 22.762 31.0009M22.762 31.0009L25.7045 27.7093M22.762 31.0009L19.3956 28.2579" stroke="#848484" stroke-width="2.1944" stroke-linecap="round" stroke-linejoin="round"/>
</g>
<defs>
<clipPath id="clip0_5344_531">
<rect x="0.46875" y="64.7397" width="64.7347" height="100.942" rx="3.8402" transform="rotate(-90 0.46875 64.7397)" fill="white"/>
</clipPath>
<clipPath id="clip1_5344_531">
<rect width="12.4167" height="13.4964" fill="white" transform="translate(35.3455 11.4205)"/>
</clipPath>
<clipPath id="clip2_5344_531">
<rect width="12.4167" height="13.4964" fill="white" transform="translate(54.9509 11.4205)"/>
</clipPath>
<clipPath id="clip3_5344_531">
<rect width="12.4167" height="13.4964" fill="white" transform="translate(74.5563 11.4207)"/>
</clipPath>
</defs>
</svg>
