<svg width="102" height="66" viewBox="0 0 102 66" fill="none" xmlns="http://www.w3.org/2000/svg">
<g clip-path="url(#clip0_5341_5985)">
<rect x="0.46875" y="65.5723" width="64.7347" height="100.942" rx="3.8402" transform="rotate(-90 0.46875 65.5723)" fill="white"/>
<path d="M-1.72229 62.3387C-1.72229 64.0999 -0.294402 65.5277 1.46683 65.5278H100.754C102.515 65.5276 103.943 64.0999 103.943 62.3387V4.32357C103.943 2.56234 102.515 1.13463 100.754 1.13445H1.46683C-0.294402 1.13445 -1.72211 2.56234 -1.72229 4.32357V62.3387ZM7.07967 59.1496V7.51268H90.9318V59.1496H7.07967Z" fill="#848484"/>
<path d="M100.326 33.331C100.326 31.4187 98.776 29.8685 96.8637 29.8685C94.9514 29.8685 93.4012 31.4187 93.4012 33.331C93.4012 35.2433 94.9514 36.7935 96.8637 36.7935C98.776 36.7935 100.326 35.2433 100.326 33.331Z" fill="white"/>
<rect x="26.2531" y="10.7124" width="13.715" height="13.715" rx="0.858101" fill="#0069F1"/>
<path d="M36.4083 14.5525C37.2826 15.3528 37.7737 16.4381 37.7737 17.5698C37.7737 18.7014 37.2826 19.7868 36.4083 20.5871M34.762 16.059C35.1992 16.4592 35.4447 17.0018 35.4447 17.5677C35.4447 18.1335 35.1992 18.6761 34.762 19.0763M32.6447 14.5824L30.3129 16.2895H28.4475V18.8501H30.3129L32.6447 20.5572V14.5824Z" stroke="white" stroke-width="0.548599" stroke-linecap="round" stroke-linejoin="round"/>
<rect x="42.7111" y="10.7124" width="13.715" height="13.715" rx="0.858101" fill="#0069F1"/>
<path d="M52.8663 14.5525C53.7406 15.3528 54.2317 16.4381 54.2317 17.5698C54.2317 18.7014 53.7406 19.7868 52.8663 20.5871M51.22 16.059C51.6572 16.4592 51.9027 17.0018 51.9027 17.5677C51.9027 18.1335 51.6572 18.6761 51.22 19.0763M49.1028 14.5824L46.771 16.2895H44.9055V18.8501H46.771L49.1028 20.5572V14.5824Z" stroke="white" stroke-width="0.548599" stroke-linecap="round" stroke-linejoin="round"/>
<rect x="59.1691" y="10.7124" width="13.715" height="13.715" rx="0.858101" fill="#0069F1"/>
<path d="M69.3243 14.5525C70.1986 15.3528 70.6897 16.4381 70.6897 17.5698C70.6897 18.7014 70.1986 19.7868 69.3243 20.5871M67.678 16.059C68.1152 16.4592 68.3607 17.0018 68.3607 17.5677C68.3607 18.1335 68.1152 18.6761 67.678 19.0763M65.5608 14.5824L63.229 16.2895H61.3635V18.8501H63.229L65.5608 20.5572V14.5824Z" stroke="white" stroke-width="0.548599" stroke-linecap="round" stroke-linejoin="round"/>
<rect x="75.627" y="10.7124" width="13.715" height="13.715" rx="0.858101" fill="#0069F1"/>
<path d="M85.7822 14.5525C86.6565 15.3528 87.1476 16.4381 87.1476 17.5698C87.1476 18.7014 86.6565 19.7868 85.7822 20.5871M84.1359 16.059C84.5731 16.4592 84.8186 17.0018 84.8186 17.5677C84.8186 18.1335 84.5731 18.6761 84.1359 19.0763M82.0186 14.5824L79.6868 16.2895H77.8214V18.8501H79.6868L82.0186 20.5572V14.5824Z" stroke="white" stroke-width="0.548599" stroke-linecap="round" stroke-linejoin="round"/>
<rect x="12.8735" y="43.4759" width="31.6968" height="13.5321" rx="0.67051" stroke="#0069F1" stroke-width="0.67051"/>
<rect x="15.2811" y="45.8838" width="8.71663" height="8.71663" rx="1.13047" stroke="#0069F1" stroke-width="0.825425" stroke-dasharray="1.65 1.65"/>
<path d="M31.4603 49.435L31.2875 50.3857C31.1513 50.2626 31.002 50.171 30.8396 50.1107C30.6772 50.0505 30.4847 50.0204 30.2621 50.0204C29.9687 50.0204 29.733 50.1343 29.5549 50.3622C29.3794 50.59 29.2917 50.8952 29.2917 51.2776C29.2917 51.6233 29.3742 51.9062 29.5392 52.1262C29.7068 52.3462 29.9478 52.4562 30.2621 52.4562C30.4978 52.4562 30.7008 52.4182 30.871 52.3423C31.0413 52.2663 31.2115 52.1602 31.3818 52.024L31.4996 52.9669C31.3215 53.0874 31.1185 53.1791 30.8907 53.2419C30.6628 53.3074 30.4022 53.3402 30.1088 53.3402C29.7579 53.3402 29.437 53.2616 29.1463 53.1044C28.8556 52.9473 28.6238 52.7181 28.4509 52.4169C28.278 52.1131 28.1916 51.7464 28.1916 51.3168C28.1916 50.9083 28.2754 50.5416 28.443 50.2168C28.6133 49.8894 28.8516 49.6314 29.1581 49.4428C29.4671 49.2516 29.8286 49.156 30.2424 49.156C30.5017 49.156 30.7335 49.1835 30.9378 49.2385C31.1421 49.2935 31.3163 49.359 31.4603 49.435ZM36.4538 53.2419H35.4088C35.3721 53.1791 35.3367 53.0756 35.3027 52.9316C35.2686 52.7849 35.2411 52.633 35.2202 52.4758C35.2018 52.3161 35.1927 52.1877 35.1927 52.0908V51.8669C35.0958 52.0921 34.9609 52.3187 34.788 52.5466C34.6151 52.7718 34.4135 52.9604 34.183 53.1123C33.9525 53.2642 33.6997 53.3402 33.4247 53.3402C33.0947 53.3402 32.8158 53.1948 32.5879 52.9041C32.36 52.6107 32.2461 52.1864 32.2461 51.6311C32.2461 51.3195 32.2919 51.0169 32.3836 50.7236C32.4753 50.4276 32.6167 50.1618 32.8079 49.9261C32.9991 49.6903 33.2427 49.5031 33.5387 49.3642C33.8346 49.2254 34.1856 49.156 34.5916 49.156C34.8771 49.156 35.1599 49.173 35.4402 49.2071C35.7231 49.2385 35.9758 49.2804 36.1984 49.3328V51.1597C36.1984 51.6547 36.222 52.0712 36.2692 52.409C36.3163 52.7443 36.3779 53.0219 36.4538 53.2419ZM35.0748 50.3739V50.1146C35.0198 50.1015 34.9399 50.0858 34.8352 50.0675C34.7304 50.0465 34.5942 50.0361 34.4266 50.0361C34.1515 50.0361 33.9355 50.112 33.7783 50.2639C33.6212 50.4158 33.5098 50.6136 33.4444 50.8572C33.3789 51.1008 33.3461 51.3588 33.3461 51.6311C33.3461 51.8616 33.3881 52.0489 33.4719 52.193C33.5583 52.3344 33.6605 52.4051 33.7783 52.4051C33.8883 52.4051 34.0023 52.3501 34.1201 52.2401C34.2406 52.1301 34.3572 51.99 34.4698 51.8197C34.5824 51.6495 34.6846 51.4701 34.7762 51.2815C34.8679 51.0929 34.9399 50.9174 34.9923 50.755C35.0473 50.59 35.0748 50.463 35.0748 50.3739ZM40.0093 52.138V53.018C39.8234 53.1359 39.644 53.2184 39.4711 53.2655C39.2982 53.3153 39.1411 53.3402 38.9997 53.3402C38.7534 53.3402 38.5282 53.3074 38.3239 53.2419C38.1196 53.1738 37.9559 53.056 37.8328 52.8884C37.7123 52.7181 37.6521 52.4824 37.6521 52.1812C37.6521 51.4923 37.6521 50.8048 37.6521 50.1186C37.6521 49.4297 37.6521 48.7422 37.6521 48.056H38.7521C38.7521 48.6165 38.7521 49.1783 38.7521 49.7414C38.7521 50.3019 38.7521 50.8637 38.7521 51.4269C38.7521 51.7228 38.7692 51.9428 38.8032 52.0869C38.8373 52.2309 38.891 52.3252 38.9643 52.3698C39.0376 52.4117 39.1332 52.4326 39.2511 52.4326C39.4397 52.4326 39.6924 52.3344 40.0093 52.138ZM39.9504 50.0793H36.9056V49.2935H39.9504V50.0793Z" fill="#0069F1"/>
<rect x="47.4351" y="43.4759" width="33.8912" height="13.5321" rx="0.67051" stroke="#0069F1" stroke-width="0.67051"/>
<rect x="49.8428" y="45.8838" width="8.71663" height="8.71663" rx="1.13047" stroke="#0069F1" stroke-width="0.825425" stroke-dasharray="1.65 1.65"/>
<path d="M66.7802 46.9559V51.1597C66.7802 51.6547 66.8077 52.0712 66.8627 52.409C66.9204 52.7443 66.9911 53.0219 67.0749 53.2419H65.9945C65.9657 53.1791 65.9303 53.0835 65.8884 52.9551C65.8491 52.8242 65.8125 52.6906 65.7784 52.5544C65.6029 52.8058 65.4012 52.9997 65.1734 53.1359C64.9455 53.2721 64.6954 53.3402 64.423 53.3402C64.1008 53.3402 63.8166 53.2616 63.5704 53.1044C63.3268 52.9473 63.1356 52.726 62.9968 52.4405C62.8606 52.1524 62.7925 51.8171 62.7925 51.4347C62.7925 50.9711 62.879 50.5691 63.0518 50.2286C63.2247 49.8881 63.4565 49.6249 63.7472 49.4389C64.0406 49.2503 64.364 49.156 64.7176 49.156C64.8722 49.156 65.0359 49.1901 65.2087 49.2582C65.3816 49.3263 65.5387 49.4035 65.6802 49.49V48.3899C65.6802 48.0756 65.6723 47.7993 65.6566 47.5609C65.6435 47.3226 65.6186 47.1209 65.582 46.9559H66.7802ZM65.6802 51.6704V50.3425C65.4995 50.2535 65.3397 50.1906 65.2009 50.1539C65.0621 50.1173 64.901 50.0989 64.7176 50.0989C64.5814 50.0989 64.4492 50.1474 64.3208 50.2443C64.1951 50.3412 64.0916 50.48 64.0105 50.6607C63.9319 50.8415 63.8926 51.0602 63.8926 51.3168C63.8926 52.0764 64.1414 52.4562 64.6391 52.4562C64.7779 52.4562 64.9154 52.4182 65.0516 52.3423C65.1878 52.2663 65.3109 52.1681 65.4209 52.0476C65.5309 51.9271 65.6173 51.8014 65.6802 51.6704ZM67.7271 51.2501C67.7271 50.7996 67.8161 50.4185 67.9942 50.1068C68.175 49.7951 68.4146 49.5594 68.7132 49.3996C69.0118 49.2372 69.3379 49.156 69.6915 49.156C70.0634 49.156 70.3908 49.2372 70.6736 49.3996C70.9565 49.5594 71.1778 49.7951 71.3376 50.1068C71.4974 50.4185 71.5773 50.7996 71.5773 51.2501C71.5773 51.7006 71.4869 52.0816 71.3062 52.3933C71.1281 52.7024 70.8897 52.9381 70.5911 53.1005C70.2926 53.2603 69.9665 53.3402 69.6129 53.3402C69.2436 53.3402 68.9175 53.2603 68.6346 53.1005C68.3517 52.9381 68.1291 52.7024 67.9667 52.3933C67.807 52.0816 67.7271 51.7006 67.7271 51.2501ZM68.8271 51.2501C68.8271 51.6246 68.8965 51.9193 69.0354 52.134C69.1768 52.3488 69.3824 52.4562 69.6522 52.4562C69.9062 52.4562 70.1066 52.3488 70.2533 52.134C70.4026 51.9193 70.4772 51.6246 70.4772 51.2501C70.4772 50.8729 70.4065 50.5769 70.2651 50.3622C70.1262 50.1474 69.9219 50.04 69.6522 50.04C69.3981 50.04 69.1964 50.1474 69.0471 50.3622C68.9005 50.5769 68.8271 50.8729 68.8271 51.2501ZM76.0954 49.4507V53.1437C76.0954 53.4895 76.0404 53.7854 75.9303 54.0316C75.8203 54.2778 75.6724 54.4782 75.4864 54.6327C75.3031 54.7899 75.0961 54.9051 74.8656 54.9785C74.6378 55.0518 74.406 55.0885 74.1703 55.0885C73.8219 55.0885 73.5089 55.0413 73.2313 54.947C72.9563 54.8527 72.7258 54.7296 72.5398 54.5777L72.8738 53.7566C73.0388 53.8902 73.2156 53.9989 73.4041 54.0827C73.5953 54.1665 73.7983 54.2084 74.0131 54.2084C74.1781 54.2084 74.3353 54.1783 74.4846 54.1181C74.6365 54.0578 74.7596 53.9596 74.8539 53.8234C74.9482 53.6872 74.9953 53.5065 74.9953 53.2812V52.5544C74.7962 52.798 74.5788 52.9774 74.3431 53.0927C74.11 53.2053 73.8887 53.2616 73.6792 53.2616C73.4461 53.2616 73.226 53.204 73.0191 53.0887C72.8122 52.9735 72.6446 52.7901 72.5162 52.5387C72.3879 52.2846 72.3237 51.9494 72.3237 51.5329C72.3237 51.2317 72.3656 50.9397 72.4495 50.6568C72.5359 50.3739 72.6682 50.1199 72.8463 49.8946C73.0244 49.6668 73.2522 49.4873 73.5299 49.3564C73.8075 49.2228 74.1401 49.156 74.5278 49.156C74.7845 49.156 75.0516 49.1875 75.3292 49.2503C75.6095 49.3132 75.8649 49.38 76.0954 49.4507ZM74.9953 51.6076V50.2482C74.791 50.1435 74.588 50.0911 74.3863 50.0911C74.1559 50.0911 73.9699 50.1526 73.8285 50.2757C73.687 50.3988 73.5836 50.556 73.5181 50.7472C73.4552 50.9358 73.4238 51.1322 73.4238 51.3365C73.4238 51.7189 73.4853 51.9795 73.6084 52.1183C73.7315 52.2571 73.8861 52.3265 74.072 52.3265C74.2161 52.3265 74.3746 52.265 74.5474 52.1419C74.7229 52.0162 74.8722 51.8381 74.9953 51.6076Z" fill="#0069F1"/>
<rect x="47.4351" y="28.115" width="33.8912" height="13.5321" rx="0.67051" stroke="#0069F1" stroke-width="0.67051"/>
<rect x="49.8428" y="30.5227" width="8.71663" height="8.71663" rx="1.13047" stroke="#0069F1" stroke-width="0.825425" stroke-dasharray="1.65 1.65"/>
<path d="M62.8711 31.5951H64.0301C64.0301 31.8753 64.0301 32.1739 64.0301 32.4908C64.0301 32.8078 64.0301 33.1116 64.0301 33.4023C64.0301 33.693 64.0301 33.9432 64.0301 34.1527C64.0301 34.3622 64.0301 34.4984 64.0301 34.5613C64.2082 34.3439 64.4177 34.1619 64.6587 34.0152C64.8997 33.8685 65.1799 33.7952 65.4995 33.7952C65.7588 33.7952 65.9866 33.879 66.1831 34.0466C66.3821 34.2143 66.538 34.446 66.6506 34.742C66.7632 35.038 66.8195 35.3772 66.8195 35.7596C66.8195 36.2074 66.7423 36.5977 66.5877 36.9303C66.4358 37.263 66.2197 37.521 65.9395 37.7043C65.6618 37.8877 65.3331 37.9793 64.9534 37.9793C64.5736 37.9793 64.2148 37.94 63.8769 37.8615C63.5416 37.7803 63.226 37.7017 62.93 37.6257C62.93 36.929 62.93 36.2323 62.93 35.5356C62.93 34.8363 62.93 34.1383 62.93 33.4416C62.93 33.253 62.9287 33.0435 62.9261 32.813C62.9261 32.5825 62.9222 32.3586 62.9143 32.1412C62.9065 31.9238 62.8921 31.7417 62.8711 31.5951ZM64.0301 35.5828V36.9382C64.182 37.0089 64.3117 37.06 64.419 37.0914C64.5264 37.1202 64.6456 37.1346 64.7766 37.1346C65.0621 37.1346 65.2965 37.0207 65.4798 36.7928C65.6658 36.565 65.7588 36.2664 65.7588 35.8971C65.7588 35.5461 65.6998 35.2685 65.582 35.0642C65.4667 34.8599 65.3004 34.7577 65.083 34.7577C64.8813 34.7577 64.6823 34.835 64.4858 34.9895C64.292 35.1414 64.1401 35.3392 64.0301 35.5828ZM67.8253 33.8738H68.9843C68.9843 34.0702 68.9843 34.2797 68.9843 34.5024C68.9843 34.725 68.9843 34.9411 68.9843 35.1506C68.9843 35.3575 68.9843 35.5382 68.9843 35.6928C68.9843 35.8473 68.9843 35.9547 68.9843 36.0149C68.9843 36.1826 68.9869 36.3869 68.9921 36.6278C69 36.8662 69.0092 37.0993 69.0196 37.3271C69.0327 37.555 69.0471 37.7397 69.0629 37.8811H67.8842C67.8842 37.6925 67.8842 37.4712 67.8842 37.2171C67.8842 36.9631 67.8842 36.7103 67.8842 36.4589C67.8842 36.2048 67.8842 35.9848 67.8842 35.7989C67.8842 35.4165 67.8803 35.0524 67.8724 34.7067C67.8672 34.3583 67.8515 34.0807 67.8253 33.8738ZM67.7467 32.4398C67.7467 32.2381 67.8109 32.0731 67.9392 31.9447C68.0702 31.8164 68.2352 31.7522 68.4343 31.7522C68.6359 31.7522 68.8009 31.8164 68.9293 31.9447C69.0576 32.0731 69.1218 32.2381 69.1218 32.4398C69.1218 32.6441 69.0576 32.8104 68.9293 32.9387C68.8009 33.0644 68.6359 33.1273 68.4343 33.1273C68.2352 33.1273 68.0702 33.0644 67.9392 32.9387C67.8109 32.8104 67.7467 32.6441 67.7467 32.4398ZM71.3612 37.8811H70.2611V35.4649C70.2611 35.0799 70.2389 34.7525 70.1943 34.4827C70.1524 34.2129 70.1092 34.01 70.0647 33.8738H71.1451C71.1661 33.9288 71.1857 34.0047 71.204 34.1016C71.225 34.1985 71.2446 34.2968 71.263 34.3963C71.2813 34.4958 71.2944 34.577 71.3023 34.6399C71.4935 34.3675 71.703 34.1592 71.9309 34.0152C72.1587 33.8685 72.3617 33.7952 72.5398 33.7952C72.786 33.7952 72.9838 33.8633 73.1331 33.9995C73.2824 34.1331 73.391 34.3112 73.4591 34.5338C73.5272 34.7564 73.5613 35.0013 73.5613 35.2685L72.6852 35.406C72.6721 35.2279 72.6289 35.0851 72.5555 34.9777C72.4822 34.8677 72.3617 34.8127 72.1941 34.8127C72.1077 34.8127 72.0081 34.8612 71.8955 34.9581C71.7829 35.055 71.6768 35.1794 71.5773 35.3313C71.4804 35.4806 71.4083 35.6365 71.3612 35.7989V37.8811ZM77.9851 31.5951V35.7989C77.9851 36.2939 78.0126 36.7103 78.0676 37.0482C78.1252 37.3835 78.1959 37.6611 78.2797 37.8811H77.1993C77.1705 37.8182 77.1352 37.7226 77.0933 37.5943C77.054 37.4633 77.0173 37.3298 76.9833 37.1936C76.8078 37.445 76.6061 37.6388 76.3782 37.775C76.1504 37.9112 75.9002 37.9793 75.6278 37.9793C75.3057 37.9793 75.0215 37.9007 74.7753 37.7436C74.5317 37.5864 74.3405 37.3651 74.2017 37.0796C74.0655 36.7915 73.9974 36.4563 73.9974 36.0739C73.9974 35.6103 74.0838 35.2082 74.2567 34.8677C74.4296 34.5272 74.6614 34.264 74.9521 34.0781C75.2454 33.8895 75.5689 33.7952 75.9225 33.7952C76.077 33.7952 76.2407 33.8292 76.4136 33.8973C76.5864 33.9654 76.7436 34.0427 76.885 34.1291V33.0291C76.885 32.7148 76.8772 32.4384 76.8615 32.2001C76.8484 31.9618 76.8235 31.7601 76.7868 31.5951H77.9851ZM76.885 36.3096V34.9817C76.7043 34.8926 76.5445 34.8298 76.4057 34.7931C76.2669 34.7564 76.1058 34.7381 75.9225 34.7381C75.7863 34.7381 75.654 34.7865 75.5257 34.8835C75.4 34.9804 75.2965 35.1192 75.2153 35.2999C75.1367 35.4806 75.0974 35.6993 75.0974 35.956C75.0974 36.7156 75.3463 37.0953 75.8439 37.0953C75.9827 37.0953 76.1202 37.0574 76.2564 36.9814C76.3926 36.9055 76.5157 36.8072 76.6257 36.6868C76.7357 36.5663 76.8222 36.4406 76.885 36.3096Z" fill="#0069F1"/>
<rect x="12.8735" y="28.115" width="31.6968" height="13.5321" rx="0.67051" stroke="#0069F1" stroke-width="0.67051"/>
<rect x="15.2811" y="30.5227" width="8.71663" height="8.71663" rx="1.13047" stroke="#0069F1" stroke-width="0.825425" stroke-dasharray="1.65 1.65"/>
<path d="M28.3095 31.5951H29.4685C29.4685 31.8753 29.4685 32.1739 29.4685 32.4908C29.4685 32.8078 29.4685 33.1116 29.4685 33.4023C29.4685 33.693 29.4685 33.9432 29.4685 34.1527C29.4685 34.3622 29.4685 34.4984 29.4685 34.5613C29.6466 34.3439 29.8561 34.1619 30.0971 34.0152C30.338 33.8685 30.6183 33.7952 30.9378 33.7952C31.1971 33.7952 31.425 33.879 31.6214 34.0466C31.8205 34.2143 31.9763 34.446 32.0889 34.742C32.2016 35.038 32.2579 35.3772 32.2579 35.7596C32.2579 36.2074 32.1806 36.5977 32.0261 36.9303C31.8742 37.263 31.6581 37.521 31.3778 37.7043C31.1002 37.8877 30.7715 37.9793 30.3917 37.9793C30.0119 37.9793 29.6531 37.94 29.3152 37.8615C28.98 37.7803 28.6644 37.7017 28.3684 37.6257C28.3684 36.929 28.3684 36.2323 28.3684 35.5356C28.3684 34.8363 28.3684 34.1383 28.3684 33.4416C28.3684 33.253 28.3671 33.0435 28.3645 32.813C28.3645 32.5825 28.3605 32.3586 28.3527 32.1412C28.3448 31.9238 28.3304 31.7417 28.3095 31.5951ZM29.4685 35.5828V36.9382C29.6204 37.0089 29.75 37.06 29.8574 37.0914C29.9648 37.1202 30.084 37.1346 30.2149 37.1346C30.5004 37.1346 30.7348 37.0207 30.9182 36.7928C31.1041 36.565 31.1971 36.2664 31.1971 35.8971C31.1971 35.5461 31.1382 35.2685 31.0203 35.0642C30.9051 34.8599 30.7388 34.7577 30.5214 34.7577C30.3197 34.7577 30.1206 34.835 29.9242 34.9895C29.7304 35.1414 29.5785 35.3392 29.4685 35.5828ZM36.5835 36.1132H33.5662V35.406H35.5816C35.5816 35.131 35.5214 34.9319 35.4009 34.8088C35.283 34.6831 35.1075 34.6202 34.8744 34.6202C34.5916 34.6202 34.3807 34.7184 34.2419 34.9149C34.1057 35.1087 34.0376 35.4361 34.0376 35.8971C34.0376 36.3135 34.1214 36.6173 34.2891 36.8085C34.4567 36.9997 34.7029 37.0953 35.0277 37.0953C35.2843 37.0953 35.5358 37.0652 35.782 37.005C36.0308 36.9447 36.277 36.8426 36.5206 36.6985L36.6031 37.5864C36.3202 37.7305 36.0465 37.8313 35.782 37.889C35.5201 37.9492 35.2359 37.9793 34.9294 37.9793C34.5837 37.9793 34.2616 37.9021 33.963 37.7475C33.6644 37.593 33.4234 37.3638 33.2401 37.06C33.0593 36.7562 32.969 36.3816 32.969 35.9364C32.969 35.5016 33.0476 35.1244 33.2047 34.8049C33.3645 34.4853 33.591 34.2378 33.8844 34.0623C34.1777 33.8842 34.5261 33.7952 34.9294 33.7952C35.2595 33.7952 35.5305 33.8528 35.7427 33.968C35.9575 34.0807 36.1251 34.2326 36.2456 34.4238C36.3687 34.615 36.4551 34.8298 36.5049 35.0681C36.5546 35.3038 36.5795 35.5448 36.5795 35.791C36.5795 35.8277 36.5795 35.8814 36.5795 35.9521C36.5821 36.0228 36.5835 36.0765 36.5835 36.1132ZM40.9444 36.1132H37.9271V35.406H39.9426C39.9426 35.131 39.8823 34.9319 39.7618 34.8088C39.644 34.6831 39.4685 34.6202 39.2354 34.6202C38.9525 34.6202 38.7417 34.7184 38.6028 34.9149C38.4666 35.1087 38.3985 35.4361 38.3985 35.8971C38.3985 36.3135 38.4824 36.6173 38.65 36.8085C38.8176 36.9997 39.0638 37.0953 39.3886 37.0953C39.6453 37.0953 39.8967 37.0652 40.1429 37.005C40.3917 36.9447 40.6379 36.8426 40.8815 36.6985L40.964 37.5864C40.6812 37.7305 40.4075 37.8313 40.1429 37.889C39.881 37.9492 39.5968 37.9793 39.2904 37.9793C38.9446 37.9793 38.6225 37.9021 38.3239 37.7475C38.0253 37.593 37.7844 37.3638 37.601 37.06C37.4203 36.7562 37.3299 36.3816 37.3299 35.9364C37.3299 35.5016 37.4085 35.1244 37.5656 34.8049C37.7254 34.4853 37.952 34.2378 38.2453 34.0623C38.5387 33.8842 38.887 33.7952 39.2904 33.7952C39.6204 33.7952 39.8915 33.8528 40.1036 33.968C40.3184 34.0807 40.486 34.2326 40.6065 34.4238C40.7296 34.615 40.8161 34.8298 40.8658 35.0681C40.9156 35.3038 40.9405 35.5448 40.9405 35.791C40.9405 35.8277 40.9405 35.8814 40.9405 35.9521C40.9431 36.0228 40.9444 36.0765 40.9444 36.1132Z" fill="#0069F1"/>
<path d="M24.0586 15.2346C16.8271 15.7334 14.1838 18.8005 16.1787 28.6753M16.1787 28.6753L19.1212 25.3837M16.1787 28.6753L12.8123 25.9323" stroke="#848484" stroke-width="2.1944" stroke-linecap="round" stroke-linejoin="round"/>
</g>
<defs>
<clipPath id="clip0_5341_5985">
<rect x="0.46875" y="65.5723" width="64.7347" height="100.942" rx="3.8402" transform="rotate(-90 0.46875 65.5723)" fill="white"/>
</clipPath>
</defs>
</svg>
