<svg width="193" height="118" viewBox="0 0 193 118" fill="none" xmlns="http://www.w3.org/2000/svg">
<g clip-path="url(#clip0_4699_2603)">
<rect y="118" width="118" height="193" rx="7" transform="rotate(-90 0 118)" fill="white"/>
<path d="M95.7572 48.5813C77.9552 35.4454 96.6575 36.1017 76.2631 43.7565C65.2904 47.875 77.7536 66.0501 81.0594 54.094C87.2037 31.872 92.4013 51.1562 79.3128 32.7139C72.2708 22.7914 60.0092 41.1237 71.6303 40.8019C93.2297 40.2037 77.7396 51.4658 90.0449 32.413C96.6655 22.1621 76.6242 15.3169 80.5006 27.0741C87.7054 48.9265 72.9345 36.6026 93.628 43.2697C104.762 46.8568 104.637 24.2939 95.4118 31.8821C78.2652 45.9858 84.6264 27.1071 85.1105 50.2803C85.3709 62.7482 105.335 55.6488 95.7572 48.5813Z" fill="#888A85"/>
<path fill-rule="evenodd" clip-rule="evenodd" d="M91.5462 25.2005C92.5792 27.4121 92.5459 30.1094 90.7295 32.9218C90.2106 33.7252 89.7422 34.4733 89.3193 35.1692C90.793 34.3124 92.6311 33.0435 94.9051 31.173C96.1294 30.1661 97.2771 29.5959 98.337 29.4533C99.4224 29.3074 100.369 29.6183 101.117 30.2719C102.553 31.5273 103.096 33.8794 102.986 36.1222C102.875 38.4057 102.08 40.8856 100.486 42.5725C98.8447 44.3098 96.4431 45.1094 93.3885 44.1253C92.5159 43.8441 91.708 43.5974 90.9603 43.3809C92.1754 44.6197 93.8682 46.103 96.2292 47.8451C97.5002 48.783 98.3604 49.7778 98.8143 50.8151C99.2791 51.8774 99.296 52.9395 98.9476 53.9043C98.2785 55.7575 96.361 57.0383 94.3388 57.6195C92.2799 58.2113 89.8358 58.1666 87.8478 57.0618C85.8003 55.924 84.3494 53.7208 84.2779 50.3003C84.2575 49.323 84.2266 48.4225 84.1874 47.5928C83.4646 49.2152 82.6728 51.4008 81.8579 54.348C81.4192 55.9346 80.8031 57.1196 80.0237 57.9032C79.2256 58.7057 78.2893 59.0512 77.3263 58.9939C75.4765 58.8839 73.7485 57.3233 72.6084 55.4397C71.4475 53.522 70.7318 51.0145 71.0969 48.6448C71.4729 46.2042 72.9778 44.043 75.9882 42.9131C76.8482 42.5903 77.637 42.2805 78.3605 41.9842C76.6988 41.7481 74.5165 41.6156 71.6519 41.6949C70.1098 41.7376 68.8688 41.4752 67.9332 40.9222C66.9751 40.3558 66.3796 39.5073 66.1327 38.5071C65.6587 36.5858 66.5083 34.3406 67.8257 32.5953C69.1672 30.8182 71.169 29.3132 73.3827 28.9534C75.6625 28.5829 78.0435 29.4504 79.9755 32.1726C80.5274 32.9503 81.0459 33.6594 81.5321 34.306C81.2279 32.5376 80.6711 30.2702 79.7155 27.372C79.2011 25.8118 79.0503 24.4646 79.2514 23.3391C79.4574 22.1866 80.0257 21.3168 80.8361 20.7559C82.3929 19.6785 84.6459 19.8515 86.6003 20.6563C88.5903 21.4759 90.5432 23.0532 91.5462 25.2005ZM81.8518 37.501C80.9286 36.363 79.866 34.968 78.6502 33.255C77.0612 31.016 75.2688 30.4541 73.6322 30.7201C71.9294 30.9969 70.2717 32.1943 69.1202 33.7198C67.9446 35.277 67.4677 36.9343 67.7429 38.0498C67.8708 38.5679 68.1688 39.0213 68.737 39.3572C69.3277 39.7063 70.2457 39.9464 71.6089 39.9086C76.2095 39.7812 79.2021 40.1838 81.1724 40.7476C81.1951 40.618 81.2348 40.5268 81.2462 40.5007C81.247 40.4988 81.2477 40.4972 81.2482 40.496C81.2993 40.3757 81.3384 40.3031 81.3752 40.2348C81.4349 40.1238 81.4886 40.0241 81.5776 39.7499C81.6963 39.3841 81.8266 38.792 81.8488 37.8632C81.8515 37.7476 81.8526 37.627 81.8518 37.501ZM83.6696 43.169C83.6649 43.1841 83.6649 43.1812 83.6703 43.1664C83.6701 43.1673 83.6698 43.1682 83.6696 43.169ZM83.9601 44.3418C83.8523 44.2786 83.7836 44.2099 83.764 44.1902C83.7626 44.1888 83.7614 44.1876 83.7605 44.1867C83.6696 44.0974 83.6173 44.0351 83.5681 43.9764C83.4882 43.8811 83.4164 43.7956 83.2008 43.62C82.9132 43.3859 82.4285 43.07 81.6119 42.7603C81.5104 42.7218 81.4038 42.6834 81.2918 42.6453C79.9976 43.2356 78.4326 43.8887 76.5382 44.5997C74.0622 45.5291 73.0102 47.1842 72.7403 48.9362C72.4594 50.759 73.0088 52.8203 74.0053 54.4666C75.0226 56.1471 76.3445 57.1459 77.4185 57.2098C77.9173 57.2395 78.4113 57.0755 78.8847 56.5995C79.3767 56.1048 79.8733 55.2423 80.261 53.8399C81.5698 49.1067 82.8514 46.1777 83.9601 44.3418ZM86.8784 42.5423C86.8903 42.5517 86.8878 42.5508 86.8764 42.5406C86.8771 42.5412 86.8778 42.5417 86.8784 42.5423ZM88.0079 42.6083C87.9186 42.6987 87.8364 42.7475 87.8129 42.7615C87.8112 42.7625 87.8098 42.7633 87.8088 42.7639C87.7015 42.8291 87.6301 42.8632 87.5629 42.8952C87.4537 42.9473 87.3557 42.9941 87.1334 43.1599C86.837 43.3809 86.4071 43.7778 85.8803 44.5153C85.8148 44.607 85.7478 44.7039 85.6794 44.8063C85.8028 46.3092 85.8982 48.1078 85.9431 50.2602C86.0019 53.0736 87.1441 54.6584 88.6139 55.4752C90.1431 56.325 92.1403 56.4015 93.9078 55.8935C95.712 55.3749 97.006 54.3349 97.3945 53.2589C97.5749 52.7591 97.5822 52.2044 97.3065 51.5744C97.0199 50.9194 96.4088 50.1464 95.2853 49.3173C91.4935 46.5195 89.293 44.3067 88.0079 42.6083ZM87.3144 39.0747C87.3264 39.0654 87.3249 39.0677 87.3123 39.0763C87.313 39.0757 87.3137 39.0752 87.3144 39.0747ZM87.7219 37.9427C87.7745 38.0618 87.7924 38.1607 87.7975 38.189C87.7979 38.191 87.7982 38.1927 87.7984 38.194C87.823 38.3235 87.8312 38.4069 87.8388 38.4854C87.8513 38.6129 87.8625 38.7274 87.9407 39.0053C88.0451 39.3761 88.2641 39.9373 88.7551 40.7027C88.8162 40.7979 88.8814 40.8962 88.9511 40.9976C90.3216 41.3362 91.9455 41.7947 93.8676 42.4139C96.38 43.2233 98.138 42.5477 99.3163 41.3005C100.542 40.0029 101.227 37.9889 101.323 36.0286C101.421 34.0275 100.899 32.386 100.065 31.6571C99.6774 31.3186 99.1879 31.1397 98.5442 31.2263C97.875 31.3163 97.0008 31.7009 95.9186 32.591C92.2665 35.595 89.6248 37.1564 87.7219 37.9427ZM84.375 37.5583C84.3705 37.5432 84.3721 37.5455 84.3757 37.5609C84.3755 37.56 84.3752 37.5592 84.375 37.5583ZM82.1223 40.0888C82.1075 40.0886 82.11 40.0877 82.1249 40.0888C82.124 40.0888 82.1231 40.0888 82.1223 40.0888ZM83.4973 36.7927C83.3883 34.6083 82.8204 31.4306 81.2858 26.7761C80.8311 25.397 80.7603 24.3862 80.8873 23.6756C81.0094 22.9921 81.3192 22.5479 81.7391 22.2574C82.6429 21.6318 84.2596 21.6064 86.0034 22.3245C87.7117 23.028 89.2855 24.3492 90.057 26.001C90.7986 27.5886 90.8544 29.591 89.3604 31.9041C88.2174 33.6738 87.3091 35.1891 86.5855 36.4827C86.4741 36.5224 86.3668 36.5586 86.2635 36.5915C85.4332 36.8559 84.868 36.9059 84.507 36.8979C84.2364 36.8918 84.1315 36.8679 84.0146 36.8412C83.9427 36.8247 83.8662 36.8073 83.7438 36.7923C83.7426 36.7922 83.741 36.792 83.739 36.7917C83.7124 36.7882 83.6192 36.7759 83.4973 36.7927Z" fill="#888A85"/>
<path d="M88.2117 39.8895C88.212 40.4037 88.1178 40.913 87.9346 41.3883C87.7513 41.8635 87.4826 42.2953 87.1437 42.6591C86.8048 43.0228 86.4025 43.3114 85.9596 43.5083C85.5167 43.7052 85.042 43.8065 84.5626 43.8065C84.0832 43.8065 83.6086 43.7052 83.1657 43.5083C82.7228 43.3114 82.3204 43.0228 81.9816 42.6591C81.6427 42.2953 81.3739 41.8635 81.1907 41.3883C81.0074 40.913 80.9133 40.4037 80.9136 39.8895C80.9133 39.3752 81.0074 38.8659 81.1907 38.3907C81.3739 37.9154 81.6427 37.4836 81.9816 37.1198C82.3204 36.7561 82.7228 36.4675 83.1657 36.2706C83.6086 36.0738 84.0832 35.9724 84.5626 35.9724C85.042 35.9724 85.5167 36.0738 85.9596 36.2706C86.4025 36.4675 86.8048 36.7561 87.1437 37.1198C87.4826 37.4836 87.7513 37.9154 87.9346 38.3907C88.1178 38.8659 88.212 39.3752 88.2117 39.8895V39.8895Z" fill="#BABDB6"/>
<path fill-rule="evenodd" clip-rule="evenodd" d="M84.5629 36.866C84.193 36.866 83.8266 36.9442 83.4848 37.0961C83.143 37.2481 82.8325 37.4708 82.5709 37.7515C82.3094 38.0322 82.102 38.3655 81.9606 38.7323C81.8191 39.099 81.7465 39.4921 81.7467 39.889V39.8901C81.7465 40.287 81.8191 40.6801 81.9606 41.0469C82.102 41.4136 82.3094 41.7469 82.5709 42.0276C82.8325 42.3084 83.143 42.5311 83.4848 42.683C83.8266 42.835 84.193 42.9132 84.5629 42.9132C84.9329 42.9132 85.2993 42.835 85.6411 42.683C85.9829 42.5311 86.2934 42.3084 86.5549 42.0276C86.8165 41.7469 87.0239 41.4136 87.1653 41.0469C87.3067 40.6801 87.3794 40.287 87.3792 39.8901L88.212 39.8896L87.3792 39.889C87.3794 39.4921 87.3067 39.099 87.1653 38.7323C87.0239 38.3655 86.8165 38.0322 86.5549 37.7515C86.2934 37.4708 85.9829 37.2481 85.6411 37.0961C85.2993 36.9442 84.9329 36.866 84.5629 36.866ZM89.0448 39.8896C89.0451 39.2581 88.9295 38.6328 88.7045 38.0492C88.4794 37.4656 88.1493 36.9352 87.7331 36.4884C87.3169 36.0416 86.8227 35.6872 86.2787 35.4454C85.7348 35.2036 85.1517 35.0791 84.5629 35.0791C83.9741 35.0791 83.3911 35.2036 82.8472 35.4454C82.3032 35.6872 81.809 36.0416 81.3928 36.4884C80.9766 36.9352 80.6465 37.4656 80.4214 38.0492C80.1964 38.6328 80.0808 39.2581 80.0811 39.8896C80.0808 40.521 80.1964 41.1464 80.4214 41.7299C80.6465 42.3136 80.9766 42.844 81.3928 43.2907C81.809 43.7375 82.3032 44.092 82.8472 44.3338C83.3911 44.5756 83.9741 44.7 84.5629 44.7C85.1517 44.7 85.7348 44.5756 86.2787 44.3338C86.8227 44.092 87.3169 43.7375 87.7331 43.2907C88.1493 42.844 88.4794 42.3136 88.7045 41.7299C88.9295 41.1464 89.0451 40.521 89.0448 39.8896Z" fill="#BABDB6"/>
<path d="M0 112.156C0 115.383 2.62157 118 5.85515 118H188.145C191.378 118 194 115.383 194 112.156V5.84391C194 2.61648 191.378 0.000217983 188.145 -0.000109282H5.85515C2.62157 -0.000109282 0.000327888 2.61648 0 5.84391V112.156ZM16.1602 106.312V11.6879H170.111V106.312H16.1602Z" fill="#848484"/>
<path d="M187.359 59C187.359 55.4958 184.513 52.6551 181.002 52.6551C177.491 52.6551 174.645 55.4958 174.645 59C174.645 62.5042 177.491 65.345 181.002 65.345C184.513 65.345 187.359 62.5042 187.359 59Z" fill="white"/>
<g filter="url(#filter0_d_4699_2603)">
<rect x="48" y="72" width="32.8663" height="17.8663" rx="2.05989" fill="#2F82BC"/>
<path d="M56.4684 80.6028C56.3658 80.5413 56.2489 80.4777 56.1176 80.4121C55.9864 80.3423 55.8428 80.2787 55.6869 80.2213C55.5351 80.1639 55.371 80.1167 55.1946 80.0798C55.0224 80.0388 54.8419 80.0183 54.6532 80.0183C54.4275 80.0183 54.2368 80.0429 54.0809 80.0921C53.9291 80.1413 53.8061 80.2049 53.7117 80.2829C53.6215 80.3567 53.5558 80.4428 53.5148 80.5413C53.4738 80.6356 53.4533 80.7279 53.4533 80.8182C53.4533 80.9248 53.4697 81.0192 53.5025 81.1012C53.5353 81.1833 53.603 81.2592 53.7056 81.3289C53.8122 81.3986 53.9619 81.4663 54.1547 81.532C54.3475 81.5976 54.606 81.6673 54.9301 81.7412C55.209 81.8027 55.4715 81.8827 55.7177 81.9811C55.9638 82.0755 56.1792 82.1965 56.3638 82.3442C56.5484 82.4919 56.694 82.6703 56.8006 82.8795C56.9073 83.0846 56.9606 83.3308 56.9606 83.6179C56.9606 83.8968 56.8991 84.1553 56.776 84.3932C56.653 84.6311 56.4848 84.8403 56.2715 85.0208C56.0581 85.1972 55.8079 85.3347 55.5208 85.4331C55.2336 85.5357 54.9239 85.5869 54.5916 85.5869C54.3414 85.5869 54.0994 85.5685 53.8655 85.5316C53.6358 85.4946 53.4184 85.4434 53.2133 85.3777C53.0123 85.3121 52.8277 85.2362 52.6595 85.1501C52.4913 85.0639 52.3457 84.9737 52.2226 84.8793L52.5303 83.7717C52.6698 83.8948 52.8256 84.0076 52.9979 84.1102C53.1743 84.2127 53.3548 84.3009 53.5394 84.3747C53.724 84.4486 53.9086 84.506 54.0932 84.547C54.2819 84.584 54.4583 84.6024 54.6224 84.6024C54.8029 84.6024 54.967 84.5799 55.1147 84.5347C55.2664 84.4855 55.3956 84.424 55.5023 84.3501C55.6131 84.2722 55.6992 84.184 55.7607 84.0855C55.8223 83.983 55.853 83.8784 55.853 83.7717C55.853 83.6569 55.8284 83.5502 55.7792 83.4518C55.7341 83.3492 55.6479 83.2528 55.5208 83.1626C55.3977 83.0682 55.2254 82.978 55.0039 82.8918C54.7865 82.8057 54.5055 82.7195 54.1609 82.6334C53.7876 82.5431 53.482 82.4365 53.2441 82.3134C53.0102 82.1904 52.8256 82.055 52.6903 81.9073C52.559 81.7596 52.4688 81.5996 52.4195 81.4274C52.3703 81.2551 52.3457 81.0725 52.3457 80.8797C52.3457 80.7854 52.3601 80.6746 52.3888 80.5474C52.4216 80.4203 52.4729 80.289 52.5426 80.1536C52.6164 80.0142 52.7108 79.8788 52.8256 79.7475C52.9446 79.6121 53.0923 79.4932 53.2687 79.3906C53.4451 79.284 53.6522 79.1978 53.8902 79.1322C54.1281 79.0666 54.4029 79.0337 54.7147 79.0337C54.9362 79.0337 55.1434 79.0481 55.3362 79.0768C55.5331 79.1055 55.7115 79.1445 55.8715 79.1937C56.0356 79.2389 56.1853 79.2922 56.3207 79.3537C56.4561 79.4111 56.5771 79.4686 56.6837 79.526L56.4684 80.6028ZM59.7394 83.8333C59.9486 83.9809 60.1291 84.104 60.2809 84.2025C60.4368 84.2968 60.5783 84.3727 60.7055 84.4301C60.8326 84.4835 60.9537 84.5204 61.0685 84.5409C61.1875 84.5614 61.3187 84.5717 61.4623 84.5717C61.6797 84.5717 61.8869 84.5204 62.0838 84.4178C62.2848 84.3153 62.4612 84.1676 62.613 83.9748C62.7689 83.7779 62.8919 83.542 62.9822 83.2672C63.0765 82.9882 63.1237 82.6744 63.1237 82.3257C63.1237 81.9852 63.0909 81.6776 63.0252 81.4027C62.9637 81.1238 62.8714 80.8879 62.7484 80.6951C62.6253 80.4982 62.4756 80.3464 62.2992 80.2398C62.1269 80.1331 61.93 80.0798 61.7085 80.0798C61.5321 80.0798 61.3516 80.1188 61.167 80.1967C60.9824 80.2746 60.8019 80.3895 60.6255 80.5413C60.4532 80.6931 60.2912 80.8838 60.1394 81.1135C59.9876 81.3392 59.8543 81.5996 59.7394 81.895V83.8333ZM59.401 79.1568C59.4461 79.2635 59.4912 79.4152 59.5364 79.6121C59.5815 79.8049 59.6184 80.0429 59.6471 80.3259C59.7907 80.1372 59.9466 79.9629 60.1148 79.8029C60.2871 79.6429 60.4676 79.5075 60.6563 79.3968C60.8491 79.2819 61.0501 79.1937 61.2593 79.1322C61.4726 79.0666 61.6941 79.0337 61.9238 79.0337C62.2725 79.0337 62.5904 79.1117 62.8776 79.2676C63.1688 79.4193 63.415 79.6347 63.616 79.9137C63.8211 80.1885 63.979 80.5167 64.0898 80.8982C64.2046 81.2756 64.262 81.6899 64.262 82.1411C64.262 82.6662 64.1882 83.1421 64.0405 83.5687C63.8929 83.9912 63.6918 84.3522 63.4375 84.6516C63.1873 84.9511 62.8919 85.1829 62.5514 85.347C62.211 85.5069 61.8479 85.5869 61.4623 85.5869C61.2982 85.5869 61.1424 85.5705 60.9947 85.5377C60.8511 85.5049 60.7096 85.4598 60.5701 85.4023C60.4347 85.3449 60.2994 85.2752 60.164 85.1931C60.0286 85.107 59.8871 85.0126 59.7394 84.9101V86.3561C59.7394 86.6022 59.7415 86.8237 59.7456 87.0206C59.7538 87.2216 59.764 87.4062 59.7763 87.5744C59.7886 87.7426 59.8051 87.8964 59.8256 88.0359C59.8461 88.1795 59.8686 88.3169 59.8933 88.4482H58.6011V82.4488C58.6011 82.0673 58.597 81.7145 58.5888 81.3904C58.5847 81.0623 58.5724 80.7628 58.5518 80.4921C58.5313 80.2172 58.5006 79.969 58.4595 79.7475C58.4185 79.526 58.3631 79.3291 58.2934 79.1568H59.401ZM66.727 82.3257C66.727 82.6826 66.7701 83.0026 66.8562 83.2856C66.9424 83.5687 67.0634 83.8087 67.2193 84.0056C67.3793 84.1984 67.568 84.346 67.7854 84.4486C68.0028 84.5511 68.2448 84.6024 68.5115 84.6024C68.7576 84.6024 68.9894 84.5511 69.2068 84.4486C69.4242 84.346 69.6129 84.1984 69.7729 84.0056C69.937 83.8087 70.0641 83.5687 70.1544 83.2856C70.2487 83.0026 70.2959 82.6826 70.2959 82.3257C70.2959 81.9647 70.2528 81.6427 70.1667 81.3597C70.0805 81.0725 69.9575 80.8305 69.7975 80.6336C69.6416 80.4326 69.4529 80.2808 69.2314 80.1782C69.014 80.0716 68.774 80.0183 68.5115 80.0183C68.2612 80.0183 68.0274 80.0716 67.81 80.1782C67.5926 80.2808 67.4039 80.4326 67.2439 80.6336C67.0839 80.8305 66.9568 81.0725 66.8624 81.3597C66.7722 81.6427 66.727 81.9647 66.727 82.3257ZM65.5887 82.3257C65.5887 81.7965 65.6687 81.3289 65.8287 80.9228C65.9886 80.5126 66.204 80.168 66.4747 79.889C66.7455 79.606 67.0614 79.3927 67.4223 79.2491C67.7833 79.1055 68.1669 79.0337 68.573 79.0337C68.9955 79.0337 69.3811 79.1055 69.7298 79.2491C70.0826 79.3927 70.3841 79.606 70.6343 79.889C70.8887 80.168 71.0856 80.5126 71.225 80.9228C71.3645 81.3289 71.4343 81.7965 71.4343 82.3257C71.4343 82.8549 71.3543 83.3225 71.1943 83.7287C71.0343 84.1348 70.8189 84.4753 70.5482 84.7501C70.2774 85.0249 69.9616 85.2342 69.6006 85.3777C69.2396 85.5172 68.856 85.5869 68.4499 85.5869C68.0274 85.5869 67.6398 85.5172 67.287 85.3777C66.9383 85.2342 66.6368 85.0249 66.3824 84.7501C66.1322 84.4753 65.9374 84.1348 65.7979 83.7287C65.6584 83.3225 65.5887 82.8549 65.5887 82.3257ZM72.3609 79.3106H73.5916V77.3108H74.7299V79.3106H76.7297V80.2029H74.7299V83.0333C74.7299 83.3492 74.7443 83.6076 74.773 83.8087C74.8058 84.0097 74.853 84.1676 74.9145 84.2825C74.9802 84.3932 75.0622 84.4691 75.1606 84.5101C75.2591 84.5511 75.3781 84.5717 75.5175 84.5717C75.6939 84.5717 75.8929 84.5327 76.1144 84.4547C76.3359 84.3768 76.582 84.2619 76.8528 84.1102V85.0947C76.5697 85.2793 76.299 85.4064 76.0406 85.4762C75.7821 85.55 75.5442 85.5869 75.3268 85.5869C75.0848 85.5869 74.8591 85.5582 74.6499 85.5008C74.4407 85.4475 74.2561 85.3511 74.0961 85.2116C73.9403 85.0721 73.8172 84.8875 73.7269 84.6578C73.6367 84.424 73.5916 84.1286 73.5916 83.7717V80.2029H72.3609V79.3106Z" fill="white"/>
</g>
<g filter="url(#filter1_d_4699_2603)">
<rect x="84.8662" y="72" width="26.8663" height="17.8663" rx="2.05989" fill="#2F82BC"/>
<path d="M93.3484 80.6028C93.2459 80.5413 93.129 80.4777 92.9977 80.4121C92.8664 80.3423 92.7228 80.2787 92.567 80.2213C92.4152 80.1639 92.2511 80.1167 92.0747 80.0798C91.9024 80.0388 91.7219 80.0183 91.5332 80.0183C91.3076 80.0183 91.1169 80.0429 90.961 80.0921C90.8092 80.1413 90.6861 80.2049 90.5918 80.2829C90.5015 80.3567 90.4359 80.4428 90.3949 80.5413C90.3539 80.6356 90.3333 80.7279 90.3333 80.8182C90.3333 80.9248 90.3498 81.0192 90.3826 81.1012C90.4154 81.1833 90.4831 81.2592 90.5856 81.3289C90.6923 81.3986 90.842 81.4663 91.0348 81.532C91.2276 81.5976 91.486 81.6673 91.8101 81.7412C92.0891 81.8027 92.3516 81.8827 92.5977 81.9811C92.8439 82.0755 93.0592 82.1965 93.2438 82.3442C93.4284 82.4919 93.574 82.6703 93.6807 82.8795C93.7874 83.0846 93.8407 83.3308 93.8407 83.6179C93.8407 83.8968 93.7792 84.1553 93.6561 84.3932C93.533 84.6311 93.3648 84.8403 93.1515 85.0208C92.9382 85.1972 92.688 85.3347 92.4008 85.4331C92.1137 85.5357 91.804 85.5869 91.4717 85.5869C91.2215 85.5869 90.9794 85.5685 90.7456 85.5316C90.5159 85.4946 90.2985 85.4434 90.0934 85.3777C89.8924 85.3121 89.7078 85.2362 89.5396 85.1501C89.3714 85.0639 89.2258 84.9737 89.1027 84.8793L89.4104 83.7717C89.5498 83.8948 89.7057 84.0076 89.878 84.1102C90.0544 84.2127 90.2349 84.3009 90.4195 84.3747C90.6041 84.4486 90.7887 84.506 90.9733 84.547C91.162 84.584 91.3384 84.6024 91.5025 84.6024C91.683 84.6024 91.847 84.5799 91.9947 84.5347C92.1465 84.4855 92.2757 84.424 92.3824 84.3501C92.4931 84.2722 92.5793 84.184 92.6408 84.0855C92.7023 83.983 92.7331 83.8784 92.7331 83.7717C92.7331 83.6569 92.7085 83.5502 92.6593 83.4518C92.6141 83.3492 92.528 83.2528 92.4008 83.1626C92.2778 83.0682 92.1055 82.978 91.884 82.8918C91.6665 82.8057 91.3855 82.7195 91.041 82.6334C90.6677 82.5431 90.3621 82.4365 90.1241 82.3134C89.8903 82.1904 89.7057 82.055 89.5703 81.9073C89.4391 81.7596 89.3488 81.5996 89.2996 81.4274C89.2504 81.2551 89.2258 81.0725 89.2258 80.8797C89.2258 80.7854 89.2401 80.6746 89.2688 80.5474C89.3017 80.4203 89.3529 80.289 89.4227 80.1536C89.4965 80.0142 89.5909 79.8788 89.7057 79.7475C89.8247 79.6121 89.9724 79.4932 90.1487 79.3906C90.3251 79.284 90.5323 79.1978 90.7702 79.1322C91.0081 79.0666 91.283 79.0337 91.5948 79.0337C91.8163 79.0337 92.0234 79.0481 92.2162 79.0768C92.4131 79.1055 92.5916 79.1445 92.7516 79.1937C92.9156 79.2389 93.0654 79.2922 93.2007 79.3537C93.3361 79.4111 93.4571 79.4686 93.5638 79.526L93.3484 80.6028ZM96.2503 82.4488C96.2626 82.8098 96.318 83.1236 96.4164 83.3902C96.519 83.6569 96.6564 83.8784 96.8287 84.0548C97.0051 84.2271 97.2102 84.3563 97.444 84.4424C97.6819 84.5286 97.9404 84.5717 98.2193 84.5717C98.6172 84.5717 99.0069 84.5265 99.3884 84.4363C99.7699 84.346 100.149 84.1861 100.527 83.9563L100.65 84.9716C100.432 85.0824 100.219 85.1767 100.01 85.2547C99.8007 85.3326 99.5915 85.3962 99.3823 85.4454C99.1731 85.4946 98.9598 85.5295 98.7423 85.55C98.529 85.5746 98.3034 85.5869 98.0655 85.5869C97.6717 85.5869 97.2963 85.5193 96.9395 85.3839C96.5826 85.2444 96.2688 85.0413 95.998 84.7747C95.7273 84.504 95.5119 84.1696 95.3519 83.7717C95.1919 83.3738 95.1119 82.9123 95.1119 82.3873C95.1119 81.8786 95.1796 81.4191 95.315 81.0089C95.4545 80.5946 95.6514 80.2418 95.9057 79.9506C96.16 79.6552 96.4698 79.4296 96.8348 79.2737C97.1999 79.1137 97.6102 79.0337 98.0655 79.0337C98.4019 79.0337 98.6993 79.0748 98.9577 79.1568C99.2161 79.2348 99.4397 79.3455 99.6284 79.4891C99.8171 79.6286 99.975 79.7926 100.102 79.9813C100.229 80.17 100.33 80.3731 100.404 80.5905C100.482 80.8079 100.537 81.0356 100.57 81.2735C100.603 81.5073 100.619 81.7391 100.619 81.9688V82.2088C100.619 82.3114 100.617 82.3914 100.613 82.4488H96.2503ZM97.9732 79.9567C97.522 79.9567 97.1528 80.09 96.8656 80.3567C96.5785 80.6192 96.3898 81.0294 96.2995 81.5873H99.5115C99.5115 81.3248 99.4725 81.093 99.3946 80.892C99.3208 80.6869 99.2141 80.5146 99.0746 80.3751C98.9393 80.2357 98.7772 80.1311 98.5885 80.0613C98.3998 79.9916 98.1947 79.9567 97.9732 79.9567ZM103.152 82.4488C103.164 82.8098 103.219 83.1236 103.318 83.3902C103.42 83.6569 103.558 83.8784 103.73 84.0548C103.907 84.2271 104.112 84.3563 104.345 84.4424C104.583 84.5286 104.842 84.5717 105.121 84.5717C105.519 84.5717 105.908 84.5265 106.29 84.4363C106.671 84.346 107.051 84.1861 107.428 83.9563L107.551 84.9716C107.334 85.0824 107.121 85.1767 106.911 85.2547C106.702 85.3326 106.493 85.3962 106.284 85.4454C106.075 85.4946 105.861 85.5295 105.644 85.55C105.431 85.5746 105.205 85.5869 104.967 85.5869C104.573 85.5869 104.198 85.5193 103.841 85.3839C103.484 85.2444 103.17 85.0413 102.899 84.7747C102.629 84.504 102.413 84.1696 102.253 83.7717C102.093 83.3738 102.013 82.9123 102.013 82.3873C102.013 81.8786 102.081 81.4191 102.216 81.0089C102.356 80.5946 102.553 80.2418 102.807 79.9506C103.062 79.6552 103.371 79.4296 103.736 79.2737C104.101 79.1137 104.512 79.0337 104.967 79.0337C105.303 79.0337 105.601 79.0748 105.859 79.1568C106.118 79.2348 106.341 79.3455 106.53 79.4891C106.719 79.6286 106.877 79.7926 107.004 79.9813C107.131 80.17 107.231 80.3731 107.305 80.5905C107.383 80.8079 107.439 81.0356 107.471 81.2735C107.504 81.5073 107.521 81.7391 107.521 81.9688V82.2088C107.521 82.3114 107.518 82.3914 107.514 82.4488H103.152ZM104.875 79.9567C104.423 79.9567 104.054 80.09 103.767 80.3567C103.48 80.6192 103.291 81.0294 103.201 81.5873H106.413C106.413 81.3248 106.374 81.093 106.296 80.892C106.222 80.6869 106.116 80.5146 105.976 80.3751C105.841 80.2357 105.679 80.1311 105.49 80.0613C105.301 79.9916 105.096 79.9567 104.875 79.9567Z" fill="white"/>
</g>
<g filter="url(#filter2_d_4699_2603)">
<rect x="115.732" y="72" width="13.8663" height="17.8663" rx="2.05989" fill="#2F82BC"/>
<path d="M124.678 76.4494V77.3416H123.17V84.5409H124.678V85.4331H120.524V84.5409H122.001V77.3416H120.524V76.4494H124.678Z" fill="white"/>
</g>
</g>
<defs>
<filter id="filter0_d_4699_2603" x="45.2535" y="72" width="38.3592" height="23.3592" filterUnits="userSpaceOnUse" color-interpolation-filters="sRGB">
<feFlood flood-opacity="0" result="BackgroundImageFix"/>
<feColorMatrix in="SourceAlpha" type="matrix" values="0 0 0 0 0 0 0 0 0 0 0 0 0 0 0 0 0 0 127 0" result="hardAlpha"/>
<feOffset dy="2.74652"/>
<feGaussianBlur stdDeviation="1.37326"/>
<feComposite in2="hardAlpha" operator="out"/>
<feColorMatrix type="matrix" values="0 0 0 0 0 0 0 0 0 0 0 0 0 0 0 0 0 0 0.25 0"/>
<feBlend mode="normal" in2="BackgroundImageFix" result="effect1_dropShadow_4699_2603"/>
<feBlend mode="normal" in="SourceGraphic" in2="effect1_dropShadow_4699_2603" result="shape"/>
</filter>
<filter id="filter1_d_4699_2603" x="82.1197" y="72" width="32.3592" height="23.3592" filterUnits="userSpaceOnUse" color-interpolation-filters="sRGB">
<feFlood flood-opacity="0" result="BackgroundImageFix"/>
<feColorMatrix in="SourceAlpha" type="matrix" values="0 0 0 0 0 0 0 0 0 0 0 0 0 0 0 0 0 0 127 0" result="hardAlpha"/>
<feOffset dy="2.74652"/>
<feGaussianBlur stdDeviation="1.37326"/>
<feComposite in2="hardAlpha" operator="out"/>
<feColorMatrix type="matrix" values="0 0 0 0 0 0 0 0 0 0 0 0 0 0 0 0 0 0 0.25 0"/>
<feBlend mode="normal" in2="BackgroundImageFix" result="effect1_dropShadow_4699_2603"/>
<feBlend mode="normal" in="SourceGraphic" in2="effect1_dropShadow_4699_2603" result="shape"/>
</filter>
<filter id="filter2_d_4699_2603" x="112.986" y="72" width="19.3592" height="23.3592" filterUnits="userSpaceOnUse" color-interpolation-filters="sRGB">
<feFlood flood-opacity="0" result="BackgroundImageFix"/>
<feColorMatrix in="SourceAlpha" type="matrix" values="0 0 0 0 0 0 0 0 0 0 0 0 0 0 0 0 0 0 127 0" result="hardAlpha"/>
<feOffset dy="2.74652"/>
<feGaussianBlur stdDeviation="1.37326"/>
<feComposite in2="hardAlpha" operator="out"/>
<feColorMatrix type="matrix" values="0 0 0 0 0 0 0 0 0 0 0 0 0 0 0 0 0 0 0.25 0"/>
<feBlend mode="normal" in2="BackgroundImageFix" result="effect1_dropShadow_4699_2603"/>
<feBlend mode="normal" in="SourceGraphic" in2="effect1_dropShadow_4699_2603" result="shape"/>
</filter>
<clipPath id="clip0_4699_2603">
<rect y="118" width="118" height="193" rx="7" transform="rotate(-90 0 118)" fill="white"/>
</clipPath>
</defs>
</svg>
