<svg width="118" height="193" viewBox="0 0 118 193" fill="none" xmlns="http://www.w3.org/2000/svg">
<rect x="6.16907" y="8" width="104.722" height="163.908" fill="white"/>
<path d="M6.26492 0.125275C3.05451 0.125275 0.452043 2.72806 0.451721 5.93847V186.922C0.45207 190.132 3.05451 192.735 6.26492 192.735H112.016C115.227 192.735 117.829 190.132 117.83 186.922V5.93847C117.83 2.72806 115.227 0.1256 112.016 0.125275H6.26492ZM12.0781 16.1697H106.203V169.017H12.0781V16.1697Z" fill="#848484"/>
<path d="M59.1406 186.142C62.6264 186.142 65.4521 183.316 65.4521 179.83C65.4521 176.345 62.6264 173.519 59.1406 173.519C55.6549 173.519 52.8292 176.345 52.8292 179.83C52.8292 183.316 55.6549 186.142 59.1406 186.142Z" fill="white"/>
<path d="M38.3735 27.9784H19.5046V32.898H38.3735V27.9784Z" fill="#848484"/>
<path d="M87.1006 43.4783C87.1211 42.2566 87.2597 41.2916 87.5163 40.5833C87.773 39.875 88.2965 39.0896 89.087 38.2273L91.1043 36.1485C91.9666 35.1732 92.3977 34.1261 92.3977 33.0071C92.3977 31.9292 92.1154 31.0874 91.5508 30.4817C90.9862 29.8658 90.1649 29.5578 89.087 29.5578C88.0399 29.5578 87.1981 29.835 86.5616 30.3893C85.9251 30.9437 85.6069 31.6879 85.6069 32.6221H82.7581C82.7787 30.9591 83.3689 29.6194 84.529 28.6031C85.6993 27.5765 87.2186 27.0632 89.087 27.0632C91.0273 27.0632 92.5363 27.5867 93.6143 28.6339C94.7024 29.6707 95.2465 31.0977 95.2465 32.9147C95.2465 34.7112 94.415 36.4821 92.7519 38.2273L91.0735 39.8904C90.324 40.7219 89.9493 41.9179 89.9493 43.4783H87.1006ZM86.9774 48.3597C86.9774 47.8977 87.116 47.5127 87.3931 47.2048C87.6806 46.8865 88.1015 46.7274 88.6558 46.7274C89.2102 46.7274 89.6311 46.8865 89.9185 47.2048C90.206 47.5127 90.3497 47.8977 90.3497 48.3597C90.3497 48.8216 90.206 49.2066 89.9185 49.5146C89.6311 49.8123 89.2102 49.9612 88.6558 49.9612C88.1015 49.9612 87.6806 49.8123 87.3931 49.5146C87.116 49.2066 86.9774 48.8216 86.9774 48.3597Z" fill="#848484"/>
<path d="M28.1681 36.2561H19.5046V41.1757H28.1681V36.2561Z" fill="#848484"/>
<path d="M53.4421 27.9784H42.1832V32.898H53.4421V27.9784Z" fill="#848484"/>
<path d="M52.9256 36.2561H31.5999V41.1757H52.9256V36.2561Z" fill="#848484"/>
<path d="M75.6255 27.7111H57.6849V32.6307H75.6255V27.7111Z" fill="#848484"/>
<path d="M53.8877 80.5518H42.6288V85.4714H53.8877V80.5518Z" fill="#848484"/>
<path d="M97.7534 80.5518H80.9523V85.4714H97.7534V80.5518Z" fill="#848484"/>
<path d="M76.071 80.2845H58.1304V85.2041H76.071V80.2845Z" fill="#848484"/>
<path d="M64.8122 105.174H76.071V110.093H64.8122V105.174Z" fill="#848484"/>
<path d="M42.6288 104.907H60.5694V109.826H42.6288V104.907Z" fill="#848484"/>
<path d="M53.8877 129.223H42.6288V134.143H53.8877V129.223Z" fill="#848484"/>
<path d="M93.1453 129.223H80.9523V134.143H93.1453V129.223Z" fill="#848484"/>
<path d="M76.071 128.956H58.1304V133.875H76.071V128.956Z" fill="#848484"/>
<path fill-rule="evenodd" clip-rule="evenodd" d="M34.8127 126V140H20.8127V126H34.8127V126ZM34.8127 124H20.8127C19.7127 124 18.8127 124.9 18.8127 126V140C18.8127 141.1 19.7127 142 20.8127 142H34.8127C35.9127 142 36.8127 141.1 36.8127 140V126C36.8127 124.9 35.9127 124 34.8127 124V124V124Z" fill="#848484"/>
<path fill-rule="evenodd" clip-rule="evenodd" d="M34.8127 75V89H20.8127V75H34.8127V75ZM34.8127 73H20.8127C19.7127 73 18.8127 73.9 18.8127 75V89C18.8127 90.1 19.7127 91 20.8127 91H34.8127C35.9127 91 36.8127 90.1 36.8127 89V75C36.8127 73.9 35.9127 73 34.8127 73V73V73Z" fill="#848484"/>
<path fill-rule="evenodd" clip-rule="evenodd" d="M34.8127 98.5H20.8127C19.7127 98.5 18.8127 99.4 18.8127 100.5V114.5C18.8127 115.6 19.7127 116.5 20.8127 116.5H34.8127C35.9127 116.5 36.8127 115.6 36.8127 114.5V100.5C36.8127 99.4 35.9127 98.5 34.8127 98.5V98.5ZM25.8127 112.5L20.8127 107.5L22.2127 106.1L25.8127 109.7L33.4127 102.1L34.8127 103.5L25.8127 112.5V112.5Z" fill="#848484"/>
</svg>
