<svg width="794" height="560" viewBox="0 0 794 560" fill="none" xmlns="http://www.w3.org/2000/svg">
<path d="M792.456 0.956543H1.07764V558.293H792.456V0.956543Z" fill="white" fill-opacity="0.478431"/>
<path d="M285.59 227.42H75.2671V263.372H285.59V227.42Z" fill="#585858" fill-opacity="0.729412"/>
<path d="M373.798 339.826H75.2671V375.778H373.798V339.826Z" fill="#585858" fill-opacity="0.729412"/>
<path d="M373.133 171.217H75.2671V207.169H373.133V171.217Z" fill="#585858" fill-opacity="0.729412"/>
<path d="M353.615 283.623H75.2671V319.575H353.615V283.623Z" fill="#585858" fill-opacity="0.729412"/>
<path opacity="0.681416" d="M564.418 120.466C539.076 120.799 527.122 150.295 536.051 171.631C542.697 191.843 549.733 211.877 553.266 232.722C537.996 208.671 512.686 183.117 481.591 191.267C449.314 199.105 417.222 232.277 424.966 267.632C435.019 295.272 470.408 290.802 493.718 290.65C501.265 291.588 530.834 290.567 521.76 294.905C494.186 301.356 464.994 321.343 465.243 352.614C464.517 385.42 486.637 425.969 522.517 426.688C553.108 422.255 556.214 384.553 565.392 361.451C569.155 351.628 577.929 325.252 576.111 350.323C572.624 381.882 593.268 415.183 626.24 417.96C655.075 422.437 697.441 410.412 701.054 376.396C699.077 343.919 661.617 333.578 642.372 313.341C622.87 299.022 645.12 307.864 657.097 311.05C691.371 322.352 726.334 294.953 731.045 260.541C737.83 235.427 729.379 194.332 697.481 194.322C666.074 197.489 646.424 228.027 618.228 239.595C636.498 217.592 652.676 185.29 635.335 157.885C620.956 134.073 592.316 118.551 564.418 120.466Z" fill="#010101" fill-opacity="0.701961"/>
<path d="M575.804 243.042C544.422 244.399 530.126 288.761 554.258 308.715C576.549 330.997 618.448 312.199 616.946 280.679C617.404 258.768 597.264 240.61 575.804 243.042Z" fill="white" fill-opacity="0.329412"/>
</svg>
