<svg width="560" height="794" viewBox="0 0 560 794" fill="none" xmlns="http://www.w3.org/2000/svg">
<rect width="559.37" height="793.701" fill="white"/>
<path d="M202.156 120.261H36V156.213H202.156V120.261Z" fill="#585858" fill-opacity="0.729412"/>
<path d="M167.251 232.667H36V268.619H167.251V232.667Z" fill="#585858" fill-opacity="0.729412"/>
<path d="M222.297 345.072H36V381.025H222.297V345.072Z" fill="#585858" fill-opacity="0.729412"/>
<path d="M221.883 176.463H36V212.416H221.883V176.463Z" fill="#585858" fill-opacity="0.729412"/>
<path d="M209.702 288.87H36V324.822H209.702V288.87Z" fill="#585858" fill-opacity="0.729412"/>
<path d="M202.265 404.72H36.1084V440.672H202.265V404.72Z" fill="#585858" fill-opacity="0.729412"/>
<path d="M167.36 517.125H36.1084V553.078H167.36V517.125Z" fill="#585858" fill-opacity="0.729412"/>
<path d="M222.406 629.531H36.1084V665.484H222.406V629.531Z" fill="#585858" fill-opacity="0.729412"/>
<path d="M221.991 460.922H36.1084V496.875H221.991V460.922Z" fill="#585858" fill-opacity="0.729412"/>
<path d="M209.811 573.329H36.1084V609.281H209.811V573.329Z" fill="#585858" fill-opacity="0.729412"/>
<path opacity="0.681416" d="M385.914 285.421C367.08 285.655 358.196 306.365 364.832 321.346C369.771 335.538 375 349.605 377.626 364.242C366.277 347.354 347.467 329.411 324.358 335.134C300.369 340.637 276.519 363.929 282.274 388.753C289.745 408.161 316.046 405.023 333.37 404.916C338.979 405.574 360.955 404.857 354.211 407.903C333.718 412.433 312.023 426.467 312.207 448.424C311.668 471.459 328.107 499.93 354.774 500.435C377.508 497.322 379.817 470.85 386.638 454.629C389.434 447.732 395.956 429.212 394.604 446.816C392.013 468.974 407.355 492.357 431.86 494.307C453.291 497.45 484.776 489.007 487.462 465.123C485.993 442.319 458.152 435.058 443.849 420.848C429.355 410.795 445.892 417.003 454.793 419.24C480.265 427.176 506.25 407.937 509.751 383.774C514.793 366.141 508.513 337.286 484.807 337.279C461.465 339.503 446.861 360.945 425.906 369.067C439.484 353.618 451.508 330.937 438.619 311.695C427.933 294.975 406.648 284.076 385.914 285.421Z" fill="#010101" fill-opacity="0.701961"/>
<path d="M394.376 371.487C371.054 372.44 360.429 403.589 378.363 417.6C394.93 433.245 426.069 420.047 424.953 397.914C425.293 382.529 410.325 369.78 394.376 371.487Z" fill="white" fill-opacity="0.329412"/>
</svg>
