<?xml version="1.0" encoding="UTF-8" standalone="no"?>
<!-- Created with Inkscape (http://www.inkscape.org/) -->

<svg
   xmlns:dc="http://purl.org/dc/elements/1.1/"
   xmlns:cc="http://creativecommons.org/ns#"
   xmlns:rdf="http://www.w3.org/1999/02/22-rdf-syntax-ns#"
   xmlns:svg="http://www.w3.org/2000/svg"
   xmlns="http://www.w3.org/2000/svg"
   xmlns:sodipodi="http://sodipodi.sourceforge.net/DTD/sodipodi-0.dtd"
   xmlns:inkscape="http://www.inkscape.org/namespaces/inkscape"
   width="148mm"
   height="210mm"
   viewBox="0 0 524.40945 744.09448"
   id="svg2"
   version="1.1"
   inkscape:version="0.91 r13725"
   sodipodi:docname="Picture Dictionary Page.svg">
  <style>
    /* Default color for standalone viewing - overridden by currentColor when embedded in HTML */
    svg {
      color: #636363;
    }
  </style><defs
     id="defs4" />
  <sodipodi:namedview
     id="base"
     pagecolor="#ffffff"
     bordercolor="#666666"
     borderopacity="1.0"
     inkscape:pageopacity="0.0"
     inkscape:pageshadow="2"
     inkscape:zoom="0.7"
     inkscape:cx="189.95766"
     inkscape:cy="352.4747"
     inkscape:document-units="px"
     inkscape:current-layer="layer1"
     showgrid="false"
     inkscape:window-width="1200"
     inkscape:window-height="1867"
     inkscape:window-x="-8"
     inkscape:window-y="-8"
     inkscape:window-maximized="1" />
  <metadata
     id="metadata7">
    <rdf:RDF>
      <cc:Work
         rdf:about="">
        <dc:format>image/svg+xml</dc:format>
        <dc:type
           rdf:resource="http://purl.org/dc/dcmitype/StillImage" />
        <dc:title />
      </cc:Work>
    </rdf:RDF>
  </metadata>
  <g
     inkscape:label="Layer 1"
     inkscape:groupmode="layer"
     id="layer1"
     transform="translate(0,-308.26772)">
    <rect
       style="opacity:1;fill:#ffffff;fill-opacity:0.47843137;fill-rule:nonzero;stroke:none;stroke-width:25;stroke-linecap:butt;stroke-linejoin:round;stroke-miterlimit:4;stroke-dasharray:none;stroke-dashoffset:0;stroke-opacity:0.47843137"
       id="rect4155"
       width="522.24884"
       height="749.57361"
       x="1.0101523"
       y="308.84952" />
    <rect
       y="341.79523"
       x="90.96463"
       height="33.705379"
       width="332.35645"
       id="rect4146-4"
       style="opacity:1;fill:#585858;fill-opacity:0.72941176;fill-rule:nonzero;stroke:none;stroke-width:25;stroke-linecap:butt;stroke-linejoin:round;stroke-miterlimit:4;stroke-dasharray:none;stroke-dashoffset:0;stroke-opacity:0.47843137" />
    <g
       id="g4264"
       transform="translate(16,0)">
      <g
         transform="matrix(0.8733158,0,0,0.8733158,-4.7445502,18.024015)"
         id="g4161">
        <g
           id="g4142"
           transform="matrix(0.31188412,0,0,0.31188412,86.591142,424.19102)">
          <g transform="translate(0,-20) scale(1.306)"><path style="opacity:0.68141593;fill:#010101;fill-opacity:0.70196078;stroke:none" d="M138.151 193.175c-4.457 16.046 31.239 38.434 45.161 33.909-12.014 26.453-21.986 54.322-30.473 82.069-2.945 9.395-7.04 18.414-13.491 25.941-5.721 6.563-13.145 11.023-21.807 12.292-19.0634 2.573-36.2414-11.683-46.7487-26.062-8.7175-12.046-14.7963-25.785-16.9971-40.542-2.527-16.944.0493-32.856 10.1582-46.995 17.4019-23.993 49.1156-28.22 74.1976-40.612Zm-7.38 24.559c-16.237 6.674-39.1688 12.194-50.2141 27.225-6.7876 9.237-8.9319 19.788-6.9805 32.873 1.6596 11.127 5.9856 21.374 12.8448 30.975 5.979 8.368 17.0318 20.56 28.7468 18.714 11.286-2.025 16.268-16.551 19.07-25.929 6.379-21.353 14.449-42.293 22.661-62.996-8.573-3.345-20.584-13.866-26.128-20.862Z"/><path style="opacity:0.68141593;fill:#010101;fill-opacity:0.70196078;stroke:none" d="M178.526 225.537c13.883 9.198 46.206-17.833 46.205-32.472 21.446 19.6 44.869 37.697 68.636 54.342 8.025 5.704 15.337 12.386 20.502 20.847 4.473 7.469 6.422 15.909 4.951 24.538-3.443 18.926-22.31 30.858-39.232 36.407-14.15 4.569-29.096 6.104-43.81 3.637-16.896-2.832-31.233-10.2-41.556-24.183-17.441-23.964-11.661-55.432-15.696-83.116Zm21.076 14.608c1.33 17.505-.506 41.02 10.376 56.17 6.687 9.309 16.06 14.609 29.107 16.797 11.095 1.86 22.177.912 33.428-2.645 9.806-3.1 24.817-9.844 26.682-21.557 1.561-11.359-10.714-20.585-18.768-26.148-18.336-12.666-35.757-26.811-52.91-41.02-5.831 7.12-19.548 15.292-27.915 18.403Z"/><path style="opacity:0.68141593;fill:#010101;fill-opacity:0.70196078;stroke:none" d="M221.781 197.139c13.037-10.361-2.682-49.456-16.604-53.978 25.267-14.34 49.716-31.025 72.891-48.4841 7.905-5.8697 16.519-10.7592 26.162-13.0563 8.486-1.9469 17.115-1.1917 24.867 2.8732 16.936 9.1233 22.453 30.7542 22.503 48.5622-.028 14.87-3.186 29.558-10.08 42.79-7.915 15.194-19.352 26.553-35.841 32.049-28.181 9.182-56.323-6.039-83.898-10.756Zm20.406-15.531c17.059 4.145 38.856 13.158 56.626 7.49 10.921-3.483 18.858-10.759 24.97-22.492 5.198-9.978 7.721-20.81 7.815-32.609.082-10.285-1.693-26.645-12.257-32.038-10.321-4.9952-22.889 3.828-30.668 9.769-17.712 13.525-36.549 25.722-55.362 37.645 4.97 7.745 8.503 23.316 8.876 32.235Z"/><path style="opacity:0.68141593;fill:#010101;fill-opacity:0.70196078;stroke:none" d="M208.139 147.226c-5.825-15.602-47.864-12.733-56.467-.889-5.83-28.462-14.143-56.8707-23.586-84.3065-3.14-9.3318-5.128-19.0353-4.333-28.9162.771-8.6725 4.155-16.645 10.417-22.7621 13.91-13.28743 36.187-11.85051 53.139-6.39419 14.133 4.62133 27.127 12.16379 37.581 22.80859 12.004 12.2225 19.273 26.6102 19.405 43.9907.024 29.6397-23.149 51.6997-36.156 76.4687Zm-8.465-24.207c9.214-14.943 24.521-32.8884 24.622-51.5406.062-11.4624-4.406-21.2592-13.675-30.6979-7.883-8.0267-17.406-13.7737-28.598-17.5091-9.756-3.256-25.864-6.6233-34.258 1.7565-7.94 8.2722-3.432 22.9519-.186 32.1863 7.39 21.0242 13.169 42.708 18.695 64.2848 8.902-2.333 24.803-.881 33.4 1.52Z"/><path style="opacity:0.68141593;fill:#010101;fill-opacity:0.70196078;stroke:none" d="M156.453 144.775c-16.638.72-26.9 41.587-18.294 53.43-28.871-3.252-58.458-4.124-87.4692-3.621-9.8452.102-19.6883-1.005-28.8398-4.815-8.0098-3.413-14.54632-9.095-18.42906-16.941-8.33863-17.335-.08801-38.078 10.33976-52.514 8.7624-12.013 19.951-22.0404 33.3053-28.6935 15.3338-7.6393 31.2634-10.1063 47.8342-4.8613 28.1958 9.1359 42.0158 37.9918 61.5528 58.0158Zm-25.638.571c-11.364-13.38-23.701-33.484-41.4092-39.344-10.8821-3.601-21.58-2.379-33.4212 3.52-10.0697 5.017-18.4782 12.297-25.4894 21.788-6.1114 8.272-14.2916 22.551-8.9155 33.123 5.4137 10.108 20.7679 10.357 30.5534 10.123 22.2788-.531 44.6873.673 66.9159 2.086.532-9.188 6.826-23.861 11.766-31.296Z"/><path style="opacity:0.68141593;fill:#010101;fill-opacity:0.70196078;stroke:none" d="M221.625 181.587c-.001-22.789-18.474-41.262-41.262-41.262s-41.262 18.473-41.262 41.262c0 22.788 18.474 41.261 41.262 41.261v20c-33.834 0-61.262-27.427-61.262-61.261s27.428-61.262 61.262-61.262 61.261 27.428 61.262 61.262c0 33.834-27.428 61.261-61.262 61.261v-20c22.788 0 41.262-18.473 41.262-41.261Z"/></g>
</g>
        <rect
           y="590.07788"
           x="88.828346"
           height="17.398241"
           width="151.55771"
           id="rect4146"
           style="opacity:1;fill:#585858;fill-opacity:0.72941176;fill-rule:nonzero;stroke:none;stroke-width:25;stroke-linecap:butt;stroke-linejoin:round;stroke-miterlimit:4;stroke-dasharray:none;stroke-dashoffset:0;stroke-opacity:0.47843137" />
        <rect
           style="opacity:1;fill:#585858;fill-opacity:0.72941176;fill-rule:nonzero;stroke:none;stroke-width:25;stroke-linecap:butt;stroke-linejoin:round;stroke-miterlimit:4;stroke-dasharray:none;stroke-dashoffset:0;stroke-opacity:0.47843137"
           id="rect4159"
           width="151.55771"
           height="17.398241"
           x="88.828346"
           y="621.50647" />
      </g>
      <g
         id="g4180"
         transform="matrix(0.8733158,0,0,0.8733158,-4.7445502,231.98638)">
        <g
           id="g4182"
           transform="matrix(0.31188412,0,0,0.31188412,86.591142,424.19102)">
          <g transform="translate(0,-20) scale(1.306)"><path style="opacity:0.68141593;fill:#010101;fill-opacity:0.70196078;stroke:none" d="M138.151 193.175c-4.457 16.046 31.239 38.434 45.161 33.909-12.014 26.453-21.986 54.322-30.473 82.069-2.945 9.395-7.04 18.414-13.491 25.941-5.721 6.563-13.145 11.023-21.807 12.292-19.0634 2.573-36.2414-11.683-46.7487-26.062-8.7175-12.046-14.7963-25.785-16.9971-40.542-2.527-16.944.0493-32.856 10.1582-46.995 17.4019-23.993 49.1156-28.22 74.1976-40.612Zm-7.38 24.559c-16.237 6.674-39.1688 12.194-50.2141 27.225-6.7876 9.237-8.9319 19.788-6.9805 32.873 1.6596 11.127 5.9856 21.374 12.8448 30.975 5.979 8.368 17.0318 20.56 28.7468 18.714 11.286-2.025 16.268-16.551 19.07-25.929 6.379-21.353 14.449-42.293 22.661-62.996-8.573-3.345-20.584-13.866-26.128-20.862Z"/><path style="opacity:0.68141593;fill:#010101;fill-opacity:0.70196078;stroke:none" d="M178.526 225.537c13.883 9.198 46.206-17.833 46.205-32.472 21.446 19.6 44.869 37.697 68.636 54.342 8.025 5.704 15.337 12.386 20.502 20.847 4.473 7.469 6.422 15.909 4.951 24.538-3.443 18.926-22.31 30.858-39.232 36.407-14.15 4.569-29.096 6.104-43.81 3.637-16.896-2.832-31.233-10.2-41.556-24.183-17.441-23.964-11.661-55.432-15.696-83.116Zm21.076 14.608c1.33 17.505-.506 41.02 10.376 56.17 6.687 9.309 16.06 14.609 29.107 16.797 11.095 1.86 22.177.912 33.428-2.645 9.806-3.1 24.817-9.844 26.682-21.557 1.561-11.359-10.714-20.585-18.768-26.148-18.336-12.666-35.757-26.811-52.91-41.02-5.831 7.12-19.548 15.292-27.915 18.403Z"/><path style="opacity:0.68141593;fill:#010101;fill-opacity:0.70196078;stroke:none" d="M221.781 197.139c13.037-10.361-2.682-49.456-16.604-53.978 25.267-14.34 49.716-31.025 72.891-48.4841 7.905-5.8697 16.519-10.7592 26.162-13.0563 8.486-1.9469 17.115-1.1917 24.867 2.8732 16.936 9.1233 22.453 30.7542 22.503 48.5622-.028 14.87-3.186 29.558-10.08 42.79-7.915 15.194-19.352 26.553-35.841 32.049-28.181 9.182-56.323-6.039-83.898-10.756Zm20.406-15.531c17.059 4.145 38.856 13.158 56.626 7.49 10.921-3.483 18.858-10.759 24.97-22.492 5.198-9.978 7.721-20.81 7.815-32.609.082-10.285-1.693-26.645-12.257-32.038-10.321-4.9952-22.889 3.828-30.668 9.769-17.712 13.525-36.549 25.722-55.362 37.645 4.97 7.745 8.503 23.316 8.876 32.235Z"/><path style="opacity:0.68141593;fill:#010101;fill-opacity:0.70196078;stroke:none" d="M208.139 147.226c-5.825-15.602-47.864-12.733-56.467-.889-5.83-28.462-14.143-56.8707-23.586-84.3065-3.14-9.3318-5.128-19.0353-4.333-28.9162.771-8.6725 4.155-16.645 10.417-22.7621 13.91-13.28743 36.187-11.85051 53.139-6.39419 14.133 4.62133 27.127 12.16379 37.581 22.80859 12.004 12.2225 19.273 26.6102 19.405 43.9907.024 29.6397-23.149 51.6997-36.156 76.4687Zm-8.465-24.207c9.214-14.943 24.521-32.8884 24.622-51.5406.062-11.4624-4.406-21.2592-13.675-30.6979-7.883-8.0267-17.406-13.7737-28.598-17.5091-9.756-3.256-25.864-6.6233-34.258 1.7565-7.94 8.2722-3.432 22.9519-.186 32.1863 7.39 21.0242 13.169 42.708 18.695 64.2848 8.902-2.333 24.803-.881 33.4 1.52Z"/><path style="opacity:0.68141593;fill:#010101;fill-opacity:0.70196078;stroke:none" d="M156.453 144.775c-16.638.72-26.9 41.587-18.294 53.43-28.871-3.252-58.458-4.124-87.4692-3.621-9.8452.102-19.6883-1.005-28.8398-4.815-8.0098-3.413-14.54632-9.095-18.42906-16.941-8.33863-17.335-.08801-38.078 10.33976-52.514 8.7624-12.013 19.951-22.0404 33.3053-28.6935 15.3338-7.6393 31.2634-10.1063 47.8342-4.8613 28.1958 9.1359 42.0158 37.9918 61.5528 58.0158Zm-25.638.571c-11.364-13.38-23.701-33.484-41.4092-39.344-10.8821-3.601-21.58-2.379-33.4212 3.52-10.0697 5.017-18.4782 12.297-25.4894 21.788-6.1114 8.272-14.2916 22.551-8.9155 33.123 5.4137 10.108 20.7679 10.357 30.5534 10.123 22.2788-.531 44.6873.673 66.9159 2.086.532-9.188 6.826-23.861 11.766-31.296Z"/><path style="opacity:0.68141593;fill:#010101;fill-opacity:0.70196078;stroke:none" d="M221.625 181.587c-.001-22.789-18.474-41.262-41.262-41.262s-41.262 18.473-41.262 41.262c0 22.788 18.474 41.261 41.262 41.261v20c-33.834 0-61.262-27.427-61.262-61.261s27.428-61.262 61.262-61.262 61.261 27.428 61.262 61.262c0 33.834-27.428 61.261-61.262 61.261v-20c22.788 0 41.262-18.473 41.262-41.261Z"/></g>
</g>
        <rect
           y="590.07788"
           x="88.828346"
           height="17.398241"
           width="151.55771"
           id="rect4188"
           style="opacity:1;fill:#585858;fill-opacity:0.72941176;fill-rule:nonzero;stroke:none;stroke-width:25;stroke-linecap:butt;stroke-linejoin:round;stroke-miterlimit:4;stroke-dasharray:none;stroke-dashoffset:0;stroke-opacity:0.47843137" />
        <rect
           style="opacity:1;fill:#585858;fill-opacity:0.72941176;fill-rule:nonzero;stroke:none;stroke-width:25;stroke-linecap:butt;stroke-linejoin:round;stroke-miterlimit:4;stroke-dasharray:none;stroke-dashoffset:0;stroke-opacity:0.47843137"
           id="rect4190"
           width="151.55771"
           height="17.398241"
           x="88.828346"
           y="621.50647" />
      </g>
      <g
         id="g4204"
         transform="matrix(0.8733158,0,0,0.8733158,-4.7445502,445.94875)">
        <g
           id="g4206"
           transform="matrix(0.31188412,0,0,0.31188412,86.591142,424.19102)">
          <g transform="translate(0,-20) scale(1.306)"><path style="opacity:0.68141593;fill:#010101;fill-opacity:0.70196078;stroke:none" d="M138.151 193.175c-4.457 16.046 31.239 38.434 45.161 33.909-12.014 26.453-21.986 54.322-30.473 82.069-2.945 9.395-7.04 18.414-13.491 25.941-5.721 6.563-13.145 11.023-21.807 12.292-19.0634 2.573-36.2414-11.683-46.7487-26.062-8.7175-12.046-14.7963-25.785-16.9971-40.542-2.527-16.944.0493-32.856 10.1582-46.995 17.4019-23.993 49.1156-28.22 74.1976-40.612Zm-7.38 24.559c-16.237 6.674-39.1688 12.194-50.2141 27.225-6.7876 9.237-8.9319 19.788-6.9805 32.873 1.6596 11.127 5.9856 21.374 12.8448 30.975 5.979 8.368 17.0318 20.56 28.7468 18.714 11.286-2.025 16.268-16.551 19.07-25.929 6.379-21.353 14.449-42.293 22.661-62.996-8.573-3.345-20.584-13.866-26.128-20.862Z"/><path style="opacity:0.68141593;fill:#010101;fill-opacity:0.70196078;stroke:none" d="M178.526 225.537c13.883 9.198 46.206-17.833 46.205-32.472 21.446 19.6 44.869 37.697 68.636 54.342 8.025 5.704 15.337 12.386 20.502 20.847 4.473 7.469 6.422 15.909 4.951 24.538-3.443 18.926-22.31 30.858-39.232 36.407-14.15 4.569-29.096 6.104-43.81 3.637-16.896-2.832-31.233-10.2-41.556-24.183-17.441-23.964-11.661-55.432-15.696-83.116Zm21.076 14.608c1.33 17.505-.506 41.02 10.376 56.17 6.687 9.309 16.06 14.609 29.107 16.797 11.095 1.86 22.177.912 33.428-2.645 9.806-3.1 24.817-9.844 26.682-21.557 1.561-11.359-10.714-20.585-18.768-26.148-18.336-12.666-35.757-26.811-52.91-41.02-5.831 7.12-19.548 15.292-27.915 18.403Z"/><path style="opacity:0.68141593;fill:#010101;fill-opacity:0.70196078;stroke:none" d="M221.781 197.139c13.037-10.361-2.682-49.456-16.604-53.978 25.267-14.34 49.716-31.025 72.891-48.4841 7.905-5.8697 16.519-10.7592 26.162-13.0563 8.486-1.9469 17.115-1.1917 24.867 2.8732 16.936 9.1233 22.453 30.7542 22.503 48.5622-.028 14.87-3.186 29.558-10.08 42.79-7.915 15.194-19.352 26.553-35.841 32.049-28.181 9.182-56.323-6.039-83.898-10.756Zm20.406-15.531c17.059 4.145 38.856 13.158 56.626 7.49 10.921-3.483 18.858-10.759 24.97-22.492 5.198-9.978 7.721-20.81 7.815-32.609.082-10.285-1.693-26.645-12.257-32.038-10.321-4.9952-22.889 3.828-30.668 9.769-17.712 13.525-36.549 25.722-55.362 37.645 4.97 7.745 8.503 23.316 8.876 32.235Z"/><path style="opacity:0.68141593;fill:#010101;fill-opacity:0.70196078;stroke:none" d="M208.139 147.226c-5.825-15.602-47.864-12.733-56.467-.889-5.83-28.462-14.143-56.8707-23.586-84.3065-3.14-9.3318-5.128-19.0353-4.333-28.9162.771-8.6725 4.155-16.645 10.417-22.7621 13.91-13.28743 36.187-11.85051 53.139-6.39419 14.133 4.62133 27.127 12.16379 37.581 22.80859 12.004 12.2225 19.273 26.6102 19.405 43.9907.024 29.6397-23.149 51.6997-36.156 76.4687Zm-8.465-24.207c9.214-14.943 24.521-32.8884 24.622-51.5406.062-11.4624-4.406-21.2592-13.675-30.6979-7.883-8.0267-17.406-13.7737-28.598-17.5091-9.756-3.256-25.864-6.6233-34.258 1.7565-7.94 8.2722-3.432 22.9519-.186 32.1863 7.39 21.0242 13.169 42.708 18.695 64.2848 8.902-2.333 24.803-.881 33.4 1.52Z"/><path style="opacity:0.68141593;fill:#010101;fill-opacity:0.70196078;stroke:none" d="M156.453 144.775c-16.638.72-26.9 41.587-18.294 53.43-28.871-3.252-58.458-4.124-87.4692-3.621-9.8452.102-19.6883-1.005-28.8398-4.815-8.0098-3.413-14.54632-9.095-18.42906-16.941-8.33863-17.335-.08801-38.078 10.33976-52.514 8.7624-12.013 19.951-22.0404 33.3053-28.6935 15.3338-7.6393 31.2634-10.1063 47.8342-4.8613 28.1958 9.1359 42.0158 37.9918 61.5528 58.0158Zm-25.638.571c-11.364-13.38-23.701-33.484-41.4092-39.344-10.8821-3.601-21.58-2.379-33.4212 3.52-10.0697 5.017-18.4782 12.297-25.4894 21.788-6.1114 8.272-14.2916 22.551-8.9155 33.123 5.4137 10.108 20.7679 10.357 30.5534 10.123 22.2788-.531 44.6873.673 66.9159 2.086.532-9.188 6.826-23.861 11.766-31.296Z"/><path style="opacity:0.68141593;fill:#010101;fill-opacity:0.70196078;stroke:none" d="M221.625 181.587c-.001-22.789-18.474-41.262-41.262-41.262s-41.262 18.473-41.262 41.262c0 22.788 18.474 41.261 41.262 41.261v20c-33.834 0-61.262-27.427-61.262-61.261s27.428-61.262 61.262-61.262 61.261 27.428 61.262 61.262c0 33.834-27.428 61.261-61.262 61.261v-20c22.788 0 41.262-18.473 41.262-41.261Z"/></g>
</g>
        <rect
           y="590.07788"
           x="88.828346"
           height="17.398241"
           width="151.55771"
           id="rect4212"
           style="opacity:1;fill:#585858;fill-opacity:0.72941176;fill-rule:nonzero;stroke:none;stroke-width:25;stroke-linecap:butt;stroke-linejoin:round;stroke-miterlimit:4;stroke-dasharray:none;stroke-dashoffset:0;stroke-opacity:0.47843137" />
        <rect
           style="opacity:1;fill:#585858;fill-opacity:0.72941176;fill-rule:nonzero;stroke:none;stroke-width:25;stroke-linecap:butt;stroke-linejoin:round;stroke-miterlimit:4;stroke-dasharray:none;stroke-dashoffset:0;stroke-opacity:0.47843137"
           id="rect4214"
           width="151.55771"
           height="17.398241"
           x="88.828346"
           y="621.50647" />
      </g>
    </g>
    <g
       id="g4284"
       transform="translate(16,0)">
      <g
         id="g4228"
         transform="matrix(0.8733158,0,0,0.8733158,206.68402,13.738301)">
        <g
           transform="matrix(0.31188412,0,0,0.31188412,86.591142,424.19102)"
           id="g4230">
          <g transform="translate(0,-20) scale(1.306)"><path style="opacity:0.68141593;fill:#010101;fill-opacity:0.70196078;stroke:none" d="M138.151 193.175c-4.457 16.046 31.239 38.434 45.161 33.909-12.014 26.453-21.986 54.322-30.473 82.069-2.945 9.395-7.04 18.414-13.491 25.941-5.721 6.563-13.145 11.023-21.807 12.292-19.0634 2.573-36.2414-11.683-46.7487-26.062-8.7175-12.046-14.7963-25.785-16.9971-40.542-2.527-16.944.0493-32.856 10.1582-46.995 17.4019-23.993 49.1156-28.22 74.1976-40.612Zm-7.38 24.559c-16.237 6.674-39.1688 12.194-50.2141 27.225-6.7876 9.237-8.9319 19.788-6.9805 32.873 1.6596 11.127 5.9856 21.374 12.8448 30.975 5.979 8.368 17.0318 20.56 28.7468 18.714 11.286-2.025 16.268-16.551 19.07-25.929 6.379-21.353 14.449-42.293 22.661-62.996-8.573-3.345-20.584-13.866-26.128-20.862Z"/><path style="opacity:0.68141593;fill:#010101;fill-opacity:0.70196078;stroke:none" d="M178.526 225.537c13.883 9.198 46.206-17.833 46.205-32.472 21.446 19.6 44.869 37.697 68.636 54.342 8.025 5.704 15.337 12.386 20.502 20.847 4.473 7.469 6.422 15.909 4.951 24.538-3.443 18.926-22.31 30.858-39.232 36.407-14.15 4.569-29.096 6.104-43.81 3.637-16.896-2.832-31.233-10.2-41.556-24.183-17.441-23.964-11.661-55.432-15.696-83.116Zm21.076 14.608c1.33 17.505-.506 41.02 10.376 56.17 6.687 9.309 16.06 14.609 29.107 16.797 11.095 1.86 22.177.912 33.428-2.645 9.806-3.1 24.817-9.844 26.682-21.557 1.561-11.359-10.714-20.585-18.768-26.148-18.336-12.666-35.757-26.811-52.91-41.02-5.831 7.12-19.548 15.292-27.915 18.403Z"/><path style="opacity:0.68141593;fill:#010101;fill-opacity:0.70196078;stroke:none" d="M221.781 197.139c13.037-10.361-2.682-49.456-16.604-53.978 25.267-14.34 49.716-31.025 72.891-48.4841 7.905-5.8697 16.519-10.7592 26.162-13.0563 8.486-1.9469 17.115-1.1917 24.867 2.8732 16.936 9.1233 22.453 30.7542 22.503 48.5622-.028 14.87-3.186 29.558-10.08 42.79-7.915 15.194-19.352 26.553-35.841 32.049-28.181 9.182-56.323-6.039-83.898-10.756Zm20.406-15.531c17.059 4.145 38.856 13.158 56.626 7.49 10.921-3.483 18.858-10.759 24.97-22.492 5.198-9.978 7.721-20.81 7.815-32.609.082-10.285-1.693-26.645-12.257-32.038-10.321-4.9952-22.889 3.828-30.668 9.769-17.712 13.525-36.549 25.722-55.362 37.645 4.97 7.745 8.503 23.316 8.876 32.235Z"/><path style="opacity:0.68141593;fill:#010101;fill-opacity:0.70196078;stroke:none" d="M208.139 147.226c-5.825-15.602-47.864-12.733-56.467-.889-5.83-28.462-14.143-56.8707-23.586-84.3065-3.14-9.3318-5.128-19.0353-4.333-28.9162.771-8.6725 4.155-16.645 10.417-22.7621 13.91-13.28743 36.187-11.85051 53.139-6.39419 14.133 4.62133 27.127 12.16379 37.581 22.80859 12.004 12.2225 19.273 26.6102 19.405 43.9907.024 29.6397-23.149 51.6997-36.156 76.4687Zm-8.465-24.207c9.214-14.943 24.521-32.8884 24.622-51.5406.062-11.4624-4.406-21.2592-13.675-30.6979-7.883-8.0267-17.406-13.7737-28.598-17.5091-9.756-3.256-25.864-6.6233-34.258 1.7565-7.94 8.2722-3.432 22.9519-.186 32.1863 7.39 21.0242 13.169 42.708 18.695 64.2848 8.902-2.333 24.803-.881 33.4 1.52Z"/><path style="opacity:0.68141593;fill:#010101;fill-opacity:0.70196078;stroke:none" d="M156.453 144.775c-16.638.72-26.9 41.587-18.294 53.43-28.871-3.252-58.458-4.124-87.4692-3.621-9.8452.102-19.6883-1.005-28.8398-4.815-8.0098-3.413-14.54632-9.095-18.42906-16.941-8.33863-17.335-.08801-38.078 10.33976-52.514 8.7624-12.013 19.951-22.0404 33.3053-28.6935 15.3338-7.6393 31.2634-10.1063 47.8342-4.8613 28.1958 9.1359 42.0158 37.9918 61.5528 58.0158Zm-25.638.571c-11.364-13.38-23.701-33.484-41.4092-39.344-10.8821-3.601-21.58-2.379-33.4212 3.52-10.0697 5.017-18.4782 12.297-25.4894 21.788-6.1114 8.272-14.2916 22.551-8.9155 33.123 5.4137 10.108 20.7679 10.357 30.5534 10.123 22.2788-.531 44.6873.673 66.9159 2.086.532-9.188 6.826-23.861 11.766-31.296Z"/><path style="opacity:0.68141593;fill:#010101;fill-opacity:0.70196078;stroke:none" d="M221.625 181.587c-.001-22.789-18.474-41.262-41.262-41.262s-41.262 18.473-41.262 41.262c0 22.788 18.474 41.261 41.262 41.261v20c-33.834 0-61.262-27.427-61.262-61.261s27.428-61.262 61.262-61.262 61.261 27.428 61.262 61.262c0 33.834-27.428 61.261-61.262 61.261v-20c22.788 0 41.262-18.473 41.262-41.261Z"/></g>
</g>
        <rect
           style="opacity:1;fill:#585858;fill-opacity:0.72941176;fill-rule:nonzero;stroke:none;stroke-width:25;stroke-linecap:butt;stroke-linejoin:round;stroke-miterlimit:4;stroke-dasharray:none;stroke-dashoffset:0;stroke-opacity:0.47843137"
           id="rect4236"
           width="151.55771"
           height="17.398241"
           x="88.828346"
           y="590.07788" />
        <rect
           y="621.50647"
           x="88.828346"
           height="17.398241"
           width="151.55771"
           id="rect4238"
           style="opacity:1;fill:#585858;fill-opacity:0.72941176;fill-rule:nonzero;stroke:none;stroke-width:25;stroke-linecap:butt;stroke-linejoin:round;stroke-miterlimit:4;stroke-dasharray:none;stroke-dashoffset:0;stroke-opacity:0.47843137" />
      </g>
      <g
         transform="matrix(0.8733158,0,0,0.8733158,206.68402,227.70067)"
         id="g4240">
        <g
           transform="matrix(0.31188412,0,0,0.31188412,86.591142,424.19102)"
           id="g4242">
          <g transform="translate(0,-20) scale(1.306)"><path style="opacity:0.68141593;fill:#010101;fill-opacity:0.70196078;stroke:none" d="M138.151 193.175c-4.457 16.046 31.239 38.434 45.161 33.909-12.014 26.453-21.986 54.322-30.473 82.069-2.945 9.395-7.04 18.414-13.491 25.941-5.721 6.563-13.145 11.023-21.807 12.292-19.0634 2.573-36.2414-11.683-46.7487-26.062-8.7175-12.046-14.7963-25.785-16.9971-40.542-2.527-16.944.0493-32.856 10.1582-46.995 17.4019-23.993 49.1156-28.22 74.1976-40.612Zm-7.38 24.559c-16.237 6.674-39.1688 12.194-50.2141 27.225-6.7876 9.237-8.9319 19.788-6.9805 32.873 1.6596 11.127 5.9856 21.374 12.8448 30.975 5.979 8.368 17.0318 20.56 28.7468 18.714 11.286-2.025 16.268-16.551 19.07-25.929 6.379-21.353 14.449-42.293 22.661-62.996-8.573-3.345-20.584-13.866-26.128-20.862Z"/><path style="opacity:0.68141593;fill:#010101;fill-opacity:0.70196078;stroke:none" d="M178.526 225.537c13.883 9.198 46.206-17.833 46.205-32.472 21.446 19.6 44.869 37.697 68.636 54.342 8.025 5.704 15.337 12.386 20.502 20.847 4.473 7.469 6.422 15.909 4.951 24.538-3.443 18.926-22.31 30.858-39.232 36.407-14.15 4.569-29.096 6.104-43.81 3.637-16.896-2.832-31.233-10.2-41.556-24.183-17.441-23.964-11.661-55.432-15.696-83.116Zm21.076 14.608c1.33 17.505-.506 41.02 10.376 56.17 6.687 9.309 16.06 14.609 29.107 16.797 11.095 1.86 22.177.912 33.428-2.645 9.806-3.1 24.817-9.844 26.682-21.557 1.561-11.359-10.714-20.585-18.768-26.148-18.336-12.666-35.757-26.811-52.91-41.02-5.831 7.12-19.548 15.292-27.915 18.403Z"/><path style="opacity:0.68141593;fill:#010101;fill-opacity:0.70196078;stroke:none" d="M221.781 197.139c13.037-10.361-2.682-49.456-16.604-53.978 25.267-14.34 49.716-31.025 72.891-48.4841 7.905-5.8697 16.519-10.7592 26.162-13.0563 8.486-1.9469 17.115-1.1917 24.867 2.8732 16.936 9.1233 22.453 30.7542 22.503 48.5622-.028 14.87-3.186 29.558-10.08 42.79-7.915 15.194-19.352 26.553-35.841 32.049-28.181 9.182-56.323-6.039-83.898-10.756Zm20.406-15.531c17.059 4.145 38.856 13.158 56.626 7.49 10.921-3.483 18.858-10.759 24.97-22.492 5.198-9.978 7.721-20.81 7.815-32.609.082-10.285-1.693-26.645-12.257-32.038-10.321-4.9952-22.889 3.828-30.668 9.769-17.712 13.525-36.549 25.722-55.362 37.645 4.97 7.745 8.503 23.316 8.876 32.235Z"/><path style="opacity:0.68141593;fill:#010101;fill-opacity:0.70196078;stroke:none" d="M208.139 147.226c-5.825-15.602-47.864-12.733-56.467-.889-5.83-28.462-14.143-56.8707-23.586-84.3065-3.14-9.3318-5.128-19.0353-4.333-28.9162.771-8.6725 4.155-16.645 10.417-22.7621 13.91-13.28743 36.187-11.85051 53.139-6.39419 14.133 4.62133 27.127 12.16379 37.581 22.80859 12.004 12.2225 19.273 26.6102 19.405 43.9907.024 29.6397-23.149 51.6997-36.156 76.4687Zm-8.465-24.207c9.214-14.943 24.521-32.8884 24.622-51.5406.062-11.4624-4.406-21.2592-13.675-30.6979-7.883-8.0267-17.406-13.7737-28.598-17.5091-9.756-3.256-25.864-6.6233-34.258 1.7565-7.94 8.2722-3.432 22.9519-.186 32.1863 7.39 21.0242 13.169 42.708 18.695 64.2848 8.902-2.333 24.803-.881 33.4 1.52Z"/><path style="opacity:0.68141593;fill:#010101;fill-opacity:0.70196078;stroke:none" d="M156.453 144.775c-16.638.72-26.9 41.587-18.294 53.43-28.871-3.252-58.458-4.124-87.4692-3.621-9.8452.102-19.6883-1.005-28.8398-4.815-8.0098-3.413-14.54632-9.095-18.42906-16.941-8.33863-17.335-.08801-38.078 10.33976-52.514 8.7624-12.013 19.951-22.0404 33.3053-28.6935 15.3338-7.6393 31.2634-10.1063 47.8342-4.8613 28.1958 9.1359 42.0158 37.9918 61.5528 58.0158Zm-25.638.571c-11.364-13.38-23.701-33.484-41.4092-39.344-10.8821-3.601-21.58-2.379-33.4212 3.52-10.0697 5.017-18.4782 12.297-25.4894 21.788-6.1114 8.272-14.2916 22.551-8.9155 33.123 5.4137 10.108 20.7679 10.357 30.5534 10.123 22.2788-.531 44.6873.673 66.9159 2.086.532-9.188 6.826-23.861 11.766-31.296Z"/><path style="opacity:0.68141593;fill:#010101;fill-opacity:0.70196078;stroke:none" d="M221.625 181.587c-.001-22.789-18.474-41.262-41.262-41.262s-41.262 18.473-41.262 41.262c0 22.788 18.474 41.261 41.262 41.261v20c-33.834 0-61.262-27.427-61.262-61.261s27.428-61.262 61.262-61.262 61.261 27.428 61.262 61.262c0 33.834-27.428 61.261-61.262 61.261v-20c22.788 0 41.262-18.473 41.262-41.261Z"/></g>
</g>
        <rect
           style="opacity:1;fill:#585858;fill-opacity:0.72941176;fill-rule:nonzero;stroke:none;stroke-width:25;stroke-linecap:butt;stroke-linejoin:round;stroke-miterlimit:4;stroke-dasharray:none;stroke-dashoffset:0;stroke-opacity:0.47843137"
           id="rect4248"
           width="151.55771"
           height="17.398241"
           x="88.828346"
           y="590.07788" />
        <rect
           y="621.50647"
           x="88.828346"
           height="17.398241"
           width="151.55771"
           id="rect4250"
           style="opacity:1;fill:#585858;fill-opacity:0.72941176;fill-rule:nonzero;stroke:none;stroke-width:25;stroke-linecap:butt;stroke-linejoin:round;stroke-miterlimit:4;stroke-dasharray:none;stroke-dashoffset:0;stroke-opacity:0.47843137" />
      </g>
      <g
         transform="matrix(0.8733158,0,0,0.8733158,206.68402,441.66304)"
         id="g4252">
        <g
           transform="matrix(0.31188412,0,0,0.31188412,86.591142,424.19102)"
           id="g4254">
          <g transform="translate(0,-20) scale(1.306)"><path style="opacity:0.68141593;fill:#010101;fill-opacity:0.70196078;stroke:none" d="M138.151 193.175c-4.457 16.046 31.239 38.434 45.161 33.909-12.014 26.453-21.986 54.322-30.473 82.069-2.945 9.395-7.04 18.414-13.491 25.941-5.721 6.563-13.145 11.023-21.807 12.292-19.0634 2.573-36.2414-11.683-46.7487-26.062-8.7175-12.046-14.7963-25.785-16.9971-40.542-2.527-16.944.0493-32.856 10.1582-46.995 17.4019-23.993 49.1156-28.22 74.1976-40.612Zm-7.38 24.559c-16.237 6.674-39.1688 12.194-50.2141 27.225-6.7876 9.237-8.9319 19.788-6.9805 32.873 1.6596 11.127 5.9856 21.374 12.8448 30.975 5.979 8.368 17.0318 20.56 28.7468 18.714 11.286-2.025 16.268-16.551 19.07-25.929 6.379-21.353 14.449-42.293 22.661-62.996-8.573-3.345-20.584-13.866-26.128-20.862Z"/><path style="opacity:0.68141593;fill:#010101;fill-opacity:0.70196078;stroke:none" d="M178.526 225.537c13.883 9.198 46.206-17.833 46.205-32.472 21.446 19.6 44.869 37.697 68.636 54.342 8.025 5.704 15.337 12.386 20.502 20.847 4.473 7.469 6.422 15.909 4.951 24.538-3.443 18.926-22.31 30.858-39.232 36.407-14.15 4.569-29.096 6.104-43.81 3.637-16.896-2.832-31.233-10.2-41.556-24.183-17.441-23.964-11.661-55.432-15.696-83.116Zm21.076 14.608c1.33 17.505-.506 41.02 10.376 56.17 6.687 9.309 16.06 14.609 29.107 16.797 11.095 1.86 22.177.912 33.428-2.645 9.806-3.1 24.817-9.844 26.682-21.557 1.561-11.359-10.714-20.585-18.768-26.148-18.336-12.666-35.757-26.811-52.91-41.02-5.831 7.12-19.548 15.292-27.915 18.403Z"/><path style="opacity:0.68141593;fill:#010101;fill-opacity:0.70196078;stroke:none" d="M221.781 197.139c13.037-10.361-2.682-49.456-16.604-53.978 25.267-14.34 49.716-31.025 72.891-48.4841 7.905-5.8697 16.519-10.7592 26.162-13.0563 8.486-1.9469 17.115-1.1917 24.867 2.8732 16.936 9.1233 22.453 30.7542 22.503 48.5622-.028 14.87-3.186 29.558-10.08 42.79-7.915 15.194-19.352 26.553-35.841 32.049-28.181 9.182-56.323-6.039-83.898-10.756Zm20.406-15.531c17.059 4.145 38.856 13.158 56.626 7.49 10.921-3.483 18.858-10.759 24.97-22.492 5.198-9.978 7.721-20.81 7.815-32.609.082-10.285-1.693-26.645-12.257-32.038-10.321-4.9952-22.889 3.828-30.668 9.769-17.712 13.525-36.549 25.722-55.362 37.645 4.97 7.745 8.503 23.316 8.876 32.235Z"/><path style="opacity:0.68141593;fill:#010101;fill-opacity:0.70196078;stroke:none" d="M208.139 147.226c-5.825-15.602-47.864-12.733-56.467-.889-5.83-28.462-14.143-56.8707-23.586-84.3065-3.14-9.3318-5.128-19.0353-4.333-28.9162.771-8.6725 4.155-16.645 10.417-22.7621 13.91-13.28743 36.187-11.85051 53.139-6.39419 14.133 4.62133 27.127 12.16379 37.581 22.80859 12.004 12.2225 19.273 26.6102 19.405 43.9907.024 29.6397-23.149 51.6997-36.156 76.4687Zm-8.465-24.207c9.214-14.943 24.521-32.8884 24.622-51.5406.062-11.4624-4.406-21.2592-13.675-30.6979-7.883-8.0267-17.406-13.7737-28.598-17.5091-9.756-3.256-25.864-6.6233-34.258 1.7565-7.94 8.2722-3.432 22.9519-.186 32.1863 7.39 21.0242 13.169 42.708 18.695 64.2848 8.902-2.333 24.803-.881 33.4 1.52Z"/><path style="opacity:0.68141593;fill:#010101;fill-opacity:0.70196078;stroke:none" d="M156.453 144.775c-16.638.72-26.9 41.587-18.294 53.43-28.871-3.252-58.458-4.124-87.4692-3.621-9.8452.102-19.6883-1.005-28.8398-4.815-8.0098-3.413-14.54632-9.095-18.42906-16.941-8.33863-17.335-.08801-38.078 10.33976-52.514 8.7624-12.013 19.951-22.0404 33.3053-28.6935 15.3338-7.6393 31.2634-10.1063 47.8342-4.8613 28.1958 9.1359 42.0158 37.9918 61.5528 58.0158Zm-25.638.571c-11.364-13.38-23.701-33.484-41.4092-39.344-10.8821-3.601-21.58-2.379-33.4212 3.52-10.0697 5.017-18.4782 12.297-25.4894 21.788-6.1114 8.272-14.2916 22.551-8.9155 33.123 5.4137 10.108 20.7679 10.357 30.5534 10.123 22.2788-.531 44.6873.673 66.9159 2.086.532-9.188 6.826-23.861 11.766-31.296Z"/><path style="opacity:0.68141593;fill:#010101;fill-opacity:0.70196078;stroke:none" d="M221.625 181.587c-.001-22.789-18.474-41.262-41.262-41.262s-41.262 18.473-41.262 41.262c0 22.788 18.474 41.261 41.262 41.261v20c-33.834 0-61.262-27.427-61.262-61.261s27.428-61.262 61.262-61.262 61.261 27.428 61.262 61.262c0 33.834-27.428 61.261-61.262 61.261v-20c22.788 0 41.262-18.473 41.262-41.261Z"/></g>
</g>
        <rect
           style="opacity:1;fill:#585858;fill-opacity:0.72941176;fill-rule:nonzero;stroke:none;stroke-width:25;stroke-linecap:butt;stroke-linejoin:round;stroke-miterlimit:4;stroke-dasharray:none;stroke-dashoffset:0;stroke-opacity:0.47843137"
           id="rect4260"
           width="151.55771"
           height="17.398241"
           x="88.828346"
           y="590.07788" />
        <rect
           y="621.50647"
           x="88.828346"
           height="17.398241"
           width="151.55771"
           id="rect4262"
           style="opacity:1;fill:#585858;fill-opacity:0.72941176;fill-rule:nonzero;stroke:none;stroke-width:25;stroke-linecap:butt;stroke-linejoin:round;stroke-miterlimit:4;stroke-dasharray:none;stroke-dashoffset:0;stroke-opacity:0.47843137" />
      </g>
    </g>
  </g>
</svg>
