<?xml version="1.0" encoding="UTF-8" standalone="no"?>
<!-- Created with Inkscape (http://www.inkscape.org/) -->

<svg
   xmlns:dc="http://purl.org/dc/elements/1.1/"
   xmlns:cc="http://creativecommons.org/ns#"
   xmlns:rdf="http://www.w3.org/1999/02/22-rdf-syntax-ns#"
   xmlns:svg="http://www.w3.org/2000/svg"
   xmlns="http://www.w3.org/2000/svg"
   xmlns:sodipodi="http://sodipodi.sourceforge.net/DTD/sodipodi-0.dtd"
   xmlns:inkscape="http://www.inkscape.org/namespaces/inkscape"
   version="1.1"
   width="1.8919227cm"
   height="2.1251822cm"
   id="svg2"
   xml:space="preserve"
   inkscape:version="0.91 r13725"
   sodipodi:docname="title-page.svg"
   inkscape:export-filename="X:\dev\bloom2\src\BloomExe\Resources\SIL_Logo_2014Small1.png"
   inkscape:export-xdpi="19.940001"
   inkscape:export-ydpi="19.940001"><sodipodi:namedview
     pagecolor="#ffffff"
     bordercolor="#666666"
     borderopacity="1"
     objecttolerance="10"
     gridtolerance="10"
     guidetolerance="10"
     inkscape:pageopacity="0"
     inkscape:pageshadow="2"
     inkscape:window-width="1920"
     inkscape:window-height="1147"
     id="namedview22"
     showgrid="false"
     inkscape:zoom="5.2448084"
     inkscape:cx="-48.740578"
     inkscape:cy="-2.1565122"
     inkscape:window-x="-8"
     inkscape:window-y="-8"
     inkscape:window-maximized="1"
     inkscape:current-layer="g24"
     units="cm"
     fit-margin-top="0"
     fit-margin-left="0"
     fit-margin-right="0"
     fit-margin-bottom="0" /><metadata
     id="metadata8"><rdf:RDF><cc:Work
         rdf:about=""><dc:format>image/svg+xml</dc:format><dc:type
           rdf:resource="http://purl.org/dc/dcmitype/StillImage" /><dc:title></dc:title></cc:Work></rdf:RDF></metadata><defs
     id="defs6"><clipPath
       id="clipPath18"><path
         d="M 0,2879.78 0,0 l 2563.7,0 0,2879.78 -2563.7,0 z"
         inkscape:connector-curvature="0"
         id="path20" /></clipPath><clipPath
       id="clipPath28"><path
         d="M 0.00390625,2879.78 2563.7,2879.78 2563.7,0 0.00390625,0 l 0,2879.78 z"
         inkscape:connector-curvature="0"
         id="path30" /></clipPath></defs><g
     transform="matrix(1.25,0,0,-1.25,-106.77274,54.797007)"
     id="g10"><g
       id="g24"
       transform="scale(0.1,0.1)"><g
         id="g26"
         clip-path="url(#clipPath28)"
         transform="matrix(0.20918745,0,0,0.20918745,854.1811,-164.03778)"
         inkscape:export-xdpi="600.16638"
         inkscape:export-ydpi="600.16638"><path
           style="fill:#000000;fill-opacity:1;fill-rule:nonzero;stroke:none"
           id="path32"
           inkscape:connector-curvature="0"
           d="m 2563.7,2879.79 -2563.69609375,0 0,-1943.579 L 169.273,808.98 0.00390625,715.5 0.00390625,0 2563.7,0 l 0,715.5 -136.36,77.488 136.36,143.223" /><path
           style="fill:#ffffff;fill-opacity:1;fill-rule:nonzero;stroke:none"
           id="path34"
           inkscape:connector-curvature="0"
           d="m 1242.9,715.488 220.602,0 0,1118.4 -220.602,0 0,-1118.4 z" /><path
           style="fill:#ffffff;fill-opacity:1;fill-rule:nonzero;stroke:none"
           id="path36"
           inkscape:connector-curvature="0"
           d="m 862.914,1366.47 c -120.031,72.25 -158.012,98.85 -158.012,177.22 0,50.28 37.672,104 143.403,104 57.898,0 101.699,-17.5 132.808,-34.61 l 39.067,207.35 c -40.817,18.06 -154.457,44.76 -222.778,44.76 -172.718,0 -347,-102.41 -347,-331.2 0,-67.1 27.09,-196.19 208.602,-306.79 96.699,-62.77 146.879,-99.7 144.891,-192.03 -0.961,-45.061 -30.04,-98.779 -163.09,-98.779 l -640.80890625,-0.469 0,-216.492 L 700.293,719.691 c 216.93,0.489 362.697,133.7 362.697,331.499 0,128.6 -67.314,234.67 -200.076,315.28" /><path
           style="fill:#ffffff;fill-opacity:1;fill-rule:nonzero;stroke:none"
           id="path38"
           inkscape:connector-curvature="0"
           d="m 2563.7,936.25 -636.11,0.559 0,897.881 -235.19,-0.09 0,-1119.112 871.3,0" /><path
           style="fill:#1064a7;fill-opacity:1;fill-rule:nonzero;stroke:none"
           id="path42"
           inkscape:connector-curvature="0"
           d="m 0.03125,713.051 7.73047,0 0,6.37891 -7.73047,0 0,-6.37891 z" /><g
           transform="scale(1,-1)"
           style="font-style:normal;font-weight:normal;font-size:579.17352295px;line-height:125%;font-family:Sans;letter-spacing:0px;word-spacing:0px;fill:#ffffff;fill-opacity:1;stroke:none"
           id="text3014"><path
             d="m 2308.5671,-256.56193 -52.6573,0 0,129.96054 -19.598,0 0,-129.96054 -52.6573,0 0,-17.42046 124.9126,0 0,17.42046 z"
             style="font-size:202.71073914px"
             id="path4183"
             inkscape:connector-curvature="0" /><path
             d="m 2459.8083,-126.60139 -19.598,0 0,-126.99115 -40.9776,86.40941 -11.6797,0 -40.6807,-86.40941 0,126.99115 -18.3113,0 0,-147.381 26.7246,0 39.295,82.0543 38.0083,-82.0543 27.2194,0 0,147.381 z"
             style="font-size:202.71073914px"
             id="path4185"
             inkscape:connector-curvature="0" /></g><flowRoot
           xml:space="preserve"
           id="flowRoot4149"
           style="font-style:normal;font-weight:normal;font-size:11.25px;line-height:125%;font-family:Sans;letter-spacing:0px;word-spacing:0px;fill:#000000;fill-opacity:1;stroke:#000000;stroke-width:1px;stroke-linecap:butt;stroke-linejoin:miter;stroke-opacity:1"
           transform="matrix(8,0,0,-8,0,2879.8)"><flowRegion
             id="flowRegion4151"><rect
               id="rect4153"
               width="327.88303"
               height="47.456753"
               x="4.3142505"
               y="398.80325"
               style="fill:#000000;stroke:#000000" /></flowRegion><flowPara
             id="flowPara4155">Papua New Guinea</flowPara></flowRoot></g><g
         transform="scale(1,-1)"
         style="font-style:italic;font-variant:normal;font-weight:normal;font-stretch:normal;font-size:142.64187622px;line-height:125%;font-family:Arial;-inkscape-font-specification:'Arial, Italic';text-align:start;letter-spacing:0px;word-spacing:0px;writing-mode:lr-tb;text-anchor:start;fill:#000000;fill-opacity:1;stroke:none;stroke-width:1px;stroke-linecap:butt;stroke-linejoin:miter;stroke-opacity:1"
         id="text4167" /></g></g></svg>