<?xml version="1.0" encoding="UTF-8"?>
<svg xmlns="http://www.w3.org/2000/svg" xmlns:xlink="http://www.w3.org/1999/xlink" width="458.88pt" height="96.19pt" viewBox="0 0 458.88 96.19" version="1.1">
<defs>
<clipPath id="clip1">
  <path d="M 445 17 L 458.878906 17 L 458.878906 36 L 445 36 Z M 445 17 "/>
</clipPath>
<clipPath id="clip2">
  <path d="M 0 18 L 18 18 L 18 96.191406 L 0 96.191406 Z M 0 18 "/>
</clipPath>
<clipPath id="clip3">
  <path d="M 31 0 L 53 0 L 53 96.191406 L 31 96.191406 Z M 31 0 "/>
</clipPath>
</defs>
<g id="surface1">
<path style=" stroke:none;fill-rule:nonzero;fill:rgb(9.399414%,16.899109%,28.199768%);fill-opacity:1;" d="M 317.78125 33.140625 L 318.941406 30.539063 C 320.382813 31.699219 322.675781 32.523438 324.886719 32.523438 C 327.695313 32.523438 328.882813 31.519531 328.882813 30.179688 C 328.882813 26.289063 318.167969 28.839844 318.167969 22.144531 C 318.167969 19.234375 320.484375 16.761719 325.429688 16.761719 C 327.59375 16.761719 329.859375 17.328125 331.429688 18.359375 L 330.375 20.960938 C 328.753906 20.007813 326.976563 19.542969 325.402344 19.542969 C 322.621094 19.542969 321.488281 20.625 321.488281 21.988281 C 321.488281 25.828125 332.179688 23.328125 332.179688 29.945313 C 332.179688 32.832031 329.835938 35.304688 324.886719 35.304688 C 322.082031 35.304688 319.273438 34.429688 317.78125 33.140625 "/>
<path style=" stroke:none;fill-rule:nonzero;fill:rgb(9.399414%,16.899109%,28.199768%);fill-opacity:1;" d="M 339.15625 19.851563 L 333.179688 19.851563 L 333.179688 17.019531 L 348.476563 17.019531 L 348.476563 19.851563 L 342.503906 19.851563 L 342.503906 35.046875 L 339.15625 35.046875 "/>
<path style=" stroke:none;fill-rule:nonzero;fill:rgb(9.399414%,16.899109%,28.199768%);fill-opacity:1;" d="M 364.523438 32.238281 L 364.523438 35.046875 L 351 35.046875 L 351 17.019531 L 364.160156 17.019531 L 364.160156 19.824219 L 354.347656 19.824219 L 354.347656 24.511719 L 363.054688 24.511719 L 363.054688 27.269531 L 354.347656 27.269531 L 354.347656 32.238281 "/>
<path style=" stroke:none;fill-rule:nonzero;fill:rgb(9.399414%,16.899109%,28.199768%);fill-opacity:1;" d="M 375.519531 19.851563 L 371.605469 19.851563 L 371.605469 27.039063 L 375.519531 27.039063 C 378.453125 27.039063 379.972656 25.699219 379.972656 23.433594 C 379.972656 21.164063 378.453125 19.851563 375.519531 19.851563 M 380.050781 35.046875 L 376.367188 29.765625 C 376.136719 29.792969 375.902344 29.792969 375.671875 29.792969 L 371.605469 29.792969 L 371.605469 35.046875 L 368.253906 35.046875 L 368.253906 17.019531 L 375.671875 17.019531 C 380.410156 17.019531 383.347656 19.441406 383.347656 23.433594 C 383.347656 26.164063 381.953125 28.171875 379.507813 29.125 L 383.65625 35.046875 "/>
<path style=" stroke:none;fill-rule:nonzero;fill:rgb(9.399414%,16.899109%,28.199768%);fill-opacity:1;" d="M 387.082031 35.046875 L 390.429688 35.046875 L 390.429688 17.019531 L 387.082031 17.019531 Z M 387.082031 35.046875 "/>
<path style=" stroke:none;fill-rule:nonzero;fill:rgb(9.399414%,16.899109%,28.199768%);fill-opacity:1;" d="M 410.050781 26.03125 C 410.050781 22.351563 407.347656 19.699219 403.714844 19.699219 C 400.085938 19.699219 397.382813 22.351563 397.382813 26.03125 C 397.382813 29.714844 400.085938 32.367188 403.714844 32.367188 C 407.347656 32.367188 410.050781 29.714844 410.050781 26.03125 M 394.007813 26.03125 C 394.007813 20.703125 398.128906 16.761719 403.714844 16.761719 C 409.304688 16.761719 413.425781 20.675781 413.425781 26.03125 C 413.425781 31.390625 409.304688 35.304688 403.714844 35.304688 C 398.128906 35.304688 394.007813 31.363281 394.007813 26.03125 "/>
<path style=" stroke:none;fill-rule:nonzero;fill:rgb(9.399414%,16.899109%,28.199768%);fill-opacity:1;" d="M 431.8125 32.214844 C 435.828125 32.214844 438.429688 29.765625 438.429688 26.03125 C 438.429688 22.296875 435.828125 19.851563 431.8125 19.851563 L 427.433594 19.851563 L 427.433594 32.214844 Z M 424.085938 17.019531 L 431.964844 17.019531 C 437.8125 17.019531 441.804688 20.625 441.804688 26.03125 C 441.804688 31.441406 437.8125 35.046875 431.964844 35.046875 L 424.085938 35.046875 "/>
<g clip-path="url(#clip1)" clip-rule="nonzero">
<path style=" stroke:none;fill-rule:nonzero;fill:rgb(9.399414%,16.899109%,28.199768%);fill-opacity:1;" d="M 458.878906 32.238281 L 458.878906 35.046875 L 445.355469 35.046875 L 445.355469 17.019531 L 458.515625 17.019531 L 458.515625 19.824219 L 448.703125 19.824219 L 448.703125 24.511719 L 457.410156 24.511719 L 457.410156 27.269531 L 448.703125 27.269531 L 448.703125 32.238281 "/>
</g>
<path style=" stroke:none;fill-rule:nonzero;fill:rgb(9.399414%,16.899109%,28.199768%);fill-opacity:1;" d="M 270.9375 61.675781 L 270.9375 64.480469 L 257.417969 64.480469 L 257.417969 46.453125 L 270.578125 46.453125 L 270.578125 49.261719 L 260.765625 49.261719 L 260.765625 53.949219 L 269.472656 53.949219 L 269.472656 56.703125 L 260.765625 56.703125 L 260.765625 61.675781 "/>
<path style=" stroke:none;fill-rule:nonzero;fill:rgb(9.399414%,16.899109%,28.199768%);fill-opacity:1;" d="M 282.554688 61.648438 C 286.570313 61.648438 289.171875 59.203125 289.171875 55.46875 C 289.171875 51.734375 286.570313 49.289063 282.554688 49.289063 L 278.175781 49.289063 L 278.175781 61.648438 Z M 274.828125 46.453125 L 282.707031 46.453125 C 288.554688 46.453125 292.546875 50.058594 292.546875 55.46875 C 292.546875 60.875 288.554688 64.480469 282.707031 64.480469 L 274.828125 64.480469 "/>
<path style=" stroke:none;fill-rule:nonzero;fill:rgb(9.399414%,16.899109%,28.199768%);fill-opacity:1;" d="M 296.097656 56.628906 L 296.097656 46.453125 L 299.445313 46.453125 L 299.445313 56.496094 C 299.445313 60.207031 301.121094 61.804688 304.03125 61.804688 C 306.941406 61.804688 308.589844 60.207031 308.589844 56.496094 L 308.589844 46.453125 L 311.882813 46.453125 L 311.882813 56.628906 C 311.882813 61.878906 308.921875 64.738281 304.003906 64.738281 C 299.0625 64.738281 296.097656 61.878906 296.097656 56.628906 "/>
<path style=" stroke:none;fill-rule:nonzero;fill:rgb(9.399414%,16.899109%,28.199768%);fill-opacity:1;" d="M 315.414063 55.46875 C 315.414063 50.085938 319.53125 46.195313 325.070313 46.195313 C 328.007813 46.195313 330.53125 47.253906 332.203125 49.210938 L 330.039063 51.246094 C 328.726563 49.828125 327.105469 49.132813 325.226563 49.132813 C 321.488281 49.132813 318.785156 51.761719 318.785156 55.46875 C 318.785156 59.175781 321.488281 61.804688 325.226563 61.804688 C 327.105469 61.804688 328.726563 61.109375 330.039063 59.664063 L 332.203125 61.726563 C 330.53125 63.683594 328.007813 64.738281 325.046875 64.738281 C 319.53125 64.738281 315.414063 60.851563 315.414063 55.46875 "/>
<path style=" stroke:none;fill-rule:nonzero;fill:rgb(9.399414%,16.899109%,28.199768%);fill-opacity:1;" d="M 346.160156 57.683594 L 342.761719 49.800781 L 339.390625 57.683594 Z M 347.265625 60.308594 L 338.257813 60.308594 L 336.476563 64.480469 L 333.027344 64.480469 L 341.140625 46.453125 L 344.433594 46.453125 L 352.574219 64.480469 L 349.070313 64.480469 "/>
<path style=" stroke:none;fill-rule:nonzero;fill:rgb(9.399414%,16.899109%,28.199768%);fill-opacity:1;" d="M 353.730469 55.46875 C 353.730469 50.085938 357.851563 46.195313 363.390625 46.195313 C 366.324219 46.195313 368.847656 47.253906 370.523438 49.210938 L 368.359375 51.246094 C 367.046875 49.828125 365.421875 49.132813 363.542969 49.132813 C 359.808594 49.132813 357.105469 51.761719 357.105469 55.46875 C 357.105469 59.175781 359.808594 61.804688 363.542969 61.804688 C 365.421875 61.804688 367.046875 61.109375 368.359375 59.664063 L 370.523438 61.726563 C 368.847656 63.683594 366.324219 64.738281 363.363281 64.738281 C 357.851563 64.738281 353.730469 60.851563 353.730469 55.46875 "/>
<path style=" stroke:none;fill-rule:nonzero;fill:rgb(9.399414%,16.899109%,28.199768%);fill-opacity:1;" d="M 373.894531 64.480469 L 377.242188 64.480469 L 377.242188 46.453125 L 373.894531 46.453125 Z M 373.894531 64.480469 "/>
<path style=" stroke:none;fill-rule:nonzero;fill:rgb(9.399414%,16.899109%,28.199768%);fill-opacity:1;" d="M 392 41.460938 L 395.785156 41.460938 L 391.304688 44.988281 L 388.523438 44.988281 Z M 397.019531 55.46875 C 397.019531 51.785156 394.316406 49.132813 390.6875 49.132813 C 387.054688 49.132813 384.351563 51.785156 384.351563 55.46875 C 384.351563 59.148438 387.054688 61.804688 390.6875 61.804688 C 394.316406 61.804688 397.019531 59.148438 397.019531 55.46875 M 380.976563 55.46875 C 380.976563 50.136719 385.097656 46.195313 390.6875 46.195313 C 396.273438 46.195313 400.394531 50.113281 400.394531 55.46875 C 400.394531 60.824219 396.273438 64.738281 390.6875 64.738281 C 385.097656 64.738281 380.976563 60.800781 380.976563 55.46875 "/>
<path style=" stroke:none;fill-rule:nonzero;fill:rgb(9.399414%,16.899109%,28.199768%);fill-opacity:1;" d="M 420.09375 46.453125 L 420.09375 64.480469 L 417.339844 64.480469 L 407.398438 52.273438 L 407.398438 64.480469 L 404.074219 64.480469 L 404.074219 46.453125 L 406.832031 46.453125 L 416.773438 58.660156 L 416.773438 46.453125 "/>
<g clip-path="url(#clip2)" clip-rule="nonzero">
<path style=" stroke:none;fill-rule:nonzero;fill:rgb(11.764526%,55.293274%,75.68512%);fill-opacity:1;" d="M 0 29.460938 L 0.0234375 96.191406 L 17.132813 85.164063 L 17.132813 18.441406 Z M 0 29.460938 "/>
</g>
<path style=" stroke:none;fill-rule:nonzero;fill:rgb(11.764526%,55.293274%,75.68512%);fill-opacity:1;" d="M 17.132813 84.785156 L 17.132813 18.253906 L 0 29.648438 "/>
<g clip-path="url(#clip3)" clip-rule="nonzero">
<path style=" stroke:none;fill-rule:nonzero;fill:rgb(11.764526%,55.293274%,75.68512%);fill-opacity:1;" d="M 31.402344 14.25 L 31.386719 96.191406 L 52.296875 81.933594 L 52.296875 0.00390625 Z M 31.402344 14.25 "/>
</g>
<path style=" stroke:none;fill-rule:nonzero;fill:rgb(5.499268%,21.199036%,33.299255%);fill-opacity:1;" d="M 77.613281 31.789063 L 79.988281 31.789063 L 79.988281 37.207031 C 78.527344 38.320313 76.332031 39.082031 74.363281 39.082031 C 70.121094 39.082031 66.851563 35.886719 66.851563 31.746094 C 66.851563 27.605469 70.179688 24.453125 74.527344 24.453125 C 76.578125 24.453125 78.667969 25.253906 80.089844 26.511719 L 78.546875 28.53125 C 77.46875 27.523438 75.96875 26.90625 74.527344 26.90625 C 71.785156 26.90625 69.632813 29.027344 69.632813 31.746094 C 69.632813 34.488281 71.804688 36.609375 74.546875 36.609375 C 75.523438 36.609375 76.640625 36.257813 77.613281 35.703125 "/>
<path style=" stroke:none;fill-rule:nonzero;fill:rgb(5.499268%,21.199036%,33.299255%);fill-opacity:1;" d="M 84.597656 31.746094 C 84.597656 34.464844 86.808594 36.609375 89.429688 36.609375 C 92.03125 36.609375 94.179688 34.464844 94.179688 31.746094 C 94.179688 29.027344 92.03125 26.925781 89.429688 26.925781 C 86.789063 26.925781 84.597656 29.027344 84.597656 31.746094 M 96.964844 31.746094 C 96.964844 35.886719 93.671875 39.082031 89.390625 39.082031 C 85.105469 39.082031 81.816406 35.886719 81.816406 31.746094 C 81.816406 27.585938 85.105469 24.453125 89.390625 24.453125 C 93.671875 24.453125 96.964844 27.605469 96.964844 31.746094 "/>
<path style=" stroke:none;fill-rule:nonzero;fill:rgb(5.499268%,21.199036%,33.299255%);fill-opacity:1;" d="M 108.089844 34.632813 C 108.089844 33.457031 107.054688 32.734375 105.328125 32.757813 L 101.878906 32.757813 L 101.878906 36.566406 L 105.328125 36.566406 C 107.054688 36.589844 108.089844 35.867188 108.089844 34.632813 M 107.582031 28.636719 C 107.582031 27.542969 106.730469 26.902344 105.328125 26.925781 L 101.878906 26.925781 L 101.878906 30.429688 L 105.328125 30.429688 C 106.730469 30.429688 107.582031 29.769531 107.582031 28.636719 M 110.363281 28.140625 C 110.363281 29.726563 109.429688 30.941406 107.886719 31.335938 C 109.777344 31.683594 110.914063 33.066406 110.914063 34.980469 C 110.914063 37.453125 108.902344 38.957031 105.652344 38.957031 L 99.15625 38.957031 L 99.15625 24.535156 L 105.472656 24.535156 C 108.496094 24.535156 110.363281 25.914063 110.363281 28.140625 "/>
<path style=" stroke:none;fill-rule:nonzero;fill:rgb(5.499268%,21.199036%,33.299255%);fill-opacity:1;" d="M 113.347656 38.957031 L 116.070313 38.957031 L 116.070313 24.535156 L 113.347656 24.535156 Z M 113.347656 38.957031 "/>
<path style=" stroke:none;fill-rule:nonzero;fill:rgb(5.499268%,21.199036%,33.299255%);fill-opacity:1;" d="M 129.777344 24.535156 L 129.777344 26.945313 L 122.082031 26.945313 L 122.082031 30.511719 L 128.984375 30.511719 L 128.984375 32.921875 L 122.082031 32.921875 L 122.082031 36.546875 L 130.019531 36.546875 L 130.019531 38.957031 L 119.359375 38.957031 L 119.359375 24.535156 "/>
<path style=" stroke:none;fill-rule:nonzero;fill:rgb(5.499268%,21.199036%,33.299255%);fill-opacity:1;" d="M 135.300781 32.28125 L 138.507813 32.28125 C 140.539063 32.28125 141.675781 31.394531 141.675781 29.582031 C 141.675781 27.8125 140.539063 26.945313 138.507813 26.945313 L 135.300781 26.945313 Z M 141.472656 38.957031 L 139.015625 34.691406 C 138.855469 34.714844 138.691406 34.714844 138.507813 34.714844 L 135.300781 34.714844 L 135.300781 38.957031 L 132.578125 38.957031 L 132.578125 24.535156 L 138.507813 24.535156 C 142.183594 24.535156 144.273438 26.328125 144.273438 29.5 C 144.273438 31.765625 143.277344 33.394531 141.453125 34.179688 L 144.578125 38.957031 "/>
<path style=" stroke:none;fill-rule:nonzero;fill:rgb(5.499268%,21.199036%,33.299255%);fill-opacity:1;" d="M 149.636719 24.535156 L 156.964844 34.402344 L 156.964844 24.535156 L 159.605469 24.535156 L 159.605469 38.957031 L 157.027344 38.957031 L 149.714844 29.109375 L 149.714844 38.957031 L 147.054688 38.957031 L 147.054688 24.535156 "/>
<path style=" stroke:none;fill-rule:nonzero;fill:rgb(5.499268%,21.199036%,33.299255%);fill-opacity:1;" d="M 164.558594 31.746094 C 164.558594 34.464844 166.773438 36.609375 169.390625 36.609375 C 171.992188 36.609375 174.144531 34.464844 174.144531 31.746094 C 174.144531 29.027344 171.992188 26.925781 169.390625 26.925781 C 166.753906 26.925781 164.558594 29.027344 164.558594 31.746094 M 176.925781 31.746094 C 176.925781 35.886719 173.636719 39.082031 169.351563 39.082031 C 165.066406 39.082031 161.777344 35.886719 161.777344 31.746094 C 161.777344 27.585938 165.066406 24.453125 169.351563 24.453125 C 173.636719 24.453125 176.925781 27.605469 176.925781 31.746094 "/>
<path style=" stroke:none;fill-rule:nonzero;fill:rgb(5.499268%,21.199036%,33.299255%);fill-opacity:1;" d="M 190.984375 31.878906 C 191.03125 31.695313 191.054688 31.53125 191.054688 31.394531 C 191.054688 31.273438 191.039063 31.136719 191.007813 30.992188 C 190.972656 30.851563 190.910156 30.714844 190.824219 30.59375 C 190.734375 30.46875 190.617188 30.363281 190.46875 30.273438 C 190.320313 30.183594 190.121094 30.140625 189.878906 30.140625 C 189.433594 30.140625 188.996094 30.265625 188.570313 30.519531 C 188.144531 30.773438 187.742188 31.109375 187.371094 31.519531 C 187 31.933594 186.65625 32.402344 186.34375 32.929688 C 186.035156 33.460938 185.765625 33.996094 185.542969 34.539063 C 185.320313 35.082031 185.148438 35.605469 185.027344 36.113281 C 184.902344 36.621094 184.84375 37.070313 184.84375 37.453125 C 184.84375 37.894531 184.925781 38.25 185.097656 38.527344 C 185.265625 38.800781 185.546875 38.9375 185.941406 38.9375 C 186.332031 38.9375 186.730469 38.8125 187.136719 38.566406 C 187.542969 38.320313 187.914063 38.023438 188.257813 37.679688 C 188.59375 37.335938 188.882813 36.992188 189.128906 36.648438 C 189.371094 36.308594 189.527344 36.039063 189.59375 35.847656 L 190.671875 32.816406 C 190.835938 32.378906 190.9375 32.066406 190.984375 31.878906 M 190.519531 37.390625 C 190.429688 37.722656 190.386719 38.015625 190.386719 38.277344 C 190.386719 38.636719 190.554688 38.8125 190.894531 38.8125 C 191.164063 38.8125 191.40625 38.734375 191.625 38.578125 C 191.839844 38.417969 192.027344 38.238281 192.183594 38.039063 C 192.339844 37.84375 192.46875 37.644531 192.570313 37.441406 C 192.671875 37.246094 192.742188 37.105469 192.78125 37.019531 L 193.046875 37.164063 C 192.976563 37.316406 192.878906 37.507813 192.742188 37.742188 C 192.605469 37.976563 192.429688 38.199219 192.214844 38.410156 C 191.996094 38.625 191.746094 38.8125 191.464844 38.96875 C 191.179688 39.125 190.847656 39.203125 190.46875 39.203125 C 189.574219 39.203125 189.128906 38.792969 189.128906 37.96875 C 189.128906 37.871094 189.148438 37.703125 189.1875 37.464844 C 189.230469 37.222656 189.28125 37.007813 189.351563 36.816406 L 189.308594 36.816406 C 189.121094 37.050781 188.902344 37.304688 188.660156 37.589844 C 188.417969 37.871094 188.144531 38.128906 187.839844 38.371094 C 187.535156 38.609375 187.199219 38.8125 186.832031 38.96875 C 186.46875 39.125 186.0625 39.203125 185.613281 39.203125 C 185.332031 39.203125 185.054688 39.152344 184.792969 39.050781 C 184.527344 38.949219 184.296875 38.789063 184.089844 38.578125 C 183.886719 38.363281 183.730469 38.09375 183.613281 37.761719 C 183.5 37.433594 183.441406 37.042969 183.441406 36.589844 C 183.441406 36.039063 183.550781 35.488281 183.765625 34.941406 C 183.984375 34.390625 184.265625 33.863281 184.609375 33.363281 C 184.953125 32.863281 185.355469 32.398438 185.808594 31.972656 C 186.261719 31.546875 186.722656 31.175781 187.1875 30.859375 C 187.65625 30.542969 188.117188 30.296875 188.570313 30.117188 C 189.023438 29.941406 189.425781 29.851563 189.777344 29.851563 C 190.183594 29.851563 190.527344 29.96875 190.8125 30.199219 C 191.097656 30.433594 191.238281 30.742188 191.238281 31.128906 L 191.28125 31.128906 L 193.921875 23.585938 L 192.132813 23.585938 L 192.214844 23.296875 L 195.441406 23.296875 L 190.835938 36.363281 C 190.714844 36.71875 190.605469 37.0625 190.519531 37.390625 "/>
<path style=" stroke:none;fill-rule:nonzero;fill:rgb(5.499268%,21.199036%,33.299255%);fill-opacity:1;" d="M 199.238281 30.425781 C 199.078125 30.234375 198.804688 30.140625 198.425781 30.140625 C 198.007813 30.140625 197.605469 30.261719 197.21875 30.511719 C 196.832031 30.757813 196.484375 31.0625 196.175781 31.425781 C 195.863281 31.792969 195.59375 32.183594 195.359375 32.601563 C 195.132813 33.019531 194.953125 33.410156 194.832031 33.765625 C 195.144531 33.820313 195.488281 33.847656 195.867188 33.847656 C 196.355469 33.847656 196.816406 33.773438 197.25 33.621094 C 197.683594 33.46875 198.066406 33.269531 198.394531 33.023438 C 198.726563 32.777344 198.992188 32.488281 199.1875 32.160156 C 199.386719 31.828125 199.484375 31.484375 199.484375 31.128906 C 199.484375 30.851563 199.402344 30.621094 199.238281 30.425781 M 199.15625 37.464844 C 198.996094 37.71875 198.773438 37.972656 198.488281 38.226563 C 198.203125 38.480469 197.855469 38.707031 197.441406 38.90625 C 197.027344 39.105469 196.53125 39.207031 195.949219 39.207031 C 195.367188 39.207031 194.878906 39.109375 194.476563 38.917969 C 194.078125 38.722656 193.753906 38.476563 193.503906 38.175781 C 193.253906 37.875 193.070313 37.539063 192.953125 37.175781 C 192.839844 36.8125 192.78125 36.457031 192.78125 36.113281 C 192.78125 35.425781 192.949219 34.71875 193.28125 33.980469 C 193.609375 33.246094 194.046875 32.574219 194.578125 31.960938 C 195.113281 31.351563 195.71875 30.847656 196.394531 30.449219 C 197.074219 30.050781 197.761719 29.851563 198.46875 29.851563 C 198.738281 29.851563 199.011719 29.882813 199.28125 29.941406 C 199.550781 30.003906 199.792969 30.097656 200.011719 30.222656 C 200.226563 30.34375 200.402344 30.503906 200.539063 30.695313 C 200.675781 30.886719 200.742188 31.121094 200.742188 31.394531 C 200.742188 31.765625 200.644531 32.09375 200.445313 32.375 C 200.25 32.65625 199.996094 32.894531 199.6875 33.09375 C 199.375 33.296875 199.03125 33.464844 198.660156 33.601563 C 198.289063 33.738281 197.925781 33.84375 197.574219 33.921875 C 197.222656 33.996094 196.902344 34.050781 196.609375 34.085938 C 196.320313 34.121094 196.105469 34.136719 195.96875 34.136719 C 195.738281 34.136719 195.515625 34.128906 195.300781 34.117188 C 195.085938 34.101563 194.894531 34.082031 194.730469 34.054688 C 194.582031 34.492188 194.457031 34.929688 194.355469 35.363281 C 194.253906 35.796875 194.203125 36.253906 194.203125 36.730469 C 194.203125 37.472656 194.394531 38.027344 194.773438 38.390625 C 195.152344 38.753906 195.632813 38.9375 196.214844 38.9375 C 196.648438 38.9375 197.027344 38.851563 197.359375 38.679688 C 197.691406 38.507813 197.984375 38.304688 198.234375 38.074219 C 198.484375 37.839844 198.695313 37.601563 198.863281 37.363281 C 199.03125 37.121094 199.171875 36.933594 199.28125 36.792969 L 199.523438 36.9375 C 199.441406 37.035156 199.320313 37.210938 199.15625 37.464844 "/>
<path style=" stroke:none;fill-rule:nonzero;fill:rgb(5.499268%,21.199036%,33.299255%);fill-opacity:1;" d="M 76.839844 50.535156 L 80.980469 50.535156 L 80.980469 57.15625 C 79.222656 58.375 76.351563 59.269531 74.039063 59.269531 C 69.019531 59.269531 65.320313 55.675781 65.320313 50.839844 C 65.320313 46.027344 69.136719 42.457031 74.363281 42.457031 C 76.839844 42.457031 79.5 43.421875 81.210938 44.945313 L 78.480469 48.304688 C 77.371094 47.222656 75.753906 46.519531 74.339844 46.519531 C 72.003906 46.519531 70.246094 48.375 70.246094 50.839844 C 70.246094 53.351563 72.027344 55.183594 74.386719 55.183594 C 75.058594 55.183594 75.960938 54.949219 76.839844 54.550781 "/>
<path style=" stroke:none;fill-rule:nonzero;fill:rgb(5.499268%,21.199036%,33.299255%);fill-opacity:1;" d="M 90.8125 55.183594 C 92.410156 55.183594 93.542969 54.035156 93.542969 52.109375 L 93.542969 42.601563 L 98.355469 42.601563 L 98.355469 52.109375 C 98.355469 56.476563 95.417969 59.269531 90.789063 59.269531 C 86.140625 59.269531 83.109375 56.476563 83.109375 52.109375 L 83.109375 42.601563 L 87.921875 42.601563 L 87.921875 52.109375 C 87.921875 54.007813 89.195313 55.183594 90.8125 55.183594 "/>
<path style=" stroke:none;fill-rule:nonzero;fill:rgb(5.499268%,21.199036%,33.299255%);fill-opacity:1;" d="M 110.015625 52.859375 L 108.070313 47.484375 L 106.082031 52.859375 Z M 111.285156 56.429688 L 104.738281 56.429688 L 103.769531 59.058594 L 98.820313 59.058594 L 105.734375 42.597656 L 110.6875 42.597656 L 117.371094 59.058594 L 112.234375 59.058594 "/>
<path style=" stroke:none;fill-rule:nonzero;fill:rgb(5.499268%,21.199036%,33.299255%);fill-opacity:1;" d="M 129.773438 42.597656 L 129.773438 46.496094 L 125.054688 46.496094 L 125.054688 59.058594 L 120.21875 59.058594 L 120.21875 46.496094 L 115.523438 46.496094 L 115.523438 42.597656 "/>
<path style=" stroke:none;fill-rule:nonzero;fill:rgb(5.499268%,21.199036%,33.299255%);fill-opacity:1;" d="M 144.53125 42.597656 L 144.53125 46.355469 L 136.089844 46.355469 L 136.089844 48.9375 L 143.746094 48.9375 L 143.746094 52.695313 L 136.089844 52.695313 L 136.089844 55.300781 L 144.761719 55.300781 L 144.761719 59.058594 L 131.277344 59.058594 L 131.277344 42.597656 "/>
<path style=" stroke:none;fill-rule:nonzero;fill:rgb(5.499268%,21.199036%,33.299255%);fill-opacity:1;" d="M 152.238281 42.597656 L 156.144531 51.710938 L 160.054688 42.597656 L 165.214844 42.597656 L 165.214844 59.058594 L 161.003906 59.058594 L 160.980469 49.3125 L 157.71875 57.4375 L 154.574219 57.4375 L 151.3125 49.3125 L 151.3125 59.058594 L 147.078125 59.058594 L 147.078125 42.597656 "/>
<path style=" stroke:none;fill-rule:nonzero;fill:rgb(5.499268%,21.199036%,33.299255%);fill-opacity:1;" d="M 177.59375 52.859375 L 175.648438 47.484375 L 173.660156 52.859375 Z M 178.863281 56.429688 L 172.320313 56.429688 L 171.347656 59.058594 L 166.394531 59.058594 L 173.3125 42.597656 L 178.265625 42.597656 L 184.949219 59.058594 L 179.8125 59.058594 "/>
<path style=" stroke:none;fill-rule:nonzero;fill:rgb(5.499268%,21.199036%,33.299255%);fill-opacity:1;" d="M 190.941406 42.597656 L 190.941406 54.972656 L 197.742188 54.972656 L 197.742188 59.058594 L 186.128906 59.058594 L 186.128906 42.597656 "/>
<path style=" stroke:none;fill-rule:nonzero;fill:rgb(5.499268%,21.199036%,33.299255%);fill-opacity:1;" d="M 209.078125 52.859375 L 207.136719 47.484375 L 205.144531 52.859375 Z M 210.351563 56.429688 L 203.804688 56.429688 L 202.832031 59.058594 L 197.882813 59.058594 L 204.800781 42.597656 L 209.75 42.597656 L 216.433594 59.058594 L 211.300781 59.058594 "/>
<path style=" stroke:none;fill-rule:nonzero;fill:rgb(9.399414%,16.899109%,28.199768%);fill-opacity:1;" d="M 273.976563 35.046875 L 273.953125 23.097656 L 268.027344 32.984375 L 266.535156 32.984375 L 260.613281 23.25 L 260.613281 35.046875 L 257.417969 35.046875 L 257.417969 17.019531 L 260.175781 17.019531 L 267.332031 28.96875 L 274.363281 17.019531 L 277.121094 17.019531 L 277.144531 35.046875 "/>
<path style=" stroke:none;fill-rule:nonzero;fill:rgb(9.399414%,16.899109%,28.199768%);fill-opacity:1;" d="M 282.011719 35.046875 L 285.359375 35.046875 L 285.359375 17.019531 L 282.011719 17.019531 Z M 282.011719 35.046875 "/>
<path style=" stroke:none;fill-rule:nonzero;fill:rgb(9.399414%,16.899109%,28.199768%);fill-opacity:1;" d="M 306.246094 17.019531 L 306.246094 35.046875 L 303.488281 35.046875 L 293.550781 22.839844 L 293.550781 35.046875 L 290.226563 35.046875 L 290.226563 17.019531 L 292.980469 17.019531 L 302.921875 29.226563 L 302.921875 17.019531 "/>
<path style=" stroke:none;fill-rule:nonzero;fill:rgb(9.399414%,16.899109%,28.199768%);fill-opacity:1;" d="M 311.085938 35.046875 L 314.4375 35.046875 L 314.4375 17.019531 L 311.085938 17.019531 Z M 311.085938 35.046875 "/>
<path style="fill:none;stroke-width:30;stroke-linecap:butt;stroke-linejoin:miter;stroke:rgb(5.499268%,21.199036%,33.299255%);stroke-opacity:1;stroke-miterlimit:10;" d="M 2436.171875 779.360937 L 2436.171875 314.517187 " transform="matrix(0.1,0,0,-0.1,0,96.19)"/>
</g>
</svg>
