<svg width="32" height="31" viewBox="0 0 32 31" fill="none" xmlns="http://www.w3.org/2000/svg">
<path d="M6.49687 19.3244L2.78335 18.8729C1.95955 20.0801 1.47506 21.5349 1.47506 23.1141C1.47506 27.4061 5.04337 30.7603 9.28653 30.7603H24.153C27.965 30.7603 31.1832 27.7453 31.1832 23.8736C31.1832 20.751 29.0875 18.1828 26.28 17.3081C25.3937 13.0973 21.7955 9.91762 17.428 9.45619L16.9557 12.4246C20.4124 12.7141 23.1476 15.3767 23.4591 18.6827L23.5702 19.8615L24.7426 20.0272C26.7073 20.3049 28.1832 21.9368 28.1832 23.8736C28.1832 25.9978 26.4003 27.7603 24.153 27.7603H9.28653C6.60894 27.7603 4.47506 25.6594 4.47506 23.1141C4.47506 21.5592 5.26799 20.1708 6.49687 19.3244Z" fill="black"/>
<path fill-rule="evenodd" clip-rule="evenodd" d="M16.2036 8.55137L14.4992 17.6438C14.3612 18.4606 13.5871 19.0109 12.7703 18.8729L4.08261 17.6438C3.26576 17.5058 2.71548 16.7317 2.85351 15.9148C2.99154 15.098 3.76562 14.5477 4.58247 14.6857L9.69943 15.3115L0.309082 2.10223L2.7542 0.364014L12.1446 13.5732L13.2456 8.05152C13.3836 7.23467 14.1577 6.68438 14.9745 6.82241C15.7914 6.96044 16.3417 7.73452 16.2036 8.55137Z" fill="black"/>
</svg>
