<svg width="33" height="26" viewBox="0 0 33 26" fill="none" xmlns="http://www.w3.org/2000/svg">
<path fill-rule="evenodd" clip-rule="evenodd" d="M19.9744 9.23467C19.036 9.86486 18.3922 10.8999 18.2931 12.0896C17.8938 12.2854 17.4448 12.3954 16.97 12.3954C15.3087 12.3954 13.9618 11.0486 13.9618 9.38721C13.9618 7.72584 15.3087 6.37903 16.97 6.37903C18.5802 6.37903 19.895 7.64418 19.9744 9.23467ZM25.918 12.143C25.8308 10.8861 25.1363 9.79648 24.1258 9.16556C24.2393 7.60768 25.5392 6.37903 27.126 6.37903C28.7874 6.37903 30.1342 7.72584 30.1342 9.38721C30.1342 11.0486 28.7874 12.3954 27.126 12.3954C26.6963 12.3954 26.2877 12.3053 25.918 12.143ZM18.2823 12.5529C17.7119 12.525 17.0828 12.516 17.0828 12.516C17.1057 12.516 15.5226 12.5046 15.0997 12.572C13.1773 12.8782 11.899 14.7655 11.8313 16.2376L11.7852 19.4817C11.7852 19.4817 14.3064 20.2984 15.8071 20.399C15.8071 20.399 16.0617 20.4068 16.3452 20.4147L16.3695 18.7074C16.4345 17.2928 17.4963 15.5364 19.1553 14.8465C18.6364 14.219 18.314 13.423 18.2823 12.5529ZM27.8208 20.4174C27.8605 19.5616 27.8948 18.7403 27.8883 18.5897C27.7368 16.9921 26.6031 15.3733 25.0808 14.8108C25.5874 14.183 25.8995 13.3918 25.9255 12.5286C26.5257 12.5107 27.2544 12.516 27.2387 12.516C27.2387 12.516 28.7155 12.5371 29.1951 12.6148C30.8276 12.8792 32.1058 14.5181 32.2589 16.1327C32.2717 16.4302 32.1058 19.6635 32.1058 19.6635C32.1058 19.6635 30.598 20.3249 28.5185 20.399C28.5185 20.399 28.1605 20.4087 27.8208 20.4174Z" fill="white"/>
<path d="M17.0598 19.2164L17.0137 22.4605C17.0137 22.4605 19.5349 23.2772 21.0356 23.3778C21.0356 23.3778 22.1571 23.412 22.3133 23.41C22.4695 23.408 23.5911 23.3778 23.5911 23.3778C25.6706 23.3036 27.1783 22.6422 27.1783 22.6422C27.1783 22.6422 27.3442 19.409 27.3315 19.1114C27.1783 17.4969 25.9001 15.858 24.2676 15.5936C23.7881 15.5159 22.3113 15.4948 22.3113 15.4948C22.3343 15.4948 20.7511 15.4833 20.3282 15.5507C18.4058 15.857 17.1275 17.7442 17.0598 19.2164Z" fill="white"/>
<path d="M25.2067 12.366C25.2067 14.0273 23.8599 15.3741 22.1985 15.3741C20.5372 15.3741 19.1904 14.0273 19.1904 12.366C19.1904 10.7046 20.5372 9.35779 22.1985 9.35779C23.8599 9.35779 25.2067 10.7046 25.2067 12.366Z" fill="white"/>
<path fill-rule="evenodd" clip-rule="evenodd" d="M3.41215 11.8203L2.42806 4.48887C2.32852 3.83384 2.76394 3.22989 3.4006 3.13993L10.113 2.00115C10.7496 1.91119 11.3464 2.36927 11.446 3.02431C11.5455 3.67934 11.1101 4.28328 10.4734 4.37325L6.54411 5.11877L13.1834 10.5724L11.808 12.4801L5.16873 7.02646L5.7177 11.4945C5.81724 12.1495 5.38182 12.7535 4.74516 12.8434C4.1085 12.9334 3.51169 12.4753 3.41215 11.8203Z" fill="white"/>
</svg>
