<svg width="28" height="24" viewBox="0 0 28 24" fill="none" xmlns="http://www.w3.org/2000/svg">
<path fill-rule="evenodd" clip-rule="evenodd" d="M16.9207 8.04961C16.1268 8.5829 15.5822 9.45857 15.4982 10.4651C15.1602 10.631 14.78 10.7241 14.3781 10.7241C12.9721 10.7241 11.8323 9.58435 11.8323 8.17835C11.8323 6.77235 12.9721 5.63257 14.3781 5.63257C15.741 5.63257 16.8537 6.70343 16.9207 8.04961ZM21.951 10.5107C21.8773 9.44686 21.2893 8.52457 20.434 7.99066C20.5301 6.6723 21.6301 5.63257 22.973 5.63257C24.379 5.63257 25.5188 6.77235 25.5188 8.17835C25.5188 9.58435 24.379 10.7241 22.973 10.7241C22.6095 10.7241 22.2638 10.648 21.951 10.5107ZM15.489 10.8574C15.0063 10.8338 14.4735 10.8262 14.4735 10.8262C14.493 10.8262 13.1532 10.8165 12.7953 10.8736C11.1683 11.1328 10.0866 12.7299 10.0293 13.9758L9.99023 16.7212C9.99023 16.7212 12.1239 17.4123 13.3939 17.4975C13.3939 17.4975 13.6096 17.5041 13.8497 17.5108L13.8702 16.066C13.9253 14.8689 14.8239 13.3824 16.2279 12.7986C15.7887 12.2675 15.5158 11.5939 15.489 10.8574ZM23.5614 17.5131C23.5949 16.7888 23.624 16.0939 23.6185 15.9665C23.4903 14.6144 22.5308 13.2444 21.2425 12.7684C21.6713 12.2371 21.9354 11.5674 21.9574 10.8369C22.4653 10.8217 23.0816 10.8262 23.0684 10.8262C23.0684 10.8262 24.3182 10.8441 24.724 10.9098C26.1056 11.1336 27.1873 12.5206 27.3169 13.887C27.3277 14.1388 27.1873 16.875 27.1873 16.875C27.1873 16.875 25.9113 17.4348 24.1514 17.4975C24.1514 17.4975 23.8487 17.5057 23.5614 17.5131Z" fill="black"/>
<path d="M14.4541 16.497L14.415 19.2424C14.415 19.2424 16.5487 19.9336 17.8187 20.0187C17.8187 20.0187 18.7679 20.0477 18.9001 20.046C19.0323 20.0443 19.9814 20.0187 19.9814 20.0187C21.7413 19.956 23.0173 19.3963 23.0173 19.3963C23.0173 19.3963 23.1577 16.66 23.1468 16.4082C23.0173 15.0418 21.9355 13.6548 20.554 13.4311C20.1481 13.3653 18.8983 13.3475 18.8983 13.3475C18.9178 13.3475 17.578 13.3378 17.2201 13.3948C15.5932 13.654 14.5114 15.2511 14.4541 16.497Z" fill="black"/>
<path d="M21.3487 10.6996C21.3487 12.1056 20.2089 13.2454 18.8029 13.2454C17.3969 13.2454 16.2571 12.1056 16.2571 10.6996C16.2571 9.2936 17.3969 8.15381 18.8029 8.15381C20.2089 8.15381 21.3487 9.2936 21.3487 10.6996Z" fill="black"/>
<path fill-rule="evenodd" clip-rule="evenodd" d="M9.9184 3.46102L10.7512 9.66549C10.8355 10.2198 10.467 10.7309 9.92818 10.8071L4.24759 11.7708C3.70879 11.8469 3.20372 11.4593 3.11948 10.9049C3.03524 10.3506 3.40373 9.83947 3.94253 9.76334L7.26786 9.13242L1.64912 4.51709L2.81308 2.90263L8.43183 7.51796L7.96725 3.73673C7.88301 3.18238 8.2515 2.67127 8.79029 2.59514C9.32909 2.519 9.83416 2.90667 9.9184 3.46102Z" fill="black"/>
</svg>
