<svg width="45" height="42" viewBox="0 0 45 42" fill="none" xmlns="http://www.w3.org/2000/svg">
<path d="M10.6269 19.197C10.1818 19.9292 10.2214 19.9112 9.96136 20.7122C5.73621 22.204 2.63755 26.1635 2.63755 30.919C2.63755 37.0043 7.6968 41.76 13.7129 41.76H34.7909C40.1958 41.76 44.7586 37.4853 44.7586 31.9959C44.7586 27.5685 41.7872 23.9273 37.8068 22.6871C36.4461 16.2229 30.5778 11.4726 23.6981 11.4726L23.6914 11.4726C21.5396 11.4793 20.4313 11.942 18.4983 12.8114L21.0012 16.383C22.1785 15.956 22.4294 15.7304 23.7014 15.7261C29.0139 15.7277 33.3393 19.6698 33.8072 24.636L33.9647 26.3074L35.6269 26.5424C38.4126 26.9361 40.5051 29.2497 40.5051 31.9959C40.5051 35.0077 37.9772 37.5065 34.7909 37.5065H13.7129C9.91651 37.5065 6.89103 34.5278 6.89103 30.919C6.89103 27.8079 9.13011 25.1667 12.1857 24.4921L13.5902 24.182C13.6845 23.6132 13.6614 23.822 13.7823 23.258L10.6269 19.197Z" fill="white"/>
<path fill-rule="evenodd" clip-rule="evenodd" d="M0.786902 15.2123L3.20345 2.32082C3.39915 1.16267 4.49666 0.382458 5.65481 0.578162L17.9724 2.32082C19.1306 2.51653 19.9108 3.61404 19.7151 4.77219C19.5194 5.93034 18.4219 6.71055 17.2637 6.51485L10.0087 5.62767L23.3226 24.3561L19.8559 26.8206L6.54199 8.09217L4.98093 15.921C4.78523 17.0792 3.68771 17.8594 2.52956 17.6637C1.37141 17.468 0.591198 16.3705 0.786902 15.2123Z" fill="white"/>
</svg>
