<?xml version="1.0" encoding="UTF-8" standalone="no"?>
<!-- Created with Inkscape (http://www.inkscape.org/) -->

<svg
   xmlns:dc="http://purl.org/dc/elements/1.1/"
   xmlns:cc="http://creativecommons.org/ns#"
   xmlns:rdf="http://www.w3.org/1999/02/22-rdf-syntax-ns#"
   xmlns:svg="http://www.w3.org/2000/svg"
   xmlns="http://www.w3.org/2000/svg"
   xmlns:sodipodi="http://sodipodi.sourceforge.net/DTD/sodipodi-0.dtd"
   xmlns:inkscape="http://www.inkscape.org/namespaces/inkscape"
   width="5.3339124mm"
   height="6.6832924mm"
   viewBox="0 0 5.3339124 6.6832924"
   version="1.1"
   id="svg6456"
   inkscape:version="0.92.0 r15299"
   sodipodi:docname="duplicatePageDisabled.svg">
  <defs
     id="defs6450" />
  <sodipodi:namedview
     id="base"
     pagecolor="#ffffff"
     bordercolor="#666666"
     borderopacity="1.0"
     inkscape:pageopacity="0.0"
     inkscape:pageshadow="2"
     inkscape:zoom="0.35"
     inkscape:cx="-148.49156"
     inkscape:cy="-458.79873"
     inkscape:document-units="mm"
     inkscape:current-layer="layer1"
     showgrid="false"
     inkscape:window-width="1680"
     inkscape:window-height="987"
     inkscape:window-x="-8"
     inkscape:window-y="-8"
     inkscape:window-maximized="1" />
  <metadata
     id="metadata6453">
    <rdf:RDF>
      <cc:Work
         rdf:about="">
        <dc:format>image/svg+xml</dc:format>
        <dc:type
           rdf:resource="http://purl.org/dc/dcmitype/StillImage" />
        <dc:title></dc:title>
      </cc:Work>
    </rdf:RDF>
  </metadata>
  <g
     inkscape:label="Layer 1"
     inkscape:groupmode="layer"
     id="layer1"
     transform="translate(-19.255654,-20.759545)">
    <g
       style="fill:#575757;fill-opacity:1"
       transform="matrix(0.32151312,0,0,0.32087849,331.15415,-90.498805)"
       id="g6490">
      <g
         style="fill:#575757;fill-opacity:1"
         transform="translate(-91.638061,265.98188)"
         id="g6488">
        <path
           inkscape:connector-curvature="0"
           d="m -871.98083,90.495995 h 5.34928 v 0.436208 h -5.34928 z m 0,-1.124962 h 7.00228 v 0.436208 h -7.00228 z m 0,-1.124955 h 7.00228 v 0.436209 h -7.00228 z m -2.92994,-3.497488 v 16.78711 l 13.03516,0.041 v -0.0117 h 0.008 l -0.0449,-16.81641 z m 0.87891,0.87891 h 11.24414 l 0.041,15.06835 -11.28515,-0.0371 z m -4.42578,-4.87891 v 16.78125 l 2.74609,0.0469 0.0156,-0.8789 -1.88282,-0.0332 v -15.0371 h 11.25196 l 0.0351,1.57617 0.87891,-0.0195 -0.0547,-2.43555 z m 0,0 V 97.0982 h 0.8789 V 81.6275 h 11.25196 l 0.0351,1.64453 0.87891,-0.0195 -0.0527,-2.50391 z"
           style="fill:#575757;fill-opacity:1"
           id="path6486" />
      </g>
    </g>
  </g>
</svg>
