<svg width="60" height="31" viewBox="0 0 60 31" fill="none" xmlns="http://www.w3.org/2000/svg">
<path d="M20.2109 4H16.5V0.289062L20.2109 4ZM20.5 5V16H7.5V0H15.5V5H20.5Z" fill="#2793A2"/>
<path d="M36.2109 4H32.5V0.289062L36.2109 4ZM36.5 5V16H23.5V0H31.5V5H36.5Z" fill="#2793A2"/>
<path d="M52.2109 4H48.5V0.289062L52.2109 4ZM52.5 5V16H39.5V0H47.5V5H52.5Z" fill="#2793A2"/>
<path d="M7.50586 21.4688V30H6.04688V21.4688H7.50586ZM10.1836 21.4688V22.6406H3.39258V21.4688H10.1836ZM18.6973 25.5V25.9688C18.6973 26.6133 18.6133 27.1914 18.4453 27.7031C18.2773 28.2148 18.0371 28.6504 17.7246 29.0098C17.416 29.3691 17.0449 29.6445 16.6113 29.8359C16.1777 30.0234 15.6973 30.1172 15.1699 30.1172C14.6465 30.1172 14.168 30.0234 13.7344 29.8359C13.3047 29.6445 12.9316 29.3691 12.6152 29.0098C12.2988 28.6504 12.0527 28.2148 11.877 27.7031C11.7051 27.1914 11.6191 26.6133 11.6191 25.9688V25.5C11.6191 24.8555 11.7051 24.2793 11.877 23.7715C12.0488 23.2598 12.291 22.8242 12.6035 22.4648C12.9199 22.1016 13.293 21.8262 13.7227 21.6387C14.1562 21.4473 14.6348 21.3516 15.1582 21.3516C15.6855 21.3516 16.166 21.4473 16.5996 21.6387C17.0332 21.8262 17.4062 22.1016 17.7188 22.4648C18.0312 22.8242 18.2715 23.2598 18.4395 23.7715C18.6113 24.2793 18.6973 24.8555 18.6973 25.5ZM17.2266 25.9688V25.4883C17.2266 25.0117 17.1797 24.5918 17.0859 24.2285C16.9961 23.8613 16.8613 23.5547 16.6816 23.3086C16.5059 23.0586 16.2891 22.8711 16.0312 22.7461C15.7734 22.6172 15.4824 22.5527 15.1582 22.5527C14.834 22.5527 14.5449 22.6172 14.291 22.7461C14.0371 22.8711 13.8203 23.0586 13.6406 23.3086C13.4648 23.5547 13.3301 23.8613 13.2363 24.2285C13.1426 24.5918 13.0957 25.0117 13.0957 25.4883V25.9688C13.0957 26.4453 13.1426 26.8672 13.2363 27.2344C13.3301 27.6016 13.4668 27.9121 13.6465 28.166C13.8301 28.416 14.0488 28.6055 14.3027 28.7344C14.5566 28.8594 14.8457 28.9219 15.1699 28.9219C15.498 28.9219 15.7891 28.8594 16.043 28.7344C16.2969 28.6055 16.5117 28.416 16.6875 28.166C16.8633 27.9121 16.9961 27.6016 17.0859 27.2344C17.1797 26.8672 17.2266 26.4453 17.2266 25.9688ZM25.957 27.2227H27.4219C27.375 27.7812 27.2188 28.2793 26.9531 28.7168C26.6875 29.1504 26.3145 29.4922 25.834 29.7422C25.3535 29.9922 24.7695 30.1172 24.082 30.1172C23.5547 30.1172 23.0801 30.0234 22.6582 29.8359C22.2363 29.6445 21.875 29.375 21.5742 29.0273C21.2734 28.6758 21.043 28.252 20.8828 27.7559C20.7266 27.2598 20.6484 26.7051 20.6484 26.0918V25.3828C20.6484 24.7695 20.7285 24.2148 20.8887 23.7188C21.0527 23.2227 21.2871 22.7988 21.5918 22.4473C21.8965 22.0918 22.2617 21.8203 22.6875 21.6328C23.1172 21.4453 23.5996 21.3516 24.1348 21.3516C24.8145 21.3516 25.3887 21.4766 25.8574 21.7266C26.3262 21.9766 26.6895 22.3223 26.9473 22.7637C27.209 23.2051 27.3691 23.7109 27.4277 24.2812H25.9629C25.9238 23.9141 25.8379 23.5996 25.7051 23.3379C25.5762 23.0762 25.3848 22.877 25.1309 22.7402C24.877 22.5996 24.5449 22.5293 24.1348 22.5293C23.7988 22.5293 23.5059 22.5918 23.2559 22.7168C23.0059 22.8418 22.7969 23.0254 22.6289 23.2676C22.4609 23.5098 22.334 23.8086 22.248 24.1641C22.166 24.5156 22.125 24.918 22.125 25.3711V26.0918C22.125 26.5215 22.1621 26.9121 22.2363 27.2637C22.3145 27.6113 22.4316 27.9102 22.5879 28.1602C22.748 28.4102 22.9512 28.6035 23.1973 28.7402C23.4434 28.877 23.7383 28.9453 24.082 28.9453C24.5 28.9453 24.8379 28.8789 25.0957 28.7461C25.3574 28.6133 25.5547 28.4199 25.6875 28.166C25.8242 27.9082 25.9141 27.5938 25.957 27.2227ZM39.7969 25.6406V28.8984C39.6758 29.0586 39.4863 29.2344 39.2285 29.4258C38.9746 29.6133 38.6367 29.7754 38.2148 29.9121C37.793 30.0488 37.2676 30.1172 36.6387 30.1172C36.1035 30.1172 35.6133 30.0273 35.168 29.8477C34.7227 29.6641 34.3379 29.3965 34.0137 29.0449C33.6934 28.6934 33.4453 28.2656 33.2695 27.7617C33.0938 27.2539 33.0059 26.6758 33.0059 26.0273V25.4355C33.0059 24.791 33.0859 24.2168 33.2461 23.7129C33.4102 23.2051 33.6445 22.7754 33.9492 22.4238C34.2539 22.0723 34.6211 21.8066 35.0508 21.627C35.4844 21.4434 35.9746 21.3516 36.5215 21.3516C37.2207 21.3516 37.7988 21.4688 38.2559 21.7031C38.7168 21.9336 39.0723 22.2539 39.3223 22.6641C39.5723 23.0742 39.7305 23.543 39.7969 24.0703H38.3555C38.3086 23.7734 38.2168 23.5078 38.0801 23.2734C37.9473 23.0391 37.7559 22.8555 37.5059 22.7227C37.2598 22.5859 36.9395 22.5176 36.5449 22.5176C36.2051 22.5176 35.9062 22.582 35.6484 22.7109C35.3906 22.8398 35.1758 23.0293 35.0039 23.2793C34.8359 23.5293 34.709 23.834 34.623 24.1934C34.5371 24.5527 34.4941 24.9629 34.4941 25.4238V26.0273C34.4941 26.4961 34.543 26.9121 34.6406 27.2754C34.7422 27.6387 34.8867 27.9453 35.0742 28.1953C35.2656 28.4453 35.498 28.6348 35.7715 28.7637C36.0449 28.8887 36.3535 28.9512 36.6973 28.9512C37.0332 28.9512 37.3086 28.9238 37.5234 28.8691C37.7383 28.8105 37.9082 28.7422 38.0332 28.6641C38.1621 28.582 38.2617 28.5039 38.332 28.4297V26.7363H36.5566V25.6406H39.7969ZM43.4531 24.8672V30H42.041V23.6602H43.3887L43.4531 24.8672ZM45.3926 23.6191L45.3809 24.9316C45.2949 24.916 45.2012 24.9043 45.0996 24.8965C45.002 24.8887 44.9043 24.8848 44.8066 24.8848C44.5645 24.8848 44.3516 24.9199 44.168 24.9902C43.9844 25.0566 43.8301 25.1543 43.7051 25.2832C43.584 25.4082 43.4902 25.5605 43.4238 25.7402C43.3574 25.9199 43.3184 26.1211 43.3066 26.3438L42.9844 26.3672C42.9844 25.9688 43.0234 25.5996 43.1016 25.2598C43.1797 24.9199 43.2969 24.6211 43.4531 24.3633C43.6133 24.1055 43.8125 23.9043 44.0508 23.7598C44.293 23.6152 44.5723 23.543 44.8887 23.543C44.9746 23.543 45.0664 23.5508 45.1641 23.5664C45.2656 23.582 45.3418 23.5996 45.3926 23.6191ZM48.5391 23.6602V30H47.1211V23.6602H48.5391ZM47.0273 21.9961C47.0273 21.7812 47.0977 21.6035 47.2383 21.4629C47.3828 21.3184 47.582 21.2461 47.8359 21.2461C48.0859 21.2461 48.2832 21.3184 48.4277 21.4629C48.5723 21.6035 48.6445 21.7812 48.6445 21.9961C48.6445 22.207 48.5723 22.3828 48.4277 22.5234C48.2832 22.6641 48.0859 22.7344 47.8359 22.7344C47.582 22.7344 47.3828 22.6641 47.2383 22.5234C47.0977 22.3828 47.0273 22.207 47.0273 21.9961ZM54.7031 28.6875V21H56.1211V30H54.8379L54.7031 28.6875ZM50.5781 26.9004V26.7773C50.5781 26.2969 50.6348 25.8594 50.748 25.4648C50.8613 25.0664 51.0254 24.7246 51.2402 24.4395C51.4551 24.1504 51.7168 23.9297 52.0254 23.7773C52.334 23.6211 52.6816 23.543 53.0684 23.543C53.4512 23.543 53.7871 23.6172 54.0762 23.7656C54.3652 23.9141 54.6113 24.127 54.8145 24.4043C55.0176 24.6777 55.1797 25.0059 55.3008 25.3887C55.4219 25.7676 55.5078 26.1895 55.5586 26.6543V27.0469C55.5078 27.5 55.4219 27.9141 55.3008 28.2891C55.1797 28.6641 55.0176 28.9883 54.8145 29.2617C54.6113 29.5352 54.3633 29.7461 54.0703 29.8945C53.7812 30.043 53.4434 30.1172 53.0566 30.1172C52.6738 30.1172 52.3281 30.0371 52.0195 29.877C51.7148 29.7168 51.4551 29.4922 51.2402 29.2031C51.0254 28.9141 50.8613 28.5742 50.748 28.1836C50.6348 27.7891 50.5781 27.3613 50.5781 26.9004ZM51.9902 26.7773V26.9004C51.9902 27.1895 52.0156 27.459 52.0664 27.709C52.1211 27.959 52.2051 28.1797 52.3184 28.3711C52.4316 28.5586 52.5781 28.707 52.7578 28.8164C52.9414 28.9219 53.1602 28.9746 53.4141 28.9746C53.7344 28.9746 53.998 28.9043 54.2051 28.7637C54.4121 28.623 54.5742 28.4336 54.6914 28.1953C54.8125 27.9531 54.8945 27.6836 54.9375 27.3867V26.3262C54.9141 26.0957 54.8652 25.8809 54.791 25.6816C54.7207 25.4824 54.625 25.3086 54.5039 25.1602C54.3828 25.0078 54.2324 24.8906 54.0527 24.8086C53.877 24.7227 53.668 24.6797 53.4258 24.6797C53.168 24.6797 52.9492 24.7344 52.7695 24.8438C52.5898 24.9531 52.4414 25.1035 52.3242 25.2949C52.2109 25.4863 52.127 25.709 52.0723 25.9629C52.0176 26.2168 51.9902 26.4883 51.9902 26.7773Z" fill="#2793A2"/>
</svg>
