<svg xmlns="http://www.w3.org/2000/svg" viewBox="0 0 552.07 109.76"><title>wv-logo</title><path d="M615,308.57" transform="translate(-113.09 -244.62)" fill="#fffffe"/><path d="M464,245.21a.3.3,0,0,1-.29-.29.29.29,0,0,1,.29-.3H644.81V354.38A263.84,263.84,0,0,0,464,245.21" transform="translate(-113.09 -244.62)" fill="#ff6b00"/><path d="M615,308.57c1.22-18.07.83-28.62,3.92-31.49,2.86-2.65,8-3.37,16.78-4-19.24-2.22-18.77-1.65-20.7-20.35-1.94,18.7-1.47,18.13-20.71,20.35,8.76.64,13.92,1.36,16.78,4,3.09,2.87,2.7,13.42,3.93,31.49" transform="translate(-113.09 -244.62)" fill="#fff"/><path d="M615,308.57" transform="translate(-113.09 -244.62)" fill="#fff"/><path d="M234.09,313.3v39.06h10.8V320.57c3.64-3.12,6.24-2.08,13.41,3.84l4.36-9.76a21.55,21.55,0,0,0-9-2,11.16,11.16,0,0,0-8.52,3.74l-.52.62-.1-.11.1-3.63Zm43.74-20.68H267v59.74h10.81Zm-92.54,40.21c0,10.91,8.1,19.95,21.19,19.95s21.2-9,21.2-19.95-8.11-19.95-21.2-19.95-21.19,9-21.19,19.95M414.55,313.3h-10.8v39.06h10.8Zm-4.05-17.66a5.71,5.71,0,1,0,5.71,5.71,5.63,5.63,0,0,0-5.71-5.71M421.28,324c-1,14.86,20.78,11.32,20.15,20.36-.31,3.63-3.43,4.88-6.75,4.78-5.4-.42-8.73-3.53-11.64-7l-3.21,7.17a32,32,0,0,0,13.29,4c9.35.62,17.25-3.43,17.76-12.47.94-14-21.6-12.26-21.19-19.42.21-3.12,3.74-4.68,7.38-4.47s6.65,2.39,9.87,5.3l2.91-6.45a36.54,36.54,0,0,0-11.33-2.9c-10.07-.63-16.83,4.67-17.24,11M303.77,353.19a20.43,20.43,0,0,0,13-4.68l.2.11v3.74h10V292.62H316.13v23.8a20.89,20.89,0,0,0-12.25-3.74c-5.93,0-20.05,3.63-20.05,20.77,0,12.78,11.21,19.74,19.94,19.74m70.47-.83h4.58l22.85-52.46h-5.92l-15.9,36.88L364.17,299.9H351.08Zm191.32,0v-21.5c0-14.55-11.11-18.18-17.66-18.18-4.67,0-8.62,1.76-12.57,4.46l-.21-.1V313.3h-10v39.06H536V320.88c3.22-2.81,6.34-3.95,9-3.95,5.72,0,9.66,5.51,9.66,11.53v23.9ZM157.14,304.88H151l-12.26,31.69-13.09-36.46H113.09l19.43,52.15h5.92L151,320.05l12.46,32.21h5.93l19.42-52.05H182.9l-13.61,36.36Zm59.11,27.95c0,9-3,16.21-9.77,16.21s-9.76-7.17-9.76-16.21,3-16.21,9.76-16.21,9.77,7.17,9.77,16.21m259.52,0c0,10.91,8.1,19.95,21.19,19.95s21.19-9,21.19-19.95-8.1-19.95-21.19-19.95-21.19,9-21.19,19.95m31,0c0,9-3,16.21-9.77,16.21s-9.76-7.17-9.76-16.21,3-16.21,9.76-16.21,9.77,7.17,9.77,16.21m-190.6-11.74v23.58c-2.8,2.39-5.4,4.16-9.35,4.16-4.78,0-11-4.05-11-15.79,0-12.68,9.87-21.82,20.36-12" transform="translate(-113.09 -244.62)" fill="#231f20"/><rect x="344.8" y="68.67" width="10.8" height="39.06" fill="#231f20"/><path d="M463.64,295.64a5.71,5.71,0,1,0,5.71,5.71,5.63,5.63,0,0,0-5.71-5.71" transform="translate(-113.09 -244.62)" fill="#231f20"/><path d="M663.58,249a5.31,5.31,0,0,1-3.73,9.07,5.32,5.32,0,1,1,3.73-9.07Zm-.41,7.09a4.73,4.73,0,1,0-6.66,0,4.61,4.61,0,0,0,3.34,1.38A4.53,4.53,0,0,0,663.17,256.13Zm-5.66-6.33h2.55a2.38,2.38,0,0,1,1.53.43,1.54,1.54,0,0,1,.09,2.26,2.06,2.06,0,0,1-1.18.54,1.45,1.45,0,0,1,.6.34,3.43,3.43,0,0,1,.49.62l1.14,1.74h-1.39l-.89-1.49a2.25,2.25,0,0,0-.61-.75,1.29,1.29,0,0,0-.65-.13h-.48v2.37h-1.2Zm2,2.73a1.59,1.59,0,0,0,.92-.24.81.81,0,0,0,.36-.73q0-.93-1.23-.93h-.89v1.9Z" transform="translate(-113.09 -244.62)"/><path d="M577.27,313.16a5.28,5.28,0,1,1-3.74-1.56A5.14,5.14,0,0,1,577.27,313.16Zm-.41,7.1a4.57,4.57,0,0,0,1.38-3.35,4.72,4.72,0,1,0-8,3.35,4.7,4.7,0,0,0,6.65,0Zm-5.66-6.33h2.55a2.38,2.38,0,0,1,1.53.43,1.53,1.53,0,0,1,.09,2.25,2.06,2.06,0,0,1-1.18.54,1.58,1.58,0,0,1,.61.35,3.81,3.81,0,0,1,.48.61l1.14,1.74H575l-.89-1.48a2.4,2.4,0,0,0-.6-.75,1.35,1.35,0,0,0-.66-.14h-.48v2.37h-1.2Zm2,2.73a1.65,1.65,0,0,0,.93-.24.85.85,0,0,0,.35-.74q0-.93-1.23-.93h-.89v1.91Z" transform="translate(-113.09 -244.62)" fill="#231f20"/></svg>