<?xml version="1.0" encoding="UTF-8" standalone="no"?>
<!-- Created with Inkscape (http://www.inkscape.org/) -->

<svg
   xmlns:dc="http://purl.org/dc/elements/1.1/"
   xmlns:cc="http://creativecommons.org/ns#"
   xmlns:rdf="http://www.w3.org/1999/02/22-rdf-syntax-ns#"
   xmlns:svg="http://www.w3.org/2000/svg"
   xmlns="http://www.w3.org/2000/svg"
   xmlns:sodipodi="http://sodipodi.sourceforge.net/DTD/sodipodi-0.dtd"
   xmlns:inkscape="http://www.inkscape.org/namespaces/inkscape"
   width="100mm"
   height="100mm"
   viewBox="0 0 354.33073 354.33071"
   id="svg5216"
   version="1.1"
   inkscape:version="0.91 r13725"
   sodipodi:docname="ApplicationIcon.svg">
  <defs
     id="defs5218" />
  <sodipodi:namedview
     id="base"
     pagecolor="#ffffff"
     bordercolor="#666666"
     borderopacity="1.0"
     inkscape:pageopacity="0.0"
     inkscape:pageshadow="2"
     inkscape:zoom="0.49497475"
     inkscape:cx="-443.46943"
     inkscape:cy="154.90387"
     inkscape:document-units="px"
     inkscape:current-layer="g5198"
     showgrid="false"
     fit-margin-top="0"
     fit-margin-left="0"
     fit-margin-right="0"
     fit-margin-bottom="0"
     inkscape:window-width="1200"
     inkscape:window-height="1867"
     inkscape:window-x="-8"
     inkscape:window-y="-8"
     inkscape:window-maximized="1" />
  <metadata
     id="metadata5221">
    <rdf:RDF>
      <cc:Work
         rdf:about="">
        <dc:format>image/svg+xml</dc:format>
        <dc:type
           rdf:resource="http://purl.org/dc/dcmitype/StillImage" />
        <dc:title></dc:title>
      </cc:Work>
    </rdf:RDF>
  </metadata>
  <g
     inkscape:label="Layer 1"
     inkscape:groupmode="layer"
     id="layer1"
     transform="translate(3624.0574,-188.93373)">
    <g
       id="g5198"
       transform="matrix(2.5496136,0,0,2.5496136,-4633.5971,956.66746)">
      <path
         sodipodi:nodetypes="ccscccccccccccc"
         inkscape:connector-curvature="0"
         id="path5200"
         d="m 474.684,-264.7198 c -0.50951,0.78334 -7.95263,4.70211 -11.40653,4.76817 -3.30413,0.0372 -7.2817,-0.59041 -9.35162,-1.67362 -0.76974,-0.40281 -2.50522,1.40922 -2.93259,1.76342 0,0 -32.26392,22.38378 -34.66797,28.9312 -1.0194,2.77608 -2.74957,7.93221 -1.40467,10.14269 6.51455,0.80311 13.94085,-8.62612 38.7681,-30.60323 l 3.06414,40.86682 18.31911,10.69736 2.53793,-52.00126 c 0,0 25.4654,29.09392 37.83313,29.78141 l 3.05412,-5.07137 c -2.74846,-13.749 -1.88641,-3.92638 -38.64587,-37.61141 -1.89189,-1.00905 -3.01319,-1.29342 -5.16728,0.01 z"
         style="fill:#4d4d4d;fill-opacity:1;stroke:none" />
      <path
         inkscape:connector-curvature="0"
         id="path5202"
         d="m 462.07325,-300.34913 a 19.305496,19.315426 0 0 0 -19.30569,19.31555 19.305496,19.315426 0 0 0 19.30569,19.31492 19.305496,19.315426 0 0 0 11.29464,-3.6802 c 0.28447,-0.20786 0.57542,-0.40683 0.84808,-0.62977 a 19.305496,19.315426 0 0 0 0.50923,-0.44774 c 0.38674,-0.33963 0.76954,-0.68414 1.12731,-1.0541 a 19.305496,19.315426 0 0 0 0.2294,-0.24662 c 0,0 0,0 0,0 a 19.305496,19.315426 0 0 0 5.29644,-13.25649 19.305496,19.315426 0 0 0 -19.3051,-19.31555 z"
         style="fill:#4d4d4d;fill-opacity:1;stroke:none;stroke-width:2;stroke-miterlimit:4;stroke-dasharray:none" />
      <g
         inkscape:export-ydpi="15.43"
         inkscape:export-xdpi="15.43"
         inkscape:export-filename="C:\dev\Bloom\artwork\Favicon16x16.png"
         transform="matrix(1.0285033,0,0,1.0285016,2533.6902,-2379.4767)"
         id="g5204"
         style="stroke:#4d4d4d;stroke-opacity:1">
        <path
           inkscape:connector-curvature="0"
           id="path5206"
           d="m -2053.4731,2065.5142 0,42.7143 c 0,23.586 19.4369,42.7002 43.4033,42.7002 23.9664,0 43.3887,-19.1142 43.3887,-42.7002 l 0,-42.7143 c -23.9663,0 -54.5053,23.3361 -35.5216,51.4663 -3.5915,-23.5859 -27.304,-51.4663 -51.2704,-51.4663 z"
           style="fill:#d65649;fill-opacity:1;fill-rule:evenodd;stroke:#4d4d4d;stroke-width:0;stroke-miterlimit:4;stroke-dasharray:none;stroke-opacity:1"
           sodipodi:nodetypes="csssccc" />
        <path
           sodipodi:nodetypes="cccc"
           inkscape:connector-curvature="0"
           id="path5208"
           d="m -1966.7433,2066.1007 c -30.0055,2.7604 -38.6419,19.9107 -41.3979,31.5296 m 5.2743,34.9198 c 3.209,-39.5982 -19.6691,-63.7999 -49.9898,-66.4494"
           style="fill:none;stroke:#4d4d4d;stroke-width:6.0553565;stroke-linecap:butt;stroke-linejoin:miter;stroke-miterlimit:4;stroke-dasharray:none;stroke-opacity:1" />
      </g>
      <path
         inkscape:export-ydpi="15.43"
         inkscape:export-xdpi="15.43"
         inkscape:export-filename="C:\dev\Bloom\artwork\Favicon16x16.png"
         style="fill:none;stroke:#4d4d4d;stroke-width:6.22800207;stroke-linecap:butt;stroke-linejoin:round;stroke-miterlimit:4;stroke-dasharray:none;stroke-opacity:1"
         d="m 468.37781,-226.23404 c -2.16685,-5.39521 -7.56896,-12.20369 -15.37314,-17.99333 -6.82546,-5.06352 -20.58313,-10.31824 -30.52609,-12.19597 -0.6712,-0.12671 -2.48866,42.70647 0.91054,53.35043 12.73894,39.89044 40.87982,37.66846 43.78956,37.60881 11.03913,-0.22637 37.25197,-10.07325 42.49744,-30.10054 4.43892,-16.94786 1.93347,-56.74539 1.60997,-59.83385 -32.07609,2.8201 -40.26637,18.84415 -43.87281,29.16445"
         id="path5210"
         inkscape:connector-curvature="0"
         sodipodi:nodetypes="cssssscc" />
      <ellipse
         ry="6.3578434"
         rx="6.6181388"
         cy="-224.06203"
         cx="421.01776"
         inkscape:export-ydpi="600.0318"
         inkscape:export-xdpi="600.0318"
         inkscape:export-filename="C:\dev\Bloom\artwork\BloomLargeOnWhite.png"
         id="ellipse5212"
         style="fill:#4d4d4d;fill-opacity:1;fill-rule:nonzero;stroke:none;stroke-width:0.85103649;stroke-linecap:round;stroke-miterlimit:4;stroke-dasharray:none;stroke-dashoffset:0;stroke-opacity:1" />
      <ellipse
         ry="6.3578434"
         rx="6.0656204"
         cy="-227.1707"
         cx="512.12549"
         inkscape:export-ydpi="600.0318"
         inkscape:export-xdpi="600.0318"
         inkscape:export-filename="C:\dev\Bloom\artwork\BloomLargeOnWhite.png"
         id="ellipse5214"
         style="fill:#4d4d4d;fill-opacity:1;fill-rule:nonzero;stroke:none;stroke-width:0.80538726;stroke-linecap:round;stroke-miterlimit:4;stroke-dasharray:none;stroke-dashoffset:0;stroke-opacity:1" />
    </g>
  </g>
</svg>
