<?xml version="1.0" encoding="UTF-8" standalone="no"?>
<!-- Created with Inkscape (http://www.inkscape.org/) -->

<svg
   xmlns:dc="http://purl.org/dc/elements/1.1/"
   xmlns:cc="http://creativecommons.org/ns#"
   xmlns:rdf="http://www.w3.org/1999/02/22-rdf-syntax-ns#"
   xmlns:svg="http://www.w3.org/2000/svg"
   xmlns="http://www.w3.org/2000/svg"
   xmlns:sodipodi="http://sodipodi.sourceforge.net/DTD/sodipodi-0.dtd"
   xmlns:inkscape="http://www.inkscape.org/namespaces/inkscape"
   width="100mm"
   height="100mm"
   viewBox="0 0 354.33073 354.33071"
   id="svg5216"
   version="1.1"
   inkscape:version="0.91 r13725"
   sodipodi:docname="ApplicationIcon.svg">
  <defs
     id="defs5218" />
  <sodipodi:namedview
     id="base"
     pagecolor="#ffffff"
     bordercolor="#666666"
     borderopacity="1.0"
     inkscape:pageopacity="0.0"
     inkscape:pageshadow="2"
     inkscape:zoom="0.9899495"
     inkscape:cx="105.17789"
     inkscape:cy="178.50647"
     inkscape:document-units="px"
     inkscape:current-layer="g4142"
     showgrid="false"
     fit-margin-top="0"
     fit-margin-left="0"
     fit-margin-right="0"
     fit-margin-bottom="0"
     inkscape:window-width="1200"
     inkscape:window-height="1867"
     inkscape:window-x="-8"
     inkscape:window-y="-8"
     inkscape:window-maximized="1" />
  <metadata
     id="metadata5221">
    <rdf:RDF>
      <cc:Work
         rdf:about="">
        <dc:format>image/svg+xml</dc:format>
        <dc:type
           rdf:resource="http://purl.org/dc/dcmitype/StillImage" />
        <dc:title />
      </cc:Work>
    </rdf:RDF>
  </metadata>
  <g
     inkscape:label="Layer 1"
     inkscape:groupmode="layer"
     id="layer1"
     transform="translate(3624.0574,-188.93373)">
    <g
       id="g5198"
       transform="matrix(2.5496136,0,0,2.5496136,-4633.5971,956.66746)">
      <g
         id="g4142"
         transform="matrix(1.4415846,0,0,1.441555,-207.34936,72.251628)">
        <g
           style="stroke:#4d4d4d;stroke-width:0.69368821;stroke-opacity:1"
           id="g5204"
           transform="matrix(1.0285033,0,0,1.0285016,2533.6902,-2379.4767)"
           inkscape:export-filename="C:\dev\Bloom\artwork\Favicon16x16.png"
           inkscape:export-xdpi="15.43"
           inkscape:export-ydpi="15.43">
          <path
             sodipodi:nodetypes="csssccc"
             style="fill:#d65649;fill-opacity:1;fill-rule:evenodd;stroke:#4d4d4d;stroke-width:0;stroke-miterlimit:4;stroke-dasharray:none;stroke-opacity:1"
             d="m -2053.4731,2065.5142 0,42.7143 c 0,23.586 19.4369,42.7002 43.4033,42.7002 23.9664,0 43.3887,-19.1142 43.3887,-42.7002 l 0,-42.7143 c -23.9663,0 -50.2298,25.4739 -35.5216,51.4663 -3.5915,-23.5859 -27.304,-51.4663 -51.2704,-51.4663 z"
             id="path5206"
             inkscape:connector-curvature="0" />
        </g>
        <g
           id="g5459">
          <path
             sodipodi:nodetypes="cccsc"
             inkscape:connector-curvature="0"
             id="path5208"
             d="m -1966.7433,2066.1007 c -30.0055,2.7604 -38.6419,19.9107 -41.3979,31.5296 m 5.2743,34.9198 c 0.4316,-5.3258 0.3913,-10.373 -0.075,-15.1268 -3.0041,-30.5916 -23.6716,-49.0294 -49.9143,-51.3226"
             style="fill:none;stroke:#4d4d4d;stroke-width:6.61339763;stroke-linecap:butt;stroke-linejoin:miter;stroke-miterlimit:4;stroke-dasharray:none;stroke-opacity:1"
             transform="matrix(1.0285033,0,0,1.0285016,2533.6902,-2379.4767)" />
          <path
             inkscape:export-ydpi="15.43"
             inkscape:export-xdpi="15.43"
             inkscape:export-filename="C:\dev\Bloom\artwork\Favicon16x16.png"
             style="fill:none;stroke:#4d4d4d;stroke-width:6.80189567;stroke-linecap:butt;stroke-linejoin:round;stroke-miterlimit:4;stroke-dasharray:none;stroke-opacity:1"
             d="m 468.37781,-226.23404 c -2.16685,-5.39521 -7.56896,-12.20369 -15.37314,-17.99333 -6.82546,-5.06352 -20.58313,-10.31824 -30.52609,-12.19597 -0.6712,-0.12671 -2.48866,42.70647 0.91054,53.35043 12.73894,39.89044 40.87982,37.66846 43.78956,37.60881 11.03913,-0.22637 37.25197,-10.07325 42.49744,-30.10054 4.43892,-16.94786 1.93347,-56.74539 1.60997,-59.83385 -32.07609,2.8201 -40.26637,18.84415 -43.87281,29.16445"
             id="path5210"
             inkscape:connector-curvature="0"
             sodipodi:nodetypes="cssssscc" />
        </g>
      </g>
    </g>
  </g>
</svg>
