<svg width="512" height="512" viewBox="0 0 512 512" fill="none" xmlns="http://www.w3.org/2000/svg">
<g clip-path="url(#clip0_1255_348)">
<path d="M11.4792 5.125V211.625V418.146H39.4376H67.4167V226.687V35.2292H202.938H338.479V20.1667V5.125H174.979H11.4792ZM97.5209 65.3542V267.562V469.792H134.104H170.667V278.333V86.8542H293.292H415.917V76.1042V65.3542H256.729H97.5209ZM200.792 116.979V317.042V517.104H357.833H514.875V317.042V116.979H357.833H200.792ZM250.125 173.042C251.46 173.027 252.793 173.145 254.104 173.396C281.256 178.503 313.845 190.304 335.188 205.854C335.25 205.895 335.313 205.937 335.375 205.979C344.098 212.494 360.442 223.812 372.583 245.229C384.724 266.646 392.684 297.262 391.938 342.917L351.896 342.271C352.563 301.501 345.567 278.768 337.75 264.979C329.986 251.282 321.423 245.517 311.625 238.208C303.577 232.345 285.941 225.211 268.708 219.5C264.819 258.27 266.345 299.073 278.292 330.375C292.566 367.773 314.704 390.262 356.854 390.354C370.286 389.931 389.863 384.806 406 374.958C422.245 365.045 434.773 351.267 439.438 333.312C439.438 333.306 439.438 333.299 439.438 333.292C446.198 307.45 444.217 243.177 443.188 217.042C416.17 221.807 391.417 239.396 391.417 239.396L366.083 208.417C366.083 208.417 409.702 170.198 464.5 175.5C469.119 175.946 473.44 177.983 476.723 181.262C480.007 184.542 482.049 188.86 482.5 193.479C483.743 206.331 491.197 293.638 478.188 343.396V343.417C470.367 373.492 449.578 395.258 426.854 409.125C404.126 422.995 379.275 429.833 357.625 430.417C357.445 430.426 357.264 430.433 357.083 430.437C298.614 430.437 258.973 392.007 240.896 344.646C222.819 297.285 221.681 240.222 230.688 189.562C231.501 184.978 233.886 180.82 237.434 177.805C240.982 174.79 245.47 173.105 250.125 173.042Z" fill="#0C8597"/>
</g>
<defs>
<clipPath id="clip0_1255_348">
<rect width="512" height="512" fill="white"/>
</clipPath>
</defs>
</svg>
