<?xml version="1.0" encoding="UTF-8" standalone="no"?>
<!-- Created with Inkscape (http://www.inkscape.org/) -->

<svg
   xmlns:dc="http://purl.org/dc/elements/1.1/"
   xmlns:cc="http://creativecommons.org/ns#"
   xmlns:rdf="http://www.w3.org/1999/02/22-rdf-syntax-ns#"
   xmlns:svg="http://www.w3.org/2000/svg"
   xmlns="http://www.w3.org/2000/svg"
   xmlns:sodipodi="http://sodipodi.sourceforge.net/DTD/sodipodi-0.dtd"
   xmlns:inkscape="http://www.inkscape.org/namespaces/inkscape"
   width="7.5400748mm"
   height="9.6065788mm"
   viewBox="0 0 26.716801 34.039059"
   id="svg4592"
   version="1.1"
   inkscape:version="0.91 r13725"
   sodipodi:docname="book.svg">
  <defs
     id="defs4594" />
  <sodipodi:namedview
     id="base"
     pagecolor="#ffffff"
     bordercolor="#666666"
     borderopacity="1.0"
     inkscape:pageopacity="0.0"
     inkscape:pageshadow="2"
     inkscape:zoom="1.4"
     inkscape:cx="26.433824"
     inkscape:cy="-111.24631"
     inkscape:document-units="px"
     inkscape:current-layer="layer1"
     showgrid="false"
     fit-margin-top="0"
     fit-margin-left="0"
     fit-margin-right="0"
     fit-margin-bottom="0"
     inkscape:window-width="1920"
     inkscape:window-height="1147"
     inkscape:window-x="3832"
     inkscape:window-y="-8"
     inkscape:window-maximized="1" />
  <metadata
     id="metadata4597">
    <rdf:RDF>
      <cc:Work
         rdf:about="">
        <dc:format>image/svg+xml</dc:format>
        <dc:type
           rdf:resource="http://purl.org/dc/dcmitype/StillImage" />
        <dc:title></dc:title>
      </cc:Work>
    </rdf:RDF>
  </metadata>
  <g
     inkscape:label="Layer 1"
     inkscape:groupmode="layer"
     id="layer1"
     transform="translate(299.57394,391.92351)">
    <path
       id="path5146"
       d="m -299.57394,-391.92351 0,17.01953 0,17.01953 13.35742,0 13.35938,0 0,-17.01953 0,-17.01953 -13.35938,0 z"
       style="fill:#d65649;fill-opacity:1"
       inkscape:connector-curvature="0"
       sodipodi:nodetypes="ccccccccc" />
    <path
       style="color:#000000;font-style:normal;font-variant:normal;font-weight:normal;font-stretch:normal;font-size:medium;line-height:normal;font-family:sans-serif;text-indent:0;text-align:start;text-decoration:none;text-decoration-line:none;text-decoration-style:solid;text-decoration-color:#000000;letter-spacing:normal;word-spacing:normal;text-transform:none;direction:ltr;block-progression:tb;writing-mode:lr-tb;baseline-shift:baseline;text-anchor:start;white-space:normal;clip-rule:nonzero;display:inline;overflow:visible;visibility:visible;opacity:1;isolation:auto;mix-blend-mode:normal;color-interpolation:sRGB;color-interpolation-filters:linearRGB;solid-color:#000000;solid-opacity:1;fill:#4d4d4d;fill-opacity:1;fill-rule:nonzero;stroke:none;stroke-width:4.99355507;stroke-linecap:butt;stroke-linejoin:round;stroke-miterlimit:4;stroke-dasharray:none;stroke-dashoffset:0;stroke-opacity:1;color-rendering:auto;image-rendering:auto;shape-rendering:auto;text-rendering:auto;enable-background:accumulate"
       d="m -295.40413,-386.18823 a 1.7598043,1.7598043 0 0 0 -1.71922,1.44807 c -0.83156,4.62565 -0.71811,9.72606 0.88508,13.88734 0.80159,2.08065 2.00002,3.94592 3.72338,5.27745 1.72337,1.33152 3.96647,2.06052 6.50802,1.94359 2.72552,-0.12538 4.94342,-0.74819 6.67044,-1.9257 1.72702,-1.17752 2.87048,-2.88727 3.53481,-4.80394 1.32866,-3.83334 1.05724,-8.54799 0.75569,-13.93964 a 1.7598043,1.7598043 0 0 0 -1.91607,-1.65454 c -2.88593,0.26231 -4.85228,0.83034 -6.14187,1.37924 -1.28958,0.5489 -2.05509,1.23195 -2.05509,1.23195 l 0.20372,-0.17068 -0.31521,0.22574 2.04545,2.86447 0.3166,-0.22575 a 1.7598043,1.7598043 0 0 0 0.20371,-0.17068 c 0,0 0.0687,-0.12887 0.97869,-0.51618 0.64179,-0.27318 1.78956,-0.56903 3.21684,-0.81902 0.19841,4.41966 0.21357,8.24367 -0.61804,10.64299 -0.48022,1.38546 -1.14486,2.33538 -2.19137,3.04891 -1.0465,0.71352 -2.56809,1.21234 -4.84935,1.31729 -1.8162,0.0835 -3.11203,-0.37555 -4.19552,-1.21268 -1.08349,-0.83714 -1.9593,-2.11931 -2.59054,-3.75781 -1.06249,-2.75784 -1.31801,-6.45584 -0.94565,-10.00703 1.54146,0.51373 3.14559,1.16667 3.87893,1.6917 0.85916,0.64331 1.60897,1.14421 2.28634,2.33727 0.68316,1.20325 1.2944,3.19071 1.23058,6.76541 l 3.51967,0.0619 c 0.0715,-4.0053 -0.62514,-6.68838 -1.69032,-8.56448 -1.06519,-1.87611 -2.49957,-2.86472 -3.25539,-3.43158 a 1.7598043,1.7598043 0 0 0 -0.0289,-0.022 c -1.85594,-1.33392 -4.71944,-2.40512 -7.09577,-2.86998 a 1.7598043,1.7598043 0 0 0 -0.34963,-0.0317 z"
       id="path4229"
       inkscape:connector-curvature="0" />
  </g>
</svg>
