<?xml version="1.0" encoding="UTF-8" standalone="no"?>
<!-- Created with Inkscape (http://www.inkscape.org/) -->

<svg
   xmlns:dc="http://purl.org/dc/elements/1.1/"
   xmlns:cc="http://creativecommons.org/ns#"
   xmlns:rdf="http://www.w3.org/1999/02/22-rdf-syntax-ns#"
   xmlns:svg="http://www.w3.org/2000/svg"
   xmlns="http://www.w3.org/2000/svg"
   xmlns:sodipodi="http://sodipodi.sourceforge.net/DTD/sodipodi-0.dtd"
   xmlns:inkscape="http://www.inkscape.org/namespaces/inkscape"
   width="137.54805mm"
   height="89.852501mm"
   viewBox="0 0 137.54805 89.852503"
   version="1.1"
   id="svg8"
   inkscape:version="0.92.1 r15371"
   sodipodi:docname="credits-page.svg">
  <defs
     id="defs2">
    <clipPath
       id="clipPath4501"
       clipPathUnits="userSpaceOnUse">
      <path
         style="clip-rule:evenodd"
         inkscape:connector-curvature="0"
         id="path4499"
         d="M 0,0 H 612 V 792 H 0 Z" />
    </clipPath>
  </defs>
  <sodipodi:namedview
     id="base"
     pagecolor="#ffffff"
     bordercolor="#666666"
     borderopacity="1.0"
     inkscape:pageopacity="0.0"
     inkscape:pageshadow="2"
     inkscape:zoom="0.7"
     inkscape:cx="88.189057"
     inkscape:cy="307.88306"
     inkscape:document-units="mm"
     inkscape:current-layer="g4497"
     showgrid="false"
     fit-margin-top="0"
     fit-margin-left="0"
     fit-margin-right="0"
     fit-margin-bottom="0"
     inkscape:window-width="1839"
     inkscape:window-height="1177"
     inkscape:window-x="1912"
     inkscape:window-y="-8"
     inkscape:window-maximized="1" />
  <metadata
     id="metadata5">
    <rdf:RDF>
      <cc:Work
         rdf:about="">
        <dc:format>image/svg+xml</dc:format>
        <dc:type
           rdf:resource="http://purl.org/dc/dcmitype/StillImage" />
        <dc:title></dc:title>
      </cc:Work>
    </rdf:RDF>
  </metadata>
  <g
     inkscape:label="Layer 1"
     inkscape:groupmode="layer"
     id="layer1"
     transform="translate(88.002938,-178.95048)">
    <g
       transform="matrix(0.35277777,0,0,-0.35277777,-134.78631,288.53333)"
       inkscape:label="ToMasewalTlahtol logo"
       id="g4493">
      <g
         id="g4495">
        <g
           clip-path="url(#clipPath4501)"
           id="g4497">
          <g
             id="g4936"
             transform="translate(25.714286,-398.57144)">
            <path
               inkscape:connector-curvature="0"
               id="path4848"
               style="fill:#ffffff;fill-opacity:1;fill-rule:evenodd;stroke:none"
               d="m 476.6,576.1 c 0,60.4 -79.2,109.5 -177,109.5 v 0 c -97.7,0 -176.9,-49.1 -176.9,-109.5 v 0 c 0,-60.6 79.2,-109.6 176.9,-109.6 v 0 c 97.8,0 177,49 177,109.6 z" />
            <path
               inkscape:connector-curvature="0"
               id="path4850"
               style="fill:#000000;fill-opacity:1;fill-rule:evenodd;stroke:none"
               d="m 133.4,624.3 -0.8,0.7 c 0.5,0.6 0.8,1.2 1,1.7 v 0 c 0.3,0.4 0.4,0.8 0.5,1.1 v 0 c 0.1,0.3 0.2,0.6 0.2,0.8 v 0 c 0,0.2 -0.1,0.3 -0.2,0.3 v 0 l -18.5,17.1 -5,-5 v 0 c -0.2,-0.2 -0.3,-0.4 -0.4,-0.6 v 0 c 0,-0.2 -0.1,-0.5 0,-0.8 v 0 c 0.1,-0.3 0.2,-0.8 0.4,-1.3 v 0 c 0.3,-0.6 0.6,-1.3 1.1,-2.2 v 0 l -1.1,-0.4 c -0.6,0.7 -1.3,1.4 -2,2.3 v 0 c -0.7,0.8 -1.3,1.6 -1.7,2.3 v 0 l 16.9,17.1 1,0.1 v 0 c 0.5,-0.6 1.1,-1.3 1.7,-2 v 0 c 0.7,-0.8 1.3,-1.5 1.9,-2.3 v 0 l -0.8,-0.8 c -0.7,0.4 -1.2,0.7 -1.7,1 v 0 c -0.4,0.3 -0.8,0.4 -1.2,0.6 v 0 c -0.4,0 -0.7,0.1 -0.9,0 v 0 c -0.2,0 -0.5,-0.2 -0.7,-0.4 v 0 l -4.8,-4.8 18.5,-17.1 v 0 c 0.2,-0.2 0.5,-0.1 1.2,0 v 0 c 0.6,0.2 1.5,0.8 2.8,1.5 v 0 l 0.8,-0.6 z" />
            <path
               inkscape:connector-curvature="0"
               id="path4852"
               style="fill:#000000;fill-opacity:1;fill-rule:evenodd;stroke:none"
               d="m 156.8,655.5 c -0.7,1 -1.4,1.9 -2.4,2.6 v 0 c -1,0.8 -2,1.3 -3,1.7 v 0 c -1.1,0.4 -2.1,0.6 -3.1,0.6 v 0 c -1,0 -1.8,-0.2 -2.5,-0.6 v 0 c -1,-0.6 -1.8,-1.4 -2.3,-2.2 v 0 c -0.5,-0.8 -0.7,-1.7 -0.7,-2.6 v 0 c 0,-0.9 0.2,-1.9 0.6,-3 v 0 c 0.4,-1 0.9,-2 1.6,-3.1 v 0 c 0.7,-1 1.5,-1.9 2.5,-2.7 v 0 c 1,-0.7 2,-1.2 3,-1.6 v 0 c 1.2,-0.4 2.1,-0.6 3.1,-0.6 v 0 c 1,0 1.8,0.2 2.4,0.6 v 0 c 1,0.6 1.7,1.2 2.2,2 v 0 c 0.5,0.8 0.7,1.6 0.8,2.6 v 0 c 0,0.9 -0.1,1.8 -0.5,2.9 v 0 c -0.4,1.1 -0.9,2.2 -1.7,3.4 z m 2.8,2.5 c 0.6,-0.9 1,-1.9 1.4,-2.9 v 0 c 0.2,-1 0.5,-2 0.5,-3 v 0 c 0.1,-1 0,-2 -0.1,-3 v 0 c -0.2,-1 -0.4,-1.9 -0.9,-2.8 v 0 c -0.4,-0.9 -0.9,-1.7 -1.5,-2.4 v 0 c -0.6,-0.7 -1.4,-1.3 -2.2,-1.9 v 0 c -1.3,-0.7 -2.6,-1.2 -4,-1.3 v 0 c -1.3,-0.2 -2.7,0 -4,0.3 v 0 c -1.3,0.4 -2.5,1.1 -3.6,2 v 0 c -1.1,0.9 -2.2,2 -3,3.4 v 0 c -0.6,0.9 -1,1.8 -1.3,2.8 v 0 c -0.4,1 -0.6,1.9 -0.6,3 v 0 c -0.1,1 -0.1,2 0.1,3 v 0 c 0.1,1 0.4,1.9 0.9,2.8 v 0 c 0.3,0.9 0.8,1.7 1.4,2.4 v 0 c 0.7,0.8 1.5,1.4 2.3,1.9 v 0 c 1.3,0.8 2.6,1.2 4,1.4 v 0 c 1.3,0.1 2.7,0 4,-0.4 v 0 c 1.3,-0.4 2.5,-1 3.6,-2 v 0 c 1.2,-0.9 2.2,-2 3,-3.3 z" />
            <path
               inkscape:connector-curvature="0"
               id="path4854"
               style="fill:#000000;fill-opacity:1;fill-rule:evenodd;stroke:none"
               d="m 192.1,689.2 c -0.4,-0.2 -0.9,-0.4 -1.4,-0.8 v 0 c -0.5,-0.3 -0.9,-0.7 -1.4,-1.1 v 0 l 9.6,-23.6 c 0,-0.1 0.4,-0.2 1.1,-0.4 v 0 c 0.6,0 1.5,0.1 2.6,0.3 v 0 l 0.4,-0.9 -10.2,-3.9 -0.5,1 v 0 c 1,0.6 1.8,1.2 2.3,1.6 v 0 c 0.5,0.5 0.8,0.9 0.7,1.1 v 0 l -8.2,20.4 -1,-26.5 -1.1,-0.4 -19,18.9 7.8,-20.4 v 0 c 0,-0.2 0.4,-0.3 1,-0.3 v 0 c 0.7,-0.1 1.6,0 2.8,0.2 v 0 l 0.4,-1 -9.2,-3.3 -0.4,0.9 v 0 c 1,0.6 1.7,1.1 2.2,1.5 v 0 c 0.5,0.5 0.6,0.9 0.6,1 v 0 l -9.1,23.6 c -0.6,0.2 -1.3,0.2 -2,0.1 v 0 c -0.6,-0.1 -1.2,-0.2 -1.6,-0.3 v 0 l -0.3,0.8 6.4,2.5 v 0 c 0.1,0 0.3,0 0.5,0 v 0 c 0.1,0 0.2,0 0.3,-0.1 v 0 c 0.2,-0.1 0.4,-0.2 0.6,-0.5 v 0 c 0.2,-0.2 0.5,-0.4 0.8,-0.8 v 0 l 16.8,-16.4 0.9,23 v 0 c 0,0.5 0,0.9 0.1,1.2 v 0 c 0,0.3 0,0.5 0.1,0.7 v 0 c 0.1,0.1 0.1,0.2 0.2,0.2 v 0 c 0.1,0.1 0.2,0.2 0.3,0.2 v 0 l 6.5,2.4 z" />
            <path
               inkscape:connector-curvature="0"
               id="path4856"
               style="fill:#000000;fill-opacity:1;fill-rule:evenodd;stroke:none"
               d="m 212.8,666.9 c 1,0.2 1.9,0.7 2.9,1.4 v 0 c 0.9,0.7 1.9,1.7 2.8,3 v 0 l -1.5,5.9 c -1.2,-0.5 -2.3,-1 -3.1,-1.4 v 0 c -0.8,-0.3 -1.4,-0.8 -1.9,-1 v 0 c -0.6,-0.4 -0.9,-0.7 -1.2,-1 v 0 c -0.3,-0.3 -0.5,-0.6 -0.7,-1 v 0 c -0.3,-0.5 -0.5,-1 -0.6,-1.6 v 0 c -0.2,-0.6 -0.1,-1.2 0.1,-1.9 v 0 c 0.1,-0.6 0.3,-1.1 0.6,-1.5 v 0 c 0.3,-0.3 0.6,-0.6 0.9,-0.7 v 0 c 0.3,-0.2 0.6,-0.2 0.9,-0.2 v 0 c 0.4,0 0.6,0 0.8,0 z m 13.7,2.8 c -1.1,-1.2 -2.1,-2.2 -2.9,-2.8 v 0 c -0.7,-0.6 -1.3,-0.9 -1.8,-1 v 0 c -0.4,-0.1 -1,0.1 -1.5,0.7 v 0 c -0.5,0.6 -1,1.6 -1.3,2.8 v 0 c -0.5,-0.8 -1.1,-1.6 -1.7,-2.3 v 0 c -0.6,-0.7 -1.2,-1.3 -1.8,-1.8 v 0 c -0.5,-0.3 -1.1,-0.8 -1.7,-1.1 v 0 c -0.6,-0.3 -1.1,-0.5 -1.6,-0.6 v 0 c -0.6,-0.1 -1.2,-0.2 -1.8,-0.1 v 0 c -0.7,0 -1.3,0.2 -1.9,0.5 v 0 c -0.6,0.3 -1,0.6 -1.5,1.2 v 0 c -0.5,0.6 -0.9,1.3 -1.1,2.1 v 0 c -0.2,1.3 -0.3,2.2 0,3.1 v 0 c 0.1,0.9 0.5,1.7 0.9,2.4 v 0 c 0.3,0.5 0.7,0.9 1,1.3 v 0 c 0.4,0.5 1,0.9 1.7,1.4 v 0 c 0.7,0.5 1.7,1 2.8,1.6 v 0 c 1.1,0.5 2.5,1.1 4.3,1.9 v 0 l -0.8,3.2 c -0.1,0.5 -0.3,1 -0.6,1.3 v 0 c -0.2,0.4 -0.5,0.8 -0.9,1.1 v 0 c -0.3,0.3 -0.8,0.4 -1.4,0.4 v 0 c -0.6,0.1 -1.2,0 -1.9,-0.1 v 0 c -0.6,-0.2 -1.1,-0.4 -1.5,-0.6 v 0 c -0.5,-0.4 -0.8,-0.6 -1.1,-1 v 0 c -0.3,-0.4 -0.5,-0.7 -0.6,-1.1 v 0 c -0.2,-0.5 -0.1,-0.9 0.1,-1.4 v 0 c 0,-0.1 -0.1,-0.3 -0.4,-0.6 v 0 c -0.3,-0.2 -0.7,-0.5 -1.1,-0.7 v 0 c -0.4,-0.3 -0.9,-0.5 -1.3,-0.7 v 0 c -0.4,-0.2 -0.8,-0.2 -0.9,-0.2 v 0 l -0.6,0.8 c 0.2,0.8 0.6,1.7 1.1,2.6 v 0 c 0.6,0.9 1.3,1.7 2.1,2.4 v 0 c 0.8,0.8 1.7,1.4 2.7,2 v 0 c 1,0.5 2,1 3,1.2 v 0 c 1.7,0.4 3.2,0.2 4.3,-0.4 v 0 c 1.1,-0.6 1.9,-1.8 2.3,-3.3 v 0 l 3.2,-12.9 c 0.2,-0.6 0.4,-1.1 0.6,-1.3 v 0 c 0.2,-0.3 0.6,-0.3 0.9,-0.3 v 0 c 0.1,0.1 0.4,0.3 0.7,0.4 v 0 c 0.4,0.1 0.8,0.5 1.4,0.8 v 0 z" />
            <path
               inkscape:connector-curvature="0"
               id="path4858"
               style="fill:#000000;fill-opacity:1;fill-rule:evenodd;stroke:none"
               d="m 242.9,677.1 c 0.2,-1 0.2,-2 0,-2.8 v 0 c -0.1,-0.9 -0.5,-1.6 -0.9,-2.3 v 0 c -0.4,-0.6 -0.9,-1.1 -1.4,-1.5 v 0 c -0.5,-0.4 -1.2,-0.8 -1.8,-1 v 0 c -0.5,-0.3 -1.1,-0.5 -1.6,-0.6 v 0 c -0.5,-0.2 -1,-0.3 -1.2,-0.3 v 0 c -0.8,-0.2 -1.7,-0.2 -2.9,-0.1 v 0 c -1.1,0.1 -2.3,0.4 -3.4,0.7 v 0 c -0.2,0.1 -0.3,0.3 -0.4,0.7 v 0 c -0.1,0.5 -0.2,1 -0.3,1.6 v 0 c -0.1,0.6 -0.2,1.2 -0.2,1.8 v 0 c 0,0.7 0,1.1 0,1.5 v 0 l 1.1,-0.1 c 0.1,-0.6 0.4,-1.2 0.9,-1.7 v 0 c 0.4,-0.5 1,-1 1.6,-1.3 v 0 c 0.6,-0.3 1.2,-0.6 2,-0.7 v 0 c 0.7,-0.1 1.6,-0.1 2.3,0 v 0 c 0.6,0.1 1.1,0.3 1.6,0.6 v 0 c 0.4,0.2 0.8,0.6 1.1,0.9 v 0 c 0.3,0.4 0.5,0.8 0.7,1.3 v 0 c 0,0.5 0,1 0,1.6 v 0 c -0.2,0.5 -0.4,1.1 -0.9,1.5 v 0 c -0.4,0.4 -0.9,0.8 -1.6,1 v 0 c -0.6,0.4 -1.3,0.6 -2.1,0.9 v 0 c -0.8,0.2 -1.5,0.4 -2.3,0.7 v 0 c -0.7,0.2 -1.4,0.4 -2.1,0.7 v 0 c -0.8,0.3 -1.4,0.6 -1.9,1 v 0 c -0.6,0.4 -1.1,0.8 -1.5,1.3 v 0 c -0.4,0.6 -0.7,1.2 -0.8,1.9 v 0 c -0.1,1 -0.1,1.8 0.1,2.7 v 0 c 0.3,0.8 0.8,1.5 1.3,2.1 v 0 c 0.6,0.6 1.2,1.2 2,1.5 v 0 c 0.9,0.4 1.7,0.8 2.7,0.9 v 0 c 0.5,0.1 1,0.1 1.6,0.1 v 0 c 0.6,0 1.2,0 1.8,0 v 0 c 0.7,-0.1 1.2,-0.2 1.8,-0.3 v 0 c 0.6,-0.1 1,-0.3 1.4,-0.5 v 0 c 0.1,-0.1 0.2,-0.3 0.2,-0.6 v 0 c 0,-0.3 -0.1,-0.8 -0.2,-1.2 v 0 c -0.1,-0.3 -0.2,-0.8 -0.3,-1.1 v 0 c -0.1,-0.4 -0.2,-0.6 -0.3,-0.8 v 0 l -0.9,0.1 c -1,0.9 -2,1.6 -2.9,1.9 v 0 c -0.9,0.3 -1.7,0.3 -2.5,0.2 v 0 c -0.5,0 -0.9,-0.2 -1.4,-0.5 v 0 c -0.3,-0.2 -0.7,-0.5 -1,-0.8 v 0 c -0.2,-0.3 -0.3,-0.7 -0.4,-1 v 0 c -0.2,-0.3 -0.2,-0.7 -0.1,-1 v 0 c 0.1,-0.5 0.3,-0.9 0.7,-1.2 v 0 c 0.4,-0.4 0.9,-0.7 1.4,-1 v 0 c 0.6,-0.2 1.2,-0.5 1.9,-0.7 v 0 c 0.7,-0.2 1.4,-0.4 2.1,-0.6 v 0 c 0.8,-0.3 1.5,-0.5 2.3,-0.8 v 0 c 0.8,-0.2 1.5,-0.6 2.1,-1 v 0 c 0.6,-0.4 1.3,-0.9 1.7,-1.5 v 0 c 0.4,-0.6 0.8,-1.3 0.9,-2.2 z" />
            <path
               inkscape:connector-curvature="0"
               id="path4860"
               style="fill:#000000;fill-opacity:1;fill-rule:evenodd;stroke:none"
               d="m 255.9,692.2 c -0.8,-0.1 -1.5,-0.3 -2.3,-0.7 v 0 c -0.6,-0.4 -1.2,-0.9 -1.7,-1.5 v 0 c -0.5,-0.6 -0.8,-1.4 -1.1,-2.2 v 0 c -0.2,-0.8 -0.4,-1.7 -0.4,-2.7 v 0 l 10.3,1.1 c 0.4,0.1 0.6,0.1 0.7,0.2 v 0 c 0.2,0.2 0.2,0.5 0.2,0.8 v 0 c -0.1,0.4 -0.2,0.9 -0.5,1.5 v 0 c -0.1,0.7 -0.5,1.3 -0.9,1.8 v 0 c -0.4,0.6 -1,1 -1.7,1.4 v 0 c -0.7,0.3 -1.5,0.5 -2.6,0.3 z m 9.8,-6 c -0.3,-0.4 -0.6,-0.7 -1.1,-1 v 0 c -0.4,-0.3 -0.9,-0.5 -1.4,-0.9 v 0 L 250.5,683 c 0.1,-1.2 0.4,-2.3 0.9,-3.4 v 0 c 0.4,-1.1 1,-2 1.8,-2.8 v 0 c 0.7,-0.7 1.4,-1.3 2.4,-1.7 v 0 c 1,-0.4 2,-0.6 3.1,-0.5 v 0 c 0.4,0.1 0.9,0.2 1.4,0.3 v 0 c 0.5,0.1 1,0.3 1.5,0.6 v 0 c 0.5,0.3 1.1,0.6 1.7,1.1 v 0 c 0.6,0.5 1.3,1.2 2.2,2 v 0 c 0.2,-0.1 0.4,-0.2 0.6,-0.4 v 0 c 0.2,-0.2 0.3,-0.3 0.4,-0.5 v 0 c -1,-1.2 -1.8,-2.2 -2.5,-3.1 v 0 c -0.8,-0.7 -1.5,-1.3 -2.2,-1.7 v 0 c -0.7,-0.5 -1.3,-0.8 -2.1,-1 v 0 c -0.6,-0.2 -1.3,-0.4 -2.2,-0.4 v 0 c -1.2,-0.1 -2.4,0 -3.6,0.4 v 0 c -1.2,0.4 -2.3,1 -3.2,1.8 v 0 c -1,0.9 -1.8,1.9 -2.4,3.2 v 0 c -0.7,1.3 -1.1,2.8 -1.3,4.4 v 0 c -0.1,1.1 -0.1,2.1 0,3.2 v 0 c 0.1,1 0.4,1.9 0.7,2.9 v 0 c 0.4,1 0.9,1.9 1.4,2.7 v 0 c 0.6,0.9 1.3,1.6 2,2.3 v 0 c 0.3,0.2 0.7,0.5 1.2,0.7 v 0 c 0.4,0.3 0.9,0.6 1.3,0.8 v 0 c 0.4,0.2 0.9,0.4 1.3,0.6 v 0 c 0.5,0.1 1,0.2 1.4,0.2 v 0 c 1.1,0.2 2,0.1 2.8,-0.1 v 0 c 0.9,-0.1 1.7,-0.5 2.3,-0.9 v 0 c 0.7,-0.4 1.3,-0.9 1.8,-1.5 v 0 c 0.5,-0.6 0.9,-1.2 1.2,-1.8 v 0 c 0.4,-0.7 0.7,-1.4 0.8,-2.1 v 0 c 0.3,-0.8 0.4,-1.4 0.5,-2.1 z" />
            <path
               inkscape:connector-curvature="0"
               id="path4862"
               style="fill:#000000;fill-opacity:1;fill-rule:evenodd;stroke:none"
               d="m 302.9,695.6 c -0.5,-0.1 -0.9,-0.3 -1.1,-0.4 v 0 c -0.3,-0.1 -0.6,-0.2 -0.8,-0.3 v 0 c -0.1,-0.1 -0.2,-0.2 -0.3,-0.4 v 0 c -0.1,-0.1 -0.1,-0.2 -0.1,-0.5 v 0 l -4.8,-18.1 c 0,-0.3 -0.3,-0.6 -0.5,-0.9 v 0 c -0.3,-0.3 -0.6,-0.4 -0.9,-0.6 v 0 c -0.4,-0.2 -0.7,-0.3 -1,-0.4 v 0 c -0.3,-0.2 -0.6,-0.2 -0.8,-0.3 v 0 l -6.4,15.7 -4.4,-14 v 0 c -0.2,-0.3 -0.3,-0.7 -0.6,-0.9 v 0 c -0.3,-0.3 -0.6,-0.4 -0.9,-0.6 v 0 c -0.3,-0.2 -0.6,-0.4 -0.9,-0.4 v 0 c -0.4,-0.2 -0.6,-0.2 -0.8,-0.3 v 0 l -7.1,19.9 c -0.1,0.6 -1,1 -2.6,1.3 v 0 l -0.1,1.1 9.4,0.3 v -1.1 0 c -0.8,0 -1.4,-0.1 -1.9,-0.3 v 0 c -0.4,-0.1 -0.7,-0.2 -0.9,-0.4 v 0 c -0.2,-0.1 -0.2,-0.2 -0.3,-0.4 v 0 c 0,-0.1 0.1,-0.2 0.1,-0.4 v 0 l 5.1,-14.8 5.3,17.6 h 1.8 l 6.9,-17.1 3.6,15 v 0 c 0.1,0.4 -0.1,0.7 -0.5,0.9 v 0 c -0.4,0.2 -1.2,0.4 -2.4,0.5 v 0 1 l 7.9,0.3 z" />
            <path
               inkscape:connector-curvature="0"
               id="path4864"
               style="fill:#000000;fill-opacity:1;fill-rule:evenodd;stroke:none"
               d="m 312.1,676.6 c 0.9,-0.1 2,0.2 3.1,0.6 v 0 c 1.1,0.4 2.3,1.1 3.5,2.1 v 0 l 0.3,6.1 c -1.4,-0.2 -2.5,-0.3 -3.4,-0.5 v 0 c -0.9,-0.2 -1.6,-0.4 -2.2,-0.6 v 0 c -0.5,-0.2 -1,-0.4 -1.4,-0.6 v 0 c -0.4,-0.2 -0.6,-0.4 -0.9,-0.7 v 0 c -0.4,-0.4 -0.8,-0.9 -1.1,-1.4 v 0 c -0.3,-0.5 -0.4,-1.2 -0.5,-1.9 v 0 c 0,-0.7 0.1,-1.1 0.3,-1.5 v 0 c 0.1,-0.4 0.4,-0.8 0.6,-1 v 0 c 0.4,-0.3 0.6,-0.4 0.9,-0.5 v 0 c 0.3,0 0.5,-0.1 0.8,-0.1 z m 13.9,-1 c -1.4,-0.8 -2.6,-1.5 -3.5,-1.8 v 0 c -0.9,-0.4 -1.6,-0.6 -2.1,-0.6 v 0 c -0.5,0 -0.9,0.4 -1.2,1.2 v 0 c -0.4,0.7 -0.5,1.7 -0.5,3 v 0 c -0.8,-0.7 -1.5,-1.3 -2.3,-1.8 v 0 c -0.7,-0.5 -1.4,-0.9 -2.2,-1.2 v 0 c -0.7,-0.3 -1.3,-0.5 -2,-0.6 v 0 c -0.6,-0.1 -1.2,-0.2 -1.7,-0.2 v 0 c -0.6,0 -1.2,0.1 -1.8,0.4 v 0 c -0.6,0.1 -1.2,0.5 -1.6,0.9 v 0 c -0.5,0.4 -0.9,1 -1.2,1.6 v 0 c -0.3,0.6 -0.4,1.4 -0.4,2.4 v 0 c 0.1,1.1 0.3,2.1 0.8,2.9 v 0 c 0.5,0.8 1,1.5 1.6,2 v 0 c 0.4,0.3 0.8,0.7 1.3,1 v 0 c 0.6,0.3 1.2,0.6 2.1,0.9 v 0 c 0.8,0.3 1.8,0.6 3.1,0.8 v 0 c 1.2,0.2 2.8,0.4 4.6,0.7 v 0 l 0.2,3.3 c 0,0.5 0,1 -0.2,1.5 v 0 c -0.1,0.4 -0.3,0.8 -0.6,1.2 v 0 c -0.3,0.4 -0.7,0.6 -1.2,0.7 v 0 c -0.5,0.3 -1.2,0.4 -2,0.4 v 0 c -0.4,0 -1,0 -1.5,-0.2 v 0 c -0.5,-0.2 -0.9,-0.3 -1.3,-0.5 v 0 c -0.4,-0.4 -0.7,-0.7 -0.9,-1.1 v 0 c -0.3,-0.3 -0.3,-0.8 -0.3,-1.2 v 0 c 0,-0.2 -0.2,-0.3 -0.6,-0.5 v 0 c -0.3,-0.1 -0.7,-0.3 -1.2,-0.5 v 0 c -0.5,-0.1 -1,-0.1 -1.4,-0.2 v 0 c -0.5,0 -0.8,0 -1,0 v 0 l -0.3,0.9 c 0.4,0.8 1,1.5 1.7,2.2 v 0 c 0.9,0.7 1.7,1.3 2.8,1.8 v 0 c 1,0.5 2,0.9 3.1,1.2 v 0 c 1.1,0.3 2.2,0.4 3.2,0.4 v 0 c 1.8,-0.1 3.2,-0.6 4.1,-1.5 v 0 c 1,-1 1.4,-2.2 1.3,-3.8 v 0 L 322.4,678 c 0,-0.6 0,-1.1 0.2,-1.4 v 0 c 0.1,-0.3 0.4,-0.4 0.7,-0.4 v 0 c 0.2,0 0.5,0 0.9,0 v 0 c 0.3,0.1 0.8,0.3 1.5,0.5 v 0 z" />
            <path
               inkscape:connector-curvature="0"
               id="path4866"
               style="fill:#000000;fill-opacity:1;fill-rule:evenodd;stroke:none"
               d="m 327.7,673.5 v 1 c 0.8,0.1 1.3,0.1 1.8,0.2 v 0 c 0.5,0.1 0.9,0.2 1.2,0.2 v 0 c 0.3,0.1 0.4,0.3 0.6,0.4 v 0 c 0.1,0.1 0.2,0.2 0.2,0.3 v 0 l 2.5,27.9 c 0.1,0.7 0.1,1.3 0,1.6 v 0 c -0.1,0.4 -0.2,0.8 -0.4,0.9 v 0 c -0.3,0.3 -0.6,0.5 -1.1,0.5 v 0 c -0.4,0.1 -0.9,0.3 -1.6,0.4 v 0 l 0.1,0.9 c 1.1,0.2 2.3,0.3 3.2,0.5 v 0 c 1.1,0.2 2,0.5 3.1,0.9 v 0 l 0.8,-0.9 -3,-32.9 v 0 c 0,-0.3 0.3,-0.6 0.8,-0.8 v 0 c 0.6,-0.3 1.5,-0.7 2.8,-1 v 0 l -0.1,-1 z" />
            <path
               inkscape:connector-curvature="0"
               id="path4868"
               style="fill:#000000;fill-opacity:1;fill-rule:evenodd;stroke:none"
               d="m 347,671.7 0.2,1 c 0.7,0 1.4,0 1.9,0.2 v 0 c 0.5,0 0.9,0.2 1.3,0.2 v 0 c 0.3,0.1 0.5,0.2 0.7,0.4 v 0 c 0.1,0.1 0.3,0.2 0.3,0.3 v 0 l 3.6,24.5 -7.2,1 v 0 c -0.2,0 -0.5,0 -0.7,0 v 0 c -0.2,-0.1 -0.4,-0.2 -0.7,-0.4 v 0 c -0.2,-0.4 -0.4,-0.7 -0.8,-1.2 v 0 c -0.4,-0.5 -0.8,-1.2 -1.3,-2 v 0 l -0.9,0.6 c 0.2,0.9 0.4,1.8 0.8,2.8 v 0 c 0.3,1 0.5,2 0.9,2.7 v 0 l 24.2,-3.3 0.6,-0.7 v 0 c -0.1,-0.8 -0.3,-1.7 -0.6,-2.5 v 0 c -0.3,-1 -0.6,-1.9 -0.9,-2.9 v 0 l -1.1,0.2 c 0,0.7 -0.1,1.3 -0.1,1.9 v 0 c -0.1,0.5 -0.2,0.9 -0.3,1.2 v 0 c -0.1,0.4 -0.2,0.7 -0.5,0.8 v 0 c -0.1,0.2 -0.4,0.3 -0.7,0.4 v 0 l -6.8,0.9 -3.7,-24.5 v 0 c 0,-0.2 0.2,-0.6 0.8,-0.9 v 0 c 0.5,-0.4 1.5,-0.8 3,-1.3 v 0 l -0.2,-1 z" />
            <path
               inkscape:connector-curvature="0"
               id="path4870"
               style="fill:#000000;fill-opacity:1;fill-rule:evenodd;stroke:none"
               d="m 368.2,668.5 0.1,1 c 0.7,0 1.3,-0.1 1.8,0 v 0 c 0.5,0 0.9,0 1.2,0.1 v 0 c 0.3,0 0.5,0.1 0.6,0.2 v 0 c 0.2,0.1 0.3,0.3 0.3,0.4 v 0 l 5.9,27.4 c 0.2,0.7 0.2,1.2 0.2,1.6 v 0 c 0,0.4 -0.2,0.7 -0.3,1 v 0 c -0.3,0.2 -0.6,0.4 -1,0.6 v 0 c -0.4,0.1 -1,0.3 -1.6,0.5 v 0 l 0.2,0.9 c 1.2,0 2.3,0 3.3,0.1 v 0 c 1,0.1 2,0.3 3.1,0.6 v 0 l 0.7,-1 -6.9,-32.4 v 0 c -0.1,-0.3 0.2,-0.6 0.7,-0.9 v 0 c 0.5,-0.4 1.3,-0.8 2.5,-1.2 v 0 l -0.1,-1.1 z" />
            <path
               inkscape:connector-curvature="0"
               id="path4872"
               style="fill:#000000;fill-opacity:1;fill-rule:evenodd;stroke:none"
               d="m 388.9,666.4 c 0.9,-0.3 1.9,-0.3 3.1,-0.1 v 0 c 1.2,0.2 2.5,0.6 4,1.3 v 0 l 1.6,5.9 c -1.3,0.1 -2.4,0.2 -3.4,0.2 v 0 c -0.9,0.1 -1.6,0 -2.2,-0.1 v 0 c -0.6,0 -1.2,-0.1 -1.5,-0.3 v 0 c -0.4,-0.1 -0.8,-0.3 -1.1,-0.5 v 0 c -0.5,-0.3 -1,-0.6 -1.4,-1.1 v 0 c -0.3,-0.4 -0.6,-1 -0.9,-1.8 v 0 c -0.1,-0.6 -0.1,-1 -0.1,-1.5 v 0 c 0.1,-0.4 0.2,-0.8 0.4,-1.1 v 0 c 0.3,-0.2 0.4,-0.5 0.7,-0.6 v 0 c 0.3,-0.2 0.5,-0.3 0.8,-0.3 z m 13.3,-3.9 c -1.6,-0.6 -2.9,-1 -3.8,-1.1 v 0 c -1,-0.2 -1.7,-0.2 -2.2,-0.1 v 0 c -0.5,0.1 -0.8,0.6 -0.9,1.4 v 0 c -0.2,0.8 -0.1,1.7 0.2,3 v 0 c -0.9,-0.5 -1.7,-0.9 -2.6,-1.2 v 0 c -0.9,-0.3 -1.7,-0.5 -2.4,-0.7 v 0 c -0.8,-0.2 -1.5,-0.2 -2.2,-0.2 v 0 c -0.6,0 -1.2,0 -1.7,0.2 v 0 c -0.5,0.2 -1.1,0.4 -1.6,0.8 v 0 c -0.6,0.2 -1,0.7 -1.4,1.2 v 0 c -0.4,0.5 -0.6,1.1 -0.7,1.8 v 0 c -0.1,0.7 -0.1,1.5 0.1,2.4 v 0 c 0.4,1.2 0.8,2 1.4,2.7 v 0 c 0.7,0.7 1.3,1.2 2.1,1.7 v 0 c 0.5,0.2 1,0.4 1.6,0.6 v 0 c 0.5,0.2 1.2,0.4 2.1,0.5 v 0 c 0.9,0.1 2,0.1 3.2,0.1 v 0 c 1.3,-0.1 2.9,-0.2 4.7,-0.4 v 0 l 0.9,3.2 c 0.2,0.4 0.3,0.9 0.3,1.4 v 0 c 0,0.5 -0.2,1 -0.3,1.3 v 0 c -0.3,0.5 -0.6,0.8 -1,1.1 v 0 c -0.5,0.3 -1.1,0.6 -1.9,0.7 v 0 c -0.5,0.2 -1,0.2 -1.5,0.2 v 0 c -0.6,0 -1,-0.1 -1.4,-0.3 v 0 c -0.5,-0.2 -0.9,-0.4 -1.2,-0.8 v 0 c -0.3,-0.3 -0.5,-0.6 -0.6,-1.1 v 0 c 0,-0.1 -0.2,-0.2 -0.6,-0.4 v 0 c -0.4,0 -0.8,-0.1 -1.3,-0.1 v 0 c -0.5,0 -1,0 -1.5,0.1 v 0 c -0.4,0 -0.8,0 -0.9,0.2 v 0 l -0.1,0.9 c 0.6,0.7 1.3,1.3 2.2,1.7 v 0 c 1,0.5 2,1 3.1,1.3 v 0 c 1.1,0.2 2.2,0.4 3.4,0.4 v 0 c 1.1,0 2.2,-0.1 3.2,-0.3 v 0 c 1.6,-0.5 2.8,-1.3 3.6,-2.4 v 0 c 0.6,-1.1 0.7,-2.4 0.3,-4 v 0 l -3.6,-12.7 c -0.2,-0.7 -0.2,-1.2 -0.1,-1.5 v 0 c 0.1,-0.3 0.3,-0.5 0.6,-0.6 v 0 c 0.2,0 0.5,0 0.8,-0.1 v 0 c 0.4,0 0.9,0.1 1.7,0.1 v 0 z" />
            <path
               inkscape:connector-curvature="0"
               id="path4874"
               style="fill:#000000;fill-opacity:1;fill-rule:evenodd;stroke:none"
               d="m 417.2,655 0.4,0.9 c 1.2,-0.1 2.1,-0.2 2.7,-0.2 v 0 c 0.6,0 0.9,0.2 1,0.4 v 0 l 4.7,11.6 c 0.3,0.9 0.5,1.6 0.6,2.2 v 0 c 0.2,0.6 0.2,1.1 0,1.5 v 0 c -0.1,0.4 -0.3,0.8 -0.6,1 v 0 c -0.3,0.2 -0.7,0.5 -1.2,0.7 v 0 c -0.6,0.1 -1.2,0.2 -1.9,0.2 v 0 c -0.7,-0.1 -1.5,-0.2 -2.4,-0.5 v 0 c -0.8,-0.2 -1.7,-0.6 -2.8,-1.1 v 0 c -0.9,-0.5 -1.9,-1.2 -3,-1.9 v 0 l -3.9,-9.8 c -0.1,-0.2 0.1,-0.5 0.6,-1 v 0 c 0.4,-0.4 1.1,-1 2,-1.5 v 0 l -0.4,-1 -9.7,3.7 0.4,0.9 v 0 c 1.1,-0.1 2,-0.2 2.6,-0.2 v 0 c 0.6,0 1,0.1 1.1,0.4 v 0 l 10.5,26.1 c 0.2,0.6 0.4,1.1 0.5,1.5 v 0 c 0,0.3 0,0.7 -0.2,0.9 v 0 c -0.1,0.3 -0.3,0.6 -0.7,0.8 v 0 c -0.4,0.3 -1,0.5 -1.7,0.9 v 0 l 0.4,0.8 c 0.7,-0.1 1.3,-0.1 1.9,-0.2 v 0 c 0.5,-0.1 1.1,-0.2 1.6,-0.2 v 0 c 0.5,0 1,0 1.4,0 v 0 c 0.5,0 1,0 1.5,0.1 v 0 l 0.6,-1.1 -7.3,-18.2 v 0 c 1,0.7 2,1.3 3.1,1.7 v 0 c 1.2,0.5 2.2,0.8 3.2,1 v 0 c 1,0.2 2,0.4 2.8,0.4 v 0 c 0.9,0 1.6,-0.2 2.2,-0.4 v 0 c 0.6,-0.2 1.2,-0.5 1.8,-1 v 0 c 0.5,-0.4 0.9,-0.9 1.2,-1.5 v 0 c 0.3,-0.5 0.5,-1.2 0.5,-1.9 v 0 c 0.1,-0.7 -0.1,-1.4 -0.4,-2.3 v 0 l -5.6,-13.9 c 0,-0.2 0.1,-0.5 0.4,-0.8 v 0 c 0.5,-0.4 1.2,-1 2.3,-1.7 v 0 l -0.4,-1 z" />
            <path
               inkscape:connector-curvature="0"
               id="path4876"
               style="fill:#000000;fill-opacity:1;fill-rule:evenodd;stroke:none"
               d="m 443.4,645.9 c -0.9,-0.1 -1.9,-0.3 -2.8,-0.3 v 0 c -0.9,0 -1.7,0 -2.5,0.1 v 0 c -0.8,0.1 -1.4,0.2 -2,0.3 v 0 c -0.6,0.1 -1.1,0.3 -1.5,0.5 v 0 c -0.5,0.2 -0.9,0.6 -1.3,1 v 0 c -0.4,0.4 -0.5,0.9 -0.7,1.5 v 0 c 0,0.6 0,1.3 0.1,2 v 0 c 0.2,0.8 0.5,1.7 1,2.6 v 0 l 7.1,12.7 -2.8,1.5 -0.1,0.7 2.4,0.6 1.6,-0.8 2.8,5.1 3.7,0.8 0.4,-0.9 -3.7,-6.7 7,-3.6 0.3,-0.9 v 0 c -0.2,-0.1 -0.6,-0.2 -0.9,-0.4 v 0 c -0.3,-0.1 -0.6,-0.2 -0.8,-0.3 v 0 c -0.4,-0.1 -0.6,-0.1 -1,-0.2 v 0 c -0.3,0 -0.4,-0.1 -0.6,0 v 0 c -0.3,0.3 -0.7,0.7 -1.3,1.2 v 0 c -0.7,0.6 -1.6,1.1 -2.7,1.7 v 0 l -1.1,0.6 -6,-10.9 v 0 c -0.6,-0.9 -0.8,-1.6 -1.1,-2.2 v 0 c -0.2,-0.6 -0.4,-1.1 -0.4,-1.5 v 0 c 0.1,-0.4 0.2,-0.8 0.4,-1.1 v 0 c 0.3,-0.3 0.5,-0.5 1,-0.7 v 0 c 0.5,-0.3 1.2,-0.6 2,-0.7 v 0 c 0.9,-0.2 2.1,-0.3 3.5,-0.3 v 0 z" />
            <path
               inkscape:connector-curvature="0"
               id="path4878"
               style="fill:#000000;fill-opacity:1;fill-rule:evenodd;stroke:none"
               d="m 465,640.5 c 0.8,1 1.4,2.1 1.8,3.2 v 0 c 0.3,1.2 0.5,2.3 0.5,3.3 v 0 c 0.1,1.1 -0.1,2.1 -0.5,3 v 0 c -0.3,0.9 -0.8,1.5 -1.5,2 v 0 c -0.9,0.7 -1.9,1.2 -2.9,1.3 v 0 c -0.9,0.2 -1.8,0.1 -2.7,-0.3 v 0 c -0.9,-0.3 -1.8,-0.8 -2.7,-1.5 v 0 c -0.9,-0.8 -1.6,-1.6 -2.5,-2.5 v 0 c -0.8,-1 -1.3,-2.1 -1.7,-3.3 v 0 c -0.3,-1.2 -0.5,-2.2 -0.5,-3.3 v 0 c 0.1,-1.1 0.2,-2.1 0.5,-3 v 0 c 0.4,-0.8 0.9,-1.4 1.4,-1.9 v 0 c 0.9,-0.7 1.9,-1.1 2.8,-1.3 v 0 c 0.9,-0.1 1.8,0 2.7,0.2 v 0 c 1,0.3 1.8,0.8 2.7,1.5 v 0 c 0.9,0.7 1.8,1.5 2.6,2.6 z m 3.5,-1.7 c -0.7,-0.7 -1.5,-1.5 -2.3,-2.1 v 0 c -0.9,-0.6 -1.8,-1.1 -2.7,-1.6 v 0 c -1,-0.4 -1.9,-0.7 -3,-0.9 v 0 c -1,-0.2 -2,-0.3 -3,-0.2 v 0 c -1,0.1 -2,0.2 -2.9,0.5 v 0 c -0.9,0.3 -1.8,0.7 -2.6,1.3 v 0 c -1.1,0.9 -2.1,2 -2.7,3.2 v 0 c -0.6,1.2 -1,2.4 -1,3.7 v 0 c -0.1,1.3 0.1,2.7 0.6,4.1 v 0 c 0.4,1.3 1.2,2.6 2.2,3.8 v 0 c 0.7,0.9 1.4,1.6 2.3,2.2 v 0 c 0.8,0.7 1.7,1.2 2.7,1.6 v 0 c 0.9,0.4 1.9,0.7 2.9,0.9 v 0 c 1.1,0.3 2,0.3 3,0.3 v 0 c 1,-0.1 2,-0.3 2.9,-0.6 v 0 c 1,-0.3 1.9,-0.8 2.6,-1.4 v 0 c 1.3,-0.9 2.1,-1.9 2.8,-3.1 v 0 c 0.6,-1.1 0.9,-2.4 1,-3.7 v 0 c 0.1,-1.3 -0.2,-2.7 -0.6,-4 v 0 c -0.5,-1.4 -1.2,-2.7 -2.2,-4 z" />
            <path
               inkscape:connector-curvature="0"
               id="path4880"
               style="fill:#000000;fill-opacity:1;fill-rule:evenodd;stroke:none"
               d="m 463.4,627.3 0.9,0.6 c 0.5,-0.5 0.9,-0.8 1.3,-1.1 v 0 c 0.4,-0.3 0.7,-0.5 1,-0.6 v 0 c 0.2,-0.1 0.5,-0.3 0.7,-0.3 v 0 c 0.1,0 0.3,0.1 0.4,0.2 v 0 l 22.6,17.4 c 0.5,0.5 0.9,0.9 1.2,1.2 v 0 c 0.2,0.4 0.4,0.7 0.4,1 v 0 c 0,0.3 -0.2,0.6 -0.3,1 v 0 c -0.3,0.4 -0.6,0.9 -1,1.4 v 0 l 0.8,0.6 c 0.9,-0.8 1.8,-1.4 2.6,-1.9 v 0 c 0.8,-0.6 1.8,-1.1 2.8,-1.5 v 0 l -0.1,-1.2 -26.7,-20.8 v 0 c -0.2,-0.1 -0.3,-0.5 -0.1,-1.1 v 0 c 0.1,-0.5 0.5,-1.4 1.2,-2.5 v 0 l -0.8,-0.7 z" />
            <path
               inkscape:connector-curvature="0"
               id="path4882"
               style="fill:#000000;fill-opacity:1;fill-rule:evenodd;stroke:none"
               d="m 117.4,524.6 c -0.8,0.3 -1.7,0.6 -2.6,1 v 0 c -0.8,0.3 -1.5,0.7 -2.2,1.1 v 0 c -0.6,0.4 -1.2,0.8 -1.7,1.2 v 0 c -0.4,0.4 -0.8,0.7 -1,1 v 0 c -0.3,0.5 -0.6,1 -0.7,1.6 v 0 c -0.2,0.5 -0.1,1.1 0,1.7 v 0 c 0.2,0.6 0.5,1.2 1,1.8 v 0 c 0.4,0.7 1.2,1.4 2.1,2 v 0 l 11.8,9 -1.8,2.5 0.2,0.8 2.4,-0.6 1,-1.3 4.8,3.5 3.7,-0.8 -0.1,-1 -6.2,-4.7 4.6,-6.5 -0.1,-1 v 0 c -0.3,0 -0.5,0 -0.9,0 v 0 c -0.4,0.1 -0.7,0.1 -1,0.2 v 0 c -0.2,0 -0.6,0.1 -0.8,0.2 v 0 c -0.4,0 -0.5,0.1 -0.7,0.2 v 0 c -0.1,0.4 -0.3,1 -0.6,1.8 v 0 c -0.3,0.7 -0.9,1.6 -1.6,2.7 v 0 l -0.8,1 -10.1,-7.7 v 0 c -0.8,-0.6 -1.4,-1 -1.9,-1.5 v 0 c -0.5,-0.5 -0.8,-0.9 -1,-1.3 v 0 c -0.2,-0.4 -0.2,-0.8 -0.2,-1.1 v 0 c 0.1,-0.4 0.3,-0.8 0.6,-1.2 v 0 c 0.4,-0.5 0.8,-1 1.5,-1.5 v 0 c 0.7,-0.6 1.7,-1.2 3,-1.8 v 0 z" />
            <path
               inkscape:connector-curvature="0"
               id="path4884"
               style="fill:#000000;fill-opacity:1;fill-rule:evenodd;stroke:none"
               d="m 116.8,521.4 0.7,0.8 c 0.6,-0.5 1.1,-0.8 1.5,-1.1 v 0 c 0.4,-0.2 0.7,-0.4 1,-0.4 v 0 c 0.3,-0.1 0.5,-0.2 0.7,-0.2 v 0 c 0.1,0 0.3,0.1 0.4,0.2 v 0 l 20.2,20.6 c 0.5,0.6 0.9,1 1,1.4 v 0 c 0.3,0.3 0.3,0.6 0.3,1 v 0 c 0,0.3 -0.2,0.6 -0.4,1 v 0 c -0.3,0.3 -0.6,0.8 -1.1,1.4 v 0 l 0.7,0.6 c 1,-0.6 1.9,-1.2 2.8,-1.7 v 0 c 0.8,-0.5 1.8,-0.9 2.9,-1.2 v 0 -1.3 l -23.9,-24.4 v 0 c -0.1,-0.2 -0.1,-0.6 0.1,-1.1 v 0 c 0.2,-0.7 0.7,-1.5 1.5,-2.6 v 0 l -0.8,-0.7 z" />
            <path
               inkscape:connector-curvature="0"
               id="path4886"
               style="fill:#000000;fill-opacity:1;fill-rule:evenodd;stroke:none"
               d="m 146.9,522.2 c -0.7,0.5 -1.4,0.8 -2.2,1 v 0 c -0.7,0.1 -1.5,0.1 -2.2,0 v 0 c -0.8,-0.2 -1.6,-0.5 -2.4,-0.9 v 0 c -0.7,-0.4 -1.5,-1 -2.1,-1.7 v 0 l 8.1,-6.3 c 0.3,-0.2 0.6,-0.3 0.8,-0.3 v 0 c 0.2,0.1 0.3,0.2 0.5,0.5 v 0 c 0.3,0.3 0.5,0.8 0.9,1.4 v 0 c 0.3,0.6 0.4,1.2 0.5,2 v 0 c 0,0.7 0,1.4 -0.2,2.2 v 0 c -0.3,0.8 -0.9,1.4 -1.7,2.1 z m 2.8,-11.3 c -0.4,-0.1 -0.9,-0.1 -1.4,0 v 0 c -0.6,0 -1.1,0.2 -1.7,0.3 v 0 l -10.1,7.7 c -0.7,-1 -1.3,-2.1 -1.7,-3.2 v 0 c -0.4,-1.2 -0.6,-2.2 -0.7,-3.3 v 0 c 0,-1.1 0.2,-2.1 0.6,-3 v 0 c 0.3,-1 1.1,-1.8 1.9,-2.5 v 0 c 0.4,-0.3 0.8,-0.5 1.2,-0.8 v 0 c 0.5,-0.2 1,-0.4 1.5,-0.6 v 0 c 0.6,-0.1 1.2,-0.2 2,-0.3 v 0 c 0.8,0 1.8,0 3,0 v 0 c 0.1,-0.2 0.1,-0.4 0.1,-0.7 v 0 c 0,-0.2 0,-0.5 0,-0.6 v 0 c -1.6,-0.3 -2.9,-0.5 -4,-0.6 v 0 c -1,-0.1 -2,-0.1 -2.8,0 v 0 c -0.8,0.2 -1.5,0.4 -2.1,0.8 v 0 c -0.7,0.3 -1.3,0.7 -1.9,1.2 v 0 c -1,0.7 -1.8,1.6 -2.4,2.8 v 0 c -0.6,1.1 -0.9,2.3 -1,3.6 v 0 c 0,1.3 0.1,2.7 0.5,4.1 v 0 c 0.4,1.4 1.1,2.8 2.1,4.2 v 0 c 0.6,0.9 1.4,1.7 2.2,2.4 v 0 c 0.9,0.7 1.7,1.3 2.6,1.8 v 0 c 1,0.5 1.9,0.8 2.9,1.1 v 0 c 1,0.2 2,0.2 3,0.2 v 0 c 0.4,0 0.9,0 1.4,-0.1 v 0 c 0.4,-0.1 1,-0.2 1.5,-0.3 v 0 c 0.5,-0.2 0.9,-0.4 1.4,-0.5 v 0 c 0.4,-0.3 0.8,-0.5 1.1,-0.8 v 0 c 0.9,-0.6 1.5,-1.3 2,-2 v 0 c 0.5,-0.7 0.8,-1.5 1,-2.3 v 0 c 0.2,-0.8 0.3,-1.5 0.2,-2.3 v 0 c 0,-0.8 -0.2,-1.6 -0.4,-2.3 v 0 c -0.2,-0.8 -0.5,-1.5 -0.9,-2.1 v 0 c -0.3,-0.7 -0.7,-1.3 -1.1,-1.9 z" />
            <path
               inkscape:connector-curvature="0"
               id="path4888"
               style="fill:#000000;fill-opacity:1;fill-rule:evenodd;stroke:none"
               d="m 157.4,491 0.5,1 c 1.2,-0.4 2,-0.5 2.6,-0.6 v 0 c 0.6,-0.1 0.9,0 1,0.2 v 0 l 6.1,11.4 c 0.4,0.9 0.8,1.6 1,2.2 v 0 c 0.2,0.6 0.2,1.2 0.2,1.6 v 0 c 0,0.4 -0.2,0.8 -0.5,1.1 v 0 c -0.3,0.3 -0.7,0.6 -1.1,0.9 v 0 c -0.5,0.2 -1,0.3 -1.7,0.4 v 0 c -0.7,0.1 -1.4,0 -2.3,-0.1 v 0 c -0.8,-0.1 -1.9,-0.4 -2.9,-0.8 v 0 c -1,-0.4 -2.2,-1 -3.5,-1.7 v 0 l -5,-9.5 c -0.2,-0.3 0,-0.7 0.4,-1.2 v 0 c 0.4,-0.5 1,-1.1 1.8,-1.8 v 0 l -0.5,-1 -9.1,5.1 0.5,0.9 v 0 c 1.1,-0.3 1.9,-0.5 2.5,-0.6 v 0 c 0.7,-0.1 1,0 1.2,0.3 v 0 l 6.9,13 c 0.3,0.6 0.5,1 0.6,1.4 v 0 c 0.1,0.4 0.1,0.7 0.1,1 v 0 c -0.1,0.3 -0.3,0.6 -0.7,0.9 v 0 c -0.3,0.3 -0.8,0.6 -1.5,1.1 v 0 l 0.5,0.9 c 1,-0.4 2,-0.7 3,-0.8 v 0 c 0.9,-0.1 1.9,-0.3 3,-0.3 v 0 l 0.3,-1.1 -2.6,-5.5 v 0 c 1.1,0.6 2.2,1.1 3.3,1.4 v 0 c 1.2,0.4 2.3,0.6 3.3,0.7 v 0 c 1.1,0.1 2,0.1 2.9,0 v 0 c 0.9,-0.1 1.6,-0.3 2.1,-0.6 v 0 c 0.6,-0.3 1.1,-0.7 1.6,-1.3 v 0 c 0.5,-0.5 0.8,-1 1,-1.6 v 0 c 0.3,-0.7 0.3,-1.3 0.3,-2.1 v 0 c 0,-0.7 -0.3,-1.5 -0.7,-2.3 v 0 l -7.3,-13.7 c -0.1,-0.2 0,-0.5 0.3,-1 v 0 c 0.4,-0.4 1,-1 2,-1.9 v 0 l -0.5,-0.9 z" />
            <path
               inkscape:connector-curvature="0"
               id="path4890"
               style="fill:#000000;fill-opacity:1;fill-rule:evenodd;stroke:none"
               d="m 178.9,481 0.3,1 c 1.1,-0.2 1.9,-0.3 2.6,-0.2 v 0 c 0.6,0.1 0.9,0.2 1,0.4 v 0 l 4.7,13 c 0.4,0.7 0.6,1.4 0.7,1.9 v 0 c 0.2,0.5 0.2,0.9 0.1,1.3 v 0 c -0.1,0.3 -0.4,0.6 -0.8,0.9 v 0 c -0.3,0.2 -0.9,0.6 -1.7,1 v 0 l 0.4,0.9 c 0.5,-0.1 1,-0.1 1.5,-0.3 v 0 c 0.7,0 1.2,0 1.8,-0.1 v 0 c 0.5,-0.1 1.1,-0.1 1.6,-0.1 v 0 c 0.6,0.1 1,0.1 1.5,0.2 v 0 l 0.8,-0.3 -7.2,-19.7 v 0 c -0.1,-0.2 0.1,-0.5 0.5,-0.9 v 0 c 0.4,-0.5 1.2,-1 2.1,-1.7 v 0 l -0.3,-0.9 z m 17.7,26.2 c -0.2,-0.4 -0.4,-0.8 -0.7,-1.1 v 0 c -0.3,-0.3 -0.6,-0.7 -0.9,-0.8 v 0 c -0.3,-0.2 -0.7,-0.3 -1.1,-0.4 v 0 c -0.3,0 -0.7,0 -1.1,0.1 v 0 c -0.7,0.3 -1.1,0.7 -1.3,1.2 v 0 c -0.1,0.5 0,1.1 0.2,1.8 v 0 c 0.2,0.4 0.4,0.8 0.7,1.1 v 0 c 0.3,0.3 0.6,0.6 0.9,0.8 v 0 c 0.3,0.2 0.7,0.3 1.1,0.4 v 0 c 0.3,0 0.7,0 1,-0.2 v 0 c 1.3,-0.5 1.7,-1.5 1.2,-2.9 z" />
            <path
               inkscape:connector-curvature="0"
               id="path4892"
               style="fill:#000000;fill-opacity:1;fill-rule:evenodd;stroke:none"
               d="m 190.4,476.6 0.3,0.9 c 1.1,0 1.9,0 2.6,0 v 0 c 0.6,0.1 0.9,0.2 1,0.5 v 0 l 8.2,27.9 c 0.1,0.8 0.3,1.4 0.3,1.7 v 0 c 0,0.5 0,0.8 -0.2,1 v 0 c -0.2,0.3 -0.5,0.6 -0.9,0.8 v 0 c -0.4,0.1 -0.9,0.4 -1.6,0.7 v 0 l 0.3,0.9 c 1.2,-0.1 2.2,-0.2 3.3,-0.2 v 0 c 1.2,0 2.2,0.1 3.1,0.3 v 0 l 0.6,-1 -6.7,-23.1 8.9,4.1 v 0 c 0.6,0.3 1,0.6 1.2,0.9 v 0 c 0.2,0.2 0.3,0.4 0.1,0.5 v 0 c -0.1,0.2 -0.3,0.4 -0.6,0.6 v 0 c -0.3,0.1 -0.7,0.3 -1.1,0.4 v 0 l 0.3,1 8.7,-2.7 -0.3,-0.9 v 0 c -0.6,0.1 -1.3,0.2 -2,0.1 v 0 c -0.6,0 -1.3,-0.1 -2.1,-0.5 v 0 l -9.7,-4 5.6,-13 v 0 c 0.2,-0.3 0.3,-0.5 0.5,-0.8 v 0 c 0.2,-0.2 0.4,-0.4 0.7,-0.6 v 0 c 0.2,-0.2 0.5,-0.3 0.9,-0.4 v 0 c 0.3,-0.2 0.7,-0.3 1.2,-0.4 v 0 l -0.2,-1 c -0.5,0 -0.9,0 -1.4,0.1 v 0 c -0.5,0.1 -0.9,0.1 -1.3,0.2 v 0 c -0.4,0 -0.7,0 -1,0.1 v 0 c -0.3,0 -0.6,0.1 -0.8,0.2 v 0 c -0.5,0.2 -1,0.4 -1.4,0.8 v 0 c -0.3,0.2 -0.6,0.7 -0.8,1.2 v 0 l -5.5,13.9 -2.8,-9.8 v 0 c -0.1,-0.1 -0.1,-0.2 0,-0.4 v 0 c 0,-0.1 0.1,-0.2 0.2,-0.4 v 0 c 0.2,-0.1 0.4,-0.3 0.7,-0.5 v 0 c 0.3,-0.3 0.7,-0.6 1.2,-0.9 v 0 l -0.3,-1 z" />
            <path
               inkscape:connector-curvature="0"
               id="path4894"
               style="fill:#000000;fill-opacity:1;fill-rule:evenodd;stroke:none"
               d="m 239.7,467.1 c -0.9,-0.4 -1.7,-0.8 -2.6,-1.1 v 0 c -0.8,-0.3 -1.6,-0.5 -2.4,-0.6 v 0 c -0.7,-0.2 -1.4,-0.3 -1.9,-0.3 v 0 c -0.7,-0.1 -1.2,-0.1 -1.6,0 v 0 c -0.6,0.1 -1,0.3 -1.5,0.6 v 0 c -0.4,0.3 -0.8,0.8 -1.1,1.3 v 0 c -0.3,0.5 -0.5,1.2 -0.6,2 v 0 c -0.1,0.8 0,1.8 0.2,2.9 v 0 l 2.8,14.8 -3.1,0.5 -0.3,0.8 2.1,1.3 1.7,-0.3 1.1,5.9 3.3,1.9 0.6,-0.7 -1.4,-7.8 7.7,-1.5 0.5,-0.9 v 0 c -0.2,-0.2 -0.4,-0.3 -0.6,-0.6 v 0 c -0.3,-0.2 -0.6,-0.4 -0.8,-0.6 v 0 c -0.3,-0.1 -0.6,-0.3 -0.8,-0.5 v 0 c -0.3,-0.1 -0.4,-0.2 -0.6,-0.2 v 0 c -0.4,0.2 -0.9,0.6 -1.6,0.9 v 0 c -0.7,0.3 -1.8,0.6 -3,0.8 v 0 l -1.3,0.3 -2.4,-12.7 v 0 c -0.1,-1 -0.3,-1.8 -0.3,-2.4 v 0 c 0,-0.7 0,-1.2 0.2,-1.6 v 0 c 0.1,-0.4 0.3,-0.7 0.6,-1 v 0 c 0.3,-0.2 0.7,-0.4 1.2,-0.5 v 0 c 0.5,-0.1 1.2,-0.1 2.2,0 v 0 c 0.8,0 1.9,0.3 3.2,0.7 v 0 z" />
            <path
               inkscape:connector-curvature="0"
               id="path4896"
               style="fill:#000000;fill-opacity:1;fill-rule:evenodd;stroke:none"
               d="m 241.5,464 0.1,1 c 1.2,0.1 2,0.2 2.6,0.4 v 0 c 0.6,0.2 0.9,0.4 1,0.6 v 0 l 1.9,13.7 c 0.1,0.8 0.2,1.5 0.2,2 v 0 c 0.1,0.5 0,0.9 -0.2,1.2 v 0 c -0.1,0.4 -0.4,0.6 -0.9,0.8 v 0 c -0.4,0.2 -1,0.4 -1.8,0.6 v 0 l 0.1,1 c 0.5,0 1,0 1.6,0.1 v 0 c 0.6,0 1.2,0.1 1.7,0.2 v 0 c 0.6,0.1 1.1,0.2 1.6,0.3 v 0 c 0.6,0.1 1.1,0.3 1.5,0.4 v 0 l 0.8,-0.1 -3,-20.7 v 0 c 0,-0.2 0.3,-0.5 0.7,-0.8 v 0 c 0.5,-0.4 1.3,-0.8 2.5,-1.2 v 0 l -0.2,-1 z m 11.9,29.4 c -0.1,-0.5 -0.2,-0.9 -0.4,-1.3 v 0 c -0.1,-0.3 -0.4,-0.7 -0.7,-0.9 v 0 c -0.3,-0.3 -0.6,-0.5 -0.9,-0.6 v 0 c -0.4,-0.1 -0.8,-0.1 -1.2,-0.1 v 0 c -0.7,0.1 -1.2,0.4 -1.4,0.8 v 0 c -0.3,0.5 -0.4,1.1 -0.3,1.8 v 0 c 0.1,0.5 0.2,0.9 0.5,1.3 v 0 c 0.1,0.3 0.4,0.7 0.7,0.9 v 0 c 0.3,0.3 0.6,0.4 0.9,0.5 v 0 c 0.4,0.2 0.8,0.2 1.1,0.2 v 0 c 1.4,-0.2 1.9,-1.1 1.7,-2.6 z" />
            <path
               inkscape:connector-curvature="0"
               id="path4898"
               style="fill:#000000;fill-opacity:1;fill-rule:evenodd;stroke:none"
               d="m 281.3,459.8 0.1,1 c 1.2,0.2 2,0.4 2.6,0.7 v 0 c 0.5,0.2 0.8,0.3 0.9,0.5 v 0 l 0.9,13 c 0,0.9 0,1.8 0,2.4 v 0 c -0.1,0.7 -0.2,1.3 -0.4,1.6 v 0 c -0.1,0.4 -0.5,0.7 -0.8,0.8 v 0 c -0.3,0.2 -0.7,0.4 -1.2,0.4 v 0 c -0.5,0.1 -1.1,0 -1.7,-0.4 v 0 c -0.6,-0.2 -1.2,-0.5 -1.9,-1.1 v 0 c -0.6,-0.5 -1.4,-1.1 -2,-1.9 v 0 c -0.7,-0.7 -1.4,-1.6 -2.1,-2.6 v 0 l -0.8,-11.4 c 0,-0.3 0.2,-0.5 0.7,-0.8 v 0 c 0.5,-0.2 1.3,-0.5 2.6,-1 v 0 l -0.1,-1 -10.3,0.7 0.1,1.1 v 0 c 1.2,0.2 2,0.4 2.6,0.6 v 0 c 0.5,0.2 0.8,0.4 0.9,0.7 v 0 l 0.8,12.8 c 0.1,1.1 0.1,1.9 0,2.5 v 0 c 0,0.7 -0.1,1.2 -0.3,1.6 v 0 c -0.2,0.4 -0.4,0.7 -0.8,0.9 v 0 c -0.3,0.1 -0.7,0.3 -1.2,0.3 v 0 c -1.1,0.1 -2.3,-0.4 -3.5,-1.5 v 0 c -1.3,-1 -2.7,-2.5 -4.2,-4.5 v 0 l -0.8,-11.4 c 0,-0.3 0.3,-0.5 0.8,-0.8 v 0 c 0.6,-0.3 1.4,-0.6 2.4,-1 v 0 -1 l -10.3,0.8 0.1,1 v 0 c 1,0.2 1.9,0.4 2.5,0.6 v 0 c 0.6,0.1 0.9,0.4 0.9,0.6 v 0 l 1,14.8 c 0.1,0.7 0.1,1.2 0,1.6 v 0 c 0,0.4 -0.1,0.6 -0.3,0.9 v 0 c -0.2,0.2 -0.5,0.4 -1,0.5 v 0 c -0.4,0.1 -1,0.3 -1.8,0.5 v 0 l 0.1,0.9 c 0.7,0.1 1.2,0.1 1.7,0.2 v 0 c 0.5,0.2 1,0.3 1.5,0.4 v 0 c 0.5,0.1 0.9,0.2 1.3,0.4 v 0 c 0.5,0.2 0.9,0.4 1.4,0.6 v 0 l 0.7,-1 -0.1,-5.6 v 0 c 0.8,1.1 1.6,2 2.4,2.7 v 0 c 0.8,0.7 1.6,1.4 2.3,1.8 v 0 c 0.8,0.5 1.5,0.9 2.2,1.1 v 0 c 0.7,0.2 1.3,0.3 1.9,0.2 v 0 c 0.7,0 1.5,-0.1 2,-0.4 v 0 c 0.7,-0.2 1.2,-0.6 1.7,-1.1 v 0 c 0.4,-0.4 0.8,-1 1,-1.8 v 0 c 0.2,-0.7 0.3,-1.7 0.2,-2.8 v 0 -0.5 c 0.7,1 1.5,1.9 2.2,2.6 v 0 c 0.8,0.7 1.6,1.3 2.3,1.8 v 0 c 0.8,0.5 1.5,0.7 2.2,1 v 0 c 0.7,0.2 1.3,0.3 1.9,0.2 v 0 c 0.8,0 1.5,-0.1 2.1,-0.4 v 0 c 0.6,-0.3 1.2,-0.7 1.6,-1.1 v 0 c 0.4,-0.5 0.8,-1.1 1,-1.8 v 0 c 0.2,-0.7 0.3,-1.5 0.3,-2.4 v 0 l -1.2,-15.5 c 0,-0.2 0.3,-0.5 0.7,-0.8 v 0 c 0.5,-0.2 1.4,-0.5 2.6,-0.9 v 0 l -0.1,-1.1 z" />
            <path
               inkscape:connector-curvature="0"
               id="path4900"
               style="fill:#000000;fill-opacity:1;fill-rule:evenodd;stroke:none"
               d="m 311.3,470.6 c 0,1.3 -0.2,2.5 -0.7,3.7 v 0 c -0.4,1.2 -0.9,2.2 -1.6,3 v 0 c -0.6,0.9 -1.4,1.6 -2.3,2.1 v 0 c -0.8,0.6 -1.6,0.8 -2.4,0.8 v 0 c -1.2,0 -2.3,-0.3 -3.1,-0.8 v 0 c -0.8,-0.5 -1.5,-1.1 -2,-2 v 0 c -0.5,-0.8 -0.8,-1.7 -1.1,-2.9 v 0 c -0.2,-1.1 -0.3,-2.3 -0.3,-3.6 v 0 c 0.1,-1.3 0.3,-2.6 0.8,-3.7 v 0 c 0.4,-1.1 1,-2.1 1.7,-3.1 v 0 c 0.7,-0.8 1.4,-1.5 2.3,-2 v 0 c 0.8,-0.5 1.5,-0.8 2.3,-0.7 v 0 c 1.1,0 2.1,0.2 2.9,0.6 v 0 c 0.9,0.5 1.5,1.1 2,1.9 v 0 c 0.5,0.8 0.9,1.7 1.2,2.9 v 0 c 0.2,1.1 0.3,2.4 0.3,3.8 z m 3.7,0.8 c 0,-1.1 -0.1,-2.2 -0.4,-3.2 v 0 c -0.2,-1.1 -0.6,-2.1 -1.1,-3 v 0 c -0.4,-0.9 -1,-1.8 -1.7,-2.6 v 0 c -0.6,-0.8 -1.3,-1.5 -2.2,-2.1 v 0 c -0.8,-0.6 -1.6,-1 -2.5,-1.3 v 0 c -0.9,-0.3 -1.9,-0.5 -2.8,-0.5 v 0 c -1.6,-0.1 -2.9,0.2 -4.2,0.8 v 0 c -1.2,0.6 -2.3,1.4 -3.2,2.4 v 0 c -0.8,1 -1.5,2.2 -2,3.6 v 0 c -0.5,1.4 -0.7,3 -0.7,4.7 v 0 c 0,1.1 0,2.1 0.3,3.2 v 0 c 0.3,1 0.6,1.9 1.1,2.9 v 0 c 0.5,1 1,1.8 1.6,2.6 v 0 c 0.7,0.8 1.4,1.5 2.2,2.1 v 0 c 0.8,0.6 1.7,1 2.6,1.3 v 0 c 0.9,0.4 1.9,0.5 3,0.6 v 0 c 1.5,0 2.8,-0.3 4,-0.8 v 0 c 1.3,-0.6 2.3,-1.4 3.2,-2.4 v 0 c 0.9,-1.1 1.6,-2.3 2,-3.7 v 0 c 0.5,-1.5 0.8,-3 0.8,-4.6 z" />
            <path
               inkscape:connector-curvature="0"
               id="path4902"
               style="fill:#000000;fill-opacity:1;fill-rule:evenodd;stroke:none"
               d="m 333.1,463.5 c -0.8,-0.6 -1.5,-1.2 -2.2,-1.7 v 0 c -0.7,-0.5 -1.5,-0.9 -2.2,-1.2 v 0 c -0.7,-0.4 -1.3,-0.6 -1.9,-0.8 v 0 c -0.5,-0.2 -1,-0.4 -1.5,-0.4 v 0 c -0.5,0 -1,0 -1.6,0.2 v 0 c -0.5,0.2 -0.9,0.5 -1.4,1 v 0 c -0.4,0.5 -0.7,1.1 -1,1.8 v 0 c -0.2,0.8 -0.4,1.7 -0.5,2.9 v 0 l -0.9,15 -3.2,-0.3 -0.5,0.7 1.7,1.7 1.8,0.2 -0.4,6 2.7,2.7 0.8,-0.6 0.5,-7.9 7.8,0.6 0.8,-0.7 v 0 c -0.2,-0.3 -0.3,-0.6 -0.5,-0.8 v 0 c -0.2,-0.3 -0.4,-0.5 -0.6,-0.8 v 0 c -0.2,-0.2 -0.5,-0.5 -0.6,-0.7 v 0 c -0.3,-0.1 -0.4,-0.3 -0.6,-0.4 v 0 c -0.4,0.2 -1,0.3 -1.8,0.4 v 0 c -0.8,0.2 -1.8,0.2 -3.1,0.2 v 0 l -1.3,-0.2 0.9,-12.8 v 0 c 0,-1 0.1,-1.8 0.3,-2.4 v 0 c 0.1,-0.7 0.3,-1.2 0.5,-1.6 v 0 c 0.2,-0.3 0.5,-0.6 0.8,-0.7 v 0 c 0.4,-0.2 0.8,-0.2 1.2,-0.2 v 0 c 0.6,0.1 1.3,0.2 2.2,0.5 v 0 c 0.8,0.3 1.8,0.8 3,1.5 v 0 z" />
            <path
               inkscape:connector-curvature="0"
               id="path4904"
               style="fill:#000000;fill-opacity:1;fill-rule:evenodd;stroke:none"
               d="m 335.3,460.9 -0.1,1.1 c 0.7,0.1 1.2,0.3 1.7,0.5 v 0 c 0.5,0.2 0.8,0.4 1.1,0.5 v 0 c 0.3,0.2 0.4,0.3 0.5,0.4 v 0 c 0.1,0.2 0.2,0.3 0.2,0.4 v 0 l -3,29.1 c -0.1,0.7 -0.2,1.2 -0.4,1.6 v 0 c -0.1,0.4 -0.3,0.7 -0.6,0.9 v 0 c -0.2,0.2 -0.6,0.2 -1.1,0.3 v 0 c -0.4,0 -1,0.1 -1.6,0.1 v 0 l -0.1,0.9 c 1.1,0.4 2.1,0.7 3,1.1 v 0 c 0.9,0.3 1.9,0.9 2.8,1.5 v 0 l 1,-0.7 3.6,-34.4 v 0 c 0,-0.2 0.3,-0.4 0.8,-0.6 v 0 c 0.6,-0.2 1.6,-0.4 2.9,-0.5 v 0 l 0.1,-1 z" />
            <path
               inkscape:connector-curvature="0"
               id="path4906"
               style="fill:#000000;fill-opacity:1;fill-rule:evenodd;stroke:none"
               d="m 355.1,465.8 c 0.9,0.2 1.9,0.6 2.9,1.2 v 0 c 1,0.7 2,1.7 3.1,3 v 0 l -1,6.2 c -1.3,-0.4 -2.4,-0.8 -3.2,-1.2 v 0 c -0.8,-0.4 -1.5,-0.7 -2,-1 v 0 c -0.5,-0.2 -0.9,-0.6 -1.2,-0.8 v 0 c -0.3,-0.4 -0.6,-0.7 -0.8,-0.9 v 0 c -0.4,-0.6 -0.6,-1.1 -0.8,-1.7 v 0 c -0.1,-0.6 -0.2,-1.3 0,-2.1 v 0 c 0.1,-0.6 0.3,-1.1 0.5,-1.5 v 0 c 0.3,-0.3 0.5,-0.6 0.9,-0.8 v 0 c 0.2,-0.2 0.5,-0.3 0.9,-0.4 v 0 c 0.2,0 0.5,0 0.7,0 z m 13.7,1.8 c -1.2,-1.2 -2.3,-2 -3,-2.6 v 0 c -0.9,-0.5 -1.5,-0.9 -1.9,-1 v 0 c -0.5,0 -1,0.3 -1.5,0.9 v 0 c -0.5,0.7 -0.8,1.7 -1,3 v 0 c -0.6,-0.8 -1.2,-1.6 -1.9,-2.2 v 0 c -0.6,-0.6 -1.2,-1.2 -1.9,-1.7 v 0 c -0.6,-0.4 -1.2,-0.8 -1.8,-1 v 0 c -0.6,-0.2 -1.1,-0.4 -1.6,-0.5 v 0 c -0.6,-0.1 -1.2,-0.1 -1.8,0 v 0 c -0.6,0.1 -1.2,0.3 -1.8,0.6 v 0 c -0.5,0.4 -1,0.9 -1.4,1.5 v 0 c -0.4,0.6 -0.7,1.4 -0.9,2.3 v 0 c -0.1,1.2 -0.1,2.3 0.2,3.1 v 0 c 0.3,0.9 0.7,1.7 1.2,2.4 v 0 c 0.3,0.4 0.7,0.9 1.1,1.3 v 0 c 0.4,0.5 1,0.9 1.7,1.3 v 0 c 0.8,0.5 1.8,1 2.9,1.5 v 0 c 1.2,0.5 2.6,0.9 4.4,1.5 v 0 l -0.5,3.4 c -0.1,0.6 -0.2,1.1 -0.4,1.5 v 0 c -0.2,0.5 -0.5,0.8 -0.9,1.1 v 0 c -0.4,0.3 -0.8,0.6 -1.3,0.6 v 0 c -0.6,0.2 -1.2,0.2 -2,0 v 0 c -0.5,-0.1 -1,-0.3 -1.4,-0.5 v 0 c -0.5,-0.3 -0.9,-0.5 -1.2,-0.9 v 0 c -0.3,-0.3 -0.6,-0.7 -0.7,-1.1 v 0 c -0.1,-0.5 -0.2,-0.9 0,-1.4 v 0 c 0,-0.1 -0.1,-0.3 -0.5,-0.6 v 0 c -0.3,-0.2 -0.6,-0.4 -1.1,-0.7 v 0 c -0.4,-0.2 -0.9,-0.3 -1.3,-0.5 v 0 c -0.5,-0.2 -0.7,-0.3 -0.9,-0.2 v 0 l -0.5,0.9 c 0.2,0.8 0.7,1.7 1.3,2.6 v 0 c 0.6,0.8 1.3,1.6 2.2,2.3 v 0 c 0.9,0.7 1.8,1.3 2.9,1.8 v 0 c 1,0.6 2,0.9 3,1 v 0 c 1.7,0.3 3.1,0.1 4.2,-0.7 v 0 c 1.1,-0.8 1.8,-2 2,-3.6 v 0 l 2.1,-13.7 c 0.1,-0.6 0.2,-1.1 0.5,-1.4 v 0 c 0.2,-0.3 0.5,-0.3 0.7,-0.3 v 0 c 0.3,0 0.5,0.1 0.9,0.3 v 0 c 0.3,0.1 0.8,0.3 1.3,0.7 v 0 z" />
            <path
               inkscape:connector-curvature="0"
               id="path4908"
               style="fill:#000000;fill-opacity:1;fill-rule:evenodd;stroke:none"
               d="m 387.4,480.5 c -0.2,1.4 -0.7,2.7 -1.3,3.8 v 0 c -0.6,1.1 -1.3,2 -2,2.8 v 0 c -0.7,0.7 -1.5,1.3 -2.3,1.6 v 0 c -0.8,0.3 -1.6,0.4 -2.3,0.2 v 0 c -0.3,-0.1 -0.7,-0.3 -1,-0.5 v 0 c -0.5,-0.3 -1,-0.7 -1.5,-1.3 v 0 c -0.4,-0.5 -0.9,-1.2 -1.4,-2.1 v 0 c -0.5,-0.8 -1,-1.8 -1.5,-3.1 v 0 l 2.2,-9.4 c 0.8,-0.3 1.6,-0.6 2.3,-0.8 v 0 c 0.7,-0.2 1.3,-0.4 1.8,-0.5 v 0 c 0.6,-0.1 1.2,-0.1 1.7,-0.1 v 0 c 0.4,0.1 0.9,0.2 1.3,0.3 v 0 c 0.9,0.2 1.6,0.5 2.2,1 v 0 c 0.6,0.6 1.1,1.2 1.5,1.9 v 0 c 0.3,0.8 0.6,1.7 0.7,2.7 v 0 c 0,1.1 0,2.3 -0.4,3.5 z m 2.8,2.4 c 0.2,-1 0.4,-2 0.3,-3 v 0 c 0,-1 -0.1,-2 -0.3,-3 v 0 c -0.2,-1 -0.5,-2 -0.8,-3 v 0 c -0.4,-0.9 -0.9,-1.8 -1.4,-2.6 v 0 c -0.5,-0.7 -1.1,-1.4 -1.8,-1.9 v 0 c -0.6,-0.6 -1.3,-0.9 -2,-1.1 v 0 c -1,-0.2 -2,-0.2 -3.4,0 v 0 c -1.2,0.3 -2.5,0.8 -3.9,1.5 v 0 l 2.6,-11.3 c 0.1,-0.2 0.5,-0.4 1.1,-0.5 v 0 c 0.6,-0.1 1.7,-0.1 3.2,0 v 0 l 0.2,-1 -10.7,-2.5 -0.2,1 v 0 c 0.9,0.5 1.7,0.9 2.2,1.3 v 0 c 0.5,0.3 0.8,0.7 0.7,0.9 v 0 l -5.9,25.9 c -0.2,0.6 -0.3,1 -0.4,1.4 v 0 c -0.2,0.4 -0.4,0.7 -0.6,0.8 v 0 c -0.3,0.2 -0.7,0.3 -1.1,0.3 v 0 c -0.5,0 -1.1,-0.1 -1.8,-0.2 v 0 l -0.2,1 c 0.4,0.2 0.9,0.4 1.4,0.7 v 0 c 0.4,0.2 0.9,0.4 1.3,0.7 v 0 c 0.4,0.3 0.8,0.5 1.2,0.8 v 0 c 0.4,0.3 0.8,0.6 1.2,1 v 0 l 1,-0.7 1.3,-4.6 v 0 c 0.6,1.1 1.1,2.1 1.8,3 v 0 c 0.6,0.8 1.2,1.6 1.8,2.2 v 0 c 0.6,0.7 1.3,1.2 1.8,1.5 v 0 c 0.6,0.4 1.1,0.6 1.6,0.7 v 0 c 1,0.3 2.1,0.3 3,0 v 0 c 1,-0.3 2,-0.8 2.9,-1.7 v 0 c 0.9,-0.8 1.6,-1.8 2.3,-3.1 v 0 c 0.7,-1.3 1.2,-2.8 1.6,-4.5 z" />
            <path
               inkscape:connector-curvature="0"
               id="path4910"
               style="fill:#000000;fill-opacity:1;fill-rule:evenodd;stroke:none"
               d="m 409.5,488.2 c -0.3,1.2 -0.9,2.3 -1.7,3.2 v 0 c -0.7,1 -1.5,1.8 -2.4,2.5 v 0 c -0.9,0.6 -1.8,1 -2.8,1.3 v 0 c -0.9,0.2 -1.8,0.2 -2.5,-0.1 v 0 c -1.2,-0.3 -2.1,-0.9 -2.8,-1.6 v 0 c -0.6,-0.7 -1.1,-1.5 -1.3,-2.5 v 0 c -0.3,-0.9 -0.3,-1.9 -0.2,-3.1 v 0 c 0.1,-1.1 0.4,-2.4 0.8,-3.5 v 0 c 0.4,-1.3 1,-2.4 1.8,-3.4 v 0 c 0.7,-0.9 1.6,-1.7 2.5,-2.3 v 0 c 0.9,-0.6 1.8,-1.1 2.8,-1.4 v 0 c 0.9,-0.1 1.7,-0.1 2.4,0 v 0 c 1.1,0.4 1.9,0.9 2.6,1.6 v 0 c 0.7,0.7 1.1,1.4 1.4,2.4 v 0 c 0.2,0.9 0.3,1.9 0.2,3.1 v 0 c -0.1,1.1 -0.3,2.4 -0.8,3.8 z m 3.3,1.8 c 0.4,-1.1 0.6,-2.1 0.7,-3.1 v 0 c 0,-1.2 0,-2.3 -0.2,-3.3 v 0 c -0.2,-1 -0.5,-2 -0.9,-3 v 0 c -0.4,-0.9 -0.9,-1.8 -1.5,-2.6 v 0 c -0.6,-0.8 -1.3,-1.4 -2.1,-2 v 0 c -0.8,-0.7 -1.6,-1.1 -2.5,-1.4 v 0 c -1.5,-0.5 -2.8,-0.6 -4.2,-0.4 v 0 c -1.3,0.1 -2.6,0.5 -3.7,1.3 v 0 c -1.2,0.7 -2.2,1.6 -3.1,2.8 v 0 c -0.9,1.2 -1.5,2.6 -2,4.2 v 0 c -0.4,1 -0.6,2 -0.6,3.1 v 0 c 0,1.1 0,2.2 0.2,3.2 v 0 c 0.1,1 0.4,2 0.7,3 v 0 c 0.5,1 1,1.9 1.5,2.6 v 0 c 0.6,0.8 1.4,1.5 2.1,2.2 v 0 c 0.9,0.6 1.7,1 2.7,1.3 v 0 c 1.4,0.5 2.8,0.6 4.1,0.5 v 0 c 1.4,-0.2 2.6,-0.6 3.7,-1.4 v 0 c 1.2,-0.7 2.2,-1.6 3.1,-2.8 v 0 c 0.8,-1.2 1.6,-2.6 2,-4.2 z" />
            <path
               inkscape:connector-curvature="0"
               id="path4912"
               style="fill:#000000;fill-opacity:1;fill-rule:evenodd;stroke:none"
               d="m 439.9,513 c -0.4,-0.4 -0.8,-0.6 -1,-0.9 v 0 c -0.2,-0.2 -0.4,-0.4 -0.5,-0.6 v 0 c -0.1,-0.1 -0.1,-0.3 -0.1,-0.5 v 0 c 0,-0.1 0,-0.3 0,-0.5 v 0 l 2.8,-19.2 c 0.1,-0.4 0.1,-0.8 -0.1,-1.1 v 0 c -0.1,-0.4 -0.4,-0.7 -0.6,-1 v 0 c -0.2,-0.3 -0.5,-0.6 -0.7,-0.8 v 0 c -0.2,-0.2 -0.5,-0.4 -0.7,-0.5 v 0 l -11.9,12.6 1.4,-15.2 v 0 c 0.1,-0.4 0,-0.7 -0.2,-1.1 v 0 c -0.1,-0.4 -0.2,-0.6 -0.5,-0.9 v 0 c -0.2,-0.3 -0.4,-0.6 -0.6,-0.8 v 0 c -0.3,-0.2 -0.5,-0.4 -0.6,-0.5 v 0 l -14.4,16.3 c -0.3,0.5 -1.3,0.7 -3,0.3 v 0 l -0.4,0.9 8.4,3.9 0.5,-0.8 v 0 c -0.7,-0.5 -1.3,-0.8 -1.5,-1.2 v 0 c -0.4,-0.2 -0.6,-0.4 -0.8,-0.7 v 0 c -0.1,-0.1 -0.2,-0.3 -0.1,-0.5 v 0 c 0.1,-0.1 0.1,-0.2 0.3,-0.4 v 0 l 10.4,-12.2 -2.1,19 1.6,0.8 13,-13.9 -2.5,15.9 v 0 c -0.1,0.4 -0.4,0.6 -0.9,0.6 v 0 c -0.4,0.1 -1.2,-0.1 -2.3,-0.4 v 0 l -0.4,0.9 7.1,3.3 z" />
            <path
               inkscape:connector-curvature="0"
               id="path4914"
               style="fill:#000000;fill-opacity:1;fill-rule:evenodd;stroke:none"
               d="m 450.5,494.8 -0.6,1 c 0.8,0.7 1.4,1.3 1.7,1.9 v 0 c 0.4,0.5 0.5,0.9 0.4,1.1 v 0 l -7.1,11.8 c -0.4,0.7 -0.7,1.3 -1.1,1.7 v 0 c -0.2,0.4 -0.5,0.7 -0.9,0.8 v 0 c -0.3,0.1 -0.7,0.1 -1.2,0 v 0 c -0.5,-0.1 -1.1,-0.3 -1.8,-0.8 v 0 l -0.5,0.9 c 0.3,0.4 0.8,0.7 1.1,1.1 v 0 c 0.5,0.4 0.9,0.9 1.2,1.3 v 0 c 0.4,0.4 0.7,0.9 1.1,1.3 v 0 c 0.3,0.4 0.6,0.8 0.9,1.2 v 0 l 0.6,0.5 10.8,-17.9 v 0 c 0.1,-0.2 0.4,-0.2 1,-0.2 v 0 c 0.6,0 1.5,0.3 2.6,0.7 v 0 l 0.5,-0.9 z m -9.3,30.4 c 0.2,-0.4 0.4,-0.8 0.5,-1.2 v 0 c 0,-0.4 0,-0.9 0,-1.3 v 0 c -0.1,-0.3 -0.2,-0.7 -0.4,-1 v 0 c -0.2,-0.4 -0.5,-0.6 -0.8,-0.8 v 0 c -0.6,-0.4 -1.2,-0.5 -1.7,-0.3 v 0 c -0.4,0.2 -0.8,0.5 -1.2,1.2 v 0 c -0.2,0.4 -0.4,0.8 -0.5,1.2 v 0 c 0,0.4 0,0.9 0,1.2 v 0 c 0.1,0.4 0.2,0.8 0.4,1.1 v 0 c 0.1,0.3 0.4,0.6 0.7,0.8 v 0 c 1.2,0.7 2.1,0.4 3,-0.9 z" />
            <path
               inkscape:connector-curvature="0"
               id="path4916"
               style="fill:#000000;fill-opacity:1;fill-rule:evenodd;stroke:none"
               d="m 465.7,508 c 0.7,0.6 1.4,1.4 2,2.5 v 0 c 0.5,1.1 0.9,2.4 1.2,4 v 0 l -3.8,5.1 c -0.9,-1.1 -1.7,-2 -2.3,-2.7 v 0 c -0.5,-0.7 -0.9,-1.3 -1.2,-1.9 v 0 c -0.3,-0.5 -0.5,-0.9 -0.7,-1.4 v 0 c -0.1,-0.3 -0.2,-0.7 -0.2,-1.1 v 0 c 0,-0.6 0,-1.2 0.2,-1.9 v 0 c 0.1,-0.6 0.4,-1.2 0.9,-1.8 v 0 c 0.3,-0.4 0.8,-0.8 1.2,-1 v 0 c 0.3,-0.2 0.7,-0.3 1.1,-0.3 v 0 c 0.3,0 0.7,0 0.9,0.2 v 0 c 0.3,0.1 0.6,0.2 0.7,0.3 z m 11.1,8.4 c -0.5,-1.7 -0.9,-2.9 -1.4,-3.8 v 0 c -0.4,-0.9 -0.8,-1.5 -1.2,-1.8 v 0 c -0.4,-0.3 -1,-0.3 -1.7,0.1 v 0 c -0.7,0.4 -1.5,1 -2.3,2 v 0 c -0.2,-1 -0.3,-2 -0.6,-2.8 v 0 c -0.2,-0.9 -0.5,-1.7 -0.8,-2.4 v 0 c -0.4,-0.7 -0.7,-1.3 -1.1,-1.8 v 0 c -0.4,-0.5 -0.8,-1 -1.2,-1.2 v 0 c -0.4,-0.4 -0.9,-0.7 -1.6,-1 v 0 c -0.6,-0.2 -1.2,-0.3 -1.8,-0.3 v 0 c -0.7,0 -1.3,0.2 -1.9,0.6 v 0 c -0.7,0.3 -1.4,0.8 -1.9,1.5 v 0 c -0.8,1.1 -1.2,2 -1.4,2.9 v 0 c -0.2,0.9 -0.2,1.8 -0.1,2.7 v 0 c 0.1,0.5 0.2,1 0.4,1.6 v 0 c 0.2,0.7 0.4,1.3 0.9,2.1 v 0 c 0.4,0.7 1,1.6 1.8,2.7 v 0 c 0.8,0.9 1.8,2.1 3.1,3.5 v 0 l -2.1,2.7 c -0.4,0.4 -0.7,0.8 -1.1,1.1 v 0 c -0.4,0.3 -0.8,0.5 -1.2,0.6 v 0 c -0.5,0 -1,0 -1.6,-0.2 v 0 c -0.5,-0.2 -1.1,-0.5 -1.7,-1 v 0 c -0.3,-0.3 -0.7,-0.8 -1,-1.2 v 0 c -0.3,-0.4 -0.5,-0.9 -0.6,-1.3 v 0 c -0.1,-0.5 -0.1,-0.9 0,-1.4 v 0 c 0.1,-0.5 0.3,-0.8 0.6,-1.2 v 0 c 0.1,-0.1 0.1,-0.3 -0.1,-0.7 v 0 c -0.1,-0.3 -0.4,-0.7 -0.7,-1.1 v 0 c -0.2,-0.5 -0.5,-0.9 -0.9,-1.2 v 0 c -0.3,-0.4 -0.5,-0.6 -0.7,-0.6 v 0 l -0.8,0.5 c -0.2,0.8 -0.2,1.8 -0.1,2.9 v 0 c 0.2,1.1 0.4,2.1 0.8,3.2 v 0 c 0.4,1.1 1,2 1.6,3 v 0 c 0.6,0.9 1.4,1.7 2.2,2.4 v 0 c 1.4,1 2.7,1.5 4,1.4 v 0 c 1.4,-0.1 2.5,-0.9 3.5,-2.1 v 0 l 8.4,-10.9 c 0.4,-0.6 0.7,-0.9 1.1,-1 v 0 c 0.3,-0.1 0.6,-0.1 0.8,0.1 v 0 c 0.2,0.1 0.3,0.3 0.6,0.6 v 0 c 0.2,0.3 0.5,0.8 0.9,1.4 v 0 z" />
            <path
               inkscape:connector-curvature="0"
               id="path4918"
               style="fill:#000000;fill-opacity:1;fill-rule:evenodd;stroke:none"
               d="m 488.9,527.3 -0.8,0.7 c 0.5,1.1 0.8,1.9 1,2.5 v 0 c 0.1,0.6 0.1,1 0,1.1 v 0 l -9.8,8.2 c -0.8,0.6 -1.4,1.1 -2,1.4 v 0 c -0.5,0.2 -1,0.4 -1.5,0.5 v 0 c -0.4,0 -0.7,-0.1 -1.1,-0.3 v 0 c -0.4,-0.2 -0.7,-0.5 -1,-1 v 0 c -0.4,-0.4 -0.6,-1 -0.9,-1.7 v 0 c -0.2,-0.7 -0.2,-1.5 -0.3,-2.4 v 0 c 0,-0.9 0.1,-1.9 0.3,-3 v 0 c 0.2,-1.2 0.5,-2.3 1,-3.6 v 0 l 8.2,-6.9 c 0.2,-0.1 0.5,-0.1 1.1,0.2 v 0 c 0.7,0.3 1.3,0.8 2.2,1.5 v 0 l 0.8,-0.7 -6.6,-8.1 -0.8,0.7 v 0 c 0.5,1 0.8,1.8 1,2.4 v 0 c 0.3,0.6 0.2,1 0,1.2 v 0 l -22.1,18.4 c -0.5,0.5 -0.9,0.8 -1.3,1 v 0 c -0.3,0.2 -0.7,0.3 -1,0.3 v 0 c -0.3,-0.1 -0.6,-0.3 -0.9,-0.6 v 0 c -0.4,-0.3 -0.8,-0.7 -1.4,-1.3 v 0 l -0.7,0.7 c 0.3,0.6 0.6,1.2 0.8,1.7 v 0 c 0.3,0.5 0.5,1 0.7,1.4 v 0 c 0.2,0.5 0.3,1 0.5,1.5 v 0 c 0.1,0.4 0.2,0.9 0.3,1.4 v 0 l 1.2,0.2 15.5,-12.9 v 0 c -0.4,1.2 -0.6,2.4 -0.7,3.6 v 0 c -0.1,1.2 -0.1,2.3 0,3.4 v 0 c 0.1,1 0.3,1.9 0.5,2.7 v 0 c 0.3,0.9 0.6,1.5 1,2 v 0 c 0.5,0.5 1,1 1.5,1.4 v 0 c 0.6,0.3 1.2,0.6 1.8,0.7 v 0 c 0.7,0.1 1.3,0 2,-0.2 v 0 c 0.8,-0.2 1.4,-0.5 2.1,-1.1 v 0 l 11.9,-9.9 c 0.1,-0.1 0.5,-0.1 0.9,0.2 v 0 c 0.5,0.2 1.3,0.7 2.3,1.5 v 0 l 0.8,-0.6 z" />
            <g
               id="g4922">
              <path
                 inkscape:connector-curvature="0"
                 id="path4920"
                 style="fill:none;stroke:#205867;stroke-width:4.98079014;stroke-linecap:butt;stroke-linejoin:round;stroke-miterlimit:10;stroke-dasharray:none;stroke-opacity:1"
                 d="m 129.9,579.1 c 8.8,-1.1 17.3,-3.3 25.5,-6.7 v 0 c 3.5,4.8 8.8,7.7 14.4,7.7 v 0 c 5,4.5 12.5,3.9 16.7,-1.4 v 0 c 0.2,-0.2 0.3,-0.3 0.3,-0.5 v 0 l 23.9,-12 29.6,-9.6 v 0 c 6.7,-2 14,0 18.9,5.2 v 0 c 8.7,4.4 19.1,2.7 26.1,-4.3 v 0 c 11.5,-8.3 23.4,-16.2 35.4,-23.5 v 0 c 12.5,-3.6 25.4,-5.3 38.2,-5.3 v 0 c 18.6,3.7 36.3,10.9 52.5,21.1 v 0 c 6.4,0.2 12.7,-0.2 19,-1.4 v 0" />
            </g>
            <g
               id="g4926">
              <path
                 inkscape:connector-curvature="0"
                 id="path4924"
                 style="fill:none;stroke:#205867;stroke-width:4.98079014;stroke-linecap:butt;stroke-linejoin:round;stroke-miterlimit:10;stroke-dasharray:none;stroke-opacity:1"
                 d="m 171.1,590.1 c 20.1,0.3 40,4.1 58.9,11.1 v 0 c 3.3,1.3 6.9,0.1 9,-2.9 v 0 l 18.8,1.9 c 13.5,2.9 26.3,8.1 38.2,15.4 v 0 l 30.6,18.3 c 2.8,-2.1 6.4,-2.6 9.4,-0.9 v 0 c 10.8,-8.9 22.6,-16.3 35,-22.2 v 0 l 49,-17.3" />
            </g>
            <g
               id="g4930">
              <path
                 inkscape:connector-curvature="0"
                 id="path4928"
                 style="fill:none;stroke:#205867;stroke-width:4.98079014;stroke-linecap:butt;stroke-linejoin:round;stroke-miterlimit:10;stroke-dasharray:none;stroke-opacity:1"
                 d="m 363.5,610.8 c -6.8,1.1 -13.6,3.4 -19.7,6.7 v 0 c 2.1,-3.6 5.4,-6.2 9.4,-7.2 v 0 c -5.2,0.3 -10,2.4 -13.9,5.8 v 0 c 0,-2.3 0.5,-4.6 1.3,-6.8 v 0 c -6,0 -11.4,4.1 -13.5,10.2 v 0 c -0.3,-3.7 -1.1,-7.2 -2.2,-10.6 v 0 c -1.4,1.7 -2.4,3.7 -3.2,5.7 v 0 c -0.7,-1.4 -1.6,-2.7 -2.7,-3.8 v 0 c -2.2,2.5 -3.7,5.5 -4.5,8.8 v 0 c -1.2,0.1 -2.4,-0.7 -2.8,-2.1 v 0 c -7,-3.9 -14.5,-6.4 -22.3,-7.2 v 0" />
            </g>
            <g
               id="g4934">
              <path
                 inkscape:connector-curvature="0"
                 id="path4932"
                 style="fill:none;stroke:#205867;stroke-width:4.98079014;stroke-linecap:butt;stroke-linejoin:round;stroke-miterlimit:10;stroke-dasharray:none;stroke-opacity:1"
                 d="m 339.1,544.7 c 11.4,11 26,17.4 41.3,18.3 v 0 c 11.7,0.3 22.9,4.7 31.9,12.5 v 0 c 8.8,-4.7 19.5,-1.9 25.2,6.7 v 0 c 1.8,7.5 7.6,13.2 14.8,14.4 v 0" />
            </g>
          </g>
        </g>
      </g>
    </g>
  </g>
</svg>
