<svg width="70" height="42" viewBox="0 0 70 42" fill="none" xmlns="http://www.w3.org/2000/svg">
<rect y="1.21075" width="70" height="40" rx="5" fill="#0C8597"/>
<rect width="56.7945" height="32" transform="translate(4 5.21075)" fill="#B0DEE4"/>
<path d="M65.3972 23.8135C66.8347 23.8135 68 22.6482 68 21.2107C68 19.7733 66.8347 18.608 65.3972 18.608C63.9598 18.608 62.7945 19.7733 62.7945 21.2107C62.7945 22.6482 63.9598 23.8135 65.3972 23.8135Z" fill="#B0DEE4"/>
<path d="M23.603 23.5705C25.0455 23.5705 26.2125 22.371 26.2125 20.8865C26.2125 19.41 25.0455 18.21 23.603 18.21C22.1665 18.21 21 19.41 21 20.8865C21 22.3705 22.1665 23.5705 23.603 23.5705ZM38.218 28.1785C38.2462 28.158 38.2781 28.1432 38.312 28.1351C38.3458 28.1269 38.381 28.1255 38.4154 28.1309C38.4498 28.1364 38.4828 28.1485 38.5125 28.1667C38.5422 28.1849 38.568 28.2088 38.5885 28.237L39.071 28.923C39.1102 28.9828 39.126 29.0549 39.1153 29.1256C39.1046 29.1963 39.0682 29.2605 39.013 29.306L35.473 31.9495C35.4157 31.9904 35.3447 32.0072 35.2752 31.9961C35.2056 31.9851 35.1433 31.9471 35.1015 31.8905L34.6205 31.2045C34.581 31.145 34.565 31.0729 34.5758 31.0023C34.5865 30.9317 34.6231 30.8676 34.6785 30.8225L38.218 28.1785ZM34.2165 24.77L32.8125 22.2385L32.0755 22.792L33.4795 25.337L34.2165 24.77ZM30.941 18.8565L25.481 9L24.4365 9.007L30.1975 19.417L30.941 18.8565ZM36.0815 24.0715C36.39 23.841 37.096 23.5 37.5 23.5H42.5C43.487 23.5 44 24.493 44 25.502C44 26.517 43.487 27 42.5 27H38L32.582 31.251C30.678 32.6605 29.524 31.112 29.524 31.112L25.2825 26.7475C24.571 25.871 24.725 24.203 25.578 23.4645L31.4475 19.166C32.0305 18.666 32.896 18.7445 33.39 19.3375C33.878 19.9375 33.801 20.8345 33.217 21.3355L29.4595 24.164L32.159 26.906L36.0815 24.0715Z" fill="black"/>
</svg>
