<svg width="20" height="15" viewBox="0 0 20 15" fill="none" xmlns="http://www.w3.org/2000/svg">
<path d="M9.85352 11.5122H8.85449L8.03809 9.35303H4.77246L4.00439 11.5122H3L5.9541 3.81006H6.88867L9.85352 11.5122ZM7.74268 8.54199L6.53418 5.26025C6.49479 5.15283 6.4554 4.98096 6.41602 4.74463H6.39453C6.35872 4.96305 6.31755 5.13493 6.271 5.26025L5.07324 8.54199H7.74268Z" fill="white"/>
<path d="M11.7549 11.5122H10.874V3.36963H11.7549V11.5122Z" fill="white"/>
<path d="M16.0894 11.4585C15.8817 11.5731 15.6077 11.6304 15.2676 11.6304C14.3044 11.6304 13.8228 11.0933 13.8228 10.019V6.76416H12.8774V6.01221H13.8228V4.66943L14.7036 4.38477V6.01221H16.0894V6.76416H14.7036V9.86328C14.7036 10.2321 14.7663 10.4953 14.8916 10.6528C15.0169 10.8104 15.2246 10.8892 15.5146 10.8892C15.7367 10.8892 15.9282 10.8283 16.0894 10.7065V11.4585Z" fill="white"/>
<rect x="0.5" y="0.869629" width="18.0894" height="13.2607" rx="2.5" stroke="white"/>
</svg>
