<svg width="43" height="33" viewBox="0 0 43 33" fill="none" xmlns="http://www.w3.org/2000/svg">
<path d="M21.3343 30.6187C17.5422 30.6187 13.8968 29.7985 10.7587 28.2632L10.2887 28.0341L9.78868 28.1851L1.98008 30.5341L4.04779 23.5575L4.22357 22.965L3.88373 22.4481C2.56084 20.4317 1.87982 18.2032 1.87982 15.9755C1.88 12.1462 3.8217 8.47273 7.53998 5.65646C11.1917 2.89082 16.0849 1.33354 21.3343 1.33354C26.5834 1.3336 31.4758 2.89106 35.1272 5.65646C38.8458 8.47274 40.7885 12.1462 40.7887 15.9755C40.7887 19.8052 38.8459 23.4795 35.1272 26.2958C31.4758 29.0611 26.5834 30.6186 21.3343 30.6187Z" fill="white" stroke="#2793A2" stroke-width="2"/>
</svg>
