<svg width="65" height="62" viewBox="0 0 65 62" fill="none" xmlns="http://www.w3.org/2000/svg">
<g filter="url(#filter0_ddd_5797_2549)">
<rect x="5" y="4" width="55" height="51.0136" rx="4" fill="#2793A2"/>
<path fill-rule="evenodd" clip-rule="evenodd" d="M29.1189 12.8551C28.4079 11.2525 29.3598 9.03697 31.3776 9.01197C33.5991 8.86809 35.8796 10.034 37.0245 11.8226C38.4054 13.8811 35.9699 17.8308 35.6624 17.9602C36.5881 17.602 37.3982 17.0014 38.2059 16.4027C39.357 15.5492 40.5034 14.6994 41.9731 14.5596C44.5131 14.5603 45.1859 17.6472 44.6457 19.5336C44.2706 22.1184 41.4865 24.1765 38.7574 23.3276C38.5716 23.2809 38.3548 23.2182 38.1375 23.1553C37.3051 22.9145 36.4666 22.6718 37.3448 23.3276C37.5015 23.4447 37.653 23.5708 37.7998 23.7001C38.2631 24.1086 38.8252 24.4672 39.392 24.8289C40.6744 25.647 41.9811 26.4807 42.224 27.9423C42.2562 28.1364 42.2514 28.3359 42.21 28.5282C41.7077 30.8598 38.5067 31.6811 36.3004 31.358C33.6749 31.1495 32.0311 28.648 32.3087 26.2775C32.4367 24.6134 31.9059 25.9669 31.574 26.8135C31.5303 26.9249 31.4901 27.0275 31.4552 27.1134C31.2959 27.4917 31.1595 27.9222 31.0184 28.3676C30.5358 29.891 29.9982 31.5884 28.2967 31.9679C28.1285 32.0054 27.9543 32.0148 27.7826 32.0004C25.0783 31.7741 23.4246 28.8386 23.4806 26.4496C23.4618 24.2202 25.5548 22.7543 27.6451 22.1966C27.8673 22.1373 28.2059 21.9815 27.9826 21.9266C27.7185 21.8618 27.112 21.8461 26.5786 21.8323C26.2338 21.8234 25.9195 21.8153 25.748 21.7952C25.5384 21.7965 25.3165 21.8019 25.0866 21.8075C23.2812 21.8517 20.9836 21.9079 20.2735 20.0662C19.6569 17.4105 22.2122 14.9189 24.7824 14.3301C27.0979 13.7576 30.0739 16.9791 30.45 17.3992C30.4673 17.4186 30.4967 17.409 30.4897 17.3839C30.2327 16.4644 29.5205 14.0075 29.1189 12.8551ZM30.7674 23.1972C28.8458 21.6983 29.9842 18.3661 32.483 18.2642C34.1918 18.0815 35.7955 19.4454 35.759 21.0912C35.8786 23.4589 32.5423 24.8709 30.7674 23.1972Z" fill="white"/>
<path d="M15.2024 43.4103H13.1707L13.1598 42.4081H14.9341C15.2335 42.4081 15.4872 42.3643 15.6953 42.2767C15.907 42.1854 16.0677 42.0558 16.1772 41.8879C16.2867 41.7163 16.3415 41.51 16.3415 41.269C16.3415 41.0025 16.2904 40.7853 16.1881 40.6174C16.0859 40.4494 15.9289 40.3271 15.7172 40.2505C15.5091 40.1738 15.2426 40.1355 14.9177 40.1355H13.5869V47.0136H12.2124V39.0402H14.9177C15.3558 39.0402 15.7464 39.0822 16.0896 39.1662C16.4364 39.2501 16.7303 39.3816 16.9712 39.5605C17.2158 39.7357 17.4002 39.9584 17.5243 40.2286C17.6521 40.4987 17.716 40.82 17.716 41.1924C17.716 41.521 17.6375 41.8221 17.4805 42.096C17.3235 42.3661 17.0917 42.587 16.7851 42.7586C16.4784 42.9302 16.0969 43.0324 15.6405 43.0652L15.2024 43.4103ZM15.1422 47.0136H12.7381L13.3569 45.9238H15.1422C15.4525 45.9238 15.7117 45.8727 15.9198 45.7705C16.1279 45.6646 16.2831 45.5204 16.3853 45.3379C16.4912 45.1517 16.5441 44.9345 16.5441 44.6862C16.5441 44.427 16.4985 44.2025 16.4072 44.0126C16.3159 43.8191 16.1717 43.6713 15.9746 43.5691C15.7774 43.4632 15.52 43.4103 15.2024 43.4103H13.6581L13.6691 42.4081H15.6789L15.991 42.786C16.4291 42.8006 16.7887 42.8973 17.0698 43.0762C17.3546 43.2551 17.5663 43.4869 17.7051 43.7717C17.8438 44.0564 17.9132 44.3631 17.9132 44.6917C17.9132 45.1992 17.8018 45.6245 17.5791 45.9677C17.3601 46.3108 17.0443 46.5719 16.6317 46.7508C16.2192 46.926 15.7227 47.0136 15.1422 47.0136ZM23.9129 39.0402H25.282V44.3686C25.282 44.9746 25.1505 45.4821 24.8877 45.891C24.6248 46.2999 24.267 46.6084 23.8143 46.8165C23.3653 47.0209 22.8633 47.1231 22.3084 47.1231C21.7352 47.1231 21.2241 47.0209 20.775 46.8165C20.326 46.6084 19.9719 46.2999 19.7126 45.891C19.4571 45.4821 19.3293 44.9746 19.3293 44.3686V39.0402H20.6984V44.3686C20.6984 44.7519 20.7641 45.0677 20.8955 45.316C21.0269 45.5606 21.2131 45.7413 21.4541 45.8581C21.695 45.975 21.9798 46.0334 22.3084 46.0334C22.637 46.0334 22.9199 45.975 23.1572 45.8581C23.3981 45.7413 23.5843 45.5606 23.7158 45.316C23.8472 45.0677 23.9129 44.7519 23.9129 44.3686V39.0402ZM30.1974 39.0402V47.0136H28.8339V39.0402H30.1974ZM32.7001 39.0402V40.1355H26.3531V39.0402H32.7001ZM37.2596 39.0402V47.0136H35.896V39.0402H37.2596ZM39.7622 39.0402V40.1355H33.4153V39.0402H39.7622ZM47.1584 42.8079V43.246C47.1584 43.8483 47.0799 44.3887 46.9229 44.8669C46.766 45.3452 46.5414 45.7523 46.2494 46.0881C45.961 46.424 45.6141 46.6814 45.2089 46.8603C44.8036 47.0355 44.3546 47.1231 43.8617 47.1231C43.3725 47.1231 42.9253 47.0355 42.5201 46.8603C42.1185 46.6814 41.7698 46.424 41.4741 46.0881C41.1784 45.7523 40.9484 45.3452 40.7841 44.8669C40.6235 44.3887 40.5431 43.8483 40.5431 43.246V42.8079C40.5431 42.2055 40.6235 41.667 40.7841 41.1924C40.9447 40.7141 41.1711 40.3071 41.4631 39.9712C41.7589 39.6317 42.1075 39.3743 42.5091 39.199C42.9143 39.0201 43.3616 38.9307 43.8508 38.9307C44.3436 38.9307 44.7927 39.0201 45.1979 39.199C45.6032 39.3743 45.9518 39.6317 46.2439 39.9712C46.536 40.3071 46.7605 40.7141 46.9175 41.1924C47.0781 41.667 47.1584 42.2055 47.1584 42.8079ZM45.7839 43.246V42.7969C45.7839 42.3515 45.7401 41.959 45.6525 41.6195C45.5685 41.2763 45.4425 40.9898 45.2746 40.7598C45.1103 40.5261 44.9077 40.3509 44.6667 40.234C44.4258 40.1136 44.1538 40.0533 43.8508 40.0533C43.5478 40.0533 43.2776 40.1136 43.0403 40.234C42.803 40.3509 42.6004 40.5261 42.4324 40.7598C42.2681 40.9898 42.1422 41.2763 42.0546 41.6195C41.967 41.959 41.9231 42.3515 41.9231 42.7969V43.246C41.9231 43.6914 41.967 44.0857 42.0546 44.4288C42.1422 44.772 42.27 45.0622 42.4379 45.2996C42.6095 45.5332 42.8139 45.7103 43.0512 45.8307C43.2886 45.9476 43.5587 46.006 43.8617 46.006C44.1684 46.006 44.4404 45.9476 44.6777 45.8307C44.915 45.7103 45.1158 45.5332 45.2801 45.2996C45.4444 45.0622 45.5685 44.772 45.6525 44.4288C45.7401 44.0857 45.7839 43.6914 45.7839 43.246ZM54.9982 39.0402V47.0136H53.6237L50.0477 41.3019V47.0136H48.6731V39.0402H50.0477L53.6346 44.7629V39.0402H54.9982Z" fill="white"/>
</g>
<defs>
<filter id="filter0_ddd_5797_2549" x="0" y="0" width="65" height="61.0136" filterUnits="userSpaceOnUse" color-interpolation-filters="sRGB">
<feFlood flood-opacity="0" result="BackgroundImageFix"/>
<feColorMatrix in="SourceAlpha" type="matrix" values="0 0 0 0 0 0 0 0 0 0 0 0 0 0 0 0 0 0 127 0" result="hardAlpha"/>
<feOffset dy="1"/>
<feGaussianBlur stdDeviation="2.5"/>
<feColorMatrix type="matrix" values="0 0 0 0 0 0 0 0 0 0 0 0 0 0 0 0 0 0 0.2 0"/>
<feBlend mode="normal" in2="BackgroundImageFix" result="effect1_dropShadow_5797_2549"/>
<feColorMatrix in="SourceAlpha" type="matrix" values="0 0 0 0 0 0 0 0 0 0 0 0 0 0 0 0 0 0 127 0" result="hardAlpha"/>
<feOffset dy="3"/>
<feGaussianBlur stdDeviation="0.5"/>
<feColorMatrix type="matrix" values="0 0 0 0 0 0 0 0 0 0 0 0 0 0 0 0 0 0 0.12 0"/>
<feBlend mode="normal" in2="effect1_dropShadow_5797_2549" result="effect2_dropShadow_5797_2549"/>
<feColorMatrix in="SourceAlpha" type="matrix" values="0 0 0 0 0 0 0 0 0 0 0 0 0 0 0 0 0 0 127 0" result="hardAlpha"/>
<feOffset dy="2"/>
<feGaussianBlur stdDeviation="1"/>
<feColorMatrix type="matrix" values="0 0 0 0 0 0 0 0 0 0 0 0 0 0 0 0 0 0 0.14 0"/>
<feBlend mode="normal" in2="effect2_dropShadow_5797_2549" result="effect3_dropShadow_5797_2549"/>
<feBlend mode="normal" in="SourceGraphic" in2="effect3_dropShadow_5797_2549" result="shape"/>
</filter>
</defs>
</svg>
