<svg width="75" height="33" viewBox="0 0 75 33" fill="none" xmlns="http://www.w3.org/2000/svg">
<g filter="url(#filter0_ddd_5797_2563)">
<rect x="3.50476" y="2.80383" width="67.4306" height="25.2345" rx="2.80383" fill="#2793A2"/>
<path d="M18.5206 15.3177H16.4889L16.478 14.3156H18.2523C18.5516 14.3156 18.8054 14.2718 19.0135 14.1841C19.2252 14.0929 19.3858 13.9633 19.4954 13.7953C19.6049 13.6237 19.6597 13.4175 19.6597 13.1765C19.6597 12.91 19.6085 12.6928 19.5063 12.5248C19.4041 12.3569 19.2471 12.2346 19.0354 12.1579C18.8273 12.0813 18.5608 12.0429 18.2358 12.0429H16.9051V18.9211H15.5306V10.9477H18.2358C18.6739 10.9477 19.0646 10.9897 19.4077 11.0736C19.7546 11.1576 20.0485 11.289 20.2894 11.4679C20.534 11.6432 20.7184 11.8659 20.8425 12.136C20.9703 12.4062 21.0342 12.7275 21.0342 13.0998C21.0342 13.4284 20.9557 13.7296 20.7987 14.0034C20.6417 14.2736 20.4099 14.4945 20.1032 14.666C19.7966 14.8376 19.415 14.9399 18.9587 14.9727L18.5206 15.3177ZM18.4604 18.9211H16.0563L16.6751 17.8313H18.4604C18.7707 17.8313 19.0299 17.7802 19.238 17.678C19.4461 17.5721 19.6012 17.4279 19.7035 17.2454C19.8093 17.0592 19.8623 16.8419 19.8623 16.5937C19.8623 16.3345 19.8166 16.1099 19.7254 15.9201C19.6341 15.7266 19.4899 15.5788 19.2927 15.4765C19.0956 15.3707 18.8382 15.3177 18.5206 15.3177H16.9763L16.9873 14.3156H18.997L19.3092 14.6934C19.7473 14.708 20.1069 14.8048 20.388 14.9837C20.6728 15.1626 20.8845 15.3944 21.0232 15.6792C21.162 15.9639 21.2313 16.2706 21.2313 16.5992C21.2313 17.1066 21.12 17.5319 20.8973 17.8751C20.6782 18.2183 20.3624 18.4793 19.9499 18.6582C19.5374 18.8335 19.0408 18.9211 18.4604 18.9211ZM27.2311 10.9477H28.6001V16.2761C28.6001 16.8821 28.4687 17.3896 28.2059 17.7985C27.943 18.2073 27.5852 18.5158 27.1325 18.7239C26.6835 18.9284 26.1815 19.0306 25.6266 19.0306C25.0534 19.0306 24.5423 18.9284 24.0932 18.7239C23.6442 18.5158 23.29 18.2073 23.0308 17.7985C22.7753 17.3896 22.6475 16.8821 22.6475 16.2761V10.9477H24.0165V16.2761C24.0165 16.6594 24.0823 16.9752 24.2137 17.2234C24.3451 17.4681 24.5313 17.6488 24.7723 17.7656C25.0132 17.8824 25.298 17.9408 25.6266 17.9408C25.9551 17.9408 26.2381 17.8824 26.4754 17.7656C26.7163 17.6488 26.9025 17.4681 27.0339 17.2234C27.1654 16.9752 27.2311 16.6594 27.2311 16.2761V10.9477ZM33.5156 10.9477V18.9211H32.152V10.9477H33.5156ZM36.0183 10.9477V12.0429H29.6713V10.9477H36.0183ZM40.5778 10.9477V18.9211H39.2142V10.9477H40.5778ZM43.0804 10.9477V12.0429H36.7334V10.9477H43.0804ZM50.4766 14.7153V15.1534C50.4766 15.7558 50.3981 16.2961 50.2411 16.7744C50.0841 17.2527 49.8596 17.6597 49.5675 17.9956C49.2791 18.3315 48.9323 18.5889 48.5271 18.7677C48.1218 18.943 47.6728 19.0306 47.1799 19.0306C46.6907 19.0306 46.2435 18.943 45.8382 18.7677C45.4366 18.5889 45.088 18.3315 44.7923 17.9956C44.4966 17.6597 44.2666 17.2527 44.1023 16.7744C43.9416 16.2961 43.8613 15.7558 43.8613 15.1534V14.7153C43.8613 14.113 43.9416 13.5745 44.1023 13.0998C44.2629 12.6216 44.4893 12.2145 44.7813 11.8786C45.077 11.5391 45.4257 11.2817 45.8273 11.1065C46.2325 10.9276 46.6797 10.8382 47.169 10.8382C47.6618 10.8382 48.1109 10.9276 48.5161 11.1065C48.9213 11.2817 49.27 11.5391 49.5621 11.8786C49.8541 12.2145 50.0787 12.6216 50.2356 13.0998C50.3963 13.5745 50.4766 14.113 50.4766 14.7153ZM49.1021 15.1534V14.7044C49.1021 14.259 49.0583 13.8665 48.9706 13.527C48.8867 13.1838 48.7607 12.8972 48.5928 12.6672C48.4285 12.4336 48.2259 12.2583 47.9849 12.1415C47.744 12.021 47.472 11.9608 47.169 11.9608C46.8659 11.9608 46.5958 12.021 46.3585 12.1415C46.1212 12.2583 45.9185 12.4336 45.7506 12.6672C45.5863 12.8972 45.4604 13.1838 45.3727 13.527C45.2851 13.8665 45.2413 14.259 45.2413 14.7044V15.1534C45.2413 15.5988 45.2851 15.9931 45.3727 16.3363C45.4604 16.6795 45.5881 16.9697 45.7561 17.207C45.9277 17.4407 46.1321 17.6177 46.3694 17.7382C46.6067 17.855 46.8769 17.9135 47.1799 17.9135C47.4866 17.9135 47.7586 17.855 47.9959 17.7382C48.2332 17.6177 48.434 17.4407 48.5982 17.207C48.7625 16.9697 48.8867 16.6795 48.9706 16.3363C49.0583 15.9931 49.1021 15.5988 49.1021 15.1534ZM58.3164 10.9477V18.9211H56.9418L53.3659 13.2094V18.9211H51.9913V10.9477H53.3659L56.9528 16.6704V10.9477H58.3164Z" fill="white"/>
</g>
<defs>
<filter id="filter0_ddd_5797_2563" x="-2.71797e-05" y="2.68221e-06" width="74.4402" height="32.2441" filterUnits="userSpaceOnUse" color-interpolation-filters="sRGB">
<feFlood flood-opacity="0" result="BackgroundImageFix"/>
<feColorMatrix in="SourceAlpha" type="matrix" values="0 0 0 0 0 0 0 0 0 0 0 0 0 0 0 0 0 0 127 0" result="hardAlpha"/>
<feOffset dy="0.700958"/>
<feGaussianBlur stdDeviation="1.75239"/>
<feColorMatrix type="matrix" values="0 0 0 0 0 0 0 0 0 0 0 0 0 0 0 0 0 0 0.2 0"/>
<feBlend mode="normal" in2="BackgroundImageFix" result="effect1_dropShadow_5797_2563"/>
<feColorMatrix in="SourceAlpha" type="matrix" values="0 0 0 0 0 0 0 0 0 0 0 0 0 0 0 0 0 0 127 0" result="hardAlpha"/>
<feOffset dy="2.10287"/>
<feGaussianBlur stdDeviation="0.350479"/>
<feColorMatrix type="matrix" values="0 0 0 0 0 0 0 0 0 0 0 0 0 0 0 0 0 0 0.12 0"/>
<feBlend mode="normal" in2="effect1_dropShadow_5797_2563" result="effect2_dropShadow_5797_2563"/>
<feColorMatrix in="SourceAlpha" type="matrix" values="0 0 0 0 0 0 0 0 0 0 0 0 0 0 0 0 0 0 127 0" result="hardAlpha"/>
<feOffset dy="1.40192"/>
<feGaussianBlur stdDeviation="0.700958"/>
<feColorMatrix type="matrix" values="0 0 0 0 0 0 0 0 0 0 0 0 0 0 0 0 0 0 0.14 0"/>
<feBlend mode="normal" in2="effect2_dropShadow_5797_2563" result="effect3_dropShadow_5797_2563"/>
<feBlend mode="normal" in="SourceGraphic" in2="effect3_dropShadow_5797_2563" result="shape"/>
</filter>
</defs>
</svg>
