<svg width="48" height="28" viewBox="0 0 48 28" fill="none" xmlns="http://www.w3.org/2000/svg">
<path d="M47 2.47619C46.9766 10.0862 46.9786 17.6962 46.9786 25.3062C46.9988 26.282 45.7788 27.0189 44.9619 26.5244C38.584 22.6768 32.1819 18.8683 25.7815 15.0569C24.925 14.1411 24.987 13.4236 25.7815 12.6835C32.1814 8.8693 38.5935 5.07493 45.0048 1.27903C45.9563 1.15201 46.9355 1.68696 47 2.47619Z" fill="white" stroke="#2793A2" stroke-width="2"/>
<path d="M29.1566 1H3.64816C2.18562 1 1 2.20056 1 3.68152V24.3185C1 25.7994 2.18562 27 3.64816 27H29.1566C30.6191 27 31.8047 25.7994 31.8047 24.3185V3.68152C31.8047 2.20056 30.6191 1 29.1566 1Z" fill="white" stroke="#2793A2" stroke-width="2" stroke-linejoin="round"/>
</svg>
