<svg width="58" height="34" viewBox="0 0 58 34" fill="none" xmlns="http://www.w3.org/2000/svg">
<path d="M57.4908 2.79037C57.4621 12.0197 57.4645 21.249 57.4645 30.4783C57.4893 31.6616 55.9911 32.5554 54.9879 31.9556C47.1555 27.2894 39.2933 22.6704 31.4332 18.048C30.3814 16.9374 30.4576 16.0673 31.4332 15.1697C39.2927 10.5438 47.1672 5.94208 55.0406 1.33848C56.2091 1.18442 57.4117 1.8332 57.4908 2.79037Z" fill="white" stroke="black" stroke-miterlimit="0"/>
<path d="M35.578 1H4.2521C2.45601 1 1 2.45601 1 4.2521V29.2803C1 31.0764 2.45601 32.5324 4.2521 32.5324H35.578C37.3741 32.5324 38.8301 31.0764 38.8301 29.2803V4.2521C38.8301 2.45601 37.3741 1 35.578 1Z" fill="white" stroke="black" stroke-linejoin="round"/>
</svg>
