<?xml version="1.0" encoding="UTF-8" standalone="no"?>
<!-- Created with Inkscape (http://www.inkscape.org/) -->

<svg
   xmlns:dc="http://purl.org/dc/elements/1.1/"
   xmlns:cc="http://creativecommons.org/ns#"
   xmlns:rdf="http://www.w3.org/1999/02/22-rdf-syntax-ns#"
   xmlns:svg="http://www.w3.org/2000/svg"
   xmlns="http://www.w3.org/2000/svg"
   xmlns:sodipodi="http://sodipodi.sourceforge.net/DTD/sodipodi-0.dtd"
   xmlns:inkscape="http://www.inkscape.org/namespaces/inkscape"
   width="48.437126mm"
   height="11.763651mm"
   viewBox="0 0 48.437126 11.763651"
   version="1.1"
   id="svg933"
   inkscape:version="0.92.2 (5c3e80d, 2017-08-06)"
   sodipodi:docname="BloomWithTaglineAgainstLight.svg">
  <defs
     id="defs927" />
  <sodipodi:namedview
     id="base"
     pagecolor="#ffffff"
     bordercolor="#666666"
     borderopacity="1.0"
     inkscape:pageopacity="0.0"
     inkscape:pageshadow="2"
     inkscape:zoom="5.6"
     inkscape:cx="113.89369"
     inkscape:cy="32.205325"
     inkscape:document-units="mm"
     inkscape:current-layer="layer1"
     showgrid="false"
     fit-margin-top="0"
     fit-margin-left="0"
     fit-margin-right="0"
     fit-margin-bottom="0"
     inkscape:window-width="1920"
     inkscape:window-height="1137"
     inkscape:window-x="1912"
     inkscape:window-y="-8"
     inkscape:window-maximized="1" />
  <metadata
     id="metadata930">
    <rdf:RDF>
      <cc:Work
         rdf:about="">
        <dc:format>image/svg+xml</dc:format>
        <dc:type
           rdf:resource="http://purl.org/dc/dcmitype/StillImage" />
        <dc:title></dc:title>
      </cc:Work>
    </rdf:RDF>
  </metadata>
  <g
     inkscape:label="Layer 1"
     inkscape:groupmode="layer"
     id="layer1"
     transform="translate(-6.7473913,-5.3441233)">
    <g
       inkscape:export-ydpi="314.63"
       inkscape:export-xdpi="314.63"
       transform="matrix(0.14996369,0,0,0.14996369,-92.338496,-301.14091)"
       id="g4618">
      <path
         id="path4578"
         inkscape:connector-curvature="0"
         inkscape:export-filename="X:\dev\b36\src\BloomExe\Resources\LogoForSplashScreen.png"
         inkscape:export-xdpi="108.54"
         inkscape:export-ydpi="108.54"
         sodipodi:nodetypes="cccsccc"
         class="st1"
         d="m 695.15098,2101.6624 c 0.36137,-20.2411 -6.98799,-24.9398 -11.32525,-28.1927 -3.85542,-2.771 -11.5663,-5.7833 -17.10843,-6.8675 -4.18983,23.3065 1.57307,51.9139 24.84627,50.843 26.73943,-1.2301 26.39771,-21.5318 24.79208,-50.2405 -14.57817,1.325 -19.0361,5.6625 -19.0361,5.6625 l -0.84332,0.6025"
         style="opacity:1;fill:none;stroke:#d65649;stroke-width:9.3975563;stroke-linejoin:round;stroke-opacity:1" />
      <path
         id="path4580"
         inkscape:connector-curvature="0"
         sodipodi:nodetypes="ccscsccsscscccccssscccscscscccsscsccccscccsccsccccssscccsccscssscscssssccscsssccccssscccsccscssscscssssccscsssccscccscccsccscsccccccscsccccccccc"
         class="st2"
         d="m 738.57172,2064.2896 c 1.82496,-0.2434 4.25824,-0.365 6.93483,-0.6083 2.79829,-0.1217 5.9616,-0.2434 9.61152,-0.2434 6.93483,0 12.288,1.3383 15.93792,3.8933 3.64992,2.5549 5.47488,6.0832 5.47488,10.5847 0,3.0416 -0.72992,5.4749 -2.31157,7.5432 -1.58166,2.0683 -3.89323,3.7716 -6.93483,5.1099 3.64992,1.3383 6.44811,3.0416 8.27317,5.3532 1.82496,2.3116 2.79819,5.1099 2.79819,8.5165 0,5.1099 -1.94656,9.2464 -5.96149,12.288 -4.01494,3.0416 -9.85483,4.5017 -17.64128,4.5017 -3.28491,0 -6.32651,-0.1217 -9.36811,-0.2434 -2.92,-0.1216 -5.23157,-0.3649 -6.93493,-0.6084 l 0.1217,-56.087 m 16.78966,50.4906 c 4.86656,0 8.63808,-0.8517 11.19306,-2.555 2.67659,-1.7033 4.01494,-4.2583 4.01494,-7.5432 0,-3.2849 -1.33835,-5.7182 -3.89323,-7.5431 -2.67669,-1.825 -6.44821,-2.7983 -11.31477,-2.7983 h -9.24651 v 19.9528 c 2.92,0.3651 5.9616,0.4868 9.24651,0.4868 m -0.24331,-26.2795 c 4.25824,0 7.66475,-0.8516 10.09803,-2.6766 2.55498,-1.7034 3.77162,-4.0149 3.77162,-6.9348 0,-3.0416 -1.21664,-5.3533 -3.64992,-6.935 -2.43328,-1.5815 -5.83989,-2.3115 -10.09813,-2.3115 -1.82496,0 -3.40661,0 -4.86656,0.1217 -1.45995,0.1216 -2.79829,0.1216 -4.01493,0.2433 v 18.3712 z m 37.47253,18.2496 c 0,2.92 0.48662,5.1099 1.70326,6.4482 1.21664,1.3384 2.91989,2.0683 4.98826,2.0683 0.97323,0 2.06827,-0.1216 3.0416,-0.365 0.97323,-0.2433 1.82496,-0.4867 2.55488,-0.8517 l 1.82496,5.8399 c -0.97333,0.4866 -2.18997,0.8517 -3.52821,1.095 -1.45995,0.365 -3.0416,0.4867 -4.74496,0.4867 -1.82496,0 -3.64992,-0.2433 -5.23147,-0.8516 -1.58165,-0.4868 -2.92,-1.3384 -4.13664,-2.555 -1.21664,-1.095 -2.06826,-2.555 -2.79829,-4.38 -0.72992,-1.8249 -0.97323,-3.8932 -0.97323,-6.4481 v -46.354 h 7.29984 z m 49.15222,-7.1781 c 0,-2.0683 -0.36502,-4.1367 -0.97334,-5.9616 -0.72992,-1.825 -1.58154,-3.5283 -2.79818,-4.8666 -1.21664,-1.3382 -2.6767,-2.5549 -4.25824,-3.4066 -1.58166,-0.8516 -3.40662,-1.2167 -5.35328,-1.2167 -4.25824,0 -7.54315,1.3384 -9.85472,4.1367 -2.31168,2.7983 -3.52832,6.4482 -3.52832,11.0715 0,2.0682 0.36501,4.1365 0.97333,5.9614 0.73003,1.9467 1.58165,3.5283 2.79829,4.9883 1.21664,1.46 2.67659,2.5549 4.25824,3.4065 1.58166,0.8518 3.40662,1.2167 5.35318,1.2167 2.06826,0 4.01493,-0.3649 5.59658,-1.095 1.70326,-0.73 3.0416,-1.8249 4.25824,-3.1633 1.09494,-1.3382 2.06827,-3.0416 2.67659,-4.8665 0.48661,-1.825 0.85163,-3.8933 0.85163,-6.2048 m -34.30923,0 c 0,-3.4067 0.48661,-6.4483 1.58165,-9.1248 1.09494,-2.6767 2.55488,-4.9883 4.37984,-6.935 1.82496,-1.8249 4.01494,-3.2849 6.56992,-4.3798 2.55488,-0.9733 5.35318,-1.5817 8.27318,-1.5817 2.91989,0 5.59648,0.4866 8.15146,1.5817 2.55488,0.9733 4.74486,2.4333 6.69152,4.3798 1.82496,1.825 3.40662,4.1367 4.37984,6.8133 1.09504,2.6765 1.58166,5.7181 1.58166,9.0032 0,3.2849 -0.48662,6.3265 -1.58166,9.1248 -1.09493,2.6765 -2.55488,4.9881 -4.37984,6.9348 -1.82496,1.9465 -4.13664,3.4066 -6.69152,4.5015 -2.55498,1.095 -5.35328,1.5817 -8.27317,1.5817 -3.0416,0 -5.83989,-0.4867 -8.39477,-1.5817 -2.55499,-1.0949 -4.74496,-2.555 -6.56992,-4.5015 -1.82496,-1.9467 -3.28491,-4.2583 -4.37995,-6.9348 -0.85163,-2.6767 -1.33824,-5.5966 -1.33824,-8.8815 z m 81.27157,0 c 0,-2.0683 -0.36501,-4.1367 -0.97333,-5.9616 -0.72992,-1.825 -1.58165,-3.5283 -2.79829,-4.8666 -1.21664,-1.3382 -2.67659,-2.5549 -4.25824,-3.4066 -1.58155,-0.8516 -3.40651,-1.2167 -5.35318,-1.2167 -4.25824,0 -7.54314,1.3384 -9.85482,4.1367 -2.31158,2.7983 -3.52822,6.4482 -3.52822,11.0715 0,2.0682 0.36502,4.1365 0.97334,5.9614 0.72992,1.9467 1.58165,3.5283 2.79829,4.9883 1.21664,1.46 2.67659,2.5549 4.25824,3.4065 1.58155,0.8518 3.40651,1.2167 5.35317,1.2167 2.06827,0 4.01494,-0.3649 5.59659,-1.095 1.70325,-0.73 3.0416,-1.8249 4.25824,-3.1633 1.09493,-1.3382 2.06827,-3.0416 2.67659,-4.8665 0.60832,-1.825 0.85162,-3.8933 0.85162,-6.2048 m -34.30922,0 c 0,-3.4067 0.48661,-6.4483 1.58165,-9.1248 1.09493,-2.6767 2.55488,-4.9883 4.37984,-6.935 1.82496,-1.8249 4.01493,-3.2849 6.56992,-4.3798 2.55488,-0.9733 5.35317,-1.5817 8.27307,-1.5817 2.92,0 5.59658,0.4866 8.15157,1.5817 2.55488,0.9733 4.74485,2.4333 6.69152,4.3798 1.82496,1.825 3.40651,4.1367 4.37984,6.8133 1.09504,2.6765 1.58165,5.7181 1.58165,9.0032 0,3.2849 -0.48661,6.3265 -1.58165,9.1248 -1.09493,2.6765 -2.55488,4.9881 -4.37984,6.9348 -1.82496,1.9465 -4.13664,3.4066 -6.69152,4.5015 -2.55499,1.095 -5.35328,1.5817 -8.27317,1.5817 -3.0416,0 -5.8399,-0.4867 -8.39488,-1.5817 -2.55488,-1.0949 -4.74486,-2.555 -6.56982,-4.5015 -1.82496,-1.9467 -3.2849,-4.2583 -4.37994,-6.9348 -0.85163,-2.6767 -1.33824,-5.5966 -1.33824,-8.8815 z m 54.9921,-13.8698 c 1.45995,-2.3116 3.40662,-4.1365 5.71819,-5.7182 2.31168,-1.5816 4.98827,-2.3116 7.90816,-2.3116 3.28501,0 6.0832,0.8517 8.15157,2.4333 2.06827,1.5816 3.64992,3.7715 4.50155,6.4481 1.70325,-2.4333 3.64992,-4.6231 5.96149,-6.3265 2.31168,-1.7032 5.10998,-2.5549 8.51648,-2.5549 2.31168,0 4.25824,0.3649 5.9616,1.095 1.70326,0.73 3.1632,1.8249 4.25824,3.1633 1.09494,1.3382 1.94656,3.0416 2.55488,4.8665 0.60832,1.9466 0.85174,4.0149 0.85174,6.3265 v 27.3744 h -7.29984 v -26.766 c 0,-2.92 -0.73003,-5.2316 -2.06838,-7.0566 -1.33824,-1.8249 -3.1632,-2.6766 -5.59648,-2.6766 -1.21664,0 -2.43328,0.2434 -3.52832,0.73 -1.09493,0.4867 -2.18986,1.095 -3.2849,1.9466 -0.97334,0.8517 -1.94656,1.825 -2.9199,2.9199 -0.97333,1.0951 -1.70336,2.19 -2.55498,3.4066 v 27.4961 h -7.29984 v -26.766 c 0,-2.92 -0.73003,-5.2316 -2.06827,-7.0566 -1.33835,-1.8249 -3.16331,-2.6766 -5.59659,-2.6766 -1.21664,0 -2.31157,0.2434 -3.52821,0.73 -1.09504,0.4867 -2.18997,1.095 -3.28491,1.9466 -1.09504,0.8517 -2.06837,1.7033 -2.92,2.7983 -0.97333,1.095 -1.70325,2.19 -2.55488,3.4066 v 27.6177 h -7.29984 v -41.8524 h 7.05643 z"
         style="fill:#4d4d4d;fill-opacity:1;stroke-width:1.06666672" />
      <g
         transform="matrix(1.1406006,0,0,1.1406006,631.02077,2009.784)"
         id="g4616"
         style="fill:#d65649;fill-opacity:1">
        <path
           id="path4582"
           inkscape:connector-curvature="0"
           class="st3"
           d="m 156.48,47.68 c 0.21333,-0.106667 0.42667,-0.106667 0.53333,-0.213333 2.24,-0.64 3.94667,-0.96 4.90667,-0.96 0.74667,0 1.06667,0.213333 1.06667,0.746666 0,0.213334 -0.10667,0.426667 -0.21334,0.533334 C 162.66667,47.893333 162.45333,48 162.24,48 c -0.10667,0 -0.21333,0 -0.42667,0 -0.10666,0 -0.32,0 -0.32,0 -0.53333,0 -1.38666,0.106667 -2.24,0.426667 -0.32,0.106666 -0.96,0.32 -2.02666,0.746666 -0.64,0.32 -1.17334,0.426667 -1.70667,0.426667 -0.32,0 -0.53333,-0.106667 -0.74667,-0.426667 C 154.56,48.96 154.45333,48.64 154.45333,48.32 c 0,-0.32 0.21334,-0.96 0.53334,-1.813333 1.17333,-2.666667 2.56,-5.013334 3.94666,-7.146667 2.02667,-2.986667 3.52,-5.226667 4.69334,-6.72 0.32,-0.32 0.53333,-0.746667 0.85333,-1.066667 0.42667,-0.64 0.85333,-0.96 1.17333,-0.96 0.21334,0 0.32,0.106667 0.42667,0.213334 0.10667,0.106666 0.21333,0.32 0.21333,0.426666 0,0.213334 -0.10666,0.533334 -0.42666,0.96 -0.10667,0.106667 -0.42667,0.64 -1.17334,1.6 -1.38666,1.813334 -2.45333,3.2 -3.09333,4.266667 -0.64,0.96 -1.49333,2.133333 -2.24,3.306667 -1.38667,2.453333 -2.34667,4.586666 -2.88,6.293333 z"
           style="fill:#d65649;fill-opacity:1;stroke-width:1.06666672" />
        <path
           id="path4584"
           inkscape:connector-curvature="0"
           class="st3"
           d="m 165.97333,46.08 v 0.213333 c 0,0.213334 0,0.426667 0.10667,0.533334 0.21333,0.32 0.64,0.533333 1.17333,0.533333 1.17334,0 2.66667,-0.853333 4.26667,-2.773333 0.32,-0.32 0.53333,-0.426667 0.64,-0.426667 0.10667,0 0.21333,0 0.32,0.106667 0.10667,0.106666 0.10667,0.106666 0.10667,0.213333 0,0.32 -0.42667,0.96 -1.49334,1.92 -0.74666,0.64 -1.6,1.386667 -2.34666,1.813333 -0.74667,0.426667 -1.6,0.64 -2.34667,0.64 -0.74667,0 -1.38667,-0.213333 -1.81333,-0.746666 -0.32,-0.32 -0.42667,-0.746667 -0.42667,-1.493334 0,-1.706666 0.74667,-3.2 2.34667,-4.906666 1.17333,-1.386667 2.34666,-1.92 3.30666,-1.92 0.21334,0 0.42667,0.106666 0.64,0.213333 0.21334,0.213333 0.32,0.533333 0.32,0.853333 0,0.533334 -0.10666,1.28 -0.42666,1.92 -0.96,1.92 -2.45334,2.666667 -4.37334,3.306667 z m 0.32,-1.173333 c 0.64,-0.213334 1.06667,-0.32 1.70667,-0.746667 0.85333,-0.64 1.17333,-0.96 1.70667,-1.813333 0.10666,-0.213334 0.21333,-0.426667 0.21333,-0.64 0,-0.213334 -0.10667,-0.32 -0.32,-0.32 -0.21333,0 -0.64,0.213333 -1.06667,0.533333 -1.06666,0.746667 -1.70666,1.706667 -2.24,2.986667 z"
           style="fill:#d65649;fill-opacity:1;stroke-width:1.06666672" />
        <path
           id="path4586"
           inkscape:connector-curvature="0"
           class="st3"
           d="m 177.70667,39.36 c -0.64,0.96 -1.17334,2.133333 -1.81334,3.306667 -0.74666,1.813333 -1.06666,2.986666 -1.06666,3.946666 0,0.213334 0,0.426667 0.10666,0.533334 C 175.04,47.253333 175.14667,47.36 175.36,47.36 c 0.42667,0 1.06667,-0.426667 1.81333,-1.386667 C 177.6,45.44 177.92,44.906667 178.34667,44.266667 178.56,43.946667 178.66667,43.84 178.88,43.84 c 0.10667,0 0.21333,0 0.32,0.106667 0.10667,0.106666 0.10667,0.213333 0.10667,0.213333 0,0.32 -0.42667,1.173333 -1.49334,2.453333 -1.06666,1.6 -2.24,2.24 -3.09333,2.24 -0.42667,0 -0.85333,-0.213333 -1.17333,-0.64 -0.21334,-0.32 -0.32,-0.64 -0.32,-1.173333 0,-1.173333 0.32,-2.56 0.96,-4.16 0.10666,-0.426667 0.64,-1.386667 1.38666,-2.773333 -0.21333,0.106666 -0.42666,0.106666 -0.53333,0.106666 -0.21333,0 -0.32,0 -0.53333,-0.106666 -0.21334,-0.106667 -0.32,-0.32 -0.32,-0.533334 0,-0.213333 0.10666,-0.426666 0.42666,-0.533333 0.10667,0 0.42667,-0.106667 1.06667,-0.213333 0.21333,0 0.53333,-0.106667 0.96,-0.32 0.32,-0.64 0.85333,-1.493334 1.70667,-2.56 0.42666,-0.533334 0.74666,-0.96 0.85333,-1.066667 0.21333,-0.213333 0.42667,-0.32 0.64,-0.32 0.10667,0 0.21333,0.106667 0.32,0.213333 0.10667,0.106667 0.21333,0.213334 0.21333,0.32 0,0.213334 -0.21333,0.746667 -0.74666,1.6 -0.32,0.426667 -0.64,0.853334 -0.74667,1.173334 1.06667,-0.32 1.92,-0.426667 2.34667,-0.426667 0.53333,0 0.74666,0.213333 0.74666,0.64 0,0.213333 -0.10666,0.426667 -0.32,0.426667 -0.10666,0.106666 -0.32,0.106666 -0.74666,0.106666 -0.10667,0 -0.85334,0.213334 -2.24,0.533334 -0.21334,0 -0.64,0.106666 -0.96,0.213333 z"
           style="fill:#d65649;fill-opacity:1;stroke-width:1.06666672" />
        <path
           id="path4588"
           inkscape:connector-curvature="0"
           class="st3"
           d="m 187.73333,29.76 c 0.10667,0 0.21334,0 0.32,0.106667 0.10667,0.106666 0.21334,0.32 0.21334,0.533333 0,0.426667 -0.53334,1.813333 -1.81334,4.053333 C 186.02667,35.2 185.70667,35.626667 185.6,35.946667 185.49333,36.053333 185.28,36.16 185.17333,36.16 c -0.32,0 -0.53333,-0.213333 -0.53333,-0.64 0,-0.32 0.21333,-0.746667 0.53333,-1.493333 0.85334,-1.813334 1.38667,-2.666667 1.38667,-2.88 0.32,-0.96 0.74667,-1.386667 1.17333,-1.386667 z"
           style="fill:#d65649;fill-opacity:1;stroke-width:1.06666672" />
        <path
           id="path4590"
           inkscape:connector-curvature="0"
           class="st3"
           d="m 189.12,39.04 c 0.53333,0 1.06667,0.106667 1.38667,0.32 0.32,0.213333 0.42666,0.533333 0.42666,0.96 0,0.533333 -0.21333,1.066667 -0.64,1.706667 -0.42666,0.64 -0.96,0.853333 -1.92,1.173333 -0.42666,0.106667 -0.74666,0.213333 -1.06666,0.213333 -0.42667,0 -0.64,-0.213333 -0.64,-0.533333 0,-0.213333 0.10666,-0.426667 0.32,-0.533333 0.10666,0 0.42666,-0.106667 0.96,-0.213334 0.32,-0.106666 0.64,-0.213333 0.96,-0.533333 0.21333,-0.213333 0.42666,-0.426667 0.42666,-0.746667 0,-0.213333 -0.10666,-0.32 -0.21333,-0.426666 C 189.01333,40.32 188.8,40.32 188.58667,40.32 c -0.53334,0 -1.17334,0.213333 -1.92,0.64 -0.74667,0.533333 -1.17334,1.066667 -1.17334,1.92 0,0.533333 0.21334,1.066667 0.74667,1.92 0.53333,0.853333 0.85333,1.6 0.85333,2.133333 0,0.853334 -0.32,1.6 -1.06666,2.026667 -0.42667,0.32 -0.96,0.426667 -1.6,0.426667 -0.85334,0 -1.70667,-0.32 -2.13334,-0.96 C 181.97333,48 181.76,47.466667 181.76,46.72 c 0,-0.746667 0.21333,-1.493333 0.53333,-1.92 0.21334,-0.32 0.53334,-0.533333 0.74667,-0.533333 0.21333,0 0.32,0.106666 0.32,0.32 0,0.106666 0,0.213333 -0.10667,0.32 -0.21333,0.426666 -0.32,0.853333 -0.32,1.493333 0,0.426667 0.21334,0.853333 0.53334,1.173333 0.32,0.32 0.64,0.426667 0.96,0.426667 0.32,0 0.64,-0.106667 0.85333,-0.32 0.21333,-0.213333 0.21333,-0.426667 0.21333,-0.746667 0,-0.426666 -0.21333,-0.853333 -0.64,-1.6 -0.64,-0.853333 -0.96,-1.706666 -0.96,-2.453333 0,-0.96 0.53334,-1.92 1.6,-2.56 1.38667,-0.853333 2.45334,-1.28 3.62667,-1.28 z"
           style="fill:#d65649;fill-opacity:1;stroke-width:1.06666672" />
        <path
           id="path4592"
           inkscape:connector-curvature="0"
           class="st3"
           d="m 201.92,47.68 c 0.96,-0.746667 1.81333,-1.493333 2.34667,-2.133333 0.74666,-0.853334 1.38666,-1.706667 1.6,-2.24 0.10666,-0.213334 0.32,-0.32 0.42666,-0.32 0.21334,0 0.32,0.106666 0.32,0.32 0,0.213333 -0.21333,0.64 -0.53333,1.386666 -1.06667,1.92 -2.88,3.52 -5.22667,4.906667 -1.06666,2.24 -1.92,3.733333 -2.34666,4.586667 C 197.12,56.32 195.84,57.28 194.77333,57.28 c -0.64,0 -1.06666,-0.213333 -1.38666,-0.746667 -0.10667,-0.32 -0.21334,-0.533333 -0.21334,-0.96 0,-1.6 0.96,-2.986666 2.98667,-4.48 0.32,-0.213333 1.6,-0.96 3.73333,-2.24 C 200.32,48 200.64,47.146667 200.85333,46.72 c -0.96,1.066667 -1.92,1.706667 -2.56,1.706667 -0.42666,0 -0.74666,-0.213334 -0.96,-0.64 -0.10666,-0.32 -0.21333,-0.533334 -0.21333,-0.853334 0,-0.64 0.32,-1.6 0.85333,-2.666666 0.74667,-1.6 1.81334,-2.88 2.98667,-3.733334 0.96,-0.746666 1.81333,-1.066666 2.56,-1.066666 0.32,0 0.64,0.106666 0.96,0.426666 0.21333,0.213334 0.32,0.426667 0.32,0.746667 0,0.426667 -0.10667,0.96 -0.42667,1.706667 0.21334,0.213333 0.32,0.32 0.32,0.426666 0,0.106667 0,0.106667 -0.10666,0.32 -0.21334,0.32 -0.64,0.96 -1.17334,2.026667 -0.64,0.746667 -1.06666,1.493333 -1.49333,2.56 z m -0.10667,-3.52 C 201.70667,44.053333 201.6,43.946667 201.6,43.84 c 0,-0.106667 0.10667,-0.213333 0.21333,-0.32 0.42667,-0.426667 0.85334,-0.96 1.17334,-1.493333 0.21333,-0.426667 0.32,-0.64 0.32,-0.853334 0,-0.213333 -0.10667,-0.426666 -0.32,-0.426666 -0.42667,0 -0.96,0.426666 -1.81334,1.173333 -0.85333,0.96 -1.70666,2.026667 -2.24,3.2 -0.21333,0.533333 -0.32,0.96 -0.32,1.386667 0,0.213333 0,0.32 0.10667,0.426666 0.10667,0.106667 0.21333,0.106667 0.32,0.106667 0.32,0 0.74667,-0.32 1.49333,-0.96 0.42667,-0.426667 0.74667,-0.853333 0.96,-1.386667 0.32,-0.32 0.32,-0.533333 0.32,-0.533333 z M 199.04,50.666667 C 197.65333,51.2 196.58667,52.053333 195.62667,53.12 195.2,53.653333 194.88,54.186667 194.66667,54.826667 194.56,55.04 194.56,55.146667 194.56,55.253333 c 0,0.106667 0,0.213334 0.10667,0.32 0.10666,0.213334 0.21333,0.213334 0.42666,0.213334 0.53334,0 1.38667,-0.64 2.13334,-2.026667 0.64,-0.96 1.28,-2.133333 1.81333,-3.093333 z"
           style="fill:#d65649;fill-opacity:1;stroke-width:1.06666672" />
        <path
           id="path4594"
           inkscape:connector-curvature="0"
           class="st3"
           d="m 209.49333,44.053333 c 0.96,-0.96 2.13334,-2.026666 3.30667,-2.986666 0.42667,-0.32 0.85333,-0.64 1.49333,-0.96 C 214.50667,40 214.72,39.893333 214.72,39.893333 c 0.10667,0 0.32,0.106667 0.42667,0.32 0.10666,0.106667 0.10666,0.213334 0.10666,0.32 0,0.213334 -0.21333,0.426667 -0.53333,0.64 -0.96,0.746667 -1.49333,1.386667 -1.49333,1.813334 0,0.213333 0.10666,0.32 0.32,0.32 0.42666,0 1.06666,-0.32 2.24,-0.96 0.21333,-0.106667 0.32,-0.213334 0.42666,-0.213334 0.10667,0 0.10667,0 0.21334,0.106667 0.10666,0.106667 0.10666,0.213333 0.10666,0.32 0,0.32 -0.42666,0.746667 -1.17333,1.386667 -0.85333,0.64 -1.70667,0.96 -2.45333,0.96 -0.32,0 -0.53334,-0.106667 -0.85334,-0.213334 -0.21333,-0.106666 -0.32,-0.32 -0.32,-0.746666 0,-0.213334 0.10667,-0.533334 0.32,-0.853334 -0.74666,0.533334 -1.70666,1.493334 -2.77333,2.773334 -0.53333,0.746666 -1.17333,1.813333 -1.81333,2.986666 -0.21334,0.426667 -0.53334,0.64 -0.85334,0.64 -0.32,0 -0.53333,-0.213333 -0.53333,-0.533333 0,-0.32 0.32,-1.173333 0.85333,-2.666667 C 207.78667,44.16 208.64,42.56 209.6,41.28 c 0.53333,-0.746667 0.96,-1.066667 1.49333,-1.066667 0.10667,0 0.21334,0 0.32,0.106667 0.10667,0.106667 0.21334,0.213333 0.21334,0.32 0,0.106667 -0.10667,0.32 -0.32,0.64 0,0 -0.32,0.32 -0.74667,0.96 -0.53333,0.64 -0.85333,1.173333 -1.06667,1.813333 z"
           style="fill:#d65649;fill-opacity:1;stroke-width:1.06666672" />
        <path
           id="path4596"
           inkscape:connector-curvature="0"
           class="st3"
           d="m 221.54667,39.36 c 0.74666,0 1.17333,0.426667 1.17333,1.493333 0,1.386667 -0.53333,2.88 -1.81333,4.906667 -1.38667,2.133333 -2.56,3.2 -3.73334,3.2 -0.53333,0 -0.96,-0.213333 -1.17333,-0.746667 -0.10667,-0.213333 -0.21333,-0.533333 -0.21333,-0.96 0,-1.173333 0.42666,-2.56 1.38666,-4.16 C 217.92,41.706667 218.98667,40.64 219.94667,40 c 0.53333,-0.426667 1.17333,-0.64 1.6,-0.64 z M 220.16,45.013333 c -0.21333,-0.213333 -0.32,-0.32 -0.32,-0.426666 0,-0.106667 0.10667,-0.32 0.42667,-0.64 0.85333,-0.96 1.38666,-1.813334 1.38666,-2.346667 0,-0.106667 0,-0.106667 -0.10666,-0.213333 -0.10667,-0.106667 -0.21334,-0.213334 -0.32,-0.213334 -0.32,0 -0.74667,0.32 -1.38667,0.853334 -0.74667,0.746666 -1.38667,1.6 -1.81333,2.453333 -0.42667,0.96 -0.64,1.813333 -0.64,2.346667 0,0.106666 0,0.32 0.10666,0.426666 0.10667,0.213334 0.32,0.213334 0.42667,0.213334 0.42667,0 0.96,-0.32 1.6,-0.96 0.21333,-0.32 0.42667,-0.533334 0.53333,-0.853334 0,-0.533333 0.10667,-0.64 0.10667,-0.64 z"
           style="fill:#d65649;fill-opacity:1;stroke-width:1.06666672" />
        <path
           id="path4598"
           inkscape:connector-curvature="0"
           class="st3"
           d="m 227.94667,44.693333 c -0.85334,1.066667 -1.49334,1.92 -1.92,2.346667 -0.42667,0.533333 -0.85334,0.96 -1.38667,1.173333 -0.42667,0.32 -0.74667,0.426667 -1.06667,0.426667 -0.32,0 -0.53333,-0.213333 -0.74666,-0.533333 -0.10667,-0.213334 -0.21334,-0.533334 -0.21334,-0.853334 0,-1.066666 0.64,-2.56 1.92,-4.48 1.06667,-1.706666 2.02667,-2.56 2.56,-2.56 0.10667,0 0.21334,0.106667 0.42667,0.213334 0.10667,0.106666 0.21333,0.213333 0.21333,0.426666 0,0.213334 -0.21333,0.533334 -0.53333,0.853334 -0.74667,0.746666 -1.6,1.706666 -2.13333,2.666666 -0.53334,0.853334 -0.74667,1.493334 -0.74667,1.706667 0,0.213333 0.10667,0.32 0.21333,0.32 0.53334,0 1.92,-1.173333 3.73334,-3.733333 0.64,-0.746667 0.96,-1.386667 1.06666,-1.493334 0.21334,-0.213333 0.53334,-0.32 0.74667,-0.32 0.21333,0 0.32,0 0.42667,0.106667 0.10666,0.106667 0.10666,0.213333 0.10666,0.32 0,0.106667 -0.21333,0.533333 -0.64,1.493333 -1.06666,1.92 -1.6,3.093334 -1.6,3.733334 0,0.213333 0.10667,0.32 0.32,0.32 0.32,0 0.85334,-0.426667 1.49334,-1.173334 0.53333,-0.746666 1.06666,-1.813333 1.70666,-2.88 C 232.10667,42.24 232.32,41.6 232.42667,40.746667 c 0.21333,-0.96 0.53333,-1.493334 1.17333,-1.493334 0.32,0 0.42667,0.213334 0.42667,0.533334 0,1.386666 -0.64,2.986666 -2.13334,5.226666 -1.49333,2.346667 -2.77333,3.52 -3.73333,3.52 -0.74667,0 -1.06667,-0.426666 -1.06667,-1.493333 0.10667,-0.213333 0.42667,-1.173333 0.85334,-2.346667 z"
           style="fill:#d65649;fill-opacity:1;stroke-width:1.06666672" />
        <path
           id="path4600"
           inkscape:connector-curvature="0"
           class="st3"
           d="m 243.84,46.4 c -0.32,0.533333 -0.64,0.96 -0.96,1.493333 C 242.24,48.64 241.70667,48.96 241.06667,48.96 c -0.64,0 -0.85334,-0.213333 -1.17334,-0.746667 -0.21333,-0.32 -0.32,-0.64 -0.32,-1.066666 0,-1.066667 0.32,-2.346667 0.96,-3.52 0.74667,-1.493334 1.70667,-2.56 2.77334,-3.306667 0.64,-0.533333 1.38666,-0.746667 2.02666,-0.746667 0.42667,0 0.74667,0.106667 0.96,0.32 0.21334,0.213334 0.32,0.426667 0.32,0.746667 0,0.213333 -0.10666,0.533333 -0.21333,0.853333 0.10667,0.213334 0.21333,0.32 0.21333,0.533334 0,0.213333 -0.10666,0.533333 -0.42666,0.96 -0.32,0.426666 -0.53334,1.066666 -0.85334,1.92 -0.32,0.853333 -0.42666,1.6 -0.42666,2.026666 0,0.426667 0.10666,0.746667 0.32,0.96 0.10666,0.106667 0.21333,0.213334 0.53333,0.32 0.21333,0.106667 0.32,0.32 0.32,0.64 0,0.213334 -0.10667,0.32 -0.21333,0.426667 -0.10667,0.106667 -0.32,0.213333 -0.53334,0.213333 -0.53333,0 -0.96,-0.213333 -1.38666,-0.64 C 243.62667,48.533333 243.52,48 243.52,47.36 c 0.32,-0.213333 0.32,-0.533333 0.32,-0.96 z m 1.92,-4.8 c -0.10667,-0.213333 -0.21333,-0.32 -0.32,-0.426667 -0.10667,-0.106666 -0.32,-0.106666 -0.42667,-0.106666 -0.74666,0 -1.6,0.64 -2.45333,2.026666 -0.96,1.493334 -1.49333,2.666667 -1.49333,3.626667 0,0.213333 0,0.426667 0.10666,0.533333 0.10667,0.106667 0.21334,0.213334 0.42667,0.213334 0.42667,0 0.96,-0.426667 1.70667,-1.493334 0.32,-0.533333 0.74666,-1.386666 1.38666,-2.453333 0.32,-0.64 0.53334,-1.066667 0.74667,-1.386667 0,-0.213333 0.10667,-0.426666 0.32,-0.533333 z"
           style="fill:#d65649;fill-opacity:1;stroke-width:1.06666672" />
        <path
           id="path4602"
           inkscape:connector-curvature="0"
           class="st3"
           d="m 256.21333,43.946667 c -0.32,0.746666 -0.53333,1.386666 -0.64,1.92 -0.10666,0.426666 -0.21333,0.746666 -0.21333,0.96 0,0.213333 0.10667,0.32 0.32,0.32 0.32,0 0.74667,-0.32 1.38667,-0.96 0.21333,-0.32 0.64,-0.853334 1.17333,-1.813334 0.21333,-0.32 0.42667,-0.426666 0.64,-0.426666 0.21333,0 0.32,0.106666 0.32,0.32 0,0.426666 -0.42667,1.173333 -1.49333,2.56 -0.96,1.386666 -1.92,2.026666 -2.77334,2.026666 -0.32,0 -0.64,-0.106666 -0.85333,-0.426666 C 253.97333,48.213333 253.86667,48 253.86667,47.68 c 0,-0.533333 0.10666,-1.386667 0.42666,-2.24 0.32,-0.96 0.74667,-2.133333 1.49334,-3.52 1.70666,-3.52 3.41333,-6.506667 5.12,-8.64 1.49333,-1.92 2.56,-2.773333 3.41333,-2.773333 0.32,0 0.53333,0.106666 0.64,0.32 0.21333,0.213333 0.32,0.426666 0.32,0.746666 0,1.386667 -1.17333,3.626667 -3.62667,6.826667 -1.06666,1.493333 -2.45333,2.773333 -3.94666,4.266667 -0.21334,0.213333 -0.85334,0.746666 -1.49334,1.28 z M 257.17333,41.6 C 259.2,39.786667 261.12,37.653333 262.61333,34.986667 263.36,33.6 263.78667,32.64 263.78667,32.213333 c 0,-0.213333 -0.10667,-0.32 -0.32,-0.32 -0.53334,0 -1.6,1.066667 -2.88,3.2 C 259.52,36.906667 258.34667,39.04 257.17333,41.6 Z"
           style="fill:#d65649;fill-opacity:1;stroke-width:1.06666672" />
        <path
           id="path4604"
           inkscape:connector-curvature="0"
           class="st3"
           d="m 264.10667,40.106667 c 0.10666,0 0.32,0.106666 0.42666,0.213333 0.10667,0.106667 0.10667,0.213333 0.10667,0.32 0,0.213333 -0.10667,0.426667 -0.42667,0.853333 -0.96,1.6 -1.81333,2.88 -2.24,3.946667 -0.42666,0.96 -0.85333,2.133333 -1.17333,3.2 -0.10667,0.426667 -0.42667,0.746667 -0.74667,0.746667 -0.21333,0 -0.32,-0.106667 -0.42666,-0.213334 C 259.52,49.066667 259.52,48.96 259.52,48.746667 c 0,-0.32 0.32,-1.173334 0.85333,-2.88 C 260.8,44.48 261.76,43.093333 262.72,41.493333 c 0.32,-0.533333 0.64,-0.853333 0.74667,-0.96 0.32,-0.32 0.42666,-0.426666 0.64,-0.426666 z M 266.88,34.56 c 0.42667,0 0.64,0.213333 0.64,0.64 0,0.426667 -0.21333,0.853333 -0.64,1.386667 -0.42667,0.533333 -0.74667,0.64 -1.17333,0.64 -0.21334,0 -0.32,-0.106667 -0.42667,-0.213334 -0.10667,-0.106666 -0.21333,-0.32 -0.21333,-0.426666 0,-0.426667 0.21333,-0.96 0.74666,-1.493334 C 266.24,34.88 266.56,34.56 266.88,34.56 Z"
           style="fill:#d65649;fill-opacity:1;stroke-width:1.06666672" />
        <path
           id="path4606"
           inkscape:connector-curvature="0"
           class="st3"
           d="m 268.48,41.173333 c 0.74667,-0.64 1.6,-0.96 2.24,-0.96 0.42667,0 0.74667,0.213334 0.96,0.533334 0.21333,0.32 0.32,0.64 0.32,0.96 0,0.746666 -0.21333,1.706666 -0.74667,2.773333 -0.53333,1.173333 -1.38666,2.346667 -2.45333,3.306667 -0.85333,0.853333 -1.70667,1.386666 -2.45333,1.386666 -0.32,0 -0.53334,0 -0.74667,-0.106666 C 265.38667,48.96 265.17333,48.853333 264.96,48.64 c -0.10667,0.106667 -0.10667,0.213333 -0.10667,0.213333 -0.10666,0.32 -0.32,0.533334 -0.32,0.64 C 264.42667,49.6 264.32,49.6 264.21333,49.6 264,49.6 263.89333,49.493333 263.78667,49.28 263.68,49.173333 263.68,48.96 263.68,48.853333 c 0,-0.213333 0.53333,-1.706666 1.70667,-4.16 1.6,-3.413333 3.41333,-6.933333 5.44,-10.346666 0.85333,-1.493334 1.38666,-2.24 1.6,-2.453334 0.21333,-0.32 0.42666,-0.426666 0.53333,-0.426666 0.21333,0 0.42667,0.106666 0.53333,0.32 0.10667,0.106666 0.10667,0.32 0.10667,0.426666 0,0.213334 -0.10667,0.426667 -0.32,0.746667 0,0.106667 -0.32,0.533333 -0.85333,1.6 -1.81334,2.453333 -3.09334,4.8 -3.94667,6.613333 z M 265.6,47.04 c 0.10667,0.213333 0.32,0.32 0.42667,0.426667 0.10666,0.106666 0.32,0.106666 0.42666,0.106666 0.85334,0 1.81334,-0.746666 2.66667,-2.24 0.42667,-0.64 0.74667,-1.386666 0.96,-2.026666 0.21333,-0.533334 0.32,-0.96 0.32,-1.386667 0,-0.213333 0,-0.32 -0.10667,-0.426667 -0.10666,-0.106666 -0.21333,-0.106666 -0.42666,-0.106666 -0.42667,0 -0.96,0.32 -1.70667,0.853333 -0.64,0.533333 -1.17333,1.493333 -1.92,2.666667 -0.32,0.533333 -0.53333,1.066666 -0.74667,1.6 C 265.70667,46.933333 265.6,47.04 265.6,47.04 Z"
           style="fill:#d65649;fill-opacity:1;stroke-width:1.06666672" />
        <path
           id="path4608"
           inkscape:connector-curvature="0"
           class="st3"
           d="m 274.98667,44.053333 c 0.96,-0.96 2.13333,-2.026666 3.30666,-2.986666 0.42667,-0.32 0.85334,-0.64 1.49334,-0.96 C 280,40 280.21333,39.893333 280.21333,39.893333 c 0.10667,0 0.32,0.106667 0.42667,0.32 0.10667,0.106667 0.10667,0.213334 0.10667,0.32 0,0.213334 -0.21334,0.426667 -0.53334,0.64 C 279.25333,41.92 278.72,42.56 278.72,42.986667 c 0,0.213333 0.10667,0.32 0.32,0.32 0.42667,0 1.06667,-0.32 2.24,-0.96 0.21333,-0.106667 0.32,-0.213334 0.42667,-0.213334 0.10666,0 0.10666,0 0.21333,0.106667 0.10667,0.106667 0.10667,0.213333 0.10667,0.32 0,0.32 -0.42667,0.746667 -1.17334,1.386667 -0.85333,0.64 -1.70666,0.96 -2.45333,0.96 -0.32,0 -0.53333,-0.106667 -0.85333,-0.213334 -0.21334,-0.106666 -0.32,-0.32 -0.32,-0.746666 0,-0.213334 0.10666,-0.533334 0.32,-0.853334 C 276.8,43.626667 275.84,44.586667 274.77333,45.866667 274.24,46.613333 273.6,47.68 272.96,48.853333 c -0.21333,0.426667 -0.53333,0.64 -0.85333,0.64 -0.32,0 -0.53334,-0.213333 -0.53334,-0.533333 0,-0.32 0.32,-1.173333 0.85334,-2.666667 C 273.28,44.16 274.13333,42.56 275.09333,41.28 c 0.53334,-0.746667 0.96,-1.066667 1.49334,-1.066667 0.10666,0 0.21333,0 0.32,0.106667 0.10666,0.106667 0.21333,0.213333 0.21333,0.32 0,0.106667 -0.10667,0.32 -0.32,0.64 0,0 -0.32,0.32 -0.74667,0.96 -0.42666,0.64 -0.74666,1.173333 -1.06666,1.813333 z"
           style="fill:#d65649;fill-opacity:1;stroke-width:1.06666672" />
        <path
           id="path4610"
           inkscape:connector-curvature="0"
           class="st3"
           d="m 286.18667,46.4 c -0.32,0.533333 -0.64,0.96 -0.96,1.493333 C 284.58667,48.64 284.05333,48.96 283.41333,48.96 282.88,48.96 282.56,48.746667 282.24,48.213333 c -0.21333,-0.32 -0.32,-0.64 -0.32,-1.066666 0,-1.066667 0.32,-2.346667 0.96,-3.52 0.74667,-1.493334 1.70667,-2.56 2.77333,-3.306667 0.64,-0.533333 1.38667,-0.746667 2.02667,-0.746667 0.42667,0 0.74667,0.106667 0.96,0.32 0.21333,0.213334 0.32,0.426667 0.32,0.746667 0,0.213333 -0.10667,0.533333 -0.21333,0.853333 0.10666,0.213334 0.21333,0.32 0.21333,0.533334 0,0.213333 -0.10667,0.533333 -0.42667,0.96 -0.32,0.426666 -0.53333,1.066666 -0.85333,1.92 -0.32,0.853333 -0.42667,1.6 -0.42667,2.026666 0,0.426667 0.10667,0.746667 0.32,0.96 0.10667,0.106667 0.21334,0.213334 0.53334,0.32 0.21333,0.106667 0.32,0.32 0.32,0.64 0,0.213334 -0.10667,0.32 -0.21334,0.426667 -0.10666,0.106667 -0.32,0.213333 -0.53333,0.213333 -0.53333,0 -0.96,-0.213333 -1.38667,-0.64 -0.32,-0.32 -0.42666,-0.853333 -0.42666,-1.493333 0.21333,-0.213333 0.21333,-0.533333 0.32,-0.96 z M 288,41.6 c -0.10667,-0.213333 -0.21333,-0.32 -0.32,-0.426667 -0.10667,-0.106666 -0.32,-0.106666 -0.42667,-0.106666 -0.74666,0 -1.6,0.64 -2.45333,2.026666 -0.96,1.493334 -1.49333,2.666667 -1.49333,3.626667 0,0.213333 0,0.426667 0.10666,0.533333 0.10667,0.106667 0.21334,0.213334 0.42667,0.213334 0.42667,0 0.96,-0.426667 1.70667,-1.493334 0.32,-0.533333 0.74666,-1.386666 1.38666,-2.453333 0.32,-0.64 0.53334,-1.066667 0.74667,-1.386667 C 287.57333,41.92 287.68,41.706667 288,41.6 Z"
           style="fill:#d65649;fill-opacity:1;stroke-width:1.06666672" />
        <path
           id="path4612"
           inkscape:connector-curvature="0"
           class="st3"
           d="m 293.01333,44.053333 c 0.96,-0.96 2.13334,-2.026666 3.30667,-2.986666 0.42667,-0.32 0.85333,-0.64 1.49333,-0.96 C 298.02667,40 298.24,39.893333 298.24,39.893333 c 0.10667,0 0.32,0.106667 0.42667,0.32 0.10666,0.106667 0.10666,0.213334 0.10666,0.32 0,0.213334 -0.21333,0.426667 -0.53333,0.64 -0.96,0.746667 -1.49333,1.386667 -1.49333,1.813334 0,0.213333 0.10666,0.32 0.32,0.32 0.42666,0 1.06666,-0.32 2.24,-0.96 0.21333,-0.106667 0.32,-0.213334 0.42666,-0.213334 0.10667,0 0.10667,0 0.21334,0.106667 0.10666,0.106667 0.10666,0.213333 0.10666,0.32 0,0.32 -0.42666,0.746667 -1.17333,1.386667 -0.85333,0.64 -1.70667,0.96 -2.45333,0.96 -0.32,0 -0.53334,-0.106667 -0.85334,-0.213334 -0.21333,-0.106666 -0.32,-0.32 -0.32,-0.746666 0,-0.213334 0.10667,-0.533334 0.32,-0.853334 -0.74666,0.533334 -1.70666,1.493334 -2.77333,2.773334 -0.53333,0.746666 -1.17333,1.813333 -1.81333,2.986666 -0.21334,0.426667 -0.53334,0.64 -0.85334,0.64 -0.32,0 -0.53333,-0.213333 -0.53333,-0.533333 0,-0.32 0.32,-1.173333 0.85333,-2.666667 C 291.30667,44.16 292.16,42.56 293.12,41.28 c 0.53333,-0.746667 0.96,-1.066667 1.49333,-1.066667 0.10667,0 0.21334,0 0.32,0.106667 0.10667,0.106667 0.21334,0.213333 0.21334,0.32 0,0.106667 -0.10667,0.32 -0.32,0.64 0,0 -0.32,0.32 -0.74667,0.96 -0.53333,0.64 -0.85333,1.173333 -1.06667,1.813333 z"
           style="fill:#d65649;fill-opacity:1;stroke-width:1.06666672" />
        <path
           id="path4614"
           inkscape:connector-curvature="0"
           class="st3"
           d="m 304.74667,44.693333 c -0.85334,0.96 -1.6,1.813334 -2.13334,2.346667 -0.96,0.96 -1.92,1.493333 -2.56,1.493333 -0.32,0 -0.53333,-0.106666 -0.74666,-0.32 C 299.2,48 299.09333,47.786667 299.09333,47.466667 c 0,-0.96 0.64,-2.453334 1.92,-4.266667 1.17334,-1.813333 2.24,-2.666667 2.77334,-2.666667 0.10666,0 0.32,0.106667 0.42666,0.213334 0.10667,0.106666 0.10667,0.213333 0.10667,0.32 0,0.213333 -0.10667,0.426666 -0.21333,0.533333 -0.10667,0.106667 -0.42667,0.533333 -0.96,1.066667 -0.53334,0.533333 -1.06667,1.173333 -1.6,1.92 -0.53334,0.746666 -0.74667,1.386666 -0.74667,1.706666 0,0.213334 0.10667,0.32 0.32,0.32 0.42667,0 1.06667,-0.533333 2.24,-1.6 0.64,-0.64 1.17333,-1.173333 1.6,-1.706666 0.10667,-0.106667 0.42667,-0.533334 0.96,-1.493334 0.53333,-0.746666 0.85333,-1.173333 0.96,-1.386666 0.32,-0.32 0.53333,-0.533334 0.74667,-0.533334 0.10666,0 0.32,0.106667 0.42666,0.213334 0.10667,0.106666 0.21334,0.213333 0.21334,0.426666 0,0.32 -0.21334,0.746667 -0.53334,1.493334 -0.42666,0.746666 -0.85333,1.6 -1.38666,2.24 -0.64,1.066666 -1.06667,2.133333 -1.49334,2.88 0.64,-0.32 1.17334,-0.746667 1.70667,-1.386667 0.85333,-0.853333 1.49333,-1.6 1.70667,-2.026667 C 308.48,43.306667 308.58667,43.2 308.8,43.2 c 0.21333,0 0.42667,0.106667 0.42667,0.426667 0,0.533333 -0.42667,1.386666 -1.38667,2.346666 -0.96,1.173334 -2.34667,2.24 -3.94667,3.093334 -0.74666,2.026666 -1.6,3.52 -2.34666,4.906666 -1.38667,2.453334 -2.77334,3.52 -4.26667,3.52 -0.53333,0 -1.06667,-0.213333 -1.49333,-0.64 -0.32,-0.32 -0.42667,-0.746666 -0.42667,-1.386666 0,-1.6 1.06667,-3.093334 3.2,-4.693334 0.64,-0.426666 1.6,-0.96 2.77333,-1.813333 0.42667,-0.32 0.85334,-0.533333 1.17334,-0.64 0.21333,-0.426667 0.42666,-0.96 0.74666,-1.813333 C 304.10667,46.08 304.42667,45.44 304.74667,44.693333 Z M 302.08,50.56 c -0.96,0.533333 -2.13333,1.386667 -3.2,2.24 -1.06667,0.96 -1.70667,1.92 -1.70667,2.773333 0,0.213334 0,0.32 0.10667,0.426667 0.10667,0.213333 0.32,0.213333 0.53333,0.213333 0.74667,0 1.6,-0.746666 2.45334,-2.346666 C 300.37333,53.653333 300.8,52.8 301.44,51.306667 301.76,51.2 301.86667,50.88 302.08,50.56 Z"
           style="fill:#d65649;fill-opacity:1;stroke-width:1.06666672" />
      </g>
    </g>
    <path
       inkscape:connector-curvature="0"
       style="line-height:normal;font-family:'Bitstream Vera Sans';-inkscape-font-specification:'Bitstream Vera Sans';text-indent:0;text-align:start;text-transform:none;overflow:visible;fill:#4d4d4d;fill-opacity:1;stroke-width:0.06814022;enable-background:accumulate"
       d="m 53.189754,15.500932 c -0.37552,0 -0.681403,0.305885 -0.681403,0.681408 0,0.375523 0.305883,0.681408 0.681403,0.681408 0.375521,0 0.681403,-0.305885 0.681403,-0.681408 0,-0.375523 -0.305882,-0.681408 -0.681403,-0.681408 z m 0,0.136287 c 0.301868,0 0.545121,0.243258 0.545121,0.545121 0,0.301863 -0.243253,0.545121 -0.545121,0.545121 -0.301871,0 -0.545121,-0.243258 -0.545121,-0.545121 0,-0.301863 0.24325,-0.545121 0.545121,-0.545121 z m -0.23849,0.204417 v 0.681408 h 0.142669 v -0.244872 h 0.108598 l 0.129892,0.244872 h 0.151185 v -0.0064 l -0.151185,-0.27895 c 0.01363,-0.0069 0.03535,-0.01402 0.04897,-0.0277 0.02045,-0.01376 0.02683,-0.02683 0.04046,-0.04045 0.01363,-0.02037 0.02088,-0.03493 0.02768,-0.05535 0.0068,-0.02037 0.0064,-0.04091 0.0064,-0.06816 0,-0.03405 -0.0077,-0.06218 -0.0213,-0.08943 -0.0068,-0.02037 -0.0264,-0.03919 -0.04685,-0.05961 -0.02725,-0.02037 -0.04897,-0.03577 -0.08304,-0.0426 -0.02725,-0.0069 -0.06132,-0.0127 -0.102211,-0.0127 z m 0.149056,0.123508 h 0.110728 c 0.03407,0 0.06047,0.005 0.08092,0.02566 0.02045,0.02037 0.02768,0.04257 0.02768,0.07665 0,0.01376 5.29e-4,0.02683 -0.0064,0.04046 -0.0068,0.01376 -0.01447,0.02725 -0.0213,0.03408 -0.0068,0.0069 -0.02045,0.01244 -0.03407,0.01905 -0.01363,0.0069 -0.02641,0.0085 -0.04685,0.0085 H 53.1003 Z"
       overflow="visible"
       id="path4624" />
  </g>
</svg>
