<svg width="118" height="184" viewBox="0 0 118 184" fill="none" xmlns="http://www.w3.org/2000/svg">
<g clip-path="url(#clip0_2001_5836)">
<rect width="118" height="184" rx="7" fill="#539EFF"/>
<path d="M27.0607 18H20.3215V22H27.0607V18Z" fill="white"/>
<path d="M48.5676 18H33.0608V22H48.5676V18Z" fill="white"/>
<path d="M70.0743 18H54.5675V22H70.0743V18Z" fill="white"/>
<path d="M41.0383 36.5176L41.3118 38.3926L41.7122 36.7031L44.5247 26.7812H46.1067L48.8508 36.7031L49.2415 38.4219L49.5442 36.5078L51.7512 26.7812H53.636L50.1887 41H48.4797L45.55 30.6387L45.3254 29.5547L45.1008 30.6387L42.0637 41H40.3547L36.9172 26.7812H38.7922L41.0383 36.5176ZM54.6516 35.6191C54.6516 34.584 54.8534 33.653 55.2571 32.8262C55.6672 31.9993 56.2336 31.3613 56.9563 30.9121C57.6855 30.4629 58.5155 30.2383 59.4465 30.2383C60.8853 30.2383 62.0474 30.7363 62.9329 31.7324C63.8248 32.7285 64.2708 34.0534 64.2708 35.707V35.834C64.2708 36.8626 64.0722 37.7871 63.675 38.6074C63.2844 39.4212 62.7213 40.056 61.9856 40.5117C61.2564 40.9674 60.4166 41.1953 59.4661 41.1953C58.0338 41.1953 56.8717 40.6973 55.9797 39.7012C55.0943 38.7051 54.6516 37.3867 54.6516 35.7461V35.6191ZM56.468 35.834C56.468 37.0059 56.7382 37.9466 57.2786 38.6562C57.8254 39.3659 58.5546 39.7207 59.4661 39.7207C60.384 39.7207 61.1132 39.3626 61.6536 38.6465C62.1939 37.9238 62.4641 36.9147 62.4641 35.6191C62.4641 34.4603 62.1874 33.5228 61.634 32.8066C61.0872 32.084 60.358 31.7227 59.4465 31.7227C58.5546 31.7227 57.8352 32.0775 57.2883 32.7871C56.7415 33.4967 56.468 34.5124 56.468 35.834ZM71.6438 32.0547C71.3704 32.0091 71.0741 31.9863 70.7551 31.9863C69.5702 31.9863 68.7662 32.4909 68.343 33.5V41H66.5364V30.4336H68.2942L68.3235 31.6543C68.9159 30.7103 69.7558 30.2383 70.843 30.2383C71.1946 30.2383 71.4615 30.2839 71.6438 30.375V32.0547ZM72.679 35.6289C72.679 34.0078 73.0631 32.7057 73.8313 31.7227C74.5995 30.7331 75.6054 30.2383 76.8489 30.2383C78.0859 30.2383 79.0657 30.6615 79.7883 31.5078V26H81.595V41H79.9348L79.8469 39.8672C79.1243 40.7526 78.1184 41.1953 76.8293 41.1953C75.6054 41.1953 74.606 40.694 73.8313 39.6914C73.0631 38.6888 72.679 37.3802 72.679 35.7656V35.6289ZM74.4856 35.834C74.4856 37.0319 74.733 37.9694 75.2278 38.6465C75.7226 39.3236 76.4062 39.6621 77.2786 39.6621C78.4244 39.6621 79.261 39.1478 79.7883 38.1191V33.2656C79.248 32.2695 78.4179 31.7715 77.2981 31.7715C76.4127 31.7715 75.7226 32.1133 75.2278 32.7969C74.733 33.4805 74.4856 34.4928 74.4856 35.834Z" fill="white"/>
<path d="M19.3215 49C19.3215 47.3431 20.6647 46 22.3215 46H97.3215C98.9784 46 100.322 47.3431 100.322 49V73C100.322 74.6569 98.9784 76 97.3215 76H22.3215C20.6647 76 19.3215 74.6569 19.3215 73V49Z" fill="white"/>
<path d="M68.0363 67.287C55.0456 58.1929 68.6933 58.6473 53.8109 63.9467C45.8037 66.798 54.8985 79.3808 57.3109 71.1035C61.7946 55.719 65.5874 69.0696 56.0363 56.3018C50.8976 49.4324 41.9499 62.124 50.4302 61.9012C66.1919 61.4871 54.8883 69.2839 63.8679 56.0935C68.6991 48.9967 54.0744 44.2578 56.9031 52.3974C62.1607 67.526 51.3819 58.994 66.4826 63.6097C74.6072 66.0931 74.5163 50.4726 67.7843 55.726C55.2719 65.4901 59.9138 52.4202 60.267 68.4632C60.4571 77.0948 75.0257 72.1799 68.0363 67.287Z" fill="#888A85"/>
<path fill-rule="evenodd" clip-rule="evenodd" d="M64.9633 51.1004C65.7172 52.6314 65.6928 54.4988 64.3674 56.4458C63.9887 57.0021 63.6469 57.52 63.3383 58.0017C64.4137 57.4086 65.755 56.5301 67.4145 55.2352C68.3078 54.538 69.1453 54.1433 69.9188 54.0446C70.7108 53.9436 71.4017 54.1588 71.9474 54.6113C72.9954 55.4804 73.3915 57.1088 73.3116 58.6615C73.2301 60.2424 72.6501 61.9592 71.4871 63.1271C70.2893 64.3299 68.5367 64.8834 66.3078 64.2021C65.671 64.0075 65.0814 63.8366 64.5358 63.6868C65.4225 64.5444 66.6578 65.5713 68.3807 66.7774C69.3082 67.4267 69.9359 68.1154 70.2671 68.8335C70.6063 69.569 70.6186 70.3042 70.3644 70.9722C69.8761 72.2552 68.4768 73.1419 67.0012 73.5443C65.4988 73.954 63.7152 73.923 62.2645 73.1582C60.7704 72.3705 59.7116 70.8452 59.6595 68.4771C59.6446 67.8006 59.622 67.1771 59.5935 66.6027C59.066 67.7259 58.4882 69.239 57.8935 71.2794C57.5734 72.3778 57.1238 73.1982 56.5551 73.7407C55.9726 74.2963 55.2894 74.5354 54.5866 74.4958C53.2368 74.4196 51.9759 73.3392 51.1439 72.0352C50.2967 70.7075 49.7745 68.9716 50.0409 67.331C50.3153 65.6414 51.4134 64.1452 53.6102 63.3629C54.2378 63.1394 54.8134 62.925 55.3413 62.7198C54.1287 62.5564 52.5363 62.4646 50.4459 62.5195C49.3205 62.5491 48.415 62.3674 47.7323 61.9846C47.0331 61.5925 46.5985 61.0051 46.4184 60.3126C46.0725 58.9825 46.6924 57.4281 47.6538 56.2198C48.6327 54.9896 50.0935 53.9476 51.7089 53.6985C53.3726 53.442 55.1101 54.0426 56.5199 55.9272C56.9226 56.4656 57.301 56.9565 57.6558 57.4041C57.4338 56.1799 57.0274 54.6101 56.3301 52.6037C55.9548 51.5235 55.8447 50.5909 55.9915 49.8117C56.1418 49.0138 56.5565 48.4116 57.1479 48.0233C58.2839 47.2774 59.928 47.3972 61.3542 47.9544C62.8063 48.5217 64.2314 49.6137 64.9633 51.1004ZM57.8891 59.6161C57.2154 58.8282 56.4399 57.8625 55.5528 56.6766C54.3932 55.1265 53.0852 54.7375 51.891 54.9216C50.6484 55.1132 49.4387 55.9422 48.5984 56.9983C47.7406 58.0764 47.3925 59.2238 47.5934 59.996C47.6867 60.3547 47.9042 60.6686 48.3188 60.9011C48.7499 61.1428 49.4198 61.309 50.4145 61.2829C53.7717 61.1947 55.9555 61.4734 57.3933 61.8637C57.4098 61.774 57.4388 61.7108 57.4471 61.6928C57.4477 61.6915 57.4482 61.6904 57.4486 61.6896C57.4859 61.6063 57.5144 61.556 57.5413 61.5087C57.5849 61.4319 57.6241 61.3629 57.689 61.173C57.7756 60.9198 57.8707 60.5098 57.8869 59.8668C57.8889 59.7868 57.8897 59.7033 57.8891 59.6161ZM59.2155 63.5401C59.2121 63.5505 59.2121 63.5486 59.2161 63.5383C59.2159 63.5389 59.2157 63.5395 59.2155 63.5401ZM59.4275 64.352C59.3489 64.3082 59.2988 64.2607 59.2845 64.2471C59.2834 64.2461 59.2826 64.2453 59.2819 64.2446C59.2156 64.1828 59.1774 64.1397 59.1415 64.099C59.0832 64.0331 59.0308 63.9738 58.8735 63.8523C58.6636 63.6903 58.3099 63.4715 57.714 63.2572C57.6399 63.2305 57.5621 63.2039 57.4804 63.1775C56.536 63.5862 55.3939 64.0383 54.0116 64.5306C52.2048 65.174 51.4371 66.3198 51.2401 67.5327C51.0352 68.7947 51.436 70.2217 52.1633 71.3615C52.9056 72.5249 53.8702 73.2164 54.6539 73.2606C55.0179 73.2812 55.3784 73.1676 55.7239 72.8381C56.0829 72.4956 56.4453 71.8985 56.7282 70.9276C57.6832 67.6508 58.6185 65.6231 59.4275 64.352ZM61.5571 63.1062C61.5658 63.1127 61.564 63.1121 61.5556 63.1051C61.5562 63.1054 61.5567 63.1058 61.5571 63.1062ZM62.3814 63.1519C62.3162 63.2145 62.2562 63.2483 62.2391 63.2579C62.2378 63.2586 62.2368 63.2592 62.236 63.2597C62.1578 63.3047 62.1057 63.3283 62.0566 63.3506C61.977 63.3866 61.9054 63.419 61.7432 63.5337C61.5269 63.6868 61.2132 63.9616 60.8288 64.4721C60.7809 64.5356 60.7321 64.6027 60.6822 64.6736C60.7722 65.7141 60.8418 66.9592 60.8746 68.4494C60.9175 70.3971 61.751 71.4943 62.8236 72.0598C63.9395 72.6481 65.3969 72.7011 66.6867 72.3494C68.0033 71.9903 68.9475 71.2703 69.231 70.5254C69.3627 70.1794 69.368 69.7954 69.1668 69.3592C68.9577 68.9058 68.5117 68.3705 67.6919 67.7966C64.9249 65.8596 63.3191 64.3277 62.3814 63.1519ZM61.8753 60.7055C61.8841 60.6992 61.8829 60.7007 61.8738 60.7066C61.8743 60.7063 61.8748 60.7059 61.8753 60.7055ZM62.1727 59.9219C62.2111 60.0043 62.2241 60.0728 62.2278 60.0924C62.2281 60.0938 62.2283 60.0949 62.2285 60.0958C62.2464 60.1855 62.2524 60.2433 62.258 60.2976C62.2671 60.3858 62.2752 60.4651 62.3323 60.6575C62.4085 60.9142 62.5683 61.3028 62.9266 61.8327C62.9712 61.8986 63.0188 61.9666 63.0696 62.0368C64.0697 62.2712 65.2548 62.5886 66.6574 63.0173C68.4907 63.5777 69.7736 63.1099 70.6334 62.2465C71.528 61.3482 72.0279 59.9539 72.0978 58.5967C72.1691 57.2114 71.7881 56.0749 71.1796 55.5703C70.8969 55.3359 70.5397 55.2121 70.07 55.2721C69.5817 55.3344 68.9437 55.6006 68.154 56.2169C65.489 58.2966 63.5612 59.3775 62.1727 59.9219ZM59.7303 59.6558C59.727 59.6453 59.7282 59.6469 59.7309 59.6576C59.7307 59.6569 59.7305 59.6563 59.7303 59.6558ZM58.0865 61.4076C58.0757 61.4075 58.0775 61.4069 58.0883 61.4076C58.0877 61.4076 58.0871 61.4076 58.0865 61.4076ZM59.0899 59.1257C59.0103 57.6135 58.5959 55.4135 57.476 52.1912C57.1442 51.2364 57.0925 50.5366 57.1852 50.0447C57.2744 49.5715 57.5004 49.264 57.8068 49.0628C58.4664 48.6297 59.6461 48.6121 60.9186 49.1093C62.1652 49.5963 63.3137 50.511 63.8767 51.6545C64.4178 52.7536 64.4585 54.1399 63.3683 55.7413C62.5343 56.9665 61.8714 58.0155 61.3434 58.9111C61.2621 58.9386 61.1838 58.9637 61.1084 58.9864C60.5025 59.1695 60.0901 59.2041 59.8267 59.1985C59.6292 59.1943 59.5526 59.1777 59.4674 59.1593C59.4148 59.1479 59.359 59.1358 59.2697 59.1255C59.2688 59.1254 59.2676 59.1252 59.2662 59.125C59.2468 59.1226 59.1788 59.1141 59.0899 59.1257Z" fill="#888A85"/>
<path d="M62.5301 61.2697C62.5303 61.6257 62.4616 61.9783 62.3279 62.3073C62.1942 62.6363 61.9981 62.9353 61.7508 63.1871C61.5035 63.4389 61.2099 63.6387 60.8867 63.775C60.5635 63.9113 60.2171 63.9815 59.8673 63.9815C59.5175 63.9815 59.1711 63.9113 58.8479 63.775C58.5247 63.6387 58.2311 63.4389 57.9838 63.1871C57.7365 62.9353 57.5404 62.6363 57.4067 62.3073C57.273 61.9783 57.2043 61.6257 57.2045 61.2697C57.2043 60.9136 57.273 60.561 57.4067 60.232C57.5404 59.903 57.7365 59.6041 57.9838 59.3522C58.2311 59.1004 58.5247 58.9006 58.8479 58.7643C59.1711 58.628 59.5175 58.5579 59.8673 58.5579C60.2171 58.5579 60.5635 58.628 60.8867 58.7643C61.2099 58.9006 61.5035 59.1004 61.7508 59.3522C61.9981 59.6041 62.1942 59.903 62.3279 60.232C62.4616 60.561 62.5303 60.9136 62.5301 61.2697V61.2697Z" fill="#BABDB6"/>
<path fill-rule="evenodd" clip-rule="evenodd" d="M59.8672 59.1764C59.5973 59.1764 59.3299 59.2305 59.0805 59.3357C58.8311 59.4409 58.6045 59.5951 58.4136 59.7894C58.2228 59.9838 58.0714 60.2145 57.9682 60.4684C57.865 60.7224 57.812 60.9945 57.8121 61.2693V61.27C57.812 61.5448 57.865 61.8169 57.9682 62.0708C58.0714 62.3248 58.2228 62.5555 58.4136 62.7498C58.6045 62.9442 58.8311 63.0984 59.0805 63.2036C59.3299 63.3088 59.5973 63.3629 59.8672 63.3629C60.1372 63.3629 60.4046 63.3088 60.654 63.2036C60.9034 63.0984 61.13 62.9442 61.3209 62.7498C61.5117 62.5555 61.6631 62.3248 61.7663 62.0708C61.8695 61.8169 61.9225 61.5448 61.9223 61.27L62.5301 61.2696L61.9223 61.2693C61.9225 60.9945 61.8695 60.7224 61.7663 60.4684C61.6631 60.2145 61.5117 59.9838 61.3209 59.7894C61.13 59.5951 60.9034 59.4409 60.654 59.3357C60.4046 59.2305 60.1372 59.1764 59.8672 59.1764ZM63.1378 61.2696C63.138 60.8325 63.0536 60.3995 62.8894 59.9956C62.7252 59.5915 62.4843 59.2243 62.1806 58.915C61.8769 58.6057 61.5162 58.3603 61.1193 58.1929C60.7224 58.0255 60.2969 57.9393 59.8672 57.9393C59.4376 57.9393 59.0121 58.0255 58.6152 58.1929C58.2183 58.3603 57.8576 58.6057 57.5539 58.915C57.2502 59.2243 57.0093 59.5915 56.8451 59.9956C56.6809 60.3995 56.5965 60.8325 56.5967 61.2696C56.5965 61.7068 56.6809 62.1397 56.8451 62.5437C57.0093 62.9478 57.2502 63.315 57.5539 63.6243C57.8576 63.9336 58.2183 64.179 58.6152 64.3464C59.0121 64.5138 59.4376 64.6 59.8672 64.6C60.2969 64.6 60.7224 64.5138 61.1193 64.3464C61.5162 64.179 61.8769 63.9336 62.1806 63.6243C62.4843 63.315 62.7252 62.9478 62.8894 62.5437C63.0536 62.1397 63.138 61.7068 63.1378 61.2696Z" fill="#BABDB6"/>
<path d="M19.3215 85C19.3215 83.3431 20.6647 82 22.3215 82H97.3215C98.9784 82 100.322 83.3431 100.322 85V109C100.322 110.657 98.9784 112 97.3215 112H22.3215C20.6647 112 19.3215 110.657 19.3215 109V85Z" fill="#6CD05A"/>
<path d="M68.0363 103.287C55.0456 94.1929 68.6933 94.6473 53.8109 99.9467C45.8037 102.798 54.8985 115.381 57.3109 107.103C61.7946 91.719 65.5874 105.07 56.0363 92.3018C50.8976 85.4324 41.9499 98.124 50.4302 97.9012C66.1919 97.4871 54.8883 105.284 63.8679 92.0935C68.6991 84.9967 54.0744 80.2578 56.9031 88.3974C62.1607 103.526 51.3819 94.994 66.4826 99.6097C74.6072 102.093 74.5163 86.4726 67.7843 91.726C55.2719 101.49 59.9138 88.4202 60.267 104.463C60.4571 113.095 75.0257 108.18 68.0363 103.287Z" fill="#888A85"/>
<path fill-rule="evenodd" clip-rule="evenodd" d="M64.9633 87.1004C65.7172 88.6314 65.6928 90.4988 64.3674 92.4458C63.9887 93.0021 63.6469 93.52 63.3383 94.0017C64.4137 93.4086 65.755 92.5301 67.4145 91.2352C68.3078 90.538 69.1453 90.1433 69.9188 90.0446C70.7108 89.9436 71.4017 90.1588 71.9474 90.6113C72.9954 91.4804 73.3915 93.1088 73.3116 94.6615C73.2301 96.2424 72.6501 97.9592 71.4871 99.1271C70.2893 100.33 68.5367 100.883 66.3078 100.202C65.671 100.007 65.0814 99.8366 64.5358 99.6868C65.4225 100.544 66.6578 101.571 68.3807 102.777C69.3082 103.427 69.9359 104.115 70.2671 104.834C70.6063 105.569 70.6186 106.304 70.3644 106.972C69.8761 108.255 68.4768 109.142 67.0012 109.544C65.4988 109.954 63.7152 109.923 62.2645 109.158C60.7704 108.37 59.7116 106.845 59.6595 104.477C59.6446 103.801 59.622 103.177 59.5935 102.603C59.066 103.726 58.4882 105.239 57.8935 107.279C57.5734 108.378 57.1238 109.198 56.5551 109.741C55.9726 110.296 55.2894 110.535 54.5866 110.496C53.2368 110.42 51.9759 109.339 51.1439 108.035C50.2967 106.708 49.7745 104.972 50.0409 103.331C50.3153 101.641 51.4134 100.145 53.6102 99.3629C54.2378 99.1394 54.8134 98.925 55.3413 98.7198C54.1287 98.5564 52.5363 98.4646 50.4459 98.5195C49.3205 98.5491 48.415 98.3674 47.7323 97.9846C47.0331 97.5925 46.5985 97.0051 46.4184 96.3126C46.0725 94.9825 46.6924 93.4281 47.6538 92.2198C48.6327 90.9896 50.0935 89.9476 51.7089 89.6985C53.3726 89.442 55.1101 90.0426 56.5199 91.9272C56.9226 92.4656 57.301 92.9565 57.6558 93.4041C57.4338 92.1799 57.0274 90.6101 56.3301 88.6037C55.9548 87.5235 55.8447 86.5909 55.9915 85.8117C56.1418 85.0138 56.5565 84.4116 57.1479 84.0233C58.2839 83.2774 59.928 83.3972 61.3542 83.9544C62.8063 84.5217 64.2314 85.6137 64.9633 87.1004ZM57.8891 95.6161C57.2154 94.8282 56.4399 93.8625 55.5528 92.6766C54.3932 91.1265 53.0852 90.7375 51.891 90.9216C50.6484 91.1132 49.4387 91.9422 48.5984 92.9983C47.7406 94.0764 47.3925 95.2238 47.5934 95.996C47.6867 96.3547 47.9042 96.6686 48.3188 96.9011C48.7499 97.1428 49.4198 97.309 50.4145 97.2829C53.7717 97.1947 55.9555 97.4734 57.3933 97.8637C57.4098 97.774 57.4388 97.7108 57.4471 97.6928C57.4477 97.6915 57.4482 97.6904 57.4486 97.6896C57.4859 97.6063 57.5144 97.556 57.5413 97.5087C57.5849 97.4319 57.6241 97.3629 57.689 97.173C57.7756 96.9198 57.8707 96.5098 57.8869 95.8668C57.8889 95.7868 57.8897 95.7033 57.8891 95.6161ZM59.2155 99.5401C59.2121 99.5505 59.2121 99.5486 59.2161 99.5383C59.2159 99.5389 59.2157 99.5395 59.2155 99.5401ZM59.4275 100.352C59.3489 100.308 59.2988 100.261 59.2845 100.247C59.2834 100.246 59.2826 100.245 59.2819 100.245C59.2156 100.183 59.1774 100.14 59.1415 100.099C59.0832 100.033 59.0308 99.9738 58.8735 99.8523C58.6636 99.6903 58.3099 99.4715 57.714 99.2572C57.6399 99.2305 57.5621 99.2039 57.4804 99.1775C56.536 99.5862 55.3939 100.038 54.0116 100.531C52.2048 101.174 51.4371 102.32 51.2401 103.533C51.0352 104.795 51.436 106.222 52.1633 107.361C52.9056 108.525 53.8702 109.216 54.6539 109.261C55.0179 109.281 55.3784 109.168 55.7239 108.838C56.0829 108.496 56.4453 107.899 56.7282 106.928C57.6832 103.651 58.6185 101.623 59.4275 100.352ZM61.5571 99.1062C61.5658 99.1127 61.564 99.1121 61.5556 99.1051C61.5562 99.1054 61.5567 99.1058 61.5571 99.1062ZM62.3814 99.1519C62.3162 99.2145 62.2562 99.2483 62.2391 99.2579C62.2378 99.2586 62.2368 99.2592 62.236 99.2597C62.1578 99.3047 62.1057 99.3283 62.0566 99.3506C61.977 99.3866 61.9054 99.419 61.7432 99.5337C61.5269 99.6868 61.2132 99.9616 60.8288 100.472C60.7809 100.536 60.7321 100.603 60.6822 100.674C60.7722 101.714 60.8418 102.959 60.8746 104.449C60.9175 106.397 61.751 107.494 62.8236 108.06C63.9395 108.648 65.3969 108.701 66.6867 108.349C68.0033 107.99 68.9475 107.27 69.231 106.525C69.3627 106.179 69.368 105.795 69.1668 105.359C68.9577 104.906 68.5117 104.371 67.6919 103.797C64.9249 101.86 63.3191 100.328 62.3814 99.1519ZM61.8753 96.7055C61.8841 96.6992 61.8829 96.7007 61.8738 96.7066C61.8743 96.7063 61.8748 96.7059 61.8753 96.7055ZM62.1727 95.9219C62.2111 96.0043 62.2241 96.0728 62.2278 96.0924C62.2281 96.0938 62.2283 96.0949 62.2285 96.0958C62.2464 96.1855 62.2524 96.2433 62.258 96.2976C62.2671 96.3858 62.2752 96.4651 62.3323 96.6575C62.4085 96.9142 62.5683 97.3028 62.9266 97.8327C62.9712 97.8986 63.0188 97.9666 63.0696 98.0368C64.0697 98.2712 65.2548 98.5886 66.6574 99.0173C68.4907 99.5777 69.7736 99.1099 70.6334 98.2465C71.528 97.3482 72.0279 95.9539 72.0978 94.5967C72.1691 93.2114 71.7881 92.0749 71.1796 91.5703C70.8969 91.3359 70.5397 91.2121 70.07 91.2721C69.5817 91.3344 68.9437 91.6006 68.154 92.2169C65.489 94.2966 63.5612 95.3775 62.1727 95.9219ZM59.7303 95.6558C59.727 95.6453 59.7282 95.6469 59.7309 95.6576C59.7307 95.6569 59.7305 95.6563 59.7303 95.6558ZM58.0865 97.4076C58.0757 97.4075 58.0775 97.4069 58.0883 97.4076C58.0877 97.4076 58.0871 97.4076 58.0865 97.4076ZM59.0899 95.1257C59.0103 93.6135 58.5959 91.4135 57.476 88.1912C57.1442 87.2364 57.0925 86.5366 57.1852 86.0447C57.2744 85.5715 57.5004 85.264 57.8068 85.0628C58.4664 84.6297 59.6461 84.6121 60.9186 85.1093C62.1652 85.5963 63.3137 86.511 63.8767 87.6545C64.4178 88.7536 64.4585 90.1399 63.3683 91.7413C62.5343 92.9665 61.8714 94.0155 61.3434 94.9111C61.2621 94.9386 61.1838 94.9637 61.1084 94.9864C60.5025 95.1695 60.0901 95.2041 59.8267 95.1985C59.6292 95.1943 59.5526 95.1777 59.4674 95.1593C59.4148 95.1479 59.359 95.1358 59.2697 95.1255C59.2688 95.1254 59.2676 95.1252 59.2662 95.125C59.2468 95.1226 59.1788 95.1141 59.0899 95.1257Z" fill="#888A85"/>
<path d="M62.5301 97.2697C62.5303 97.6257 62.4616 97.9783 62.3279 98.3073C62.1942 98.6363 61.9981 98.9353 61.7508 99.1871C61.5035 99.4389 61.2099 99.6387 60.8867 99.775C60.5635 99.9113 60.2171 99.9815 59.8673 99.9815C59.5175 99.9815 59.1711 99.9113 58.8479 99.775C58.5247 99.6387 58.2311 99.4389 57.9838 99.1871C57.7365 98.9353 57.5404 98.6363 57.4067 98.3073C57.273 97.9783 57.2043 97.6257 57.2045 97.2697C57.2043 96.9136 57.273 96.561 57.4067 96.232C57.5404 95.903 57.7365 95.6041 57.9838 95.3522C58.2311 95.1004 58.5247 94.9006 58.8479 94.7643C59.1711 94.628 59.5175 94.5579 59.8673 94.5579C60.2171 94.5579 60.5635 94.628 60.8867 94.7643C61.2099 94.9006 61.5035 95.1004 61.7508 95.3522C61.9981 95.6041 62.1942 95.903 62.3279 96.232C62.4616 96.561 62.5303 96.9136 62.5301 97.2697V97.2697Z" fill="#BABDB6"/>
<path fill-rule="evenodd" clip-rule="evenodd" d="M59.8672 95.1764C59.5973 95.1764 59.3299 95.2305 59.0805 95.3357C58.8311 95.4409 58.6045 95.5951 58.4136 95.7894C58.2228 95.9838 58.0714 96.2145 57.9682 96.4684C57.865 96.7224 57.812 96.9945 57.8121 97.2693V97.27C57.812 97.5448 57.865 97.8169 57.9682 98.0708C58.0714 98.3248 58.2228 98.5555 58.4136 98.7498C58.6045 98.9442 58.8311 99.0984 59.0805 99.2036C59.3299 99.3088 59.5973 99.3629 59.8672 99.3629C60.1372 99.3629 60.4046 99.3088 60.654 99.2036C60.9034 99.0984 61.13 98.9442 61.3209 98.7498C61.5117 98.5555 61.6631 98.3248 61.7663 98.0708C61.8695 97.8169 61.9225 97.5448 61.9223 97.27L62.5301 97.2696L61.9223 97.2693C61.9225 96.9945 61.8695 96.7224 61.7663 96.4684C61.6631 96.2145 61.5117 95.9838 61.3209 95.7894C61.13 95.5951 60.9034 95.4409 60.654 95.3357C60.4046 95.2305 60.1372 95.1764 59.8672 95.1764ZM63.1378 97.2696C63.138 96.8325 63.0536 96.3995 62.8894 95.9956C62.7252 95.5915 62.4843 95.2243 62.1806 94.915C61.8769 94.6057 61.5162 94.3603 61.1193 94.1929C60.7224 94.0255 60.2969 93.9393 59.8672 93.9393C59.4376 93.9393 59.0121 94.0255 58.6152 94.1929C58.2183 94.3603 57.8576 94.6057 57.5539 94.915C57.2502 95.2243 57.0093 95.5915 56.8451 95.9956C56.6809 96.3995 56.5965 96.8325 56.5967 97.2696C56.5965 97.7068 56.6809 98.1397 56.8451 98.5437C57.0093 98.9478 57.2502 99.315 57.5539 99.6243C57.8576 99.9336 58.2183 100.179 58.6152 100.346C59.0121 100.514 59.4376 100.6 59.8672 100.6C60.2969 100.6 60.7224 100.514 61.1193 100.346C61.5162 100.179 61.8769 99.9336 62.1806 99.6243C62.4843 99.315 62.7252 98.9478 62.8894 98.5437C63.0536 98.1397 63.138 97.7068 63.1378 97.2696Z" fill="#BABDB6"/>
<path d="M19.3215 121C19.3215 119.343 20.6647 118 22.3215 118H97.3215C98.9784 118 100.322 119.343 100.322 121V145C100.322 146.657 98.9784 148 97.3215 148H22.3215C20.6647 148 19.3215 146.657 19.3215 145V121Z" fill="white"/>
<path d="M68.0363 139.287C55.0456 130.193 68.6933 130.647 53.8109 135.947C45.8037 138.798 54.8985 151.381 57.3109 143.103C61.7946 127.719 65.5874 141.07 56.0363 128.302C50.8976 121.432 41.9499 134.124 50.4302 133.901C66.1919 133.487 54.8883 141.284 63.8679 128.094C68.6991 120.997 54.0744 116.258 56.9031 124.397C62.1607 139.526 51.3819 130.994 66.4826 135.61C74.6072 138.093 74.5163 122.473 67.7843 127.726C55.2719 137.49 59.9138 124.42 60.267 140.463C60.4571 149.095 75.0257 144.18 68.0363 139.287Z" fill="#888A85"/>
<path fill-rule="evenodd" clip-rule="evenodd" d="M64.9633 123.1C65.7172 124.631 65.6928 126.499 64.3674 128.446C63.9887 129.002 63.6469 129.52 63.3383 130.002C64.4137 129.409 65.755 128.53 67.4145 127.235C68.3078 126.538 69.1453 126.143 69.9188 126.045C70.7108 125.944 71.4017 126.159 71.9474 126.611C72.9954 127.48 73.3915 129.109 73.3116 130.662C73.2301 132.242 72.6501 133.959 71.4871 135.127C70.2893 136.33 68.5367 136.883 66.3078 136.202C65.671 136.007 65.0814 135.837 64.5358 135.687C65.4225 136.544 66.6578 137.571 68.3807 138.777C69.3082 139.427 69.9359 140.115 70.2671 140.834C70.6063 141.569 70.6186 142.304 70.3644 142.972C69.8761 144.255 68.4768 145.142 67.0012 145.544C65.4988 145.954 63.7152 145.923 62.2645 145.158C60.7704 144.37 59.7116 142.845 59.6595 140.477C59.6446 139.801 59.622 139.177 59.5935 138.603C59.066 139.726 58.4882 141.239 57.8935 143.279C57.5734 144.378 57.1238 145.198 56.5551 145.741C55.9726 146.296 55.2894 146.535 54.5866 146.496C53.2368 146.42 51.9759 145.339 51.1439 144.035C50.2967 142.708 49.7745 140.972 50.0409 139.331C50.3153 137.641 51.4134 136.145 53.6102 135.363C54.2378 135.139 54.8134 134.925 55.3413 134.72C54.1287 134.556 52.5363 134.465 50.4459 134.52C49.3205 134.549 48.415 134.367 47.7323 133.985C47.0331 133.593 46.5985 133.005 46.4184 132.313C46.0725 130.983 46.6924 129.428 47.6538 128.22C48.6327 126.99 50.0935 125.948 51.7089 125.699C53.3726 125.442 55.1101 126.043 56.5199 127.927C56.9226 128.466 57.301 128.956 57.6558 129.404C57.4338 128.18 57.0274 126.61 56.3301 124.604C55.9548 123.524 55.8447 122.591 55.9915 121.812C56.1418 121.014 56.5565 120.412 57.1479 120.023C58.2839 119.277 59.928 119.397 61.3542 119.954C62.8063 120.522 64.2314 121.614 64.9633 123.1ZM57.8891 131.616C57.2154 130.828 56.4399 129.862 55.5528 128.677C54.3932 127.126 53.0852 126.737 51.891 126.922C50.6484 127.113 49.4387 127.942 48.5984 128.998C47.7406 130.076 47.3925 131.224 47.5934 131.996C47.6867 132.355 47.9042 132.669 48.3188 132.901C48.7499 133.143 49.4198 133.309 50.4145 133.283C53.7717 133.195 55.9555 133.473 57.3933 133.864C57.4098 133.774 57.4388 133.711 57.4471 133.693C57.4477 133.691 57.4482 133.69 57.4486 133.69C57.4859 133.606 57.5144 133.556 57.5413 133.509C57.5849 133.432 57.6241 133.363 57.689 133.173C57.7756 132.92 57.8707 132.51 57.8869 131.867C57.8889 131.787 57.8897 131.703 57.8891 131.616ZM59.2155 135.54C59.2121 135.551 59.2121 135.549 59.2161 135.538C59.2159 135.539 59.2157 135.54 59.2155 135.54ZM59.4275 136.352C59.3489 136.308 59.2988 136.261 59.2845 136.247C59.2834 136.246 59.2826 136.245 59.2819 136.245C59.2156 136.183 59.1774 136.14 59.1415 136.099C59.0832 136.033 59.0308 135.974 58.8735 135.852C58.6636 135.69 58.3099 135.472 57.714 135.257C57.6399 135.23 57.5621 135.204 57.4804 135.178C56.536 135.586 55.3939 136.038 54.0116 136.531C52.2048 137.174 51.4371 138.32 51.2401 139.533C51.0352 140.795 51.436 142.222 52.1633 143.361C52.9056 144.525 53.8702 145.216 54.6539 145.261C55.0179 145.281 55.3784 145.168 55.7239 144.838C56.0829 144.496 56.4453 143.899 56.7282 142.928C57.6832 139.651 58.6185 137.623 59.4275 136.352ZM61.5571 135.106C61.5658 135.113 61.564 135.112 61.5556 135.105C61.5562 135.105 61.5567 135.106 61.5571 135.106ZM62.3814 135.152C62.3162 135.215 62.2562 135.248 62.2391 135.258C62.2378 135.259 62.2368 135.259 62.236 135.26C62.1578 135.305 62.1057 135.328 62.0566 135.351C61.977 135.387 61.9054 135.419 61.7432 135.534C61.5269 135.687 61.2132 135.962 60.8288 136.472C60.7809 136.536 60.7321 136.603 60.6822 136.674C60.7722 137.714 60.8418 138.959 60.8746 140.449C60.9175 142.397 61.751 143.494 62.8236 144.06C63.9395 144.648 65.3969 144.701 66.6867 144.349C68.0033 143.99 68.9475 143.27 69.231 142.525C69.3627 142.179 69.368 141.795 69.1668 141.359C68.9577 140.906 68.5117 140.371 67.6919 139.797C64.9249 137.86 63.3191 136.328 62.3814 135.152ZM61.8753 132.706C61.8841 132.699 61.8829 132.701 61.8738 132.707C61.8743 132.706 61.8748 132.706 61.8753 132.706ZM62.1727 131.922C62.2111 132.004 62.2241 132.073 62.2278 132.092C62.2281 132.094 62.2283 132.095 62.2285 132.096C62.2464 132.186 62.2524 132.243 62.258 132.298C62.2671 132.386 62.2752 132.465 62.3323 132.658C62.4085 132.914 62.5683 133.303 62.9266 133.833C62.9712 133.899 63.0188 133.967 63.0696 134.037C64.0697 134.271 65.2548 134.589 66.6574 135.017C68.4907 135.578 69.7736 135.11 70.6334 134.247C71.528 133.348 72.0279 131.954 72.0978 130.597C72.1691 129.211 71.7881 128.075 71.1796 127.57C70.8969 127.336 70.5397 127.212 70.07 127.272C69.5817 127.334 68.9437 127.601 68.154 128.217C65.489 130.297 63.5612 131.378 62.1727 131.922ZM59.7303 131.656C59.727 131.645 59.7282 131.647 59.7309 131.658C59.7307 131.657 59.7305 131.656 59.7303 131.656ZM58.0865 133.408C58.0757 133.408 58.0775 133.407 58.0883 133.408C58.0877 133.408 58.0871 133.408 58.0865 133.408ZM59.0899 131.126C59.0103 129.613 58.5959 127.413 57.476 124.191C57.1442 123.236 57.0925 122.537 57.1852 122.045C57.2744 121.571 57.5004 121.264 57.8068 121.063C58.4664 120.63 59.6461 120.612 60.9186 121.109C62.1652 121.596 63.3137 122.511 63.8767 123.655C64.4178 124.754 64.4585 126.14 63.3683 127.741C62.5343 128.967 61.8714 130.016 61.3434 130.911C61.2621 130.939 61.1838 130.964 61.1084 130.986C60.5025 131.169 60.0901 131.204 59.8267 131.199C59.6292 131.194 59.5526 131.178 59.4674 131.159C59.4148 131.148 59.359 131.136 59.2697 131.125C59.2688 131.125 59.2676 131.125 59.2662 131.125C59.2468 131.123 59.1788 131.114 59.0899 131.126Z" fill="#888A85"/>
<path d="M62.5301 133.27C62.5303 133.626 62.4616 133.978 62.3279 134.307C62.1942 134.636 61.9981 134.935 61.7508 135.187C61.5035 135.439 61.2099 135.639 60.8867 135.775C60.5635 135.911 60.2171 135.981 59.8673 135.981C59.5175 135.981 59.1711 135.911 58.8479 135.775C58.5247 135.639 58.2311 135.439 57.9838 135.187C57.7365 134.935 57.5404 134.636 57.4067 134.307C57.273 133.978 57.2043 133.626 57.2045 133.27C57.2043 132.914 57.273 132.561 57.4067 132.232C57.5404 131.903 57.7365 131.604 57.9838 131.352C58.2311 131.1 58.5247 130.901 58.8479 130.764C59.1711 130.628 59.5175 130.558 59.8673 130.558C60.2171 130.558 60.5635 130.628 60.8867 130.764C61.2099 130.901 61.5035 131.1 61.7508 131.352C61.9981 131.604 62.1942 131.903 62.3279 132.232C62.4616 132.561 62.5303 132.914 62.5301 133.27V133.27Z" fill="#BABDB6"/>
<path fill-rule="evenodd" clip-rule="evenodd" d="M59.8672 131.176C59.5973 131.176 59.3299 131.231 59.0805 131.336C58.8311 131.441 58.6045 131.595 58.4136 131.789C58.2228 131.984 58.0714 132.215 57.9682 132.468C57.865 132.722 57.812 132.994 57.8121 133.269V133.27C57.812 133.545 57.865 133.817 57.9682 134.071C58.0714 134.325 58.2228 134.555 58.4136 134.75C58.6045 134.944 58.8311 135.098 59.0805 135.204C59.3299 135.309 59.5973 135.363 59.8672 135.363C60.1372 135.363 60.4046 135.309 60.654 135.204C60.9034 135.098 61.13 134.944 61.3209 134.75C61.5117 134.555 61.6631 134.325 61.7663 134.071C61.8695 133.817 61.9225 133.545 61.9223 133.27L62.5301 133.27L61.9223 133.269C61.9225 132.994 61.8695 132.722 61.7663 132.468C61.6631 132.215 61.5117 131.984 61.3209 131.789C61.13 131.595 60.9034 131.441 60.654 131.336C60.4046 131.231 60.1372 131.176 59.8672 131.176ZM63.1378 133.27C63.138 132.832 63.0536 132.4 62.8894 131.996C62.7252 131.591 62.4843 131.224 62.1806 130.915C61.8769 130.606 61.5162 130.36 61.1193 130.193C60.7224 130.026 60.2969 129.939 59.8672 129.939C59.4376 129.939 59.0121 130.026 58.6152 130.193C58.2183 130.36 57.8576 130.606 57.5539 130.915C57.2502 131.224 57.0093 131.591 56.8451 131.996C56.6809 132.4 56.5965 132.832 56.5967 133.27C56.5965 133.707 56.6809 134.14 56.8451 134.544C57.0093 134.948 57.2502 135.315 57.5539 135.624C57.8576 135.934 58.2183 136.179 58.6152 136.346C59.0121 136.514 59.4376 136.6 59.8672 136.6C60.2969 136.6 60.7224 136.514 61.1193 136.346C61.5162 136.179 61.8769 135.934 62.1806 135.624C62.4843 135.315 62.7252 134.948 62.8894 134.544C63.0536 134.14 63.138 133.707 63.1378 133.27Z" fill="#BABDB6"/>
<path d="M6.43539 -4.07458C3.22498 -4.07458 0.622514 -1.4718 0.622192 1.73861V182.722C0.622541 185.933 3.22498 188.535 6.43539 188.535H112.187C115.397 188.535 118 185.933 118 182.722V1.73861C118 -1.4718 115.397 -4.07426 112.187 -4.07458H6.43539ZM12.2486 11.9698H106.374V164.818H12.2486V11.9698Z" fill="#848484"/>
<path d="M59.3111 181.942C62.7968 181.942 65.6226 179.116 65.6226 175.63C65.6226 172.145 62.7968 169.319 59.3111 169.319C55.8254 169.319 52.9996 172.145 52.9996 175.63C52.9996 179.116 55.8254 181.942 59.3111 181.942Z" fill="white"/>
</g>
<defs>
<clipPath id="clip0_2001_5836">
<rect width="118" height="184" rx="7" fill="white"/>
</clipPath>
</defs>
</svg>
