<svg width="184" height="118" viewBox="0 0 184 118" fill="none" xmlns="http://www.w3.org/2000/svg">
<g clip-path="url(#clip0_2001_6027)">
<rect y="118" width="118" height="184" rx="7" transform="rotate(-90 0 118)" fill="#539EFF"/>
<path d="M25.7392 19H19V25H25.7392V19Z" fill="white"/>
<path d="M47.246 19H31.7392V25H47.246V19Z" fill="white"/>
<path d="M68.7528 19H53.246V25H68.7528V19Z" fill="white"/>
<path d="M92 36.7268C92 35.07 93.3431 33.7268 95 33.7268H146C147.657 33.7268 149 35.07 149 36.7268V47.7268C149 49.3837 147.657 50.7268 146 50.7268H95C93.3431 50.7268 92 49.3837 92 47.7268V36.7268Z" fill="white"/>
<path d="M113.748 45.144L114.896 39.0737H116.648L114.755 47.605H112.986L111.597 41.8979L110.208 47.605H108.439L106.546 39.0737H108.298L109.453 45.1323L110.859 39.0737H112.347L113.748 45.144ZM117.041 44.3765C117.041 43.7476 117.162 43.187 117.404 42.6948C117.646 42.2026 117.994 41.8218 118.447 41.5522C118.904 41.2827 119.433 41.1479 120.035 41.1479C120.89 41.1479 121.587 41.4097 122.126 41.9331C122.669 42.4565 122.972 43.1675 123.035 44.0659L123.046 44.4995C123.046 45.4722 122.775 46.2534 122.232 46.8433C121.689 47.4292 120.96 47.7222 120.046 47.7222C119.132 47.7222 118.402 47.4292 117.855 46.8433C117.312 46.2573 117.041 45.4604 117.041 44.4526V44.3765ZM118.734 44.4995C118.734 45.1011 118.847 45.562 119.074 45.8823C119.3 46.1987 119.625 46.3569 120.046 46.3569C120.457 46.3569 120.777 46.2007 121.007 45.8882C121.238 45.5718 121.353 45.0679 121.353 44.3765C121.353 43.7866 121.238 43.3296 121.007 43.0054C120.777 42.6812 120.453 42.519 120.035 42.519C119.621 42.519 119.3 42.6812 119.074 43.0054C118.847 43.3257 118.734 43.8237 118.734 44.4995ZM127.652 42.853C127.421 42.8218 127.218 42.8062 127.042 42.8062C126.402 42.8062 125.982 43.0229 125.783 43.4565V47.605H124.089V41.2651H125.689L125.736 42.021C126.076 41.439 126.546 41.1479 127.148 41.1479C127.335 41.1479 127.511 41.1733 127.675 41.2241L127.652 42.853ZM128.091 44.3882C128.091 43.3999 128.312 42.6128 128.753 42.0269C129.199 41.4409 129.806 41.1479 130.576 41.1479C131.193 41.1479 131.703 41.3784 132.105 41.8394V38.605H133.804V47.605H132.275L132.193 46.9312C131.771 47.4585 131.228 47.7222 130.564 47.7222C129.818 47.7222 129.218 47.4292 128.765 46.8433C128.316 46.2534 128.091 45.4351 128.091 44.3882ZM129.785 44.5112C129.785 45.105 129.888 45.5601 130.095 45.8765C130.302 46.1929 130.603 46.3511 130.998 46.3511C131.521 46.3511 131.89 46.1304 132.105 45.689V43.187C131.894 42.7456 131.529 42.5249 131.009 42.5249C130.193 42.5249 129.785 43.187 129.785 44.5112Z" fill="#0069F1"/>
<path d="M92 59.7268C92 58.07 93.3431 56.7268 95 56.7268H146C147.657 56.7268 149 58.07 149 59.7268V70.7268C149 72.3837 147.657 73.7268 146 73.7268H95C93.3431 73.7268 92 72.3837 92 70.7268V59.7268Z" fill="#6CD05A"/>
<path d="M113.748 68.144L114.896 62.0737H116.648L114.755 70.605H112.986L111.597 64.8979L110.208 70.605H108.439L106.546 62.0737H108.298L109.453 68.1323L110.859 62.0737H112.347L113.748 68.144ZM117.041 67.3765C117.041 66.7476 117.162 66.187 117.404 65.6948C117.646 65.2026 117.994 64.8218 118.447 64.5522C118.904 64.2827 119.433 64.1479 120.035 64.1479C120.89 64.1479 121.587 64.4097 122.126 64.9331C122.669 65.4565 122.972 66.1675 123.035 67.0659L123.046 67.4995C123.046 68.4722 122.775 69.2534 122.232 69.8433C121.689 70.4292 120.96 70.7222 120.046 70.7222C119.132 70.7222 118.402 70.4292 117.855 69.8433C117.312 69.2573 117.041 68.4604 117.041 67.4526V67.3765ZM118.734 67.4995C118.734 68.1011 118.847 68.562 119.074 68.8823C119.3 69.1987 119.625 69.3569 120.046 69.3569C120.457 69.3569 120.777 69.2007 121.007 68.8882C121.238 68.5718 121.353 68.0679 121.353 67.3765C121.353 66.7866 121.238 66.3296 121.007 66.0054C120.777 65.6812 120.453 65.519 120.035 65.519C119.621 65.519 119.3 65.6812 119.074 66.0054C118.847 66.3257 118.734 66.8237 118.734 67.4995ZM127.652 65.853C127.421 65.8218 127.218 65.8062 127.042 65.8062C126.402 65.8062 125.982 66.0229 125.783 66.4565V70.605H124.089V64.2651H125.689L125.736 65.021C126.076 64.439 126.546 64.1479 127.148 64.1479C127.335 64.1479 127.511 64.1733 127.675 64.2241L127.652 65.853ZM128.091 67.3882C128.091 66.3999 128.312 65.6128 128.753 65.0269C129.199 64.4409 129.806 64.1479 130.576 64.1479C131.193 64.1479 131.703 64.3784 132.105 64.8394V61.605H133.804V70.605H132.275L132.193 69.9312C131.771 70.4585 131.228 70.7222 130.564 70.7222C129.818 70.7222 129.218 70.4292 128.765 69.8433C128.316 69.2534 128.091 68.4351 128.091 67.3882ZM129.785 67.5112C129.785 68.105 129.888 68.5601 130.095 68.8765C130.302 69.1929 130.603 69.3511 130.998 69.3511C131.521 69.3511 131.89 69.1304 132.105 68.689V66.187C131.894 65.7456 131.529 65.5249 131.009 65.5249C130.193 65.5249 129.785 66.187 129.785 67.5112Z" fill="white"/>
<path d="M92 82.7268C92 81.07 93.3431 79.7268 95 79.7268H146C147.657 79.7268 149 81.07 149 82.7268V93.7268C149 95.3837 147.657 96.7268 146 96.7268H95C93.3431 96.7268 92 95.3837 92 93.7268V82.7268Z" fill="white"/>
<path d="M113.748 91.144L114.896 85.0737H116.648L114.755 93.605H112.986L111.597 87.8979L110.208 93.605H108.439L106.546 85.0737H108.298L109.453 91.1323L110.859 85.0737H112.347L113.748 91.144ZM117.041 90.3765C117.041 89.7476 117.162 89.187 117.404 88.6948C117.646 88.2026 117.994 87.8218 118.447 87.5522C118.904 87.2827 119.433 87.1479 120.035 87.1479C120.89 87.1479 121.587 87.4097 122.126 87.9331C122.669 88.4565 122.972 89.1675 123.035 90.0659L123.046 90.4995C123.046 91.4722 122.775 92.2534 122.232 92.8433C121.689 93.4292 120.96 93.7222 120.046 93.7222C119.132 93.7222 118.402 93.4292 117.855 92.8433C117.312 92.2573 117.041 91.4604 117.041 90.4526V90.3765ZM118.734 90.4995C118.734 91.1011 118.847 91.562 119.074 91.8823C119.3 92.1987 119.625 92.3569 120.046 92.3569C120.457 92.3569 120.777 92.2007 121.007 91.8882C121.238 91.5718 121.353 91.0679 121.353 90.3765C121.353 89.7866 121.238 89.3296 121.007 89.0054C120.777 88.6812 120.453 88.519 120.035 88.519C119.621 88.519 119.3 88.6812 119.074 89.0054C118.847 89.3257 118.734 89.8237 118.734 90.4995ZM127.652 88.853C127.421 88.8218 127.218 88.8062 127.042 88.8062C126.402 88.8062 125.982 89.0229 125.783 89.4565V93.605H124.089V87.2651H125.689L125.736 88.021C126.076 87.439 126.546 87.1479 127.148 87.1479C127.335 87.1479 127.511 87.1733 127.675 87.2241L127.652 88.853ZM128.091 90.3882C128.091 89.3999 128.312 88.6128 128.753 88.0269C129.199 87.4409 129.806 87.1479 130.576 87.1479C131.193 87.1479 131.703 87.3784 132.105 87.8394V84.605H133.804V93.605H132.275L132.193 92.9312C131.771 93.4585 131.228 93.7222 130.564 93.7222C129.818 93.7222 129.218 93.4292 128.765 92.8433C128.316 92.2534 128.091 91.4351 128.091 90.3882ZM129.785 90.5112C129.785 91.105 129.888 91.5601 130.095 91.8765C130.302 92.1929 130.603 92.3511 130.998 92.3511C131.521 92.3511 131.89 92.1304 132.105 91.689V89.187C131.894 88.7456 131.529 88.5249 131.009 88.5249C130.193 88.5249 129.785 89.187 129.785 90.5112Z" fill="#0069F1"/>
<rect width="50" height="49" transform="translate(18.7527 39.0568)" fill="white"/>
<path d="M58.9652 74.9665C34.9085 58.4625 60.1819 59.287 32.6219 68.9046C17.7938 74.0791 34.636 96.9145 39.1034 81.8927C47.4065 53.9727 54.4302 78.2016 36.7431 55.0305C27.2269 42.5638 10.6571 65.5966 26.3614 65.1923C55.5498 64.4408 34.6172 78.5906 51.2459 54.6525C60.1927 41.7731 33.1098 33.1727 38.3482 47.9447C48.0845 75.4002 28.1237 59.9163 56.088 68.2929C71.1336 72.7997 70.9652 44.4516 58.4985 53.9854C35.3275 71.7054 43.9236 47.9861 44.5777 77.1012C44.9297 92.7659 71.9085 83.8462 58.9652 74.9665Z" fill="#888A85"/>
<path fill-rule="evenodd" clip-rule="evenodd" d="M53.2746 45.5907C54.6706 48.3694 54.6255 51.7584 52.171 55.2918C51.4698 56.3013 50.8368 57.2411 50.2653 58.1155C52.2568 57.039 54.7407 55.4448 57.8138 53.0947C59.4681 51.8295 61.0191 51.1131 62.4514 50.934C63.9181 50.7506 65.1976 51.1413 66.208 51.9625C68.1488 53.5397 68.8824 56.495 68.7343 59.3128C68.5835 62.1818 67.5093 65.2976 65.3556 67.417C63.1374 69.5999 59.892 70.6044 55.7643 69.368C54.585 69.0147 53.4933 68.7047 52.4829 68.4328C54.1248 69.9892 56.4125 71.8528 59.6031 74.0417C61.3206 75.22 62.483 76.4698 63.0964 77.7732C63.7245 79.1079 63.7474 80.4422 63.2766 81.6545C62.3724 83.9829 59.7811 85.592 57.0485 86.3223C54.2662 87.0658 50.9633 87.0097 48.2768 85.6216C45.5099 84.1921 43.5492 81.4239 43.4526 77.1263C43.425 75.8985 43.3832 74.7671 43.3304 73.7246C42.3536 75.7631 41.2836 78.509 40.1824 82.2119C39.5895 84.2053 38.757 85.6942 37.7037 86.6788C36.6252 87.6871 35.3599 88.1211 34.0585 88.0491C31.5589 87.9109 29.2237 85.9501 27.683 83.5836C26.1143 81.1741 25.1471 78.0237 25.6405 75.0464C26.1486 71.98 28.1822 69.2647 32.2503 67.845C33.4125 67.4395 34.4784 67.0502 35.4561 66.6779C33.2105 66.3813 30.2616 66.2148 26.3904 66.3145C24.3065 66.3681 22.6295 66.0384 21.3652 65.3436C20.0705 64.6321 19.2657 63.5659 18.9321 62.3092C18.2915 59.8954 19.4396 57.0744 21.22 54.8816C23.0327 52.6489 25.7379 50.758 28.7293 50.3059C31.8102 49.8404 35.0278 50.9303 37.6386 54.3506C38.3844 55.3277 39.085 56.2186 39.7421 57.0309C39.331 54.8091 38.5785 51.9603 37.2872 48.319C36.5921 46.3587 36.3882 44.6661 36.6601 43.2521C36.9385 41.8041 37.7063 40.7112 38.8016 40.0064C40.9053 38.6528 43.95 38.8702 46.5911 39.8814C49.2802 40.911 51.9192 42.8928 53.2746 45.5907ZM40.1741 61.0452C38.9265 59.6154 37.4905 57.8627 35.8477 55.7105C33.7003 52.8974 31.2781 52.1914 29.0665 52.5256C26.7654 52.8733 24.5254 54.3778 22.9692 56.2945C21.3806 58.251 20.7361 60.3332 21.108 61.7347C21.2808 62.3857 21.6836 62.9553 22.4514 63.3773C23.2497 63.816 24.4902 64.1176 26.3323 64.0702C32.5493 63.9101 36.5935 64.4159 39.2559 65.1242C39.2867 64.9615 39.3403 64.8468 39.3557 64.814C39.3568 64.8116 39.3577 64.8097 39.3584 64.8082C39.4274 64.657 39.4803 64.5658 39.53 64.4799C39.6108 64.3405 39.6833 64.2153 39.8036 63.8708C39.964 63.4112 40.1401 62.6672 40.17 61.5002C40.1738 61.3551 40.1752 61.2035 40.1741 61.0452ZM42.6305 68.1665C42.6242 68.1855 42.6242 68.1819 42.6316 68.1633C42.6312 68.1644 42.6309 68.1655 42.6305 68.1665ZM43.0231 69.64C42.8774 69.5606 42.7847 69.4743 42.7582 69.4496C42.7562 69.4478 42.7547 69.4463 42.7534 69.4452C42.6306 69.333 42.56 69.2547 42.4934 69.181C42.3855 69.0613 42.2885 68.9537 41.9971 68.7332C41.6085 68.4391 40.9535 68.0421 39.85 67.6531C39.7127 67.6047 39.5686 67.5565 39.4174 67.5086C37.6684 68.2502 35.5535 69.0708 32.9936 69.9641C29.6476 71.1317 28.226 73.2113 27.8612 75.4125C27.4817 77.7027 28.2241 80.2925 29.5708 82.3609C30.9455 84.4724 32.7318 85.7273 34.1831 85.8075C34.8572 85.8448 35.5248 85.6388 36.1645 85.0408C36.8294 84.4191 37.5004 83.3356 38.0244 81.5735C39.793 75.6267 41.525 71.9468 43.0231 69.64ZM46.9668 67.3791C46.9829 67.3909 46.9795 67.3899 46.9641 67.3771C46.965 67.3778 46.9659 67.3784 46.9668 67.3791ZM48.4932 67.462C48.3724 67.5757 48.2614 67.637 48.2297 67.6545C48.2274 67.6558 48.2255 67.6568 48.224 67.6576C48.0791 67.7395 47.9826 67.7823 47.8918 67.8226C47.7443 67.888 47.6118 67.9468 47.3115 68.155C46.9109 68.4328 46.33 68.9315 45.618 69.858C45.5294 69.9733 45.4389 70.095 45.3466 70.2237C45.5133 72.1119 45.6422 74.3717 45.7029 77.076C45.7823 80.6108 47.3259 82.602 49.3121 83.6282C51.3786 84.6959 54.0775 84.792 56.4659 84.1537C58.9041 83.5022 60.6527 82.1955 61.1777 80.8436C61.4215 80.2156 61.4314 79.5187 61.0588 78.7271C60.6716 77.9043 59.8457 76.9329 58.3275 75.8914C53.2035 72.3761 50.2298 69.596 48.4932 67.462ZM47.556 63.0224C47.5722 63.0108 47.5702 63.0137 47.5532 63.0244C47.5542 63.0237 47.5551 63.023 47.556 63.0224ZM48.1067 61.6001C48.1778 61.7498 48.2019 61.874 48.2088 61.9096C48.2093 61.9121 48.2097 61.9142 48.2101 61.9159C48.2433 62.0786 48.2543 62.1834 48.2647 62.2821C48.2815 62.4422 48.2966 62.586 48.4024 62.9353C48.5435 63.4011 48.8394 64.1062 49.5029 65.0679C49.5854 65.1875 49.6736 65.311 49.7677 65.4384C51.6197 65.8637 53.8143 66.4398 56.4117 67.2178C59.8068 68.2348 62.1824 67.3859 63.7747 65.8189C65.4314 64.1886 66.357 61.6582 66.4865 59.1953C66.6187 56.6811 65.913 54.6187 64.7862 53.7029C64.2628 53.2775 63.6013 53.0528 62.7314 53.1616C61.8271 53.2747 60.6457 53.7579 59.1833 54.8763C54.248 58.6505 50.6781 60.6123 48.1067 61.6001ZM43.5838 61.1172C43.5778 61.0982 43.5799 61.1011 43.5848 61.1205C43.5845 61.1193 43.5841 61.1183 43.5838 61.1172ZM40.5397 64.2965C40.5197 64.2963 40.523 64.2952 40.5431 64.2965C40.5419 64.2965 40.5408 64.2965 40.5397 64.2965ZM42.3978 60.1553C42.2505 57.4108 41.483 53.4183 39.4092 47.5704C38.7948 45.8376 38.699 44.5676 38.8707 43.6749C39.0358 42.8161 39.4544 42.258 40.0218 41.893C41.2432 41.107 43.4279 41.075 45.7844 41.9773C48.0929 42.8612 50.2196 44.5212 51.2623 46.5965C52.2644 48.5911 52.3397 51.107 50.3209 54.0132C48.7763 56.2367 47.5489 58.1404 46.571 59.7658C46.4204 59.8157 46.2754 59.8612 46.1359 59.9025C45.0139 60.2347 44.25 60.2975 43.7623 60.2874C43.3966 60.2798 43.2547 60.2497 43.0969 60.2162C42.9996 60.1955 42.8963 60.1736 42.7308 60.1548C42.7292 60.1546 42.727 60.1544 42.7244 60.1541C42.6884 60.1496 42.5625 60.1341 42.3978 60.1553Z" fill="#888A85"/>
<path d="M48.7686 64.0461C48.769 64.6922 48.6417 65.3321 48.3941 65.9292C48.1465 66.5263 47.7833 67.0688 47.3254 67.5258C46.8674 67.9829 46.3237 68.3454 45.7252 68.5928C45.1267 68.8402 44.4852 68.9675 43.8374 68.9675C43.1896 68.9675 42.5481 68.8402 41.9496 68.5928C41.3512 68.3454 40.8074 67.9829 40.3495 67.5258C39.8915 67.0688 39.5284 66.5263 39.2807 65.9292C39.0331 65.3321 38.9058 64.6922 38.9063 64.0461C38.9058 63.3999 39.0331 62.76 39.2807 62.1629C39.5284 61.5659 39.8915 61.0233 40.3495 60.5663C40.8074 60.1092 41.3512 59.7467 41.9496 59.4993C42.5481 59.252 43.1896 59.1246 43.8374 59.1246C44.4852 59.1246 45.1267 59.252 45.7252 59.4993C46.3237 59.7467 46.8674 60.1092 47.3254 60.5663C47.7833 61.0233 48.1465 61.5659 48.3941 62.1629C48.6417 62.76 48.769 63.3999 48.7686 64.0461V64.0461Z" fill="#BABDB6"/>
<path fill-rule="evenodd" clip-rule="evenodd" d="M43.8375 60.2472C43.3375 60.2472 42.8424 60.3455 42.3805 60.5364C41.9186 60.7273 41.499 61.0071 41.1456 61.3598C40.7922 61.7126 40.5119 62.1313 40.3208 62.5921C40.1296 63.0529 40.0314 63.5467 40.0317 64.0454V64.0468C40.0314 64.5455 40.1296 65.0393 40.3208 65.5001C40.5119 65.9609 40.7922 66.3797 41.1456 66.7324C41.499 67.0851 41.9186 67.3649 42.3805 67.5558C42.8424 67.7467 43.3375 67.845 43.8375 67.845C44.3374 67.845 44.8325 67.7467 45.2944 67.5558C45.7563 67.3649 46.176 67.0851 46.5294 66.7324C46.8828 66.3797 47.1631 65.9609 47.3542 65.5001C47.5453 65.0393 47.6435 64.5455 47.6432 64.0468L48.7686 64.0461L47.6432 64.0454C47.6435 63.5467 47.5453 63.0529 47.3542 62.5921C47.1631 62.1313 46.8828 61.7126 46.5294 61.3598C46.176 61.0071 45.7563 60.7273 45.2944 60.5364C44.8325 60.3455 44.3374 60.2472 43.8375 60.2472ZM49.8941 64.0461C49.8945 63.2527 49.7382 62.467 49.4341 61.7339C49.13 61.0006 48.6839 60.3342 48.1215 59.7729C47.559 59.2115 46.8912 58.7662 46.1561 58.4624C45.421 58.1586 44.6332 58.0022 43.8375 58.0022C43.0418 58.0022 42.2539 58.1586 41.5189 58.4624C40.7838 58.7662 40.116 59.2115 39.5535 59.7729C38.991 60.3342 38.545 61.0006 38.2408 61.7339C37.9368 62.467 37.7805 63.2527 37.7809 64.0461C37.7805 64.8395 37.9368 65.6252 38.2408 66.3583C38.545 67.0917 38.991 67.758 39.5535 68.3194C40.116 68.8807 40.7838 69.326 41.5189 69.6298C42.2539 69.9336 43.0418 70.09 43.8375 70.09C44.6332 70.09 45.421 69.9336 46.1561 69.6298C46.8912 69.326 47.559 68.8807 48.1215 68.3194C48.6839 67.758 49.13 67.0917 49.4341 66.3583C49.7382 65.6252 49.8945 64.8395 49.8941 64.0461Z" fill="#BABDB6"/>
<path d="M-3.9939 112.106C-3.9939 115.317 -1.39111 117.919 1.8193 117.919H182.803C186.013 117.919 188.616 115.317 188.616 112.106V6.35472C188.616 3.14431 186.013 0.541845 182.803 0.54152H1.8193C-1.39111 0.54152 -3.99357 3.14431 -3.9939 6.35472V112.106ZM12.0505 106.293V12.1679H164.898V106.293H12.0505Z" fill="#848484"/>
<path d="M182.023 59.2304C182.023 55.7447 179.197 52.9189 175.711 52.9189C172.225 52.9189 169.4 55.7447 169.4 59.2304C169.4 62.7161 172.225 65.5419 175.711 65.5419C179.197 65.5419 182.023 62.7161 182.023 59.2304Z" fill="white"/>
</g>
<defs>
<clipPath id="clip0_2001_6027">
<rect y="118" width="118" height="184" rx="7" transform="rotate(-90 0 118)" fill="white"/>
</clipPath>
</defs>
</svg>
