<svg width="193" height="118" viewBox="0 0 193 118" fill="none" xmlns="http://www.w3.org/2000/svg">
<rect x="11.6591" y="7.46159" width="161.782" height="104.491" fill="white"/>
<path d="M0.0478516 111.908C0.0478516 115.119 2.65064 117.721 5.86105 117.722H186.845C190.055 117.721 192.657 115.119 192.658 111.908V6.15703C192.658 2.94662 190.055 0.344154 186.845 0.343828H5.86105C2.65064 0.343828 0.0481771 2.94662 0.0478516 6.15703V111.908ZM16.0923 106.095V11.9702H168.94V106.095H16.0923Z" fill="#848484"/>
<path d="M186.064 59.0327C186.064 55.547 183.239 52.7212 179.753 52.7212C176.267 52.7212 173.441 55.547 173.441 59.0327C173.441 62.5184 176.267 65.3442 179.753 65.3442C183.239 65.3442 186.064 62.5184 186.064 59.0327Z" fill="white"/>
<path d="M45.3735 19.9784H26.5046V24.898H45.3735V19.9784Z" fill="#848484"/>
<path d="M121.756 35.0439C121.777 33.8223 121.915 32.8573 122.172 32.149C122.429 31.4406 122.952 30.6553 123.743 29.7929L125.76 27.7141C126.622 26.7389 127.053 25.6917 127.053 24.5728C127.053 23.4948 126.771 22.653 126.206 22.0474C125.642 21.4314 124.821 21.1234 123.743 21.1234C122.695 21.1234 121.854 21.4006 121.217 21.955C120.581 22.5093 120.262 23.2536 120.262 24.1878H117.414C117.434 22.5247 118.025 21.185 119.185 20.1687C120.355 19.1421 121.874 18.6288 123.743 18.6288C125.683 18.6288 127.192 19.1524 128.27 20.1995C129.358 21.2364 129.902 22.6633 129.902 24.4804C129.902 26.2769 129.071 28.0477 127.408 29.7929L125.729 31.456C124.98 32.2875 124.605 33.4835 124.605 35.0439H121.756ZM121.633 39.9253C121.633 39.4634 121.772 39.0784 122.049 38.7704C122.336 38.4522 122.757 38.2931 123.311 38.2931C123.866 38.2931 124.287 38.4522 124.574 38.7704C124.862 39.0784 125.005 39.4634 125.005 39.9253C125.005 40.3873 124.862 40.7723 124.574 41.0802C124.287 41.378 123.866 41.5268 123.311 41.5268C122.757 41.5268 122.336 41.378 122.049 41.0802C121.772 40.7723 121.633 40.3873 121.633 39.9253Z" fill="#848484"/>
<path d="M60.4421 19.9784H49.1832V24.898H60.4421V19.9784Z" fill="#848484"/>
<path d="M104.308 19.9784H87.5067V24.898H104.308V19.9784Z" fill="#848484"/>
<path d="M82.6255 19.7111H64.6849V24.6307H82.6255V19.7111Z" fill="#848484"/>
<path d="M62.075 47.9092H50.8161V52.8288H62.075V47.9092Z" fill="#848484"/>
<path d="M113.951 47.9092H89.1396V52.8288H113.951V47.9092Z" fill="#848484"/>
<path d="M84.2584 47.6419H66.3178V52.5615H84.2584V47.6419Z" fill="#848484"/>
<path d="M50.8161 67.6192H67.6172V72.5388H50.8161V67.6192Z" fill="#848484"/>
<path d="M72.4985 67.352H90.4391V72.2715H72.4985V67.352Z" fill="#848484"/>
<path d="M85.075 88.5804H73.8161V93.5H85.075V88.5804Z" fill="#848484"/>
<path d="M105.941 88.5804H89.1396V93.5H105.941V88.5804Z" fill="#848484"/>
<path d="M68.7567 88.3131H50.8161V93.2327H68.7567V88.3131Z" fill="#848484"/>
<path fill-rule="evenodd" clip-rule="evenodd" d="M38.925 84.75V95.25H28.075V84.75H38.925V84.75ZM38.925 83.25H28.075C27.2225 83.25 26.525 83.925 26.525 84.75V95.25C26.525 96.075 27.2225 96.75 28.075 96.75H38.925C39.7775 96.75 40.475 96.075 40.475 95.25V84.75C40.475 83.925 39.7775 83.25 38.925 83.25V83.25V83.25Z" fill="#848484"/>
<path fill-rule="evenodd" clip-rule="evenodd" d="M38.925 45.075V55.925H28.075V45.075H38.925V45.075ZM38.925 43.525H28.075C27.2225 43.525 26.525 44.2225 26.525 45.075V55.925C26.525 56.7775 27.2225 57.475 28.075 57.475H38.925C39.7775 57.475 40.475 56.7775 40.475 55.925V45.075C40.475 44.2225 39.7775 43.525 38.925 43.525V43.525V43.525Z" fill="#848484"/>
<path fill-rule="evenodd" clip-rule="evenodd" d="M39.0042 63.4518H28.2394C27.3936 63.4518 26.7016 64.1438 26.7016 64.9896V75.7544C26.7016 76.6002 27.3936 77.2922 28.2394 77.2922H39.0042C39.85 77.2922 40.542 76.6002 40.542 75.7544V64.9896C40.542 64.1438 39.85 63.4518 39.0042 63.4518V63.4518ZM32.084 74.2166L28.2394 70.372L29.3159 69.2955L32.084 72.0636L37.9277 66.2199L39.0042 67.2964L32.084 74.2166V74.2166Z" fill="#848484"/>
</svg>
